<svg width="760" height="761" viewBox="0 0 760 761" fill="none" xmlns="http://www.w3.org/2000/svg">
<path opacity="0.1" d="M123.211 124.73C119.23 126.544 115.873 129.495 113.565 133.212C111.256 136.929 110.098 141.246 110.236 145.619C110.194 149.664 111.575 153.594 114.136 156.725C116.697 159.855 120.277 161.986 124.249 162.746C121.235 164.133 118.585 166.192 116.494 168.767C114.402 171.342 112.929 174.364 112.189 177.598C111.45 180.833 111.463 184.194 112.227 187.422C112.992 190.651 114.488 193.661 116.6 196.22C117.917 197.353 119.449 198.209 121.104 198.739C122.759 199.269 124.503 199.461 126.234 199.303C127.964 199.146 129.646 198.643 131.178 197.823C132.71 197.004 134.063 195.885 135.154 194.533C136.006 193.903 136.726 193.11 137.271 192.202C137.817 191.294 138.179 190.286 138.336 189.238C138.492 188.19 138.441 187.121 138.184 186.093C137.928 185.064 137.471 184.097 136.841 183.245C136.211 182.393 135.418 181.673 134.51 181.128C133.601 180.582 132.594 180.22 131.546 180.064C130.498 179.907 129.429 179.958 128.401 180.215C127.372 180.471 126.405 180.928 125.553 181.558C125.42 181.929 125.212 182.268 124.941 182.554C124.671 182.841 124.344 183.068 123.982 183.222C123.62 183.376 123.229 183.454 122.835 183.45C122.442 183.445 122.053 183.36 121.694 183.198C121.335 183.037 121.013 182.803 120.749 182.511C120.484 182.219 120.284 181.875 120.158 181.502C120.033 181.128 119.987 180.733 120.022 180.341C120.057 179.949 120.173 179.568 120.362 179.222C120.855 177.262 121.741 175.422 122.966 173.815C124.191 172.207 125.73 170.865 127.489 169.87C129.248 168.875 131.192 168.248 133.201 168.027C135.21 167.806 137.243 167.995 139.177 168.583C155.266 171.178 157.212 191.808 146.313 202.707C135.849 211.895 127.75 223.466 122.698 236.442M152.017 151.718C147.687 152.871 143.124 152.815 138.824 151.557C134.523 150.299 130.65 147.886 127.624 144.582C125.301 141.717 123.758 138.3 123.144 134.662C122.53 131.025 122.866 127.291 124.12 123.822C125.935 119.84 128.886 116.484 132.603 114.176C136.32 111.867 140.637 110.709 145.011 110.847C149.055 110.805 152.986 112.186 156.116 114.747C159.246 117.308 161.378 120.887 162.138 124.86C163.525 121.846 165.595 119.19 168.17 117.098C170.745 115.006 173.767 113.534 177.001 112.794C180.236 112.054 183.597 112.067 186.825 112.832C190.054 113.597 193.064 115.092 195.623 117.204C196.756 118.522 197.613 120.053 198.143 121.708C198.672 123.363 198.864 125.108 198.707 126.838C198.549 128.569 198.046 130.25 197.227 131.782C196.407 133.315 195.288 134.667 193.936 135.758C193.306 136.61 192.514 137.33 191.605 137.876C190.697 138.421 189.69 138.783 188.641 138.94C187.593 139.096 186.524 139.045 185.496 138.788C184.468 138.532 183.5 138.076 182.648 137.445C181.796 136.815 181.077 136.023 180.531 135.114C179.985 134.206 179.623 133.199 179.467 132.15C179.15 130.033 179.688 127.877 180.961 126.157C181.591 125.812 182.067 125.242 182.295 124.561C182.523 123.88 182.486 123.138 182.192 122.483C181.897 121.828 181.366 121.308 180.705 121.027C180.044 120.746 179.302 120.725 178.626 120.967C176.665 121.459 174.826 122.345 173.218 123.57C171.61 124.795 170.268 126.334 169.273 128.093C168.278 129.853 167.651 131.796 167.43 133.805C167.209 135.814 167.398 137.847 167.986 139.781C170.581 155.87 191.212 157.816 202.111 146.917C211.299 136.453 222.87 128.354 235.846 123.302L236.625 134.461C227.141 138.682 218.383 144.375 210.674 151.328C195.493 165.601 172.657 168.196 162.147 151.328C158.652 143.321 156.167 134.909 154.751 126.287M123.479 124.209C126.948 122.955 130.682 122.618 134.319 123.232C137.957 123.846 141.374 125.389 144.239 127.712C147.544 130.738 149.956 134.611 151.214 138.912C152.472 143.212 152.528 147.775 151.376 152.105M123.214 636.983C119.233 635.168 115.876 632.217 113.568 628.5C111.259 624.783 110.101 620.466 110.239 616.093C110.073 611.96 111.396 607.906 113.968 604.667C116.54 601.428 120.189 599.221 124.252 598.447C121.238 597.06 118.585 594.997 116.494 592.422C114.402 589.846 112.929 586.825 112.189 583.591C111.45 580.356 111.463 576.995 112.227 573.767C112.992 570.538 114.488 567.528 116.6 564.969C117.917 563.836 119.449 562.979 121.104 562.45C122.759 561.92 124.503 561.728 126.234 561.885C127.964 562.043 129.646 562.546 131.178 563.366C132.71 564.185 134.063 565.304 135.154 566.656C136.875 567.929 138.019 569.834 138.336 571.951C138.652 574.068 138.114 576.223 136.841 577.944C135.568 579.665 133.663 580.809 131.546 581.125C129.429 581.442 127.273 580.904 125.553 579.631C125.42 579.26 125.212 578.921 124.941 578.634C124.671 578.348 124.344 578.121 123.982 577.967C123.62 577.813 123.229 577.735 122.835 577.739C122.442 577.743 122.053 577.829 121.694 577.99C121.335 578.152 121.013 578.386 120.749 578.678C120.484 578.97 120.284 579.314 120.158 579.687C120.033 580.061 119.987 580.456 120.022 580.848C120.057 581.24 120.173 581.621 120.362 581.966C120.871 583.917 121.767 585.746 122.996 587.343C124.225 588.941 125.763 590.276 127.517 591.268C129.272 592.261 131.208 592.891 133.211 593.12C135.214 593.35 137.243 593.175 139.177 592.606C155.266 590.011 157.212 569.38 146.313 558.481C135.95 549.514 127.858 538.221 122.698 525.525L133.857 524.747C138.078 534.231 143.771 542.988 150.724 550.697C164.997 565.877 167.592 588.713 150.724 599.223C142.953 602.693 134.747 605.093 126.331 606.359M152.017 609.475C147.687 608.323 143.124 608.378 138.824 609.637C134.523 610.895 130.65 613.307 127.624 616.611C125.301 619.477 123.758 622.894 123.144 626.531C122.53 630.168 122.866 633.902 124.12 637.371C125.935 641.353 128.886 644.709 132.603 647.018C136.32 649.326 140.637 650.485 145.011 650.346C149.055 650.388 152.986 649.008 156.116 646.447C159.246 643.885 161.378 640.306 162.138 636.333C163.525 639.348 165.598 642.002 168.173 644.094C170.748 646.186 173.77 647.659 177.004 648.398C180.239 649.138 183.6 649.125 186.829 648.36C190.057 647.596 193.067 646.1 195.626 643.988C196.719 642.677 197.542 641.163 198.049 639.534C198.555 637.904 198.735 636.19 198.579 634.491C198.422 632.791 197.931 631.14 197.135 629.63C196.339 628.12 195.253 626.783 193.939 625.693C192.666 623.973 190.762 622.828 188.645 622.512C186.528 622.196 184.372 622.733 182.651 624.007C180.93 625.28 179.786 627.184 179.47 629.301C179.153 631.418 179.691 633.574 180.964 635.295C181.335 635.428 181.674 635.636 181.961 635.906C182.247 636.176 182.474 636.503 182.628 636.865C182.782 637.228 182.86 637.618 182.856 638.012C182.852 638.406 182.766 638.794 182.605 639.153C182.443 639.513 182.209 639.834 181.917 640.099C181.625 640.363 181.281 640.564 180.908 640.689C180.534 640.814 180.139 640.86 179.747 640.825C179.355 640.79 178.974 640.674 178.629 640.485C176.668 639.992 174.829 639.107 173.221 637.882C171.613 636.657 170.271 635.118 169.276 633.358C168.281 631.599 167.654 629.656 167.433 627.647C167.212 625.638 167.401 623.605 167.989 621.671C170.584 605.582 191.215 603.636 202.114 614.535C211.331 624.904 222.899 632.913 235.849 637.89L236.628 626.731C227.144 622.51 218.386 616.817 210.677 609.864C195.496 595.591 172.66 592.996 162.15 609.215C158.631 617.27 156.104 625.722 154.625 634.387M634.838 125.766C642.303 132.035 648.095 140.058 651.695 149.116C655.296 158.174 656.593 167.984 655.469 177.666C651.966 213.218 640.937 214.905 637.304 236.313L647.554 235.535C650.068 226.208 653.322 217.097 657.285 208.287C667.147 184.284 667.406 140.817 644.31 117.462C621.214 94.1073 577.099 93.9776 553.484 104.487C544.674 108.45 535.563 111.704 526.236 114.219L525.457 124.469C546.866 120.836 548.553 109.807 584.105 106.304C593.788 105.18 603.598 106.477 612.656 110.077C621.714 113.678 629.737 119.47 636.006 126.934M609.542 151.458L614.991 146.008C617.255 146.28 619.55 146.034 621.705 145.289C623.859 144.544 625.816 143.319 627.428 141.707C629.04 140.095 630.265 138.138 631.01 135.984C631.755 133.829 632.001 131.534 631.729 129.27C631.427 127.074 630.598 124.984 629.313 123.177C628.028 121.37 626.325 119.901 624.35 118.894C622.375 117.887 620.185 117.373 617.968 117.395C615.751 117.417 613.573 117.974 611.618 119.02C602.016 125.378 605.779 140.429 598.642 151.328C588.133 168.195 565.296 165.6 550.115 151.328C542.407 144.374 533.649 138.682 524.165 134.46L524.943 123.302C537.639 128.461 548.933 136.554 557.9 146.916C568.799 157.815 589.43 155.869 592.025 139.78C592.594 137.846 592.769 135.818 592.54 133.815C592.31 131.812 591.68 129.876 590.688 128.121C589.695 126.366 588.361 124.829 586.763 123.6C585.165 122.371 583.336 121.475 581.385 120.966C581.04 120.777 580.659 120.661 580.267 120.626C579.875 120.591 579.48 120.637 579.106 120.762C578.733 120.887 578.389 121.088 578.097 121.353C577.805 121.617 577.571 121.939 577.41 122.298C577.248 122.657 577.162 123.045 577.158 123.439C577.154 123.833 577.232 124.223 577.386 124.586C577.54 124.948 577.767 125.275 578.054 125.545C578.34 125.815 578.679 126.023 579.05 126.156C580.323 127.877 580.861 130.033 580.544 132.15C580.228 134.267 579.084 136.171 577.363 137.445C575.642 138.718 573.487 139.255 571.37 138.939C569.253 138.623 567.348 137.478 566.075 135.758C564.723 134.666 563.604 133.314 562.784 131.782C561.965 130.249 561.462 128.568 561.304 126.838C561.147 125.107 561.339 123.363 561.868 121.708C562.398 120.053 563.255 118.521 564.388 117.204C566.947 115.092 569.957 113.596 573.186 112.831C576.414 112.067 579.775 112.054 583.01 112.793C586.244 113.533 589.266 115.006 591.841 117.097C594.416 119.189 596.477 121.845 597.864 124.859C598.849 120.988 601.147 117.579 604.365 115.213C607.583 112.847 611.522 111.67 615.51 111.884C619.88 111.763 624.19 112.928 627.904 115.234C631.617 117.541 634.572 120.888 636.4 124.859C637.654 128.328 637.991 132.062 637.377 135.699C636.763 139.336 635.22 142.753 632.897 145.619C629.801 148.81 625.896 151.099 621.599 152.242C617.302 153.385 612.776 153.338 608.504 152.106C607.351 147.776 607.396 143.212 608.654 138.912C609.912 134.611 612.324 130.738 615.629 127.712C618.494 125.389 621.911 123.846 625.548 123.232C629.186 122.618 632.92 122.955 636.389 124.209C640.371 126.023 643.727 128.974 646.036 132.691C648.344 136.408 649.502 140.725 649.364 145.098C649.531 149.231 648.207 153.285 645.635 156.524C643.063 159.763 639.414 161.97 635.351 162.744C638.365 164.131 641.021 166.192 643.112 168.767C645.204 171.342 646.677 174.364 647.417 177.598C648.156 180.833 648.143 184.194 647.379 187.422C646.614 190.651 645.118 193.661 643.006 196.22C640.382 198.306 637.052 199.296 633.714 198.982C630.376 198.667 627.289 197.073 625.101 194.533C623.38 193.26 622.236 191.355 621.919 189.238C621.603 187.121 622.14 184.965 623.414 183.245C624.687 181.524 626.592 180.38 628.709 180.064C630.826 179.747 632.982 180.285 634.702 181.558C635.048 182.188 635.618 182.664 636.299 182.892C636.98 183.12 637.722 183.083 638.376 182.788C639.031 182.494 639.551 181.963 639.832 181.302C640.113 180.641 640.135 179.899 639.892 179.222C639.4 177.262 638.514 175.422 637.289 173.815C636.064 172.207 634.525 170.865 632.766 169.87C631.006 168.875 629.063 168.248 627.054 168.027C625.045 167.806 623.012 167.995 621.078 168.583C604.989 171.178 603.043 191.808 613.942 202.707C624.311 211.924 632.32 223.492 637.297 236.442L626.139 237.221C621.917 227.737 616.224 218.979 609.271 211.271C594.998 196.09 592.403 173.254 608.622 162.744C619.521 155.608 634.572 159.371 640.93 149.769C641.976 147.814 642.533 145.636 642.555 143.419C642.577 141.202 642.063 139.013 641.056 137.037C640.049 135.062 638.58 133.36 636.773 132.075C634.967 130.79 632.876 129.961 630.68 129.658C628.416 129.386 626.121 129.632 623.966 130.377C621.812 131.122 619.855 132.347 618.243 133.959C616.631 135.571 615.406 137.528 614.661 139.682C613.916 141.837 613.67 144.132 613.942 146.396L608.492 151.845M634.838 635.423C642.303 629.155 648.095 621.132 651.695 612.074C655.296 603.016 656.593 593.206 655.469 583.523C651.966 547.972 640.937 546.285 637.304 524.876L647.554 525.655C650.068 534.982 653.322 544.093 657.285 552.902C667.147 576.906 667.406 620.372 644.31 643.727C621.214 667.082 577.099 667.212 553.484 656.702C544.674 652.739 535.563 649.485 526.236 646.971L525.457 636.721C546.866 640.354 548.553 651.383 584.105 654.886C593.788 656.01 603.598 654.713 612.656 651.113C621.714 647.512 629.737 641.72 636.006 634.256M636.398 636.98C632.929 638.234 629.195 638.571 625.557 637.957C621.92 637.343 618.503 635.8 615.638 633.477C612.333 630.451 609.921 626.578 608.663 622.277C607.405 617.977 607.349 613.414 608.501 609.084C612.831 607.932 617.397 607.989 621.697 609.247C625.997 610.505 629.871 612.917 632.897 616.222C635.22 619.087 636.763 622.504 637.377 626.141C637.991 629.779 637.652 633.511 636.398 636.98ZM636.398 636.98C640.38 635.166 643.736 632.214 646.045 628.497C648.353 624.78 649.511 620.464 649.373 616.091C649.54 611.958 648.216 607.903 645.644 604.665C643.072 601.426 639.423 599.219 635.36 598.445C638.374 597.058 641.03 594.997 643.122 592.422C645.214 589.846 646.686 586.825 647.426 583.591C648.165 580.356 648.152 576.995 647.388 573.767C646.623 570.538 645.127 567.528 643.015 564.969C641.698 563.836 640.166 562.979 638.511 562.45C636.856 561.92 635.112 561.728 633.381 561.885C631.651 562.043 629.969 562.546 628.437 563.366C626.905 564.185 625.553 565.304 624.461 566.656C622.74 567.929 621.596 569.834 621.28 571.951C620.963 574.068 621.501 576.223 622.774 577.944C624.047 579.665 625.952 580.809 628.069 581.125C630.186 581.442 632.342 580.904 634.063 579.631C634.408 579.001 634.978 578.525 635.659 578.297C636.34 578.069 637.082 578.106 637.737 578.4C638.392 578.695 638.911 579.226 639.192 579.887C639.473 580.548 639.495 581.29 639.253 581.966C638.744 583.917 637.848 585.746 636.619 587.343C635.39 588.941 633.853 590.276 632.098 591.268C630.343 592.261 628.407 592.891 626.404 593.12C624.401 593.35 622.372 593.175 620.439 592.606C604.349 590.011 602.403 569.38 613.302 558.481C623.665 549.514 631.757 538.221 636.917 525.525L625.758 524.747C621.537 534.231 615.844 542.988 608.891 550.697C594.618 565.877 592.023 588.713 608.242 599.223C619.141 606.359 634.192 602.597 640.55 612.198C641.596 614.153 642.153 616.332 642.175 618.549C642.197 620.765 641.683 622.955 640.676 624.93C639.669 626.905 638.2 628.608 636.393 629.893C634.587 631.178 632.496 632.007 630.3 632.309C628.036 632.581 625.741 632.335 623.586 631.59C621.432 630.845 619.475 629.62 617.863 628.008C616.251 626.396 615.026 624.439 614.281 622.285C613.536 620.13 613.29 617.835 613.562 615.572L608.112 610.122M636.398 636.98C634.57 640.951 631.617 644.3 627.904 646.606C624.19 648.913 619.88 650.078 615.51 649.957C611.378 650.123 607.323 648.8 604.084 646.228C600.845 643.656 598.638 640.007 597.864 635.944C596.477 638.958 594.416 641.613 591.841 643.705C589.266 645.797 586.244 647.27 583.01 648.009C579.775 648.749 576.414 648.736 573.186 647.971C569.957 647.207 566.947 645.711 564.388 643.599C562.301 640.975 561.311 637.645 561.626 634.307C561.94 630.969 563.534 627.882 566.075 625.694C567.348 623.973 569.253 622.829 571.37 622.512C573.487 622.196 575.642 622.734 577.363 624.007C579.084 625.28 580.228 627.185 580.544 629.302C580.861 631.419 580.323 633.575 579.05 635.295C578.679 635.428 578.34 635.636 578.054 635.906C577.767 636.177 577.54 636.503 577.386 636.866C577.232 637.228 577.154 637.618 577.158 638.012C577.162 638.406 577.248 638.795 577.41 639.154C577.571 639.513 577.805 639.835 578.097 640.099C578.389 640.363 578.733 640.564 579.106 640.689C579.48 640.814 579.875 640.861 580.267 640.825C580.659 640.79 581.04 640.674 581.385 640.485C583.336 639.976 585.165 639.081 586.763 637.852C588.361 636.623 589.695 635.085 590.688 633.33C591.68 631.576 592.31 629.639 592.54 627.637C592.769 625.634 592.594 623.605 592.025 621.671C589.43 605.582 568.799 603.636 557.9 614.535C548.933 624.898 537.639 632.99 524.943 638.15L524.165 626.991C533.649 622.77 542.407 617.077 550.115 610.124C565.296 595.851 588.133 593.256 598.642 609.475C605.779 620.374 602.016 635.425 611.618 641.783C613.573 642.828 615.751 643.386 617.968 643.408C620.185 643.43 622.375 642.915 624.35 641.909C626.325 640.902 628.028 639.433 629.313 637.626C630.598 635.819 631.427 633.729 631.729 631.532C632.001 629.269 631.755 626.973 631.01 624.819C630.265 622.665 629.04 620.708 627.428 619.096C625.816 617.484 623.859 616.259 621.705 615.514C619.55 614.769 617.255 614.523 614.991 614.795L609.542 609.345M310.584 713.533C309.261 712.933 308.074 712.072 307.093 711.002C306.112 709.932 305.357 708.674 304.875 707.305C304.292 705.975 303.992 704.539 303.992 703.088C303.992 701.636 304.292 700.201 304.875 698.871C305.44 697.527 306.29 696.321 307.364 695.336C308.439 694.35 309.715 693.609 311.103 693.162C312.434 692.587 313.869 692.291 315.32 692.291C316.77 692.291 318.205 692.587 319.537 693.162C320.859 693.762 322.046 694.623 323.027 695.693C324.009 696.763 324.763 698.021 325.246 699.39C326.284 702.105 326.284 705.108 325.246 707.824C323.982 710.429 321.746 712.433 319.018 713.403C316.315 714.506 313.287 714.506 310.584 713.403M712.945 311.179C712.345 309.856 711.484 308.669 710.414 307.688C709.344 306.707 708.086 305.952 706.716 305.47C705.387 304.887 703.951 304.587 702.5 304.587C701.048 304.587 699.612 304.887 698.283 305.47C696.938 306.035 695.732 306.884 694.747 307.959C693.762 309.034 693.02 310.31 692.573 311.698C691.999 313.029 691.702 314.464 691.702 315.915C691.702 317.365 691.999 318.8 692.573 320.131C693.779 322.76 695.969 324.811 698.672 325.84C701.387 326.879 704.39 326.879 707.106 325.84C708.428 325.241 709.615 324.38 710.596 323.31C711.578 322.239 712.332 320.982 712.815 319.612C713.918 316.909 713.918 313.882 712.815 311.179M712.945 450.011C712.345 451.334 711.484 452.521 710.414 453.502C709.344 454.483 708.086 455.238 706.716 455.72C705.387 456.303 703.951 456.603 702.5 456.603C701.048 456.603 699.612 456.303 698.283 455.72C696.938 455.155 695.732 454.306 694.747 453.231C693.762 452.156 693.02 450.88 692.573 449.492C691.999 448.161 691.702 446.726 691.702 445.275C691.702 443.825 691.999 442.39 692.573 441.059C693.779 438.43 695.969 436.379 698.672 435.35C701.387 434.311 704.39 434.311 707.106 435.35C708.428 435.949 709.615 436.81 710.596 437.88C711.578 438.951 712.332 440.208 712.815 441.578C713.918 444.281 713.918 447.308 712.815 450.011M449.412 713.533C452.058 712.285 454.108 710.049 455.122 707.305C455.704 705.975 456.005 704.539 456.005 703.088C456.005 701.636 455.704 700.201 455.122 698.871C454.556 697.527 453.707 696.321 452.632 695.336C451.557 694.35 450.282 693.609 448.893 693.162C447.562 692.587 446.127 692.291 444.676 692.291C443.226 692.291 441.791 692.587 440.46 693.162C439.137 693.762 437.95 694.623 436.969 695.693C435.988 696.763 435.233 698.021 434.75 699.39C433.712 702.105 433.712 705.108 434.75 707.824C436.014 710.429 438.251 712.433 440.979 713.403C443.682 714.506 446.709 714.506 449.412 713.403M242.334 61.6714C243.128 63.2918 244.294 64.701 245.738 65.7836C247.181 66.8661 248.861 67.5913 250.638 67.8994C251.069 68.0715 251.413 68.4074 251.595 68.8332C251.778 69.259 251.784 69.7399 251.612 70.17C251.439 70.6002 251.104 70.9444 250.678 71.1269C250.252 71.3094 249.771 71.3152 249.341 71.1432C247.944 70.348 246.39 69.8678 244.789 69.736C243.187 69.6042 241.576 69.8241 240.068 70.3803C238.56 70.9365 237.192 71.8155 236.059 72.9558C234.927 74.0962 234.057 75.4703 233.511 76.9819C232.473 79.6973 232.473 82.7003 233.511 85.4156C234.759 88.0614 236.995 90.1115 239.739 91.1247C241.071 91.6995 242.506 91.996 243.956 91.996C245.406 91.996 246.842 91.6995 248.173 91.1247C249.686 90.4382 251.022 89.415 252.079 88.1332C253.136 86.8514 253.886 85.3449 254.271 83.7289C254.271 82.0422 257.385 81.9124 260.24 82.5612C264.262 89.5677 264.262 96.1849 256.607 100.207C252.498 101.784 248.056 102.289 243.698 101.676C239.34 101.063 235.209 99.3523 231.695 96.7039C228.534 93.5816 226.104 89.7984 224.578 85.6259C223.053 81.4533 222.47 76.9949 222.871 72.5704C222.802 67.7231 223.703 62.9108 225.522 58.4172C227.341 53.9235 230.041 49.8394 233.463 46.4054C236.885 42.9714 240.96 40.257 245.447 38.4221C249.934 36.5872 254.744 35.669 259.591 35.7214C264.435 35.7043 269.235 36.6457 273.713 38.4915C278.192 40.3372 282.261 43.0508 285.686 46.476C289.111 49.9012 291.825 53.9702 293.671 58.4486C295.517 62.9271 296.458 67.7265 296.441 72.5704C296.577 78.9118 295.129 85.187 292.229 90.8281C289.33 96.4693 285.069 101.298 279.833 104.878C269.179 112.144 256.354 115.533 243.502 114.48C240.753 114.152 238.025 113.676 235.328 113.052L235.847 134.461C251.287 126.676 267.895 121.486 280.092 115.258C287.418 111.7 293.649 106.231 298.128 99.4286L301.242 102.024C304.119 104.703 307.794 106.369 311.705 106.767C315.617 107.165 319.552 106.274 322.91 104.229C325.003 103.129 326.754 101.477 327.976 99.4535C329.198 97.4298 329.844 95.1106 329.844 92.7465C329.844 90.3824 329.198 88.0633 327.976 86.0395C326.754 84.0158 325.003 82.3644 322.91 81.2637C321.301 80.4693 319.449 80.3226 317.735 80.8537C316.021 81.3848 314.576 82.5532 313.698 84.1182C312.876 85.7019 312.715 87.5466 313.25 89.2487C313.785 90.9509 314.972 92.3718 316.552 93.2006C319.147 95.2766 316.552 98.7799 312.53 97.4824C311.084 97.1389 309.724 96.5032 308.532 95.6145C307.341 94.7258 306.344 93.6029 305.603 92.3147C304.861 91.0265 304.391 89.6004 304.222 88.1239C304.052 86.6474 304.186 85.1517 304.615 83.7289C305.631 80.0958 306.155 76.3428 306.172 72.5704C306.692 61.3136 302.832 50.2928 295.403 41.8197C293.172 38.6254 292.155 34.7393 292.536 30.8617C292.916 26.9841 294.669 23.37 297.479 20.6704C300.463 18.3349 304.485 20.6704 302.409 23.9142C301.734 24.4861 301.18 25.1878 300.78 25.9777C300.38 26.7676 300.143 27.6297 300.083 28.5129C300.022 29.3961 300.14 30.2824 300.428 31.1195C300.716 31.9565 301.169 32.7272 301.761 33.3859C302.918 34.7389 304.562 35.58 306.336 35.7258C308.111 35.8716 309.87 35.3104 311.233 34.1644C313.006 32.599 314.318 30.5786 315.026 28.3217C315.734 26.0649 315.812 23.6574 315.25 21.3595C314.689 19.0616 313.511 16.9609 311.842 15.2844C310.173 13.6079 308.078 12.4194 305.783 11.8474C301.849 10.7027 297.648 10.8827 293.827 12.3597C290.005 13.8367 286.775 16.5288 284.633 20.0217C282.038 23.5249 280.352 25.8604 278.146 29.1042C272.151 26.4232 265.639 25.0943 259.072 25.2117C249.065 25.2623 239.315 28.3894 231.145 34.1687C222.975 39.948 216.78 48.1 213.4 57.5194C202.946 55.3286 192.071 56.416 182.259 60.6334C178.585 61.9481 175.387 64.3301 173.075 67.474C170.763 70.6178 169.443 74.3804 169.284 78.2794C169.032 80.738 169.549 83.2142 170.765 85.3661C171.98 87.5181 173.834 89.2397 176.069 90.2934C178.305 91.3471 180.813 91.6809 183.246 91.2488C185.679 90.8167 187.919 89.6399 189.655 87.8809C190.954 86.5689 191.683 84.797 191.683 82.9504C191.683 81.1038 190.954 79.3319 189.655 78.0199C188.327 76.7509 186.561 76.0427 184.724 76.0427C182.888 76.0427 181.122 76.7509 179.794 78.0199C179.777 76.7079 180.018 75.4053 180.504 74.1866C180.991 72.9679 181.712 71.857 182.628 70.9172C183.544 69.9774 184.636 69.2271 185.841 68.7093C187.047 68.1916 188.343 67.9164 189.655 67.8994C194.589 66.6376 199.817 67.2698 204.308 69.6715C208.8 72.0732 212.228 76.0701 213.919 80.8744C215.788 87.9664 219.401 94.4784 224.428 99.8179C229.515 104.754 236.095 107.865 243.139 108.663C250.182 109.462 257.291 107.902 263.354 104.229C265.313 102.774 266.96 100.942 268.2 98.8403C269.44 96.7388 270.246 94.4105 270.573 91.9925C270.899 89.5744 270.739 87.1156 270.101 84.7606C269.463 82.4055 268.36 80.2019 266.857 78.2794C268.025 76.2034 269.712 74.6464 270.75 75.4249C272.267 76.1598 273.93 76.5416 275.616 76.5416C277.301 76.5416 278.965 76.1598 280.481 75.4249C283.095 74.1342 285.131 71.9127 286.19 69.1969C287.229 66.4815 287.229 63.4785 286.19 60.7632C284.9 58.1495 282.678 56.1132 279.962 55.0542C278.631 54.4793 277.196 54.1828 275.745 54.1828C274.295 54.1828 272.86 54.4793 271.528 55.0542C270.001 55.7536 268.655 56.7968 267.597 58.1022C266.539 59.4077 265.798 60.9401 265.43 62.5797C265.358 62.7957 265.242 62.9948 265.091 63.165C264.939 63.3351 264.755 63.4729 264.549 63.5699C264.343 63.6669 264.119 63.7211 263.892 63.7293C263.664 63.7375 263.437 63.6996 263.224 63.6177C262.938 63.632 262.653 63.5669 262.401 63.4295C262.149 63.2921 261.94 63.0878 261.797 62.8392C262.66 61.2221 263.112 59.4173 263.112 57.5843C263.112 55.7513 262.66 53.9465 261.797 52.3294C261.217 50.9943 260.363 49.7961 259.29 48.8126C258.217 47.8291 256.949 47.0822 255.569 46.6204C254.237 46.0456 252.802 45.7491 251.352 45.7491C249.902 45.7491 248.467 46.0456 247.135 46.6204C244.498 47.8791 242.451 50.1117 241.426 52.8484C240.388 55.5638 240.388 58.5668 241.426 61.2822M61.0784 242.931C58.363 241.893 55.3599 241.893 52.6445 242.931C49.9077 243.956 47.6752 246.002 46.4164 248.64C45.8416 249.971 45.5451 251.406 45.5451 252.857C45.5451 254.307 45.8416 255.742 46.4164 257.074C46.8782 258.454 47.6251 259.722 48.6086 260.795C49.5922 261.868 50.7904 262.722 52.1255 263.302C53.7426 264.165 55.5474 264.616 57.3805 264.616C59.2135 264.616 61.0184 264.165 62.6354 263.302C62.8391 263.221 63.0575 263.184 63.2763 263.193C63.4952 263.203 63.7096 263.258 63.9056 263.356C64.1015 263.454 64.2746 263.593 64.4134 263.762C64.5523 263.931 64.6539 264.128 64.7115 264.34C64.7934 264.552 64.8314 264.779 64.8231 265.007C64.8149 265.234 64.7607 265.458 64.6637 265.664C64.5667 265.87 64.4289 266.055 64.2588 266.206C64.0886 266.358 63.8895 266.473 63.6734 266.545C62.0338 266.913 60.5014 267.655 59.196 268.712C57.8905 269.77 56.8473 271.116 56.1478 272.644C55.573 273.975 55.2765 275.41 55.2765 276.86C55.2765 278.311 55.573 279.746 56.1478 281.077C57.2068 283.793 59.2433 286.015 61.8569 287.305C64.5724 288.344 67.5754 288.344 70.2908 287.305C73.0066 286.246 75.2282 284.21 76.5189 281.596C77.2538 280.08 77.6356 278.416 77.6356 276.731C77.6356 275.045 77.2538 273.382 76.5189 271.865C75.7404 270.827 77.2974 269.14 79.3735 267.973C81.296 269.475 83.4996 270.578 85.8547 271.216C88.2098 271.854 90.6687 272.014 93.0867 271.688C95.5048 271.362 97.8331 270.555 99.9347 269.315C102.036 268.075 103.869 266.428 105.324 264.469C108.997 258.407 110.556 251.298 109.758 244.254C108.96 237.211 105.849 230.631 100.912 225.544C95.5727 220.517 89.0606 216.904 81.9685 215.035C77.1641 213.344 73.1671 209.916 70.7654 205.425C68.3637 200.933 67.7314 195.706 68.9933 190.771C69.0102 189.459 69.2854 188.163 69.8032 186.958C70.321 185.752 71.0713 184.66 72.0111 183.745C72.9509 182.829 74.0619 182.107 75.2806 181.621C76.4993 181.135 77.8019 180.893 79.114 180.91C77.8449 182.238 77.1368 184.004 77.1368 185.841C77.1368 187.678 77.8449 189.443 79.114 190.771C80.426 192.071 82.1979 192.8 84.0445 192.8C85.8912 192.8 87.6631 192.071 88.9751 190.771C90.7342 189.035 91.9109 186.796 92.3431 184.363C92.7752 181.929 92.4414 179.422 91.3876 177.186C90.3339 174.951 88.6122 173.097 86.4603 171.882C84.3083 170.666 81.8321 170.149 79.3735 170.401C75.4744 170.56 71.7117 171.88 68.5678 174.192C65.4239 176.504 63.0419 179.701 61.7272 183.376C57.5097 193.188 56.4223 204.062 58.6131 214.516C49.1936 217.896 41.0414 224.091 35.262 232.261C29.4826 240.431 26.3555 250.18 26.3048 260.188C25.6433 266.44 26.3064 272.762 28.2511 278.742L19.1685 285.229C15.6756 287.371 12.9834 290.601 11.5063 294.422C10.0293 298.244 9.84931 302.445 10.9941 306.379C11.566 308.674 12.7545 310.769 14.4311 312.437C16.1076 314.106 18.2084 315.285 20.5063 315.846C22.8042 316.407 25.2118 316.329 27.4687 315.621C29.7256 314.913 31.746 313.601 33.3114 311.828C34.4575 310.466 35.0187 308.706 34.8729 306.932C34.727 305.158 33.886 303.513 32.5329 302.356C31.8742 301.765 31.1035 301.312 30.2665 301.023C29.4294 300.735 28.543 300.618 27.6598 300.678C26.7766 300.739 25.9145 300.976 25.1246 301.376C24.3347 301.775 23.633 302.329 23.061 303.005C20.466 305.081 17.4817 301.059 19.8172 298.075C22.531 295.197 26.1957 293.402 30.1323 293.02C34.0688 292.638 38.0103 293.697 41.2263 295.999C49.7085 303.838 60.955 307.991 72.4966 307.546C76.2691 307.529 80.0221 307.005 83.6553 305.989C85.0781 305.56 86.5738 305.426 88.0503 305.596C89.5269 305.765 90.9531 306.235 92.2413 306.977C93.5295 307.718 94.6524 308.715 95.5411 309.906C96.4298 311.098 97.0655 312.458 97.409 313.904C98.7065 317.537 95.2032 320.521 93.1272 317.926C92.2983 316.346 90.8774 315.159 89.1752 314.624C87.473 314.089 85.6283 314.25 84.0445 315.072C82.4796 315.95 81.3111 317.395 80.78 319.109C80.2489 320.823 80.3956 322.675 81.19 324.284C82.2907 326.376 83.9422 328.128 85.9659 329.35C87.9897 330.572 90.3089 331.218 92.6731 331.218C95.0372 331.218 97.3564 330.572 99.3802 329.35C101.404 328.128 103.055 326.376 104.156 324.284C106.201 320.926 107.092 316.991 106.694 313.079C106.295 309.168 104.63 305.493 101.95 302.616L99.3553 299.502C106.158 295.023 111.626 288.792 115.185 281.467C121.154 269.27 126.603 252.662 134.388 237.222L112.979 235.665C113.603 238.362 114.079 241.09 114.407 243.839C115.46 256.691 112.071 269.516 104.805 280.169C101.225 285.405 96.3959 289.666 90.7546 292.566C85.1134 295.466 78.8381 296.913 72.4966 296.777C67.6526 296.794 62.8531 295.853 58.3746 294.007C53.896 292.161 49.827 289.448 46.4018 286.022C42.9765 282.597 40.2629 278.528 38.4171 274.05C36.5713 269.571 35.6298 264.772 35.647 259.928C35.6299 255.146 36.557 250.408 38.3752 245.985C40.1933 241.563 42.8667 237.542 46.242 234.155C49.6173 230.768 53.6281 228.08 58.0444 226.246C62.4607 224.412 67.1956 223.468 71.9776 223.468C76.408 223.241 80.8339 223.995 84.9388 225.677C89.0437 227.359 92.726 229.928 95.7222 233.2C98.3707 236.714 100.082 240.845 100.695 245.203C101.307 249.561 100.802 254.003 99.2255 258.112C95.2032 265.767 88.5859 265.767 81.3197 261.615C81.3197 258.89 81.3197 256.036 82.747 255.776C84.363 255.39 85.8695 254.641 87.1514 253.584C88.4332 252.527 89.4565 251.191 90.1429 249.678C90.7177 248.346 91.0142 246.911 91.0142 245.461C91.0142 244.011 90.7177 242.576 90.1429 241.244C89.1297 238.5 87.0796 236.264 84.4338 235.016C81.7184 233.978 78.7153 233.978 75.9999 235.016C73.3926 236.232 71.3635 238.418 70.3454 241.109C69.3273 243.799 69.4009 246.781 70.5503 249.418C70.7224 249.848 70.7165 250.329 70.534 250.755C70.3515 251.181 70.0073 251.517 69.5772 251.689C69.147 251.861 68.6661 251.855 68.2403 251.673C67.8145 251.49 67.4786 251.146 67.3065 250.716C66.9983 248.938 66.2732 247.259 65.1906 245.815C64.1081 244.372 62.6988 243.205 61.0784 242.412M61.0566 518.259C62.677 517.466 64.0862 516.299 65.1688 514.856C66.2514 513.412 66.9765 511.733 67.2847 509.955C67.4567 509.525 67.7926 509.181 68.2184 508.998C68.6443 508.816 69.1252 508.81 69.5553 508.982C69.9855 509.154 70.3297 509.49 70.5122 509.916C70.6947 510.342 70.7005 510.823 70.5285 511.253C69.7333 512.649 69.253 514.203 69.1213 515.805C68.9895 517.407 69.2094 519.018 69.7656 520.526C70.3218 522.034 71.2008 523.402 72.3412 524.534C73.4815 525.667 74.8556 526.536 76.3673 527.082C79.0827 528.12 82.0858 528.12 84.8012 527.082C87.447 525.835 89.4971 523.598 90.5103 520.854C91.0851 519.523 91.3816 518.088 91.3816 516.637C91.3816 515.187 91.0851 513.752 90.5103 512.42C89.8239 510.908 88.8006 509.572 87.5188 508.515C86.237 507.458 84.7304 506.708 83.1144 506.322C81.4276 506.322 81.2979 503.208 81.9467 500.354C88.9533 496.331 95.5706 496.331 99.5929 503.987C101.169 508.095 101.675 512.538 101.062 516.896C100.449 521.254 98.7381 525.384 96.0896 528.899C93.0714 532.142 89.3853 534.692 85.2859 536.372C81.1864 538.052 76.7712 538.822 72.345 538.63C67.4976 538.7 62.6852 537.798 58.1915 535.979C53.6978 534.16 49.6136 531.46 46.1796 528.038C42.7455 524.616 40.0311 520.542 38.1962 516.055C36.3612 511.567 35.4429 506.758 35.4954 501.911C35.4782 497.067 36.4197 492.267 38.2655 487.789C40.1112 483.31 42.8249 479.242 46.2502 475.816C49.6754 472.391 53.7445 469.678 58.223 467.832C62.7015 465.986 67.501 465.045 72.345 465.062C78.6865 464.926 84.9618 466.373 90.603 469.273C96.2443 472.173 101.073 476.434 104.653 481.67C111.919 492.323 115.309 505.148 114.255 518C113.928 520.748 113.451 523.477 112.828 526.174L134.237 524.617C126.452 509.177 121.262 492.569 115.033 480.372C111.475 473.046 106.006 466.816 99.2037 462.337L101.799 459.093C104.467 456.236 106.128 452.584 106.526 448.695C106.924 444.806 106.039 440.893 104.005 437.555C102.904 435.463 101.252 433.711 99.2286 432.489C97.2048 431.267 94.8856 430.621 92.5214 430.621C90.1573 430.621 87.8381 431.267 85.8143 432.489C83.7905 433.711 82.1391 435.463 81.0384 437.555C80.244 439.164 80.0973 441.016 80.6284 442.73C81.1595 444.444 82.328 445.889 83.8929 446.767C85.4767 447.589 87.3214 447.75 89.0236 447.215C90.7258 446.68 92.1467 445.493 92.9756 443.913C95.0516 441.318 98.5549 443.913 97.2574 447.935C96.9139 449.381 96.2782 450.741 95.3895 451.932C94.5008 453.124 93.3778 454.121 92.0897 454.862C90.8015 455.603 89.3753 456.073 87.8987 456.243C86.4222 456.413 84.9265 456.279 83.5037 455.849C79.8705 454.834 76.1175 454.31 72.345 454.293C60.9378 453.706 49.7561 457.62 41.2045 465.192C38.0101 467.422 34.124 468.439 30.2463 468.059C26.3687 467.678 22.7545 465.925 20.0549 463.116C17.7193 460.131 20.0549 456.109 23.2987 458.185C23.9151 458.817 24.6517 459.319 25.465 459.661C26.2783 460.004 27.152 460.181 28.0346 460.181C28.9172 460.181 29.7909 460.004 30.6043 459.661C31.4176 459.319 32.1541 458.817 32.7706 458.185C34.1236 457.028 34.9647 455.384 35.1105 453.609C35.2563 451.835 34.6951 450.075 33.5491 448.713C31.9926 446.94 29.9818 445.624 27.7332 444.908C25.4846 444.192 23.0833 444.103 20.7877 444.65C18.4922 445.197 16.3893 446.36 14.7055 448.013C13.0217 449.667 11.8207 451.748 11.2317 454.033C10.0779 457.986 10.2527 462.208 11.7293 466.051C13.2059 469.895 15.9027 473.148 19.4061 475.312L28.2293 482.967C25.5629 488.921 24.2342 495.388 24.3367 501.911C24.3148 511.931 27.3792 521.716 33.1132 529.934C38.8473 538.151 46.9729 544.404 56.3855 547.842C54.1946 558.295 55.2821 569.17 59.4995 578.982C60.8143 582.656 63.1963 585.854 66.3402 588.166C69.4841 590.478 73.2467 591.798 77.1458 591.957C79.6045 592.209 82.0806 591.692 84.2326 590.476C86.3846 589.261 88.1063 587.407 89.16 585.172C90.2137 582.936 90.5475 580.429 90.1154 577.995C89.6833 575.562 88.5065 573.323 86.7475 571.587C85.4355 570.287 83.6635 569.558 81.8169 569.558C79.9703 569.558 78.1983 570.287 76.8863 571.587C75.6173 572.914 74.9091 574.68 74.9091 576.517C74.9091 578.354 75.6173 580.12 76.8863 581.447C75.5743 581.465 74.2717 581.223 73.053 580.737C71.8342 580.251 70.7232 579.529 69.7834 578.613C68.8436 577.698 68.0934 576.606 67.5756 575.4C67.0578 574.194 66.7826 572.899 66.7657 571.587C65.5038 566.652 66.136 561.424 68.5377 556.933C70.9395 552.442 74.9365 549.013 79.7409 547.323C86.8329 545.454 93.345 541.841 98.6847 536.814C103.602 531.715 106.699 525.137 107.497 518.1C108.294 511.062 106.747 503.958 103.096 497.889C101.62 495.954 99.776 494.332 97.6697 493.114C95.5633 491.897 93.2367 491.108 90.824 490.795C88.4113 490.481 85.9604 490.648 83.6128 491.287C81.2651 491.925 79.0672 493.023 77.1458 494.515C75.0698 493.347 73.5128 491.661 74.2913 490.623C75.0262 489.106 75.408 487.442 75.408 485.757C75.408 484.071 75.0262 482.408 74.2913 480.891C73.0006 478.278 70.779 476.241 68.0632 475.182C65.3601 474.079 62.3323 474.079 59.6293 475.182C57.0156 476.473 54.9792 478.694 53.9202 481.41C53.3453 482.742 53.0488 484.177 53.0488 485.627C53.0488 487.077 53.3453 488.512 53.9202 489.844C54.7835 491.608 56.1074 493.106 57.7518 494.179C59.3963 495.252 61.3002 495.862 63.2623 495.942C63.4783 496.015 63.6775 496.13 63.8477 496.281C64.0178 496.433 64.1556 496.617 64.2526 496.823C64.3496 497.029 64.4038 497.253 64.412 497.481C64.4203 497.708 64.3823 497.935 64.3004 498.148C64.2428 498.359 64.1412 498.556 64.0023 498.726C63.8634 498.895 63.6904 499.033 63.4945 499.131C63.2985 499.229 63.0841 499.285 62.8652 499.294C62.6464 499.304 62.428 499.267 62.2243 499.186C60.6145 498.3 58.8068 497.836 56.9694 497.836C55.1319 497.836 53.3242 498.3 51.7144 499.186C50.3793 499.766 49.1811 500.62 48.1975 501.693C47.214 502.766 46.4671 504.034 46.0053 505.414C45.4305 506.746 45.134 508.181 45.134 509.631C45.134 511.081 45.4305 512.516 46.0053 513.848C47.2641 516.485 49.4966 518.532 52.2334 519.557C54.9488 520.595 57.9519 520.595 60.6673 519.557M234.809 648.14C237.506 647.517 240.234 647.04 242.983 646.713C255.835 645.659 268.66 649.049 279.314 656.314C284.55 659.894 288.811 664.723 291.71 670.364C294.61 676.006 296.058 682.281 295.922 688.622C295.858 698.346 291.993 707.66 285.152 714.572C278.264 721.448 268.935 725.32 259.202 725.341C254.398 725.342 249.642 724.389 245.208 722.539C240.775 720.689 236.753 717.978 233.374 714.563C229.995 711.149 227.327 707.097 225.524 702.645C223.722 698.192 222.82 693.426 222.871 688.622C222.539 684.189 223.193 679.738 224.786 675.587C226.379 671.437 228.871 667.691 232.084 664.618C235.599 661.97 239.729 660.259 244.087 659.646C248.445 659.033 252.887 659.539 256.996 661.115C264.652 665.137 264.652 671.625 260.5 679.021C257.775 679.021 254.92 679.021 254.661 677.593C254.275 675.977 253.525 674.471 252.468 673.189C251.411 671.907 250.075 670.884 248.562 670.198C247.231 669.623 245.796 669.326 244.345 669.326C242.895 669.326 241.46 669.623 240.128 670.198C237.384 671.211 235.148 673.261 233.9 675.907C232.862 678.622 232.862 681.625 233.9 684.34C234.425 685.765 235.237 687.066 236.287 688.161C237.337 689.257 238.602 690.125 240.002 690.709C241.403 691.294 242.909 691.583 244.427 691.559C245.944 691.535 247.441 691.197 248.822 690.568C249.252 690.396 249.733 690.402 250.159 690.585C250.585 690.767 250.92 691.111 251.092 691.542C251.265 691.972 251.259 692.453 251.076 692.878C250.894 693.304 250.55 693.64 250.119 693.812C248.342 694.12 246.662 694.845 245.219 695.928C243.775 697.011 242.609 698.42 241.815 700.04C240.777 702.756 240.777 705.759 241.815 708.474C242.84 711.211 244.887 713.443 247.524 714.702C248.856 715.277 250.291 715.573 251.741 715.573C253.192 715.573 254.627 715.277 255.958 714.702C257.328 714.219 258.585 713.465 259.655 712.484C260.726 711.503 261.587 710.315 262.186 708.993C263.05 707.376 263.501 705.571 263.501 703.738C263.501 701.905 263.05 700.1 262.186 698.483C262.106 698.28 262.069 698.061 262.078 697.842C262.088 697.623 262.143 697.409 262.241 697.213C262.339 697.017 262.477 696.844 262.647 696.705C262.816 696.566 263.013 696.465 263.224 696.407C263.437 696.325 263.664 696.287 263.892 696.295C264.119 696.304 264.343 696.358 264.549 696.455C264.755 696.552 264.939 696.69 265.091 696.86C265.242 697.03 265.358 697.229 265.43 697.445C265.798 699.085 266.539 700.617 267.597 701.923C268.655 703.228 270.001 704.271 271.528 704.971C272.86 705.546 274.295 705.842 275.745 705.842C277.196 705.842 278.631 705.546 279.962 704.971C282.678 703.912 284.9 701.875 286.19 699.262C287.229 696.546 287.229 693.543 286.19 690.828C285.131 688.112 283.095 685.891 280.481 684.6C278.965 683.865 277.301 683.483 275.616 683.483C273.93 683.483 272.267 683.865 270.75 684.6C269.712 685.378 268.025 683.821 266.857 681.745C268.36 679.823 269.463 677.619 270.101 675.264C270.739 672.909 270.899 670.45 270.573 668.032C270.246 665.614 269.44 663.286 268.2 661.185C266.96 659.083 265.313 657.251 263.354 655.795C257.291 652.123 250.182 650.563 243.139 651.361C236.095 652.16 229.515 655.27 224.428 660.207C219.401 665.547 215.788 672.059 213.919 679.15C212.228 683.955 208.8 687.952 204.308 690.353C199.817 692.755 194.589 693.387 189.655 692.125C188.343 692.109 187.047 691.833 185.841 691.316C184.636 690.798 183.544 690.047 182.628 689.108C181.712 688.168 180.991 687.057 180.504 685.838C180.018 684.62 179.777 683.317 179.794 682.005C181.122 683.274 182.888 683.982 184.724 683.982C186.561 683.982 188.327 683.274 189.655 682.005C190.954 680.693 191.683 678.921 191.683 677.074C191.683 675.228 190.954 673.456 189.655 672.144C187.919 670.385 185.679 669.208 183.246 668.776C180.813 668.344 178.305 668.678 176.069 669.731C173.834 670.785 171.98 672.507 170.765 674.659C169.549 676.811 169.032 679.287 169.284 681.745C169.443 685.644 170.763 689.407 173.075 692.551C175.387 695.695 178.585 698.077 182.259 699.391C192.071 703.609 202.946 704.696 213.4 702.505C216.78 711.925 222.975 720.077 231.145 725.856C239.315 731.635 249.065 734.763 259.072 734.813C265.639 734.931 272.151 733.602 278.146 730.921C280.352 734.165 282.038 736.5 284.633 740.003C286.775 743.496 290.005 746.188 293.827 747.665C297.648 749.142 301.849 749.322 305.783 748.177C308.078 747.605 310.173 746.417 311.842 744.741C313.511 743.064 314.689 740.963 315.25 738.665C315.812 736.368 315.734 733.96 315.026 731.703C314.318 729.446 313.006 727.426 311.233 725.86C309.87 724.714 308.111 724.153 306.336 724.299C304.562 724.445 302.918 725.286 301.761 726.639C301.169 727.298 300.716 728.068 300.428 728.905C300.14 729.742 300.022 730.629 300.083 731.512C300.143 732.395 300.38 733.257 300.78 734.047C301.18 734.837 301.734 735.539 302.409 736.111C304.485 738.706 300.463 741.69 297.479 739.354C294.669 736.655 292.916 733.041 292.536 729.163C292.155 725.286 293.172 721.4 295.403 718.205C303.242 709.723 307.396 698.477 306.951 686.935C306.944 683.162 306.421 679.408 305.394 675.777C305.032 673.093 305.681 670.371 307.216 668.141C308.752 665.91 311.062 664.331 313.698 663.71C317.331 662.413 320.315 665.916 317.72 667.992C316.925 668.389 316.219 668.942 315.642 669.618C315.066 670.294 314.632 671.08 314.365 671.927C314.099 672.775 314.006 673.668 314.092 674.552C314.178 675.436 314.441 676.294 314.866 677.074C315.744 678.639 317.189 679.808 318.903 680.339C320.617 680.87 322.469 680.723 324.078 679.929C326.17 678.828 327.922 677.177 329.144 675.153C330.366 673.129 331.012 670.81 331.012 668.446C331.012 666.082 330.366 663.763 329.144 661.739C327.922 659.715 326.17 658.064 324.078 656.963C320.72 654.919 316.785 654.028 312.873 654.426C308.961 654.824 305.287 656.49 302.409 659.169L299.295 661.764C294.817 654.962 288.586 649.493 281.26 645.934C269.063 639.966 252.455 634.516 237.014 626.731L235.457 648.14M525.193 648.14L523.636 626.731C508.195 634.516 491.587 639.706 479.391 645.934C472.065 649.493 465.834 654.962 461.355 661.764L458.111 659.169C455.254 656.5 451.602 654.84 447.713 654.442C443.824 654.044 439.911 654.929 436.572 656.963C434.48 658.064 432.728 659.715 431.506 661.739C430.284 663.763 429.638 666.082 429.638 668.446C429.638 670.81 430.284 673.129 431.506 675.153C432.728 677.177 434.48 678.828 436.572 679.929C438.181 680.723 440.034 680.87 441.748 680.339C443.462 679.808 444.907 678.639 445.785 677.074C446.209 676.294 446.473 675.436 446.559 674.552C446.645 673.668 446.552 672.775 446.285 671.927C446.019 671.08 445.584 670.294 445.008 669.618C444.432 668.942 443.725 668.389 442.93 667.992C440.335 665.916 442.93 662.413 446.952 663.71C448.39 664.081 449.736 664.742 450.909 665.651C452.083 666.561 453.057 667.701 453.774 669.001C454.491 670.301 454.935 671.734 455.078 673.211C455.221 674.689 455.061 676.18 454.608 677.593C453.581 681.224 453.057 684.979 453.051 688.752C452.606 700.293 456.759 711.54 464.599 720.022C466.84 723.222 467.851 727.123 467.445 731.008C467.04 734.894 465.246 738.502 462.393 741.171C459.538 743.507 455.516 741.171 457.592 737.927C458.224 737.311 458.726 736.574 459.069 735.761C459.411 734.948 459.588 734.074 459.588 733.191C459.588 732.309 459.411 731.435 459.069 730.622C458.726 729.808 458.224 729.072 457.592 728.455C456.435 727.102 454.791 726.261 453.017 726.116C451.242 725.97 449.482 726.531 448.12 727.677C446.346 729.233 445.031 731.244 444.315 733.493C443.599 735.741 443.51 738.143 444.057 740.438C444.604 742.734 445.767 744.836 447.42 746.52C449.074 748.204 451.155 749.405 453.44 749.994C457.393 751.148 461.615 750.973 465.459 749.496C469.303 748.02 472.556 745.323 474.719 741.82C477.314 738.316 479.001 735.981 481.207 732.737C487.161 735.404 493.628 736.732 500.151 736.63C510.417 736.867 520.495 733.86 528.952 728.036C537.409 722.212 543.813 713.868 547.251 704.192C557.704 706.383 568.579 705.296 578.391 701.078C582.066 699.763 585.263 697.381 587.575 694.238C589.887 691.094 591.207 687.331 591.367 683.432C591.618 680.974 591.101 678.497 589.885 676.345C588.67 674.194 586.817 672.472 584.581 671.418C582.345 670.365 579.838 670.031 577.404 670.463C574.971 670.895 572.732 672.072 570.996 673.831C569.696 675.143 568.967 676.915 568.967 678.761C568.967 680.608 569.696 682.38 570.996 683.692C572.323 684.961 574.089 685.669 575.926 685.669C577.763 685.669 579.529 684.961 580.857 683.692C580.874 685.004 580.632 686.306 580.146 687.525C579.66 688.744 578.938 689.855 578.022 690.794C577.107 691.734 576.015 692.484 574.809 693.002C573.603 693.52 572.308 693.795 570.996 693.812C566.061 695.074 560.833 694.442 556.342 692.04C551.851 689.638 548.422 685.642 546.732 680.837C544.863 673.745 541.25 667.233 536.222 661.894C531.124 656.977 524.546 653.88 517.508 653.082C510.47 652.284 503.366 653.831 497.296 657.482C495.362 658.958 493.739 660.802 492.522 662.909C491.304 665.015 490.516 667.342 490.202 669.754C489.889 672.167 490.056 674.618 490.694 676.965C491.333 679.313 492.43 681.511 493.923 683.432C492.755 685.508 491.068 687.065 490.03 686.287C488.513 685.552 486.85 685.17 485.164 685.17C483.479 685.17 481.816 685.552 480.299 686.287C477.685 687.577 475.649 689.799 474.59 692.515C474.015 693.846 473.718 695.281 473.718 696.732C473.718 698.182 474.015 699.617 474.59 700.948C475.88 703.562 478.102 705.598 480.818 706.657C482.149 707.232 483.584 707.529 485.035 707.529C486.485 707.529 487.92 707.232 489.252 706.657C490.779 705.958 492.125 704.915 493.183 703.609C494.241 702.304 494.982 700.772 495.35 699.132C495.422 698.916 495.538 698.717 495.689 698.547C495.841 698.376 496.025 698.239 496.231 698.142C496.437 698.045 496.661 697.99 496.889 697.982C497.116 697.974 497.343 698.012 497.556 698.094C497.767 698.152 497.964 698.253 498.133 698.392C498.303 698.531 498.441 698.704 498.539 698.9C498.637 699.096 498.693 699.31 498.702 699.529C498.711 699.748 498.675 699.966 498.594 700.17C497.748 701.578 497.223 703.155 497.057 704.789C496.891 706.423 497.087 708.073 497.633 709.622C498.178 711.172 499.059 712.581 500.212 713.751C501.365 714.921 502.762 715.821 504.303 716.389C505.634 716.964 507.07 717.26 508.52 717.26C509.97 717.26 511.405 716.964 512.737 716.389C515.374 715.13 517.421 712.897 518.446 710.161C519.484 707.445 519.484 704.442 518.446 701.727C517.652 700.107 516.486 698.697 515.042 697.615C513.599 696.532 511.92 695.807 510.142 695.499C509.712 695.327 509.367 694.991 509.185 694.565C509.002 694.139 508.997 693.658 509.169 693.228C509.341 692.798 509.677 692.454 510.102 692.271C510.528 692.089 511.009 692.083 511.439 692.255C512.836 693.05 514.39 693.531 515.991 693.662C517.593 693.794 519.204 693.574 520.712 693.018C522.22 692.462 523.588 691.583 524.721 690.442C525.854 689.302 526.723 687.928 527.269 686.416C528.307 683.701 528.307 680.698 527.269 677.983C526.022 675.337 523.785 673.287 521.041 672.274C519.709 671.699 518.274 671.402 516.824 671.402C515.374 671.402 513.939 671.699 512.607 672.274C511.094 672.96 509.758 673.983 508.701 675.265C507.644 676.547 506.894 678.053 506.509 679.669C506.509 681.356 503.395 681.486 500.54 680.837C496.518 673.701 496.518 667.862 504.173 663.191C508.282 661.615 512.724 661.109 517.082 661.722C521.44 662.335 525.571 664.046 529.086 666.694C532.329 669.713 534.878 673.399 536.559 677.498C538.239 681.597 539.009 686.013 538.817 690.439C538.887 695.297 537.982 700.12 536.154 704.623C534.327 709.125 531.616 713.215 528.18 716.651C524.744 720.086 520.654 722.798 516.151 724.625C511.649 726.452 506.826 727.358 501.967 727.288C492.232 727.28 482.897 723.406 476.017 716.518C469.176 709.606 465.311 700.293 465.248 690.568C465.112 684.227 466.559 677.952 469.459 672.311C472.359 666.67 476.62 661.841 481.856 658.261C492.509 650.995 505.334 647.606 518.186 648.659C520.935 648.987 523.664 649.463 526.361 650.086M517.673 61.6712C518.712 58.9558 518.712 55.9529 517.673 53.2375C516.648 50.5007 514.602 48.2682 511.964 47.0095C510.633 46.4346 509.198 46.1381 507.747 46.1381C506.297 46.1381 504.862 46.4346 503.53 47.0095C502.15 47.4712 500.882 48.2181 499.809 49.2017C498.736 50.1852 497.882 51.3834 497.302 52.7185C496.416 54.3283 495.952 56.1359 495.952 57.9733C495.952 59.8108 496.416 61.6184 497.302 63.2282C497.383 63.4319 497.42 63.6503 497.411 63.8691C497.401 64.088 497.346 64.3024 497.248 64.4983C497.15 64.6943 497.011 64.8673 496.842 65.0062C496.673 65.1451 496.476 65.2466 496.264 65.3042C496.001 65.1674 495.778 64.9633 495.618 64.7127C495.459 64.4621 495.368 64.1738 495.356 63.877C494.988 62.2374 494.247 60.705 493.189 59.3995C492.131 58.0941 490.786 57.0509 489.258 56.3515C487.926 55.7766 486.491 55.4801 485.041 55.4801C483.59 55.4801 482.155 55.7766 480.824 56.3515C478.108 57.4104 475.887 59.4469 474.596 62.0605C474.021 63.392 473.724 64.827 473.724 66.2774C473.724 67.7277 474.021 69.1627 474.596 70.4942C475.655 73.21 477.691 75.4315 480.305 76.7222C481.822 77.4571 483.485 77.8389 485.171 77.8389C486.856 77.8389 488.52 77.4571 490.036 76.7222C491.074 75.9437 492.761 77.5007 493.929 79.5767C492.436 81.4981 491.339 83.696 490.701 86.0436C490.062 88.3912 489.895 90.842 490.208 93.2546C490.522 95.6673 491.31 97.9939 492.528 100.1C493.745 102.207 495.368 104.051 497.302 105.527C503.372 109.178 510.476 110.725 517.514 109.927C524.552 109.129 531.13 106.032 536.228 101.115C541.256 95.7757 544.869 89.2637 546.738 82.1717C548.428 77.3674 551.857 73.3705 556.348 70.9688C560.839 68.5671 566.067 67.9349 571.002 69.1967C572.314 69.2137 573.61 69.4889 574.815 70.0067C576.021 70.5244 577.113 71.2747 578.028 72.2145C578.944 73.1542 579.666 74.2652 580.152 75.4839C580.638 76.7026 580.88 78.0052 580.863 79.3172C579.535 78.0482 577.769 77.3401 575.932 77.3401C574.095 77.3401 572.329 78.0482 571.002 79.3172C569.702 80.6292 568.973 82.4011 568.973 84.2477C568.973 86.0943 569.702 87.8662 571.002 89.1782C572.738 90.9372 574.977 92.114 577.41 92.5461C579.844 92.9782 582.352 92.6444 584.587 91.5907C586.823 90.537 588.676 88.8153 589.892 86.6634C591.107 84.5115 591.625 82.0353 591.373 79.5767C591.213 75.6777 589.893 71.9151 587.581 68.7713C585.27 65.6274 582.072 63.2454 578.398 61.9307C568.78 57.0979 557.897 55.3749 547.257 57.0002C543.869 47.5601 537.654 39.3935 529.459 33.6124C521.263 27.8312 511.484 24.7166 501.454 24.6925C494.868 24.6523 488.355 26.0702 482.381 28.8445C480.175 25.6007 478.488 23.2652 475.893 19.762C473.73 16.2586 470.476 13.5618 466.633 12.0853C462.789 10.6087 458.567 10.4339 454.614 11.5877C452.329 12.1767 450.247 13.3777 448.594 15.0615C446.941 16.7453 445.778 18.8481 445.231 21.1436C444.683 23.4391 444.773 25.8403 445.489 28.0889C446.205 30.3375 447.52 32.3483 449.294 33.9047C450.656 35.0507 452.416 35.6119 454.19 35.4661C455.965 35.3203 457.609 34.4792 458.766 33.1262C459.398 32.5098 459.9 31.7733 460.242 30.9599C460.585 30.1466 460.762 29.2729 460.762 28.3903C460.762 27.5078 460.585 26.6341 460.242 25.8208C459.9 25.0074 459.398 24.2709 458.766 23.6545C456.69 21.0595 460.712 18.0752 463.567 20.4107C466.314 23.2424 467.935 26.9784 468.126 30.9192C468.317 34.86 467.065 38.7353 464.605 41.8195C456.765 50.3015 452.612 61.5478 453.057 73.0892C453.074 76.8616 453.598 80.6146 454.614 84.2477C455.043 85.6706 455.177 87.1662 455.008 88.6427C454.838 90.1192 454.368 91.5454 453.626 92.8336C452.885 94.1217 451.888 95.2447 450.697 96.1333C449.506 97.022 448.145 97.6577 446.699 98.0012C443.066 99.2987 440.082 95.7955 442.677 93.7195C444.257 92.8906 445.444 91.4697 445.979 89.7676C446.514 88.0654 446.353 86.2207 445.531 84.637C444.653 83.072 443.208 81.9036 441.494 81.3725C439.78 80.8414 437.928 80.9881 436.319 81.7825C434.227 82.8832 432.475 84.5346 431.253 86.5583C430.031 88.5821 429.385 90.9012 429.385 93.2653C429.385 95.6294 430.031 97.9486 431.253 99.9724C432.475 101.996 434.227 103.648 436.319 104.748C439.658 106.782 443.57 107.668 447.459 107.27C451.349 106.871 455.001 105.211 457.858 102.542L461.102 99.9475C465.58 106.75 471.811 112.218 479.137 115.777C491.334 121.745 507.942 127.195 523.383 134.98L524.94 113.571C522.243 114.195 519.514 114.671 516.765 114.998C503.913 116.052 491.088 112.663 480.435 105.397C475.198 101.817 470.938 96.9881 468.038 91.3469C465.138 85.7058 463.69 79.4306 463.826 73.0892C463.809 68.2563 464.746 63.4675 466.584 58.9975C468.422 54.5275 471.124 50.4643 474.535 47.0409C477.947 43.6174 482.001 40.9011 486.464 39.0477C490.928 37.1943 495.713 36.2402 500.546 36.2402C505.405 36.1703 510.228 37.0757 514.73 38.9028C519.233 40.7298 523.323 43.4415 526.759 46.8773C530.194 50.313 532.906 54.4031 534.733 58.9054C536.56 63.4077 537.466 68.2308 537.396 73.0892C537.588 77.5154 536.817 81.9305 535.137 86.0299C533.457 90.1293 530.908 93.8153 527.664 96.8335C524.15 99.4819 520.019 101.193 515.661 101.806C511.303 102.419 506.861 101.913 502.752 100.337C495.097 96.3145 495.097 89.6972 499.249 82.4312C501.973 82.4312 504.828 82.4312 505.088 83.8585C505.473 85.4745 506.223 86.981 507.28 88.2628C508.337 89.5446 509.673 90.5678 511.186 91.2542C512.517 91.8291 513.952 92.1256 515.403 92.1256C516.853 92.1256 518.288 91.8291 519.62 91.2542C522.364 90.2411 524.6 88.191 525.848 85.5452C526.886 82.8298 526.886 79.8269 525.848 77.1115C525.302 75.5998 524.432 74.2258 523.3 73.0854C522.167 71.9451 520.799 71.0661 519.291 70.5099C517.783 69.9537 516.172 69.7338 514.57 69.8656C512.968 69.9973 511.415 70.4776 510.018 71.2727C509.588 71.4448 509.107 71.4389 508.681 71.2564C508.255 71.0739 507.92 70.7297 507.747 70.2996C507.575 69.8694 507.581 69.3886 507.764 68.9627C507.946 68.5369 508.29 68.201 508.721 68.029C510.498 67.7208 512.178 66.9957 513.621 65.9132C515.065 64.8306 516.231 63.4213 517.025 61.801M647.551 235.405L626.142 236.443C633.927 251.883 639.117 268.491 645.345 280.688C648.904 288.013 654.372 294.244 661.175 298.723L658.58 301.837C655.9 304.714 654.235 308.389 653.837 312.3C653.438 316.212 654.329 320.147 656.374 323.505C657.475 325.597 659.126 327.349 661.15 328.571C663.174 329.793 665.493 330.439 667.857 330.439C670.221 330.439 672.54 329.793 674.564 328.571C676.588 327.349 678.239 325.597 679.34 323.505C680.135 321.896 680.281 320.044 679.75 318.33C679.219 316.616 678.051 315.171 676.486 314.293C675.705 313.868 674.847 313.605 673.963 313.519C673.079 313.433 672.186 313.526 671.338 313.792C670.491 314.059 669.705 314.493 669.029 315.069C668.353 315.646 667.8 316.352 667.403 317.147C665.327 319.742 661.824 317.147 663.121 313.125C663.548 311.734 664.249 310.443 665.183 309.327C666.116 308.212 667.264 307.294 668.558 306.629C669.852 305.964 671.266 305.565 672.717 305.455C674.167 305.345 675.625 305.526 677.005 305.989C680.635 307.016 684.39 307.539 688.163 307.546C699.705 307.991 710.951 303.838 719.434 295.998C722.628 293.767 726.514 292.75 730.392 293.131C734.269 293.512 737.884 295.265 740.583 298.074C742.919 301.058 740.583 305.081 737.339 303.005C736.169 301.645 734.507 300.806 732.719 300.673C730.93 300.539 729.162 301.121 727.803 302.291C726.443 303.461 725.604 305.123 725.471 306.911C725.337 308.7 725.919 310.468 727.089 311.828C728.654 313.601 730.675 314.912 732.932 315.621C735.189 316.329 737.596 316.406 739.894 315.845C742.192 315.284 744.293 314.106 745.969 312.437C747.646 310.768 748.834 308.673 749.406 306.378C750.551 302.444 750.371 298.243 748.894 294.422C747.417 290.6 744.725 287.37 741.232 285.229L732.149 278.741C734.83 272.746 736.159 266.234 736.042 259.668C735.991 249.661 732.864 239.911 727.085 231.741C721.305 223.571 713.153 217.376 703.734 213.996C705.924 203.543 704.837 192.668 700.62 182.856C699.305 179.182 696.923 175.984 693.779 173.672C690.635 171.361 686.872 170.041 682.973 169.881C680.515 169.629 678.038 170.147 675.886 171.362C673.734 172.578 672.013 174.431 670.959 176.667C669.905 178.902 669.572 181.41 670.004 183.843C670.436 186.276 671.613 188.516 673.372 190.252C674.684 191.551 676.455 192.28 678.302 192.28C680.149 192.28 681.921 191.551 683.233 190.252C684.502 188.924 685.21 187.158 685.21 185.321C685.21 183.485 684.502 181.719 683.233 180.391C684.545 180.374 685.847 180.615 687.066 181.101C688.285 181.588 689.396 182.309 690.336 183.225C691.275 184.141 692.026 185.233 692.543 186.438C693.061 187.644 693.336 188.94 693.353 190.252C694.615 195.186 693.983 200.414 691.581 204.905C689.18 209.396 685.183 212.825 680.378 214.515C673.286 216.384 666.774 219.997 661.434 225.025C656.498 230.112 653.387 236.692 652.589 243.735C651.79 250.778 653.35 257.887 657.023 263.95C658.478 265.908 660.31 267.556 662.412 268.796C664.514 270.035 666.842 270.842 669.26 271.169C671.678 271.495 674.137 271.334 676.492 270.696C678.847 270.058 681.051 268.955 682.973 267.453C685.049 268.621 686.606 270.308 685.828 271.346C685.067 272.627 684.57 274.048 684.367 275.524C684.164 277 684.259 278.503 684.646 279.942C685.033 281.381 685.704 282.728 686.62 283.903C687.536 285.079 688.679 286.059 689.98 286.786C692.695 287.824 695.698 287.824 698.414 286.786C701.027 285.495 703.064 283.274 704.123 280.558C704.698 279.226 704.994 277.791 704.994 276.341C704.994 274.891 704.698 273.456 704.123 272.124C703.423 270.596 702.38 269.251 701.075 268.193C699.769 267.135 698.237 266.393 696.597 266.026C696.381 265.953 696.182 265.838 696.012 265.687C695.842 265.535 695.704 265.351 695.607 265.145C695.51 264.939 695.456 264.715 695.447 264.487C695.439 264.26 695.477 264.033 695.559 263.82C695.557 263.558 695.621 263.3 695.746 263.069C695.87 262.839 696.05 262.643 696.27 262.501C696.49 262.359 696.743 262.274 697.004 262.255C697.265 262.236 697.527 262.284 697.765 262.393C699.382 263.256 701.187 263.708 703.02 263.708C704.853 263.708 706.658 263.256 708.275 262.393C709.597 261.793 710.785 260.932 711.766 259.862C712.747 258.792 713.501 257.534 713.984 256.165C714.559 254.833 714.855 253.398 714.855 251.948C714.855 250.498 714.559 249.063 713.984 247.731C712.725 245.094 710.493 243.047 707.756 242.022C705.04 240.984 702.037 240.984 699.322 242.022C697.702 242.816 696.292 243.982 695.21 245.425C694.127 246.869 693.402 248.548 693.094 250.326C692.899 250.636 692.607 250.874 692.265 251.004C691.922 251.134 691.546 251.149 691.194 251.046C690.842 250.944 690.534 250.729 690.314 250.435C690.095 250.142 689.978 249.784 689.98 249.418C690.775 248.021 691.255 246.467 691.387 244.866C691.519 243.264 691.299 241.653 690.743 240.145C690.187 238.637 689.307 237.269 688.167 236.136C687.027 235.004 685.653 234.134 684.141 233.588C681.426 232.55 678.423 232.55 675.707 233.588C673.061 234.836 671.011 237.072 669.998 239.816C669.423 241.148 669.127 242.583 669.127 244.033C669.127 245.483 669.423 246.918 669.998 248.25C670.684 249.763 671.708 251.099 672.99 252.156C674.271 253.213 675.778 253.963 677.394 254.348C679.081 254.348 679.21 257.462 678.562 260.317C671.425 264.339 665.586 264.339 660.915 256.684C659.445 252.731 658.96 248.479 659.502 244.297C660.045 240.114 661.599 236.127 664.029 232.68C667.102 229.467 670.848 226.975 674.998 225.382C679.149 223.789 683.6 223.136 688.034 223.468C692.881 223.398 697.693 224.3 702.187 226.119C706.681 227.938 710.765 230.638 714.199 234.06C717.633 237.482 720.347 241.556 722.182 246.043C724.017 250.53 724.936 255.339 724.883 260.187C724.861 269.92 720.99 279.249 714.114 286.137C707.202 292.977 697.888 296.843 688.163 296.906C681.822 297.042 675.546 295.595 669.905 292.695C664.264 289.795 659.435 285.534 655.855 280.298C648.589 269.645 645.2 256.82 646.253 243.968C646.518 241.211 646.995 238.478 647.681 235.794M698.931 518.261C701.646 519.3 704.649 519.3 707.365 518.261C710.101 517.236 712.334 515.19 713.593 512.552C714.168 511.221 714.464 509.786 714.464 508.335C714.464 506.885 714.168 505.45 713.593 504.119C713.025 502.577 712.125 501.18 710.955 500.027C709.785 498.874 708.376 497.994 706.826 497.448C705.277 496.903 703.627 496.707 701.993 496.873C700.359 497.039 698.781 497.564 697.374 498.409C697.17 498.49 696.952 498.527 696.733 498.518C696.514 498.508 696.3 498.453 696.104 498.355C695.908 498.257 695.735 498.119 695.596 497.949C695.457 497.78 695.355 497.583 695.298 497.372C695.216 497.159 695.178 496.932 695.186 496.704C695.194 496.477 695.248 496.253 695.345 496.047C695.442 495.841 695.58 495.656 695.75 495.505C695.921 495.354 696.12 495.238 696.336 495.166C697.975 494.798 699.508 494.056 700.813 492.999C702.119 491.941 703.162 490.595 703.861 489.068C704.436 487.736 704.733 486.301 704.733 484.851C704.733 483.4 704.436 481.965 703.861 480.634C702.802 477.918 700.766 475.696 698.152 474.406C696.064 473.409 693.716 473.094 691.439 473.505C689.162 473.916 687.072 475.033 685.465 476.697C683.858 478.362 682.815 480.49 682.484 482.779C682.153 485.069 682.55 487.405 683.62 489.457C684.398 490.495 682.842 492.182 680.765 493.349C678.844 491.857 676.646 490.76 674.298 490.121C671.951 489.482 669.5 489.315 667.087 489.629C664.675 489.942 662.348 490.731 660.242 491.948C658.135 493.166 656.291 494.789 654.815 496.723C651.164 502.792 649.617 509.896 650.415 516.934C651.212 523.972 654.31 530.55 659.227 535.648C664.566 540.676 671.078 544.288 678.17 546.158C682.975 547.848 686.972 551.276 689.373 555.768C691.775 560.259 692.408 565.487 691.146 570.421C691.129 571.733 690.853 573.029 690.336 574.234C689.818 575.44 689.068 576.532 688.128 577.448C687.188 578.363 686.077 579.085 684.858 579.571C683.64 580.057 682.337 580.299 681.025 580.282C682.294 578.954 683.002 577.188 683.002 575.351C683.002 573.515 682.294 571.749 681.025 570.421C679.713 569.121 677.941 568.392 676.094 568.392C674.248 568.392 672.476 569.121 671.164 570.421C669.405 572.157 668.228 574.396 667.796 576.83C667.364 579.263 667.698 581.77 668.751 584.006C669.805 586.242 671.527 588.095 673.679 589.31C675.831 590.526 678.307 591.043 680.765 590.792C684.665 590.632 688.427 589.312 691.571 587C694.715 584.689 697.097 581.491 698.412 577.817C702.629 568.004 703.717 557.13 701.526 546.676C710.966 543.289 719.133 537.074 724.914 528.878C730.695 520.683 733.81 510.904 733.834 500.875C733.937 494.352 732.608 487.885 729.942 481.931L739.024 475.444C742.528 473.28 745.225 470.027 746.701 466.183C748.178 462.339 748.352 458.117 747.199 454.165C746.61 451.88 745.409 449.798 743.725 448.145C742.041 446.492 739.938 445.329 737.643 444.782C735.347 444.234 732.946 444.324 730.697 445.04C728.449 445.756 726.438 447.071 724.881 448.845C723.711 450.204 723.129 451.973 723.263 453.761C723.397 455.55 724.236 457.212 725.595 458.382C726.954 459.552 728.723 460.134 730.511 460C732.3 459.866 733.962 459.027 735.132 457.668C737.727 455.592 740.711 459.614 738.375 462.599C735.676 465.408 732.062 467.161 728.184 467.542C724.306 467.922 720.42 466.905 717.226 464.674C708.744 456.835 697.497 452.682 685.956 453.127C682.182 453.133 678.428 453.657 674.797 454.684C673.374 455.113 671.878 455.247 670.402 455.077C668.925 454.908 667.499 454.438 666.211 453.696C664.923 452.955 663.8 451.958 662.911 450.767C662.022 449.576 661.387 448.215 661.043 446.769C659.746 443.136 663.249 440.152 665.325 442.747C665.722 443.542 666.275 444.248 666.951 444.825C667.627 445.401 668.413 445.835 669.26 446.102C670.108 446.368 671.001 446.461 671.885 446.375C672.769 446.289 673.627 446.026 674.408 445.601C675.973 444.723 677.141 443.278 677.672 441.564C678.203 439.85 678.057 437.998 677.262 436.389C676.161 434.297 674.51 432.545 672.486 431.323C670.462 430.101 668.143 429.455 665.779 429.455C663.415 429.455 661.096 430.101 659.072 431.323C657.048 432.545 655.397 434.297 654.296 436.389C652.262 439.728 651.376 443.64 651.775 447.529C652.173 451.419 653.833 455.071 656.502 457.928L659.097 461.171C652.294 465.65 646.826 471.881 643.267 479.207C637.298 491.403 631.849 508.011 624.064 523.451L645.473 525.008C644.787 522.324 644.31 519.591 644.046 516.834C642.992 503.982 646.381 491.157 653.647 480.504C657.227 475.268 662.056 471.007 667.698 468.107C673.339 465.208 679.614 463.76 685.956 463.896C695.68 463.96 704.994 467.825 711.906 474.665C718.782 481.554 722.654 490.883 722.675 500.615C722.728 505.463 721.81 510.272 719.975 514.759C718.14 519.246 715.425 523.321 711.991 526.743C708.557 530.165 704.473 532.865 699.979 534.684C695.486 536.503 690.673 537.404 685.826 537.335C681.79 537.373 677.787 536.613 674.046 535.099C670.305 533.585 666.9 531.346 664.027 528.511C661.379 524.997 659.668 520.866 659.055 516.508C658.442 512.151 658.948 507.708 660.524 503.6C664.546 495.944 671.034 495.944 678.43 500.096C678.43 502.821 678.43 505.676 677.003 505.935C675.387 506.321 673.88 507.071 672.598 508.127C671.316 509.184 670.293 510.52 669.607 512.033C669.032 513.365 668.735 514.8 668.735 516.25C668.735 517.7 669.032 519.136 669.607 520.467C670.62 523.211 672.67 525.448 675.316 526.695C678.031 527.733 681.034 527.733 683.75 526.695C685.242 526.181 686.606 525.352 687.75 524.265C688.895 523.178 689.792 521.858 690.383 520.394C690.973 518.931 691.243 517.357 691.173 515.781C691.103 514.204 690.695 512.66 689.978 511.255C689.806 510.825 689.812 510.344 689.994 509.918C690.177 509.492 690.521 509.156 690.951 508.984C691.381 508.812 691.862 508.818 692.288 509C692.714 509.183 693.05 509.527 693.222 509.957C693.53 511.735 694.255 513.415 695.338 514.858C696.42 516.301 697.829 517.468 699.45 518.261M155.005 126.934C154.002 123.96 152.04 121.404 149.425 119.668C147.47 118.623 145.291 118.065 143.075 118.043C140.858 118.021 138.668 118.536 136.693 119.542C134.718 120.549 133.015 122.018 131.73 123.825C130.445 125.632 129.616 127.722 129.314 129.918C129.042 132.182 129.288 134.477 130.033 136.632C130.778 138.786 132.003 140.743 133.615 142.355C135.227 143.967 137.184 145.192 139.338 145.937C141.493 146.682 143.788 146.928 146.052 146.656L151.508 152.106M146.059 614.534L151.508 609.084C152.74 613.356 152.791 617.883 151.648 622.179C150.505 626.476 148.216 630.381 145.025 633.477C142.159 635.8 138.742 637.343 135.105 637.957C131.468 638.571 127.734 638.234 124.265 636.98M146.059 614.534C143.795 614.262 141.493 614.51 139.338 615.255C137.184 616 135.227 617.224 133.615 618.836C132.003 620.448 130.778 622.405 130.033 624.56C129.288 626.714 129.042 629.01 129.314 631.273M146.059 614.534C146.331 616.797 146.081 619.095 145.335 621.249C144.59 623.403 143.366 625.361 141.754 626.972C140.142 628.584 138.185 629.809 136.03 630.554C133.876 631.299 131.577 631.545 129.314 631.273M154.875 634.387C153.965 637.339 152.033 639.869 149.425 641.523C147.47 642.569 145.291 643.126 143.075 643.148C140.858 643.17 138.668 642.656 136.693 641.649C134.718 640.643 133.015 639.173 131.73 637.366C130.445 635.56 129.616 633.469 129.314 631.273M129.314 631.273C126.739 631.243 124.279 630.221 122.44 628.419C119.951 626.389 118.243 623.553 117.627 620.401C117.011 617.249 117.517 613.98 119.058 611.163C120.93 608.348 123.731 606.281 126.973 605.324M122.698 236.442L133.857 237.221C138.078 227.737 143.771 218.979 150.724 211.271C164.997 196.09 167.592 173.254 150.724 162.744C142.365 159.295 133.667 156.729 124.774 155.089M122.698 236.442L112.45 235.666C109.936 226.339 106.682 217.227 102.719 208.418C96.7698 192.525 94.9397 175.385 97.399 158.594C99.1532 143.211 105.793 128.795 116.343 117.463C126.9 107.602 140.202 101.178 154.49 99.0388C172.29 95.8444 190.621 97.5027 207.559 103.84C216.368 107.803 225.48 111.057 234.807 113.571L235.585 123.821C214.176 120.188 212.489 109.159 176.937 105.656C170.18 104.861 163.336 105.212 156.696 106.694C144.598 109.882 133.661 116.453 125.166 125.638C115.368 134.363 108.447 145.854 105.314 158.594C104.081 164.918 103.818 171.394 104.535 177.797C108.039 213.349 119.065 215.033 122.698 236.442ZM146.058 146.396C146.33 144.132 146.084 141.837 145.339 139.683C144.593 137.528 143.369 135.571 141.757 133.959C140.145 132.347 138.188 131.122 136.033 130.377C133.879 129.632 131.583 129.386 129.32 129.658C126.691 129.729 124.186 130.796 122.313 132.642C119.814 134.696 118.122 137.565 117.529 140.745C116.935 143.925 117.482 147.212 119.072 150.029C120.619 152.494 122.95 154.368 125.69 155.349M332.121 49.4747C332.121 40.0054 334.929 30.7487 340.19 22.8752C345.451 15.0018 352.929 8.86517 361.678 5.24142C370.426 1.61767 380.053 0.66953 389.341 2.5169C398.628 4.36428 407.159 8.92418 413.855 15.62C420.551 22.3158 425.111 30.8468 426.959 40.1342C428.806 49.4216 427.858 59.0482 424.234 67.7967C420.61 76.5452 414.473 84.0227 406.6 89.2836C398.726 94.5445 389.469 97.3524 380 97.3524C367.302 97.3524 355.124 92.3082 346.145 83.3294C337.166 74.3506 332.121 62.1727 332.121 49.4747ZM310.584 47.6582C309.261 48.2579 308.074 49.1187 307.093 50.189C306.112 51.2593 305.357 52.5169 304.875 53.8862C304.292 55.2158 303.992 56.6516 303.992 58.1031C303.992 59.5546 304.292 60.9904 304.875 62.32C305.44 63.6641 306.29 64.8701 307.364 65.8555C308.439 66.8408 309.715 67.5823 311.103 68.029C312.434 68.6038 313.869 68.9003 315.32 68.9003C316.77 68.9003 318.205 68.6038 319.537 68.029C320.859 67.4293 322.046 66.5685 323.027 65.4982C324.009 64.4279 324.763 63.1703 325.246 61.801C326.284 59.0856 326.284 56.0826 325.246 53.3672C323.955 50.7536 321.733 48.7172 319.018 47.6582C316.302 46.62 313.299 46.62 310.584 47.6582ZM48.8786 332.719C39.4091 332.719 30.1522 335.527 22.2787 340.788C14.4051 346.049 8.26837 353.526 4.64456 362.275C1.02074 371.023 0.0725908 380.65 1.91999 389.937C3.7674 399.225 8.32738 407.756 15.0233 414.452C21.7192 421.147 30.2504 425.707 39.5379 427.555C48.8255 429.402 58.4522 428.454 67.2009 424.83C75.9496 421.206 83.4272 415.07 88.6881 407.196C93.9491 399.323 96.7571 390.066 96.7571 380.597C96.7571 367.899 91.7128 355.721 82.7338 346.742C73.7549 337.763 61.5767 332.719 48.8786 332.719ZM332.121 711.719C332.121 721.188 334.929 730.445 340.19 738.319C345.451 746.192 352.929 752.329 361.678 755.952C370.426 759.576 380.053 760.524 389.341 758.677C398.628 756.83 407.159 752.27 413.855 745.574C420.551 738.878 425.111 730.347 426.959 721.06C428.806 711.772 427.858 702.146 424.234 693.397C420.61 684.649 414.473 677.171 406.6 671.91C398.726 666.649 389.469 663.841 380 663.841C367.302 663.841 355.124 668.886 346.145 677.864C337.166 686.843 332.121 699.021 332.121 711.719ZM711.121 332.719C720.591 332.719 729.848 335.527 737.721 340.788C745.595 346.049 751.732 353.526 755.355 362.275C758.979 371.023 759.927 380.65 758.08 389.937C756.233 399.225 751.673 407.756 744.977 414.452C738.281 421.147 729.75 425.707 720.462 427.555C711.175 429.402 701.548 428.454 692.799 424.83C684.05 421.206 676.573 415.07 671.312 407.196C666.051 399.323 663.243 390.066 663.243 380.597C663.243 367.899 668.287 355.721 677.266 346.742C686.245 337.763 698.423 332.719 711.121 332.719ZM731.363 367.751C733.929 367.751 736.438 368.512 738.571 369.938C740.705 371.363 742.368 373.39 743.35 375.761C744.332 378.132 744.589 380.74 744.089 383.257C743.588 385.774 742.352 388.086 740.538 389.901C738.723 391.715 736.411 392.951 733.894 393.452C731.377 393.952 728.768 393.695 726.397 392.713C724.026 391.731 722 390.068 720.574 387.935C719.149 385.801 718.388 383.292 718.388 380.726C718.388 377.285 719.755 373.985 722.188 371.551C724.621 369.118 727.921 367.751 731.363 367.751ZM723.963 360.354C723.963 357.788 723.202 355.28 721.776 353.146C720.35 351.012 718.324 349.349 715.953 348.367C713.582 347.385 710.973 347.128 708.456 347.629C705.939 348.129 703.627 349.365 701.813 351.18C699.998 352.994 698.762 355.306 698.262 357.823C697.761 360.34 698.018 362.949 699 365.32C699.982 367.691 701.645 369.717 703.779 371.143C705.913 372.568 708.421 373.329 710.988 373.329C714.429 373.329 717.729 371.962 720.162 369.529C722.596 367.096 723.963 363.796 723.963 360.354ZM723.963 380.596C723.963 383.162 723.202 385.671 721.776 387.805C720.35 389.938 718.324 391.601 715.953 392.583C713.582 393.565 710.973 393.822 708.456 393.322C705.939 392.821 703.627 391.585 701.813 389.771C699.998 387.956 698.762 385.644 698.262 383.127C697.761 380.611 698.018 378.002 699 375.631C699.982 373.26 701.645 371.234 703.779 369.808C705.913 368.382 708.421 367.621 710.988 367.621C714.429 367.621 717.729 368.988 720.162 371.421C722.596 373.855 723.963 377.155 723.963 380.596ZM723.963 400.838C723.963 403.404 723.202 405.913 721.776 408.046C720.35 410.18 718.324 411.843 715.953 412.825C713.582 413.807 710.973 414.064 708.456 413.564C705.939 413.063 703.627 411.827 701.813 410.013C699.998 408.198 698.762 405.886 698.262 403.369C697.761 400.852 698.018 398.243 699 395.873C699.982 393.502 701.645 391.475 703.779 390.05C705.913 388.624 708.421 387.863 710.988 387.863C714.429 387.863 717.729 389.23 720.162 391.663C722.596 394.096 723.963 397.397 723.963 400.838ZM690.764 367.751C688.198 367.751 685.69 368.512 683.556 369.938C681.422 371.363 679.759 373.39 678.777 375.761C677.795 378.132 677.538 380.74 678.039 383.257C678.539 385.774 679.775 388.086 681.59 389.901C683.404 391.715 685.716 392.951 688.233 393.452C690.75 393.952 693.359 393.695 695.73 392.713C698.101 391.731 700.127 390.068 701.553 387.935C702.979 385.801 703.74 383.292 703.74 380.726C703.74 377.285 702.373 373.985 699.939 371.551C697.506 369.118 694.206 367.751 690.764 367.751ZM69.1199 367.751C71.6861 367.751 74.1948 368.512 76.3285 369.938C78.4623 371.363 80.1254 373.39 81.1074 375.761C82.0895 378.132 82.3464 380.74 81.8458 383.257C81.3451 385.774 80.1094 388.086 78.2948 389.901C76.4801 391.715 74.1682 392.951 71.6512 393.452C69.1343 393.952 66.5254 393.695 64.1545 392.713C61.7836 391.731 59.7571 390.068 58.3314 387.935C56.9056 385.801 56.1447 383.292 56.1447 380.726C56.1447 377.285 57.5117 373.985 59.945 371.551C62.3783 369.118 65.6786 367.751 69.1199 367.751ZM367.144 691.347C367.144 688.78 367.905 686.272 369.331 684.138C370.757 682.004 372.783 680.341 375.154 679.359C377.525 678.377 380.134 678.12 382.651 678.621C385.168 679.122 387.48 680.357 389.294 682.172C391.109 683.987 392.345 686.298 392.845 688.815C393.346 691.332 393.089 693.941 392.107 696.312C391.125 698.683 389.462 700.709 387.328 702.135C385.194 703.561 382.686 704.322 380.12 704.322C376.678 704.322 373.378 702.955 370.945 700.521C368.511 698.088 367.144 694.788 367.144 691.347ZM367.144 69.7157C367.144 72.2819 367.905 74.7905 369.331 76.9242C370.757 79.0579 372.783 80.721 375.154 81.703C377.525 82.6851 380.134 82.942 382.651 82.4414C385.168 81.9407 387.48 80.705 389.294 78.8904C391.109 77.0758 392.345 74.7639 392.845 72.247C393.346 69.7301 393.089 67.1212 392.107 64.7504C391.125 62.3795 389.462 60.3531 387.328 58.9274C385.194 57.5016 382.686 56.7407 380.12 56.7407C376.678 56.7407 373.378 58.1077 370.945 60.541C368.511 62.9742 367.144 66.2745 367.144 69.7157ZM367.144 28.8425C367.144 26.2763 367.905 23.7677 369.331 21.634C370.757 19.5003 372.783 17.8372 375.154 16.8552C377.525 15.8731 380.134 15.6162 382.651 16.1168C385.168 16.6175 387.48 17.8532 389.294 19.6678C391.109 21.4824 392.345 23.7943 392.845 26.3112C393.346 28.8281 393.089 31.437 392.107 33.8078C391.125 36.1787 389.462 38.2051 387.328 39.6308C385.194 41.0565 382.686 41.8175 380.12 41.8175C376.678 41.8175 373.378 40.4505 370.945 38.0172C368.511 35.5839 367.144 32.2837 367.144 28.8425ZM359.77 36.6288C357.203 36.6288 354.695 37.3898 352.561 38.8155C350.427 40.2412 348.764 42.2676 347.782 44.6385C346.8 47.0093 346.543 49.6182 347.044 52.1351C347.545 54.652 348.78 56.9639 350.595 58.7785C352.41 60.5931 354.721 61.8288 357.238 62.3295C359.755 62.8301 362.364 62.5732 364.735 61.5911C367.106 60.6091 369.133 58.946 370.558 56.8123C371.984 54.6786 372.745 52.17 372.745 49.6038C372.745 46.1626 371.378 42.8624 368.945 40.4291C366.511 37.9958 363.211 36.6288 359.77 36.6288ZM379.993 36.6288C382.559 36.6288 385.068 37.3898 387.201 38.8155C389.335 40.2412 390.998 42.2676 391.98 44.6385C392.962 47.0093 393.219 49.6182 392.719 52.1351C392.218 54.652 390.982 56.9639 389.168 58.7785C387.353 60.5931 385.041 61.8288 382.524 62.3295C380.007 62.8301 377.398 62.5732 375.027 61.5911C372.657 60.6091 370.63 58.946 369.204 56.8123C367.779 54.6786 367.018 52.17 367.018 49.6038C367.018 46.1626 368.385 42.8624 370.818 40.4291C373.251 37.9958 376.552 36.6288 379.993 36.6288ZM400.241 36.6288C402.808 36.6288 405.316 37.3898 407.45 38.8155C409.584 40.2412 411.247 42.2676 412.229 44.6385C413.211 47.0093 413.468 49.6182 412.967 52.1351C412.467 54.652 411.231 56.9639 409.416 58.7785C407.602 60.5931 405.29 61.8288 402.773 62.3295C400.256 62.8301 397.647 62.5732 395.276 61.5911C392.905 60.6091 390.879 58.946 389.453 56.8123C388.027 54.6786 387.266 52.17 387.266 49.6038C387.266 46.1626 388.633 42.8624 391.066 40.4291C393.5 37.9958 396.8 36.6288 400.241 36.6288ZM28.2429 367.751C25.6766 367.751 23.168 368.512 21.0342 369.938C18.9005 371.363 17.2374 373.39 16.2554 375.761C15.2733 378.132 15.0163 380.74 15.517 383.257C16.0176 385.774 17.2534 388.086 19.068 389.901C20.8826 391.715 23.1946 392.951 25.7115 393.452C28.2285 393.952 30.8374 393.695 33.2083 392.713C35.5792 391.731 37.6056 390.068 39.0314 387.935C40.4571 385.801 41.2181 383.292 41.2181 380.726C41.2181 377.285 39.8511 373.985 37.4177 371.551C34.9844 369.118 31.6841 367.751 28.2429 367.751ZM36.0229 360.354C36.0229 357.788 36.7839 355.28 38.2097 353.146C39.6354 351.012 41.6619 349.349 44.0328 348.367C46.4037 347.385 49.0126 347.128 51.5295 347.629C54.0465 348.129 56.3584 349.365 58.173 351.18C59.9876 352.994 61.2234 355.306 61.7241 357.823C62.2247 360.34 61.9678 362.949 60.9857 365.32C60.0036 367.691 58.3406 369.717 56.2068 371.143C54.073 372.568 51.5644 373.329 48.9982 373.329C45.5569 373.329 42.2566 371.962 39.8233 369.529C37.39 367.096 36.0229 363.796 36.0229 360.354ZM36.0229 380.596C36.0229 383.162 36.7839 385.671 38.2097 387.805C39.6354 389.938 41.6619 391.601 44.0328 392.583C46.4037 393.565 49.0126 393.822 51.5295 393.322C54.0465 392.821 56.3584 391.585 58.173 389.771C59.9876 387.956 61.2234 385.644 61.7241 383.127C62.2247 380.611 61.9678 378.002 60.9857 375.631C60.0036 373.26 58.3406 371.234 56.2068 369.808C54.073 368.382 51.5644 367.621 48.9982 367.621C45.5569 367.621 42.2566 368.988 39.8233 371.421C37.39 373.855 36.0229 377.155 36.0229 380.596ZM36.0229 400.838C36.0229 403.404 36.7839 405.913 38.2097 408.046C39.6354 410.18 41.6619 411.843 44.0328 412.825C46.4037 413.807 49.0126 414.064 51.5295 413.564C54.0465 413.063 56.3584 411.827 58.173 410.013C59.9876 408.198 61.2234 405.886 61.7241 403.369C62.2247 400.852 61.9678 398.243 60.9857 395.873C60.0036 393.502 58.3406 391.475 56.2068 390.05C54.073 388.624 51.5644 387.863 48.9982 387.863C45.5569 387.863 42.2566 389.23 39.8233 391.663C37.39 394.096 36.0229 397.397 36.0229 400.838ZM367.144 731.96C367.144 734.526 367.905 737.035 369.331 739.169C370.757 741.302 372.783 742.965 375.154 743.947C377.525 744.93 380.134 745.186 382.651 744.686C385.168 744.185 387.48 742.949 389.294 741.135C391.109 739.32 392.345 737.008 392.845 734.491C393.346 731.975 393.089 729.366 392.107 726.995C391.125 724.624 389.462 722.598 387.328 721.172C385.194 719.746 382.686 718.985 380.12 718.985C376.678 718.985 373.378 720.352 370.945 722.785C368.511 725.219 367.144 728.519 367.144 731.96ZM359.77 724.563C357.203 724.563 354.695 723.803 352.561 722.377C350.427 720.951 348.764 718.925 347.782 716.554C346.8 714.183 346.543 711.574 347.044 709.057C347.545 706.54 348.78 704.228 350.595 702.414C352.41 700.599 354.721 699.363 357.238 698.863C359.755 698.362 362.364 698.619 364.735 699.601C367.106 700.583 369.133 702.246 370.558 704.38C371.984 706.514 372.745 709.022 372.745 711.588C372.745 715.03 371.378 718.33 368.945 720.763C366.511 723.196 363.211 724.563 359.77 724.563ZM379.993 724.563C382.559 724.563 385.068 723.803 387.201 722.377C389.335 720.951 390.998 718.925 391.98 716.554C392.962 714.183 393.219 711.574 392.719 709.057C392.218 706.54 390.982 704.228 389.168 702.414C387.353 700.599 385.041 699.363 382.524 698.863C380.007 698.362 377.398 698.619 375.027 699.601C372.657 700.583 370.63 702.246 369.204 704.38C367.779 706.514 367.018 709.022 367.018 711.588C367.018 715.03 368.385 718.33 370.818 720.763C373.251 723.196 376.552 724.563 379.993 724.563ZM400.241 724.563C402.808 724.563 405.316 723.803 407.45 722.377C409.584 720.951 411.247 718.925 412.229 716.554C413.211 714.183 413.468 711.574 412.967 709.057C412.467 706.54 411.231 704.228 409.416 702.414C407.602 700.599 405.29 699.363 402.773 698.863C400.256 698.362 397.647 698.619 395.276 699.601C392.905 700.583 390.879 702.246 389.453 704.38C388.027 706.514 387.266 709.022 387.266 711.588C387.266 715.03 388.633 718.33 391.066 720.763C393.5 723.196 396.8 724.563 400.241 724.563ZM47.0652 311.179C47.6649 309.856 48.5258 308.669 49.5961 307.688C50.6664 306.707 51.924 305.952 53.2934 305.47C54.6229 304.887 56.0587 304.587 57.5103 304.587C58.9618 304.587 60.3977 304.887 61.7272 305.47C63.0714 306.035 64.2774 306.884 65.2628 307.959C66.2482 309.034 66.9896 310.31 67.4363 311.698C68.0112 313.029 68.3077 314.464 68.3077 315.915C68.3077 317.365 68.0112 318.8 67.4363 320.131C66.8367 321.454 65.9758 322.641 64.9055 323.622C63.8352 324.603 62.5776 325.358 61.2082 325.84C58.4928 326.879 55.4898 326.879 52.7743 325.84C50.1607 324.55 48.1242 322.328 47.0652 319.612C46.027 316.897 46.027 313.894 47.0652 311.179ZM47.0652 450.011C47.6649 451.334 48.5258 452.521 49.5961 453.502C50.6664 454.483 51.924 455.238 53.2934 455.72C54.6229 456.303 56.0587 456.603 57.5103 456.603C58.9618 456.603 60.3977 456.303 61.7272 455.72C63.0714 455.155 64.2774 454.306 65.2628 453.231C66.2482 452.156 66.9896 450.88 67.4363 449.492C68.0112 448.161 68.3077 446.726 68.3077 445.275C68.3077 443.825 68.0112 442.39 67.4363 441.059C66.8367 439.736 65.9758 438.549 64.9055 437.568C63.8352 436.587 62.5776 435.832 61.2082 435.35C58.4928 434.311 55.4898 434.311 52.7743 435.35C50.1607 436.64 48.1242 438.862 47.0652 441.578C46.027 444.293 46.027 447.296 47.0652 450.011ZM449.412 47.6582C452.058 48.9057 454.108 51.1422 455.122 53.8862C455.704 55.2158 456.005 56.6516 456.005 58.1031C456.005 59.5546 455.704 60.9904 455.122 62.32C454.556 63.6641 453.707 64.8701 452.632 65.8555C451.557 66.8408 450.282 67.5823 448.893 68.029C447.562 68.6038 446.127 68.9003 444.676 68.9003C443.226 68.9003 441.791 68.6038 440.46 68.029C439.137 67.4293 437.95 66.5685 436.969 65.4982C435.988 64.4279 435.233 63.1703 434.75 61.801C433.712 59.0856 433.712 56.0826 434.75 53.3672C436.041 50.7536 438.263 48.7172 440.979 47.6582C443.694 46.62 446.697 46.62 449.412 47.6582ZM106.087 603.894C104.605 597.254 104.254 590.411 105.049 583.653C108.553 548.102 119.582 546.415 123.215 525.006L112.964 525.785C110.45 535.112 107.196 544.223 103.233 553.032C97.1321 569.616 95.4334 587.497 98.3023 604.932C100.366 619.498 106.841 633.082 116.857 643.857C128.102 654.209 142.301 660.787 157.469 662.671C174.503 665.301 191.927 663.514 208.073 657.481C216.882 653.518 225.994 650.264 235.321 647.75L236.099 637.499C214.69 641.132 213.003 652.161 177.451 655.665C171.353 656.314 165.193 656.096 159.156 655.016C146.193 651.993 134.493 645.009 125.68 635.034C116.32 626.729 109.524 615.926 106.087 603.894Z" stroke="#CEBAA0" stroke-width="2" stroke-miterlimit="10"/>
</svg>
