<svg width="30" height="30" viewBox="0 0 30 30" fill="none" xmlns="http://www.w3.org/2000/svg">
<g opacity="0.7">
<path fill-rule="evenodd" clip-rule="evenodd" d="M3.75 15C3.75 14.4822 4.16973 14.0625 4.6875 14.0625H25.3125C25.8303 14.0625 26.25 14.4822 26.25 15C26.25 15.5178 25.8303 15.9375 25.3125 15.9375H4.6875C4.16973 15.9375 3.75 15.5178 3.75 15Z" fill="#1E1E1E"/>
<path fill-rule="evenodd" clip-rule="evenodd" d="M13.7879 5.89959C14.154 6.2657 14.154 6.8593 13.7879 7.22541L6.01332 15L13.7879 22.7746C14.154 23.1407 14.154 23.7343 13.7879 24.1004C13.4218 24.4665 12.8282 24.4665 12.4621 24.1004L4.02459 15.6629C3.65847 15.2968 3.65847 14.7032 4.02459 14.3371L12.4621 5.89959C12.8282 5.53347 13.4218 5.53347 13.7879 5.89959Z" fill="#1E1E1E"/>
</g>
</svg>
