<svg width="50" height="50" viewBox="0 0 50 50" fill="none" xmlns="http://www.w3.org/2000/svg">
<path fill-rule="evenodd" clip-rule="evenodd" d="M13.75 25C13.75 24.4822 14.1697 24.0625 14.6875 24.0625H35.3125C35.8303 24.0625 36.25 24.4822 36.25 25C36.25 25.5178 35.8303 25.9375 35.3125 25.9375H14.6875C14.1697 25.9375 13.75 25.5178 13.75 25Z" fill="#CEBAA0"/>
<path fill-rule="evenodd" clip-rule="evenodd" d="M23.7879 15.8996C24.154 16.2657 24.154 16.8593 23.7879 17.2254L16.0133 25L23.7879 32.7746C24.154 33.1407 24.154 33.7343 23.7879 34.1004C23.4218 34.4665 22.8282 34.4665 22.4621 34.1004L14.0246 25.6629C13.6585 25.2968 13.6585 24.7032 14.0246 24.3371L22.4621 15.8996C22.8282 15.5335 23.4218 15.5335 23.7879 15.8996Z" fill="#CEBAA0"/>
</svg>
