<svg width="30" height="30" viewBox="0 0 30 30" fill="none" xmlns="http://www.w3.org/2000/svg">
<g opacity="0.7">
<path fill-rule="evenodd" clip-rule="evenodd" d="M26.25 15C26.25 15.5178 25.8303 15.9375 25.3125 15.9375L4.6875 15.9375C4.16973 15.9375 3.75 15.5178 3.75 15C3.75 14.4822 4.16973 14.0625 4.6875 14.0625L25.3125 14.0625C25.8303 14.0625 26.25 14.4822 26.25 15Z" fill="#1E1E1E"/>
<path fill-rule="evenodd" clip-rule="evenodd" d="M16.2121 24.1004C15.846 23.7343 15.846 23.1407 16.2121 22.7746L23.9867 15L16.2121 7.22541C15.846 6.85929 15.846 6.26571 16.2121 5.89959C16.5782 5.53347 17.1718 5.53347 17.5379 5.89959L25.9754 14.3371C26.3415 14.7032 26.3415 15.2968 25.9754 15.6629L17.5379 24.1004C17.1718 24.4665 16.5782 24.4665 16.2121 24.1004Z" fill="#1E1E1E"/>
</g>
</svg>
