<svg width="30" height="30" viewBox="0 0 30 30" fill="none" xmlns="http://www.w3.org/2000/svg">
<path fill-rule="evenodd" clip-rule="evenodd" d="M8.25 15C8.25 14.6893 8.50184 14.4375 8.8125 14.4375H21.1875C21.4982 14.4375 21.75 14.6893 21.75 15C21.75 15.3107 21.4982 15.5625 21.1875 15.5625H8.8125C8.50184 15.5625 8.25 15.3107 8.25 15Z" fill="#CEBAA0"/>
<path fill-rule="evenodd" clip-rule="evenodd" d="M14.2727 9.53975C14.4924 9.75942 14.4924 10.1156 14.2727 10.3352L9.608 15L14.2727 19.6648C14.4924 19.8844 14.4924 20.2406 14.2727 20.4602C14.0531 20.6799 13.6969 20.6799 13.4773 20.4602L8.41475 15.3977C8.19508 15.1781 8.19508 14.8219 8.41475 14.6023L13.4773 9.53975C13.6969 9.32008 14.0531 9.32008 14.2727 9.53975Z" fill="#CEBAA0"/>
</svg>
