<svg width="20" height="21" viewBox="0 0 20 21" fill="none" xmlns="http://www.w3.org/2000/svg">
<path d="M6.25 18.625C6.94036 18.625 7.5 18.0654 7.5 17.375C7.5 16.6846 6.94036 16.125 6.25 16.125C5.55964 16.125 5 16.6846 5 17.375C5 18.0654 5.55964 18.625 6.25 18.625Z" fill="#CEBAA0"/>
<path d="M14.375 18.625C15.0654 18.625 15.625 18.0654 15.625 17.375C15.625 16.6846 15.0654 16.125 14.375 16.125C13.6846 16.125 13.125 16.6846 13.125 17.375C13.125 18.0654 13.6846 18.625 14.375 18.625Z" fill="#CEBAA0"/>
<path fill-rule="evenodd" clip-rule="evenodd" d="M1.93726 2.375C2.20891 2.3748 2.47324 2.46311 2.69023 2.62656C2.90734 2.79009 3.06522 3.01993 3.13997 3.28125L3.77439 5.5H17.3203C17.5164 5.5 17.7012 5.59206 17.8193 5.74863C17.9374 5.9052 17.9751 6.10813 17.9213 6.2967L15.8595 13.5128C15.8594 13.5132 15.8593 13.5136 15.8592 13.514C15.7484 13.9073 15.5117 14.2534 15.1853 14.4993C14.8591 14.745 14.4614 14.8769 14.0531 14.875C14.0524 14.875 14.0517 14.875 14.0511 14.875L14.0547 14.25V14.875H14.0531H6.57191C6.57259 14.875 6.57327 14.875 6.57394 14.875L6.57031 14.25V14.875H6.57191C6.16358 14.8769 5.76587 14.745 5.43968 14.4993C5.11339 14.2535 4.87671 13.9075 4.76591 13.5143L4.76627 13.5156L5.36719 13.3438L4.76547 13.5128L1.93816 3.625L0.625 3.625C0.279822 3.625 0 3.34518 0 3C0 2.65482 0.279822 2.375 0.625 2.375H1.93726ZM1.93726 2.375C1.93712 2.375 1.9374 2.375 1.93726 2.375V2.375ZM4.13182 6.75L5.96891 13.1747C6.00546 13.3049 6.08376 13.4195 6.19176 13.5008C6.29975 13.5822 6.43148 13.6258 6.56668 13.625L6.57031 13.625L14.0583 13.625C14.1935 13.6258 14.3252 13.5822 14.4332 13.5008C14.5412 13.4195 14.6195 13.3049 14.6561 13.1747L14.6569 13.172L16.4917 6.75H4.13182Z" fill="#CEBAA0"/>
</svg>
