<svg width="30" height="30" viewBox="0 0 30 30" fill="none" xmlns="http://www.w3.org/2000/svg">
<path fill-rule="evenodd" clip-rule="evenodd" d="M8.25 15C8.25 14.6893 8.50184 14.4375 8.8125 14.4375H21.1875C21.4982 14.4375 21.75 14.6893 21.75 15C21.75 15.3107 21.4982 15.5625 21.1875 15.5625H8.8125C8.50184 15.5625 8.25 15.3107 8.25 15Z" fill="#CEBAA0"/>
<path fill-rule="evenodd" clip-rule="evenodd" d="M15.7273 9.53975C15.9469 9.32008 16.3031 9.32008 16.5227 9.53975L21.5852 14.6023C21.8049 14.8219 21.8049 15.1781 21.5852 15.3977L16.5227 20.4602C16.3031 20.6799 15.9469 20.6799 15.7273 20.4602C15.5076 20.2406 15.5076 19.8844 15.7273 19.6648L20.392 15L15.7273 10.3352C15.5076 10.1156 15.5076 9.75942 15.7273 9.53975Z" fill="#CEBAA0"/>
</svg>
