<svg width="18" height="18" viewBox="0 0 18 18" fill="none" xmlns="http://www.w3.org/2000/svg">
<g opacity="0.7">
<path fill-rule="evenodd" clip-rule="evenodd" d="M2.25 9C2.25 8.68934 2.50184 8.4375 2.8125 8.4375H15.1875C15.4982 8.4375 15.75 8.68934 15.75 9C15.75 9.31066 15.4982 9.5625 15.1875 9.5625H2.8125C2.50184 9.5625 2.25 9.31066 2.25 9Z" fill="#1E1E1E"/>
<path fill-rule="evenodd" clip-rule="evenodd" d="M9.72725 3.53975C9.94692 3.32008 10.3031 3.32008 10.5227 3.53975L15.5852 8.60225C15.8049 8.82192 15.8049 9.17808 15.5852 9.39775L10.5227 14.4602C10.3031 14.6799 9.94692 14.6799 9.72725 14.4602C9.50758 14.2406 9.50758 13.8844 9.72725 13.6648L14.392 9L9.72725 4.33525C9.50758 4.11558 9.50758 3.75942 9.72725 3.53975Z" fill="#1E1E1E"/>
</g>
</svg>
