<svg width="50" height="50" viewBox="0 0 50 50" fill="none" xmlns="http://www.w3.org/2000/svg">
<path fill-rule="evenodd" clip-rule="evenodd" d="M13.75 25C13.75 24.4822 14.1697 24.0625 14.6875 24.0625H35.3125C35.8303 24.0625 36.25 24.4822 36.25 25C36.25 25.5178 35.8303 25.9375 35.3125 25.9375H14.6875C14.1697 25.9375 13.75 25.5178 13.75 25Z" fill="#CEBAA0"/>
<path fill-rule="evenodd" clip-rule="evenodd" d="M26.2121 15.8996C26.5782 15.5335 27.1718 15.5335 27.5379 15.8996L35.9754 24.3371C36.3415 24.7032 36.3415 25.2968 35.9754 25.6629L27.5379 34.1004C27.1718 34.4665 26.5782 34.4665 26.2121 34.1004C25.846 33.7343 25.846 33.1407 26.2121 32.7746L33.9867 25L26.2121 17.2254C25.846 16.8593 25.846 16.2657 26.2121 15.8996Z" fill="#CEBAA0"/>
</svg>
