<svg width="50" height="54" viewBox="0 0 50 54" fill="none" xmlns="http://www.w3.org/2000/svg">
<path fill-rule="evenodd" clip-rule="evenodd" d="M20.4875 50.2384C20.415 50.19 20.4392 50.2383 20.4069 50.1416C20.3964 50.1003 20.3772 50.0618 20.3505 50.0287C20.3505 50.0287 20.2538 49.819 20.2377 49.7706L19.3513 47.9478C19.2552 47.7429 19.1476 47.5437 19.0289 47.351C18.7549 46.9961 18.626 46.5445 18.1586 46.3912C17.9058 46.3438 17.6444 46.3836 17.4172 46.5041L16.7 46.7058C16.172 46.8405 15.6323 46.9242 15.0883 46.9558L13.678 46.8832C13.0519 46.7588 12.4521 46.5269 11.9051 46.1977C11.6272 46.0318 11.3582 45.8514 11.0992 45.6573L10.5996 45.2621C10.5029 45.1734 10.4626 45.125 10.3579 45.0363C10.2531 44.9475 10.2047 44.883 10.1242 44.8104C10.0436 44.7378 9.82599 44.5201 9.68899 44.3507L9.25383 43.8587C8.95046 43.4655 8.68088 43.0473 8.44797 42.6086L8.37544 42.4634C8.31903 42.3505 8.28679 42.2699 8.23038 42.1489C8.17242 42.0488 8.12386 41.9435 8.08533 41.8344C8.08533 41.7698 8.03698 41.7295 8.02086 41.6811L7.73075 40.8262C7.65822 40.56 7.5857 40.3826 7.51317 40.1165C7.38471 39.6103 7.29314 39.0954 7.23918 38.576L7.02159 35.3902C7.01764 35.3177 7.01764 35.245 7.02159 35.1725C7.02159 35.0676 7.02159 35.0676 7.02159 34.987C7.0194 34.5095 7.07076 34.0334 7.17471 33.5675C7.29227 33.1275 7.50708 32.7196 7.80328 32.3738C7.87263 32.2978 7.9481 32.2277 8.02892 32.1641C8.68404 31.7052 9.40377 31.3464 10.1645 31.0995C11.0766 30.7244 12.0282 30.4539 13.0011 30.293C13.4257 30.2364 13.8541 30.2122 14.2824 30.2204H14.5806C14.774 30.2204 14.9271 30.2204 15.1124 30.2204C15.2978 30.2204 15.3623 30.2204 15.5476 30.2204C15.878 30.2204 16.1278 30.2204 16.4421 30.2204C16.7564 30.2204 16.9579 30.301 17.248 30.293C17.4091 30.293 17.4978 30.293 17.6831 30.293C17.8334 30.3011 17.9841 30.3011 18.1344 30.293C18.2465 30.2704 18.3531 30.2266 18.4487 30.1639C18.5814 30.0698 18.6826 29.9376 18.7388 29.7849L18.8839 29.4542C18.9005 29.396 18.922 29.3393 18.9483 29.2848L19.0853 28.7686C19.1553 28.595 19.2145 28.4172 19.2626 28.2363L19.6253 27.0265L19.6817 26.841C19.73 26.712 19.7381 26.5991 19.7784 26.47C19.9154 26.0345 20.3747 24.986 19.859 24.7925C18.7793 24.5863 17.6856 24.4623 16.5872 24.4215H16.1278C15.9344 24.4215 15.8699 24.4215 15.7088 24.4215C15.5476 24.4215 15.6362 24.4215 15.5234 24.4215C15.451 24.4155 15.3783 24.4155 15.3058 24.4215C15.0641 24.4215 14.782 24.4215 14.5 24.4215C14.4383 24.4156 14.3763 24.4156 14.3146 24.4215L13.6538 24.4618C13.541 24.4618 13.5732 24.4618 13.4604 24.4618C13.3961 24.4568 13.3314 24.4568 13.267 24.4618H13.0494L12.0099 24.5424H11.615C11.0509 24.5908 10.0033 24.9054 9.80181 24.3247C9.7708 24.0848 9.80999 23.8411 9.91463 23.623C10.0123 23.3468 10.1281 23.0774 10.2612 22.8165C10.2612 22.76 10.3014 22.7197 10.3417 22.6552L11.1879 21.2196C11.1879 21.1631 11.1879 21.1308 11.2604 21.0744L11.5989 20.5179L11.7036 20.3727L12.8077 18.7597L12.8963 18.6306C13.0011 18.5016 13.0817 18.3564 13.2025 18.2274C13.3234 18.0983 13.5813 17.7031 13.7908 17.4692L14.0003 17.2111L14.5967 16.453C14.8546 16.1062 15.3139 15.6465 15.5476 15.3642L16.1923 14.6464C16.2355 14.6083 16.2813 14.5733 16.3293 14.5415C16.3589 14.4966 16.3912 14.4535 16.426 14.4125L16.6597 14.1867L16.7161 14.1221L18.7308 12.2026L18.8436 12.1058L19.593 11.4606C20.0765 11.0735 20.5117 10.6057 21.0516 10.2024L21.3176 10.0089L21.5835 9.81529L21.7044 9.71851C22.204 9.3959 22.6553 8.99264 23.1549 8.66196L23.856 8.2345L24.0011 8.15385C24.2779 7.99287 24.5892 7.90079 24.909 7.88535C25.2287 7.86991 25.5475 7.93157 25.8384 8.06513C26.2489 8.32447 26.6322 8.62439 26.9828 8.96038C27.1036 9.06522 27.2084 9.2104 27.3373 9.30718L29.5212 11.2025C29.5959 11.2839 29.6768 11.3594 29.763 11.4283L29.8677 11.5332C30.1773 11.7831 30.4707 12.0525 30.7461 12.3397L30.7945 12.3881L30.996 12.6381C31.1397 12.8165 31.2376 13.0273 31.2812 13.2523C31.3247 13.4772 31.3126 13.7094 31.2458 13.9286C31.1658 14.1337 31.0573 14.3265 30.9234 14.5012L29.9806 15.84C29.908 15.9368 29.8516 16.0094 29.7872 16.1062L28.1029 18.55C28.0604 18.6866 27.9858 18.8111 27.8853 18.9129C27.8289 18.9129 27.7886 19.0339 27.7886 19.1065C27.7886 19.1791 27.7886 19.1065 27.7886 19.2355L27.6275 19.4694C27.5695 19.5093 27.5291 19.5699 27.5146 19.6388L25.7417 23.8166C25.5886 24.3166 25.4597 24.5666 25.3146 25.1151L25.1857 25.5506C25.1454 25.6958 25.1132 25.8652 25.0648 26.0103L24.9359 26.4378C24.8472 27.0346 24.5491 27.9621 24.4282 28.7686L24.2348 29.7203C24.1784 30.0268 24.1058 30.3575 24.0494 30.6559C23.993 30.9543 23.9527 31.3092 23.8963 31.6318C23.8399 31.9544 23.7513 32.8255 23.6949 33.1319C23.66 33.3048 23.6385 33.48 23.6304 33.6562C23.6502 33.8412 23.6502 34.0277 23.6304 34.2127C23.6304 34.2853 23.6304 34.2127 23.6304 34.2611C23.6304 34.3095 23.6304 34.4627 23.6304 34.5111L23.5659 35.3176C23.5659 35.6886 23.4853 36.0677 23.4853 36.4629L23.3967 38.1647C23.3967 38.2614 23.3967 38.3582 23.3967 38.4469C23.3913 38.541 23.3913 38.6352 23.3967 38.7292C23.3967 38.7292 23.3967 38.7292 23.3967 38.7938V40.3262C23.3967 40.5197 23.3967 42.6247 23.3967 42.7457C23.3967 43.0603 23.4773 43.6813 23.4934 44.0523L23.8319 49.327C23.8199 49.4773 23.8199 49.6283 23.8319 49.7786C23.8319 49.9238 23.8319 50.0609 23.8319 50.2142L24.0253 52.3111C24.0639 52.701 24.1561 53.0837 24.2992 53.4483C24.5007 53.9 24.9762 53.8355 25.3308 53.8435L26.2253 53.8919C26.5177 53.8717 26.8112 53.8717 27.1036 53.8919H28.9249C29.6663 53.8919 30.1095 53.8919 30.0853 53.166L29.9886 51.8514C29.9886 51.6901 29.9886 51.6014 29.9403 51.4159C29.9403 50.9723 29.8194 50.5126 29.8194 50.1012C29.8194 49.8915 29.6824 49.0931 29.6743 48.8189L29.5212 47.0768C29.5132 46.929 29.5132 46.7809 29.5212 46.6332C29.4797 46.3418 29.4555 46.0483 29.4487 45.7541C29.4567 45.6036 29.4567 45.4529 29.4487 45.3024C29.352 44.6572 29.4487 44.262 29.3439 43.5603C29.3439 43.4151 29.3439 43.2296 29.3439 43.1006C29.3359 42.9502 29.3359 42.7994 29.3439 42.6489C29.3036 42.6006 29.3439 42.6489 29.3036 42.5764C29.2633 42.5038 29.3036 40.4955 29.3036 40.1165C29.2724 39.3656 29.2967 38.6135 29.3762 37.8663C29.3762 37.5275 29.3762 37.2694 29.3762 36.9387L29.489 35.1563C29.4646 35.0176 29.4646 34.8757 29.489 34.7369L29.6018 33.4223C29.6018 33.2852 29.6018 33.1723 29.6502 33.0029C29.6502 32.6077 29.7388 32.4303 29.771 32.1964C29.9792 30.7263 30.2834 29.2714 30.6817 27.8411C30.6817 27.7121 30.7381 27.5911 30.7784 27.4701L31.2458 25.4538C31.2458 25.3732 31.2941 25.3812 31.3264 25.2925L31.4392 24.9215C31.4392 24.8731 31.4392 24.857 31.4392 24.8167C31.4516 24.7881 31.471 24.7632 31.4956 24.7441C31.4956 24.7441 31.4956 24.8005 31.4956 24.6796C31.5069 24.5978 31.5436 24.5217 31.6004 24.4618C31.6004 24.4618 31.6004 24.4618 31.6004 24.3973C31.5991 24.3758 31.5991 24.3542 31.6004 24.3328L31.7293 24.0263C31.7473 23.9712 31.7688 23.9173 31.7938 23.865C31.8421 23.7601 31.8663 23.6875 31.9146 23.5746L32.3498 22.7197C32.4019 22.6316 32.4476 22.54 32.4868 22.4455L32.6963 22.0261C32.8848 21.6584 33.1003 21.3053 33.341 20.9695L34.2516 19.7194L35.2751 18.7193C35.3413 18.6378 35.4305 18.578 35.5311 18.5478C35.6317 18.5176 35.739 18.5183 35.8392 18.55C36.0043 18.6639 36.1557 18.7965 36.2905 18.9452L37.4348 20.3727L38.5308 21.9858L39.2157 23.2117L39.3044 23.3891C39.3044 23.3891 39.3688 23.4698 39.393 23.5182C39.4172 23.5666 39.5139 23.8166 39.5945 23.9537C39.6235 23.9995 39.6478 24.0481 39.667 24.0989L39.8121 24.3973L39.9491 24.6957C39.9491 24.7925 40.0377 24.8731 40.0861 24.9699L40.6341 26.341C40.6521 26.3935 40.6736 26.4447 40.6985 26.4942C40.763 26.6475 40.7469 26.7039 40.8597 26.954C41.037 27.3492 41.1176 27.7605 41.2304 28.067L41.448 28.7041C41.722 29.7607 42.0524 30.5027 42.2538 31.7367L42.6245 33.4787C42.6245 33.6078 42.6729 33.7046 42.6971 33.8498L43.1725 37.2049L43.2612 38.3986C43.2612 38.6647 43.3095 38.9551 43.3095 39.2051V39.6164C43.3095 39.7938 43.3095 39.8584 43.3095 40.0277V43.4555C43.3095 43.6248 43.3095 43.6974 43.3095 43.8426V44.2781C43.3095 44.4556 43.3095 44.5282 43.3095 44.6653L43.2128 46.6171C43.2128 46.8751 43.2128 47.0929 43.1645 47.3671C43.1161 47.6413 43.1645 47.9075 43.1161 48.1736C43.0678 48.4398 43.0516 48.6656 43.0436 48.9802C43.0355 49.2947 42.9791 49.5044 42.971 49.7867C42.971 49.9157 42.971 50.0287 42.971 50.1738C42.9634 50.3065 42.9472 50.4385 42.9227 50.569L42.7535 52.0934C42.689 52.795 42.3264 53.7951 43.3659 53.8193C43.4592 53.8027 43.5547 53.8027 43.648 53.8193H43.7205C43.8656 53.8193 44.1798 53.8193 44.2685 53.8193C44.7117 53.7548 45.2597 53.8193 45.719 53.8193H47.1696C47.3872 53.8193 47.5242 53.7709 47.7256 53.7709C48.3703 53.7709 48.5315 53.5854 48.6685 52.8676C48.6685 52.6821 48.741 52.5128 48.7652 52.3595L48.9586 50.7465L49.1359 47.8591C49.1268 47.7706 49.1268 47.6814 49.1359 47.5929C49.1359 47.4881 49.1359 47.3752 49.1359 47.2784V46.7058C49.1359 46.4396 49.1842 44.7056 49.2003 44.2862C49.213 44.0955 49.213 43.9042 49.2003 43.7136C49.2003 43.4071 49.2003 42.9635 49.2003 42.6247V40.3262V40.2536V40.1084C49.2147 39.1033 49.1636 38.0984 49.0472 37.1001C49.0472 36.8904 49.0472 36.6887 49.0472 36.479C49.0472 36.0838 48.9586 35.6725 48.9264 35.2854L48.4106 31.9464C48.3816 31.8624 48.36 31.776 48.3461 31.6883C48.3328 31.5958 48.314 31.5042 48.2897 31.414L48.1688 30.8817C48.1688 30.7608 48.1205 30.7527 48.0963 30.6398C48.0721 30.5269 48.0963 30.4623 48.048 30.3656L47.637 28.8332C47.5242 28.4138 47.2663 27.6879 47.1938 27.3411C47.1212 26.9943 46.9762 26.712 46.8795 26.3733L46.7102 25.8813C46.7102 25.7926 46.6538 25.7603 46.6135 25.6555C46.1823 24.4969 45.6928 23.3609 45.1469 22.2519L45.0985 22.1471C45.083 22.1079 45.0641 22.0701 45.0421 22.0342C44.889 21.7519 44.7762 21.4454 44.6231 21.1712L44.1476 20.3646L43.9945 20.163L43.2853 18.9371C42.9952 18.4935 42.1491 17.324 41.9798 16.9934L39.1593 13.3479C39.1029 13.2753 39.0707 13.243 39.0223 13.1704C38.845 12.9204 38.6194 12.6946 38.4421 12.4446L37.5395 11.3719C37.4816 11.3139 37.4277 11.2519 37.3784 11.1864L35.5571 9.14588C35.404 8.99264 35.2187 8.8394 35.0736 8.67003L31.9066 5.64556C31.4311 5.16164 30.8993 4.72612 30.3916 4.27446L29.1666 3.22598C29.0538 3.11307 28.941 3.04854 28.8282 2.93563L28.4817 2.62109C28.0223 2.27428 27.4099 1.61293 26.9183 1.25806C26.5557 0.983839 26.2091 0.661229 25.8465 0.38701C25.787 0.332272 25.7222 0.283637 25.6531 0.241836C25.5335 0.130503 25.3902 0.0477741 25.234 -0.000122063C24.9644 -0.0496994 24.6865 -0.0274481 24.4282 0.0644C24.3586 0.0975754 24.2913 0.135295 24.2267 0.177314C23.6948 0.52277 23.186 0.902646 22.7036 1.31451L20.8743 2.734L20.6971 2.87917L18.1264 4.99227C17.9894 5.14551 17.7154 5.33101 17.5542 5.49232L17.2399 5.75847C17.0698 5.93554 16.8895 6.10251 16.7 6.25852C16.5789 6.35706 16.4632 6.46206 16.3535 6.57306L15.3139 7.54896L15.1527 7.7022L14.8304 8.00868L13.6941 9.12975L13.3718 9.46042C13.2207 9.62648 13.0592 9.78272 12.8883 9.92821C12.7835 10.0089 12.8077 10.0089 12.7271 10.1056C12.6465 10.2024 12.3886 10.4121 12.2355 10.5896C12.0824 10.767 12.1308 10.6944 12.0743 10.7589L11.6875 11.2025L11.6392 11.2509L11.1637 11.7752L11.0912 11.8477C11.071 11.8827 11.0435 11.913 11.0106 11.9365L9.1813 14.0334C9.13757 14.1038 9.0891 14.1712 9.03625 14.2351L6.96518 16.9934C6.63478 17.4289 6.37691 17.9209 6.06262 18.3725C5.96592 18.5096 5.90951 18.6467 5.82086 18.7839C5.73222 18.921 5.66775 19.0581 5.5791 19.1952L4.62819 20.8082C4.55825 20.9549 4.48023 21.0976 4.39449 21.2357C4.3139 21.3647 4.25749 21.5099 4.18496 21.647C3.87874 22.1955 3.29852 23.5585 3.08093 24.115L2.54101 25.5183C2.54101 25.6151 2.49266 25.6877 2.46042 25.7764L2.32343 26.1313C2.31883 26.1715 2.31883 26.2121 2.32343 26.2523L1.97691 27.1959C1.83185 27.6395 1.79962 27.825 1.69486 28.196C1.63845 28.3734 1.60621 28.5589 1.55786 28.7203C1.38863 29.3251 1.14687 30.8092 1.05822 31.4463C0.96541 32.0395 0.903543 32.6371 0.872877 33.2368L0.816467 34.124C0.816467 34.4063 0.816467 34.7611 0.816467 35.0515C0.816467 35.3418 0.816467 37.1888 0.816467 37.5356L0.85676 38.7131C0.85676 39.2051 1.09852 40.1568 1.17104 40.681C1.23273 41.0346 1.31343 41.3846 1.4128 41.7295L1.7835 42.9796C1.96079 43.5039 2.27507 44.3346 2.51683 44.8508C2.58936 45.004 2.66189 45.1492 2.72636 45.2943C2.79083 45.4395 2.85529 45.5766 2.92782 45.7299L3.04064 45.9718L3.29046 46.3832C3.45969 46.6412 3.58863 46.9316 3.78203 47.1897C3.97544 47.4478 4.14467 47.8026 4.30584 47.9962L4.57984 48.3511C4.77438 48.5929 4.98434 48.8219 5.20841 49.0366C5.26482 49.1011 5.29705 49.1737 5.35346 49.2302L6.73149 50.448C7.08533 50.7394 7.45672 51.0088 7.84357 51.2546C7.97158 51.3519 8.10931 51.4357 8.25456 51.5046C8.33515 51.5046 8.36738 51.5772 8.44797 51.6256L8.86702 51.8353C9.09266 51.9401 9.82599 52.2466 10.0436 52.3111L10.519 52.4644C11.0348 52.6176 11.5344 52.7628 12.0743 52.8757L12.8802 53.0209C13.267 53.0934 13.6297 53.1176 14.0326 53.1822H15.3784C15.8135 53.1822 16.3373 53.1822 16.7483 53.1015C17.1593 53.0209 17.4978 53.037 17.9007 52.9644L18.4568 52.8757C19.0591 52.7617 19.6538 52.6108 20.2377 52.424L20.5036 52.3595L20.6165 52.3192C21.382 51.9643 20.9872 51.5127 20.7938 50.932C20.767 50.8518 20.7347 50.7737 20.6971 50.6981C20.637 50.5458 20.567 50.3976 20.4875 50.2545" fill="#E8D393"/>
</svg>
