<svg width="30" height="30" viewBox="0 0 30 30" fill="none" xmlns="http://www.w3.org/2000/svg">
<path d="M23.4128 6.48006C22.3124 5.3722 21.0027 4.49403 19.5598 3.89659C18.1168 3.29916 16.5694 2.99442 15.0075 3.00008C12.9195 3.00212 10.8686 3.55237 9.06035 4.59574C7.25207 5.63911 5.74984 7.13897 4.70408 8.94509C3.65831 10.7512 3.10576 12.8003 3.1017 14.8869C3.09767 16.9737 3.6423 19.0248 4.68105 20.835L3 27L9.30394 25.35C11.0447 26.3178 13.0006 26.8337 14.9925 26.85C18.159 26.8502 21.1974 25.6002 23.4461 23.3724C25.6949 21.1448 26.9722 18.1194 27 14.955C26.9895 13.376 26.6671 11.8146 26.0516 10.3603C25.436 8.90595 24.5392 7.58736 23.4128 6.48006ZM15.0075 24.795C13.2329 24.7962 11.4908 24.3195 9.96435 23.415L9.60413 23.19L5.86679 24.18L6.85741 20.535L6.61726 20.16C5.34034 18.1001 4.86377 15.6435 5.27785 13.2559C5.69193 10.8682 6.96789 8.7153 8.86401 7.20491C10.7601 5.6945 13.1447 4.93156 15.566 5.0606C17.9873 5.18963 20.2773 6.2017 22.0019 7.90506C23.8871 9.74734 24.9662 12.2603 25.0038 14.895C24.98 17.5289 23.9163 20.0468 22.0442 21.9009C20.1722 23.7549 17.6432 24.7952 15.0075 24.795ZM20.4259 17.385C20.1257 17.235 18.6698 16.515 18.3996 16.425C18.1295 16.335 17.9193 16.275 17.7242 16.575C17.4306 16.9772 17.1148 17.3627 16.7786 17.73C16.6135 17.94 16.4334 17.955 16.1332 17.73C14.4217 17.0541 12.9958 15.8091 12.0957 14.205C11.7805 13.6801 12.3959 13.7101 12.9662 12.5851C13.0084 12.5039 13.0303 12.4139 13.0303 12.3226C13.0303 12.2312 13.0084 12.1412 12.9662 12.0601C12.9662 11.91 12.2908 10.44 12.0507 9.85505C11.8105 9.27005 11.5704 9.36005 11.3752 9.34505H10.7899C10.6382 9.34738 10.4888 9.38204 10.3516 9.44671C10.2144 9.51137 10.0926 9.60457 9.99437 9.72005C9.65759 10.0473 9.39491 10.4429 9.22403 10.8802C9.05315 11.3175 8.97804 11.7863 9.00375 12.2551C9.09786 13.3772 9.52072 14.4467 10.2195 15.33C11.4986 17.2437 13.2516 18.794 15.3077 19.83C16.3861 20.4591 17.6394 20.7222 18.8799 20.58C19.293 20.4981 19.6843 20.3303 20.0281 20.0873C20.3722 19.8444 20.6611 19.5318 20.8762 19.17C21.0755 18.7284 21.1382 18.2375 21.0563 17.76C20.9212 17.61 20.7261 17.535 20.4259 17.385Z" fill="#CEBAA0"/>
</svg>
