<svg width="30" height="30" viewBox="0 0 30 30" fill="none" xmlns="http://www.w3.org/2000/svg">
<path fill-rule="evenodd" clip-rule="evenodd" d="M25.1963 3.39143C25.5129 3.26868 25.8569 3.23423 26.1916 3.29173C26.5262 3.34923 26.839 3.49654 27.0965 3.71792C27.3539 3.9393 27.5465 4.22645 27.6535 4.54871C27.7605 4.87097 27.778 5.21625 27.7041 5.54768L27.7029 5.55293L27.7029 5.55292L23.2967 24.7951L23.2966 24.7956C23.2238 25.1126 23.0698 25.4052 22.8498 25.6447C22.6298 25.8841 22.3512 26.0623 22.0415 26.1616C21.7318 26.2609 21.4017 26.2779 21.0834 26.211C20.7658 26.1442 20.4709 25.9962 20.2277 25.7813C20.2272 25.7809 20.2267 25.7804 20.2262 25.78L9.88177 16.6782L3.8819 15.4738L3.87804 15.473C2.0759 15.1033 1.79896 12.579 3.56029 11.8888L3.90236 12.7616L3.55965 11.889L3.56029 11.8888L25.1925 3.39292L25.1963 3.39143ZM4.25032 13.6322C4.25048 13.6333 4.25067 13.6344 4.25088 13.6354C4.25178 13.6356 4.25275 13.6358 4.25379 13.636C4.25412 13.6361 4.25446 13.6362 4.25481 13.6362L10.497 14.8893C10.6583 14.9217 10.8083 14.996 10.9318 15.1047L21.467 24.3742L21.4691 24.3761L25.874 5.13965L4.25032 13.6322ZM4.24138 13.6324C4.24138 13.6324 4.2414 13.6324 4.24143 13.6324L4.24138 13.6324Z" fill="#CEBAA0"/>
<path fill-rule="evenodd" clip-rule="evenodd" d="M27.0217 3.74021C27.3249 4.15995 27.2304 4.74597 26.8106 5.04913L10.8614 16.5687C10.4417 16.8718 9.85567 16.7773 9.55251 16.3576C9.24935 15.9378 9.34386 15.3518 9.76359 15.0487L25.7128 3.52913C26.1325 3.22598 26.7186 3.32048 27.0217 3.74021Z" fill="#CEBAA0"/>
<path fill-rule="evenodd" clip-rule="evenodd" d="M10.3125 14.8711C10.8303 14.8711 11.25 15.2908 11.25 15.8086L11.25 23.4359L11.255 23.4308L14.9113 19.7746C15.2774 19.4085 15.871 19.4085 16.2371 19.7746C16.6032 20.1407 16.6032 20.7343 16.2371 21.1004L12.583 24.7546C12.3225 25.0178 11.9899 25.1981 11.6271 25.2726C11.2629 25.3474 10.8847 25.3122 10.5406 25.1715C10.1964 25.0309 9.90184 24.791 9.6943 24.4826C9.48676 24.1741 9.37562 23.8109 9.375 23.4391L9.375 15.8086C9.375 15.2908 9.79473 14.8711 10.3125 14.8711Z" fill="#CEBAA0"/>
</svg>
