<svg width="30" height="30" viewBox="0 0 30 30" fill="none" xmlns="http://www.w3.org/2000/svg">
<path fill-rule="evenodd" clip-rule="evenodd" d="M2.27485 6.18362C1.3057 6.65356 1.24848 7.88557 2.08743 10.2192C2.22928 10.6137 2.38008 11.0124 2.42252 11.1053C2.46497 11.1981 2.62024 11.5588 2.76749 11.9069C3.87436 14.5226 5.72583 17.357 7.54702 19.2239C9.98024 21.7182 12.399 22.8783 15.1613 22.8759C16.6642 22.8747 17.3874 22.6251 17.7955 21.967C17.9658 21.6925 17.9912 21.5375 17.9995 20.7251C18.0048 20.2146 18.0152 19.4812 18.0227 19.0953L18.0363 18.3937L18.3694 18.581C19.0008 18.9358 19.7466 19.634 21.451 21.4658C22.7821 22.8964 22.7298 22.8769 25.239 22.8769C27.5392 22.8769 27.7893 22.82 28.243 22.1938C28.4696 21.8809 28.5 21.7709 28.5 21.2633C28.5 20.556 28.2876 20.0355 27.6019 19.0625C26.9945 18.2005 26.2965 17.3769 25.0514 16.0527C24.5115 15.4786 24.0598 14.9833 24.0475 14.952C24.0352 14.9207 24.2653 14.5544 24.5589 14.138C24.9971 13.5166 25.9016 12.0934 26.7545 10.6833C27.1331 10.0575 27.8264 8.52562 27.9489 8.04455C28.1637 7.20071 27.8986 6.50774 27.2305 6.16683C26.9315 6.01435 26.7292 6 24.8788 6C22.7177 6 22.6293 6.01392 22.0697 6.44327C21.7724 6.67136 21.5603 7.03978 20.9891 8.32057C20.4298 9.57486 19.1117 11.7143 18.4149 12.4989L18.0363 12.9252L18.023 12.4793C18.0156 12.2342 18.0061 10.9323 18.0019 9.58634C17.9941 7.13936 17.9941 7.13919 17.7832 6.76275C17.6672 6.55567 17.4432 6.29931 17.2855 6.19316C17.0013 6.00169 16.9749 6 14.2434 6H11.4881L11.1314 6.2313C10.3646 6.72849 10.2298 7.73579 10.8221 8.54149C10.9375 8.69844 11.1263 9.0186 11.2415 9.25285C11.483 9.74354 11.5061 10.0563 11.4749 12.4124L11.4544 13.9726L11.2461 13.748C10.7681 13.2325 9.1099 10.2788 8.87675 9.52769C8.84358 9.42069 8.7495 9.18129 8.66764 8.99565C8.58587 8.81 8.38031 8.29137 8.21104 7.84312C7.83409 6.84536 7.53301 6.41509 7.04729 6.17999C6.6987 6.01122 6.54968 6.00025 4.65584 6.00422C2.78867 6.0081 2.60893 6.0216 2.27485 6.18362ZM6.1929 7.75224C6.24623 7.78633 6.54495 8.45981 6.85684 9.2488C8.28521 12.8631 10.0948 15.6478 11.3582 16.1756C11.9102 16.4063 12.4962 16.2897 12.8696 15.8749C13.2571 15.4442 13.3109 15.0169 13.3095 12.3768C13.308 9.62583 13.2182 8.99041 12.7148 8.17231C12.5731 7.94211 12.4731 7.73781 12.4925 7.7184C12.5119 7.699 13.3685 7.70904 14.3961 7.74085L16.2643 7.79865V10.8897C16.2643 13.9289 16.2675 13.987 16.4541 14.3524C16.7249 14.8823 17.0209 15.0722 17.5678 15.0671C18.8437 15.0549 20.4474 13.2384 22.2573 9.75511C22.5226 9.24458 22.8294 8.60427 22.939 8.33222C23.0735 7.99831 23.2023 7.81317 23.3353 7.76262C23.4437 7.72136 24.1339 7.68769 24.869 7.68769C26.1974 7.68769 26.2055 7.68887 26.1582 7.87004C26.002 8.46706 24.5735 10.9259 23.2308 12.9088C22.4112 14.1192 22.1699 14.6002 22.1726 15.0187C22.1753 15.4455 22.6402 16.1195 23.7033 17.2383C25.3322 18.9525 26.5301 20.4637 26.6846 20.9993L26.7393 21.1892H25.3385C24.3523 21.1892 23.8575 21.1554 23.6663 21.0752C23.5169 21.0125 23.015 20.5476 22.5509 20.0422C20.5027 17.8115 19.4877 16.9899 18.383 16.6685C17.9874 16.5534 17.8369 16.5471 17.4657 16.6301C16.4493 16.8573 16.2643 17.2945 16.2643 19.4687C16.2643 21.258 16.3544 21.1143 15.2302 21.1174C13.9052 21.1211 12.701 20.7881 11.4587 20.0745C10.4725 19.5079 9.94505 19.0927 8.96485 18.1108C7.01708 16.1596 5.22274 13.3207 4.00363 10.2614C3.70306 9.50727 3.26907 8.10877 3.26907 7.89451C3.26907 7.83165 3.38906 7.76785 3.54332 7.7487C4.04448 7.68651 6.09434 7.68929 6.1929 7.75224Z" fill="#CEBAA0"/>
</svg>
