<svg width="20" height="20" viewBox="0 0 20 20" fill="none" xmlns="http://www.w3.org/2000/svg">
<path fill-rule="evenodd" clip-rule="evenodd" d="M1.51657 4.12241C0.870465 4.4357 0.832323 5.25705 1.39162 6.81281C1.48619 7.07581 1.58672 7.34162 1.61502 7.4035C1.64331 7.46539 1.74682 7.70588 1.84499 7.93794C2.5829 9.68171 3.81722 11.5713 5.03135 12.8159C6.65349 14.4788 8.26602 15.2522 10.1075 15.2506C11.1094 15.2498 11.5916 15.0834 11.8637 14.6447C11.9772 14.4616 11.9941 14.3584 11.9997 13.8167C12.0032 13.4764 12.0101 12.9874 12.0151 12.7302L12.0242 12.2625L12.2463 12.3873C12.6672 12.6239 13.1644 13.0893 14.3007 14.3105C15.1881 15.2642 15.1532 15.2513 16.826 15.2513C18.3595 15.2513 18.5262 15.2133 18.8286 14.7959C18.9797 14.5873 19 14.514 19 14.1755C19 13.704 18.8584 13.357 18.4013 12.7084C17.9963 12.1336 17.531 11.5846 16.7009 10.7018C16.341 10.3191 16.0399 9.98887 16.0316 9.968C16.0235 9.94713 16.1769 9.70292 16.3726 9.42535C16.6647 9.01108 17.2678 8.06226 17.8363 7.12222C18.0887 6.70497 18.5509 5.68375 18.6326 5.36303C18.7758 4.80047 18.5991 4.33849 18.1537 4.11122C17.9544 4.00956 17.8195 4 16.5859 4C15.1452 4 15.0862 4.00928 14.7131 4.29551C14.5149 4.44757 14.3735 4.69319 13.9927 5.54705C13.6199 6.38324 12.7412 7.80951 12.2766 8.33263L12.0242 8.61678L12.0153 8.31952C12.0104 8.1561 12.0041 7.28818 12.0013 6.39089C11.9961 4.75957 11.9961 4.75946 11.8555 4.5085C11.7781 4.37045 11.6288 4.19954 11.5237 4.12877C11.3342 4.00113 11.3166 4 9.49562 4H7.65874L7.42094 4.1542C6.90974 4.48566 6.81984 5.15719 7.21476 5.69433C7.29167 5.79896 7.41751 6.0124 7.49436 6.16857C7.65531 6.4957 7.67072 6.70418 7.64996 8.27491L7.63624 9.31509L7.4974 9.16534C7.1787 8.82167 6.07327 6.85253 5.91783 6.35179C5.89572 6.28046 5.833 6.12086 5.77843 5.9971C5.72392 5.87333 5.58688 5.52758 5.47403 5.22875C5.22273 4.56358 5.02201 4.27672 4.6982 4.11999C4.4658 4.00748 4.36645 4.00017 3.10389 4.00281C1.85911 4.0054 1.73929 4.0144 1.51657 4.12241ZM4.1286 5.16816C4.16416 5.19089 4.3633 5.63987 4.57123 6.16587C5.52348 8.57538 6.72989 10.4318 7.57216 10.7837C7.94013 10.9375 8.33083 10.8598 8.57971 10.5833C8.83809 10.2961 8.87393 10.0113 8.87303 8.25117C8.87202 6.41722 8.8121 5.99361 8.47654 5.4482C8.38208 5.29474 8.31542 5.15854 8.32836 5.1456C8.34129 5.13266 8.91235 5.13936 9.59738 5.16057L10.8428 5.1991V7.25982C10.8428 9.28595 10.845 9.32465 10.9694 9.56824C11.1499 9.92153 11.3473 10.0482 11.7119 10.0447C12.5625 10.0366 13.6316 8.82561 14.8382 6.5034C15.0151 6.16305 15.2196 5.73618 15.2927 5.55481C15.3823 5.3322 15.4682 5.20878 15.5569 5.17508C15.6291 5.14757 16.0892 5.12513 16.5794 5.12513C17.4649 5.12513 17.4703 5.12591 17.4388 5.2467C17.3346 5.64471 16.3823 7.2839 15.4872 8.60587C14.9408 9.41281 14.7799 9.73347 14.7817 10.0124C14.7835 10.297 15.0935 10.7464 15.8022 11.4922C16.8881 12.635 17.6868 13.6424 17.7897 13.9995L17.8262 14.1261H16.8924C16.2349 14.1261 15.905 14.1036 15.7775 14.0501C15.678 14.0083 15.3433 13.6984 15.0339 13.3614C13.6685 11.8744 12.9918 11.3266 12.2553 11.1124C11.9916 11.0356 11.8913 11.0314 11.6438 11.0867C10.9662 11.2382 10.8428 11.5297 10.8428 12.9791C10.8428 14.172 10.9029 14.0762 10.1535 14.0783C9.27014 14.0807 8.46731 13.8587 7.6391 13.383C6.98164 13.0053 6.63004 12.7284 5.97656 12.0738C4.67806 10.7731 3.48182 8.88046 2.66909 6.84094C2.4687 6.33818 2.17938 5.40584 2.17938 5.26301C2.17938 5.2211 2.25938 5.17857 2.36221 5.1658C2.69632 5.12434 4.06289 5.12619 4.1286 5.16816Z" fill="#CEBAA0"/>
</svg>
