<svg width="16" height="16" viewBox="0 0 16 16" fill="none" xmlns="http://www.w3.org/2000/svg">
<path d="M14.6673 12.1668V7.54352V7.54291C14.6673 7.09804 14.6673 6.87548 14.6132 6.66838C14.5652 6.48476 14.4862 6.31063 14.3796 6.1536C14.2593 5.97642 14.0919 5.82984 13.7568 5.53662L9.75684 2.03662C9.13466 1.49222 8.82357 1.22005 8.47347 1.11652C8.16498 1.02529 7.83632 1.02529 7.52783 1.11652C7.17792 1.22 6.86715 1.49192 6.24565 2.03573L6.24463 2.03662L2.24463 5.53662L2.24383 5.53732C1.90925 5.83008 1.74185 5.97656 1.62166 6.15361C1.51507 6.31063 1.43611 6.48476 1.38813 6.66838C1.33398 6.87558 1.33398 7.09824 1.33398 7.54352V12.1668C1.33398 12.9434 1.33398 13.3316 1.46085 13.6379C1.63001 14.0462 1.95466 14.3707 2.36304 14.5399C2.66932 14.6667 3.05761 14.6667 3.83418 14.6667C4.61075 14.6667 4.99884 14.6667 5.30512 14.5399C5.7135 14.3707 6.03787 14.0462 6.20703 13.6379C6.3339 13.3316 6.33398 12.9433 6.33398 12.1667V11.3334C6.33398 10.4129 7.08018 9.66673 8.00065 9.66673C8.92113 9.66673 9.66732 10.4129 9.66732 11.3334V12.1667C9.66732 12.9433 9.66732 13.3316 9.79418 13.6379C9.96334 14.0462 10.288 14.3707 10.6964 14.5399C11.0027 14.6667 11.3909 14.6667 12.1675 14.6667C12.9441 14.6667 13.3322 14.6667 13.6385 14.5399C14.0468 14.3707 14.3712 14.0462 14.5404 13.6379C14.6672 13.3316 14.6673 12.9434 14.6673 12.1668Z" stroke="#CEBAA0" stroke-width="1.5" stroke-linecap="round" stroke-linejoin="round"/>
</svg>
