<svg width="20" height="21" viewBox="0 0 20 21" fill="none" xmlns="http://www.w3.org/2000/svg">
<path fill-rule="evenodd" clip-rule="evenodd" d="M7.86567 4.65336C7.16425 4.27986 6.35509 4.16091 5.57585 4.31676C4.79662 4.47261 4.09545 4.89362 3.59164 5.50817C3.08783 6.12272 2.8125 6.89284 2.8125 7.68751C2.8125 10.0561 4.57622 12.3168 6.51185 14.0589C7.46076 14.9129 8.41252 15.608 9.12837 16.09C9.48569 16.3306 9.78272 16.5171 9.98923 16.6427C9.99284 16.6449 9.99644 16.6471 10 16.6493C10.0036 16.6471 10.0072 16.6449 10.0108 16.6427C10.2173 16.5171 10.5143 16.3306 10.8716 16.09C11.5875 15.608 12.5392 14.9129 13.4881 14.0589C15.4238 12.3168 17.1875 10.0561 17.1875 7.68751C17.1875 6.89284 16.9122 6.12272 16.4084 5.50817C15.9046 4.89362 15.2034 4.47261 14.4242 4.31676C13.6449 4.16091 12.8358 4.27986 12.1343 4.65336C11.4329 5.02687 10.8826 5.63185 10.5769 6.36539L10 6.12501L9.42308 6.36539C9.11744 5.63185 8.56709 5.02687 7.86567 4.65336ZM10 4.875C9.59051 4.32904 9.06383 3.87521 8.45318 3.55004C7.4967 3.04072 6.3933 2.87852 5.33071 3.09104C4.26811 3.30355 3.31197 3.87766 2.62496 4.71568C1.93795 5.55371 1.5625 6.60387 1.5625 7.68751C1.5625 10.6314 3.70503 13.2144 5.67565 14.988C6.67986 15.8918 7.68123 16.6225 8.43022 17.1268C8.80532 17.3794 9.11865 17.5762 9.33939 17.7105C9.4498 17.7777 9.53715 17.8294 9.59761 17.8646C9.62785 17.8822 9.65136 17.8957 9.66769 17.9051L9.68673 17.9159L9.69209 17.9189L9.69371 17.9198L9.69426 17.9201C9.69446 17.9202 9.69462 17.9203 10 17.375L9.69462 17.9203C9.88435 18.0266 10.1157 18.0266 10.3054 17.9203L10 17.375C10.3054 17.9203 10.3055 17.9202 10.3057 17.9201L10.3063 17.9198L10.3079 17.9189L10.3133 17.9159L10.3323 17.9051C10.3486 17.8957 10.3722 17.8822 10.4024 17.8646C10.4629 17.8294 10.5502 17.7777 10.6606 17.7105C10.8814 17.5762 11.1947 17.3794 11.5698 17.1268C12.3188 16.6225 13.3201 15.8918 14.3244 14.988C16.295 13.2144 18.4375 10.6314 18.4375 7.68751C18.4375 6.60387 18.0621 5.55371 17.375 4.71568C16.688 3.87766 15.7319 3.30355 14.6693 3.09104C13.6067 2.87852 12.5033 3.04072 11.5468 3.55004C10.9362 3.87521 10.4095 4.32904 10 4.875Z" fill="#CEBAA0"/>
</svg>
