<svg width="110" height="88" viewBox="0 0 110 88" fill="none" xmlns="http://www.w3.org/2000/svg">
<g clip-path="url(#clip0_101_1674)">
<path fill-rule="evenodd" clip-rule="evenodd" d="M50.4875 50.2383C50.415 50.19 50.4392 50.2383 50.4069 50.1416C50.3964 50.1003 50.3772 50.0618 50.3505 50.0287C50.3505 50.0287 50.2538 49.819 50.2377 49.7706L49.3513 47.9478C49.2552 47.7429 49.1476 47.5437 49.0289 47.351C48.7549 46.9961 48.626 46.5445 48.1586 46.3912C47.9058 46.3438 47.6444 46.3836 47.4172 46.5041L46.7 46.7058C46.172 46.8405 45.6323 46.9242 45.0883 46.9558L43.678 46.8832C43.0519 46.7588 42.4521 46.5269 41.9051 46.1977C41.6272 46.0318 41.3582 45.8514 41.0992 45.6573L40.5996 45.2621C40.5029 45.1734 40.4626 45.125 40.3579 45.0363C40.2531 44.9475 40.2047 44.883 40.1242 44.8104C40.0436 44.7378 39.826 44.5201 39.689 44.3507L39.2538 43.8587C38.9505 43.4655 38.6809 43.0473 38.448 42.6086L38.3754 42.4634C38.319 42.3505 38.2868 42.2699 38.2304 42.1489C38.1724 42.0488 38.1239 41.9435 38.0853 41.8344C38.0853 41.7698 38.037 41.7295 38.0209 41.6811L37.7308 40.8262C37.6582 40.56 37.5857 40.3826 37.5132 40.1165C37.3847 39.6103 37.2931 39.0954 37.2392 38.576L37.0216 35.3902C37.0176 35.3177 37.0176 35.245 37.0216 35.1725C37.0216 35.0676 37.0216 35.0676 37.0216 34.987C37.0194 34.5095 37.0708 34.0334 37.1747 33.5675C37.2923 33.1275 37.5071 32.7196 37.8033 32.3738C37.8726 32.2978 37.9481 32.2277 38.0289 32.1641C38.684 31.7052 39.4038 31.3464 40.1645 31.0995C41.0766 30.7244 42.0282 30.4539 43.0011 30.293C43.4257 30.2364 43.8541 30.2122 44.2824 30.2204H44.5806C44.774 30.2204 44.9271 30.2204 45.1124 30.2204C45.2978 30.2204 45.3623 30.2204 45.5476 30.2204C45.878 30.2204 46.1278 30.2204 46.4421 30.2204C46.7564 30.2204 46.9579 30.301 47.248 30.293C47.4091 30.293 47.4978 30.293 47.6831 30.293C47.8334 30.3011 47.9841 30.3011 48.1344 30.293C48.2465 30.2704 48.3531 30.2266 48.4487 30.1639C48.5814 30.0698 48.6826 29.9376 48.7388 29.7849L48.8839 29.4542C48.9005 29.396 48.922 29.3393 48.9483 29.2848L49.0853 28.7686C49.1553 28.595 49.2145 28.4172 49.2626 28.2363L49.6253 27.0265L49.6817 26.841C49.73 26.712 49.7381 26.5991 49.7784 26.47C49.9154 26.0345 50.3747 24.986 49.859 24.7925C48.7793 24.5863 47.6856 24.4622 46.5872 24.4215H46.1278C45.9344 24.4215 45.8699 24.4215 45.7088 24.4215C45.5476 24.4215 45.6362 24.4215 45.5234 24.4215C45.451 24.4155 45.3783 24.4155 45.3058 24.4215C45.0641 24.4215 44.782 24.4215 44.5 24.4215C44.4383 24.4156 44.3763 24.4156 44.3146 24.4215L43.6538 24.4618C43.541 24.4618 43.5732 24.4618 43.4604 24.4618C43.3961 24.4568 43.3314 24.4568 43.267 24.4618H43.0494L42.0099 24.5424H41.615C41.0509 24.5908 40.0033 24.9054 39.8018 24.3247C39.7708 24.0848 39.81 23.8411 39.9146 23.623C40.0123 23.3468 40.1281 23.0774 40.2612 22.8165C40.2612 22.76 40.3014 22.7197 40.3417 22.6552L41.1879 21.2196C41.1879 21.1631 41.1879 21.1308 41.2604 21.0744L41.5989 20.5179L41.7036 20.3727L42.8077 18.7597L42.8963 18.6306C43.0011 18.5016 43.0817 18.3564 43.2025 18.2274C43.3234 18.0983 43.5813 17.7031 43.7908 17.4692L44.0003 17.2111L44.5967 16.453C44.8546 16.1062 45.3139 15.6465 45.5476 15.3642L46.1923 14.6464C46.2355 14.6083 46.2813 14.5733 46.3293 14.5415C46.3589 14.4966 46.3912 14.4535 46.426 14.4125L46.6597 14.1867L46.7161 14.1221L48.7308 12.2026L48.8436 12.1058L49.593 11.4606C50.0765 11.0735 50.5117 10.6057 51.0516 10.2024L51.3176 10.0089L51.5835 9.81529L51.7044 9.71851C52.204 9.3959 52.6553 8.99264 53.1549 8.66196L53.856 8.2345L54.0011 8.15385C54.2779 7.99287 54.5892 7.90079 54.909 7.88535C55.2287 7.86991 55.5475 7.93157 55.8384 8.06513C56.2489 8.32447 56.6322 8.62439 56.9828 8.96038C57.1036 9.06522 57.2084 9.2104 57.3373 9.30718L59.5212 11.2025C59.5959 11.2839 59.6768 11.3594 59.763 11.4283L59.8677 11.5332C60.1773 11.7831 60.4707 12.0525 60.7461 12.3397L60.7945 12.3881L60.996 12.6381C61.1397 12.8165 61.2376 13.0273 61.2812 13.2523C61.3247 13.4772 61.3126 13.7094 61.2458 13.9286C61.1658 14.1337 61.0573 14.3265 60.9234 14.5012L59.9806 15.84C59.908 15.9368 59.8516 16.0094 59.7872 16.1062L58.1029 18.55C58.0604 18.6866 57.9858 18.8111 57.8853 18.9129C57.8289 18.9129 57.7886 19.0339 57.7886 19.1065C57.7886 19.1791 57.7886 19.1065 57.7886 19.2355L57.6275 19.4694C57.5695 19.5093 57.5291 19.5699 57.5146 19.6388L55.7417 23.8166C55.5886 24.3166 55.4597 24.5666 55.3146 25.1151L55.1857 25.5506C55.1454 25.6958 55.1132 25.8652 55.0648 26.0103L54.9359 26.4378C54.8472 27.0346 54.5491 27.9621 54.4282 28.7686L54.2348 29.7203C54.1784 30.0268 54.1058 30.3575 54.0494 30.6559C53.993 30.9543 53.9527 31.3092 53.8963 31.6318C53.8399 31.9544 53.7513 32.8255 53.6949 33.1319C53.66 33.3048 53.6385 33.48 53.6304 33.6562C53.6502 33.8412 53.6502 34.0277 53.6304 34.2127C53.6304 34.2853 53.6304 34.2127 53.6304 34.2611C53.6304 34.3095 53.6304 34.4627 53.6304 34.5111L53.5659 35.3176C53.5659 35.6886 53.4853 36.0677 53.4853 36.4629L53.3967 38.1647C53.3967 38.2614 53.3967 38.3582 53.3967 38.4469C53.3913 38.541 53.3913 38.6352 53.3967 38.7292C53.3967 38.7292 53.3967 38.7292 53.3967 38.7938V40.3262C53.3967 40.5197 53.3967 42.6247 53.3967 42.7457C53.3967 43.0603 53.4773 43.6813 53.4934 44.0523L53.8319 49.327C53.8199 49.4773 53.8199 49.6283 53.8319 49.7786C53.8319 49.9238 53.8319 50.0609 53.8319 50.2142L54.0253 52.3111C54.0639 52.701 54.1561 53.0837 54.2992 53.4483C54.5007 53.9 54.9762 53.8355 55.3308 53.8435L56.2253 53.8919C56.5177 53.8717 56.8112 53.8717 57.1036 53.8919H58.9249C59.6663 53.8919 60.1095 53.8919 60.0853 53.166L59.9886 51.8514C59.9886 51.6901 59.9886 51.6014 59.9403 51.4159C59.9403 50.9723 59.8194 50.5126 59.8194 50.1012C59.8194 49.8915 59.6824 49.0931 59.6743 48.8189L59.5212 47.0768C59.5132 46.929 59.5132 46.7809 59.5212 46.6332C59.4797 46.3418 59.4555 46.0483 59.4487 45.7541C59.4567 45.6036 59.4567 45.4529 59.4487 45.3024C59.352 44.6572 59.4487 44.262 59.3439 43.5603C59.3439 43.4151 59.3439 43.2296 59.3439 43.1006C59.3359 42.9502 59.3359 42.7994 59.3439 42.6489C59.3036 42.6006 59.3439 42.6489 59.3036 42.5764C59.2633 42.5038 59.3036 40.4955 59.3036 40.1165C59.2724 39.3656 59.2967 38.6135 59.3762 37.8662C59.3762 37.5275 59.3762 37.2694 59.3762 36.9387L59.489 35.1563C59.4646 35.0176 59.4646 34.8757 59.489 34.7369L59.6018 33.4223C59.6018 33.2852 59.6018 33.1723 59.6502 33.0029C59.6502 32.6077 59.7388 32.4303 59.771 32.1964C59.9792 30.7263 60.2834 29.2714 60.6817 27.8411C60.6817 27.7121 60.7381 27.5911 60.7784 27.4701L61.2458 25.4538C61.2458 25.3732 61.2941 25.3812 61.3264 25.2925L61.4392 24.9215C61.4392 24.8731 61.4392 24.857 61.4392 24.8167C61.4516 24.7881 61.471 24.7632 61.4956 24.7441C61.4956 24.7441 61.4956 24.8005 61.4956 24.6796C61.5069 24.5978 61.5436 24.5217 61.6004 24.4618C61.6004 24.4618 61.6004 24.4618 61.6004 24.3973C61.5991 24.3758 61.5991 24.3542 61.6004 24.3328L61.7293 24.0263C61.7473 23.9712 61.7688 23.9173 61.7938 23.865C61.8421 23.7601 61.8663 23.6875 61.9146 23.5746L62.3498 22.7197C62.4019 22.6316 62.4476 22.54 62.4868 22.4455L62.6963 22.0261C62.8848 21.6584 63.1003 21.3053 63.341 20.9695L64.2516 19.7194L65.2751 18.7193C65.3413 18.6378 65.4305 18.578 65.5311 18.5478C65.6317 18.5176 65.739 18.5183 65.8392 18.55C66.0043 18.6639 66.1557 18.7965 66.2905 18.9452L67.4348 20.3727L68.5308 21.9858L69.2157 23.2117L69.3044 23.3891C69.3044 23.3891 69.3688 23.4698 69.393 23.5182C69.4172 23.5666 69.5139 23.8166 69.5945 23.9537C69.6235 23.9995 69.6478 24.0481 69.667 24.0989L69.8121 24.3973L69.9491 24.6957C69.9491 24.7925 70.0377 24.8731 70.0861 24.9699L70.634 26.341C70.6521 26.3935 70.6736 26.4447 70.6985 26.4942C70.763 26.6475 70.7469 26.7039 70.8597 26.954C71.037 27.3492 71.1176 27.7605 71.2304 28.067L71.448 28.7041C71.722 29.7607 72.0524 30.5027 72.2538 31.7367L72.6245 33.4787C72.6245 33.6078 72.6729 33.7046 72.6971 33.8498L73.1725 37.2049L73.2612 38.3986C73.2612 38.6647 73.3095 38.9551 73.3095 39.2051V39.6164C73.3095 39.7938 73.3095 39.8584 73.3095 40.0277V43.4555C73.3095 43.6248 73.3095 43.6974 73.3095 43.8426V44.2781C73.3095 44.4556 73.3095 44.5282 73.3095 44.6653L73.2128 46.6171C73.2128 46.8751 73.2128 47.0929 73.1645 47.3671C73.1161 47.6413 73.1645 47.9075 73.1161 48.1736C73.0678 48.4398 73.0516 48.6656 73.0436 48.9802C73.0355 49.2947 72.9791 49.5044 72.971 49.7867C72.971 49.9157 72.971 50.0287 72.971 50.1738C72.9634 50.3065 72.9472 50.4385 72.9227 50.569L72.7535 52.0934C72.689 52.795 72.3264 53.7951 73.3659 53.8193C73.4592 53.8027 73.5547 53.8027 73.648 53.8193H73.7205C73.8656 53.8193 74.1798 53.8193 74.2685 53.8193C74.7117 53.7548 75.2597 53.8193 75.719 53.8193H77.1696C77.3872 53.8193 77.5242 53.7709 77.7256 53.7709C78.3703 53.7709 78.5315 53.5854 78.6685 52.8676C78.6685 52.6821 78.741 52.5127 78.7652 52.3595L78.9586 50.7465L79.1359 47.8591C79.1268 47.7706 79.1268 47.6814 79.1359 47.5929C79.1359 47.4881 79.1359 47.3752 79.1359 47.2784V46.7058C79.1359 46.4396 79.1842 44.7056 79.2003 44.2862C79.213 44.0955 79.213 43.9042 79.2003 43.7136C79.2003 43.4071 79.2003 42.9635 79.2003 42.6247V40.3262V40.2536V40.1084C79.2147 39.1033 79.1636 38.0984 79.0472 37.1001C79.0472 36.8904 79.0472 36.6887 79.0472 36.479C79.0472 36.0838 78.9586 35.6725 78.9264 35.2854L78.4106 31.9464C78.3816 31.8624 78.36 31.776 78.3461 31.6883C78.3328 31.5958 78.314 31.5042 78.2897 31.414L78.1688 30.8817C78.1688 30.7608 78.1205 30.7527 78.0963 30.6398C78.0721 30.5269 78.0963 30.4623 78.048 30.3656L77.637 28.8332C77.5242 28.4138 77.2663 27.6879 77.1938 27.3411C77.1212 26.9943 76.9762 26.712 76.8795 26.3733L76.7102 25.8813C76.7102 25.7926 76.6538 25.7603 76.6135 25.6555C76.1823 24.4969 75.6928 23.3609 75.1469 22.2519L75.0985 22.1471C75.083 22.1079 75.0641 22.0701 75.0421 22.0342C74.889 21.7519 74.7762 21.4454 74.6231 21.1712L74.1476 20.3646L73.9945 20.163L73.2853 18.9371C72.9952 18.4935 72.1491 17.324 71.9798 16.9934L69.1593 13.3479C69.1029 13.2753 69.0707 13.243 69.0223 13.1704C68.845 12.9204 68.6194 12.6946 68.4421 12.4446L67.5395 11.3719C67.4816 11.3139 67.4277 11.2519 67.3784 11.1864L65.5571 9.14588C65.404 8.99264 65.2187 8.8394 65.0736 8.67003L61.9066 5.64556C61.4311 5.16164 60.8993 4.72612 60.3916 4.27446L59.1666 3.22598C59.0538 3.11307 58.941 3.04854 58.8282 2.93563L58.4817 2.62109C58.0223 2.27428 57.4099 1.61293 56.9183 1.25806C56.5557 0.983839 56.2091 0.661229 55.8465 0.38701C55.787 0.332272 55.7222 0.283637 55.6531 0.241836C55.5335 0.130503 55.3902 0.0477741 55.234 -0.000122063C54.9644 -0.0496994 54.6865 -0.0274481 54.4282 0.0644C54.3586 0.0975754 54.2913 0.135295 54.2267 0.177314C53.6948 0.52277 53.186 0.902646 52.7036 1.31451L50.8743 2.734L50.6971 2.87917L48.1264 4.99227C47.9894 5.14551 47.7154 5.33101 47.5542 5.49232L47.2399 5.75847C47.0698 5.93554 46.8895 6.10251 46.7 6.25852C46.5789 6.35706 46.4632 6.46206 46.3535 6.57306L45.3139 7.54896L45.1527 7.7022L44.8304 8.00868L43.6941 9.12975L43.3718 9.46042C43.2207 9.62648 43.0592 9.78272 42.8883 9.92821C42.7835 10.0089 42.8077 10.0089 42.7271 10.1056C42.6465 10.2024 42.3886 10.4121 42.2355 10.5896C42.0824 10.767 42.1308 10.6944 42.0743 10.7589L41.6875 11.2025L41.6392 11.2509L41.1637 11.7752L41.0912 11.8477C41.071 11.8827 41.0435 11.913 41.0106 11.9365L39.1813 14.0334C39.1376 14.1038 39.0891 14.1712 39.0362 14.2351L36.9652 16.9934C36.6348 17.4289 36.3769 17.9209 36.0626 18.3725C35.9659 18.5096 35.9095 18.6467 35.8209 18.7839C35.7322 18.921 35.6677 19.0581 35.5791 19.1952L34.6282 20.8082C34.5582 20.9549 34.4802 21.0976 34.3945 21.2357C34.3139 21.3647 34.2575 21.5099 34.185 21.647C33.8787 22.1955 33.2985 23.5585 33.0809 24.115L32.541 25.5183C32.541 25.6151 32.4927 25.6877 32.4604 25.7764L32.3234 26.1313C32.3188 26.1715 32.3188 26.2121 32.3234 26.2523L31.9769 27.1959C31.8319 27.6395 31.7996 27.825 31.6949 28.196C31.6384 28.3734 31.6062 28.5589 31.5579 28.7203C31.3886 29.3251 31.1469 30.8092 31.0582 31.4463C30.9654 32.0395 30.9035 32.6371 30.8729 33.2368L30.8165 34.124C30.8165 34.4063 30.8165 34.7611 30.8165 35.0515C30.8165 35.3418 30.8165 37.1888 30.8165 37.5356L30.8568 38.7131C30.8568 39.2051 31.0985 40.1568 31.171 40.681C31.2327 41.0346 31.3134 41.3846 31.4128 41.7295L31.7835 42.9796C31.9608 43.5039 32.2751 44.3346 32.5168 44.8508C32.5894 45.004 32.6619 45.1492 32.7264 45.2943C32.7908 45.4395 32.8553 45.5766 32.9278 45.7299L33.0406 45.9718L33.2905 46.3832C33.4597 46.6412 33.5886 46.9316 33.782 47.1897C33.9754 47.4478 34.1447 47.8026 34.3058 47.9962L34.5798 48.3511C34.7744 48.5929 34.9843 48.8219 35.2084 49.0366C35.2648 49.1012 35.2971 49.1737 35.3535 49.2302L36.7315 50.448C37.0853 50.7394 37.4567 51.0088 37.8436 51.2546C37.9716 51.3519 38.1093 51.4357 38.2546 51.5046C38.3351 51.5046 38.3674 51.5772 38.448 51.6256L38.867 51.8353C39.0927 51.9401 39.826 52.2466 40.0436 52.3111L40.519 52.4644C41.0348 52.6176 41.5344 52.7628 42.0743 52.8757L42.8802 53.0209C43.267 53.0934 43.6297 53.1176 44.0326 53.1822H45.3784C45.8135 53.1822 46.3373 53.1822 46.7483 53.1015C47.1593 53.0209 47.4978 53.037 47.9007 52.9644L48.4568 52.8757C49.0591 52.7617 49.6538 52.6108 50.2377 52.424L50.5036 52.3595L50.6165 52.3192C51.382 51.9643 50.9872 51.5127 50.7938 50.932C50.767 50.8518 50.7347 50.7737 50.6971 50.6981C50.637 50.5458 50.567 50.3976 50.4875 50.2545" fill="#E8D393"/>
<path fill-rule="evenodd" clip-rule="evenodd" d="M59.1499 42.633C59.1499 42.3185 59.1499 41.27 59.1499 41.1168C59.1982 40.7942 59.1499 39.9554 59.1499 39.5924C59.1442 39.4957 59.1442 39.3988 59.1499 39.3021C59.125 39.0042 59.125 38.7047 59.1499 38.4068C59.1499 38.3504 59.1499 38.3504 59.1499 38.2859C59.1499 38.2213 59.1499 38.2375 59.1499 38.1326C59.1499 38.0278 59.1499 37.9875 59.1499 37.8503C59.0704 38.5976 59.0461 39.3497 59.0774 40.1005C59.0774 40.4796 59.0774 42.4072 59.0774 42.5605C59.0774 42.7137 59.0774 42.5605 59.1177 42.633" fill="#E8D393"/>
<path fill-rule="evenodd" clip-rule="evenodd" d="M53.2278 42.7457C53.2278 42.6409 53.2278 40.5358 53.2278 40.3261V38.8179C53.2278 38.7534 53.2278 38.7776 53.2278 38.7534V40.5116C53.2181 40.592 53.2181 40.6732 53.2278 40.7536C53.2278 41.1488 53.2278 41.8263 53.2278 42.2618C53.2278 42.4634 53.2278 42.5602 53.2278 42.7538" fill="#E8D393"/>
<path fill-rule="evenodd" clip-rule="evenodd" d="M53.5177 34.2692C53.5822 34.2289 53.5177 34.2692 53.5177 34.2208C53.5375 34.0358 53.5375 33.8493 53.5177 33.6643C53.4688 33.8622 53.4445 34.0654 53.4452 34.2692" fill="#E8D393"/>
<path fill-rule="evenodd" clip-rule="evenodd" d="M50.486 50.2383C50.4636 50.1515 50.4311 50.0676 50.3893 49.9883C50.3604 49.9024 50.3072 49.8267 50.2362 49.7705C50.2362 49.8189 50.3329 49.9963 50.349 50.0286C50.3756 50.0618 50.3949 50.1003 50.4054 50.1415C50.4054 50.2383 50.4054 50.1899 50.486 50.2383Z" fill="#E8D393"/>
<path fill-rule="evenodd" clip-rule="evenodd" d="M57.5871 19.4777L57.7483 19.2438C57.7966 19.147 57.7483 19.2922 57.7483 19.1147C57.6838 19.1551 57.7483 19.1147 57.6677 19.1793C57.6518 19.2106 57.6329 19.2403 57.6113 19.268C57.5682 19.3293 57.5456 19.4027 57.5468 19.4777" fill="#E8D393"/>
<path fill-rule="evenodd" clip-rule="evenodd" d="M57.8846 18.921C57.9862 18.8169 58.0609 18.6896 58.1022 18.55L58.0458 18.6146C57.9898 18.6831 57.9437 18.7591 57.9088 18.8404C57.9088 18.8807 57.9088 18.8404 57.9088 18.913" fill="#E8D393"/>
<path fill-rule="evenodd" clip-rule="evenodd" d="M73.6806 53.8277H73.6081C73.5148 53.811 73.4193 53.811 73.326 53.8277C73.4436 53.845 73.563 53.845 73.6806 53.8277Z" fill="#E8D393"/>
<path fill-rule="evenodd" clip-rule="evenodd" d="M61.5187 24.6805V24.64V24.5915C61.5267 24.5487 61.5267 24.5047 61.5187 24.4619C61.4619 24.522 61.4253 24.5985 61.4139 24.6805" fill="#E8D393"/>
<path fill-rule="evenodd" clip-rule="evenodd" d="M61.4217 24.9224L61.4781 24.7686C61.4535 24.7877 61.4341 24.8128 61.4217 24.8414C61.4217 24.8819 61.4217 24.8981 61.4217 24.9467" fill="#E8D393"/>
<path fill-rule="evenodd" clip-rule="evenodd" d="M24.7725 62.8605C24.7725 62.917 24.7725 62.9331 24.845 62.9331H25.9571V87.4273H24.845C24.7322 87.4273 24.7725 87.5805 24.7725 87.8628H29.1966V87.4273H29.0113V83.8786C29.0113 83.7737 29.1966 83.556 29.245 83.4753L29.93 82.5639L30.0831 82.3865C30.3758 82.0345 30.721 81.7298 31.1065 81.4832C31.6142 81.2332 32.0333 81.217 32.0333 81.9994V87.395H31.864V87.8305H36.2882C36.2882 87.5483 36.3285 87.395 36.2157 87.395H35.1117V62.9089H36.264C36.3688 62.9089 36.3366 62.8041 36.3366 62.554C36.3366 62.4976 36.3366 62.4814 36.264 62.4814H31.9124V62.9089H32.0816V79.7492C31.7182 79.8922 31.3807 80.0938 31.0824 80.346C30.822 80.5422 30.5793 80.7607 30.3571 80.9993L30.075 81.3138L29.8977 81.5396C29.5677 81.9809 29.2967 82.4636 29.0919 82.9753L29.0274 83.1285V62.9089H29.1966V62.5056H24.7725V62.8605Z" fill="#E8D393"/>
<path fill-rule="evenodd" clip-rule="evenodd" d="M61.3095 65.4576V87.4273H59.9315V87.8629H70.2465C70.2668 87.708 70.2964 87.5545 70.3351 87.4032C70.4399 86.9354 70.6494 85.4675 70.6736 84.9836C70.6736 84.3948 70.7542 83.2011 70.722 82.6285C70.7169 82.5399 70.7169 82.451 70.722 82.3624C70.722 82.0478 70.6091 81.0397 70.5608 80.7493C70.4647 80.0914 70.3302 79.4397 70.1579 78.7975L69.8919 77.9023C69.8919 77.8378 69.8436 77.7652 69.8113 77.6926L69.5696 77.0393C69.5696 76.9586 69.5212 76.8941 69.489 76.8296L69.215 76.2005C68.9974 75.7327 68.6509 75.0633 68.4091 74.652C68.256 74.3939 68.119 74.1681 67.9498 73.918L67.4663 73.2164C67.3051 72.9825 67.1359 72.7728 66.9586 72.5389L66.0802 71.3694C65.7067 70.8513 65.3624 70.3128 65.0487 69.7564C65.3872 69.9822 65.371 70.1112 65.9513 70.1112C66.5274 70.1221 67.096 69.9782 67.5977 69.6945C68.0994 69.4108 68.516 68.9977 68.804 68.4982C68.804 68.4256 68.9007 68.2966 68.941 68.2078C69.3054 67.1095 69.2538 65.9154 68.796 64.8527L68.6912 64.6672C68.6629 64.6044 68.6278 64.5449 68.5864 64.4898L68.4978 64.2397C68.1882 63.7807 67.7843 63.393 67.3132 63.1025L67.1198 62.9816C66.2248 62.5149 65.2276 62.2792 64.2187 62.296C62.9938 62.296 61.9381 62.7638 61.5916 63.8042C61.5536 63.8982 61.5239 63.9954 61.5029 64.0946C61.3919 64.5403 61.3378 64.9983 61.3417 65.4576M65.371 69.0708C65.1912 69.078 65.0142 69.0247 64.8681 68.9195C64.7221 68.8142 64.6154 68.6631 64.5652 68.4901C64.4616 68.1063 64.4101 67.7102 64.4121 67.3126V63.9091C64.4222 63.6863 64.4888 63.4699 64.6055 63.28C64.7284 63.1228 64.9052 63.0168 65.1017 62.9825C65.2982 62.9483 65.5004 62.9882 65.6692 63.0945C66.1447 63.4251 66.2172 64.272 66.2817 64.8446C66.3398 65.8346 66.3101 66.8279 66.193 67.8126C66.1664 68.09 66.0985 68.3619 65.9916 68.6192C65.9435 68.7516 65.8558 68.8661 65.7405 68.9469C65.6251 69.0277 65.4877 69.071 65.3469 69.0708H65.371ZM66.7088 87.4273H64.3798V69.2079L66.322 73.2406C66.4256 73.4265 66.5197 73.6177 66.604 73.8132C66.7405 74.115 66.8589 74.4248 66.9586 74.7407C67.0634 75.031 67.1601 75.4262 67.2406 75.7408C67.3212 76.0553 67.3373 76.2086 67.3857 76.4505C67.5009 77.0801 67.5816 77.7155 67.6275 78.3539L67.6839 79.1605C67.6839 79.3379 67.6839 81.6768 67.6839 82.0156C67.6839 82.2333 67.6839 82.6446 67.6194 82.8705C67.5469 83.435 67.5227 83.9028 67.4179 84.4835C67.2787 85.3651 67.0876 86.2376 66.8458 87.0967C66.7732 87.2822 66.7813 87.4273 66.6846 87.4273H66.7088Z" fill="#E8D393"/>
<path fill-rule="evenodd" clip-rule="evenodd" d="M50.899 62.6752C50.9674 63.2902 51.189 63.8782 51.5436 64.3851L51.6565 64.5302C51.7514 64.661 51.8717 64.7712 52.0101 64.8544C52.1486 64.9375 52.3024 64.9919 52.4623 65.0142C52.5671 65.0142 52.5429 65.0142 52.6316 64.9577C52.6023 64.8072 52.6059 64.6522 52.6421 64.5033C52.6783 64.3544 52.7461 64.215 52.8411 64.0947C53.0838 63.6247 53.4956 63.2644 53.9935 63.0866C54.1393 63.028 54.2957 63.0005 54.4528 63.0059C54.5827 64.6778 54.4494 66.3597 54.0579 67.9902C53.6908 69.2672 53.1252 70.4784 52.3817 71.5793C51.8499 72.3858 51.3502 73.0068 50.77 73.7972C50.488 74.2005 50.0931 74.9022 49.8513 75.3377L49.7949 75.4667C49.7466 75.5554 49.7063 75.62 49.6579 75.7167C49.4484 76.1442 49.2631 76.5878 49.0777 77.0314L48.7715 77.8379C48.5176 78.631 48.3131 79.4391 48.159 80.2575L48.014 81.2576C47.9432 81.8493 47.9028 82.4442 47.8931 83.04C47.8682 84.217 47.9491 85.3939 48.1348 86.5565L48.296 87.363H47.1678V87.7985H52.0594V87.363H51.8982L51.6242 86.4274C51.5436 86.0887 51.4631 85.7661 51.3986 85.4193C51.3341 85.0724 51.2616 84.524 51.181 84.1046C51.1707 83.8599 51.2354 83.6179 51.3664 83.411C51.6799 82.9094 52.1339 82.5111 52.6718 82.2657C53.2417 81.9814 53.8419 81.7622 54.4609 81.6125V87.363H54.2997V87.7985H58.7158C58.7158 87.5162 58.7158 87.363 58.6513 87.363H57.4828V62.9091H58.7158V62.5059H50.899V62.6752ZM50.9473 81.7012C50.9473 81.4753 50.9473 81.3382 50.9473 81.1043C50.9062 79.6639 50.9925 78.2227 51.2052 76.7975C51.2874 76.2758 51.3977 75.7588 51.5356 75.249L51.7612 74.5473C51.8352 74.3144 51.9213 74.0856 52.0191 73.8617L53.3085 71.3857L53.6147 70.7647L53.929 70.1275C53.9854 70.0146 54.0096 69.934 54.066 69.813L54.4609 68.8532V68.8129V81.0559C54.3319 81.0559 54.1466 81.0559 54.0096 81.1043C53.2482 81.1759 52.4919 81.2944 51.7451 81.4592L50.9473 81.7012Z" fill="#E8D393"/>
<path fill-rule="evenodd" clip-rule="evenodd" d="M102.175 62.5782C102.186 62.8901 102.249 63.198 102.36 63.4896C102.448 63.7346 102.562 63.9697 102.699 64.1913C102.798 64.3937 102.942 64.5713 103.119 64.7109C103.296 64.8505 103.502 64.9485 103.722 64.9978C103.755 65.0135 103.791 65.0217 103.827 65.0217C103.863 65.0217 103.899 65.0135 103.932 64.9978C103.932 64.8929 103.932 64.901 103.932 64.78C103.946 64.5519 104.021 64.3319 104.149 64.1429C104.337 63.7602 104.638 63.4447 105.011 63.2396C105.237 63.1013 105.496 63.0261 105.761 63.0218C105.82 64.327 105.777 65.6349 105.632 66.9334C105.556 67.3475 105.457 67.7568 105.334 68.1594C105.161 68.7128 104.945 69.2521 104.689 69.7724L104.423 70.2886C104.165 70.7967 103.988 71.0467 103.722 71.4903L102.602 73.055C102.489 73.2001 102.384 73.3453 102.288 73.4986L101.965 73.9663C101.563 74.5942 101.2 75.246 100.877 75.9181C100.7 76.2649 100.563 76.6117 100.41 76.9827L99.8298 78.7006C99.5709 79.6572 99.393 80.6338 99.2979 81.6203C99.2979 81.7009 99.2979 81.8703 99.2979 81.9671C99.2456 82.6378 99.2295 83.3109 99.2495 83.9834C99.2495 84.1608 99.2495 84.3463 99.2495 84.5238C99.306 85.177 99.3301 85.8303 99.451 86.5078L99.6283 87.4192H98.492V87.8547H103.408C103.408 87.3547 103.448 87.4192 103.222 87.4192L102.997 86.6127C102.843 86.0585 102.722 85.4956 102.634 84.927C102.497 84.1205 102.344 83.806 102.965 83.0639C103.076 82.9409 103.197 82.8276 103.327 82.7252C103.604 82.5272 103.898 82.3545 104.206 82.209L104.447 82.0961C104.884 81.923 105.331 81.7749 105.785 81.6525V87.4031C105.584 87.4031 105.624 87.3547 105.624 87.8386H110.048V87.4031H108.791V63.0057C108.791 62.9492 108.791 62.9331 108.863 62.9331H110.032V62.5056H102.28C102.223 62.5056 102.207 62.5056 102.207 62.5782M102.207 80.9347C102.165 79.2324 102.313 77.5308 102.65 75.8617L102.852 75.0552C103.038 74.3453 103.309 73.6603 103.658 73.0146C103.658 72.9501 103.714 72.9259 103.746 72.8695L104.488 71.45C104.689 71.1193 105.294 69.8369 105.422 69.5063L105.713 68.8288V81.0557H105.43C104.455 81.1364 103.49 81.3064 102.546 81.5638C102.207 81.6767 102.191 81.7493 102.199 81.5074C102.207 81.2654 102.199 81.1686 102.199 80.9347H102.207Z" fill="#E8D393"/>
<path fill-rule="evenodd" clip-rule="evenodd" d="M84.6558 68.8613C84.6529 69.131 84.6341 69.4003 84.5994 69.6678C84.5471 70.1577 84.4278 70.638 84.2448 71.0954L83.9627 71.7164C84.4624 71.7164 85.7679 70.6276 86.0499 70.3534L86.2756 70.1517C86.7268 69.7001 87.4843 68.9823 87.4843 68.3451V62.9091H89.0961V87.4275H84.6316V87.863H96.5906V87.4275H92.118V62.9091H93.7862V68.3612C93.7862 68.9016 94.3019 69.3936 94.592 69.7243C94.9274 70.1083 95.2881 70.4694 95.6719 70.805L95.7928 70.9018C95.8323 70.9317 95.87 70.964 95.9056 70.9986C96.2955 71.3591 96.7456 71.6484 97.2353 71.8535L96.9613 71.047C96.691 70.1151 96.5767 69.1449 96.6228 68.1757V62.5059H84.6558V68.8613Z" fill="#E8D393"/>
<path fill-rule="evenodd" clip-rule="evenodd" d="M17.5432 64.9575C17.5432 64.8929 17.4948 64.8607 17.4948 64.8123C17.5067 64.565 17.5908 64.3267 17.7366 64.1267C17.9807 63.7571 18.306 63.4482 18.6875 63.2234C18.8861 63.0831 19.1067 62.9768 19.3402 62.9089C19.4375 64.4822 19.3401 66.0615 19.0501 67.6109C19.0501 67.7238 18.9937 67.8206 18.9615 67.9255C18.6439 68.996 18.1888 70.0208 17.6076 70.9741L16.689 72.3372C16.423 72.7082 16.0926 73.1437 15.8025 73.5389C15.3458 74.2115 14.9313 74.9118 14.5615 75.6358L14.4325 75.902C14.3842 75.9988 14.3439 76.0956 14.2956 76.2004C14.2472 76.3053 14.215 76.3859 14.1666 76.4746L13.812 77.4263C13.6267 77.9667 13.4575 78.4184 13.3124 79.0394C13.2157 79.4104 13.0787 80.0395 13.0223 80.4105C13.0223 80.5234 12.9739 80.6605 12.9578 80.7734C12.9417 80.8863 12.8934 81.2896 12.8611 81.5154C12.6513 83.514 12.7546 85.5332 13.1673 87.4998H12.2406C11.9586 87.4998 12.0069 87.4434 12.0069 87.9354H16.9227V87.4998H16.7615L16.286 85.669C16.286 85.5239 16.2377 85.4029 16.2135 85.2738C16.1007 84.7496 16.0362 84.1931 15.9717 83.6608L15.8589 82.6284C15.8589 82.5478 15.8589 82.4752 15.8589 82.3945C15.7931 81.5225 15.7716 80.6476 15.7945 79.7733C15.8109 78.6507 15.9187 77.5313 16.1168 76.4262L16.278 75.6842C16.3009 75.5617 16.3305 75.4406 16.3666 75.3213L16.4633 74.9664C16.5358 74.7325 16.6164 74.5309 16.697 74.297C16.8498 73.8691 17.0413 73.4561 17.2692 73.063L17.7446 72.1759C18.067 71.5468 18.5505 70.7241 18.8003 70.0789L19.2999 68.8933V68.853V87.4273H19.1388V87.8628H23.5549C23.5549 87.5805 23.5549 87.4273 23.4904 87.4273H22.3461V62.9089H23.5791V62.5056H15.7622C15.8149 63.0779 15.9998 63.6301 16.3021 64.1187C16.3987 64.3326 16.5436 64.5212 16.7254 64.6695C16.9072 64.8179 17.1209 64.922 17.3498 64.9736C17.4868 64.9736 17.4223 64.9736 17.5432 64.9171" fill="#E8D393"/>
<path fill-rule="evenodd" clip-rule="evenodd" d="M71.9393 71.0469V72.3293C71.9747 73.115 72.0854 73.8955 72.2697 74.6601C72.3822 75.1162 72.5194 75.5658 72.6807 76.007C72.9806 76.8521 73.3415 77.6742 73.7605 78.4669L74.5664 79.9993C74.784 80.3703 74.9613 80.7575 75.203 81.1204C75.4448 81.4833 75.5496 81.7495 75.7591 82.0398C75.791 82.1007 75.826 82.1599 75.8638 82.2173C76.0255 82.4741 76.1657 82.7439 76.2829 83.0238L76.4441 83.4512C76.6536 84.1852 77.0726 86.4676 76.2668 87.1855C75.88 87.5323 74.8565 87.5968 75.2675 86.3225C75.3562 86.0321 75.5173 85.4192 75.0016 85.4192C74.6496 85.5474 74.3053 85.6955 73.9701 85.8628L73.1642 86.2338C73.0947 86.2428 73.0269 86.2619 72.9627 86.2902C72.8418 86.3657 72.7431 86.4719 72.6766 86.598C72.61 86.724 72.5781 86.8655 72.584 87.008C72.584 87.6048 73.2529 87.8145 73.7203 87.9275C74.1583 88.0113 74.6042 88.0465 75.0499 88.0323H75.2756C76.2403 88.0669 77.1953 87.8293 78.0316 87.3468C78.326 87.1821 78.5971 86.9787 78.8375 86.7419C78.9636 86.6318 79.082 86.5132 79.192 86.387C79.7278 85.7321 80.1774 85.0111 80.5298 84.2416C80.7071 83.8464 80.8521 83.4351 81.0294 83.0157C81.1503 82.7576 81.384 82.0156 81.4726 81.7172L81.6983 80.9107C81.6983 80.822 81.7466 80.7171 81.7708 80.6203L81.8433 80.3623L82.2624 78.3298C82.2624 78.1282 82.3349 77.9265 82.3591 77.741L82.5283 76.5232C82.5767 76.1361 82.6975 74.9585 82.6975 74.6037C82.6975 74.402 82.7459 74.1601 82.7459 73.9665C82.7459 73.7729 82.7459 73.539 82.7459 73.2729C82.2543 73.2729 81.7708 73.3939 81.2873 73.4584L80.1994 73.6036C80.0741 73.6266 79.9477 73.6428 79.8206 73.652V74.6762C79.8206 75.0472 79.8206 75.3537 79.8206 75.7005C79.8206 76.4425 79.8206 77.2491 79.8206 77.983C79.8206 78.2411 79.8206 78.5153 79.8206 78.7895C79.8206 79.0637 79.8206 79.096 79.8206 79.2896C79.8206 79.6364 79.8206 79.9429 79.7723 80.2897V80.7816C79.7239 81.0962 79.7159 81.4349 79.6917 81.7414C79.6252 82.4961 79.5067 83.2452 79.3371 83.9836C79.3371 84.1368 79.2646 84.2497 79.2323 84.4029C79.2001 84.5562 79.0712 84.9353 78.9825 85.2095C78.8519 85.5725 78.6845 85.9211 78.4829 86.2499C78.4169 86.3566 78.3443 86.4589 78.2653 86.5564C77.9602 86.9752 77.5083 87.2632 77.0001 87.3629C77.0145 87.3379 77.0336 87.3159 77.0565 87.2984L77.1129 87.2339C77.3338 86.9913 77.5208 86.72 77.669 86.4273C78.2278 85.0333 78.3377 83.4994 77.9833 82.0398C77.7197 80.7429 77.3504 79.4697 76.8792 78.233C76.8792 78.1685 76.8792 78.104 76.8228 78.0314L76.4844 77.1039C76.4637 77.0381 76.4395 76.9735 76.4118 76.9103L75.5012 74.281C75.2595 73.5632 74.9613 72.7486 74.7679 71.9986L74.5503 71.1921C76.2656 71.1297 77.9685 70.8754 79.6272 70.4339C79.9828 70.3436 80.3117 70.1694 80.5862 69.9258C80.7078 69.772 80.7739 69.5816 80.7739 69.3854C80.7739 69.1893 80.7078 68.9989 80.5862 68.8451C80.1649 68.3646 79.5994 68.0335 78.9745 67.9014C78.6682 67.7966 78.9745 67.9579 78.7488 68.4015L78.5957 68.6757C78.1881 69.1584 77.6715 69.5372 77.0888 69.7806C76.7986 69.9258 76.4844 70.0387 76.1862 70.1597C76.0734 70.2081 75.9686 70.2323 75.8477 70.2726C75.3909 70.4457 74.9146 70.5622 74.4294 70.6194C74.4218 70.5081 74.4056 70.3976 74.3811 70.2888C74.2327 69.4901 74.1465 68.6812 74.1232 67.8692C74.0828 66.8954 74.1612 65.9204 74.3569 64.9657C74.5986 64.022 75.1627 63.0381 76.2587 63.0381C76.6919 63.0371 77.1104 63.1949 77.4353 63.4817C78.0046 64.0781 78.3979 64.8207 78.5715 65.627C78.7052 66.0573 78.8076 66.4966 78.8778 66.9417H81.5613C82.0529 66.9417 81.9964 67.0707 81.7225 65.99L81.5371 65.3931C81.3958 65.0316 81.2175 64.6857 81.0052 64.3608C80.8602 64.1232 80.6841 63.9062 80.4814 63.7156C80.2258 63.4508 79.9325 63.2252 79.6111 63.0461C79.261 62.8571 78.8906 62.7082 78.5071 62.6026C78.3942 62.6026 78.3056 62.6026 78.1928 62.538C77.0519 62.2492 75.8435 62.4171 74.8243 63.0058L74.5745 63.1833L74.3408 63.3768C74.1957 63.5085 74.0585 63.6485 73.9298 63.7962L73.406 64.514C73.2344 64.7677 73.0887 65.0379 72.9708 65.3206C72.5272 66.3798 72.2316 67.4953 72.0924 68.6354C72.0924 68.7483 72.0924 68.8531 72.0924 68.9983C72.0998 69.1299 72.0998 69.2619 72.0924 69.3935L72.0279 70.2C72.0279 70.4984 72.0279 70.7243 72.0279 71.0066" fill="#E8D393"/>
<path fill-rule="evenodd" clip-rule="evenodd" d="M8.66316e-06 71.2888C-0.0461956 73.009 0.255318 74.7208 0.886456 76.3215C1.03603 76.7483 1.21094 77.1658 1.41026 77.5717L1.79708 78.3782C2.09525 78.975 2.41759 79.5476 2.73994 80.1203L3.06228 80.709C3.36045 81.201 3.63444 81.7011 3.95678 82.1931C4.57979 83.1768 4.88636 84.3281 4.83517 85.4917C4.86815 86.0068 4.7565 86.5209 4.51283 86.9757C4.46461 87.0518 4.40479 87.1198 4.33554 87.1774C3.94873 87.4516 3.23957 87.5 3.23957 86.8467C3.25518 86.6672 3.29587 86.4907 3.36045 86.3225C3.41866 86.1203 3.45115 85.9117 3.45715 85.7014C3.4474 85.618 3.40771 85.5409 3.34546 85.4846C3.28321 85.4282 3.20263 85.3963 3.11869 85.395C2.76025 85.5199 2.41031 85.6681 2.07107 85.8385L1.71649 85.9918L1.37803 86.145C1.25715 86.1934 1.1121 86.2176 1.00733 86.2741C0.894507 86.3503 0.802813 86.4539 0.740809 86.5752C0.678805 86.6965 0.648511 86.8315 0.652756 86.9677C0.652756 87.9597 2.30477 88.0081 3.14287 88.0081H3.33627C4.12758 88.0113 4.91143 87.855 5.64103 87.5484C5.94737 87.4102 6.23672 87.237 6.5033 87.0322C6.82077 86.7736 7.11226 86.4845 7.37363 86.1692C7.71891 85.7435 8.01619 85.281 8.26008 84.7901C8.57298 84.2059 8.84233 83.5993 9.06594 82.9754L9.50111 81.6769C9.7371 80.95 9.92818 80.2093 10.0733 79.4589C10.2989 78.3137 10.3956 77.6281 10.5568 76.4748L10.8066 73.2487C10.3956 73.2487 9.11429 73.4906 8.59854 73.539C8.34841 73.5532 8.10018 73.591 7.85715 73.6519C7.85715 74.1278 7.89744 77.3862 7.85715 77.7733C7.85715 77.9669 7.85715 78.9428 7.8088 79.2734L7.66374 81.7414C7.57284 82.7692 7.37845 83.7852 7.08352 84.7739C7.08352 84.8546 7.03517 84.8868 7.011 84.9675C6.90703 85.4306 6.71069 85.8679 6.43374 86.2532C6.15678 86.6384 5.80493 86.9638 5.39928 87.2096C5.27143 87.269 5.13574 87.3098 4.99635 87.3306C5.06081 87.2258 5.16558 87.1613 5.24616 87.0564C5.50027 86.7683 5.69719 86.4343 5.82638 86.0724C6.18991 85.01 6.28677 83.8744 6.10843 82.7657C5.93719 81.5283 5.66771 80.3066 5.30257 79.1121C5.12528 78.475 4.87547 77.862 4.674 77.241L3.1751 73.1438C3.0381 72.7809 2.82052 72.0066 2.71576 71.6034C2.6733 71.4683 2.63833 71.331 2.611 71.192C4.16631 71.063 8.81612 70.7968 8.81612 69.4741C8.81612 68.7644 8.3729 68.4821 7.83298 68.2079L7.51869 68.0627C7.45422 68.0627 6.89012 67.8208 6.89012 67.9095C6.90953 68.0297 6.90953 68.1522 6.89012 68.2724C6.86436 68.3824 6.81786 68.4864 6.75312 68.5789C6.64479 68.7674 6.49952 68.932 6.32602 69.0628C6.03389 69.2931 5.72093 69.4956 5.39122 69.6677C4.83161 69.9702 4.23955 70.2083 3.62638 70.3775L2.90917 70.563C2.78398 70.5817 2.66015 70.6087 2.53847 70.6436C2.53847 70.2161 2.38536 69.8371 2.34506 69.3774C2.30477 68.9176 2.22418 68.5063 2.22418 68.0224C2.19357 67.1624 2.23942 66.3014 2.36118 65.4496C2.55459 64.1511 3.16704 62.7719 4.73041 63.03C4.84021 63.0427 4.94674 63.0755 5.0447 63.1268C5.674 63.4498 6.14938 64.0097 6.36631 64.6834L6.67254 65.6028C6.78816 65.996 6.87171 66.3979 6.92235 66.8045C6.92235 66.8852 6.92235 66.9417 7.00294 66.9417H10.0007C9.92732 66.3113 9.75602 65.6963 9.49305 65.1189L9.08206 64.3608C8.92506 64.1274 8.7441 63.9112 8.54213 63.7156L8.39708 63.5704C7.50696 62.791 6.35588 62.3763 5.17364 62.409C4.49983 62.3744 3.82841 62.5133 3.22345 62.8122C3.17278 62.8315 3.12419 62.8558 3.0784 62.8848L2.5707 63.2316C1.90104 63.7953 1.38066 64.5155 1.05569 65.3286C1.05569 65.3931 1.01539 65.4173 0.991217 65.4738C0.280864 67.3081 -0.0561356 69.2659 8.66316e-06 71.2324V71.2888Z" fill="#E8D393"/>
<path fill-rule="evenodd" clip-rule="evenodd" d="M39.2464 64.6752C39.2464 64.2236 40.012 63.6832 40.3343 63.4815C40.8461 63.1551 41.4298 62.9585 42.0347 62.9089C42.1878 62.9089 42.4134 62.9089 42.3651 62.9815L41.0515 64.7397L40.8984 64.9414L37.675 69.2885C37.6185 69.3611 37.538 69.4256 37.5299 69.5224C37.7555 69.4176 39.1416 69.0869 39.4317 69.0224C39.8683 68.9231 40.3138 68.8691 40.7614 68.8611C40.9269 68.8658 41.0883 68.9136 41.2296 68.9999C41.371 69.0862 41.4874 69.2079 41.5673 69.3531C41.6113 69.4136 41.6491 69.4785 41.6801 69.5466C41.6801 69.6273 41.7526 69.6757 41.7929 69.7644C42.0118 70.2764 42.1426 70.8218 42.1797 71.3774C42.1797 71.7888 42.2522 72.184 42.2522 72.6114C42.2522 73.668 42.2522 74.789 42.1555 75.8375C42.086 76.6824 41.9676 77.5226 41.801 78.3539C41.5133 79.6921 41.0754 80.9935 40.4955 82.2333C40.4391 82.3462 40.3665 82.4994 40.3021 82.6123C39.9475 83.2172 39.5526 83.7979 39.1819 84.3948C38.8918 84.8625 38.5533 85.2981 38.2471 85.7578C37.8774 86.2116 37.6033 86.7356 37.4413 87.2982C37.4413 87.5241 37.683 87.6854 37.8603 87.758C38.6885 88.0031 39.5526 88.104 40.4149 88.0564H40.6244C40.8719 88.0513 41.1158 87.9964 41.3416 87.8951C41.5454 87.8161 41.7378 87.7103 41.9138 87.5805L42.1555 87.4031L42.4054 87.1934C42.5021 87.1158 42.5821 87.0193 42.6403 86.9098C42.6985 86.8002 42.7337 86.6799 42.7438 86.5562C42.7438 86.3546 42.4457 86.274 42.2925 86.2014L41.1563 85.7013C40.8742 85.5884 40.568 85.3303 40.3101 85.5078C39.9072 85.7981 40.5519 86.5643 40.3101 87.1208C40.291 87.1876 40.248 87.2451 40.1892 87.2821C39.7944 87.5483 38.6742 87.4757 38.6581 86.7982C38.642 86.1207 41.0999 82.9027 41.5189 82.2655C41.7284 81.9107 41.9621 81.58 42.1555 81.217C42.2442 81.0557 42.3409 80.9186 42.4295 80.7493C42.5907 80.4428 42.8163 80.0879 42.9453 79.7653L43.1951 79.2572L43.4369 78.7571C43.8459 77.8835 44.2038 76.9867 44.5087 76.0714C44.7262 75.3536 44.9035 74.789 45.0889 74.047C45.2563 73.4259 45.3722 72.7919 45.4354 72.1517C45.524 71.0226 45.653 69.1514 44.9358 68.2642C44.8478 68.1559 44.7446 68.0608 44.6295 67.982C44.4057 67.843 44.1562 67.7507 43.8958 67.7105C43.6355 67.6703 43.3698 67.6831 43.1145 67.7481C42.6454 67.9557 42.1636 68.1335 41.672 68.2804C41.834 68.025 42.0117 67.7799 42.2039 67.5464L44.0735 65.022C44.1702 64.901 44.2588 64.7801 44.3475 64.651L45.9592 62.4734H37.5138C37.5504 62.9513 37.6733 63.4185 37.8764 63.8525C38.0859 64.3123 38.5131 64.9494 39.061 65.0059C39.3511 65.0059 39.2222 64.9252 39.2222 64.6752" fill="#E8D393"/>
</g>
<defs>
<clipPath id="clip0_101_1674">
<rect width="110" height="88" fill="white"/>
</clipPath>
</defs>
</svg>
