<svg width="110" height="11" viewBox="0 0 110 11" fill="none" xmlns="http://www.w3.org/2000/svg">
<g clip-path="url(#clip0_101_1824)">
<path d="M68.0441 10.725V1.68536H64.6543V0H73.3337V1.68536H69.9438V10.725H68.0441Z" fill="#CEBAA0"/>
<path d="M54.6934 10.725V0H58.9012C59.8073 0 60.5817 0.153215 61.2244 0.459645C61.8771 0.766073 62.3791 1.20529 62.7296 1.77729C63.0801 2.34929 63.2558 3.02854 63.2558 3.81503C63.2558 4.60153 63.0801 5.28078 62.7296 5.85278C62.3791 6.41459 61.8771 6.84866 61.2244 7.15511C61.179 7.17613 61.1328 7.1964 61.0858 7.21592L63.431 10.725H61.3854L59.3016 7.58937C59.1711 7.59609 59.0376 7.59941 58.9012 7.59941H56.5927V10.725H54.6934ZM56.5927 5.96003H58.8136C59.6514 5.96003 60.2795 5.77109 60.6986 5.39314C61.1273 5.01522 61.3414 4.48916 61.3414 3.81503C61.3414 3.13068 61.1273 2.60465 60.6986 2.23693C60.2795 1.86921 59.6514 1.68536 58.8136 1.68536H56.5927V5.96003Z" fill="#CEBAA0"/>
<path d="M41.5703 10.725L46.1731 0H48.0431L52.6605 10.725H50.6732L49.6568 8.24291L49.3367 7.46153L49.0166 6.68014L47.0941 1.98643L45.1787 6.68014H49.0166L49.3367 7.46153L49.6568 8.24291H44.541L43.5283 10.725H41.5703Z" fill="#CEBAA0"/>
<path d="M36.0872 10.725V1.68536H32.6973V0H41.3765V1.68536H37.9867V10.725H36.0872Z" fill="#CEBAA0"/>
<path d="M27.4292 10.725C26.6304 10.725 25.8657 10.6108 25.1351 10.3824C24.4045 10.1441 23.825 9.84119 23.3964 9.47375L24.0539 7.96928C24.463 8.29697 24.9695 8.57006 25.5735 8.78853C26.1775 9.007 26.796 9.11625 27.4292 9.11625C27.9649 9.11625 28.3984 9.05666 28.7296 8.9375C29.0608 8.81835 29.3043 8.65944 29.4602 8.46085C29.616 8.25228 29.694 8.01894 29.694 7.76072C29.694 7.44294 29.582 7.18972 29.3579 7.00103C29.1339 6.80244 28.8416 6.6485 28.4812 6.53928C28.1305 6.42009 27.736 6.31088 27.2977 6.21156C26.8691 6.11225 26.4356 5.99806 25.9972 5.86897C25.5686 5.72994 25.1741 5.55616 24.8137 5.34759C24.463 5.12912 24.1756 4.84116 23.9516 4.48366C23.7276 4.12616 23.6156 3.66934 23.6156 3.11323C23.6156 2.54719 23.7617 2.0308 24.0539 1.56406C24.3559 1.0874 24.8088 0.710034 25.4128 0.431978C26.0265 0.143993 26.8009 0 27.736 0C28.3497 0 28.9585 0.0794447 29.5624 0.238334C30.1664 0.397222 30.6924 0.625625 31.1405 0.923541L30.5414 2.42802C30.0836 2.14997 29.6112 1.94639 29.1241 1.81729C28.6371 1.67826 28.1695 1.60875 27.7214 1.60875C27.1954 1.60875 26.7668 1.6733 26.4356 1.8024C26.1141 1.93149 25.8755 2.10031 25.7196 2.30885C25.5735 2.5174 25.5004 2.75573 25.5004 3.02385C25.5004 3.34163 25.6076 3.59981 25.8219 3.79844C26.0459 3.98713 26.3333 4.13606 26.684 4.24531C27.0444 4.35457 27.4438 4.46378 27.8821 4.57303C28.3205 4.67231 28.7539 4.78653 29.1825 4.91563C29.6209 5.04472 30.0154 5.21353 30.3661 5.4221C30.7265 5.63063 31.0139 5.91366 31.2282 6.27116C31.4522 6.62866 31.5642 7.0805 31.5642 7.62666C31.5642 8.18278 31.4133 8.69916 31.1113 9.17585C30.8191 9.64256 30.3661 10.0199 29.7524 10.3079C29.1387 10.586 28.3643 10.725 27.4292 10.725Z" fill="#CEBAA0"/>
<path d="M11.1132 10.725L15.7158 0H17.5861L22.2034 10.725H20.2162L19.1996 8.24291L18.8795 7.46153L18.5595 6.68014L16.637 1.98643L14.7217 6.68014H18.5595L18.8795 7.46153L19.1996 8.24291H14.084L13.0711 10.725H11.1132Z" fill="#CEBAA0"/>
<path d="M0 10.725V0H1.56344L7.20353 7.26125V0H9.08842V10.725H7.52499L1.8849 3.46376V10.725H0Z" fill="#CEBAA0"/>
<path d="M102.266 10.725V3.59788V0H106.195C107.209 0 108.007 0.229821 108.588 0.689464C109.178 1.14911 109.474 1.82836 109.474 2.72721C109.474 3.30943 109.344 3.79973 109.086 4.19809C108.837 4.59641 108.487 4.89264 108.035 5.08673C107.928 5.13331 107.818 5.17428 107.704 5.20967C108.012 5.26329 108.288 5.34488 108.533 5.45441C109.013 5.66891 109.377 5.98048 109.626 6.38903C109.875 6.79761 109.999 7.30323 109.999 7.90586C109.999 8.80473 109.704 9.49928 109.114 9.98959C108.533 10.4799 107.652 10.725 106.471 10.725H102.266ZM102.736 10.2654H106.499C107.486 10.2654 108.238 10.0764 108.754 9.69848C109.271 9.31034 109.529 8.70766 109.529 7.89053C109.529 7.06316 109.271 6.46053 108.754 6.08261C108.238 5.69448 107.486 5.50039 106.499 5.50039H102.66L102.653 5.05609H106.208C107.094 5.05609 107.781 4.862 108.27 4.47386C108.768 4.08573 109.017 3.51371 109.017 2.75786C109.017 2.002 108.768 1.43 108.27 1.04186C107.781 0.653714 107.094 0.459645 106.208 0.459645H102.736V3.59788H102.266V4.32697V5.05609H102.653L102.736 10.2654Z" fill="#CEBAA0"/>
<path d="M93.4958 10.25H99.5697V10.725H93.0254V0H99.3761V0.474964H93.4958V3.57897H93.0254V5.04075H98.7535V5.51573H93.4958V10.25Z" fill="#CEBAA0"/>
<path d="M80.3066 10.725L77 0H77.4979L80.6802 10.3726L80.791 10.725L81.5775 8.221L81.3476 7.4735L83.71 0H84.1665L87.3129 9.99502L87.5387 10.725L88.3256 8.22962L88.0913 7.46928L90.3925 0H90.8629L88.3256 8.22962L87.5387 10.725H87.0859L83.8761 0.551573H83.9868L81.5775 8.221L80.791 10.725H80.3066Z" fill="#CEBAA0"/>
</g>
<defs>
<clipPath id="clip0_101_1824">
<rect width="110" height="11" fill="white"/>
</clipPath>
</defs>
</svg>
