<svg width="18" height="16" viewBox="0 0 18 16" fill="none" xmlns="http://www.w3.org/2000/svg">
<path fill-rule="evenodd" clip-rule="evenodd" d="M6.86567 2.15336C6.16425 1.77986 5.35509 1.66091 4.57585 1.81676C3.79662 1.97261 3.09545 2.39362 2.59164 3.00817C2.08783 3.62272 1.8125 4.39284 1.8125 5.18751C1.8125 7.55609 3.57622 9.81682 5.51185 11.5589C6.46076 12.4129 7.41252 13.108 8.12837 13.59C8.48569 13.8306 8.78272 14.0171 8.98923 14.1427C8.99284 14.1449 8.99644 14.1471 9 14.1493C9.00356 14.1471 9.00716 14.1449 9.01077 14.1427C9.21728 14.0171 9.51431 13.8306 9.87163 13.59C10.5875 13.108 11.5392 12.4129 12.4881 11.5589C14.4238 9.81682 16.1875 7.55609 16.1875 5.18751C16.1875 4.39284 15.9122 3.62272 15.4084 3.00817C14.9046 2.39362 14.2034 1.97261 13.4242 1.81676C12.6449 1.66091 11.8358 1.77986 11.1343 2.15336C10.4329 2.52687 9.88256 3.13185 9.57692 3.86539L9 3.62501L8.42308 3.86539C8.11744 3.13185 7.56709 2.52687 6.86567 2.15336ZM9 2.375C8.59051 1.82904 8.06383 1.37521 7.45318 1.05004C6.4967 0.540717 5.3933 0.378517 4.33071 0.591035C3.26811 0.803554 2.31197 1.37766 1.62496 2.21568C0.937945 3.05371 0.5625 4.10387 0.5625 5.18751C0.5625 8.13142 2.70503 10.7144 4.67565 12.488C5.67986 13.3918 6.68123 14.1225 7.43022 14.6268C7.80532 14.8794 8.11865 15.0762 8.33939 15.2105C8.4498 15.2777 8.53715 15.3294 8.59761 15.3646C8.62785 15.3822 8.65136 15.3957 8.66769 15.4051L8.68673 15.4159L8.69209 15.4189L8.69371 15.4198L8.69426 15.4201C8.69446 15.4202 8.69462 15.4203 9 14.875L8.69462 15.4203C8.88435 15.5266 9.11565 15.5266 9.30538 15.4203L9 14.875C9.30538 15.4203 9.30554 15.4202 9.30574 15.4201L9.30629 15.4198L9.30791 15.4189L9.31327 15.4159L9.33231 15.4051C9.34864 15.3957 9.37215 15.3822 9.40239 15.3646C9.46285 15.3294 9.5502 15.2777 9.66061 15.2105C9.88136 15.0762 10.1947 14.8794 10.5698 14.6268C11.3188 14.1225 12.3201 13.3918 13.3244 12.488C15.295 10.7144 17.4375 8.13142 17.4375 5.18751C17.4375 4.10387 17.0621 3.05371 16.375 2.21568C15.688 1.37766 14.7319 0.803554 13.6693 0.591035C12.6067 0.378517 11.5033 0.540717 10.5468 1.05004C9.93617 1.37521 9.40949 1.82904 9 2.375Z" fill="#CEBAA0"/>
</svg>
