<svg width="20" height="20" viewBox="0 0 20 20" fill="none" xmlns="http://www.w3.org/2000/svg">
<path d="M6.25 18.125C6.94036 18.125 7.5 17.5654 7.5 16.875C7.5 16.1846 6.94036 15.625 6.25 15.625C5.55964 15.625 5 16.1846 5 16.875C5 17.5654 5.55964 18.125 6.25 18.125Z" fill="#1E1E1E"/>
<path d="M14.375 18.125C15.0654 18.125 15.625 17.5654 15.625 16.875C15.625 16.1846 15.0654 15.625 14.375 15.625C13.6846 15.625 13.125 16.1846 13.125 16.875C13.125 17.5654 13.6846 18.125 14.375 18.125Z" fill="#1E1E1E"/>
<path fill-rule="evenodd" clip-rule="evenodd" d="M1.93726 1.875C2.20891 1.8748 2.47324 1.96311 2.69023 2.12656C2.90734 2.29009 3.06522 2.51993 3.13997 2.78125L3.77439 5H17.3203C17.5164 5 17.7012 5.09206 17.8193 5.24863C17.9374 5.4052 17.9751 5.60813 17.9213 5.7967L15.8595 13.0128C15.8594 13.0132 15.8593 13.0136 15.8592 13.014C15.7484 13.4073 15.5117 13.7534 15.1853 13.9993C14.8591 14.245 14.4614 14.3769 14.0531 14.375C14.0524 14.375 14.0517 14.375 14.0511 14.375L14.0547 13.75V14.375H14.0531H6.57191C6.57259 14.375 6.57327 14.375 6.57394 14.375L6.57031 13.75V14.375H6.57191C6.16358 14.3769 5.76587 14.245 5.43968 13.9993C5.11339 13.7535 4.87671 13.4075 4.76591 13.0143L4.76627 13.0156L5.36719 12.8438L4.76547 13.0128L1.93816 3.125L0.625 3.125C0.279822 3.125 0 2.84518 0 2.5C0 2.15482 0.279822 1.875 0.625 1.875H1.93726ZM1.93726 1.875C1.93712 1.875 1.9374 1.875 1.93726 1.875V1.875ZM4.13182 6.25L5.96891 12.6747C6.00546 12.8049 6.08376 12.9195 6.19176 13.0008C6.29975 13.0822 6.43148 13.1258 6.56668 13.125L6.57031 13.125L14.0583 13.125C14.1935 13.1258 14.3252 13.0822 14.4332 13.0008C14.5412 12.9195 14.6195 12.8049 14.6561 12.6747L14.6569 12.672L16.4917 6.25H4.13182Z" fill="#1E1E1E"/>
</svg>
