<svg width="636" height="637" viewBox="0 0 636 637" fill="none" xmlns="http://www.w3.org/2000/svg">
<path opacity="0.1" d="M216.183 32.1583C212.518 32.0959 208.916 33.1187 205.831 35.0978C202.746 37.077 200.314 39.9243 198.843 43.2815C197.354 46.3252 196.982 49.7952 197.791 53.0855C198.6 56.3758 200.539 59.2774 203.27 61.2836C200.49 61.2465 197.745 61.8486 195.235 63.0425C192.725 64.2364 190.522 65.9908 188.798 68.1704C187.073 70.35 185.872 72.8966 185.287 75.6138C184.701 78.3311 184.748 81.1463 185.423 83.8427C186.011 85.1742 186.861 86.3741 187.922 87.371C188.983 88.3679 190.233 89.1416 191.598 89.6462C192.964 90.1507 194.417 90.3759 195.871 90.3083C197.325 90.2407 198.751 89.8817 200.063 89.2526C200.935 89.0828 201.764 88.743 202.505 88.2527C203.245 87.7623 203.881 87.1309 204.377 86.3946C204.873 85.6583 205.22 84.8315 205.396 83.9613C205.573 83.0912 205.576 82.1948 205.407 81.3233C205.237 80.4518 204.897 79.6223 204.407 78.8822C203.916 78.142 203.285 77.5057 202.548 77.0096C201.812 76.5134 200.985 76.1671 200.115 75.9905C199.245 75.8139 198.349 75.8104 197.477 75.9802C197.243 76.2127 196.963 76.3943 196.656 76.5135C196.348 76.6327 196.019 76.687 195.69 76.6729C195.36 76.6588 195.037 76.5767 194.741 76.4317C194.444 76.2867 194.181 76.082 193.968 75.8303C193.754 75.5787 193.595 75.2857 193.501 74.9697C193.406 74.6536 193.378 74.3214 193.418 73.994C193.458 73.6665 193.565 73.3509 193.733 73.0669C193.901 72.7829 194.126 72.5367 194.393 72.3438C195.472 71.0388 196.805 69.9665 198.311 69.1921C199.816 68.4177 201.464 67.9572 203.153 67.8387C204.842 67.7202 206.538 67.9461 208.137 68.5026C209.736 69.0592 211.205 69.9349 212.456 71.0765C223.689 78.8364 217.727 95.1399 205.557 99.4554C194.333 102.634 184.038 108.466 175.542 116.46M228.244 62.9487C224.554 62.2601 221.123 60.5738 218.324 58.0728C215.525 55.5717 213.465 52.3517 212.367 48.7622C211.642 45.7582 211.707 42.618 212.553 39.646C213.399 36.674 214.999 33.9712 217.198 31.7995C220.005 29.4422 223.446 27.9674 227.089 27.5608C230.732 27.1541 234.414 27.8336 237.672 29.5139C240.745 30.9398 243.221 33.3999 244.665 36.4649C246.11 39.5298 246.432 43.0048 245.575 46.283C247.71 44.5033 250.233 43.2405 252.934 42.5864C255.636 41.9323 258.451 41.9073 261.164 42.5134C263.877 43.1195 266.414 44.3404 268.58 46.082C270.746 47.8236 272.484 50.0394 273.658 52.5586C274.04 53.9633 274.136 55.4304 273.941 56.8728C273.745 58.3153 273.262 59.7037 272.519 60.9558C271.776 62.2079 270.79 63.2981 269.618 64.1616C268.446 65.0252 267.113 65.6446 265.697 65.983C264.913 66.4002 264.055 66.6589 263.171 66.7443C262.288 66.8298 261.396 66.7404 260.546 66.4811C259.697 66.2219 258.907 65.7979 258.222 65.2334C257.537 64.6689 256.969 63.975 256.552 63.1912C256.135 62.4075 255.876 61.5492 255.791 60.6654C255.705 59.7817 255.795 58.8898 256.054 58.0406C256.578 56.3256 257.761 54.8888 259.344 54.0464C259.944 54.0121 260.51 53.7526 260.928 53.3198C261.346 52.8869 261.585 52.3125 261.598 51.711C261.611 51.1095 261.397 50.5252 260.999 50.0746C260.6 49.624 260.046 49.3401 259.448 49.2797C257.788 48.9459 256.077 48.9527 254.42 49.2999C252.763 49.6471 251.193 50.3274 249.807 51.2994C248.42 52.2715 247.246 53.515 246.355 54.9547C245.463 56.3944 244.874 58.0001 244.622 59.6745C240.787 72.7773 255.689 81.6829 267.859 77.3674C278.578 72.7649 290.247 70.8086 301.881 71.6639L298.449 80.3834C289.755 80.1587 281.081 81.3082 272.746 83.7894C256.122 89.1134 237.916 82.8475 236.045 66.304C236.287 58.9883 237.439 51.7313 239.475 44.7005M216.573 31.8607C219.649 32.1623 222.594 33.2534 225.124 35.0282C227.653 36.803 229.681 39.2013 231.012 41.9906C232.42 45.4697 232.849 49.2684 232.251 52.974C231.653 56.6796 230.051 60.1506 227.619 63.0099M31.609 419.566C29.2516 416.759 27.7768 413.318 27.37 409.675C26.9633 406.032 27.6428 402.35 29.3231 399.093C30.6863 395.908 33.148 393.318 36.2602 391.795C39.3723 390.273 42.9278 389.918 46.2793 390.797C44.4995 388.662 43.2367 386.146 42.5825 383.444C41.9284 380.743 41.9034 377.927 42.5095 375.215C43.1155 372.502 44.3364 369.965 46.078 367.799C47.8196 365.632 50.0354 363.895 52.5546 362.721C53.9593 362.339 55.4264 362.243 56.8689 362.438C58.3114 362.634 59.6998 363.118 60.9519 363.86C62.204 364.603 63.2942 365.589 64.1578 366.761C65.0214 367.933 65.6408 369.266 65.9793 370.682C66.8218 372.265 67.001 374.118 66.4774 375.833C65.9539 377.548 64.7705 378.984 63.1875 379.827C61.6046 380.669 59.7519 380.848 58.0369 380.325C56.3219 379.801 54.885 378.618 54.0426 377.035C54.0757 376.707 54.0405 376.375 53.9393 376.061C53.8381 375.747 53.673 375.458 53.4544 375.211C53.2359 374.963 52.9685 374.764 52.6692 374.625C52.37 374.487 52.0452 374.411 51.7154 374.404C51.3855 374.397 51.0578 374.458 50.7528 374.584C50.4477 374.709 50.1719 374.897 49.9428 375.134C49.7137 375.371 49.5362 375.654 49.4214 375.963C49.3066 376.272 49.2571 376.602 49.2759 376.931C48.9578 378.59 48.9762 380.295 49.33 381.947C49.6837 383.598 50.3656 385.162 51.3352 386.544C52.3047 387.927 53.5422 389.101 54.9741 389.996C56.406 390.892 58.0032 391.491 59.6709 391.757C72.774 395.592 81.6795 380.691 77.3638 368.521C72.7578 358.005 70.7069 346.548 71.3792 335.087L80.0988 338.519C79.8743 347.213 81.0239 355.888 83.5053 364.223C88.8295 380.846 82.5638 399.052 66.0201 400.922C58.8925 400.746 51.8216 399.605 45.0005 397.53M63.3037 409.142C60.4443 406.71 56.9733 405.108 53.2676 404.51C49.562 403.912 45.7633 404.34 42.2841 405.749C39.4948 407.079 37.0965 409.107 35.3217 411.637C33.5469 414.167 32.4558 417.112 32.1543 420.187C32.092 423.852 33.1148 427.454 35.094 430.539C37.0732 433.624 39.9205 436.056 43.2779 437.527C46.3216 439.016 49.7916 439.388 53.0819 438.579C56.3723 437.77 59.2739 435.831 61.2801 433.101C61.243 435.88 61.8541 438.635 63.048 441.145C64.242 443.655 65.9964 445.857 68.1761 447.582C70.3557 449.307 72.9024 450.508 75.6196 451.093C78.3369 451.678 81.1522 451.631 83.8485 450.956C85.1472 450.358 86.3152 449.51 87.2856 448.46C88.2559 447.41 89.0096 446.179 89.5034 444.838C89.9973 443.496 90.2216 442.07 90.1635 440.641C90.1054 439.213 89.766 437.81 89.1649 436.513C88.8219 434.753 87.7938 433.201 86.3067 432.199C84.8197 431.197 82.9955 430.827 81.2354 431.169C79.4754 431.512 77.9237 432.54 76.9216 434.028C75.9196 435.515 75.5493 437.339 75.8923 439.099C76.1248 439.333 76.3064 439.612 76.4256 439.92C76.5449 440.228 76.5991 440.557 76.5851 440.886C76.571 441.216 76.4889 441.539 76.3439 441.835C76.1989 442.132 75.9941 442.395 75.7425 442.608C75.4909 442.821 75.1979 442.98 74.8818 443.075C74.5658 443.17 74.2336 443.198 73.9061 443.158C73.5787 443.118 73.263 443.011 72.979 442.843C72.695 442.675 72.4488 442.45 72.2559 442.182C70.9509 441.103 69.8786 439.771 69.1041 438.265C68.3297 436.759 67.8692 435.112 67.7507 433.423C67.6321 431.734 67.858 430.038 68.4146 428.439C68.9711 426.84 69.8468 425.371 70.9884 424.12C78.7482 412.887 95.052 418.849 99.3677 431.019C102.602 442.182 108.465 452.407 116.466 460.838L121.075 452.679C115.424 446.069 110.851 438.608 107.527 430.572C101.189 414.308 84.8532 404.117 71.0607 412.596C65.497 417.42 60.5402 422.901 56.2994 428.921M602.743 217.293C606.13 224.723 607.619 232.878 607.078 241.026C606.538 249.174 603.984 257.06 599.645 263.978C584.185 289.602 575.237 286.904 564.775 301.786L572.808 304.891C578.07 298.743 583.814 293.025 589.985 287.79C606.092 273.19 621.95 240.411 612.899 214.426C603.847 188.441 570.53 172.447 548.883 171.886C540.793 171.709 532.73 170.887 524.77 169.428L520.488 176.899C537.988 181.866 543.238 174.133 571.387 184.294C579.115 186.933 586.067 191.448 591.62 197.435C597.173 203.422 601.154 210.693 603.206 218.597M574.355 227.608L580.44 225.45C582.054 226.471 583.878 227.112 585.776 227.325C587.674 227.538 589.595 227.317 591.395 226.679C593.195 226.04 594.827 225.002 596.166 223.641C597.506 222.28 598.519 220.632 599.129 218.823C599.692 217.053 599.818 215.173 599.497 213.344C599.176 211.514 598.418 209.79 597.287 208.317C596.156 206.843 594.686 205.666 593.001 204.883C591.317 204.101 589.468 203.738 587.613 203.824C578.06 205.173 575.483 217.911 566.159 223.583C552.132 232.552 535.797 222.361 529.458 206.097C526.134 198.061 521.562 190.6 515.91 183.99L520.52 175.831C528.262 184.308 533.887 194.498 536.936 205.566C541.251 217.736 557.555 223.698 565.315 212.465C566.442 211.207 567.305 209.736 567.853 208.139C568.401 206.541 568.623 204.85 568.504 203.165C568.386 201.481 567.931 199.837 567.165 198.332C566.399 196.826 565.339 195.49 564.047 194.403C563.854 194.135 563.608 193.91 563.324 193.742C563.04 193.574 562.725 193.467 562.397 193.427C562.07 193.387 561.737 193.415 561.421 193.51C561.105 193.605 560.812 193.764 560.561 193.977C560.309 194.19 560.104 194.453 559.959 194.75C559.814 195.046 559.732 195.369 559.718 195.699C559.704 196.028 559.758 196.357 559.878 196.665C559.997 196.973 560.178 197.252 560.411 197.486C560.754 199.246 560.384 201.07 559.382 202.557C558.38 204.044 556.828 205.072 555.068 205.415C553.308 205.758 551.484 205.388 549.997 204.386C548.509 203.384 547.481 201.832 547.138 200.072C546.509 198.76 546.15 197.334 546.083 195.88C546.015 194.426 546.24 192.973 546.745 191.607C547.249 190.242 548.023 188.992 549.02 187.931C550.017 186.87 551.217 186.021 552.548 185.432C555.245 184.757 558.06 184.711 560.777 185.296C563.494 185.881 566.041 187.082 568.221 188.807C570.4 190.532 572.155 192.734 573.349 195.244C574.543 197.754 575.144 200.505 575.107 203.284C577.247 200.712 580.213 198.961 583.499 198.331C586.785 197.701 590.188 198.231 593.128 199.83C596.477 201.313 599.316 203.747 601.293 206.829C603.271 209.912 604.3 213.507 604.251 217.17C603.95 220.245 602.859 223.19 601.084 225.72C599.309 228.249 596.911 230.278 594.122 231.608C590.63 232.905 586.852 233.23 583.191 232.546C579.53 231.862 576.123 230.195 573.336 227.724C574.024 224.035 575.703 220.599 578.204 217.8C580.705 215.001 583.925 212.941 587.514 211.843C590.518 211.118 593.659 211.183 596.631 212.029C599.603 212.875 602.305 214.475 604.477 216.674C606.835 219.481 608.309 222.922 608.716 226.565C609.123 230.208 608.443 233.89 606.763 237.147C605.4 240.333 602.938 242.922 599.826 244.445C596.714 245.968 593.158 246.322 589.807 245.443C591.587 247.578 592.852 250.094 593.507 252.795C594.161 255.497 594.186 258.312 593.58 261.025C592.974 263.737 591.753 266.275 590.011 268.441C588.27 270.607 586.054 272.344 583.535 273.519C580.798 274.151 577.923 273.7 575.511 272.259C573.1 270.819 571.34 268.501 570.601 265.791C569.758 264.208 569.579 262.356 570.102 260.641C570.626 258.926 571.809 257.489 573.392 256.646C574.975 255.804 576.828 255.625 578.543 256.148C580.258 256.672 581.695 257.855 582.537 259.438C582.572 260.039 582.831 260.605 583.264 261.022C583.697 261.44 584.271 261.68 584.873 261.693C585.474 261.706 586.058 261.492 586.509 261.093C586.96 260.694 587.244 260.141 587.304 259.542C587.638 257.882 587.631 256.172 587.284 254.514C586.936 252.857 586.256 251.288 585.284 249.901C584.312 248.515 583.068 247.34 581.629 246.449C580.189 245.558 578.583 244.968 576.909 244.716C563.806 240.882 554.9 255.783 559.216 267.953C563.737 278.659 565.626 290.294 564.724 301.881L556.004 298.449C556.229 289.756 555.079 281.081 552.598 272.746C547.274 256.122 553.539 237.917 569.592 235.812C580.406 234.343 590.434 242.612 598.702 237.641C600.197 236.539 601.403 235.093 602.219 233.424C603.034 231.755 603.434 229.914 603.384 228.058C603.335 226.201 602.837 224.384 601.934 222.761C601.03 221.138 599.748 219.758 598.196 218.738C596.582 217.717 594.757 217.076 592.86 216.863C590.962 216.65 589.04 216.871 587.24 217.509C585.44 218.148 583.809 219.186 582.469 220.547C581.13 221.908 580.116 223.556 579.506 225.365L573.421 227.523M419.102 602.737C427.006 600.686 434.278 596.705 440.264 591.152C446.251 585.599 450.767 578.647 453.406 570.92C463.566 542.77 455.833 537.521 460.799 520.021L468.271 524.303C466.812 532.262 465.99 540.326 465.813 548.416C464.621 570.123 449.156 603.089 423.274 612.43C397.391 621.771 363.981 605.973 349.908 589.516C344.674 583.345 338.955 577.6 332.807 572.338L335.912 564.306C350.794 574.768 348.096 583.716 373.721 599.176C380.639 603.515 388.525 606.069 396.673 606.61C404.821 607.15 412.976 605.661 420.406 602.275M419.721 604.476C416.646 604.175 413.7 603.084 411.171 601.309C408.641 599.534 406.613 597.136 405.283 594.347C403.874 590.867 403.445 587.069 404.043 583.363C404.641 579.658 406.243 576.187 408.675 573.327C412.365 574.016 415.797 575.704 418.596 578.205C421.395 580.706 423.455 583.926 424.553 587.516C425.277 590.52 425.213 593.66 424.367 596.632C423.52 599.604 421.919 602.305 419.721 604.476ZM419.721 604.476C423.386 604.539 426.988 603.516 430.073 601.537C433.158 599.558 435.59 596.71 437.061 593.353C438.676 590.288 439.136 586.745 438.358 583.368C437.58 579.992 435.615 577.008 432.821 574.959C435.601 574.996 438.351 574.394 440.861 573.2C443.371 572.006 445.574 570.252 447.298 568.072C449.023 565.893 450.224 563.346 450.81 560.629C451.395 557.912 451.348 555.096 450.673 552.4C450.085 551.069 449.235 549.869 448.174 548.872C447.113 547.875 445.863 547.101 444.498 546.597C443.132 546.092 441.679 545.867 440.225 545.934C438.771 546.002 437.345 546.361 436.033 546.99C434.273 547.333 432.721 548.361 431.719 549.848C430.717 551.335 430.346 553.159 430.689 554.919C431.032 556.679 432.061 558.231 433.548 559.233C435.035 560.235 436.859 560.606 438.619 560.263C439.107 559.911 439.71 559.756 440.307 559.829C440.904 559.902 441.452 560.197 441.841 560.656C442.23 561.115 442.432 561.703 442.406 562.305C442.381 562.906 442.129 563.475 441.703 563.899C440.615 565.191 439.279 566.251 437.773 567.017C436.268 567.782 434.624 568.238 432.94 568.356C431.255 568.474 429.564 568.253 427.966 567.705C426.369 567.157 424.898 566.294 423.64 565.166C412.407 557.406 418.369 541.103 430.539 536.787C441.607 533.739 451.797 528.114 460.273 520.372L452.115 515.763C445.505 521.414 438.044 525.986 430.008 529.31C413.743 535.648 403.552 551.984 412.032 565.776C417.703 575.1 430.442 577.678 431.791 587.23C431.877 589.085 431.514 590.934 430.731 592.619C429.949 594.303 428.771 595.773 427.298 596.905C425.825 598.036 424.101 598.794 422.271 599.114C420.442 599.435 418.562 599.309 416.792 598.746C414.982 598.136 413.335 597.123 411.974 595.784C410.613 594.444 409.574 592.812 408.936 591.012C408.298 589.212 408.077 587.291 408.289 585.393C408.502 583.495 409.143 581.671 410.164 580.057L408.006 573.972M419.721 604.476C416.907 606.821 413.468 608.289 409.828 608.696C406.189 609.102 402.51 608.43 399.248 606.764C396.063 605.401 393.473 602.939 391.95 599.827C390.428 596.715 390.073 593.159 390.952 589.808C388.817 591.588 386.302 592.853 383.6 593.507C380.899 594.162 378.083 594.187 375.37 593.58C372.658 592.974 370.12 591.754 367.954 590.012C365.788 588.27 364.051 586.054 362.876 583.535C362.243 580.799 362.695 577.923 364.135 575.512C365.576 573.101 367.894 571.341 370.604 570.601C372.186 569.759 374.039 569.58 375.754 570.103C377.469 570.627 378.906 571.81 379.749 573.393C380.591 574.976 380.77 576.829 380.247 578.544C379.723 580.259 378.54 581.696 376.957 582.538C376.629 582.505 376.297 582.54 375.983 582.641C375.669 582.743 375.379 582.908 375.132 583.126C374.885 583.345 374.686 583.612 374.547 583.911C374.408 584.211 374.333 584.535 374.326 584.865C374.319 585.195 374.38 585.523 374.506 585.828C374.631 586.133 374.819 586.409 375.056 586.638C375.293 586.867 375.575 587.044 375.885 587.159C376.194 587.274 376.524 587.324 376.853 587.305C378.512 587.623 380.217 587.604 381.869 587.251C383.52 586.897 385.083 586.215 386.466 585.246C387.849 584.276 389.023 583.039 389.918 581.607C390.814 580.175 391.412 578.578 391.679 576.91C395.513 563.807 380.612 554.902 368.442 559.217C357.926 563.823 346.469 565.874 335.008 565.201L338.44 556.482C347.134 556.706 355.809 555.557 364.144 553.076C380.768 547.752 398.973 554.018 401.078 570.07C402.548 580.884 394.279 590.911 399.25 599.179C400.351 600.675 401.798 601.881 403.467 602.697C405.136 603.512 406.977 603.912 408.833 603.862C410.69 603.813 412.507 603.315 414.13 602.412C415.752 601.508 417.133 600.226 418.153 598.674C419.174 597.06 419.815 595.235 420.028 593.338C420.241 591.44 420.02 589.518 419.381 587.719C418.743 585.919 417.704 584.287 416.343 582.947C414.982 581.608 413.335 580.595 411.525 579.984L409.367 573.899M145.73 544.973C144.946 544.044 144.358 542.965 144.002 541.802C143.646 540.639 143.528 539.416 143.657 538.206C143.695 536.991 143.985 535.797 144.508 534.699C145.031 533.601 145.776 532.624 146.695 531.828C147.608 531.015 148.684 530.409 149.852 530.051C151.02 529.693 152.252 529.592 153.463 529.754C154.677 529.8 155.869 530.092 156.966 530.615C158.063 531.138 159.041 531.879 159.841 532.793C160.625 533.723 161.213 534.802 161.569 535.965C161.926 537.128 162.043 538.351 161.915 539.561C161.722 541.988 160.64 544.259 158.876 545.939C156.982 547.454 154.568 548.163 152.155 547.914C149.714 547.775 147.424 546.684 145.777 544.875M595.005 385.66C595.028 384.444 594.805 383.236 594.349 382.108C593.893 380.981 593.214 379.957 592.352 379.099C591.556 378.179 590.579 377.434 589.481 376.911C588.383 376.388 587.189 376.098 585.974 376.06C584.753 376.003 583.535 376.211 582.403 376.669C581.27 377.127 580.25 377.824 579.412 378.713C578.497 379.513 577.756 380.491 577.234 381.588C576.711 382.685 576.418 383.877 576.373 385.091C576.338 387.514 577.255 389.853 578.928 391.606C580.608 393.37 582.879 394.452 585.306 394.645C586.523 394.668 587.731 394.445 588.858 393.989C589.986 393.533 591.01 392.854 591.868 391.992C593.677 390.345 594.768 388.055 594.907 385.614M544.981 490.657C544.051 491.441 542.972 492.029 541.809 492.385C540.646 492.741 539.423 492.859 538.213 492.73C536.998 492.692 535.804 492.402 534.706 491.879C533.608 491.356 532.631 490.611 531.835 489.691C531.022 488.779 530.416 487.703 530.058 486.535C529.7 485.367 529.599 484.135 529.761 482.924C529.806 481.71 530.099 480.518 530.622 479.421C531.144 478.324 531.886 477.346 532.8 476.546C534.659 474.992 537.054 474.231 539.469 474.426C541.897 474.619 544.168 475.701 545.848 477.465C546.632 478.395 547.22 479.473 547.576 480.636C547.932 481.799 548.05 483.022 547.921 484.232C547.782 486.674 546.691 488.963 544.883 490.61M250.724 594.997C253.174 595.006 255.53 594.054 257.285 592.344C258.205 591.548 258.95 590.57 259.473 589.473C259.996 588.375 260.286 587.181 260.324 585.965C260.381 584.745 260.173 583.527 259.715 582.394C259.257 581.262 258.56 580.242 257.671 579.404C256.871 578.489 255.893 577.748 254.796 577.225C253.699 576.702 252.507 576.41 251.293 576.365C250.077 576.342 248.869 576.565 247.741 577.021C246.613 577.477 245.59 578.156 244.731 579.018C242.967 580.697 241.885 582.968 241.692 585.396C241.709 587.821 242.679 590.143 244.392 591.859C246.039 593.668 248.329 594.759 250.77 594.898M328.995 27.3913C329.011 28.9027 329.385 30.3888 330.087 31.7276C330.788 33.0664 331.797 34.22 333.031 35.0936C333.294 35.3787 333.433 35.7568 333.418 36.1446C333.403 36.5324 333.234 36.8982 332.949 37.1615C332.664 37.4248 332.285 37.564 331.898 37.5486C331.51 37.5332 331.144 37.3644 330.881 37.0793C330.111 35.9747 329.109 35.0516 327.945 34.3748C326.781 33.698 325.483 33.2837 324.143 33.161C322.802 33.0383 321.45 33.2101 320.183 33.6645C318.915 34.1188 317.763 34.8446 316.805 35.7912C315.042 37.4706 313.96 39.7417 313.766 42.1694C313.756 44.6199 314.709 46.9762 316.419 48.7312C317.219 49.6457 318.198 50.387 319.295 50.9096C320.392 51.4322 321.584 51.725 322.798 51.7701C324.189 51.7961 325.568 51.5037 326.83 50.9151C328.091 50.3265 329.201 49.4574 330.075 48.3742C330.683 47.0986 333.084 48.1225 335.009 49.6417C335.527 56.3899 333.142 61.3944 325.904 61.6779C322.228 61.3896 318.686 60.1713 315.611 58.1375C312.536 56.1038 310.029 53.3214 308.325 50.052C307.06 46.5519 306.585 42.8151 306.935 39.1098C307.285 35.4045 308.45 31.8226 310.348 28.6211C312.042 24.9301 314.458 21.6155 317.453 18.8725C320.448 16.1295 323.961 14.0136 327.786 12.6496C331.612 11.2855 335.671 10.7009 339.726 10.93C343.781 11.1592 347.749 12.1975 351.396 13.9839C355.066 15.7163 358.356 18.1577 361.078 21.1673C363.8 24.1769 365.9 27.6954 367.256 31.52C368.612 35.3445 369.199 39.3996 368.981 43.4517C368.763 47.5038 367.746 51.4727 365.987 55.1298C363.805 59.9747 360.449 64.199 356.224 67.4203C351.998 70.6417 347.036 72.7585 341.786 73.5792C331.11 75.2355 320.19 73.1778 310.85 67.75C308.889 66.512 306.997 65.1684 305.182 63.7251L297.86 80.1032C312.343 79.7791 326.774 81.8383 338.242 81.5229C345.064 81.4714 351.747 79.5807 357.585 76.05L359.005 79.1346C360.216 82.1978 362.395 84.7815 365.21 86.4921C368.025 88.2027 371.322 88.9465 374.598 88.6105C376.577 88.5319 378.497 87.9142 380.15 86.824C381.804 85.7338 383.128 84.2126 383.98 82.4247C384.832 80.6368 385.179 78.6501 384.984 76.6792C384.789 74.7084 384.059 72.8282 382.873 71.2419C381.943 70.0614 380.595 69.2829 379.107 69.067C377.619 68.8511 376.105 69.2141 374.878 70.0813C373.685 70.9829 372.899 72.32 372.69 73.8001C372.481 75.2801 372.867 76.7826 373.764 77.9788C374.978 80.4838 371.753 82.1982 369.179 79.7676C368.209 78.9868 367.409 78.0159 366.829 76.9145C366.248 75.8132 365.898 74.6047 365.802 73.3633C365.705 72.122 365.864 70.8741 366.267 69.6962C366.671 68.5184 367.311 67.4355 368.149 66.5142C370.226 64.1326 371.974 61.483 373.347 58.6363C377.796 50.3101 378.848 40.5846 376.282 31.4996C375.746 28.28 376.378 24.9747 378.063 22.1793C379.748 19.3839 382.376 17.2822 385.473 16.2529C388.572 15.5619 390.772 18.7775 388.033 20.4827C387.316 20.6717 386.644 21.0028 386.057 21.4561C385.47 21.9095 384.98 22.4761 384.617 23.1222C384.253 23.7684 384.022 24.481 383.938 25.2179C383.855 25.9548 383.92 26.7009 384.13 27.4122C384.517 28.8523 385.458 30.081 386.747 30.8305C388.036 31.5801 389.569 31.7898 391.013 31.4139C392.918 30.869 394.638 29.8136 395.986 28.3619C397.335 26.9103 398.261 25.1175 398.665 23.1775C399.069 21.2375 398.934 19.2241 398.276 17.3549C397.619 15.4858 396.462 13.832 394.932 12.5724C392.37 10.2892 389.128 8.91157 385.705 8.65162C382.283 8.39167 378.87 9.2638 375.992 11.1338C372.767 12.8481 370.65 14.0067 367.813 15.665C364.245 11.4773 359.799 8.12587 354.791 5.84858C347.204 2.28099 338.704 1.13281 330.442 2.55974C322.181 3.98666 314.558 7.91965 308.608 13.8254C301.492 8.40197 292.876 5.30599 283.935 4.95983C280.682 4.63024 277.406 5.27939 274.525 6.82408C271.643 8.36877 269.289 10.7386 267.764 13.6299C266.687 15.3986 266.187 17.4577 266.33 19.5231C266.474 21.5886 267.256 23.5584 268.567 25.1609C269.878 26.7633 271.654 27.9193 273.65 28.4693C275.646 29.0193 277.764 28.9362 279.71 28.2315C281.166 27.7075 282.356 26.6301 283.021 25.2335C283.686 23.837 283.774 22.2343 283.264 20.7738C282.717 19.3356 281.636 18.1637 280.247 17.5019C278.858 16.8401 277.267 16.7393 275.806 17.2206C276.266 16.2222 276.917 15.3241 277.724 14.5776C278.531 13.8312 279.477 13.251 280.509 12.8702C281.54 12.4894 282.636 12.3154 283.734 12.3583C284.833 12.4011 285.912 12.6599 286.91 13.1199C291.097 13.9435 294.823 16.3054 297.354 19.74C299.885 23.1747 301.038 27.4329 300.585 31.6754C299.443 37.7124 299.829 43.9391 301.708 49.7889C303.776 55.3552 307.632 60.0787 312.671 63.2203C317.71 66.3619 323.648 67.7442 329.557 67.151C331.563 66.7561 333.469 65.964 335.164 64.8214C336.858 63.6788 338.308 62.2086 339.426 60.4976C340.544 58.7865 341.308 56.8691 341.674 54.8581C342.04 52.8471 342 50.7832 341.557 48.7879C343.188 47.6386 345.025 47.0689 345.529 48.0316C346.412 49.134 347.532 50.0221 348.807 50.6294C350.081 51.2367 351.477 51.5474 352.889 51.5381C355.331 51.5037 357.671 50.5574 359.451 48.8851C361.214 47.2056 362.296 44.9345 362.49 42.5068C362.455 40.0651 361.509 37.7245 359.836 35.9451C359.037 35.0305 358.058 34.2892 356.961 33.7666C355.864 33.244 354.672 32.9512 353.458 32.9061C352.051 32.8846 350.657 33.1888 349.387 33.7949C348.116 34.401 347.003 35.2926 346.134 36.4002C346.002 36.5374 345.843 36.6464 345.667 36.7206C345.491 36.7947 345.302 36.8325 345.111 36.8316C344.92 36.8306 344.732 36.7911 344.557 36.7153C344.381 36.6394 344.223 36.5289 344.092 36.3904C343.87 36.298 343.678 36.1461 343.537 35.9514C343.396 35.7568 343.312 35.527 343.293 35.2873C344.529 34.3754 345.521 33.1732 346.181 31.7869C346.842 30.4007 347.15 28.873 347.08 27.339C347.123 26.1204 346.908 24.9065 346.451 23.776C345.994 22.6456 345.305 21.6239 344.427 20.7773C343.627 19.8628 342.649 19.1214 341.552 18.5989C340.455 18.0763 339.263 17.7834 338.049 17.7384C335.6 17.74 333.248 18.691 331.487 20.3914C329.723 22.0709 328.641 24.3419 328.448 26.7696M126.603 99.1638C124.923 97.4002 122.652 96.3181 120.224 96.1249C117.785 95.914 115.359 96.6573 113.457 98.1984C112.542 98.9983 111.801 99.9767 111.278 101.074C110.756 102.17 110.463 103.363 110.418 104.577C110.27 105.787 110.378 107.015 110.735 108.181C111.092 109.347 111.691 110.424 112.492 111.344C113.404 112.579 114.606 113.571 115.992 114.232C117.378 114.892 118.906 115.201 120.44 115.131C120.623 115.143 120.802 115.194 120.964 115.28C121.126 115.366 121.268 115.485 121.381 115.63C121.494 115.775 121.575 115.942 121.619 116.12C121.663 116.298 121.669 116.483 121.636 116.664C121.621 116.854 121.568 117.04 121.48 117.209C121.392 117.378 121.27 117.528 121.123 117.648C120.975 117.769 120.804 117.859 120.621 117.912C120.438 117.966 120.246 117.981 120.056 117.958C118.684 117.645 117.258 117.654 115.889 117.984C114.521 118.313 113.247 118.955 112.167 119.858C111.253 120.658 110.512 121.637 109.989 122.734C109.466 123.83 109.174 125.023 109.129 126.237C108.951 128.672 109.691 131.086 111.202 133.004C112.882 134.768 115.153 135.85 117.581 136.043C120.016 136.221 122.43 135.481 124.348 133.969C125.45 133.087 126.338 131.967 126.946 130.692C127.553 129.417 127.864 128.022 127.854 126.61C127.639 125.544 129.425 124.83 131.416 124.695C132.328 126.524 133.597 128.152 135.149 129.483C136.7 130.814 138.502 131.821 140.448 132.446C142.394 133.07 144.446 133.299 146.482 133.118C148.518 132.938 150.497 132.352 152.304 131.396C157.266 128.134 161.007 123.319 162.941 117.705C164.875 112.091 164.893 105.994 162.993 100.368C160.766 94.6414 157.143 89.5626 152.453 85.5936C149.429 82.5841 147.641 78.5509 147.443 74.289C147.245 70.027 148.65 65.8454 151.383 62.5685C151.868 61.5823 152.543 60.7015 153.369 59.9762C154.195 59.251 155.156 58.6955 156.197 58.3416C157.238 57.9877 158.338 57.8423 159.435 57.9137C160.532 57.985 161.604 58.2718 162.59 58.7575C161.152 59.3045 159.98 60.3849 159.318 61.7739C158.656 63.163 158.555 64.7537 159.037 66.2152C159.561 67.6707 160.638 68.8605 162.035 69.5259C163.431 70.1912 165.034 70.2784 166.495 69.7684C168.45 69.0892 170.147 67.8197 171.351 66.1351C172.554 64.4505 173.206 62.4338 173.214 60.3634C173.223 58.293 172.589 56.271 171.399 54.5763C170.209 52.8817 168.523 51.5981 166.573 50.9027C163.567 49.6184 160.245 49.2611 157.035 49.8765C153.824 50.492 150.87 52.0521 148.552 54.3571C141.827 60.2583 137.086 68.0907 134.977 76.7856C126.635 75.9478 118.237 77.6956 110.923 81.7919C103.608 85.8882 97.7301 92.135 94.0859 99.6851C91.3326 104.176 89.5562 109.196 88.8724 114.419L79.6658 116.052C76.2526 116.413 73.0526 117.886 70.5586 120.244C68.0646 122.602 66.4148 125.714 65.8631 129.102C65.4686 131.044 65.6126 133.056 66.2793 134.922C66.946 136.788 68.1101 138.437 69.6458 139.689C71.1814 140.941 73.0302 141.75 74.9922 142.028C76.9543 142.305 78.9548 142.041 80.7777 141.264C82.1352 140.647 83.1938 139.518 83.7228 138.124C84.2518 136.73 84.2083 135.183 83.6018 133.821C83.3167 133.136 82.8972 132.515 82.368 131.996C81.8388 131.476 81.2107 131.068 80.521 130.796C79.8312 130.523 79.0938 130.392 78.3524 130.41C77.611 130.427 76.8806 130.593 76.2046 130.898C73.494 131.533 72.6864 127.416 75.528 126.001C78.617 124.803 82.0356 124.765 85.1503 125.895C88.265 127.024 90.8646 129.245 92.4673 132.145C96.0575 141.13 103.066 148.323 111.955 152.145C114.815 153.492 117.842 154.448 120.956 154.989C122.186 155.177 123.366 155.614 124.421 156.275C125.477 156.935 126.386 157.804 127.093 158.829C127.8 159.854 128.29 161.013 128.533 162.234C128.776 163.455 128.767 164.713 128.505 165.93C128.178 169.145 124.453 170.14 123.818 167.429C123.76 165.936 123.114 164.526 122.019 163.508C120.924 162.49 119.471 161.947 117.977 161.998C116.477 162.098 115.073 162.77 114.054 163.875C113.035 164.979 112.478 166.433 112.499 167.936C112.578 169.915 113.195 171.835 114.286 173.489C115.376 175.142 116.897 176.466 118.685 177.318C120.473 178.17 122.46 178.517 124.431 178.322C126.402 178.127 128.282 177.397 129.868 176.212C132.624 174.408 134.716 171.754 135.824 168.652C136.933 165.55 136.997 162.171 136.007 159.03L135.167 155.739C141.925 154.803 148.306 152.062 153.637 147.803C162.546 140.73 172.651 130.133 184.103 121.261L168.472 112.37C167.972 114.634 167.349 116.869 166.606 119.066C162.772 129.166 155.588 137.643 146.254 143.082C141.66 145.752 136.473 147.234 131.162 147.395C125.85 147.555 120.583 146.389 115.836 144.001C112.166 142.268 108.876 139.827 106.154 136.818C103.432 133.808 101.332 130.289 99.976 126.465C98.6197 122.64 98.0336 118.585 98.2513 114.533C98.4691 110.481 99.4864 106.512 101.245 102.855C102.955 99.2324 105.363 95.9831 108.332 93.2934C111.301 90.6037 114.771 88.5265 118.544 87.1809C122.317 85.8353 126.319 85.2479 130.32 85.4523C134.321 85.6567 138.242 86.6488 141.858 88.3719C145.291 89.796 148.366 91.9612 150.865 94.7126C153.363 97.4639 155.222 100.733 156.309 104.287C157.046 107.9 156.852 111.64 155.745 115.157C154.638 118.673 152.655 121.851 149.983 124.39C144.182 128.73 139.178 126.346 135.178 120.588C136.16 118.527 137.189 116.368 138.362 116.686C139.723 116.977 141.132 116.952 142.483 116.615C143.833 116.278 145.088 115.636 146.152 114.739C147.067 113.939 147.808 112.961 148.331 111.864C148.853 110.767 149.146 109.575 149.191 108.361C149.414 105.92 148.669 103.49 147.118 101.593C145.438 99.8298 143.167 98.7478 140.739 98.5546C138.329 98.5345 136.007 99.4569 134.268 101.125C132.528 102.793 131.509 105.075 131.428 107.483C131.404 107.87 131.226 108.232 130.934 108.488C130.643 108.745 130.262 108.875 129.874 108.85C129.487 108.825 129.125 108.647 128.869 108.356C128.613 108.064 128.483 107.683 128.508 107.296C128.915 105.84 128.972 104.309 128.673 102.827C128.375 101.345 127.729 99.9553 126.79 98.7713M27.379 307.382C28.8904 307.365 30.3765 306.991 31.7153 306.289C33.0542 305.588 34.2077 304.579 35.0813 303.346C35.3664 303.082 35.7445 302.943 36.1323 302.958C36.5201 302.974 36.8859 303.143 37.1492 303.428C37.4125 303.713 37.5518 304.091 37.5364 304.479C37.521 304.866 37.3522 305.232 37.0671 305.496C35.9624 306.265 35.0394 307.267 34.3626 308.431C33.6858 309.595 33.2715 310.893 33.1489 312.234C33.0262 313.574 33.198 314.926 33.6523 316.193C34.1067 317.461 34.8326 318.614 35.7791 319.571C37.4587 321.335 39.7298 322.417 42.1575 322.61C44.608 322.62 46.9643 321.667 48.7193 319.957C49.6338 319.157 50.3751 318.179 50.8977 317.082C51.4203 315.985 51.7131 314.793 51.7582 313.579C51.7841 312.187 51.4917 310.808 50.9031 309.547C50.3145 308.286 49.4454 307.176 48.3621 306.302C47.0864 305.694 48.1104 303.292 49.6296 301.367C56.3778 300.85 61.3824 303.234 61.6661 310.473C61.3778 314.148 60.1595 317.69 58.1257 320.765C56.092 323.84 53.3096 326.347 50.0402 328.051C46.589 329.416 42.8826 330.016 39.1769 329.81C35.4712 329.603 31.8544 328.595 28.5762 326.855C24.8851 325.161 21.5704 322.745 18.8274 319.75C16.0843 316.756 13.9684 313.242 12.6043 309.417C11.2402 305.591 10.6554 301.532 10.8845 297.477C11.1136 293.422 12.152 289.454 13.9383 285.807C15.6707 282.138 18.112 278.847 21.1217 276.125C24.1313 273.403 27.6497 271.304 31.4743 269.948C35.2989 268.592 39.3541 268.005 43.4062 268.223C47.4583 268.441 51.4273 269.458 55.0845 271.217C59.9294 273.399 64.1538 276.755 67.3752 280.981C70.5967 285.206 72.7136 290.169 73.5344 295.419C75.1908 306.094 73.1332 317.014 67.7054 326.354C66.4675 328.315 65.1239 330.207 63.6807 332.022L80.433 338.558C80.1087 324.076 82.1678 309.646 81.8522 298.177C81.8006 291.355 79.9098 284.672 76.379 278.834L79.5104 277.316C82.5581 276.117 85.1296 273.953 86.8321 271.155C88.5347 268.357 89.2748 265.079 88.9394 261.821C88.8608 259.843 88.243 257.923 87.1528 256.269C86.0626 254.616 84.5413 253.292 82.7534 252.44C80.9654 251.588 78.9788 251.241 77.0079 251.436C75.037 251.631 73.1568 252.361 71.5705 253.546C70.39 254.477 69.6115 255.825 69.3956 257.313C69.1797 258.8 69.5428 260.314 70.41 261.542C71.3116 262.734 72.6488 263.52 74.1288 263.729C75.6089 263.938 77.1114 263.552 78.3075 262.656C80.8126 261.441 82.5271 264.666 80.0965 267.24C79.3157 268.21 78.3447 269.01 77.2434 269.591C76.142 270.172 74.9335 270.521 73.6922 270.617C72.4509 270.714 71.2029 270.555 70.025 270.152C68.8471 269.748 67.7643 269.108 66.843 268.27C64.4613 266.193 61.8116 264.445 58.9649 263.072C50.5492 258.518 40.6825 257.449 31.4868 260.094C28.2671 260.631 24.9617 259.999 22.1663 258.314C19.3708 256.629 17.2691 254.001 16.2397 250.904C15.5487 247.805 18.7644 245.605 20.4696 248.344C20.7082 249.043 21.0843 249.688 21.5759 250.241C22.0675 250.793 22.6647 251.241 23.3322 251.559C23.9997 251.877 24.724 252.059 25.4626 252.092C26.2012 252.126 26.9392 252.012 27.633 251.756C29.0731 251.369 30.3017 250.428 31.0513 249.139C31.8008 247.85 32.0105 246.317 31.6346 244.874C31.0966 242.971 30.0499 241.252 28.6074 239.9C27.1648 238.548 25.3808 237.616 23.4476 237.202C21.5143 236.789 19.505 236.911 17.6358 237.554C15.7667 238.198 14.1084 239.339 12.8396 240.855C10.5428 243.429 9.15366 246.685 8.88539 250.124C8.61711 253.563 9.48448 256.995 11.3544 259.894L15.2688 268.862C11.1069 272.405 7.77208 276.816 5.49921 281.787C1.87201 289.357 0.664044 297.861 2.03951 306.142C3.41498 314.423 7.30716 322.08 13.187 328.072C7.76356 335.188 4.66764 343.804 4.32159 352.744C3.99204 355.997 4.64124 359.273 6.18599 362.154C7.73073 365.036 10.1006 367.39 12.992 368.915C14.7607 369.992 16.8198 370.492 18.8853 370.349C20.9507 370.205 22.9206 369.424 24.523 368.112C26.1255 366.801 27.2815 365.025 27.8315 363.029C28.3815 361.033 28.2983 358.916 27.5935 356.969C27.0695 355.514 25.9921 354.324 24.5956 353.658C23.199 352.993 21.5962 352.906 20.1357 353.416C18.6976 353.963 17.5257 355.043 16.8639 356.432C16.2021 357.821 16.1013 359.412 16.5826 360.873C15.5842 360.414 14.6861 359.762 13.9396 358.955C13.1931 358.148 12.6129 357.202 12.2321 356.171C11.8513 355.139 11.6773 354.043 11.7201 352.945C11.7629 351.847 12.0217 350.767 12.4817 349.769C13.3053 345.583 15.6671 341.857 19.1018 339.326C22.5364 336.794 26.7947 335.642 31.0372 336.094C37.0743 337.236 43.301 336.85 49.1509 334.972C54.7064 332.888 59.4191 329.029 62.5582 323.994C65.6972 318.959 67.0873 313.029 66.5129 307.123C66.0936 305.129 65.2834 303.237 64.1292 301.557C62.9749 299.877 61.4994 298.443 59.7877 297.336C58.0761 296.23 56.1622 295.473 54.1567 295.11C52.1511 294.747 50.0935 294.785 48.1026 295.222C46.9533 293.59 46.3835 291.754 47.3463 291.249C48.4486 290.367 49.3368 289.246 49.9441 287.972C50.5513 286.697 50.862 285.302 50.8527 283.89C50.8183 281.448 49.8719 279.107 48.1996 277.328C46.5529 275.52 44.263 274.429 41.8212 274.289C39.3795 274.323 37.0389 275.27 35.2594 276.942C34.3449 277.742 33.6036 278.72 33.081 279.817C32.5584 280.914 32.2656 282.106 32.2206 283.32C32.238 284.965 32.6995 286.575 33.5564 287.979C34.4132 289.384 35.6336 290.53 37.0885 291.298C37.2258 291.431 37.3348 291.59 37.409 291.766C37.4831 291.942 37.5209 292.131 37.52 292.322C37.519 292.512 37.4795 292.701 37.4037 292.876C37.3278 293.051 37.2173 293.209 37.0788 293.341C36.9591 293.48 36.8113 293.592 36.6453 293.67C36.4792 293.748 36.2985 293.79 36.115 293.794C35.9315 293.797 35.7494 293.762 35.5804 293.69C35.4115 293.619 35.2596 293.512 35.1347 293.378C34.2365 292.128 33.0367 291.125 31.6471 290.463C30.2574 289.801 28.7229 289.501 27.1863 289.591C25.9676 289.548 24.7537 289.762 23.6232 290.219C22.4928 290.676 21.4711 291.366 20.6245 292.244C19.71 293.044 18.9686 294.022 18.4461 295.119C17.9235 296.216 17.6306 297.408 17.5856 298.622C17.5872 301.07 18.5383 303.422 20.2387 305.184C21.9182 306.947 24.1894 308.029 26.6171 308.223M111.985 468.215C114.25 468.715 116.485 469.338 118.682 470.081C128.781 473.915 137.259 481.099 142.698 490.433C145.368 495.027 146.851 500.214 147.011 505.526C147.172 510.837 146.005 516.104 143.618 520.851C140.066 528.182 133.786 533.833 126.122 536.596C118.435 539.314 109.985 538.881 102.616 535.39C98.983 533.659 95.7291 531.225 93.0429 528.229C90.3566 525.232 88.2913 521.732 86.9664 517.932C85.6416 514.132 85.0836 510.107 85.3247 506.09C85.5658 502.073 86.6012 498.144 88.3709 494.529C89.717 491.057 91.8155 487.926 94.5156 485.361C97.2157 482.796 100.45 480.861 103.987 479.695C107.6 478.959 111.34 479.153 114.857 480.26C118.373 481.367 121.551 483.35 124.09 486.022C128.431 491.823 126.093 496.729 120.288 500.826C118.227 499.844 116.068 498.816 116.386 497.643C116.677 496.282 116.653 494.872 116.315 493.522C115.978 492.172 115.336 490.917 114.439 489.852C113.639 488.938 112.661 488.196 111.564 487.674C110.467 487.151 109.275 486.858 108.061 486.813C105.62 486.591 103.19 487.335 101.294 488.887C99.5299 490.566 98.4479 492.837 98.2547 495.265C98.1379 496.531 98.2837 497.808 98.6829 499.015C99.0821 500.222 99.7262 501.334 100.575 502.281C101.423 503.227 102.458 503.989 103.615 504.517C104.771 505.046 106.024 505.33 107.295 505.352C107.683 505.377 108.044 505.554 108.301 505.846C108.557 506.137 108.687 506.519 108.662 506.906C108.637 507.293 108.46 507.655 108.168 507.911C107.877 508.167 107.495 508.297 107.108 508.272C105.652 507.865 104.121 507.808 102.639 508.107C101.158 508.405 99.7677 509.051 98.5836 509.99C96.8199 511.67 95.7379 513.941 95.5447 516.369C95.3339 518.808 96.0772 521.234 97.6183 523.136C98.4182 524.05 99.3967 524.792 100.494 525.314C101.59 525.837 102.783 526.13 103.997 526.175C105.206 526.303 106.429 526.186 107.592 525.829C108.755 525.473 109.834 524.885 110.764 524.101C112 523.189 112.991 521.987 113.652 520.601C114.312 519.215 114.621 517.687 114.551 516.153C114.563 515.97 114.614 515.791 114.7 515.629C114.786 515.467 114.905 515.325 115.05 515.212C115.195 515.099 115.362 515.018 115.54 514.974C115.718 514.93 115.903 514.924 116.084 514.957C116.274 514.972 116.46 515.025 116.629 515.113C116.798 515.201 116.948 515.323 117.069 515.47C117.189 515.618 117.279 515.789 117.332 515.972C117.386 516.155 117.401 516.347 117.378 516.537C117.065 517.909 117.074 519.335 117.404 520.704C117.734 522.072 118.375 523.346 119.279 524.426C120.078 525.34 121.057 526.081 122.154 526.604C123.251 527.127 124.443 527.419 125.657 527.465C128.092 527.642 130.506 526.903 132.424 525.391C134.188 523.712 135.27 521.44 135.463 519.013C135.641 516.577 134.901 514.163 133.39 512.245C132.507 511.143 131.387 510.255 130.112 509.648C128.837 509.04 127.442 508.73 126.03 508.739C124.964 508.954 124.25 507.169 124.115 505.178C125.944 504.265 127.572 502.996 128.903 501.445C130.234 499.894 131.241 498.092 131.866 496.146C132.49 494.199 132.719 492.148 132.538 490.112C132.358 488.076 131.772 486.096 130.815 484.29C127.554 479.328 122.739 475.587 117.125 473.652C111.51 471.718 105.413 471.7 99.7871 473.6C94.0607 475.827 88.9819 479.45 85.0129 484.14C82.0034 487.164 77.9703 488.952 73.7082 489.15C69.4462 489.348 65.2646 487.942 61.9876 485.21C61.0014 484.725 60.1205 484.049 59.3952 483.223C58.67 482.397 58.1145 481.437 57.7606 480.396C57.4067 479.355 57.2613 478.255 57.3326 477.158C57.4039 476.061 57.6907 474.989 58.1764 474.003C58.7234 475.441 59.8038 476.613 61.1929 477.275C62.582 477.937 64.1728 478.037 65.6342 477.556C67.0897 477.032 68.2795 475.955 68.9449 474.558C69.6102 473.162 69.6974 471.559 69.1873 470.098C68.5082 468.143 67.2386 466.446 65.554 465.242C63.8693 464.039 61.8526 463.387 59.7822 463.379C57.7118 463.37 55.6897 464.004 53.9951 465.194C52.3005 466.383 51.0169 468.07 50.3215 470.02C49.0372 473.026 48.6799 476.347 49.2954 479.558C49.9109 482.768 51.4711 485.722 53.7761 488.04C59.6775 494.766 67.51 499.506 76.2051 501.616C75.3674 509.958 77.1153 518.355 81.2117 525.67C85.3082 532.984 91.555 538.862 99.1053 542.507C104.029 544.961 109.433 546.303 114.933 546.436C115.432 549.684 115.866 552.058 116.567 555.642C116.928 559.055 118.4 562.255 120.758 564.749C123.116 567.243 126.229 568.893 129.616 569.445C131.558 569.839 133.571 569.695 135.437 569.029C137.303 568.362 138.951 567.198 140.204 565.662C141.456 564.127 142.265 562.278 142.542 560.316C142.82 558.354 142.556 556.353 141.779 554.53C141.162 553.173 140.033 552.114 138.639 551.585C137.244 551.056 135.697 551.1 134.335 551.706C133.65 551.991 133.03 552.411 132.51 552.94C131.991 553.469 131.583 554.097 131.31 554.787C131.038 555.477 130.906 556.214 130.924 556.956C130.942 557.697 131.108 558.427 131.413 559.103C132.048 561.814 127.931 562.622 126.515 559.78C125.363 556.726 125.34 553.361 126.449 550.291C127.558 547.222 129.727 544.649 132.566 543.037C141.551 539.447 148.744 532.438 152.566 523.549C153.921 520.693 154.878 517.665 155.409 514.549C156.102 512.389 157.575 510.565 159.539 509.431C161.504 508.297 163.821 507.935 166.038 508.416C169.253 508.743 170.247 512.468 167.537 513.103C166.793 513.117 166.059 513.281 165.379 513.584C164.7 513.888 164.088 514.325 163.581 514.871C163.075 515.416 162.683 516.057 162.429 516.757C162.175 517.457 162.065 518.2 162.105 518.944C162.205 520.443 162.877 521.848 163.982 522.867C165.087 523.886 166.541 524.443 168.044 524.422C170.023 524.343 171.943 523.726 173.596 522.635C175.25 521.545 176.574 520.024 177.426 518.236C178.277 516.448 178.625 514.461 178.43 512.491C178.235 510.52 177.505 508.64 176.319 507.053C174.516 504.297 171.861 502.205 168.759 501.097C165.657 499.989 162.278 499.924 159.137 500.914L155.847 501.754C154.91 494.996 152.169 488.615 147.91 483.284C140.837 474.375 130.24 464.27 121.368 452.819L112.476 468.449M331.598 572.847L338.134 556.095C323.652 556.419 309.221 554.36 297.753 554.675C290.93 554.727 284.247 556.617 278.409 560.148L276.891 557.017C275.692 553.969 273.528 551.397 270.73 549.695C267.932 547.992 264.654 547.252 261.396 547.587C259.417 547.666 257.497 548.284 255.844 549.374C254.191 550.464 252.866 551.985 252.015 553.773C251.163 555.561 250.816 557.548 251.011 559.519C251.206 561.49 251.935 563.37 253.121 564.956C254.052 566.137 255.4 566.915 256.888 567.131C258.375 567.347 259.889 566.984 261.117 566.117C261.719 565.679 262.227 565.125 262.611 564.488C262.995 563.85 263.246 563.141 263.35 562.404C263.454 561.667 263.408 560.917 263.216 560.198C263.024 559.479 262.689 558.806 262.231 558.219C261.016 555.714 264.241 554 266.815 556.43C267.769 557.229 268.549 558.213 269.109 559.324C269.668 560.435 269.995 561.648 270.068 562.89C270.142 564.131 269.961 565.374 269.537 566.543C269.113 567.713 268.455 568.783 267.603 569.688C265.518 572.064 263.769 574.715 262.404 577.566C257.909 586.134 256.998 596.136 259.871 605.376C260.413 608.603 259.771 611.918 258.065 614.711C256.358 617.503 253.701 619.586 250.582 620.576C247.582 621.314 245.381 618.098 248.12 616.393C248.82 616.154 249.465 615.778 250.017 615.287C250.569 614.795 251.018 614.198 251.336 613.53C251.654 612.863 251.835 612.138 251.869 611.4C251.903 610.661 251.789 609.923 251.533 609.23C251.146 607.79 250.205 606.561 248.916 605.811C247.626 605.062 246.093 604.852 244.65 605.228C242.748 605.766 241.028 606.813 239.676 608.255C238.325 609.698 237.392 611.481 236.979 613.415C236.565 615.348 236.687 617.357 237.331 619.226C237.975 621.096 239.116 622.754 240.632 624.023C243.206 626.32 246.462 627.709 249.901 627.977C253.34 628.245 256.772 627.378 259.67 625.508C262.895 623.794 265.013 622.635 267.85 620.977C271.392 625.139 275.804 628.474 280.774 630.746C288.452 634.625 297.158 635.982 305.652 634.625C314.147 633.267 321.996 629.264 328.083 623.186C335.199 628.609 343.815 631.705 352.756 632.051C356.008 632.381 359.285 631.732 362.166 630.187C365.047 628.642 367.401 626.273 368.927 623.381C370.003 621.613 370.504 619.553 370.36 617.488C370.216 615.423 369.435 613.453 368.124 611.85C366.813 610.248 365.037 609.092 363.041 608.542C361.045 607.992 358.927 608.075 356.98 608.78C355.525 609.304 354.335 610.381 353.67 611.778C353.004 613.174 352.917 614.777 353.427 616.237C353.974 617.676 355.054 618.847 356.444 619.509C357.833 620.171 359.423 620.272 360.885 619.791C360.425 620.789 359.773 621.687 358.966 622.434C358.159 623.18 357.213 623.76 356.182 624.141C355.151 624.522 354.055 624.696 352.956 624.653C351.858 624.61 350.779 624.351 349.78 623.891C345.594 623.068 341.868 620.706 339.337 617.271C336.806 613.837 335.653 609.578 336.105 605.336C337.247 599.299 336.861 593.072 334.983 587.222C332.899 581.667 329.04 576.954 324.005 573.815C318.97 570.676 313.039 569.286 307.134 569.86C305.139 570.279 303.247 571.09 301.567 572.244C299.888 573.398 298.453 574.873 297.347 576.585C296.24 578.297 295.484 580.211 295.121 582.216C294.758 584.222 294.795 586.279 295.232 588.27C293.601 589.419 291.764 589.989 291.26 589.026C290.377 587.924 289.257 587.036 287.982 586.429C286.707 585.821 285.312 585.511 283.9 585.52C281.458 585.554 279.118 586.501 277.338 588.173C276.424 588.973 275.682 589.951 275.16 591.048C274.637 592.145 274.344 593.337 274.299 594.551C274.334 596.993 275.28 599.333 276.952 601.113C277.752 602.027 278.731 602.769 279.828 603.291C280.924 603.814 282.117 604.107 283.331 604.152C284.738 604.173 286.132 603.869 287.402 603.263C288.673 602.657 289.786 601.765 290.654 600.658C290.787 600.52 290.946 600.411 291.122 600.337C291.298 600.263 291.487 600.225 291.678 600.226C291.868 600.227 292.057 600.267 292.232 600.343C292.407 600.418 292.565 600.529 292.697 600.668C292.836 600.787 292.948 600.935 293.026 601.101C293.104 601.267 293.146 601.448 293.15 601.631C293.153 601.815 293.118 601.997 293.046 602.166C292.975 602.335 292.868 602.487 292.734 602.612C291.587 603.371 290.621 604.375 289.907 605.551C289.193 606.727 288.747 608.046 288.601 609.414C288.455 610.782 288.613 612.166 289.064 613.466C289.514 614.766 290.246 615.95 291.207 616.935C292.007 617.849 292.986 618.591 294.083 619.113C295.179 619.636 296.371 619.929 297.586 619.974C300.034 619.972 302.386 619.021 304.147 617.321C305.911 615.641 306.993 613.37 307.186 610.942C307.17 609.431 306.796 607.945 306.094 606.606C305.392 605.267 304.384 604.114 303.15 603.24C302.887 602.955 302.748 602.577 302.763 602.189C302.778 601.801 302.947 601.435 303.232 601.172C303.517 600.909 303.896 600.77 304.283 600.785C304.671 600.8 305.037 600.969 305.3 601.254C306.07 602.359 307.072 603.282 308.236 603.959C309.4 604.636 310.698 605.05 312.038 605.173C313.379 605.295 314.731 605.123 315.998 604.669C317.265 604.215 318.418 603.489 319.376 602.542C321.139 600.863 322.221 598.592 322.415 596.164C322.425 593.714 321.472 591.357 319.762 589.602C318.962 588.688 317.983 587.947 316.886 587.424C315.789 586.901 314.597 586.609 313.383 586.564C311.992 586.537 310.613 586.83 309.351 587.419C308.09 588.007 306.98 588.876 306.106 589.959C305.498 591.235 303.097 590.211 301.172 588.692C300.701 581.846 302.805 577.43 310.277 576.656C313.953 576.944 317.495 578.162 320.57 580.196C323.645 582.23 326.152 585.012 327.856 588.282C329.221 591.733 329.821 595.439 329.615 599.145C329.408 602.85 328.4 606.467 326.66 609.745C324.962 613.445 322.54 616.766 319.536 619.513C316.531 622.26 313.007 624.376 309.171 625.736C305.334 627.097 301.264 627.674 297.2 627.433C293.137 627.193 289.163 626.139 285.514 624.336C278.154 620.822 272.49 614.529 269.768 606.841C267.086 599.149 267.518 590.712 270.974 583.335C273.156 578.49 276.512 574.266 280.738 571.044C284.963 567.823 289.926 565.706 295.176 564.885C305.851 563.229 316.771 565.287 326.112 570.715C328.072 571.953 329.964 573.296 331.779 574.739M537.229 126.602C538.992 124.923 540.074 122.651 540.267 120.224C540.478 117.785 539.735 115.359 538.194 113.457C537.394 112.542 536.415 111.801 535.319 111.278C534.222 110.756 533.03 110.463 531.815 110.418C530.605 110.269 529.377 110.377 528.211 110.735C527.045 111.092 525.968 111.69 525.048 112.491C523.798 113.389 522.795 114.589 522.133 115.979C521.471 117.368 521.171 118.903 521.261 120.439C521.249 120.623 521.198 120.801 521.112 120.963C521.026 121.125 520.907 121.267 520.762 121.38C520.617 121.493 520.451 121.574 520.272 121.618C520.094 121.662 519.909 121.668 519.728 121.635C519.578 121.437 519.483 121.202 519.453 120.955C519.422 120.708 519.458 120.458 519.556 120.229C519.868 118.856 519.86 117.43 519.53 116.062C519.2 114.693 518.559 113.419 517.655 112.34C516.855 111.425 515.877 110.684 514.78 110.162C513.683 109.639 512.491 109.346 511.277 109.301C508.841 109.123 506.427 109.863 504.509 111.375C503.595 112.174 502.854 113.153 502.331 114.25C501.808 115.347 501.516 116.539 501.471 117.753C501.293 120.188 502.033 122.602 503.544 124.52C504.426 125.622 505.547 126.511 506.822 127.118C508.096 127.725 509.492 128.036 510.904 128.027C511.969 127.812 512.684 129.597 512.819 131.588C510.998 132.503 509.376 133.77 508.048 135.315C506.719 136.861 505.709 138.654 505.077 140.592C504.445 142.529 504.203 144.573 504.365 146.605C504.526 148.636 505.089 150.616 506.02 152.429C509.295 157.377 514.11 161.107 519.72 163.039C525.33 164.972 531.421 165 537.048 163.118C542.775 160.892 547.854 157.269 551.823 152.579C554.832 149.554 558.865 147.767 563.127 147.569C567.389 147.371 571.571 148.777 574.848 151.509C575.834 151.994 576.715 152.669 577.44 153.495C578.166 154.321 578.721 155.282 579.075 156.323C579.429 157.364 579.574 158.464 579.503 159.561C579.432 160.658 579.145 161.73 578.659 162.716C578.112 161.278 577.032 160.106 575.643 159.444C574.254 158.782 572.663 158.681 571.201 159.163C569.746 159.687 568.556 160.764 567.891 162.161C567.225 163.557 567.138 165.16 567.648 166.62C568.327 168.576 569.597 170.273 571.282 171.477C572.966 172.68 574.983 173.331 577.053 173.34C579.124 173.349 581.146 172.714 582.84 171.525C584.535 170.335 585.819 168.649 586.514 166.699C587.798 163.693 588.156 160.372 587.54 157.161C586.925 153.95 585.364 150.997 583.059 148.679C577.527 141.558 569.918 136.334 561.285 133.729C562.125 125.369 560.367 116.953 556.252 109.628C552.136 102.303 545.863 96.4238 538.287 92.7917C533.32 90.3881 527.883 89.1134 522.366 89.0591C521.866 85.8111 521.432 83.4371 520.732 79.8526C520.358 76.4234 518.869 73.2117 516.494 70.71C514.119 68.2082 510.989 66.5548 507.584 66.0031C505.644 65.6251 503.637 65.7834 501.78 66.4611C499.922 67.1388 498.285 68.3101 497.044 69.849C495.803 71.3879 495.006 73.236 494.737 75.1946C494.468 77.1531 494.739 79.1479 495.519 80.9642C496.137 82.3217 497.265 83.3803 498.66 83.9093C500.054 84.4383 501.601 84.3948 502.963 83.7883C503.663 83.5498 504.308 83.1736 504.86 82.682C505.413 82.1904 505.861 81.5932 506.179 80.9258C506.497 80.2583 506.678 79.5339 506.712 78.7953C506.746 78.0567 506.632 77.3188 506.376 76.625C505.741 73.9145 509.858 73.1068 511.176 75.9017C512.233 79.0332 512.113 82.4428 510.838 85.492C509.562 88.5412 507.219 91.0209 504.247 92.4667C495.262 96.0568 488.068 103.066 484.246 111.954C482.9 114.814 481.944 117.841 481.403 120.954C481.215 122.185 480.778 123.365 480.117 124.42C479.457 125.476 478.587 126.385 477.563 127.092C476.538 127.799 475.379 128.289 474.158 128.532C472.937 128.775 471.679 128.765 470.461 128.504C467.246 128.176 466.252 124.452 468.962 123.817C470.456 123.759 471.866 123.112 472.884 122.018C473.902 120.923 474.445 119.47 474.394 117.976C474.294 116.476 473.622 115.072 472.517 114.053C471.412 113.033 469.958 112.477 468.455 112.498C466.476 112.576 464.556 113.194 462.903 114.284C461.249 115.375 459.925 116.896 459.073 118.684C458.222 120.472 457.874 122.458 458.069 124.429C458.264 126.4 458.994 128.28 460.18 129.866C461.972 132.608 464.612 134.687 467.697 135.788C470.782 136.888 474.142 136.948 477.264 135.959L480.652 135.166C481.589 141.924 484.33 148.305 488.589 153.636C495.662 162.544 506.259 172.65 515.131 184.101L524.023 168.471C521.759 167.971 519.523 167.348 517.327 166.605C507.227 162.771 498.749 155.587 493.31 146.253C490.64 141.659 489.158 136.472 488.997 131.16C488.837 125.849 490.003 120.582 492.391 115.835C494.119 112.174 496.554 108.89 499.554 106.171C502.554 103.453 506.062 101.354 509.876 99.9938C513.689 98.6339 517.734 98.0402 521.777 98.2468C525.821 98.4535 529.784 99.4563 533.439 101.198C537.138 102.895 540.46 105.318 543.207 108.322C545.953 111.326 548.07 114.851 549.43 118.687C550.791 122.524 551.368 126.594 551.127 130.657C550.887 134.721 549.834 138.695 548.03 142.344C546.581 145.76 544.407 148.822 541.659 151.317C538.911 153.812 535.655 155.681 532.115 156.795C528.502 157.531 524.762 157.337 521.245 156.23C517.729 155.123 514.551 153.14 512.012 150.467C507.671 144.667 510.056 139.663 515.814 135.664C517.875 136.645 520.033 137.674 519.715 138.847C519.425 140.208 519.449 141.617 519.787 142.968C520.124 144.318 520.766 145.573 521.663 146.637C522.463 147.552 523.441 148.293 524.538 148.816C525.635 149.339 526.827 149.631 528.041 149.676C530.481 149.899 532.912 149.154 534.808 147.603C536.572 145.923 537.654 143.652 537.847 141.225C537.979 139.885 537.816 138.532 537.371 137.262C536.925 135.991 536.207 134.833 535.267 133.869C534.327 132.906 533.188 132.159 531.929 131.681C530.67 131.204 529.322 131.007 527.979 131.105C527.592 131.08 527.23 130.902 526.974 130.611C526.718 130.32 526.588 129.938 526.613 129.551C526.638 129.164 526.815 128.802 527.107 128.546C527.398 128.29 527.779 128.16 528.167 128.184C529.622 128.592 531.154 128.649 532.635 128.35C534.117 128.051 535.507 127.406 536.691 126.466M572.852 304.791L556.287 297.862C556.611 312.344 554.552 326.775 554.868 338.243C554.919 345.066 556.81 351.748 560.341 357.586L557.256 359.006C554.193 360.217 551.609 362.396 549.899 365.211C548.188 368.026 547.444 371.322 547.781 374.599C547.859 376.578 548.477 378.498 549.567 380.151C550.657 381.804 552.178 383.129 553.966 383.98C555.754 384.832 557.741 385.18 559.712 384.985C561.683 384.79 563.563 384.06 565.149 382.874C566.33 381.943 567.108 380.595 567.324 379.108C567.54 377.62 567.177 376.106 566.31 374.878C565.873 374.276 565.319 373.768 564.681 373.384C564.043 373.001 563.335 372.749 562.598 372.645C561.861 372.541 561.11 372.587 560.391 372.779C559.672 372.971 558.999 373.307 558.412 373.765C555.907 374.979 554.193 371.754 556.623 369.18C557.447 368.282 558.443 367.558 559.551 367.051C560.659 366.543 561.858 366.263 563.076 366.226C564.294 366.189 565.507 366.397 566.644 366.837C567.781 367.276 568.818 367.939 569.695 368.785C572.071 370.87 574.721 372.619 577.573 373.984C586.141 378.479 596.143 379.39 605.383 376.518C608.602 375.981 611.908 376.613 614.703 378.298C617.499 379.983 619.6 382.611 620.63 385.708C621.321 388.807 618.105 391.007 616.4 388.268C616.005 386.819 615.05 385.586 613.746 384.84C612.441 384.094 610.894 383.897 609.445 384.292C607.995 384.687 606.762 385.642 606.016 386.946C605.27 388.251 605.074 389.798 605.469 391.248C606.014 393.153 607.069 394.873 608.521 396.221C609.972 397.57 611.765 398.496 613.705 398.9C615.645 399.304 617.659 399.169 619.528 398.511C621.397 397.854 623.051 396.697 624.31 395.168C626.594 392.605 627.971 389.363 628.231 385.941C628.491 382.518 627.619 379.106 625.749 376.227L621.217 368.048C625.405 364.48 628.756 360.035 631.034 355.026C634.601 347.44 635.749 338.939 634.322 330.678C632.895 322.417 628.962 314.794 623.056 308.844C628.48 301.728 631.575 293.112 631.922 284.171C632.251 280.919 631.602 277.642 630.057 274.761C628.512 271.88 626.142 269.526 623.251 268C621.482 266.924 619.423 266.423 617.358 266.567C615.292 266.711 613.323 267.492 611.72 268.803C610.118 270.114 608.962 271.89 608.412 273.886C607.862 275.882 607.945 278 608.65 279.947C609.174 281.402 610.251 282.592 611.648 283.257C613.044 283.923 614.647 284.01 616.107 283.5C617.546 282.953 618.717 281.872 619.379 280.483C620.041 279.094 620.142 277.504 619.661 276.042C620.659 276.502 621.557 277.154 622.304 277.961C623.05 278.768 623.63 279.714 624.011 280.745C624.392 281.776 624.566 282.872 624.523 283.971C624.48 285.069 624.221 286.148 623.761 287.146C622.938 291.333 620.576 295.059 617.141 297.59C613.707 300.121 609.448 301.274 605.206 300.821C599.169 299.679 592.942 300.065 587.092 301.944C581.526 304.012 576.802 307.867 573.661 312.906C570.519 317.945 569.137 323.884 569.73 329.792C570.125 331.798 570.917 333.704 572.06 335.399C573.203 337.094 574.673 338.543 576.384 339.661C578.095 340.779 580.012 341.544 582.024 341.91C584.035 342.276 586.098 342.236 588.094 341.792C589.243 343.423 589.813 345.26 588.85 345.764C587.813 346.459 586.925 347.355 586.24 348.398C585.554 349.442 585.085 350.612 584.859 351.84C584.633 353.068 584.655 354.328 584.924 355.547C585.194 356.766 585.705 357.919 586.427 358.938C588.106 360.701 590.377 361.783 592.805 361.977C595.247 361.942 597.587 360.996 599.367 359.324C600.281 358.524 601.023 357.545 601.545 356.448C602.068 355.352 602.361 354.16 602.406 352.945C602.427 351.538 602.123 350.145 601.517 348.874C600.911 347.604 600.019 346.491 598.912 345.622C598.774 345.489 598.665 345.33 598.591 345.154C598.517 344.978 598.479 344.789 598.48 344.599C598.481 344.408 598.521 344.219 598.596 344.044C598.672 343.869 598.783 343.711 598.921 343.58C599.014 343.381 599.156 343.209 599.333 343.079C599.51 342.949 599.717 342.867 599.934 342.838C600.152 342.81 600.373 342.837 600.578 342.917C600.782 342.996 600.963 343.127 601.104 343.295C602.016 344.53 603.218 345.522 604.604 346.183C605.991 346.843 607.518 347.152 609.052 347.082C610.268 347.105 611.477 346.882 612.604 346.426C613.732 345.97 614.756 345.291 615.614 344.429C616.529 343.629 617.27 342.651 617.792 341.554C618.315 340.457 618.608 339.265 618.653 338.051C618.651 335.602 617.7 333.25 616 331.489C614.32 329.725 612.049 328.643 609.621 328.45C608.11 328.466 606.624 328.841 605.285 329.542C603.946 330.244 602.793 331.253 601.919 332.486C601.66 332.65 601.354 332.725 601.048 332.7C600.742 332.675 600.452 332.551 600.223 332.346C599.994 332.142 599.837 331.868 599.778 331.567C599.718 331.266 599.758 330.954 599.891 330.677C600.996 329.907 601.919 328.905 602.596 327.741C603.273 326.578 603.687 325.28 603.809 323.939C603.932 322.598 603.76 321.247 603.306 319.979C602.852 318.712 602.126 317.559 601.179 316.602C599.5 314.838 597.229 313.756 594.801 313.563C592.35 313.553 589.994 314.506 588.239 316.216C587.324 317.016 586.583 317.994 586.061 319.091C585.538 320.188 585.245 321.38 585.2 322.594C585.174 323.986 585.467 325.365 586.055 326.626C586.644 327.887 587.513 328.997 588.596 329.871C589.872 330.479 588.848 332.88 587.329 334.806C580.482 335.276 576.067 333.172 575.292 325.7C575.604 322.18 576.769 318.79 578.687 315.822C580.604 312.855 583.216 310.399 586.296 308.668C589.778 307.345 593.509 306.81 597.222 307.101C600.934 307.392 604.537 308.502 607.77 310.35C611.461 312.044 614.775 314.46 617.518 317.455C620.262 320.45 622.378 323.963 623.742 327.789C625.106 331.614 625.69 335.674 625.461 339.728C625.232 343.783 624.194 347.751 622.408 351.398C618.884 358.751 612.595 364.411 604.912 367.143C597.22 369.826 588.784 369.393 581.406 365.937C576.561 363.755 572.337 360.399 569.116 356.173C565.894 351.948 563.777 346.985 562.956 341.735C561.3 331.06 563.358 320.14 568.785 310.8C569.979 308.81 571.324 306.915 572.81 305.132M509.79 537.223C511.47 538.987 513.741 540.069 516.169 540.262C518.608 540.473 521.034 539.73 522.936 538.189C523.851 537.389 524.592 536.411 525.114 535.314C525.637 534.217 525.93 533.025 525.975 531.811C526.101 530.441 525.923 529.059 525.454 527.766C524.985 526.473 524.236 525.299 523.261 524.328C522.286 523.357 521.108 522.614 519.813 522.151C518.517 521.688 517.135 521.516 515.766 521.649C515.583 521.637 515.404 521.586 515.242 521.5C515.08 521.414 514.938 521.295 514.825 521.15C514.712 521.005 514.631 520.838 514.587 520.66C514.543 520.482 514.537 520.296 514.57 520.116C514.584 519.926 514.637 519.74 514.726 519.571C514.814 519.402 514.936 519.252 515.083 519.131C515.231 519.01 515.401 518.921 515.585 518.867C515.768 518.814 515.96 518.799 516.15 518.822C517.522 519.134 518.948 519.126 520.317 518.796C521.685 518.466 522.959 517.825 524.038 516.921C524.953 516.121 525.694 515.143 526.217 514.046C526.739 512.949 527.032 511.757 527.077 510.543C527.255 508.108 526.515 505.694 525.004 503.776C523.784 502.27 522.121 501.185 520.251 500.676C518.381 500.166 516.398 500.258 514.583 500.938C512.768 501.617 511.212 502.851 510.137 504.463C509.061 506.076 508.52 507.985 508.59 509.922C508.805 510.988 507.019 511.703 505.029 511.838C504.113 510.017 502.846 508.395 501.301 507.066C499.756 505.737 497.962 504.727 496.025 504.095C494.087 503.463 492.043 503.221 490.012 503.383C487.98 503.545 486 504.107 484.187 505.038C479.239 508.313 475.51 513.128 473.577 518.738C471.644 524.348 471.617 530.439 473.498 536.066C475.725 541.793 479.348 546.871 484.038 550.84C487.063 553.85 488.85 557.883 489.048 562.145C489.246 566.407 487.841 570.589 485.108 573.866C484.623 574.852 483.948 575.733 483.122 576.458C482.296 577.183 481.335 577.738 480.294 578.092C479.253 578.446 478.153 578.592 477.056 578.52C475.959 578.449 474.887 578.162 473.901 577.676C475.339 577.13 476.511 576.049 477.173 574.66C477.835 573.271 477.936 571.68 477.454 570.219C476.93 568.763 475.853 567.574 474.456 566.908C473.06 566.243 471.457 566.156 469.996 566.666C468.041 567.345 466.344 568.614 465.14 570.299C463.937 571.984 463.286 574 463.277 576.071C463.268 578.141 463.902 580.163 465.092 581.858C466.282 583.552 467.968 584.836 469.918 585.531C472.924 586.816 476.246 587.173 479.456 586.558C482.667 585.942 485.621 584.382 487.939 582.077C494.664 576.176 499.405 568.343 501.514 559.648C509.874 560.488 518.29 558.731 525.616 554.615C532.941 550.5 538.82 544.227 542.452 536.651C544.88 531.754 546.205 526.385 546.334 520.922L555.54 519.288C558.97 518.914 562.181 517.425 564.683 515.051C567.185 512.676 568.838 509.546 569.39 506.14C569.768 504.2 569.609 502.193 568.932 500.336C568.254 498.479 567.083 496.842 565.544 495.601C564.005 494.36 562.157 493.562 560.198 493.293C558.239 493.025 556.245 493.295 554.428 494.076C553.054 494.682 551.976 495.81 551.433 497.211C550.89 498.611 550.925 500.171 551.532 501.545C552.138 502.92 553.266 503.997 554.667 504.541C556.068 505.084 557.627 505.048 559.002 504.442C561.712 503.807 562.52 507.924 559.678 509.34C556.624 510.492 553.259 510.515 550.189 509.406C547.12 508.296 544.547 506.127 542.935 503.289C539.345 494.304 532.336 487.11 523.447 483.288C520.591 481.933 517.563 480.977 514.447 480.445C513.216 480.257 512.036 479.82 510.981 479.159C509.925 478.499 509.016 477.629 508.309 476.604C507.602 475.58 507.112 474.421 506.869 473.2C506.626 471.979 506.636 470.721 506.897 469.503C507.225 466.288 510.949 465.294 511.584 468.004C511.598 468.749 511.762 469.482 512.066 470.162C512.369 470.841 512.807 471.453 513.352 471.96C513.897 472.467 514.538 472.859 515.238 473.112C515.938 473.366 516.682 473.476 517.425 473.436C518.925 473.336 520.329 472.664 521.348 471.559C522.368 470.454 522.924 469 522.903 467.497C522.825 465.518 522.207 463.599 521.117 461.945C520.026 460.292 518.505 458.968 516.717 458.116C514.929 457.264 512.943 456.917 510.972 457.112C509.001 457.307 507.121 458.036 505.534 459.222C502.793 461.014 500.713 463.654 499.613 466.739C498.513 469.824 498.453 473.184 499.442 476.306L500.235 479.694C493.477 480.63 487.096 483.372 481.765 487.63C472.857 494.704 462.751 505.3 451.3 514.172L466.93 523.064C467.378 520.787 468.002 518.548 468.796 516.368C472.63 506.268 479.814 497.791 489.148 492.352C493.742 489.682 498.93 488.199 504.241 488.039C509.552 487.879 514.82 489.045 519.566 491.433C526.898 494.985 532.549 501.264 535.312 508.928C538.03 516.615 537.597 525.065 534.106 532.434C532.399 536.119 529.972 539.425 526.967 542.157C523.963 544.89 520.442 546.993 516.612 548.344C512.782 549.694 508.72 550.265 504.666 550.021C500.612 549.778 496.648 548.725 493.007 546.926C489.941 545.501 487.187 543.484 484.903 540.991C482.62 538.498 480.851 535.578 479.7 532.399C478.964 528.787 479.158 525.046 480.265 521.53C481.371 518.013 483.354 514.836 486.027 512.296C491.827 507.956 496.734 510.294 500.831 516.099C499.849 518.159 498.821 520.318 497.648 520C496.287 519.709 494.877 519.734 493.527 520.071C492.177 520.409 490.922 521.05 489.857 521.947C488.943 522.747 488.201 523.726 487.679 524.822C487.156 525.919 486.863 527.111 486.818 528.326C486.596 530.766 487.341 533.196 488.892 535.093C490.571 536.856 492.843 537.938 495.27 538.132C496.584 538.28 497.915 538.145 499.172 537.735C500.429 537.326 501.583 536.651 502.557 535.757C503.531 534.862 504.302 533.77 504.817 532.552C505.332 531.334 505.58 530.02 505.544 528.699C505.569 528.311 505.747 527.95 506.038 527.693C506.33 527.437 506.711 527.307 507.098 527.332C507.485 527.357 507.847 527.535 508.103 527.826C508.36 528.118 508.49 528.499 508.465 528.886C508.057 530.342 508.001 531.873 508.299 533.355C508.598 534.837 509.243 536.226 510.183 537.41M239.433 45.2814C239.747 42.6712 239.184 40.0308 237.832 37.7759C236.73 36.2807 235.283 35.0741 233.614 34.2587C231.946 33.4433 230.105 33.0434 228.248 33.093C226.391 33.1427 224.574 33.6404 222.952 34.5437C221.329 35.4471 219.949 36.7294 218.928 38.2813C217.907 39.8952 217.266 41.7198 217.053 43.6177C216.841 45.5155 217.062 47.4368 217.7 49.2368C218.338 51.0367 219.377 52.6681 220.738 54.0079C222.099 55.3476 223.746 56.3608 225.556 56.9709L227.719 63.0587M56.9749 410.82L63.0598 408.662C62.4519 412.337 60.8594 415.779 58.4469 418.617C56.0345 421.454 52.896 423.583 49.3671 424.774C46.3631 425.499 43.2228 425.434 40.2508 424.588C37.2788 423.742 34.5759 422.142 32.4042 419.943M56.9749 410.82C55.361 409.799 53.5301 409.157 51.6323 408.944C49.7344 408.731 47.8131 408.952 46.0132 409.59C44.2133 410.229 42.5819 411.267 41.2421 412.628C39.9023 413.989 38.8891 415.637 38.2791 417.446M56.9749 410.82C56.3648 412.63 55.3478 414.277 54.008 415.638C52.6682 416.999 51.0368 418.038 49.2369 418.676C47.437 419.315 45.5156 419.536 43.6178 419.323C41.7199 419.11 39.893 418.467 38.2791 417.446M56.4885 429.012C54.7373 430.916 52.3642 432.134 49.7957 432.445C47.9405 432.531 46.0918 432.168 44.4073 431.386C42.7228 430.603 41.2524 429.426 40.1212 427.953C38.9901 426.479 38.2319 424.755 37.9112 422.925C37.5904 421.096 37.7166 419.216 38.2791 417.446M38.2791 417.446C36.3429 416.496 34.8504 414.836 34.1091 412.811C32.9584 410.379 32.6886 407.619 33.3583 405.013C34.028 402.407 35.5886 400.118 37.7693 398.542C40.1988 397.088 43.0625 396.534 45.859 396.978M175.542 116.46L183.701 121.069C190.311 115.418 197.772 110.845 205.808 107.521C222.072 101.183 232.263 84.8479 223.293 70.8217C218.214 65.201 212.56 60.1268 206.426 55.6817M175.542 116.46L168.072 112.18C169.531 104.22 170.353 96.1568 170.53 88.0664C171.758 73.9032 176.549 60.281 184.46 48.4686C191.329 37.4668 201.545 28.9569 213.607 24.1881C225.144 20.5345 237.519 20.4687 249.095 23.9993C263.708 27.997 276.974 35.8565 287.5 46.7518C292.735 52.9233 298.453 58.6673 304.601 63.9294L301.497 71.962C286.614 61.5003 289.312 52.5516 263.687 37.092C258.863 34.0556 253.562 31.8553 248.005 30.5836C237.708 28.6357 227.068 29.6645 217.334 33.5493C206.78 36.618 197.405 42.8143 190.445 51.3206C187.234 55.6592 184.702 60.4617 182.937 65.5629C172.777 93.7121 180.509 98.9594 175.542 116.46ZM225.655 56.7762C226.676 55.1624 227.317 53.3377 227.53 51.4399C227.742 49.5421 227.521 47.6207 226.883 45.8208C226.245 44.0209 225.206 42.3895 223.845 41.0497C222.484 39.7099 220.837 38.6968 219.027 38.0867C217.013 37.1931 214.735 37.0974 212.653 37.819C210.023 38.4719 207.709 40.032 206.115 42.2231C204.52 44.4142 203.749 47.0971 203.937 49.8004C204.218 52.2221 205.306 54.4789 207.025 56.208M401.294 50.5195C404.706 43.358 410.165 37.3692 416.981 33.3103C423.796 29.2514 431.663 27.3047 439.585 27.7165C447.507 28.1282 455.129 30.8799 461.487 35.6235C467.846 40.3672 472.655 46.8897 475.306 54.3663C477.957 61.843 478.332 69.9379 476.383 77.6274C474.434 85.3169 470.248 92.2557 464.355 97.5663C458.462 102.877 451.127 106.321 443.276 107.462C435.426 108.604 427.414 107.392 420.252 103.98C410.649 99.4048 403.256 91.2019 399.701 81.1761C396.145 71.1502 396.718 60.1227 401.294 50.5195ZM385.66 41.3852C384.444 41.3623 383.235 41.5855 382.108 42.0414C380.98 42.4973 379.956 43.1765 379.098 44.0382C378.178 44.8339 377.434 45.8114 376.911 46.9092C376.388 48.0069 376.098 49.2011 376.059 50.4165C376.002 51.6368 376.21 52.8549 376.668 53.9875C377.126 55.12 377.823 56.1402 378.712 56.9783C379.512 57.8928 380.491 58.6341 381.587 59.1567C382.684 59.6793 383.876 59.9721 385.091 60.0172C386.307 60.0401 387.515 59.8169 388.643 59.361C389.77 58.9051 390.794 58.2259 391.652 57.3642C393.416 55.6847 394.498 53.4136 394.691 50.9859C394.657 48.5442 393.71 46.2036 392.038 44.4242C390.359 42.6605 388.087 41.5785 385.66 41.3852ZM85.0233 162.673C77.8617 159.261 69.8492 158.049 61.9989 159.191C54.1486 160.333 46.8133 163.776 40.9204 169.087C35.0275 174.398 30.8417 181.336 28.8924 189.026C26.9431 196.715 27.3178 204.81 29.9692 212.287C32.6206 219.764 37.4295 226.286 43.7878 231.03C50.1461 235.773 57.7683 238.525 65.6905 238.937C73.6127 239.349 81.479 237.402 88.2947 233.343C95.1105 229.284 100.569 223.295 103.981 216.134C108.557 206.531 109.13 195.503 105.575 185.477C102.019 175.451 94.6267 167.249 85.0233 162.673ZM162.672 551.362C159.26 558.524 158.049 566.536 159.19 574.386C160.332 582.237 163.776 589.572 169.087 595.465C174.398 601.358 181.336 605.544 189.026 607.493C196.716 609.442 204.811 609.068 212.287 606.416C219.764 603.765 226.287 598.956 231.03 592.598C235.774 586.24 238.525 578.618 238.937 570.696C239.349 562.774 237.402 554.908 233.343 548.092C229.284 541.276 223.295 535.817 216.133 532.405C206.53 527.83 195.502 527.256 185.476 530.812C175.451 534.367 167.248 541.759 162.672 551.362ZM585.865 401.294C593.026 404.706 599.015 410.165 603.074 416.981C607.133 423.797 609.08 431.663 608.669 439.585C608.257 447.507 605.505 455.129 600.762 461.487C596.018 467.845 589.496 472.654 582.019 475.305C574.542 477.957 566.447 478.331 558.758 476.382C551.068 474.433 544.129 470.247 538.818 464.354C533.508 458.461 530.064 451.126 528.922 443.275C527.78 435.425 528.992 427.413 532.404 420.251C536.979 410.648 545.182 403.256 555.208 399.701C565.234 396.145 576.262 396.719 585.865 401.294ZM588.55 435.081C590.491 436.006 592.114 437.485 593.214 439.333C594.314 441.18 594.842 443.311 594.73 445.458C594.619 447.605 593.873 449.671 592.587 451.394C591.302 453.117 589.534 454.42 587.508 455.139C585.482 455.857 583.288 455.959 581.204 455.43C579.12 454.902 577.24 453.768 575.8 452.171C574.361 450.574 573.428 448.586 573.119 446.458C572.809 444.331 573.137 442.16 574.062 440.219C575.302 437.616 577.525 435.613 580.242 434.65C582.959 433.686 585.948 433.841 588.55 435.081ZM585.619 426.821C586.544 424.88 586.872 422.709 586.563 420.581C586.253 418.454 585.32 416.466 583.881 414.869C582.441 413.272 580.561 412.138 578.477 411.61C576.393 411.081 574.199 411.183 572.173 411.901C570.147 412.62 568.379 413.923 567.094 415.646C565.808 417.369 565.063 419.435 564.951 421.582C564.839 423.728 565.367 425.86 566.467 427.707C567.567 429.554 569.19 431.034 571.131 431.959C573.733 433.198 576.722 433.354 579.439 432.39C582.156 431.427 584.379 429.424 585.619 426.821ZM578.325 442.129C577.401 444.07 575.921 445.693 574.074 446.793C572.227 447.893 570.095 448.421 567.948 448.309C565.802 448.198 563.736 447.452 562.013 446.166C560.29 444.881 558.986 443.113 558.268 441.087C557.549 439.061 557.448 436.867 557.976 434.783C558.504 432.699 559.639 430.819 561.236 429.38C562.833 427.941 564.821 427.007 566.948 426.698C569.075 426.388 571.247 426.717 573.188 427.641C575.79 428.881 577.794 431.104 578.757 433.821C579.721 436.538 579.565 439.527 578.325 442.129ZM571.032 457.438C570.107 459.379 568.628 461.002 566.781 462.102C564.934 463.202 562.802 463.729 560.655 463.618C558.508 463.506 556.442 462.76 554.719 461.475C552.996 460.189 551.693 458.422 550.974 456.395C550.256 454.369 550.154 452.176 550.683 450.092C551.211 448.008 552.345 446.127 553.942 444.688C555.539 443.249 557.527 442.316 559.654 442.006C561.782 441.697 563.953 442.025 565.894 442.95C568.497 444.19 570.5 446.413 571.464 449.13C572.427 451.847 572.272 454.835 571.032 457.438ZM557.847 420.453C555.906 419.528 553.734 419.2 551.607 419.509C549.479 419.819 547.491 420.752 545.895 422.191C544.298 423.63 543.163 425.511 542.635 427.595C542.107 429.678 542.208 431.872 542.927 433.898C543.645 435.925 544.948 437.692 546.672 438.978C548.395 440.263 550.46 441.009 552.607 441.121C554.754 441.232 556.886 440.705 558.733 439.605C560.58 438.505 562.06 436.882 562.984 434.941C564.224 432.338 564.38 429.35 563.416 426.633C562.452 423.916 560.449 421.693 557.847 420.453ZM87.7087 196.46C89.6495 197.385 91.2725 198.865 92.3725 200.712C93.4725 202.559 94.0001 204.691 93.8885 206.837C93.7769 208.984 93.0313 211.05 91.7457 212.773C90.4602 214.496 88.6926 215.799 86.6664 216.518C84.6402 217.236 82.4464 217.338 80.3625 216.809C78.2786 216.281 76.3981 215.147 74.9589 213.55C73.5197 211.953 72.5864 209.965 72.2769 207.838C71.9675 205.71 72.2959 203.539 73.2206 201.598C74.4605 198.995 76.6835 196.992 79.4006 196.029C82.1176 195.065 85.1061 195.22 87.7087 196.46ZM196.5 548.575C197.425 546.634 198.904 545.011 200.751 543.911C202.598 542.811 204.73 542.283 206.877 542.395C209.024 542.506 211.09 543.252 212.813 544.538C214.536 545.823 215.839 547.591 216.558 549.617C217.276 551.643 217.378 553.837 216.849 555.921C216.321 558.005 215.187 559.885 213.59 561.324C211.993 562.764 210.005 563.697 207.877 564.006C205.75 564.316 203.579 563.987 201.638 563.063C199.035 561.823 197.032 559.6 196.068 556.883C195.105 554.166 195.26 551.177 196.5 548.575ZM420.488 78.4469C419.563 80.3877 419.235 82.5591 419.544 84.6865C419.853 86.8139 420.787 88.8018 422.226 90.3988C423.665 91.9958 425.546 93.1302 427.63 93.6585C429.714 94.1867 431.907 94.0852 433.933 93.3667C435.96 92.6482 437.727 91.345 439.013 89.6219C440.298 87.8989 441.044 85.8333 441.156 83.6864C441.267 81.5395 440.74 79.4077 439.64 77.5606C438.54 75.7135 436.917 74.2341 434.976 73.3094C432.373 72.0695 429.385 71.9141 426.668 72.8776C423.951 73.8411 421.728 75.8444 420.488 78.4469ZM435.215 47.5353C436.14 45.5945 437.619 43.9716 439.466 42.8716C441.313 41.7716 443.445 41.2441 445.592 41.3557C447.739 41.4672 449.805 42.213 451.528 43.4985C453.251 44.784 454.554 46.5517 455.273 48.5778C455.991 50.604 456.093 52.7978 455.564 54.8816C455.036 56.9655 453.902 58.846 452.305 60.2851C450.708 61.7243 448.72 62.6576 446.593 62.967C444.465 63.2764 442.294 62.948 440.353 62.0233C437.75 60.7834 435.747 58.5604 434.783 55.8433C433.82 53.1263 433.975 50.1378 435.215 47.5353ZM426.832 50.7667C424.892 49.842 422.72 49.5136 420.593 49.823C418.465 50.1324 416.477 51.0657 414.88 52.5049C413.283 53.9441 412.149 55.8245 411.621 57.9084C411.092 59.9923 411.194 62.186 411.913 64.2122C412.631 66.2384 413.934 68.006 415.657 69.2915C417.381 70.5771 419.446 71.3228 421.593 71.4344C423.74 71.546 425.872 71.0184 427.719 69.9184C429.566 68.8185 431.045 67.1955 431.97 65.2547C433.21 62.6522 433.365 59.6637 432.402 56.9467C431.438 54.2297 429.435 52.0066 426.832 50.7667ZM442.127 58.0535C444.067 58.9782 445.69 60.4576 446.79 62.3047C447.89 64.1518 448.418 66.2836 448.307 68.4305C448.195 70.5774 447.449 72.643 446.164 74.3661C444.878 76.0892 443.111 77.3924 441.084 78.1108C439.058 78.8293 436.864 78.9309 434.781 78.4026C432.697 77.8743 430.816 76.7399 429.377 75.1429C427.938 73.5459 427.004 71.558 426.695 69.4306C426.386 67.3032 426.714 65.1318 427.639 63.191C428.879 60.5885 431.102 58.5852 433.819 57.6217C436.536 56.6582 439.524 56.8136 442.127 58.0535ZM457.44 65.3495C459.381 66.2742 461.004 67.7536 462.104 69.6007C463.204 71.4478 463.732 73.5795 463.62 75.7265C463.509 77.8734 462.763 79.9389 461.477 81.662C460.192 83.3851 458.424 84.6883 456.398 85.4068C454.372 86.1253 452.178 86.2268 450.094 85.6985C448.01 85.1702 446.13 84.0359 444.69 82.4389C443.251 80.8419 442.318 78.854 442.008 76.7266C441.699 74.5992 442.027 72.4278 442.952 70.487C444.192 67.8845 446.415 65.8811 449.132 64.9177C451.849 63.9542 454.838 64.1095 457.44 65.3495ZM56.7942 181.732C54.8534 180.807 52.6819 180.478 50.5545 180.788C48.427 181.097 46.4391 182.031 44.8421 183.47C43.2451 184.909 42.1108 186.789 41.5825 188.873C41.0543 190.957 41.1558 193.151 41.8744 195.177C42.5929 197.203 43.8961 198.971 45.6192 200.256C47.3423 201.542 49.408 202.288 51.5549 202.399C53.7018 202.511 55.8336 201.983 57.6807 200.883C59.5278 199.783 61.0072 198.16 61.9319 196.22C63.1718 193.617 63.3271 190.629 62.3636 187.912C61.4001 185.194 59.3967 182.971 56.7942 181.732ZM65.3432 178.941C66.2679 177 67.7473 175.377 69.5944 174.277C71.4415 173.177 73.5733 172.65 75.7202 172.761C77.8671 172.873 79.9328 173.619 81.6559 174.904C83.379 176.19 84.6823 177.957 85.4008 179.983C86.1193 182.01 86.2209 184.203 85.6926 186.287C85.1643 188.371 84.03 190.252 82.433 191.691C80.836 193.13 78.8481 194.063 76.7206 194.373C74.5932 194.682 72.4218 194.354 70.481 193.429C67.8784 192.189 65.875 189.966 64.9115 187.249C63.948 184.532 64.1033 181.543 65.3432 178.941ZM58.0497 194.249C57.125 196.19 56.7966 198.362 57.1061 200.489C57.4155 202.616 58.3488 204.604 59.7881 206.201C61.2273 207.798 63.1077 208.933 65.1917 209.461C67.2756 209.989 69.4693 209.888 71.4955 209.169C73.5217 208.451 75.2893 207.148 76.5749 205.424C77.8604 203.701 78.6061 201.636 78.7176 199.489C78.8292 197.342 78.3016 195.21 77.2016 193.363C76.1016 191.516 74.4786 190.037 72.5378 189.112C69.9352 187.872 66.9467 187.717 64.2297 188.68C61.5126 189.644 59.2896 191.647 58.0497 194.249ZM50.7561 209.558C49.8315 211.499 49.5031 213.67 49.8125 215.797C50.1219 217.925 51.0553 219.913 52.4945 221.51C53.9337 223.107 55.8142 224.241 57.8981 224.769C59.982 225.298 62.1758 225.196 64.202 224.478C66.2282 223.759 67.9958 222.456 69.2813 220.733C70.5668 219.01 71.3125 216.944 71.4241 214.797C71.5356 212.65 71.0081 210.519 69.9081 208.672C68.808 206.824 67.185 205.345 65.2442 204.42C62.6417 203.18 59.6531 203.025 56.9361 203.989C54.2191 204.952 51.9961 206.955 50.7561 209.558ZM181.866 579.29C180.941 581.231 180.613 583.402 180.923 585.529C181.232 587.657 182.165 589.645 183.605 591.242C185.044 592.839 186.924 593.973 189.008 594.501C191.092 595.03 193.286 594.928 195.312 594.21C197.338 593.491 199.106 592.188 200.391 590.465C201.677 588.742 202.423 586.676 202.534 584.529C202.646 582.382 202.118 580.251 201.018 578.404C199.918 576.556 198.295 575.077 196.354 574.152C193.752 572.912 190.763 572.757 188.046 573.72C185.329 574.684 183.106 576.687 181.866 579.29ZM178.954 571.039C177.013 570.114 175.39 568.635 174.29 566.787C173.19 564.94 172.663 562.809 172.774 560.662C172.886 558.515 173.631 556.449 174.917 554.726C176.203 553.003 177.97 551.7 179.996 550.981C182.023 550.263 184.216 550.161 186.3 550.69C188.384 551.218 190.265 552.352 191.704 553.949C193.143 555.546 194.076 557.534 194.386 559.661C194.695 561.789 194.367 563.96 193.442 565.901C192.202 568.504 189.979 570.507 187.262 571.47C184.545 572.434 181.557 572.279 178.954 571.039ZM194.248 578.325C196.189 579.25 198.361 579.578 200.488 579.269C202.615 578.96 204.603 578.026 206.2 576.587C207.797 575.148 208.932 573.268 209.46 571.184C209.988 569.1 209.887 566.906 209.168 564.88C208.45 562.854 207.146 561.086 205.423 559.801C203.7 558.515 201.635 557.769 199.488 557.658C197.341 557.546 195.209 558.074 193.362 559.174C191.515 560.274 190.035 561.897 189.111 563.837C187.871 566.44 187.715 569.428 188.679 572.145C189.642 574.862 191.646 577.085 194.248 578.325ZM209.562 585.621C211.503 586.546 213.674 586.874 215.802 586.565C217.929 586.256 219.917 585.322 221.514 583.883C223.111 582.444 224.245 580.564 224.774 578.48C225.302 576.396 225.2 574.202 224.482 572.176C223.763 570.15 222.46 568.382 220.737 567.097C219.014 565.811 216.948 565.065 214.801 564.954C212.654 564.842 210.522 565.37 208.675 566.47C206.828 567.57 205.349 569.193 204.424 571.133C203.184 573.736 203.029 576.724 203.992 579.441C204.956 582.158 206.959 584.381 209.562 585.621ZM91.4134 145.729C92.3434 144.945 93.4223 144.357 94.5852 144.001C95.7482 143.645 96.9712 143.527 98.1807 143.656C99.3961 143.694 100.59 143.984 101.688 144.507C102.786 145.03 103.763 145.775 104.559 146.695C105.372 147.607 105.978 148.683 106.336 149.851C106.694 151.019 106.795 152.251 106.633 153.462C106.588 154.676 106.295 155.868 105.772 156.965C105.25 158.062 104.508 159.04 103.594 159.84C102.664 160.624 101.585 161.212 100.422 161.568C99.2591 161.924 98.0361 162.042 96.8265 161.914C94.3988 161.72 92.1277 160.638 90.4482 158.875C88.9366 156.957 88.1969 154.543 88.3746 152.107C88.5677 149.68 89.6498 147.409 91.4134 145.729ZM41.3889 250.726C41.366 251.942 41.5892 253.15 42.0451 254.277C42.5011 255.405 43.1803 256.429 44.042 257.287C44.8377 258.207 45.8152 258.952 46.913 259.475C48.0108 259.998 49.205 260.288 50.4204 260.326C51.6407 260.383 52.8588 260.175 53.9914 259.717C55.1239 259.259 56.1442 258.562 56.9822 257.673C57.8967 256.873 58.638 255.895 59.1606 254.798C59.6832 253.701 59.976 252.509 60.021 251.295C60.044 250.079 59.8208 248.871 59.3648 247.743C58.9089 246.615 58.2296 245.592 57.3679 244.733C55.6884 242.97 53.4173 241.888 50.9895 241.694C48.5478 241.729 46.2072 242.675 44.4277 244.347C42.6641 246.027 41.5821 248.298 41.3889 250.726ZM490.653 91.4083C492.205 93.3051 492.949 95.7352 492.727 98.1756C492.688 99.3909 492.398 100.585 491.875 101.683C491.352 102.781 490.607 103.758 489.688 104.554C488.776 105.367 487.699 105.973 486.531 106.331C485.363 106.688 484.131 106.79 482.921 106.627C481.706 106.582 480.514 106.289 479.417 105.767C478.321 105.244 477.342 104.503 476.542 103.588C475.758 102.658 475.17 101.58 474.814 100.417C474.458 99.2537 474.34 98.0307 474.469 96.8212C474.662 94.3935 475.744 92.1224 477.508 90.4429C479.425 88.9313 481.839 88.1917 484.275 88.3694C486.703 88.5626 488.974 89.6447 490.653 91.4083ZM30.5787 388.371C31.8503 382.815 34.0507 377.513 37.087 372.689C52.5465 347.065 61.4952 349.763 71.9569 334.881L63.9242 331.777C58.6621 337.924 52.918 343.643 46.7466 348.877C36.1574 359.22 28.4297 372.131 24.317 386.351C20.6294 398.11 20.6318 410.717 24.3239 422.475C29.0986 434.356 37.4672 444.447 48.2593 451.337C60.1942 459.464 74.0155 464.39 88.3997 465.646C96.4901 465.823 104.554 466.645 112.513 468.104L116.795 460.632C99.295 455.666 94.0454 463.399 65.8958 453.238C61.0496 451.532 56.4699 449.147 52.2933 446.155C43.5792 439.198 37.247 429.701 34.1758 418.982C30.0898 409.328 28.842 398.709 30.5787 388.371Z" stroke="#CEBAA0" stroke-width="2" stroke-miterlimit="10"/>
</svg>
