<svg width="20" height="20" viewBox="0 0 20 20" fill="none" xmlns="http://www.w3.org/2000/svg">
<path fill-rule="evenodd" clip-rule="evenodd" d="M7.86567 4.15336C7.16425 3.77986 6.35509 3.66091 5.57585 3.81676C4.79662 3.97261 4.09545 4.39362 3.59164 5.00817C3.08783 5.62272 2.8125 6.39284 2.8125 7.18751C2.8125 9.55609 4.57622 11.8168 6.51185 13.5589C7.46076 14.4129 8.41252 15.108 9.12837 15.59C9.48569 15.8306 9.78272 16.0171 9.98923 16.1427C9.99284 16.1449 9.99644 16.1471 10 16.1493C10.0036 16.1471 10.0072 16.1449 10.0108 16.1427C10.2173 16.0171 10.5143 15.8306 10.8716 15.59C11.5875 15.108 12.5392 14.4129 13.4881 13.5589C15.4238 11.8168 17.1875 9.55609 17.1875 7.18751C17.1875 6.39284 16.9122 5.62272 16.4084 5.00817C15.9046 4.39362 15.2034 3.97261 14.4242 3.81676C13.6449 3.66091 12.8358 3.77986 12.1343 4.15336C11.4329 4.52687 10.8826 5.13185 10.5769 5.86539L10 5.62501L9.42308 5.86539C9.11744 5.13185 8.56709 4.52687 7.86567 4.15336ZM10 4.375C9.59051 3.82904 9.06383 3.37521 8.45318 3.05004C7.4967 2.54072 6.3933 2.37852 5.33071 2.59104C4.26811 2.80355 3.31197 3.37766 2.62496 4.21568C1.93795 5.05371 1.5625 6.10387 1.5625 7.18751C1.5625 10.1314 3.70503 12.7144 5.67565 14.488C6.67986 15.3918 7.68123 16.1225 8.43022 16.6268C8.80532 16.8794 9.11865 17.0762 9.33939 17.2105C9.4498 17.2777 9.53715 17.3294 9.59761 17.3646C9.62785 17.3822 9.65136 17.3957 9.66769 17.4051L9.68673 17.4159L9.69209 17.4189L9.69371 17.4198L9.69426 17.4201C9.69446 17.4202 9.69462 17.4203 10 16.875L9.69462 17.4203C9.88435 17.5266 10.1157 17.5266 10.3054 17.4203L10 16.875C10.3054 17.4203 10.3055 17.4202 10.3057 17.4201L10.3063 17.4198L10.3079 17.4189L10.3133 17.4159L10.3323 17.4051C10.3486 17.3957 10.3722 17.3822 10.4024 17.3646C10.4629 17.3294 10.5502 17.2777 10.6606 17.2105C10.8814 17.0762 11.1947 16.8794 11.5698 16.6268C12.3188 16.1225 13.3201 15.3918 14.3244 14.488C16.295 12.7144 18.4375 10.1314 18.4375 7.18751C18.4375 6.10387 18.0621 5.05371 17.375 4.21568C16.688 3.37766 15.7319 2.80355 14.6693 2.59104C13.6067 2.37852 12.5033 2.54072 11.5468 3.05004C10.9362 3.37521 10.4095 3.82904 10 4.375Z" fill="#1E1E1E"/>
</svg>
