<svg width="812" height="813" viewBox="0 0 812 813" fill="none" xmlns="http://www.w3.org/2000/svg">
<path opacity="0.1" d="M131.595 133.217C127.34 135.156 123.754 138.31 121.287 142.282C118.82 146.254 117.582 150.867 117.73 155.54C117.685 159.862 119.16 164.062 121.897 167.407C124.634 170.752 128.459 173.03 132.704 173.842C129.483 175.324 126.652 177.524 124.417 180.276C122.181 183.028 120.608 186.257 119.817 189.713C119.027 193.169 119.041 196.761 119.858 200.211C120.675 203.661 122.273 206.877 124.53 209.612C125.938 210.823 127.575 211.738 129.343 212.304C131.112 212.87 132.976 213.075 134.825 212.907C136.674 212.739 138.471 212.201 140.109 211.325C141.746 210.45 143.191 209.254 144.357 207.809C145.268 207.136 146.037 206.289 146.62 205.319C147.203 204.348 147.59 203.272 147.757 202.151C147.924 201.031 147.869 199.889 147.595 198.79C147.321 197.691 146.834 196.657 146.16 195.747C145.486 194.836 144.64 194.068 143.669 193.484C142.698 192.901 141.622 192.515 140.502 192.347C139.382 192.18 138.24 192.235 137.141 192.509C136.042 192.783 135.007 193.271 134.097 193.944C133.955 194.341 133.733 194.703 133.444 195.009C133.155 195.315 132.806 195.558 132.419 195.723C132.032 195.887 131.614 195.97 131.194 195.966C130.773 195.961 130.357 195.87 129.974 195.697C129.59 195.525 129.246 195.274 128.964 194.962C128.681 194.65 128.467 194.283 128.333 193.884C128.199 193.485 128.15 193.063 128.187 192.644C128.225 192.224 128.349 191.818 128.551 191.449C129.077 189.354 130.024 187.388 131.333 185.67C132.642 183.952 134.286 182.518 136.166 181.455C138.046 180.392 140.123 179.721 142.27 179.485C144.417 179.249 146.589 179.451 148.656 180.079C165.849 182.852 167.928 204.898 156.282 216.545C145.1 226.363 136.445 238.727 131.047 252.594M162.377 162.058C157.75 163.289 152.874 163.229 148.279 161.885C143.683 160.541 139.544 157.963 136.31 154.432C133.828 151.37 132.179 147.718 131.523 143.832C130.867 139.945 131.227 135.955 132.567 132.248C134.506 127.993 137.66 124.406 141.632 121.939C145.604 119.472 150.216 118.235 154.89 118.382C159.212 118.338 163.412 119.813 166.757 122.55C170.102 125.287 172.38 129.112 173.192 133.357C174.674 130.136 176.886 127.298 179.638 125.062C182.39 122.827 185.619 121.253 189.075 120.463C192.532 119.673 196.123 119.687 199.573 120.504C203.024 121.321 206.24 122.919 208.975 125.176C210.185 126.584 211.101 128.22 211.667 129.989C212.233 131.757 212.438 133.622 212.27 135.471C212.102 137.32 211.564 139.117 210.688 140.754C209.812 142.391 208.617 143.836 207.172 145.003C206.498 145.913 205.652 146.682 204.681 147.265C203.71 147.849 202.634 148.235 201.514 148.402C200.394 148.57 199.252 148.515 198.153 148.241C197.054 147.967 196.02 147.479 195.109 146.805C194.199 146.132 193.43 145.285 192.847 144.314C192.263 143.344 191.877 142.267 191.71 141.147C191.372 138.885 191.946 136.581 193.307 134.743C193.98 134.374 194.489 133.765 194.732 133.037C194.976 132.309 194.937 131.516 194.622 130.816C194.307 130.117 193.74 129.561 193.033 129.261C192.327 128.961 191.533 128.938 190.811 129.197C188.716 129.723 186.75 130.669 185.032 131.978C183.314 133.287 181.88 134.932 180.817 136.812C179.754 138.692 179.084 140.768 178.847 142.915C178.611 145.062 178.813 147.235 179.441 149.301C182.215 166.494 204.26 168.574 215.907 156.927C225.726 145.746 238.09 137.091 251.957 131.692L252.789 143.616C242.654 148.127 233.296 154.211 225.058 161.641C208.836 176.893 184.433 179.666 173.202 161.641C169.467 153.084 166.812 144.095 165.299 134.881M131.881 132.661C135.588 131.321 139.579 130.961 143.465 131.617C147.352 132.273 151.004 133.922 154.066 136.404C157.597 139.638 160.175 143.777 161.519 148.372C162.864 152.968 162.923 157.844 161.692 162.471M131.598 680.612C127.343 678.673 123.757 675.519 121.29 671.547C118.823 667.575 117.585 662.962 117.733 658.289C117.555 653.873 118.969 649.54 121.718 646.079C124.466 642.618 128.366 640.26 132.707 639.432C129.487 637.95 126.652 635.746 124.417 632.994C122.181 630.242 120.608 627.013 119.817 623.557C119.027 620.101 119.041 616.509 119.858 613.059C120.675 609.609 122.273 606.393 124.53 603.658C125.938 602.447 127.575 601.532 129.343 600.966C131.112 600.4 132.976 600.195 134.825 600.363C136.674 600.531 138.471 601.069 140.109 601.945C141.746 602.82 143.191 604.016 144.357 605.461C146.196 606.821 147.419 608.856 147.757 611.119C148.095 613.381 147.52 615.685 146.16 617.523C144.799 619.362 142.764 620.585 140.502 620.923C138.24 621.261 135.936 620.686 134.097 619.326C133.955 618.929 133.733 618.567 133.444 618.261C133.155 617.955 132.806 617.712 132.419 617.547C132.032 617.383 131.614 617.3 131.194 617.304C130.773 617.309 130.357 617.4 129.974 617.573C129.59 617.745 129.246 617.996 128.964 618.308C128.681 618.62 128.467 618.987 128.333 619.386C128.199 619.785 128.15 620.207 128.187 620.626C128.225 621.046 128.349 621.452 128.551 621.821C129.095 623.906 130.052 625.86 131.365 627.567C132.678 629.275 134.321 630.701 136.197 631.762C138.072 632.822 140.141 633.495 142.281 633.74C144.421 633.986 146.589 633.799 148.656 633.191C165.849 630.418 167.928 608.372 156.282 596.725C145.208 587.143 136.56 575.075 131.047 561.508L142.971 560.676C147.482 570.811 153.565 580.169 160.996 588.406C176.248 604.629 179.021 629.031 160.996 640.262C152.691 643.97 143.923 646.535 134.929 647.888M162.377 651.217C157.75 649.986 152.874 650.045 148.279 651.39C143.683 652.734 139.544 655.312 136.31 658.843C133.828 661.905 132.179 665.556 131.523 669.443C130.867 673.33 131.227 677.32 132.567 681.027C134.506 685.282 137.66 688.868 141.632 691.335C145.604 693.802 150.216 695.04 154.89 694.892C159.212 694.937 163.412 693.462 166.757 690.725C170.102 687.988 172.38 684.163 173.192 679.918C174.674 683.139 176.889 685.976 179.641 688.211C182.393 690.447 185.622 692.02 189.078 692.811C192.535 693.601 196.127 693.587 199.577 692.77C203.027 691.953 206.243 690.355 208.978 688.098C210.145 686.697 211.025 685.079 211.566 683.338C212.108 681.596 212.3 679.765 212.133 677.949C211.965 676.133 211.441 674.368 210.591 672.755C209.74 671.142 208.579 669.712 207.175 668.548C205.815 666.71 203.779 665.487 201.517 665.149C199.255 664.811 196.951 665.385 195.113 666.746C193.274 668.106 192.051 670.142 191.713 672.404C191.375 674.666 191.949 676.97 193.31 678.808C193.706 678.95 194.069 679.173 194.375 679.461C194.681 679.75 194.924 680.099 195.088 680.487C195.253 680.874 195.336 681.291 195.331 681.712C195.327 682.133 195.236 682.548 195.063 682.932C194.89 683.315 194.64 683.659 194.328 683.942C194.016 684.224 193.649 684.439 193.25 684.572C192.851 684.706 192.428 684.756 192.009 684.718C191.59 684.681 191.183 684.557 190.814 684.354C188.72 683.828 186.753 682.882 185.036 681.573C183.318 680.264 181.883 678.619 180.82 676.739C179.757 674.859 179.087 672.783 178.85 670.636C178.614 668.489 178.816 666.316 179.445 664.25C182.218 647.057 204.264 644.977 215.911 656.624C225.76 667.704 238.122 676.263 251.96 681.581L252.792 669.657C242.658 665.146 233.299 659.063 225.062 651.633C208.839 636.381 184.436 633.608 173.205 650.939C169.445 659.547 166.744 668.579 165.163 677.838M678.321 134.325C686.297 141.024 692.487 149.597 696.334 159.277C700.182 168.956 701.567 179.439 700.366 189.786C696.623 227.776 684.837 229.579 680.955 252.456L691.909 251.624C694.595 241.657 698.073 231.921 702.308 222.507C712.845 196.857 713.123 150.409 688.442 125.452C663.762 100.494 616.62 100.356 591.385 111.587C581.971 115.821 572.234 119.299 562.268 121.985L561.436 132.939C584.314 129.057 586.116 117.271 624.107 113.528C634.454 112.327 644.937 113.712 654.617 117.56C664.296 121.407 672.87 127.597 679.568 135.573M651.288 161.779L657.112 155.956C659.531 156.246 661.984 155.983 664.286 155.187C666.588 154.391 668.68 153.082 670.402 151.36C672.125 149.637 673.433 147.546 674.23 145.243C675.026 142.941 675.289 140.488 674.998 138.07C674.675 135.723 673.789 133.489 672.416 131.558C671.043 129.628 669.223 128.057 667.113 126.982C665.002 125.906 662.662 125.356 660.293 125.38C657.924 125.403 655.596 125.999 653.507 127.116C643.247 133.91 647.268 149.994 639.642 161.64C628.411 179.665 604.008 176.892 587.785 161.64C579.548 154.21 570.189 148.127 560.055 143.616L560.887 131.692C574.453 137.205 586.522 145.853 596.104 156.926C607.751 168.573 629.797 166.493 632.57 149.3C633.179 147.234 633.366 145.066 633.12 142.926C632.875 140.786 632.202 138.717 631.141 136.842C630.081 134.966 628.654 133.323 626.947 132.01C625.239 130.697 623.285 129.74 621.201 129.196C620.832 128.994 620.425 128.87 620.006 128.832C619.587 128.795 619.164 128.844 618.765 128.978C618.366 129.112 617.999 129.326 617.687 129.609C617.375 129.891 617.125 130.235 616.952 130.619C616.779 131.002 616.688 131.418 616.684 131.839C616.679 132.259 616.762 132.677 616.927 133.064C617.091 133.451 617.334 133.8 617.64 134.089C617.946 134.378 618.309 134.6 618.705 134.742C620.066 136.581 620.64 138.884 620.302 141.147C619.964 143.409 618.741 145.444 616.902 146.805C615.064 148.165 612.76 148.74 610.498 148.402C608.236 148.064 606.2 146.841 604.84 145.002C603.395 143.836 602.199 142.391 601.324 140.753C600.448 139.116 599.91 137.319 599.742 135.47C599.574 133.621 599.779 131.757 600.345 129.988C600.911 128.22 601.826 126.583 603.037 125.175C605.772 122.918 608.988 121.32 612.438 120.503C615.889 119.686 619.48 119.672 622.937 120.462C626.393 121.253 629.622 122.826 632.374 125.062C635.126 127.297 637.328 130.135 638.81 133.355C639.863 129.219 642.318 125.576 645.756 123.048C649.195 120.52 653.404 119.262 657.667 119.49C662.337 119.361 666.942 120.606 670.91 123.071C674.879 125.536 678.036 129.112 679.99 133.355C681.33 137.062 681.689 141.053 681.033 144.94C680.378 148.826 678.728 152.478 676.246 155.54C672.938 158.95 668.765 161.396 664.173 162.617C659.582 163.838 654.745 163.788 650.179 162.472C648.948 157.845 648.995 152.968 650.34 148.372C651.684 143.777 654.262 139.638 657.793 136.404C660.855 133.922 664.507 132.273 668.393 131.617C672.28 130.961 676.271 131.321 679.978 132.661C684.232 134.6 687.819 137.753 690.286 141.725C692.753 145.697 693.991 150.31 693.843 154.983C694.021 159.399 692.607 163.732 689.858 167.193C687.11 170.654 683.21 173.013 678.868 173.84C682.089 175.322 684.927 177.524 687.162 180.276C689.398 183.028 690.971 186.257 691.762 189.713C692.552 193.169 692.538 196.761 691.721 200.211C690.904 203.661 689.306 206.877 687.049 209.612C684.245 211.842 680.686 212.9 677.119 212.564C673.552 212.228 670.253 210.524 667.915 207.809C666.076 206.449 664.853 204.414 664.515 202.151C664.177 199.889 664.752 197.585 666.112 195.747C667.473 193.908 669.508 192.685 671.77 192.347C674.033 192.009 676.337 192.584 678.175 193.944C678.544 194.617 679.153 195.126 679.881 195.37C680.609 195.614 681.402 195.574 682.101 195.259C682.801 194.944 683.357 194.377 683.657 193.671C683.957 192.965 683.98 192.171 683.721 191.449C683.195 189.354 682.249 187.388 680.939 185.67C679.63 183.952 677.986 182.518 676.106 181.455C674.226 180.392 672.149 179.721 670.002 179.485C667.855 179.249 665.683 179.451 663.617 180.079C646.424 182.852 644.344 204.898 655.991 216.545C667.071 226.394 675.629 238.756 680.948 252.594L669.024 253.426C664.513 243.291 658.43 233.933 650.999 225.695C635.747 209.473 632.974 185.071 650.306 173.84C661.953 166.214 678.037 170.235 684.831 159.975C685.948 157.886 686.544 155.558 686.567 153.189C686.59 150.82 686.041 148.48 684.965 146.37C683.889 144.259 682.319 142.439 680.388 141.066C678.458 139.693 676.224 138.807 673.877 138.484C671.458 138.194 669.005 138.456 666.703 139.253C664.401 140.049 662.309 141.358 660.587 143.08C658.864 144.803 657.555 146.894 656.759 149.196C655.963 151.498 655.7 153.951 655.991 156.37L650.167 162.193M678.321 678.946C686.297 672.247 692.487 663.674 696.334 653.994C700.182 644.315 701.567 633.832 700.366 623.485C696.623 585.495 684.837 583.692 680.955 560.815L691.909 561.647C694.595 571.614 698.073 581.35 702.308 590.764C712.845 616.414 713.123 662.862 688.442 687.819C663.762 712.777 616.62 712.915 591.385 701.684C581.971 697.45 572.234 693.972 562.268 691.286L561.436 680.332C584.314 684.214 586.116 696 624.107 699.743C634.454 700.944 644.937 699.559 654.617 695.711C664.296 691.864 672.87 685.674 679.568 677.698M679.987 680.609C676.28 681.949 672.29 682.309 668.403 681.653C664.516 680.997 660.865 679.348 657.803 676.866C654.272 673.632 651.694 669.493 650.349 664.898C649.005 660.302 648.945 655.426 650.177 650.799C654.804 649.568 659.682 649.629 664.278 650.974C668.873 652.318 673.012 654.896 676.246 658.427C678.728 661.489 680.378 665.14 681.033 669.027C681.689 672.914 681.327 676.902 679.987 680.609ZM679.987 680.609C684.242 678.67 687.829 675.516 690.296 671.545C692.763 667.573 694 662.96 693.853 658.287C694.03 653.871 692.616 649.538 689.868 646.077C687.12 642.616 683.22 640.257 678.878 639.43C682.099 637.948 684.937 635.746 687.172 632.994C689.408 630.242 690.981 627.013 691.771 623.557C692.562 620.101 692.548 616.509 691.731 613.059C690.914 609.609 689.315 606.393 687.059 603.658C685.651 602.447 684.014 601.532 682.245 600.966C680.477 600.4 678.613 600.195 676.764 600.363C674.914 600.531 673.118 601.069 671.48 601.945C669.843 602.82 668.398 604.016 667.231 605.461C665.393 606.821 664.17 608.856 663.832 611.119C663.494 613.381 664.068 615.685 665.429 617.523C666.789 619.362 668.825 620.585 671.087 620.923C673.349 621.261 675.653 620.686 677.492 619.326C677.861 618.653 678.47 618.144 679.198 617.9C679.925 617.656 680.718 617.696 681.418 618.011C682.118 618.326 682.673 618.893 682.973 619.599C683.274 620.305 683.297 621.099 683.038 621.821C682.494 623.906 681.537 625.86 680.224 627.567C678.91 629.275 677.267 630.701 675.392 631.762C673.517 632.822 671.448 633.495 669.308 633.74C667.167 633.986 665 633.799 662.933 633.191C645.74 630.418 643.66 608.372 655.307 596.725C666.381 587.143 675.028 575.075 680.542 561.508L668.618 560.676C664.107 570.811 658.023 580.169 650.593 588.406C635.341 604.629 632.568 629.031 649.9 640.262C661.546 647.888 677.63 643.867 684.424 654.127C685.542 656.216 686.137 658.544 686.161 660.913C686.184 663.282 685.635 665.622 684.559 667.732C683.483 669.843 681.913 671.662 679.982 673.036C678.052 674.409 675.818 675.294 673.471 675.618C671.052 675.908 668.599 675.646 666.297 674.849C663.994 674.053 661.903 672.744 660.181 671.022C658.458 669.299 657.149 667.208 656.353 664.906C655.557 662.604 655.294 660.151 655.584 657.732L649.761 651.909M679.987 680.609C678.034 684.853 674.879 688.431 670.91 690.896C666.942 693.36 662.337 694.606 657.667 694.476C653.251 694.654 648.918 693.24 645.457 690.492C641.996 687.743 639.637 683.843 638.81 679.502C637.328 682.723 635.126 685.56 632.374 687.796C629.622 690.031 626.393 691.605 622.937 692.395C619.48 693.185 615.889 693.172 612.438 692.354C608.988 691.537 605.772 689.939 603.037 687.682C600.807 684.878 599.749 681.319 600.085 677.752C600.421 674.185 602.125 670.887 604.84 668.548C606.2 666.71 608.236 665.487 610.498 665.149C612.76 664.811 615.064 665.385 616.902 666.746C618.741 668.107 619.964 670.142 620.302 672.404C620.64 674.666 620.066 676.97 618.705 678.809C618.309 678.951 617.946 679.173 617.64 679.462C617.334 679.751 617.091 680.1 616.927 680.487C616.762 680.874 616.679 681.291 616.684 681.712C616.688 682.133 616.779 682.548 616.952 682.932C617.125 683.316 617.375 683.659 617.687 683.942C617.999 684.224 618.366 684.439 618.765 684.573C619.164 684.706 619.587 684.756 620.006 684.718C620.425 684.681 620.832 684.557 621.201 684.355C623.285 683.811 625.239 682.854 626.947 681.541C628.654 680.227 630.081 678.584 631.141 676.709C632.202 674.834 632.875 672.765 633.12 670.625C633.366 668.485 633.179 666.317 632.57 664.25C629.797 647.057 607.751 644.978 596.104 656.624C586.522 667.698 574.453 676.345 560.887 681.859L560.055 669.935C570.189 665.424 579.548 659.341 587.785 651.91C604.008 636.659 628.411 633.886 639.642 651.217C647.268 662.864 643.247 678.947 653.507 685.741C655.596 686.858 657.924 687.454 660.293 687.478C662.662 687.501 665.002 686.951 667.113 685.876C669.223 684.8 671.043 683.23 672.416 681.299C673.789 679.369 674.675 677.135 674.998 674.788C675.289 672.369 675.026 669.916 674.23 667.614C673.433 665.312 672.125 663.22 670.402 661.498C668.68 659.775 666.588 658.467 664.286 657.67C661.984 656.874 659.531 656.611 657.112 656.902L651.288 651.078M331.822 762.414C330.409 761.773 329.14 760.853 328.091 759.709C327.043 758.565 326.237 757.222 325.721 755.758C325.099 754.338 324.777 752.803 324.777 751.252C324.777 749.701 325.099 748.167 325.721 746.746C326.325 745.31 327.233 744.021 328.382 742.968C329.53 741.915 330.893 741.123 332.376 740.645C333.799 740.031 335.333 739.714 336.883 739.714C338.432 739.714 339.966 740.031 341.389 740.645C342.802 741.286 344.071 742.206 345.119 743.35C346.167 744.493 346.974 745.837 347.489 747.301C348.599 750.202 348.599 753.411 347.489 756.313C346.14 759.097 343.749 761.238 340.834 762.275C337.946 763.454 334.71 763.454 331.822 762.275M761.785 332.457C761.144 331.044 760.224 329.775 759.081 328.727C757.937 327.679 756.593 326.872 755.13 326.357C753.709 325.734 752.175 325.413 750.624 325.413C749.072 325.413 747.538 325.734 746.117 326.357C744.681 326.961 743.392 327.868 742.339 329.017C741.286 330.166 740.494 331.528 740.017 333.012C739.402 334.435 739.085 335.968 739.085 337.518C739.085 339.068 739.402 340.601 740.017 342.024C741.305 344.834 743.645 347.024 746.533 348.125C749.435 349.234 752.644 349.234 755.546 348.125C756.959 347.484 758.228 346.564 759.276 345.42C760.324 344.277 761.131 342.933 761.646 341.47C762.825 338.581 762.825 335.346 761.646 332.457M761.785 480.814C761.144 482.227 760.224 483.496 759.081 484.544C757.937 485.593 756.593 486.399 755.13 486.915C753.709 487.537 752.175 487.858 750.624 487.858C749.072 487.858 747.538 487.537 746.117 486.915C744.681 486.31 743.392 485.403 742.339 484.254C741.286 483.106 740.494 481.743 740.017 480.259C739.402 478.837 739.085 477.303 739.085 475.753C739.085 474.203 739.402 472.67 740.017 471.247C741.305 468.438 743.645 466.247 746.533 465.147C749.435 464.037 752.644 464.037 755.546 465.147C756.959 465.787 758.228 466.707 759.276 467.851C760.324 468.995 761.131 470.339 761.646 471.802C762.825 474.69 762.825 477.926 761.646 480.814M480.174 762.414C483.002 761.08 485.192 758.691 486.275 755.758C486.897 754.338 487.219 752.803 487.219 751.252C487.219 749.701 486.897 748.167 486.275 746.746C485.671 745.31 484.763 744.021 483.614 742.968C482.466 741.915 481.103 741.123 479.62 740.645C478.197 740.031 476.663 739.714 475.113 739.714C473.564 739.714 472.03 740.031 470.607 740.645C469.194 741.286 467.925 742.206 466.877 743.35C465.828 744.493 465.022 745.837 464.506 747.301C463.397 750.202 463.397 753.411 464.506 756.313C465.856 759.097 468.247 761.238 471.162 762.275C474.05 763.454 477.286 763.454 480.174 762.275M258.89 65.8334C259.738 67.5649 260.985 69.0708 262.527 70.2277C264.07 71.3845 265.864 72.1593 267.764 72.4887C268.224 72.6725 268.591 73.0314 268.786 73.4865C268.981 73.9415 268.988 74.4554 268.804 74.915C268.62 75.3747 268.261 75.7425 267.806 75.9375C267.351 76.1325 266.837 76.1388 266.377 75.9549C264.885 75.1053 263.225 74.592 261.513 74.4512C259.801 74.3104 258.08 74.5454 256.468 75.1397C254.857 75.7341 253.395 76.6734 252.185 77.892C250.974 79.1105 250.045 80.5789 249.462 82.1942C248.352 85.0959 248.352 88.3048 249.462 91.2065C250.795 94.0338 253.185 96.2245 256.117 97.3072C257.54 97.9214 259.073 98.2383 260.623 98.2383C262.173 98.2383 263.707 97.9214 265.13 97.3072C266.746 96.5736 268.174 95.4803 269.303 94.1105C270.433 92.7408 271.234 91.1309 271.646 89.4041C271.646 87.6016 274.974 87.4629 278.024 88.1562C282.323 95.6434 282.323 102.715 274.142 107.013C269.751 108.697 265.004 109.237 260.347 108.583C255.69 107.928 251.276 106.099 247.521 103.269C244.143 99.9327 241.546 95.89 239.916 91.4312C238.286 86.9724 237.663 82.2081 238.092 77.4801C238.018 72.3002 238.981 67.1578 240.925 62.3559C242.869 57.554 245.754 53.1897 249.411 49.5201C253.067 45.8506 257.422 42.95 262.217 40.9892C267.012 39.0284 272.151 38.0471 277.331 38.1032C282.507 38.0849 287.636 39.0909 292.422 41.0632C297.208 43.0356 301.556 45.9354 305.216 49.5955C308.876 53.2557 311.776 57.6038 313.748 62.3895C315.721 67.1752 316.727 72.3039 316.709 77.4801C316.854 84.2565 315.307 90.9622 312.208 96.9903C309.109 103.018 304.556 108.179 298.961 112.004C287.577 119.768 273.872 123.39 260.138 122.264C257.201 121.915 254.285 121.405 251.403 120.739L251.957 143.617C268.457 135.298 286.205 129.752 299.238 123.096C307.067 119.294 313.725 113.45 318.511 106.181L321.839 108.954C324.914 111.817 328.84 113.597 333.02 114.022C337.2 114.448 341.405 113.496 344.994 111.311C347.23 110.135 349.102 108.37 350.408 106.207C351.713 104.045 352.404 101.567 352.404 99.0403C352.404 96.514 351.713 94.0358 350.408 91.8732C349.102 89.7106 347.23 87.9459 344.994 86.7697C343.274 85.9209 341.295 85.764 339.463 86.3316C337.632 86.8991 336.088 88.1477 335.149 89.82C334.271 91.5124 334.099 93.4837 334.671 95.3026C335.243 97.1215 336.511 98.6399 338.2 99.5256C340.973 101.744 338.2 105.488 333.902 104.101C332.356 103.734 330.903 103.055 329.63 102.105C328.357 101.155 327.291 99.9554 326.499 98.5789C325.707 97.2023 325.205 95.6783 325.023 94.1005C324.842 92.5227 324.985 90.9245 325.444 89.4041C326.529 85.5217 327.089 81.5113 327.108 77.4801C327.663 65.451 323.538 53.6742 315.599 44.6198C313.215 41.2063 312.129 37.0537 312.536 32.9101C312.942 28.7665 314.816 24.9044 317.818 22.0197C321.007 19.5239 325.305 22.0197 323.087 25.4859C322.365 26.0971 321.772 26.8469 321.345 27.691C320.918 28.5351 320.665 29.4564 320.6 30.4001C320.536 31.3439 320.661 32.2911 320.969 33.1855C321.277 34.08 321.761 34.9036 322.393 35.6075C323.63 37.0533 325.387 37.9521 327.283 38.1079C329.179 38.2637 331.059 37.664 332.515 36.4394C334.41 34.7666 335.812 32.6076 336.568 30.1959C337.325 27.7842 337.408 25.2115 336.809 22.756C336.209 20.3005 334.949 18.0557 333.166 16.2641C331.383 14.4726 329.144 13.2026 326.692 12.5914C322.488 11.3681 317.999 11.5605 313.915 13.1388C309.831 14.7171 306.379 17.594 304.091 21.3264C301.318 25.07 299.516 27.5657 297.158 31.032C290.752 28.1671 283.793 26.747 276.776 26.8724C266.082 26.9266 255.664 30.2681 246.933 36.4439C238.203 42.6197 231.582 51.331 227.97 61.3966C216.8 59.0555 205.179 60.2175 194.694 64.7242C190.767 66.1291 187.35 68.6745 184.88 72.034C182.41 75.3936 180.999 79.4142 180.828 83.5807C180.559 86.208 181.112 88.854 182.411 91.1536C183.71 93.4531 185.69 95.2929 188.079 96.4189C190.468 97.5449 193.148 97.9016 195.748 97.4398C198.349 96.9781 200.742 95.7206 202.597 93.8409C203.986 92.4389 204.764 90.5454 204.764 88.5722C204.764 86.5989 203.986 84.7054 202.597 83.3034C201.178 81.9474 199.291 81.1906 197.328 81.1906C195.365 81.1906 193.478 81.9474 192.059 83.3034C192.041 81.9014 192.299 80.5095 192.819 79.2071C193.338 77.9048 194.109 76.7177 195.088 75.7134C196.066 74.7091 197.233 73.9074 198.522 73.3541C199.81 72.8008 201.195 72.5067 202.597 72.4887C207.87 71.1402 213.456 71.8158 218.256 74.3823C223.055 76.9487 226.719 81.2198 228.525 86.3538C230.522 93.9322 234.383 100.891 239.756 106.597C245.192 111.872 252.223 115.196 259.75 116.049C267.276 116.902 274.873 115.236 281.352 111.311C283.445 109.756 285.205 107.798 286.53 105.552C287.855 103.306 288.717 100.818 289.066 98.2345C289.415 95.6506 289.243 93.0231 288.561 90.5065C287.88 87.9899 286.701 85.6351 285.096 83.5807C286.344 81.3623 288.146 79.6985 289.255 80.5304C290.876 81.3157 292.654 81.7237 294.455 81.7237C296.256 81.7237 298.033 81.3157 299.654 80.5304C302.447 79.1512 304.623 76.7772 305.755 73.8751C306.864 70.9735 306.864 67.7645 305.755 64.8628C304.376 62.0699 302.002 59.8938 299.1 58.7622C297.677 58.1479 296.143 57.8311 294.593 57.8311C293.044 57.8311 291.51 58.1479 290.087 58.7622C288.455 59.5096 287.017 60.6243 285.886 62.0194C284.756 63.4144 283.963 65.0519 283.57 66.8039C283.493 67.0348 283.37 67.2475 283.208 67.4294C283.046 67.6113 282.849 67.7584 282.629 67.8621C282.409 67.9658 282.17 68.0237 281.926 68.0325C281.683 68.0413 281.441 68.0007 281.213 67.9132C280.907 67.9285 280.603 67.8589 280.334 67.7121C280.064 67.5653 279.841 67.347 279.688 67.0812C280.611 65.3533 281.093 63.4247 281.093 61.4659C281.093 59.5071 280.611 57.5785 279.688 55.8505C279.069 54.4239 278.156 53.1435 277.009 52.0924C275.863 51.0414 274.508 50.2433 273.033 49.7499C271.61 49.1356 270.076 48.8188 268.527 48.8188C266.977 48.8188 265.443 49.1356 264.02 49.7499C261.202 51.0949 259.015 53.4806 257.92 56.4051C256.81 59.3068 256.81 62.5158 257.92 65.4174M65.1999 259.527C62.2982 258.418 59.0891 258.418 56.1874 259.527C53.2629 260.623 50.8771 262.81 49.532 265.628C48.9178 267.051 48.6009 268.584 48.6009 270.134C48.6009 271.684 48.9178 273.218 49.532 274.64C50.0255 276.115 50.8236 277.47 51.8747 278.617C52.9257 279.763 54.2061 280.676 55.6328 281.296C57.3608 282.218 59.2894 282.701 61.2483 282.701C63.2071 282.701 65.1357 282.218 66.8637 281.296C67.0813 281.209 67.3147 281.17 67.5486 281.18C67.7825 281.19 68.0116 281.25 68.221 281.354C68.4304 281.459 68.6153 281.607 68.7637 281.788C68.9121 281.969 69.0206 282.179 69.0822 282.405C69.1697 282.632 69.2103 282.875 69.2015 283.118C69.1927 283.361 69.1348 283.6 69.0311 283.82C68.9275 284.041 68.7803 284.238 68.5984 284.399C68.4165 284.561 68.2038 284.685 67.9729 284.762C66.2209 285.155 64.5833 285.947 63.1883 287.078C61.7932 288.208 60.6785 289.646 59.9311 291.279C59.3168 292.701 58.9999 294.235 58.9999 295.785C58.9999 297.335 59.3168 298.868 59.9311 300.291C61.0627 303.193 63.2388 305.567 66.0318 306.946C68.9335 308.056 72.1425 308.056 75.0443 306.946C77.9464 305.815 80.3204 303.638 81.6996 300.845C82.485 299.225 82.893 297.447 82.893 295.646C82.893 293.845 82.485 292.067 81.6996 290.447C80.8677 289.337 82.5315 287.535 84.75 286.287C86.8044 287.893 89.1592 289.071 91.6759 289.753C94.1925 290.435 96.8201 290.606 99.404 290.257C101.988 289.909 104.476 289.046 106.722 287.722C108.968 286.397 110.926 284.636 112.481 282.544C116.406 276.065 118.072 268.468 117.219 260.942C116.366 253.415 113.042 246.384 107.766 240.948C102.061 235.576 95.1017 231.715 87.5231 229.717C82.3891 227.911 78.1179 224.247 75.5514 219.448C72.9849 214.649 72.3093 209.062 73.6577 203.79C73.6758 202.388 73.9699 201.003 74.5232 199.715C75.0766 198.426 75.8783 197.259 76.8825 196.281C77.8868 195.302 79.074 194.531 80.3763 194.012C81.6787 193.492 83.0706 193.234 84.4727 193.252C83.1166 194.671 82.3599 196.558 82.3599 198.521C82.3599 200.484 83.1166 202.371 84.4727 203.79C85.8747 205.178 87.7682 205.957 89.7415 205.957C91.7148 205.957 93.6083 205.178 95.0104 203.79C96.8901 201.935 98.1476 199.542 98.6093 196.941C99.0711 194.341 98.7144 191.661 97.5884 189.273C96.4624 186.884 94.6226 184.903 92.323 183.604C90.0234 182.305 87.3773 181.752 84.75 182.022C80.5834 182.192 76.5627 183.603 73.2031 186.073C69.8435 188.543 67.2981 191.96 65.8931 195.887C61.3864 206.372 60.2243 217.993 62.5655 229.163C52.4998 232.775 43.7883 239.395 37.6124 248.125C31.4365 256.856 28.0949 267.274 28.0408 277.968C27.3338 284.65 28.0425 291.406 30.1206 297.795L20.4148 304.728C16.6824 307.016 13.8055 310.468 12.2271 314.551C10.6487 318.635 10.4564 323.124 11.6797 327.328C12.2909 329.78 13.5609 332.019 15.3525 333.802C17.144 335.585 19.389 336.845 21.8445 337.445C24.3 338.044 26.8727 337.961 29.2845 337.204C31.6962 336.448 33.8552 335.046 35.5281 333.151C36.7527 331.696 37.3524 329.815 37.1966 327.919C37.0408 326.023 36.142 324.266 34.6961 323.03C33.9922 322.398 33.1686 321.913 32.2742 321.605C31.3797 321.297 30.4325 321.172 29.4887 321.237C28.5449 321.301 27.6237 321.555 26.7796 321.982C25.9355 322.409 25.1856 323.001 24.5744 323.723C21.8014 325.941 18.6123 321.643 21.1081 318.454C24.008 315.38 27.9242 313.461 32.1308 313.053C36.3374 312.645 40.5493 313.776 43.9859 316.236C53.05 324.613 65.068 329.051 77.4014 328.576C81.4326 328.557 85.4432 327.997 89.3256 326.912C90.846 326.453 92.4443 326.31 94.0221 326.491C95.5999 326.673 97.124 327.175 98.5006 327.967C99.8771 328.759 101.077 329.825 102.027 331.098C102.976 332.371 103.656 333.824 104.023 335.37C105.409 339.252 101.666 342.441 99.4473 339.668C98.5615 337.979 97.0431 336.71 95.2242 336.139C93.4052 335.567 91.4339 335.739 89.7415 336.617C88.0692 337.556 86.8206 339.1 86.253 340.931C85.6855 342.763 85.8423 344.742 86.6911 346.462C87.8674 348.697 89.6321 350.569 91.7947 351.875C93.9574 353.181 96.4357 353.871 98.962 353.871C101.488 353.871 103.967 353.181 106.129 351.875C108.292 350.569 110.057 348.697 111.233 346.462C113.418 342.873 114.37 338.668 113.944 334.488C113.519 330.308 111.739 326.382 108.876 323.307L106.103 319.979C113.372 315.193 119.216 308.535 123.018 300.707C129.396 287.674 135.22 269.926 143.539 253.427L120.661 251.763C121.327 254.645 121.837 257.561 122.186 260.498C123.312 274.232 119.69 287.936 111.926 299.32C108.101 304.916 102.94 309.469 96.9119 312.567C90.8837 315.666 84.1779 317.213 77.4014 317.068C72.2251 317.086 67.0964 316.08 62.3106 314.108C57.5248 312.135 53.1766 309.235 49.5164 305.575C45.8562 301.915 42.9564 297.567 40.9839 292.781C39.0115 287.996 38.0055 282.867 38.0238 277.691C38.0056 272.581 38.9963 267.518 40.9391 262.792C42.882 258.065 45.7388 253.769 49.3456 250.15C52.9525 246.53 57.2385 243.658 61.9578 241.698C66.677 239.739 71.7368 238.73 76.8468 238.73C81.5811 238.486 86.3107 239.292 90.6971 241.09C95.0836 242.888 99.0185 245.633 102.22 249.129C105.05 252.884 106.879 257.298 107.534 261.955C108.189 266.612 107.649 271.359 105.964 275.75C101.666 283.93 94.5944 283.93 86.8298 279.493C86.8298 276.582 86.8298 273.531 88.355 273.254C90.0819 272.842 91.6917 272.041 93.0615 270.911C94.4313 269.782 95.5247 268.354 96.2582 266.737C96.8725 265.314 97.1894 263.781 97.1894 262.231C97.1894 260.681 96.8725 259.148 96.2582 257.725C95.1756 254.793 92.9848 252.403 90.1575 251.07C87.2558 249.96 84.0467 249.96 81.145 251.07C78.3588 252.369 76.1905 254.705 75.1026 257.58C74.0147 260.456 74.0933 263.642 75.3216 266.46C75.5054 266.92 75.4992 267.434 75.3041 267.889C75.1091 268.344 74.7413 268.703 74.2817 268.886C73.822 269.07 73.3081 269.064 72.8531 268.869C72.3981 268.674 72.0391 268.306 71.8552 267.847C71.5259 265.947 70.7511 264.152 69.5942 262.61C68.4374 261.067 66.9314 259.821 65.1999 258.973M65.1765 553.744C66.9081 552.896 68.414 551.649 69.5709 550.107C70.7277 548.565 71.5026 546.77 71.8319 544.87C72.0158 544.411 72.3747 544.043 72.8297 543.848C73.2848 543.653 73.7987 543.646 74.2583 543.83C74.718 544.014 75.0858 544.373 75.2808 544.828C75.4758 545.283 75.4821 545.797 75.2982 546.257C74.4485 547.749 73.9353 549.409 73.7945 551.121C73.6537 552.833 73.8887 554.554 74.483 556.166C75.0774 557.777 76.0167 559.239 77.2353 560.449C78.4539 561.66 79.9223 562.589 81.5376 563.172C84.4393 564.282 87.6484 564.282 90.5501 563.172C93.3774 561.839 95.5682 559.449 96.6508 556.517C97.2651 555.094 97.582 553.561 97.582 552.011C97.582 550.461 97.2651 548.927 96.6508 547.505C95.9173 545.888 94.8239 544.46 93.4541 543.331C92.0843 542.201 90.4745 541.4 88.7476 540.988C86.9451 540.988 86.8065 537.66 87.4997 534.61C94.987 530.312 102.058 530.312 106.357 538.492C108.041 542.883 108.581 547.63 107.926 552.287C107.272 556.944 105.443 561.357 102.613 565.113C99.3876 568.579 95.4487 571.303 91.068 573.099C86.6873 574.894 81.9692 575.717 77.2394 575.512C72.0594 575.586 66.9169 574.623 62.115 572.679C57.313 570.736 52.9486 567.85 49.279 564.194C45.6094 560.537 42.7087 556.183 40.7479 551.388C38.7871 546.593 37.8058 541.454 37.8618 536.274C37.8435 531.098 38.8495 525.969 40.8219 521.183C42.7943 516.398 45.6942 512.049 49.3544 508.389C53.0146 504.729 57.3628 501.829 62.1486 499.857C66.9344 497.885 72.0631 496.879 77.2394 496.897C84.0159 496.752 90.7217 498.298 96.7499 501.397C102.778 504.496 107.939 509.049 111.764 514.644C119.528 526.029 123.15 539.733 122.024 553.467C121.675 556.404 121.165 559.32 120.499 562.202L143.377 560.538C135.058 544.038 129.512 526.291 122.856 513.258C119.054 505.429 113.21 498.771 105.941 493.985L108.714 490.519C111.565 487.466 113.34 483.564 113.765 479.408C114.191 475.252 113.244 471.071 111.071 467.503C109.895 465.267 108.13 463.395 105.967 462.089C103.805 460.784 101.326 460.093 98.8 460.093C96.2736 460.093 93.7953 460.784 91.6327 462.089C89.4701 463.395 87.7054 465.267 86.5291 467.503C85.6803 469.222 85.5235 471.202 86.091 473.033C86.6585 474.865 87.9072 476.409 89.5795 477.347C91.2719 478.225 93.2432 478.397 95.0622 477.826C96.8811 477.254 98.3995 475.985 99.2852 474.297C101.504 471.524 105.247 474.297 103.861 478.595C103.494 480.14 102.814 481.594 101.865 482.867C100.915 484.14 99.7151 485.205 98.3385 485.997C96.962 486.79 95.4379 487.292 93.8601 487.473C92.2823 487.655 90.684 487.512 89.1636 487.053C85.2811 485.967 81.2706 485.408 77.2394 485.389C65.0497 484.762 53.1008 488.944 43.9626 497.036C40.5491 499.42 36.3964 500.506 32.2527 500.099C28.109 499.693 24.2469 497.819 21.3621 494.817C18.8663 491.628 21.3621 487.33 24.8284 489.548C25.4871 490.223 26.2742 490.76 27.1433 491.126C28.0125 491.492 28.9461 491.681 29.8892 491.681C30.8324 491.681 31.766 491.492 32.6351 491.126C33.5043 490.76 34.2914 490.223 34.9501 489.548C36.396 488.312 37.2947 486.555 37.4505 484.659C37.6064 482.763 37.0066 480.883 35.782 479.427C34.1187 477.532 31.97 476.126 29.5671 475.36C27.1643 474.595 24.5982 474.5 22.1452 475.085C19.6922 475.669 17.4451 476.912 15.6457 478.679C13.8464 480.446 12.563 482.67 11.9336 485.112C10.7007 489.335 10.8874 493.847 12.4653 497.954C14.0432 502.062 16.9251 505.538 20.6688 507.85L30.0972 516.031C27.2479 522.393 25.8281 529.303 25.9376 536.274C25.9142 546.982 29.1888 557.437 35.3163 566.219C41.4437 575.001 50.1267 581.683 60.185 585.356C57.8439 596.527 59.0059 608.147 63.5127 618.633C64.9176 622.559 67.463 625.976 70.8226 628.446C74.1822 630.917 78.203 632.327 82.3696 632.498C84.9969 632.767 87.6429 632.214 89.9425 630.915C92.2421 629.616 94.0819 627.636 95.2079 625.247C96.3339 622.858 96.6907 620.178 96.2289 617.578C95.7671 614.978 94.5096 612.585 92.6299 610.73C91.2279 609.341 89.3344 608.562 87.3611 608.562C85.3878 608.562 83.4942 609.341 82.0922 610.73C80.7362 612.148 79.9794 614.036 79.9794 615.998C79.9794 617.961 80.7362 619.848 82.0922 621.267C80.6902 621.285 79.2982 621.027 77.9959 620.508C76.6936 619.988 75.5064 619.217 74.5021 618.238C73.4978 617.26 72.6961 616.093 72.1428 614.805C71.5895 613.516 71.2954 612.132 71.2773 610.73C69.9288 605.457 70.6045 599.87 73.1709 595.071C75.7374 590.272 80.0086 586.608 85.1426 584.802C92.7212 582.804 99.6801 578.944 105.386 573.571C110.64 568.123 113.95 561.094 114.802 553.573C115.655 546.053 114.002 538.461 110.1 531.976C108.523 529.909 106.552 528.175 104.301 526.874C102.05 525.573 99.5642 524.73 96.9861 524.395C94.4079 524.06 91.7889 524.239 89.2802 524.921C86.7714 525.603 84.4227 526.776 82.3696 528.371C80.1511 527.123 78.4872 525.32 79.3192 524.211C80.1045 522.59 80.5125 520.813 80.5125 519.012C80.5125 517.211 80.1045 515.433 79.3192 513.812C77.9399 511.019 75.5659 508.843 72.6638 507.712C69.7753 506.533 66.5398 506.533 63.6513 507.712C60.8584 509.091 58.6822 511.465 57.5506 514.367C56.9363 515.79 56.6195 517.323 56.6195 518.873C56.6195 520.423 56.9363 521.956 57.5506 523.379C58.4732 525.264 59.8879 526.865 61.6451 528.012C63.4024 529.159 65.4369 529.81 67.5336 529.896C67.7645 529.973 67.9772 530.097 68.1591 530.258C68.341 530.42 68.4882 530.617 68.5918 530.837C68.6955 531.058 68.7534 531.297 68.7622 531.54C68.771 531.783 68.7304 532.026 68.6429 532.253C68.5813 532.479 68.4728 532.689 68.3244 532.87C68.176 533.051 67.9911 533.199 67.7817 533.304C67.5723 533.408 67.3432 533.468 67.1093 533.478C66.8754 533.488 66.642 533.448 66.4244 533.362C64.7042 532.415 62.7725 531.919 60.8089 531.919C58.8454 531.919 56.9137 532.415 55.1935 533.362C53.7668 533.982 52.4864 534.894 51.4354 536.041C50.3843 537.188 49.5862 538.542 49.0927 540.017C48.4785 541.44 48.1616 542.974 48.1616 544.524C48.1616 546.073 48.4785 547.607 49.0927 549.03C50.4378 551.848 52.8236 554.035 55.7481 555.13C58.6498 556.24 61.8589 556.24 64.7606 555.13M250.848 692.535C253.73 691.869 256.646 691.359 259.583 691.01C273.317 689.884 287.022 693.506 298.406 701.27C304.002 705.095 308.555 710.256 311.654 716.284C314.753 722.312 316.299 729.018 316.154 735.794C316.086 746.185 311.956 756.138 304.646 763.524C297.285 770.872 287.316 775.009 276.915 775.032C271.782 775.033 266.699 774.015 261.961 772.038C257.224 770.061 252.926 767.164 249.315 763.515C245.704 759.866 242.853 755.537 240.927 750.778C239.001 746.02 238.037 740.927 238.092 735.794C237.737 731.057 238.436 726.3 240.138 721.865C241.84 717.43 244.503 713.427 247.937 710.144C251.692 707.313 256.106 705.485 260.763 704.83C265.42 704.175 270.167 704.715 274.558 706.4C282.739 710.698 282.739 717.631 278.302 725.534C275.39 725.534 272.34 725.534 272.062 724.009C271.65 722.282 270.849 720.672 269.719 719.302C268.59 717.932 267.162 716.839 265.545 716.106C264.123 715.491 262.589 715.174 261.039 715.174C259.489 715.174 257.956 715.491 256.533 716.106C253.601 717.188 251.211 719.379 249.878 722.206C248.768 725.108 248.768 728.317 249.878 731.219C250.438 732.741 251.306 734.131 252.428 735.302C253.55 736.473 254.902 737.4 256.398 738.024C257.895 738.649 259.505 738.958 261.126 738.932C262.748 738.906 264.347 738.546 265.823 737.874C266.282 737.69 266.796 737.696 267.251 737.891C267.706 738.086 268.065 738.454 268.249 738.914C268.433 739.373 268.427 739.887 268.232 740.342C268.037 740.797 267.669 741.156 267.209 741.34C265.31 741.669 263.515 742.444 261.972 743.601C260.43 744.758 259.184 746.264 258.336 747.995C257.226 750.897 257.226 754.106 258.336 757.008C259.431 759.932 261.618 762.318 264.436 763.663C265.859 764.277 267.393 764.594 268.943 764.594C270.492 764.594 272.026 764.277 273.449 763.663C274.912 763.147 276.256 762.341 277.4 761.292C278.543 760.244 279.463 758.975 280.104 757.562C281.027 755.834 281.509 753.906 281.509 751.947C281.509 749.988 281.027 748.059 280.104 746.332C280.018 746.114 279.978 745.88 279.989 745.647C279.999 745.413 280.058 745.184 280.163 744.974C280.267 744.765 280.415 744.58 280.596 744.431C280.777 744.283 280.987 744.175 281.213 744.113C281.441 744.026 281.683 743.985 281.926 743.994C282.17 744.002 282.409 744.06 282.629 744.164C282.849 744.268 283.046 744.415 283.208 744.597C283.37 744.779 283.493 744.991 283.57 745.222C283.963 746.974 284.756 748.612 285.886 750.007C287.017 751.402 288.455 752.517 290.087 753.264C291.51 753.878 293.044 754.195 294.593 754.195C296.143 754.195 297.677 753.878 299.1 753.264C302.002 752.132 304.376 749.956 305.755 747.163C306.864 744.262 306.864 741.053 305.755 738.151C304.623 735.249 302.447 732.875 299.654 731.496C298.033 730.71 296.256 730.302 294.455 730.302C292.654 730.302 290.876 730.71 289.255 731.496C288.146 732.328 286.344 730.664 285.096 728.446C286.701 726.391 287.88 724.036 288.561 721.52C289.243 719.003 289.415 716.376 289.066 713.792C288.717 711.208 287.855 708.72 286.53 706.474C285.205 704.228 283.445 702.27 281.352 700.715C274.873 696.79 267.276 695.124 259.75 695.977C252.223 696.83 245.192 700.154 239.756 705.429C234.383 711.135 230.522 718.094 228.525 725.672C226.719 730.806 223.055 735.077 218.256 737.644C213.456 740.21 207.87 740.886 202.597 739.538C201.195 739.519 199.81 739.225 198.522 738.672C197.233 738.119 196.066 737.317 195.088 736.313C194.109 735.309 193.338 734.121 192.819 732.819C192.299 731.517 192.041 730.125 192.059 728.723C193.478 730.079 195.365 730.836 197.328 730.836C199.291 730.836 201.178 730.079 202.597 728.723C203.986 727.321 204.764 725.427 204.764 723.454C204.764 721.481 203.986 719.587 202.597 718.185C200.742 716.306 198.349 715.048 195.748 714.586C193.148 714.125 190.468 714.481 188.079 715.607C185.69 716.733 183.71 718.573 182.411 720.873C181.112 723.172 180.559 725.818 180.828 728.446C180.999 732.612 182.41 736.633 184.88 739.992C187.35 743.352 190.767 745.897 194.694 747.302C205.179 751.809 216.8 752.971 227.97 750.63C231.582 760.695 238.203 769.406 246.933 775.582C255.664 781.758 266.082 785.1 276.776 785.154C283.793 785.279 290.752 783.859 297.158 780.994C299.516 784.461 301.318 786.956 304.091 790.7C306.379 794.432 309.831 797.309 313.915 798.887C317.999 800.466 322.488 800.658 326.692 799.435C329.144 798.824 331.383 797.554 333.166 795.762C334.949 793.971 336.209 791.726 336.809 789.27C337.408 786.815 337.325 784.242 336.568 781.83C335.812 779.419 334.41 777.26 332.515 775.587C331.059 774.362 329.179 773.763 327.283 773.918C325.387 774.074 323.63 774.973 322.393 776.419C321.761 777.123 321.277 777.946 320.969 778.841C320.661 779.735 320.536 780.682 320.6 781.626C320.665 782.57 320.918 783.491 321.345 784.335C321.772 785.179 322.365 785.929 323.087 786.54C325.305 789.313 321.007 792.502 317.818 790.007C314.816 787.122 312.942 783.26 312.536 779.116C312.129 774.973 313.215 770.82 315.599 767.406C323.977 758.343 328.415 746.325 327.94 733.992C327.933 729.96 327.373 725.947 326.276 722.068C325.889 719.2 326.583 716.291 328.223 713.907C329.864 711.524 332.333 709.836 335.149 709.173C339.032 707.786 342.221 711.53 339.448 713.748C338.598 714.173 337.843 714.764 337.227 715.486C336.611 716.209 336.147 717.048 335.863 717.954C335.578 718.86 335.479 719.813 335.57 720.758C335.662 721.703 335.944 722.62 336.397 723.454C337.336 725.126 338.88 726.375 340.711 726.942C342.543 727.51 344.522 727.353 346.242 726.504C348.478 725.328 350.349 723.563 351.655 721.401C352.961 719.238 353.652 716.76 353.652 714.234C353.652 711.707 352.961 709.229 351.655 707.067C350.349 704.904 348.478 703.139 346.242 701.963C342.653 699.778 338.448 698.826 334.268 699.252C330.088 699.677 326.162 701.457 323.087 704.32L319.759 707.093C314.973 699.824 308.315 693.981 300.486 690.178C287.453 683.8 269.705 677.976 253.205 669.657L251.541 692.535M561.153 692.535L559.49 669.657C542.99 677.976 525.242 683.523 512.209 690.178C504.38 693.981 497.722 699.824 492.936 707.093L489.47 704.32C486.417 701.469 482.514 699.694 478.358 699.269C474.202 698.843 470.021 699.789 466.453 701.963C464.217 703.139 462.345 704.904 461.04 707.067C459.734 709.229 459.043 711.707 459.043 714.234C459.043 716.76 459.734 719.238 461.04 721.401C462.345 723.563 464.217 725.328 466.453 726.504C468.173 727.353 470.152 727.51 471.984 726.942C473.815 726.375 475.359 725.126 476.298 723.454C476.751 722.62 477.033 721.703 477.125 720.758C477.217 719.813 477.117 718.86 476.832 717.954C476.548 717.048 476.084 716.209 475.468 715.486C474.852 714.764 474.097 714.173 473.247 713.748C470.474 711.53 473.247 707.786 477.546 709.173C479.082 709.569 480.52 710.275 481.774 711.247C483.028 712.22 484.069 713.438 484.835 714.827C485.601 716.216 486.075 717.747 486.228 719.326C486.382 720.905 486.211 722.498 485.726 724.009C484.629 727.889 484.069 731.901 484.062 735.933C483.587 748.266 488.025 760.284 496.402 769.348C498.797 772.767 499.877 776.936 499.444 781.088C499.011 785.24 497.094 789.096 494.045 791.948C490.995 794.443 486.697 791.948 488.915 788.481C489.59 787.823 490.127 787.036 490.493 786.167C490.859 785.297 491.048 784.364 491.048 783.421C491.048 782.477 490.859 781.544 490.493 780.675C490.127 779.806 489.59 779.019 488.915 778.36C487.679 776.914 485.921 776.015 484.026 775.86C482.13 775.704 480.249 776.303 478.793 777.528C476.898 779.191 475.492 781.34 474.727 783.743C473.962 786.146 473.866 788.712 474.451 791.165C475.036 793.618 476.278 795.865 478.045 797.664C479.812 799.463 482.036 800.747 484.478 801.376C488.702 802.609 493.214 802.422 497.321 800.844C501.429 799.266 504.905 796.385 507.217 792.641C509.99 788.897 511.793 786.402 514.15 782.935C520.513 785.785 527.423 787.204 534.393 787.095C545.363 787.349 556.134 784.135 565.171 777.911C574.208 771.688 581.05 762.771 584.725 752.432C595.895 754.773 607.516 753.611 618.001 749.105C621.928 747.7 625.345 745.154 627.815 741.795C630.285 738.435 631.696 734.414 631.867 730.248C632.136 727.621 631.583 724.975 630.284 722.675C628.985 720.376 627.005 718.536 624.616 717.41C622.227 716.284 619.547 715.927 616.947 716.389C614.346 716.851 611.953 718.108 610.098 719.988C608.71 721.39 607.931 723.283 607.931 725.257C607.931 727.23 608.71 729.123 610.098 730.525C611.517 731.881 613.404 732.638 615.367 732.638C617.33 732.638 619.217 731.881 620.636 730.525C620.654 731.927 620.396 733.319 619.876 734.622C619.357 735.924 618.586 737.111 617.607 738.115C616.629 739.12 615.462 739.921 614.173 740.474C612.885 741.028 611.5 741.322 610.098 741.34C604.825 742.688 599.239 742.013 594.439 739.446C589.64 736.88 585.976 732.609 584.17 727.475C582.173 719.896 578.312 712.938 572.939 707.232C567.491 701.978 560.462 698.668 552.941 697.816C545.42 696.963 537.829 698.616 531.343 702.518C529.276 704.095 527.542 706.066 526.241 708.316C524.94 710.567 524.097 713.054 523.762 715.632C523.427 718.21 523.606 720.829 524.288 723.337C524.971 725.846 526.143 728.195 527.738 730.248C526.49 732.466 524.688 734.13 523.578 733.298C521.958 732.513 520.18 732.105 518.379 732.105C516.578 732.105 514.8 732.513 513.179 733.298C510.386 734.677 508.21 737.051 507.079 739.954C506.464 741.376 506.148 742.91 506.148 744.46C506.148 746.009 506.464 747.543 507.079 748.966C508.458 751.759 510.832 753.935 513.734 755.067C515.157 755.681 516.69 755.998 518.24 755.998C519.79 755.998 521.324 755.681 522.746 755.067C524.379 754.319 525.817 753.204 526.947 751.809C528.078 750.414 528.87 748.777 529.263 747.025C529.341 746.794 529.464 746.581 529.626 746.399C529.788 746.217 529.984 746.07 530.205 745.967C530.425 745.863 530.664 745.805 530.907 745.796C531.151 745.787 531.393 745.828 531.62 745.916C531.846 745.977 532.057 746.086 532.238 746.234C532.419 746.382 532.566 746.567 532.671 746.777C532.776 746.986 532.835 747.215 532.845 747.449C532.855 747.683 532.816 747.916 532.73 748.134C531.826 749.638 531.265 751.324 531.087 753.07C530.91 754.816 531.12 756.579 531.703 758.235C532.285 759.89 533.226 761.397 534.458 762.647C535.691 763.896 537.183 764.859 538.83 765.465C540.253 766.08 541.787 766.396 543.337 766.396C544.886 766.396 546.42 766.08 547.843 765.465C550.661 764.12 552.848 761.734 553.943 758.81C555.053 755.908 555.053 752.699 553.943 749.798C553.095 748.066 551.849 746.56 550.307 745.403C548.764 744.247 546.969 743.472 545.07 743.143C544.61 742.959 544.242 742.6 544.047 742.145C543.852 741.69 543.846 741.176 544.03 740.716C544.214 740.256 544.573 739.889 545.028 739.694C545.483 739.499 545.997 739.492 546.456 739.676C547.949 740.526 549.609 741.039 551.321 741.18C553.032 741.321 554.754 741.086 556.365 740.491C557.977 739.897 559.439 738.958 560.649 737.739C561.859 736.521 562.789 735.052 563.372 733.437C564.481 730.535 564.481 727.326 563.372 724.425C562.039 721.597 559.649 719.407 556.717 718.324C555.294 717.71 553.76 717.393 552.21 717.393C550.66 717.393 549.127 717.71 547.704 718.324C546.087 719.057 544.66 720.151 543.53 721.521C542.401 722.89 541.599 724.5 541.187 726.227C541.187 728.03 537.86 728.168 534.809 727.475C530.511 719.849 530.511 713.61 538.692 708.618C543.082 706.934 547.829 706.394 552.486 707.049C557.143 707.703 561.557 709.532 565.313 712.362C568.779 715.587 571.503 719.526 573.299 723.907C575.094 728.287 575.917 733.005 575.712 737.735C575.787 742.927 574.819 748.081 572.867 752.892C570.914 757.703 568.017 762.074 564.345 765.745C560.674 769.417 556.303 772.314 551.492 774.267C546.68 776.219 541.526 777.187 536.335 777.112C525.931 777.104 515.956 772.964 508.604 765.604C501.294 758.218 497.164 748.265 497.096 737.874C496.95 731.097 498.497 724.392 501.596 718.364C504.695 712.335 509.248 707.175 514.843 703.35C526.228 695.585 539.932 691.964 553.666 693.089C556.603 693.439 559.519 693.948 562.401 694.615M553.118 65.8332C554.228 62.9315 554.228 59.7225 553.118 56.8209C552.023 53.8964 549.836 51.5107 547.017 50.1656C545.594 49.5514 544.061 49.2345 542.511 49.2345C540.961 49.2345 539.428 49.5514 538.005 50.1656C536.53 50.659 535.175 51.4572 534.028 52.5082C532.882 53.5592 531.969 54.8396 531.35 56.2663C530.403 57.9865 529.906 59.9181 529.906 61.8816C529.906 63.8451 530.403 65.7768 531.35 67.497C531.436 67.7146 531.475 67.948 531.465 68.1819C531.455 68.4158 531.396 68.6449 531.291 68.8542C531.186 69.0636 531.039 69.2485 530.858 69.3969C530.677 69.5453 530.466 69.6539 530.24 69.7154C529.959 69.5692 529.72 69.3511 529.55 69.0833C529.38 68.8155 529.283 68.5074 529.27 68.1903C528.877 66.4382 528.084 64.8007 526.954 63.4057C525.823 62.0106 524.386 60.8959 522.753 60.1485C521.33 59.5342 519.797 59.2174 518.247 59.2174C516.697 59.2174 515.163 59.5342 513.741 60.1485C510.838 61.2801 508.464 63.4562 507.085 66.2491C506.471 67.672 506.154 69.2055 506.154 70.7553C506.154 72.3051 506.471 73.8386 507.085 75.2615C508.217 78.1636 510.393 80.5375 513.186 81.9167C514.807 82.702 516.584 83.11 518.385 83.11C520.186 83.11 521.964 82.702 523.585 81.9167C524.694 81.0848 526.497 82.7486 527.744 84.967C526.15 87.0202 524.977 89.3689 524.295 91.8775C523.612 94.3862 523.434 97.0052 523.769 99.5833C524.104 102.161 524.946 104.648 526.247 106.898C527.549 109.149 529.283 111.12 531.35 112.697C537.835 116.599 545.427 118.252 552.948 117.399C560.468 116.547 567.498 113.237 572.946 107.983C578.318 102.277 582.179 95.3185 584.176 87.7401C585.983 82.6061 589.647 78.335 594.446 75.7686C599.245 73.2021 604.832 72.5265 610.105 73.8749C611.507 73.893 612.891 74.1871 614.18 74.7404C615.468 75.2937 616.635 76.0954 617.614 77.0997C618.592 78.104 619.363 79.2911 619.883 80.5935C620.403 81.8958 620.661 83.2877 620.642 84.6897C619.223 83.3337 617.336 82.5769 615.373 82.5769C613.411 82.5769 611.524 83.3337 610.105 84.6897C608.716 86.0917 607.937 87.9852 607.937 89.9585C607.937 91.9317 608.716 93.8252 610.105 95.2272C611.96 97.1069 614.353 98.3644 616.953 98.8261C619.553 99.2879 622.233 98.9312 624.622 97.8052C627.011 96.6792 628.992 94.8394 630.29 92.5399C631.589 90.2403 632.142 87.5943 631.873 84.967C631.703 80.8005 630.292 76.7798 627.822 73.4203C625.351 70.0607 621.934 67.5154 618.008 66.1105C607.73 60.9461 596.101 59.1049 584.731 60.8418C581.111 50.754 574.47 42.0272 565.712 35.8494C556.953 29.6717 546.504 26.3434 535.786 26.3176C528.748 26.2747 521.788 27.7898 515.404 30.7545C513.047 27.2882 511.245 24.7925 508.472 21.0489C506.16 17.3052 502.683 14.4234 498.576 12.8456C494.468 11.2677 489.956 11.0809 485.733 12.3139C483.291 12.9432 481.066 14.2266 479.3 16.0259C477.533 17.8252 476.29 20.0723 475.705 22.5253C475.121 24.9783 475.216 27.5443 475.981 29.9471C476.746 32.3499 478.152 34.4986 480.048 36.1619C481.503 37.3865 483.384 37.9862 485.28 37.8304C487.176 37.6745 488.933 36.7758 490.169 35.33C490.844 34.6712 491.381 33.8842 491.747 33.0151C492.113 32.1459 492.302 31.2123 492.302 30.2692C492.302 29.3261 492.113 28.3925 491.747 27.5233C491.381 26.6542 490.844 25.8671 490.169 25.2084C487.951 22.4354 492.249 19.2464 495.3 21.7422C498.236 24.7681 499.968 28.7604 500.172 32.9715C500.376 37.1827 499.038 41.3238 496.409 44.6196C488.031 53.6835 483.593 65.7013 484.069 78.0345C484.087 82.0657 484.647 86.0761 485.733 89.9585C486.192 91.4789 486.335 93.0771 486.153 94.6549C485.972 96.2327 485.47 97.7568 484.677 99.1333C483.885 100.51 482.82 101.71 481.547 102.659C480.274 103.609 478.82 104.288 477.275 104.655C473.392 106.042 470.203 102.298 472.976 100.08C474.665 99.1943 475.934 97.6759 476.505 95.857C477.077 94.0381 476.905 92.0668 476.027 90.3744C475.089 88.7021 473.545 87.4535 471.713 86.886C469.881 86.3184 467.902 86.4753 466.182 87.3241C463.947 88.5003 462.075 90.265 460.769 92.4276C459.463 94.5902 458.773 97.0684 458.773 99.5947C458.773 102.121 459.463 104.599 460.769 106.762C462.075 108.924 463.947 110.689 466.182 111.865C469.75 114.039 473.931 114.985 478.087 114.56C482.243 114.134 486.146 112.36 489.199 109.508L492.665 106.735C497.451 114.004 504.109 119.848 511.938 123.651C524.971 130.029 542.719 135.852 559.219 144.171L560.883 121.294C558.001 121.96 555.085 122.469 552.148 122.819C538.413 123.945 524.709 120.323 513.325 112.559C507.729 108.733 503.176 103.573 500.077 97.5447C496.978 91.5166 495.432 84.8109 495.577 78.0345C495.559 72.87 496.56 67.7527 498.524 62.9761C500.488 58.1994 503.375 53.8575 507.021 50.1992C510.666 46.5409 514.998 43.6382 519.768 41.6576C524.537 39.6771 529.651 38.6576 534.816 38.6576C540.008 38.5829 545.162 39.5504 549.973 41.5028C554.784 43.4552 559.155 46.3529 562.826 50.0243C566.498 53.6958 569.396 58.0665 571.348 62.8776C573.301 67.6888 574.268 72.8428 574.193 78.0345C574.399 82.7643 573.575 87.4823 571.78 91.8629C569.985 96.2435 567.26 100.182 563.794 103.408C560.039 106.238 555.625 108.066 550.968 108.721C546.311 109.376 541.564 108.836 537.173 107.151C528.992 102.853 528.992 95.7818 533.429 88.0174C536.341 88.0174 539.391 88.0173 539.669 89.5425C540.081 91.2694 540.882 92.8792 542.012 94.249C543.141 95.6187 544.569 96.7121 546.185 97.4456C547.608 98.0599 549.142 98.3767 550.692 98.3767C552.241 98.3767 553.775 98.0599 555.198 97.4456C558.13 96.363 560.52 94.1722 561.853 91.345C562.963 88.4433 562.963 85.2343 561.853 82.3327C561.27 80.7173 560.341 79.249 559.13 78.0304C557.92 76.8119 556.458 75.8725 554.847 75.2782C553.235 74.6839 551.514 74.4489 549.802 74.5897C548.09 74.7305 546.43 75.2437 544.938 76.0934C544.478 76.2772 543.964 76.271 543.509 76.0759C543.054 75.8809 542.695 75.5131 542.511 75.0535C542.327 74.5938 542.334 74.0799 542.529 73.6249C542.724 73.1699 543.091 72.811 543.551 72.6271C545.451 72.2978 547.245 71.523 548.788 70.3661C550.33 69.2093 551.577 67.7034 552.425 65.9718M691.905 251.485L669.028 252.594C677.347 269.094 682.893 286.841 689.548 299.874C693.351 307.703 699.195 314.361 706.464 319.147L703.691 322.475C700.828 325.55 699.048 329.476 698.622 333.656C698.197 337.836 699.149 342.04 701.334 345.629C702.51 347.865 704.275 349.737 706.437 351.043C708.6 352.349 711.078 353.039 713.604 353.039C716.131 353.039 718.609 352.349 720.772 351.043C722.934 349.737 724.699 347.865 725.875 345.629C726.724 343.91 726.881 341.93 726.313 340.099C725.746 338.267 724.497 336.723 722.825 335.785C721.991 335.331 721.074 335.05 720.129 334.958C719.184 334.866 718.23 334.965 717.325 335.25C716.419 335.535 715.58 335.999 714.857 336.615C714.135 337.231 713.544 337.986 713.119 338.835C710.901 341.608 707.157 338.835 708.544 334.537C709 333.051 709.749 331.671 710.747 330.479C711.744 329.287 712.971 328.307 714.354 327.596C715.736 326.885 717.247 326.458 718.797 326.341C720.348 326.223 721.906 326.417 723.38 326.911C727.26 328.009 731.272 328.568 735.304 328.575C747.637 329.051 759.655 324.612 768.719 316.235C772.133 313.851 776.286 312.765 780.429 313.171C784.573 313.578 788.435 315.451 791.32 318.454C793.816 321.643 791.32 325.941 787.853 323.722C786.603 322.27 784.827 321.373 782.916 321.23C781.005 321.087 779.115 321.71 777.662 322.96C776.21 324.21 775.313 325.986 775.17 327.897C775.027 329.808 775.65 331.698 776.9 333.151C778.573 335.046 780.732 336.447 783.143 337.204C785.555 337.961 788.128 338.044 790.583 337.444C793.039 336.844 795.284 335.585 797.075 333.802C798.867 332.019 800.137 329.78 800.748 327.327C801.971 323.124 801.779 318.634 800.201 314.551C798.622 310.467 795.746 307.015 792.013 304.727L782.307 297.795C785.172 291.388 786.592 284.43 786.467 277.413C786.413 266.719 783.071 256.301 776.895 247.57C770.719 238.84 762.008 232.22 751.942 228.608C754.283 217.437 753.121 205.817 748.614 195.332C747.21 191.405 744.664 187.988 741.305 185.518C737.945 183.048 733.924 181.637 729.758 181.466C727.13 181.197 724.484 181.75 722.185 183.049C719.885 184.348 718.045 186.328 716.919 188.717C715.793 191.106 715.437 193.786 715.898 196.386C716.36 198.987 717.618 201.379 719.497 203.235C720.899 204.623 722.793 205.402 724.766 205.402C726.739 205.402 728.633 204.623 730.035 203.235C731.391 201.816 732.148 199.929 732.148 197.966C732.148 196.003 731.391 194.116 730.035 192.697C731.437 192.679 732.829 192.937 734.131 193.456C735.434 193.976 736.621 194.747 737.625 195.726C738.629 196.704 739.431 197.871 739.984 199.159C740.538 200.448 740.832 201.833 740.85 203.235C742.198 208.507 741.523 214.094 738.956 218.893C736.39 223.692 732.119 227.356 726.985 229.162C719.406 231.16 712.447 235.02 706.741 240.393C701.466 245.829 698.142 252.86 697.289 260.387C696.436 267.913 698.102 275.51 702.027 281.988C703.582 284.081 705.54 285.842 707.786 287.167C710.032 288.491 712.52 289.353 715.104 289.702C717.688 290.051 720.315 289.88 722.832 289.198C725.348 288.516 727.703 287.337 729.758 285.732C731.976 286.98 733.64 288.782 732.808 289.892C731.995 291.261 731.464 292.779 731.247 294.357C731.03 295.934 731.131 297.54 731.545 299.077C731.958 300.615 732.676 302.055 733.655 303.311C734.634 304.567 735.855 305.614 737.245 306.391C740.147 307.5 743.356 307.5 746.257 306.391C749.05 305.012 751.226 302.638 752.358 299.736C752.972 298.313 753.289 296.779 753.289 295.23C753.289 293.68 752.972 292.146 752.358 290.723C751.611 289.091 750.496 287.653 749.101 286.523C747.706 285.392 746.068 284.6 744.316 284.207C744.085 284.129 743.873 284.006 743.691 283.844C743.509 283.683 743.362 283.486 743.258 283.265C743.154 283.045 743.096 282.806 743.088 282.563C743.079 282.319 743.119 282.077 743.207 281.85C743.205 281.57 743.273 281.294 743.406 281.048C743.539 280.801 743.732 280.592 743.967 280.44C744.202 280.288 744.472 280.198 744.751 280.178C745.03 280.157 745.31 280.208 745.564 280.325C747.292 281.247 749.221 281.73 751.18 281.73C753.138 281.73 755.067 281.247 756.795 280.325C758.208 279.684 759.477 278.764 760.525 277.62C761.574 276.476 762.38 275.133 762.896 273.669C763.51 272.246 763.827 270.713 763.827 269.163C763.827 267.613 763.51 266.08 762.896 264.657C761.551 261.839 759.165 259.652 756.24 258.556C753.339 257.447 750.13 257.447 747.228 258.556C745.496 259.404 743.99 260.651 742.834 262.193C741.677 263.736 740.902 265.53 740.573 267.43C740.364 267.761 740.053 268.016 739.687 268.155C739.32 268.294 738.919 268.31 738.543 268.2C738.167 268.09 737.837 267.861 737.602 267.547C737.368 267.233 737.243 266.851 737.245 266.459C738.095 264.967 738.608 263.307 738.749 261.595C738.889 259.883 738.654 258.162 738.06 256.55C737.466 254.939 736.526 253.477 735.308 252.267C734.089 251.057 732.621 250.127 731.006 249.544C728.104 248.435 724.895 248.435 721.993 249.544C719.166 250.877 716.975 253.267 715.892 256.199C715.278 257.622 714.961 259.156 714.961 260.705C714.961 262.255 715.278 263.789 715.892 265.212C716.626 266.828 717.719 268.256 719.089 269.385C720.459 270.515 722.069 271.316 723.796 271.728C725.598 271.728 725.737 275.056 725.043 278.106C717.417 282.404 711.178 282.404 706.187 274.224C704.615 270 704.097 265.456 704.677 260.987C705.256 256.518 706.917 252.257 709.514 248.573C712.798 245.14 716.801 242.477 721.236 240.775C725.671 239.073 730.428 238.374 735.165 238.729C740.345 238.655 745.488 239.618 750.29 241.562C755.091 243.506 759.456 246.391 763.126 250.048C766.795 253.704 769.696 258.058 771.657 262.853C773.617 267.648 774.599 272.787 774.543 277.968C774.519 288.368 770.382 298.337 763.034 305.698C755.648 313.007 745.695 317.138 735.304 317.206C728.527 317.351 721.821 315.804 715.793 312.706C709.765 309.607 704.605 305.054 700.779 299.458C693.015 288.074 689.393 274.37 690.519 260.636C690.801 257.689 691.311 254.769 692.044 251.901M746.81 553.746C749.712 554.856 752.921 554.856 755.822 553.746C758.747 552.651 761.133 550.464 762.478 547.645C763.092 546.222 763.409 544.689 763.409 543.139C763.409 541.589 763.092 540.056 762.478 538.633C761.871 536.986 760.909 535.493 759.659 534.261C758.409 533.029 756.903 532.088 755.247 531.505C753.592 530.923 751.828 530.713 750.082 530.89C748.336 531.068 746.65 531.628 745.146 532.532C744.928 532.619 744.695 532.658 744.461 532.648C744.227 532.638 743.998 532.579 743.789 532.474C743.579 532.369 743.394 532.221 743.246 532.04C743.098 531.859 742.989 531.649 742.928 531.423C742.84 531.196 742.799 530.954 742.808 530.71C742.817 530.467 742.875 530.228 742.979 530.008C743.082 529.787 743.229 529.59 743.411 529.429C743.593 529.267 743.806 529.144 744.037 529.066C745.789 528.673 747.426 527.881 748.821 526.75C750.217 525.62 751.331 524.182 752.079 522.55C752.693 521.127 753.01 519.593 753.01 518.043C753.01 516.494 752.693 514.96 752.079 513.537C750.947 510.635 748.771 508.261 745.978 506.882C743.747 505.817 741.237 505.48 738.804 505.919C736.371 506.359 734.138 507.552 732.421 509.331C730.703 511.11 729.589 513.383 729.235 515.83C728.881 518.277 729.306 520.773 730.449 522.966C731.281 524.075 729.617 525.877 727.398 527.125C725.345 525.53 722.997 524.358 720.488 523.675C717.979 522.993 715.36 522.814 712.782 523.149C710.204 523.484 707.717 524.327 705.467 525.628C703.216 526.929 701.245 528.663 699.668 530.73C695.766 537.216 694.113 544.807 694.966 552.328C695.818 559.848 699.128 566.877 704.382 572.325C710.088 577.698 717.047 581.559 724.625 583.556C729.759 585.362 734.031 589.026 736.597 593.825C739.163 598.625 739.839 604.211 738.491 609.484C738.473 610.886 738.178 612.271 737.625 613.559C737.072 614.847 736.27 616.014 735.266 616.993C734.262 617.971 733.074 618.742 731.772 619.262C730.47 619.782 729.078 620.04 727.676 620.021C729.032 618.602 729.789 616.715 729.789 614.753C729.789 612.79 729.032 610.903 727.676 609.484C726.274 608.095 724.38 607.316 722.407 607.316C720.434 607.316 718.54 608.095 717.138 609.484C715.258 611.339 714.001 613.732 713.539 616.332C713.077 618.933 713.434 621.612 714.56 624.001C715.686 626.39 717.526 628.37 719.825 629.669C722.125 630.968 724.771 631.521 727.398 631.252C731.565 631.082 735.586 629.671 738.945 627.201C742.305 624.73 744.85 621.313 746.255 617.387C750.762 606.901 751.924 595.281 749.583 584.111C759.671 580.491 768.398 573.849 774.576 565.091C780.754 556.333 784.082 545.884 784.108 535.167C784.217 528.196 782.797 521.286 779.948 514.924L789.654 507.991C793.398 505.679 796.279 502.203 797.857 498.095C799.435 493.988 799.622 489.476 798.389 485.252C797.76 482.811 796.476 480.586 794.677 478.82C792.878 477.053 790.63 475.81 788.177 475.226C785.724 474.641 783.158 474.736 780.755 475.501C778.353 476.266 776.204 477.672 774.541 479.568C773.29 481.02 772.668 482.91 772.811 484.821C772.954 486.732 773.851 488.508 775.303 489.759C776.756 491.009 778.645 491.631 780.557 491.488C782.468 491.345 784.244 490.449 785.494 488.996C788.267 486.778 791.456 491.076 788.961 494.265C786.076 497.267 782.214 499.14 778.07 499.547C773.926 499.954 769.774 498.867 766.36 496.483C757.296 488.106 745.278 483.668 732.945 484.143C728.912 484.15 724.9 484.71 721.02 485.807C719.5 486.266 717.902 486.409 716.324 486.228C714.746 486.046 713.222 485.544 711.845 484.752C710.469 483.96 709.269 482.894 708.319 481.621C707.37 480.348 706.69 478.895 706.323 477.349C704.937 473.467 708.68 470.278 710.899 473.051C711.323 473.9 711.914 474.656 712.637 475.272C713.359 475.887 714.198 476.352 715.104 476.636C716.01 476.921 716.964 477.02 717.909 476.928C718.854 476.837 719.77 476.555 720.604 476.101C722.277 475.163 723.525 473.619 724.093 471.788C724.66 469.956 724.504 467.977 723.655 466.257C722.479 464.021 720.714 462.15 718.551 460.844C716.389 459.538 713.91 458.848 711.384 458.848C708.858 458.848 706.379 459.538 704.217 460.844C702.054 462.15 700.289 464.021 699.113 466.257C696.939 469.825 695.993 474.006 696.419 478.162C696.844 482.318 698.618 486.22 701.47 489.273L704.243 492.74C696.974 497.526 691.13 504.184 687.328 512.012C680.95 525.045 675.126 542.793 666.807 559.292L689.685 560.956C688.952 558.088 688.442 555.168 688.16 552.221C687.034 538.487 690.655 524.783 698.42 513.399C702.245 507.803 707.406 503.25 713.434 500.152C719.462 497.053 726.168 495.506 732.945 495.651C743.336 495.719 753.289 499.85 760.675 507.159C768.023 514.52 772.16 524.489 772.184 534.89C772.24 540.07 771.258 545.209 769.297 550.004C767.337 554.799 764.436 559.153 760.766 562.809C757.097 566.466 752.732 569.351 747.93 571.295C743.128 573.239 737.986 574.202 732.806 574.128C728.494 574.169 724.215 573.357 720.218 571.739C716.22 570.121 712.582 567.728 709.512 564.699C706.682 560.944 704.854 556.53 704.199 551.873C703.544 547.216 704.084 542.469 705.769 538.079C710.067 529.898 716.999 529.898 724.903 534.335C724.903 537.247 724.903 540.297 723.377 540.574C721.651 540.986 720.041 541.788 718.671 542.917C717.301 544.046 716.208 545.474 715.474 547.091C714.86 548.514 714.543 550.047 714.543 551.597C714.543 553.147 714.86 554.68 715.474 556.103C716.557 559.035 718.748 561.425 721.575 562.758C724.477 563.868 727.686 563.868 730.587 562.758C732.182 562.209 733.64 561.323 734.863 560.161C736.085 559 737.045 557.59 737.676 556.025C738.306 554.461 738.594 552.78 738.52 551.095C738.445 549.41 738.01 547.761 737.243 546.259C737.059 545.799 737.065 545.285 737.26 544.83C737.455 544.375 737.823 544.016 738.283 543.833C738.742 543.649 739.256 543.655 739.711 543.85C740.166 544.045 740.525 544.413 740.709 544.872C741.038 546.772 741.813 548.567 742.97 550.109C744.127 551.652 745.633 552.898 747.365 553.746M165.569 135.573C164.499 132.395 162.401 129.664 159.607 127.809C157.518 126.691 155.19 126.096 152.821 126.072C150.452 126.049 148.113 126.598 146.002 127.674C143.891 128.75 142.072 130.32 140.699 132.251C139.326 134.181 138.44 136.415 138.116 138.762C137.826 141.181 138.089 143.634 138.885 145.936C139.681 148.238 140.99 150.33 142.712 152.052C144.435 153.775 146.526 155.083 148.828 155.88C151.131 156.676 153.584 156.939 156.002 156.648L161.834 162.472M156.01 656.623L161.834 650.799C163.15 655.365 163.204 660.202 161.983 664.793C160.762 669.385 158.315 673.557 154.905 676.866C151.843 679.348 148.192 680.997 144.305 681.653C140.418 682.309 136.428 681.949 132.721 680.609M156.01 656.623C153.591 656.332 151.131 656.597 148.828 657.393C146.526 658.19 144.435 659.498 142.712 661.221C140.99 662.943 139.681 665.034 138.885 667.337C138.089 669.639 137.826 672.092 138.116 674.511M156.01 656.623C156.3 659.041 156.033 661.497 155.237 663.799C154.441 666.101 153.132 668.192 151.41 669.915C149.687 671.638 147.596 672.946 145.293 673.742C142.991 674.539 140.535 674.801 138.116 674.511M165.431 677.838C164.459 680.992 162.394 683.696 159.607 685.464C157.518 686.581 155.19 687.177 152.821 687.201C150.452 687.224 148.113 686.674 146.002 685.599C143.891 684.523 142.072 682.953 140.699 681.022C139.326 679.091 138.44 676.858 138.116 674.511M138.116 674.511C135.365 674.479 132.736 673.386 130.771 671.461C128.111 669.291 126.286 666.26 125.628 662.892C124.969 659.524 125.51 656.032 127.157 653.021C129.157 650.013 132.151 647.804 135.615 646.781M131.047 252.594L142.971 253.426C147.482 243.291 153.565 233.933 160.996 225.695C176.248 209.473 179.021 185.071 160.996 173.84C152.063 170.154 142.768 167.413 133.265 165.66M131.047 252.594L120.096 251.764C117.409 241.797 113.932 232.061 109.697 222.647C103.34 205.664 101.384 187.348 104.012 169.405C105.887 152.967 112.982 137.562 124.256 125.453C135.537 114.915 149.752 108.05 165.02 105.764C184.04 102.351 203.63 104.123 221.729 110.894C231.143 115.129 240.879 118.607 250.846 121.293L251.678 132.247C228.8 128.364 226.998 116.579 189.007 112.835C181.786 111.986 174.473 112.361 167.377 113.945C154.449 117.351 142.762 124.374 133.684 134.188C123.214 143.512 115.818 155.791 112.47 169.405C111.152 176.163 110.872 183.083 111.638 189.925C115.382 227.916 127.164 229.716 131.047 252.594ZM156.009 156.37C156.299 153.951 156.037 151.498 155.24 149.196C154.444 146.894 153.135 144.803 151.413 143.08C149.69 141.358 147.599 140.049 145.297 139.253C142.994 138.457 140.541 138.194 138.123 138.484C135.313 138.56 132.637 139.7 130.635 141.673C127.965 143.868 126.157 146.934 125.523 150.332C124.889 153.73 125.473 157.242 127.172 160.252C128.825 162.887 131.316 164.889 134.244 165.937M354.837 52.8C354.837 42.681 357.838 32.7893 363.459 24.3757C369.081 15.9621 377.072 9.40456 386.421 5.53221C395.77 1.65986 406.057 0.646681 415.981 2.62079C425.906 4.59489 435.022 9.46761 442.178 16.6228C449.333 23.7779 454.206 32.8942 456.18 42.8187C458.154 52.7432 457.141 63.0302 453.268 72.3789C449.396 81.7276 442.838 89.718 434.425 95.3398C426.011 100.962 416.119 103.962 406 103.962C392.431 103.962 379.417 98.5719 369.822 88.9771C360.227 79.3824 354.837 66.369 354.837 52.8ZM331.822 50.8589C330.409 51.4997 329.14 52.4196 328.091 53.5633C327.043 54.707 326.237 56.0509 325.721 57.5141C325.099 58.9349 324.777 60.4692 324.777 62.0203C324.777 63.5714 325.099 65.1057 325.721 66.5264C326.325 67.9628 327.233 69.2515 328.382 70.3045C329.53 71.3574 330.893 72.1497 332.376 72.6271C333.799 73.2414 335.333 73.5582 336.883 73.5582C338.432 73.5582 339.966 73.2414 341.389 72.6271C342.802 71.9863 344.071 71.0664 345.119 69.9227C346.167 68.779 346.974 67.4351 347.489 65.9719C348.599 63.0702 348.599 59.8612 347.489 56.9595C346.11 54.1666 343.736 51.9905 340.834 50.8589C337.932 49.7494 334.723 49.7494 331.822 50.8589ZM52.1631 355.475C42.044 355.475 32.1521 358.476 23.7384 364.098C15.3247 369.72 8.76699 377.71 4.89458 387.059C1.02217 396.407 0.00896908 406.694 1.98311 416.619C3.95725 426.543 8.83005 435.66 15.9853 442.815C23.1406 449.97 32.257 454.843 42.1817 456.817C52.1064 458.791 62.3936 457.778 71.7424 453.905C81.0912 450.033 89.0818 443.475 94.7037 435.062C100.326 426.648 103.326 416.757 103.326 406.638C103.326 393.069 97.9358 380.055 88.3409 370.461C78.746 360.866 65.7324 355.475 52.1631 355.475ZM354.837 760.475C354.837 770.594 357.838 780.486 363.459 788.9C369.081 797.313 377.072 803.871 386.421 807.743C395.77 811.616 406.057 812.629 415.981 810.655C425.906 808.681 435.022 803.808 442.178 796.653C449.333 789.497 454.206 780.381 456.18 770.457C458.154 760.532 457.141 750.245 453.268 740.896C449.396 731.548 442.838 723.557 434.425 717.936C426.011 712.314 416.119 709.313 406 709.313C392.431 709.313 379.417 714.703 369.822 724.298C360.227 733.893 354.837 746.906 354.837 760.475ZM759.837 355.475C769.956 355.475 779.848 358.476 788.262 364.098C796.675 369.72 803.233 377.71 807.105 387.059C810.978 396.407 811.991 406.694 810.017 416.619C808.043 426.543 803.17 435.66 796.015 442.815C788.859 449.97 779.743 454.843 769.818 456.817C759.894 458.791 749.606 457.778 740.258 453.905C730.909 450.033 722.918 443.475 717.296 435.062C711.674 426.648 708.674 416.757 708.674 406.638C708.674 393.069 714.064 380.055 723.659 370.461C733.254 360.866 746.268 355.475 759.837 355.475ZM781.467 392.91C784.209 392.91 786.89 393.724 789.17 395.247C791.45 396.771 793.227 398.936 794.277 401.47C795.326 404.003 795.601 406.791 795.066 409.481C794.531 412.17 793.21 414.641 791.271 416.58C789.332 418.519 786.861 419.839 784.172 420.374C781.482 420.909 778.694 420.635 776.161 419.585C773.627 418.536 771.462 416.759 769.938 414.479C768.415 412.199 767.601 409.518 767.601 406.776C767.601 403.098 769.062 399.572 771.663 396.971C774.263 394.371 777.789 392.91 781.467 392.91ZM773.559 385.006C773.559 382.264 772.746 379.584 771.222 377.303C769.699 375.023 767.533 373.246 765 372.197C762.466 371.147 759.678 370.873 756.989 371.408C754.299 371.943 751.829 373.263 749.89 375.202C747.95 377.141 746.63 379.612 746.095 382.301C745.56 384.991 745.834 387.779 746.884 390.312C747.933 392.846 749.711 395.011 751.991 396.535C754.271 398.058 756.951 398.872 759.694 398.872C763.371 398.872 766.898 397.411 769.498 394.811C772.098 392.21 773.559 388.684 773.559 385.006ZM773.559 406.637C773.559 409.379 772.746 412.06 771.222 414.34C769.699 416.62 767.533 418.397 765 419.446C762.466 420.496 759.678 420.771 756.989 420.236C754.299 419.701 751.829 418.38 749.89 416.441C747.95 414.502 746.63 412.031 746.095 409.342C745.56 406.652 745.834 403.864 746.884 401.331C747.933 398.797 749.711 396.632 751.991 395.108C754.271 393.585 756.951 392.772 759.694 392.772C763.371 392.772 766.898 394.232 769.498 396.833C772.098 399.433 773.559 402.96 773.559 406.637ZM773.559 428.267C773.559 431.009 772.746 433.69 771.222 435.97C769.699 438.25 767.533 440.028 765 441.077C762.466 442.126 759.678 442.401 756.989 441.866C754.299 441.331 751.829 440.01 749.89 438.071C747.95 436.132 746.63 433.662 746.095 430.972C745.56 428.283 745.834 425.495 746.884 422.961C747.933 420.428 749.711 418.262 751.991 416.739C754.271 415.215 756.951 414.402 759.694 414.402C763.371 414.402 766.898 415.863 769.498 418.463C772.098 421.063 773.559 424.59 773.559 428.267ZM738.083 392.91C735.341 392.91 732.66 393.724 730.38 395.247C728.1 396.771 726.323 398.936 725.273 401.47C724.224 404.003 723.949 406.791 724.484 409.481C725.019 412.17 726.34 414.641 728.279 416.58C730.218 418.519 732.689 419.839 735.378 420.374C738.068 420.909 740.856 420.635 743.389 419.585C745.923 418.536 748.088 416.759 749.612 414.479C751.136 412.199 751.949 409.518 751.949 406.776C751.949 403.098 750.488 399.572 747.888 396.971C745.287 394.371 741.761 392.91 738.083 392.91ZM73.793 392.91C76.5353 392.91 79.216 393.724 81.4962 395.247C83.7763 396.771 85.5535 398.936 86.6029 401.47C87.6523 404.003 87.9269 406.791 87.3919 409.481C86.8569 412.17 85.5364 414.641 83.5973 416.58C81.6582 418.519 79.1876 419.839 76.498 420.374C73.8084 420.909 71.0205 420.635 68.487 419.585C65.9534 418.536 63.7879 416.759 62.2644 414.479C60.7409 412.199 59.9277 409.518 59.9277 406.776C59.9277 403.098 61.3885 399.572 63.9887 396.971C66.589 394.371 70.1157 392.91 73.793 392.91ZM392.262 738.705C392.262 735.963 393.076 733.282 394.599 731.002C396.123 728.722 398.288 726.945 400.822 725.896C403.355 724.846 406.143 724.572 408.833 725.107C411.522 725.642 413.993 726.962 415.932 728.901C417.871 730.84 419.192 733.311 419.727 736C420.262 738.69 419.987 741.478 418.938 744.011C417.888 746.545 416.111 748.71 413.831 750.234C411.551 751.757 408.87 752.57 406.128 752.57C402.45 752.57 398.924 751.11 396.323 748.51C393.723 745.909 392.262 742.383 392.262 738.705ZM392.262 74.4295C392.262 77.1717 393.076 79.8524 394.599 82.1325C396.123 84.4126 398.288 86.1898 400.822 87.2392C403.355 88.2886 406.143 88.5632 408.833 88.0282C411.522 87.4932 413.993 86.1727 415.932 84.2336C417.871 82.2945 419.192 79.824 419.727 77.1344C420.262 74.4449 419.987 71.6571 418.938 69.1235C417.888 66.59 416.111 64.4246 413.831 62.9011C411.551 61.3776 408.87 60.5644 406.128 60.5644C402.45 60.5644 398.924 62.0252 396.323 64.6254C393.723 67.2256 392.262 70.7522 392.262 74.4295ZM392.262 30.7524C392.262 28.0101 393.076 25.3295 394.599 23.0494C396.123 20.7692 398.288 18.9921 400.822 17.9427C403.355 16.8933 406.143 16.6187 408.833 17.1537C411.522 17.6887 413.993 19.0092 415.932 20.9483C417.871 22.8874 419.192 25.3579 419.727 28.0474C420.262 30.737 419.987 33.5248 418.938 36.0583C417.888 38.5918 416.111 40.7573 413.831 42.2808C411.551 43.8043 408.87 44.6175 406.128 44.6175C402.45 44.6175 398.924 43.1567 396.323 40.5565C393.723 37.9563 392.262 34.4296 392.262 30.7524ZM384.382 39.0728C381.64 39.0728 378.959 39.886 376.679 41.4095C374.399 42.933 372.621 45.0984 371.572 47.632C370.523 50.1655 370.248 52.9533 370.783 55.6429C371.318 58.3324 372.639 60.803 374.578 62.742C376.517 64.6811 378.987 66.0016 381.677 66.5366C384.367 67.0716 387.154 66.797 389.688 65.7476C392.222 64.6982 394.387 62.921 395.911 60.6409C397.434 58.3608 398.247 55.6802 398.247 52.9379C398.247 49.2607 396.786 45.734 394.186 43.1338C391.586 40.5336 388.059 39.0728 384.382 39.0728ZM405.992 39.0728C408.735 39.0728 411.415 39.886 413.695 41.4095C415.976 42.933 417.753 45.0984 418.802 47.632C419.852 50.1655 420.126 52.9533 419.591 55.6429C419.056 58.3324 417.736 60.803 415.797 62.742C413.858 64.6811 411.387 66.0016 408.697 66.5366C406.008 67.0716 403.22 66.797 400.686 65.7476C398.153 64.6982 395.987 62.921 394.464 60.6409C392.94 58.3608 392.127 55.6802 392.127 52.9379C392.127 49.2607 393.588 45.734 396.188 43.1338C398.788 40.5336 402.315 39.0728 405.992 39.0728ZM427.63 39.0728C430.372 39.0728 433.053 39.886 435.333 41.4095C437.613 42.933 439.39 45.0984 440.44 47.632C441.489 50.1655 441.764 52.9533 441.229 55.6429C440.694 58.3324 439.373 60.803 437.434 62.742C435.495 64.6811 433.024 66.0016 430.335 66.5366C427.645 67.0716 424.857 66.797 422.324 65.7476C419.79 64.6982 417.625 62.921 416.101 60.6409C414.578 58.3608 413.765 55.6802 413.765 52.9379C413.765 49.2607 415.225 45.734 417.826 43.1338C420.426 40.5336 423.953 39.0728 427.63 39.0728ZM30.1118 392.91C27.3695 392.91 24.6888 393.724 22.4086 395.247C20.1285 396.771 18.3513 398.936 17.3019 401.47C16.2525 404.003 15.9779 406.791 16.5129 409.481C17.0479 412.17 18.3684 414.641 20.3075 416.58C22.2466 418.519 24.7172 419.839 27.4068 420.374C30.0964 420.909 32.8843 420.635 35.4178 419.585C37.9514 418.536 40.1169 416.759 41.6404 414.479C43.1639 412.199 43.9771 409.518 43.9771 406.776C43.9771 403.098 42.5163 399.572 39.9161 396.971C37.3158 394.371 33.7891 392.91 30.1118 392.91ZM38.4256 385.006C38.4256 382.264 39.2388 379.584 40.7623 377.303C42.2858 375.023 44.4513 373.246 46.9849 372.197C49.5184 371.147 52.3063 370.873 54.9959 371.408C57.6855 371.943 60.1561 373.263 62.0952 375.202C64.0343 377.141 65.3548 379.612 65.8898 382.301C66.4248 384.991 66.1502 387.779 65.1008 390.312C64.0514 392.846 62.2742 395.011 59.9941 396.535C57.7139 398.058 55.0332 398.872 52.2909 398.872C48.6136 398.872 45.0869 397.411 42.4866 394.811C39.8864 392.21 38.4256 388.684 38.4256 385.006ZM38.4256 406.637C38.4256 409.379 39.2388 412.06 40.7623 414.34C42.2858 416.62 44.4513 418.397 46.9849 419.446C49.5184 420.496 52.3063 420.771 54.9959 420.236C57.6855 419.701 60.1561 418.38 62.0952 416.441C64.0343 414.502 65.3548 412.031 65.8898 409.342C66.4248 406.652 66.1502 403.864 65.1008 401.331C64.0514 398.797 62.2742 396.632 59.9941 395.108C57.7139 393.585 55.0332 392.772 52.2909 392.772C48.6136 392.772 45.0869 394.232 42.4866 396.833C39.8864 399.433 38.4256 402.96 38.4256 406.637ZM38.4256 428.267C38.4256 431.009 39.2388 433.69 40.7623 435.97C42.2858 438.25 44.4513 440.028 46.9849 441.077C49.5184 442.126 52.3063 442.401 54.9959 441.866C57.6855 441.331 60.1561 440.01 62.0952 438.071C64.0343 436.132 65.3548 433.662 65.8898 430.972C66.4248 428.283 66.1502 425.495 65.1008 422.961C64.0514 420.428 62.2742 418.262 59.9941 416.739C57.7139 415.215 55.0332 414.402 52.2909 414.402C48.6136 414.402 45.0869 415.863 42.4866 418.463C39.8864 421.063 38.4256 424.59 38.4256 428.267ZM392.262 782.105C392.262 784.847 393.076 787.528 394.599 789.808C396.123 792.088 398.288 793.865 400.822 794.915C403.355 795.964 406.143 796.239 408.833 795.704C411.522 795.169 413.993 793.848 415.932 791.909C417.871 789.97 419.192 787.5 419.727 784.81C420.262 782.12 419.987 779.333 418.938 776.799C417.888 774.266 416.111 772.1 413.831 770.577C411.551 769.053 408.87 768.24 406.128 768.24C402.45 768.24 398.924 769.701 396.323 772.301C393.723 774.901 392.262 778.428 392.262 782.105ZM384.382 774.201C381.64 774.201 378.959 773.388 376.679 771.864C374.399 770.341 372.621 768.175 371.572 765.642C370.523 763.108 370.248 760.32 370.783 757.631C371.318 754.941 372.639 752.471 374.578 750.532C376.517 748.593 378.987 747.272 381.677 746.737C384.367 746.202 387.154 746.477 389.688 747.526C392.222 748.576 394.387 750.353 395.911 752.633C397.434 754.913 398.247 757.594 398.247 760.336C398.247 764.013 396.786 767.54 394.186 770.14C391.586 772.74 388.059 774.201 384.382 774.201ZM405.992 774.201C408.735 774.201 411.415 773.388 413.695 771.864C415.976 770.341 417.753 768.175 418.802 765.642C419.852 763.108 420.126 760.32 419.591 757.631C419.056 754.941 417.736 752.471 415.797 750.532C413.858 748.593 411.387 747.272 408.697 746.737C406.008 746.202 403.22 746.477 400.686 747.526C398.153 748.576 395.987 750.353 394.464 752.633C392.94 754.913 392.127 757.594 392.127 760.336C392.127 764.013 393.588 767.54 396.188 770.14C398.788 772.74 402.315 774.201 405.992 774.201ZM427.63 774.201C430.372 774.201 433.053 773.388 435.333 771.864C437.613 770.341 439.39 768.175 440.44 765.642C441.489 763.108 441.764 760.32 441.229 757.631C440.694 754.941 439.373 752.471 437.434 750.532C435.495 748.593 433.024 747.272 430.335 746.737C427.645 746.202 424.857 746.477 422.324 747.526C419.79 748.576 417.625 750.353 416.101 752.633C414.578 754.913 413.765 757.594 413.765 760.336C413.765 764.013 415.225 767.54 417.826 770.14C420.426 772.74 423.953 774.201 427.63 774.201ZM50.2254 332.457C50.8662 331.044 51.7861 329.775 52.9298 328.727C54.0736 327.679 55.4175 326.872 56.8808 326.357C58.3016 325.734 59.8359 325.413 61.387 325.413C62.9381 325.413 64.4724 325.734 65.8932 326.357C67.3296 326.961 68.6183 327.868 69.6713 329.017C70.7243 330.166 71.5166 331.528 71.994 333.012C72.6082 334.435 72.9251 335.968 72.9251 337.518C72.9251 339.068 72.6082 340.601 71.994 342.024C71.3532 343.437 70.4333 344.706 69.2895 345.754C68.1458 346.803 66.8019 347.609 65.3386 348.125C62.4369 349.234 59.2279 349.234 56.3261 348.125C53.5332 346.746 51.357 344.372 50.2254 341.47C49.1159 338.568 49.1159 335.359 50.2254 332.457ZM50.2254 480.814C50.8662 482.227 51.7861 483.496 52.9298 484.544C54.0736 485.593 55.4175 486.399 56.8808 486.915C58.3016 487.537 59.8359 487.858 61.387 487.858C62.9381 487.858 64.4724 487.537 65.8932 486.915C67.3296 486.31 68.6183 485.403 69.6713 484.254C70.7243 483.106 71.5166 481.743 71.994 480.259C72.6082 478.837 72.9251 477.303 72.9251 475.753C72.9251 474.203 72.6082 472.67 71.994 471.247C71.3532 469.834 70.4333 468.565 69.2895 467.517C68.1458 466.469 66.8019 465.662 65.3386 465.147C62.4369 464.037 59.2279 464.037 56.3261 465.147C53.5332 466.526 51.357 468.9 50.2254 471.802C49.1159 474.704 49.1159 477.912 50.2254 480.814ZM480.174 50.8589C483.002 52.1919 485.192 54.5819 486.275 57.5141C486.897 58.9349 487.219 60.4692 487.219 62.0203C487.219 63.5714 486.897 65.1057 486.275 66.5264C485.671 67.9628 484.763 69.2515 483.614 70.3045C482.466 71.3574 481.103 72.1497 479.62 72.6271C478.197 73.2414 476.663 73.5582 475.113 73.5582C473.564 73.5582 472.03 73.2414 470.607 72.6271C469.194 71.9863 467.925 71.0664 466.877 69.9227C465.828 68.779 465.022 67.4351 464.506 65.9719C463.397 63.0702 463.397 59.8612 464.506 56.9595C465.886 54.1666 468.26 51.9905 471.162 50.8589C474.064 49.7494 477.272 49.7494 480.174 50.8589ZM113.297 645.254C111.712 638.158 111.337 630.845 112.187 623.624C115.931 585.634 127.716 583.831 131.599 560.954L120.645 561.786C117.959 571.752 114.481 581.489 110.246 590.902C103.727 608.623 101.912 627.731 104.977 646.363C107.183 661.928 114.102 676.444 124.805 687.958C136.821 699.02 151.995 706.049 168.203 708.063C186.406 710.873 205.025 708.963 222.278 702.517C231.692 698.282 241.428 694.804 251.395 692.118L252.227 681.164C229.349 685.046 227.547 696.832 189.556 700.575C183.039 701.27 176.457 701.036 170.006 699.882C156.154 696.652 143.651 689.189 134.233 678.53C124.231 669.655 116.968 658.111 113.297 645.254Z" stroke="#CEBAA0" stroke-width="2" stroke-miterlimit="10"/>
</svg>
