<svg width="160" height="160" viewBox="0 0 160 160" fill="none" xmlns="http://www.w3.org/2000/svg">
<path d="M137.561 80.4651L143.576 80.8835L144.901 82.4072L144.494 88.2641L143.227 88.1761L143.635 82.3191L137.304 81.8787L136.897 87.7357L135.63 87.6476L136.038 81.7907L137.561 80.4651Z" fill="white"/>
<path d="M135.622 88.4143L144.256 90.5096L143.829 92.2676L138.724 94.0656L142.438 98.0039L142.011 99.7618L133.377 97.6665L133.706 96.3095L140.799 98.0307L137.162 94.1765L137.387 93.2513L142.385 91.4925L135.292 89.7713L135.622 88.4143Z" fill="white"/>
<path d="M134.235 99.4302L139.752 101.862L140.483 103.744L138.499 108.246L136.617 108.977L131.1 106.545L130.369 104.662L132.352 100.161L134.235 99.4302ZM133.514 100.673L131.531 105.174L137.338 107.734L139.321 103.233L133.514 100.673Z" fill="white"/>
<path d="M126.924 110.618L133.319 114.753L131.467 117.618L132.533 118.308L137.013 111.379L135.947 110.689L134.095 113.554L127.7 109.418L126.924 110.618Z" fill="white"/>
<path d="M122.654 113.087L130.842 120.591L126.393 125.446L124.376 125.534L119.931 121.46L119.843 119.443L123.327 115.64L121.689 114.14L122.654 113.087ZM125.458 124.588L128.941 120.786L124.263 116.498L120.779 120.3L125.458 124.588Z" fill="white"/>
<path d="M118.413 122.904L122.118 127.661L121.869 129.665L116.987 133.468L113.965 129.587L118.846 125.784L117.189 123.656L112.558 127.264L111.778 126.262L116.409 122.654L118.413 122.904ZM119.529 126.66L115.821 129.75L117.284 131.628L121.089 128.663L119.529 126.66Z" fill="white"/>
<path d="M106.635 129.3L110.289 135.983L107.296 137.62L107.905 138.733L115.144 134.775L114.535 133.661L111.542 135.298L107.888 128.615L106.635 129.3Z" fill="white"/>
<path d="M102.409 131.514L105.373 139.891L104.027 140.368L103.286 138.274L98.425 139.994L96.6025 139.124L95.332 135.534L96.2017 133.712L102.409 131.514ZM101.486 133.188L96.6252 134.908L98.0015 138.798L102.862 137.077L101.486 133.188Z" fill="white"/>
<path d="M80.302 137.553L79.9765 143.574L78.4736 144.923L72.6119 144.606L72.6804 143.338L78.5421 143.655L78.8848 137.317L73.0231 137L73.0916 135.733L78.9533 136.05L80.302 137.553Z" fill="white"/>
<path d="M72.3657 135.727L70.4023 144.394L68.6384 143.994L66.763 138.916L62.8823 142.69L61.1183 142.29L63.0817 133.624L64.4433 133.932L62.8306 141.051L66.6284 137.356L67.5568 137.566L69.3913 142.538L71.004 135.419L72.3657 135.727Z" fill="white"/>
<path d="M61.3394 134.503L58.9908 140.057L57.1195 140.816L52.5897 138.9L51.8308 137.028L54.1794 131.474L56.0507 130.716L60.5805 132.632L61.3394 134.503ZM60.0861 133.801L55.5563 131.885L53.0841 137.73L57.6139 139.647L60.0861 133.801Z" fill="white"/>
<path d="M50.0404 127.349L45.9996 133.805L43.1083 131.994L42.4348 133.07L49.4277 137.449L50.1012 136.373L47.2099 134.562L51.2507 128.106L50.0404 127.349Z" fill="white"/>
<path d="M47.5416 123.136L40.1582 131.433L35.2398 127.055L35.1224 125.039L39.1306 120.535L41.1465 120.418L44.9983 123.846L46.475 122.187L47.5416 123.136ZM36.0836 126.107L39.9354 129.536L44.1545 124.794L40.3027 121.366L36.0836 126.107Z" fill="white"/>
<path d="M37.6827 119.062L32.9808 122.836L30.9734 122.616L27.1005 117.79L30.9363 114.711L34.8092 119.537L36.9127 117.849L33.2384 113.27L34.2282 112.476L37.9025 117.054L37.6827 119.062ZM33.9431 120.233L30.8004 116.57L28.9444 118.06L31.9633 121.822L33.9431 120.233Z" fill="white"/>
<path d="M31.1073 107.372L24.4802 111.125L22.7996 108.156L21.6951 108.781L25.7598 115.962L26.8643 115.336L25.1837 112.367L31.8108 108.615L31.1073 107.372Z" fill="white"/>
<path d="M28.8379 103.211L20.5078 106.302L20.0112 104.963L22.0937 104.19L20.3004 99.3552L21.1426 97.5196L24.7126 96.1951L26.548 97.0374L28.8379 103.211ZM27.1513 102.314L25.3579 97.4789L21.4904 98.9137L23.2837 103.749L27.1513 102.314Z" fill="white"/>
<path d="M22.4513 81.3245L16.4268 81.0918L15.0551 79.6097L15.2816 73.743L16.5499 73.792L16.3234 79.6587L22.6649 79.9036L22.8914 74.0369L24.1597 74.0858L23.9332 79.9526L22.4513 81.3245Z" fill="white"/>
<path d="M24.1442 73.2857L15.4502 71.4545L15.8229 69.6844L20.8712 67.7315L17.0392 63.9082L17.4119 62.1381L26.1059 63.9694L25.8182 65.3358L18.6767 63.8315L22.4287 67.5731L22.2325 68.5047L17.2904 70.4151L24.4319 71.9193L24.1442 73.2857Z" fill="white"/>
<path d="M25.1897 62.2203L19.6026 59.9547L18.8158 58.0946L20.6638 53.5361L22.5236 52.7492L28.1108 55.0148L28.8975 56.8749L27.0495 61.4334L25.1897 62.2203ZM25.8733 60.9565L27.7213 56.3979L21.8401 54.013L19.9921 58.5716L25.8733 60.9565Z" fill="white"/>
<path d="M32.1093 50.8927L25.5956 46.9467L27.3629 44.0286L26.2773 43.371L22.0029 50.4285L23.0885 51.0861L24.8558 48.1681L31.3695 52.1142L32.1093 50.8927Z" fill="white"/>
<path d="M36.2894 48.2748L27.8867 41.0118L32.192 36.0296L34.206 35.8829L38.7675 39.8256L38.9142 41.8399L35.5425 45.7417L37.2231 47.1943L36.2894 48.2748ZM33.1523 36.8596L29.7807 40.7614L34.5822 44.9117L37.9539 41.0099L33.1523 36.8596Z" fill="white"/>
<path d="M40.2203 38.3239L36.3786 33.6768L36.5692 31.6662L41.3379 27.7228L44.4719 31.5139L39.7032 35.4572L41.4219 37.5362L45.946 33.7951L46.7548 34.7734L42.2306 38.5145L40.2203 38.3239ZM38.9955 34.6012L42.6116 31.4051L41.0951 29.5707L37.378 32.6445L38.9955 34.6012Z" fill="white"/>
<path d="M51.5554 31.7036L47.682 25.1458L50.6189 23.4106L49.9734 22.3176L42.8701 26.5144L43.5157 27.6074L46.4526 25.8722L50.326 32.4299L51.5554 31.7036Z" fill="white"/>
<path d="M55.9549 29.1995L52.7402 20.9155L54.0714 20.3988L54.8751 22.4698L59.682 20.6039L61.5298 21.4185L62.9075 24.9688L62.093 26.8168L55.9549 29.1995ZM56.8268 27.4993L61.6338 25.6334L60.1413 21.7873L55.3343 23.6532L56.8268 27.4993Z" fill="white"/>
<path d="M77.5739 22.4559L77.7123 16.4277L79.1726 15.0333L85.0413 15.1704L85.0121 16.4395L79.1435 16.3024L78.9977 22.6479L84.8664 22.785L84.8372 24.0541L78.9686 23.917L77.5739 22.4559Z" fill="white"/>
<path d="M85.7874 24.0196L87.4854 15.2974L89.2607 15.6431L91.2901 20.6617L95.0539 16.7712L96.8292 17.1169L95.1313 25.8391L93.7608 25.5722L95.1556 18.4075L91.4723 22.2167L90.5379 22.0348L88.5526 17.1218L87.1578 24.2864L85.7874 24.0196Z" fill="white"/>
<path d="M96.9309 24.9074L99.1123 19.2862L100.96 18.4715L105.545 20.2513L106.36 22.0994L104.178 27.7206L102.331 28.5353L97.7454 26.7555L96.9309 24.9074ZM98.2046 25.5721L102.79 27.3518L105.086 21.4347L100.501 19.655L98.2046 25.5721Z" fill="white"/>
<path d="M108.364 31.6566L112.214 25.0846L115.157 26.809L115.798 25.7137L108.68 21.5431L108.038 22.6384L110.981 24.3628L107.132 30.9348L108.364 31.6566Z" fill="white"/>
<path d="M111.075 35.8202L118.214 27.3115L123.258 31.5445L123.434 33.5564L119.558 38.1754L117.546 38.3514L113.597 35.0364L112.169 36.7382L111.075 35.8202ZM122.442 32.5169L118.492 29.2019L114.412 34.064L118.362 37.379L122.442 32.5169Z" fill="white"/>
<path d="M121.09 39.6198L125.68 35.7103L127.693 35.8717L131.705 40.5831L127.961 43.7724L123.949 39.061L121.895 40.8099L125.702 45.2798L124.735 46.1028L120.929 41.633L121.09 39.6198ZM124.794 38.3408L128.042 41.9105L129.854 40.3673L126.727 36.6947L124.794 38.3408Z" fill="white"/>
<path d="M127.9 50.9097L134.399 46.9397L136.177 49.8512L137.26 49.1896L132.96 42.1478L131.877 42.8095L133.655 45.721L127.156 49.691L127.9 50.9097Z" fill="white"/>
<path d="M130.432 55.222L138.666 51.8832L139.203 53.2066L137.144 54.0413L139.082 58.8205L138.295 60.6805L134.766 62.1115L132.906 61.3246L130.432 55.222ZM132.145 56.0685L134.083 60.8476L137.905 59.2975L135.968 54.5183L132.145 56.0685Z" fill="white"/>
</svg>
