<svg width="160" height="160" viewBox="0 0 160 160" fill="none" xmlns="http://www.w3.org/2000/svg">
<path d="M73.6024 86.1163C74.819 87.3773 76.1246 88.5297 77.5193 89.5736C78.9238 90.6072 80.3482 91.4341 81.7923 92.0543C83.2364 92.6848 84.6261 93 85.9614 93C86.8912 93 87.7468 92.8295 88.5282 92.4884C89.3195 92.1473 90.0415 91.6305 90.6944 90.938C91.0208 90.5866 91.3175 90.1731 91.5846 89.6977C91.8615 89.2222 92 88.7364 92 88.2403C92 87.9302 91.9308 87.6253 91.7923 87.3256C91.6538 87.0258 91.4115 86.7468 91.0653 86.4884L86.8071 83.4031C86.5895 83.2377 86.362 83.1085 86.1246 83.0155C85.8971 82.9121 85.6548 82.8605 85.3976 82.8605C85.1108 82.8605 84.814 82.938 84.5074 83.093C84.2008 83.2377 83.8744 83.4806 83.5282 83.8217L82.4896 84.8605C82.3412 85.0155 82.1682 85.093 81.9703 85.093C81.8813 85.093 81.7972 85.0775 81.7181 85.0465C81.639 85.0155 81.5598 84.9845 81.4807 84.9535C81.1048 84.7571 80.5608 84.3902 79.8487 83.8527C79.1464 83.3049 78.4194 82.6382 77.6677 81.8527C76.9159 81.0775 76.2779 80.323 75.7537 79.5891C75.2394 78.8553 74.8932 78.2817 74.7151 77.8682C74.6855 77.7855 74.6558 77.708 74.6261 77.6357C74.6063 77.553 74.5964 77.4755 74.5964 77.4031C74.5964 77.2171 74.6657 77.0568 74.8042 76.9225L75.7982 75.7597C76.1048 75.3773 76.3274 75.0258 76.4659 74.7054C76.6142 74.3747 76.6884 74.0594 76.6884 73.7597C76.6884 73.5013 76.6439 73.2481 76.5549 73C76.4659 72.7519 76.3422 72.509 76.184 72.2713L73.3798 68.1008C73.1128 67.7183 72.816 67.4393 72.4896 67.2636C72.1632 67.0879 71.822 67 71.4659 67C70.5856 67 69.725 67.4393 68.8843 68.3178C68.2413 69 67.7666 69.7545 67.4599 70.5814C67.1533 71.4083 67 72.2765 67 73.186C67 74.5711 67.2967 76.0181 67.8902 77.5271C68.4837 79.0362 69.2799 80.5245 70.2789 81.9922C71.2779 83.4599 72.3858 84.8346 73.6024 86.1163Z" fill="black"/>
</svg>
