<svg width="160" height="160" viewBox="0 0 160 160" fill="none" xmlns="http://www.w3.org/2000/svg">
<path fill-rule="evenodd" clip-rule="evenodd" d="M72.1315 24.3715L71.6855 15.4784L73.494 15.3875L76.6725 19.781L79.3954 15.0909L81.2039 15L81.6499 23.8931L80.2539 23.9633L79.8875 16.6582L77.2233 21.2499L76.2714 21.2977L73.1612 16.9963L73.5275 24.3013L72.1315 24.3715ZM61.6756 19.1419L63.0314 25.0297L64.7455 26.1025L70.4723 24.7803L70.1868 23.5407L64.4601 24.863L63.8535 22.229L69.8898 20.8352L68.7837 16.032L62.7474 17.4258L61.6756 19.1419ZM68.2733 19.903L63.6038 21.1444L63.0329 18.6653L67.7381 17.5789L68.2733 19.903ZM54.3282 28.5292L52.9432 25.1451L58.7618 22.5856L57.8586 20.3786L52.2737 22.6703L51.7919 21.4932L57.3768 19.2015L59.2415 19.9829L62.0718 26.8983L56.1929 29.3107L54.3282 28.5292ZM54.7477 25.7794L55.7112 28.1336L60.2673 26.264L59.1834 23.6155L54.7477 25.7794ZM47.8908 25.1696L51.8161 31.7127L50.5907 32.4497L46.6654 25.9067L43.7381 27.6675L43.0839 26.577L50.1638 22.3184L50.818 23.4089L47.8908 25.1696ZM40.3915 38.3921L36.546 33.7349L36.7368 31.7198L40.5313 28.5784L42.5437 28.7694L46.3892 33.4266L46.1984 35.4416L42.4039 38.5831L40.3915 38.3921ZM41.5943 37.6026L45.3888 34.4612L41.3409 29.5589L37.5464 32.7003L41.5943 37.6026ZM38.7395 40.4021L35.3362 44.2877L31.157 40.6176L34.5604 36.732L38.7395 40.4021ZM34.2743 45.2589L36.2914 45.1266L39.6948 41.241L39.5626 39.2212L35.5028 35.656L33.7099 35.7736L30.2018 39.7788L28.8884 38.6253L33.0771 33.843L32.1218 33.0041L27.9331 37.7864L28.0653 39.8062L34.2743 45.2589ZM29.1916 53.2236L26.0952 51.2827L29.3312 45.8068L27.3118 44.541L24.1097 49.6629L23.0327 48.9878L26.2348 43.8659L28.2048 43.4123L34.5322 47.3785L31.1616 52.77L29.1916 53.2236ZM27.9306 50.7447L30.0846 52.0949L32.6968 47.9165L30.2735 46.3975L27.9306 50.7447ZM18.8105 58.4926L29.0505 62.8295L29.6073 61.5114L27.5593 60.6441L29.5698 55.8844L28.81 54.0087L23.2511 51.6544L21.3778 52.4149L18.8105 58.4926ZM20.5375 57.6702L22.548 52.9105L28.3995 55.3888L26.389 60.1484L20.5375 57.6702ZM23.4037 70.4338L17.5381 69.0087L16.4859 67.2804L17.6467 62.4902L19.3729 61.437L25.2385 62.8622L26.2907 64.5904L25.1299 69.3807L23.4037 70.4338ZM23.8951 69.0806L25.0559 64.2904L18.8815 62.7902L17.7207 67.5805L23.8951 69.0806ZM15.1464 79.8697L24.02 80.4877L24.1192 79.0601L16.5132 78.5304L16.8658 73.4544L24.4717 73.9841L24.5709 72.5565L15.6973 71.9385L15.1464 79.8697ZM145 81.1866L136.137 80.4318L136.016 81.8577L143.613 82.5047L143.183 87.5746L135.586 86.9276L135.465 88.3535L144.328 89.1083L145 81.1866ZM142.429 92.0294L136.586 90.5151L134.844 91.5419L133.611 96.314L134.637 98.058L140.48 99.5723L142.222 98.5455L143.455 93.7735L142.429 92.0294ZM134.841 96.6328L136.074 91.8607L142.225 93.4547L140.992 98.2267L134.841 96.6328ZM130.813 98.0248L140.988 102.514L138.33 108.553L136.446 109.285L130.923 106.848L130.191 104.961L132.272 100.232L130.237 99.3344L130.813 98.0248ZM137.167 108.04L139.249 103.311L133.435 100.745L131.354 105.474L137.167 108.04ZM133.522 109.703L130.455 107.717L128.478 108.142L125.029 113.483L131.297 117.542L133.274 117.117L136.551 112.043L135.484 111.352L132.207 116.426L130.206 115.131L133.522 109.703ZM129.545 108.832L131.679 110.214L129.273 114.526L126.872 112.972L129.545 108.832ZM124.189 116.502L120.729 120.338L124.855 124.068L128.314 120.233L124.189 116.502ZM123.246 115.649L125.265 115.546L131.394 121.089L131.497 123.11L127.239 127.831L126.296 126.979L130.554 122.258L129.257 121.085L125.691 125.039L123.897 125.131L119.889 121.507L119.786 119.485L123.246 115.649ZM122.855 126.98L119.077 122.267L117.068 122.047L113.228 125.133L113.008 127.145L116.785 131.858L118.795 132.078L122.635 128.992L122.855 126.98ZM114.023 126.125L117.863 123.039L121.839 128L118 131.086L114.023 126.125ZM107.386 128.861L111.215 135.461L108.262 137.179L108.9 138.279L116.042 134.125L115.404 133.025L112.451 134.743L108.622 128.142L107.386 128.861ZM106.065 135.404L104.731 131.999L102.878 131.19L96.9638 133.514L99.6904 140.471L101.543 141.28L107.162 139.072L106.698 137.888L101.079 140.096L100.209 137.876L106.065 135.404ZM103.342 132.374L104.27 134.742L99.8028 136.84L98.7586 134.175L103.342 132.374ZM96.0727 135.292L97.3387 141.199L96.2409 142.899L90.1841 144.2L89.1512 139.381L95.208 138.079L94.6416 135.436L88.8954 136.671L88.6289 135.427L94.3751 134.193L96.0727 135.292ZM95.4413 139.168L90.7534 140.338L91.2531 142.67L95.9743 141.655L95.4413 139.168ZM87.33 144.669L87.0212 135.77L85.6242 135.818L85.8779 143.128L82.8344 138.779L81.8819 138.812L79.1472 143.362L78.8935 136.052L77.4965 136.101L77.8054 145L79.6151 144.937L82.41 140.289L85.5203 144.732L87.33 144.669ZM62.435 142.574L65.3706 134.169L59.0735 131.964L57.4547 132.744L56.6579 135.026L57.4978 136.331L56.4178 136.677L55.6577 138.853L56.4377 140.474L62.435 142.574ZM62.3123 138.589L61.505 140.901L57.007 139.326L57.8143 137.014L62.3123 138.589ZM63.6019 134.897L62.7317 137.389L57.9339 135.709L58.8041 133.217L63.6019 134.897ZM52.6552 139L57.0081 131.235L55.7893 130.55L52.2137 136.928L51.8694 131.629L51.0384 131.162L46.3412 133.628L49.9167 127.249L48.6979 126.564L44.345 134.329L45.924 135.217L50.7232 132.699L51.0763 138.113L52.6552 139ZM46.8129 126.926L42.9843 131.597L40.9726 131.795L36.1846 127.861L39.3079 124.05L44.0959 127.985L45.8087 125.895L41.2662 122.162L42.0722 121.179L46.6147 124.912L46.8129 126.926ZM43.3907 128.845L39.5577 125.901L38.0464 127.745L41.7786 130.812L43.3907 128.845ZM35.2664 124.995L39.7601 120.961L39.8702 118.94L35.9477 114.559L35.0016 115.408L38.9242 119.789L34.194 124.036L30.2715 119.655L29.3254 120.504L33.2479 124.885L35.2664 124.995ZM33.134 110.403L26.7935 114.641L24.8977 111.798L23.8409 112.504L28.4262 119.381L29.483 118.675L27.5871 115.831L33.9276 111.593L33.134 110.403ZM24.3554 110.484L29.8228 107.924L30.5123 106.021L28.0233 100.692L26.8723 101.231L29.3612 106.56L26.9153 107.706L24.2918 102.088L19.8316 104.176L22.4551 109.794L24.3554 110.484ZM23.7193 103.866L25.9081 108.177L23.6061 109.255L21.5611 104.876L23.7193 103.866ZM27.0296 97.8122L25.5047 98.2572L25.1048 96.8832L26.6298 96.4382L27.0296 97.8122ZM23.2749 97.4173L23.6748 98.7912L21.7534 99.3519L19.1783 95.0518L16.2199 95.9151L18.1305 102.479L16.9106 102.835L15 96.2711L15.9725 94.4967L19.6476 93.4242L22.2227 97.7243L23.2749 97.4173ZM93.8859 25.609L96.6948 17.1603L102.723 19.1697L103.527 20.7785L102.8 22.9661L101.725 23.3285L102.585 24.6205L101.822 26.9138L100.215 27.7188L93.8859 25.609ZM97.6498 18.8193L96.8774 21.1427L101.399 22.6498L102.171 20.3264L97.6498 18.8193ZM96.4761 22.3497L95.6435 24.8541L100.466 26.4617L101.299 23.9572L96.4761 22.3497ZM102.15 28.3178L106.388 20.489L107.98 21.353L108.413 26.7609L113.174 24.1723L114.766 25.0363L110.528 32.8651L109.3 32.1982L112.781 25.7674L108.12 28.3024L107.283 27.8477L106.86 22.554L103.379 28.9848L102.15 28.3178ZM116.235 27.7401L112.475 32.4666L112.703 34.4778L117.299 38.1441L118.091 37.149L113.494 33.4828L115.176 31.3683L120.021 35.2327L123.089 31.3769L118.244 27.5124L116.235 27.7401ZM119.745 33.3855L115.869 30.4976L117.452 28.5075L121.229 31.5198L119.745 33.3855ZM119.749 38.4237L124.184 34.3247L126.204 34.4056L130.19 38.7291L129.256 39.592L125.27 35.2685L120.602 39.5832L124.588 43.9067L123.654 44.7697L119.669 40.4462L119.749 38.4237ZM132.772 44.4866L126.494 48.8177L125.683 47.6391L131.961 43.308L130.023 40.4927L131.07 39.7708L135.755 46.5801L134.709 47.3019L132.772 44.4866ZM129.846 51.209L135.275 48.5679L137.185 49.2296L139.892 54.8076L135.463 56.9622L132.756 51.3842L130.328 52.5657L132.895 57.8577L131.753 58.4137L129.185 53.1217L129.846 51.209ZM133.756 50.8977L136.009 55.1762L138.152 54.1336L136.042 49.7856L133.756 50.8977ZM134.349 60.8636L132.83 61.3317L133.251 62.6994L134.769 62.2313L134.349 60.8636ZM136.17 60.3019L136.591 61.6697L137.638 61.3467L140.278 65.6073L143.936 64.4793L144.882 62.6903L142.872 56.1557L141.658 56.5301L143.668 63.0647L140.723 63.9728L138.083 59.7122L136.17 60.3019Z" fill="black"/>
</svg>
