<svg width="160" height="161" viewBox="0 0 160 161" fill="none" xmlns="http://www.w3.org/2000/svg">
<path d="M61 79.5C60.4477 79.5 60 79.9477 60 80.5C60 81.0523 60.4477 81.5 61 81.5V79.5ZM96.7071 81.2071C97.0976 80.8166 97.0976 80.1834 96.7071 79.7929L90.3431 73.4289C89.9526 73.0384 89.3195 73.0384 88.9289 73.4289C88.5384 73.8195 88.5384 74.4526 88.9289 74.8431L94.5858 80.5L88.9289 86.1569C88.5384 86.5474 88.5384 87.1805 88.9289 87.5711C89.3195 87.9616 89.9526 87.9616 90.3431 87.5711L96.7071 81.2071ZM61 81.5H96V79.5H61V81.5Z" fill="black"/>
</svg>
