<svg width="160" height="160" viewBox="0 0 160 160" fill="none" xmlns="http://www.w3.org/2000/svg">
<path d="M50 92V71.1667H62.7126L65.4695 73.8452V85.1548L62.7126 87.8333H52.7569V92H50ZM62.7126 73.5476H52.7569V85.4524H62.7126V73.5476Z" fill="#FD7E51"/>
<path d="M68.9959 87.8333V67H71.7528V87.8333H68.9959Z" fill="#FD7E51"/>
<path d="M75.1213 85.1548V78.3095L87.3744 78.0119V73.5476H75.7339V71.1667H87.3744L90.1313 73.8452V87.8333H77.8782L75.1213 85.1548ZM77.8782 80.6905V85.4524H87.3744V80.0952L77.8782 80.6905Z" fill="#FD7E51"/>
<path d="M93.2132 92V89.619H101.208L102.526 85.4524H97.2874L92.2943 71.1667H95.0818L99.2479 83.0714H103.261L107.212 71.1667H110L103.138 92H93.2132Z" fill="#FD7E51"/>
</svg>
