<svg width="60" height="26" viewBox="0 0 60 26" fill="none" xmlns="http://www.w3.org/2000/svg">
<path d="M11 12C10.4477 12 10 12.4477 10 13C10 13.5523 10.4477 14 11 14V12ZM46.7071 13.7071C47.0976 13.3166 47.0976 12.6834 46.7071 12.2929L40.3431 5.92893C39.9526 5.53841 39.3195 5.53841 38.9289 5.92893C38.5384 6.31946 38.5384 6.95262 38.9289 7.34315L44.5858 13L38.9289 18.6569C38.5384 19.0474 38.5384 19.6805 38.9289 20.0711C39.3195 20.4616 39.9526 20.4616 40.3431 20.0711L46.7071 13.7071ZM11 14H46V12H11V14Z" fill="#FD7E51"/>
</svg>
