<svg width="301" height="51" viewBox="0 0 301 51" fill="none" xmlns="http://www.w3.org/2000/svg">
<mask id="path-1-outside-1_1493_7655" maskUnits="userSpaceOnUse" x="0" y="41" width="192" height="10" fill="black">
<rect fill="white" y="41" width="192" height="10"/>
<path fill-rule="evenodd" clip-rule="evenodd" d="M30.0122 49.7079C30.5017 49.9026 31.0344 50 31.6103 50C32.1358 50 32.6397 49.9176 33.1219 49.7528C33.6042 49.5805 34.0253 49.3296 34.3853 49V46H33.6186V48.6453C33.382 48.8265 33.1301 48.9635 32.8628 49.0562C32.4813 49.191 32.0746 49.2584 31.6427 49.2584C31.182 49.2584 30.7537 49.1798 30.3578 49.0225C29.9691 48.8577 29.6271 48.6292 29.332 48.3371C29.0441 48.0375 28.8173 47.6892 28.6517 47.2921C28.4934 46.8951 28.4142 46.4644 28.4142 46C28.4142 45.5281 28.4934 45.0974 28.6517 44.7079C28.8173 44.3109 29.0441 43.9663 29.332 43.6742C29.6271 43.3745 29.9691 43.1461 30.3578 42.9888C30.7537 42.824 31.1856 42.7416 31.6535 42.7416C32.0926 42.7416 32.5029 42.8127 32.8844 42.9551C33.2659 43.0974 33.615 43.3333 33.9318 43.6629L34.4285 43.1348C34.0901 42.7528 33.6798 42.4682 33.1975 42.2809C32.7224 42.0936 32.197 42 31.6211 42C31.0452 42 30.5125 42.1011 30.023 42.3034C29.5407 42.4981 29.1196 42.7753 28.7597 43.1348C28.3998 43.4944 28.1191 43.9176 27.9175 44.4045C27.7232 44.8914 27.626 45.4232 27.626 46C27.626 46.5768 27.7232 47.1086 27.9175 47.5955C28.1191 48.0824 28.3962 48.5056 28.7489 48.8652C29.1088 49.2247 29.53 49.5056 30.0122 49.7079ZM124.909 49.7079C125.398 49.9026 125.931 50 126.507 50C127.032 50 127.536 49.9176 128.018 49.7528C128.501 49.5805 128.922 49.3296 129.282 49V46H128.515V48.6453C128.278 48.8265 128.027 48.9635 127.759 49.0562C127.378 49.191 126.971 49.2584 126.539 49.2584C126.078 49.2584 125.65 49.1798 125.254 49.0225C124.866 48.8577 124.524 48.6292 124.228 48.3371C123.941 48.0375 123.714 47.6892 123.548 47.2921C123.39 46.8951 123.311 46.4644 123.311 46C123.311 45.5281 123.39 45.0974 123.548 44.7079C123.714 44.3109 123.941 43.9663 124.228 43.6742C124.524 43.3745 124.866 43.1461 125.254 42.9888C125.65 42.824 126.082 42.7416 126.55 42.7416C126.989 42.7416 127.399 42.8127 127.781 42.9551C128.162 43.0974 128.512 43.3333 128.828 43.6629L129.325 43.1348C128.987 42.7528 128.576 42.4682 128.094 42.2809C127.619 42.0936 127.093 42 126.518 42C125.942 42 125.409 42.1011 124.92 42.3034C124.437 42.4981 124.016 42.7753 123.656 43.1348C123.296 43.4944 123.016 43.9176 122.814 44.4045C122.62 44.8914 122.522 45.4232 122.522 46C122.522 46.5768 122.62 47.1086 122.814 47.5955C123.016 48.0824 123.293 48.5056 123.645 48.8652C124.005 49.2247 124.426 49.5056 124.909 49.7079ZM173.507 50C172.938 50 172.412 49.9026 171.93 49.7079C171.448 49.5056 171.03 49.2247 170.678 48.8652C170.325 48.5056 170.048 48.0824 169.846 47.5955C169.652 47.1086 169.555 46.5768 169.555 46C169.555 45.4232 169.652 44.8914 169.846 44.4045C170.048 43.9176 170.325 43.4944 170.678 43.1348C171.038 42.7753 171.459 42.4981 171.941 42.3034C172.423 42.1011 172.949 42 173.517 42C174.064 42 174.579 42.0974 175.061 42.2921C175.544 42.4794 175.95 42.764 176.282 43.1461L175.774 43.6742C175.465 43.3446 175.123 43.1086 174.748 42.9663C174.374 42.8165 173.971 42.7416 173.539 42.7416C173.085 42.7416 172.664 42.824 172.276 42.9888C171.887 43.1461 171.549 43.3745 171.261 43.6742C170.973 43.9663 170.746 44.3109 170.58 44.7079C170.422 45.0974 170.343 45.5281 170.343 46C170.343 46.4719 170.422 46.9064 170.58 47.3034C170.746 47.6929 170.973 48.0375 171.261 48.3371C171.549 48.6292 171.887 48.8577 172.276 49.0225C172.664 49.1798 173.085 49.2584 173.539 49.2584C173.971 49.2584 174.374 49.1835 174.748 49.0337C175.123 48.8839 175.465 48.6442 175.774 48.3146L176.282 48.8427C175.95 49.2247 175.544 49.5131 175.061 49.7079C174.579 49.9026 174.061 50 173.507 50ZM187.189 49.9326V47.2155L184.166 42.0674H185.019L187.61 46.4791L190.202 42.0674H191.001L187.978 47.2155V49.9326H187.189ZM153.883 42.0674V49.9326H154.682V43.5546L159.541 49.9326H160.199V42.0674H159.411V48.4463L154.541 42.0674H153.883ZM139.902 49.2135H144.447V49.9326H139.103V42.0674H144.285V42.7865H139.902V45.5842H143.81V46.2921H139.902V49.2135ZM106.79 49.9326L110.245 42.0674H111.034L114.489 49.9326H113.647L112.743 47.8314H108.525L107.621 49.9326H106.79ZM112.453 47.1573L110.634 42.9272L108.815 47.1573H112.453ZM83.6982 42.0674V49.9326H88.7299V49.2135H84.4973V42.0674H83.6982ZM67.1914 49.9326L70.6466 42.0674H71.4349L74.8901 49.9326H74.0479L73.1443 47.8314H68.9264L68.0228 49.9326H67.1914ZM72.8544 47.1573L71.0354 42.9272L69.2163 47.1573H72.8544ZM56.4902 42.7865V49.9326H57.2892V42.7865H59.9454V42.0674H53.834V42.7865H56.4902ZM44.2041 49.9326V42.0674H45.0031V49.9326H44.2041ZM17.4785 49.9326V42.0674H18.2775V49.9326H17.4785ZM1 42.0684V49.9335H4.07731C4.88353 49.9335 5.58898 49.7688 6.19364 49.4392C6.8055 49.1021 7.2806 48.6377 7.61892 48.0459C7.95725 47.4541 8.12641 46.7725 8.12641 46.001C8.12641 45.2294 7.95725 44.5478 7.61892 43.956C7.2806 43.3642 6.8055 42.9036 6.19364 42.574C5.58898 42.2369 4.88353 42.0684 4.07731 42.0684H1ZM4.03412 49.2144H1.79902V42.7875H4.03412C4.70357 42.7875 5.28304 42.926 5.77253 43.2032C6.26922 43.4729 6.65434 43.8474 6.92788 44.3268C7.20142 44.8062 7.33819 45.3642 7.33819 46.001C7.33819 46.6302 7.20142 47.1882 6.92788 47.6751C6.65434 48.1545 6.26922 48.5328 5.77253 48.8099C5.28304 49.0796 4.70357 49.2144 4.03412 49.2144Z"/>
</mask>
<path fill-rule="evenodd" clip-rule="evenodd" d="M30.0122 49.7079C30.5017 49.9026 31.0344 50 31.6103 50C32.1358 50 32.6397 49.9176 33.1219 49.7528C33.6042 49.5805 34.0253 49.3296 34.3853 49V46H33.6186V48.6453C33.382 48.8265 33.1301 48.9635 32.8628 49.0562C32.4813 49.191 32.0746 49.2584 31.6427 49.2584C31.182 49.2584 30.7537 49.1798 30.3578 49.0225C29.9691 48.8577 29.6271 48.6292 29.332 48.3371C29.0441 48.0375 28.8173 47.6892 28.6517 47.2921C28.4934 46.8951 28.4142 46.4644 28.4142 46C28.4142 45.5281 28.4934 45.0974 28.6517 44.7079C28.8173 44.3109 29.0441 43.9663 29.332 43.6742C29.6271 43.3745 29.9691 43.1461 30.3578 42.9888C30.7537 42.824 31.1856 42.7416 31.6535 42.7416C32.0926 42.7416 32.5029 42.8127 32.8844 42.9551C33.2659 43.0974 33.615 43.3333 33.9318 43.6629L34.4285 43.1348C34.0901 42.7528 33.6798 42.4682 33.1975 42.2809C32.7224 42.0936 32.197 42 31.6211 42C31.0452 42 30.5125 42.1011 30.023 42.3034C29.5407 42.4981 29.1196 42.7753 28.7597 43.1348C28.3998 43.4944 28.1191 43.9176 27.9175 44.4045C27.7232 44.8914 27.626 45.4232 27.626 46C27.626 46.5768 27.7232 47.1086 27.9175 47.5955C28.1191 48.0824 28.3962 48.5056 28.7489 48.8652C29.1088 49.2247 29.53 49.5056 30.0122 49.7079ZM124.909 49.7079C125.398 49.9026 125.931 50 126.507 50C127.032 50 127.536 49.9176 128.018 49.7528C128.501 49.5805 128.922 49.3296 129.282 49V46H128.515V48.6453C128.278 48.8265 128.027 48.9635 127.759 49.0562C127.378 49.191 126.971 49.2584 126.539 49.2584C126.078 49.2584 125.65 49.1798 125.254 49.0225C124.866 48.8577 124.524 48.6292 124.228 48.3371C123.941 48.0375 123.714 47.6892 123.548 47.2921C123.39 46.8951 123.311 46.4644 123.311 46C123.311 45.5281 123.39 45.0974 123.548 44.7079C123.714 44.3109 123.941 43.9663 124.228 43.6742C124.524 43.3745 124.866 43.1461 125.254 42.9888C125.65 42.824 126.082 42.7416 126.55 42.7416C126.989 42.7416 127.399 42.8127 127.781 42.9551C128.162 43.0974 128.512 43.3333 128.828 43.6629L129.325 43.1348C128.987 42.7528 128.576 42.4682 128.094 42.2809C127.619 42.0936 127.093 42 126.518 42C125.942 42 125.409 42.1011 124.92 42.3034C124.437 42.4981 124.016 42.7753 123.656 43.1348C123.296 43.4944 123.016 43.9176 122.814 44.4045C122.62 44.8914 122.522 45.4232 122.522 46C122.522 46.5768 122.62 47.1086 122.814 47.5955C123.016 48.0824 123.293 48.5056 123.645 48.8652C124.005 49.2247 124.426 49.5056 124.909 49.7079ZM173.507 50C172.938 50 172.412 49.9026 171.93 49.7079C171.448 49.5056 171.03 49.2247 170.678 48.8652C170.325 48.5056 170.048 48.0824 169.846 47.5955C169.652 47.1086 169.555 46.5768 169.555 46C169.555 45.4232 169.652 44.8914 169.846 44.4045C170.048 43.9176 170.325 43.4944 170.678 43.1348C171.038 42.7753 171.459 42.4981 171.941 42.3034C172.423 42.1011 172.949 42 173.517 42C174.064 42 174.579 42.0974 175.061 42.2921C175.544 42.4794 175.95 42.764 176.282 43.1461L175.774 43.6742C175.465 43.3446 175.123 43.1086 174.748 42.9663C174.374 42.8165 173.971 42.7416 173.539 42.7416C173.085 42.7416 172.664 42.824 172.276 42.9888C171.887 43.1461 171.549 43.3745 171.261 43.6742C170.973 43.9663 170.746 44.3109 170.58 44.7079C170.422 45.0974 170.343 45.5281 170.343 46C170.343 46.4719 170.422 46.9064 170.58 47.3034C170.746 47.6929 170.973 48.0375 171.261 48.3371C171.549 48.6292 171.887 48.8577 172.276 49.0225C172.664 49.1798 173.085 49.2584 173.539 49.2584C173.971 49.2584 174.374 49.1835 174.748 49.0337C175.123 48.8839 175.465 48.6442 175.774 48.3146L176.282 48.8427C175.95 49.2247 175.544 49.5131 175.061 49.7079C174.579 49.9026 174.061 50 173.507 50ZM187.189 49.9326V47.2155L184.166 42.0674H185.019L187.61 46.4791L190.202 42.0674H191.001L187.978 47.2155V49.9326H187.189ZM153.883 42.0674V49.9326H154.682V43.5546L159.541 49.9326H160.199V42.0674H159.411V48.4463L154.541 42.0674H153.883ZM139.902 49.2135H144.447V49.9326H139.103V42.0674H144.285V42.7865H139.902V45.5842H143.81V46.2921H139.902V49.2135ZM106.79 49.9326L110.245 42.0674H111.034L114.489 49.9326H113.647L112.743 47.8314H108.525L107.621 49.9326H106.79ZM112.453 47.1573L110.634 42.9272L108.815 47.1573H112.453ZM83.6982 42.0674V49.9326H88.7299V49.2135H84.4973V42.0674H83.6982ZM67.1914 49.9326L70.6466 42.0674H71.4349L74.8901 49.9326H74.0479L73.1443 47.8314H68.9264L68.0228 49.9326H67.1914ZM72.8544 47.1573L71.0354 42.9272L69.2163 47.1573H72.8544ZM56.4902 42.7865V49.9326H57.2892V42.7865H59.9454V42.0674H53.834V42.7865H56.4902ZM44.2041 49.9326V42.0674H45.0031V49.9326H44.2041ZM17.4785 49.9326V42.0674H18.2775V49.9326H17.4785ZM1 42.0684V49.9335H4.07731C4.88353 49.9335 5.58898 49.7688 6.19364 49.4392C6.8055 49.1021 7.2806 48.6377 7.61892 48.0459C7.95725 47.4541 8.12641 46.7725 8.12641 46.001C8.12641 45.2294 7.95725 44.5478 7.61892 43.956C7.2806 43.3642 6.8055 42.9036 6.19364 42.574C5.58898 42.2369 4.88353 42.0684 4.07731 42.0684H1ZM4.03412 49.2144H1.79902V42.7875H4.03412C4.70357 42.7875 5.28304 42.926 5.77253 43.2032C6.26922 43.4729 6.65434 43.8474 6.92788 44.3268C7.20142 44.8062 7.33819 45.3642 7.33819 46.001C7.33819 46.6302 7.20142 47.1882 6.92788 47.6751C6.65434 48.1545 6.26922 48.5328 5.77253 48.8099C5.28304 49.0796 4.70357 49.2144 4.03412 49.2144Z" fill="white"/>
<path d="M30.0122 49.7079L29.9542 49.8462L29.9568 49.8473L30.0122 49.7079ZM33.1219 49.7528L33.1705 49.8948L33.1724 49.8941L33.1219 49.7528ZM34.3853 49L34.4866 49.1106L34.5353 49.066V49H34.3853ZM34.3853 46H34.5353V45.85H34.3853V46ZM33.6186 46V45.85H33.4686V46H33.6186ZM33.6186 48.6453L33.7098 48.7644L33.7686 48.7194V48.6453H33.6186ZM32.8628 49.0562L32.8137 48.9145L32.8128 48.9148L32.8628 49.0562ZM30.3578 49.0225L30.2992 49.1606L30.3024 49.1619L30.3578 49.0225ZM29.332 48.3371L29.2238 48.4411L29.2265 48.4437L29.332 48.3371ZM28.6517 47.2921L28.5124 47.3477L28.5133 47.3499L28.6517 47.2921ZM28.6517 44.7079L28.5133 44.6501L28.5128 44.6514L28.6517 44.7079ZM29.332 43.6742L29.4388 43.7795L29.4389 43.7794L29.332 43.6742ZM30.3578 42.9888L30.414 43.1278L30.4154 43.1272L30.3578 42.9888ZM32.8844 42.9551L32.832 43.0956L32.8844 42.9551ZM33.9318 43.6629L33.8236 43.7669L33.9329 43.8806L34.041 43.7657L33.9318 43.6629ZM34.4285 43.1348L34.5377 43.2376L34.6315 43.1379L34.5408 43.0354L34.4285 43.1348ZM33.1975 42.2809L33.1425 42.4205L33.1432 42.4207L33.1975 42.2809ZM30.023 42.3034L30.0792 42.4425L30.0803 42.442L30.023 42.3034ZM28.7597 43.1348L28.8657 43.241V43.241L28.7597 43.1348ZM27.9175 44.4045L27.7789 44.3471L27.7782 44.3489L27.9175 44.4045ZM27.9175 47.5955L27.7782 47.6511L27.7789 47.6529L27.9175 47.5955ZM28.7489 48.8652L28.6418 48.9702L28.6429 48.9713L28.7489 48.8652ZM124.909 49.7079L124.851 49.8462L124.853 49.8473L124.909 49.7079ZM128.018 49.7528L128.067 49.8948L128.069 49.8941L128.018 49.7528ZM129.282 49L129.383 49.1106L129.432 49.066V49H129.282ZM129.282 46H129.432V45.85H129.282V46ZM128.515 46V45.85H128.365V46H128.515ZM128.515 48.6453L128.606 48.7644L128.665 48.7194V48.6453H128.515ZM127.759 49.0562L127.71 48.9145L127.709 48.9148L127.759 49.0562ZM125.254 49.0225L125.196 49.1606L125.199 49.1619L125.254 49.0225ZM124.228 48.3371L124.12 48.4411L124.123 48.4437L124.228 48.3371ZM123.548 47.2921L123.409 47.3477L123.41 47.3499L123.548 47.2921ZM123.548 44.7079L123.41 44.6501L123.409 44.6514L123.548 44.7079ZM124.228 43.6742L124.335 43.7795L124.335 43.7794L124.228 43.6742ZM125.254 42.9888L125.311 43.1278L125.312 43.1272L125.254 42.9888ZM127.781 42.9551L127.728 43.0956L127.781 42.9551ZM128.828 43.6629L128.72 43.7669L128.829 43.8806L128.938 43.7657L128.828 43.6629ZM129.325 43.1348L129.434 43.2376L129.528 43.1379L129.437 43.0354L129.325 43.1348ZM128.094 42.2809L128.039 42.4205L128.04 42.4207L128.094 42.2809ZM124.92 42.3034L124.976 42.4425L124.977 42.442L124.92 42.3034ZM123.656 43.1348L123.55 43.0287V43.0287L123.656 43.1348ZM122.814 44.4045L122.675 44.3471L122.675 44.3489L122.814 44.4045ZM122.814 47.5955L122.675 47.6511L122.675 47.6529L122.814 47.5955ZM123.645 48.8652L123.538 48.9702L123.539 48.9713L123.645 48.8652ZM171.93 49.7079L171.872 49.8462L171.874 49.847L171.93 49.7079ZM170.678 48.8652L170.571 48.9702L170.678 48.8652ZM169.846 47.5955L169.707 47.6511L169.708 47.6529L169.846 47.5955ZM169.846 44.4045L169.708 44.3471L169.707 44.3489L169.846 44.4045ZM170.678 43.1348L170.572 43.0287L170.571 43.0298L170.678 43.1348ZM171.941 42.3034L171.997 42.4425L171.999 42.4417L171.941 42.3034ZM175.061 42.2921L175.005 42.4312L175.007 42.432L175.061 42.2921ZM176.282 43.1461L176.39 43.25L176.485 43.1513L176.395 43.0478L176.282 43.1461ZM175.774 43.6742L175.665 43.7768L175.773 43.8919L175.882 43.7781L175.774 43.6742ZM174.748 42.9663L174.693 43.1056L174.695 43.1065L174.748 42.9663ZM172.276 42.9888L172.332 43.1278L172.334 43.1269L172.276 42.9888ZM171.261 43.6742L171.368 43.7795L171.369 43.7781L171.261 43.6742ZM170.58 44.7079L170.442 44.6501L170.441 44.6514L170.58 44.7079ZM170.58 47.3034L170.441 47.359L170.442 47.3621L170.58 47.3034ZM171.261 48.3371L171.153 48.441L171.154 48.4424L171.261 48.3371ZM172.276 49.0225L172.217 49.1606L172.219 49.1615L172.276 49.0225ZM175.774 48.3146L175.882 48.2107L175.773 48.0968L175.665 48.2119L175.774 48.3146ZM176.282 48.8427L176.395 48.941L176.485 48.8375L176.39 48.7388L176.282 48.8427ZM175.061 49.7079L175.005 49.5688V49.5688L175.061 49.7079ZM187.189 47.2155H187.339V47.1747L187.319 47.1395L187.189 47.2155ZM187.189 49.9326H187.039V50.0826H187.189V49.9326ZM184.166 42.0674V41.9174H183.904L184.037 42.1433L184.166 42.0674ZM185.019 42.0674L185.148 41.9914L185.105 41.9174H185.019V42.0674ZM187.61 46.4791L187.481 46.5551L187.61 46.7753L187.74 46.5551L187.61 46.4791ZM190.202 42.0674V41.9174H190.116L190.073 41.9914L190.202 42.0674ZM191.001 42.0674L191.13 42.1433L191.263 41.9174H191.001V42.0674ZM187.978 47.2155L187.848 47.1396L187.828 47.1747V47.2155H187.978ZM187.978 49.9326V50.0826H188.128V49.9326H187.978ZM153.883 49.9326H153.733V50.0826H153.883V49.9326ZM153.883 42.0674V41.9174H153.733V42.0674H153.883ZM154.682 49.9326V50.0826H154.832V49.9326H154.682ZM154.682 43.5546L154.801 43.4637L154.532 43.1102V43.5546H154.682ZM159.541 49.9326L159.421 50.0235L159.466 50.0826H159.541V49.9326ZM160.199 49.9326V50.0826H160.349V49.9326H160.199ZM160.199 42.0674H160.349V41.9174H160.199V42.0674ZM159.411 42.0674V41.9174H159.261V42.0674H159.411ZM159.411 48.4463L159.292 48.5373L159.561 48.8899V48.4463H159.411ZM154.541 42.0674L154.661 41.9764L154.616 41.9174H154.541V42.0674ZM144.447 49.2135H144.597V49.0635H144.447V49.2135ZM139.902 49.2135H139.752V49.3635H139.902V49.2135ZM144.447 49.9326V50.0826H144.597V49.9326H144.447ZM139.103 49.9326H138.953V50.0826H139.103V49.9326ZM139.103 42.0674V41.9174H138.953V42.0674H139.103ZM144.285 42.0674H144.435V41.9174H144.285V42.0674ZM144.285 42.7865V42.9365H144.435V42.7865H144.285ZM139.902 42.7865V42.6365H139.752V42.7865H139.902ZM139.902 45.5842H139.752V45.7342H139.902V45.5842ZM143.81 45.5842H143.96V45.4342H143.81V45.5842ZM143.81 46.2921V46.4421H143.96V46.2921H143.81ZM139.902 46.2921V46.1421H139.752V46.2921H139.902ZM110.245 42.0674V41.9174H110.147L110.108 42.0071L110.245 42.0674ZM106.79 49.9326L106.653 49.8722L106.56 50.0826H106.79V49.9326ZM111.034 42.0674L111.171 42.0071L111.131 41.9174H111.034V42.0674ZM114.489 49.9326V50.0826H114.718L114.626 49.8722L114.489 49.9326ZM113.647 49.9326L113.509 49.9918L113.548 50.0826H113.647V49.9326ZM112.743 47.8314L112.881 47.7722L112.842 47.6814H112.743V47.8314ZM108.525 47.8314V47.6814H108.426L108.387 47.7722L108.525 47.8314ZM107.621 49.9326V50.0826H107.72L107.759 49.9918L107.621 49.9326ZM110.634 42.9272L110.772 42.8679L110.634 42.5475L110.496 42.8679L110.634 42.9272ZM112.453 47.1573V47.3073H112.681L112.591 47.098L112.453 47.1573ZM108.815 47.1573L108.677 47.098L108.587 47.3073H108.815V47.1573ZM83.6982 49.9326H83.5482V50.0826H83.6982V49.9326ZM83.6982 42.0674V41.9174H83.5482V42.0674H83.6982ZM88.7299 49.9326V50.0826H88.8799V49.9326H88.7299ZM88.7299 49.2135H88.8799V49.0635H88.7299V49.2135ZM84.4973 49.2135H84.3473V49.3635H84.4973V49.2135ZM84.4973 42.0674H84.6473V41.9174H84.4973V42.0674ZM70.6466 42.0674V41.9174H70.5487L70.5093 42.0071L70.6466 42.0674ZM67.1914 49.9326L67.0541 49.8722L66.9617 50.0826H67.1914V49.9326ZM71.4349 42.0674L71.5722 42.0071L71.5328 41.9174H71.4349V42.0674ZM74.8901 49.9326V50.0826H75.1198L75.0274 49.8722L74.8901 49.9326ZM74.0479 49.9326L73.9101 49.9918L73.9491 50.0826H74.0479V49.9326ZM73.1443 47.8314L73.2821 47.7722L73.2431 47.6814H73.1443V47.8314ZM68.9264 47.8314V47.6814H68.8276L68.7886 47.7722L68.9264 47.8314ZM68.0228 49.9326V50.0826H68.1216L68.1606 49.9918L68.0228 49.9326ZM71.0354 42.9272L71.1732 42.8679L71.0354 42.5475L70.8976 42.8679L71.0354 42.9272ZM72.8544 47.1573V47.3073H73.0822L72.9922 47.098L72.8544 47.1573ZM69.2163 47.1573L69.0785 47.098L68.9885 47.3073H69.2163V47.1573ZM56.4902 49.9326H56.3402V50.0826H56.4902V49.9326ZM56.4902 42.7865H56.6402V42.6365H56.4902V42.7865ZM57.2892 49.9326V50.0826H57.4392V49.9326H57.2892ZM57.2892 42.7865V42.6365H57.1392V42.7865H57.2892ZM59.9454 42.7865V42.9365H60.0954V42.7865H59.9454ZM59.9454 42.0674H60.0954V41.9174H59.9454V42.0674ZM53.834 42.0674V41.9174H53.684V42.0674H53.834ZM53.834 42.7865H53.684V42.9365H53.834V42.7865ZM44.2041 42.0674V41.9174H44.0541V42.0674H44.2041ZM44.2041 49.9326H44.0541V50.0826H44.2041V49.9326ZM45.0031 42.0674H45.1531V41.9174H45.0031V42.0674ZM45.0031 49.9326V50.0826H45.1531V49.9326H45.0031ZM17.4785 42.0674V41.9174H17.3285V42.0674H17.4785ZM17.4785 49.9326H17.3285V50.0826H17.4785V49.9326ZM18.2775 42.0674H18.4275V41.9174H18.2775V42.0674ZM18.2775 49.9326V50.0826H18.4275V49.9326H18.2775ZM1 49.9335H0.85V50.0835H1V49.9335ZM1 42.0684V41.9184H0.85V42.0684H1ZM6.19364 49.4392L6.26543 49.5709L6.26602 49.5705L6.19364 49.4392ZM7.61892 48.0459L7.74914 48.1204L7.61892 48.0459ZM7.61892 43.956L7.74914 43.8816V43.8816L7.61892 43.956ZM6.19364 42.574L6.1206 42.705L6.12251 42.706L6.19364 42.574ZM1.79902 49.2144H1.64902V49.3644H1.79902V49.2144ZM1.79902 42.7875V42.6375H1.64902V42.7875H1.79902ZM5.77253 43.2032L5.69862 43.3337L5.70096 43.335L5.77253 43.2032ZM6.92788 47.6751L7.05816 47.7495L7.05865 47.7486L6.92788 47.6751ZM5.77253 48.8099L5.84492 48.9413L5.84563 48.9409L5.77253 48.8099ZM31.6103 49.85C31.0516 49.85 30.538 49.7556 30.0677 49.5685L29.9568 49.8473C30.4655 50.0497 31.0172 50.15 31.6103 50.15V49.85ZM33.0734 49.6109C32.6073 49.7702 32.1198 49.85 31.6103 49.85V50.15C32.1518 50.15 32.6721 50.0651 33.1704 49.8948L33.0734 49.6109ZM34.284 48.8894C33.9395 49.2048 33.5359 49.4457 33.0715 49.6116L33.1724 49.8941C33.6726 49.7154 34.1112 49.4544 34.4866 49.1106L34.284 48.8894ZM34.2353 46V49H34.5353V46H34.2353ZM33.6186 46.15H34.3853V45.85H33.6186V46.15ZM33.7686 48.6453V46H33.4686V48.6453H33.7686ZM32.912 49.1979C33.1952 49.0997 33.4612 48.9548 33.7098 48.7644L33.5274 48.5262C33.3028 48.6982 33.065 48.8273 32.8137 48.9145L32.912 49.1979ZM31.6427 49.4084C32.0905 49.4084 32.5142 49.3385 32.9128 49.1976L32.8128 48.9148C32.4484 49.0436 32.0587 49.1084 31.6427 49.1084V49.4084ZM30.3024 49.1619C30.7173 49.3267 31.1646 49.4084 31.6427 49.4084V49.1084C31.1994 49.1084 30.7901 49.0328 30.4132 48.8831L30.3024 49.1619ZM29.2265 48.4437C29.5354 48.7494 29.8933 48.9885 30.2992 49.1606L30.4163 48.8844C30.0448 48.7269 29.7189 48.509 29.4375 48.2305L29.2265 48.4437ZM28.5133 47.3499C28.6858 47.7634 28.9226 48.1275 29.2238 48.441L29.4401 48.2332C29.1655 47.9474 28.9489 47.6149 28.7902 47.2344L28.5133 47.3499ZM28.2642 46C28.2642 46.4818 28.3464 46.9316 28.5124 47.3477L28.7911 47.2366C28.6403 46.8587 28.5642 46.4471 28.5642 46H28.2642ZM28.5128 44.6514C28.3463 45.0609 28.2642 45.5111 28.2642 46H28.5642C28.5642 45.5451 28.6405 45.1339 28.7907 44.7644L28.5128 44.6514ZM29.2252 43.5689C28.9231 43.8753 28.6859 44.2363 28.5133 44.6501L28.7902 44.7656C28.9487 44.3855 29.165 44.0572 29.4388 43.7795L29.2252 43.5689ZM30.3015 42.8497C29.8937 43.0147 29.5346 43.2547 29.2251 43.5689L29.4389 43.7794C29.7197 43.4944 30.0444 43.2774 30.414 43.1278L30.3015 42.8497ZM31.6535 42.5916C31.1676 42.5916 30.7159 42.6772 30.3001 42.8503L30.4154 43.1272C30.7915 42.9707 31.2036 42.8916 31.6535 42.8916V42.5916ZM32.9368 42.8145C32.5373 42.6655 32.1091 42.5916 31.6535 42.5916V42.8916C32.0761 42.8916 32.4685 42.96 32.832 43.0956L32.9368 42.8145ZM34.0399 43.559C33.7095 43.2152 33.3419 42.9656 32.9368 42.8145L32.832 43.0956C33.1899 43.2291 33.5206 43.4515 33.8236 43.7669L34.0399 43.559ZM34.3192 43.0321L33.8225 43.5602L34.041 43.7657L34.5377 43.2376L34.3192 43.0321ZM33.1432 42.4207C33.6036 42.5995 33.9939 42.8704 34.3162 43.2343L34.5408 43.0354C34.1864 42.6352 33.7561 42.3369 33.2518 42.1411L33.1432 42.4207ZM31.6211 42.15C32.1805 42.15 32.687 42.2409 33.1425 42.4204L33.2525 42.1413C32.7578 41.9464 32.2134 41.85 31.6211 41.85V42.15ZM30.0803 42.442C30.5501 42.2479 31.0631 42.15 31.6211 42.15V41.85C31.0273 41.85 30.4749 41.9544 29.9658 42.1647L30.0803 42.442ZM28.8657 43.241C29.2111 42.8959 29.6151 42.6299 30.0792 42.4425L29.9669 42.1643C29.4664 42.3664 29.0282 42.6546 28.6537 43.0287L28.8657 43.241ZM28.0561 44.4619C28.2504 43.9925 28.5203 43.5861 28.8657 43.241L28.6537 43.0287C28.2793 43.4027 27.9877 43.8427 27.7789 44.3471L28.0561 44.4619ZM27.776 46C27.776 45.4404 27.8702 44.9276 28.0568 44.4601L27.7782 44.3489C27.5761 44.8552 27.476 45.4061 27.476 46H27.776ZM28.0568 47.5399C27.8702 47.0724 27.776 46.5597 27.776 46H27.476C27.476 46.5939 27.5761 47.1449 27.7782 47.6511L28.0568 47.5399ZM28.856 48.7601C28.5174 48.4149 28.2507 48.0081 28.0561 47.5381L27.7789 47.6529C27.9875 48.1567 28.275 48.5963 28.6418 48.9702L28.856 48.7601ZM30.0703 49.5696C29.6054 49.3746 29.2007 49.1045 28.8549 48.7591L28.6429 48.9713C29.017 49.345 29.4545 49.6367 29.9542 49.8462L30.0703 49.5696ZM126.507 49.85C125.948 49.85 125.434 49.7556 124.964 49.5685L124.853 49.8473C125.362 50.0497 125.914 50.15 126.507 50.15V49.85ZM127.97 49.6109C127.504 49.7702 127.016 49.85 126.507 49.85V50.15C127.048 50.15 127.569 50.0651 128.067 49.8948L127.97 49.6109ZM129.18 48.8894C128.836 49.2048 128.432 49.4457 127.968 49.6116L128.069 49.8941C128.569 49.7154 129.008 49.4544 129.383 49.1106L129.18 48.8894ZM129.132 46V49H129.432V46H129.132ZM128.515 46.15H129.282V45.85H128.515V46.15ZM128.665 48.6453V46H128.365V48.6453H128.665ZM127.808 49.1979C128.092 49.0997 128.358 48.9548 128.606 48.7644L128.424 48.5262C128.199 48.6982 127.961 48.8273 127.71 48.9145L127.808 49.1979ZM126.539 49.4084C126.987 49.4084 127.411 49.3385 127.809 49.1976L127.709 48.9148C127.345 49.0436 126.955 49.1084 126.539 49.1084V49.4084ZM125.199 49.1619C125.614 49.3267 126.061 49.4084 126.539 49.4084V49.1084C126.096 49.1084 125.687 49.0328 125.31 48.8831L125.199 49.1619ZM124.123 48.4437C124.432 48.7494 124.79 48.9885 125.196 49.1606L125.313 48.8844C124.941 48.7269 124.615 48.509 124.334 48.2305L124.123 48.4437ZM123.41 47.3499C123.582 47.7634 123.819 48.1275 124.12 48.441L124.337 48.2332C124.062 47.9474 123.845 47.6149 123.687 47.2344L123.41 47.3499ZM123.161 46C123.161 46.4818 123.243 46.9316 123.409 47.3477L123.688 47.2366C123.537 46.8587 123.461 46.447 123.461 46H123.161ZM123.409 44.6514C123.243 45.0609 123.161 45.5111 123.161 46H123.461C123.461 45.5451 123.537 45.1339 123.687 44.7644L123.409 44.6514ZM124.122 43.5689C123.82 43.8753 123.582 44.2363 123.41 44.6501L123.687 44.7656C123.845 44.3855 124.062 44.0572 124.335 43.7795L124.122 43.5689ZM125.198 42.8497C124.79 43.0147 124.431 43.2547 124.122 43.5689L124.335 43.7794C124.616 43.4944 124.941 43.2774 125.311 43.1278L125.198 42.8497ZM126.55 42.5916C126.064 42.5916 125.612 42.6772 125.197 42.8503L125.312 43.1272C125.688 42.9707 126.1 42.8916 126.55 42.8916V42.5916ZM127.833 42.8145C127.434 42.6655 127.006 42.5916 126.55 42.5916V42.8916C126.973 42.8916 127.365 42.96 127.728 43.0956L127.833 42.8145ZM128.936 43.559C128.606 43.2152 128.238 42.9656 127.833 42.8145L127.728 43.0956C128.086 43.2291 128.417 43.4515 128.72 43.7669L128.936 43.559ZM129.216 43.0321L128.719 43.5602L128.938 43.7657L129.434 43.2376L129.216 43.0321ZM128.04 42.4207C128.5 42.5995 128.89 42.8704 129.213 43.2343L129.437 43.0354C129.083 42.6352 128.653 42.3369 128.148 42.1411L128.04 42.4207ZM126.518 42.15C127.077 42.15 127.584 42.2409 128.039 42.4204L128.149 42.1413C127.654 41.9464 127.11 41.85 126.518 41.85V42.15ZM124.977 42.442C125.447 42.2479 125.96 42.15 126.518 42.15V41.85C125.924 41.85 125.371 41.9544 124.862 42.1647L124.977 42.442ZM123.762 43.241C124.108 42.8959 124.512 42.6299 124.976 42.4425L124.863 42.1643C124.363 42.3664 123.925 42.6546 123.55 43.0287L123.762 43.241ZM122.953 44.4619C123.147 43.9925 123.417 43.5861 123.762 43.241L123.55 43.0287C123.176 43.4027 122.884 43.8427 122.675 44.3471L122.953 44.4619ZM122.672 46C122.672 45.4404 122.767 44.9276 122.953 44.4601L122.675 44.3489C122.473 44.8552 122.372 45.4061 122.372 46H122.672ZM122.953 47.5399C122.767 47.0724 122.672 46.5597 122.672 46H122.372C122.372 46.5939 122.473 47.1449 122.675 47.6511L122.953 47.5399ZM123.752 48.7601C123.414 48.4149 123.147 48.0081 122.953 47.5381L122.675 47.6529C122.884 48.1567 123.172 48.5963 123.538 48.9702L123.752 48.7601ZM124.967 49.5696C124.502 49.3746 124.097 49.1045 123.751 48.7591L123.539 48.9713C123.913 49.345 124.351 49.6367 124.851 49.8462L124.967 49.5696ZM171.874 49.847C172.376 50.0496 172.92 50.15 173.507 50.15V49.85C172.955 49.85 172.449 49.7557 171.986 49.5688L171.874 49.847ZM170.571 48.9702C170.938 49.3446 171.372 49.6365 171.872 49.8462L171.988 49.5696C171.524 49.3747 171.123 49.1049 170.785 48.7601L170.571 48.9702ZM169.708 47.6529C169.916 48.1567 170.204 48.5963 170.571 48.9702L170.785 48.7601C170.446 48.4149 170.179 48.0081 169.985 47.5381L169.708 47.6529ZM169.405 46C169.405 46.5939 169.505 47.1449 169.707 47.6511L169.986 47.5399C169.799 47.0724 169.705 46.5597 169.705 46H169.405ZM169.707 44.3489C169.505 44.8552 169.405 45.4061 169.405 46H169.705C169.705 45.4404 169.799 44.9276 169.986 44.4601L169.707 44.3489ZM170.571 43.0298C170.204 43.4037 169.916 43.8433 169.708 44.3471L169.985 44.4619C170.179 43.9919 170.446 43.5851 170.785 43.2399L170.571 43.0298ZM171.885 42.1643C171.384 42.3664 170.946 42.6546 170.572 43.0287L170.784 43.241C171.129 42.8959 171.533 42.6299 171.997 42.4425L171.885 42.1643ZM173.517 41.85C172.931 41.85 172.385 41.9544 171.883 42.165L171.999 42.4417C172.461 42.2478 172.967 42.15 173.517 42.15V41.85ZM175.118 42.153C174.617 41.9507 174.083 41.85 173.517 41.85V42.15C174.046 42.15 174.542 42.244 175.005 42.4312L175.118 42.153ZM176.395 43.0478C176.047 42.6469 175.62 42.3482 175.116 42.1523L175.007 42.432C175.467 42.6106 175.854 42.8812 176.168 43.2443L176.395 43.0478ZM175.882 43.7781L176.39 43.25L176.173 43.0421L175.666 43.5702L175.882 43.7781ZM174.695 43.1065C175.045 43.2397 175.369 43.4617 175.665 43.7768L175.883 43.5715C175.56 43.2274 175.2 42.9775 174.802 42.8261L174.695 43.1065ZM173.539 42.8916C173.953 42.8916 174.337 42.9633 174.693 43.1056L174.804 42.827C174.411 42.6696 173.989 42.5916 173.539 42.5916V42.8916ZM172.334 43.1269C172.703 42.9705 173.104 42.8916 173.539 42.8916V42.5916C173.067 42.5916 172.626 42.6774 172.217 42.8507L172.334 43.1269ZM171.369 43.7781C171.642 43.4938 171.963 43.2773 172.332 43.1278L172.219 42.8497C171.811 43.0149 171.455 43.2552 171.153 43.5702L171.369 43.7781ZM170.719 44.7656C170.877 44.3855 171.094 44.0573 171.368 43.7795L171.154 43.5689C170.852 43.8753 170.615 44.2363 170.442 44.6501L170.719 44.7656ZM170.493 46C170.493 45.5451 170.569 45.1339 170.719 44.7644L170.441 44.6514C170.275 45.0609 170.193 45.5111 170.193 46H170.493ZM170.72 47.2478C170.569 46.8702 170.493 46.4549 170.493 46H170.193C170.193 46.489 170.275 46.9425 170.441 47.359L170.72 47.2478ZM171.369 48.2332C171.094 47.9469 170.877 47.6178 170.719 47.2447L170.442 47.3621C170.615 47.768 170.852 48.128 171.153 48.441L171.369 48.2332ZM172.334 48.8844C171.963 48.727 171.641 48.5095 171.368 48.2318L171.154 48.4424C171.456 48.7489 171.811 48.9884 172.217 49.1606L172.334 48.8844ZM173.539 49.1084C173.103 49.1084 172.701 49.0329 172.332 48.8834L172.219 49.1615C172.627 49.3266 173.068 49.4084 173.539 49.4084V49.1084ZM174.693 48.8945C174.337 49.0367 173.953 49.1084 173.539 49.1084V49.4084C173.989 49.4084 174.411 49.3304 174.804 49.173L174.693 48.8945ZM175.665 48.2119C175.368 48.5275 175.044 48.7537 174.693 48.8945L174.804 49.173C175.201 49.0141 175.561 48.7609 175.883 48.4173L175.665 48.2119ZM176.39 48.7388L175.882 48.2107L175.666 48.4186L176.173 48.9466L176.39 48.7388ZM175.118 49.847C175.621 49.6436 176.048 49.3415 176.395 48.941L176.168 48.7445C175.853 49.108 175.466 49.3827 175.005 49.5688L175.118 49.847ZM173.507 50.15C174.079 50.15 174.616 50.0494 175.118 49.847L175.005 49.5688C174.542 49.7559 174.043 49.85 173.507 49.85V50.15ZM187.039 47.2155V49.9326H187.339V47.2155H187.039ZM184.037 42.1433L187.06 47.2914L187.319 47.1395L184.295 41.9914L184.037 42.1433ZM185.019 41.9174H184.166V42.2174H185.019V41.9174ZM187.74 46.4031L185.148 41.9914L184.89 42.1434L187.481 46.5551L187.74 46.4031ZM190.073 41.9914L187.481 46.4031L187.74 46.5551L190.331 42.1434L190.073 41.9914ZM191.001 41.9174H190.202V42.2174H191.001V41.9174ZM188.107 47.2915L191.13 42.1433L190.872 41.9914L187.848 47.1396L188.107 47.2915ZM188.128 49.9326V47.2155H187.828V49.9326H188.128ZM187.189 50.0826H187.978V49.7826H187.189V50.0826ZM154.033 49.9326V42.0674H153.733V49.9326H154.033ZM154.682 49.7826H153.883V50.0826H154.682V49.7826ZM154.532 43.5546V49.9326H154.832V43.5546H154.532ZM159.66 49.8417L154.801 43.4637L154.563 43.6455L159.421 50.0235L159.66 49.8417ZM160.199 49.7826H159.541V50.0826H160.199V49.7826ZM160.049 42.0674V49.9326H160.349V42.0674H160.049ZM159.411 42.2174H160.199V41.9174H159.411V42.2174ZM159.561 48.4463V42.0674H159.261V48.4463H159.561ZM154.422 42.1584L159.292 48.5373L159.53 48.3552L154.661 41.9764L154.422 42.1584ZM153.883 42.2174H154.541V41.9174H153.883V42.2174ZM144.447 49.0635H139.902V49.3635H144.447V49.0635ZM144.597 49.9326V49.2135H144.297V49.9326H144.597ZM139.103 50.0826H144.447V49.7826H139.103V50.0826ZM138.953 42.0674V49.9326H139.253V42.0674H138.953ZM144.285 41.9174H139.103V42.2174H144.285V41.9174ZM144.435 42.7865V42.0674H144.135V42.7865H144.435ZM139.902 42.9365H144.285V42.6365H139.902V42.9365ZM140.052 45.5842V42.7865H139.752V45.5842H140.052ZM143.81 45.4342H139.902V45.7342H143.81V45.4342ZM143.96 46.2921V45.5842H143.66V46.2921H143.96ZM139.902 46.4421H143.81V46.1421H139.902V46.4421ZM140.052 49.2135V46.2921H139.752V49.2135H140.052ZM110.108 42.0071L106.653 49.8722L106.927 49.9929L110.383 42.1277L110.108 42.0071ZM111.034 41.9174H110.245V42.2174H111.034V41.9174ZM114.626 49.8722L111.171 42.0071L110.896 42.1277L114.351 49.9929L114.626 49.8722ZM113.647 50.0826H114.489V49.7826H113.647V50.0826ZM112.605 47.8907L113.509 49.9918L113.784 49.8733L112.881 47.7722L112.605 47.8907ZM108.525 47.9814H112.743V47.6814H108.525V47.9814ZM107.759 49.9918L108.663 47.8907L108.387 47.7722L107.484 49.8733L107.759 49.9918ZM106.79 50.0826H107.621V49.7826H106.79V50.0826ZM110.496 42.9864L112.315 47.2165L112.591 47.098L110.772 42.8679L110.496 42.9864ZM108.953 47.2165L110.772 42.9864L110.496 42.8679L108.677 47.098L108.953 47.2165ZM112.453 47.0073H108.815V47.3073H112.453V47.0073ZM83.8482 49.9326V42.0674H83.5482V49.9326H83.8482ZM88.7299 49.7826H83.6982V50.0826H88.7299V49.7826ZM88.5799 49.2135V49.9326H88.8799V49.2135H88.5799ZM84.4973 49.3635H88.7299V49.0635H84.4973V49.3635ZM84.3473 42.0674V49.2135H84.6473V42.0674H84.3473ZM83.6982 42.2174H84.4973V41.9174H83.6982V42.2174ZM70.5093 42.0071L67.0541 49.8722L67.3287 49.9929L70.784 42.1277L70.5093 42.0071ZM71.4349 41.9174H70.6466V42.2174H71.4349V41.9174ZM75.0274 49.8722L71.5722 42.0071L71.2975 42.1277L74.7528 49.9929L75.0274 49.8722ZM74.0479 50.0826H74.8901V49.7826H74.0479V50.0826ZM73.0065 47.8907L73.9101 49.9918L74.1857 49.8733L73.2821 47.7722L73.0065 47.8907ZM68.9264 47.9814H73.1443V47.6814H68.9264V47.9814ZM68.1606 49.9918L69.0642 47.8907L68.7886 47.7722L67.885 49.8733L68.1606 49.9918ZM67.1914 50.0826H68.0228V49.7826H67.1914V50.0826ZM70.8976 42.9864L72.7166 47.2165L72.9922 47.098L71.1732 42.8679L70.8976 42.9864ZM69.3541 47.2165L71.1732 42.9864L70.8976 42.8679L69.0785 47.098L69.3541 47.2165ZM72.8544 47.0073H69.2163V47.3073H72.8544V47.0073ZM56.6402 49.9326V42.7865H56.3402V49.9326H56.6402ZM57.2892 49.7826H56.4902V50.0826H57.2892V49.7826ZM57.1392 42.7865V49.9326H57.4392V42.7865H57.1392ZM59.9454 42.6365H57.2892V42.9365H59.9454V42.6365ZM59.7954 42.0674V42.7865H60.0954V42.0674H59.7954ZM53.834 42.2174H59.9454V41.9174H53.834V42.2174ZM53.984 42.7865V42.0674H53.684V42.7865H53.984ZM56.4902 42.6365H53.834V42.9365H56.4902V42.6365ZM44.0541 42.0674V49.9326H44.3541V42.0674H44.0541ZM45.0031 41.9174H44.2041V42.2174H45.0031V41.9174ZM45.1531 49.9326V42.0674H44.8531V49.9326H45.1531ZM44.2041 50.0826H45.0031V49.7826H44.2041V50.0826ZM17.3285 42.0674V49.9326H17.6285V42.0674H17.3285ZM18.2775 41.9174H17.4785V42.2174H18.2775V41.9174ZM18.4275 49.9326V42.0674H18.1275V49.9326H18.4275ZM17.4785 50.0826H18.2775V49.7826H17.4785V50.0826ZM1.15 49.9335V42.0684H0.85V49.9335H1.15ZM4.07731 49.7835H1V50.0835H4.07731V49.7835ZM6.12185 49.3075C5.5427 49.6231 4.86275 49.7835 4.07731 49.7835V50.0835C4.90432 50.0835 5.63525 49.9144 6.26543 49.5709L6.12185 49.3075ZM7.4887 47.9715C7.16441 48.5387 6.70961 48.9837 6.12126 49.3078L6.26602 49.5705C6.9014 49.2205 7.39678 48.7367 7.74914 48.1204L7.4887 47.9715ZM7.97641 46.001C7.97641 46.7499 7.81243 47.4052 7.4887 47.9715L7.74914 48.1204C8.10206 47.5031 8.27641 46.7951 8.27641 46.001H7.97641ZM7.4887 44.0305C7.81243 44.5967 7.97641 45.252 7.97641 46.001H8.27641C8.27641 45.2068 8.10206 44.4988 7.74914 43.8816L7.4887 44.0305ZM6.12251 42.706C6.71018 43.0226 7.16458 43.4635 7.4887 44.0305L7.74914 43.8816C7.39661 43.2649 6.90082 42.7845 6.26478 42.4419L6.12251 42.706ZM4.07731 42.2184C4.86221 42.2184 5.5417 42.3823 6.1206 42.705L6.26668 42.443C5.63625 42.0915 4.90486 41.9184 4.07731 41.9184V42.2184ZM1 42.2184H4.07731V41.9184H1V42.2184ZM1.79902 49.3644H4.03412V49.0644H1.79902V49.3644ZM1.64902 42.7875V49.2144H1.94902V42.7875H1.64902ZM4.03412 42.6375H1.79902V42.9375H4.03412V42.6375ZM5.84644 43.0727C5.33047 42.7805 4.72454 42.6375 4.03412 42.6375V42.9375C4.6826 42.9375 5.23561 43.0716 5.69863 43.3337L5.84644 43.0727ZM7.05816 44.2525C6.77044 43.7482 6.36472 43.354 5.84411 43.0714L5.70096 43.335C6.17373 43.5917 6.53824 43.9466 6.79759 44.4011L7.05816 44.2525ZM7.48819 46.001C7.48819 45.3422 7.34649 44.7578 7.05816 44.2525L6.79759 44.4011C7.05634 44.8546 7.18819 45.3863 7.18819 46.001H7.48819ZM7.05865 47.7486C7.34633 47.2365 7.48819 46.6526 7.48819 46.001H7.18819C7.18819 46.6078 7.05651 47.1399 6.7971 47.6016L7.05865 47.7486ZM5.84563 48.9409C6.36542 48.6509 6.77065 48.2533 7.05816 47.7495L6.79759 47.6008C6.53803 48.0557 6.17303 48.4147 5.69944 48.679L5.84563 48.9409ZM4.03412 49.3644C4.72389 49.3644 5.32925 49.2254 5.84491 48.9413L5.70016 48.6786C5.23683 48.9338 4.68326 49.0644 4.03412 49.0644V49.3644Z" fill="white" mask="url(#path-1-outside-1_1493_7655)"/>
<path d="M186.575 30.0001V4.7143H177.33V0H201.001V4.7143H191.756V30.0001H186.575Z" fill="white"/>
<path d="M150.165 30.0001V0H161.642C164.113 0 166.225 0.428573 167.978 1.28572C169.758 2.14286 171.126 3.37144 172.082 4.97144C173.039 6.57144 173.517 8.47145 173.517 10.6715C173.517 12.8715 173.039 14.7715 172.082 16.3715C171.126 17.9429 169.758 19.1572 167.978 20.0143C167.854 20.0731 167.727 20.1298 167.599 20.1844L173.995 30.0001H168.416L162.733 21.229C162.377 21.2478 162.014 21.2572 161.642 21.2572H155.346V30.0001H150.165ZM155.346 16.6715H161.403C163.687 16.6715 165.401 16.1429 166.543 15.0857C167.712 14.0286 168.297 12.5572 168.297 10.6715C168.297 8.75716 167.712 7.28573 166.543 6.25716C165.401 5.22858 163.687 4.7143 161.403 4.7143H155.346V16.6715Z" fill="white"/>
<path d="M114.377 30.0001L126.93 0H132.03L144.623 30.0001H139.203L136.431 23.0572L135.558 20.8715L134.685 18.6858L129.442 5.55646L124.218 18.6858H134.685L135.558 20.8715L136.431 23.0572H122.479L119.717 30.0001H114.377Z" fill="white"/>
<path d="M99.418 30.0001V4.7143H90.1729V0H113.844V4.7143H104.599V30.0001H99.418Z" fill="white"/>
<path d="M75.8072 30.0001C73.6287 30.0001 71.5432 29.6806 69.5507 29.0417C67.5582 28.3751 65.9775 27.5278 64.8086 26.5001L66.6018 22.2917C67.7176 23.2084 69.0991 23.9723 70.7462 24.5834C72.3934 25.1945 74.0803 25.5001 75.8072 25.5001C77.2683 25.5001 78.4505 25.3334 79.3538 25.0001C80.2571 24.6667 80.9212 24.2223 81.3463 23.6667C81.7714 23.0834 81.9839 22.4306 81.9839 21.7084C81.9839 20.8195 81.6784 20.1112 81.0674 19.5834C80.4563 19.0278 79.6593 18.5973 78.6764 18.2917C77.72 17.9584 76.644 17.6528 75.4485 17.375C74.2796 17.0973 73.0974 16.7778 71.9019 16.4167C70.733 16.0278 69.657 15.5417 68.674 14.9584C67.7176 14.3473 66.9339 13.5417 66.3229 12.5417C65.7119 11.5417 65.4063 10.2639 65.4063 8.70835C65.4063 7.12502 65.8048 5.68057 66.6018 4.37501C67.4254 3.04167 68.6608 1.98611 70.3079 1.20834C71.9816 0.402778 74.0936 0 76.644 0C78.3177 0 79.9781 0.222223 81.6253 0.666669C83.2724 1.11111 84.707 1.75 85.929 2.58334L84.2952 6.79168C83.0466 6.0139 81.7581 5.44446 80.4298 5.08335C79.1014 4.69445 77.8262 4.50001 76.6042 4.50001C75.1696 4.50001 74.0006 4.68056 73.0974 5.04168C72.2207 5.40279 71.5698 5.87501 71.1447 6.45835C70.7462 7.04168 70.547 7.70835 70.547 8.45835C70.547 9.34724 70.8392 10.0695 71.4237 10.625C72.0347 11.1528 72.8184 11.5695 73.7748 11.875C74.7578 12.1806 75.847 12.4861 77.0425 12.7917C78.238 13.0695 79.4202 13.3889 80.5892 13.75C81.7847 14.1111 82.8606 14.5834 83.817 15.1667C84.8 15.75 85.5837 16.5417 86.1681 17.5417C86.7792 18.5417 87.0847 19.8056 87.0847 21.3334C87.0847 22.8889 86.6729 24.3334 85.8493 25.6667C85.0523 26.9723 83.817 28.0278 82.1433 28.8334C80.4696 29.6112 78.3576 30.0001 75.8072 30.0001Z" fill="white"/>
<path d="M31.3076 30.0001L43.8603 0H48.9611L61.5537 30.0001H56.1341L53.3615 23.0572L52.4887 20.8715L51.6159 18.6858L46.3728 5.55646L41.1491 18.6858H51.6159L52.4887 20.8715L53.3615 23.0572H39.4098L36.6475 30.0001H31.3076Z" fill="white"/>
<path d="M1 30.0001V0H5.26394L20.646 20.3112V0H25.7866V30.0001H21.5227L6.14064 9.68886V30.0001H1Z" fill="white"/>
<path d="M279.907 30.0001V10.064V0H290.623C293.39 0 295.566 0.642859 297.151 1.92858C298.761 3.21429 299.566 5.1143 299.566 7.62859C299.566 9.25716 299.214 10.6286 298.509 11.7429C297.83 12.8572 296.874 13.6857 295.642 14.2286C295.352 14.3589 295.051 14.4736 294.74 14.5726C295.578 14.7225 296.332 14.9507 297 15.2572C298.308 15.8572 299.302 16.7286 299.981 17.8715C300.66 19.0143 301 20.4286 301 22.1143C301 24.6286 300.195 26.5715 298.585 27.9429C297 29.3144 294.598 30.0001 291.378 30.0001H279.907ZM281.19 28.7143H291.453C294.145 28.7143 296.195 28.1858 297.604 27.1286C299.013 26.0429 299.717 24.3572 299.717 22.0715C299.717 19.7572 299.013 18.0715 297.604 17.0143C296.195 15.9286 294.145 15.3857 291.453 15.3857H280.983L280.964 14.1429H290.661C293.076 14.1429 294.95 13.6 296.283 12.5143C297.642 11.4286 298.321 9.82859 298.321 7.7143C298.321 5.60001 297.642 4.00001 296.283 2.91429C294.95 1.82858 293.076 1.28572 290.661 1.28572H281.19V10.064H279.907V12.1035V14.1429H280.964L281.19 28.7143Z" fill="white"/>
<path d="M255.986 28.6715H272.551V30.0001H254.703V0H272.022V1.32858H255.986V10.0111H254.703V14.1H270.324V15.4286H255.986V28.6715Z" fill="white"/>
<path d="M220.018 30.0001L211 0H212.358L221.037 29.0144L221.339 30.0001L223.484 22.9958L222.857 20.905L229.3 0H230.545L239.126 27.9581L239.742 30.0001L241.888 23.0199L241.249 20.8932L247.525 0H248.808L241.888 23.0199L239.742 30.0001H238.507L229.753 1.54286H230.055L223.484 22.9958L221.339 30.0001H220.018Z" fill="white"/>
</svg>
