<svg width="300" height="50" viewBox="0 0 300 50" fill="none" xmlns="http://www.w3.org/2000/svg">
<path d="M186.189 49.9331V47.216L183.166 42.0679H184.019L186.61 46.4796L189.202 42.0679H190.001L186.977 47.216V49.9331H186.189Z" fill="white"/>
<path d="M172.506 50C171.938 50 171.412 49.9026 170.93 49.7079C170.448 49.5056 170.03 49.2247 169.677 48.8652C169.325 48.5056 169.047 48.0824 168.846 47.5955C168.651 47.1086 168.554 46.5768 168.554 46C168.554 45.4232 168.651 44.8914 168.846 44.4045C169.047 43.9176 169.325 43.4944 169.677 43.1348C170.037 42.7753 170.458 42.4981 170.941 42.3034C171.423 42.1011 171.948 42 172.517 42C173.064 42 173.579 42.0974 174.061 42.2921C174.543 42.4794 174.95 42.764 175.281 43.1461L174.774 43.6742C174.464 43.3446 174.122 43.1086 173.748 42.9663C173.374 42.8165 172.971 42.7416 172.539 42.7416C172.085 42.7416 171.664 42.824 171.275 42.9888C170.887 43.1461 170.548 43.3745 170.26 43.6742C169.972 43.9663 169.746 44.3109 169.58 44.7079C169.422 45.0974 169.343 45.5281 169.343 46C169.343 46.4719 169.422 46.9064 169.58 47.3034C169.746 47.6929 169.972 48.0375 170.26 48.3371C170.548 48.6292 170.887 48.8577 171.275 49.0225C171.664 49.1798 172.085 49.2584 172.539 49.2584C172.971 49.2584 173.374 49.1835 173.748 49.0337C174.122 48.8839 174.464 48.6442 174.774 48.3146L175.281 48.8427C174.95 49.2247 174.543 49.5131 174.061 49.7079C173.579 49.9026 173.061 50 172.506 50Z" fill="white"/>
<path d="M152.883 49.9331V42.0679H153.542L158.412 48.4468V42.0679H159.2V49.9331H158.541L153.682 43.5551V49.9331H152.883Z" fill="white"/>
<path d="M138.902 49.214H143.447V49.9331H138.103V42.0679H143.285V42.787H138.902V45.5847H142.81V46.2926H138.902V49.214Z" fill="white"/>
<path d="M125.507 50C124.931 50 124.398 49.9026 123.908 49.7079C123.426 49.5056 123.005 49.2247 122.645 48.8652C122.292 48.5056 122.015 48.0824 121.814 47.5955C121.619 47.1086 121.522 46.5768 121.522 46C121.522 45.4232 121.619 44.8914 121.814 44.4045C122.015 43.9176 122.296 43.4944 122.656 43.1348C123.016 42.7753 123.437 42.4981 123.919 42.3034C124.409 42.1011 124.941 42 125.517 42C126.093 42 126.619 42.0936 127.094 42.2809C127.576 42.4682 127.986 42.7528 128.325 43.1348L127.828 43.6629C127.511 43.3333 127.162 43.0974 126.781 42.9551C126.399 42.8127 125.989 42.7416 125.55 42.7416C125.082 42.7416 124.65 42.824 124.254 42.9888C123.865 43.1461 123.523 43.3745 123.228 43.6742C122.94 43.9663 122.714 44.3109 122.548 44.7079C122.39 45.0974 122.31 45.5281 122.31 46C122.31 46.4644 122.39 46.8951 122.548 47.2921C122.714 47.6892 122.94 48.0375 123.228 48.3371C123.523 48.6292 123.865 48.8577 124.254 49.0225C124.65 49.1798 125.078 49.2584 125.539 49.2584C125.971 49.2584 126.378 49.191 126.759 49.0562C127.026 48.9635 127.278 48.8265 127.515 48.6453V46H128.282V49C127.922 49.3296 127.5 49.5805 127.018 49.7528C126.536 49.9176 126.032 50 125.507 50Z" fill="white"/>
<path d="M105.79 49.9331L109.246 42.0679H110.034L113.489 49.9331H112.647L111.743 47.8319L111.453 47.1578L109.634 42.9276L107.815 47.1578H111.453L111.743 47.8319H107.525L106.622 49.9331H105.79Z" fill="white"/>
<path d="M82.6981 49.9331V42.0679H83.4971V49.214H87.7298V49.9331H82.6981Z" fill="white"/>
<path d="M66.191 49.9331L69.6463 42.0679H70.4345L73.8897 49.9331H73.0475L72.144 47.8319L71.8541 47.1578L70.035 42.9277L68.2159 47.1578H71.8541L72.144 47.8319H67.926L67.0225 49.9331H66.191Z" fill="white"/>
<path d="M55.4906 49.9331V42.787H52.8344V42.0679H58.9458V42.787H56.2896V49.9331H55.4906Z" fill="white"/>
<path d="M43.2043 49.9331V42.0679H44.0034V49.9331H43.2043Z" fill="white"/>
<path d="M30.6103 50C30.0344 50 29.5017 49.9026 29.0122 49.7079C28.53 49.5056 28.1088 49.2247 27.7489 48.8652C27.3962 48.5056 27.1191 48.0824 26.9175 47.5955C26.7232 47.1086 26.626 46.5768 26.626 46C26.626 45.4232 26.7232 44.8914 26.9175 44.4045C27.1191 43.9176 27.3998 43.4944 27.7597 43.1348C28.1196 42.7753 28.5407 42.4981 29.023 42.3034C29.5125 42.1011 30.0452 42 30.6211 42C31.197 42 31.7224 42.0936 32.1975 42.2809C32.6798 42.4682 33.0901 42.7528 33.4285 43.1348L32.9318 43.6629C32.615 43.3333 32.2659 43.0974 31.8844 42.9551C31.5029 42.8127 31.0926 42.7416 30.6535 42.7416C30.1856 42.7416 29.7537 42.824 29.3578 42.9888C28.9691 43.1461 28.6271 43.3745 28.332 43.6742C28.0441 43.9663 27.8173 44.3109 27.6517 44.7079C27.4934 45.0974 27.4142 45.5281 27.4142 46C27.4142 46.4644 27.4934 46.8951 27.6517 47.2921C27.8173 47.6892 28.0441 48.0375 28.332 48.3371C28.6271 48.6292 28.9691 48.8577 29.3578 49.0225C29.7537 49.1798 30.182 49.2584 30.6427 49.2584C31.0746 49.2584 31.4813 49.191 31.8628 49.0562C32.1301 48.9635 32.382 48.8265 32.6186 48.6453V46H33.3853V49C33.0253 49.3296 32.6042 49.5805 32.1219 49.7528C31.6397 49.9176 31.1358 50 30.6103 50Z" fill="white"/>
<path d="M16.4785 49.9331V42.0679H17.2775V49.9331H16.4785Z" fill="white"/>
<path d="M0 49.9335V42.0684H3.07731C3.88353 42.0684 4.58898 42.2369 5.19364 42.574C5.8055 42.9036 6.2806 43.3642 6.61892 43.956C6.95725 44.5478 7.12641 45.2294 7.12641 46.001C7.12641 46.7725 6.95725 47.4541 6.61892 48.0459C6.2806 48.6377 5.8055 49.1021 5.19364 49.4392C4.58898 49.7688 3.88353 49.9335 3.07731 49.9335H0ZM0.799022 49.2144H3.03412C3.70357 49.2144 4.28304 49.0796 4.77253 48.8099C5.26922 48.5328 5.65434 48.1545 5.92788 47.6751C6.20142 47.1882 6.33819 46.6302 6.33819 46.001C6.33819 45.3642 6.20142 44.8062 5.92788 44.3268C5.65434 43.8474 5.26922 43.4729 4.77253 43.2032C4.28304 42.926 3.70357 42.7875 3.03412 42.7875H0.799022V49.2144Z" fill="white"/>
<path d="M185.575 30.0001V4.7143H176.33V0H200.001V4.7143H190.756V30.0001H185.575Z" fill="white"/>
<path d="M149.165 30.0001V0H160.642C163.113 0 165.225 0.428573 166.978 1.28572C168.758 2.14286 170.126 3.37144 171.082 4.97144C172.039 6.57144 172.517 8.47145 172.517 10.6715C172.517 12.8715 172.039 14.7715 171.082 16.3715C170.126 17.9429 168.758 19.1572 166.978 20.0143C166.854 20.0731 166.727 20.1298 166.599 20.1844L172.995 30.0001H167.416L161.733 21.229C161.377 21.2478 161.014 21.2572 160.642 21.2572H154.346V30.0001H149.165ZM154.346 16.6715H160.403C162.687 16.6715 164.401 16.1429 165.543 15.0857C166.712 14.0286 167.297 12.5572 167.297 10.6715C167.297 8.75716 166.712 7.28573 165.543 6.25716C164.401 5.22858 162.687 4.7143 160.403 4.7143H154.346V16.6715Z" fill="white"/>
<path d="M113.377 30.0001L125.93 0H131.031L143.623 30.0001H138.204L135.431 23.0572L134.558 20.8715L133.685 18.6858L128.442 5.55646L123.219 18.6858H133.685L134.558 20.8715L135.431 23.0572H121.479L118.717 30.0001H113.377Z" fill="white"/>
<path d="M98.4181 30.0001V4.7143H89.173V0H112.844V4.7143H103.599V30.0001H98.4181Z" fill="white"/>
<path d="M74.8069 30.0001C72.6285 30.0001 70.543 29.6806 68.5505 29.0417C66.558 28.3751 64.9773 27.5278 63.8083 26.5001L65.6016 22.2917C66.7174 23.2084 68.0989 23.9723 69.746 24.5834C71.3931 25.1945 73.0801 25.5001 74.8069 25.5001C76.2681 25.5001 77.4503 25.3334 78.3536 25.0001C79.2568 24.6667 79.921 24.2223 80.3461 23.6667C80.7711 23.0834 80.9837 22.4306 80.9837 21.7084C80.9837 20.8195 80.6781 20.1112 80.0671 19.5834C79.4561 19.0278 78.6591 18.5973 77.6761 18.2917C76.7197 17.9584 75.6438 17.6528 74.4483 17.375C73.2793 17.0973 72.0971 16.7778 70.9016 16.4167C69.7327 16.0278 68.6568 15.5417 67.6738 14.9584C66.7174 14.3473 65.9337 13.5417 65.3226 12.5417C64.7116 11.5417 64.4061 10.2639 64.4061 8.70835C64.4061 7.12502 64.8046 5.68057 65.6016 4.37501C66.4252 3.04167 67.6605 1.98611 69.3076 1.20834C70.9813 0.402778 73.0934 0 75.6438 0C77.3175 0 78.9779 0.222223 80.625 0.666669C82.2721 1.11111 83.7067 1.75 84.9288 2.58334L83.295 6.79168C82.0463 6.0139 80.7578 5.44446 79.4295 5.08335C78.1012 4.69445 76.826 4.50001 75.6039 4.50001C74.1693 4.50001 73.0004 4.68056 72.0971 5.04168C71.2204 5.40279 70.5696 5.87501 70.1445 6.45835C69.746 7.04168 69.5467 7.70835 69.5467 8.45835C69.5467 9.34724 69.839 10.0695 70.4234 10.625C71.0345 11.1528 71.8182 11.5695 72.7746 11.875C73.7575 12.1806 74.8468 12.4861 76.0423 12.7917C77.2378 13.0695 78.42 13.3889 79.5889 13.75C80.7844 14.1111 81.8604 14.5834 82.8167 15.1667C83.7997 15.75 84.5834 16.5417 85.1679 17.5417C85.7789 18.5417 86.0844 19.8056 86.0844 21.3334C86.0844 22.8889 85.6727 24.3334 84.8491 25.6667C84.0521 26.9723 82.8168 28.0278 81.1431 28.8334C79.4694 29.6112 77.3573 30.0001 74.8069 30.0001Z" fill="white"/>
<path d="M30.308 30.0001L42.8607 0H47.9615L60.5541 30.0001H55.1345L52.3619 23.0572L51.4891 20.8715L50.6162 18.6858L45.3732 5.55646L40.1495 18.6858H50.6162L51.4891 20.8715L52.3619 23.0572H38.4102L35.6479 30.0001H30.308Z" fill="white"/>
<path d="M0 30.0001V0H4.26394L19.646 20.3112V0H24.7866V30.0001H20.5227L5.14064 9.68886V30.0001H0Z" fill="white"/>
<path d="M278.907 30.0001V10.064V0H289.624C292.391 0 294.566 0.642859 296.151 1.92858C297.761 3.21429 298.566 5.1143 298.566 7.62859C298.566 9.25716 298.214 10.6286 297.51 11.7429C296.83 12.8572 295.875 13.6857 294.642 14.2286C294.352 14.3589 294.051 14.4736 293.74 14.5726C294.579 14.7225 295.332 14.9507 296 15.2572C297.308 15.8572 298.302 16.7286 298.981 17.8715C299.66 19.0143 300 20.4286 300 22.1143C300 24.6286 299.195 26.5715 297.585 27.9429C296 29.3144 293.598 30.0001 290.378 30.0001H278.907ZM280.19 28.7143H290.454C293.145 28.7143 295.195 28.1858 296.604 27.1286C298.013 26.0429 298.717 24.3572 298.717 22.0715C298.717 19.7572 298.013 18.0715 296.604 17.0143C295.195 15.9286 293.145 15.3857 290.454 15.3857H279.983L279.964 14.1429H289.661C292.076 14.1429 293.95 13.6 295.283 12.5143C296.642 11.4286 297.321 9.82859 297.321 7.7143C297.321 5.60001 296.642 4.00001 295.283 2.91429C293.95 1.82858 292.076 1.28572 289.661 1.28572H280.19V10.064H278.907V12.1035V14.1429H279.964L280.19 28.7143Z" fill="white"/>
<path d="M254.986 28.6715H271.55V30.0001H253.703V0H271.022V1.32858H254.986V10.0111H253.703V14.1H269.324V15.4286H254.986V28.6715Z" fill="white"/>
<path d="M219.018 30.0001L210 0H211.358L220.037 29.0144L220.339 30.0001L222.484 22.9958L221.857 20.905L228.3 0H229.545L238.126 27.9581L238.742 30.0001L240.888 23.0199L240.248 20.8932L246.525 0H247.808L240.888 23.0199L238.742 30.0001H237.507L228.753 1.54286H229.055L222.484 22.9958L220.339 30.0001H219.018Z" fill="white"/>
</svg>
