<svg width="25" height="26" viewBox="0 0 25 26" fill="none" xmlns="http://www.w3.org/2000/svg">
<path d="M6.60237 19.1163C7.81899 20.3773 9.12463 21.5297 10.5193 22.5736C11.9238 23.6072 13.3482 24.4341 14.7923 25.0543C16.2364 25.6848 17.6261 26 18.9614 26C19.8912 26 20.7468 25.8295 21.5282 25.4884C22.3195 25.1473 23.0415 24.6305 23.6944 23.938C24.0208 23.5866 24.3175 23.1731 24.5846 22.6977C24.8615 22.2222 25 21.7364 25 21.2403C25 20.9302 24.9308 20.6253 24.7923 20.3256C24.6538 20.0258 24.4115 19.7468 24.0653 19.4884L19.8071 16.4031C19.5895 16.2377 19.362 16.1085 19.1246 16.0155C18.8971 15.9121 18.6548 15.8605 18.3976 15.8605C18.1108 15.8605 17.814 15.938 17.5074 16.093C17.2008 16.2377 16.8744 16.4806 16.5282 16.8217L15.4896 17.8605C15.3412 18.0155 15.1681 18.093 14.9703 18.093C14.8813 18.093 14.7972 18.0775 14.7181 18.0465C14.639 18.0155 14.5598 17.9845 14.4807 17.9535C14.1048 17.7571 13.5608 17.3902 12.8487 16.8527C12.1464 16.3049 11.4194 15.6382 10.6677 14.8527C9.91593 14.0775 9.27794 13.323 8.75371 12.5891C8.23937 11.8553 7.89318 11.2817 7.71513 10.8682C7.68546 10.7855 7.65579 10.708 7.62611 10.6357C7.60633 10.553 7.59644 10.4755 7.59644 10.4031C7.59644 10.2171 7.66568 10.0568 7.80415 9.92248L8.79822 8.75969C9.10485 8.37726 9.3274 8.02584 9.46588 7.70543C9.61424 7.37468 9.68843 7.05943 9.68843 6.75969C9.68843 6.50129 9.64392 6.24806 9.5549 6C9.46588 5.75194 9.34224 5.50904 9.18398 5.27132L6.37982 1.10078C6.11276 0.718346 5.81602 0.439276 5.48961 0.263566C5.1632 0.0878553 4.82196 0 4.46588 0C3.58556 0 2.72502 0.439276 1.88427 1.31783C1.24135 2 0.766568 2.75452 0.459941 3.5814C0.153314 4.40827 0 5.27649 0 6.18605C0 7.57106 0.296736 9.01809 0.890208 10.5271C1.48368 12.0362 2.27992 13.5245 3.27893 14.9922C4.27794 16.4599 5.38576 17.8346 6.60237 19.1163Z" fill="white"/>
</svg>
