<svg width="60" height="25" viewBox="0 0 60 25" fill="none" xmlns="http://www.w3.org/2000/svg">
<path d="M0 25V4.16667H12.7126L15.4695 6.84524V18.1548L12.7126 20.8333H2.75695V25H0ZM12.7126 6.54762H2.75695V18.4524H12.7126V6.54762Z" fill="#FD7E51"/>
<path d="M18.9959 20.8333V0H21.7528V20.8333H18.9959Z" fill="#FD7E51"/>
<path d="M25.1213 18.1548V11.3095L37.3744 11.0119V6.54762H25.7339V4.16667H37.3744L40.1313 6.84524V20.8333H27.8782L25.1213 18.1548ZM27.8782 13.6905V18.4524H37.3744V13.0952L27.8782 13.6905Z" fill="#FD7E51"/>
<path d="M43.2132 25V22.619H51.2084L52.5256 18.4524H47.2874L42.2943 4.16667H45.0818L49.2479 16.0714H53.2608L57.2124 4.16667H60L53.1383 25H43.2132Z" fill="#FD7E51"/>
</svg>
