<svg width="50" height="50" viewBox="0 0 50 50" fill="none" xmlns="http://www.w3.org/2000/svg">
<path d="M25.0035 11H24.9965C17.2773 11 11 17.279 11 25C11 28.0625 11.987 30.901 13.6653 33.2057L11.9205 38.4067L17.3018 36.6865C19.5155 38.153 22.1562 39 25.0035 39C32.7227 39 39 32.7192 39 25C39 17.2808 32.7227 11 25.0035 11ZM33.1497 30.7698C32.812 31.7235 31.4715 32.5145 30.4023 32.7455C29.6707 32.9012 28.7153 33.0255 25.4987 31.692C21.3845 29.9875 18.735 25.8067 18.5285 25.5355C18.3307 25.2642 16.866 23.3218 16.866 21.3127C16.866 19.3038 17.8863 18.3255 18.2975 17.9055C18.6353 17.5608 19.1935 17.4032 19.729 17.4032C19.9023 17.4032 20.058 17.412 20.198 17.419C20.6093 17.4365 20.8158 17.461 21.087 18.1103C21.4248 18.924 22.2472 20.933 22.3452 21.1395C22.445 21.346 22.5448 21.626 22.4048 21.8973C22.2735 22.1773 22.158 22.3015 21.9515 22.5395C21.745 22.7775 21.549 22.9595 21.3425 23.215C21.1535 23.4373 20.94 23.6753 21.178 24.0865C21.416 24.489 22.2385 25.8312 23.4495 26.9092C25.0122 28.3005 26.2792 28.745 26.7325 28.934C27.0702 29.074 27.4727 29.0408 27.7195 28.7783C28.0327 28.4405 28.4195 27.8805 28.8132 27.3293C29.0933 26.9338 29.4468 26.8847 29.8178 27.0247C30.1958 27.156 32.196 28.1447 32.6073 28.3495C33.0185 28.556 33.2897 28.654 33.3895 28.8273C33.4875 29.0005 33.4875 29.8142 33.1497 30.7698Z" fill="white"/>
</svg>
