<svg width="106" height="17" viewBox="0 0 106 17" fill="none" xmlns="http://www.w3.org/2000/svg">
<path d="M5.688 16.154C4.66133 16.154 3.73733 15.978 2.916 15.626C2.09467 15.2593 1.44933 14.746 0.98 14.086C0.510667 13.426 0.276 12.656 0.276 11.776H2.96C3.01867 12.436 3.27533 12.9787 3.73 13.404C4.19933 13.8293 4.852 14.042 5.688 14.042C6.55333 14.042 7.228 13.8367 7.712 13.426C8.196 13.0007 8.438 12.458 8.438 11.798C8.438 11.2847 8.284 10.8667 7.976 10.544C7.68267 10.2213 7.30867 9.972 6.854 9.796C6.414 9.62 5.798 9.42933 5.006 9.224C4.00867 8.96 3.19467 8.696 2.564 8.432C1.948 8.15333 1.42 7.728 0.98 7.156C0.54 6.584 0.32 5.82133 0.32 4.868C0.32 3.988 0.54 3.218 0.98 2.558C1.42 1.898 2.036 1.392 2.828 1.04C3.62 0.687999 4.53667 0.511999 5.578 0.511999C7.05933 0.511999 8.26933 0.885999 9.208 1.634C10.1613 2.36733 10.6893 3.37933 10.792 4.67H8.02C7.976 4.11267 7.712 3.636 7.228 3.24C6.744 2.844 6.106 2.646 5.314 2.646C4.59533 2.646 4.00867 2.82933 3.554 3.196C3.09933 3.56267 2.872 4.09067 2.872 4.78C2.872 5.24933 3.01133 5.638 3.29 5.946C3.58333 6.23933 3.95 6.474 4.39 6.65C4.83 6.826 5.43133 7.01667 6.194 7.222C7.206 7.50067 8.02733 7.77933 8.658 8.058C9.30333 8.33667 9.846 8.76933 10.286 9.356C10.7407 9.928 10.968 10.698 10.968 11.666C10.968 12.4433 10.7553 13.1767 10.33 13.866C9.91933 14.5553 9.31067 15.1127 8.504 15.538C7.712 15.9487 6.77333 16.154 5.688 16.154ZM29.1293 5.264C29.1293 6.04133 28.946 6.77467 28.5793 7.464C28.2127 8.15333 27.626 8.718 26.8193 9.158C26.0127 9.58333 24.9787 9.796 23.7173 9.796H20.9453V16H18.4373V0.709999H23.7173C24.8907 0.709999 25.8807 0.915332 26.6873 1.326C27.5087 1.722 28.1173 2.26467 28.5133 2.954C28.924 3.64333 29.1293 4.41333 29.1293 5.264ZM23.7173 7.75C24.6707 7.75 25.382 7.53733 25.8513 7.112C26.3207 6.672 26.5553 6.056 26.5553 5.264C26.5553 3.592 25.6093 2.756 23.7173 2.756H20.9453V7.75H23.7173ZM44.2153 8.146C45.0367 8.29267 45.7333 8.72533 46.3053 9.444C46.8773 10.1627 47.1633 10.9767 47.1633 11.886C47.1633 12.6633 46.958 13.3673 46.5473 13.998C46.1513 14.614 45.572 15.1053 44.8093 15.472C44.0467 15.824 43.1593 16 42.1473 16H36.0313V0.709999H41.8613C42.9027 0.709999 43.7973 0.885999 44.5453 1.238C45.2933 1.59 45.858 2.06667 46.2393 2.668C46.6207 3.25467 46.8113 3.91467 46.8113 4.648C46.8113 5.528 46.5767 6.26133 46.1073 6.848C45.638 7.43467 45.0073 7.86733 44.2153 8.146ZM38.5393 7.134H41.6413C42.4627 7.134 43.1007 6.95067 43.5553 6.584C44.0247 6.20267 44.2593 5.66 44.2593 4.956C44.2593 4.26667 44.0247 3.73133 43.5553 3.35C43.1007 2.954 42.4627 2.756 41.6413 2.756H38.5393V7.134ZM41.9273 13.954C42.778 13.954 43.4453 13.7487 43.9293 13.338C44.4133 12.9273 44.6553 12.3553 44.6553 11.622C44.6553 10.874 44.3987 10.28 43.8853 9.84C43.372 9.4 42.69 9.18 41.8393 9.18H38.5393V13.954H41.9273ZM59.4367 16.154C58.4101 16.154 57.4861 15.978 56.6647 15.626C55.8434 15.2593 55.1981 14.746 54.7287 14.086C54.2594 13.426 54.0247 12.656 54.0247 11.776H56.7087C56.7674 12.436 57.0241 12.9787 57.4787 13.404C57.9481 13.8293 58.6007 14.042 59.4367 14.042C60.3021 14.042 60.9767 13.8367 61.4607 13.426C61.9447 13.0007 62.1867 12.458 62.1867 11.798C62.1867 11.2847 62.0327 10.8667 61.7247 10.544C61.4314 10.2213 61.0574 9.972 60.6027 9.796C60.1627 9.62 59.5467 9.42933 58.7547 9.224C57.7574 8.96 56.9434 8.696 56.3127 8.432C55.6967 8.15333 55.1687 7.728 54.7287 7.156C54.2887 6.584 54.0687 5.82133 54.0687 4.868C54.0687 3.988 54.2887 3.218 54.7287 2.558C55.1687 1.898 55.7847 1.392 56.5767 1.04C57.3687 0.687999 58.2854 0.511999 59.3267 0.511999C60.8081 0.511999 62.0181 0.885999 62.9567 1.634C63.9101 2.36733 64.4381 3.37933 64.5407 4.67H61.7687C61.7247 4.11267 61.4607 3.636 60.9767 3.24C60.4927 2.844 59.8547 2.646 59.0627 2.646C58.3441 2.646 57.7574 2.82933 57.3027 3.196C56.8481 3.56267 56.6207 4.09067 56.6207 4.78C56.6207 5.24933 56.7601 5.638 57.0387 5.946C57.3321 6.23933 57.6987 6.474 58.1387 6.65C58.5787 6.826 59.1801 7.01667 59.9427 7.222C60.9547 7.50067 61.7761 7.77933 62.4067 8.058C63.0521 8.33667 63.5947 8.76933 64.0347 9.356C64.4894 9.928 64.7167 10.698 64.7167 11.666C64.7167 12.4433 64.5041 13.1767 64.0787 13.866C63.6681 14.5553 63.0594 15.1127 62.2527 15.538C61.4607 15.9487 60.5221 16.154 59.4367 16.154ZM81.4041 12.876H75.0021L73.9021 16H71.2841L76.7621 0.687999H79.6661L85.1441 16H82.5041L81.4041 12.876ZM80.7001 10.83L78.2141 3.724L75.7061 10.83H80.7001ZM97.0299 0.709999C98.6579 0.709999 100.081 1.02533 101.298 1.656C102.53 2.272 103.476 3.16667 104.136 4.34C104.811 5.49867 105.148 6.85533 105.148 8.41C105.148 9.96467 104.811 11.314 104.136 12.458C103.476 13.602 102.53 14.482 101.298 15.098C100.081 15.6993 98.6579 16 97.0299 16H92.0359V0.709999H97.0299ZM97.0299 13.954C98.8193 13.954 100.191 13.47 101.144 12.502C102.097 11.534 102.574 10.17 102.574 8.41C102.574 6.63533 102.097 5.24933 101.144 4.252C100.191 3.25467 98.8193 2.756 97.0299 2.756H94.5439V13.954H97.0299Z" fill="#FBF9F9"/>
</svg>
