<?xml version="1.0" encoding="utf-8"?>
<!-- Generator: Adobe Illustrator 22.0.1, SVG Export Plug-In . SVG Version: 6.00 Build 0)  -->
<svg version="1.1" id="Слой_1" xmlns="http://www.w3.org/2000/svg" xmlns:xlink="http://www.w3.org/1999/xlink" x="0px" y="0px"
	 viewBox="0 0 260.1 99.1" style="enable-background:new 0 0 260.1 99.1;" xml:space="preserve">
<style type="text/css">
	.st0{fill-rule:evenodd;clip-rule:evenodd;fill:#151616;}
	.st1{fill:#151616;}
	.st2{fill-rule:evenodd;clip-rule:evenodd;fill:#F8991D;}
	.st3{fill-rule:evenodd;clip-rule:evenodd;fill:url(#SVGID_1_);}
</style>
<path class="st0" d="M247.2,38.5v24.9h6.5V38.5H247.2L247.2,38.5L247.2,38.5z M259.3,64c-0.5,1.2-1.2,2.2-2.1,3.1
	c-0.9,0.9-1.9,1.5-3.1,2c-1.2,0.5-2.4,0.7-3.7,0.7h-9.8V18h6.5v14h3.3c1.3,0,2.6,0.3,3.7,0.8c1.2,0.5,2.2,1.2,3.1,2.1
	c0.9,0.9,1.6,1.9,2.1,3.1c0.5,1.2,0.7,2.4,0.7,3.7v18.4C260.1,61.5,259.9,62.8,259.3,64L259.3,64L259.3,64z M222.3,18.7
	c-1.2,0.5-2.2,1.2-3.1,2.1c-0.9,0.9-1.5,2-2,3.1c-0.5,1.2-0.8,2.4-0.8,3.7v42.1h6.4V24.5h6.5v45.3h6.5V18H226
	C224.7,18,223.5,18.2,222.3,18.7L222.3,18.7L222.3,18.7z M193.2,63.8c0.5,1.2,1.2,2.2,2,3.1c0.9,0.9,1.9,1.6,3.1,2.1
	c1.2,0.5,2.4,0.8,3.8,0.8h9.8v-6.5h-13V43.9h6.5v-6.5h-6.5v-13h13v-6.5h-9.8c-1.4,0-2.6,0.2-3.8,0.7c-1.2,0.5-2.2,1.2-3.1,2.1
	c-0.9,0.9-1.5,1.9-2,3.1c-0.5,1.2-0.7,2.5-0.7,3.8v32.5C192.4,61.4,192.7,62.7,193.2,63.8L193.2,63.8L193.2,63.8z M181.6,24.4h6.5
	v-6.5h-19.6v6.5h6.6v39.4c0,1.8,0.7,3.4,1.9,4.5c1.2,1.2,2.8,1.8,4.6,1.8V24.4L181.6,24.4z M150.6,49.3V24.4h6.5v24.9H150.6
	L150.6,49.3L150.6,49.3z M162.8,23.8c-0.5-1.2-1.2-2.2-2.1-3.1c-0.9-0.9-1.9-1.6-3.1-2.1c-1.2-0.5-2.4-0.7-3.7-0.7h-9.8v51.9h6.5
	v-14h3.3c1.3,0,2.6-0.3,3.7-0.8c1.2-0.5,2.2-1.2,3.1-2.1c0.9-0.9,1.6-1.9,2.1-3.1c0.5-1.2,0.7-2.4,0.7-3.7V27.7
	C163.6,26.3,163.3,25.1,162.8,23.8L162.8,23.8L162.8,23.8z M127.1,24.4h6.4v24.9h-6.4V24.4L127.1,24.4z M120.5,69.8h6.6v-14h6.4v14
	h6.5V27.1c0-1.3-0.2-2.6-0.7-3.8c-0.5-1.2-1.2-2.2-2.1-3.1c-0.9-0.9-1.9-1.6-3.1-2.1c-1.2-0.5-2.5-0.7-3.8-0.7
	c-1.3,0-2.6,0.2-3.7,0.7c-1.2,0.5-2.3,1.2-3.1,2.1c-0.9,0.9-1.6,1.9-2.1,3.1c-0.5,1.2-0.8,2.5-0.8,3.8V69.8L120.5,69.8z"/>
<path class="st1" d="M122,74.6v5h4.1v-5h1.4v5h1.3v2.1h-1.3v-0.9h-5.4c-0.6,0-1-0.1-1.2-0.3c-0.2-0.2-0.3-0.6-0.3-1.2v-4.7H122
	L122,74.6L122,74.6z M129.5,80.8v-6.2h6.3v1h-4.9V77h2.8v1h-2.8v1.5h4.9v1.2H129.5L129.5,80.8L129.5,80.8z M136.6,80.8v-6.2h1.4V77
	h4.4v-2.4h1.5v6.2h-1.5v-2.6H138v2.6H136.6L136.6,80.8L136.6,80.8z M148.5,75.7v5.1h-1.4v-5.1h-2.8v-1.1h7.1v1.1H148.5L148.5,75.7
	L148.5,75.7z M156,75.7h-3.2v1.6h3.2c0.2,0,0.4,0,0.5-0.1c0.1-0.1,0.1-0.2,0.1-0.4v-0.6c0-0.2,0-0.3-0.1-0.4
	C156.4,75.7,156.2,75.7,156,75.7L156,75.7L156,75.7z M151.4,80.8v-6.2h5.2c0.5,0,0.9,0.1,1.1,0.3c0.2,0.2,0.3,0.5,0.3,0.9v1.3
	c0,0.4-0.1,0.7-0.3,0.9c-0.2,0.2-0.6,0.3-1.1,0.3h-3.8v2.4H151.4L151.4,80.8L151.4,80.8z M168.1,75.7h-3.8v3.9h3.8v-1.3l1.4,0.3v0.7
	c0,0.5-0.1,0.9-0.3,1.2c-0.2,0.2-0.6,0.3-1.2,0.3h-3.7c-0.6,0-1-0.1-1.2-0.3c-0.2-0.2-0.3-0.6-0.3-1.2v-3.2c0-0.5,0.1-0.9,0.3-1.1
	c0.2-0.2,0.6-0.3,1.2-0.3h3.7c0.6,0,1,0.1,1.2,0.3c0.2,0.2,0.3,0.6,0.3,1.1v0.6l-1.4,0.2V75.7L168.1,75.7z M170.1,80.8v-6.2h6.3v1
	h-4.9V77h2.9v1h-2.9v1.5h4.9v1.2H170.1L170.1,80.8L170.1,80.8z M181.7,75.7h-3.2v1.6h3.2c0.3,0,0.4,0,0.5-0.1
	c0.1-0.1,0.1-0.2,0.1-0.4v-0.6c0-0.2-0.1-0.3-0.1-0.4C182.2,75.7,182,75.7,181.7,75.7L181.7,75.7L181.7,75.7z M177.1,80.8v-6.2h5.2
	c0.5,0,0.9,0.1,1.1,0.3c0.2,0.2,0.3,0.5,0.3,0.9v1.3c0,0.4-0.1,0.7-0.3,0.9c-0.2,0.2-0.6,0.3-1.1,0.3h-3.8v2.4H177.1L177.1,80.8
	L177.1,80.8z M189,75.7v5.1h-1.4v-5.1h-2.8v-1.1h7.1v1.1H189L189,75.7L189,75.7z M199,80.8v-6.2h-1l-4.3,3.6
	c-0.2,0.1-0.3,0.2-0.4,0.3c-0.1,0.1-0.2,0.2-0.3,0.3c0-0.1,0-0.2,0-0.4c0-0.2,0-0.3,0-0.3c0-0.1,0-0.2,0-0.3v-3.2h-1.3v6.2h1
	l4.5-3.8c0.1-0.1,0.2-0.2,0.3-0.3c0.1-0.1,0.2-0.2,0.2-0.2c0,0.1,0,0.2,0,0.3c0,0.1,0,0.2,0,0.2c0,0.1,0,0.3,0,0.4v3.3H199L199,80.8
	L199,80.8z M206.1,75.7h2.4c0.2,0,0.4,0,0.5,0.1c0.1,0.1,0.1,0.2,0.1,0.4V78c0,0.2-0.1,0.3-0.1,0.4c-0.1,0.1-0.2,0.1-0.5,0.1h-2.4
	V75.7L206.1,75.7z M206.1,80.7v-1.1h3.1c0.5,0,0.9-0.1,1.1-0.3c0.2-0.2,0.3-0.5,0.3-0.9v-2.6c0-0.4-0.1-0.7-0.3-0.9
	c-0.2-0.2-0.6-0.3-1.1-0.3h-7.7c-0.5,0-0.9,0.1-1.1,0.3c-0.2,0.2-0.3,0.5-0.3,0.9v2.6c0,0.4,0.1,0.7,0.3,0.9
	c0.2,0.2,0.6,0.3,1.1,0.3h3.1v1.1H206.1L206.1,80.7L206.1,80.7z M202,75.7h2.5v2.8H202c-0.2,0-0.4-0.1-0.5-0.1
	c-0.1-0.1-0.1-0.2-0.1-0.4v-1.8c0-0.2,0-0.3,0.1-0.4C201.6,75.7,201.8,75.7,202,75.7L202,75.7L202,75.7z M218.5,80.8v-6.2h-1
	l-4.3,3.6c-0.2,0.1-0.3,0.2-0.4,0.3c-0.1,0.1-0.2,0.2-0.3,0.3c0-0.1,0-0.2,0-0.4c0-0.2,0-0.3,0-0.3c0-0.1,0-0.2,0-0.3v-3.2h-1.3v6.2
	h1l4.5-3.8c0.1-0.1,0.2-0.2,0.3-0.3c0.1-0.1,0.2-0.2,0.2-0.2c0,0.1,0,0.2,0,0.3c0,0.1,0,0.2,0,0.2c0,0.1,0,0.3,0,0.4v3.3H218.5
	L218.5,80.8L218.5,80.8z M219.2,80.8v-6.2h1.4v2.6l3.4-2.6h2.1l-4.1,2.9l4.6,3.2h-2.3l-3.7-2.7v2.7H219.2L219.2,80.8L219.2,80.8z
	 M229.4,78.3h2.7l-1.3-2.5L229.4,78.3L229.4,78.3L229.4,78.3z M226.7,80.8l3.5-6.2h1.4l3.5,6.2h-1.6l-0.7-1.3h-3.9l-0.7,1.3H226.7
	L226.7,80.8L226.7,80.8z M237.2,74.6v5h4.1v-5h1.4v5h1.3v2.1h-1.3v-0.9h-5.4c-0.6,0-1-0.1-1.2-0.3c-0.2-0.2-0.3-0.6-0.3-1.2v-4.7
	H237.2L237.2,74.6L237.2,74.6z M252,80.8v-6.2h-1l-4.3,3.6c-0.2,0.1-0.3,0.2-0.4,0.3c-0.1,0.1-0.2,0.2-0.3,0.3c0-0.1,0-0.2,0-0.4
	c0-0.2,0-0.3,0-0.3c0-0.1,0-0.2,0-0.3v-3.2h-1.3v6.2h1l4.5-3.8c0.1-0.1,0.2-0.2,0.3-0.3c0.1-0.1,0.2-0.2,0.2-0.2c0,0.1,0,0.2,0,0.3
	c0,0.1,0,0.2,0,0.2c0,0.1,0,0.3,0,0.4v3.3H252L252,80.8L252,80.8z M260.1,80.8v-6.2h-1l-4.3,3.6c-0.2,0.1-0.3,0.2-0.4,0.3
	c-0.1,0.1-0.2,0.2-0.3,0.3c0-0.1,0-0.2,0-0.4c0-0.2,0-0.3,0-0.3c0-0.1,0-0.2,0-0.3v-3.2h-1.3v6.2h1l4.5-3.8c0.1-0.1,0.2-0.2,0.3-0.3
	c0.1-0.1,0.2-0.2,0.2-0.2c0,0.1,0,0.2,0,0.3c0,0.1,0,0.2,0,0.2c0,0.1,0,0.3,0,0.4v3.3H260.1L260.1,80.8L260.1,80.8z"/>
<path class="st2" d="M30.3,47.5l-12.1-8L31,46.1L30.3,47.5L30.3,47.5L30.3,47.5z M67,71.7L41,54.5l1.1-2.6L63.5,63L67,71.7L67,71.7
	L67,71.7z"/>
<linearGradient id="SVGID_1_" gradientUnits="userSpaceOnUse" x1="33.5909" y1="5.7373" x2="88.5992" y2="133.5124">
	<stop  offset="0" style="stop-color:#FFC22D"/>
	<stop  offset="1" style="stop-color:#F89920"/>
</linearGradient>
<path class="st3" d="M67,71.7L50.5,30.6l0,0L41,54.5L67,71.7L67,71.7z M39.2,59.1L27,89.4c14.8,3.1,29.8,3.4,45.1,0.4L39.2,59.1
	L39.2,59.1z M29.1,49.7L18.2,39.5l12.1,8l20.2-38l34.2,64.3c4.9-11.5,7.7-23.2,9-35.1C81.6,24.9,67.1,14.4,50.5,7.1l0,0
	C33.8,14.9,19.1,25,7.3,38.6c1.5,12.1,4.4,23.9,9,35L29.1,49.7L29.1,49.7z M50.6,0h-0.2C30.9,9,13.7,20.9,0,36.8v0
	c2.6,20.8,8.5,40.5,19.6,58.6c20.2,4.7,40.8,5,61.9,0C93,76.5,98.8,56.9,101,36.9C86.9,20.7,70,8.5,50.6,0L50.6,0z"/>
</svg>
