<?xml version="1.0" encoding="utf-8"?>
<!-- Generator: Adobe Illustrator 22.0.1, SVG Export Plug-In . SVG Version: 6.00 Build 0)  -->
<svg version="1.1" id="Layer_1" xmlns="http://www.w3.org/2000/svg" xmlns:xlink="http://www.w3.org/1999/xlink" x="0px" y="0px"
	 viewBox="0 0 58 90" style="enable-background:new 0 0 58 90;" xml:space="preserve">
<path d="M29,0C13,0,0,13,0,29v32c0,16,13,29,29,29s29-13,29-29V29C58,13,45,0,29,0z M52,61c0,12.7-10.3,23-23,23S6,73.7,6,61V29
	C6,16.3,16.3,6,29,6s23,10.3,23,23V61z M31,19v12c0,1.1-0.9,2-2,2s-2-0.9-2-2V19c0-1.1,0.9-2,2-2S31,17.9,31,19z"/>
</svg>
