<svg width="223" height="229" viewBox="0 0 223 229" fill="none" xmlns="http://www.w3.org/2000/svg">
<path fill-rule="evenodd" clip-rule="evenodd" d="M125.597 40.3024C125.151 39.4873 125.182 38.3608 125.697 37.451C127.136 34.9067 128.778 35.1777 130.461 35.1683C132.61 35.1562 134.344 34.8371 135.581 35.8722L136.716 37.2429C137.292 38.4921 137.205 52.1347 137.014 54.1393C136.894 55.3987 137.016 55.0302 136.455 55.7417L135.379 56.8301C134.65 57.3355 132.859 57.4402 131.775 57.1352C127.927 56.0526 130.152 49.138 129.364 42.7605C127.364 42.5687 127.371 42.6912 125.852 40.6548L125.597 40.3024ZM31.9375 18.2886L23.2438 22.7978L22.3298 30.1976C21.6373 32.2356 23.488 54.8257 23.4878 58.1668C23.4877 60.7538 23.3534 61.8817 24.3637 64.042C24.3958 64.1105 24.4352 64.1897 24.4677 64.2583L25.3218 65.9582C25.3464 65.998 25.8938 66.7535 25.9663 66.8508C27.1137 68.3902 29.0017 69.6498 30.8666 70.3807L33.3697 71.0341C40.2723 71.5714 49.3529 71.077 56.4917 71.077L146.377 70.9907L150.758 69.6636C152.18 68.8651 153.894 67.2198 154.762 65.9096C154.802 65.8498 154.85 65.7734 154.888 65.7116C154.925 65.6494 154.969 65.5707 155.004 65.5068C156.494 62.8173 156.619 60.1142 156.617 56.9176C156.612 49.3249 156.605 41.7304 156.619 34.1377C156.627 30.3215 155.698 27.4421 153.137 24.8845L152.377 24.1137C152.328 24.0734 152.257 24.0149 152.206 23.9767L150.779 23.191C150.716 23.1572 150.637 23.1137 150.574 23.0797C149.373 22.4291 148.016 21.6434 146.691 21.5137C142.396 21.0933 31.9917 18.2603 31.9375 18.2886V18.2886Z" fill="#F4F4F4"/>
<path fill-rule="evenodd" clip-rule="evenodd" d="M97.0686 207.877C93.7217 207.877 80.6421 208.418 78.1485 207.234C77.3404 206.851 76.9481 206.733 76.2051 206.31C75.5115 205.915 75.2655 205.56 74.7003 205.031L73.3816 203.505C71.8577 200.875 71.7285 200.059 71.7285 196.705L71.8093 184.198C72.0352 182.406 73.4792 180.023 74.7901 178.812L75.1213 178.509C75.1711 178.463 75.2387 178.4 75.2885 178.353C75.3383 178.307 75.407 178.244 75.4565 178.198L77.2865 176.947C77.9437 176.65 77.3733 176.933 77.9641 176.644C80.0614 175.617 78.5534 175.68 82.3984 175.68C84.9035 175.68 98.892 175.234 100.563 176.074C100.618 176.101 100.695 176.152 100.75 176.181C101.587 176.621 100.45 176.039 101.146 176.396C101.208 176.428 101.289 176.469 101.352 176.5C104.272 177.942 106.11 179.01 107.427 182.261C108.748 185.521 108.264 192.525 108.264 196.705C108.264 199.488 107.776 201.767 105.965 204.006C105.906 204.079 105.734 204.29 105.672 204.36C105.064 205.045 105.62 204.438 105.19 204.862C102.791 207.224 100.516 207.877 97.0686 207.877V207.877ZM23.6209 199.513C23.3018 197.437 23.3264 184.278 23.9782 182.967C24.0053 182.913 24.0551 182.836 24.0835 182.78L24.7074 181.474C24.7416 181.404 24.781 181.326 24.8158 181.258C24.8504 181.19 24.8918 181.112 24.9271 181.045L27.5532 178.054C29.3782 176.742 31.4527 176.008 34.0267 175.819C37.5496 175.56 51.6867 175.209 54.4602 176.904L55.562 177.645C57.1082 178.62 58.009 179.412 58.7994 180.97L60.0488 184.001C60.6188 187.175 60.7093 198.394 59.187 201.858L58.6466 202.933C58.1037 203.954 57.919 204.443 57.1034 205.119C54.4838 207.288 52.8546 207.809 49.6254 207.817C42.9397 207.832 31.8867 209.244 27.8432 205.955L25.6582 203.819C25.0019 203.076 23.681 199.904 23.6209 199.513V199.513ZM107.678 154.893C107.269 156.047 107.185 156.653 106.37 157.641C104.783 159.567 104.232 160.89 99.9294 162.09C98.4311 162.508 82.5907 163.328 77.7273 161.367L77.0732 161.07C76.2384 160.674 76.8037 161.012 76.272 160.645C76.2216 160.61 76.1489 160.554 76.1008 160.517L73.1479 157.225C72.8732 156.718 71.9689 154.902 71.8548 154.266C71.5816 152.744 71.6291 138.402 72.0025 137.266C72.0853 137.015 73.1445 134.918 73.3427 134.596L74.7195 132.872C75.0928 132.523 74.8394 132.721 75.4035 132.315C77.5248 130.789 79.3628 130.234 82.0839 130.21C87.7423 130.161 97.4583 129.23 102.448 131.127C103.765 131.627 105.089 133.109 106.017 134.106L108.132 138.458C108.429 139.944 108.279 148.562 108.267 151.151C108.256 153.399 108.237 153.319 107.678 154.893V154.893ZM23.6351 151.149C23.6351 147.579 23.2305 139.624 24.3175 136.816L25.2334 134.874C27.5421 131.346 30.5736 130.211 34.6425 130.211C38.3852 130.211 51.3932 129.729 54.0233 130.906C54.8269 131.265 56.6627 132.441 57.3253 133.162C59.6557 135.7 60.1735 138.11 60.1735 141.476C60.1735 145.141 60.6215 153.138 59.3896 155.907C58.7441 157.357 58.1688 158.304 56.9853 159.408L54.8765 160.806C54.8264 160.842 54.7581 160.905 54.7089 160.942C53.9886 161.481 54.4177 161.293 53.8097 161.534C53.459 161.672 53.1876 161.69 52.797 161.797C52.7103 161.82 52.6276 161.842 52.5427 161.866C49.7567 162.654 33.4471 162.423 32.2519 162.198L27.2463 159.804L24.9933 157.05C23.9462 155.547 23.6351 153.093 23.6351 151.149ZM127.484 84.6878C129.19 83.8477 141.308 84.3159 144.2 84.3109C148.615 84.3032 152.461 85.0088 154.916 88.965C156.782 91.9717 156.618 93.9855 156.617 97.7928C156.615 102.349 157.435 109.049 154.473 112.416L152.265 114.572C152.21 114.612 152.133 114.662 152.075 114.7C147.639 117.562 138.943 116.394 132.651 116.399C127.558 116.403 123.406 115.433 121.187 110.828C119.428 107.176 120.019 99.1544 120.072 94.6689C120.09 93.064 120.33 91.915 120.749 90.8859C122.305 87.0668 124.412 86.2005 127.484 84.6878V84.6878ZM97.3807 116.398C92.4287 116.398 81.175 117.079 77.8305 115.479L76.138 114.645C75.7515 114.409 74.9297 113.786 74.566 113.436C73.8096 112.71 72.8766 111.072 72.4622 110.241C71.3249 107.96 71.561 96.043 71.7994 92.7761C71.8274 92.3941 71.8569 92.0058 71.9456 91.6339L72.279 90.7281C73.1708 88.589 75.5602 86.133 77.6645 85.2771C77.74 85.2463 77.818 85.2124 77.8963 85.1834C77.977 85.1537 78.0557 85.1247 78.1392 85.0971L78.6559 84.9509C83.0584 83.7227 91.4605 84.3121 97.0686 84.3121C98.4902 84.3121 100.573 84.6977 101.926 85.1415C102.1 85.1989 103.513 85.8746 103.826 86.0954C103.876 86.1307 103.948 86.1881 103.996 86.225L105.885 88.0755C109.232 91.8624 108.263 99.4897 108.263 105.281C108.263 107.447 108.116 108.06 107.537 109.859L103.07 115.021C102.438 115.331 102.502 115.278 101.97 115.522C100.271 116.301 99.648 116.398 97.3807 116.398V116.398ZM49.6248 116.398H34.3303C31.7575 116.398 32.0246 116.56 30.6436 115.885C30.4437 115.787 30.3114 115.723 30.0121 115.589C27.9297 114.655 27.1919 114.049 25.6814 112.371L24.4524 110.122C23.4638 107.91 23.5852 109.35 23.5852 105.593C23.5852 101.348 23.0667 93.8821 24.3855 90.7022L25.3724 88.7882C25.387 88.7658 25.874 88.1286 25.8947 88.1053C28.2832 85.4068 30.8798 84.3121 34.6425 84.3121C39.7018 84.3121 50.9186 83.5854 54.5245 85.4188C54.6095 85.4621 54.8331 85.5973 54.9126 85.6435C55.5259 85.9999 55.3801 85.9018 55.8402 86.2376C56.1842 86.4887 56.2764 86.5779 56.5362 86.8029C56.6066 86.8639 56.8093 87.0466 56.878 87.1091L57.3711 87.5668C58.4038 88.5668 58.8826 89.5416 59.4407 90.8119C60.4516 93.1124 60.4603 104.75 60.1086 107.753C59.5648 112.395 54.9428 116.398 49.6248 116.398V116.398ZM32.6242 21.6589C36.2472 21.259 142.396 21.0933 146.691 21.5137C148.016 21.6434 149.373 22.4291 150.574 23.0797C150.637 23.1137 150.716 23.1572 150.779 23.191L152.206 23.9767C152.257 24.0149 152.328 24.0734 152.377 24.1137L153.137 24.8845C155.698 27.4421 156.627 30.3215 156.619 34.1377C156.605 41.7304 156.612 49.3249 156.617 56.9176C156.619 60.1142 156.494 62.8173 155.004 65.5068C154.969 65.5707 154.925 65.6494 154.888 65.7116C154.85 65.7734 154.802 65.8498 154.762 65.9096C153.894 67.2198 152.18 68.8651 150.758 69.6636L146.377 70.9907L56.4916 71.077C49.3529 71.077 40.2723 71.5714 33.3696 71.0341L30.8666 70.3807C29.0017 69.6498 27.1137 68.3902 25.9663 66.8508C25.8937 66.7535 25.3464 65.998 25.3217 65.9582L24.4676 64.2583C24.4352 64.1897 24.3958 64.1105 24.3637 64.042C23.3534 61.8817 23.4877 60.7538 23.4878 58.1668C23.488 54.8257 23.2604 31.8991 23.8282 29.8231C25.0212 25.4603 24.6399 22.5406 32.6242 21.6589V21.6589ZM16.1449 0.441294C12.7897 1.62594 9.63816 2.24869 6.94491 4.58789C2.80668 8.18157 0.962563 12.6302 0.210995 17.8942C-0.296932 21.4505 0.271054 211.636 0.276717 211.664C0.757744 214.07 1.07795 217.217 2.67784 219.28C7.72668 225.791 5.65131 224.086 12.9677 227.721C15.5894 229.023 21.5328 228.84 25.2786 228.84C36.3386 228.84 130.487 229.369 132.894 228.503L133.999 228.006C136.478 226.521 135.923 223.62 134.02 221.875C130.1 218.149 128.025 216.146 125.05 212.392C123.284 210.33 122.101 208.162 120.605 205.631L113.847 188.654C113.296 186.894 112.73 181.911 112.617 179.869C112.326 174.602 112.03 165.606 113.742 160.62L116.532 151.87C116.562 151.796 116.596 151.717 116.627 151.643C116.665 151.55 116.778 151.289 116.815 151.197C118.868 146.069 121.606 140.886 125.027 136.667C125.087 136.594 125.269 136.388 125.328 136.315C125.674 135.886 125.497 136.116 125.747 135.776L139.81 122.728L150.904 116.941C151.309 116.783 151.457 116.712 151.982 116.467L158.313 114.448C159.841 113.832 161.332 113.724 162.832 113.306C167.937 111.885 176.653 112.839 178.207 111.489C180.237 109.727 179.988 108.583 179.982 105.594L179.982 24.7792C179.982 20.9389 180.124 17.9959 179.243 14.1753C177.568 6.91389 171.38 3.2715 165.149 0.473136C164.855 0.384323 164.886 0.367343 164.445 0.299996C160.877 -0.245619 129.063 0.171437 123.912 0.171437C112.638 0.171437 18.4059 -0.356841 16.1449 0.441294V0.441294Z" fill="black"/>
<path fill-rule="evenodd" clip-rule="evenodd" d="M157.502 180.81C156.363 180.483 157.009 181.338 156.628 180.166L156.874 175.653L162.683 175.334C162.268 170.026 162.73 157.421 162.624 150.517C162.565 146.676 162.734 148.236 163.242 147.747C163.562 147.027 163.269 147.355 164.173 147.148L167.953 146.588C171.936 146.047 182.712 146.504 185.316 147.536L188.983 149.14C191.208 150.547 192.752 152.453 193.993 154.711C194.037 154.791 194.17 155.01 194.213 155.091C196.022 158.544 196.203 167.833 193.864 172.086L192.861 173.612C192.825 173.671 192.782 173.752 192.747 173.811L188.327 178.071C187.63 178.489 188.147 178.2 187.308 178.6L186.653 178.907C179.658 182.066 175.885 180.347 169.266 180.952L169.337 186.604L182.406 186.651L182.422 191.703L169.246 191.838L169.245 202.78L162.632 202.627L162.633 191.748L157.183 191.678L157.218 186.647L162.616 186.562L162.541 180.879L157.502 180.81V180.81ZM125.903 174.551C125.896 176.181 125.787 179.27 126.102 180.755C126.312 181.746 126.526 181.799 126.632 183.266C126.965 187.907 128.913 192.485 131 196.769L132.202 199.035C132.425 199.418 132.497 199.599 132.737 200.013C165.23 248.036 233.657 215.554 221.59 163.067C221.35 162.024 221.327 162.542 221.044 161.119C220.562 158.684 219.51 156.732 218.571 154.482L215.43 148.525L207.326 138.888C205.274 136.927 203.161 135.423 200.791 133.875L198.065 132.259C198.002 132.224 197.921 132.183 197.859 132.147L193.481 129.977C189.983 128.236 187.323 128.108 183.863 127.037L181.949 126.491C181.883 126.47 181.801 126.436 181.737 126.415C180.423 125.986 178.836 126.027 177.286 125.994C173.823 125.918 170.804 125.844 167.583 126.489C167.138 126.578 166.81 126.593 166.363 126.625C163.206 126.848 158.151 128.626 155.133 129.929C155.06 129.961 154.983 130 154.912 130.033L152.643 131.167C152.586 131.199 152.509 131.247 152.45 131.279L143.863 136.808C143.613 137.052 143.575 137.116 143.41 137.273C143.004 137.662 142.526 137.987 142.013 138.34L136.952 143.597C135.314 145.359 134.071 147.381 132.789 149.4C132.506 149.846 132.215 150.316 131.967 150.736L131.605 151.332C130.348 153.58 127.654 160.231 127.373 162.075C127.111 163.794 126.849 164.455 126.654 165.805C126.091 169.721 125.923 170.32 125.903 174.551V174.551Z" fill="white"/>
<path fill-rule="evenodd" clip-rule="evenodd" d="M23.6208 199.513C23.681 199.904 25.0018 203.076 25.6582 203.819L27.8431 205.955C31.8866 209.244 42.9396 207.832 49.6253 207.817C52.8545 207.809 54.4837 207.288 57.1033 205.119C57.9189 204.443 58.1036 203.954 58.6466 202.933L59.1869 201.858C60.7092 198.394 60.6187 187.175 60.0487 184.001L58.7993 180.97C58.009 179.412 57.1081 178.62 55.5619 177.645L54.4601 176.904C51.6866 175.209 37.5496 175.56 34.0266 175.819C31.4527 176.008 29.3781 176.742 27.5531 178.054L24.927 181.045C24.8917 181.112 24.8503 181.19 24.8157 181.258C24.7809 181.326 24.7415 181.404 24.7073 181.474L24.0834 182.78C24.055 182.836 24.0052 182.913 23.9782 182.967C23.3263 184.278 23.3018 197.437 23.6208 199.513V199.513Z" fill="#F4F4F4"/>
<path fill-rule="evenodd" clip-rule="evenodd" d="M107.678 154.893C108.237 153.319 108.256 153.399 108.267 151.151C108.279 148.562 108.429 139.944 108.132 138.458L106.017 134.106C105.089 133.109 103.765 131.627 102.448 131.127C97.4584 129.23 87.7424 130.161 82.0839 130.21C79.3628 130.234 77.5248 130.789 75.4036 132.315C74.8395 132.721 75.0928 132.523 74.7195 132.872L73.3427 134.596C73.1445 134.918 72.0853 137.015 72.0025 137.266C71.6291 138.402 71.5817 152.744 71.8548 154.266C71.9689 154.902 72.8732 156.718 73.1479 157.225L76.1009 160.517C76.1489 160.554 76.2217 160.61 76.272 160.645C76.8037 161.012 76.2384 160.674 77.0732 161.07L77.7273 161.367C82.5908 163.328 98.4311 162.508 99.9294 162.09C104.232 160.89 104.783 159.567 106.37 157.641C107.185 156.653 107.269 156.048 107.678 154.893V154.893Z" fill="#F3F3F3"/>
<path fill-rule="evenodd" clip-rule="evenodd" d="M97.0686 207.877C100.516 207.877 102.791 207.224 105.19 204.862C105.62 204.438 105.064 205.045 105.672 204.36C105.734 204.29 105.906 204.079 105.965 204.006C107.776 201.767 108.264 199.488 108.264 196.705C108.264 192.525 108.748 185.521 107.427 182.261C106.11 179.011 104.272 177.942 101.352 176.5C101.289 176.469 101.208 176.428 101.146 176.396C100.45 176.039 101.587 176.621 100.75 176.181C100.695 176.152 100.618 176.101 100.563 176.074C98.892 175.234 84.9035 175.68 82.3984 175.68C78.5534 175.68 80.0614 175.617 77.9641 176.644C77.3733 176.933 77.9436 176.65 77.2865 176.947L75.4565 178.198C75.4069 178.244 75.3383 178.307 75.2885 178.353C75.2387 178.4 75.1711 178.463 75.1213 178.509L74.7901 178.812C73.4792 180.023 72.0352 182.406 71.8093 184.198L71.7285 196.705C71.7285 200.059 71.8577 200.875 73.3816 203.505L74.7003 205.031C75.2655 205.56 75.5115 205.915 76.2051 206.31C76.9481 206.733 77.3404 206.851 78.1485 207.234C80.6421 208.418 93.7217 207.877 97.0686 207.877V207.877Z" fill="#F3F3F3"/>
<path fill-rule="evenodd" clip-rule="evenodd" d="M127.484 84.6878C124.412 86.2004 122.305 87.0667 120.749 90.8859C120.33 91.915 120.09 93.064 120.072 94.6689C120.019 99.1544 119.428 107.176 121.187 110.828C123.406 115.433 127.558 116.403 132.651 116.399C138.943 116.394 147.639 117.561 152.075 114.7C152.133 114.662 152.21 114.612 152.265 114.572L154.473 112.416C157.434 109.049 156.615 102.349 156.617 97.7928C156.618 93.9855 156.782 91.9717 154.916 88.965C152.461 85.0088 148.615 84.3032 144.2 84.3108C141.308 84.3159 129.19 83.8477 127.484 84.6878V84.6878Z" fill="#F4F4F4"/>
<path fill-rule="evenodd" clip-rule="evenodd" d="M49.6248 116.398C54.9428 116.398 59.5648 112.395 60.1086 107.753C60.4603 104.75 60.4516 93.1124 59.4407 90.8119C58.8826 89.5416 58.4038 88.5668 57.3711 87.5668L56.878 87.1091C56.8092 87.0466 56.6066 86.8639 56.5362 86.8029C56.2764 86.5779 56.1842 86.4887 55.8402 86.2376C55.3801 85.9018 55.5259 85.9999 54.9126 85.6435C54.8331 85.5973 54.6095 85.4621 54.5245 85.4188C50.9186 83.5854 39.7018 84.3121 34.6425 84.3121C30.8798 84.3121 28.2832 85.4068 25.8947 88.1053C25.874 88.1286 25.387 88.7657 25.3724 88.7882L24.3855 90.7022C23.0667 93.8821 23.5852 101.348 23.5852 105.593C23.5852 109.35 23.4638 107.91 24.4524 110.122L25.6814 112.371C27.1919 114.049 27.9297 114.655 30.0121 115.589C30.3114 115.723 30.4437 115.787 30.6436 115.885C32.0246 116.56 31.7575 116.398 34.3303 116.398H49.6248V116.398Z" fill="#F4F4F4"/>
<path fill-rule="evenodd" clip-rule="evenodd" d="M23.6351 151.149C23.6351 153.093 23.9461 155.547 24.9933 157.05L27.2463 159.804L32.2518 162.198C33.447 162.423 49.7566 162.654 52.5426 161.866C52.6276 161.842 52.7103 161.82 52.797 161.797C53.1875 161.69 53.459 161.672 53.8097 161.534C54.4177 161.293 53.9885 161.481 54.7088 160.942C54.758 160.905 54.8264 160.842 54.8765 160.806L56.9853 159.408C58.1688 158.304 58.7441 157.357 59.3896 155.907C60.6215 153.138 60.1735 145.141 60.1735 141.476C60.1735 138.11 59.6556 135.7 57.3253 133.162C56.6627 132.441 54.8268 131.265 54.0232 130.906C51.3932 129.729 38.3852 130.211 34.6425 130.211C30.5736 130.211 27.5421 131.346 25.2334 134.874L24.3174 136.816C23.2304 139.624 23.6351 147.579 23.6351 151.149Z" fill="#F4F4F4"/>
<path fill-rule="evenodd" clip-rule="evenodd" d="M97.3807 116.398C99.6481 116.398 100.271 116.301 101.97 115.522C102.502 115.278 102.438 115.331 103.07 115.021L107.537 109.859C108.116 108.06 108.263 107.447 108.263 105.281C108.263 99.4897 109.232 91.8624 105.885 88.0755L103.996 86.225C103.948 86.1881 103.876 86.1307 103.826 86.0954C103.513 85.8746 102.1 85.1989 101.926 85.1415C100.573 84.6977 98.4903 84.3121 97.0687 84.3121C91.4606 84.3121 83.0585 83.7227 78.656 84.9509L78.1392 85.0971C78.0558 85.1247 77.9771 85.1537 77.8964 85.1834C77.818 85.2124 77.74 85.2463 77.6645 85.2771C75.5603 86.133 73.1708 88.589 72.2791 90.7281L71.9457 91.6339C71.8569 92.0058 71.8274 92.3941 71.7995 92.7761C71.561 96.043 71.3249 107.96 72.4622 110.241C72.8767 111.072 73.8096 112.71 74.566 113.436C74.9297 113.786 75.7515 114.409 76.138 114.645L77.8305 115.479C81.1751 117.079 92.4288 116.398 97.3807 116.398V116.398Z" fill="#F4F4F4"/>
<path fill-rule="evenodd" clip-rule="evenodd" d="M169.728 175.632C173.462 175.777 179.867 176.009 183.18 174.479C184.253 173.983 184.183 173.973 185.011 173.245C185.768 172.58 186.14 172.363 186.633 171.73C188.243 169.665 188.835 167.442 188.886 164.567C188.959 160.529 188.954 161.962 188.228 158.919C187.748 156.903 185.612 154.673 183.938 153.539C181.361 151.794 175.05 152.151 171.653 152.27C170.207 152.321 169.838 152.322 169.713 153.916L169.728 175.632V175.632Z" fill="white"/>
<path fill-rule="evenodd" clip-rule="evenodd" d="M129.363 42.7605C130.152 49.138 127.926 56.0526 131.774 57.1352C132.859 57.4402 134.65 57.3355 135.379 56.8301L136.454 55.7417C137.016 55.0302 136.894 55.3987 137.014 54.1393C137.205 52.1347 137.292 38.4921 136.716 37.2429L135.581 35.8722C134.344 34.8371 132.609 35.1562 130.461 35.1682C128.778 35.1777 127.136 34.9066 125.696 37.451C125.182 38.3608 125.151 39.4873 125.596 40.3024L125.852 40.6548C127.371 42.6912 127.364 42.5687 129.363 42.7605Z" fill="black"/>
<path fill-rule="evenodd" clip-rule="evenodd" d="M171.621 152.271C170.202 152.321 169.837 152.334 169.713 153.916L169.728 175.632C173.462 175.777 179.867 176.009 183.181 174.479C184.106 174.051 184.181 173.985 184.716 173.507C184.801 173.431 184.898 173.345 185.011 173.245C185.23 173.052 185.417 172.897 185.584 172.759C185.993 172.419 186.282 172.179 186.633 171.73C188.243 169.665 188.835 167.442 188.887 164.567C188.926 162.38 188.942 161.798 188.834 161.24C188.742 160.768 188.561 160.314 188.228 158.919C187.748 156.903 185.612 154.673 183.938 153.539C181.52 151.901 175.812 152.115 172.311 152.246C172.082 152.255 171.862 152.263 171.653 152.27L171.621 152.271ZM162.683 175.334C162.428 172.08 162.503 166.086 162.575 160.343C162.621 156.716 162.665 153.189 162.624 150.517C162.582 147.769 162.657 147.786 162.888 147.838C162.98 147.859 163.097 147.886 163.242 147.747C163.389 147.417 163.407 147.307 163.47 147.265C163.545 147.215 163.683 147.26 164.174 147.148L167.953 146.588C171.936 146.047 182.712 146.504 185.316 147.536L188.983 149.14C191.208 150.547 192.752 152.453 193.993 154.711C194.012 154.746 194.048 154.807 194.087 154.872C194.136 154.955 194.189 155.045 194.213 155.091C196.022 158.544 196.204 167.833 193.864 172.086L192.862 173.612C192.842 173.645 192.819 173.684 192.798 173.723C192.78 173.754 192.763 173.785 192.747 173.811L188.327 178.071C187.993 178.271 187.938 178.309 187.879 178.338C187.814 178.37 187.745 178.392 187.308 178.6L186.653 178.907C181.938 181.036 178.687 180.949 175.041 180.852C173.279 180.804 171.423 180.755 169.266 180.952L169.337 186.604L182.406 186.651L182.422 191.703L169.246 191.838L169.245 202.78L162.632 202.627L162.633 191.748L157.183 191.678L157.218 186.647L162.616 186.562L162.541 180.879L157.502 180.81L157.502 180.81C156.866 180.628 156.787 180.814 156.774 180.809C156.764 180.806 156.796 180.683 156.628 180.166L156.874 175.653L162.683 175.334Z" fill="#FEBF2B"/>
</svg>
