<svg id="Capa_1" data-name="Capa 1" xmlns="http://www.w3.org/2000/svg" width="106.66" height="100" viewBox="0 0 106.66 100"><defs><style>.cls-1{fill:#ffc22d;}</style></defs><title>icon-oil</title><path class="cls-1" d="M307.85,287.59l-8.19-17.3a3.25,3.25,0,0,0-5.65,0l-8.15,17.22a12.5,12.5,0,1,0,22,.08Z" transform="translate(-202.67 -206)"/><path d="M300.74,259.71a3.14,3.14,0,0,0-2.65-2.65l-31.69-4.5L263,240a9.43,9.43,0,0,0-4.37-5.69l-11.29-6.52,3.13-5.41c4.44,1.71,9.8,8,12.39,3.55a3.12,3.12,0,0,0-1.15-4.27l-21.65-12.5a3.12,3.12,0,1,0-3.12,5.41l8.12,4.69L242,224.64l-13.09-7.56-7-7.92a9.38,9.38,0,0,0-15.14,1.53l-2.78,4.83a9.37,9.37,0,0,0,1.1,10.91l8.63,9.73-3.56,6.17,59,34.06L298.94,263A3.13,3.13,0,0,0,300.74,259.71ZM217,230.45l-7.24-8.17a3.12,3.12,0,0,1-.37-3.64l2.79-4.82a3.12,3.12,0,0,1,5-.52l5.86,6.62Z" transform="translate(-202.67 -206)"/><path d="M207,247.74l-1.56,2.71a9.37,9.37,0,0,0,3.43,12.8l35.1,20.27a9.4,9.4,0,0,0,8.57.41l9.59-4.36Z" transform="translate(-202.67 -206)"/></svg>