<svg id="Слой_1" data-name="Слой 1" xmlns="http://www.w3.org/2000/svg" width="149.03" height="100" viewBox="0 0 149.03 100"><defs><style>.cls-1{fill:#ffc22d;}</style></defs><title>icon-4</title><path d="M315.88,186.88l-8.83,21.42a2.13,2.13,0,0,1-1.77,1.3l-45.13,4a2.08,2.08,0,0,0-1.91,2.15l.91,35.42a2.11,2.11,0,0,0,1.68,2L314,264.31a16.75,16.75,0,0,0,3.93.39V187.27C317.9,184.34,317,184.15,315.88,186.88Zm-6.2,66-19.93-3.21V239.25h19.93Z" transform="translate(-245.48 -164.71)"/><path d="M379.83,213.54l-45.14-4a2.11,2.11,0,0,1-1.77-1.3l-8.82-21.43c-1.12-2.7-2-2.51-2,.4v77.43a20.1,20.1,0,0,0,3.94-.4l53.12-11.17a2.11,2.11,0,0,0,1.67-2l.91-35.42A2.06,2.06,0,0,0,379.83,213.54Zm-18.56,18.93-2.5.07,0,15.7a1.7,1.7,0,0,1-1.59,1.47l-4.07.58c-.93.14-1.7-.35-1.7-1.07l.05-16.47-2.85.07c-1.39.05-2.25-1.07-1.56-2l6.76-8.83a1.88,1.88,0,0,1,2.84.12l6,8.48C363.13,231.4,362.41,232.43,361.27,232.47Z" transform="translate(-245.48 -164.71)"/><path class="cls-1" d="M259.85,176.61l-14.16,30.27a2.1,2.1,0,0,0,2.12,3L301,204.48a2.13,2.13,0,0,0,1.7-1.23l17.09-38.54-58.43,10.73A2.06,2.06,0,0,0,259.85,176.61Z" transform="translate(-245.48 -164.71)"/><path class="cls-1" d="M394.31,206.88l-14.16-30.27a2.17,2.17,0,0,0-1.51-1.19l-58.43-10.71,17.12,38.54a2,2,0,0,0,1.7,1.23l53.16,5.38A2.1,2.1,0,0,0,394.31,206.88Z" transform="translate(-245.48 -164.71)"/></svg>