<svg id="Capa_1" data-name="Capa 1" xmlns="http://www.w3.org/2000/svg" width="460.01" height="512" viewBox="0 0 460.01 512"><defs><style>.cls-1{fill:#ffc22d;}</style></defs><title>icon-smesi</title><path d="M447.38,16.12h0a55,55,0,0,0-77.77,0L300.73,85a55.08,55.08,0,0,0-9.12,65.68L252.9,189.39a15,15,0,0,0-4.39,10.6v59.79l-62.39-62.39a15,15,0,0,0-24.59,5.19l-7.34,18.94L293.12,360.45A12.19,12.19,0,0,1,289,380.4L57.41,471.25l-7.87,20.3A15,15,0,0,0,69,510.93l288-113a15,15,0,0,0,5.13-24.57l-83.6-83.59V206.21l34.31-34.31a55.06,55.06,0,0,0,65.69-9.13L447.38,93.9A55,55,0,0,0,447.38,16.12Z" transform="translate(-3.5 0)"/><path class="cls-1" d="M115.24,211.57a12.19,12.19,0,0,0-20,4.21L4.35,450.4a12.18,12.18,0,0,0,15.8,15.73L254,374.4a12.19,12.19,0,0,0,4.17-19.95Z" transform="translate(-3.5 0)"/></svg>