<svg id="Слой_1" data-name="Слой 1" xmlns="http://www.w3.org/2000/svg" width="104.18" height="100" viewBox="0 0 104.18 100"><defs><style>.cls-1{fill:#ffc22c;}</style></defs><title>icon-2</title><path class="cls-1" d="M348.46,286.39A4.65,4.65,0,0,0,343,290l-2.42,11.91a.77.77,0,0,1-.17.19c-.28.31-.59.52-1,.31a.86.86,0,0,1-.45-1.06,2.33,2.33,0,0,0,0-.28c1.32-6.58,7.69-37.95,9.55-47.06a4.55,4.55,0,0,0-.47-3.27,4.47,4.47,0,0,0-4.2-2.46,4.57,4.57,0,0,0-4.48,3.87c-1,4.77-4.69,23-5.57,27.34-.14.65-.49.94-1,.84s-.74-.52-.62-1.17c.09-.45,6-29.48,7.24-35.78a4.66,4.66,0,0,0-9.13-1.86c-.73,3.6-6.9,34-7.09,35a.88.88,0,0,1-.71.81c-.64.12-1.09-.41-.94-1.14.49-2.45,4.92-24.17,5.75-28.44a4.47,4.47,0,0,0-2.4-4.86,4.64,4.64,0,0,0-6.77,3.17c-.21,1.05-.54,2.66-.93,4.66a7.15,7.15,0,0,1,4.54,5.26,7.37,7.37,0,0,1-.64,5.17c-2.38,4.71-8.35,16.48-13.51,26.69h.28a7.35,7.35,0,0,1,3.3.78,7.42,7.42,0,0,1,3.25,9.91l-.26.52-.06.11-1.51,3-1.51,3c-.43.86-.88,1.72-1.3,2.54-.85,1.63-1.72,3.3-2.48,5a20.2,20.2,0,0,1-1.22,2.27,17.18,17.18,0,0,1-9.08,7.36c-.36.14-.71.26-1.07.38a25.83,25.83,0,0,0,1.18,3.32,1.91,1.91,0,0,1,.12,1.11l-.73,3.59a1.84,1.84,0,0,0,1.44,2.18s8.79.5,11.69,1.09c3.21.64,12.72,3.85,12.72,3.85a1.86,1.86,0,0,0,2.19-1.44l1.22-5.95a1.47,1.47,0,0,1,.08-.28,2.11,2.11,0,0,0,.12-.38,4.82,4.82,0,0,1,1.38-2.28c4.41-4.15,10.38-6.23,15.27-9.81a14.29,14.29,0,0,0,5.77-8,19.61,19.61,0,0,0,.5-2.22c.47-2.8,1.13-5.56,1.69-8.33,1.12-5.56.2-1,1.33-6.6.05-.23.09-.45.14-.68a4.67,4.67,0,0,0-3.61-5.42Z" transform="translate(-247.97 -237.84)"/><path d="M272,334a1.85,1.85,0,0,0,1.65-1l2.74-5.42a2,2,0,0,1,.16-.24l.23-.33a4.66,4.66,0,0,1,1.92-1.84c5.11-2.71,11.12-3.23,16.57-5.14.26-.09.5-.17.76-.28a14.22,14.22,0,0,0,7.69-6.2,18,18,0,0,0,1.06-2c1.2-2.57,2.55-5.05,3.84-7.59,2.55-5.07.47-.94,3-6l.31-.62a4.64,4.64,0,0,0-2-6.18,4.58,4.58,0,0,0-2.05-.49,4.67,4.67,0,0,0-4.15,2.52L298.28,304a1.28,1.28,0,0,1-.21.14,1,1,0,0,1-.6.23.71.71,0,0,1-.47-.19.86.86,0,0,1-.16-1.15l.14-.26c1.84-3.65,7.94-15.68,13.35-26.41l2.87-5.64,5.47-10.8a4.58,4.58,0,0,0,.41-3.27,4.4,4.4,0,0,0-2.41-3.12,4.69,4.69,0,0,0-1-.37,5.22,5.22,0,0,0-1.22-.15,3.88,3.88,0,0,0-.9.1,4.84,4.84,0,0,0-3.21,2.61c-1.46,2.86-5.63,11.09-8.85,17.46-1.67,3.28-3.08,6.08-3.76,7.42a1,1,0,0,1-.81.64.9.9,0,0,1-.38-.1c-.47-.23-.58-.7-.3-1.29.09-.19,3.06-6,6.48-12.83,2.78-5.49,5.87-11.6,8-15.77.87-1.7,1.56-3.09,2-4a4.63,4.63,0,0,0-2.06-6.2,4.89,4.89,0,0,0-2.14-.5,4.64,4.64,0,0,0-4.12,2.5c-1.64,3.26-15.64,30.92-16.11,31.84a.9.9,0,0,1-.83.59h-.09c-.64-.05-.94-.67-.61-1.35,1.15-2.22,11.17-22,13.11-25.89a4.67,4.67,0,0,0-4.22-6.61,4.68,4.68,0,0,0-4.18,2.58c-2.47,4.85-12.1,23.93-14.48,28.62a1,1,0,0,1-.82.62.91.91,0,0,1-.4-.1c-.46-.25-.57-.68-.29-1.25,1-2.07,7.4-14.55,9.48-18.77a4.67,4.67,0,0,0-4.22-6.65,4.64,4.64,0,0,0-4.13,2.53c-.71,1.34-22.19,44.05-22.49,44.76-5.21,10.28-4.51,19-4.11,21.71a1.86,1.86,0,0,1-.18,1.11L248.18,320a1.84,1.84,0,0,0,.81,2.48s9.1,2.57,11.79,3.93c2.87,1.44,10.42,7.31,10.42,7.31a1.82,1.82,0,0,0,.83.21Z" transform="translate(-247.97 -237.84)"/></svg>