<svg id="Слой_1" data-name="Слой 1" xmlns="http://www.w3.org/2000/svg" width="100.05" height="100" viewBox="0 0 100.05 100"><defs><style>.cls-1{fill:#010101;}.cls-2{fill:#fdbe2b;}</style></defs><title>icon-10</title><path class="cls-1" d="M169.47,212v-3.36c0-20.85,18.37-39.23,39.23-39.23,12.75,0,21.45,3.5,30,12.08,11.85,11.82,15.16,30.79,7.8,45.83-15.09,30.7-58.06,30.56-73.07.31a38.31,38.31,0,0,1-4-15.63Zm-9.58-5.27c0,9.82.31,15.85,4.76,24.88a43.87,43.87,0,0,0,4.25,7.25,37.06,37.06,0,0,0,2.57,3.17c8.94,10.25,21.28,17.8,35.77,17.8,13.13,0,21.19-1.74,31.58-9.08a37,37,0,0,0,9.22-8.46l4.86-6.63c.91-1.5,1.48-2.55,2.2-4,8.24-16.81,5.91-39.73-6.58-53.72-3-3.34-1.91-2.79-5.93-6-11.78-9.53-19.79-12.06-35.8-12.06-6.44,0-14.32,2.65-18.66,4.77a47.91,47.91,0,0,0-16.42,12.79c-6.46,7.7-11.82,18.52-11.82,29.34Z" transform="translate(-159.89 -159.8)"/><path class="cls-1" d="M208.22,244.5c5.84,0,10.46-.19,15.8-2.86a33.33,33.33,0,0,0,8.75-5.62c5.22-5,9-9.66,10.86-17.83H225c0,13.8-14.51,20.23-25.16,11.77-3.48-2.74-5-7-5-11.77H176.17c3.33,14.37,17.13,26.31,32.05,26.31Z" transform="translate(-159.89 -159.8)"/><path class="cls-2" d="M209.65,228.22c11.2,0,14.13-15.85,2.24-19-.17,0-.62-.14-.76-.19-2.65-1-11.8-15.11-14.87-17.19.26,3.17,4.93,19.67,5.07,21.24.17,1.95-2.69,5.17,0,10.06a10.11,10.11,0,0,0,8.32,5.07Z" transform="translate(-159.89 -159.8)"/><path class="cls-1" d="M179,194.26c2.48,1.31,4.89,3.17,7.18,3.36.4-1.79.78-1.33,1-3.36-2.64-.62-4.05-2.74-6.7-3.36a13.45,13.45,0,0,0-1.43,3.36Z" transform="translate(-159.89 -159.8)"/><path class="cls-1" d="M191,180.37c.62,2.64,2.74,4,3.36,6.69,2-.16,1.57-.54,3.36-.95-.17-2-2.05-4.72-3.36-7.17a12.61,12.61,0,0,0-3.36,1.43Z" transform="translate(-159.89 -159.8)"/><path class="cls-1" d="M232.62,194.26c.17,2,.55,1.57,1,3.36,1.93-.17,2.38-.69,3.74-1.52s2.24-1.2,3.43-1.84a12.75,12.75,0,0,0-1.43-3.36c-2.29.62-4.34,2.79-6.7,3.36Z" transform="translate(-159.89 -159.8)"/><path class="cls-1" d="M222.09,185.63a5.47,5.47,0,0,0,3.36,1.43c.55-2.36,2.74-4.4,3.36-6.69a12.61,12.61,0,0,0-3.36-1.43Z" transform="translate(-159.89 -159.8)"/><rect class="cls-1" x="48.33" y="15.32" width="3.36" height="7.65"/><rect class="cls-1" x="15.32" y="48.33" width="7.65" height="3.36"/><rect class="cls-1" x="77.05" y="48.33" width="7.65" height="3.36"/></svg>