<svg id="Слой_1" data-name="Слой 1" xmlns="http://www.w3.org/2000/svg" width="100.46" height="100" viewBox="0 0 100.46 100"><defs><style>.cls-1{fill:#ffc22d;}</style></defs><title>icon-1</title><path d="M177.5,207.52c-.43,0-.84,0-1.28,0a14.75,14.75,0,0,1-3.41-.44L147.09,232.9a3.24,3.24,0,0,0,0,4.57l6.67,6.66a3.22,3.22,0,0,0,4.56,0l30.92-30.92L183.5,207Z" transform="translate(-145.69 -145.08)"/><path d="M245.24,166.29a3.06,3.06,0,0,0-4.35,0L224.22,183a4,4,0,0,1-5.72-5.69l16.59-16.59a3.21,3.21,0,0,0-4.54-4.54L214,172.72a4,4,0,0,1-5.72-5.69l16.67-16.67a3.1,3.1,0,0,0-4.38-4.38l-18.77,18.77a17.36,17.36,0,0,0-4.49,16.61l12.56,12.57a17.36,17.36,0,0,0,16.62-4.49l18.77-18.77a3.08,3.08,0,0,0,0-4.38Z" transform="translate(-145.69 -145.08)"/><path class="cls-1" d="M154.12,147.65a3.39,3.39,0,0,0-2.41-1,3.66,3.66,0,0,0-.57,0,3.34,3.34,0,0,0-2.48,1.87,29.64,29.64,0,0,0,5.71,33.9l15.95,15.94a8.34,8.34,0,0,0,5.92,2.44,5.86,5.86,0,0,0,.72,0l9.26-.79,40.41,43.59a3.43,3.43,0,0,0,2.44,1.1h.05a3.43,3.43,0,0,0,2.41-1l6.92-6.92a3.4,3.4,0,0,0,0-4.82Z" transform="translate(-145.69 -145.08)"/></svg>