<svg id="Слой_1" data-name="Слой 1" xmlns="http://www.w3.org/2000/svg" width="113.32" height="100" viewBox="0 0 113.32 100"><defs><style>.cls-1{fill:#ffc22d;}</style></defs><title>icon-12</title><path d="M152.56,170.68H168c-3-6-8.24-13.62-17-21.78a9.55,9.55,0,0,0-6.34-2.5,11.17,11.17,0,0,0-7.05,2.8c-7,5.77-2.23,12.91-.6,15a49.55,49.55,0,0,1,6.43,11.07,11.48,11.48,0,0,1,9.16-4.56Z" transform="translate(-133.84 -118.05)"/><path d="M243.43,149.2a11.17,11.17,0,0,0-7.05-2.8,9.61,9.61,0,0,0-6.34,2.5c-8.81,8.16-14,15.8-17,21.78h15.42a11.54,11.54,0,0,1,9.16,4.53A49.55,49.55,0,0,1,244,164.14c1.63-2,6.45-9.17-.6-14.94Z" transform="translate(-133.84 -118.05)"/><path class="cls-1" d="M235.22,197.58V182.26a6.84,6.84,0,0,0-6.81-6.82H152.56a6.84,6.84,0,0,0-6.81,6.82v15.32a6.83,6.83,0,0,0,6.81,6.81h75.88a6.81,6.81,0,0,0,6.78-6.81Z" transform="translate(-133.84 -118.05)"/><path d="M219.87,209.15,221,218h5.74l1.13-8.9h-8Z" transform="translate(-133.84 -118.05)"/><path d="M153.13,209.15l1.13,8.9H160l1.13-8.9Z" transform="translate(-133.84 -118.05)"/><path d="M207.7,170.68c3.27-7.08,9-15.91,19.1-25.26a14.23,14.23,0,0,1,4.85-2.94c-6.37-14.28-22.44-24.43-41.15-24.43s-34.78,10.15-41.21,24.43a13.68,13.68,0,0,1,4.85,2.94c10.12,9.35,15.86,18.21,19.1,25.26Z" transform="translate(-133.84 -118.05)"/></svg>