<svg id="Слой_1" data-name="Слой 1" xmlns="http://www.w3.org/2000/svg" width="132.35" height="100" viewBox="0 0 132.35 100"><defs><style>.cls-1{fill:#ffc22c;}</style></defs><title>icon-7</title><path d="M15.71,54.78l1.92.61.92,4.86,3-.1C22.7,48,24.73,57.41,27.67,40.38l1.12-5.68c0-.11.3-.21.3-.51.71-5.38,34.49-4,45.14,2.53-.71,13.7-4,23.63-6.09,36h34.18c-2-13.19-4.67-25.86-4.67-39.86h7.2l-.1-17.24h-7.1c-2.23-8-10.54-8.52-19.77-8V-.7H75.65c0,2.84-.11,5.68-.11,8.52-7,2.13-21.7,3.65-29.91,5C33.76,14.61,25.14,18.37,21.79,6.4l-8.31-.1c0,9.43-1,41.88,2.23,48.48Z" transform="translate(0.93 0.7)"/><polygon class="cls-1" points="0 100 118.56 99.8 118.56 75.96 0 76.17 0 100"/><path d="M106.58,7.21c0,8.62-1.42,36.61,1.22,41l3.14.11c1.42-2.24,1-1.83,1.42-5.18l3.75-.1.1-5.27,15.22.2V33.48l-15.22-.1V31.75l-4-.1V6.2c-.1-3.76-.61-4-4.36-3.65-1.12,1.92-1.22,1.82-1.22,4.66Z" transform="translate(0.93 0.7)"/><path d="M18.85,61.47l1.22,12.37c.61-4,.81-8.31,1.32-12.37Z" transform="translate(0.93 0.7)"/></svg>