<svg id="Слой_1" data-name="Слой 1" xmlns="http://www.w3.org/2000/svg" width="99.95" height="100" viewBox="0 0 99.95 100"><defs><style>.cls-1{fill:#ffc22c;}</style></defs><title>icon-3</title><path d="M75.37,131.92c-1.52,2.13-6.47,6.85-8.51,8.7-1.43,1.34-8.14,7.86-8.79,9,1.21,1.39,7.68,8,8.75,8.61l17.29-17.26c1.9.33,6.48,4.3,15.68,4.3,12.68,0,18.27-6.19,24.84-12.81,1.62-1.62,5.23-4.85,6.29-6.43L90.4,85.4C89.15,86,83,92.47,81.57,94c-2.78,2.78-5.55,5.27-7.77,10a29.78,29.78,0,0,0-2.68,14.8c.46,6.52,2.36,8.6,4.25,13.22Z" transform="translate(-58.07 -58.2)"/><path d="M97.34,67.22c-1.66.46-6.61,5.69-7.91,7.12-3.61,4,1.94,7.91,3.66,9.48l7.53,7.68c1.39,1.43,2.55,2.41,3.8,3.79s2.4,2.22,3.79,3.8l11.24,11.28c.65.65,1.53,1.39,1.94,1.9l15.36,15.17c3.6,1.76,5.82-1.34,7.49-3,6.11-6.25,7.31-6.2,0-13.46-13.55-13.56-28.17-28.54-41.81-41.82-1-1-2.64-2.54-5.09-1.89Z" transform="translate(-58.07 -58.2)"/><path class="cls-1" d="M134.43,97c2.09,1.85,5.69,6.06,7.31,7,1.53-1,14.43-14,14.94-14.66,4.35-5.74-2.91-11.24-7.31-7.68L135.68,95.39c-1,.92-.78.46-1.25,1.61Z" transform="translate(-58.07 -58.2)"/><path class="cls-1" d="M112.19,74.85c1.8,1.34,5.78,6.15,7.4,6.85,1.62-1.3,3.42-3.29,5-4.81L129.39,72c1.62-1.57,3.33-3.19,4.86-4.86a5.29,5.29,0,0,0-.05-7.4c-4.39-4.53-9.25,1.85-12.21,4.81-1.85,1.76-9.2,8.65-9.8,10.27Z" transform="translate(-58.07 -58.2)"/></svg>