<svg id="Слой_1" data-name="Слой 1" xmlns="http://www.w3.org/2000/svg" width="84.16" height="100" viewBox="0 0 84.16 100"><defs><style>.cls-1{fill:#ffc22d;}</style></defs><title>icon-6</title><path class="cls-1" d="M169.39,150.05a18.32,18.32,0,0,0-18.3,18.3v50a4.64,4.64,0,0,0,4.63,4.62h27.34a4.63,4.63,0,0,0,4.62-4.62v-50a18.32,18.32,0,0,0-18.29-18.3Z" transform="translate(-103.52 -123)"/><path d="M139.56,190.92l-1.07-29.54a7.18,7.18,0,0,0-5.29-6.59l0-13.81a9.68,9.68,0,0,0-3.06-6.59l-12.58-10.47a3.41,3.41,0,0,0-2.16-.92,2.23,2.23,0,0,0-1.85,1,3.42,3.42,0,0,0-.52,2v28.73a7.16,7.16,0,0,0-5.32,6.59l-1,29.54a4.62,4.62,0,0,0-3.18,4.39v23.07a4.63,4.63,0,0,0,4.62,4.62h30a4.64,4.64,0,0,0,4.63-4.62V195.31a4.62,4.62,0,0,0-3.18-4.39Zm-27.25-.23.92-25.75a3,3,0,0,1,3-2.89H130a3,3,0,0,1,3,2.89l.92,25.75Z" transform="translate(-103.52 -123)"/></svg>