<svg id="Слой_1" data-name="Слой 1" xmlns="http://www.w3.org/2000/svg" width="100.06" height="100" viewBox="0 0 100.06 100"><defs><style>.cls-1{fill:#ffc22c;}</style></defs><title>icon-5</title><path d="M142.52,167.94l0,2.24a22.91,22.91,0,0,1,.73,2.21c2.11,4.73,7.95,6.41,12.79,2.08,2.13.7,4.05,3.11,4.91,5.37,1.09,2.89.7,5.88,1.11,9,2.19,16.6,15.7,26.5,31.39,29.59a47.36,47.36,0,0,0,33.11-6,35.69,35.69,0,0,0,5.66-4.47c.86-.91,1.59-1.53,2.47-2.6l2.18-2.86A29.85,29.85,0,0,0,241.54,192c.29-1.22.55-3.82.91-4.36.05-.21.08-.39.11-.6v-.86c0-.47-.13-.93-.21-1.43H169.49c-.36-2.31-.23-3.76-.91-6.1a17.51,17.51,0,0,0-9.72-11.33c-1.48-.63-1.25-.24-2-1.59a7.54,7.54,0,0,0-11.66-2.05,7.9,7.9,0,0,0-1.59,1.92,10.31,10.31,0,0,0-.75,1.8c-.29.59-.13.33-.39.59Z" transform="translate(-142.52 -142.43)"/><path class="cls-1" d="M242.45,180.86a5.33,5.33,0,0,0,.13-1v-.42a4,4,0,0,0-.13-.73c-.44-.8-.39-2.73-.54-3.87-1.07-8-4.5-13.9-9.38-19.82-.68-.84-1.51-1.41-2.16-2.14-2.57-3-8.84-6.65-12.6-8.26-1.07-.47-5.49-1.84-6-2.23h-.28L196.3,180.86Z" transform="translate(-142.52 -142.43)"/><path d="M232.34,229.6a7.27,7.27,0,1,1-14.44-1.66c1.09-9.28,15.46-7.9,14.44,1.66Zm-8.67,12.74a15.38,15.38,0,0,0,3.11,0c.63-.44,2.24-.36,4.91-1.79,11.8-6.42,7.46-25.23-6.62-25.13A13.4,13.4,0,0,0,212.73,234c2.85,7.38,10.39,8,10.94,8.37Z" transform="translate(-142.52 -142.43)"/><path d="M177.54,221.78a7.24,7.24,0,0,1,8.63,5.41c2.18,9.48-12,12.55-14.16,3.27a7.17,7.17,0,0,1,5.53-8.68Zm.11,20.56a18.06,18.06,0,0,0,3.12,0l2.62-.8a13.42,13.42,0,0,0-4.31-26.14c-14.11.05-18.37,18.89-6.24,25.3,2.5,1.36,4,1.12,4.81,1.62Z" transform="translate(-142.52 -142.43)"/></svg>