<svg id="Layer_1" data-name="Layer 1" xmlns="http://www.w3.org/2000/svg" width="123.77" height="100" viewBox="0 0 123.77 100"><defs><style>.cls-1{fill:#fff;}.cls-2{fill:#ffc22c;}</style></defs><title>icon-80</title><path d="M123.07,36.75c4.71,1.39,9.45,2.69,14.11,4.22,2.89,1,4.16,3.05,4,6.27-.2,4.75-.07,9.52.07,14.27a3.51,3.51,0,0,1-2,3.47c-5.95,3.69-12.59,4.86-19.39,5.58-2.91.3-5.8.81-8.84,1.25.3.76.33,1,.44,1.08,4.37,1.78,4.37,1.78,3.54,6.62-.3,1.72-.53,3.45-.9,5.16-.54,2.46-1.25,4.77-4.56,4.64-.53,0-1.12.84-1.62,1.35-.17.18-.12.56-.19.84-2.29,9.44-1.93,10,7.45,12.46a28.09,28.09,0,0,1,6.5,2.38c1,.53,1.3,2.15,1.92,3.28-1,.4-2,1.15-3,1.16q-22.42.1-44.86,0a10.37,10.37,0,0,1-2.9-.88c.44-1,.82-2.07,1.34-3.06a2.21,2.21,0,0,1,1.08-.94c4.83-1.94,6.12-6,6.73-10.66C83,88.72,84,82.21,84.92,75.67c.55-4.14.27-4.33-4-4.5-3.58-.15-7.18-.32-10.75-.66-5-.47-6.08-1.78-6.07-6.69,0-6.41.13-12.82,0-19.23,0-3.09.64-5.74,3-7.84Zm-51.5,7.16,0,1.89c17.15.4,34.29.57,51.43-.38V44C105.83,43.63,88.7,42.9,71.57,43.91Z" transform="translate(-64.08 -36.75)"/><path d="M144.85,53.75c.13-2.23.21-4.56.39-6.88.28-3.55,1-4.21,4.47-4.28,1.75,0,3.5.12,5.24,0a6.89,6.89,0,0,1,7.29,4.2c.86,1.8,2.17,2.21,4,2.24,5.82.08,11.64.18,17.46.43,4.16.19,4.05.38,4.18,4.69.07,2.83-.9,3.63-3.67,3.56-5.91-.14-11.84.16-17.75.11-2.08,0-3.58.45-4.34,2.49-1.32,3.5-3.8,4.74-7.48,4.16a42.48,42.48,0,0,0-6.39-.26c-2.1,0-2.92-1.1-3-3.08C145.16,58.69,145,56.27,144.85,53.75Z" transform="translate(-64.08 -36.75)"/><path class="cls-1" d="M71.57,43.91c17.13-1,34.26-.28,51.4.05v1.46c-17.14.95-34.28.78-51.43.38Z" transform="translate(-64.08 -36.75)"/><path class="cls-2" d="M8.4,78H58.55a0,0,0,0,1,0,0V92.25A7.75,7.75,0,0,1,50.8,100H16.15A7.75,7.75,0,0,1,8.4,92.25V78A0,0,0,0,1,8.4,78Z"/></svg>