<svg xmlns="http://www.w3.org/2000/svg" width="96" height="91">
    <path fill="#231F20" fill-rule="evenodd" d="M87.235 90.62H8.764c-4.326 0-7.847-3.519-7.847-7.846V23.919c0-4.326 3.521-7.846 7.847-7.846h19.618V12.15c0-6.491 5.28-11.771 11.771-11.771h15.694c6.491 0 11.771 5.28 11.771 11.771v3.923h19.617c4.326 0 7.847 3.52 7.847 7.846v58.855c0 4.327-3.521 7.846-7.847 7.846zM59.771 12.15c0-2.163-1.759-3.925-3.924-3.925H40.153c-2.165 0-3.924 1.762-3.924 3.925v3.923h23.542V12.15zM8.764 23.919v19.619h31.389c2.168 0 3.924 1.758 3.924 3.923 0 2.167-1.756 3.922-3.924 3.922H8.764v31.391h78.46l.006-31.391H55.847c-2.168 0-3.923-1.755-3.923-3.922 0-2.165 1.755-3.923 3.923-3.923h31.385l.003-19.619H8.764z"/>
    <path fill="#FEBF2B" fill-rule="evenodd" d="M48 63.154c-3.107 0-6.054-1.226-8.299-3.452-2.246-2.248-3.472-5.197-3.472-8.319v-7.845c0-6.491 5.28-11.771 11.771-11.771 3.107 0 6.054 1.227 8.299 3.453 2.245 2.247 3.472 5.196 3.472 8.318v7.845c0 6.492-5.28 11.771-11.771 11.771zm0-23.539c-2.165 0-3.923 1.76-3.923 3.923v7.845c0 1.031.413 2.011 1.164 2.765.74.732 1.751 1.161 2.759 1.161 2.165 0 3.924-1.76 3.924-3.926v-7.845c0-1.028-.415-2.01-1.166-2.762-.739-.732-1.751-1.161-2.758-1.161z"/>
</svg>
