<svg xmlns="http://www.w3.org/2000/svg" width="63" height="90">
    <path fill="#231F20" fill-rule="evenodd" d="M62.953 67.426c-.004.222-.022.442-.065.659-.007.035-.02.068-.027.103-.041.178-.094.352-.159.522-.027.071-.058.139-.089.208-.062.135-.132.266-.21.394-.036.06-.07.121-.109.178-.116.169-.244.332-.389.482l-.016.019-18.235 18.657c-.17.175-.357.331-.558.468-.065.044-.136.073-.203.113-.138.082-.275.167-.424.23-.097.041-.198.062-.298.095-.126.041-.25.09-.382.117-.236.048-.476.074-.717.074H8.26c-4.035 0-7.318-3.358-7.318-7.487V15.094c0-4.129 3.283-7.487 7.318-7.487h47.383c4.035 0 7.318 3.358 7.318 7.487V67.35c0 .026-.007.05-.008.076zM44.72 77.001l5.785-5.92H44.72v5.92zM8.26 15.071l-.022 67.187 29.401.02V67.377c0-2.06 1.418-3.76 3.433-3.76h14.883V15.163L8.26 15.071z"/>
    <path fill="#FEBF2B" fill-rule="evenodd" d="M26.479 44.953c-6.035 0-10.944-5.023-10.944-11.198v-9.95c0-2.06 1.633-3.732 3.648-3.732s3.648 1.672 3.648 3.732v9.95c0 2.059 1.637 3.733 3.648 3.733 2.012 0 3.648-1.674 3.648-3.733V8.354c-.329-.278-1.092-.65-1.902-.65-.809 0-.876-.221-1.187-.001-3.614 0-3.708-.076-7.855-.076 0-4.419 4.676-7.387 9.042-7.387 4.342 0 9.076 3.02 9.197 7.518l.002 25.997c0 6.175-4.91 11.198-10.945 11.198z"/>
</svg>
