<svg xmlns="http://www.w3.org/2000/svg" width="68" height="90">
    <path fill="#FEBF2B" fill-rule="evenodd" d="M34.106 63.949c-2.082 0-3.767-1.665-3.767-3.719V3.716c0-2.054 1.685-3.72 3.767-3.72s3.767 1.666 3.767 3.72V60.23c0 2.054-1.685 3.719-3.767 3.719z"/>
    <path fill="#231F20" fill-rule="evenodd" d="M64.243 89.995c-2.082 0-3.768-1.667-3.768-3.72V67.67c0-4.615-3.767-9.85-7.534-13.846v25.01c0 .33-.057.643-.139.948l3.182 4.295c1.225 1.661.86 3.988-.821 5.2-1.673 1.212-4.031.852-5.264-.805l-16.657-22.5c-.703-.994-2.517-2.934-5.386-1.254-1.159 1.075-1.843 2.306.114 5.292l9.304 14.247c1.125 1.727.621 4.03-1.126 5.145-.633.403-1.339.593-2.038.593-1.236 0-2.45-.6-3.171-1.705l-9.3-14.242c-5.003-7.643-1.251-12.733 1.431-15.087.139-.124.291-.239.449-.339 6.482-4.165 12.761-1.345 15.852 3.023l6.036 8.151V9.562c0-1.152-.985-2.126-2.152-2.126H7.737l-.21 67.469 3.977.207c2.082 0 3.767 1.667 3.767 3.722 0 2.053-1.685 3.72-3.767 3.72H7.737c-4.271 0-7.744-3.432-7.744-7.649V7.644c0-4.217 3.332-7.427 7.603-7.427h37.776c5.341 0 7.569 4.069 7.569 9.345v34.007C57.139 47.045 68.01 57.065 68.01 67.67v18.605c0 2.053-1.686 3.72-3.767 3.72z"/>
</svg>
