<svg xmlns="http://www.w3.org/2000/svg" width="90" height="90">
    <path fill="#231F20" fill-rule="evenodd" d="M86.123 78.646H71.169v3.738h7.477c2.067 0 3.738 1.672 3.738 3.739 0 2.065-1.671 3.738-3.738 3.738H56.215c-2.066 0-3.738-1.673-3.738-3.738 0-2.067 1.672-3.739 3.738-3.739h7.477v-3.738H48.738c-2.066 0-3.738-1.674-3.738-3.739v-22.43c0-2.068 1.672-3.738 3.738-3.738h37.385c2.066 0 3.738 1.67 3.738 3.738v22.43c0 2.065-1.672 3.739-3.738 3.739zm-3.739-22.432H52.477v14.954h29.907V56.214zM41.261 30.045H26.308v3.739h7.477c2.066 0 3.738 1.672 3.738 3.739 0 2.065-1.672 3.738-3.738 3.738H11.354c-2.067 0-3.739-1.673-3.739-3.738 0-2.067 1.672-3.739 3.739-3.739h7.477v-3.739H3.877c-2.067 0-3.739-1.671-3.739-3.738V3.876C.138 1.811 1.81.138 3.877.138h37.384C43.327.138 45 1.811 45 3.876v22.431c0 2.067-1.673 3.738-3.739 3.738zM37.523 7.616H7.615v14.953h29.908V7.616z"/>
    <path fill="#FEBF2B" fill-rule="evenodd" d="M75.415 33.752c-.172.02-.343.032-.511.032-1.84 0-3.443-1.358-3.702-3.23-.928-6.806-9.46-12.196-18.532-11.691-2.07.147-3.818-1.478-3.928-3.541-.106-2.063 1.479-3.823 3.541-3.929 13.132-.627 24.87 7.47 26.33 18.145.277 2.049-1.154 3.932-3.198 4.214zM37.716 71.128c-.507.025-1.011.037-1.511.037-12.453 0-23.42-7.919-24.818-18.184-.277-2.044 1.157-3.929 3.201-4.209 2.07-.239 3.933 1.152 4.21 3.2.928 6.805 9.507 12.197 18.531 11.687 2.048-.096 3.819 1.477 3.929 3.54.106 2.064-1.483 3.823-3.542 3.929z"/>
</svg>
