<svg xmlns="http://www.w3.org/2000/svg" width="75" height="92">
    <path fill="#231F20" fill-rule="evenodd" d="M22.887 64.843h-7.482v-7.536h7.482v7.536zm-7.482-37.688h7.482v7.538h-7.482v-7.538zm7.482 22.613h-7.482V42.23h7.482v7.538zm40.508 7.539c-2.054 0-3.098-1.689-3.098-3.771V15.849H50.295c-1.762 2.284-4.553 3.77-7.702 3.77H24.717c-3.148 0-5.94-1.486-7.702-3.77H7.632v67.839h26.023c2.055 0 3.717 1.686 3.717 3.768s-1.662 3.767-3.717 3.767H3.915c-2.055 0-3.474-1.685-3.474-3.767V12.081c0-2.082 1.419-3.768 3.474-3.768h11.152V4.544c0-2.081 1.663-3.769 3.718-3.769h29.741c2.054 0 3.717 1.688 3.717 3.769v3.769h11.152c2.055 0 4.384 1.686 4.384 3.768v41.455c0 2.082-2.329 3.771-4.384 3.771zM44.808 8.313H22.503v1.883c0 1.023 1.013 1.885 2.214 1.885h17.876c1.202 0 2.215-.862 2.215-1.885V8.313zm3.525 26.38H33.462c-2.054 0-3.717-1.688-3.717-3.768 0-2.081 1.663-3.77 3.717-3.77h14.871c2.055 0 3.717 1.689 3.717 3.77 0 2.08-1.662 3.768-3.717 3.768zm0 15.075H33.462c-2.054 0-3.717-1.688-3.717-3.768 0-2.081 1.663-3.77 3.717-3.77h14.871c2.055 0 3.717 1.689 3.717 3.77 0 2.08-1.662 3.768-3.717 3.768zM29.745 61.074c0-2.081 1.663-3.767 3.717-3.767h14.871c2.055 0 3.717 1.686 3.717 3.767 0 2.082-1.662 3.769-3.717 3.769H33.462c-2.054 0-3.717-1.687-3.717-3.769z"/>
    <path fill="#FEBF2B" fill-rule="evenodd" d="M58.513 91.223c-.923 0-1.816-.347-2.505-.982l-9.988-9.236c-1.517-1.401-1.626-3.784-.243-5.322 1.383-1.542 3.736-1.647 5.253-.245l6.781 6.269 9.919-15.176c1.133-1.736 3.438-2.215 5.155-1.061 1.711 1.151 2.179 3.488 1.046 5.223L61.613 89.538c-.603.918-1.568 1.522-2.643 1.659-.152.018-.305.026-.457.026z"/>
</svg>
