<svg xmlns="http://www.w3.org/2000/svg" width="94" height="90">
    <path fill="#231F20" fill-rule="evenodd" d="M72.932 89.963c-9.816 0-27.722-11.147-44.559-27.732C10.05 44.186-5.641 20.798 3.21 12.084L15.867.992c.76-.666 1.758-1.006 2.774-.938 1.016.065 1.962.53 2.629 1.285l16.491 18.733c1.007 1.145 1.215 2.774.528 4.129l-6.384 12.571 22.76 22.404 12.769-6.284c1.37-.672 3.02-.475 4.185.514L90.644 69.55c.77.649 1.241 1.58 1.312 2.577.07.998-.268 1.983-.938 2.732l-11.03 12.354c-1.397 1.395-3.517 2.75-7.056 2.75zM18.043 9.113L8.502 17.46c-2.154 2.131 3.701 18.252 25.253 39.472C50.592 73.519 66.506 82.47 72.932 82.47c.834 0 1.295-.163 1.435-.3l8.399-9.415L68.57 60.71l-12.956 6.374c-1.471.72-3.236.439-4.39-.703L24.584 40.16c-1.157-1.139-1.445-2.88-.713-4.325l6.473-12.746L18.043 9.113z"/>
    <path fill="#FEBF2B" fill-rule="evenodd" d="M89.523 37.512c-2.102 0-3.806-1.677-3.806-3.746 0-14.462-11.948-26.227-26.635-26.227-2.102 0-3.806-1.678-3.806-3.746 0-2.069 1.704-3.747 3.806-3.747 18.882 0 34.245 15.127 34.245 33.72 0 2.069-1.704 3.746-3.804 3.746zm-7.611 0c0 2.069-1.703 3.746-3.805 3.746-2.102 0-3.805-1.677-3.805-3.746 0-10.328-8.536-18.733-19.026-18.733-2.101 0-3.804-1.677-3.804-3.746s1.703-3.748 3.804-3.748c14.688 0 26.636 11.764 26.636 26.227z"/>
</svg>
