<svg width="20" height="21" viewBox="0 0 20 21" fill="none" xmlns="http://www.w3.org/2000/svg">
<path d="M17.258 3.5454C17.258 3.5454 18.8769 2.91415 18.742 4.44719C18.697 5.07845 18.2923 7.28782 17.9775 9.67757L16.8983 16.7566C16.8983 16.7566 16.8084 17.7937 15.9989 17.974C15.1895 18.1544 13.9753 17.3428 13.7505 17.1624C13.5706 17.0272 10.3778 14.9981 9.25358 14.0062C8.93879 13.7356 8.57904 13.1945 9.29854 12.5633L14.0203 8.05437C14.5599 7.51328 15.0995 6.25078 12.8511 7.78382L6.55546 12.0673C6.55546 12.0673 5.83596 12.5182 4.48692 12.1124L1.56393 11.2106C1.56393 11.2106 0.484671 10.5343 2.3284 9.85791C6.82529 7.7387 12.3565 5.57441 17.258 3.5454Z" fill="#0559D6"/>
</svg>
