<svg width="20" height="21" viewBox="0 0 20 21" fill="none" xmlns="http://www.w3.org/2000/svg">
<path d="M17.258 3.54525C17.258 3.54525 18.8769 2.914 18.742 4.44704C18.697 5.0783 18.2923 7.28767 17.9775 9.67742L16.8983 16.7565C16.8983 16.7565 16.8084 17.7935 15.9989 17.9739C15.1895 18.1542 13.9753 17.3426 13.7505 17.1623C13.5706 17.027 10.3778 14.998 9.25358 14.006C8.93879 13.7355 8.57904 13.1944 9.29854 12.5631L14.0203 8.05421C14.5599 7.51313 15.0995 6.25063 12.8511 7.78367L6.55546 12.0672C6.55546 12.0672 5.83596 12.518 4.48692 12.1123L1.56393 11.2105C1.56393 11.2105 0.484671 10.5341 2.3284 9.85775C6.82529 7.73855 12.3565 5.57425 17.258 3.54525Z" fill="white"/>
</svg>
