<svg width="20" height="21" viewBox="0 0 20 21" fill="none" xmlns="http://www.w3.org/2000/svg">
<path fill-rule="evenodd" clip-rule="evenodd" d="M6.16808 16.9688L5.88595 16.8281L3.06473 17.5312L3.81706 14.7656L3.62897 14.4844C2.92367 13.3125 2.50048 11.9531 2.50048 10.5469C2.45346 6.375 5.83893 3 9.97673 3C11.9986 3 13.8794 3.79688 15.29 5.20312C16.7007 6.60938 17.5 8.53125 17.5 10.5C17.5 14.625 14.1145 18 9.97673 18C8.66016 18 7.34359 17.6719 6.16808 16.9688ZM13.6442 12.2344L14.1614 12.4687C14.2554 12.5156 14.3024 12.5625 14.3024 12.5625V12.8906C14.2554 13.125 14.2084 13.3594 14.1144 13.5469C14.0673 13.6406 13.9733 13.7344 13.8793 13.8281C13.8322 13.875 13.7852 13.9101 13.7382 13.9453C13.6912 13.9804 13.6442 14.0156 13.5971 14.0625L13.5031 14.1562C13.4503 14.2089 13.3975 14.232 13.3363 14.2587C13.2886 14.2795 13.2358 14.3026 13.174 14.3437C12.9859 14.4375 12.7037 14.5312 12.4686 14.5312H11.9984C11.9279 14.5078 11.8456 14.4961 11.7633 14.4844C11.6811 14.4726 11.5988 14.4609 11.5282 14.4375C10.2587 14.1094 9.13019 13.5 8.14276 12.6562C8.08133 12.5644 7.99982 12.4925 7.91135 12.4145C7.86441 12.3731 7.8155 12.33 7.7666 12.2812L7.57852 12.0937C6.82619 11.3906 6.26195 10.5937 5.83876 9.7031L5.79174 9.56248C5.65068 9.23435 5.55664 8.85935 5.55664 8.48435C5.55664 7.96873 5.74472 7.4531 6.07387 7.03123C6.12089 6.98435 6.15615 6.93748 6.19142 6.8906C6.22668 6.84373 6.26195 6.79685 6.30897 6.74998C6.35599 6.72654 6.40301 6.69139 6.45003 6.65623C6.49705 6.62107 6.54407 6.58592 6.59109 6.56248L6.63811 6.51561C6.68513 6.51561 6.73215 6.50389 6.77917 6.49217C6.82619 6.48045 6.87321 6.46873 6.92023 6.46873H7.2964H7.43746C7.57852 6.5156 7.67256 6.56248 7.7666 6.7031C7.90766 6.98435 8.47191 8.24998 8.51893 8.48435C8.56595 8.62498 8.51893 8.81248 8.42489 8.9531C8.37787 8.99998 8.3426 9.05857 8.30734 9.11717C8.27207 9.17576 8.2368 9.23435 8.18978 9.28123C8.04872 9.42185 7.86064 9.65623 7.86064 9.65623C7.81362 9.7031 7.81362 9.79685 7.81362 9.8906C7.83158 9.92641 7.84268 9.95538 7.85216 9.98013C7.8675 10.0202 7.8786 10.0491 7.90766 10.0781L7.95468 10.1719C8.18978 10.5937 8.51893 10.9687 8.84807 11.2969C8.89509 11.3437 8.95387 11.3906 9.01264 11.4375C9.07142 11.4844 9.13019 11.5312 9.17721 11.5781C9.55338 11.9531 10.0236 12.2344 10.5408 12.4687L10.7759 12.5625C10.8229 12.6094 10.917 12.6562 10.964 12.6562H11.011C11.1051 12.6562 11.1991 12.6094 11.2461 12.5156C11.9044 11.7656 11.9514 11.7187 11.9514 11.7187C12.0455 11.6719 12.1395 11.625 12.2806 11.625C12.3041 11.625 12.3276 11.6367 12.3511 11.6484C12.3746 11.6601 12.3981 11.6719 12.4216 11.6719C12.8918 11.9062 13.6442 12.2344 13.6442 12.2344Z" fill="white"/>
</svg>
