<svg width="150" height="31" viewBox="0 0 150 31" fill="none" xmlns="http://www.w3.org/2000/svg">
<path d="M50.9765 9.37089C51.6481 9.37089 52.1646 9.87103 52.1646 10.5212V11.6716C52.1646 12.3217 51.6481 12.8218 50.9765 12.8218H45.3461V25.7498C45.3461 26.375 44.8038 26.8746 44.1581 26.8746H41.7819C41.1362 26.8746 40.5938 26.375 40.5938 25.7498V12.8218H34.9634C34.2919 12.8218 33.7753 12.3217 33.7753 11.6716V10.5212C33.7753 9.87103 34.2919 9.37089 34.9634 9.37089H50.9765Z" fill="#222923"/>
<path d="M65.8539 20.1727C65.8539 24.7738 63.1161 27.1245 58.2347 27.1245C53.3533 27.1245 50.616 24.7738 50.616 20.1727C50.616 15.5719 53.3533 13.2463 58.2347 13.2463C63.1161 13.2463 65.8539 15.5719 65.8539 20.1727ZM61.489 20.1727C61.489 17.2219 60.43 16.022 58.2347 16.022C56.0393 16.022 54.9804 17.2223 54.9804 20.1727C54.9804 23.1234 56.0393 24.3487 58.2347 24.3487C60.43 24.3487 61.489 23.1234 61.489 20.1727Z" fill="#222923"/>
<path d="M82.9523 20.1727C82.9523 24.7738 80.2142 27.1245 76.1853 27.1245C74.6357 27.1245 73.6026 26.824 72.5437 26.4993V30.2499C72.5437 30.6753 72.2083 31 71.7688 31H68.9536C68.5145 31 68.1787 30.6753 68.1787 30.2499V14.2465C68.1787 13.8214 68.5145 13.4963 68.9536 13.4963H71.3818C71.8209 13.4963 72.1566 13.8214 72.1566 14.2465V14.6216C73.3185 13.8214 74.739 13.2463 76.5727 13.2463C80.2399 13.2463 82.9523 15.5968 82.9523 20.1727ZM72.5437 17.2973V23.6736C73.6026 23.9986 74.6357 24.1737 75.2813 24.1737C77.6054 24.1737 78.4578 22.9488 78.4578 20.1727C78.4578 17.4219 77.6059 16.1966 75.5396 16.1966C74.6098 16.1971 73.4476 16.7472 72.5437 17.2973Z" fill="#222923"/>
<path d="M93.7733 9.37082C101.134 9.37082 104.234 12.1465 104.234 18.1226C104.234 24.0992 101.134 26.8745 93.7733 26.8745H86.7233C86.0775 26.8745 85.535 26.3748 85.535 25.7496V10.5461C85.535 9.8959 86.051 9.37082 86.7233 9.37082H93.7733ZM90.2868 12.8217V23.424H93.6443C98.2671 23.424 99.4811 21.8737 99.4811 18.1226C99.4811 14.3721 98.2679 12.8217 93.6443 12.8217H90.2868Z" fill="#222923"/>
<path d="M110.225 21.4734C110.406 23.4739 111.336 24.3487 113.454 24.3487C114.539 24.3487 115.495 24.0487 115.933 23.5239C116.269 23.1238 116.734 22.8733 117.379 22.8733H119.265C119.704 22.8733 120.04 23.1984 120.04 23.6235C120.04 26.2242 117.276 27.1245 113.144 27.1245C108.546 27.1245 105.783 24.7238 105.783 20.1976C105.783 15.6969 108.572 13.2463 113.144 13.2463C117.741 13.2463 120.504 15.6218 120.504 20.0226V20.7232C120.504 21.1483 120.169 21.4734 119.73 21.4734H110.225ZM110.2 18.8977H116.063C115.985 17.0222 115.055 16.022 113.144 16.022C111.284 16.022 110.304 17.0222 110.2 18.8977Z" fill="#222923"/>
<path d="M132.979 19.1228C132.979 17.0473 131.998 16.197 130.578 16.197C129.312 16.197 128.124 17.0473 127.195 17.9475V26.1242C127.195 26.5497 126.859 26.8744 126.42 26.8744H123.605C123.166 26.8744 122.83 26.5497 122.83 26.1242V14.2465C122.83 13.8214 123.166 13.4963 123.605 13.4963H126.42C126.859 13.4963 127.195 13.8214 127.195 14.2465V15.0217C128.383 14.0464 129.674 13.2463 131.611 13.2463C134.969 13.2463 137.344 14.9717 137.344 19.1228V26.1242C137.344 26.5497 137.008 26.8744 136.57 26.8744H133.754C133.315 26.8744 132.979 26.5497 132.979 26.1242V19.1228Z" fill="#222923"/>
<path d="M145.868 27.125C142.252 27.125 140.444 25.3745 140.444 21.6235V10.1213C140.444 9.69619 140.779 9.37113 141.218 9.37113H144.033C144.473 9.37113 144.808 9.69619 144.808 10.1213V14.197H148.321C148.76 14.197 149.096 14.522 149.096 14.9472V16.3972C149.096 16.8222 148.76 17.1474 148.321 17.1474H144.808V21.623C144.808 23.3235 145.713 24.2237 147.03 24.2237C147.701 24.2237 148.192 24.0737 148.76 24.0737H149.225C149.664 24.0737 150 24.3988 150 24.8239V26.1243C150 26.4993 149.664 26.7994 149.225 26.8744C148.45 27.0249 147.03 27.125 145.868 27.125Z" fill="#222923"/>
<path d="M8.15705 7.465C10.038 7.465 11.8887 7.904 13.2438 8.78223C14.5975 7.904 16.4437 7.465 18.3302 7.465C22.2719 7.465 25.4667 9.32919 25.4667 13.229C25.4667 17.1293 19.7776 29.9085 15.8923 29.9085C14.9316 29.9085 14.0185 27.3789 13.2434 24.2163C12.4656 27.3789 11.5529 29.9085 10.5905 29.9085C6.70889 29.9085 1.01979 17.1293 1.01979 13.229C1.02013 9.32919 4.215 7.465 8.15705 7.465Z" fill="white"/>
<path d="M15.8924 30.9172C15.1409 30.9172 14.5079 29.1456 13.9174 27.3449C13.69 26.6514 12.7935 26.6512 12.5659 27.3446C11.9747 29.1455 11.3416 30.9172 10.5905 30.9172C7.86171 30.9172 5.19684 26.8789 3.44201 23.4915C1.44752 19.6413 0 15.3251 0 13.2285C0.000339951 9.11414 3.202 6.45535 8.15712 6.45535C9.8986 6.45535 11.5359 6.79552 12.8772 7.42589C13.1093 7.53496 13.3777 7.53496 13.6097 7.42589C14.9505 6.79578 16.5878 6.45535 18.3302 6.45535C23.285 6.45535 26.4867 9.11382 26.4867 13.2285C26.4867 15.3251 25.0388 19.6413 23.0443 23.4915C21.2888 26.8789 18.6232 30.9172 15.8924 30.9172ZM8.15712 8.47362C6.7222 8.47362 2.04005 8.81678 2.03971 13.2285C2.03971 15.0137 3.42297 19.0297 5.25735 22.5705C7.19414 26.3093 8.97093 28.2817 10.0845 28.7743C10.3116 28.8747 10.5372 28.7635 10.6168 28.526C10.9267 27.6012 11.5404 25.0625 12.3009 21.97L12.5699 20.7737C12.7485 19.9792 13.8558 19.9497 14.0754 20.7336L14.4218 21.97C15.177 25.0516 15.6307 27.5865 15.8846 28.5183C15.9506 28.7605 16.1726 28.8746 16.4 28.774C17.515 28.2807 19.2926 26.3086 21.2293 22.5705C23.0637 19.03 24.4473 15.0137 24.4473 13.2285C24.4473 8.81678 19.7655 8.47362 18.3305 8.47362C16.5818 8.47362 14.9317 8.89381 13.8034 9.62576L13.6635 9.71649C13.4081 9.88221 13.0809 9.88236 12.8253 9.71681L12.6853 9.62608C11.5553 8.89381 9.90482 8.47362 8.15712 8.47362Z" fill="#3398D4"/>
<path d="M6.98258 10.8759C7.36132 10.2668 6.90084 9.45242 6.22846 9.68604C5.10439 10.0767 3.85868 10.7981 3.55869 12.107C3.2983 13.2425 3.69944 15.1466 4.21711 16.8921C4.46503 17.7281 5.59048 17.5105 5.61269 16.6379C5.6463 15.3177 5.73358 14.0072 5.92849 13.2339C6.14557 12.3731 6.56401 11.549 6.98258 10.8759Z" fill="#D6E1E7"/>
<path d="M16.9411 4.49989C17.0415 4.87482 17.3961 5.12101 17.7791 5.09777C18.7653 5.03793 20.6504 5.00257 22.037 5.4574C23.3998 5.90476 24.5751 6.85035 25.166 7.38639C25.4161 7.61325 25.778 7.68037 26.0815 7.53488L27.4844 6.862C28.1534 6.54115 28.0426 5.54475 27.3199 5.38264L25.8061 5.04308C25.4998 4.97437 25.2643 4.72592 25.2091 4.41324L24.5448 0.64922C24.439 0.049382 23.7288 -0.206258 23.2727 0.191258L20.2251 2.84711C19.9939 3.04861 19.6676 3.09451 19.3909 2.96445L17.6325 2.13803C17.0333 1.85644 16.3823 2.41206 16.5551 3.05757L16.9411 4.49989Z" fill="#FEA82A"/>
</svg>
