<svg width="374" height="470" viewBox="0 0 374 470" fill="none" xmlns="http://www.w3.org/2000/svg">
<g clip-path="url(#clip0_183_5387)">
<mask id="mask0_183_5387" style="mask-type:luminance" maskUnits="userSpaceOnUse" x="-400" y="0" width="774" height="696">
<path d="M374 0H-400V696H374V0Z" fill="white"/>
</mask>
<g mask="url(#mask0_183_5387)">
<path d="M-314.05 253.193L-301.139 240.519L-303.943 237.66L-319.712 253.138L-304.177 268.975L-301.321 266.17L-314.05 253.193ZM-104.427 441.069L-107.158 438.285L-107.231 438.209L-120.142 450.883L-132.783 437.997L-135.641 440.803L-122.999 453.689L-120.122 456.624L-107.465 469.525L-104.608 466.719L-117.264 453.816L-104.354 441.144L-104.427 441.069ZM-113.503 56.3092L-100.593 43.6368L-103.397 40.7775L-116.404 53.5478L-117.832 54.9496L-119.164 56.2582L-132.205 69.0627L-129.401 71.9214L-116.455 59.2124L-103.725 72.1897L-103.627 72.0952L-100.869 69.3868L-100.771 69.2923L-113.5 56.3134L-113.503 56.3092ZM-13.2795 -42.0848L-0.367218 -54.7572L-3.17148 -57.6165L-16.0822 -44.9422L-17.5104 -43.5399L-18.9402 -42.1375L-31.8863 -29.4285L-29.0836 -26.5704L-16.136 -39.2788L-3.4064 -26.3018L-0.549988 -29.1058L-13.2795 -42.0848ZM2.5921 -57.6644L5.66043 -60.6763L2.85471 -63.5355L-0.212128 -60.5231L2.5921 -57.6644ZM8.61823 -63.581L11.6543 -66.5629L8.85165 -69.4203L5.81555 -66.4397L8.61823 -63.581ZM59.157 -113.195L62.1594 -116.144L59.3567 -119.001L56.3513 -116.054L59.157 -113.195ZM65.1172 -119.049L68.184 -122.061L65.3813 -124.918L62.3145 -121.906L65.1172 -119.049ZM71.1433 -124.966L84.0909 -137.673L96.8189 -124.696L99.6769 -127.5L84.1431 -143.337L82.7149 -141.935L68.3391 -127.823L71.1433 -124.966ZM99.7214 -121.737L102.734 -118.666L105.589 -121.472L102.579 -124.54L99.7214 -121.737ZM105.637 -115.707L108.555 -112.729L111.411 -115.535L108.492 -118.512L105.637 -115.707ZM155.165 -65.2086L158.103 -62.2139L160.958 -65.0199L158.023 -68.0131L155.165 -65.2086ZM161.007 -59.2551L164.019 -56.1856L166.875 -58.9903L163.864 -62.059L161.007 -59.2551ZM166.921 -53.226L179.632 -40.2639L166.686 -27.5548L166.774 -27.466L169.489 -24.6961L169.575 -24.6061L182.521 -37.3151L195.252 -24.3368L198.108 -27.1409L185.29 -40.2097L182.576 -42.9779L169.775 -56.0275L166.918 -53.2235L166.921 -53.226ZM163.728 -24.6508L160.662 -21.6383L160.748 -21.5497L163.463 -18.7801L163.55 -18.6896L166.617 -21.702L166.53 -21.792L163.814 -24.562L163.728 -24.6508ZM157.702 -18.7342L154.698 -15.787L154.784 -15.697L157.501 -12.9277L157.589 -12.8376L160.592 -15.7861L160.505 -15.8767L157.79 -18.6455L157.702 -18.7342ZM107.199 30.8453L104.163 33.8261L104.25 33.9167L106.967 36.6854L107.053 36.7742L110.089 33.7935L110.001 33.7029L107.288 30.9335L107.2 30.8447L107.199 30.8453ZM101.202 36.7316L98.1335 39.744L98.221 39.834L100.938 42.6032L101.024 42.692L104.094 39.679L104.006 39.5903L101.291 36.8215L101.203 36.7309L101.202 36.7316ZM95.1757 42.6479L82.2649 55.3224L69.5508 42.3603L66.6959 45.1648L79.407 58.127L66.4609 70.8361L66.5485 70.9249L69.2621 73.6948L69.3495 73.7848L82.2957 61.0758L95.0267 74.054L97.8831 71.2494L85.1536 58.2711L98.0644 45.5968L97.9784 45.508L95.2632 42.7381L95.1757 42.6479ZM-15.0686 156.664L-2.1579 143.99L-2.24542 143.901L-4.96057 141.131L-5.0481 141.041L-17.9573 153.716L-30.6715 140.754L-30.7697 140.848L-33.5279 143.556L-33.6262 143.653L-20.9151 156.614L-33.8611 169.323L-33.7736 169.412L-31.0569 172.182L-30.9694 172.27L-18.0233 159.562L-5.29379 172.539L-5.19553 172.445L-2.43585 169.736L-2.33759 169.643L-15.0671 156.663L-15.0686 156.664ZM-94.9595 75.4109L-94.8613 75.3152L-97.8728 72.2459L-97.9711 72.341L-100.729 75.0487L-100.828 75.1448L-97.816 78.2139L-97.7192 78.1175L-94.9595 75.4109ZM-89.1361 81.3469L-89.0378 81.2507L-91.9572 78.2742L-92.0555 78.3698L-94.8136 81.0782L-94.9119 81.1727L-91.9925 84.1498L-91.8943 84.0547L-89.1361 81.3469ZM-97.6348 40.7271L-94.5664 37.7146L-97.3722 34.856L-100.441 37.8684L-97.6348 40.7271ZM-91.6086 34.8111L-88.5725 31.8286L-91.3752 28.9705L-94.4128 31.9518L-91.6086 34.8111ZM-41.0698 -14.8038L-38.0675 -17.7516L-40.8717 -20.6097L-43.8755 -17.6624L-41.0698 -14.8038ZM-35.1097 -20.6576L-32.0429 -23.6693L-34.8456 -26.5274L-37.9139 -23.5151L-35.1097 -20.6576ZM-0.505463 -23.3451L2.50604 -20.2746L5.36252 -23.0806L2.35098 -26.1493L-0.505463 -23.3451ZM5.40857 -17.315L8.32797 -14.3379L11.1844 -17.1437L8.26498 -20.1208L5.40857 -17.315ZM54.9384 33.183L57.8763 36.1776L60.7311 33.3718L57.7964 30.3782L54.9384 33.183ZM60.7803 39.1366L63.7903 42.2053L66.6467 39.4013L63.6367 36.3325L60.7803 39.1366ZM63.5016 73.7407L60.4332 76.7532L60.5208 76.842L63.2343 79.6114L63.3219 79.7019L66.3903 76.6896L66.3027 76.5989L63.5876 73.8297L63.5016 73.7407ZM57.4754 79.6572L54.47 82.6045L54.5576 82.6947L57.2743 85.4639L57.3618 85.554L60.3657 82.6054L60.2781 82.5149L57.563 79.746L57.4754 79.6572ZM6.97195 129.237L3.93585 132.218L4.02335 132.308L6.73849 135.077L6.82605 135.166L9.86215 132.185L9.7746 132.094L7.061 129.325L6.97348 129.236L6.97195 129.237ZM0.974976 135.123L-2.09341 138.135L-2.00586 138.225L0.710846 140.995L0.796844 141.084L3.86673 138.07L3.77917 137.982L1.06253 135.212L0.976532 135.122L0.974976 135.123ZM-33.5786 137.794L-36.5901 134.725L-36.6884 134.82L-39.4481 137.528L-39.5464 137.622L-36.5348 140.692L-36.4366 140.597L-33.6769 137.889L-33.5786 137.794ZM-39.4926 131.764L-42.4289 128.77L-42.5272 128.865L-45.2869 131.574L-45.3867 131.668L-42.4489 134.663L-42.3506 134.568L-39.5909 131.86L-39.4926 131.764ZM198.155 -21.3828L201.166 -18.314L204.024 -21.1187L201.012 -24.1876L198.155 -21.3828ZM204.069 -15.3537L206.988 -12.3774L209.844 -15.1826L206.927 -18.1591L204.069 -15.3537ZM253.6 35.1448L256.535 38.1388L259.393 35.3335L256.458 32.3401L253.6 35.1448ZM259.439 41.0989L262.45 44.1678L265.308 41.363L262.297 38.2923L259.439 41.0989ZM265.353 47.1274L277.993 60.0128L265.049 72.7224L265.121 72.7966L267.851 75.5816L267.925 75.6559L280.871 62.9463L293.529 75.8492L296.387 73.0438L283.729 60.1415L280.85 57.2086L268.211 44.3226L265.353 47.1274ZM261.825 81.4963L261.899 81.5717L264.967 78.5594L264.894 78.4852L262.163 75.7001L262.088 75.6265L259.021 78.6388L259.096 78.7124L261.825 81.4963ZM255.864 87.3508L255.937 87.4262L258.941 84.4777L258.866 84.4023L256.137 81.619L256.063 81.5448L253.061 84.4914L253.133 84.567L255.864 87.3508ZM205.325 136.965L205.4 137.039L208.438 134.058L208.364 133.984L205.633 131.199L205.558 131.125L202.522 134.106L202.596 134.181L205.325 136.965ZM199.299 142.882L199.372 142.956L202.441 139.944L202.367 139.869L199.638 137.085L199.563 137.01L196.496 140.022L196.57 140.098L199.299 142.882ZM180.624 155.603L167.985 142.717L165.127 145.522L177.768 158.407L164.822 171.118L164.896 171.191L167.626 173.977L167.7 174.051L180.644 161.341L193.302 174.244L196.16 171.439L183.502 158.536L196.413 145.862L196.341 145.788L193.61 143.004L193.537 142.928L180.624 155.603ZM3.4751 175.764L3.57339 175.67L0.561859 172.602L0.463593 172.695L-2.29456 175.404L-2.39282 175.498L0.615601 178.568L0.713898 178.474L3.4751 175.764ZM9.29852 181.7L9.39685 181.605L6.47745 178.629L6.37912 178.723L3.61945 181.432L3.52118 181.528L6.44211 184.504L6.53729 184.409L9.29852 181.7ZM97.9308 77.0093L100.941 80.0788L103.799 77.2734L100.787 74.2045L97.9308 77.0093ZM103.843 83.0382L106.763 86.0147L109.621 83.21L106.701 80.2336L103.843 83.0382ZM153.375 133.537L156.309 136.531L159.167 133.726L156.233 130.732L153.375 133.537ZM159.215 139.492L162.225 142.561L165.083 139.754L162.071 136.685L159.215 139.492ZM161.6 179.889L161.675 179.964L164.742 176.953L164.668 176.878L161.938 174.092L161.863 174.02L158.796 177.031L158.871 177.105L161.6 179.889ZM155.638 185.743L155.712 185.82L158.717 182.87L158.641 182.794L155.912 180.01L155.838 179.937L152.836 182.883L152.909 182.959L155.638 185.743ZM105.101 235.357L105.175 235.431L108.212 232.45L108.139 232.376L105.408 229.591L105.333 229.517L102.297 232.498L102.371 232.575L105.101 235.357ZM99.0749 241.274L99.1486 241.348L102.217 238.335L102.142 238.261L99.4127 235.478L99.339 235.402L96.2707 238.414L96.3444 238.49L99.0749 241.274ZM80.399 253.995L67.7601 241.109L67.6618 241.205L64.9021 243.913L64.8039 244.009L77.4443 256.895L64.4982 269.602L64.572 269.678L67.3025 272.462L67.3762 272.535L80.3223 259.828L92.9781 272.73L93.0764 272.634L95.836 269.925L95.9359 269.831L83.2785 256.928L96.1877 244.254L96.1155 244.179L93.385 241.397L93.3113 241.32L80.399 253.995ZM64.8576 238.149L61.8461 235.079L61.7478 235.176L58.9881 237.884L58.8914 237.978L61.8998 241.048L61.9981 240.953L64.7593 238.245L64.8576 238.149ZM58.9435 232.12L56.0073 229.127L55.909 229.22L53.1494 231.929L53.0511 232.025L55.9889 235.019L56.0856 234.922L58.8453 232.215L58.9435 232.12ZM-213.83 154.795L-200.919 142.12L-203.723 139.26L-216.634 151.935L-218.062 153.336L-219.492 154.739L-232.437 167.449L-229.632 170.306L-216.686 157.599L-203.958 170.575L-201.1 167.771L-213.83 154.795ZM-197.958 139.212L-194.892 136.201L-197.694 133.341L-200.764 136.354L-197.958 139.212ZM-191.932 133.297L-188.896 130.315L-191.699 127.456L-194.736 130.437L-191.932 133.297ZM-141.395 83.6815L-138.391 80.7348L-141.195 77.8755L-144.199 80.8228L-141.395 83.6815ZM-135.433 77.8296L-132.366 74.8173L-135.171 71.9578L-138.238 74.9703L-135.433 77.8296ZM-36.8205 172.227L-39.8889 175.24L-39.8013 175.33L-37.0862 178.099L-37.0002 178.188L-33.9318 175.177L-34.0178 175.088L-36.7329 172.318L-36.8205 172.227ZM-42.8466 178.144L-45.8505 181.091L-45.7629 181.181L-43.0478 183.95L-42.9603 184.04L-39.9564 181.092L-40.0424 181.003L-42.7575 178.233L-42.8451 178.142L-42.8466 178.144ZM-93.3501 227.723L-96.3862 230.705L-96.2987 230.794L-93.5835 233.564L-93.4975 233.655L-90.4615 230.671L-90.5475 230.583L-93.2626 227.813L-93.3501 227.723ZM-99.3471 233.609L-102.415 236.621L-102.328 236.712L-99.6112 239.481L-99.5237 239.571L-96.4553 236.558L-96.5429 236.468L-99.2596 233.699L-99.3471 233.609ZM-105.373 239.525L-118.284 252.199L-130.998 239.238L-133.853 242.044L-121.142 255.005L-134.088 267.714L-134 267.805L-131.284 270.573L-131.198 270.662L-118.252 257.955L-105.521 270.931L-102.664 268.127L-115.394 255.148L-102.483 242.475L-102.571 242.385L-105.284 239.616L-105.372 239.525H-105.373ZM-215.618 353.542L-202.707 340.869L-202.794 340.779L-205.509 338.01L-205.597 337.919L-218.508 350.593L-231.22 337.632L-234.077 340.436L-221.277 353.486L-218.56 356.255L-205.743 369.322L-202.886 366.517L-215.616 353.539L-215.618 353.542ZM-301.277 271.93L-298.266 274.998L-295.409 272.194L-298.421 269.125L-301.277 271.93ZM-295.364 277.959L-292.444 280.935L-289.588 278.131L-292.507 275.153L-295.364 277.959ZM-298.184 237.605L-295.116 234.593L-297.92 231.734L-300.989 234.747L-298.184 237.605ZM-292.158 231.688L-289.121 228.707L-291.925 225.848L-294.961 228.829L-292.158 231.688ZM-241.619 182.074L-238.616 179.127L-241.421 176.268L-244.424 179.216L-241.619 182.074ZM-235.659 176.222L-232.59 173.21L-235.394 170.351L-238.463 173.362L-235.659 176.222ZM-201.053 173.534L-198.043 176.603L-195.186 173.799L-198.198 170.727L-201.053 173.534ZM-195.14 179.563L-192.221 182.539L-189.365 179.735L-192.284 176.758L-195.14 179.563ZM-145.61 230.061L-142.673 233.055L-139.816 230.251L-142.753 227.255L-145.61 230.061ZM-139.769 236.015L-136.759 239.083L-133.902 236.279L-136.912 233.209L-139.769 236.015ZM-137.047 270.618L-140.116 273.631L-140.028 273.722L-137.313 276.49L-137.227 276.579L-134.159 273.566L-134.246 273.479L-136.96 270.709L-137.047 270.618ZM-143.073 276.535L-146.079 279.482L-145.991 279.572L-143.275 282.341L-143.187 282.432L-140.183 279.483L-140.271 279.394L-142.984 276.625L-143.072 276.535H-143.073ZM-193.577 326.114L-196.613 329.094L-196.526 329.185L-193.812 331.955L-193.724 332.046L-190.688 329.063L-190.774 328.974L-193.489 326.204L-193.577 326.114ZM-199.574 332L-202.642 335.012L-202.555 335.103L-199.84 337.872L-199.752 337.962L-196.682 334.95L-196.77 334.859L-199.486 332.09L-199.574 332ZM-234.128 334.671L-237.139 331.603L-239.995 334.407L-236.985 337.475L-234.128 334.671ZM-240.042 328.644L-242.978 325.648L-245.836 328.454L-242.898 331.448L-240.042 328.644ZM61.2748 278.377L61.3485 278.451L64.4169 275.438L64.3432 275.364L61.6126 272.58L61.5389 272.505L58.4706 275.518L58.5458 275.593L61.2748 278.377ZM55.3131 284.229L55.3869 284.304L58.3907 281.356L58.3155 281.282L55.588 278.498L55.5128 278.423L52.5105 281.371L52.5842 281.445L55.3131 284.229ZM4.77435 333.843L4.84955 333.919L7.88571 330.936L7.81354 330.861L5.08301 328.079L5.00778 328.003L1.97165 330.986L2.04691 331.059L4.77435 333.843ZM-1.25183 339.76L-1.17654 339.835L1.89178 336.822L1.81656 336.747L-0.913971 333.965L-0.986145 333.889L-4.05447 336.901L-3.9808 336.976L-1.25183 339.76ZM-19.9246 352.48L-32.565 339.596L-35.423 342.401L-22.7825 355.287L-35.7286 367.995L-35.6548 368.072L-32.9244 370.854L-32.8506 370.928L-19.9046 358.22L-7.24722 371.123L-4.39084 368.318L-17.0482 355.415L-4.13586 342.742L-4.21115 342.665L-6.94006 339.883L-7.01379 339.806L-19.9246 352.48ZM-202.845 372.283L-199.835 375.353L-196.977 372.547L-199.989 369.479L-202.845 372.283ZM-196.933 378.315L-194.012 381.291L-191.155 378.484L-194.075 375.508L-196.933 378.315ZM-102.62 273.891L-99.6112 276.959L-96.7533 274.155L-99.7632 271.085L-102.62 273.891ZM-96.7072 279.921L-93.7878 282.897L-90.9314 280.09L-93.8508 277.114L-96.7072 279.921ZM-47.1774 330.417L-44.2395 333.413L-41.3831 330.606L-44.3194 327.613L-47.1774 330.417ZM-41.3355 336.372L-38.3255 339.44L-35.4675 336.637L-38.4791 333.567L-41.3355 336.372ZM-38.9505 376.771L-38.8768 376.845L-35.81 373.833L-35.8822 373.758L-38.6126 370.974L-38.6864 370.899L-41.7563 373.912L-41.6795 373.987L-38.9505 376.771ZM-44.9137 382.623L-44.8384 382.7L-41.8346 379.75L-41.9098 379.676L-44.6372 376.892L-44.7141 376.817L-47.7164 379.766L-47.6426 379.841L-44.9137 382.623ZM-95.451 432.237L-95.3757 432.313L-92.3396 429.331L-92.4133 429.257L-95.1423 426.473L-95.2175 426.397L-98.2537 429.38L-98.1784 429.453L-95.451 432.237ZM-101.477 438.154L-101.403 438.231L-98.3335 435.218L-98.4103 435.141L-101.139 432.359L-101.213 432.282L-104.281 435.295L-104.206 435.372L-101.477 438.154ZM-135.694 435.031L-138.704 431.961L-141.561 434.766L-138.552 437.836L-135.694 435.031ZM-141.608 429L-144.543 426.007L-147.401 428.811L-144.463 431.807L-141.608 429ZM296.426 78.8069L299.436 81.8758L302.294 79.0692L299.284 76.0003L296.426 78.8069ZM302.339 84.8354L305.258 87.8117L308.116 85.0072L305.197 82.03L302.339 84.8354ZM351.87 135.333L354.807 138.328L357.665 135.523L354.727 132.528L351.87 135.333ZM357.711 141.287L360.721 144.356L363.58 141.551L360.569 138.482L357.711 141.287ZM363.623 147.315L376.337 160.277L363.391 172.986L363.479 173.077L366.195 175.845L366.281 175.934L379.228 163.226L391.957 176.203L394.815 173.399L381.998 160.332L379.281 157.563L366.481 144.512L363.623 147.318V147.315ZM360.432 175.891L357.364 178.903L357.451 178.992L360.166 181.76L360.254 181.851L363.324 178.838L363.238 178.751L360.521 175.98L360.433 175.89L360.432 175.891ZM354.406 181.806L351.402 184.753L351.489 184.844L354.205 187.614L354.292 187.705L357.294 184.756L357.207 184.666L354.492 181.896L354.406 181.806ZM303.902 231.387L300.866 234.368L300.954 234.458L303.669 237.228L303.755 237.317L306.791 234.335L306.705 234.246L303.988 231.478L303.901 231.387H303.902ZM297.905 237.271L294.839 240.284L294.926 240.375L297.641 243.145L297.729 243.236L300.796 240.223L300.708 240.132L297.993 237.362L297.905 237.271ZM291.881 243.188L278.968 255.864L266.257 242.901L263.398 245.706L276.112 258.668L263.166 271.377L263.253 271.468L265.97 274.236L266.056 274.325L279.002 261.618L291.732 274.594L294.59 271.79L281.859 258.812L294.771 246.137L294.683 246.047L291.968 243.279L291.881 243.188ZM181.635 357.206L194.546 344.531L194.46 344.442L191.743 341.673L191.655 341.582L178.743 354.258L166.032 341.295L165.934 341.39L163.173 344.099L163.076 344.194L175.788 357.157L162.842 369.863L162.93 369.954L165.645 372.724L165.733 372.815L178.677 360.105L191.407 373.082L191.505 372.988L194.265 370.28L194.364 370.184L181.633 357.206H181.635ZM101.745 275.952L101.844 275.856L98.8322 272.787L98.7355 272.883L95.9742 275.591L95.876 275.687L98.8875 278.756L98.9858 278.661L101.745 275.952ZM107.569 281.888L107.667 281.794L104.749 278.816L104.65 278.912L101.89 281.62L101.792 281.714L104.711 284.692L104.809 284.596L107.569 281.888ZM196.2 177.197L199.211 180.267L202.069 177.46L199.058 174.39L196.2 177.197ZM202.114 183.226L205.033 186.202L207.891 183.398L204.972 180.421L202.114 183.226ZM251.645 233.724L254.581 236.718L257.439 233.913L254.501 230.918L251.645 233.724ZM257.485 239.677L260.495 242.747L263.353 239.942L260.343 236.872L257.485 239.677ZM260.205 274.281L257.138 277.294L257.226 277.383L259.941 280.151L260.028 280.242L263.098 277.229L263.011 277.14L260.296 274.371L260.207 274.281H260.205ZM254.18 280.197L251.177 283.144L251.264 283.235L253.979 286.005L254.067 286.094L257.069 283.146L256.982 283.055L254.266 280.287L254.18 280.197ZM203.677 329.778L200.641 332.759L200.728 332.849L203.442 335.618L203.53 335.708L206.566 332.726L206.478 332.637L203.763 329.869L203.675 329.778H203.677ZM197.68 335.662L194.613 338.675L194.701 338.766L197.414 341.536L197.502 341.624L200.57 338.614L200.483 338.523L197.768 335.753L197.68 335.662ZM163.126 338.334L160.116 335.266L160.018 335.36L157.257 338.068L157.159 338.164L160.17 341.235L160.268 341.138L163.028 338.43L163.126 338.334ZM157.214 332.307L154.276 329.311L154.178 329.406L151.418 332.113L151.321 332.21L154.256 335.205L154.354 335.109L157.116 332.401L157.214 332.307ZM394.861 179.158L397.873 182.226L400.731 179.422L397.719 176.352L394.861 179.158ZM400.775 185.188L403.695 188.164L406.551 185.357L403.632 182.383L400.775 185.188ZM450.303 235.686L453.241 238.68L456.099 235.873L453.163 232.88L450.303 235.686ZM456.145 241.639L459.157 244.708L462.013 241.904L459.003 238.834L456.145 241.639ZM462.059 247.668L474.772 260.63L461.826 273.34L464.63 276.197L480.433 260.683L464.917 244.864L462.061 247.67L462.059 247.668ZM458.867 276.243L455.798 279.254L458.603 282.113L461.672 279.1L458.867 276.243ZM452.84 282.158L449.838 285.106L452.642 287.966L455.645 285.017L452.84 282.158ZM402.339 331.74L399.301 334.721L402.105 337.58L405.141 334.598L402.339 331.74ZM396.342 337.624L393.275 340.637L396.077 343.495L399.146 340.484L396.342 337.624ZM390.314 343.541L377.403 356.217L364.69 343.254L361.834 346.059L374.547 359.021L361.599 371.73L364.405 374.588L377.351 361.88L380.206 359.074L393.118 346.399L390.314 343.541ZM200.18 376.302L200.278 376.209L197.268 373.14L197.17 373.234L194.409 375.943L194.312 376.038L197.322 379.108L197.421 379.013L200.18 376.302ZM206.005 382.241L206.102 382.144L203.184 379.168L203.086 379.263L200.324 381.972L200.226 382.067L203.146 385.043L203.244 384.949L206.005 382.241ZM294.636 277.549L297.646 280.617L300.504 277.811L297.494 274.743L294.636 277.549ZM300.55 283.578L303.469 286.555L306.326 283.748L303.406 280.772L300.55 283.578ZM350.078 334.077L353.016 337.071L355.874 334.264L352.936 331.271L350.078 334.077ZM355.92 340.03L358.932 343.099L361.788 340.295L358.778 337.225L355.92 340.03ZM358.641 374.634L355.573 377.645L358.377 380.504L361.446 377.492L358.641 374.634ZM352.615 380.549L349.613 383.497L352.415 386.357L355.418 383.408L352.615 380.549ZM302.113 430.129L299.076 433.112L301.88 435.971L304.916 432.987L302.113 430.129ZM296.116 436.016L293.048 439.028L295.851 441.886L298.919 438.875L296.116 436.016ZM290.089 441.932L277.178 454.608L264.465 441.645L264.367 441.739L261.607 444.447L261.509 444.543L274.222 457.504L261.277 470.213L264.08 473.073L277.122 460.268L279.882 457.559L292.89 444.787L290.085 441.931L290.089 441.932ZM261.563 438.686L258.551 435.616L258.453 435.711L255.692 438.42L255.593 438.514L258.605 441.583L258.703 441.488L261.463 438.78L261.563 438.686ZM255.647 432.655L252.711 429.662L252.613 429.758L249.853 432.466L249.753 432.56L252.691 435.555L252.789 435.461L255.55 432.752L255.647 432.655ZM159.883 372.762L156.815 375.775L156.902 375.866L159.617 378.635L159.705 378.724L162.775 375.712L162.687 375.622L159.971 372.853L159.883 372.762ZM153.857 378.679L150.855 381.628L150.941 381.717L153.656 384.485L153.743 384.576L156.746 381.628L156.658 381.54L153.943 378.77L153.857 378.679ZM103.353 428.26L100.317 431.242L100.403 431.331L103.118 434.1L103.206 434.19L106.244 431.21L106.156 431.119L103.441 428.35L103.353 428.26ZM97.3564 434.144L94.2896 437.157L94.3771 437.248L97.0907 440.016L97.1783 440.107L100.247 437.096L100.159 437.005L97.4439 434.235L97.3564 434.144ZM91.3303 440.061L78.418 452.736L65.7069 439.774L62.8489 442.579L75.5631 455.542L62.617 468.25L62.703 468.34L65.4181 471.109L65.5057 471.2L78.4518 458.49L91.1798 471.469L94.0393 468.663L81.3098 455.685L94.2205 443.011L94.1329 442.922L91.4163 440.152L91.3287 440.062L91.3303 440.061ZM-18.9125 554.079L-6.00333 541.405L-6.08932 541.314L-8.80597 538.546L-8.89352 538.455L-21.8043 551.129L-34.5169 538.168L-37.3748 540.973L-24.5747 554.022L-21.8595 556.792L-9.04095 569.858L-6.18298 567.054L-18.9125 554.077V554.079ZM-104.575 472.466L-101.563 475.535L-98.7051 472.73L-101.717 469.66L-104.575 472.466ZM-98.6606 478.495L-95.7412 481.471L-92.8833 478.667L-95.8027 475.689L-98.6606 478.495ZM-4.34937 374.071L-1.33936 377.141L1.51865 374.336L-1.49139 371.268L-4.34937 374.071ZM1.56314 380.1L4.48254 383.076L7.34052 380.272L4.42111 377.296L1.56314 380.1ZM51.0945 430.6L54.0293 433.593L56.8888 430.789L53.951 427.793L51.0945 430.6ZM56.9349 436.552L59.9464 439.623L62.8028 436.816L59.7928 433.748L56.9349 436.552ZM59.6577 471.155L56.5878 474.168L56.6753 474.259L59.392 477.029L59.478 477.116L62.5479 474.105L62.4604 474.014L59.7452 471.246L59.6577 471.155ZM53.63 477.072L50.6277 480.02L50.7137 480.109L53.4289 482.88L53.5164 482.97L56.5187 480.022L56.4312 479.933L53.7176 477.162L53.63 477.072ZM3.12653 526.652L0.0903931 529.633L0.177917 529.724L2.89154 532.494L2.97906 532.583L6.01825 529.602L5.93073 529.512L3.21408 526.743L3.12653 526.652ZM-2.87045 532.538L-5.93729 535.55L-5.84973 535.64L-3.13614 538.41L-3.04858 538.501L0.0197449 535.488L-0.0677795 535.398L-2.7829 532.627L-2.87045 532.538ZM-37.424 535.208L-40.434 532.14L-43.292 534.946L-40.282 538.014L-37.424 535.208ZM-43.3365 529.181L-46.2743 526.185L-49.1307 528.992L-46.1945 531.985L-43.3365 529.181ZM258.318 473.119L255.249 476.131L258.052 478.989L261.122 475.978L258.318 473.119ZM252.292 479.035L249.288 481.982L252.092 484.841L255.094 481.893L252.292 479.035ZM201.788 528.616L198.752 531.596L201.556 534.456L204.592 531.475L201.788 528.616ZM195.791 534.5L192.724 537.513L195.528 540.372L198.595 537.361L195.791 534.5ZM189.765 540.419L176.854 553.093L164.142 540.13L161.284 542.935L173.998 555.896L161.052 568.606L163.856 571.465L176.8 558.756L179.658 555.95L192.569 543.276L189.765 540.419ZM-6.13998 572.82L-3.12845 575.891L-0.270477 573.084L-3.28201 570.016L-6.13998 572.82ZM-0.225952 578.851L2.69342 581.827L5.55139 579.023L2.63199 576.045L-0.225952 578.851ZM94.0854 474.429L97.0969 477.497L99.9533 474.69L96.9433 471.622L94.0854 474.429ZM99.9994 480.457L102.917 483.433L105.777 480.629L102.857 477.651L99.9994 480.457ZM149.528 530.954L152.466 533.949L155.323 531.145L152.386 528.15L149.528 530.954ZM155.37 536.908L158.381 539.978L161.239 537.172L158.228 534.104L155.37 536.908ZM158.091 571.513L155.024 574.526L157.827 577.382L160.897 574.372L158.091 571.513ZM152.065 577.428L149.062 580.375L151.865 583.234L154.867 580.287L152.065 577.428ZM101.561 627.008L98.5251 629.989L101.329 632.848L104.367 629.868L101.561 627.008ZM95.5658 632.894L92.4974 635.906L95.3016 638.765L98.3685 635.754L95.5658 632.894ZM89.5381 638.811L76.6273 651.485L63.9162 638.522L61.0567 641.328L76.5736 657.147L92.3423 641.669L89.5366 638.81L89.5381 638.811ZM61.0107 635.565L58.0006 632.495L55.1427 635.3L58.1527 638.369L61.0107 635.565ZM55.0981 629.536L52.1603 626.54L49.3039 629.345L52.2402 632.34L55.0981 629.536Z" fill="#CAB3A5" fill-opacity="0.3"/>
</g>
</g>
<defs>
<clipPath id="clip0_183_5387">
<rect width="774" height="696" fill="white" transform="translate(-400)"/>
</clipPath>
</defs>
</svg>
