<svg width="100" height="100" viewBox="0 0 100 100" fill="none" xmlns="http://www.w3.org/2000/svg">
<path d="M35.2625 50.8748C35.2625 48.9748 33.9425 47.8398 31.615 47.8398C30.665 47.8398 30.0225 47.9323 29.685 48.0223V54.1248C30.085 54.2148 30.575 54.2473 31.2475 54.2473C33.73 54.2473 35.2625 52.9898 35.2625 50.8748ZM49.6775 47.8998C48.635 47.8998 47.96 47.9923 47.56 48.0848V61.6048C47.96 61.6973 48.6025 61.6973 49.185 61.6973C53.415 61.7273 56.175 59.3973 56.175 54.4623C56.2075 50.1698 53.6925 47.8998 49.6775 47.8998Z" fill="#2B2A29"/>
<path d="M77.295 39.9573H75.6V31.7798C75.5986 31.7279 75.5936 31.6761 75.585 31.6248C75.5877 31.296 75.4714 30.9772 75.2575 30.7273L61.65 15.1873L61.64 15.1773C61.4672 14.9898 61.2469 14.8525 61.0025 14.7798L60.9275 14.7548C60.8236 14.7289 60.717 14.7155 60.61 14.7148H27.1675C25.64 14.7148 24.4 15.9573 24.4 17.4823V39.9573H22.705C20.52 39.9573 18.75 41.7273 18.75 43.9123V64.4823C18.75 66.6648 20.5225 68.4373 22.705 68.4373H24.4V82.5198C24.4 84.0448 25.64 85.2873 27.1675 85.2873H72.8325C74.3575 85.2873 75.6 84.0448 75.6 82.5198V68.4373H77.295C79.48 68.4373 81.25 66.6648 81.25 64.4823V43.9123C81.25 41.7273 79.4775 39.9573 77.295 39.9573ZM27.1675 17.4823H59.225V31.6423C59.225 32.4073 59.845 33.0248 60.61 33.0248H72.835V39.9573H27.1675V17.4823ZM61.1425 54.3073C61.1425 58.2623 59.7025 60.9923 57.705 62.6773C55.53 64.4848 52.22 65.3448 48.1725 65.3448C45.75 65.3448 44.035 65.1898 42.8675 65.0398V44.7423C44.585 44.4673 46.8225 44.3148 49.185 44.3148C53.1075 44.3148 55.6525 45.0198 57.645 46.5223C59.7925 48.1148 61.1425 50.6598 61.1425 54.3073ZM25.0525 65.1323V44.7423C26.4925 44.4973 28.5175 44.3148 31.3675 44.3148C34.25 44.3148 36.305 44.8673 37.6825 45.9698C39 47.0123 39.8875 48.7298 39.8875 50.7523C39.8875 52.7773 39.215 54.4923 37.9875 55.6573C36.3925 57.1598 34.0325 57.8348 31.2725 57.8348C30.66 57.8348 30.1075 57.8048 29.68 57.7423V65.1323H25.0525ZM72.8325 81.7698H27.1675V68.4373H72.8325V81.7698ZM76.8425 48.2998H68.9V53.0223H76.32V56.8248H68.9V65.1323H64.2125V44.4673H76.8425V48.2998Z" fill="#2B2A29"/>
</svg>
