<svg width="171" height="51" viewBox="0 0 171 51" fill="none" xmlns="http://www.w3.org/2000/svg">
<g clip-path="url(#clip0_183_5298)">
<path fill-rule="evenodd" clip-rule="evenodd" d="M10.6083 32.5334C10.5267 34.079 10.6683 35.9414 10.673 37.5298C10.0478 37.1661 9.8672 37.34 9.17953 37.4921C8.64593 37.61 8.1329 37.7376 7.60691 37.8022C7.75978 35.9695 8.80859 34.6034 6.94573 34.6361L3.78807 34.6798C3.23538 34.6849 2.82894 34.7231 2.74907 35.2485C2.70424 35.5421 3.14871 37.4626 3.24671 37.8475C2.55559 37.8431 0.996438 37.333 0.480735 37.4827C-0.193226 37.6781 0.0336177 39.0303 0.0485619 40.0837C0.0627713 41.1139 -0.127301 42.4602 0.571649 42.6445C0.99376 42.7558 2.63441 42.2418 3.28632 42.2041C2.99234 44.6113 2.23315 45.3732 4.06885 45.341L7.16134 45.3016C8.84787 45.2839 7.95117 44.0902 7.66625 42.1406C8.23094 42.1653 8.78973 42.324 9.29906 42.4094C10.2148 42.5629 10.0801 42.6564 10.7427 42.3185L10.8192 47.3416C10.8829 47.9892 11.4356 48.54 12.1385 48.5733C12.7529 48.6024 13.4168 48.1331 13.9393 47.8572C15.032 47.2805 16.1246 46.6888 17.3665 46.2141C18.4356 45.805 20.02 45.2264 21.2163 45.0532C21.3074 45.8988 21.0607 46.72 21.6428 47.2785C22.2185 47.8305 22.9413 47.6842 23.8367 47.6733C26.4448 47.6411 25.6348 46.1511 25.784 44.4763C30.3913 44.366 33.2567 45.4231 37.1698 46.3393C39.7856 46.952 42.5346 47.7187 45.1178 48.3454C46.9223 48.7833 46.9446 48.1883 47.5193 47.7294C47.7002 47.8777 47.5686 47.7902 47.7325 47.9945C48.2951 48.695 49.5167 48.5644 49.9776 48.3271C50.8768 47.8642 50.6525 46.8199 50.6379 45.761L50.4574 32.8379C50.443 31.7968 50.6094 30.7642 49.6235 30.4035C49.2698 30.2739 48.4836 30.285 48.1287 30.3893C47.5074 30.5722 47.5851 30.8476 47.2877 31.126C47.0414 30.9078 46.8596 30.5615 46.2917 30.4214C45.7452 30.2864 45.3882 30.4134 44.8943 30.5578L36.952 32.7437C32.9798 33.8122 30.1434 34.8653 25.6312 34.898C25.6116 32.7716 25.9022 31.7921 23.5498 31.826C22.6573 31.8389 21.9701 31.7095 21.4194 32.2915C20.9044 32.8357 21.0931 33.6484 21.0815 34.4645C18.8134 34.2299 15.7166 32.8378 13.667 31.8543C13.1373 31.5999 12.4582 31.131 11.7921 31.2348C11.1188 31.3393 10.6429 31.8901 10.6091 32.5343L10.6083 32.5334Z" fill="#A47F65"/>
<path fill-rule="evenodd" clip-rule="evenodd" d="M37.4846 10.2789C37.2261 8.6876 36.2803 7.45307 34.7604 6.89384C34.3167 8.18129 35.0104 10.5044 34.0863 11.6253C33.4669 4.40115 31.9488 5.1625 27.4739 4.24303C26.3795 4.01818 20.0304 0.52817 20.0384 2.81752C20.0407 3.39439 20.9806 4.33007 21.3707 4.78098C23.7076 7.48086 22.8956 6.53165 20.767 8.59107C19.7719 9.55405 18.8008 11.3106 17.8609 12.5117C16.8294 13.8303 15.4254 14.9419 14.4739 16.1361C13.645 17.1757 14.0081 20.5032 14.7771 21.4676C16.3798 21.7871 16.2201 21.0637 17.4228 21.0538C17.3306 22.0155 16.6644 22.157 16.8439 23.1248C17.467 23.7246 19.5008 23.7435 20.2155 23.2588C20.8327 22.8403 21.0787 21.7051 21.8219 21.0472C22.9911 20.0119 26.7213 19.3016 27.9175 20.3134C28.5472 22.0615 26.2851 23.8452 25.2176 25.0502C22.8665 27.7042 20.572 30.6843 19.0619 33.875C16.8127 38.6255 22.1524 39.0039 21.9128 40.1769C21.9094 40.1937 21.4849 40.5298 20.7802 40.8538C19.0376 41.6555 15.7459 41.8781 18.1754 45.1716L16.1664 46.0169L16.2775 48.6323H22.9992H42.8292L43.0575 46.03L40.9247 45.0785C43.0575 41.1538 38.5471 41.4766 37.3215 39.9017C36.5106 38.8591 39.0453 38.6741 39.4766 38.5804C39.6166 38.2266 41.6905 33.3731 41.9383 30.2017C39.5957 31.0375 37.1792 32.439 34.6365 32.6172C35.5951 31.8711 36.7773 31.2186 37.738 30.4317C38.9148 29.4679 42.3243 26.2282 42.5105 24.8564C42.6604 23.7548 42.6322 20.936 42.1548 20.0477C41.596 20.3439 40.0733 22.1342 39.3497 22.7396C38.5995 23.367 36.9891 24.624 36.1713 24.9594C36.6744 24.1569 37.6888 23.1555 38.3197 22.2188C39.3779 20.6471 41.1259 16.565 40.9404 14.9595C40.8504 14.1807 39.8096 12.1307 39.3126 11.5579C38.7779 12.4404 38.5424 14.9134 36.9824 16.8815C36.9914 14.6543 37.8038 12.9902 37.4846 10.2789Z" fill="#2B2A29"/>
<path d="M87.6613 33.9501C87.004 33.9501 86.3759 33.892 85.7769 33.776C85.178 33.6602 84.6433 33.4165 84.1737 33.0454C83.7041 32.674 83.3343 32.129 83.0642 31.41C82.7939 30.6908 82.6587 29.7281 82.6587 28.5223C82.6587 27.3394 82.7704 26.371 82.9936 25.6171C83.2166 24.8633 83.5222 24.2776 83.9093 23.86C84.2972 23.4426 84.7317 23.1585 85.213 23.0077C85.6944 22.8568 86.1932 22.7815 86.7103 22.7815C86.9689 22.7815 87.3326 22.8161 87.8022 22.8859C88.2719 22.9554 88.6597 23.0947 88.965 23.3032C88.965 23.3032 88.965 23.1698 88.965 22.9031C88.965 22.6361 88.965 22.3174 88.965 21.9466C88.965 21.5754 88.965 21.2274 88.965 20.9028C88.965 20.6012 88.9175 20.3576 88.8241 20.1719C88.7298 19.9863 88.5772 19.8472 88.3661 19.7545C88.1542 19.6617 87.8606 19.6155 87.4853 19.6155C86.8271 19.6155 86.1056 19.6852 85.319 19.8242C84.5315 19.9632 83.845 20.1372 83.2575 20.346C83.046 19.9517 82.905 19.5457 82.8348 19.1281C82.7642 18.7107 82.7291 18.3626 82.7291 18.0842C82.7291 17.8754 82.7702 17.6494 82.8526 17.4057C82.9347 17.162 83.058 16.9826 83.2224 16.8665C83.4805 16.681 84.0678 16.4663 84.9837 16.2229C85.8995 15.9792 87.0623 15.8576 88.4712 15.8576C90.092 15.8576 91.2373 16.1708 91.9062 16.797C92.5761 17.4234 92.9106 18.5251 92.9106 20.1023V21.7374C92.9106 23.0595 92.9106 24.4167 92.9106 25.8081C92.9106 27.2 92.8989 28.5047 92.8755 29.7224C92.8522 30.9402 92.838 32.8595 92.7671 33.7178C92.6778 33.7708 88.1492 33.9501 87.6613 33.9501ZM87.9432 30.7492C88.1075 30.7492 88.2844 30.7201 88.4721 30.6622C88.6597 30.6043 88.8007 30.5174 88.8941 30.4016C88.9175 30.1463 88.9358 29.758 88.9475 29.2357C88.9592 28.7139 88.965 28.1514 88.965 27.5485C88.965 26.9453 88.965 26.4004 88.965 25.9132C88.8474 25.7974 88.7006 25.7217 88.5246 25.6872C88.3486 25.6523 88.1901 25.6348 88.0491 25.6348C87.8615 25.6348 87.6913 25.6753 87.5378 25.7567C87.3852 25.8379 87.2567 25.9829 87.1508 26.1915C87.0448 26.4003 86.9631 26.6844 86.9039 27.0437C86.8455 27.4037 86.8163 27.8615 86.8163 28.4184C86.8163 28.8357 86.8338 29.1896 86.8688 29.4794C86.9039 29.7693 86.9631 30.013 87.0448 30.2102C87.1274 30.4074 87.2442 30.5466 87.3977 30.6276C87.5503 30.7087 87.7322 30.7492 87.9432 30.7492Z" fill="#2B2A29"/>
<path d="M102.965 33.661L102.26 31.9962C102.049 31.5106 101.832 30.9618 101.608 30.3489C101.385 29.7363 101.174 29.1408 100.974 28.5627C100.775 27.9847 100.61 27.5048 100.48 27.1233C100.351 26.7418 100.287 26.5511 100.287 26.5511L99.4411 26.031L95.212 16.9443C95.1177 16.7362 95.1119 16.5918 95.1944 16.5106C95.2762 16.4297 95.6232 16.3778 96.2338 16.3546C96.8444 16.3317 97.8904 16.3201 99.3702 16.3201L100.146 18.2277C100.357 18.7596 100.581 19.3662 100.816 20.0486C101.05 20.7306 101.245 21.3261 101.397 21.8346C101.55 22.3434 101.626 22.5977 101.626 22.5977L103.071 23.3607L107.37 32.829C107.511 33.1065 107.535 33.3031 107.441 33.4185C107.347 33.5341 106.977 33.6035 106.331 33.6266C105.685 33.6496 104.563 33.661 102.965 33.661Z" fill="#2B2A29"/>
<path d="M94.6681 33.6612L99.1133 24.0194L101.159 22.5974C101.159 22.5974 101.236 22.3489 101.389 21.852C101.541 21.3548 101.736 20.7653 101.971 20.0829C102.206 19.4007 102.429 18.7824 102.641 18.2274L103.135 16.9788C103.229 16.7477 103.358 16.5915 103.523 16.5106C103.688 16.4297 104.052 16.3778 104.617 16.3546C105.182 16.3317 106.122 16.3201 107.439 16.3201L102.712 26.1352L101.194 26.5512C101.194 26.5512 101.135 26.7364 101.018 27.1064C100.901 27.4763 100.753 27.9503 100.577 28.5284C100.4 29.1063 100.207 29.7075 99.9949 30.332C99.7839 30.9562 99.5837 31.5109 99.3952 31.9965L99.0423 32.9329C98.9489 33.1642 98.7896 33.3317 98.5661 33.4359C98.3433 33.5399 97.9371 33.6035 97.349 33.6266C96.761 33.6496 95.8676 33.6612 94.6681 33.6612Z" fill="#2B2A29"/>
<path d="M119.033 33.9497C117.621 33.9497 116.534 33.7409 115.77 33.3233C115.006 32.9059 114.472 32.3085 114.165 31.5314C113.86 30.7545 113.707 29.8208 113.707 28.7304V16.9002C113.707 16.6683 113.76 16.506 113.866 16.4132C113.971 16.3204 114.312 16.2621 114.889 16.2391C115.465 16.2158 116.434 16.2044 117.798 16.2044V28.9741C117.798 29.3219 117.827 29.6175 117.886 29.8612C117.945 30.1049 118.057 30.2903 118.221 30.4182C118.385 30.5457 118.632 30.6095 118.962 30.6095C119.197 30.6095 119.432 30.575 119.667 30.5052C119.902 30.4356 120.114 30.3196 120.302 30.1573V16.9004C120.302 16.6686 120.355 16.5063 120.461 16.4135C120.567 16.3207 120.889 16.2623 121.431 16.2393C121.971 16.216 122.911 16.2047 124.252 16.2047V33.7201C124.207 33.7458 119.394 33.9502 119.032 33.9502L119.033 33.9497Z" fill="#2B2A29"/>
<path d="M141.713 33.719C141.817 29.814 141.984 26.0001 142.395 22.1175C143.215 14.3611 142.283 19.8938 141.045 23.0713L139.36 27.6841C139.313 27.8459 139.184 27.927 138.973 27.927C138.56 27.927 138.264 27.927 137.851 27.927C137.443 27.927 137.37 27.9476 137.281 27.7043C136.727 26.1874 136.228 24.6047 135.706 23.0713C134.422 19.2663 133.647 14.6735 134.439 22.0453C134.71 25.8937 134.938 29.3291 135.004 33.0252C135.004 33.2564 134.934 33.418 134.794 33.5105C134.654 33.6033 134.308 33.661 133.758 33.6842C133.207 33.7072 132.324 33.7187 131.106 33.7187V10.1349C131.106 9.78815 131.176 9.58579 131.316 9.52783C131.457 9.47013 131.621 9.44144 131.808 9.44144H134.794C135.848 12.6834 137.156 16.1685 138.025 19.4298C138.142 19.8692 138.236 20.2389 138.306 20.5398C138.377 20.8401 138.429 21.0718 138.464 21.2333C138.499 21.3954 138.517 21.4762 138.517 21.4762C138.517 21.4762 138.528 21.3954 138.552 21.2333C138.575 21.0716 138.622 20.8344 138.692 20.5224C138.763 20.2102 138.85 19.846 138.955 19.4298C139.73 16.3704 140.829 13.1767 141.747 10.1352C141.841 9.88092 141.929 9.70171 142.011 9.59764C142.093 9.49356 142.239 9.44163 142.45 9.44163C143.55 9.44163 144.329 9.44163 144.785 9.44163C145.242 9.44163 145.518 9.44163 145.611 9.44163C145.705 9.44163 145.751 9.44163 145.751 9.44163V33.0254C145.751 33.2565 145.693 33.4183 145.576 33.5108C145.458 33.6035 145.125 33.6613 144.575 33.6844C144.025 33.7074 143.071 33.719 141.713 33.719Z" fill="#2B2A29"/>
<path d="M153.264 33.9501C152.607 33.9501 151.98 33.892 151.382 33.776C150.784 33.6602 150.251 33.4165 149.783 33.0454C149.313 32.674 148.944 32.129 148.675 31.41C148.405 30.6908 148.27 29.7281 148.27 28.5223C148.27 27.3394 148.381 26.371 148.604 25.6171C148.827 24.8633 149.131 24.2776 149.518 23.86C149.905 23.4426 150.339 23.1585 150.819 23.0077C151.3 22.8568 151.798 22.7815 152.313 22.7815C152.572 22.7815 152.935 22.8161 153.404 22.8859C153.872 22.9554 154.26 23.0947 154.564 23.3032C154.564 23.3032 154.564 23.1698 154.564 22.9031C154.564 22.6361 154.564 22.3174 154.564 21.9466C154.564 21.5754 154.564 21.2274 154.564 20.9028C154.564 20.6012 154.517 20.3576 154.424 20.1719C154.33 19.9863 154.177 19.8472 153.966 19.7545C153.756 19.6617 153.462 19.6155 153.088 19.6155C152.431 19.6155 151.71 19.6852 150.925 19.8242C150.14 19.9632 149.454 20.1372 148.868 20.346C148.657 19.9517 148.516 19.5457 148.446 19.1281C148.375 18.7107 148.34 18.3626 148.34 18.0842C148.34 17.8754 148.381 17.6494 148.463 17.4057C148.546 17.162 148.668 16.9826 148.833 16.8665C149.09 16.681 149.677 16.4663 150.591 16.2229C151.504 15.9792 152.665 15.8576 154.072 15.8576C155.689 15.8576 156.832 16.1708 157.5 16.797C158.168 17.4234 158.502 18.5251 158.502 20.1023V21.7374C158.502 23.0595 158.502 24.4167 158.502 25.8081C158.502 27.2 158.49 28.5047 158.467 29.7224C158.444 30.9402 158.57 32.8605 158.5 33.7187C158.419 33.7677 153.769 33.9501 153.264 33.9501ZM153.545 30.7492C153.709 30.7492 153.885 30.7201 154.072 30.6622C154.259 30.6043 154.4 30.5174 154.494 30.4016C154.517 30.1463 154.535 29.758 154.546 29.2357C154.558 28.7139 154.564 28.1514 154.564 27.5485C154.564 26.9453 154.564 26.4004 154.564 25.9132C154.447 25.7974 154.3 25.7217 154.124 25.6872C153.949 25.6523 153.791 25.6348 153.65 25.6348C153.463 25.6348 153.293 25.6753 153.14 25.7567C152.987 25.8379 152.859 25.9829 152.754 26.1915C152.648 26.4003 152.566 26.6844 152.507 27.0437C152.449 27.4037 152.419 27.8615 152.419 28.4184C152.419 28.8357 152.437 29.1896 152.472 29.4794C152.507 29.7693 152.566 30.013 152.648 30.2102C152.73 30.4074 152.847 30.5466 153 30.6276C153.152 30.7087 153.334 30.7492 153.545 30.7492Z" fill="#2B2A29"/>
<path d="M163.77 33.719V19.6727H160.456C160.456 18.7249 160.467 18.0139 160.491 17.5399C160.514 17.0659 160.585 16.7536 160.702 16.6035C160.82 16.453 161.008 16.3779 161.266 16.3779H171C171 17.3488 170.988 18.0713 170.965 18.5456C170.942 19.0196 170.877 19.3258 170.771 19.4646C170.665 19.6032 170.483 19.6725 170.224 19.6725H167.72V33.0252C167.72 33.2563 167.668 33.4181 167.562 33.5105C167.456 33.6033 167.132 33.661 166.592 33.6842C166.051 33.7071 165.111 33.719 163.77 33.719Z" fill="#2B2A29"/>
<path d="M80.315 33.719V10.0787C80.315 9.84709 80.2623 9.68498 80.1566 9.59228C80.0509 9.49933 79.7281 9.44144 79.1882 9.41821C78.6479 9.39521 77.709 9.38361 76.3705 9.38361V30.0686H73.764V10.0787C73.764 9.84709 73.711 9.68498 73.6056 9.59228C73.4999 9.49933 73.1769 9.44144 72.6369 9.41821C72.0967 9.39521 71.1576 9.38361 69.8192 9.38361V30.0686H67.2127V10.0787C67.2127 9.84709 67.16 9.68498 67.0543 9.59228C66.9486 9.49933 66.6256 9.44144 66.0859 9.41821C65.5456 9.39521 64.6067 9.38361 63.2683 9.38361V31.911C63.2683 32.3516 63.2914 32.6992 63.3386 32.954C63.3854 33.2092 63.5264 33.3885 63.7611 33.4929C63.9958 33.5972 64.3894 33.6608 64.9415 33.6841C65.4933 33.7071 66.2855 33.7187 67.3186 33.7187L80.315 33.719Z" fill="#2B2A29"/>
<path d="M69.6227 44.7447C69.6227 44.9657 69.608 45.1749 69.5793 45.3721C69.5504 45.5692 69.5057 45.755 69.4472 45.9282C69.3889 46.0998 69.3178 46.2596 69.235 46.4055C69.1519 46.5515 69.0563 46.6849 68.9487 46.8041C68.8413 46.9234 68.7227 47.0285 68.594 47.1188C68.4659 47.2087 68.3259 47.285 68.1765 47.3463C68.027 47.4076 67.8694 47.4542 67.705 47.4846C67.54 47.5157 67.3677 47.531 67.1887 47.531C67.0045 47.531 66.8288 47.5143 66.6634 47.4819C66.4965 47.4489 66.3387 47.399 66.1908 47.3329C66.0445 47.2674 65.9077 47.189 65.783 47.0985C65.6571 47.0073 65.5424 46.9029 65.4393 46.7873C65.3378 46.6734 65.2463 46.5458 65.1672 46.4077C65.0878 46.2697 65.0206 46.1206 64.9659 45.9623C64.912 45.8057 64.8706 45.6399 64.843 45.4671C64.8198 45.3246 64.8057 45.1767 64.8008 45.0251H63.8185V47.4443H63.1511V42.1883H63.8185V44.4118H64.8299C64.846 44.2665 64.8709 44.1259 64.9033 43.99C64.9417 43.8281 64.9922 43.6729 65.0542 43.5255C65.1165 43.3774 65.1897 43.2396 65.2732 43.1132C65.357 42.9867 65.452 42.8701 65.5563 42.7652C65.661 42.6597 65.7766 42.5657 65.9016 42.4838C66.0266 42.4023 66.162 42.3323 66.308 42.2744C66.4516 42.2168 66.6063 42.1733 66.7697 42.1443C66.9327 42.1156 67.1035 42.101 67.2812 42.101C67.4573 42.101 67.627 42.1173 67.7886 42.1499C67.9501 42.1824 68.104 42.2317 68.2485 42.2968C68.3927 42.3619 68.5269 42.4406 68.6504 42.5326C68.7739 42.6245 68.8872 42.7298 68.9889 42.8473C69.0904 42.9641 69.1808 43.0928 69.2587 43.2323C69.3362 43.3708 69.4036 43.5221 69.4587 43.6843C69.5138 43.8457 69.5552 44.0148 69.5822 44.191C69.6097 44.3678 69.6227 44.5526 69.6227 44.7447ZM68.9338 44.8135C68.9338 44.6381 68.9232 44.474 68.9029 44.322C68.8823 44.1678 68.8511 44.0242 68.8107 43.8928C68.7705 43.7627 68.7208 43.6418 68.6629 43.5313C68.6064 43.4237 68.5409 43.3259 68.4679 43.2396C68.3951 43.1541 68.3135 43.0773 68.2245 43.0118C68.137 42.9467 68.0407 42.8919 67.9365 42.8477C67.8334 42.8034 67.7223 42.7698 67.6057 42.7479C67.4885 42.7257 67.364 42.7145 67.2334 42.7145C66.9731 42.7145 66.7356 42.7624 66.5232 42.8577C66.4163 42.9052 66.3168 42.964 66.2259 43.0327C66.1347 43.1013 66.0502 43.181 65.9742 43.27C65.898 43.3602 65.8297 43.4603 65.7706 43.5687C65.711 43.6785 65.6592 43.7993 65.6164 43.9304C65.5739 44.0599 65.5421 44.199 65.5208 44.3456C65.4995 44.4926 65.4884 44.6488 65.4884 44.813C65.4884 44.9817 65.4985 45.1405 65.5186 45.2884C65.5387 45.4363 65.5686 45.5765 65.6085 45.7087C65.6477 45.8395 65.6963 45.9603 65.7522 46.0691C65.8086 46.1789 65.874 46.2793 65.9465 46.3686C66.0198 46.4576 66.0999 46.5359 66.1869 46.6025C66.2737 46.6693 66.3703 46.7272 66.4744 46.7749C66.5781 46.8217 66.6893 46.8578 66.8058 46.8812C66.9229 46.9048 67.0489 46.917 67.1826 46.917C67.3169 46.917 67.4446 46.9054 67.5645 46.8831C67.6839 46.8606 67.7982 46.8261 67.9056 46.781C68.013 46.7361 68.1125 46.6806 68.2035 46.615C68.2936 46.5496 68.3772 46.4723 68.4529 46.384C68.5281 46.297 68.5958 46.1979 68.6543 46.0892C68.7139 45.9799 68.7647 45.8588 68.8066 45.7273C68.8482 45.5953 68.8804 45.453 68.9014 45.3016C68.9225 45.1501 68.9338 44.9873 68.9338 44.8135ZM73.148 45.474V47.4441H72.4807V42.188H73.9054C74.0443 42.188 74.1767 42.1968 74.301 42.2136C74.426 42.2305 74.5433 42.2568 74.6531 42.2916C74.7634 42.3266 74.8656 42.3698 74.958 42.42C75.0506 42.4703 75.1369 42.5299 75.2144 42.5973C75.2915 42.6629 75.3602 42.7384 75.42 42.8224C75.4791 42.9052 75.5278 42.9956 75.5672 43.0922C75.6069 43.1882 75.6368 43.2923 75.6567 43.4022C75.676 43.512 75.6858 43.6283 75.6858 43.75C75.6858 43.8728 75.6746 43.9919 75.6526 44.1065C75.6307 44.2213 75.5964 44.3321 75.5523 44.4373C75.5077 44.5442 75.4533 44.6427 75.3903 44.7334C75.3268 44.8246 75.2523 44.9088 75.1693 44.9858C75.0854 45.064 74.9928 45.133 74.8923 45.1923C74.7916 45.2514 74.6813 45.3031 74.5637 45.3461C74.4458 45.3883 74.3186 45.4201 74.1846 45.4416C74.051 45.4626 73.911 45.4736 73.7657 45.4736L73.148 45.474ZM73.148 42.809V44.8531H73.7363C73.9492 44.8531 74.1353 44.8293 74.2936 44.7819C74.4477 44.7356 74.5786 44.6661 74.6832 44.5742C74.7866 44.4827 74.865 44.3712 74.917 44.2418C74.9697 44.1101 74.9965 43.9576 74.9965 43.7851C74.9965 43.1339 74.6036 42.8086 73.8184 42.8086L73.148 42.809ZM82.0946 47.3509C82.0946 46.0136 82.0647 44.6475 82.0976 43.3139C81.1893 44.696 80.1507 46.0796 79.1995 47.4441H78.5559V42.188H79.2236C79.2236 43.5509 79.2522 44.9383 79.2203 46.2977C80.1658 44.9231 81.134 43.5533 82.0944 42.188H82.762V47.4441H82.0946V47.3509ZM89.6349 48.7125V47.4441H85.9763V48.8057H85.324V46.8305H85.7719L85.9154 46.5489L86.0747 46.2021L86.229 45.8327L86.3767 45.449L86.5152 45.0507L86.6386 44.6523C86.6786 44.5172 86.7162 44.3817 86.7504 44.245L86.8455 43.8377L86.9239 43.4391L86.989 43.0354C87.0065 42.908 87.0215 42.7789 87.0323 42.6494C87.0432 42.5191 87.0507 42.3946 87.0548 42.2778L87.0573 42.1873H89.5665V46.83H90.273V48.8052H89.6349V48.7125ZM88.8991 42.8086H87.6596L87.6404 43.0222C87.6287 43.131 87.6137 43.2413 87.5962 43.3532C87.5587 43.5827 87.512 43.8227 87.4552 44.0729L87.3618 44.4523L87.255 44.8379L87.1399 45.2196L87.0123 45.6019L86.8763 45.9703L86.7354 46.3247L86.5877 46.6589L86.5051 46.8307H88.9V42.809L88.8991 42.8086ZM96.4649 47.3506C96.4649 46.0134 96.434 44.6473 96.4674 43.3137C95.559 44.6958 94.5205 46.0793 93.5687 47.4439H92.9256V42.1878H93.5929C93.5929 43.5506 93.6221 44.938 93.5904 46.2974C94.5355 44.9228 95.5039 43.553 96.464 42.1878H97.1313V47.4439H96.4649V47.3506ZM103.151 47.3506V45.2044C103.058 45.2444 102.965 45.2819 102.872 45.3162C102.736 45.3661 102.601 45.4103 102.469 45.4469C102.335 45.4847 102.2 45.5132 102.068 45.5323C101.934 45.5511 101.798 45.561 101.667 45.561C101.552 45.561 101.441 45.5526 101.337 45.5366C101.233 45.5207 101.136 45.4964 101.048 45.4645C100.958 45.4334 100.875 45.3935 100.799 45.3475C100.724 45.3016 100.656 45.2474 100.595 45.1865C100.534 45.1267 100.48 45.0596 100.435 44.9867C100.39 44.9144 100.351 44.8353 100.321 44.7513C100.292 44.6683 100.269 44.5795 100.254 44.4851C100.239 44.3903 100.231 44.2923 100.231 44.1915V42.1876H100.898V44.1529C100.898 44.2188 100.903 44.2795 100.912 44.3345C100.921 44.3915 100.934 44.4451 100.952 44.4941C100.968 44.5418 100.991 44.5879 101.017 44.6297C101.042 44.6707 101.071 44.7088 101.104 44.7425C101.138 44.7758 101.176 44.8065 101.218 44.8321C101.26 44.8579 101.306 44.8804 101.356 44.8982C101.408 44.9168 101.465 44.931 101.525 44.9402C101.585 44.9491 101.652 44.9542 101.726 44.9542C101.837 44.9542 101.952 44.9465 102.068 44.9306C102.184 44.9146 102.306 44.8905 102.43 44.8582C102.557 44.8254 102.685 44.7858 102.813 44.7411C102.926 44.7009 103.04 44.6569 103.151 44.6089V42.1873H103.819V47.4434H103.151V47.3506ZM106.983 47.3506V42.1878H109.683V42.8086H107.65V44.4765H109.533V45.0901H107.65V46.8305H109.799V47.4439H106.983V47.3506ZM116.298 47.2467C116.092 47.3413 115.872 47.4127 115.638 47.4599C115.404 47.507 115.156 47.531 114.895 47.531C114.708 47.531 114.527 47.5143 114.356 47.4819C114.184 47.4491 114.019 47.3994 113.865 47.3338C113.711 47.2686 113.567 47.19 113.435 47.0985C113.302 47.0068 113.18 46.9024 113.073 46.7863C112.963 46.6708 112.866 46.5431 112.782 46.4046C112.697 46.2663 112.626 46.1157 112.566 45.9558C112.507 45.7963 112.463 45.6291 112.434 45.4546C112.405 45.2801 112.39 45.0991 112.39 44.9136C112.39 44.7174 112.406 44.5259 112.437 44.3413C112.468 44.1567 112.515 43.9792 112.577 43.8091C112.64 43.6375 112.717 43.477 112.806 43.3291C112.895 43.1797 112.999 43.041 113.116 42.915C113.233 42.7886 113.363 42.6748 113.505 42.5754C113.647 42.4757 113.802 42.3894 113.967 42.3182C114.133 42.2462 114.31 42.1915 114.497 42.1553C114.682 42.1193 114.877 42.1012 115.081 42.1012C115.305 42.1012 115.518 42.1186 115.72 42.1523C115.922 42.1861 116.113 42.2377 116.292 42.3055L116.353 42.3287V43.0447L116.216 42.9771C116.039 42.8902 115.855 42.8241 115.664 42.7805C115.475 42.7365 115.278 42.7148 115.075 42.7148C114.754 42.7148 114.47 42.7688 114.224 42.8764C114.1 42.9302 113.987 42.9944 113.884 43.0685C113.781 43.143 113.687 43.2292 113.602 43.3245C113.517 43.4202 113.443 43.5253 113.378 43.6386C113.314 43.752 113.259 43.8758 113.213 44.0078C113.169 44.1389 113.135 44.2776 113.113 44.4219C113.09 44.5674 113.079 44.7196 113.079 44.8774C113.079 45.0193 113.089 45.1571 113.109 45.2896C113.129 45.4225 113.159 45.5509 113.2 45.6747C113.24 45.799 113.29 45.9147 113.349 46.0221C113.408 46.1293 113.476 46.2294 113.555 46.3211C113.632 46.4123 113.719 46.4946 113.816 46.5675C113.912 46.6393 114.019 46.7026 114.135 46.7561C114.251 46.81 114.377 46.8508 114.511 46.8773C114.645 46.904 114.792 46.9178 114.949 46.9178C115.429 46.9178 115.851 46.8189 116.212 46.622L116.353 46.5455V47.2221L116.298 47.2472L116.298 47.2467ZM121.995 47.4112L119.944 45.0854V47.4439H119.277V42.1878H119.944V44.4158L121.938 42.1878H122.797L120.484 44.7279L122.944 47.4439H122.024L121.995 47.4112ZM127.552 47.5306C127.36 47.5306 127.177 47.5133 127.003 47.4785C126.829 47.4438 126.664 47.3917 126.51 47.322C126.356 47.2529 126.212 47.1707 126.081 47.0759C125.95 46.9816 125.83 46.8734 125.722 46.7533C125.614 46.6331 125.518 46.5021 125.436 46.3625C125.353 46.2207 125.283 46.0687 125.225 45.908C125.168 45.7471 125.124 45.5792 125.096 45.4059C125.067 45.2314 125.053 45.0529 125.053 44.8704C125.053 44.6678 125.067 44.4733 125.095 44.2879C125.124 44.1019 125.167 43.9239 125.225 43.7545C125.282 43.5849 125.353 43.4271 125.436 43.2813C125.522 43.1344 125.62 42.9993 125.73 42.8774C125.842 42.7546 125.966 42.6451 126.102 42.55C126.238 42.4549 126.387 42.3728 126.547 42.3055C126.708 42.2372 126.88 42.1861 127.063 42.1521C127.246 42.1186 127.439 42.1014 127.641 42.1014C127.83 42.1014 128.009 42.1183 128.179 42.1514C128.348 42.1845 128.509 42.2355 128.661 42.3028C128.812 42.3697 128.952 42.4494 129.08 42.5413C129.208 42.6342 129.327 42.7409 129.434 42.8598C129.54 42.9783 129.634 43.1081 129.715 43.2476C129.796 43.3858 129.865 43.5371 129.922 43.6988C129.978 43.859 130.02 44.0272 130.048 44.2016C130.076 44.3771 130.09 44.5582 130.09 44.7441C130.09 44.9407 130.077 45.1313 130.049 45.3145C130.023 45.4964 129.981 45.673 129.926 45.8424C129.871 46.0127 129.802 46.1723 129.721 46.3184C129.64 46.4666 129.545 46.6034 129.437 46.7274C129.33 46.8522 129.208 46.9649 129.075 47.0638C128.942 47.1622 128.796 47.2469 128.638 47.3178C128.48 47.389 128.309 47.4431 128.128 47.4785C127.948 47.514 127.755 47.5319 127.552 47.5319V47.5306ZM127.591 42.7143C127.442 42.7143 127.301 42.728 127.17 42.7555C127.04 42.7829 126.918 42.8246 126.805 42.8793C126.69 42.935 126.584 43.0007 126.488 43.0753C126.393 43.1496 126.306 43.2346 126.227 43.3294C126.149 43.4239 126.079 43.5274 126.019 43.6382C125.959 43.7501 125.909 43.8705 125.869 43.9982C125.828 44.1264 125.797 44.2608 125.776 44.399C125.755 44.5377 125.743 44.6805 125.743 44.8248C125.741 44.9643 125.75 45.1014 125.768 45.2339C125.786 45.3678 125.814 45.4978 125.851 45.6245C125.889 45.7502 125.936 45.8694 125.992 45.9808C126.048 46.0918 126.113 46.1956 126.187 46.2914C126.261 46.3865 126.345 46.4721 126.438 46.5474C126.532 46.6239 126.636 46.691 126.75 46.7482C126.862 46.8039 126.985 46.8467 127.117 46.8747C127.251 46.9031 127.394 46.9178 127.548 46.9178C127.703 46.9178 127.848 46.9045 127.982 46.8787C128.117 46.8527 128.241 46.8138 128.354 46.7626C128.47 46.71 128.576 46.648 128.672 46.5764C128.767 46.5047 128.854 46.4225 128.931 46.331C129.007 46.2393 129.076 46.137 129.134 46.0262C129.193 45.9158 129.242 45.7964 129.281 45.6682C129.32 45.5382 129.351 45.4013 129.37 45.2604C129.39 45.119 129.4 44.9697 129.4 44.8138C129.4 44.6679 129.392 44.5266 129.374 44.3917C129.357 44.2566 129.33 44.1229 129.294 43.9924C129.26 43.8664 129.215 43.7471 129.16 43.6353C129.107 43.5253 129.042 43.4217 128.969 43.3272C128.896 43.233 128.813 43.1486 128.721 43.0748C128.628 43.0005 128.524 42.9349 128.411 42.8796C128.298 42.8248 128.174 42.783 128.04 42.7558C127.903 42.7283 127.753 42.7143 127.591 42.7143ZM132.949 47.3505V42.1876H135.649V42.8084H133.616V44.4762H135.5V45.0898H133.616V46.8303H135.764V47.4436H132.949V47.3505ZM147.983 45.8622C147.983 45.9741 147.973 46.0837 147.954 46.1896C147.935 46.2963 147.906 46.3984 147.867 46.4947C147.828 46.5928 147.781 46.6842 147.724 46.7672C147.668 46.8505 147.603 46.9279 147.53 46.9989C147.457 47.0696 147.374 47.133 147.284 47.1881C147.195 47.2423 147.098 47.2894 146.993 47.3273C146.889 47.3659 146.776 47.3951 146.656 47.4143C146.538 47.4337 146.412 47.4434 146.282 47.4434H144.712V42.1873H147.565V42.8081H145.379V44.3891H146.358C146.475 44.3891 146.59 44.3966 146.7 44.4111C146.808 44.4258 146.912 44.4483 147.012 44.4781C147.114 44.5083 147.207 44.5464 147.293 44.592C147.379 44.6381 147.46 44.6929 147.532 44.7553C147.604 44.8178 147.669 44.8886 147.725 44.9663C147.78 45.0433 147.827 45.1289 147.867 45.2215C147.906 45.3142 147.936 45.4145 147.955 45.5219C147.974 45.6284 147.983 45.7418 147.983 45.8622ZM147.294 45.8936C147.294 45.7343 147.271 45.5975 147.226 45.4843C147.182 45.3753 147.115 45.286 147.027 45.2182C146.937 45.1479 146.823 45.0941 146.686 45.0584C146.546 45.0217 146.382 45.0027 146.194 45.0027H145.38V46.83H146.204C146.301 46.83 146.389 46.824 146.471 46.8124C146.553 46.8005 146.629 46.7827 146.698 46.76C146.766 46.7376 146.829 46.71 146.886 46.6782C146.941 46.6471 146.991 46.6112 147.034 46.5714C147.077 46.532 147.115 46.4881 147.148 46.4398C147.179 46.3929 147.207 46.3407 147.228 46.2832C147.25 46.2258 147.267 46.1638 147.278 46.0996C147.289 46.0356 147.294 45.9669 147.294 45.8936ZM157.28 44.7442C157.28 44.9652 157.265 45.1744 157.237 45.3716C157.207 45.5687 157.162 45.7545 157.104 45.9278C157.046 46.0993 156.975 46.2591 156.892 46.4051C156.809 46.5518 156.713 46.6853 156.606 46.804C156.498 46.9229 156.38 47.0281 156.251 47.1183C156.123 47.2083 155.983 47.2845 155.833 47.3459C155.684 47.4071 155.527 47.4537 155.361 47.4841C155.197 47.5153 155.024 47.5305 154.846 47.5305C154.662 47.5305 154.486 47.5138 154.32 47.4814C154.154 47.4484 153.995 47.3985 153.847 47.3324C153.701 47.2669 153.565 47.1885 153.44 47.098C153.314 47.0068 153.199 46.9024 153.096 46.7868C152.994 46.6729 152.903 46.5453 152.824 46.4072C152.745 46.2692 152.677 46.1201 152.623 45.9618C152.569 45.8053 152.527 45.6395 152.499 45.4667C152.477 45.3241 152.463 45.1762 152.458 45.0247H151.475V47.4439H150.808V42.1878H151.475V44.4113H152.487C152.503 44.2661 152.528 44.1254 152.56 43.9896C152.599 43.8277 152.649 43.6725 152.711 43.525C152.773 43.3769 152.846 43.2392 152.93 43.1127C153.014 42.9862 153.108 42.8697 153.213 42.7647C153.318 42.6592 153.434 42.5652 153.559 42.4833C153.684 42.4018 153.819 42.3318 153.965 42.274C154.109 42.2163 154.263 42.1728 154.426 42.1438C154.59 42.1152 154.761 42.1004 154.939 42.1004C155.115 42.1004 155.284 42.1168 155.446 42.1494C155.607 42.182 155.761 42.2312 155.905 42.2963C156.05 42.3615 156.184 42.4401 156.307 42.5321C156.431 42.624 156.544 42.7293 156.646 42.8468C156.747 42.9636 156.838 43.0923 156.915 43.2318C156.993 43.3704 157.061 43.5216 157.116 43.6838C157.171 43.8452 157.212 44.0143 157.239 44.1905C157.267 44.3674 157.28 44.5521 157.28 44.7442ZM156.591 44.813C156.591 44.6376 156.58 44.4735 156.56 44.3215C156.539 44.1673 156.508 44.0238 156.468 43.8923C156.427 43.7622 156.377 43.6413 156.32 43.5308C156.263 43.4232 156.198 43.3255 156.125 43.2391C156.052 43.1537 155.97 43.0767 155.881 43.0113C155.794 42.9462 155.698 42.8914 155.593 42.8473C155.49 42.8029 155.379 42.7694 155.262 42.7474C155.145 42.7252 155.021 42.7141 154.89 42.7141C154.63 42.7141 154.393 42.7619 154.18 42.8572C154.074 42.9047 153.973 42.9635 153.882 43.0323C153.792 43.1008 153.706 43.1807 153.631 43.2695C153.555 43.3598 153.486 43.4599 153.427 43.5682C153.368 43.678 153.316 43.7989 153.274 43.9299C153.231 44.0594 153.198 44.1985 153.178 44.3451C153.156 44.4921 153.145 44.6483 153.145 44.8125C153.145 44.9812 153.155 45.14 153.175 45.2879C153.195 45.4358 153.226 45.5768 153.265 45.7083C153.304 45.8391 153.353 45.9599 153.409 46.0687C153.465 46.1785 153.53 46.2788 153.603 46.3681C153.676 46.4572 153.757 46.5354 153.843 46.602C153.931 46.6688 154.028 46.7267 154.131 46.7745C154.234 46.8212 154.346 46.8573 154.462 46.8807C154.58 46.9044 154.706 46.9166 154.839 46.9166C154.974 46.9166 155.102 46.905 155.221 46.8826C155.341 46.8601 155.456 46.8256 155.562 46.7805C155.67 46.7356 155.769 46.6802 155.86 46.6145C155.95 46.5491 156.034 46.4719 156.11 46.3836C156.185 46.2965 156.252 46.1974 156.312 46.0888C156.371 45.9795 156.422 45.8583 156.463 45.7268C156.506 45.5949 156.537 45.4525 156.558 45.3012C156.579 45.1497 156.59 44.9865 156.59 44.8128L156.591 44.813ZM160.805 45.4735V47.4436H160.138V42.1876H161.562C161.701 42.1876 161.834 42.1963 161.958 42.2131C162.082 42.23 162.201 42.2563 162.31 42.2911C162.42 42.3261 162.523 42.3693 162.615 42.4195C162.708 42.4699 162.794 42.5294 162.871 42.5968C162.948 42.6624 163.017 42.7379 163.077 42.822C163.136 42.9047 163.185 42.9951 163.224 43.0917C163.264 43.1877 163.294 43.2918 163.313 43.4018C163.333 43.5115 163.343 43.6277 163.343 43.7494C163.343 43.8722 163.332 43.9915 163.309 44.106C163.287 44.2207 163.253 44.3311 163.209 44.4362C163.166 44.542 163.111 44.6415 163.047 44.7332C162.984 44.8242 162.91 44.9084 162.826 44.9853C162.742 45.0635 162.649 45.1325 162.549 45.1918C162.448 45.251 162.338 45.3026 162.221 45.3456C162.103 45.3878 161.975 45.4196 161.841 45.4411C161.708 45.4621 161.567 45.4732 161.422 45.4732L160.805 45.4735ZM160.805 42.8084V44.8526H161.393C161.606 44.8526 161.792 44.8288 161.95 44.7814C162.105 44.7351 162.236 44.6655 162.34 44.5736C162.443 44.4822 162.522 44.3707 162.574 44.2414C162.627 44.1096 162.654 43.9571 162.654 43.7846C162.654 43.1334 162.261 42.8081 161.475 42.8081L160.805 42.8084ZM168.403 47.5306C168.211 47.5306 168.028 47.5133 167.854 47.4785C167.681 47.4438 167.516 47.3917 167.361 47.322C167.207 47.2529 167.064 47.1707 166.933 47.0759C166.802 46.9816 166.682 46.8734 166.573 46.7533C166.465 46.6331 166.37 46.5021 166.287 46.3625C166.204 46.2207 166.134 46.0687 166.076 45.908C166.018 45.7463 165.976 45.5787 165.948 45.4059C165.919 45.231 165.904 45.0526 165.904 44.8704C165.904 44.6678 165.918 44.4735 165.947 44.2879C165.975 44.1024 166.018 43.9239 166.075 43.7545C166.133 43.5849 166.204 43.4271 166.288 43.2813C166.373 43.1344 166.471 42.9993 166.582 42.8774C166.692 42.7546 166.818 42.6451 166.953 42.55C167.089 42.4549 167.238 42.3728 167.398 42.3055C167.559 42.2372 167.732 42.1861 167.915 42.1521C168.097 42.1186 168.29 42.1014 168.493 42.1014C168.681 42.1014 168.86 42.1183 169.031 42.1514C169.2 42.1845 169.361 42.2355 169.512 42.3028C169.664 42.3697 169.803 42.4494 169.931 42.5413C170.059 42.6342 170.178 42.7409 170.284 42.8598C170.391 42.9783 170.485 43.1081 170.566 43.2476C170.646 43.3858 170.716 43.5371 170.772 43.6988C170.829 43.8594 170.872 44.0277 170.899 44.2016C170.927 44.3773 170.942 44.5585 170.942 44.7441C170.942 44.9407 170.927 45.1313 170.9 45.3145C170.873 45.4964 170.832 45.673 170.777 45.8424C170.722 46.0127 170.653 46.1723 170.572 46.3184C170.49 46.4666 170.395 46.6034 170.288 46.7274C170.181 46.8524 170.06 46.9649 169.926 47.0638C169.792 47.1622 169.647 47.2469 169.489 47.3178C169.331 47.389 169.161 47.4431 168.979 47.4785C168.799 47.514 168.606 47.5319 168.403 47.5319V47.5306ZM168.443 42.7143C168.293 42.7143 168.152 42.728 168.021 42.7555C167.891 42.7829 167.769 42.8246 167.657 42.8793C167.541 42.935 167.436 43.0007 167.34 43.0753C167.245 43.1496 167.157 43.2346 167.079 43.3294C167 43.4239 166.93 43.5277 166.871 43.6382C166.811 43.7501 166.76 43.8705 166.72 43.9982C166.68 44.1264 166.648 44.2608 166.627 44.399C166.607 44.5377 166.594 44.6805 166.593 44.8248C166.592 44.9643 166.601 45.1014 166.619 45.2339C166.637 45.3678 166.666 45.4976 166.702 45.6243C166.74 45.7498 166.788 45.8694 166.843 45.9808C166.899 46.0918 166.964 46.1956 167.039 46.2914C167.112 46.3865 167.196 46.4721 167.29 46.5474C167.383 46.6239 167.487 46.691 167.601 46.7482C167.713 46.8039 167.836 46.8467 167.969 46.8747C168.101 46.9031 168.246 46.9178 168.399 46.9178C168.554 46.9178 168.699 46.9045 168.834 46.8787C168.967 46.8527 169.092 46.8138 169.206 46.7626C169.322 46.71 169.428 46.648 169.524 46.5764C169.619 46.5047 169.705 46.4225 169.782 46.331C169.858 46.2393 169.926 46.137 169.986 46.0262C170.044 45.9158 170.093 45.7964 170.132 45.6682C170.172 45.5377 170.203 45.401 170.222 45.2604C170.242 45.119 170.252 44.9697 170.252 44.8138C170.252 44.6679 170.243 44.5266 170.226 44.3917C170.208 44.2566 170.181 44.1229 170.146 43.9924C170.112 43.8664 170.067 43.7471 170.012 43.6353C169.957 43.5253 169.893 43.4217 169.821 43.3272C169.748 43.2335 169.665 43.1494 169.572 43.0748C169.48 43.0007 169.377 42.9351 169.262 42.8796C169.15 42.8248 169.026 42.783 168.89 42.7558C168.754 42.7283 168.604 42.7143 168.443 42.7143Z" fill="#2B2A29"/>
</g>
<defs>
<clipPath id="clip0_183_5298">
<rect width="171" height="51" fill="white"/>
</clipPath>
</defs>
</svg>
