<svg width="20" height="20" viewBox="0 0 20 20" fill="none" xmlns="http://www.w3.org/2000/svg">
<path fill-rule="evenodd" clip-rule="evenodd" d="M16.6667 9.99967C16.6667 11.7678 15.9643 13.4635 14.714 14.7137C13.4638 15.964 11.7681 16.6663 9.99999 16.6663C8.23188 16.6663 6.53619 15.964 5.28595 14.7137C4.03571 13.4635 3.33333 11.7678 3.33333 9.99967C3.33333 8.23156 4.03571 6.53587 5.28595 5.28563C6.53619 4.03539 8.23188 3.33301 9.99999 3.33301C11.7681 3.33301 13.4638 4.03539 14.714 5.28563C15.9643 6.53587 16.6667 8.23156 16.6667 9.99967ZM9.16083 12.1905V13.6963H10.6958V12.1905H9.16083ZM9.02416 8.96384H7.58666C7.59333 8.61217 7.65333 8.28884 7.76749 7.99634C7.88166 7.70301 8.04083 7.44884 8.24666 7.23384C8.4561 7.01561 8.70907 6.84385 8.98916 6.72967C9.2984 6.60544 9.62927 6.54397 9.96249 6.54884C10.425 6.54884 10.8117 6.61217 11.1208 6.73967C11.4308 6.86717 11.68 7.02467 11.8692 7.21467C12.1991 7.53693 12.3888 7.97609 12.3975 8.43717C12.3975 8.74884 12.3558 9.00634 12.275 9.20884C12.1352 9.56829 11.8897 9.87688 11.5708 10.0938C11.4242 10.1938 11.2858 10.2955 11.155 10.3963C11.025 10.4972 10.9092 10.613 10.8083 10.7438C10.7023 10.8867 10.6364 11.0553 10.6175 11.2322V11.6038H9.29749V11.1638C9.31749 10.8838 9.37083 10.6488 9.45916 10.4597C9.54666 10.2713 9.64916 10.1097 9.76749 9.97634C9.88416 9.84301 10.0083 9.72634 10.1383 9.62884C10.2627 9.53585 10.3833 9.43799 10.5 9.33551C10.6108 9.23801 10.7 9.13051 10.7692 9.01301C10.8414 8.8782 10.8735 8.7255 10.8617 8.57301C10.8617 8.27301 10.7883 8.05134 10.6417 7.90801C10.495 7.76467 10.2917 7.69301 10.0308 7.69301C9.85499 7.69301 9.70333 7.72717 9.57583 7.79551C9.45185 7.86148 9.34488 7.95534 9.26333 8.06967C9.18166 8.18384 9.12166 8.31717 9.08249 8.46967C9.04333 8.62384 9.02416 8.78801 9.02416 8.96384Z" fill="#2B2A29"/>
</svg>
