<svg width="588" height="417" viewBox="0 0 588 417" fill="none" xmlns="http://www.w3.org/2000/svg">
<g clip-path="url(#clip0_183_5418)">
<mask id="mask0_183_5418" style="mask-type:luminance" maskUnits="userSpaceOnUse" x="0" y="0" width="774" height="696">
<path d="M774 0H0V696H774V0Z" fill="white"/>
</mask>
<g mask="url(#mask0_183_5418)">
<path d="M85.95 253.193L98.8605 240.519L96.0568 237.66L80.2881 253.138L95.8226 268.975L98.6787 266.17L85.95 253.193ZM295.573 441.069L292.842 438.285L292.769 438.209L279.858 450.883L267.217 437.997L264.359 440.803L277.001 453.689L279.878 456.624L292.535 469.525L295.392 466.719L282.736 453.816L295.647 441.144L295.573 441.069ZM286.497 56.3092L299.407 43.6368L296.603 40.7775L283.596 53.5478L282.168 54.9496L280.836 56.2582L267.795 69.0627L270.599 71.9214L283.545 59.2124L296.275 72.1897L296.373 72.0952L299.131 69.3868L299.229 69.2923L286.5 56.3134L286.497 56.3092ZM386.72 -42.0848L399.633 -54.7572L396.829 -57.6165L383.918 -44.9422L382.49 -43.5399L381.06 -42.1375L368.114 -29.4285L370.916 -26.5704L383.864 -39.2788L396.594 -26.3018L399.45 -29.1058L386.72 -42.0848ZM402.592 -57.6644L405.66 -60.6763L402.855 -63.5355L399.788 -60.5231L402.592 -57.6644ZM408.618 -63.581L411.654 -66.5629L408.852 -69.4203L405.816 -66.4397L408.618 -63.581ZM459.157 -113.195L462.159 -116.144L459.357 -119.001L456.351 -116.054L459.157 -113.195ZM465.117 -119.049L468.184 -122.061L465.381 -124.918L462.314 -121.906L465.117 -119.049ZM471.143 -124.966L484.091 -137.673L496.819 -124.696L499.677 -127.5L484.143 -143.337L482.715 -141.935L468.339 -127.823L471.143 -124.966ZM499.721 -121.737L502.734 -118.666L505.589 -121.472L502.579 -124.54L499.721 -121.737ZM505.637 -115.707L508.555 -112.729L511.411 -115.535L508.492 -118.512L505.637 -115.707ZM555.165 -65.2086L558.103 -62.2139L560.958 -65.0199L558.023 -68.0131L555.165 -65.2086ZM561.007 -59.2551L564.019 -56.1856L566.875 -58.9903L563.864 -62.059L561.007 -59.2551ZM566.921 -53.226L579.632 -40.2639L566.686 -27.5548L566.774 -27.466L569.489 -24.6961L569.575 -24.6061L582.521 -37.3151L595.252 -24.3368L598.109 -27.1409L585.29 -40.2097L582.576 -42.9779L569.775 -56.0275L566.918 -53.2235L566.921 -53.226ZM563.728 -24.6508L560.662 -21.6383L560.748 -21.5497L563.463 -18.7801L563.55 -18.6896L566.617 -21.702L566.53 -21.792L563.814 -24.562L563.728 -24.6508ZM557.702 -18.7342L554.698 -15.787L554.784 -15.697L557.501 -12.9277L557.589 -12.8376L560.593 -15.7861L560.505 -15.8767L557.79 -18.6455L557.702 -18.7342ZM507.199 30.8453L504.163 33.8261L504.25 33.9167L506.967 36.6854L507.053 36.7742L510.089 33.7935L510.001 33.7029L507.288 30.9335L507.2 30.8447L507.199 30.8453ZM501.202 36.7316L498.133 39.744L498.221 39.834L500.938 42.6032L501.024 42.692L504.094 39.679L504.006 39.5903L501.291 36.8215L501.203 36.7309L501.202 36.7316ZM495.176 42.6479L482.265 55.3224L469.551 42.3603L466.696 45.1648L479.407 58.127L466.461 70.8361L466.548 70.9249L469.262 73.6948L469.35 73.7848L482.296 61.0758L495.027 74.054L497.883 71.2494L485.154 58.2711L498.064 45.5968L497.978 45.508L495.263 42.7381L495.176 42.6479ZM384.931 156.664L397.842 143.99L397.755 143.901L395.039 141.131L394.952 141.041L382.043 153.716L369.329 140.754L369.23 140.848L366.472 143.556L366.374 143.653L379.085 156.614L366.139 169.323L366.226 169.412L368.943 172.182L369.031 172.27L381.977 159.562L394.706 172.539L394.805 172.445L397.564 169.736L397.662 169.643L384.933 156.663L384.931 156.664ZM305.04 75.4109L305.139 75.3152L302.127 72.2459L302.029 72.341L299.271 75.0487L299.173 75.1448L302.184 78.2139L302.281 78.1175L305.04 75.4109ZM310.864 81.3469L310.962 81.2507L308.043 78.2742L307.945 78.3698L305.186 81.0782L305.088 81.1727L308.007 84.1498L308.106 84.0547L310.864 81.3469ZM302.365 40.7271L305.434 37.7146L302.628 34.856L299.56 37.8684L302.365 40.7271ZM308.391 34.8111L311.428 31.8286L308.625 28.9705L305.587 31.9518L308.391 34.8111ZM358.93 -14.8038L361.933 -17.7516L359.128 -20.6097L356.125 -17.6624L358.93 -14.8038ZM364.89 -20.6576L367.957 -23.6693L365.154 -26.5274L362.086 -23.5151L364.89 -20.6576ZM399.495 -23.3451L402.506 -20.2746L405.363 -23.0806L402.351 -26.1493L399.495 -23.3451ZM405.409 -17.315L408.328 -14.3379L411.184 -17.1437L408.265 -20.1208L405.409 -17.315ZM454.938 33.183L457.876 36.1776L460.731 33.3718L457.796 30.3782L454.938 33.183ZM460.78 39.1366L463.79 42.2053L466.647 39.4013L463.637 36.3325L460.78 39.1366ZM463.502 73.7407L460.433 76.7532L460.521 76.842L463.234 79.6114L463.322 79.7019L466.39 76.6896L466.303 76.5989L463.588 73.8297L463.502 73.7407ZM457.475 79.6572L454.47 82.6045L454.558 82.6947L457.274 85.4639L457.362 85.554L460.366 82.6054L460.278 82.5149L457.563 79.746L457.475 79.6572ZM406.972 129.237L403.936 132.218L404.023 132.308L406.739 135.077L406.826 135.166L409.862 132.185L409.775 132.094L407.061 129.325L406.974 129.236L406.972 129.237ZM400.975 135.123L397.907 138.135L397.994 138.225L400.711 140.995L400.797 141.084L403.867 138.07L403.779 137.982L401.063 135.212L400.977 135.122L400.975 135.123ZM366.421 137.794L363.41 134.725L363.312 134.82L360.552 137.528L360.454 137.622L363.465 140.692L363.563 140.597L366.323 137.889L366.421 137.794ZM360.507 131.764L357.571 128.77L357.473 128.865L354.713 131.574L354.613 131.668L357.551 134.663L357.649 134.568L360.409 131.86L360.507 131.764ZM598.155 -21.3828L601.166 -18.314L604.024 -21.1187L601.013 -24.1876L598.155 -21.3828ZM604.069 -15.3537L606.988 -12.3774L609.844 -15.1826L606.927 -18.1591L604.069 -15.3537ZM653.6 35.1448L656.535 38.1388L659.393 35.3335L656.458 32.3401L653.6 35.1448ZM659.439 41.0989L662.45 44.1678L665.308 41.363L662.297 38.2923L659.439 41.0989ZM665.353 47.1274L677.993 60.0128L665.049 72.7224L665.121 72.7966L667.851 75.5816L667.925 75.6559L680.871 62.9463L693.529 75.8492L696.387 73.0438L683.729 60.1415L680.85 57.2086L668.211 44.3226L665.353 47.1274ZM661.825 81.4963L661.899 81.5717L664.967 78.5594L664.894 78.4852L662.163 75.7001L662.088 75.6265L659.021 78.6388L659.096 78.7124L661.825 81.4963ZM655.864 87.3508L655.937 87.4262L658.941 84.4777L658.866 84.4023L656.137 81.619L656.063 81.5448L653.061 84.4914L653.133 84.567L655.864 87.3508ZM605.325 136.965L605.4 137.039L608.438 134.058L608.364 133.984L605.633 131.199L605.558 131.125L602.522 134.106L602.596 134.181L605.325 136.965ZM599.299 142.882L599.372 142.956L602.441 139.944L602.367 139.869L599.638 137.085L599.563 137.01L596.496 140.022L596.57 140.098L599.299 142.882ZM580.624 155.603L567.985 142.717L565.128 145.522L577.768 158.407L564.822 171.118L564.896 171.191L567.626 173.977L567.7 174.051L580.644 161.341L593.302 174.244L596.16 171.439L583.502 158.536L596.413 145.862L596.341 145.788L593.61 143.004L593.537 142.928L580.624 155.603ZM403.475 175.764L403.573 175.67L400.562 172.602L400.464 172.695L397.705 175.404L397.607 175.498L400.616 178.568L400.714 178.474L403.475 175.764ZM409.299 181.7L409.397 181.605L406.477 178.629L406.379 178.723L403.619 181.432L403.521 181.528L406.442 184.504L406.537 184.409L409.299 181.7ZM497.931 77.0093L500.941 80.0788L503.799 77.2734L500.787 74.2045L497.931 77.0093ZM503.843 83.0382L506.763 86.0147L509.621 83.21L506.701 80.2336L503.843 83.0382ZM553.375 133.537L556.309 136.531L559.167 133.726L556.233 130.732L553.375 133.537ZM559.215 139.492L562.225 142.561L565.083 139.754L562.071 136.685L559.215 139.492ZM561.6 179.889L561.675 179.964L564.742 176.953L564.668 176.878L561.938 174.092L561.863 174.02L558.796 177.031L558.871 177.105L561.6 179.889ZM555.638 185.743L555.712 185.82L558.717 182.87L558.641 182.794L555.912 180.01L555.838 179.937L552.836 182.883L552.909 182.959L555.638 185.743ZM505.101 235.357L505.175 235.431L508.212 232.45L508.139 232.376L505.408 229.591L505.333 229.517L502.297 232.498L502.371 232.575L505.101 235.357ZM499.075 241.274L499.149 241.348L502.217 238.335L502.142 238.261L499.413 235.478L499.339 235.402L496.271 238.414L496.344 238.49L499.075 241.274ZM480.399 253.995L467.76 241.109L467.662 241.205L464.902 243.913L464.804 244.009L477.444 256.895L464.498 269.602L464.572 269.678L467.303 272.462L467.376 272.535L480.322 259.828L492.978 272.73L493.076 272.634L495.836 269.925L495.936 269.831L483.279 256.928L496.188 244.254L496.116 244.179L493.385 241.397L493.311 241.32L480.399 253.995ZM464.858 238.149L461.846 235.079L461.748 235.176L458.988 237.884L458.891 237.978L461.9 241.048L461.998 240.953L464.759 238.245L464.858 238.149ZM458.944 232.12L456.007 229.127L455.909 229.22L453.149 231.929L453.051 232.025L455.989 235.019L456.086 234.922L458.845 232.215L458.944 232.12ZM186.17 154.795L199.081 142.12L196.277 139.26L183.366 151.935L181.938 153.336L180.508 154.739L167.563 167.449L170.368 170.306L183.314 157.599L196.042 170.575L198.9 167.771L186.17 154.795ZM202.042 139.212L205.108 136.201L202.306 133.341L199.236 136.354L202.042 139.212ZM208.068 133.297L211.104 130.315L208.301 127.456L205.264 130.437L208.068 133.297ZM258.605 83.6815L261.609 80.7348L258.805 77.8755L255.801 80.8228L258.605 83.6815ZM264.567 77.8296L267.634 74.8173L264.829 71.9578L261.763 74.9703L264.567 77.8296ZM363.18 172.227L360.111 175.24L360.199 175.33L362.914 178.099L363 178.188L366.068 175.177L365.982 175.088L363.267 172.318L363.18 172.227ZM357.153 178.144L354.15 181.091L354.237 181.181L356.952 183.95L357.04 184.04L360.044 181.092L359.958 181.003L357.242 178.233L357.155 178.142L357.153 178.144ZM306.65 227.723L303.614 230.705L303.701 230.794L306.416 233.564L306.502 233.655L309.539 230.671L309.453 230.583L306.737 227.813L306.65 227.723ZM300.653 233.609L297.585 236.621L297.672 236.712L300.389 239.481L300.476 239.571L303.545 236.558L303.457 236.468L300.74 233.699L300.653 233.609ZM294.627 239.525L281.716 252.199L269.002 239.238L266.147 242.044L278.858 255.005L265.912 267.714L266 267.805L268.716 270.573L268.802 270.662L281.748 257.955L294.479 270.931L297.336 268.127L284.606 255.148L297.517 242.475L297.43 242.385L294.716 239.616L294.628 239.525H294.627ZM184.382 353.542L197.293 340.869L197.206 340.779L194.491 338.01L194.403 337.919L181.492 350.593L168.78 337.632L165.923 340.436L178.723 353.486L181.44 356.255L194.257 369.322L197.114 366.517L184.384 353.539L184.382 353.542ZM98.7229 271.93L101.734 274.998L104.591 272.194L101.579 269.125L98.7229 271.93ZM104.636 277.959L107.556 280.935L110.412 278.131L107.493 275.153L104.636 277.959ZM101.816 237.605L104.884 234.593L102.08 231.734L99.0112 234.747L101.816 237.605ZM107.842 231.688L110.879 228.707L108.075 225.848L105.039 228.829L107.842 231.688ZM158.381 182.074L161.384 179.127L158.579 176.268L155.576 179.216L158.381 182.074ZM164.341 176.222L167.41 173.21L164.606 170.351L161.537 173.362L164.341 176.222ZM198.947 173.534L201.957 176.603L204.814 173.799L201.802 170.727L198.947 173.534ZM204.86 179.563L207.779 182.539L210.636 179.735L207.716 176.758L204.86 179.563ZM254.39 230.061L257.327 233.055L260.184 230.251L257.248 227.255L254.39 230.061ZM260.231 236.015L263.241 239.083L266.098 236.279L263.088 233.209L260.231 236.015ZM262.953 270.618L259.884 273.631L259.972 273.722L262.687 276.49L262.773 276.579L265.841 273.566L265.754 273.479L263.04 270.709L262.953 270.618ZM256.927 276.535L253.921 279.482L254.009 279.572L256.725 282.341L256.813 282.432L259.817 279.483L259.729 279.394L257.016 276.625L256.928 276.535H256.927ZM206.423 326.114L203.387 329.094L203.474 329.185L206.188 331.955L206.276 332.046L209.312 329.063L209.226 328.974L206.511 326.204L206.423 326.114ZM200.426 332L197.358 335.012L197.445 335.103L200.16 337.872L200.248 337.962L203.318 334.95L203.23 334.859L200.514 332.09L200.426 332ZM165.873 334.671L162.861 331.603L160.005 334.407L163.015 337.475L165.873 334.671ZM159.958 328.644L157.022 325.648L154.164 328.454L157.102 331.448L159.958 328.644ZM461.275 278.377L461.349 278.451L464.417 275.438L464.343 275.364L461.613 272.58L461.539 272.505L458.471 275.518L458.546 275.593L461.275 278.377ZM455.313 284.229L455.387 284.304L458.391 281.356L458.315 281.282L455.588 278.498L455.513 278.423L452.51 281.371L452.584 281.445L455.313 284.229ZM404.774 333.843L404.85 333.919L407.886 330.936L407.814 330.861L405.083 328.079L405.008 328.003L401.972 330.986L402.047 331.059L404.774 333.843ZM398.748 339.76L398.823 339.835L401.892 336.822L401.817 336.747L399.086 333.965L399.014 333.889L395.946 336.901L396.019 336.976L398.748 339.76ZM380.075 352.48L367.435 339.596L364.577 342.401L377.217 355.287L364.271 367.995L364.345 368.072L367.076 370.854L367.149 370.928L380.095 358.22L392.753 371.123L395.609 368.318L382.952 355.415L395.864 342.742L395.789 342.665L393.06 339.883L392.986 339.806L380.075 352.48ZM197.155 372.283L200.165 375.353L203.023 372.547L200.011 369.479L197.155 372.283ZM203.068 378.315L205.988 381.291L208.845 378.484L205.925 375.508L203.068 378.315ZM297.38 273.891L300.389 276.959L303.247 274.155L300.237 271.085L297.38 273.891ZM303.293 279.921L306.212 282.897L309.069 280.09L306.149 277.114L303.293 279.921ZM352.823 330.417L355.761 333.413L358.617 330.606L355.681 327.613L352.823 330.417ZM358.665 336.372L361.675 339.44L364.533 336.637L361.521 333.567L358.665 336.372ZM361.05 376.771L361.123 376.845L364.19 373.833L364.118 373.758L361.387 370.974L361.314 370.899L358.244 373.912L358.321 373.987L361.05 376.771ZM355.086 382.623L355.162 382.7L358.165 379.75L358.09 379.676L355.363 376.892L355.286 376.817L352.284 379.766L352.357 379.841L355.086 382.623ZM304.549 432.237L304.624 432.313L307.66 429.331L307.587 429.257L304.858 426.473L304.782 426.397L301.746 429.38L301.822 429.453L304.549 432.237ZM298.523 438.154L298.597 438.231L301.667 435.218L301.59 435.141L298.861 432.359L298.787 432.282L295.719 435.295L295.794 435.372L298.523 438.154ZM264.306 435.031L261.296 431.961L258.439 434.766L261.448 437.836L264.306 435.031ZM258.392 429L255.457 426.007L252.599 428.811L255.537 431.807L258.392 429ZM696.426 78.8069L699.436 81.8758L702.294 79.0692L699.284 76.0003L696.426 78.8069ZM702.339 84.8354L705.258 87.8117L708.116 85.0072L705.197 82.03L702.339 84.8354ZM751.87 135.333L754.807 138.328L757.665 135.523L754.727 132.528L751.87 135.333ZM757.711 141.287L760.721 144.356L763.58 141.551L760.569 138.482L757.711 141.287ZM763.623 147.315L776.337 160.277L763.391 172.986L763.479 173.077L766.195 175.845L766.281 175.934L779.228 163.226L791.957 176.203L794.815 173.399L781.998 160.332L779.281 157.563L766.481 144.512L763.623 147.318V147.315ZM760.432 175.891L757.364 178.903L757.451 178.992L760.166 181.76L760.254 181.851L763.324 178.838L763.238 178.751L760.521 175.98L760.433 175.89L760.432 175.891ZM754.406 181.806L751.402 184.753L751.49 184.844L754.205 187.614L754.292 187.705L757.294 184.756L757.207 184.666L754.492 181.896L754.406 181.806ZM703.902 231.387L700.866 234.368L700.954 234.458L703.669 237.228L703.755 237.317L706.791 234.335L706.705 234.246L703.988 231.478L703.901 231.387H703.902ZM697.905 237.271L694.839 240.284L694.926 240.375L697.641 243.145L697.729 243.236L700.796 240.223L700.708 240.132L697.993 237.362L697.905 237.271ZM691.881 243.188L678.968 255.864L666.257 242.901L663.398 245.706L676.112 258.668L663.166 271.377L663.253 271.468L665.97 274.236L666.056 274.325L679.002 261.618L691.732 274.594L694.59 271.79L681.859 258.812L694.771 246.137L694.683 246.047L691.968 243.279L691.881 243.188ZM581.635 357.206L594.546 344.531L594.46 344.442L591.743 341.673L591.655 341.582L578.743 354.258L566.032 341.295L565.934 341.39L563.173 344.099L563.076 344.194L575.788 357.157L562.842 369.863L562.93 369.954L565.645 372.724L565.733 372.815L578.677 360.105L591.407 373.082L591.505 372.988L594.265 370.28L594.364 370.184L581.633 357.206H581.635ZM501.745 275.952L501.844 275.856L498.832 272.787L498.736 272.883L495.974 275.591L495.876 275.687L498.888 278.756L498.986 278.661L501.745 275.952ZM507.569 281.888L507.667 281.794L504.749 278.816L504.65 278.912L501.89 281.62L501.792 281.714L504.711 284.692L504.809 284.596L507.569 281.888ZM596.2 177.197L599.211 180.267L602.069 177.46L599.058 174.39L596.2 177.197ZM602.114 183.226L605.033 186.202L607.891 183.398L604.972 180.421L602.114 183.226ZM651.645 233.724L654.581 236.718L657.439 233.913L654.501 230.918L651.645 233.724ZM657.485 239.677L660.495 242.747L663.353 239.942L660.343 236.872L657.485 239.677ZM660.205 274.281L657.138 277.294L657.226 277.383L659.941 280.151L660.029 280.242L663.098 277.229L663.011 277.14L660.296 274.371L660.207 274.281H660.205ZM654.18 280.197L651.177 283.144L651.264 283.235L653.979 286.005L654.067 286.094L657.069 283.146L656.982 283.055L654.266 280.287L654.18 280.197ZM603.677 329.778L600.641 332.759L600.728 332.849L603.442 335.618L603.53 335.708L606.566 332.726L606.478 332.637L603.763 329.869L603.675 329.778H603.677ZM597.68 335.662L594.613 338.675L594.701 338.766L597.414 341.536L597.502 341.624L600.57 338.614L600.483 338.523L597.768 335.753L597.68 335.662ZM563.126 338.334L560.116 335.266L560.018 335.36L557.257 338.068L557.159 338.164L560.17 341.235L560.268 341.138L563.028 338.43L563.126 338.334ZM557.214 332.307L554.276 329.311L554.178 329.406L551.418 332.113L551.321 332.21L554.256 335.205L554.354 335.109L557.116 332.401L557.214 332.307ZM794.861 179.158L797.873 182.226L800.731 179.422L797.719 176.352L794.861 179.158ZM800.775 185.188L803.695 188.164L806.551 185.357L803.632 182.383L800.775 185.188ZM850.303 235.686L853.241 238.68L856.099 235.873L853.163 232.88L850.303 235.686ZM856.145 241.639L859.157 244.708L862.013 241.904L859.003 238.834L856.145 241.639ZM862.059 247.668L874.772 260.63L861.826 273.34L864.63 276.197L880.433 260.683L864.917 244.864L862.061 247.67L862.059 247.668ZM858.867 276.243L855.798 279.254L858.603 282.113L861.672 279.1L858.867 276.243ZM852.841 282.158L849.838 285.106L852.642 287.966L855.645 285.017L852.841 282.158ZM802.339 331.74L799.301 334.721L802.105 337.58L805.141 334.598L802.339 331.74ZM796.342 337.624L793.275 340.637L796.077 343.495L799.146 340.484L796.342 337.624ZM790.314 343.541L777.403 356.217L764.69 343.254L761.834 346.059L774.547 359.021L761.599 371.73L764.405 374.588L777.351 361.88L780.206 359.074L793.118 346.399L790.314 343.541ZM600.18 376.302L600.278 376.209L597.268 373.14L597.17 373.234L594.409 375.943L594.312 376.038L597.322 379.108L597.421 379.013L600.18 376.302ZM606.005 382.241L606.102 382.144L603.184 379.168L603.086 379.263L600.325 381.972L600.226 382.067L603.146 385.043L603.244 384.949L606.005 382.241ZM694.636 277.549L697.646 280.617L700.504 277.811L697.494 274.743L694.636 277.549ZM700.55 283.578L703.469 286.555L706.326 283.748L703.406 280.772L700.55 283.578ZM750.078 334.077L753.016 337.071L755.874 334.264L752.936 331.271L750.078 334.077ZM755.92 340.03L758.932 343.099L761.788 340.295L758.778 337.225L755.92 340.03ZM758.641 374.634L755.573 377.645L758.377 380.504L761.446 377.492L758.641 374.634ZM752.615 380.549L749.613 383.497L752.416 386.357L755.418 383.408L752.615 380.549ZM702.113 430.129L699.076 433.112L701.88 435.971L704.916 432.987L702.113 430.129ZM696.116 436.016L693.048 439.028L695.851 441.886L698.919 438.875L696.116 436.016ZM690.089 441.932L677.178 454.608L664.465 441.645L664.367 441.739L661.607 444.447L661.509 444.543L674.222 457.504L661.277 470.213L664.08 473.073L677.122 460.268L679.882 457.559L692.89 444.787L690.086 441.931L690.089 441.932ZM661.563 438.686L658.551 435.616L658.453 435.711L655.692 438.42L655.593 438.514L658.605 441.583L658.703 441.488L661.463 438.78L661.563 438.686ZM655.647 432.655L652.711 429.662L652.613 429.758L649.853 432.466L649.753 432.56L652.691 435.555L652.789 435.461L655.55 432.752L655.647 432.655ZM559.883 372.762L556.815 375.775L556.902 375.866L559.617 378.635L559.705 378.724L562.775 375.712L562.687 375.622L559.971 372.853L559.883 372.762ZM553.857 378.679L550.855 381.628L550.941 381.717L553.656 384.485L553.743 384.576L556.746 381.628L556.658 381.54L553.943 378.77L553.857 378.679ZM503.353 428.26L500.317 431.242L500.403 431.331L503.118 434.1L503.206 434.19L506.244 431.21L506.156 431.119L503.441 428.35L503.353 428.26ZM497.356 434.144L494.29 437.157L494.377 437.248L497.091 440.016L497.178 440.107L500.247 437.096L500.159 437.005L497.444 434.235L497.356 434.144ZM491.33 440.061L478.418 452.736L465.707 439.774L462.849 442.579L475.563 455.542L462.617 468.25L462.703 468.34L465.418 471.109L465.506 471.2L478.452 458.49L491.18 471.469L494.039 468.663L481.31 455.685L494.22 443.011L494.133 442.922L491.416 440.152L491.329 440.062L491.33 440.061ZM381.087 554.079L393.997 541.405L393.911 541.314L391.194 538.546L391.107 538.455L378.196 551.129L365.483 538.168L362.625 540.973L375.425 554.022L378.141 556.792L390.959 569.858L393.817 567.054L381.087 554.077V554.079ZM295.425 472.466L298.437 475.535L301.295 472.73L298.283 469.66L295.425 472.466ZM301.339 478.495L304.259 481.471L307.117 478.667L304.197 475.689L301.339 478.495ZM395.651 374.071L398.661 377.141L401.519 374.336L398.509 371.268L395.651 374.071ZM401.563 380.1L404.483 383.076L407.341 380.272L404.421 377.296L401.563 380.1ZM451.095 430.6L454.029 433.593L456.889 430.789L453.951 427.793L451.095 430.6ZM456.935 436.552L459.946 439.623L462.803 436.816L459.793 433.748L456.935 436.552ZM459.658 471.155L456.588 474.168L456.675 474.259L459.392 477.029L459.478 477.116L462.548 474.105L462.46 474.014L459.745 471.246L459.658 471.155ZM453.63 477.072L450.628 480.02L450.714 480.109L453.429 482.88L453.516 482.97L456.519 480.022L456.431 479.933L453.718 477.162L453.63 477.072ZM403.127 526.652L400.09 529.633L400.178 529.724L402.892 532.494L402.979 532.583L406.018 529.602L405.931 529.512L403.214 526.743L403.127 526.652ZM397.13 532.538L394.063 535.55L394.15 535.64L396.864 538.41L396.951 538.501L400.02 535.488L399.932 535.398L397.217 532.627L397.13 532.538ZM362.576 535.208L359.566 532.14L356.708 534.946L359.718 538.014L362.576 535.208ZM356.664 529.181L353.726 526.185L350.869 528.992L353.806 531.985L356.664 529.181ZM658.318 473.119L655.249 476.131L658.052 478.989L661.122 475.978L658.318 473.119ZM652.292 479.035L649.288 481.982L652.092 484.841L655.094 481.893L652.292 479.035ZM601.788 528.616L598.752 531.596L601.556 534.456L604.592 531.475L601.788 528.616ZM595.791 534.5L592.724 537.513L595.529 540.372L598.595 537.361L595.791 534.5ZM589.765 540.419L576.854 553.093L564.142 540.13L561.284 542.935L573.998 555.896L561.052 568.606L563.856 571.465L576.8 558.756L579.658 555.95L592.569 543.276L589.765 540.419ZM393.86 572.82L396.872 575.891L399.73 573.084L396.718 570.016L393.86 572.82ZM399.774 578.851L402.693 581.827L405.551 579.023L402.632 576.045L399.774 578.851ZM494.085 474.429L497.097 477.497L499.953 474.69L496.943 471.622L494.085 474.429ZM499.999 480.457L502.917 483.433L505.777 480.629L502.857 477.651L499.999 480.457ZM549.528 530.954L552.466 533.949L555.323 531.145L552.386 528.15L549.528 530.954ZM555.37 536.908L558.381 539.978L561.239 537.172L558.228 534.104L555.37 536.908ZM558.091 571.513L555.024 574.526L557.827 577.382L560.897 574.372L558.091 571.513ZM552.065 577.428L549.062 580.375L551.865 583.234L554.867 580.287L552.065 577.428ZM501.561 627.008L498.525 629.989L501.329 632.848L504.367 629.868L501.561 627.008ZM495.566 632.894L492.497 635.906L495.302 638.765L498.368 635.754L495.566 632.894ZM489.538 638.811L476.627 651.485L463.916 638.522L461.057 641.328L476.574 657.147L492.342 641.669L489.537 638.81L489.538 638.811ZM461.011 635.565L458.001 632.495L455.143 635.3L458.153 638.369L461.011 635.565ZM455.098 629.536L452.16 626.54L449.304 629.345L452.24 632.34L455.098 629.536Z" fill="#CAB3A5" fill-opacity="0.3"/>
</g>
</g>
<defs>
<clipPath id="clip0_183_5418">
<rect width="774" height="696" fill="white"/>
</clipPath>
</defs>
</svg>
