<svg width="1440" height="184" viewBox="0 0 1440 184" fill="none" xmlns="http://www.w3.org/2000/svg">
<g clip-path="url(#clip0_354_3449)">
<path d="M41.1152 178.001V59.134H-0.111328V6.43652H145.059V59.134H103.654V178.001H41.1152Z" fill="white"/>
<path d="M164.254 178.001V6.43652H226.567V67.271H262.708V6.43652H325.021V178.001H262.708V118.389H226.567V178.001H164.254Z" fill="white"/>
<path d="M346.617 178.001V6.43652H462.993V51.1457H409.281V71.4737H462.993V113.888H409.281V133.292H462.993V178.001H346.617Z" fill="white"/>
<path d="M718.538 6.55578L664.018 92.2783L718.538 178.001H648.62L607.001 105.503V177.882H544.574V6.43652H607.001V78.9345L648.62 6.43652L718.538 6.55578Z" fill="white"/>
<path d="M770.595 85.6203C772.887 69.6729 783.187 56.6276 802.626 56.6276C822.065 56.6276 832.395 69.7327 834.687 85.6203H899.701C896.397 39.8127 861.002 0.437988 802.566 0.437988C744.13 0.437988 708.706 39.8426 705.342 85.6203H770.595Z" fill="white"/>
<path d="M834.647 98.8174C832.354 114.765 822.018 127.84 802.567 127.84C783.116 127.84 772.78 114.705 770.486 98.8174H705.342C708.648 144.625 744.065 184 802.626 184C861.187 184 896.455 144.625 899.701 98.8174H834.647Z" fill="white"/>
<path d="M973.194 85.6203C975.487 69.6729 985.82 56.6276 1005.26 56.6276C1024.71 56.6276 1035.04 69.7327 1037.33 85.6203H1102.46C1099.15 39.8127 1063.75 0.437988 1005.26 0.437988C946.781 0.437988 911.405 39.8426 908.1 85.6203H973.194Z" fill="white"/>
<path d="M1037.31 98.8174C1034.98 114.765 1024.69 127.84 1005.25 127.84C985.814 127.84 975.486 114.705 973.194 98.8174H908.1C911.403 144.625 946.793 184 1005.25 184C1063.71 184 1099.07 144.625 1102.46 98.8174H1037.31Z" fill="white"/>
<path d="M1292.02 6.55586L1237.5 92.3381L1292.02 178.001H1222.1L1180.48 105.453V178.001H1118.06V6.43652H1180.48V78.985L1222.1 6.43652L1292.02 6.55586Z" fill="white"/>
<path d="M1288.42 121.909H1350.68C1350.68 132.923 1356.61 139.531 1366.27 139.531C1373.36 139.531 1377.51 136.107 1377.51 130.422C1377.51 124.737 1373.6 122.088 1366.04 119.409L1329.22 106.194C1303.39 96.8773 1290.68 80.0002 1290.68 56.4857C1290.68 22.4641 1317.36 0.437988 1363.58 0.437988C1408.67 0.437988 1438.17 21.2734 1438.17 56.0093H1375.91C1375.91 46.2166 1371.28 40.8292 1363.25 40.8292C1356.91 40.8292 1352.76 44.014 1352.76 49.3718C1352.76 54.0449 1355.72 56.4858 1366.66 60.6529L1401.05 73.6305C1428.83 84.1376 1439.59 101.282 1439.59 124.053C1439.59 161.497 1410.83 184 1364.97 184C1317.92 184.089 1288.42 160.336 1288.42 121.909Z" fill="white"/>
</g>
<defs>
<clipPath id="clip0_354_3449">
<rect width="1439.7" height="183.562" fill="white" transform="translate(-0.111328 0.437988)"/>
</clipPath>
</defs>
</svg>
