<svg width="197" height="45" viewBox="0 0 197 45" fill="none" xmlns="http://www.w3.org/2000/svg">
<path d="M10.868 25.312C9.464 25.312 8.15533 25.0867 6.942 24.636C5.746 24.168 4.706 23.5093 3.822 22.66C2.938 21.8107 2.24467 20.814 1.742 19.67C1.25667 18.526 1.014 17.2693 1.014 15.9C1.014 14.5307 1.25667 13.274 1.742 12.13C2.24467 10.986 2.938 9.98933 3.822 9.14C4.72333 8.29067 5.772 7.64067 6.968 7.19C8.164 6.722 9.47267 6.488 10.894 6.488C12.4713 6.488 13.8927 6.76533 15.158 7.32C16.4407 7.85733 17.5153 8.65467 18.382 9.712L15.678 12.208C15.054 11.4973 14.3607 10.9687 13.598 10.622C12.8353 10.258 12.0033 10.076 11.102 10.076C10.2527 10.076 9.47267 10.2147 8.762 10.492C8.05133 10.7693 7.436 11.168 6.916 11.688C6.396 12.208 5.98867 12.8233 5.694 13.534C5.41667 14.2447 5.278 15.0333 5.278 15.9C5.278 16.7667 5.41667 17.5553 5.694 18.266C5.98867 18.9767 6.396 19.592 6.916 20.112C7.436 20.632 8.05133 21.0307 8.762 21.308C9.47267 21.5853 10.2527 21.724 11.102 21.724C12.0033 21.724 12.8353 21.5507 13.598 21.204C14.3607 20.84 15.054 20.294 15.678 19.566L18.382 22.062C17.5153 23.1193 16.4407 23.9253 15.158 24.48C13.8927 25.0347 12.4627 25.312 10.868 25.312ZM21.1272 25V6.8H37.7152V25H33.5292V9.27L34.4912 10.232H24.3512L25.3132 9.27V25H21.1272ZM42.2268 25V6.8H56.9168V10.154H46.4128V13.898H51.4568C53.6582 13.898 55.3308 14.3573 56.4748 15.276C57.6362 16.1947 58.2168 17.5293 58.2168 19.28C58.2168 21.0827 57.5755 22.4867 56.2928 23.492C55.0102 24.4973 53.1988 25 50.8588 25H42.2268ZM46.4128 21.88H50.6248C51.6995 21.88 52.5228 21.672 53.0948 21.256C53.6668 20.8227 53.9528 20.1987 53.9528 19.384C53.9528 17.7893 52.8435 16.992 50.6248 16.992H46.4128V21.88Z" fill="#2F2F2F"/>
<path d="M70.694 30.408V27.184H79.69V30.408H70.694ZM73.086 19.488C74.4553 19.488 75.712 19.722 76.856 20.19C78 20.6407 78.9967 21.2907 79.846 22.14C80.6953 22.9893 81.354 23.986 81.822 25.13C82.29 26.274 82.524 27.5307 82.524 28.9C82.524 30.2693 82.29 31.526 81.822 32.67C81.354 33.814 80.6953 34.8107 79.846 35.66C78.9967 36.5093 78 37.168 76.856 37.636C75.712 38.0867 74.4553 38.312 73.086 38.312C71.474 38.312 70.018 38.0347 68.718 37.48C67.4353 36.9253 66.3607 36.1193 65.494 35.062L68.172 32.566C68.8133 33.294 69.524 33.84 70.304 34.204C71.084 34.5507 71.942 34.724 72.878 34.724C73.658 34.724 74.3773 34.5853 75.036 34.308C75.712 34.0133 76.284 33.6147 76.752 33.112C77.2373 32.592 77.6013 31.9767 77.844 31.266C78.104 30.5553 78.234 29.7667 78.234 28.9C78.234 28.0333 78.104 27.2447 77.844 26.534C77.6013 25.8233 77.2373 25.2167 76.752 24.714C76.284 24.194 75.712 23.7953 75.036 23.518C74.3773 23.2233 73.658 23.076 72.878 23.076C71.942 23.076 71.084 23.258 70.304 23.622C69.524 23.9687 68.8133 24.506 68.172 25.234L65.494 22.738C66.3607 21.6807 67.4353 20.8747 68.718 20.32C70.018 19.7653 71.474 19.488 73.086 19.488ZM85.4967 38.286C85.1847 38.286 84.8554 38.26 84.5087 38.208C84.1794 38.156 83.8154 38.0867 83.4167 38L83.6767 34.438C83.9194 34.5073 84.1707 34.542 84.4307 34.542C85.1414 34.542 85.6961 34.256 86.0947 33.684C86.4934 33.0947 86.7794 32.254 86.9527 31.162C87.1261 30.07 87.2387 28.744 87.2907 27.184L87.5507 19.8H101.539V38H97.3787V22.27L98.3407 23.232H90.3067L91.1647 22.218L91.0087 27.028C90.9567 28.8133 90.8354 30.3993 90.6447 31.786C90.4541 33.1727 90.1594 34.3513 89.7607 35.322C89.3621 36.2927 88.8161 37.0293 88.1227 37.532C87.4294 38.0347 86.5541 38.286 85.4967 38.286ZM109.958 27.132H118.72V30.408H109.958V27.132ZM110.27 34.62H120.176V38H106.084V19.8H119.838V23.18H110.27V34.62ZM135.356 38L129.688 29.238L133.094 27.184L140.14 38H135.356ZM123.526 38V19.8H127.712V38H123.526ZM126.49 30.668V27.158H132.834V30.668H126.49ZM133.484 29.368L129.61 28.9L135.512 19.8H139.958L133.484 29.368ZM145.836 38V22.27L146.798 23.232H140.038V19.8H155.82V23.232H149.06L149.996 22.27V38H145.836ZM158.465 38V19.8H166.343C167.972 19.8 169.376 20.0687 170.555 20.606C171.734 21.126 172.644 21.88 173.285 22.868C173.926 23.856 174.247 25.0347 174.247 26.404C174.247 27.756 173.926 28.926 173.285 29.914C172.644 30.902 171.734 31.6647 170.555 32.202C169.376 32.722 167.972 32.982 166.343 32.982H160.805L162.677 31.084V38H158.465ZM162.677 31.552L160.805 29.55H166.109C167.409 29.55 168.38 29.2727 169.021 28.718C169.662 28.1633 169.983 27.392 169.983 26.404C169.983 25.3987 169.662 24.6187 169.021 24.064C168.38 23.5093 167.409 23.232 166.109 23.232H160.805L162.677 21.23V31.552ZM185.99 38.312C184.551 38.312 183.216 38.078 181.986 37.61C180.772 37.142 179.715 36.4833 178.814 35.634C177.93 34.7847 177.236 33.788 176.734 32.644C176.248 31.5 176.006 30.252 176.006 28.9C176.006 27.548 176.248 26.3 176.734 25.156C177.236 24.012 177.938 23.0153 178.84 22.166C179.741 21.3167 180.798 20.658 182.012 20.19C183.225 19.722 184.542 19.488 185.964 19.488C187.402 19.488 188.72 19.722 189.916 20.19C191.129 20.658 192.178 21.3167 193.062 22.166C193.963 23.0153 194.665 24.012 195.168 25.156C195.67 26.2827 195.922 27.5307 195.922 28.9C195.922 30.252 195.67 31.5087 195.168 32.67C194.665 33.814 193.963 34.8107 193.062 35.66C192.178 36.492 191.129 37.142 189.916 37.61C188.72 38.078 187.411 38.312 185.99 38.312ZM185.964 34.724C186.778 34.724 187.524 34.5853 188.2 34.308C188.893 34.0307 189.5 33.632 190.02 33.112C190.54 32.592 190.938 31.9767 191.216 31.266C191.51 30.5553 191.658 29.7667 191.658 28.9C191.658 28.0333 191.51 27.2447 191.216 26.534C190.938 25.8233 190.54 25.208 190.02 24.688C189.517 24.168 188.919 23.7693 188.226 23.492C187.532 23.2147 186.778 23.076 185.964 23.076C185.149 23.076 184.395 23.2147 183.702 23.492C183.026 23.7693 182.428 24.168 181.908 24.688C181.388 25.208 180.98 25.8233 180.686 26.534C180.408 27.2447 180.27 28.0333 180.27 28.9C180.27 29.7493 180.408 30.538 180.686 31.266C180.98 31.9767 181.379 32.592 181.882 33.112C182.402 33.632 183.008 34.0307 183.702 34.308C184.395 34.5853 185.149 34.724 185.964 34.724Z" fill="#2F2F2F"/>
<rect y="32" width="60" height="6" fill="#EC4242"/>
<path d="M65 7H197V13H65V7Z" fill="#EC4242"/>
</svg>
