<svg width="274" height="80" viewBox="0 0 274 80" fill="none" xmlns="http://www.w3.org/2000/svg">
<g filter="url(#filter0_i_50_44)">
<path d="M64.7666 43.2667C64.9 42.2001 65 41.1334 65 40.0001C65 38.8667 64.9 37.8001 64.7666 36.7334L71.8 31.2334C72.4333 30.7334 72.6 29.8334 72.2 29.1001L65.5333 17.5667C65.1333 16.8334 64.2333 16.5667 63.5 16.8334L55.2 20.1667C53.4666 18.8334 51.6 17.7334 49.5666 16.9001L48.3 8.06675C48.2 7.26675 47.5 6.66675 46.6666 6.66675H33.3333C32.5 6.66675 31.8 7.26675 31.7 8.06675L30.4333 16.9001C28.4 17.7334 26.5333 18.8667 24.8 20.1667L16.5 16.8334C15.7333 16.5334 14.8666 16.8334 14.4666 17.5667L7.79995 29.1001C7.36662 29.8334 7.56662 30.7334 8.19995 31.2334L15.2333 36.7334C15.1 37.8001 15 38.9001 15 40.0001C15 41.1001 15.1 42.2001 15.2333 43.2667L8.19995 48.7667C7.56662 49.2667 7.39995 50.1667 7.79995 50.9001L14.4666 62.4334C14.8666 63.1667 15.7666 63.4334 16.5 63.1668L24.8 59.8334C26.5333 61.1668 28.4 62.2667 30.4333 63.1001L31.7 71.9334C31.8 72.7334 32.5 73.3334 33.3333 73.3334H46.6666C47.5 73.3334 48.2 72.7334 48.3 71.9334L49.5666 63.1001C51.6 62.2667 53.4666 61.1334 55.2 59.8334L63.5 63.1668C64.2666 63.4668 65.1333 63.1667 65.5333 62.4334L72.2 50.9001C72.6 50.1667 72.4333 49.2667 71.8 48.7667L64.7666 43.2667ZM40 51.6668C33.5666 51.6668 28.3333 46.4334 28.3333 40.0001C28.3333 33.5667 33.5666 28.3334 40 28.3334C46.4333 28.3334 51.6666 33.5667 51.6666 40.0001C51.6666 46.4334 46.4333 51.6668 40 51.6668Z" fill="#EC4242"/>
</g>
<circle cx="40" cy="40" r="8" fill="#2F2F2F"/>
<path d="M92.868 49.312C91.464 49.312 90.1553 49.0867 88.942 48.636C87.746 48.168 86.706 47.5093 85.822 46.66C84.938 45.8107 84.2447 44.814 83.742 43.67C83.2567 42.526 83.014 41.2693 83.014 39.9C83.014 38.5307 83.2567 37.274 83.742 36.13C84.2447 34.986 84.938 33.9893 85.822 33.14C86.7233 32.2907 87.772 31.6407 88.968 31.19C90.164 30.722 91.4727 30.488 92.894 30.488C94.4713 30.488 95.8927 30.7653 97.158 31.32C98.4407 31.8573 99.5153 32.6547 100.382 33.712L97.678 36.208C97.054 35.4973 96.3607 34.9687 95.598 34.622C94.8353 34.258 94.0033 34.076 93.102 34.076C92.2527 34.076 91.4727 34.2147 90.762 34.492C90.0513 34.7693 89.436 35.168 88.916 35.688C88.396 36.208 87.9887 36.8233 87.694 37.534C87.4167 38.2447 87.278 39.0333 87.278 39.9C87.278 40.7667 87.4167 41.5553 87.694 42.266C87.9887 42.9767 88.396 43.592 88.916 44.112C89.436 44.632 90.0513 45.0307 90.762 45.308C91.4727 45.5853 92.2527 45.724 93.102 45.724C94.0033 45.724 94.8353 45.5507 95.598 45.204C96.3607 44.84 97.054 44.294 97.678 43.566L100.382 46.062C99.5153 47.1193 98.4407 47.9253 97.158 48.48C95.8927 49.0347 94.4627 49.312 92.868 49.312ZM103.127 49V30.8H119.715V49H115.529V33.27L116.491 34.232H106.351L107.313 33.27V49H103.127ZM124.227 49V30.8H138.917V34.154H128.413V37.898H133.457C135.658 37.898 137.331 38.3573 138.475 39.276C139.636 40.1947 140.217 41.5293 140.217 43.28C140.217 45.0827 139.576 46.4867 138.293 47.492C137.01 48.4973 135.199 49 132.859 49H124.227ZM128.413 45.88H132.625C133.7 45.88 134.523 45.672 135.095 45.256C135.667 44.8227 135.953 44.1987 135.953 43.384C135.953 41.7893 134.844 40.992 132.625 40.992H128.413V45.88ZM146.854 41.408V38.184H155.85V41.408H146.854ZM149.246 30.488C150.615 30.488 151.872 30.722 153.016 31.19C154.16 31.6407 155.157 32.2907 156.006 33.14C156.855 33.9893 157.514 34.986 157.982 36.13C158.45 37.274 158.684 38.5307 158.684 39.9C158.684 41.2693 158.45 42.526 157.982 43.67C157.514 44.814 156.855 45.8107 156.006 46.66C155.157 47.5093 154.16 48.168 153.016 48.636C151.872 49.0867 150.615 49.312 149.246 49.312C147.634 49.312 146.178 49.0347 144.878 48.48C143.595 47.9253 142.521 47.1193 141.654 46.062L144.332 43.566C144.973 44.294 145.684 44.84 146.464 45.204C147.244 45.5507 148.102 45.724 149.038 45.724C149.818 45.724 150.537 45.5853 151.196 45.308C151.872 45.0133 152.444 44.6147 152.912 44.112C153.397 43.592 153.761 42.9767 154.004 42.266C154.264 41.5553 154.394 40.7667 154.394 39.9C154.394 39.0333 154.264 38.2447 154.004 37.534C153.761 36.8233 153.397 36.2167 152.912 35.714C152.444 35.194 151.872 34.7953 151.196 34.518C150.537 34.2233 149.818 34.076 149.038 34.076C148.102 34.076 147.244 34.258 146.464 34.622C145.684 34.9687 144.973 35.506 144.332 36.234L141.654 33.738C142.521 32.6807 143.595 31.8747 144.878 31.32C146.178 30.7653 147.634 30.488 149.246 30.488ZM161.657 49.286C161.345 49.286 161.016 49.26 160.669 49.208C160.34 49.156 159.976 49.0867 159.577 49L159.837 45.438C160.08 45.5073 160.331 45.542 160.591 45.542C161.302 45.542 161.856 45.256 162.255 44.684C162.654 44.0947 162.94 43.254 163.113 42.162C163.286 41.07 163.399 39.744 163.451 38.184L163.711 30.8H177.699V49H173.539V33.27L174.501 34.232H166.467L167.325 33.218L167.169 38.028C167.117 39.8133 166.996 41.3993 166.805 42.786C166.614 44.1727 166.32 45.3513 165.921 46.322C165.522 47.2927 164.976 48.0293 164.283 48.532C163.59 49.0347 162.714 49.286 161.657 49.286ZM186.118 38.132H194.88V41.408H186.118V38.132ZM186.43 45.62H196.336V49H182.244V30.8H195.998V34.18H186.43V45.62ZM211.517 49L205.849 40.238L209.255 38.184L216.301 49H211.517ZM199.687 49V30.8H203.873V49H199.687ZM202.651 41.668V38.158H208.995V41.668H202.651ZM209.645 40.368L205.771 39.9L211.673 30.8H216.119L209.645 40.368ZM221.997 49V33.27L222.959 34.232H216.199V30.8H231.981V34.232H225.221L226.157 33.27V49H221.997ZM234.625 49V30.8H242.503C244.133 30.8 245.537 31.0687 246.715 31.606C247.894 32.126 248.804 32.88 249.445 33.868C250.087 34.856 250.407 36.0347 250.407 37.404C250.407 38.756 250.087 39.926 249.445 40.914C248.804 41.902 247.894 42.6647 246.715 43.202C245.537 43.722 244.133 43.982 242.503 43.982H236.965L238.837 42.084V49H234.625ZM238.837 42.552L236.965 40.55H242.269C243.569 40.55 244.54 40.2727 245.181 39.718C245.823 39.1633 246.143 38.392 246.143 37.404C246.143 36.3987 245.823 35.6187 245.181 35.064C244.54 34.5093 243.569 34.232 242.269 34.232H236.965L238.837 32.23V42.552ZM262.15 49.312C260.711 49.312 259.376 49.078 258.146 48.61C256.932 48.142 255.875 47.4833 254.974 46.634C254.09 45.7847 253.396 44.788 252.894 43.644C252.408 42.5 252.166 41.252 252.166 39.9C252.166 38.548 252.408 37.3 252.894 36.156C253.396 35.012 254.098 34.0153 255 33.166C255.901 32.3167 256.958 31.658 258.172 31.19C259.385 30.722 260.702 30.488 262.124 30.488C263.562 30.488 264.88 30.722 266.076 31.19C267.289 31.658 268.338 32.3167 269.222 33.166C270.123 34.0153 270.825 35.012 271.328 36.156C271.83 37.2827 272.082 38.5307 272.082 39.9C272.082 41.252 271.83 42.5087 271.328 43.67C270.825 44.814 270.123 45.8107 269.222 46.66C268.338 47.492 267.289 48.142 266.076 48.61C264.88 49.078 263.571 49.312 262.15 49.312ZM262.124 45.724C262.938 45.724 263.684 45.5853 264.36 45.308C265.053 45.0307 265.66 44.632 266.18 44.112C266.7 43.592 267.098 42.9767 267.376 42.266C267.67 41.5553 267.818 40.7667 267.818 39.9C267.818 39.0333 267.67 38.2447 267.376 37.534C267.098 36.8233 266.7 36.208 266.18 35.688C265.677 35.168 265.079 34.7693 264.386 34.492C263.692 34.2147 262.938 34.076 262.124 34.076C261.309 34.076 260.555 34.2147 259.862 34.492C259.186 34.7693 258.588 35.168 258.068 35.688C257.548 36.208 257.14 36.8233 256.846 37.534C256.568 38.2447 256.43 39.0333 256.43 39.9C256.43 40.7493 256.568 41.538 256.846 42.266C257.14 42.9767 257.539 43.592 258.042 44.112C258.562 44.632 259.168 45.0307 259.862 45.308C260.555 45.5853 261.309 45.724 262.124 45.724Z" fill="#2F2F2F"/>
<defs>
<filter id="filter0_i_50_44" x="7.56885" y="6.66675" width="64.8477" height="70.6667" filterUnits="userSpaceOnUse" color-interpolation-filters="sRGB">
<feFlood flood-opacity="0" result="BackgroundImageFix"/>
<feBlend mode="normal" in="SourceGraphic" in2="BackgroundImageFix" result="shape"/>
<feColorMatrix in="SourceAlpha" type="matrix" values="0 0 0 0 0 0 0 0 0 0 0 0 0 0 0 0 0 0 127 0" result="hardAlpha"/>
<feOffset dy="4"/>
<feGaussianBlur stdDeviation="2"/>
<feComposite in2="hardAlpha" operator="arithmetic" k2="-1" k3="1"/>
<feColorMatrix type="matrix" values="0 0 0 0 0 0 0 0 0 0 0 0 0 0 0 0 0 0 0.25 0"/>
<feBlend mode="normal" in2="shape" result="effect1_innerShadow_50_44"/>
</filter>
</defs>
</svg>
