<svg width="356" height="100" viewBox="0 0 356 100" fill="none" xmlns="http://www.w3.org/2000/svg">
<path d="M204.208 37.26V63H197.24V43.188H190.324L190.272 45.164C190.168 49.5667 189.821 53.0853 189.232 55.72C188.643 58.3547 187.707 60.3133 186.424 61.596C185.176 62.844 183.477 63.468 181.328 63.468C180.323 63.468 179.439 63.312 178.676 63V57.228C178.953 57.2973 179.283 57.332 179.664 57.332C180.635 57.332 181.397 56.864 181.952 55.928C182.541 54.992 182.975 53.5187 183.252 51.508C183.529 49.4973 183.685 46.7933 183.72 43.396L183.772 37.26H204.208ZM235.003 52.496H216.959C217.375 54.1253 218.207 55.3907 219.455 56.292C220.738 57.1587 222.315 57.592 224.187 57.592C226.718 57.592 229.11 56.7253 231.363 54.992L234.275 59.776C231.225 62.3413 227.793 63.624 223.979 63.624C221.31 63.624 218.901 63.0347 216.751 61.856C214.602 60.6773 212.921 59.0653 211.707 57.02C210.494 54.94 209.887 52.652 209.887 50.156C209.887 47.66 210.477 45.3893 211.655 43.344C212.834 41.264 214.446 39.6347 216.491 38.456C218.571 37.2773 220.859 36.688 223.355 36.688C225.713 36.688 227.81 37.2253 229.647 38.3C231.485 39.34 232.906 40.7787 233.911 42.616C234.951 44.4187 235.471 46.4293 235.471 48.648C235.471 49.896 235.315 51.1787 235.003 52.496ZM223.095 42.356C221.605 42.356 220.305 42.824 219.195 43.76C218.086 44.696 217.341 45.9613 216.959 47.556H228.659C228.625 45.9613 228.07 44.696 226.995 43.76C225.921 42.824 224.621 42.356 223.095 42.356ZM258.265 63L248.073 49.376V63H241.105V37.26H248.073V49.272L257.797 37.26H265.753L256.029 49.012L266.585 63H258.265ZM275.652 43.188H267.748V37.26H290.576V43.188H282.62V63H275.652V43.188ZM309.493 36.688C311.885 36.688 314.017 37.2773 315.889 38.456C317.796 39.6 319.286 41.1947 320.361 43.24C321.436 45.2507 321.973 47.5387 321.973 50.104C321.973 52.6693 321.436 54.9747 320.361 57.02C319.286 59.0653 317.796 60.6773 315.889 61.856C314.017 63.0347 311.885 63.624 309.493 63.624C307.933 63.624 306.494 63.364 305.177 62.844C303.86 62.2893 302.733 61.5093 301.797 60.504V72.36H294.777V37.26H301.225V40.484C302.092 39.2707 303.236 38.3347 304.657 37.676C306.113 37.0173 307.725 36.688 309.493 36.688ZM308.193 57.228C310.065 57.228 311.642 56.5867 312.925 55.304C314.208 53.9867 314.849 52.2707 314.849 50.156C314.849 48.0067 314.208 46.2907 312.925 45.008C311.677 43.6907 310.1 43.032 308.193 43.032C306.425 43.032 304.9 43.6387 303.617 44.852C302.334 46.0307 301.693 47.7813 301.693 50.104C301.693 52.392 302.317 54.16 303.565 55.408C304.848 56.6213 306.39 57.228 308.193 57.228ZM339.752 63.572C337.221 63.572 334.899 62.9827 332.784 61.804C330.704 60.5907 329.057 58.9613 327.844 56.916C326.631 54.836 326.024 52.5653 326.024 50.104C326.024 47.6427 326.631 45.3893 327.844 43.344C329.057 41.264 330.721 39.6347 332.836 38.456C334.951 37.2773 337.273 36.688 339.804 36.688C342.335 36.688 344.657 37.2947 346.772 38.508C348.887 39.6867 350.551 41.2987 351.764 43.344C353.012 45.3893 353.636 47.6427 353.636 50.104C353.636 52.5653 353.012 54.836 351.764 56.916C350.551 58.9613 348.869 60.5907 346.72 61.804C344.605 62.9827 342.283 63.572 339.752 63.572ZM339.804 57.124C341.711 57.124 343.288 56.4653 344.536 55.148C345.819 53.8307 346.46 52.1667 346.46 50.156C346.46 48.1453 345.819 46.464 344.536 45.112C343.288 43.76 341.711 43.084 339.804 43.084C337.863 43.084 336.268 43.76 335.02 45.112C333.772 46.4293 333.148 48.1107 333.148 50.156C333.148 52.1667 333.772 53.8307 335.02 55.148C336.268 56.4653 337.863 57.124 339.804 57.124Z" fill="#2F2F2F"/>
<path d="M20.228 67.624C16.8653 67.624 13.78 66.844 10.972 65.284C8.19867 63.724 5.99733 61.592 4.368 58.888C2.77333 56.1493 1.976 53.1333 1.976 49.84C1.976 46.5467 2.79067 43.548 4.42 40.844C6.04933 38.1053 8.25067 35.956 11.024 34.396C13.832 32.836 16.9173 32.056 20.28 32.056C23.5387 32.056 26.4853 32.8187 29.12 34.344C31.7893 35.8347 33.8867 37.9147 35.412 40.584L30.108 44.328C27.6813 40.48 24.4053 38.556 20.28 38.556C18.1653 38.556 16.2587 39.0413 14.56 40.012C12.896 40.9827 11.5787 42.3347 10.608 44.068C9.672 45.7667 9.204 47.708 9.204 49.892C9.204 52.076 9.672 54.0173 10.608 55.716C11.5787 57.4147 12.896 58.7493 14.56 59.72C16.2587 60.656 18.1653 61.124 20.28 61.124C24.4053 61.124 27.6813 59.2 30.108 55.352L35.412 59.096C33.9213 61.7653 31.8413 63.8627 29.172 65.388C26.5027 66.8787 23.5213 67.624 20.228 67.624ZM41.3778 32.68H70.0818V67H63.0618V39.024H48.3978V67H41.3778V32.68ZM77.9403 32.68H100.82V39.024H84.9603V46.148H92.1883C94.4416 46.148 96.4349 46.5813 98.1683 47.448C99.9363 48.28 101.306 49.476 102.276 51.036C103.247 52.5613 103.732 54.364 103.732 56.444C103.732 58.524 103.247 60.3613 102.276 61.956C101.306 63.5507 99.9363 64.7987 98.1683 65.7C96.4349 66.5667 94.4416 67 92.1883 67H77.9403V32.68ZM91.8243 60.968C93.3843 60.968 94.5976 60.5693 95.4643 59.772C96.3309 58.94 96.7643 57.8307 96.7643 56.444C96.7643 55.0573 96.3309 53.9653 95.4643 53.168C94.5976 52.336 93.3843 51.92 91.8243 51.92H84.9603V60.968H91.8243Z" fill="#2F2F2F"/>
<path d="M112 25.0001C116.944 20.0555 123.244 16.6883 130.103 15.3241C136.961 13.9599 144.07 14.66 150.53 17.336C156.99 20.0119 162.512 24.5435 166.397 30.3577C170.282 36.1719 172.355 43.0075 172.355 50.0001C172.355 56.9928 170.282 63.8284 166.397 69.6425C162.512 75.4567 156.99 79.9883 150.53 82.6643C144.07 85.3402 136.961 86.0404 130.102 84.6762C123.244 83.312 116.944 79.9447 112 75.0002L120.494 66.5062C123.759 69.7708 127.918 71.994 132.446 72.8947C136.974 73.7954 141.668 73.3332 145.933 71.5664C150.198 69.7996 153.844 66.8076 156.409 62.9689C158.974 59.1301 160.343 54.617 160.343 50.0001C160.343 45.3833 158.974 40.8701 156.409 37.0314C153.844 33.1926 150.198 30.2007 145.933 28.4339C141.668 26.6671 136.974 26.2048 132.446 27.1055C127.918 28.0062 123.759 30.2294 120.494 33.494L112 25.0001Z" fill="#2F2F2F"/>
<path d="M150.859 17.4734L149.303 16.8509C145.66 15.3937 141.772 14.645 137.849 14.645L111.261 56.2229H141.243L123.141 82.5274C127.067 84.2101 131.269 85.1571 135.538 85.3213L136.434 85.3558L162.739 44.3435H133.323L150.859 17.4734Z" fill="#EC4242"/>
</svg>
