<svg width="225" height="100" viewBox="0 0 225 100" fill="none" xmlns="http://www.w3.org/2000/svg">
<rect y="25" width="225" height="50" fill="#EC4242"/>
<path d="M52.9998 24.9999C57.9444 20.0554 64.2441 16.6881 71.1024 15.3239C77.9607 13.9597 85.0695 14.6599 91.5298 17.3359C97.9902 20.0118 103.512 24.5434 107.397 30.3576C111.282 36.1718 113.355 43.0074 113.355 50C113.355 56.9926 111.282 63.8282 107.397 69.6424C103.512 75.4566 97.9902 79.9882 91.5298 82.6641C85.0695 85.3401 77.9607 86.0403 71.1024 84.6761C64.2441 83.3119 57.9444 79.9446 52.9998 75.0001L61.4938 66.5061C64.7584 69.7707 68.9177 71.9939 73.4459 72.8946C77.974 73.7953 82.6675 73.333 86.9329 71.5662C91.1983 69.7995 94.844 66.8075 97.409 62.9688C99.974 59.13 101.343 54.6168 101.343 50C101.343 45.3832 99.974 40.87 97.409 37.0312C94.844 33.1925 91.1983 30.2005 86.9329 28.4338C82.6675 26.667 77.974 26.2047 73.4459 27.1054C68.9177 28.0061 64.7584 30.2293 61.4938 33.4939L52.9998 24.9999Z" fill="#2F2F2F"/>
<rect x="80" y="45" width="145" height="11" fill="#2F2F2F"/>
<path d="M130.608 43.635V57H126.99V46.713H123.399L123.372 47.739C123.318 50.025 123.138 51.852 122.832 53.22C122.526 54.588 122.04 55.605 121.374 56.271C120.726 56.919 119.844 57.243 118.728 57.243C118.206 57.243 117.747 57.162 117.351 57V54.003C117.495 54.039 117.666 54.057 117.864 54.057C118.368 54.057 118.764 53.814 119.052 53.328C119.358 52.842 119.583 52.077 119.727 51.033C119.871 49.989 119.952 48.585 119.97 46.821L119.997 43.635H130.608ZM146.598 51.546H137.229C137.445 52.392 137.877 53.049 138.525 53.517C139.191 53.967 140.01 54.192 140.982 54.192C142.296 54.192 143.538 53.742 144.708 52.842L146.22 55.326C144.636 56.658 142.854 57.324 140.874 57.324C139.488 57.324 138.237 57.018 137.121 56.406C136.005 55.794 135.132 54.957 134.502 53.895C133.872 52.815 133.557 51.627 133.557 50.331C133.557 49.035 133.863 47.856 134.475 46.794C135.087 45.714 135.924 44.868 136.986 44.256C138.066 43.644 139.254 43.338 140.55 43.338C141.774 43.338 142.863 43.617 143.817 44.175C144.771 44.715 145.509 45.462 146.031 46.416C146.571 47.352 146.841 48.396 146.841 49.548C146.841 50.196 146.76 50.862 146.598 51.546ZM140.415 46.281C139.641 46.281 138.966 46.524 138.39 47.01C137.814 47.496 137.427 48.153 137.229 48.981H143.304C143.286 48.153 142.998 47.496 142.44 47.01C141.882 46.524 141.207 46.281 140.415 46.281ZM158.676 57L153.384 49.926V57H149.766V43.635H153.384V49.872L158.433 43.635H162.564L157.515 49.737L162.996 57H158.676ZM167.704 46.713H163.6V43.635H175.453V46.713H171.322V57H167.704V46.713ZM185.275 43.338C186.517 43.338 187.624 43.644 188.596 44.256C189.586 44.85 190.36 45.678 190.918 46.74C191.476 47.784 191.755 48.972 191.755 50.304C191.755 51.636 191.476 52.833 190.918 53.895C190.36 54.957 189.586 55.794 188.596 56.406C187.624 57.018 186.517 57.324 185.275 57.324C184.465 57.324 183.718 57.189 183.034 56.919C182.35 56.631 181.765 56.226 181.279 55.704V61.86H177.634V43.635H180.982V45.309C181.432 44.679 182.026 44.193 182.764 43.851C183.52 43.509 184.357 43.338 185.275 43.338ZM184.6 54.003C185.572 54.003 186.391 53.67 187.057 53.004C187.723 52.32 188.056 51.429 188.056 50.331C188.056 49.215 187.723 48.324 187.057 47.658C186.409 46.974 185.59 46.632 184.6 46.632C183.682 46.632 182.89 46.947 182.224 47.577C181.558 48.189 181.225 49.098 181.225 50.304C181.225 51.492 181.549 52.41 182.197 53.058C182.863 53.688 183.664 54.003 184.6 54.003ZM200.987 57.297C199.673 57.297 198.467 56.991 197.369 56.379C196.289 55.749 195.434 54.903 194.804 53.841C194.174 52.761 193.859 51.582 193.859 50.304C193.859 49.026 194.174 47.856 194.804 46.794C195.434 45.714 196.298 44.868 197.396 44.256C198.494 43.644 199.7 43.338 201.014 43.338C202.328 43.338 203.534 43.653 204.632 44.283C205.73 44.895 206.594 45.732 207.224 46.794C207.872 47.856 208.196 49.026 208.196 50.304C208.196 51.582 207.872 52.761 207.224 53.841C206.594 54.903 205.721 55.749 204.605 56.379C203.507 56.991 202.301 57.297 200.987 57.297ZM201.014 53.949C202.004 53.949 202.823 53.607 203.471 52.923C204.137 52.239 204.47 51.375 204.47 50.331C204.47 49.287 204.137 48.414 203.471 47.712C202.823 47.01 202.004 46.659 201.014 46.659C200.006 46.659 199.178 47.01 198.53 47.712C197.882 48.396 197.558 49.269 197.558 50.331C197.558 51.375 197.882 52.239 198.53 52.923C199.178 53.607 200.006 53.949 201.014 53.949Z" fill="white"/>
<path d="M20.503 58.324C18.757 58.324 17.155 57.919 15.697 57.109C14.257 56.299 13.114 55.192 12.268 53.788C11.44 52.366 11.026 50.8 11.026 49.09C11.026 47.38 11.449 45.823 12.295 44.419C13.141 42.997 14.284 41.881 15.724 41.071C17.182 40.261 18.784 39.856 20.53 39.856C22.222 39.856 23.752 40.252 25.12 41.044C26.506 41.818 27.595 42.898 28.387 44.284L25.633 46.228C24.373 44.23 22.672 43.231 20.53 43.231C19.432 43.231 18.442 43.483 17.56 43.987C16.696 44.491 16.012 45.193 15.508 46.093C15.022 46.975 14.779 47.983 14.779 49.117C14.779 50.251 15.022 51.259 15.508 52.141C16.012 53.023 16.696 53.716 17.56 54.22C18.442 54.706 19.432 54.949 20.53 54.949C22.672 54.949 24.373 53.95 25.633 51.952L28.387 53.896C27.613 55.282 26.533 56.371 25.147 57.163C23.761 57.937 22.213 58.324 20.503 58.324ZM31.4846 40.18H46.3886V58H42.7436V43.474H35.1296V58H31.4846V40.18ZM50.469 40.18H62.349V43.474H54.114V47.173H57.867C59.037 47.173 60.072 47.398 60.972 47.848C61.89 48.28 62.601 48.901 63.105 49.711C63.609 50.503 63.861 51.439 63.861 52.519C63.861 53.599 63.609 54.553 63.105 55.381C62.601 56.209 61.89 56.857 60.972 57.325C60.072 57.775 59.037 58 57.867 58H50.469V40.18ZM57.678 54.868C58.488 54.868 59.118 54.661 59.568 54.247C60.018 53.815 60.243 53.239 60.243 52.519C60.243 51.799 60.018 51.232 59.568 50.818C59.118 50.386 58.488 50.17 57.678 50.17H54.114V54.868H57.678Z" fill="white"/>
</svg>
