<svg width="175" height="136" viewBox="0 0 175 136" fill="none" xmlns="http://www.w3.org/2000/svg">
<path d="M14.6447 50C14.6447 45.3571 15.5592 40.7596 17.336 36.4701C19.1127 32.1805 21.717 28.283 25.0001 24.9999C28.2831 21.7169 32.1807 19.1126 36.4702 17.3359C40.7597 15.5591 45.3572 14.6446 50.0001 14.6446L50.0001 26.6569C46.9346 26.6569 43.8992 27.2607 41.0671 28.4338C38.235 29.6069 35.6616 31.3263 33.494 33.4939C31.3264 35.6615 29.607 38.2348 28.4339 41.067C27.2608 43.8991 26.657 46.9345 26.657 50L14.6447 50Z" fill="#EC4242"/>
<path d="M75.0002 75.0001C70.4563 79.544 64.7599 82.7635 58.5233 84.3127C52.2868 85.8618 45.746 85.682 39.604 83.7924C33.4621 81.9029 27.9512 78.3751 23.6639 73.5883C19.3766 68.8016 16.4749 62.9369 15.2709 56.6246L27.0704 54.3739C27.8654 58.5415 29.7812 62.4136 32.6118 65.574C35.4425 68.7344 39.081 71.0636 43.1362 72.3112C47.1914 73.5587 51.5099 73.6775 55.6275 72.6547C59.7451 71.6319 63.5061 69.5062 66.5062 66.5061L75.0002 75.0001Z" fill="#2F2F2F"/>
<path d="M59.3448 15.9021C65.2561 17.5221 70.6446 20.6511 74.9818 24.982L66.494 33.4821C63.6304 30.6227 60.0727 28.5568 56.1698 27.4872L59.3448 15.9021Z" fill="#2F2F2F"/>
<path d="M99.9998 24.9999C103.865 21.1351 108.573 18.2189 113.755 16.4805C118.937 14.7421 124.451 14.2288 129.865 14.9809L128.212 26.8789C124.638 26.3823 120.997 26.7213 117.575 27.869C114.154 29.0168 111.046 30.9422 108.494 33.4939L99.9998 24.9999Z" fill="#2F2F2F"/>
<path d="M153.44 28.9957C157.594 34.6206 159.987 41.351 160.316 48.3359C160.645 55.3208 158.896 62.2464 155.289 68.237C151.682 74.2276 146.379 79.0141 140.052 81.9911C133.725 84.9682 126.657 86.0022 119.742 84.9623L121.528 73.0836C126.094 73.7701 130.761 73.0875 134.938 71.1219C139.116 69.1563 142.616 65.9961 144.998 62.0409C147.379 58.0856 148.534 53.513 148.317 48.9013C148.1 44.2896 146.52 39.8459 143.777 36.1321L153.44 28.9957Z" fill="#2F2F2F"/>
<path d="M134.255 15.8775C140.525 17.5781 146.205 20.973 150.671 25.6898L141.949 33.9494C139 30.8352 135.25 28.5937 131.111 27.4709L134.255 15.8775Z" fill="#EC4242"/>
<path d="M115.655 84.0981C109.744 82.4781 104.355 79.3492 100.018 75.0183L108.506 66.5181C111.37 69.3776 114.927 71.4434 118.83 72.513L115.655 84.0981Z" fill="#EC4242"/>
<rect x="128" y="44" width="21" height="12" fill="#2F2F2F"/>
<path d="M25.916 128.234C24.4253 128.234 23.264 127.922 22.432 127.298C21.6173 126.674 21.0453 125.833 20.716 124.776C20.404 123.719 20.248 122.54 20.248 121.24V113.804C20.248 112.383 20.404 111.143 20.716 110.086C21.0453 109.029 21.6173 108.214 22.432 107.642C23.264 107.053 24.4253 106.758 25.916 106.758C27.2333 106.758 28.2733 107.001 29.036 107.486C29.816 107.971 30.3707 108.665 30.7 109.566C31.0467 110.467 31.22 111.551 31.22 112.816V114.48H28.438V112.998C28.438 112.218 28.3947 111.533 28.308 110.944C28.2387 110.337 28.0307 109.869 27.684 109.54C27.3373 109.211 26.7567 109.046 25.942 109.046C25.11 109.046 24.5033 109.228 24.122 109.592C23.7407 109.939 23.4893 110.441 23.368 111.1C23.264 111.741 23.212 112.495 23.212 113.362V121.708C23.212 122.765 23.2987 123.606 23.472 124.23C23.6453 124.837 23.9313 125.27 24.33 125.53C24.7287 125.79 25.266 125.92 25.942 125.92C26.7393 125.92 27.3113 125.747 27.658 125.4C28.0047 125.036 28.2213 124.542 28.308 123.918C28.3947 123.294 28.438 122.566 28.438 121.734V120.174H31.22V121.734C31.22 123.017 31.064 124.152 30.752 125.14C30.44 126.111 29.9027 126.873 29.14 127.428C28.3773 127.965 27.3027 128.234 25.916 128.234ZM34.0189 128V106.94H45.6149V128H42.6769V109.046H36.9569V128H34.0189ZM48.8978 128V106.94H57.9458V109.072H51.8358V115.702H52.4858C54.0111 115.702 55.2678 115.884 56.2558 116.248C57.2611 116.595 58.0064 117.21 58.4918 118.094C58.9944 118.978 59.2458 120.226 59.2458 121.838C59.2458 122.93 59.1158 123.866 58.8558 124.646C58.5958 125.409 58.1884 126.041 57.6338 126.544C57.0964 127.047 56.4118 127.419 55.5798 127.662C54.7651 127.887 53.7858 128 52.6418 128H48.8978ZM51.8358 125.894H52.6678C53.5344 125.894 54.2451 125.799 54.7998 125.608C55.3718 125.4 55.7878 125.001 56.0478 124.412C56.3251 123.823 56.4638 122.956 56.4638 121.812C56.4638 120.373 56.1864 119.351 55.6318 118.744C55.0944 118.137 54.0804 117.834 52.5898 117.834H51.8358V125.894ZM72.6528 127.948C71.3355 127.948 70.2868 127.705 69.5068 127.22C68.7268 126.735 68.1635 126.041 67.8168 125.14C67.4875 124.239 67.3228 123.155 67.3228 121.89V120.85H70.1048V121.682C70.1048 122.445 70.1395 123.129 70.2088 123.736C70.2955 124.343 70.5122 124.819 70.8588 125.166C71.2228 125.495 71.8122 125.66 72.6268 125.66C73.4588 125.66 74.0655 125.478 74.4468 125.114C74.8282 124.75 75.0708 124.239 75.1748 123.58C75.2788 122.921 75.3308 122.159 75.3308 121.292V117.964H71.6388V116.04H75.3308V112.972C75.3308 111.915 75.2442 111.083 75.0708 110.476C74.8975 109.852 74.6115 109.41 74.2128 109.15C73.8315 108.89 73.3028 108.76 72.6268 108.76C71.8468 108.76 71.2748 108.933 70.9108 109.28C70.5642 109.627 70.3388 110.121 70.2348 110.762C70.1482 111.386 70.1048 112.114 70.1048 112.946V113.856H67.3228V112.92C67.3228 111.637 67.4788 110.511 67.7908 109.54C68.1028 108.569 68.6402 107.815 69.4028 107.278C70.1828 106.723 71.2662 106.446 72.6528 106.446C74.1435 106.446 75.2962 106.758 76.1108 107.382C76.9255 108.006 77.4888 108.847 77.8008 109.904C78.1302 110.944 78.2948 112.123 78.2948 113.44V120.876C78.2948 122.297 78.1302 123.545 77.8008 124.62C77.4888 125.677 76.9255 126.501 76.1108 127.09C75.2962 127.662 74.1435 127.948 72.6528 127.948ZM79.5833 128V125.816C79.9646 125.833 80.3113 125.807 80.6233 125.738C80.9526 125.669 81.2386 125.504 81.4813 125.244C81.7413 124.984 81.9666 124.577 82.1573 124.022C82.3479 123.467 82.5126 122.713 82.6513 121.76C82.7899 120.807 82.9113 119.602 83.0153 118.146L83.7173 106.94H92.9733V128H90.0353V109.124H86.2393L85.7453 118.146C85.6586 119.498 85.5459 120.72 85.4073 121.812C85.2686 122.887 85.0606 123.831 84.7833 124.646C84.5233 125.443 84.1679 126.111 83.7173 126.648C83.2839 127.168 82.7293 127.541 82.0533 127.766C81.3773 127.991 80.5539 128.069 79.5833 128ZM96.2767 128V106.94H104.441V109.124H99.2147V116.092H103.453V118.172H99.2147V125.894H104.493V128H96.2767ZM106.865 128V106.94H109.803V116.3H110.895L114.665 106.94H117.603L113.443 116.95L118.123 128H115.185L110.921 117.73H109.803V128H106.865ZM122.382 128V109.124H118.82V106.94H128.778V109.124H125.32V128H122.382ZM130.808 128V106.94H136.034C137.299 106.94 138.305 107.174 139.05 107.642C139.813 108.093 140.367 108.751 140.714 109.618C141.061 110.485 141.234 111.533 141.234 112.764C141.234 113.873 141.035 114.835 140.636 115.65C140.255 116.465 139.683 117.097 138.92 117.548C138.157 117.981 137.204 118.198 136.06 118.198H133.746V128H130.808ZM133.746 116.092H135.098C135.947 116.092 136.615 115.997 137.1 115.806C137.585 115.615 137.932 115.286 138.14 114.818C138.348 114.333 138.452 113.657 138.452 112.79C138.452 111.785 138.374 111.013 138.218 110.476C138.079 109.939 137.776 109.566 137.308 109.358C136.84 109.15 136.112 109.046 135.124 109.046H133.746V116.092ZM148.682 128.234C147.261 128.234 146.125 127.957 145.276 127.402C144.427 126.847 143.82 126.059 143.456 125.036C143.092 123.996 142.91 122.783 142.91 121.396V113.414C142.91 112.027 143.092 110.84 143.456 109.852C143.837 108.847 144.444 108.084 145.276 107.564C146.125 107.027 147.261 106.758 148.682 106.758C150.103 106.758 151.23 107.027 152.062 107.564C152.894 108.101 153.492 108.864 153.856 109.852C154.237 110.84 154.428 112.027 154.428 113.414V121.422C154.428 122.791 154.237 123.987 153.856 125.01C153.492 126.033 152.894 126.83 152.062 127.402C151.23 127.957 150.103 128.234 148.682 128.234ZM148.682 125.92C149.462 125.92 150.051 125.764 150.45 125.452C150.849 125.123 151.117 124.672 151.256 124.1C151.395 123.511 151.464 122.826 151.464 122.046V112.816C151.464 112.036 151.395 111.369 151.256 110.814C151.117 110.242 150.849 109.809 150.45 109.514C150.051 109.202 149.462 109.046 148.682 109.046C147.902 109.046 147.304 109.202 146.888 109.514C146.489 109.809 146.221 110.242 146.082 110.814C145.943 111.369 145.874 112.036 145.874 112.816V122.046C145.874 122.826 145.943 123.511 146.082 124.1C146.221 124.672 146.489 125.123 146.888 125.452C147.304 125.764 147.902 125.92 148.682 125.92Z" fill="#2F2F2F"/>
<rect x="19" y="95" width="137" height="2" fill="#2F2F2F"/>
</svg>
