<svg width="298" height="50" viewBox="0 0 298 50" fill="none" xmlns="http://www.w3.org/2000/svg">
<path d="M0 25C0 11.1929 11.1929 0 25 0H65V10H25.4C17.1157 10 10.4 16.7157 10.4 25V25C10.4 33.2843 17.1157 40 25.4 40H39.52V50H25C11.1929 50 0 38.8071 0 25V25Z" fill="#EC4242"/>
<path d="M111 25C111 38.8071 99.8071 50 86 50L48 50L48 40L85.5 40C93.7843 40 100.5 33.2843 100.5 25V25C100.5 16.7157 93.7843 9.99999 85.5 9.99999L73.725 9.99999L73.725 -7.41753e-06L86 -9.45013e-06C99.8071 -1.17364e-05 111 11.1929 111 25V25Z" fill="#EC4242"/>
<path d="M74 20H101V30H74V20Z" fill="#EC4242"/>
<path d="M130.116 35.392C127.167 35.392 124.731 34.412 122.808 32.452C120.885 30.492 119.924 28.0747 119.924 25.2C119.924 22.3067 120.885 19.8893 122.808 17.948C124.731 15.988 127.167 15.008 130.116 15.008C131.889 15.008 133.523 15.428 135.016 16.268C136.528 17.0893 137.704 18.2093 138.544 19.628L135.212 21.56C134.727 20.6827 134.036 20.0013 133.14 19.516C132.244 19.012 131.236 18.76 130.116 18.76C128.212 18.76 126.672 19.3573 125.496 20.552C124.339 21.7467 123.76 23.296 123.76 25.2C123.76 27.0853 124.339 28.6253 125.496 29.82C126.672 31.0147 128.212 31.612 130.116 31.612C131.236 31.612 132.244 31.3693 133.14 30.884C134.055 30.38 134.745 29.6987 135.212 28.84L138.544 30.772C137.704 32.1907 136.537 33.32 135.044 34.16C133.551 34.9813 131.908 35.392 130.116 35.392ZM155.562 15.4V35H151.698V19.096H144.782V35H140.918V15.4H155.562ZM166.715 22.82C168.619 22.82 170.177 23.3893 171.391 24.528C172.604 25.648 173.211 27.104 173.211 28.896C173.211 30.7067 172.604 32.1813 171.391 33.32C170.177 34.44 168.619 35 166.715 35H159.211V15.4H171.531V19.096H163.075V22.82H166.715ZM166.715 31.388C167.48 31.388 168.115 31.1733 168.619 30.744C169.123 30.296 169.375 29.68 169.375 28.896C169.375 28.112 169.123 27.5053 168.619 27.076C168.115 26.6467 167.48 26.432 166.715 26.432H163.075V31.388H166.715ZM182.653 15.008C185.602 15.008 188.038 15.988 189.961 17.948C191.883 19.8893 192.845 22.3067 192.845 25.2C192.845 28.0747 191.883 30.492 189.961 32.452C188.038 34.412 185.602 35.392 182.653 35.392C180.879 35.392 179.246 34.9813 177.753 34.16C176.259 33.32 175.093 32.1907 174.253 30.772L177.585 28.84C178.051 29.6987 178.733 30.38 179.629 30.884C180.543 31.3693 181.551 31.612 182.653 31.612C184.239 31.612 185.574 31.2013 186.657 30.38C187.739 29.54 188.449 28.4107 188.785 26.992H180.049V23.38H188.785C188.449 21.9613 187.739 20.8413 186.657 20.02C185.574 19.18 184.239 18.76 182.653 18.76C181.551 18.76 180.553 19.012 179.657 19.516C178.761 20.0013 178.07 20.6827 177.585 21.56L174.253 19.628C175.093 18.2093 176.259 17.0893 177.753 16.268C179.265 15.428 180.898 15.008 182.653 15.008ZM192.917 35V31.416C194.075 31.584 194.943 31.3507 195.521 30.716C196.1 30.0813 196.389 28.84 196.389 26.992V15.4H209.717V35H205.881V19.096H200.225V26.88C200.225 28.5787 200.02 30.0067 199.609 31.164C199.199 32.3213 198.629 33.18 197.901 33.74C197.192 34.3 196.427 34.6733 195.605 34.86C194.803 35.0467 193.907 35.0933 192.917 35ZM217.215 31.304H225.475V35H213.351V15.4H225.335V19.096H217.215V23.268H224.635V26.908H217.215V31.304ZM243.515 35H239.063L232.063 25.816V35H228.199V15.4H232.063V24.052L238.783 15.4H243.235L235.983 24.92L243.515 35ZM258.389 15.4V19.096H253.097V35H249.233V19.096H243.969V15.4H258.389ZM267.855 15.4C269.74 15.4 271.327 16.0347 272.615 17.304C273.903 18.5733 274.547 20.132 274.547 21.98C274.547 23.828 273.903 25.3867 272.615 26.656C271.327 27.9253 269.74 28.56 267.855 28.56H264.411V35H260.547V15.4H267.855ZM267.855 24.948C268.676 24.948 269.357 24.668 269.899 24.108C270.44 23.5293 270.711 22.82 270.711 21.98C270.711 21.1213 270.44 20.412 269.899 19.852C269.357 19.292 268.676 19.012 267.855 19.012H264.411V24.948H267.855ZM293.417 32.452C291.439 34.412 289.031 35.392 286.193 35.392C283.356 35.392 280.948 34.412 278.969 32.452C277.009 30.4733 276.029 28.056 276.029 25.2C276.029 22.344 277.009 19.936 278.969 17.976C280.948 15.9973 283.356 15.008 286.193 15.008C289.031 15.008 291.439 15.9973 293.417 17.976C295.396 19.936 296.385 22.344 296.385 25.2C296.385 28.056 295.396 30.4733 293.417 32.452ZM281.685 29.82C282.899 31.0147 284.401 31.612 286.193 31.612C287.985 31.612 289.488 31.0147 290.701 29.82C291.915 28.6067 292.521 27.0667 292.521 25.2C292.521 23.3333 291.915 21.7933 290.701 20.58C289.488 19.3667 287.985 18.76 286.193 18.76C284.401 18.76 282.899 19.3667 281.685 20.58C280.472 21.7933 279.865 23.3333 279.865 25.2C279.865 27.0667 280.472 28.6067 281.685 29.82Z" fill="#2F2F2F"/>
</svg>
