<svg width="236" height="100" viewBox="0 0 236 100" fill="none" xmlns="http://www.w3.org/2000/svg">
<path d="M110.286 46.324C108.828 46.324 107.469 46.09 106.209 45.622C104.967 45.136 103.887 44.452 102.969 43.57C102.051 42.688 101.331 41.653 100.809 40.465C100.305 39.277 100.053 37.972 100.053 36.55C100.053 35.128 100.305 33.823 100.809 32.635C101.331 31.447 102.051 30.412 102.969 29.53C103.905 28.648 104.994 27.973 106.236 27.505C107.478 27.019 108.837 26.776 110.313 26.776C111.951 26.776 113.427 27.064 114.741 27.64C116.073 28.198 117.189 29.026 118.089 30.124L115.281 32.716C114.633 31.978 113.913 31.429 113.121 31.069C112.329 30.691 111.465 30.502 110.529 30.502C109.647 30.502 108.837 30.646 108.099 30.934C107.361 31.222 106.722 31.636 106.182 32.176C105.642 32.716 105.219 33.355 104.913 34.093C104.625 34.831 104.481 35.65 104.481 36.55C104.481 37.45 104.625 38.269 104.913 39.007C105.219 39.745 105.642 40.384 106.182 40.924C106.722 41.464 107.361 41.878 108.099 42.166C108.837 42.454 109.647 42.598 110.529 42.598C111.465 42.598 112.329 42.418 113.121 42.058C113.913 41.68 114.633 41.113 115.281 40.357L118.089 42.949C117.189 44.047 116.073 44.884 114.741 45.46C113.427 46.036 111.942 46.324 110.286 46.324ZM120.94 46V27.1H138.166V46H133.819V29.665L134.818 30.664H124.288L125.287 29.665V46H120.94ZM142.851 46V27.1H158.106V30.583H147.198V34.471H152.436C154.722 34.471 156.459 34.948 157.647 35.902C158.853 36.856 159.456 38.242 159.456 40.06C159.456 41.932 158.79 43.39 157.458 44.434C156.126 45.478 154.245 46 151.815 46H142.851ZM147.198 42.76H151.572C152.688 42.76 153.543 42.544 154.137 42.112C154.731 41.662 155.028 41.014 155.028 40.168C155.028 38.512 153.876 37.684 151.572 37.684H147.198V42.76Z" fill="white"/>
<path d="M104.913 65.116V61.768H114.255V65.116H104.913ZM107.397 53.776C108.819 53.776 110.124 54.019 111.312 54.505C112.5 54.973 113.535 55.648 114.417 56.53C115.299 57.412 115.983 58.447 116.469 59.635C116.955 60.823 117.198 62.128 117.198 63.55C117.198 64.972 116.955 66.277 116.469 67.465C115.983 68.653 115.299 69.688 114.417 70.57C113.535 71.452 112.5 72.136 111.312 72.622C110.124 73.09 108.819 73.324 107.397 73.324C105.723 73.324 104.211 73.036 102.861 72.46C101.529 71.884 100.413 71.047 99.513 69.949L102.294 67.357C102.96 68.113 103.698 68.68 104.508 69.058C105.318 69.418 106.209 69.598 107.181 69.598C107.991 69.598 108.738 69.454 109.422 69.166C110.124 68.86 110.718 68.446 111.204 67.924C111.708 67.384 112.086 66.745 112.338 66.007C112.608 65.269 112.743 64.45 112.743 63.55C112.743 62.65 112.608 61.831 112.338 61.093C112.086 60.355 111.708 59.725 111.204 59.203C110.718 58.663 110.124 58.249 109.422 57.961C108.738 57.655 107.991 57.502 107.181 57.502C106.209 57.502 105.318 57.691 104.508 58.069C103.698 58.429 102.96 58.987 102.294 59.743L99.513 57.151C100.413 56.053 101.529 55.216 102.861 54.64C104.211 54.064 105.723 53.776 107.397 53.776ZM120.285 73.297C119.961 73.297 119.619 73.27 119.259 73.216C118.917 73.162 118.539 73.09 118.125 73L118.395 69.301C118.647 69.373 118.908 69.409 119.178 69.409C119.916 69.409 120.492 69.112 120.906 68.518C121.32 67.906 121.617 67.033 121.797 65.899C121.977 64.765 122.094 63.388 122.148 61.768L122.418 54.1H136.944V73H132.624V56.665L133.623 57.664H125.28L126.171 56.611L126.009 61.606C125.955 63.46 125.829 65.107 125.631 66.547C125.433 67.987 125.127 69.211 124.713 70.219C124.299 71.227 123.732 71.992 123.012 72.514C122.292 73.036 121.383 73.297 120.285 73.297ZM145.687 61.714H154.786V65.116H145.687V61.714ZM146.011 69.49H156.298V73H141.664V54.1H155.947V57.61H146.011V69.49ZM172.062 73L166.176 63.901L169.713 61.768L177.03 73H172.062ZM159.777 73V54.1H164.124V73H159.777ZM162.855 65.386V61.741H169.443V65.386H162.855ZM170.118 64.036L166.095 63.55L172.224 54.1H176.841L170.118 64.036ZM182.946 73V56.665L183.945 57.664H176.925V54.1H193.314V57.664H186.294L187.266 56.665V73H182.946ZM196.06 73V54.1H204.241C205.933 54.1 207.391 54.379 208.615 54.937C209.839 55.477 210.784 56.26 211.45 57.286C212.116 58.312 212.449 59.536 212.449 60.958C212.449 62.362 212.116 63.577 211.45 64.603C210.784 65.629 209.839 66.421 208.615 66.979C207.391 67.519 205.933 67.789 204.241 67.789H198.49L200.434 65.818V73H196.06ZM200.434 66.304L198.49 64.225H203.998C205.348 64.225 206.356 63.937 207.022 63.361C207.688 62.785 208.021 61.984 208.021 60.958C208.021 59.914 207.688 59.104 207.022 58.528C206.356 57.952 205.348 57.664 203.998 57.664H198.49L200.434 55.585V66.304ZM224.643 73.324C223.149 73.324 221.763 73.081 220.485 72.595C219.225 72.109 218.127 71.425 217.191 70.543C216.273 69.661 215.553 68.626 215.031 67.438C214.527 66.25 214.275 64.954 214.275 63.55C214.275 62.146 214.527 60.85 215.031 59.662C215.553 58.474 216.282 57.439 217.218 56.557C218.154 55.675 219.252 54.991 220.512 54.505C221.772 54.019 223.14 53.776 224.616 53.776C226.11 53.776 227.478 54.019 228.72 54.505C229.98 54.991 231.069 55.675 231.987 56.557C232.923 57.439 233.652 58.474 234.174 59.662C234.696 60.832 234.957 62.128 234.957 63.55C234.957 64.954 234.696 66.259 234.174 67.465C233.652 68.653 232.923 69.688 231.987 70.57C231.069 71.434 229.98 72.109 228.72 72.595C227.478 73.081 226.119 73.324 224.643 73.324ZM224.616 69.598C225.462 69.598 226.236 69.454 226.938 69.166C227.658 68.878 228.288 68.464 228.828 67.924C229.368 67.384 229.782 66.745 230.07 66.007C230.376 65.269 230.529 64.45 230.529 63.55C230.529 62.65 230.376 61.831 230.07 61.093C229.782 60.355 229.368 59.716 228.828 59.176C228.306 58.636 227.685 58.222 226.965 57.934C226.245 57.646 225.462 57.502 224.616 57.502C223.77 57.502 222.987 57.646 222.267 57.934C221.565 58.222 220.944 58.636 220.404 59.176C219.864 59.716 219.441 60.355 219.135 61.093C218.847 61.831 218.703 62.65 218.703 63.55C218.703 64.432 218.847 65.251 219.135 66.007C219.441 66.745 219.855 67.384 220.377 67.924C220.917 68.464 221.547 68.878 222.267 69.166C222.987 69.454 223.77 69.598 224.616 69.598Z" fill="white"/>
<path d="M50.0001 14.6446C40.6233 14.6446 31.6305 18.3695 25.0001 24.9999C18.3696 31.6304 14.6447 40.6232 14.6447 50C14.6447 59.3768 18.3696 68.3696 25.0001 75.0001C31.6305 81.6305 40.6233 85.3554 50.0001 85.3554L50.0001 73.3431C43.8091 73.3431 37.8717 70.8838 33.494 66.5061C29.1163 62.1284 26.657 56.191 26.657 50C26.657 43.809 29.1163 37.8716 33.494 33.4939C37.8717 29.1162 43.8091 26.6569 50.0001 26.6569L50.0001 14.6446Z" fill="white"/>
<path d="M53.9999 14.6446C63.3767 14.6446 72.3695 18.3695 78.9999 24.9999C85.6304 31.6304 89.3553 40.6232 89.3553 50C89.3553 59.3768 85.6304 68.3696 78.9999 75.0001C72.3695 81.6305 63.3767 85.3554 53.9999 85.3554L53.9999 73.3431C60.1909 73.3431 66.1283 70.8838 70.506 66.5061C74.8837 62.1284 77.343 56.191 77.343 50C77.343 43.809 74.8837 37.8716 70.506 33.4939C66.1283 29.1162 60.1909 26.6569 53.9999 26.6569L53.9999 14.6446Z" fill="#EC4242"/>
<rect x="54" y="45" width="24" height="11" fill="#EC4242"/>
</svg>
