<svg width="73" height="60" viewBox="0 0 73 60" fill="none" xmlns="http://www.w3.org/2000/svg">
<path fill-rule="evenodd" clip-rule="evenodd" d="M54.1143 47.7903L55.2223 48.8176L54.1792 49.9256L53.0712 48.8983L54.1143 47.7903ZM1.17627 21.9928V21.5388C1.26872 21.0845 1.65286 20.6615 2.45304 20.5289C6.04746 19.9332 5.41861 17.9623 5.95688 16.5814C6.17401 16.0245 6.9634 15.7103 7.50297 15.9444C8.82563 16.5181 7.79184 17.8347 9.1207 19.3077C9.2969 19.503 9.20173 19.3968 9.32625 19.5161C9.89377 20.0596 9.92918 20.0234 10.5565 20.3555V5.44872C10.5565 3.81391 10.1728 1.72205 11.798 1.72205H61.1819C62.7595 1.72205 62.4234 3.60563 62.4234 5.17267V38.0229C63.036 37.6985 63.0157 37.7739 63.5819 37.2498C65.3488 35.6144 64.0634 34.2249 65.4769 33.6117C66.0164 33.3777 66.8058 33.6919 67.0229 34.2487C67.2742 34.8932 67.1366 35.5468 67.5006 36.2552C69.0022 39.1769 71.8036 37.3737 71.8036 39.4031C71.8036 41.6571 67.9832 39.5632 67.1931 43.6236C67.0849 44.1792 67.1965 44.3552 66.9585 44.7691C66.6912 45.2341 66.3174 45.3383 65.872 45.3383C63.9487 45.3383 65.3269 41.5983 62.4234 40.9215V55.0001C62.4234 56.5312 62.7329 58.3127 61.1819 58.3127H11.798C10.2469 58.3127 10.5565 56.5312 10.5565 55.0001V23.2541C9.6085 23.4751 8.88935 24.3359 8.53863 25.2378C8.14668 26.2457 8.44942 27.6709 7.10789 27.6709C6.61983 27.6709 6.20029 27.5142 5.97383 27.0113C5.65659 26.307 6.07499 25.3161 4.80197 24.0431C4.24608 23.4872 3.85615 23.2206 2.89224 23.0554C2.39547 22.9702 2.14534 23.008 1.76256 22.8055C1.45737 22.6439 1.24348 22.3344 1.17627 21.9928ZM65.872 38.2989C66.3474 38.6475 66.2737 39.0776 66.9756 39.2651C66.8196 39.8494 66.3122 40.0556 66.0099 40.5073C65.5584 40.2048 65.3524 39.6972 64.7684 39.5412C64.9988 39.197 65.0221 39.2412 65.3054 38.9743L65.872 38.2989ZM6.00433 21.5978C6.70618 21.4102 6.63245 20.9801 7.10789 20.6316C7.62984 21.4115 7.86437 21.3553 8.21144 21.8739C7.62744 22.0299 7.42142 22.5375 6.96991 22.84C6.77208 22.5444 6.70972 22.5157 6.4487 22.2573C5.93571 21.7496 6.08693 21.7552 6.00433 21.5978ZM17.7295 12.212C18.2079 12.0842 18.5674 11.7245 18.6952 11.2458H18.9711C19.0988 11.7245 19.4583 12.0842 19.9366 12.212V12.4881C19.4583 12.6159 19.0988 12.9756 18.9711 13.4542H18.6952C18.5674 12.9756 18.2079 12.6159 17.7295 12.4881V12.212ZM38.835 13.3162C38.835 14.1832 39.0476 14.6965 40.0765 14.6965C40.8632 14.6965 42.602 12.6525 43.4216 11.8324C44.4899 10.7635 45.4571 9.79575 46.5253 8.72686L50.3867 4.86104C50.7517 4.48361 50.8031 4.26375 51.3836 4.20218C52.2009 4.11547 53.6714 4.20652 54.5606 4.20652L42.6629 16.1803C41.5986 17.2451 38.835 19.5515 38.835 20.6316C38.835 21.3079 39.2843 21.7729 39.9572 21.7994C40.674 21.8275 40.9021 21.3981 41.3526 20.9423L53.3535 8.93389C53.9438 8.34333 57.847 4.20652 58.2851 4.20652H59.9404V48.2368C58.5642 47.3147 59.9231 47.9474 58.0398 47.516C56.6997 47.2091 55.6567 46.1287 55.4258 44.7486C55.2175 43.5046 55.2721 42.9918 53.8709 42.9918C53.5529 42.9918 53.2372 43.3497 53.1021 43.6029C52.9009 43.9801 52.9513 44.2495 52.8677 44.7486C52.7401 45.511 52.3743 46.1252 51.8621 46.6409C50.5745 47.9375 48.2152 47.28 48.2152 48.7889C48.2152 49.8259 48.9512 50.006 49.7699 50.1318C51.3305 50.3713 52.5247 51.2553 52.8467 52.8502C53.095 54.08 52.9018 54.7241 54.4226 54.7241C55.2467 54.7241 55.3581 53.4468 55.4087 53.0881C55.5955 51.7602 56.6542 50.5165 57.9286 50.2266C59.0924 49.9619 59.2157 50.2436 59.9404 49.4791V55.8283H36.0761C37.1858 54.1701 44.7666 47.7576 44.7666 46.5805C44.7666 46.0158 44.362 45.3383 43.5251 45.3383C42.7383 45.3383 40.9995 47.3822 40.1799 48.2023L33.1471 55.2439C32.7361 55.6737 32.7923 55.8006 32.0862 55.8388C31.1112 55.8913 29.9057 55.8283 28.903 55.8283C29.322 55.2022 41.375 43.2798 42.8698 41.7841C43.2875 41.3662 44.7666 40.1208 44.7666 39.5412C44.7666 38.3224 43.8202 38.2989 43.2492 38.2989C42.6022 38.2989 35.1682 46.0397 34.1794 47.0291C33.6602 47.5485 25.6854 55.8283 25.1785 55.8283H13.0394V13.0402C14.5424 14.0472 17.1479 13.3413 17.5815 16.777C17.8357 18.7905 19.3237 18.3884 19.753 17.8254C20.0315 17.4602 20.024 17.2143 20.0972 16.6515C20.6346 12.5246 24.7647 14.5133 24.7647 12.35C24.7647 10.6345 22.5323 11.5751 21.0699 10.1119C19.5812 8.62236 20.5471 6.41493 18.8331 6.41493C18.4846 6.41493 18.1038 6.62457 17.9131 6.87464C17.3683 7.58921 17.8054 10.2466 15.1164 10.9775C13.8828 11.3128 14.1247 10.9327 13.0394 11.6599V4.20652H47.5254C46.5163 5.71434 38.835 12.3689 38.835 13.3162Z" fill="#55BC97"/>
</svg>
