<svg width="17" height="17" viewBox="0 0 17 17" fill="none" xmlns="http://www.w3.org/2000/svg">
<path fill-rule="evenodd" clip-rule="evenodd" d="M4.31901 0.911222C4.58914 0.876568 4.86318 0.93165 5.09894 1.06799C5.33365 1.20373 5.51748 1.41252 5.62241 1.66245L7.19045 5.32123C7.19068 5.32176 7.19091 5.32228 7.19113 5.3228C7.27231 5.51042 7.30624 5.71509 7.28994 5.91888C7.27359 6.12324 7.20723 6.32044 7.0967 6.49311L7.09259 6.49954L5.79034 8.48011C6.37152 9.6788 7.34086 10.6458 8.54092 11.2241L8.54345 11.2224L10.495 9.91872C10.6682 9.80177 10.8681 9.7304 11.0763 9.71124C11.2844 9.69207 11.494 9.72572 11.6856 9.80906C11.6864 9.8094 11.6872 9.80975 11.6879 9.81009L15.3378 11.3776C15.5876 11.4826 15.7962 11.6663 15.9319 11.901C16.0683 12.1367 16.1233 12.4108 16.0887 12.6809C15.9535 13.7361 15.4384 14.7059 14.6399 15.4089C13.8413 16.1118 12.814 16.4997 11.7501 16.4999C8.76645 16.4999 5.90483 15.3146 3.79505 13.2049C1.68526 11.0951 0.5 8.23359 0.5 5.2499C0.50024 4.18605 0.888112 3.15859 1.59104 2.36004C2.29392 1.56153 3.26386 1.04646 4.31901 0.911222ZM5.22656 8.7499L4.6628 9.0197C4.5705 8.82684 4.52921 8.61352 4.54289 8.40014C4.55657 8.18676 4.62475 7.98046 4.74092 7.80095L4.74338 7.79716L6.0439 5.81915L6.04272 5.81642L4.47241 2.15235C3.72087 2.25004 3.03014 2.61699 2.52931 3.18595C2.02725 3.75631 1.75021 4.49006 1.75 5.2499M5.22656 8.7499L4.66404 9.0223C5.36873 10.4775 6.54545 11.6512 8.00249 12.3522L8.00597 12.3538C8.20215 12.4467 8.41913 12.4869 8.63557 12.4705C8.85146 12.4541 9.05937 12.3819 9.23895 12.261C9.23942 12.2607 9.23988 12.2604 9.24034 12.2601L11.1909 10.9571L14.8471 12.5273L14.8481 12.5278C14.7504 13.2793 14.3829 13.9698 13.8139 14.4706C13.2436 14.9726 12.5098 15.2497 11.75 15.2499M1.75 5.2499C1.75004 7.90202 2.8036 10.4456 4.67893 12.321C6.55426 14.1963 9.09789 15.2499 11.75 15.2499" fill="#55BC97"/>
</svg>
