<svg width="124" height="118" viewBox="0 0 124 118" fill="none" xmlns="http://www.w3.org/2000/svg">
<path d="M122.879 110.219C114.132 95.1515 100.132 83.8429 83.5623 78.4609C91.5046 73.738 97.6766 66.5382 101.13 57.9674C104.584 49.3966 105.128 39.929 102.679 31.019C100.23 22.1091 94.923 14.2496 87.574 8.64803C80.225 3.04645 71.2402 0.0126343 61.9998 0.0126343C52.7594 0.0126343 43.7745 3.04645 36.4256 8.64803C29.0766 14.2496 23.77 22.1091 21.321 31.019C18.8719 39.929 19.416 49.3966 22.8695 57.9674C26.323 66.5382 32.495 73.738 40.4373 78.4609C23.8676 83.8429 9.86738 95.1515 1.12089 110.219C0.691466 110.925 0.464355 111.736 0.464355 112.562C0.464355 113.389 0.691466 114.2 1.12089 114.906C1.52154 115.625 2.1086 116.221 2.82016 116.634C3.53173 117.046 4.34143 117.259 5.16386 117.25H118.836C119.658 117.259 120.468 117.046 121.179 116.634C121.891 116.221 122.478 115.625 122.879 114.906C123.308 114.2 123.535 113.389 123.535 112.562C123.535 111.736 123.308 110.925 122.879 110.219Z" fill="#E9EEF2"/>
</svg>
