<svg width="194" height="141" viewBox="0 0 194 141" fill="none" xmlns="http://www.w3.org/2000/svg">
<path d="M47.0003 75.375C47.0107 76.1986 46.8563 77.0161 46.5459 77.7791C46.2355 78.5421 45.7755 79.2353 45.1931 79.8178C44.6106 80.4002 43.9174 80.8602 43.1544 81.1706C42.3914 81.481 41.5739 81.6355 40.7503 81.625H6.37525C5.21415 81.6156 4.07744 81.2907 3.08666 80.6853C2.09589 80.0798 1.2883 79.2164 0.750249 78.1875C0.249917 77.1397 0.0437735 75.9756 0.15386 74.8197C0.263946 73.6637 0.686122 72.5595 1.37525 71.625C6.9064 64.2002 14.2871 58.3549 22.7815 54.6718C19.1314 51.3306 16.327 47.1704 14.5991 42.5335C12.8711 37.8966 12.269 32.9156 12.8423 28.0006C13.4156 23.0855 15.1479 18.3769 17.8967 14.2621C20.6455 10.1474 24.3321 6.7443 28.6531 4.33285C32.9742 1.9214 37.8061 0.57058 42.7513 0.391554C47.6964 0.212528 52.6134 1.21042 57.0975 3.3031C61.5816 5.39578 65.5047 8.52342 68.5438 12.4286C71.5829 16.3338 73.6512 20.9048 74.5784 25.7656C74.8095 27.0316 74.6492 28.3379 74.1188 29.5104C73.5883 30.6829 72.7131 31.6659 71.6096 32.3281C61.5052 38.3199 53.8202 47.6635 49.8909 58.7343C47.9539 64.0674 46.9753 69.7011 47.0003 75.375ZM192.625 71.625C187.094 64.2002 179.713 58.3549 171.219 54.6718C174.869 51.3306 177.673 47.1704 179.401 42.5335C181.129 37.8966 181.732 32.9156 181.158 28.0006C180.585 23.0855 178.853 18.3769 176.104 14.2621C173.355 10.1474 169.668 6.7443 165.347 4.33285C161.026 1.9214 156.194 0.57058 151.249 0.391554C146.304 0.212528 141.387 1.21042 136.903 3.3031C132.419 5.39578 128.496 8.52342 125.457 12.4286C122.418 16.3338 120.349 20.9048 119.422 25.7656C119.191 27.0316 119.351 28.3379 119.882 29.5104C120.412 30.6829 121.287 31.6659 122.391 32.3281C132.509 38.3045 140.198 47.6536 144.11 58.7343C146.047 64.0674 147.025 69.7011 147 75.375C146.99 76.1986 147.144 77.0161 147.455 77.7791C147.765 78.5421 148.225 79.2353 148.807 79.8178C149.39 80.4002 150.083 80.8602 150.846 81.1706C151.609 81.481 152.427 81.6355 153.25 81.625H187.625C188.786 81.625 189.924 81.3018 190.911 80.6915C191.898 80.0813 192.696 79.2082 193.215 78.1701C193.735 77.1319 193.954 75.9697 193.85 74.8137C193.746 73.6577 193.322 72.5535 192.625 71.625ZM119.813 105.141C126.033 100.373 130.603 93.7765 132.881 86.2777C135.159 78.779 135.031 70.755 132.513 63.3331C129.996 55.9113 125.217 49.4645 118.847 44.8987C112.478 40.3329 104.837 37.8775 97.0003 37.8775C89.1632 37.8775 81.523 40.3329 75.1532 44.8987C68.7835 49.4645 64.0043 55.9113 61.4871 63.3331C58.97 70.755 58.8414 78.779 61.1194 86.2777C63.3974 93.7765 67.9676 100.373 74.1878 105.141C62.0356 110.536 52.1837 120.056 46.3753 132.016C45.9131 132.966 45.7061 134.02 45.7746 135.075C45.8431 136.13 46.1847 137.148 46.7659 138.031C47.3068 138.937 48.0735 139.686 48.991 140.207C49.9086 140.727 50.9454 141 52.0003 141H142C143.055 141 144.092 140.727 145.009 140.207C145.927 139.686 146.694 138.937 147.235 138.031C147.816 137.148 148.157 136.13 148.226 135.075C148.294 134.02 148.087 132.966 147.625 132.016C141.817 120.056 131.965 110.536 119.813 105.141Z" fill="#E9EEF2"/>
</svg>
