<svg width="119" height="30" viewBox="0 0 119 30" fill="none" xmlns="http://www.w3.org/2000/svg">
<path d="M67.3886 27.927C55.4179 27.927 43.4466 27.9343 31.4759 27.9069C30.8637 27.9049 29.7154 28.2819 29.7173 27.5125C29.7201 26.5317 30.9041 26.9287 31.5699 26.9282C55.5111 26.9053 79.4516 26.9053 103.392 26.9282C104.059 26.9287 105.282 26.5526 105.247 27.4784C105.218 28.2799 103.986 27.9076 103.301 27.9089C91.3304 27.9343 79.3591 27.927 67.3886 27.927Z" fill="#48B2DF"/>
<path d="M106.274 27.3738C106.51 27.2794 106.748 27.1886 106.983 27.0903C107.648 26.8117 108.326 26.8143 108.992 27.0491C109.103 27.0882 109.238 27.3914 109.187 27.4769C108.738 28.2364 107.958 27.8374 107.316 27.9222C107.078 27.9542 106.825 27.8804 106.579 27.8551C106.477 27.6947 106.376 27.5342 106.274 27.3738Z" fill="#48B2DF"/>
<path d="M110.05 27.832C110.431 27.435 110.559 27.2121 110.755 27.1136C111.395 26.7901 112.082 26.8187 112.746 27.0333C113.036 27.1265 113.064 27.4533 112.891 27.6305C112.394 28.1405 111.718 27.8751 111.116 27.9233C110.875 27.9423 110.627 27.8849 110.05 27.832Z" fill="#48B2DF"/>
<path d="M113.845 27.3642C114.081 27.2711 114.318 27.1785 114.553 27.0833C115.217 26.8153 115.894 26.8101 116.559 27.0436C116.666 27.0807 116.791 27.3864 116.739 27.4784C116.299 28.2536 115.516 27.8311 114.879 27.9224C114.644 27.9562 114.391 27.8781 114.146 27.8507C114.046 27.6884 113.945 27.5267 113.845 27.3642Z" fill="#48B2DF"/>
<path d="M119 27.4172C118.981 27.8281 118.715 27.9298 118.388 27.9279C118.092 27.9259 117.724 27.9279 117.758 27.517C117.784 27.2165 118.02 26.9928 118.359 26.9583C118.724 26.9211 118.89 27.159 119 27.4172Z" fill="#48B2DF"/>
<path d="M15.8025 22.4417C15.4326 23.268 14.9425 23.9324 13.8569 24.6437C13.8569 20.6173 13.846 16.9456 13.865 13.2739C13.869 12.3736 14.3254 12.3272 15.0782 12.704C16.3634 13.3476 17.0224 14.1576 16.9893 15.7133C16.94 18.0372 16.7693 20.2829 15.8025 22.4417ZM9.54244 16.9639C9.5457 16.3419 9.54915 15.7198 9.55258 15.0971C10.1594 15.1141 10.767 15.1303 11.374 15.1466C11.6419 16.5772 11.1053 17.252 9.54244 16.9639ZM9.5214 19.9177C9.52082 19.2904 9.52082 18.6638 9.52006 18.0372C10.3012 17.9732 11.3131 17.6023 11.3927 18.8333C11.48 20.1733 10.4646 20.0605 9.5214 19.9177ZM9.55526 22.7926C9.54857 22.1373 9.5411 21.4827 9.53499 20.8272C10.2534 20.9766 11.4191 20.4836 11.3793 21.7884C11.3449 22.8968 10.4558 22.945 9.55526 22.7926ZM9.70911 12.5606C10.5995 12.3983 10.9777 13.272 11.3489 13.9463C10.7237 13.969 10.0987 13.992 9.47279 14.0147C9.44254 13.4931 9.19398 12.6545 9.70911 12.5606ZM8.94368 22.7926C8.04312 22.945 7.15404 22.8968 7.12017 21.7884C7.08036 20.4836 8.24615 20.9766 8.96453 20.8272C8.95782 21.4827 8.95095 22.1373 8.94368 22.7926ZM8.89697 18.0372C8.89639 18.6638 8.89563 19.2904 8.89563 19.9177C7.95259 20.0605 6.93723 20.1733 7.0243 18.8333C7.1039 17.6023 8.11603 17.9732 8.89697 18.0372ZM7.00745 15.1466C7.61503 15.1303 8.22185 15.1141 8.82943 15.0971C8.83288 15.7198 8.83554 16.3419 8.83899 16.9639C7.27689 17.252 6.73935 16.5772 7.00745 15.1466ZM8.29073 12.6349C9.07188 12.7484 8.86674 13.4559 8.8545 13.992C8.201 13.9938 7.54692 13.9964 6.89341 13.9984C7.1925 13.377 7.31402 12.4928 8.29073 12.6349ZM17.8899 17.5404C17.6888 15.1107 17.8501 12.6532 17.852 10.2081C17.8528 9.5423 17.7684 8.9098 17.1675 8.47232C16.7193 8.14626 16.3134 8.1019 15.974 8.63717C15.7816 8.9405 15.9524 9.65837 15.3084 9.45173C14.7588 9.27429 14.7845 8.6333 14.7372 8.12927C14.5414 6.02845 14.0385 5.59023 11.8889 5.65287C11.7458 5.65676 11.6028 5.66269 11.461 5.67894C9.73418 5.87838 10.1514 4.34093 9.82183 3.57611C9.46819 2.75636 10.474 2.95341 10.9539 2.8366C12.0045 2.58096 12.5897 1.51947 11.856 1.0781C10.9411 0.527113 9.81725 0.262441 8.74925 0.0112485C8.34279 -0.0845033 8.14167 0.452063 8.17803 0.823218C8.35637 2.64825 7.73176 4.36496 7.43554 6.23638C5.19085 4.84294 3.1844 5.79041 2.96643 8.26289C2.95419 8.4006 2.95687 8.54071 2.93199 8.67636C2.86234 9.04935 2.75842 9.46079 2.31351 9.50774C1.82476 9.55857 1.93748 9.08724 1.82152 8.81387C1.39688 7.81042 0.845178 8.17306 0.354532 8.7344C-0.00677761 9.14713 0.069002 9.69553 0.0674749 10.1996C0.0628933 12.6904 0.220772 15.193 0.0337978 17.6707C-0.305684 22.1691 1.94438 25.3466 5.33724 27.9483C8.90176 30.6818 9.13331 30.7071 12.6322 27.885C15.9267 25.2273 18.2638 22.0571 17.8899 17.5404Z" fill="#404040"/>
<path d="M38.5516 2.04918C38.2406 2.45655 37.9874 2.88444 37.7976 3.3275C37.4287 4.20859 37.186 4.7433 37.0647 4.94182L37.0172 4.99281C36.991 4.92666 36.9751 4.88081 36.9646 4.84515C36.7907 4.32059 36.6535 3.95389 36.5428 3.7502C36.432 3.54652 36.2686 3.34782 36.0524 3.15947C35.5039 2.68574 34.8766 2.45156 34.1753 2.45156C33.5268 2.45156 32.9889 2.62476 32.5619 2.97094C32.1294 3.32231 31.9132 3.76037 31.9132 4.28491C31.9132 5.26786 32.6779 5.93492 34.2122 6.29145L35.7466 6.65299C37.9348 7.1624 39.0262 8.27767 39.0262 9.994C39.0262 10.9564 38.6518 11.7612 37.9031 12.4131C37.1544 13.0648 36.2317 13.3909 35.1296 13.3909C34.439 13.3909 33.6638 13.289 32.8097 13.0853L31.7498 12.8306C31.3226 12.7288 30.9642 12.6778 30.6848 12.6778C30.3157 12.6778 29.936 12.795 29.5405 13.0242L29.472 12.8968C30.2208 11.8019 30.748 10.7629 31.0486 9.77498L31.212 9.82084C31.3385 10.7374 31.7182 11.4505 32.3562 11.9597C32.9942 12.4691 33.8272 12.7236 34.8554 12.7236C35.6676 12.7236 36.3107 12.5403 36.7907 12.1787C37.2704 11.8172 37.5077 11.3283 37.5077 10.7171C37.5077 10.0092 37.1755 9.42361 36.5111 8.96006C36.0313 8.6342 35.0452 8.32869 33.5637 8.04848C32.4195 7.82945 31.5917 7.4731 31.0802 6.96886C30.5635 6.46464 30.3052 5.76691 30.3052 4.87066C30.3052 3.9487 30.6479 3.19515 31.3385 2.61957C32.024 2.04402 32.9203 1.75882 34.0224 1.75882C34.7289 1.75882 35.5568 1.88117 36.5006 2.12552C36.9436 2.24272 37.2704 2.30388 37.4813 2.30388C37.7766 2.30388 38.0982 2.20205 38.4515 2.00335L38.5516 2.04918ZM39.1159 2.41588L39.0315 2.54823C38.7837 2.95062 38.5728 3.33764 38.3987 3.70435C37.9717 4.56494 37.7345 5.04383 37.6816 5.14568L37.6342 5.20667L37.4179 5.12018L37.4549 5.03867C37.629 4.65162 37.882 4.1474 38.2142 3.53118L38.8312 2.37005L38.8786 2.30388L39.1159 2.41588ZM36.4636 4.16274C35.794 3.47515 35.0822 3.13396 34.3177 3.13396C33.859 3.13396 33.4739 3.26132 33.1735 3.52101C32.8729 3.78069 32.72 4.10673 32.72 4.50393C32.72 4.93681 33.0258 5.37986 33.6376 5.83825L33.7112 5.87892L33.6638 5.95025C32.8677 5.60906 32.467 5.11 32.467 4.45294C32.467 3.99455 32.6356 3.62284 32.9783 3.33266C33.3159 3.04746 33.7587 2.90476 34.3018 2.90476C34.8238 2.90476 35.2774 3.01178 35.6676 3.22564C36.0577 3.4395 36.3425 3.74003 36.527 4.12708L36.4636 4.16274ZM38.5516 7.64609C39.3743 8.24718 39.7855 9.07207 39.7855 10.1162C39.7855 11.2315 39.3373 12.1787 38.441 12.9528C37.5446 13.7321 36.4531 14.1191 35.1719 14.1191C34.518 14.1191 33.9275 14.0529 33.4003 13.9256L31.9501 13.5844C31.6074 13.5029 31.2436 13.4622 30.8588 13.4622C30.5161 13.4622 30.1944 13.5284 29.9045 13.6607L29.799 13.4062C30.11 13.2687 30.4317 13.1974 30.7585 13.1974C31.1223 13.1974 31.5389 13.2482 32.003 13.3552L33.4003 13.681C33.9591 13.8084 34.5496 13.8746 35.1666 13.8746C36.3741 13.8746 37.4074 13.5029 38.2563 12.7543C39.1054 12.0056 39.5323 11.1041 39.5323 10.05C39.5323 9.15358 39.2055 8.36935 38.5516 7.69711V7.64609ZM32.0873 10.1722C32.3087 11.2265 32.9098 11.9699 33.8854 12.4079V12.4793C32.7569 12.1634 32.0768 11.4098 31.8395 10.2128L32.0873 10.1722ZM30.9483 7.3304L31.2595 7.49342C31.4599 7.8396 32.0451 8.1248 33.0101 8.35399L34.4759 8.70554C35.4672 8.94491 36.1262 9.15358 36.4584 9.32178C36.7907 9.49477 37.0226 9.75965 37.165 10.111L37.0965 10.1467C36.8274 9.84116 36.5321 9.61715 36.2158 9.47445C35.8941 9.33694 35.2825 9.16375 34.381 8.96006C33.0732 8.66988 32.1979 8.41518 31.7498 8.20132C31.3016 7.98746 31.0327 7.69711 30.9483 7.3304ZM44.7682 12.5149L45.0001 13.9102C44.5414 14.0019 44.1302 14.0477 43.7664 14.0477C43.1705 14.0477 42.7118 13.9561 42.385 13.7727C42.0579 13.5946 41.826 13.3552 41.6941 13.0598C41.5623 12.7645 41.4938 12.1431 41.4938 11.1958V5.83825H40.2968V4.61077H41.4938V2.30388L43.1231 1.35661V4.61077H44.7682V5.83825H43.1231V11.2875C43.1231 11.7357 43.1495 12.0261 43.2074 12.1532C43.2654 12.2806 43.3604 12.3824 43.4922 12.4589C43.6241 12.5353 43.8085 12.5759 44.0458 12.5759C44.2303 12.5759 44.4676 12.5556 44.7682 12.5149ZM52.9673 10.9259L54.6546 11.1296C54.3857 12.0821 53.8955 12.8205 53.1731 13.345C52.4507 13.8696 51.5333 14.1344 50.4153 14.1344C49.0023 14.1344 47.8844 13.7167 47.0567 12.8765C46.2289 12.0362 45.8175 10.8598 45.8175 9.34711C45.8175 7.77862 46.2341 6.56131 47.0724 5.69555C47.9108 4.82979 48.9918 4.39691 50.3258 4.39691C51.6123 4.39691 52.6669 4.81965 53.484 5.67025C54.3013 6.52064 54.7126 7.71244 54.7126 9.25045C54.7126 9.3421 54.7074 9.48462 54.7021 9.67315H47.5101C47.568 10.6967 47.8687 11.476 48.4064 12.0209C48.9443 12.5658 49.6193 12.8358 50.4258 12.8358C51.0218 12.8358 51.5333 12.683 51.9602 12.3774C52.3822 12.0769 52.7195 11.593 52.9673 10.9259ZM47.5998 8.37452H52.9832C52.9147 7.59009 52.709 6.99935 52.3663 6.60714C51.8442 6.00127 51.1693 5.69555 50.3415 5.69555C49.5875 5.69555 48.96 5.94008 48.4487 6.42398C47.9372 6.9077 47.6524 7.5596 47.5998 8.37452ZM56.7164 13.9256V1.06625H58.3508V8.39985L62.2211 4.61077H64.3353L60.6498 8.06381L64.7098 13.9256H62.6955L59.5055 9.16375L58.3508 10.2334V13.9256H56.7164ZM65.9752 13.9256V1.06625H67.6099V13.9256H65.9752ZM69.5344 9.2656C69.5344 7.53925 70.03 6.26594 71.0265 5.43586C71.8543 4.7433 72.8668 4.39691 74.0584 4.39691C75.3819 4.39691 76.4681 4.81464 77.3116 5.65489C78.15 6.49514 78.5719 7.65644 78.5719 9.13326C78.5719 10.3352 78.3873 11.2773 78.0129 11.9649C77.6386 12.6525 77.1007 13.182 76.3889 13.5641C75.6772 13.9459 74.8968 14.1344 74.0584 14.1344C72.7085 14.1344 71.617 13.7167 70.784 12.8817C69.951 12.0464 69.5344 10.8394 69.5344 9.2656ZM71.2163 9.2656C71.2163 10.4626 71.4854 11.3537 72.0231 11.9445C72.561 12.5403 73.2411 12.8358 74.0584 12.8358C74.8704 12.8358 75.5453 12.5353 76.083 11.9394C76.621 11.3435 76.8898 10.4371 76.8898 9.21477C76.8898 8.06381 76.621 7.19289 76.0779 6.59699C75.5348 6.00127 74.865 5.70572 74.0584 5.70572C73.2411 5.70572 72.561 6.00127 72.0231 6.59198C71.4854 7.18272 71.2163 8.07398 71.2163 9.2656ZM79.869 3.14413C81.3084 2.22735 82.9271 1.76917 84.7198 1.76917C86.0223 1.76917 87.0874 2.04918 87.9099 2.61441C88.7323 3.17981 89.1436 3.90803 89.1436 4.80449C89.1436 5.99608 88.4319 6.79567 87.003 7.19805V7.29472C87.1454 7.3304 87.3245 7.37623 87.5302 7.43223C88.1998 7.28455 88.7272 6.97387 89.112 6.50531C89.497 6.03675 89.6867 5.47155 89.6867 4.80947C89.6867 3.9794 89.3334 3.24599 88.6269 2.59925V2.54823L88.7272 2.62476C89.5233 3.21547 89.9188 3.97421 89.9188 4.89597C89.9188 6.17428 89.2333 7.06054 87.8624 7.56476C88.4581 7.82946 88.917 8.20631 89.2492 8.6902C89.5812 9.17392 89.7449 9.72397 89.7449 10.33C89.7449 11.201 89.4178 11.8935 88.7641 12.4181C88.1102 12.9426 87.2403 13.2075 86.1488 13.2075H79.6422L80.8972 12.1686V8.37452C80.5386 8.37452 80.122 8.40999 79.6422 8.47637L79.5737 8.22167C80.1114 8.17065 80.5544 8.14532 80.8972 8.14532V7.68177H80.6704C80.3328 7.68177 79.9059 7.70227 79.389 7.74795L79.7898 6.90769L79.9321 6.91784C80.1694 6.9332 80.3487 6.94335 80.4701 6.94335C80.6545 6.94335 80.7969 6.95352 80.8972 6.96886V3.66869L79.869 3.14413ZM82.7163 3.01178V6.96886C82.7848 6.9637 82.8269 6.95871 82.8479 6.95871L83.0115 6.96886C83.0378 6.96886 83.0906 6.96886 83.1696 6.96886V3.37831C83.6917 3.14932 84.1978 3.03213 84.6934 3.03213C85.263 3.03213 85.7111 3.12879 86.0433 3.3275C86.3755 3.52617 86.6549 3.86739 86.8817 4.3461L86.6285 4.2034C86.1752 3.54652 85.5266 3.21547 84.6829 3.21547C84.2137 3.21547 83.7866 3.34283 83.4123 3.60252V6.96886H83.7971C84.9518 6.96886 85.8166 6.78033 86.3807 6.40864C86.945 6.03675 87.2296 5.47155 87.2296 4.70762C87.2296 4.0354 86.9976 3.49051 86.5284 3.07796C86.0592 2.66542 85.4422 2.46174 84.6777 2.46174C84.0028 2.46174 83.3489 2.64508 82.7163 3.01178ZM82.7163 7.68693V12.5199H83.1696V8.21648C83.5967 8.18599 83.9079 8.17065 84.0924 8.17065C85.0995 8.17065 85.8271 8.26233 86.2806 8.44069C86.7288 8.62403 87.0874 8.97024 87.3563 9.47964H87.2455C86.9502 9.07725 86.581 8.79722 86.1329 8.63919C85.6847 8.48652 85.0257 8.40999 84.1557 8.40999L83.4123 8.42535V12.5199H83.7022L85.0205 12.4793C86.7288 12.3621 87.583 11.5575 87.583 10.0753C87.583 9.14343 87.3034 8.50686 86.7393 8.16567C86.1752 7.82444 85.1205 7.65128 83.5757 7.65128C83.4228 7.65128 83.138 7.66142 82.7163 7.68693ZM89.5181 8.30318C90.1666 8.78687 90.4883 9.52547 90.4883 10.5134C90.4883 11.5065 90.1297 12.3316 89.4073 12.9783C88.7059 13.6099 87.6726 13.9256 86.3122 13.9256H80.1325L79.9796 13.6862H85.7111C86.9607 13.6862 87.857 13.5641 88.4107 13.3195C89.6341 12.7695 90.2457 11.812 90.2457 10.4522C90.2457 9.69347 89.9663 9.00091 89.4073 8.3795L89.5181 8.30318ZM98.835 13.9256V12.5556C98.0864 13.6099 97.0687 14.1344 95.7768 14.1344C95.2073 14.1344 94.6747 14.0274 94.1845 13.8186C93.6888 13.6099 93.3197 13.345 93.0824 13.0242C92.8451 12.7085 92.6765 12.3163 92.5816 11.8529C92.5129 11.5422 92.4813 11.0533 92.4813 10.3811V4.61077H94.116V9.77498C94.116 10.5999 94.1475 11.1551 94.2161 11.4453C94.3163 11.8579 94.5377 12.1839 94.8699 12.4181C95.2021 12.6575 95.6134 12.7746 96.1037 12.7746C96.5941 12.7746 97.0528 12.6525 97.4851 12.4079C97.9122 12.1686 98.218 11.8375 98.3973 11.42C98.5766 11.0023 98.6662 10.3962 98.6662 9.60179V4.61077H100.301V13.9256H98.835ZM102.842 13.9256V4.61077H104.313V6.02159C104.688 5.35954 105.036 4.92148 105.357 4.71281C105.674 4.50393 106.022 4.39691 106.401 4.39691C106.955 4.39691 107.514 4.56494 108.083 4.90632L107.519 6.37296C107.124 6.14377 106.723 6.03176 106.322 6.03176C105.964 6.03176 105.642 6.13362 105.357 6.34247C105.073 6.55114 104.872 6.83633 104.751 7.20823C104.566 7.76844 104.477 8.3795 104.477 9.04676V13.9256H102.842ZM108.758 14.6996L110.345 14.9239C110.414 15.3974 110.598 15.7438 110.899 15.9626C111.305 16.253 111.859 16.4007 112.56 16.4007C113.319 16.4007 113.904 16.253 114.316 15.9626C114.727 15.6724 115.006 15.2599 115.149 14.7302C115.233 14.4095 115.275 13.7372 115.27 12.7085C114.558 13.5182 113.667 13.9256 112.597 13.9256C111.273 13.9256 110.245 13.4622 109.523 12.5403C108.795 11.6185 108.431 10.5084 108.431 9.21477C108.431 8.3235 108.6 7.50359 108.932 6.74984C109.264 6.00127 109.744 5.42053 110.377 5.00817C111.01 4.6006 111.753 4.39691 112.607 4.39691C113.746 4.39691 114.685 4.83997 115.423 5.73123V4.61077H116.931V12.6626C116.931 14.1139 116.778 15.1427 116.472 15.7488C116.166 16.3548 115.681 16.8286 115.022 17.1799C114.358 17.5313 113.541 17.7045 112.57 17.7045C111.421 17.7045 110.493 17.455 109.786 16.9557C109.075 16.4567 108.732 15.7029 108.758 14.6996ZM110.108 9.10276C110.108 10.3251 110.361 11.2161 110.862 11.7764C111.363 12.3366 111.996 12.6168 112.755 12.6168C113.504 12.6168 114.131 12.3366 114.643 11.7764C115.154 11.2213 115.407 10.3454 115.407 9.15358C115.407 8.0128 115.144 7.15222 114.621 6.57166C114.099 5.99608 113.467 5.70572 112.723 5.70572C112.001 5.70572 111.384 5.99092 110.872 6.56131C110.361 7.1317 110.108 7.97714 110.108 9.10276Z" fill="#404040"/>
<path d="M32.32 21.499L32.9955 21.5845C32.9224 22.0337 32.7341 22.3845 32.4308 22.639C32.1273 22.8937 31.753 23.0197 31.3102 23.0197C30.7543 23.0197 30.3092 22.8445 29.9726 22.4937C29.636 22.1449 29.4676 21.6422 29.4676 20.9899C29.4676 20.5685 29.5407 20.1985 29.6846 19.8819C29.8285 19.5652 30.0501 19.3277 30.3469 19.1675C30.6435 19.0091 30.9669 18.93 31.3146 18.93C31.7553 18.93 32.1141 19.037 32.3931 19.2529C32.6722 19.4689 32.8516 19.7728 32.9312 20.1685L32.2624 20.2691C32.1983 20.0059 32.0875 19.807 31.9258 19.6743C31.7641 19.5418 31.5693 19.4754 31.3412 19.4754C30.9935 19.4754 30.7122 19.5952 30.4975 19.8347C30.2803 20.0743 30.1718 20.453 30.1718 20.9727C30.1718 21.4969 30.2759 21.8797 30.4864 22.1172C30.6946 22.3545 30.9669 22.4743 31.3014 22.4743C31.5714 22.4743 31.7974 22.3952 31.979 22.2348C32.1583 22.0743 32.2735 21.8305 32.32 21.499ZM33.2126 19.0198H36.5057V19.5674H35.2014V22.9321H34.5192V19.5674H33.2126V19.0198ZM39.8488 21.6723L40.5575 21.7577C40.4445 22.1579 40.2386 22.468 39.9351 22.6883C39.6318 22.9087 39.2464 23.0197 38.777 23.0197C38.1834 23.0197 37.714 22.8445 37.3663 22.4915C37.0186 22.1385 36.8458 21.6444 36.8458 21.0091C36.8458 20.3502 37.0207 19.839 37.3728 19.4754C37.7249 19.1118 38.179 18.93 38.7393 18.93C39.2797 18.93 39.7225 19.1074 40.0658 19.4647C40.4092 19.822 40.5819 20.3225 40.5819 20.9685C40.5819 21.0069 40.5796 21.0668 40.5774 21.1461H37.5567C37.581 21.576 37.7073 21.9032 37.9331 22.1322C38.1591 22.361 38.4425 22.4743 38.7814 22.4743C39.0315 22.4743 39.2464 22.4102 39.4257 22.2819C39.6029 22.1557 39.7447 21.9525 39.8488 21.6723ZM37.5944 20.6005H39.8555C39.8266 20.2711 39.7403 20.0231 39.5964 19.8584C39.3771 19.6037 39.0937 19.4754 38.746 19.4754C38.4293 19.4754 38.1656 19.5782 37.9509 19.7813C37.736 19.9844 37.6164 20.2584 37.5944 20.6005ZM41.4167 19.0198H42.1033V20.7097C42.3226 20.7097 42.4753 20.6691 42.5639 20.5877C42.6504 20.5086 42.7788 20.2733 42.9493 19.8819C43.0844 19.5717 43.195 19.3684 43.2792 19.2701C43.3611 19.1717 43.4587 19.1054 43.5672 19.0712C43.6757 19.037 43.8529 19.0198 44.0942 19.0198H44.2316V19.5674L44.041 19.5652C43.8617 19.5652 43.7444 19.5909 43.6933 19.6423C43.6403 19.6957 43.5582 19.8561 43.4497 20.1236C43.3456 20.3801 43.2505 20.5578 43.164 20.6541C43.0777 20.7524 42.9426 20.8422 42.7633 20.9236C43.0578 21.0006 43.3479 21.2659 43.6336 21.7193L44.3843 22.9321H43.6292L42.8961 21.7193C42.7478 21.4775 42.6171 21.3171 42.5042 21.238C42.3911 21.1611 42.2583 21.1224 42.1033 21.1224V22.9321H41.4167V19.0198ZM45.2571 19.0198H48.4462V22.9321H47.7642V19.5674H45.9438V21.5182C45.9438 21.9717 45.9282 22.2712 45.8993 22.4144C45.8683 22.5599 45.7841 22.6861 45.6469 22.7952C45.5095 22.9044 45.3103 22.9578 45.0512 22.9578C44.8916 22.9578 44.7079 22.9471 44.4974 22.9279V22.376H44.7986C44.9427 22.376 45.0445 22.361 45.1065 22.3333C45.1664 22.3054 45.2083 22.2604 45.2284 22.1983C45.2483 22.1364 45.2571 21.9376 45.2571 21.5973V19.0198ZM52.6696 19.0198V22.9321H51.9853V21.4069H51.5888C51.3474 21.4069 51.1658 21.4369 51.0484 21.4969C50.9311 21.5568 50.7582 21.7492 50.5324 22.0765L49.9344 22.9321H49.0817L49.8236 21.8777C50.0496 21.5568 50.2733 21.3749 50.497 21.332C50.1049 21.2809 49.8148 21.1439 49.6265 20.9236C49.4384 20.7032 49.3431 20.4487 49.3431 20.162C49.3431 19.822 49.4671 19.5482 49.7151 19.3364C49.961 19.1246 50.3198 19.0198 50.7916 19.0198H52.6696ZM51.9853 19.5674H51.0085C50.5988 19.5674 50.3353 19.6294 50.2178 19.7514C50.1005 19.8754 50.0406 20.0188 50.0406 20.1835C50.0406 20.4166 50.1271 20.5877 50.302 20.6968C50.477 20.8058 50.7848 20.8615 51.2256 20.8615H51.9853V19.5674ZM53.7125 19.0198H54.3991V20.6476H56.3036V19.0198H56.9902V22.9321H56.3036V21.1973H54.3991V22.9321H53.7125V19.0198ZM58.0266 19.0198H58.7132V20.6476H60.6177V19.0198H61.3043V22.9321H60.6177V21.1973H58.7132V22.9321H58.0266V19.0198ZM66.1942 19.0198H66.8808V22.9321H66.1942V19.0198ZM62.3518 19.0198H63.0384V20.5493H63.9087C64.4755 20.5493 64.9118 20.6561 65.2197 20.8679C65.5254 21.0797 65.6783 21.3727 65.6783 21.745C65.6783 22.0723 65.5497 22.3503 65.295 22.5835C65.0405 22.8166 64.6307 22.9321 64.0704 22.9321H62.3518V19.0198ZM63.0384 22.3867H63.7602C64.1965 22.3867 64.5065 22.3353 64.6927 22.2305C64.8764 22.1279 64.9694 21.9675 64.9694 21.7492C64.9694 21.5803 64.9007 21.4283 64.7635 21.2958C64.6261 21.1631 64.3228 21.0967 63.8511 21.0967H63.0384V22.3867ZM70.7276 21.6723L71.4362 21.7577C71.3233 22.1579 71.1174 22.468 70.8139 22.6883C70.5105 22.9087 70.1251 23.0197 69.6557 23.0197C69.0621 23.0197 68.5927 22.8445 68.245 22.4915C67.8973 22.1385 67.7245 21.6444 67.7245 21.0091C67.7245 20.3502 67.8994 19.839 68.2515 19.4754C68.6036 19.1118 69.0577 18.93 69.618 18.93C70.1584 18.93 70.6013 19.1074 70.9446 19.4647C71.2879 19.822 71.4607 20.3225 71.4607 20.9685C71.4607 21.0069 71.4584 21.0668 71.4561 21.1461H68.4354C68.4597 21.576 68.586 21.9032 68.8118 22.1322C69.0378 22.361 69.3212 22.4743 69.6601 22.4743C69.9103 22.4743 70.1251 22.4102 70.3045 22.2819C70.4817 22.1557 70.6235 21.9525 70.7276 21.6723ZM68.4731 20.6005H70.7342C70.7054 20.2711 70.619 20.0231 70.4752 19.8584C70.2558 19.6037 69.9725 19.4754 69.6247 19.4754C69.308 19.4754 69.0443 19.5782 68.8296 19.7813C68.6147 19.9844 68.4951 20.2584 68.4731 20.6005ZM74.4658 19.0198H75.1525V20.7097C75.3717 20.7097 75.5245 20.6691 75.6131 20.5877C75.6996 20.5086 75.828 20.2733 75.9985 19.8819C76.1336 19.5717 76.2442 19.3684 76.3284 19.2701C76.4103 19.1717 76.5079 19.1054 76.6164 19.0712C76.7249 19.037 76.9021 19.0198 77.1434 19.0198H77.2808V19.5674L77.0902 19.5652C76.9109 19.5652 76.7936 19.5909 76.7425 19.6423C76.6895 19.6957 76.6074 19.8561 76.4989 20.1236C76.3948 20.3801 76.2997 20.5578 76.2132 20.6541C76.1269 20.7524 75.9918 20.8422 75.8125 20.9236C76.107 21.0006 76.3971 21.2659 76.6828 21.7193L77.4335 22.9321H76.6784L75.9453 21.7193C75.7969 21.4775 75.6662 21.3171 75.5533 21.238C75.4403 21.1611 75.3075 21.1224 75.1525 21.1224V22.9321H74.4658V19.0198ZM77.7142 20.975C77.7142 20.2497 77.9224 19.7149 78.3409 19.3664C78.6886 19.0754 79.1138 18.93 79.6144 18.93C80.1702 18.93 80.6266 19.1054 80.9808 19.4582C81.3329 19.8112 81.5101 20.299 81.5101 20.9193C81.5101 21.4241 81.4326 21.8198 81.2753 22.1085C81.1182 22.3974 80.8922 22.6198 80.5933 22.7802C80.2944 22.9406 79.9666 23.0197 79.6144 23.0197C79.0474 23.0197 78.589 22.8445 78.2391 22.4937C77.8891 22.1429 77.7142 21.6359 77.7142 20.975ZM78.4207 20.975C78.4207 21.4775 78.5336 21.852 78.7594 22.1C78.9854 22.3503 79.2711 22.4743 79.6144 22.4743C79.9555 22.4743 80.2389 22.3483 80.4649 22.098C80.6907 21.8475 80.8036 21.4668 80.8036 20.9535C80.8036 20.47 80.6907 20.1042 80.4626 19.8539C80.2345 19.6037 79.9532 19.4796 79.6144 19.4796C79.2711 19.4796 78.9854 19.6037 78.7594 19.8519C78.5336 20.0999 78.4207 20.4744 78.4207 20.975ZM82.3184 19.0198H83.005V20.6476H84.9095V19.0198H85.5961V22.9321H84.9095V21.1973H83.005V22.9321H82.3184V19.0198ZM89.2724 21.499L89.9479 21.5845C89.8748 22.0337 89.6865 22.3845 89.3832 22.639C89.0797 22.8937 88.7054 23.0197 88.2626 23.0197C87.7066 23.0197 87.2615 22.8445 86.9249 22.4937C86.5883 22.1449 86.4199 21.6422 86.4199 20.9899C86.4199 20.5685 86.493 20.1985 86.6369 19.8819C86.7808 19.5652 87.0024 19.3277 87.2992 19.1675C87.5958 19.0091 87.9192 18.93 88.2669 18.93C88.7076 18.93 89.0665 19.037 89.3455 19.2529C89.6245 19.4689 89.804 19.7728 89.8836 20.1685L89.2148 20.2691C89.1507 20.0059 89.0399 19.807 88.8782 19.6743C88.7165 19.5418 88.5216 19.4754 88.2935 19.4754C87.9458 19.4754 87.6645 19.5952 87.4498 19.8347C87.2326 20.0743 87.1241 20.453 87.1241 20.9727C87.1241 21.4969 87.2282 21.8797 87.4387 22.1172C87.6469 22.3545 87.9192 22.4743 88.2537 22.4743C88.5238 22.4743 88.7498 22.3952 88.9314 22.2348C89.1107 22.0743 89.2259 21.8305 89.2724 21.499ZM90.1649 19.0198H93.458V19.5674H92.1537V22.9321H91.4715V19.5674H90.1649V19.0198ZM94.116 24.4317V19.0198H94.7404V19.5268C94.8887 19.3277 95.0548 19.1802 95.241 19.0797C95.4247 18.9791 95.6507 18.93 95.9163 18.93C96.2619 18.93 96.5675 19.0155 96.831 19.1867C97.0945 19.3599 97.296 19.6016 97.4311 19.916C97.5662 20.2304 97.6326 20.5727 97.6326 20.947C97.6326 21.347 97.5574 21.7065 97.4091 22.0274C97.2606 22.3483 97.0436 22.5941 96.7602 22.7632C96.4766 22.9343 96.1777 23.0197 95.8654 23.0197C95.6373 23.0197 95.4314 22.9728 95.2498 22.8787C95.0682 22.7867 94.9199 22.6691 94.8024 22.5279V24.4317H94.116ZM94.736 20.9984C94.736 21.5012 94.8422 21.8732 95.0527 22.113C95.263 22.3545 95.52 22.4743 95.8212 22.4743C96.1245 22.4743 96.3859 22.3503 96.6052 22.1C96.8222 21.852 96.9307 21.4668 96.9307 20.9428C96.9307 20.4445 96.8243 20.07 96.6117 19.822C96.3991 19.5737 96.1444 19.4497 95.8499 19.4497C95.5577 19.4497 95.2984 19.5824 95.0749 19.8454C94.8489 20.1107 94.736 20.4957 94.736 20.9984ZM98.3432 24.4402L98.2656 23.8156C98.4163 23.8563 98.547 23.8755 98.6599 23.8755C98.8128 23.8755 98.9345 23.8519 99.0254 23.8027C99.1161 23.7535 99.1915 23.6829 99.2512 23.5953C99.2933 23.529 99.3643 23.3643 99.4594 23.1011C99.4728 23.0648 99.4927 23.0092 99.5214 22.9386L97.9846 19.0198H98.7242L99.5679 21.2851C99.6764 21.5738 99.774 21.8755 99.8603 22.1921C99.9401 21.8862 100.035 21.5888 100.144 21.3001L101.01 19.0198H101.696L100.155 22.9985C99.9887 23.4284 99.8603 23.7236 99.7694 23.8862C99.6477 24.1043 99.5082 24.2648 99.3509 24.3674C99.1938 24.4679 99.0055 24.5193 98.7862 24.5193C98.6534 24.5193 98.5049 24.4936 98.3432 24.4402ZM102.276 19.0198H102.963V20.7097C103.182 20.7097 103.335 20.6691 103.424 20.5877C103.51 20.5086 103.639 20.2733 103.809 19.8819C103.944 19.5717 104.055 19.3684 104.139 19.2701C104.221 19.1717 104.318 19.1054 104.427 19.0712C104.535 19.037 104.713 19.0198 104.954 19.0198H105.091V19.5674L104.901 19.5652C104.721 19.5652 104.604 19.5909 104.553 19.6423C104.5 19.6957 104.418 19.8561 104.309 20.1236C104.205 20.3801 104.11 20.5578 104.024 20.6541C103.937 20.7524 103.802 20.8422 103.623 20.9236C103.918 21.0006 104.208 21.2659 104.493 21.7193L105.244 22.9321H104.489L103.756 21.7193C103.608 21.4775 103.477 21.3171 103.364 21.238C103.251 21.1611 103.118 21.1224 102.963 21.1224V22.9321H102.276V19.0198ZM105.709 19.0198H106.396V22.3867H108.296V19.0198H108.982V22.3867H109.423V24.0402H108.861V22.9321H105.709V19.0198ZM110.174 19.0198H110.86V22.0037L112.763 19.0198H113.503V22.9321H112.816V19.9652L110.914 22.9321H110.174V19.0198ZM114.539 19.0198H115.225V22.0037L117.128 19.0198H117.868V22.9321H117.181V19.9652L115.279 22.9321H114.539V19.0198Z" fill="#404040"/>
</svg>
