<svg width="19" height="19" viewBox="0 0 19 19" fill="none" xmlns="http://www.w3.org/2000/svg">
<path fill-rule="evenodd" clip-rule="evenodd" d="M4.58281 0.293369C4.90697 0.251784 5.23581 0.317882 5.51873 0.481496C5.80038 0.644381 6.02097 0.894922 6.14689 1.19484L8.02854 5.58538C8.02882 5.58601 8.02909 5.58664 8.02936 5.58727C8.12678 5.81241 8.16749 6.05801 8.14793 6.30256C8.12831 6.54779 8.04867 6.78444 7.91604 6.99163L7.9111 6.99935L6.34841 9.37604C7.04583 10.8145 8.20903 11.9749 9.64911 12.6688L9.65214 12.6668L11.9941 11.1024C12.2019 10.962 12.4418 10.8764 12.6915 10.8534C12.9413 10.8304 13.1927 10.8708 13.4227 10.9708C13.4237 10.9712 13.4246 10.9716 13.4255 10.972L17.8053 12.853C18.1051 12.979 18.3555 13.1995 18.5183 13.4811C18.6819 13.764 18.748 14.0928 18.7064 14.417C18.5442 15.6833 17.9261 16.847 16.9678 17.6905C16.0096 18.5341 14.7768 18.9995 13.5002 18.9998C9.91975 18.9998 6.4858 17.5775 3.95406 15.0457C1.42232 12.514 0 9.08021 0 5.49979C0.000287756 4.22316 0.465735 2.99021 1.30925 2.03195C2.15271 1.07374 3.31663 0.455655 4.58281 0.293369ZM5.67187 9.69979L4.99536 10.0235C4.88459 9.79211 4.83505 9.53612 4.85147 9.28007C4.86788 9.02402 4.9497 8.77645 5.08911 8.56105L5.09205 8.5565L6.65268 6.18288L6.65126 6.17961L4.76689 1.78273C3.86505 1.89995 3.03617 2.3403 2.43518 3.02305C1.8327 3.70748 1.50025 4.58797 1.5 5.49979M5.67187 9.69979L4.99685 10.0267C5.84248 11.7729 7.25454 13.1814 9.00298 14.0225L9.00716 14.0245C9.24257 14.136 9.50296 14.1842 9.76269 14.1645C10.0217 14.1448 10.2712 14.0582 10.4867 13.9131C10.4873 13.9128 10.4879 13.9124 10.4884 13.912L12.8291 12.3484L17.2165 14.2327L17.2177 14.2332C17.1005 15.135 16.6595 15.9636 15.9767 16.5646C15.2923 17.1671 14.4118 17.4995 13.5 17.4998M1.5 5.49979C1.50004 8.68232 2.76432 11.7347 5.01472 13.9851C7.26512 16.2355 10.3175 17.4997 13.5 17.4998" fill="#404040"/>
</svg>
