<svg width="26" height="26" viewBox="0 0 26 26" fill="none" xmlns="http://www.w3.org/2000/svg">
<path d="M22.6164 25.5H22.453C3.56572 24.4135 0.884017 8.47115 0.509155 3.60577C0.47895 3.22748 0.523658 2.84695 0.640717 2.48597C0.757776 2.125 0.944886 1.79068 1.19132 1.50217C1.43776 1.21365 1.73869 0.976623 2.07686 0.804653C2.41503 0.632684 2.78379 0.529156 3.16202 0.500001H8.45815C8.84316 0.499628 9.21941 0.614914 9.53817 0.830926C9.85693 1.04694 10.1035 1.35372 10.246 1.71154L11.707 5.30769C11.8476 5.65726 11.8825 6.04046 11.8073 6.4097C11.7322 6.77895 11.5502 7.11795 11.284 7.38462L9.23671 9.45192C9.55651 11.27 10.4268 12.9458 11.7299 14.2528C13.033 15.5599 14.706 16.4349 16.5225 16.7596L18.6083 14.6923C18.8788 14.429 19.2209 14.2512 19.5918 14.1811C19.9627 14.111 20.3461 14.1517 20.694 14.2981L24.3177 15.75C24.67 15.897 24.9706 16.1456 25.1811 16.4641C25.3917 16.7826 25.5027 17.1566 25.5 17.5385V22.6154C25.5 23.3804 25.1962 24.1141 24.6554 24.6551C24.1146 25.1961 23.3812 25.5 22.6164 25.5ZM3.39271 2.42308C3.13779 2.42308 2.89331 2.52438 2.71305 2.70471C2.53279 2.88503 2.43152 3.1296 2.43152 3.38462V3.46154C2.87367 9.15385 5.70916 22.6154 22.5587 23.5769C22.685 23.5847 22.8116 23.5675 22.9312 23.5263C23.0508 23.4851 23.1611 23.4206 23.2558 23.3366C23.3504 23.2527 23.4276 23.1508 23.4828 23.0369C23.538 22.9231 23.5702 22.7994 23.5776 22.6731V17.5385L19.9539 16.0865L17.1953 18.8269L16.7339 18.7692C8.37164 17.7212 7.23745 9.35577 7.23745 9.26923L7.17978 8.80769L9.90954 6.04808L8.46776 2.42308H3.39271Z" fill="#55BC97"/>
</svg>
