<svg width="70" height="70" viewBox="0 0 70 70" fill="none" xmlns="http://www.w3.org/2000/svg">
<path fill-rule="evenodd" clip-rule="evenodd" d="M34.9994 8.75002C20.5019 8.75002 8.74935 20.5025 8.74935 35C8.74935 49.4975 20.5019 61.25 34.9994 61.25C49.4968 61.25 61.2494 49.4975 61.2494 35C61.2494 20.5025 49.4968 8.75002 34.9994 8.75002ZM2.91602 35C2.91602 17.2809 17.2802 2.91669 34.9994 2.91669C52.7185 2.91669 67.0827 17.2809 67.0827 35C67.0827 52.7192 52.7185 67.0834 34.9994 67.0834C17.2802 67.0834 2.91602 52.7192 2.91602 35Z" fill="#404040"/>
<path fill-rule="evenodd" clip-rule="evenodd" d="M27.7904 20.7618C28.7388 20.2543 29.8895 20.3099 30.7845 20.9065L48.2845 32.5732C49.096 33.1142 49.5833 34.0248 49.5833 35C49.5833 35.9752 49.096 36.8859 48.2845 37.4268L30.7845 49.0935C29.8895 49.6902 28.7388 49.7458 27.7904 49.2382C26.842 48.7307 26.25 47.7423 26.25 46.6667V23.3334C26.25 22.2577 26.842 21.2694 27.7904 20.7618ZM32.0833 28.7832V41.2168L41.4086 35L32.0833 28.7832Z" fill="#404040"/>
</svg>
