<svg width="60" height="60" viewBox="0 0 60 60" fill="none" xmlns="http://www.w3.org/2000/svg">
<path d="M30 5.625C25.1791 5.625 20.4664 7.05457 16.458 9.73293C12.4495 12.4113 9.32533 16.2181 7.48045 20.6721C5.63556 25.126 5.15285 30.027 6.09337 34.7553C7.03388 39.4836 9.35538 43.8268 12.7643 47.2357C16.1732 50.6446 20.5164 52.9661 25.2447 53.9066C29.973 54.8472 34.874 54.3644 39.3279 52.5196C43.7819 50.6747 47.5887 47.5505 50.2671 43.542C52.9454 39.5336 54.375 34.8209 54.375 30C54.3626 23.5392 51.7906 17.3465 47.2221 12.778C42.6535 8.20944 36.4609 5.63739 30 5.625ZM28.125 13.125C28.125 12.6277 28.3226 12.1508 28.6742 11.7992C29.0258 11.4475 29.5027 11.25 30 11.25C30.4973 11.25 30.9742 11.4475 31.3258 11.7992C31.6775 12.1508 31.875 12.6277 31.875 13.125V27.1875C31.875 27.6848 31.6775 28.1617 31.3258 28.5133C30.9742 28.865 30.4973 29.0625 30 29.0625C29.5027 29.0625 29.0258 28.865 28.6742 28.5133C28.3226 28.1617 28.125 27.6848 28.125 27.1875V13.125ZM30 48.75C25.9775 48.7514 22.0613 47.4592 18.8295 45.0642C15.5978 42.6692 13.2219 39.2984 12.0528 35.4495C10.8837 31.6007 10.9834 27.4779 12.337 23.6901C13.6907 19.9023 16.2266 16.6501 19.5703 14.4141C19.9837 14.1375 20.49 14.0364 20.9779 14.1331C21.4658 14.2298 21.8953 14.5163 22.1719 14.9297C22.4485 15.3431 22.5496 15.8494 22.4529 16.3373C22.3562 16.8251 22.0696 17.2546 21.6563 17.5313C18.9731 19.3196 16.9365 21.9238 15.8475 24.9589C14.7585 27.994 14.675 31.2989 15.6092 34.3852C16.5435 37.4714 18.4459 40.1752 21.0353 42.0968C23.6248 44.0184 26.7637 45.0559 29.9883 45.0559C33.2128 45.0559 36.3518 44.0184 38.9413 42.0968C41.5307 40.1752 43.4331 37.4714 44.3674 34.3852C45.3016 31.2989 45.2181 27.994 44.1291 24.9589C43.0401 21.9238 41.0035 19.3196 38.3203 17.5313C37.9118 17.2507 37.6292 16.8215 37.5329 16.3354C37.4365 15.8493 37.5341 15.3448 37.8047 14.9297C37.9416 14.725 38.1176 14.5492 38.3224 14.4125C38.5273 14.2758 38.7571 14.1808 38.9987 14.1329C39.2403 14.085 39.4889 14.0852 39.7304 14.1335C39.9719 14.1817 40.2016 14.2771 40.4063 14.4141C43.7483 16.649 46.2834 19.899 47.6376 23.6846C48.9918 27.4701 49.0933 31.5907 47.9272 35.4383C46.7611 39.286 44.3891 42.6569 41.1612 45.0537C37.9333 47.4506 34.0205 48.7464 30 48.75Z" fill="#55BC97"/>
</svg>
