<svg width="58" height="58" viewBox="0 0 58 58" fill="none" xmlns="http://www.w3.org/2000/svg">
<path fill-rule="evenodd" clip-rule="evenodd" d="M15.3144 14.3376C16.2584 15.2812 16.2586 16.8113 15.315 17.7552C12.6118 20.4593 10.7711 23.9042 10.0257 27.6543C9.28019 31.4044 9.66342 35.2914 11.1269 38.8237C12.5904 42.3561 15.0684 45.3752 18.2476 47.4992C21.4268 49.6233 25.1645 50.7571 28.988 50.7571C32.8115 50.7571 36.5491 49.6233 39.7283 47.4992C42.9075 45.3752 45.3856 42.3561 46.849 38.8237C48.3125 35.2914 48.6957 31.4044 47.9503 27.6543C47.2048 23.9042 45.3641 20.4593 42.6609 17.7552C41.7173 16.8113 41.7176 15.2812 42.6615 14.3376C43.6054 13.3939 45.1356 13.3942 46.0792 14.3381C49.4581 17.7182 51.759 22.0243 52.6908 26.712C53.6227 31.3996 53.1437 36.2583 51.3143 40.6737C49.485 45.0892 46.3874 48.863 42.4134 51.5181C38.4394 54.1732 33.7673 55.5904 28.988 55.5904C24.2086 55.5904 19.5365 54.1732 15.5625 51.5181C11.5885 48.863 8.49098 45.0892 6.66163 40.6737C4.83228 36.2583 4.35324 31.3996 5.28508 26.712C6.21692 22.0243 8.51778 17.7182 11.8968 14.3381C12.8404 13.3942 14.3705 13.3939 15.3144 14.3376Z" fill="#55BC97"/>
<path fill-rule="evenodd" clip-rule="evenodd" d="M28.9997 9.45654C30.3344 9.45654 31.4163 10.5385 31.4163 11.8732V29C31.4163 30.3347 30.3344 31.4166 28.9997 31.4166C27.665 31.4166 26.583 30.3347 26.583 29V11.8732C26.583 10.5385 27.665 9.45654 28.9997 9.45654Z" fill="#55BC97"/>
</svg>
