<svg width="141" height="158" viewBox="0 0 141 158" fill="none" xmlns="http://www.w3.org/2000/svg">
<path d="M139.084 22.1129C138.8 20.0758 137.335 18.4001 135.355 17.8493L71.8831 0.188982C70.9782 -0.0629939 70.0224 -0.0629939 69.1169 0.188982L5.64501 17.8493C3.66461 18.4001 2.19961 20.0751 1.9161 22.1129C1.54796 24.7614 -6.85051 87.3395 14.691 118.47C36.207 149.564 67.9478 157.532 69.2882 157.856C69.6866 157.952 70.0926 158 70.5 158C70.9074 158 71.3134 157.952 71.7118 157.856C73.0529 157.532 104.794 149.564 126.309 118.47C147.851 87.3401 139.452 24.7621 139.084 22.1129ZM111.431 58.6466L68.137 101.962C67.1296 102.97 65.8084 103.475 64.4879 103.475C63.1674 103.475 61.8462 102.971 60.8388 101.962L34.0704 75.1806C33.1022 74.2126 32.5586 72.8991 32.5586 71.5297C32.5586 70.1604 33.1029 68.8468 34.0704 67.8788L39.3854 62.5612C41.4009 60.5454 44.6688 60.5447 46.6836 62.5612L64.4879 80.3743L98.8181 46.0265C99.7856 45.0578 101.098 44.5139 102.467 44.5139C103.836 44.5139 105.149 45.0578 106.116 46.0265L111.431 51.3441C113.447 53.3606 113.447 56.6301 111.431 58.6466Z" fill="#55BC97"/>
</svg>
