<svg width="40" height="22" viewBox="0 0 40 22" fill="none" xmlns="http://www.w3.org/2000/svg">
<path d="M35.6042 15.4216C35.6042 15.4216 38.8382 18.4943 39.6382 19.9162C39.6537 19.9367 39.6659 19.9594 39.6742 19.9836C40.0002 20.5088 40.0802 20.9206 39.9202 21.2246C39.6502 21.7268 38.7362 21.9788 38.4262 22H32.7102C32.3122 22 31.4842 21.8999 30.4762 21.2304C29.7062 20.7128 28.9402 19.8604 28.1982 19.0273C27.0902 17.7901 26.1322 16.7165 25.1622 16.7165C25.0397 16.7162 24.918 16.7357 24.8022 16.7742C24.0682 16.9974 23.1362 18.0037 23.1362 20.6839C23.1362 21.5228 22.4482 22 21.9662 22H19.3482C18.4562 22 13.8122 21.6998 9.69418 17.5227C4.64818 12.4084 0.11618 2.1492 0.0721801 2.05877C-0.20982 1.39496 0.38218 1.03323 1.02218 1.03323H6.79418C7.56818 1.03323 7.82018 1.48347 7.99618 1.88753C8.20018 2.35123 8.95618 4.20605 10.1962 6.28984C12.2042 9.68008 13.4382 11.0596 14.4242 11.0596C14.6094 11.0602 14.7915 11.0137 14.9522 10.925C16.2402 10.2438 16.0002 5.81844 15.9402 4.90642C15.9402 4.7294 15.9382 2.93038 15.2782 2.0607C14.8062 1.43729 14.0022 1.19486 13.5162 1.10635C13.6462 0.925485 13.9222 0.648417 14.2762 0.484869C15.1582 0.0615705 16.7522 0 18.3342 0H19.2122C20.9282 0.023089 21.3722 0.128914 21.9962 0.280916C23.2522 0.569529 23.2762 1.35263 23.1662 4.01942C23.1342 4.78135 23.1002 5.6395 23.1002 6.64964C23.1002 6.86514 23.0902 7.10565 23.0902 7.35001C23.0522 8.71803 23.0022 10.2592 24.0062 10.8923C24.1364 10.9703 24.2868 11.0116 24.4402 11.0115C24.7882 11.0115 25.8302 11.0115 28.6562 6.34564C29.8962 4.28494 30.8562 1.85482 30.9222 1.67203C30.9782 1.57005 31.1462 1.28337 31.3502 1.16792C31.4953 1.09364 31.6578 1.05654 31.8222 1.06017H38.6122C39.3522 1.06017 39.8542 1.16792 39.9522 1.43729C40.1162 1.87406 39.9202 3.20745 36.8202 7.24033C36.2982 7.91184 35.8402 8.49292 35.4382 9.00088C32.6282 12.5489 32.6282 12.7278 35.6042 15.4216Z" fill="#55BC97"/>
</svg>
