<svg width="31" height="22" viewBox="0 0 31 22" fill="none" xmlns="http://www.w3.org/2000/svg">
<path d="M29.7917 1.88854C28.6727 0.547161 26.6067 0 22.6611 0H8.3386C4.3027 0 2.2017 0.582456 1.0869 2.01056C0 3.40297 0 5.45457 0 8.29404V13.7061C0 19.207 1.2896 22 8.3386 22H22.6612C26.0828 22 27.9788 21.5172 29.2054 20.3334C30.4633 19.1195 31 17.1375 31 13.7061V8.29404C31 5.29958 30.9159 3.23587 29.7917 1.88854ZM19.9021 11.7472L13.3983 15.1749C13.2529 15.2515 13.0939 15.2896 12.9351 15.2896C12.7553 15.2896 12.5759 15.2408 12.417 15.1437C12.1178 14.9609 11.9351 14.6339 11.9351 14.2812V7.44779C11.9351 7.09565 12.1173 6.76893 12.4159 6.586C12.7146 6.40308 13.0861 6.39057 13.396 6.55293L19.8998 9.95852C20.2307 10.1318 20.4385 10.4762 20.439 10.8521C20.4394 11.2282 20.2325 11.5732 19.9021 11.7472Z" fill="#55BC97"/>
</svg>
