<svg width="50" height="50" viewBox="0 0 50 50" fill="none" xmlns="http://www.w3.org/2000/svg">
<path fill-rule="evenodd" clip-rule="evenodd" d="M22.9167 8.33329C14.8625 8.33329 8.33332 14.8625 8.33332 22.9166C8.33332 30.9708 14.8625 37.5 22.9167 37.5C30.9708 37.5 37.5 30.9708 37.5 22.9166C37.5 14.8625 30.9708 8.33329 22.9167 8.33329ZM4.16666 22.9166C4.16666 12.5613 12.5613 4.16663 22.9167 4.16663C33.272 4.16663 41.6667 12.5613 41.6667 22.9166C41.6667 33.272 33.272 41.6666 22.9167 41.6666C12.5613 41.6666 4.16666 33.272 4.16666 22.9166Z" fill="#404040"/>
<path fill-rule="evenodd" clip-rule="evenodd" d="M33.2144 33.2143C34.0279 32.4007 35.347 32.4007 36.1606 33.2143L45.2231 42.2768C46.0367 43.0904 46.0367 44.4095 45.2231 45.2231C44.4095 46.0367 43.0904 46.0367 42.2769 45.2231L33.2144 36.1606C32.4008 35.347 32.4008 34.0279 33.2144 33.2143Z" fill="#404040"/>
<path fill-rule="evenodd" clip-rule="evenodd" d="M22.9167 14.5834C24.0673 14.5834 25 15.5161 25 16.6667V29.1667C25 30.3173 24.0673 31.25 22.9167 31.25C21.7661 31.25 20.8333 30.3173 20.8333 29.1667V16.6667C20.8333 15.5161 21.7661 14.5834 22.9167 14.5834Z" fill="#404040"/>
<path fill-rule="evenodd" clip-rule="evenodd" d="M14.5833 22.9167C14.5833 21.7661 15.5161 20.8334 16.6667 20.8334H29.1667C30.3173 20.8334 31.25 21.7661 31.25 22.9167C31.25 24.0673 30.3173 25 29.1667 25H16.6667C15.5161 25 14.5833 24.0673 14.5833 22.9167Z" fill="#404040"/>
</svg>
