<svg id="Layer_1" data-name="Layer 1" xmlns="http://www.w3.org/2000/svg" width="100.01" height="100" viewBox="0 0 100.01 100"><defs><style>.cls-1{fill:#febf2b;}</style></defs><title>award</title><path class="cls-1" d="M226.31,293.49h59.38a3.14,3.14,0,0,0,3.12-3.13V268.49a3.14,3.14,0,0,0-3.12-3.13H226.31a3.14,3.14,0,0,0-3.12,3.13v21.87a3.14,3.14,0,0,0,3.12,3.13Z" transform="translate(-206 -205.99)"/><path d="M239.5,242.12l-2.83,16.47a3.13,3.13,0,0,0,4.53,3.3L256,254.12l14.78,7.77a3.13,3.13,0,0,0,4.54-3.3l-2.8-16.47,12-11.66a3.13,3.13,0,0,0-1.74-5.33l-16.55-2.4-7.4-15a3.12,3.12,0,0,0-5.6,0l-7.4,15-16.53,2.42a3.13,3.13,0,0,0-1.74,5.33Z" transform="translate(-206 -205.99)"/><path d="M300.22,291.93l5.37-9.4a3.13,3.13,0,0,0-2.72-4.67H296a1,1,0,0,0-1,1v11.52a9.38,9.38,0,0,1-9.37,9.38h-8.4a1,1,0,0,0-1,1v2.15a3.14,3.14,0,0,0,3.13,3.13h23.43a3.13,3.13,0,0,0,2.72-4.67Z" transform="translate(-206 -205.99)"/><path d="M216.94,290.36V278.84a1,1,0,0,0-1-1h-6.83a3.13,3.13,0,0,0-2.72,4.67l5.37,9.4-5.37,9.37a3.14,3.14,0,0,0,2.72,4.69h23.43a3.14,3.14,0,0,0,3.13-3.13v-2.15a1,1,0,0,0-1-1h-8.4a9.38,9.38,0,0,1-9.37-9.38Z" transform="translate(-206 -205.99)"/></svg>