<svg id="Capa_1" data-name="Capa 1" xmlns="http://www.w3.org/2000/svg" width="100.02" height="100" viewBox="0 0 100.02 100"><defs><style>.cls-1{fill:#febf2b;}</style></defs><title>diploma</title><path d="M295.26,206H216.82A10.77,10.77,0,0,0,206,216.78v59.63a10.78,10.78,0,0,0,10.78,10.78H263V274.85a18.21,18.21,0,1,1,36.41,0v11.54a10.79,10.79,0,0,0,6.7-10V216.78A10.8,10.8,0,0,0,295.26,206Zm-61.19,12.75H278a2.93,2.93,0,1,1,0,5.86H234.07a2.93,2.93,0,0,1,0-5.86Zm19.26,52.74h-31.8a2.93,2.93,0,1,1,0-5.86h31.8a2.93,2.93,0,0,1,0,5.86Zm37.22-21.76h-69a2.93,2.93,0,0,1,0-5.86h69a2.93,2.93,0,0,1,2.93,2.93A3,3,0,0,1,290.55,249.73Zm0-12.56h-69a2.93,2.93,0,0,1,0-5.86h69a2.93,2.93,0,0,1,2.93,2.93A3,3,0,0,1,290.55,237.17Z" transform="translate(-206.04 -206)"/><path class="cls-1" d="M281.14,262.48a12.35,12.35,0,1,0,12.34,12.35A12.38,12.38,0,0,0,281.14,262.48Z" transform="translate(-206.04 -206)"/><path class="cls-1" d="M268.79,288.19v14.88a2.94,2.94,0,0,0,2.93,2.93,2.86,2.86,0,0,0,1.62-.49l7.8-5.19,7.79,5.19a2.9,2.9,0,0,0,1.62.49,3,3,0,0,0,1.39-.35,2.92,2.92,0,0,0,1.54-2.58V288.19a18.16,18.16,0,0,1-24.69,0Z" transform="translate(-206.04 -206)"/></svg>