<svg id="Слой_1" data-name="Слой 1" xmlns="http://www.w3.org/2000/svg" width="96.6" height="100" viewBox="0 0 96.6 100"><defs><style>.cls-1{fill:#febf2b;}</style></defs><title>documents</title><path class="cls-1" d="M254.4,200.8H241.9a5.38,5.38,0,0,1-5.4-5.4V182.9H199a5.38,5.38,0,0,0-5.4,5.4h26.9a.9.9,0,0,1,.5.1c.1,0,.1,0,.2.1a1,1,0,0,1,.5.4l17.9,17.9c.1.2.3.3.4.5s0,.1.1.2a.75.75,0,0,1,.1.5v57.2h8.9a5.38,5.38,0,0,0,5.4-5.4Z" transform="translate(-175.7 -174)"/><path d="M236.5,209.7H224a5.38,5.38,0,0,1-5.4-5.4V191.8H181.1a5.38,5.38,0,0,0-5.4,5.4v71.4a5.38,5.38,0,0,0,5.4,5.4h50a5.38,5.38,0,0,0,5.4-5.4Zm-42.8,7.2h0a1.79,1.79,0,0,1,1.8,1.8h0a1.79,1.79,0,0,1-1.8,1.8h0a1.79,1.79,0,0,1-1.8-1.8h0A1.79,1.79,0,0,1,193.7,216.9Zm-10.8,0h3.6a1.79,1.79,0,0,1,1.8,1.8h0a1.79,1.79,0,0,1-1.8,1.8h-3.6a1.79,1.79,0,0,1-1.8-1.8h0A1.93,1.93,0,0,1,182.9,216.9Zm0,10.7h17.9a1.79,1.79,0,0,1,1.8,1.8h0a1.79,1.79,0,0,1-1.8,1.8H182.9a1.79,1.79,0,0,1-1.8-1.8h0A1.93,1.93,0,0,1,182.9,227.6Zm28.6,3.5h-3.6a1.79,1.79,0,0,1-1.8-1.8h0a1.79,1.79,0,0,1,1.8-1.8h3.6a1.79,1.79,0,0,1,1.8,1.8h0A1.79,1.79,0,0,1,211.5,231.1Zm5.4,19.7h0a1.79,1.79,0,0,1-1.8,1.8H208a1.79,1.79,0,0,1-1.8-1.8h0A1.79,1.79,0,0,1,208,249h7.1A1.79,1.79,0,0,1,216.9,250.8Zm-3.6-10.7h0a1.79,1.79,0,0,1-1.8,1.8H200.8a1.79,1.79,0,0,1-1.8-1.8h0a1.79,1.79,0,0,1,1.8-1.8h10.7A1.79,1.79,0,0,1,213.3,240.1Zm-30.4-1.8h10.7a1.79,1.79,0,0,1,1.8,1.8h0a1.79,1.79,0,0,1-1.8,1.8H182.9a1.79,1.79,0,0,1-1.8-1.8h0A1.93,1.93,0,0,1,182.9,238.3Zm0,10.7h17.9a1.79,1.79,0,0,1,1.8,1.8h0a1.79,1.79,0,0,1-1.8,1.8H182.9a1.79,1.79,0,0,1-1.8-1.8h0A1.93,1.93,0,0,1,182.9,249Zm10.8,14.3H183a1.79,1.79,0,0,1-1.8-1.8h0a1.79,1.79,0,0,1,1.8-1.8h10.7a1.79,1.79,0,0,1,1.8,1.8h0A1.93,1.93,0,0,1,193.7,263.3Zm17.8,0H200.8a1.79,1.79,0,0,1-1.8-1.8h0a1.79,1.79,0,0,1,1.8-1.8h10.7a1.79,1.79,0,0,1,1.8,1.8h0A1.79,1.79,0,0,1,211.5,263.3Zm7.2,0h0a1.79,1.79,0,0,1-1.8-1.8h0a1.79,1.79,0,0,1,1.8-1.8h0a1.79,1.79,0,0,1,1.8,1.8h0A1.93,1.93,0,0,1,218.7,263.3Zm-1.8-23.2h0a1.79,1.79,0,0,1,1.8-1.8h0a1.79,1.79,0,0,1,1.8,1.8h0a1.79,1.79,0,0,1-1.8,1.8h0A1.79,1.79,0,0,1,216.9,240.1Zm12.5,23.2h-3.6a1.79,1.79,0,0,1-1.8-1.8h0a1.79,1.79,0,0,1,1.8-1.8h3.6a1.79,1.79,0,0,1,1.8,1.8h0A1.79,1.79,0,0,1,229.4,263.3Zm0-10.7h-7.1a1.79,1.79,0,0,1-1.8-1.8h0a1.79,1.79,0,0,1,1.8-1.8h7.1a1.79,1.79,0,0,1,1.8,1.8h0A1.79,1.79,0,0,1,229.4,252.6Zm0-10.7h-3.6a1.79,1.79,0,0,1-1.8-1.8h0a1.79,1.79,0,0,1,1.8-1.8h3.6a1.79,1.79,0,0,1,1.8,1.8h0A1.79,1.79,0,0,1,229.4,241.9Zm0-10.8H218.7a1.79,1.79,0,0,1-1.8-1.8h0a1.79,1.79,0,0,1,1.8-1.8h10.7a1.79,1.79,0,0,1,1.8,1.8h0A1.79,1.79,0,0,1,229.4,231.1Zm0-10.7H200.8a1.79,1.79,0,0,1-1.8-1.8h0a1.79,1.79,0,0,1,1.8-1.8h28.6a1.79,1.79,0,0,1,1.8,1.8h0A1.79,1.79,0,0,1,229.4,220.4Z" transform="translate(-175.7 -174)"/><path d="M272.2,191.9H259.7a5.38,5.38,0,0,1-5.4-5.4V174H216.8a5.38,5.38,0,0,0-5.4,5.4h26.9a.9.9,0,0,1,.5.1c.1,0,.1,0,.2.1a1,1,0,0,1,.5.4l17.9,17.9c.1.2.3.3.4.5s0,.1.1.2a.75.75,0,0,1,.1.5v57.2h8.9a5.38,5.38,0,0,0,5.4-5.4Z" transform="translate(-175.7 -174)"/><path d="M234,206.1l-11.8-11.8v10a1.79,1.79,0,0,0,1.8,1.8Z" transform="translate(-175.7 -174)"/><path d="M269.7,188.3l-11.8-11.8v10a1.79,1.79,0,0,0,1.8,1.8Z" transform="translate(-175.7 -174)"/><path class="cls-1" d="M251.8,197.2,240,185.4v10a1.79,1.79,0,0,0,1.8,1.8Z" transform="translate(-175.7 -174)"/></svg>