<svg id="Capa_1" data-name="Capa 1" xmlns="http://www.w3.org/2000/svg" width="100" height="100.1" viewBox="0 0 100 100.1"><defs><style>.cls-1{fill:#febf2b;}.cls-2{fill:#fff;}</style></defs><title>file</title><polygon points="1.7 23.7 23.4 23.7 23.4 1.8 1.7 23.7"/><path d="M220.6,270.6h34.9A29.31,29.31,0,0,1,282.3,253V214.7a8.81,8.81,0,0,0-8.8-8.8H235.2v26.6a2.9,2.9,0,0,1-2.9,2.9H206V297a9,9,0,0,0,8.8,9H265a29.72,29.72,0,0,1-11.3-17.8h-33a2.9,2.9,0,1,1,0-5.8h32.4a28.8,28.8,0,0,1,.6-5.9h-33a3,3,0,0,1-.1-5.9Zm23.5-46.8h23.6a2.9,2.9,0,1,1,0,5.8H244.1a2.9,2.9,0,1,1,0-5.8Zm0,11.7h23.6a2.9,2.9,0,1,1,0,5.8H244.1a2.9,2.9,0,0,1,0-5.8Zm-23.5,11.7h47.1a2.9,2.9,0,1,1,0,5.8H220.6a2.9,2.9,0,0,1,0-5.8Zm0,11.7H257a2.9,2.9,0,0,1,0,5.8H220.6a2.9,2.9,0,0,1,0-5.8Z" transform="translate(-206 -205.9)"/><path class="cls-1" d="M282.4,258.8A23.6,23.6,0,1,0,306,282.4,23.64,23.64,0,0,0,282.4,258.8Z" transform="translate(-206 -205.9)"/><path class="cls-2" d="M285.3,269.6v16.2a2.82,2.82,0,0,1-2.9,2.8,2.88,2.88,0,0,1-2.9-2.8V269.6a2.9,2.9,0,0,1,5.8,0Z" transform="translate(-206 -205.9)"/><circle class="cls-2" cx="76.4" cy="89.7" r="3"/></svg>