<svg id="Capa_1" data-name="Capa 1" xmlns="http://www.w3.org/2000/svg" width="100" height="100" viewBox="0 0 100 100"><defs><style>.cls-1{fill:#febf2b;}</style></defs><title>file2</title><polygon points="1.72 23.63 23.44 23.63 23.44 1.72 1.72 23.63"/><path class="cls-1" d="M282.37,258.93a23.54,23.54,0,0,0,0,47.07,23.54,23.54,0,1,0,0-47.07Zm10.86,22.58-11.72,11.72a2.92,2.92,0,0,1-4.14,0l-5.86-5.86a2.93,2.93,0,0,1,4.14-4.14l3.79,3.79,9.65-9.65a2.9,2.9,0,0,1,4.14,0A2.93,2.93,0,0,1,293.23,281.51Z" transform="translate(-206 -206)"/><path d="M220.65,270.65h34.9a29.31,29.31,0,0,1,26.82-17.58V214.79a8.81,8.81,0,0,0-8.79-8.79H235.3v26.56a2.93,2.93,0,0,1-2.93,2.93H206V297a9,9,0,0,0,8.79,9H265a29.73,29.73,0,0,1-11.3-17.77h-33a2.93,2.93,0,1,1,0-5.86h32.42a30.48,30.48,0,0,1,.59-5.86h-33a2.93,2.93,0,1,1,0-5.86Zm23.44-46.88h23.63a2.93,2.93,0,0,1,0,5.86H244.09a2.93,2.93,0,1,1,0-5.86Zm0,11.72h23.63a2.93,2.93,0,0,1,0,5.86H244.09a2.93,2.93,0,1,1,0-5.86Zm-23.44,11.72h47.07a2.93,2.93,0,0,1,0,5.86H220.65a2.93,2.93,0,1,1,0-5.86Zm0,11.72h36.44a2.93,2.93,0,0,1,0,5.86H220.65a2.93,2.93,0,0,1,0-5.86Z" transform="translate(-206 -206)"/></svg>