<svg id="Capa_1" data-name="Capa 1" xmlns="http://www.w3.org/2000/svg" width="100.1" height="100" viewBox="0 0 100.1 100"><defs><style>.cls-1{fill:#febf2b;}</style></defs><title>folder (1)</title><path d="M303.1,211.9H251.7A3,3,0,0,0,249,216h0a2.85,2.85,0,0,0,2.7,1.7h51.4a2.9,2.9,0,0,0,2.9-2.9h0A2.9,2.9,0,0,0,303.1,211.9Z" transform="translate(-206 -206)"/><path class="cls-1" d="M289.3,266.5a41,41,0,0,0-31.5,0,2.84,2.84,0,0,0-1.8,2.7v10.1a29.57,29.57,0,0,0,16.2,26.4,3.19,3.19,0,0,0,2.7,0,29.57,29.57,0,0,0,16.2-26.4V269.2a2.7,2.7,0,0,0-1.8-2.7Zm-7.4,16.3-8.3,8.3a3,3,0,0,1-4.1,0l-4.1-4.1a2.9,2.9,0,0,1,4.1-4.1l2.1,2.1,6.2-6.2a3,3,0,0,1,4.1,0,2.83,2.83,0,0,1,0,4Z" transform="translate(-206 -206)"/><path d="M239.5,209a5.05,5.05,0,0,0-4.6-3H211.1a5.12,5.12,0,0,0-5.1,5.1v64.2a8.92,8.92,0,0,0,8.9,8.9h35.5a.1.1,0,0,0,.1-.1,38.66,38.66,0,0,1-.3-4.8v-10a9,9,0,0,1,5.6-8.3,47,47,0,0,1,35.6,0,8.81,8.81,0,0,1,5.6,8.3v10a38.66,38.66,0,0,1-.3,4.8.1.1,0,0,0,.1.1h.4a8.92,8.92,0,0,0,8.9-8.9V228.7a5.12,5.12,0,0,0-5.1-5.1H245.9Zm.9,63.4H221a2.94,2.94,0,0,1-3-2.4,3,3,0,0,1,2.9-3.5h19.4a3,3,0,1,1,.1,5.9Zm0-11.7H221a2.94,2.94,0,0,1-3-2.4,3,3,0,0,1,2.9-3.5h19.4a3,3,0,1,1,.1,5.9Z" transform="translate(-206 -206)"/></svg>