<svg id="Capa_1" data-name="Capa 1" xmlns="http://www.w3.org/2000/svg" width="100" height="100" viewBox="0 0 100 100"><defs><style>.cls-1{fill:#febf2b;}</style></defs><title>GOST-ne-ustra</title><polygon points="1.72 23.63 23.44 23.63 23.44 1.72 1.72 23.63"/><path d="M220.65,270.65h34.9a29.31,29.31,0,0,1,26.82-17.58V214.79a8.81,8.81,0,0,0-8.79-8.79H235.3v26.56a2.93,2.93,0,0,1-2.93,2.93H206V297a9,9,0,0,0,8.79,9H265a29.73,29.73,0,0,1-11.3-17.77h-33a2.93,2.93,0,1,1,0-5.86h32.42a30.48,30.48,0,0,1,.59-5.86h-33a2.93,2.93,0,1,1,0-5.86Zm23.44-46.88h23.63a2.93,2.93,0,0,1,0,5.86H244.09a2.93,2.93,0,1,1,0-5.86Zm0,11.72h23.63a2.93,2.93,0,0,1,0,5.86H244.09a2.93,2.93,0,1,1,0-5.86Zm-23.44,11.72h47.07a2.93,2.93,0,0,1,0,5.86H220.65a2.93,2.93,0,1,1,0-5.86Zm0,11.72h36.44a2.93,2.93,0,0,1,0,5.86H220.65a2.93,2.93,0,0,1,0-5.86Z" transform="translate(-206 -206)"/><path class="cls-1" d="M282.41,258.83A23.59,23.59,0,1,0,306,282.41,23.6,23.6,0,0,0,282.41,258.83Zm-12.78,17.81a3.93,3.93,0,1,1,3.93,3.93A3.93,3.93,0,0,1,269.63,276.64Zm24,19a1.92,1.92,0,0,1-1.39.56,2,2,0,0,1-1.39-.56,11.91,11.91,0,0,0-16.87,0,2,2,0,0,1-2.77-2.78,15.86,15.86,0,0,1,22.42,0,1.94,1.94,0,0,1,0,2.78Zm-2.37-15.08a3.93,3.93,0,1,1,3.93-3.93A3.94,3.94,0,0,1,291.25,280.59Z" transform="translate(-206 -206)"/></svg>