<svg id="Capa_1" data-name="Capa 1" xmlns="http://www.w3.org/2000/svg" width="100" height="94.21" viewBox="0 0 100 94.21"><defs><style>.cls-1{fill:#febf2b;}</style></defs><title>handshake</title><path d="M292.66,266.55l-28-28-9.33,9.33a10.26,10.26,0,0,1-14.52-14.51l14-14a20.94,20.94,0,0,0-13.5,0l-8-8a8.81,8.81,0,0,0-12.44,0l-12.42,12.45a9,9,0,0,0,.29,12.63l8.48,8.48a14.91,14.91,0,0,0,.39,6.27,10.17,10.17,0,0,1,11.72,10.24,10.21,10.21,0,0,1,10.37,10.37,10.18,10.18,0,0,1,7.38,3l18.66,18.65a4.39,4.39,0,0,0,6.21-6.21l-11.41-11.41a2.93,2.93,0,0,1,4.14-4.14l11.41,11.41a4.39,4.39,0,0,0,6.21-6.21l-11.41-11.41a2.93,2.93,0,0,1,4.15-4.14l11.4,11.41a4.41,4.41,0,0,0,6.23-6.25Z" transform="translate(-206 -208.85)"/><path class="cls-1" d="M222.19,258.26a4.4,4.4,0,0,0-6.21,0l-6.21,6.22a4.39,4.39,0,1,0,6.21,6.21l6.21-6.21A4.39,4.39,0,0,0,222.19,258.26Z" transform="translate(-206 -208.85)"/><path class="cls-1" d="M232.56,268.62a4.38,4.38,0,0,0-6.21,0l-6.21,6.21a4.39,4.39,0,0,0,6.21,6.21l6.21-6.21A4.38,4.38,0,0,0,232.56,268.62Z" transform="translate(-206 -208.85)"/><path class="cls-1" d="M242.91,279a4.38,4.38,0,0,0-6.21,0l-6.21,6.21a4.39,4.39,0,0,0,6.21,6.21l6.21-6.21A4.38,4.38,0,0,0,242.91,279Z" transform="translate(-206 -208.85)"/><path class="cls-1" d="M253.29,289.34a4.39,4.39,0,0,0-6.22,0l-6.21,6.21a4.39,4.39,0,0,0,6.21,6.22l6.22-6.22A4.4,4.4,0,0,0,253.29,289.34Z" transform="translate(-206 -208.85)"/><path class="cls-1" d="M303.43,224.57,291,212.13a8.79,8.79,0,0,0-12.44,0l-8.81,8.9a11.74,11.74,0,0,0-11.29,3l-1.5,1.51h0l-.06.06,0,0h0L245,237.5a4.39,4.39,0,1,0,6.22,6.21l9.33-9.33a5.85,5.85,0,0,1,8.28,0l22.8,22.79a11.66,11.66,0,0,0,3-11.29l8.81-8.91A8.72,8.72,0,0,0,303.43,224.57Z" transform="translate(-206 -208.85)"/></svg>