<svg id="Capa_1" data-name="Capa 1" xmlns="http://www.w3.org/2000/svg" width="100.1" height="100.1" viewBox="0 0 100.1 100.1"><defs><style>.cls-1{fill:#febf2b;}</style></defs><title>information (1)</title><path d="M223.8,278.1V208a2,2,0,0,0-2-2H219a12.76,12.76,0,0,0-12.8,12.8v63.4a16.88,16.88,0,0,1,10.9-4.1Z" transform="translate(-205.9 -206)"/><path d="M283.7,255.8h0a1.82,1.82,0,0,0,1.9-1.8V211.9a5.91,5.91,0,0,0-5.9-5.9H231.5a1.9,1.9,0,0,0-1.9,1.9v68.4a1.9,1.9,0,0,0,1.9,1.9h23.4a1.92,1.92,0,0,0,1.8-1.4A27.88,27.88,0,0,1,283.7,255.8Zm-33.4-32.6H264a2.9,2.9,0,0,1,2.9,2.9h0A2.9,2.9,0,0,1,264,229H250.3a2.9,2.9,0,0,1-2.9-2.9h0A2.9,2.9,0,0,1,250.3,223.2Zm-6.6,12.7h26.9a2.9,2.9,0,0,1,2.9,2.9h0a2.9,2.9,0,0,1-2.9,2.9H243.7a2.9,2.9,0,0,1-2.9-2.9h0A2.9,2.9,0,0,1,243.7,235.9Z" transform="translate(-205.9 -206)"/><path d="M259.6,297.8H223.9a2.9,2.9,0,0,1-2.9-2.9h0a2.9,2.9,0,0,1,2.9-2.9h30.6a2,2,0,0,0,1.9-2.4,27.61,27.61,0,0,1-.6-4,2,2,0,0,0-2-1.8H217.2A11.1,11.1,0,1,0,217,306h44.7a2,2,0,0,0,1.5-3.3,36.43,36.43,0,0,1-3.6-4.9Z" transform="translate(-205.9 -206)"/><path class="cls-1" d="M283.7,261.5A22.3,22.3,0,1,0,306,283.8,22.32,22.32,0,0,0,283.7,261.5Zm0,7.9a2.9,2.9,0,1,1-2.9,2.9A3,3,0,0,1,283.7,269.4Zm0,28.3h0a2.9,2.9,0,0,1-2.9-2.9V282.1a2.9,2.9,0,0,1,2.9-2.9h0a2.9,2.9,0,0,1,2.9,2.9v12.7A2.78,2.78,0,0,1,283.7,297.7Z" transform="translate(-205.9 -206)"/></svg>