<svg id="Capa_1" data-name="Capa 1" xmlns="http://www.w3.org/2000/svg" width="87.6" height="100.1" viewBox="0 0 87.6 100.1"><defs><style>.cls-1{fill:#febf2b;}</style></defs><title>brochure</title><path class="cls-1" d="M257,221.4h25.1a2,2,0,0,1,2,2v6.8a2,2,0,0,1-2,2H257a2,2,0,0,1-2-2v-6.8A2.15,2.15,0,0,1,257,221.4Z" transform="translate(-212.2 -206)"/><path d="M292.3,206H247a7.55,7.55,0,0,0-7.5,7.5v70a2.9,2.9,0,0,0,2.9,2.9h49.9a7.55,7.55,0,0,0,7.5-7.5V213.5A7.55,7.55,0,0,0,292.3,206Zm-31.4,73h-8.7a2.9,2.9,0,0,1,0-5.8h8.7a2.9,2.9,0,0,1,0,5.8Zm21.7-9.7H252.1a2.9,2.9,0,1,1,0-5.8h30.5a2.9,2.9,0,0,1,2.9,2.9A2.84,2.84,0,0,1,282.6,269.3Zm-33.4-12.7a2.9,2.9,0,0,1,2.9-2.9h27.1a2.9,2.9,0,0,1,0,5.8H252.1A2.9,2.9,0,0,1,249.2,256.6Zm37.9-6.9H252.2a2.9,2.9,0,0,1,0-5.8h34.9a2.9,2.9,0,0,1,0,5.8Zm2.9-14.6a2.9,2.9,0,0,1-2.9,2.9H252.2a2.9,2.9,0,0,1-2.9-2.9V218.5a2.9,2.9,0,0,1,2.9-2.9h34.9a2.9,2.9,0,0,1,2.9,2.9Z" transform="translate(-212.2 -206)"/><path class="cls-1" d="M233.6,283.5V221.8H219.7a7.55,7.55,0,0,0-7.5,7.5v69.3a7.55,7.55,0,0,0,7.5,7.5h44.4l-25.7-14.7a9.06,9.06,0,0,1-4.8-7.9Z" transform="translate(-212.2 -206)"/><path d="M272.5,303.6V292.3H252.3Z" transform="translate(-212.2 -206)"/></svg>