<svg id="Capa_1" data-name="Capa 1" xmlns="http://www.w3.org/2000/svg" width="90.8" height="99.92" viewBox="0 0 90.8 99.92"><defs><style>.cls-1{fill:#febf2b;}</style></defs><title>layers</title><g id="Page-1"><g id="_007---Layers" data-name="007---Layers"><path id="Shape" d="M211.7,224l41.5-17.4a6.83,6.83,0,0,1,5.6,0l41.5,17.5a1.71,1.71,0,0,1,1.1,1.6,1.62,1.62,0,0,1-1.1,1.6l-41.5,17.4a6.83,6.83,0,0,1-5.6,0l-41.5-17.5a1.71,1.71,0,0,1-1.1-1.6A1.76,1.76,0,0,1,211.7,224Z" transform="translate(-210.6 -206)"/><path id="Shape-2" data-name="Shape" d="M300.3,284.8a1.71,1.71,0,0,1,1.1,1.6,1.62,1.62,0,0,1-1.1,1.6l-41.5,17.4a7.73,7.73,0,0,1-5.6,0l-41.5-17.5a1.71,1.71,0,0,1-1.1-1.6,1.62,1.62,0,0,1,1.1-1.6l27.5-11.5,12.6,5.3a10.85,10.85,0,0,0,8.3,0l12.6-5.3Z" transform="translate(-210.6 -206)"/><path id="Shape-3" data-name="Shape" class="cls-1" d="M258.8,275.1a7.73,7.73,0,0,1-5.6,0l-41.5-17.5a1.71,1.71,0,0,1-1.1-1.6,1.62,1.62,0,0,1,1.1-1.6l27.5-11.5,12.5,5.3a11.1,11.1,0,0,0,8.4,0l12.5-5.3,27.6,11.7a1.71,1.71,0,0,1,1.1,1.6,1.62,1.62,0,0,1-1.1,1.6Z" transform="translate(-210.6 -206)"/></g></g></svg>