<svg width="100" height="100" viewBox="0 0 100 100" fill="none" xmlns="http://www.w3.org/2000/svg">
<path d="M2.92969 82.4219H22.2105C22.6904 80.2113 23.9961 78.1887 26.0219 76.8857C26.1449 76.8 26.2736 76.7084 26.4139 76.6168C22.3484 73.8846 20.8492 68.4744 23.1609 64.4574L26.0936 59.3762C27.6145 56.7434 30.5031 54.976 33.7066 54.976C35.2631 54.976 36.7965 55.3937 38.1441 56.1861C38.2812 51.4771 42.3066 47.2656 47.0703 47.2656V8.78906C47.0703 3.93496 43.1354 0 38.2812 0H2.92969C1.31172 0 0 1.31172 0 2.92969V79.4922C0 81.1102 1.31172 82.4219 2.92969 82.4219ZM11.9141 17.7734H35.3516C36.9709 17.7734 38.2812 19.0838 38.2812 20.7031C38.2812 22.3225 36.9709 23.6328 35.3516 23.6328H11.9141C10.2947 23.6328 8.98438 22.3225 8.98438 20.7031C8.98438 19.0838 10.2947 17.7734 11.9141 17.7734ZM11.9141 29.4922H35.3516C36.9709 29.4922 38.2812 30.8025 38.2812 32.4219C38.2812 34.0412 36.9709 35.3516 35.3516 35.3516H11.9141C10.2947 35.3516 8.98438 34.0412 8.98438 32.4219C8.98438 30.8025 10.2947 29.4922 11.9141 29.4922Z" fill="black"/>
<path d="M97.0703 0H61.7188C56.8646 0 52.9297 3.93496 52.9297 8.78906V47.2656C57.7762 47.2656 61.7188 51.2082 61.7188 56.0547C63.0434 55.4996 64.6283 55.082 66.2449 55.082C69.4379 55.082 72.3703 56.7242 73.9039 59.3707L76.8365 64.452C79.2361 68.6168 77.6533 74.0668 73.5289 76.5158C74.527 77.2658 76.9887 78.7045 77.7957 82.4221H97.0703C98.6883 82.4221 100 81.1104 100 79.4924V2.92969C100 1.31172 98.6883 0 97.0703 0Z" fill="black"/>
<path d="M50 79.4922C51.618 79.4922 52.9297 78.1805 52.9297 76.5625C52.9297 74.9445 51.618 73.6328 50 73.6328C48.382 73.6328 47.0703 74.9445 47.0703 76.5625C47.0703 78.1805 48.382 79.4922 50 79.4922Z" fill="black"/>
<path d="M70.6937 71.3812C72.0898 70.5715 72.5678 68.7807 71.7609 67.3814L68.8312 62.3061C68.0215 60.907 65.9988 60.5607 64.5941 61.3705C62.7859 62.4119 60.5115 62.4234 58.6318 61.3361C56.9209 60.3635 55.8594 58.5352 55.8594 56.0547C55.8594 54.4354 54.549 53.125 52.9297 53.125H47.0703C45.451 53.125 44.1406 54.8445 44.1406 56.4639C44.1406 58.4838 43.0248 60.3807 41.2195 61.4248C39.4887 62.4348 37.5859 62.6322 35.1799 61.2389C33.7375 60.3932 31.9537 60.9437 31.1687 62.3061L28.2391 67.3814C27.4322 68.7834 28.2762 70.7832 29.6754 71.593C31.4779 72.6344 32.5994 74.6027 32.6021 76.7314C32.6129 80.3338 29.9039 81.1871 29.3178 81.7383C27.9115 82.5482 27.4303 84.34 28.2392 85.7437L31.1689 90.8191C31.9758 92.2152 33.7695 92.7018 35.1687 91.892C35.1717 91.892 35.6808 91.5973 35.6808 91.5973C37.3545 90.6273 39.2914 90.5529 41.4258 91.8176C43.0994 92.7674 44.1408 94.5557 44.1408 96.4811V97.0703C44.1408 98.6896 45.4512 100 47.0705 100H52.9299C54.5492 100 55.8596 98.2033 55.8596 96.584C55.8596 94.6041 56.9467 92.7531 58.7092 91.7432C60.4916 90.7133 62.5287 90.5588 64.849 91.8977C66.2537 92.6959 68.0275 92.2096 68.8344 90.8162L71.7611 85.7436C72.568 84.3434 72.0898 82.551 70.6853 81.7381C70.0703 81.149 67.3916 79.8662 67.401 76.5654C67.4008 74.5398 68.4879 72.6543 70.6937 71.3812ZM50 85.3516C45.1535 85.3516 41.2109 81.409 41.2109 76.5625C41.2109 71.716 45.1535 67.7734 50 67.7734C54.8465 67.7734 58.789 71.716 58.789 76.5625C58.789 81.409 54.8465 85.3516 50 85.3516Z" fill="#FEBF2B"/>
</svg>
