<svg id="Capa_1" data-name="Capa 1" xmlns="http://www.w3.org/2000/svg" width="100.02" height="100" viewBox="0 0 100.02 100"><defs><style>.cls-1{fill:#f2bc18;}</style></defs><title>offer</title><path class="cls-1" d="M241.33,206a23.54,23.54,0,1,0,23.43,23.63A23.63,23.63,0,0,0,241.33,206Zm-5.86,11.92a2.93,2.93,0,1,1-2.93,2.93A2.92,2.92,0,0,1,235.47,217.93Zm11.72,23.43a2.93,2.93,0,1,1,2.93-2.93A2.92,2.92,0,0,1,247.19,241.36Zm2.44-18.88-11.72,17.57a2.93,2.93,0,1,1-4.88-3.24l11.71-17.58a2.94,2.94,0,0,1,4.89,3.25Z" transform="translate(-205.96 -206.01)"/><path d="M301,276.17a2.9,2.9,0,0,0-4.14,0l-20.5,20.7a2.9,2.9,0,0,0,0,4.14l4.14,4.14a2.92,2.92,0,0,0,4.14,0l20.5-20.7a2.9,2.9,0,0,0,0-4.14Z" transform="translate(-205.96 -206.01)"/><path d="M229.16,287.63a3,3,0,0,0,2,.8h38.44l3.43,3.44,18.73-18.93-15.95-15.06c-6.92-6.52-19.06-5.95-25.35,1.08H238.4a5.86,5.86,0,0,0,0,11.72H256a2.93,2.93,0,0,1,0,5.86H237.64a8.59,8.59,0,0,1-6.08-2.44L219,262.73c-3.38-3-8.85-3.28-12.07-.12l-.06.06a2.92,2.92,0,0,0,.06,4.2l22.28,20.76Z" transform="translate(-205.96 -206.01)"/></svg>