<svg id="Capa_1" data-name="Capa 1" xmlns="http://www.w3.org/2000/svg" width="109.4" height="100" viewBox="0 0 109.4 100"><defs><style>.cls-1{fill:#febf2b;}</style></defs><title>open-folder-with-document</title><path d="M146.74,142h0l-1.94,9.35a7.1,7.1,0,0,1-7,5.69H55.42a7.16,7.16,0,0,1-7-8.57l7.91-38.86a7.56,7.56,0,0,1,5-5.64h0l.55-.16H62a4.84,4.84,0,0,1,.55-.11h.16c.12,0,.28-.06.39-.06h87a3.34,3.34,0,0,1,2.49,1,3.61,3.61,0,0,1,1.05,2.43,3.82,3.82,0,0,1-.06.83Zm-95.8-33.5A13.1,13.1,0,0,1,61.39,98.29V83.09H51.66a7.4,7.4,0,0,0-7.41,7.4v51Z" transform="translate(-44.25 -57.05)"/><path class="cls-1" d="M128.94,67H70.07A3.09,3.09,0,0,0,67,70.1v28H132v-28A3.09,3.09,0,0,0,128.94,67Zm-7.63,24.82H77.64a2.77,2.77,0,0,1,0-5.53h43.67a2.77,2.77,0,0,1,0,5.53Zm0-11.5H77.64a2.77,2.77,0,0,1,0-5.53h43.67a2.77,2.77,0,0,1,0,5.53Z" transform="translate(-44.25 -57.05)"/><path class="cls-1" d="M132.15,57.05h-52a3.09,3.09,0,0,0-3.09,3.1v2.48h54.12a5,5,0,0,1,5,5V98.12h5.42V66.5A9.45,9.45,0,0,0,132.15,57.05Z" transform="translate(-44.25 -57.05)"/></svg>