<svg id="Слой_1" data-name="Слой 1" xmlns="http://www.w3.org/2000/svg" width="100" height="100.03" viewBox="0 0 100 100.03"><defs><style>.cls-1{fill:#f2bc18;}</style></defs><title>prod-bolshe</title><path d="M304.62,238.81l-46.88-32.29a3.13,3.13,0,0,0-3.56,0L207.3,238.81a3.08,3.08,0,0,0-1.35,2.58v60.42a4.19,4.19,0,0,0,4.16,4.18h8.34V256a4.16,4.16,0,0,1,4.16-4.16h66.68a4.16,4.16,0,0,1,4.16,4.16v50h8.34a4.16,4.16,0,0,0,4.16-4.16V241.39A3.09,3.09,0,0,0,304.62,238.81Z" transform="translate(-205.95 -205.96)"/><path class="cls-1" d="M244.49,285.15v3.12a3.13,3.13,0,1,1-6.25,0v-3.12H231a2.08,2.08,0,0,0-2.09,2.09V303.9A2.09,2.09,0,0,0,231,306H251.8a2.1,2.1,0,0,0,2.09-2.09V287.24a2.09,2.09,0,0,0-2.09-2.09Z" transform="translate(-205.95 -205.96)"/><path class="cls-1" d="M273.68,285.15v3.12a3.13,3.13,0,1,1-6.25,0v-3.12h-7.29a2.09,2.09,0,0,0-2.09,2.09V303.9a2.1,2.1,0,0,0,2.09,2.09H281a2.1,2.1,0,0,0,2.09-2.09V287.24a2.09,2.09,0,0,0-2.09-2.09Z" transform="translate(-205.95 -205.96)"/><path class="cls-1" d="M259.09,260.14v3.13a3.13,3.13,0,0,1-6.25,0v-3.13h-7.29a2.1,2.1,0,0,0-2.09,2.09v16.66a2.09,2.09,0,0,0,2.09,2.09h20.84a2.08,2.08,0,0,0,2.09-2.09V262.23a2.09,2.09,0,0,0-2.09-2.09Z" transform="translate(-205.95 -205.96)"/></svg>