<svg id="Слой_1" data-name="Слой 1" xmlns="http://www.w3.org/2000/svg" width="127.51" height="100" viewBox="0 0 127.51 100"><defs><style>.cls-1{fill:#fff;}.cls-2{fill:#febf2b;}</style></defs><title>quality</title><path class="cls-1" d="M916.75,503.72v-1.19c0-6.44,0-12.88,0-19.32a1.94,1.94,0,0,0-1.17-1.95,100.4,100.4,0,0,0-12-5.62,101.76,101.76,0,0,0-22.37-5.89,84.12,84.12,0,0,0-15-1.08c-1,0-2,0-3,0-1.51.08-3,.15-4.52.36-3.27.46-6.54.94-9.78,1.55a66.75,66.75,0,0,0-12.26,3.33,48.2,48.2,0,0,0-19.57,14.24,49.66,49.66,0,0,0-8,13.57A52.24,52.24,0,0,0,806,515.37a35.84,35.84,0,0,0,.16,7.39,50.51,50.51,0,0,0,1.29,7.42,47.46,47.46,0,0,0,7.11,15.5,49.13,49.13,0,0,0,16,14.69,54,54,0,0,0,15,5.58,97.19,97.19,0,0,0,16.68,2.56,92,92,0,0,0,18.46-.87A111.72,111.72,0,0,0,896.68,564a97.84,97.84,0,0,0,19.4-8.33,1.19,1.19,0,0,0,.69-1.18q0-9.94,0-19.88v-1l-.69.36c-3.26,1.63-6.44,3.43-9.78,4.87a57.29,57.29,0,0,1-16.5,4.34,36.81,36.81,0,0,1-11,0,24.26,24.26,0,0,1-12.08-6,24.84,24.84,0,0,1-.13-36.82,23.84,23.84,0,0,1,14.69-6.48,45,45,0,0,1,11,.58,67.79,67.79,0,0,1,21.21,7.44C914.48,502.42,915.54,503,916.75,503.72Zm8.32,27.39v-1.3c0-4.28,0-8.56,0-12.85,0-.6.17-.76.75-.75,2.24,0,4.47,0,6.7,0h.82v-10H900.15v9.93c2.48,0,4.89,0,7.31,0,.72,0,.94.18.94.92,0,4.39,0,8.78,0,13.17,0,.66.16.9.87.9,4.92,0,9.83,0,14.75,0Z" transform="translate(-805.82 -468.63)"/><path d="M916.75,503.72c-1.21-.68-2.27-1.3-3.34-1.89a67.79,67.79,0,0,0-21.21-7.44,45,45,0,0,0-11-.58,23.84,23.84,0,0,0-14.69,6.48,24.91,24.91,0,0,0,.13,36.82,24.26,24.26,0,0,0,12.08,6,36.81,36.81,0,0,0,11,0,57.29,57.29,0,0,0,16.5-4.34c3.34-1.44,6.52-3.24,9.78-4.87l.69-.36v1q0,9.95,0,19.88a1.19,1.19,0,0,1-.69,1.18,97.84,97.84,0,0,1-19.4,8.33,111.72,111.72,0,0,1-16.09,3.61,92,92,0,0,1-18.46.87A97.19,97.19,0,0,1,845.45,566a54,54,0,0,1-15-5.58,49.13,49.13,0,0,1-16-14.69,47.46,47.46,0,0,1-7.11-15.5,50.51,50.51,0,0,1-1.29-7.42,35.84,35.84,0,0,1-.16-7.39,52.24,52.24,0,0,1,3.17-13.64,49.66,49.66,0,0,1,8-13.57,48.2,48.2,0,0,1,19.57-14.24A66.75,66.75,0,0,1,849,470.59c3.24-.61,6.51-1.09,9.78-1.55,1.49-.21,3-.28,4.52-.36,1-.05,2,0,3,0a84.12,84.12,0,0,1,15,1.08,101.76,101.76,0,0,1,22.37,5.89,100.4,100.4,0,0,1,12,5.62,1.94,1.94,0,0,1,1.17,1.95c0,6.44,0,12.88,0,19.32Zm-89.1,42.75v-1.39c0-11.83,0-23.66,0-35.49a8.77,8.77,0,0,1,2.94-6.91,7.63,7.63,0,0,1,7.77-1.67,7.88,7.88,0,0,1,5.52,5.52,8.41,8.41,0,0,1,0,4.94,7.67,7.67,0,0,1-5.49,5.35,8.92,8.92,0,0,1-5.64-.14c-1-.35-1.12-.28-1.12.75q0,3.71,0,7.41a1.25,1.25,0,0,0,1.24,1.42,19.54,19.54,0,0,0,8-.51,18.24,18.24,0,0,0,6.74-3.7,17,17,0,0,0,5.3-8.71,17.32,17.32,0,0,0-3.28-15.29,16.89,16.89,0,0,0-12.07-6.62,17.3,17.3,0,0,0-11,2.65,16.5,16.5,0,0,0-5.78,6.21,17.32,17.32,0,0,0-2.41,8.76c0,9.34.05,18.67,0,28a8.94,8.94,0,0,0,2.56,6.13,16.14,16.14,0,0,0,2.82,2.2A7,7,0,0,0,827.65,546.47Z" transform="translate(-805.82 -468.63)"/><path class="cls-2" d="M925.07,530.32a.79.79,0,0,1-.78.79H924c-4.92,0-9.83,0-14.75,0-.71,0-.88-.24-.87-.9,0-4.39,0-8.78,0-13.17,0-.74-.22-.93-.94-.92-2.16,0-4.32,0-6.53,0a.79.79,0,0,1-.78-.79V507a.79.79,0,0,1,.78-.79h31.61a.8.8,0,0,1,.79.79v8.41a.8.8,0,0,1-.79.79h0c-2.23,0-4.46,0-6.7,0-.58,0-.75.15-.75.75,0,4.29,0,8.57,0,12.85Z" transform="translate(-805.82 -468.63)"/><path class="cls-1" d="M827.65,546.47a7,7,0,0,1-3.89-1.08,16.14,16.14,0,0,1-2.82-2.2,8.94,8.94,0,0,1-2.56-6.13c.07-9.34,0-18.67,0-28a17.32,17.32,0,0,1,2.41-8.76,16.5,16.5,0,0,1,5.78-6.21,17.3,17.3,0,0,1,11-2.65,16.89,16.89,0,0,1,12.07,6.62,17.32,17.32,0,0,1,3.28,15.29,17,17,0,0,1-5.3,8.71,18.24,18.24,0,0,1-6.74,3.7,19.54,19.54,0,0,1-8,.51,1.25,1.25,0,0,1-1.24-1.42q0-3.71,0-7.41c0-1,.15-1.1,1.12-.75a8.92,8.92,0,0,0,5.64.14,7.67,7.67,0,0,0,5.49-5.35,8.41,8.41,0,0,0,0-4.94,7.88,7.88,0,0,0-5.52-5.52,7.63,7.63,0,0,0-7.77,1.67,8.77,8.77,0,0,0-2.94,6.91c0,11.83,0,23.66,0,35.49Z" transform="translate(-805.82 -468.63)"/></svg>