<svg id="Слой_1" data-name="Слой 1" xmlns="http://www.w3.org/2000/svg" width="85.17" height="100" viewBox="0 0 85.17 100"><defs><style>.cls-1{fill:#f9b630;}</style></defs><title>save-tech</title><path class="cls-1" d="M242.2,246.7v4.83h-.31a3.67,3.67,0,0,0-3.67,3.67v20.22a3.67,3.67,0,0,0,3.67,3.67H270.1a3.67,3.67,0,0,0,3.67-3.67V255.2a3.67,3.67,0,0,0-3.67-3.67H270V246.7a13.9,13.9,0,0,0-27.8,0Zm16,19.52a.77.77,0,0,0-.35.74v4.45h0a1.66,1.66,0,0,1-.84,1.51,1.75,1.75,0,0,1-2.6-1.51h0V267a.75.75,0,0,0-.33-.71,3.36,3.36,0,0,1-1.11-4.18,3.45,3.45,0,0,1,6.6,1.37A3.16,3.16,0,0,1,258.16,266.22ZM248.3,246.7a7.82,7.82,0,0,1,15.63,0v4.83H248.3Z" transform="translate(-213.41 -205.95)"/><path d="M298.48,233.08V233c0-1-.07-2-.09-3.11a10.62,10.62,0,0,0-10-10.39c-11.48-.63-20.39-4.38-28-11.8l-.06-.06a6.4,6.4,0,0,0-8.69,0l-.08.06c-7.6,7.42-16.49,11.17-28,11.82a10.59,10.59,0,0,0-10,10.37c0,1.13,0,2.15-.09,3.11v.17c-.22,11.72-.51,26.32,4.37,39.56A50.16,50.16,0,0,0,230,291.55c6.08,5.92,14,10.63,23.64,14a6.45,6.45,0,0,0,1,.27,7.12,7.12,0,0,0,2.81,0,5.47,5.47,0,0,0,1-.27c9.61-3.36,17.56-8.07,23.62-14a50.64,50.64,0,0,0,12.09-18.83C299,259.46,298.7,244.84,298.48,233.08Zm-18.85,42.36A9.55,9.55,0,0,1,270.1,285H241.89a9.55,9.55,0,0,1-9.53-9.53V255.22a9.59,9.59,0,0,1,4-7.76v-.76a19.82,19.82,0,0,1,19.75-19.77h0a19.77,19.77,0,0,1,19.75,19.75v.92a9.5,9.5,0,0,1,3.77,7.58v20.26Z" transform="translate(-213.41 -205.95)"/></svg>