<svg id="Слой_1" data-name="Слой 1" xmlns="http://www.w3.org/2000/svg" width="85.17" height="100" viewBox="0 0 85.17 100"><defs><style>.cls-1{fill:#febf2b;}</style></defs><title>shield (1)1</title><g id="surface1"><path class="cls-1" d="M256,234.3A21.66,21.66,0,1,0,277.66,256,21.68,21.68,0,0,0,256,234.3Zm12.85,17.58-15.51,15.51a3.37,3.37,0,0,1-4.73,0l-5.94-5.94a3.33,3.33,0,0,1,4.71-4.71l3.58,3.58,13.16-13.17a3.34,3.34,0,0,1,4.73,4.73Z" transform="translate(-213.41 -205.95)"/><path d="M298.48,233.08V233c0-1-.07-2-.09-3.11a10.62,10.62,0,0,0-10-10.39c-11.48-.63-20.39-4.38-28-11.8l-.06-.06a6.4,6.4,0,0,0-8.69,0l-.08.06c-7.6,7.42-16.49,11.17-28,11.82a10.59,10.59,0,0,0-10,10.37c0,1.13,0,2.15-.09,3.11v.17c-.22,11.72-.51,26.32,4.37,39.56A50.16,50.16,0,0,0,230,291.55c6.08,5.92,14,10.63,23.64,14a6.45,6.45,0,0,0,1,.27,7.12,7.12,0,0,0,2.81,0,5.47,5.47,0,0,0,1-.27c9.61-3.36,17.56-8.07,23.62-14a50.64,50.64,0,0,0,12.09-18.83C299,259.46,298.7,244.84,298.48,233.08ZM256,284.29A28.33,28.33,0,1,1,284.32,256,28.35,28.35,0,0,1,256,284.29Z" transform="translate(-213.41 -205.95)"/></g></svg>