<svg id="bold" xmlns="http://www.w3.org/2000/svg" width="100.1" height="100.1" viewBox="0 0 100.1 100.1"><defs><style>.cls-1{fill:#febf2b;}</style></defs><title>verified</title><path d="M227.9,278.9h-3.1v12.5h3.1a1,1,0,0,0,1-1V280A1,1,0,0,0,227.9,278.9Z" transform="translate(-205.9 -206)"/><path d="M248.7,278.9h-2.1a1,1,0,0,0-1,1v10.4a1,1,0,0,0,1,1h2.1a1,1,0,0,0,1-1V280A1,1,0,0,0,248.7,278.9Z" transform="translate(-205.9 -206)"/><path d="M277.9,270.6A36.45,36.45,0,0,1,254.7,206H217.4a11.5,11.5,0,0,0-11.5,11.5v77.1a11.5,11.5,0,0,0,11.5,11.5h60.4a11.5,11.5,0,0,0,11.5-11.5V268.8a38.33,38.33,0,0,1-11.4,1.8Zm-42.7,19.8a7.34,7.34,0,0,1-7.3,7.3h-6.3a3.12,3.12,0,0,1-3.1-3.1V275.8a3.12,3.12,0,0,1,3.1-3.1h6.3a7.34,7.34,0,0,1,7.3,7.3Zm20.8,0a7.34,7.34,0,0,1-7.3,7.3h-2.1a7.34,7.34,0,0,1-7.3-7.3V280a7.34,7.34,0,0,1,7.3-7.3h2.1A7.34,7.34,0,0,1,256,280Zm11.5,1h6.3a3.1,3.1,0,0,1,0,6.2h-6.3a7.34,7.34,0,0,1-7.3-7.3V280a7.34,7.34,0,0,1,7.3-7.3h6.3a3.1,3.1,0,0,1,0,6.2h-6.3a1,1,0,0,0-1,1v10.4A.93.93,0,0,0,267.5,291.4Z" transform="translate(-205.9 -206)"/><path class="cls-1" d="M277.9,206A28.1,28.1,0,1,0,306,234.1,28.12,28.12,0,0,0,277.9,206Zm13.5,22.5-14.6,16.7a3.89,3.89,0,0,1-3,1.4h-.1a3.85,3.85,0,0,1-2.9-1.2l-8.3-8.3a4.17,4.17,0,1,1,5.9-5.9l5.2,5.2,11.6-13.3a4.23,4.23,0,0,1,5.9-.4,4.11,4.11,0,0,1,.3,5.8Z" transform="translate(-205.9 -206)"/></svg>