<svg id="Layer_1" data-name="Layer 1" xmlns="http://www.w3.org/2000/svg" width="99.98" height="100" viewBox="0 0 99.98 100"><defs><style>.cls-1{fill:#febf2b;}</style></defs><title>winner</title><path class="cls-1" d="M272.58,217.77l-9.64-1.4-4.31-8.74a2.94,2.94,0,0,0-5.26,0l-4.31,8.74-9.64,1.4a2.93,2.93,0,0,0-1.62,5l7,6.8-1.64,9.6a2.93,2.93,0,0,0,4.25,3.09l8.62-4.53,8.62,4.53a2.9,2.9,0,0,0,1.37.34,2.94,2.94,0,0,0,2.89-3.43l-1.65-9.6,7-6.8a2.93,2.93,0,0,0-1.63-5Z" transform="translate(-206.01 -206)"/><path class="cls-1" d="M267.9,257.41H243.71a2.41,2.41,0,0,0-2.41,2.41v5.48h29v-5.48A2.41,2.41,0,0,0,267.9,257.41Z" transform="translate(-206.01 -206)"/><path d="M303.58,281.94H279.39a2.41,2.41,0,0,0-2.41,2.41v5.18h29v-5.18a2.41,2.41,0,0,0-2.41-2.41Z" transform="translate(-206.01 -206)"/><path d="M241.3,306h29V272h-29Z" transform="translate(-206.01 -206)"/><path d="M277,306h26.6a2.41,2.41,0,0,0,2.41-2.41v-7.4H277Z" transform="translate(-206.01 -206)"/><path d="M206,303.59a2.41,2.41,0,0,0,2.41,2.41h26.21V290.77H206Z" transform="translate(-206.01 -206)"/><path d="M232.23,276.26H208.42a2.41,2.41,0,0,0-2.41,2.41v5.44h28.62v-5.44A2.4,2.4,0,0,0,232.23,276.26Z" transform="translate(-206.01 -206)"/></svg>