<svg id="Capa_1" data-name="Capa 1" xmlns="http://www.w3.org/2000/svg" width="100.22" height="100" viewBox="0 0 100.22 100"><defs><style>.cls-1{fill:#febf2b;}</style></defs><title>writing</title><path class="cls-1" d="M299.4,237.6a5.83,5.83,0,0,0-7.8-.4c-.3.3-.1,0-5.1,5.1l13.1,13.1,4.7-4.7a5.85,5.85,0,0,0,0-8.3Z" transform="translate(-205.8 -206)"/><path class="cls-1" d="M259.5,269.5l-7.7,16.6a2.95,2.95,0,0,0,3.9,3.9l16.6-7.7c.7-.3-1.3,1.6,23.2-22.7l-13.1-13.1c-24.5,24.3-22.6,22.3-22.9,23Z" transform="translate(-205.8 -206)"/><path d="M277.1,285.8a7.39,7.39,0,0,1-2.5,1.7L258,295.2a8.77,8.77,0,0,1-11.7-11.6L254,267a8.52,8.52,0,0,1,1.7-2.5l24.9-24.9V214.8a8.81,8.81,0,0,0-8.8-8.8H214.6a8.81,8.81,0,0,0-8.8,8.8v82.4a8.81,8.81,0,0,0,8.8,8.8H272a8.81,8.81,0,0,0,8.8-8.8v-15Zm-55.5-60.9h43.8a2.9,2.9,0,1,1,0,5.8H221.6a2.9,2.9,0,0,1-2.9-2.9A3,3,0,0,1,221.6,224.9Zm0,15.7H256a2.9,2.9,0,0,1,0,5.8H221.6a2.9,2.9,0,1,1,0-5.8Zm-2.9,18.5a2.9,2.9,0,0,1,2.9-2.9h25a2.9,2.9,0,0,1,0,5.8h-25A2.84,2.84,0,0,1,218.7,259.1Z" transform="translate(-205.8 -206)"/></svg>