<svg width="112" height="100" viewBox="0 0 112 100" fill="none" xmlns="http://www.w3.org/2000/svg">
<path d="M86.1358 31.0223C88.0083 31.0223 89.5298 29.4947 89.5298 27.6145C89.5298 25.7344 88.0083 24.2068 86.1358 24.2068C84.2633 24.2068 82.7419 25.7344 82.7419 27.6145C82.7419 29.4947 84.1463 31.0223 86.1358 31.0223Z" fill="black"/>
<path d="M110.362 21.504C112 20.564 112.585 18.4488 111.649 16.8037L108.255 10.8107C107.319 9.16561 104.978 8.81308 103.34 9.75315C101.233 10.9282 98.5413 11.0458 96.3176 9.75315C94.3281 8.57807 93.0407 6.46291 93.0407 3.52519C93.0407 1.64505 91.5193 0.117432 89.6468 0.117432H82.7419C80.8694 0.117432 79.348 2.11508 79.348 3.99522C79.348 6.3454 78.0606 8.57807 75.954 9.87066C73.9645 11.0458 71.7408 11.2808 68.9321 9.63564C67.2936 8.69557 65.187 9.28312 64.2508 10.9282L60.8568 16.9212C59.9206 18.5663 60.8568 20.9165 62.4953 21.8566C64.6019 23.0317 65.8892 25.3818 65.8892 27.8495C65.8892 32.0798 62.7293 33.1374 62.0272 33.725C60.3887 34.665 59.8035 36.7802 60.7398 38.4253L64.1337 44.4183C65.07 46.0634 67.1766 46.6509 68.815 45.7109L69.4002 45.3583C71.3897 44.1832 73.6134 44.1832 76.071 45.5933C78.0606 46.6509 79.2309 48.7661 79.2309 51.1163V51.8213C79.2309 53.7015 80.7523 55.2291 82.6249 55.2291H89.5298C91.4023 55.2291 92.9237 53.1139 92.9237 51.2338C92.9237 48.8836 94.2111 46.7684 96.2006 45.5933C98.3072 44.4183 100.648 44.1832 103.34 45.8284C104.978 46.7684 107.085 46.1809 108.021 44.5358L111.415 38.5428C112.351 36.8977 111.766 34.7825 110.127 33.8425C109.542 32.9024 106.499 31.3748 106.499 27.497C106.499 25.1468 107.787 22.9141 110.362 21.504ZM86.1358 37.8378C80.5183 37.8378 75.837 33.2549 75.837 27.497C75.837 21.7391 80.4012 17.1562 86.1358 17.1562C91.7534 17.1562 96.4347 21.7391 96.4347 27.497C96.4347 33.2549 91.7534 37.8378 86.1358 37.8378Z" fill="#FEBF2B"/>
<path d="M79.699 84.3712L51.8453 35.9575V8.9305H54.0689C55.9415 8.9305 57.4629 7.40289 57.4629 5.52275C57.4629 3.6426 55.9415 2.11499 54.0689 2.11499H27.0345C25.1619 2.11499 23.6405 3.6426 23.6405 5.52275C23.6405 7.40289 25.1619 8.9305 27.0345 8.9305H29.2581V35.9575L1.5214 84.0186C-0.351119 87.3089 -0.585183 91.5392 1.28733 94.8294C3.15985 98.0022 6.55379 99.9998 10.1818 99.9998H70.2194C74.0815 99.9998 77.7095 98.1197 79.582 94.7119C81.5716 91.4217 81.5715 87.6614 79.699 84.3712ZM20.8317 74.0304C20.3636 71.3277 22.5872 69.095 25.279 69.5651C26.8004 69.8001 27.9707 71.0927 28.2048 72.5028C28.6729 75.2055 26.4493 77.4381 23.7576 76.9681C22.3532 76.7331 21.0658 75.558 20.8317 74.0304ZM29.024 88.3665C26.3323 88.8365 24.1087 86.6038 24.5768 83.9011C24.8108 82.3735 26.0982 81.1984 27.5026 80.9634C30.1943 80.4934 32.4179 82.726 31.9498 85.4287C31.7158 86.8388 30.5454 88.1314 29.024 88.3665ZM46.1107 79.9058C42.2487 80.4934 39.0888 77.2031 39.674 73.4428C40.0251 71.0927 42.0146 69.095 44.3553 68.7425C48.2173 68.1549 51.3772 71.4452 50.792 75.2055C50.4409 77.5556 48.4514 79.5533 46.1107 79.9058ZM29.8432 47.1209L36.046 36.3101V13.3958C36.046 10.9282 38.0355 8.9305 40.4932 8.9305C42.9509 8.9305 44.9404 10.9282 44.9404 13.3958V36.1925L51.1431 47.0034C51.8453 48.296 50.9091 49.8236 49.5047 49.8236H31.3647C29.9603 49.9411 29.141 48.296 29.8432 47.1209ZM62.9634 88.3665C60.2717 88.8365 58.048 86.6038 58.5162 83.9011C58.7502 82.3735 60.0376 81.1984 61.442 80.9634C64.1337 80.4934 66.3573 82.726 65.8892 85.4287C65.5381 86.8388 64.3678 88.1314 62.9634 88.3665Z" fill="black"/>
</svg>
