<svg width="123" height="100" viewBox="0 0 123 100" fill="none" xmlns="http://www.w3.org/2000/svg">
<g clip-path="url(#clip0_29_66)">
<path d="M1.94876 1.34039C2.86341 0.458554 3.91879 0 5.15005 0H77.6893C78.9206 0 79.976 0.458554 80.8906 1.34039C81.7701 2.2575 82.2274 3.3157 82.2274 4.55026V18.2011H93.5199C94.7864 18.2011 96.1935 18.5185 97.6711 19.1182C99.1486 19.7178 100.345 20.4938 101.259 21.3757L115.296 35.4497C115.894 36.0494 116.457 36.7901 116.879 37.5661C117.336 38.3774 117.653 39.0829 117.864 39.7178C118.075 40.3527 118.216 41.2346 118.321 42.3633C118.427 43.4921 118.462 44.3033 118.497 44.7972C118.532 45.3263 118.532 46.2081 118.497 47.5132C118.462 48.7831 118.462 49.6296 118.462 49.9824V72.6984C119.693 72.6984 120.749 73.157 121.663 74.0388C122.543 74.9559 123 76.0494 123 77.2487C123 77.9541 122.894 78.5891 122.719 79.1182C122.543 79.6473 122.226 80.1058 121.769 80.4233C121.311 80.7407 120.924 81.0229 120.608 81.2346C120.291 81.4462 119.728 81.5873 118.954 81.6578C118.18 81.7284 117.653 81.7637 117.371 81.7989C117.09 81.8342 116.492 81.8342 115.577 81.7989C114.663 81.7637 114.135 81.7637 113.994 81.7637H109.456C109.456 86.7725 107.697 91.0758 104.144 94.6032C100.591 98.1658 96.3343 99.9294 91.3388 99.9294C86.3434 99.9294 82.0515 98.1658 78.5336 94.6032C74.9805 91.0406 73.2216 86.7725 73.2216 81.7637H45.9578C45.9578 86.7725 44.1988 91.0758 40.6458 94.6032C37.0927 98.1658 32.836 99.9294 27.8406 99.9294C22.8451 99.9294 18.5533 98.1658 15.0354 94.6032C11.4823 91.0406 9.72334 86.7725 9.72334 81.7637C9.58262 81.7637 9.05494 81.7637 8.14028 81.7989C7.22562 81.8342 6.62758 81.8342 6.34615 81.7989C6.06471 81.7637 5.53703 81.7284 4.76308 81.6578C3.98914 81.5873 3.42628 81.4462 3.10967 81.2346C2.79306 81.0229 2.40608 80.7407 1.94876 80.4233C1.49143 80.1058 1.17483 79.6473 0.998932 79.1182C0.823036 78.5891 0.717491 77.9541 0.717491 77.2487V4.55026C0.611954 3.3157 1.06928 2.2575 1.94876 1.34039ZM84.901 88.1834C86.6952 89.9824 88.8059 90.8995 91.2685 90.8995C93.731 90.8995 95.8417 89.9824 97.6359 88.1834C99.43 86.3845 100.309 84.2681 100.309 81.7989C100.309 79.3298 99.3948 77.2134 97.6359 75.4145C95.8417 73.6155 93.731 72.7337 91.2685 72.7337C88.8059 72.7337 86.6952 73.6508 84.901 75.4145C83.1069 77.2134 82.1923 79.3298 82.1923 81.7989C82.1923 84.2681 83.1069 86.3845 84.901 88.1834ZM82.1923 45.4321H109.386V43.3157C109.386 42.716 109.175 42.1869 108.752 41.7637L94.9271 27.9012C94.5049 27.478 93.9773 27.2663 93.3792 27.2663H82.1923V45.4321ZM21.438 88.1834C23.2321 89.9824 25.3428 90.8995 27.8054 90.8995C30.2679 90.8995 32.3787 89.9824 34.1728 88.1834C35.9669 86.3845 36.8816 84.2681 36.8816 81.7989C36.8816 79.3298 35.9669 77.2134 34.1728 75.4145C32.3787 73.6155 30.2679 72.7337 27.8054 72.7337C25.3428 72.7337 23.2321 73.6508 21.438 75.4145C19.6438 77.2134 18.7292 79.3298 18.7292 81.7989C18.7644 84.2681 19.6438 86.3845 21.438 88.1834ZM25.3428 46.2434H40.0477V48.4303C40.0477 52.2751 43.1786 55.3792 47.0132 55.3792C48.7018 55.3792 50.3552 54.7443 51.6216 53.5802L63.0197 43.2804C64.462 41.9753 65.3063 40.0705 65.3063 38.1305C65.3063 36.1552 64.462 34.2857 63.0197 32.9453L51.6216 22.6455C50.3552 21.4815 48.7018 20.8466 47.0132 20.8466C43.1786 20.8466 40.0477 23.9859 40.0477 27.7954V29.9824H25.3428C20.8751 29.9824 17.2517 33.6155 17.2517 38.0952C17.2517 42.575 20.8751 46.2434 25.3428 46.2434Z" fill="black"/>
<path d="M20.7695 38.1657C20.7695 35.626 22.8099 33.5801 25.3428 33.5801H43.5656V27.8659C43.5656 25.82 45.2542 24.4443 47.0131 24.4443C47.7871 24.4443 48.5962 24.7265 49.2646 25.3262L60.6626 35.626C61.3662 36.2962 61.7883 37.2133 61.7883 38.1657C61.7883 39.1533 61.3662 40.0704 60.6626 40.7054L49.2646 51.0052C48.5962 51.6048 47.7871 51.887 47.0131 51.887C45.2542 51.887 43.5656 50.5113 43.5656 48.4655V42.7512H25.3428C22.8099 42.7159 20.7695 40.7054 20.7695 38.1657Z" fill="#FEBF2B"/>
</g>
<defs>
<clipPath id="clip0_29_66">
<rect width="122.388" height="100" fill="white" transform="matrix(-1 0 0 1 123 0)"/>
</clipPath>
</defs>
</svg>
