<svg width="122" height="100" viewBox="0 0 122 100" fill="none" xmlns="http://www.w3.org/2000/svg">
<path d="M120.667 1.34039C119.756 0.458554 118.704 0 117.476 0H45.167C43.9396 0 42.8876 0.458554 41.9758 1.34039C41.0992 2.2575 40.6433 3.3157 40.6433 4.55026V18.2011H29.3866C28.1242 18.2011 26.7215 18.5185 25.2486 19.1182C23.7758 19.7178 22.5835 20.4938 21.6717 21.3757L7.67979 35.4497C7.08364 36.0494 6.52256 36.7901 6.10175 37.5661C5.64587 38.3774 5.33027 39.0829 5.11986 39.7178C4.90946 40.3527 4.76919 41.2346 4.66398 42.3633C4.55878 43.4921 4.52371 44.3033 4.48865 44.7972C4.45358 45.3263 4.45358 46.2081 4.48865 47.5132C4.52371 48.7831 4.52371 49.6296 4.52371 49.9824V72.6984C3.29635 72.6984 2.24432 73.157 1.33257 74.0388C0.455878 74.9559 0 76.0494 0 77.2487C0 77.9541 0.105203 78.5891 0.28054 79.1182C0.455878 79.6473 0.771486 80.1058 1.22736 80.4233C1.68324 80.7407 2.06898 81.0229 2.38459 81.2346C2.7002 81.4462 3.26128 81.5873 4.03277 81.6578C4.80425 81.7284 5.33027 81.7637 5.61081 81.7989C5.89135 81.8342 6.48749 81.8342 7.39925 81.7989C8.31101 81.7637 8.83702 81.7637 8.97729 81.7637H13.501C13.501 86.7725 15.2544 91.0758 18.7962 94.6032C22.338 98.1658 26.5812 99.9294 31.5608 99.9294C36.5404 99.9294 40.8186 98.1658 44.3254 94.6032C47.8672 91.0406 49.6206 86.7725 49.6206 81.7637H76.7979C76.7979 86.7725 78.5513 91.0758 82.0931 94.6032C85.6349 98.1658 89.8781 99.9294 94.8577 99.9294C99.8373 99.9294 104.116 98.1658 107.622 94.6032C111.164 91.0406 112.917 86.7725 112.917 81.7637C113.058 81.7637 113.584 81.7637 114.496 81.7989C115.407 81.8342 116.003 81.8342 116.284 81.7989C116.565 81.7637 117.091 81.7284 117.862 81.6578C118.633 81.5873 119.195 81.4462 119.51 81.2346C119.826 81.0229 120.212 80.7407 120.667 80.4233C121.123 80.1058 121.439 79.6473 121.614 79.1182C121.79 78.5891 121.895 77.9541 121.895 77.2487V4.55026C122 3.3157 121.544 2.2575 120.667 1.34039ZM37.9781 88.1834C36.1897 89.9824 34.0856 90.8995 31.6309 90.8995C29.1762 90.8995 27.0721 89.9824 25.2837 88.1834C23.4953 86.3845 22.6186 84.2681 22.6186 81.7989C22.6186 79.3298 23.5303 77.2134 25.2837 75.4145C27.0721 73.6155 29.1762 72.7337 31.6309 72.7337C34.0856 72.7337 36.1897 73.6508 37.9781 75.4145C39.7666 77.2134 40.6783 79.3298 40.6783 81.7989C40.6783 84.2681 39.7666 86.3845 37.9781 88.1834ZM40.6783 45.4321H13.5711V43.3157C13.5711 42.716 13.7815 42.1869 14.2024 41.7637L27.9839 27.9012C28.4047 27.478 28.9307 27.2663 29.5269 27.2663H40.6783V45.4321ZM101.24 88.1834C99.4515 89.9824 97.3475 90.8995 94.8928 90.8995C92.438 90.8995 90.334 89.9824 88.5455 88.1834C86.7571 86.3845 85.8453 84.2681 85.8453 81.7989C85.8453 79.3298 86.7571 77.2134 88.5455 75.4145C90.334 73.6155 92.438 72.7337 94.8928 72.7337C97.3475 72.7337 99.4515 73.6508 101.24 75.4145C103.028 77.2134 103.94 79.3298 103.94 81.7989C103.905 84.2681 103.028 86.3845 101.24 88.1834ZM97.3475 46.2434H82.6893V48.4303C82.6893 52.2751 79.5683 55.3792 75.7459 55.3792C74.0626 55.3792 72.4145 54.7443 71.152 53.5802L59.7902 43.2804C58.3524 41.9753 57.5108 40.0705 57.5108 38.1305C57.5108 36.1552 58.3524 34.2857 59.7902 32.9453L71.152 22.6455C72.4145 21.4815 74.0626 20.8466 75.7459 20.8466C79.5683 20.8466 82.6893 23.9859 82.6893 27.7954V29.9824H97.3475C101.801 29.9824 105.413 33.6155 105.413 38.0952C105.413 42.575 101.801 46.2434 97.3475 46.2434Z" fill="black"/>
<path d="M101.906 38.1657C101.906 35.626 99.8724 33.5801 97.3476 33.5801H79.1826V27.8659C79.1826 25.82 77.4993 24.4443 75.7459 24.4443C74.9745 24.4443 74.1679 24.7265 73.5016 25.3262L62.1397 35.626C61.4384 36.2962 61.0176 37.2133 61.0176 38.1657C61.0176 39.1533 61.4384 40.0704 62.1397 40.7054L73.5016 51.0052C74.1679 51.6048 74.9745 51.887 75.7459 51.887C77.4993 51.887 79.1826 50.5113 79.1826 48.4655V42.7512H97.3476C99.8724 42.7159 101.906 40.7054 101.906 38.1657Z" fill="#FEBF2B"/>
</svg>
