<svg width="117" height="100" viewBox="0 0 117 100" fill="none" xmlns="http://www.w3.org/2000/svg">
<g clip-path="url(#clip0_16_332)">
<path d="M78.4196 97.5024C79.3199 97.1028 80.3201 97.1028 81.2203 97.5024L85.8215 99.8001C86.5217 100.2 87.5219 99.9 87.822 99.1008C87.922 98.901 88.022 98.7012 88.022 98.5014V77.1228C85.4214 78.1218 82.7207 78.7212 79.92 78.7212C77.1193 78.7212 74.4186 78.1218 71.818 77.1228V98.4015C71.818 99.2007 72.5182 99.9 73.4184 99.9C73.6184 99.9 73.8185 99.8001 74.0185 99.7002L78.4196 97.5024Z" fill="#FEBF2B"/>
<path d="M112.328 0H3.90098C1.70043 0 0 1.6983 0 3.8961V85.015C0 87.2128 1.70043 88.9111 3.90098 88.9111H65.4164V73.1269C56.2141 65.1349 55.2138 51.3487 63.2158 42.1578C71.2178 32.967 85.0213 31.968 94.2236 39.96C99.0248 44.1558 101.825 50.2498 101.825 56.6434C101.825 63.037 99.0248 69.1309 94.2236 73.2268V88.9111H112.228C114.429 88.9111 116.129 87.2128 116.129 85.015V3.8961C116.129 1.7982 114.529 0 112.328 0ZM37.8095 67.9321H17.5044C15.804 67.9321 14.4036 66.5335 14.4036 64.8352C14.4036 63.1369 15.804 61.7383 17.5044 61.7383H37.8095C39.5099 61.7383 40.9102 63.1369 40.9102 64.8352C40.9102 66.5335 39.5099 67.9321 37.8095 67.9321ZM44.6112 47.6524H17.5044C15.804 47.6524 14.4036 46.2537 14.4036 44.5554C14.4036 42.8571 15.804 41.4585 17.5044 41.4585H44.6112C46.3116 41.4585 47.7119 42.8571 47.7119 44.5554C47.7119 46.2537 46.3116 47.6524 44.6112 47.6524ZM64.9162 27.3726H17.5044C15.804 27.3726 14.4036 25.974 14.4036 24.2757C14.4036 22.5774 15.804 21.1788 17.5044 21.1788H64.9162C66.6167 21.1788 68.017 22.5774 68.017 24.2757C68.017 25.974 66.6167 27.3726 64.9162 27.3726Z" fill="black"/>
<path d="M85.9215 58.4414L82.1206 55.5443V49.5503C82.1206 48.3515 81.1203 47.3525 79.92 47.3525C78.7197 47.3525 77.7195 48.3515 77.7195 49.5503V56.6432C77.7195 57.3425 78.0196 57.9419 78.6197 58.3416L83.3209 61.8381C83.721 62.1378 84.1211 62.2377 84.6212 62.2377C85.3214 62.2377 85.9215 61.938 86.3216 61.3386C86.6217 60.8391 86.8218 60.3396 86.7217 59.7401C86.7217 59.2406 86.4217 58.7411 85.9215 58.4414Z" fill="#FEBF2B"/>
<path d="M79.92 40.3596C71.0178 40.3596 63.7159 47.6523 63.7159 56.5434C63.7159 65.4345 71.0178 72.7272 79.92 72.7272C88.8222 72.7272 96.124 65.4345 96.124 56.5434C96.124 47.6523 88.8222 40.3596 79.92 40.3596ZM91.823 56.5434C91.823 63.0369 86.5216 68.4315 79.92 68.4315C73.4184 68.4315 68.017 63.1368 68.017 56.5434C68.017 50.0499 73.3183 44.6553 79.92 44.6553C86.4216 44.6553 91.823 50.0499 91.823 56.5434Z" fill="#FEBF2B"/>
</g>
<defs>
<clipPath id="clip0_16_332">
<rect width="116.129" height="100" fill="white"/>
</clipPath>
</defs>
</svg>
