<svg width="62" height="100" viewBox="0 0 62 100" fill="none" xmlns="http://www.w3.org/2000/svg">
<g clip-path="url(#clip0_29_17)">
<path fill-rule="evenodd" clip-rule="evenodd" d="M59.6362 99.9989H16.947L50.1967 54.5644C57.061 56.0867 62.2104 62.1733 61.9956 69.3478V97.6078C61.9956 98.9122 60.9227 99.9989 59.6362 99.9989ZM31.9632 47.6078C22.5248 47.6078 14.8014 39.9989 14.5866 30.4344H10.5112C9.65318 30.4344 9.00993 29.9989 8.58036 29.3478C8.15189 28.4778 8.15189 28.0433 8.58036 27.3911L13.0853 19.5644H49.3387V30.4344C49.1239 39.9989 41.4016 47.6078 31.9632 47.6078ZM14.8014 54.13H39.9003L6.43582 99.7811H2.35932C1.07282 99.7811 0 98.6944 0 97.3911V69.3478C0 61.0867 6.6495 54.3478 14.8014 54.3478V54.13Z" fill="black"/>
<path fill-rule="evenodd" clip-rule="evenodd" d="M13.0853 13.0433H49.3387V2.39111C49.3387 1.08667 48.2659 0 46.9794 0H10.5112C9.65317 0 8.79514 0.434444 8.36667 1.30333C7.9371 2.17333 7.9371 3.47778 8.36667 4.34778L13.0853 13.0433Z" fill="#FEBF2B"/>
</g>
<defs>
<clipPath id="clip0_29_17">
<rect width="62" height="100" fill="white"/>
</clipPath>
</defs>
</svg>
