<svg id="Слой_1" data-name="Слой 1" xmlns="http://www.w3.org/2000/svg" width="81.17" height="100" viewBox="0 0 81.17 100"><defs><style>.cls-1{fill:#febf2b;}</style></defs><title>call-center1</title><path d="M274,271.53v.15a18.2,18.2,0,1,1-36.4,0v-.15a33.36,33.36,0,0,0-22.39,31.54,2.93,2.93,0,0,0,2.93,2.93h75.32a2.93,2.93,0,0,0,2.93-2.93A33.36,33.36,0,0,0,274,271.53Z" transform="translate(-215.21 -206)"/><path d="M243.46,271.64v.06a12.34,12.34,0,1,0,24.68,0v-.07a30.64,30.64,0,0,1-12.34,2.59A31.07,31.07,0,0,1,243.46,271.64Z" transform="translate(-215.21 -206)"/><path d="M292.42,240.32v-6.27a9.18,9.18,0,0,0-2.69-6.51,9.55,9.55,0,0,0-3.17-2.07v23.42a9.19,9.19,0,0,0,5.86-8.57Z" transform="translate(-215.21 -206)"/><path d="M246.39,218.56a2.93,2.93,0,0,1,2.85,2.24,13.62,13.62,0,0,0,13.22,10.32H280.7v-6.51A18.63,18.63,0,0,0,262.09,206H249.53a18.63,18.63,0,0,0-18.61,18.61v1.33l14.18-7.09A3,3,0,0,1,246.39,218.56Z" transform="translate(-215.21 -206)"/><path class="cls-1" d="M255.8,268.34a24.93,24.93,0,0,0,24.9-24.9V237H262.46a19.44,19.44,0,0,1-17.73-11.39l-13.83,6.91v11a24.89,24.89,0,0,0,24.9,24.9Z" transform="translate(-215.21 -206)"/><path d="M230.9,268.34a2.93,2.93,0,0,0,0-5.86c-3.13,0-5.86-4.49-5.86-9.62V225.45a9.19,9.19,0,0,0-5.86,8.58v18.83a18.4,18.4,0,0,0,3.1,10.54A10.64,10.64,0,0,0,230.9,268.34Z" transform="translate(-215.21 -206)"/></svg>