<svg width="101" height="101" viewBox="0 0 101 101" fill="none" xmlns="http://www.w3.org/2000/svg">
<g clip-path="url(#clip0_18_628)">
<path d="M72 64.6C51.9 64.6 35.5 48.3 35.5 28.2C35.5 17.3 40.4 6.9 48.8 0H11.5C5.1 0 0 5.1 0 11.5V88.6C0 95 5.1 100.1 11.5 100.1H71.9C78.3 100.1 83.4 95 83.4 88.6V62.8C79.7 64 75.9 64.6 72 64.6ZM11.5 42.9H31.8C33.5 42.9 34.9 44.3 34.9 46C34.9 47.7 33.5 49.1 31.8 49.1H11.5C9.8 49.1 8.4 47.7 8.4 46C8.4 44.3 9.8 42.9 11.5 42.9ZM11.5 63.2H38.6C40.3 63.2 41.7 64.6 41.7 66.3C41.7 68 40.3 69.4 38.6 69.4H11.5C9.8 69.4 8.4 68 8.4 66.3C8.4 64.6 9.8 63.2 11.5 63.2ZM58.9 89.7H11.5C9.8 89.7 8.4 88.3 8.4 86.6C8.4 84.9 9.8 83.5 11.5 83.5H58.9C60.6 83.5 62 84.9 62 86.6C62 88.3 60.6 89.7 58.9 89.7Z" fill="black"/>
<path d="M72 0C56.5 0 43.9 12.6 43.9 28.1C43.9 43.6 56.5 56.2 72 56.2C87.5 56.2 100.1 43.6 100.1 28.1C100.1 12.6 87.5 0 72 0ZM85.5 22.5L70.9 39.2C70.2 40.1 69.1 40.6 67.9 40.6H67.8C66.7 40.6 65.7 40.2 64.9 39.4L56.6 31.1C55 29.5 55 26.8 56.6 25.2C58.2 23.6 60.9 23.6 62.5 25.2L67.7 30.4L79.3 17.1C80.8 15.4 83.5 15.2 85.2 16.7C86.9 18.2 87 20.8 85.5 22.5Z" fill="#FEBF2B"/>
</g>
<defs>
<clipPath id="clip0_18_628">
<rect width="100.1" height="100.1" fill="white"/>
</clipPath>
</defs>
</svg>
