<svg width="122" height="110" viewBox="0 0 122 110" fill="none" xmlns="http://www.w3.org/2000/svg">
<g clip-path="url(#clip0_18_617)">
<path d="M31.148 106.165L26.3776 86.9898C29.4643 84.0901 31.2415 79.9745 31.2415 75.7653C31.2415 67.1598 24.2262 60.1445 15.6207 60.1445C7.01531 60.1445 0 67.1598 0 75.7653C0 79.9745 1.77721 84.0901 4.86395 86.9898L0.0935374 106.165C-0.187075 107.381 0.187075 108.597 1.21599 109.345C2.15136 110.094 3.46088 110.281 4.58333 109.719L15.6207 104.201L26.6582 109.719C27.1259 109.906 27.5935 110 28.0612 110C28.8095 110 29.4643 109.813 30.0255 109.345C30.9609 108.597 31.4286 107.287 31.148 106.165ZM15.6207 85.0255C10.4762 85.0255 6.26701 80.8163 6.26701 75.6717C6.26701 70.5272 10.4762 66.318 15.6207 66.318C20.7653 66.318 24.9745 70.5272 24.9745 75.6717C24.9745 80.8163 20.7653 85.0255 15.6207 85.0255Z" fill="#FEBF2B"/>
<path d="M96.8112 0V24.9745H121.786L96.8112 0Z" fill="#FEBF2B"/>
<path d="M96.8112 31.148C93.3503 31.148 90.5442 28.3418 90.5442 24.881V0H53.1292C49.6683 0 46.8622 2.80612 46.8622 6.26701V10.8503H49.5748H62.3894H68.6564H68.8435C70.2465 10.9439 71.5561 11.5051 72.585 12.4405L97.5595 37.415C98.869 38.7245 99.4302 40.5952 99.1496 42.2789V47.7041V52.6616V87.4575H115.519C118.98 87.4575 121.786 84.6514 121.786 81.1905V31.2415L96.8112 31.148Z" fill="#FEBF2B"/>
<path d="M68.5629 16.4626V41.4371H93.5374L68.5629 16.4626Z" fill="black"/>
<path d="M68.5629 47.7041V47.6106C65.102 47.6106 62.2959 44.8045 62.2959 41.3436V16.4626H24.8809C21.42 16.4626 18.6139 19.2688 18.6139 22.7297V54.2518C29.3707 55.7484 37.3214 64.915 37.3214 75.7654C37.3214 80.4422 35.8248 84.932 33.0187 88.6735L36.7601 103.827H87.1768C90.6377 103.827 93.4438 101.02 93.4438 97.5596V47.7041H68.5629ZM34.3282 41.4371C32.6445 41.4371 31.2414 40.0341 31.2414 38.3504C31.2414 36.6667 32.6445 35.2637 34.3282 35.2637H53.0357C54.7193 35.2637 56.1224 36.6667 56.1224 38.3504C56.1224 40.0341 54.7193 41.4371 53.0357 41.4371H34.3282ZM37.4149 57.0579C37.4149 55.3742 38.818 53.9711 40.5016 53.9711H77.9166C79.6003 53.9711 81.0033 55.3742 81.0033 57.0579C81.0969 58.7416 79.7874 60.0511 78.1037 60.1446H78.0102H77.9166H40.5016C38.818 60.1446 37.4149 58.7416 37.4149 57.0579ZM43.6819 75.7654C43.6819 74.0817 45.085 72.6786 46.7687 72.6786H77.9166C79.6003 72.6786 81.0033 74.0817 81.0033 75.7654C81.0969 77.449 79.7874 78.7586 78.1037 78.8521H78.0102H77.9166H46.7687C45.085 78.8521 43.6819 77.449 43.6819 75.7654Z" fill="black"/>
</g>
<defs>
<clipPath id="clip0_18_617">
<rect width="121.786" height="110" fill="white"/>
</clipPath>
</defs>
</svg>
