<svg width="101" height="100" viewBox="0 0 101 100" fill="none" xmlns="http://www.w3.org/2000/svg">
<g clip-path="url(#clip0_18_637)">
<path d="M1.66833 23.2285H22.9635V1.67334L1.66833 23.2285Z" fill="black"/>
<path d="M14.3276 63.5827H48.5766C53.1889 53.1496 63.493 46.3583 74.9747 46.3583V8.66142C74.9747 3.83858 71.1475 0 66.3389 0H28.7534V26.1811C28.7534 27.7559 27.4777 29.0354 25.9075 29.0354H0V89.5669C0 94.3898 3.82724 98.3268 8.63583 98.4252H57.8993C52.2075 94.1929 48.2822 87.8937 46.8102 80.9055H14.4258C12.8556 80.9055 11.5799 79.626 11.5799 78.0512C11.5799 76.4764 12.8556 75.1969 14.4258 75.1969H46.2213C46.2213 73.2284 46.4176 71.3583 46.8102 69.3898H14.4258C12.8556 69.3898 11.5799 68.1102 11.5799 66.5354C11.5799 64.9606 12.8556 63.6811 14.3276 63.5827C14.4258 63.6811 14.4258 63.6811 14.3276 63.5827ZM37.3892 17.5197H60.549C62.1191 17.5197 63.3949 18.7992 63.3949 20.374C63.3949 21.9488 62.1191 23.2283 60.549 23.2283H37.3892C35.8191 23.2283 34.5433 21.9488 34.5433 20.374C34.5433 18.7992 35.8191 17.5197 37.3892 17.5197ZM37.3892 29.0354H60.549C62.1191 29.0354 63.3949 30.315 63.3949 31.8898C63.3949 33.4646 62.1191 34.7441 60.549 34.7441H37.3892C35.8191 34.7441 34.5433 33.4646 34.5433 31.8898C34.5433 30.315 35.8191 29.0354 37.3892 29.0354ZM14.3276 40.5512H60.549C62.1191 40.5512 63.3949 41.8307 63.3949 43.4055C63.3949 44.9803 62.1191 46.2598 60.549 46.2598H14.3276C12.7575 46.2598 11.4817 44.9803 11.4817 43.4055C11.4817 41.8307 12.7575 40.5512 14.3276 40.5512ZM14.3276 52.0669H50.0486C51.6187 52.0669 52.8945 53.3465 52.8945 54.9213C52.8945 56.4961 51.6187 57.7756 50.0486 57.7756H14.3276C12.7575 57.7756 11.4817 56.4961 11.4817 54.9213C11.4817 53.3465 12.7575 52.0669 14.3276 52.0669Z" fill="black"/>
<path d="M85.8678 78.7402L80.176 74.5079V65.6496C80.176 63.878 78.704 62.4016 76.9375 62.4016C75.1711 62.4016 73.6991 63.878 73.6991 65.6496V76.1811C73.6991 77.1654 74.1898 78.1496 74.9748 78.7402L81.9424 83.9567C82.5312 84.3504 83.2181 84.6457 83.9051 84.6457C84.8864 84.6457 85.8678 84.1536 86.4566 83.3662C86.9472 82.6772 87.1435 81.7914 87.0454 81.004C87.0454 80.0197 86.5547 79.3307 85.8678 78.7402Z" fill="#FEBF2B"/>
<path d="M77.0356 51.8701C63.7875 51.8701 52.9927 62.6969 52.9927 75.9843C52.9927 89.2717 63.7875 100 76.9375 100C90.0875 100 100.882 89.1733 100.882 75.9843C100.98 62.6969 90.1856 51.8701 77.0356 51.8701ZM94.5036 75.9843C94.5036 85.7284 86.6528 93.6024 76.9375 93.6024C67.2222 93.6024 59.3714 85.7284 59.3714 75.9843C59.3714 66.2402 67.2222 58.3662 76.9375 58.3662C86.6528 58.3662 94.5036 66.2402 94.5036 75.9843Z" fill="#FEBF2B"/>
</g>
<defs>
<clipPath id="clip0_18_637">
<rect width="100.98" height="100" fill="white"/>
</clipPath>
</defs>
</svg>
