<svg width="100" height="100" viewBox="0 0 100 100" fill="none" xmlns="http://www.w3.org/2000/svg">
<path fill-rule="evenodd" clip-rule="evenodd" d="M89.1111 100H10.8889C4.88889 100 0 95.1111 0 89.1111V10.8889C0 4.88889 4.88889 0 10.8889 0H89.1111C95.1111 0 100 4.88889 100 10.8889V89.1111C100 95.1111 95.1111 100 89.1111 100Z" fill="black"/>
<path d="M65.5555 61.2779H73.7221C76.0555 61.2779 77.9444 59.389 77.9444 56.9446C77.9444 54.5001 76.111 52.6112 73.7221 52.6112H65.5555V61.2779ZM72.7777 39.8334H65.5555V48.0001H72.7777C75.0555 48.0001 76.7777 46.2223 76.7777 43.9446C76.7777 41.6112 74.9999 39.8334 72.7777 39.8334ZM78.7221 50.0001C81.4444 51.389 83.0555 54.0001 83.0555 57.2223C83.0555 59.7223 82.1666 61.889 80.3333 63.5557C78.4999 65.2223 76.3332 66.0557 73.7221 66.0557H60.4444V35.0557H72.7777C75.2777 35.0557 77.4444 35.889 79.2221 37.5557C80.9999 39.1668 81.8888 41.2223 81.8888 43.6668C81.8332 46.3334 80.7777 48.4446 78.7221 50.0001ZM30.4999 66.0557H24.611L15.8333 35.0557H21.1666L27.6666 59.2779L34.7221 35.0557H39.4444L46.4444 59.2779L52.9444 35.0557H58.2777L49.4999 66.0557H43.6666L37.111 43.4446L30.4999 66.0557Z" fill="#FEBF2B"/>
</svg>
