<svg width="101" height="100" viewBox="0 0 101 100" fill="none" xmlns="http://www.w3.org/2000/svg">
<path fill-rule="evenodd" clip-rule="evenodd" d="M11.8887 0H88.2197C91.2197 0 94.3307 0.777755 96.5528 2.94436C99.0528 5.16652 100.108 8.5553 100.053 11.7774V34.8323C99.275 32.4435 98.8861 29.9436 97.8861 27.6659C96.4973 25.1659 92.2752 26.6103 92.6085 29.388C93.3863 32.6657 94.2196 35.9989 95.3307 39.2211C90.4975 37.11 85.6643 34.999 80.8866 32.8879C79.3311 32.2213 77.7756 31.2769 76.0534 31.388C77.1645 37.11 79.0533 42.6654 80.3866 48.3875C80.8866 49.9985 80.9977 52.054 82.4977 53.1651C84.2199 54.6651 87.2753 52.7762 86.8309 50.5541C86.2754 47.2208 85.2198 44.0543 84.331 40.7766C89.553 43.1098 94.8307 45.332 100.053 47.7208V77.7755C91.6641 68.6091 83.1088 59.5538 74.6646 50.443C75.3868 48.3319 75.7201 46.0542 74.9979 43.8876C73.8313 39.6655 69.6092 37.11 65.6093 36.2212C58.9984 34.8323 51.7764 36.7767 46.7765 41.2766C44.1655 43.6654 41.9433 46.9431 42.2211 50.6096C41.9433 53.9984 44.1655 57.0539 46.8876 58.7761C45.3877 72.4979 43.8877 86.2752 42.3878 99.9971H11.8887C8.72208 99.9971 5.49995 99.1082 3.27779 96.7749C0.944529 94.5528 0.0556641 91.3307 0.0556641 88.1641V74.22C2.50004 75.0534 5.16663 75.9422 7.77766 75.22C12.722 74.3867 16.8885 69.9979 17.3885 64.9981C18.2218 59.8871 15.3885 54.4428 10.7776 52.1096C7.49989 50.3319 3.44446 50.3874 0.111221 51.9429V11.833C0.0556675 8.5553 1.11119 5.16652 3.61112 2.94436C5.77772 0.833309 8.88874 0 11.8887 0ZM20.1662 46.6653C18.8884 47.0542 18.3885 48.3319 17.944 49.443C18.3329 51.1652 19.8329 52.9429 21.7772 52.3318C24.3327 51.6096 26.8327 50.9985 29.3881 50.2207C26.8327 56.3317 24.4438 62.4426 21.9995 68.6091C21.6661 69.2757 21.6661 70.6646 22.7217 70.3313C29.0548 68.6646 35.4435 66.998 41.7211 65.2203C43.5544 64.6648 43.7211 62.3315 43.0544 60.8315C42.2767 59.7205 40.8323 59.3316 39.499 59.7205C36.6102 60.6093 33.6658 61.276 30.7214 62.1093C32.6103 57.4428 34.4991 52.7762 36.3324 48.1097C37.0546 46.1653 38.0546 44.332 38.3879 42.2765C37.4435 42.2765 36.499 42.2765 35.6102 42.4988C30.4992 43.9432 25.3327 45.2764 20.1662 46.6653ZM3.16669 57.0539C1.88895 57.5539 0.888973 58.4983 0.0556641 59.6094V66.498C1.72228 68.8869 4.94441 70.3868 7.72211 69.1646C10.9998 68.0536 12.722 63.887 11.2776 60.776C10.222 57.665 6.27771 55.665 3.16669 57.0539Z" fill="black"/>
<path fill-rule="evenodd" clip-rule="evenodd" d="M92.6084 29.4435C92.3306 26.6658 96.4972 25.2214 97.886 27.7213C98.886 29.999 99.2749 32.4989 100.053 34.8877V47.7763C94.8306 45.3874 89.5529 43.1653 84.3308 40.832C85.2197 44.0541 86.2752 47.2763 86.8308 50.6095C87.2752 52.8317 84.2197 54.7205 82.4976 53.2205C80.9976 52.1095 80.8865 50.1095 80.3865 48.4429C78.9977 42.7764 77.1644 37.221 76.0533 31.4434C77.831 31.3323 79.331 32.2767 80.8865 32.9434C85.7197 35.0544 90.5529 37.1655 95.3305 39.2765C94.2195 36.0544 93.3861 32.7211 92.6084 29.4435ZM46.7764 41.2765C51.8318 36.7766 58.9983 34.8322 65.6092 36.221C69.6646 37.1655 73.8867 39.6654 74.9978 43.8875C75.72 46.0541 75.3311 48.3318 74.6645 50.4429C73.109 53.9427 70.2202 56.6649 66.8869 58.4982C60.8315 61.7203 52.9984 62.4425 46.9431 58.7759C44.2209 56.9982 41.9988 53.9983 42.2765 50.6095C41.9432 46.8874 44.1654 43.6097 46.7764 41.2765ZM47.6653 50.554C48.1097 51.8872 48.7763 53.2205 50.1096 53.8872C54.2762 56.2205 59.4983 55.5538 63.6648 53.5539C66.3869 52.2206 69.1091 49.9984 69.6646 46.8874C69.9424 45.2763 68.8313 43.8875 67.498 43.1097C64.8314 41.3876 61.4426 41.6098 58.4427 41.8875C53.7762 42.832 48.7763 45.6097 47.6653 50.554ZM20.1661 46.6652C18.8883 47.0541 18.3883 48.3318 17.9439 49.4429C18.3328 51.165 19.8327 52.9428 21.7771 52.3317C24.3326 51.6095 26.8325 50.9984 29.388 50.2206C26.8325 56.3316 24.4437 62.4425 21.9994 68.609C21.666 69.2756 21.666 70.6645 22.7216 70.3312C29.0547 68.6645 35.4434 66.9979 41.721 65.2202C43.5543 64.6646 43.7209 62.3314 43.0543 60.8314C42.2765 59.7204 40.8321 59.3315 39.4988 59.7204C36.61 60.6092 33.6657 61.2759 30.7213 62.1092C32.6101 57.4426 34.499 52.7761 36.3323 48.1096C37.0545 46.1652 38.0544 44.3319 38.3878 42.2764C37.4433 42.2764 36.4989 42.2764 35.6101 42.4986C30.4991 43.943 25.3326 45.2763 20.1661 46.6652ZM0.0555488 51.9428C3.44434 50.3873 7.44422 50.2762 10.7219 52.1095C15.3884 54.4427 18.1661 59.8315 17.3328 64.998C16.8328 69.9978 12.7218 74.4421 7.72199 75.2199C5.11096 75.9421 2.49993 75.0532 0 74.2199V66.5535C1.66662 68.9423 4.88874 70.4423 7.66643 69.2201C10.9441 68.109 12.6663 63.9425 11.2219 60.8314C10.1108 57.7204 6.22203 55.7205 3.11101 57.1093C1.83327 57.6093 0.833309 58.5537 0 59.6648V51.9428H0.0555488Z" fill="white"/>
<path fill-rule="evenodd" clip-rule="evenodd" d="M47.6652 50.5541C48.7763 45.6098 53.7761 42.7766 58.4426 41.9432C61.4981 41.6655 64.8314 41.4433 67.4979 43.1654C68.7757 43.9432 69.9423 45.332 69.6645 46.9431C69.0534 50.0541 66.3313 52.2763 63.6647 53.6096C59.4982 55.6095 54.2761 56.2762 50.1095 53.9429C48.7763 53.2207 48.1652 51.8874 47.6652 50.5541ZM66.8868 58.4983C60.8315 61.7204 52.9984 62.4426 46.943 58.7761C45.443 72.4979 43.9431 86.2753 42.4431 99.9971H87.7196C90.8861 100.053 94.2749 99.3305 96.6082 96.9972C99.2748 94.6639 100.219 91.0529 100.108 87.6086V77.7755C91.7194 68.6091 83.1641 59.5538 74.7199 50.443C73.1089 53.8873 70.2201 56.665 66.8868 58.4983Z" fill="#FEBF2B"/>
</svg>
