<svg width="100" height="100" viewBox="0 0 100 100" fill="none" xmlns="http://www.w3.org/2000/svg">
<path fill-rule="evenodd" clip-rule="evenodd" d="M89.1111 100H10.8889C4.88889 100 0 95.1111 0 89.1111V10.8889C0 4.88889 4.88889 0 10.8889 0H89.1111C95.1111 0 100 4.88889 100 10.8889V89.1111C100 95.1111 95.1111 100 89.1111 100Z" fill="black"/>
<path fill-rule="evenodd" clip-rule="evenodd" d="M36.1668 53.2223C45.889 39.9445 55.3334 26.5001 65.0001 13.1667C69.3334 14.889 73.7223 16.6667 78.0557 18.389C80.0001 19.3334 82.4446 19.7223 84.0001 21.1112C82.3335 29.3334 80.2223 37.5001 78.4446 45.7223C84.389 40.8334 99.9446 27.6667 99.9446 27.6667V52.0001L99.889 52.0556C90.1112 60.7779 80.5001 69.7779 70.6112 78.389C65.6112 75.7223 60.5001 73.2223 55.389 70.7779C57.3334 63.1667 59.2223 55.5001 61.1112 47.889C52.0557 61.2223 43.2779 74.7223 34.2223 88.0001C27.8334 85.389 21.4446 82.889 15.0001 80.3334C16.9445 72.6668 18.8334 64.9445 20.8334 57.2223C16.1668 63.4445 0.0556641 84.889 0.0556641 84.889V56.3334C0.0556641 56.3334 15.7223 37.389 23.5557 27.889C24.0557 27.4445 24.5557 26.3334 25.3334 26.9445C30.2779 29.3334 35.1668 31.8334 40.0557 34.2779C38.6668 40.6112 37.4446 46.889 36.1668 53.2223Z" fill="#FEBF2B"/>
</svg>
