<svg width="100" height="100" viewBox="0 0 100 100" fill="none" xmlns="http://www.w3.org/2000/svg">
<path fill-rule="evenodd" clip-rule="evenodd" d="M11.5 0H88.5C94.8333 0 100 5.16667 100 11.5V88.5C100 94.8333 94.8333 100 88.5 100H11.5C5.16667 100 0 94.8333 0 88.5V11.5C0 5.16667 5.16667 0 11.5 0Z" fill="#FEBF2B"/>
<path fill-rule="evenodd" clip-rule="evenodd" d="M100 26.2778V88.5001C100 94.8334 94.8333 100 88.5 100H11.5C5.16667 100 0 94.8334 0 88.5001V26.2778C0 18.6112 6.27779 12.2778 14 12.2778H86.0556C93.7222 12.3334 100 18.6112 100 26.2778Z" fill="black"/>
<path fill-rule="evenodd" clip-rule="evenodd" d="M21.6113 35.5C22.3335 35.3889 23.0557 35.5 23.6668 35.8333C24.5002 36.2778 25.0557 37.1667 25.1668 38.1111C25.2224 38.8889 25.1668 39.7222 25.278 40.5C25.5002 43.5556 26.3335 46.5 27.6668 49.2222C30.2224 54.5 34.7224 58.7778 40.1113 61.0556C44.5002 62.9444 49.5002 63.5 54.2224 62.6111C57.8335 61.9444 61.2224 60.4444 64.1668 58.2778C66.7224 56.3889 68.9446 54 70.6113 51.3333C72.8335 47.7222 74.1113 43.5 74.2224 39.2778C74.2224 38.6667 74.2224 38.0556 74.3891 37.4444C74.6669 36.6111 75.3335 35.8889 76.2224 35.6111C77.1113 35.3333 78.0557 35.3889 78.8891 35.7778C79.6668 36.1667 80.2224 37 80.3335 37.8889C80.4446 38.5556 80.3335 39.1667 80.3335 39.8333C80.0557 47.2778 76.8891 54.5556 71.6668 59.8333C69.5557 62 67.1113 63.8333 64.5002 65.3333C60.9446 67.3333 57.0002 68.5556 53.0002 69C48.3335 69.5 43.5557 68.8889 39.1668 67.2778C34.9446 65.7222 31.0557 63.1667 27.8891 59.8889C22.6669 54.6111 19.5002 47.3333 19.1668 39.9444C19.1668 39 19.0002 38 19.3891 37.1667C19.7224 36.2778 20.6669 35.6111 21.6113 35.5Z" fill="#FEFEFE"/>
</svg>
