<svg width="64" height="105" viewBox="0 0 64 105" fill="none" xmlns="http://www.w3.org/2000/svg">
<path d="M32 18.0915C14.3656 18.0915 0 32.5474 0 50.2926C0 61.1995 5.50538 71.3273 14.5376 77.3001V78.6851H28.9032V62.5845C24.8602 61.2861 22.0215 57.4773 22.0215 52.9761C22.0215 51.2448 23.3978 49.8598 25.1183 49.8598C26.8387 49.8598 28.2151 51.2448 28.2151 52.9761C28.2151 55.1401 29.9355 56.7848 32 56.7848C34.0645 56.7848 35.7849 55.0536 35.7849 52.9761C35.7849 51.2448 37.1613 49.8598 38.8817 49.8598C40.6021 49.8598 41.9785 51.2448 41.9785 52.9761C41.9785 57.4773 39.0538 61.1995 35.0968 62.5845V78.5985H49.4624V77.2135C58.4946 71.3273 64 61.1995 64 50.2926C64 32.5474 49.6344 18.0915 32 18.0915Z" fill="#FEBF2B"/>
<path d="M14.5376 84.831V87.4279C14.5376 97.1228 22.3656 105 32 105C41.6344 105 49.4623 97.1228 49.4623 87.4279V84.831H14.5376Z" fill="black"/>
<path d="M32.0001 0C30.2797 0 28.9033 1.385 28.9033 3.11624V8.56966C28.9033 10.3009 30.2797 11.6859 32.0001 11.6859C33.7205 11.6859 35.0969 10.3009 35.0969 8.56966V3.11624C35.0969 1.385 33.7205 0 32.0001 0Z" fill="black"/>
<path d="M23.3119 9.34872L21.4194 4.24155C20.8173 2.59686 19.0108 1.8178 17.4624 2.42374C15.828 3.02968 15.0538 4.84748 15.656 6.4056L17.5485 11.5128C17.9786 12.7246 19.1829 13.5037 20.4732 13.5037C20.8173 13.5037 21.2474 13.4171 21.5915 13.3306C23.1399 12.7246 23.914 10.9934 23.3119 9.34872Z" fill="black"/>
<path d="M46.6236 2.42374C44.9892 1.8178 43.2688 2.59686 42.6666 4.24155L40.7741 9.34872C40.172 10.9934 40.9462 12.7246 42.5806 13.3306C42.9247 13.5037 43.2688 13.5037 43.6989 13.5037C44.9032 13.5037 46.1075 12.7246 46.6236 11.5128L48.5161 6.4056C48.9462 4.84748 48.172 3.02968 46.6236 2.42374Z" fill="black"/>
</svg>
