<svg width="98" height="100" viewBox="0 0 98 100" fill="none" xmlns="http://www.w3.org/2000/svg">
<g clip-path="url(#clip0_371_2)">
<path d="M70.4 0H8.3C3.7 0 0 3.7 0 8.3V91.6C0 96.2 3.7 99.9 8.3 99.9H57.7C59.3 99.9 60 98 58.8 97C52.8 92 49.1 84.4 49.1 76.2C49.1 60.8 61.8 48.6 77 49C77.9 49 78.7 48.3 78.7 47.3V8.3C78.8 3.7 75 0 70.4 0ZM26.3 86.4C26.3 88.8 24.3 90.8 21.9 90.8H14.7C12.3 90.8 10.3 88.8 10.3 86.4V81.2C10.3 78.8 12.3 76.8 14.7 76.8H21.9C24.3 76.8 26.3 78.8 26.3 81.2V86.4ZM26.3 66.4C26.3 68.8 24.3 70.8 21.9 70.8H14.7C12.3 70.8 10.3 68.8 10.3 66.4V61.2C10.3 58.8 12.3 56.8 14.7 56.8H21.9C24.3 56.8 26.3 58.8 26.3 61.2V66.4ZM26.3 46.4C26.3 48.8 24.3 50.8 21.9 50.8H14.7C12.3 50.8 10.3 48.8 10.3 46.4V41.2C10.3 38.8 12.3 36.8 14.7 36.8H21.9C24.3 36.8 26.3 38.8 26.3 41.2V46.4ZM47.3 86.4C47.3 88.8 45.3 90.8 42.9 90.8H35.7C33.3 90.8 31.3 88.8 31.3 86.4V81.2C31.3 78.8 33.3 76.8 35.7 76.8H42.9C45.3 76.8 47.3 78.8 47.3 81.2V86.4ZM47.3 66.4C47.3 68.8 45.3 70.8 42.9 70.8H35.7C33.3 70.8 31.3 68.8 31.3 66.4V61.2C31.3 58.8 33.3 56.8 35.7 56.8H42.9C45.3 56.8 47.3 58.8 47.3 61.2V66.4ZM47.3 46.4C47.3 48.8 45.3 50.8 42.9 50.8H35.7C33.3 50.8 31.3 48.8 31.3 46.4V41.2C31.3 38.8 33.3 36.8 35.7 36.8H42.9C45.3 36.8 47.3 38.8 47.3 41.2V46.4ZM68.5 46.4C68.5 48.8 66.5 50.8 64.1 50.8H56.9C54.5 50.8 52.5 48.8 52.5 46.4V41.2C52.5 38.8 54.5 36.8 56.9 36.8H64.1C66.5 36.8 68.5 38.8 68.5 41.2V46.4ZM68.5 26C68.5 28.8 66.3 31 63.5 31H15.2C12.4 31 10.2 28.8 10.2 26V14.4C10.2 11.6 12.4 9.4 15.2 9.4H63.5C66.3 9.4 68.5 11.6 68.5 14.4V26Z" fill="black"/>
<path d="M59.9999 23.3C59.9999 24.2 59.2999 25 58.2999 25C57.2999 25 56.5999 24.3 56.5999 23.3V18.7C55.6999 18.7 54.8999 18 54.8999 17C54.8999 16 55.5999 15.3 56.5999 15.3H58.2999C59.1999 15.3 59.9999 16 59.9999 17V23.3Z" fill="black"/>
<path d="M76.3 55C64.5 55 55 64.5 55 76.3C55 88.1 64.5 97.6 76.3 97.6C88 97.6 97.6 88.1 97.6 76.3C97.6 64.5 88 55 76.3 55ZM84.9 75C84.4 76 83.7 76.8 82.9 77.4C82.1 78 81.1 78.4 80.1 78.7C79 78.9 78 79 76.9 79H74.1V81.5H79.9V83.7H74.1V88.6H71.2V83.7H68.7V81.5H71.2V79H68.7V76.8H71.2V64.4C72.1 64.2 73 64.1 74 64C75 63.9 76 63.9 77 63.9C78.1 63.9 79.1 64 80.2 64.2C81.2 64.4 82.2 64.8 83 65.3C83.8 65.9 84.4 66.6 84.9 67.6C85.4 68.6 85.6 69.8 85.6 71.3C85.7 72.8 85.4 74 84.9 75Z" fill="#FEBF2B"/>
<path d="M81 67.4C80.5 67 79.9 66.7 79.3 66.6C78.6 66.4 77.9 66.4 77.2 66.4C76.6 66.4 76 66.4 75.5 66.5C75 66.5 74.5 66.6 74.2 66.7V76.8H76.8C77.5 76.8 78.2 76.7 78.9 76.6C79.6 76.5 80.2 76.2 80.8 75.8C81.4 75.4 81.8 74.9 82.2 74.2C82.5 73.5 82.7 72.6 82.7 71.5C82.7 70.6 82.6 69.8 82.3 69.1C81.9 68.3 81.5 67.8 81 67.4Z" fill="#FEBF2B"/>
</g>
<defs>
<clipPath id="clip0_371_2">
<rect width="97.5" height="100" fill="white"/>
</clipPath>
</defs>
</svg>
