<svg width="101" height="101" viewBox="0 0 101 101" fill="none" xmlns="http://www.w3.org/2000/svg">
<path d="M40.6 65V65.2L65.2 40.6H64.9C61.9 40.6 59.5 38.2 59.5 35.2L35 59.7H35.2C38.2 59.7 40.6 62.1 40.6 65Z" fill="black"/>
<path d="M59.5001 77H40.6001V84.8H59.5001V77Z" fill="black"/>
<path d="M59.5001 15.5H40.6001V23.3H59.5001V15.5Z" fill="black"/>
<path d="M38.6 3.4C38.6 1.5 37.1 0 35.2 0H3.4C1.5 0 0 1.5 0 3.4V35.2C0 37.1 1.5 38.6 3.4 38.6H35.2C37.1 38.6 38.6 37.1 38.6 35.2V34.8V23.3V15.5V4.1V3.4ZM23.8 26.6C23.8 26.8 23.7 27 23.6 27.1C23.5 27.2 23.3 27.3 23.1 27.3H18C17.8 27.3 17.6 27.2 17.5 27.1C17.4 27 17.3 26.8 17.3 26.6V16.1L14.4 18.3C14.2 18.4 14.1 18.5 13.9 18.4C13.7 18.4 13.6 18.2 13.4 18.1L11.1 15.1C11 15 11 14.8 11 14.6C11 14.4 11.1 14.2 11.3 14.1L17.6 9.2C17.7 9.1 17.8 9.1 17.9 9.1C18 9.1 18.1 9.1 18.2 9.1H23.1C23.3 9.1 23.5 9.2 23.6 9.3C23.7 9.4 23.8 9.6 23.8 9.8V26.6Z" fill="black"/>
<path d="M38.6 65C38.6 63.1 37.1 61.6 35.2 61.6H33H3.9H3.4C1.5 61.7 0 63.2 0 65V96.8C0 98.7 1.5 100.2 3.4 100.2H3.9H34.7H35.2C37.1 100.2 38.6 98.7 38.6 96.8V96.3V84.8V77V67.2V65ZM27.3 89.2C26.6 90.1 25.6 90.8 24.3 91.3C23 91.7 21.5 92 19.9 92C18.3 92 17 91.8 15.9 91.5C14.8 91.1 14 90.7 13.3 90.1C12.7 89.5 12.2 88.9 11.9 88.3C11.6 87.7 11.4 87.1 11.4 86.6C11.4 86.4 11.5 86.3 11.6 86.2C11.7 86.1 11.8 86 12 86H17.2C17.4 86 17.6 86 17.7 86.1C17.8 86.2 17.9 86.3 18.1 86.4C18.2 86.5 18.3 86.6 18.5 86.7C18.7 86.8 18.8 86.9 19 86.9C19.2 86.9 19.5 87 19.9 87C20.5 87 20.9 86.9 21.2 86.6C21.5 86.3 21.6 86 21.6 85.6C21.6 85.2 21.5 84.9 21.2 84.7C20.9 84.5 20.5 84.4 19.9 84.4H16.6C16.4 84.4 16.2 84.3 16.1 84.2C16 84.1 16 83.9 16 83.7V81.6C16 81.3 16.1 81.1 16.2 80.9C16.3 80.7 16.4 80.6 16.6 80.5L20.2 78.5H13.4C13.2 78.5 13 78.4 12.9 78.3C12.8 78.2 12.7 78 12.7 77.8V74.1C12.7 73.9 12.8 73.7 12.9 73.6C13 73.5 13.2 73.4 13.4 73.4H26.7C26.9 73.4 27.1 73.5 27.2 73.6C27.3 73.7 27.4 73.9 27.4 74.1V77.4C27.4 77.6 27.3 77.9 27.2 78C27.1 78.2 27 78.3 26.8 78.4L23.8 80.4V80.5C24.7 80.7 25.5 81 26.2 81.4C26.9 81.8 27.5 82.4 27.9 83.1C28.3 83.8 28.5 84.7 28.5 85.8C28.4 87.2 28 88.3 27.3 89.2Z" fill="black"/>
<path d="M61.5 96.8C61.5 98.7 63 100.2 64.9 100.2H65.4H96.2H96.7C98.6 100.2 100.1 98.7 100.1 96.8V96.3V65.6V65C100.1 63.1 98.6 61.6 96.7 61.6H96.2H65.4H64.9C63 61.6 61.5 63.1 61.5 65V65.5V77V96.8V96.8ZM71.3 83.4C71.3 83.2 71.3 83 71.4 82.9C71.5 82.8 71.5 82.7 71.6 82.6L79 73C79.2 72.7 79.6 72.6 80 72.6H85.4C85.6 72.6 85.8 72.7 85.9 72.8C86 72.9 86.1 73.1 86.1 73.3V82.6H88.4C88.6 82.6 88.8 82.7 88.9 82.8C89 82.9 89.1 83.1 89.1 83.3V87.2C89.1 87.4 89 87.6 88.9 87.7C88.8 87.8 88.6 87.9 88.4 87.9H86.1V90C86.1 90.2 86 90.4 85.9 90.5C85.8 90.6 85.6 90.7 85.4 90.7H80.6C80.4 90.7 80.2 90.6 80.1 90.5C80 90.4 79.9 90.2 79.9 90V87.8H72C71.8 87.8 71.6 87.7 71.5 87.6C71.4 87.5 71.3 87.3 71.3 87.1V83.4Z" fill="#FEBF2B"/>
<path d="M79.9998 79.1L77.2998 82.8H79.9998V79.1Z" fill="#FEBF2B"/>
<path d="M64.9 38.6H96.7C98.6 38.6 100.1 37.1 100.1 35.2V34.8V4.1V3.4C100.1 1.5 98.6 0 96.7 0H64.9C63 0 61.5 1.5 61.5 3.4V4.1V15.6V35.3C61.5 37.1 63 38.6 64.9 38.6ZM89 26.6C89 26.8 88.9 27 88.8 27.1C88.7 27.2 88.5 27.3 88.3 27.3H73.3C73.1 27.3 72.9 27.2 72.8 27.1C72.7 27 72.6 26.8 72.6 26.6V23.9C72.6 23.8 72.6 23.6 72.7 23.3C72.8 23 72.9 22.7 73.3 22.5L73.6 22.3C75.4 21 76.9 19.9 78.2 19C79.4 18.1 80.3 17.3 81 16.7C81.6 16 81.9 15.5 81.9 15C81.9 14.8 81.9 14.5 81.8 14.3C81.7 14.1 81.4 14 81 14C80.7 14 80.4 14.1 80.2 14.2C80 14.3 79.9 14.6 79.8 14.8C79.7 15 79.6 15.2 79.6 15.3C79.5 15.5 79.4 15.7 79.2 15.8C79 15.9 78.8 15.9 78.6 15.9H73.7C73.5 15.9 73.4 15.8 73.3 15.7C73.2 15.6 73.1 15.5 73.1 15.3C73.1 14.3 73.3 13.4 73.7 12.6C74.1 11.8 74.7 11.1 75.4 10.6C76.1 10 76.9 9.6 77.9 9.3C78.9 9 79.9 8.8 81 8.8C82.6 8.8 83.9 9 85.1 9.5C86.3 10 87.2 10.6 87.8 11.5C88.4 12.4 88.8 13.4 88.8 14.6C88.8 15.6 88.6 16.4 88.1 17.3C87.6 18.1 87 18.9 86.1 19.6C85.3 20.3 84.3 21.1 83.1 21.9L82.8 22H88.3C88.5 22 88.7 22.1 88.8 22.2C88.9 22.3 89 22.5 89 22.7V26.6Z" fill="black"/>
</svg>
