<svg id="Capa_1" data-name="Capa 1" xmlns="http://www.w3.org/2000/svg" width="100" height="100.05" viewBox="0 0 100 100.05"><defs><style>.cls-1{fill:#febf2b;}</style></defs><title>certificate (1)</title><path d="M210,253.3Z" transform="translate(-190 -190)"/><polygon points="73.3 0 73.3 26.7 100 26.7 73.3 0"/><path class="cls-1" d="M223.3,285.9l-5.1-20.5a16.46,16.46,0,0,0,5.2-12,16.7,16.7,0,0,0-33.4,0,16.46,16.46,0,0,0,5.2,12l-5.1,20.5a3.19,3.19,0,0,0,1.2,3.4,3.36,3.36,0,0,0,3.6.4l11.8-5.9,11.8,5.9a4,4,0,0,0,1.5.3,3.32,3.32,0,0,0,2.1-.7A3.44,3.44,0,0,0,223.3,285.9Zm-16.6-22.6a10,10,0,1,1,10-10A10,10,0,0,1,206.7,263.3Z" transform="translate(-190 -190)"/><path d="M263.3,223.3a6.7,6.7,0,0,1-6.7-6.7V190h-40a6.7,6.7,0,0,0-6.7,6.7v33.7a23.28,23.28,0,0,1,20,23,22.9,22.9,0,0,1-4.6,13.8l4,16.2h53.9a6.7,6.7,0,0,0,6.7-6.7V223.4H263.3Zm-36.6-6.6a3.3,3.3,0,0,1,0-6.6h20a3.3,3.3,0,1,1,0,6.6Zm46.6,40H240a3.3,3.3,0,0,1,0-6.6h33.3a3.33,3.33,0,0,1,3.3,3.3A3.2,3.2,0,0,1,273.3,256.7Zm0-20h-40a3.3,3.3,0,0,1,0-6.6h40a3.33,3.33,0,0,1,3.3,3.3A3.2,3.2,0,0,1,273.3,236.7Z" transform="translate(-190 -190)"/></svg>