<svg width="94" height="100" viewBox="0 0 94 100" fill="none" xmlns="http://www.w3.org/2000/svg">
<path d="M81.3174 0H11.7365C5.26946 0 0 5.26946 0 11.7365V88.2635C0 94.7305 5.26946 100 11.7365 100H37.485V65.988C37.485 59.4012 34.6108 53.0539 29.7006 48.6228L17.1257 37.2455V45.509C17.1257 48.6228 14.6108 51.1377 11.497 51.1377C8.38323 51.1377 5.98802 48.6228 5.98802 45.509V25.7485C5.98802 20.7186 10.0599 16.7665 14.9701 16.7665H34.7305C37.8443 16.7665 40.3593 19.2814 40.3593 22.3952C40.3593 25.509 37.8443 28.024 34.7305 28.024H28.024L39.2814 38.0838C47.1856 45.1497 51.7365 55.3293 51.7365 65.988V100.12H81.3174C87.7844 100.12 93.0539 94.8503 93.0539 88.3832V11.7365C93.0539 5.26946 87.7844 0 81.3174 0ZM89.5808 43.1138C89.5808 45.8683 87.3054 48.1437 84.5509 48.1437C81.7964 48.1437 79.521 45.8683 79.521 43.1138V33.5329L55.8084 57.1257L55.5689 56.0479C54.491 51.976 52.9341 48.1437 50.6587 44.5509L50.2994 44.1916L69.5808 24.9102H61.3174C58.5629 24.9102 56.2874 22.6347 56.2874 19.8802C56.2874 17.1257 58.5629 14.8503 61.3174 14.8503H81.0778C85.7485 14.8503 89.4611 18.6826 89.4611 23.2335V43.1138H89.5808Z" fill="black"/>
<path d="M81.0778 14.97H61.3173C58.5628 14.97 56.2873 17.2455 56.2873 20C56.2873 22.7545 58.5628 25.0299 61.3173 25.0299H69.5808L50.2993 44.1916L50.5388 44.5509C52.8143 48.1437 54.4909 51.976 55.449 56.0479L55.6885 57.1257L79.5209 33.5329V43.1137C79.5209 45.8682 81.7963 48.1437 84.5508 48.1437C87.3053 48.1437 89.5808 45.8682 89.5808 43.1137V23.3533C89.5808 18.6826 85.7484 14.97 81.0778 14.97Z" fill="#FEBF2B"/>
</svg>
