<svg width="100" height="100" viewBox="0 0 100 100" fill="none" xmlns="http://www.w3.org/2000/svg">
<g clip-path="url(#clip0_313_160)">
<path d="M14.5273 100H2.30592C1.0761 100 0 99.0106 0 97.7169V76.8645C0 75.6469 0.999231 74.5814 2.30592 74.5814H14.5273C15.7571 74.5814 16.8332 75.5708 16.8332 76.8645V97.7169C16.8332 99.0106 15.7571 100 14.5273 100Z" fill="black"/>
<path d="M42.7363 100H30.5149C29.2851 100 28.209 99.0107 28.209 97.7169V64.6119C28.209 63.3942 29.2082 62.3288 30.5149 62.3288H42.7363C43.9661 62.3288 45.0422 63.3181 45.0422 64.6119V97.7169C45.0422 99.0107 43.9661 100 42.7363 100Z" fill="black"/>
<path d="M70.3305 100H58.1091C56.8793 100 55.8032 99.0107 55.8032 97.7169V52.3592C55.8032 51.1416 56.8025 50.0761 58.1091 50.0761H70.3305C71.5603 50.0761 72.6364 51.0655 72.6364 52.3592V97.793C72.6364 99.0107 71.6372 100 70.3305 100Z" fill="black"/>
<path d="M97.7709 100H85.5496C84.3197 100 83.2437 99.0107 83.2437 97.7169V32.7245C83.2437 31.5069 84.2429 30.4414 85.5496 30.4414H97.7709C99.0008 30.4414 100.077 31.4308 100.077 32.7245V97.7169C100 99.0107 99.0008 100 97.7709 100Z" fill="black"/>
<path d="M93.4665 18.4931L90.392 2.28309C90.0845 0.761017 88.6241 -0.228328 87.0868 0.0760856L70.7148 3.04412C68.2552 3.50074 67.5634 6.69709 69.6387 8.06695L75.711 12.1765C64.0277 29.6803 48.8086 41.7047 30.4381 47.9452C16.2951 52.8158 5.38047 52.207 5.22674 52.207C2.69023 52.0548 0.461172 53.9574 0.307444 56.4688C0.153716 58.9802 2.07531 61.1872 4.61183 61.3394C4.76555 61.3394 5.53419 61.4155 6.84088 61.4155C11.0684 61.4155 20.907 60.8828 33.0515 56.8493C47.1945 52.1309 67.3328 41.4764 83.3974 17.4277L89.0853 21.309C91.1606 22.6788 93.9277 20.9284 93.4665 18.4931Z" fill="#FEBF2B"/>
</g>
<defs>
<clipPath id="clip0_313_160">
<rect width="100" height="100" fill="white"/>
</clipPath>
</defs>
</svg>
