<svg width="112" height="100" viewBox="0 0 112 100" fill="none" xmlns="http://www.w3.org/2000/svg">
<path d="M92.4265 41.093C90.7306 46.132 85.9256 49.8226 80.3432 49.8226C74.7609 49.8226 70.0972 46.203 68.3306 41.2349C66.5641 46.203 61.8297 49.8226 56.318 49.8226C50.5943 49.8226 45.7186 45.99 44.0934 40.8091C42.4682 46.061 37.5925 49.8226 31.8688 49.8226C26.1451 49.8226 21.2694 45.9901 19.6442 40.7381C18.0896 45.9901 13.2139 49.8226 7.41958 49.8226C6.57163 49.8226 5.72368 49.7516 4.87573 49.5387V97.9418C4.87573 99.0773 5.79434 99.929 6.85428 99.929H68.5426V61.391C68.5426 60.5394 69.2492 59.8297 70.0972 59.8297H87.0562C87.9041 59.8297 88.6108 60.5394 88.6108 61.391V100H105.075C106.206 100 107.054 99.0774 107.054 98.0128V49.6096C106.206 49.7516 105.358 49.8935 104.51 49.8935C98.9275 49.8935 94.1224 46.203 92.4265 41.093ZM52.2902 78.4244C52.2902 79.2761 51.5836 79.9858 50.7357 79.9858H17.595C16.747 79.9858 16.0404 79.2761 16.0404 78.4244V61.391C16.0404 60.5394 16.747 59.8297 17.595 59.8297H50.7357C51.5836 59.8297 52.2902 60.5394 52.2902 61.391V78.4244Z" fill="black"/>
<path d="M14.9098 37.0476V20.3691L26.8517 4.89709C28.4063 2.90987 26.9931 0 24.5199 0H19.5028C18.6549 0 17.8069 0.354862 17.2416 0.993613L0 20.3691V37.0476C0 41.1639 3.32114 44.5706 7.49022 44.5706C11.5886 44.5706 14.9098 41.1639 14.9098 37.0476Z" fill="black"/>
<path d="M92.5679 0H87.5509C85.0777 0 83.6645 2.90987 85.1484 4.89709L97.0903 20.3691V37.0476C97.0903 41.1639 100.411 44.5706 104.581 44.5706C108.679 44.5706 112.071 41.2349 112.071 37.0476V20.3691L94.7585 0.993613C94.1932 0.354862 93.4159 0 92.5679 0Z" fill="black"/>
<path d="M39.3591 37.0476V20.3691L46.496 4.25834C47.4146 2.27111 45.9307 0 43.7402 0H37.5925C36.5326 0 35.5433 0.567779 34.978 1.56139L24.3787 20.3691V37.0476C24.3787 41.1639 27.6998 44.5706 31.8689 44.5706C36.038 44.5706 39.3591 41.1639 39.3591 37.0476Z" fill="#FEBF2B"/>
<path d="M87.8335 37.0476V20.3691L77.2341 1.56139C76.6688 0.638751 75.6795 0 74.6196 0H68.4719C66.2814 0 64.8681 2.27111 65.7161 4.25834L72.853 20.3691V37.0476C72.853 41.1639 76.1741 44.5706 80.3432 44.5706C84.4416 44.5706 87.8335 41.1639 87.8335 37.0476Z" fill="#FEBF2B"/>
<path d="M63.7374 37.0476V20.3691L60.8403 2.555C60.5576 1.06458 59.2857 0 57.8724 0H55.0459C53.562 0 52.3608 1.06458 52.0781 2.48403L48.8276 20.3691V37.0476C48.8276 41.1639 52.1488 44.5706 56.3179 44.5706C60.4869 44.5706 63.7374 41.1639 63.7374 37.0476Z" fill="black"/>
</svg>
