<svg width="95" height="82" viewBox="0 0 95 82" fill="none" xmlns="http://www.w3.org/2000/svg">
<path d="M31.0355 82.0001H11.2782C5.02166 82.0001 0 76.9981 0 70.7661V51.0861C0 44.9361 5.02166 39.8521 11.2782 39.8521H31.0355C37.2097 39.8521 42.3137 44.8541 42.3137 51.0861V70.7661C42.2314 76.9981 37.2097 82.0001 31.0355 82.0001ZM11.2782 49.4461C10.3726 49.4461 9.54939 50.1841 9.54939 51.1681V70.8481C9.54939 71.7501 10.2903 72.5701 11.2782 72.5701H31.0355C31.9411 72.5701 32.7643 71.8321 32.7643 70.8481V51.1681C32.7643 50.2661 32.0234 49.4461 31.0355 49.4461H11.2782Z" fill="black"/>
<path d="M83.722 42.066H63.9647C57.7905 42.066 52.6865 37.064 52.6865 30.832V11.152C52.6865 5.002 57.7905 0 63.9647 0H83.722C89.8962 0 95.0002 5.002 95.0002 11.234V30.914C95.0002 37.064 89.8962 42.066 83.722 42.066ZM63.9647 9.512C63.0591 9.512 62.2359 10.25 62.2359 11.234V30.914C62.2359 31.816 62.9768 32.636 63.9647 32.636H83.722C84.6276 32.636 85.4508 31.898 85.4508 30.914V11.234C85.4508 10.332 84.7099 9.512 83.722 9.512H63.9647Z" fill="black"/>
<path d="M86.274 56.498L73.1847 43.46L60.1778 56.498H68.904C67.9161 64.78 61.5773 71.504 53.345 73.062C51.287 73.472 49.8052 75.194 49.8052 77.326C49.8052 80.032 52.2748 82.082 54.9915 81.59C67.1752 79.294 76.5599 69.044 77.5478 56.498H86.274Z" fill="#FEBF2B"/>
<path d="M7.16211 25.5839L20.169 38.5399L33.176 25.5839H24.5321C25.52 17.2199 31.8588 10.4959 40.0087 9.01993C42.0668 8.60993 43.5486 6.88793 43.5486 4.75593C43.5486 2.04993 41.0789 -7.08997e-05 38.3623 0.491929C26.1786 2.78793 16.7938 13.0379 15.806 25.5839H7.16211Z" fill="#FEBF2B"/>
</svg>
