<svg width="111" height="100" viewBox="0 0 111 100" fill="none" xmlns="http://www.w3.org/2000/svg">
<g clip-path="url(#clip0_433_967)">
<path d="M62.0824 90.8948H4.55453C2.03292 90.8948 0 92.9268 0 95.4473C0 97.9483 2.03292 99.9999 4.55453 99.9999H72.6771C68.4157 97.8897 64.7799 94.7439 62.0824 90.8948Z" fill="black"/>
<path d="M65.9334 54.2204V38.179H79.5775V47.1864C81.3758 46.8152 83.2524 46.6394 85.168 46.6394C86.3604 46.6394 87.5333 46.7175 88.6866 46.8543V38.179H89.8203C91.0713 38.179 92.0878 37.163 92.0878 35.9125C92.0878 34.662 91.0713 33.646 89.8203 33.646H10.2235C8.97245 33.646 7.95599 34.662 7.95599 35.9125C7.95599 37.163 8.97245 38.179 10.2235 38.179H11.3572V79.0934H10.2235C7.70187 79.0934 5.66895 81.1255 5.66895 83.646C5.66895 86.1665 7.70187 88.1986 10.2235 88.1986H60.4015C58.2318 84.2126 57.0003 79.6405 57.0003 74.7949C57.0003 66.6472 60.4406 59.3396 65.9334 54.2204ZM34.1103 79.0739H20.4663V38.179H34.1103V79.0739ZM56.8439 79.0739H43.1999V38.179H56.8439V79.0739Z" fill="black"/>
<path d="M4.55449 29.5428H95.4888C95.5084 29.5428 95.5279 29.5428 95.5279 29.5428C98.0495 29.5428 100.082 27.5107 100.082 24.9902C100.082 22.9973 98.7923 21.2974 97.0135 20.6917L51.8982 0.39078C50.7058 -0.13677 49.357 -0.13677 48.1647 0.39078L2.67794 20.848C0.723208 21.7272 -0.351897 23.857 0.0976927 25.9476C0.547282 28.0383 2.40428 29.5428 4.55449 29.5428Z" fill="black"/>
<path d="M85.1677 49.5896C71.25 49.5896 59.9712 60.8635 59.9712 74.7752C59.9712 88.6869 71.25 99.9608 85.1677 99.9608C99.0855 99.9608 110.364 88.6869 110.364 74.7752C110.364 60.8635 99.0659 49.5896 85.1677 49.5896ZM77.8766 84.447C73.322 85.2285 72.1687 79.5427 76.4692 78.8979L72.4229 63.8921C72.3838 63.7357 72.2274 63.6185 72.071 63.6185H68.6893C67.536 63.6381 67.536 61.8209 68.6893 61.8405C74.6317 61.5865 73.713 62.114 75.1986 67.3309C100.688 68.4642 99.8283 62.7002 95.9383 78.9565C95.7038 79.9726 94.8241 80.676 93.7686 80.676C89.9764 80.676 80.2418 80.676 76.5669 80.676C75.2572 80.7346 75.2377 82.6103 76.5669 82.6689H94.4136C95.4106 82.6494 95.6256 84.1148 94.7068 84.4079C96.7984 90.25 87.1225 90.3477 89.0968 84.447H83.4867C85.5 90.2696 75.8827 90.2696 77.8766 84.447Z" fill="#FEBF2B"/>
</g>
<defs>
<clipPath id="clip0_433_967">
<rect width="110.345" height="100" fill="white"/>
</clipPath>
</defs>
</svg>
