<svg width="100" height="100" viewBox="0 0 100 100" fill="none" xmlns="http://www.w3.org/2000/svg">
<g clip-path="url(#clip0_433_989)">
<path d="M17.772 72.016V1.98944C17.772 0.890536 16.8815 4.7229e-05 15.7826 4.7229e-05H12.9785C5.94931 -0.0188993 0.227443 5.66507 0.208496 12.7132C0.208496 12.7321 0.208496 12.77 0.208496 12.789V76.1274C3.23995 73.5127 7.10505 72.0538 11.1028 72.0349H17.772V72.016Z" fill="black"/>
<path d="M77.6239 49.7537C78.6281 49.7916 79.4807 49.0148 79.5186 48.0106C79.5186 47.9917 79.5186 47.9727 79.5186 47.9538V5.89238C79.5186 2.63357 76.885 0 73.6262 0H25.464C24.4219 0 23.5693 0.852596 23.5693 1.89466V70.216C23.5693 71.2581 24.4219 72.1107 25.464 72.1107H48.8441C49.6777 72.0917 50.4166 71.5233 50.644 70.7086C53.7891 58.3933 64.8918 49.7537 77.6239 49.7537Z" fill="black"/>
<path d="M53.543 91.7015H17.8856C16.294 91.7015 14.9867 90.4131 14.9867 88.8026C14.9867 87.2111 16.2751 85.9038 17.8856 85.9038H48.4464C49.5453 85.8659 50.4168 84.9565 50.3789 83.8386C50.3789 83.725 50.36 83.6113 50.341 83.4976C50.0379 82.1903 49.8484 80.8451 49.7347 79.4999C49.64 78.4768 48.7685 77.6999 47.7453 77.6999H11.1785C5.05873 77.6431 0.0378918 82.5692 -1.30467e-06 88.689C-0.056841 94.8087 4.86927 99.8295 10.989 99.8674H55.6461C56.745 99.8485 57.6355 98.958 57.6165 97.8591C57.6165 97.3854 57.446 96.9307 57.1428 96.5707C55.7976 95.074 54.604 93.4256 53.543 91.7015Z" fill="black"/>
<path d="M77.6239 55.4377C65.3276 55.4377 55.3428 65.4036 55.3428 77.7189C55.3428 90.0342 65.3087 100 77.6239 100C89.9392 100 99.9051 90.0342 99.9051 77.7189C99.8861 65.4226 89.9202 55.4567 77.6239 55.4377Z" fill="#FEBF2B"/>
<path d="M71.5611 74.6116V81.1861C71.5611 81.8113 71.0874 82.3039 70.4811 82.3039C69.8748 82.3039 69.6285 81.9629 69.3254 81.6029L66.2181 77.7757V81.205C66.2181 81.8492 65.7445 82.3229 65.1003 82.3229C64.4561 82.3229 63.9824 81.8492 63.9824 81.205V74.6305C63.9824 74.0053 64.4561 73.5127 65.0624 73.5127C65.6687 73.5127 65.915 73.8537 66.2181 74.2137L69.3254 78.0409V74.6305C69.3254 73.9864 69.799 73.5127 70.4432 73.5127C71.0874 73.5127 71.5611 73.9674 71.5611 74.6116Z" fill="white"/>
<path d="M79.367 79.1778C79.367 80.9209 77.9082 82.3229 76.0893 82.3229C74.2515 82.3229 72.8115 80.9209 72.8115 79.1399C72.8115 78.1168 73.3041 77.1884 74.4978 75.9569L76.3356 74.0243C76.7145 73.6454 77.0177 73.4749 77.3208 73.4749C77.9271 73.4749 78.4387 73.9485 78.4387 74.479C78.4387 74.7632 78.325 75.0285 78.0976 75.2558L77.1124 76.2411C78.3818 76.5632 79.367 77.7757 79.367 79.1778ZM77.1692 79.1588C77.1692 78.5336 76.6956 78.0599 76.0893 78.0599C75.464 78.0599 75.0093 78.5336 75.0093 79.1588C75.0093 79.7841 75.483 80.2767 76.0893 80.2767C76.6956 80.2767 77.1692 79.7841 77.1692 79.1588Z" fill="white"/>
<path d="M83.9522 74.6117V81.2052C83.9522 81.9251 83.5733 82.323 82.8344 82.323C82.1144 82.323 81.7165 81.9251 81.7165 81.2052V76.2222L81.205 76.4496C81.0913 76.5064 80.9587 76.5443 80.7882 76.5443C80.2008 76.5443 79.7461 76.0517 79.7461 75.4643C79.7461 75.0475 79.9735 74.7065 80.3713 74.517L82.3607 73.5886C82.5312 73.5318 82.6828 73.4939 82.8344 73.4939C83.4596 73.4939 83.9522 74.0055 83.9522 74.6117Z" fill="white"/>
<path d="M91.6823 74.7631C91.6823 74.9526 91.6633 75.1042 91.5686 75.2557L87.9119 81.7734C87.7224 82.0955 87.3624 82.3228 86.9646 82.3228C86.3583 82.3228 85.8467 81.8113 85.8467 81.205C85.8467 81.0155 85.9035 80.826 85.9793 80.6745L88.8024 75.6347H86.4909C85.9035 75.6347 85.4678 75.2178 85.4678 74.6305C85.4678 74.0621 85.9035 73.6453 86.4909 73.6453H90.5644C91.1707 73.6453 91.6823 74.1568 91.6823 74.7631Z" fill="white"/>
<path d="M40.2613 32.0006C40.2613 32.5122 39.8444 33.0237 39.2192 33.0237H39.1434V33.3269C39.1434 33.9711 38.6697 34.4447 38.0256 34.4447C37.3814 34.4447 36.9077 33.9711 36.9077 33.3269V33.0237H33.8005C33.1942 33.0237 32.6826 32.5122 32.6826 31.9059C32.6826 31.7354 32.7205 31.5838 32.7774 31.4322L34.9941 26.2788C35.1646 25.8809 35.5625 25.5967 36.0172 25.5967C36.6235 25.5967 37.1351 26.1082 37.1351 26.7145C37.1351 26.8472 37.1161 26.9608 37.0782 27.0745L35.4299 30.9775H36.9077V30.1817C36.9077 29.5376 37.3814 29.0639 38.0256 29.0639C38.6508 29.0639 39.1434 29.5376 39.1434 30.1817V30.9775H39.2192C39.8444 30.9775 40.2613 31.4891 40.2613 32.0006Z" fill="white"/>
<path d="M48.1997 32.0006C48.1997 32.5122 47.7829 33.0237 47.1576 33.0237H47.0819V33.3269C47.0819 33.9711 46.6082 34.4447 45.964 34.4447C45.3198 34.4447 44.8462 33.9711 44.8462 33.3269V33.0237H41.7389C41.1327 33.0237 40.6211 32.5122 40.6211 31.9059C40.6211 31.7354 40.659 31.5838 40.7158 31.4322L42.9326 26.2788C43.1031 25.8809 43.501 25.5967 43.9557 25.5967C44.562 25.5967 45.0735 26.1082 45.0735 26.7145C45.0735 26.8472 45.0546 26.9608 45.0167 27.0745L43.3683 30.9775H44.8462V30.1817C44.8462 29.5376 45.3198 29.0639 45.964 29.0639C46.5893 29.0639 47.0819 29.5376 47.0819 30.1817V30.9775H47.1576C47.8018 30.9775 48.1997 31.4891 48.1997 32.0006Z" fill="white"/>
<path d="M52.1974 30.0871C52.1974 30.6176 51.8185 31.0155 51.269 31.0155H49.507C48.9575 31.0155 48.5786 30.6176 48.5786 30.0871C48.5786 29.5566 48.9575 29.1587 49.507 29.1587H51.269C51.7995 29.1587 52.1974 29.5566 52.1974 30.0871Z" fill="white"/>
<path d="M59.2649 33.6491V33.9901C59.2649 34.6343 58.7912 35.1079 58.147 35.1079C57.5218 35.1079 57.0292 34.6343 57.0292 33.9901V33.6491C54.5851 33.6112 52.9746 32.1523 52.9746 29.9355C52.9746 27.7377 54.5472 26.3167 57.0292 26.2789V26.0136C57.0292 25.3694 57.5028 24.8958 58.147 24.8958C58.7723 24.8958 59.2649 25.3694 59.2649 26.0136V26.2789C61.7469 26.2978 63.3194 27.7188 63.3194 29.9355C63.3194 32.1712 61.7279 33.6301 59.2649 33.6491ZM57.0481 31.7923V28.1735C55.8545 28.1925 55.1345 28.8745 55.1345 30.0113C55.1345 31.1481 55.8166 31.7734 57.0481 31.7923ZM61.1785 30.0113C61.1785 28.8745 60.4774 28.1735 59.2649 28.1735V31.7923C60.4964 31.7734 61.1785 31.1481 61.1785 30.0113Z" fill="white"/>
<path d="M70.841 31.7544C70.841 33.3269 69.4389 34.4448 67.4685 34.4448C66.237 34.4448 65.1949 33.99 64.4939 33.1564C64.3423 32.9669 64.2476 32.7396 64.2476 32.5312C64.2476 31.9817 64.7023 31.527 65.2517 31.527C65.517 31.527 65.7633 31.6217 65.9528 31.8301C66.3696 32.2091 66.8622 32.4175 67.4306 32.4175C68.1885 32.4175 68.6432 32.1143 68.6432 31.6217C68.6432 31.2049 68.3021 30.9207 67.7906 30.9207H66.938C66.4264 30.9207 66.0285 30.5418 66.0285 30.0302C66.0285 29.5187 66.4075 29.1397 66.938 29.1397H67.4116C67.9232 29.1397 68.2642 28.8366 68.2642 28.4198C68.2642 27.965 67.8664 27.6619 67.298 27.6619C66.8433 27.6619 66.4075 27.8514 66.0285 28.2492C65.8391 28.4387 65.5928 28.5524 65.3275 28.5524C64.7781 28.5524 64.3423 28.1166 64.3423 27.5672C64.3423 27.3588 64.4181 27.1503 64.5696 26.9419C65.1949 26.1462 66.2559 25.6536 67.3359 25.6536C69.0979 25.6536 70.4621 26.8093 70.4621 28.3061C70.4621 28.9503 70.1968 29.5187 69.761 29.9165C70.4431 30.2576 70.841 30.9018 70.841 31.7544Z" fill="white"/>
</g>
<defs>
<clipPath id="clip0_433_989">
<rect width="99.8863" height="100" fill="white"/>
</clipPath>
</defs>
</svg>
