<svg width="91" height="100" viewBox="0 0 91 100" fill="none" xmlns="http://www.w3.org/2000/svg">
<g clip-path="url(#clip0_433_1046)">
<path d="M51.9798 54.7556C47.8003 51.6673 42.6419 49.8484 37.0504 49.8484C23.1 49.8484 11.7665 61.2732 11.7665 75.2937H7.09756C7.09756 67.2414 10.2227 59.6628 15.8707 53.9598C19.1276 50.6821 23.0247 48.238 27.2607 46.7791C22.7235 43.634 19.7301 38.3668 19.7301 32.4176C19.7301 22.8117 27.5054 14.9867 37.0504 14.9867C46.5954 14.9867 54.3707 22.8117 54.3707 32.4176C54.3707 38.3668 51.3961 43.634 46.8401 46.7791C50.2854 47.9727 53.5047 49.8105 56.3475 52.2168C59.9057 50.5684 63.8592 49.64 68.0199 49.64C69.526 49.64 71.0133 49.7726 72.4629 50L72.3876 27.0936V8.5828C72.3876 3.84615 68.5658 0.0189466 63.8592 0H8.52837C3.82176 0 0 3.84615 0 8.5828V88.8594C0 93.5961 3.82176 97.4233 8.52837 97.4422H48.1956C43.2255 92.3645 40.1568 85.4111 40.1568 77.7188C40.1379 68.2266 44.8257 59.8333 51.9798 54.7556Z" fill="black"/>
<path d="M37.0503 45.1307C44.0374 45.1307 49.7016 39.4303 49.7016 32.3986C49.7016 25.3669 44.0374 19.6665 37.0503 19.6665C30.0631 19.6665 24.3989 25.3669 24.3989 32.3986C24.3989 39.4303 30.0631 45.1307 37.0503 45.1307Z" fill="black"/>
<path d="M68.0388 55.4376C55.8204 55.4376 45.8989 65.4035 45.8989 77.7188C45.8989 90.0341 55.8016 100 68.0388 100C80.276 100 90.1787 90.0151 90.1787 77.7188C90.1598 65.4225 80.2571 55.4566 68.0388 55.4376ZM68.9425 69.0602H70.8816V73.5695L74.308 69.0602H76.2471V76.7715H74.308V72.319L70.8816 76.7715H68.9425V69.0602ZM67.0222 78.723V81.6028H65.0831V80.6745H61.7884V84.4827H65.0831V83.5543H67.0222V86.4342H59.8681V86.4532V86.4342V78.7419H67.0222V78.723ZM67.0222 69.0413V70.9928H61.8073V76.7525H59.8681V69.0413H67.0222ZM55.9899 65.1572H61.7131V67.1087H57.929V70.898H55.9899V65.1572V65.1572ZM55.9899 84.5017H57.929V84.5206V88.3099H61.6943V90.2614H55.9711V84.5017H55.9899ZM70.9004 80.6555V86.4153H68.9613V78.704H76.2471V86.4153H76.2659H76.2471H74.308V80.6555H70.9004ZM80.0689 90.2614H74.3645V88.3099H78.1298V84.5206H80.0689V90.2614ZM80.0877 70.9359H78.1486V67.1277H74.3833H74.3645H74.3833V65.1762H80.1065V70.9359H80.0877Z" fill="#FEBF2B"/>
</g>
<defs>
<clipPath id="clip0_433_1046">
<rect width="90.1786" height="100" fill="white"/>
</clipPath>
</defs>
</svg>
