<svg width="97" height="100" viewBox="0 0 97 100" fill="none" xmlns="http://www.w3.org/2000/svg">
<path d="M1.70264 23.6601H23.2708V1.82434L1.70264 23.6601Z" fill="black"/>
<path d="M14.5301 64.6522H49.2662C53.8637 53.9909 64.364 47.0924 75.9427 47.0924V8.77993C75.9427 3.93387 72.0263 0 67.2019 0H29.0603V26.5678C29.0603 28.1642 27.7548 29.4755 26.1656 29.4755H0V90.992C0 95.8951 3.85957 99.886 8.74078 100H58.6881C52.8988 95.667 48.9257 89.3387 47.45 82.2121H14.6437C13.0544 82.2121 11.749 80.9008 11.749 79.3045C11.749 77.7081 13.0544 76.3968 14.6437 76.3968H46.8824C46.8824 74.4014 47.0527 72.4629 47.5067 70.5245H14.6437C12.9977 70.2395 11.9193 68.7001 12.203 67.1038C12.3733 65.8495 13.2815 64.8803 14.5301 64.6522ZM37.9146 17.9019H61.4125C63.0018 17.9019 64.3072 19.2132 64.3072 20.8096C64.3072 22.4059 63.0018 23.7172 61.4125 23.7172H37.9146C36.3253 23.7172 35.0199 22.4059 35.0199 20.8096C35.0199 19.1562 36.3253 17.9019 37.9146 17.9019ZM37.9146 29.5895H61.4125C63.0018 29.5895 64.3072 30.9008 64.3072 32.4972C64.3072 34.0935 63.0018 35.4048 61.4125 35.4048H37.9146C36.3253 35.4048 35.0199 34.0935 35.0199 32.4972C35.0199 30.8438 36.3253 29.5895 37.9146 29.5895ZM14.5301 41.2771H61.3558C62.945 41.2771 64.2504 42.5884 64.2504 44.1847C64.2504 45.7811 62.945 47.0924 61.3558 47.0924H14.5301C12.9409 47.0924 11.6355 45.7811 11.6355 44.1847C11.6355 42.5884 12.9409 41.2771 14.5301 41.2771ZM14.5301 52.9647H50.742C52.3312 52.9647 53.6366 54.2759 53.6366 55.8723C53.6366 57.4686 52.3312 58.7799 50.742 58.7799H14.5301C12.9409 58.7799 11.6355 57.4686 11.6355 55.8723C11.6355 54.2759 12.9409 52.9647 14.5301 52.9647Z" fill="black"/>
<path d="M94.4458 70.5815C91.4376 70.1254 89.3943 67.3318 89.7916 64.3101C89.8484 63.911 89.9619 63.5119 90.1322 63.1129C90.5295 62.0866 90.1889 60.8894 89.3376 60.2052C87.5213 58.6659 85.4212 57.4686 83.2077 56.6134C82.186 56.2143 80.9941 56.5564 80.2562 57.4116C78.3832 59.8061 74.9777 60.2052 72.5939 58.3808C72.2533 58.0958 71.9128 57.8107 71.629 57.4116C70.9479 56.5564 69.7559 56.2143 68.6775 56.6134C66.6342 57.3546 64.6477 58.4948 62.9449 59.8631C62.0368 60.5473 61.6963 61.8016 62.1503 62.8848C63.2855 65.6784 61.98 68.8711 59.1421 70.0114C58.6313 70.2394 58.1205 70.3535 57.5529 70.4105C56.4177 70.5245 55.5096 71.3797 55.2826 72.5199C54.9988 73.8312 54.8853 75.1425 54.8853 76.4538C54.8853 77.537 54.9988 78.6773 55.169 79.7605C55.3393 80.9008 56.3042 81.813 57.4394 81.927C60.4476 82.2121 62.6611 84.8917 62.3774 87.9133C62.3206 88.5405 62.1503 89.1106 61.9233 89.6807C61.4125 90.764 61.753 92.0182 62.6611 92.7594C64.4774 94.2987 66.5207 95.496 68.7343 96.2942C69.0181 96.4082 69.3019 96.4652 69.6424 96.4652C70.4938 96.4652 71.2317 96.0661 71.7425 95.382C72.7641 93.8996 74.4101 93.0444 76.2264 93.0444C77.9859 93.0444 79.5751 93.8426 80.5968 95.2679C81.2779 96.2372 82.5266 96.5792 83.605 96.1231C85.6483 95.325 87.5213 94.1847 89.224 92.7594C90.0754 92.0182 90.416 90.821 89.9619 89.7947C88.77 87.0011 90.0754 83.8084 92.8566 82.6111C93.3106 82.3831 93.8215 82.2691 94.3323 82.2121C95.4675 82.041 96.3188 81.1858 96.5459 80.1026C96.7729 78.9053 96.8864 77.7651 96.8864 76.5678C96.8864 75.3135 96.7729 74.0593 96.5459 72.805C96.4324 71.5507 95.581 70.7525 94.4458 70.5815ZM82.9806 76.3968C82.9806 80.2736 79.8589 83.4093 75.9993 83.4093C72.1398 83.4093 69.0181 80.2736 69.0181 76.3968C69.0181 72.5199 72.1398 69.3842 75.9993 69.3842C79.8589 69.3842 82.9806 72.5199 82.9806 76.3968Z" fill="#FEBF2B"/>
</svg>
