<svg width="100" height="93" viewBox="0 0 100 93" fill="none" xmlns="http://www.w3.org/2000/svg">
<path d="M10.0097 40.0576C4.48841 40.0576 0 44.5648 0 50.0861V82.1435C0 87.6648 4.48841 92.1532 10.0097 92.1532H22.0289C24.2825 92.1532 26.3671 91.3832 28.0385 90.125V40.0576H10.0097Z" fill="black"/>
<path d="M96.9993 55.0816C96.9993 52.6778 96.0415 50.4242 94.3889 48.7715C96.2669 46.7245 97.2059 43.9826 96.9617 41.1281C96.4922 36.0387 91.9099 32.0386 86.5201 32.0386H61.7681C62.9888 28.3202 64.9607 21.503 64.9607 16.0193C64.9607 7.32418 57.5802 0 52.9415 0C48.7724 0 45.8051 2.34749 45.6737 2.44139C45.2042 2.81699 44.9225 3.39917 44.9225 4.00013V17.578L33.3916 42.5742L32.9033 42.8183V85.768C36.171 87.308 40.2838 88.1343 42.913 88.1343H79.6842C84.0411 88.1343 87.8722 85.1859 88.7549 81.1294C89.2244 79.0448 88.9427 76.9415 88.0225 75.1198C90.9897 73.6362 92.9804 70.5751 92.9804 67.1008C92.9804 65.6735 92.6611 64.3213 92.0414 63.1006C95.0086 61.617 96.9993 58.5559 96.9993 55.0816Z" fill="#FEBF2B"/>
</svg>
