<svg id="Capa_1" data-name="Capa 1" xmlns="http://www.w3.org/2000/svg" width="116.1" height="100.06" viewBox="0 0 116.1 100.06"><defs><style>.cls-1{fill:#febf2b;}</style></defs><title>certification</title><path class="cls-1" d="M168.8,196.1a3.42,3.42,0,0,1,2.8,0l4.6,2.3a1.51,1.51,0,0,0,2.2-1.3V175.7a22.06,22.06,0,0,1-8.1,1.6,21.66,21.66,0,0,1-8.1-1.6V197a1.51,1.51,0,0,0,2.2,1.3Z" transform="translate(-90.4 -98.5)"/><path class="cls-1" d="M170.2,139.4a15.7,15.7,0,1,0,15.7,15.7A15.73,15.73,0,0,0,170.2,139.4Z" transform="translate(-90.4 -98.5)"/><path d="M202.7,98.5H94.3a3.9,3.9,0,0,0-3.9,3.9v81.2a3.9,3.9,0,0,0,3.9,3.9h61.5V171.7a22,22,0,1,1,36.4-16.6,21.74,21.74,0,0,1-7.6,16.6v15.8h18a3.9,3.9,0,0,0,3.9-3.9V102.4A3.82,3.82,0,0,0,202.7,98.5Zm-74.5,68H107.9a3.1,3.1,0,0,1,0-6.2h20.3a3.1,3.1,0,1,1,0,6.2Zm6.8-20.3H107.9a3.1,3.1,0,0,1,0-6.2H135a3.1,3.1,0,1,1,0,6.2Zm20.3-20.3H107.9a3.1,3.1,0,1,1,0-6.2h47.4a3.1,3.1,0,0,1,0,6.2Z" transform="translate(-90.4 -98.5)"/></svg>