<svg width="100" height="100" viewBox="0 0 100 100" fill="none" xmlns="http://www.w3.org/2000/svg">
<g clip-path="url(#clip0_433_1253)">
<path d="M94.9837 70.1658C93.8713 69.0129 92.0307 69.0129 90.8778 70.1254C90.8575 70.1456 90.8575 70.1456 90.8373 70.1658L70.3478 90.8576C69.1949 91.97 69.1949 93.8106 70.3074 94.9636C70.3276 94.9838 70.3276 94.9838 70.3478 95.004L74.4943 99.1505C75.627 100.303 77.4878 100.303 78.6205 99.1707C78.6205 99.1707 78.6205 99.1707 78.6407 99.1505L99.1302 78.4587C100.283 77.3462 100.283 75.5056 99.1706 74.3527C99.1504 74.3325 99.1504 74.3325 99.1302 74.3123L94.9837 70.1658Z" fill="black"/>
<path d="M23.1593 81.6141C23.7054 82.1198 24.4134 82.4029 25.1617 82.4232H63.5922L67.0307 85.8617L85.7604 66.9296L69.8219 51.8609C62.9045 45.3479 50.7685 45.9143 44.4781 52.9329H32.4231C29.1868 52.9329 26.5574 55.5623 26.5574 58.7986C26.5574 62.0348 29.1868 64.6643 32.4231 64.6643H50.0202C51.6383 64.6643 52.953 65.979 52.953 67.5971C52.953 69.2152 51.6383 70.5097 50.0202 70.53H31.6545C29.3891 70.5502 27.2046 69.6804 25.5663 68.0826L13.0056 56.7152C9.62776 53.7217 4.14637 53.4385 0.93035 56.5939L0.869671 56.6546C-0.283242 57.7872 -0.283242 59.6481 0.849444 60.7808C0.869671 60.801 0.889897 60.8212 0.93035 60.8414L23.1998 81.5939L23.1593 81.6141Z" fill="black"/>
<path d="M35.2142 9.34467C27.3663 9.34467 21.0151 15.6958 21.0151 23.5437C21.0151 31.3916 27.3663 37.7427 35.2142 37.7427C43.0418 37.7427 49.393 31.3916 49.4132 23.5437C49.4132 15.6958 43.0418 9.34467 35.2142 9.34467ZM41.0596 29.3487C40.4528 29.9757 39.4617 29.996 38.8347 29.3892L34.1017 24.6562C33.7983 24.3528 33.6365 23.9684 33.6365 23.5437V14.0777C33.6365 13.2079 34.3444 12.5 35.2142 12.5C36.0839 12.5 36.7918 13.2079 36.7918 14.0777V22.8964L41.0596 27.1642C41.6462 27.771 41.6462 28.7419 41.0596 29.3487Z" fill="#F2BC18"/>
<path d="M35.3155 1.76013e-05C22.3098 -0.060662 11.7314 10.4369 11.6707 23.4224C11.61 36.428 22.1076 47.0065 35.093 47.0672C48.0784 47.1279 58.6771 36.6303 58.7378 23.6448V23.6246C58.7378 10.6594 48.2807 0.10115 35.3155 1.76013e-05ZM35.2144 40.8981C25.627 40.8981 17.86 33.1311 17.86 23.5437C17.86 13.9563 25.627 6.18934 35.2144 6.18934C44.8017 6.20957 52.5485 13.9563 52.5687 23.5437C52.5687 33.1311 44.8017 40.8981 35.2144 40.8981Z" fill="#F2BC18"/>
</g>
<defs>
<clipPath id="clip0_433_1253">
<rect width="100" height="100" fill="white"/>
</clipPath>
</defs>
</svg>
