<svg width="75" height="100" viewBox="0 0 75 100" fill="none" xmlns="http://www.w3.org/2000/svg">
<g clip-path="url(#clip0_433_1324)">
<path d="M35.6053 58.3984L16.992 83.2422C16.3866 84.0625 16.953 85.2148 17.9686 85.2148H57.0311C58.0467 85.2148 58.6327 84.0625 58.0077 83.2422L39.3944 58.3984C38.4959 57.207 36.5037 57.207 35.6053 58.3984Z" fill="#F2BC18"/>
<path d="M70.8398 88.6523V79.8828C70.8398 71.6211 67.3242 63.7305 61.1914 58.2031L52.0703 50L61.1914 41.7969C67.3242 36.2695 70.8398 28.3789 70.8398 20.1172V11.3477C73.3203 9.90234 75 7.24609 75 4.17969V2.08984C75 0.9375 74.0625 0 72.9101 0H2.08984C0.9375 0 0 0.9375 0 2.08984V4.17969C0 7.24609 1.67969 9.90234 4.16015 11.3477V20.1172C4.16015 28.3789 7.67578 36.2695 13.8086 41.7969L22.9297 50L13.8086 58.2031C7.67578 63.7305 4.16015 71.6211 4.16015 79.8828V88.6523C1.67969 90.0977 0 92.7539 0 95.8398V97.9297C0 99.082 0.9375 100.02 2.08984 100.02H72.9297C74.082 100.02 75.0195 99.082 75.0195 97.9297V95.8398C75 92.7539 73.3203 90.0977 70.8398 88.6523ZM62.5 87.5H57.2851H17.7148H12.5V79.8828C12.5 73.9844 15.0195 68.3398 19.3945 64.3945L31.9531 53.0859C32.832 52.3047 33.3398 51.1719 33.3398 49.9805C33.3398 48.7891 32.832 47.6758 31.9531 46.875L19.3945 35.5664C15.0195 31.6602 12.5 26.0156 12.5 20.1172V12.5H62.5V20.1172C62.5 26.0156 59.9805 31.6602 55.6055 35.6055L43.0469 46.9141C42.168 47.6953 41.6601 48.8281 41.6601 50.0195C41.6601 51.2109 42.168 52.3242 43.0469 53.125L55.6055 64.4336C59.9805 68.3789 62.5 74.0234 62.5 79.9219V87.5Z" fill="black"/>
<path d="M51.8554 29.1602H23.1445C22.3242 29.1602 21.582 29.6484 21.2304 30.3906C20.8984 31.1523 21.0351 32.0313 21.6015 32.6367L36.1132 46.0156C36.5039 46.3672 37.0117 46.5625 37.5195 46.5625C38.0273 46.5625 38.5156 46.3867 38.9257 46.0156L53.4375 32.6367C53.9843 32.0313 54.1406 31.1523 53.8086 30.3906C53.4375 29.6484 52.6757 29.1602 51.8554 29.1602Z" fill="#F2BC18"/>
</g>
<defs>
<clipPath id="clip0_433_1324">
<rect width="75" height="100" fill="white"/>
</clipPath>
</defs>
</svg>
