<svg width="76" height="100" viewBox="0 0 76 100" fill="none" xmlns="http://www.w3.org/2000/svg">
<g clip-path="url(#clip0_433_1332)">
<path d="M37.4219 61.1914C43.6351 61.1914 48.6719 56.1546 48.6719 49.9414C48.6719 43.7282 43.6351 38.6914 37.4219 38.6914C31.2087 38.6914 26.1719 43.7282 26.1719 49.9414C26.1719 56.1546 31.2087 61.1914 37.4219 61.1914Z" fill="black"/>
<path d="M67.3047 36.582C63.6719 36.582 60.7031 39.5313 60.7031 43.1836V49.668C60.7031 62.4219 50.3516 72.7734 37.5977 72.7734C24.8437 72.7734 14.4922 62.4219 14.4922 49.668V43.1836C14.4922 39.5313 11.543 36.582 7.89062 36.582C4.25781 36.582 1.28906 39.5313 1.28906 43.1836V49.5313C1.28906 61.3672 6.95312 71.875 15.7227 78.4961C16.2305 78.8867 16.5234 79.4727 16.5234 80.1172V97.9492C16.5234 99.082 17.4414 99.9805 18.5547 99.9805H56.25C57.3828 99.9805 58.2812 99.0625 58.2812 97.9492V80.293C58.2812 79.6484 58.5742 79.043 59.1016 78.6719C68.0859 71.9727 73.8867 61.1719 73.8867 49.1406V43.1836C73.8867 39.5313 70.9375 36.582 67.3047 36.582Z" fill="black"/>
<path d="M26.8946 19.0039C27.2461 19.4336 27.4219 19.9609 27.4024 20.5078L27.0118 27.8906C26.9336 29.4922 28.5352 30.6445 30.0196 30.0586L36.7774 27.3633C37.3047 27.1484 37.8907 27.1484 38.3985 27.3633L45.1563 30.0586C46.6407 30.6445 48.2422 29.4922 48.1641 27.8906L47.7735 20.5078C47.754 19.9609 47.9297 19.4141 48.2813 19.0039L52.8516 13.457C53.8672 12.2266 53.2813 10.3711 51.7383 9.94141L44.6485 7.94922C44.1407 7.8125 43.6915 7.48047 43.3985 7.05078L39.4141 0.996094C38.5352 -0.332031 36.6016 -0.332031 35.7422 0.996094L31.7579 7.05078C31.4649 7.5 31.0157 7.8125 30.5079 7.94922L23.4375 9.94141C21.9141 10.3711 21.3282 12.2266 22.3243 13.457L26.8946 19.0039Z" fill="#F2BC18"/>
<path d="M17.3047 26.3281C18.4961 25.1367 18.4961 23.2031 17.3047 22.0117L5.21484 9.90234C4.02344 8.71094 2.08984 8.71094 0.898437 9.90234C-0.292969 11.0938 -0.292969 13.0273 0.898437 14.2188L12.9883 26.3086C14.1797 27.5195 16.1133 27.5195 17.3047 26.3281Z" fill="black"/>
<path d="M75.0391 9.90234C73.8477 8.71094 71.9141 8.71094 70.7227 9.90234L58.6328 21.9922C57.4414 23.1836 57.4414 25.1172 58.6328 26.3086C59.8242 27.5 61.7578 27.5 62.9492 26.3086L75.0391 14.2188C76.2305 13.0273 76.2305 11.0937 75.0391 9.90234Z" fill="black"/>
</g>
<defs>
<clipPath id="clip0_433_1332">
<rect width="75.9375" height="100" fill="white"/>
</clipPath>
</defs>
</svg>
