<svg id="Capa_1" data-name="Capa 1" xmlns="http://www.w3.org/2000/svg" width="95.2" height="100.15" viewBox="0 0 95.2 100.15"><defs><style>.cls-1{fill:#febf2b;}</style></defs><title>clipboard (1)</title><path d="M275.9,223.6h-4.6v6.8a8.81,8.81,0,0,1-8.8,8.8H224.7a8.81,8.81,0,0,1-8.8-8.8v-6.8h-4.6a2.9,2.9,0,0,0-2.9,2.9v76.6a2.9,2.9,0,0,0,2.9,2.9h64.5a2.9,2.9,0,0,0,2.9-2.9V226.5A2.76,2.76,0,0,0,275.9,223.6Zm-44.1,65.8-5.8,5.8a3,3,0,0,1-4.1,0l-2.8-2.8a2.9,2.9,0,0,1,4.1-4.1l.7.7,3.7-3.7a2.94,2.94,0,0,1,4.2,4.1Zm0-17.6-5.8,5.8a3,3,0,0,1-4.1,0l-2.8-2.8a2.9,2.9,0,1,1,4.1-4.1l.7.7,3.7-3.7a2.94,2.94,0,0,1,4.2,4.1Zm0-17.6L226,260a3,3,0,0,1-4.1,0l-2.8-2.8a2.9,2.9,0,1,1,4.1-4.1l.7.7,3.7-3.7a2.94,2.94,0,0,1,4.2,4.1Zm34.3,38.9H241.4a2.9,2.9,0,1,1,0-5.8h24.7a2.9,2.9,0,1,1,0,5.8Zm0-17.6H241.4a2.9,2.9,0,0,1,0-5.8h24.7a2.9,2.9,0,0,1,0,5.8Zm0-17.5H241.4a2.9,2.9,0,0,1,0-5.8h24.7a2.9,2.9,0,0,1,2.9,2.9A3,3,0,0,1,266.1,258Z" transform="translate(-208.4 -206)"/><path class="cls-1" d="M262.5,217.7H258a14.71,14.71,0,0,0-28.8,0h-4.6a2.9,2.9,0,0,0-2.9,2.9v9.8a2.9,2.9,0,0,0,2.9,2.9h37.8a2.9,2.9,0,0,0,2.9-2.9v-9.8A2.76,2.76,0,0,0,262.5,217.7Zm-18.9,5.9a2.9,2.9,0,1,1,2.9-2.9A2.9,2.9,0,0,1,243.6,223.6Z" transform="translate(-208.4 -206)"/><path d="M287.2,290.9h16.3a9,9,0,0,1-.9,3.2L298,304.5a2.87,2.87,0,0,1-5.2,0l-4.6-10.4A13.13,13.13,0,0,1,287.2,290.9Z" transform="translate(-208.4 -206)"/><path d="M303.6,226.5v8.8H287.2v-8.8a2.9,2.9,0,0,1,2.9-2.9h10.5A2.93,2.93,0,0,1,303.6,226.5Z" transform="translate(-208.4 -206)"/><path class="cls-1" d="M287.2,241.2h16.4V285H287.2Z" transform="translate(-208.4 -206)"/></svg>