<svg width="100" height="100" viewBox="0 0 100 100" fill="none" xmlns="http://www.w3.org/2000/svg">
<path d="M69.8555 17.5781H65.2949V24.4141C65.2949 29.2598 61.3516 33.2031 56.5059 33.2031H18.6895C13.8438 33.2031 9.90039 29.2598 9.90039 24.4141V17.5781H5.33984C3.72266 17.5781 2.41016 18.8906 2.41016 20.5078V97.0703C2.41016 98.6875 3.72266 100 5.33984 100H69.8555C71.4727 100 72.7852 98.6875 72.7852 97.0703V20.5078C72.7852 18.8906 71.4727 17.5781 69.8555 17.5781ZM25.7695 83.3594L19.9863 89.1426C18.8445 90.2844 16.9887 90.2875 15.8438 89.1426L13.0332 86.334C11.8906 85.1895 11.8906 83.334 13.0332 82.1895C14.1777 81.0469 16.0332 81.0469 17.1777 82.1895L17.9141 82.9277L21.625 79.2168C22.7695 78.0723 24.625 78.0723 25.7695 79.2168C26.9141 80.3613 26.9141 82.2148 25.7695 83.3594ZM25.7695 65.7812L19.9863 71.5645C18.8445 72.7062 16.9887 72.7094 15.8438 71.5645L13.0332 68.7559C11.8906 67.6113 11.8906 65.7559 13.0332 64.6113C14.1777 63.4688 16.0332 63.4688 17.1777 64.6113L17.9141 65.3496L21.625 61.6387C22.7695 60.4941 24.625 60.4941 25.7695 61.6387C26.9141 62.7832 26.9141 64.6367 25.7695 65.7812ZM25.7695 48.2031L19.9863 53.9863C18.8445 55.1281 16.9887 55.1313 15.8438 53.9863L13.0332 51.1777C11.8906 50.0332 11.8906 48.1777 13.0332 47.0332C14.1777 45.8906 16.0332 45.8906 17.1777 47.0332L17.9141 47.7715L21.625 44.0605C22.7695 42.916 24.625 42.916 25.7695 44.0605C26.9141 45.2051 26.9141 47.0586 25.7695 48.2031ZM60.0898 87.1094H35.416C33.7988 87.1094 32.4863 85.7988 32.4863 84.1797C32.4863 82.5625 33.7988 81.25 35.416 81.25H60.0898C61.707 81.25 63.0195 82.5625 63.0195 84.1797C63.0195 85.7988 61.707 87.1094 60.0898 87.1094ZM60.0898 69.5312H35.416C33.7988 69.5312 32.4863 68.2207 32.4863 66.6016C32.4863 64.9844 33.7988 63.6719 35.416 63.6719H60.0898C61.707 63.6719 63.0195 64.9844 63.0195 66.6016C63.0195 68.2207 61.707 69.5312 60.0898 69.5312ZM60.0898 51.9531H35.416C33.7988 51.9531 32.4863 50.6426 32.4863 49.0234C32.4863 47.4062 33.7988 46.0938 35.416 46.0938H60.0898C61.707 46.0938 63.0195 47.4062 63.0195 49.0234C63.0195 50.6426 61.707 51.9531 60.0898 51.9531Z" fill="black"/>
<path d="M56.5059 11.7188H51.9531C50.5723 4.91406 44.5723 0 37.5977 0C30.623 0 24.623 4.91406 23.2422 11.7188H18.6895C17.0723 11.7188 15.7598 13.0312 15.7598 14.6484V24.4141C15.7598 26.0312 17.0723 27.3438 18.6895 27.3438H56.5059C58.123 27.3438 59.4355 26.0312 59.4355 24.4141V14.6484C59.4355 13.0312 58.123 11.7188 56.5059 11.7188ZM37.5977 17.5781C35.9805 17.5781 34.668 16.2656 34.668 14.6484C34.668 13.0312 35.9805 11.7188 37.5977 11.7188C39.2148 11.7188 40.5273 13.0312 40.5273 14.6484C40.5273 16.2656 39.2148 17.5781 37.5977 17.5781Z" fill="#FEBF2B"/>
<path d="M81.2422 84.8652H97.5312C97.4082 85.9629 97.0938 87.0391 96.5996 88.0254L92.0078 98.3809C90.9309 100.535 87.8438 100.537 86.7656 98.3809L82.1738 88.0254C81.6797 87.0391 81.3652 85.9629 81.2422 84.8652Z" fill="black"/>
<path d="M97.5898 20.5078V29.2969H81.1836V20.5078C81.1836 18.8906 82.4961 17.5781 84.1133 17.5781H94.6602C96.2773 17.5781 97.5898 18.8906 97.5898 20.5078Z" fill="black"/>
<path d="M81.1836 35.1562H97.5898V79.0059H81.1836V35.1562Z" fill="#FEBF2B"/>
</svg>
