<svg id="Capa_1" data-name="Capa 1" xmlns="http://www.w3.org/2000/svg" width="100.03" height="100.02" viewBox="0 0 100.03 100.02"><defs><style>.cls-1{fill:#febf2b;}</style></defs><title>criminal-record</title><circle class="cls-1" cx="60.5" cy="60.5" r="19.5"/><path class="cls-1" d="M304.3,296l-16.1-16.1a25.33,25.33,0,0,1-8.3,8.3L296,304.3a5.87,5.87,0,0,0,8.3-8.3Z" transform="translate(-206 -206)"/><path d="M225.5,207.7l-17.8,17.8h17.8Z" transform="translate(-206 -206)"/><path d="M223.6,256.8h19.5a26,26,0,0,1,7.2-9.8H223.5v9.8Z" transform="translate(-206 -206)"/><path d="M241.5,262.6H220.7a2.9,2.9,0,0,1-2.9-2.9V244.1a2.9,2.9,0,0,1,2.9-2.9h45.9a25,25,0,0,1,15.6,5.4V214.8a8.81,8.81,0,0,0-8.8-8.8h-42v22.5a2.9,2.9,0,0,1-2.9,2.9H206v65.8a8.81,8.81,0,0,0,8.8,8.8h58.6a8.82,8.82,0,0,0,8.7-7.4l-7.9-7.9a24.18,24.18,0,0,1-7.6,1.2,25,25,0,0,1-16.2-5.9H220.7a2.9,2.9,0,0,1,0-5.8h24.5a24.61,24.61,0,0,1-2.8-5.9H220.7a2.9,2.9,0,1,1,0-5.8h20.6a25.35,25.35,0,0,1,.2-5.9Zm26-27.3H240.2a2.9,2.9,0,1,1,0-5.8h27.3a2.9,2.9,0,0,1,2.9,2.9A2.84,2.84,0,0,1,267.5,235.3Zm0-11.7H240.2a2.9,2.9,0,1,1,0-5.8h27.3a2.9,2.9,0,0,1,2.9,2.9A2.84,2.84,0,0,1,267.5,223.6Z" transform="translate(-206 -206)"/></svg>