<svg width="68" height="62" viewBox="0 0 68 62" fill="none" xmlns="http://www.w3.org/2000/svg">
<g clip-path="url(#clip0_1_990)">
<mask id="mask0_1_990" style="mask-type:luminance" maskUnits="userSpaceOnUse" x="0" y="0" width="68" height="63">
<path d="M68 0H0V62.3324H68V0Z" fill="white"/>
</mask>
<g mask="url(#mask0_1_990)">
<path d="M11.9439 44.6564L12.0011 44.7073V45.018L11.9502 45.0626C11.4852 45.0752 11.1963 45.0984 11.0844 45.132C10.9722 45.1661 10.8927 45.222 10.8464 45.3002C10.7998 45.3788 10.7733 45.5319 10.767 45.7602C10.7607 45.9889 10.7489 46.6339 10.7321 47.6956V50.6209C10.7321 51.0435 10.7384 51.5216 10.751 52.0547C10.7636 52.5875 10.7901 52.8978 10.8305 52.9844C10.8704 53.071 10.9436 53.1345 11.0495 53.1745C11.1551 53.2148 11.4553 53.2413 11.9502 53.2539L12.0011 53.2985V53.6092L11.9439 53.6601C11.2543 53.6219 10.6539 53.6029 10.1417 53.6029C9.79525 53.6029 9.2049 53.6219 8.37152 53.6601L8.31475 53.6092V53.3044L8.36521 53.2539C8.83068 53.2413 9.11955 53.2178 9.23139 53.1841C9.34324 53.1505 9.42271 53.0942 9.46939 53.0159C9.51606 52.9377 9.54339 52.7822 9.5518 52.5496C9.56021 52.3171 9.57072 51.6738 9.58375 50.6209V45.9633L7.39475 50.5444C6.84477 51.691 6.36458 52.7695 5.9542 53.7804H5.70695C5.46981 53.235 5.27554 52.7994 5.12291 52.4735L2.09001 46.1727V50.6079C2.09001 51.0225 2.09547 51.4993 2.10599 52.0388C2.1165 52.5782 2.14299 52.8902 2.18504 52.9747C2.22751 53.0593 2.30151 53.1227 2.40747 53.1652C2.51301 53.2073 2.81365 53.2325 3.30813 53.2413L3.35901 53.2922V53.5966L3.30182 53.6534L2.89606 53.6349C2.47727 53.6134 2.11734 53.6029 1.81712 53.6029C1.68173 53.6029 1.17631 53.6197 0.300878 53.6534L0.25 53.6029V53.2985L0.300878 53.2413C0.765926 53.2325 1.05395 53.2119 1.1637 53.1778C1.27386 53.1442 1.35291 53.087 1.40169 53.0063C1.45004 52.926 1.47779 52.7758 1.4841 52.5559C1.49041 52.336 1.50008 51.6868 1.51269 50.6079V47.702C1.51269 47.3172 1.50723 46.8484 1.49672 46.2963C1.4862 45.7446 1.46097 45.4251 1.42061 45.3384C1.38024 45.2518 1.3075 45.1871 1.20196 45.145C1.096 45.103 0.79578 45.0773 0.300878 45.0685L0.25 45.018V44.7136L0.307186 44.6564C0.598996 44.6775 0.992563 44.688 1.48746 44.688C1.95251 44.688 2.35869 44.6775 2.70559 44.6564C3.06089 45.4772 3.40148 46.2193 3.72693 46.8833L6.13206 51.8201L8.30172 47.2958C8.88997 46.0734 9.28522 45.1934 9.48831 44.6564C9.89449 44.6775 10.2944 44.688 10.6875 44.688C11.0428 44.688 11.462 44.6775 11.9439 44.6564Z" fill="white"/>
<path d="M19.1429 50.4052C19.1429 50.9379 19.0571 51.4185 18.8855 51.8453C18.7144 52.2729 18.4672 52.6396 18.1434 52.9461C17.8196 53.2531 17.4858 53.4688 17.141 53.5937C16.7962 53.7181 16.3913 53.7808 15.9258 53.7808C14.8851 53.7808 14.0929 53.4827 13.5497 52.886C13.006 52.2898 12.7344 51.5451 12.7344 50.6524C12.7344 50.0394 12.8651 49.4936 13.1275 49.0155C13.3899 48.5374 13.7696 48.1716 14.2666 47.9181C14.7636 47.6641 15.3464 47.5371 16.0145 47.5371C16.6658 47.5371 17.2221 47.659 17.6834 47.9021C18.1442 48.1451 18.5029 48.4878 18.759 48.9301C19.0146 49.3721 19.1429 49.8636 19.1429 50.4052ZM17.918 50.7794C17.918 49.9334 17.7435 49.2548 17.3945 48.7426C17.0455 48.2309 16.5346 47.9752 15.8623 47.9752C15.2997 47.9752 14.841 48.1729 14.4852 48.5681C14.1299 48.9638 13.9525 49.5613 13.9525 50.3606C13.9525 51.1814 14.1312 51.889 14.4886 52.4832C14.846 53.0773 15.3611 53.3746 16.0339 53.3746C16.6217 53.3746 17.0825 53.1387 17.4168 52.6674C17.7511 52.1956 17.918 51.5665 17.918 50.7794Z" fill="white"/>
<path d="M25.078 52.924L24.8241 53.3491C24.2787 53.6493 23.6694 53.7999 22.9967 53.7999C22.0661 53.7999 21.3471 53.5228 20.8396 52.9686C20.3321 52.4144 20.0781 51.6996 20.0781 50.8237C20.0781 50.4264 20.1214 50.0719 20.2081 49.7612C20.2951 49.45 20.4048 49.1931 20.5381 48.99C20.6714 48.7869 20.8186 48.6263 20.9792 48.5082C21.1398 48.3896 21.4115 48.2248 21.7945 48.0128C22.1771 47.8013 22.466 47.663 22.6603 47.5974C22.855 47.5318 23.1241 47.499 23.4663 47.499C24.1223 47.499 24.6592 47.6239 25.078 47.8732C24.9977 48.3513 24.9363 48.8845 24.8943 49.4723L24.8371 49.5232H24.5768L24.5196 49.466C24.5028 49.1107 24.4793 48.8719 24.4498 48.7491C24.4204 48.6263 24.2522 48.4951 23.9457 48.3555C23.6387 48.2159 23.312 48.1461 22.9651 48.1461C22.6182 48.1461 22.3096 48.2193 22.0388 48.3652C21.768 48.5111 21.5641 48.7499 21.4266 49.0821C21.2891 49.4143 21.2201 49.8108 21.2201 50.2716C21.2201 50.661 21.2752 51.0407 21.3854 51.4107C21.4951 51.7812 21.6402 52.0877 21.8197 52.3307C21.9997 52.5742 22.2377 52.7697 22.5337 52.9177C22.8297 53.0657 23.1598 53.1397 23.5235 53.1397C23.7518 53.1397 23.9751 53.1103 24.1929 53.051C24.4107 52.9917 24.6613 52.8946 24.9447 52.7592L25.078 52.924Z" fill="white"/>
<path d="M25.6641 53.6031V53.2861L25.7149 53.2478C26.0871 53.2352 26.3461 53.2163 26.492 53.1906C26.6379 53.1654 26.7342 53.125 26.7808 53.0699C26.8275 53.0153 26.8591 52.9253 26.8759 52.8004C26.8927 52.6755 26.9057 52.3606 26.9141 51.8552C26.9226 51.3498 26.9268 50.936 26.9268 50.6148V47.6769C26.9268 47.2371 26.9213 46.7695 26.9108 46.2746C26.9003 45.7797 26.8834 45.4866 26.8603 45.3958C26.8368 45.305 26.8027 45.2394 26.7586 45.199C26.7144 45.1587 26.6253 45.1263 26.492 45.1006C26.3587 45.0754 26.0997 45.0565 25.7149 45.0439L25.6641 44.9993V44.6818L25.7149 44.6377C25.736 44.6377 26.0131 44.6461 26.5462 44.6629C27.0491 44.6797 27.3834 44.6882 27.5486 44.6882C27.65 44.6882 28.2508 44.6713 29.3508 44.6377L29.4013 44.6818V44.9993L29.3508 45.0439C28.9783 45.0565 28.7192 45.0754 28.5733 45.1006C28.4274 45.1263 28.3311 45.1654 28.2845 45.2184C28.2382 45.2714 28.2063 45.3588 28.1894 45.4816C28.1726 45.6044 28.16 45.9256 28.1516 46.4462C28.1428 46.9663 28.1386 47.3767 28.1386 47.6769V52.5498L28.2336 52.5944C29.1263 51.3081 30.1375 49.7772 31.2669 48.0003C32.3963 46.2237 33.0876 45.1032 33.3416 44.6377C33.7856 44.6713 34.1981 44.6882 34.579 44.6882C35.0104 44.6882 35.4208 44.6713 35.8098 44.6377L35.8606 44.6818V44.9993L35.8098 45.0439C35.3952 45.0565 35.1256 45.0767 35.0008 45.104C34.8759 45.1318 34.7922 45.1667 34.7502 45.2087C34.7077 45.2512 34.6761 45.3231 34.6551 45.4244C34.6337 45.5262 34.619 45.8453 34.6106 46.3827C34.6021 46.9196 34.5979 47.351 34.5979 47.6769V50.6148C34.5979 50.9617 34.6021 51.3813 34.6106 51.8741C34.619 52.3669 34.6316 52.6768 34.6488 52.8038C34.6656 52.9304 34.6993 53.0203 34.7502 53.0733C34.801 53.1263 34.9015 53.1654 35.0516 53.1906C35.2017 53.2163 35.4545 53.2331 35.8098 53.2415L35.8606 53.2861V53.6031L35.8098 53.654C35.7887 53.654 35.5116 53.6456 34.9785 53.6288C34.4878 53.6115 34.1535 53.6031 33.9761 53.6031C33.8621 53.6031 33.2612 53.6199 32.1739 53.654L32.1234 53.6031V53.2861L32.1739 53.2415C32.5464 53.2331 32.8054 53.215 32.9514 53.1877C33.0973 53.1599 33.1935 53.1208 33.2402 53.0699C33.2865 53.0195 33.3184 52.9316 33.3352 52.8067C33.3521 52.6823 33.3647 52.3606 33.3731 51.8426C33.3815 51.3241 33.3861 50.915 33.3861 50.6148L33.3924 45.8811L33.2655 45.8369C32.8975 46.3743 32.0427 47.6664 30.7018 49.7137L28.1516 53.654C27.7917 53.6199 27.375 53.6031 26.9015 53.6031C26.5715 53.6031 26.1758 53.6199 25.7149 53.654L25.6641 53.6031Z" fill="white"/>
<path d="M38.3596 50.2972C39.1379 50.314 39.6749 50.3224 39.9713 50.3224C40.314 50.3224 40.8447 50.314 41.5641 50.2972V50.1257C41.5641 49.8128 41.5595 49.4491 41.5511 49.0345C41.5426 48.6199 41.5162 48.3714 41.472 48.289C41.4274 48.2066 41.3703 48.1515 41.3005 48.1242C41.2307 48.0964 41.0393 48.0699 40.7261 48.0447L40.6756 47.9938V47.7273L40.7261 47.6831C41.1491 47.7167 41.5956 47.7336 42.0653 47.7336C42.5556 47.7336 43.0021 47.7167 43.4041 47.6831L43.4546 47.7273V47.9938L43.4041 48.0447C43.0866 48.0741 42.8932 48.1027 42.8234 48.1305C42.7536 48.1578 42.6973 48.2129 42.6552 48.2953C42.6128 48.3777 42.5875 48.5829 42.5791 48.9109C42.5707 49.2384 42.5665 49.6438 42.5665 50.1257V51.2046L42.5791 52.3147C42.5875 52.725 42.614 52.9706 42.6586 53.0509C42.7027 53.1312 42.7608 53.1842 42.8331 53.2094C42.905 53.2351 43.095 53.2624 43.4041 53.2923L43.4546 53.3364V53.603L43.4041 53.6535C42.9811 53.6198 42.5346 53.603 42.0653 53.603C41.5746 53.603 41.1281 53.6198 40.7261 53.6535L40.6756 53.603V53.3364L40.7261 53.2923C41.0435 53.2624 41.237 53.2338 41.3068 53.2061C41.3766 53.1792 41.4329 53.1249 41.475 53.0446C41.5174 52.9643 41.5426 52.7684 41.5511 52.4576C41.5595 52.1465 41.5641 51.7289 41.5641 51.2046V50.6971C41.0944 50.6841 40.5634 50.6777 39.9713 50.6777C39.434 50.6777 38.8966 50.6841 38.3596 50.6971V51.2046C38.3596 51.5389 38.3638 51.9097 38.3723 52.318C38.3807 52.7263 38.4072 52.9706 38.4517 53.0509C38.4959 53.1312 38.5539 53.1842 38.6262 53.2094C38.6981 53.2351 38.8882 53.2624 39.1972 53.2923L39.2481 53.3364V53.603L39.1972 53.6535C38.7742 53.6198 38.3281 53.603 37.8584 53.603C37.3635 53.603 36.917 53.6198 36.5196 53.6535L36.4688 53.603V53.3364L36.5196 53.2923C36.8367 53.2624 37.0292 53.2338 37.0969 53.2061C37.1646 53.1792 37.221 53.1249 37.2651 53.0446C37.3093 52.9643 37.3358 52.7696 37.3442 52.461C37.3526 52.1519 37.3572 51.7336 37.3572 51.2046V50.1257C37.3572 49.796 37.3526 49.4268 37.3442 49.0185C37.3358 48.6103 37.3084 48.3664 37.2622 48.2857C37.2155 48.2053 37.1575 48.1515 37.0877 48.1242C37.0179 48.0964 36.8283 48.0699 36.5196 48.0447L36.4688 47.9938V47.7273L36.5196 47.6831C36.9384 47.7167 37.3846 47.7336 37.8584 47.7336C38.3491 47.7336 38.7952 47.7167 39.1972 47.6831L39.2481 47.7273V47.9938L39.1972 48.0447C38.8798 48.0741 38.6863 48.1019 38.6165 48.1271C38.5467 48.1524 38.4908 48.2066 38.4484 48.289C38.4063 48.3714 38.3807 48.5661 38.3723 48.8726C38.3638 49.1796 38.3596 49.5971 38.3596 50.1257V50.2972Z" fill="white"/>
<path d="M44.1406 53.603V53.3368L44.1915 53.2923C44.5085 53.2628 44.7011 53.2342 44.7688 53.2065C44.8365 53.1792 44.8924 53.1253 44.937 53.0446C44.9812 52.9643 45.0076 52.7696 45.0161 52.461C45.0245 52.1524 45.0291 51.7336 45.0291 51.2046V50.1261C45.0291 49.796 45.0245 49.4272 45.0161 49.019C45.0076 48.6107 44.9803 48.3664 44.9336 48.2861C44.887 48.2058 44.8289 48.1515 44.7591 48.1242C44.6893 48.0969 44.5001 48.0704 44.1915 48.0451L44.1406 47.9938V47.7277L44.1915 47.6831C44.7709 47.7172 45.2107 47.734 45.5114 47.734C45.6548 47.734 45.8562 47.7298 46.1139 47.7214C46.8544 47.7003 47.3619 47.6894 47.6369 47.6894C48.1234 47.6894 48.4808 47.7975 48.7091 48.0132C48.9374 48.2289 49.0518 48.4997 49.0518 48.8255C49.0518 49.5189 48.58 49.9928 47.6369 50.2468C48.2205 50.2804 48.6519 50.4255 48.9311 50.6811C49.2103 50.9372 49.3499 51.2702 49.3499 51.6806C49.3499 52.1839 49.1586 52.6363 48.7755 53.0383C48.3929 53.4403 47.7786 53.6413 46.9326 53.6413C46.8729 53.6413 46.7484 53.6371 46.5579 53.6287C46.2069 53.6114 45.9277 53.603 45.7204 53.603C45.2086 53.6198 44.699 53.6371 44.1915 53.6539L44.1406 53.603ZM46.0315 50.1706C46.2005 50.1791 46.3359 50.1833 46.4377 50.1833C47.0255 50.1833 47.4367 50.087 47.6718 49.8944C47.9064 49.7018 48.0237 49.4365 48.0237 49.098C48.0237 48.802 47.9295 48.5577 47.7412 48.3651C47.5532 48.173 47.2202 48.0767 46.7421 48.0767C46.5306 48.0767 46.3086 48.0872 46.0757 48.1082L46.0315 50.1706ZM46.0315 50.5512L46.0757 53.1968C46.2872 53.2267 46.5201 53.2414 46.7741 53.2414C47.142 53.2414 47.4346 53.1695 47.6525 53.0257C47.8707 52.8819 48.0258 52.7061 48.1188 52.4992C48.2121 52.292 48.2584 52.0674 48.2584 51.8265C48.2584 51.5473 48.1953 51.3022 48.0683 51.0907C47.9413 50.8792 47.7563 50.7332 47.5129 50.6525C47.2698 50.5722 46.9343 50.5323 46.5075 50.5323C46.3973 50.5323 46.2388 50.5386 46.0315 50.5512Z" fill="white"/>
<path d="M55.4963 52.6701L55.2932 53.1268C54.8534 53.4106 54.4607 53.5943 54.1163 53.6789C53.7711 53.7634 53.4637 53.8058 53.193 53.8058C52.6854 53.8058 52.204 53.7066 51.7495 53.5077C51.2945 53.3088 50.9245 52.9725 50.639 52.499C50.3535 52.0251 50.2109 51.4541 50.2109 50.7856C50.2109 50.3415 50.2656 49.9408 50.3758 49.5834C50.4855 49.2256 50.6011 48.9607 50.7214 48.787C50.8421 48.6134 51.046 48.4212 51.3336 48.2093C51.6216 47.9982 51.9261 47.8288 52.2473 47.7018C52.569 47.5752 52.9159 47.5117 53.288 47.5117C53.7955 47.5117 54.2429 47.6311 54.6302 47.87C55.017 48.1092 55.289 48.4149 55.4455 48.787C55.6019 49.1591 55.6801 49.5548 55.6801 49.9736C55.6801 50.1044 55.6738 50.2318 55.6612 50.3541L55.5914 50.4239C55.3038 50.4874 54.9165 50.5299 54.4304 50.5509C53.9435 50.572 53.6223 50.5825 53.4659 50.5825H51.4291C51.4375 51.4583 51.6574 52.1033 52.0888 52.5179C52.5202 52.9325 53.0492 53.1398 53.6752 53.1398C53.9713 53.1398 54.2559 53.0889 54.5288 52.9872C54.8013 52.8858 55.0902 52.7441 55.3946 52.5625L55.4963 52.6701ZM51.4291 50.0749C51.5052 50.0876 51.7978 50.1023 52.3079 50.1191C52.8175 50.1363 53.1951 50.1447 53.4406 50.1447C54.0285 50.1447 54.3859 50.1342 54.5124 50.1132C54.517 50.0115 54.5191 49.9332 54.5191 49.8782C54.5191 49.2226 54.3859 48.7349 54.1193 48.4157C53.8527 48.0962 53.489 47.9368 53.0281 47.9368C52.5244 47.9368 52.1321 48.1164 51.8508 48.4759C51.5695 48.8358 51.4291 49.3685 51.4291 50.0749Z" fill="white"/>
<path d="M61.6249 52.924L61.3709 53.3491C60.8256 53.6493 60.2163 53.7999 59.5435 53.7999C58.613 53.7999 57.894 53.5228 57.3865 52.9686C56.879 52.4144 56.625 51.6996 56.625 50.8237C56.625 50.4264 56.6683 50.0719 56.7549 49.7612C56.842 49.45 56.9517 49.1931 57.085 48.99C57.2183 48.7869 57.3655 48.6263 57.5261 48.5082C57.6867 48.3896 57.9583 48.2248 58.3414 48.0128C58.724 47.8013 59.0129 47.663 59.2072 47.5974C59.4018 47.5318 59.6709 47.499 60.0132 47.499C60.6691 47.499 61.2061 47.6239 61.6249 47.8732C61.5446 48.3513 61.4832 48.8845 61.4411 49.4723L61.384 49.5232H61.1237L61.0665 49.466C61.0497 49.1107 61.0261 48.8719 60.9967 48.7491C60.9673 48.6263 60.7991 48.4951 60.4925 48.3555C60.1856 48.2159 59.8589 48.1461 59.512 48.1461C59.1651 48.1461 58.8565 48.2193 58.5857 48.3652C58.3149 48.5111 58.111 48.7499 57.9735 49.0821C57.836 49.4143 57.767 49.8108 57.767 50.2716C57.767 50.661 57.8221 51.0407 57.9323 51.4107C58.042 51.7812 58.1871 52.0877 58.3666 52.3307C58.5466 52.5742 58.7846 52.7697 59.0806 52.9177C59.3766 53.0657 59.7067 53.1397 60.0704 53.1397C60.2987 53.1397 60.522 53.1103 60.7398 53.051C60.9576 52.9917 61.2082 52.8946 61.4916 52.7592L61.6249 52.924Z" fill="white"/>
<path d="M62.125 47.7273L62.1759 47.6831C63.0009 47.7252 63.9251 47.7462 64.9485 47.7462C65.9892 47.7462 66.9134 47.7252 67.7216 47.6831L67.7657 47.7273C67.7405 48.2857 67.7279 48.7574 67.7279 49.1422L67.6896 49.1804H67.4356L67.3978 49.1422C67.3427 48.6855 67.2985 48.416 67.2645 48.3332C67.2309 48.2508 67.1829 48.1969 67.1219 48.1717C67.0606 48.1461 66.9411 48.1334 66.7633 48.1334H65.4754L65.4497 49.7577V51.2046C65.4497 51.5174 65.4539 51.8824 65.4623 52.2991C65.4712 52.7158 65.4964 52.9643 65.5388 53.0446C65.5809 53.1249 65.6381 53.1787 65.71 53.2061C65.7819 53.2338 65.9745 53.2624 66.2873 53.2919L66.3382 53.3364V53.603L66.2873 53.6535C65.8643 53.6198 65.4182 53.603 64.9485 53.603C64.4578 53.603 64.0117 53.6198 63.6097 53.6535L63.5592 53.603V53.3364L63.6097 53.2919C63.9272 53.2624 64.1206 53.2338 64.1904 53.2061C64.2602 53.1787 64.3161 53.1237 64.3586 53.0412C64.4006 52.9588 64.4263 52.7536 64.4347 52.4257C64.4431 52.0981 64.4473 51.6911 64.4473 51.2046V49.7771C64.4347 49.2271 64.4242 48.6792 64.4158 48.1334H63.1274C62.9458 48.1334 62.8243 48.1473 62.7629 48.1746C62.7015 48.202 62.6548 48.2617 62.6233 48.3525C62.5913 48.4433 62.548 48.7065 62.4929 49.1422L62.4551 49.1804H62.2074L62.1633 49.1422C62.1633 48.9731 62.1506 48.5014 62.125 47.7273Z" fill="white"/>
<path d="M13.4375 58.6997H13.7171V60.0322H15.759V58.6997H16.0386V61.7086H15.759V60.3114H13.7171V61.7086H13.4375V58.6997Z" fill="white"/>
<path d="M16.9375 58.6997H19.2375V58.8931L19.1513 58.9793H17.2171V60.0322H18.7859V60.3114H17.2171V61.4294H19.2375V61.7086H16.9375V58.6997Z" fill="white"/>
<path d="M19.4219 61.4294H19.6153C19.6712 61.3992 19.7271 61.3605 19.7789 61.3134C19.8646 61.2318 19.9508 61.0985 19.9807 60.8921L20.2389 58.6997H22.3665V61.4294H22.7752V62.3322H22.4956V61.7091H19.7015V62.3322H19.4219V61.4294ZM22.0873 61.4294V58.9793H20.4966L20.2603 60.8921C20.23 61.0985 20.1657 61.223 20.1098 61.305C20.0753 61.3521 20.0408 61.3866 20.0026 61.408V61.4294H22.0873Z" fill="white"/>
<path d="M23.3516 58.6997H25.1571C25.5696 58.6997 25.8446 58.9751 25.8446 59.3876V59.5596C25.8446 59.8001 25.7504 59.9334 25.6516 60.0154C25.5956 60.0625 25.5309 60.0969 25.4582 60.1184V60.1398C25.5397 60.1613 25.6083 60.1958 25.673 60.2471C25.7802 60.3333 25.8879 60.4838 25.8879 60.7415V61.0212C25.8879 61.4336 25.6129 61.7091 25.2 61.7091H23.3516V58.6997ZM25.1356 60.0108C25.4237 60.0108 25.5654 59.8691 25.5654 59.581V59.4091C25.5654 59.121 25.4237 58.9793 25.1356 58.9793H23.6308V60.0108H25.1356ZM25.1785 61.4294C25.4666 61.4294 25.6083 61.2877 25.6083 60.9997V60.7201C25.6083 60.4321 25.4666 60.2904 25.1785 60.2904H23.6308V61.4294H25.1785Z" fill="white"/>
<path d="M26.6562 58.6997H26.9359V61.2789H26.9573L28.9991 58.6997H29.3002V61.7086H29.0206V59.1294H28.9991L26.9573 61.7086H26.6562V58.6997Z" fill="white"/>
<path d="M29.9062 61.5586L31.0239 60.1614L29.9491 58.8507V58.7002H30.1859L31.2602 60.0327H32.1201V58.7002H32.3997V60.0327H33.2591L34.3339 58.7002H34.5702V58.8507L33.4959 60.1614L34.6131 61.5586V61.7091H34.3768L33.2591 60.3119H32.3997V61.7091H32.1201V60.3119H31.2602L30.1426 61.7091H29.9062V61.5586Z" fill="white"/>
<path d="M35.2188 58.6997H35.4984V61.2789H35.5198L37.5616 58.6997H37.8627V61.7086H37.5831V59.1294H37.5616L35.5198 61.7086H35.2188V58.6997Z" fill="white"/>
<path d="M38.5781 61.5586L38.9864 58.7002H39.266L40.3837 60.914H40.4051L41.5227 58.7002H41.8019L42.2106 61.5586V61.7091H41.931L41.5875 59.2157H41.5656L40.5342 61.279H40.2546L39.2231 59.2157H39.2013L38.8577 61.7091H38.5781V61.5586Z" fill="white"/>
<path d="M42.75 59.3447C42.75 58.9322 43.0254 58.6572 43.4379 58.6572H44.7489C45.1619 58.6572 45.4368 58.9322 45.4368 59.3447V61.0645C45.4368 61.4769 45.1619 61.7524 44.7489 61.7524H43.4379C43.0254 61.7524 42.75 61.4769 42.75 61.0645V59.3447ZM44.7275 61.4727C45.0155 61.4727 45.1572 61.331 45.1572 61.043V59.3666C45.1572 59.0785 45.0155 58.9364 44.7275 58.9364H43.4593C43.1713 58.9364 43.0296 59.0785 43.0296 59.3666V61.043C43.0296 61.331 43.1713 61.4727 43.4593 61.4727H44.7275Z" fill="white"/>
<path d="M46.1719 59.3876C46.1719 58.9751 46.4469 58.6997 46.8598 58.6997H48.6005V58.8931L48.5148 58.9793H46.8812C46.5932 58.9793 46.4515 59.121 46.4515 59.4091V60.9993C46.4515 61.2877 46.5932 61.4294 46.8812 61.4294H48.6005V61.7091H46.8598C46.4469 61.7091 46.1719 61.4336 46.1719 61.0212V59.3876Z" fill="white"/>
<path d="M50.059 58.9793H48.8984V58.6997H51.4991V58.8931L51.4129 58.9793H50.3386V61.7091H50.059V58.9793Z" fill="white"/>
<path d="M52.0391 58.6997H52.3183V59.8178H53.8875C54.3004 59.8178 54.5754 60.0927 54.5754 60.5052V61.0212C54.5754 61.4336 54.3004 61.7091 53.8875 61.7091H52.0391V58.6997ZM53.866 61.4294C54.1541 61.4294 54.2958 61.2877 54.2958 60.9997V60.5267C54.2958 60.2386 54.1541 60.097 53.866 60.097H52.3183V61.4294H53.866Z" fill="white"/>
</g>
<mask id="mask1_1_990" style="mask-type:luminance" maskUnits="userSpaceOnUse" x="61" y="25" width="8" height="12">
<path d="M61.1875 25.6906L67.0977 36.4443C67.4 36.2677 67.7011 36.0797 68.0013 35.8792L61.5979 25.6582C61.4629 25.6687 61.3263 25.6796 61.1875 25.6906Z" fill="white"/>
</mask>
<g mask="url(#mask1_1_990)">
<path d="M68.0013 25.6582H61.1875V36.4443H68.0013V25.6582Z" fill="url(#paint0_linear_1_990)"/>
</g>
<mask id="mask2_1_990" style="mask-type:luminance" maskUnits="userSpaceOnUse" x="57" y="25" width="9" height="13">
<path d="M57.7266 25.9594L64.2179 37.771C64.5404 37.6587 64.8629 37.5351 65.185 37.3993L58.0049 25.9375C57.912 25.9446 57.8195 25.9522 57.7266 25.9594Z" fill="white"/>
</mask>
<g mask="url(#mask2_1_990)">
<path d="M65.185 25.9376H57.7266V37.7711H65.185V25.9376Z" fill="url(#paint1_linear_1_990)"/>
</g>
<mask id="mask3_1_990" style="mask-type:luminance" maskUnits="userSpaceOnUse" x="54" y="26" width="9" height="13">
<path d="M54.2734 26.2286L61.0427 38.5461C61.3715 38.4986 61.702 38.4406 62.0346 38.3729L54.4198 26.2173C54.371 26.2211 54.3218 26.2249 54.2734 26.2286Z" fill="white"/>
</mask>
<g mask="url(#mask3_1_990)">
<path d="M62.0346 26.2173H54.2734V38.5461H62.0346V26.2173Z" fill="url(#paint2_linear_1_990)"/>
</g>
<mask id="mask4_1_990" style="mask-type:luminance" maskUnits="userSpaceOnUse" x="50" y="26" width="9" height="13">
<path d="M50.8125 26.4988L57.5292 38.7208C57.8471 38.7339 58.1688 38.7389 58.4942 38.7364L50.8268 26.4976C50.8222 26.498 50.8175 26.4984 50.8125 26.4988Z" fill="white"/>
</mask>
<g mask="url(#mask4_1_990)">
<path d="M58.4942 26.4976H50.8125V38.7389H58.4942V26.4976Z" fill="url(#paint3_linear_1_990)"/>
</g>
<mask id="mask5_1_990" style="mask-type:luminance" maskUnits="userSpaceOnUse" x="48" y="28" width="7" height="11">
<path d="M53.6426 38.2133C53.9239 38.2747 54.2127 38.3319 54.5071 38.3849L48.2344 28.3721L53.6426 38.2133Z" fill="white"/>
</mask>
<g mask="url(#mask5_1_990)">
<path d="M54.5071 28.3721H48.2344V38.3849H54.5071V28.3721Z" fill="url(#paint4_linear_1_990)"/>
</g>
<mask id="mask6_1_990" style="mask-type:luminance" maskUnits="userSpaceOnUse" x="46" y="31" width="4" height="7">
<path d="M46.125 31.0857L49.2878 36.8408C49.4918 36.9262 49.7104 37.014 49.945 37.104L46.1359 31.0239C46.1322 31.0445 46.1288 31.0651 46.125 31.0857Z" fill="white"/>
</mask>
<g mask="url(#mask6_1_990)">
<path d="M49.945 31.0239H46.125V37.104H49.945V31.0239Z" fill="url(#paint5_linear_1_990)"/>
</g>
<mask id="mask7_1_990" style="mask-type:luminance" maskUnits="userSpaceOnUse" x="47" y="0" width="19" height="31">
<path d="M63.0695 29.9481C63.8554 29.9708 64.6345 30.0183 65.4015 30.0881L47.0312 0.763184L63.0695 29.9481Z" fill="white"/>
</mask>
<g mask="url(#mask7_1_990)">
<path d="M65.4015 0.763184H47.0312V30.0881H65.4015V0.763184Z" fill="url(#paint6_linear_1_990)"/>
</g>
<mask id="mask8_1_990" style="mask-type:luminance" maskUnits="userSpaceOnUse" x="44" y="2" width="18" height="29">
<path d="M59.5088 30.024C60.1895 29.9727 60.8682 29.9441 61.5426 29.9361L44.5625 2.82959L59.5088 30.024Z" fill="white"/>
</mask>
<g mask="url(#mask8_1_990)">
<path d="M61.5426 2.82959H44.5625V30.024H61.5426V2.82959Z" fill="url(#paint7_linear_1_990)"/>
</g>
<mask id="mask9_1_990" style="mask-type:luminance" maskUnits="userSpaceOnUse" x="42" y="4" width="16" height="27">
<path d="M56.1457 30.4685C56.7419 30.3533 57.3386 30.2608 57.9348 30.1847L42.0938 4.89844L56.1457 30.4685Z" fill="white"/>
</mask>
<g mask="url(#mask9_1_990)">
<path d="M57.9348 4.89844H42.0938V30.4685H57.9348V4.89844Z" fill="url(#paint8_linear_1_990)"/>
</g>
<mask id="mask10_1_990" style="mask-type:luminance" maskUnits="userSpaceOnUse" x="39" y="6" width="16" height="26">
<path d="M52.9777 31.2646C53.5041 31.0981 54.0348 30.9475 54.565 30.8159L39.625 6.96729L52.9777 31.2646Z" fill="white"/>
</mask>
<g mask="url(#mask10_1_990)">
<path d="M54.565 6.96729H39.625V31.2646H54.565V6.96729Z" fill="url(#paint9_linear_1_990)"/>
</g>
<mask id="mask11_1_990" style="mask-type:luminance" maskUnits="userSpaceOnUse" x="37" y="9" width="15" height="24">
<path d="M50.001 32.41C50.4719 32.1939 50.9471 31.9946 51.4222 31.8117L37.1562 9.03613L50.001 32.41Z" fill="white"/>
</mask>
<g mask="url(#mask11_1_990)">
<path d="M51.4222 9.03613H37.1562V32.41H51.4222V9.03613Z" fill="url(#paint10_linear_1_990)"/>
</g>
<mask id="mask12_1_990" style="mask-type:luminance" maskUnits="userSpaceOnUse" x="34" y="11" width="15" height="23">
<path d="M47.2118 33.8928C47.3594 33.8066 47.5074 33.7221 47.658 33.6338C47.9376 33.4694 48.2214 33.3109 48.5027 33.1587L34.6875 11.1055L47.2118 33.8928Z" fill="white"/>
</mask>
<g mask="url(#mask12_1_990)">
<path d="M48.5027 11.1053H34.6875V33.8926H48.5027V11.1053Z" fill="url(#paint11_linear_1_990)"/>
</g>
<mask id="mask13_1_990" style="mask-type:luminance" maskUnits="userSpaceOnUse" x="32" y="13" width="14" height="23">
<path d="M44.4075 35.3523C44.8377 35.1513 45.2733 34.9373 45.7114 34.7111L32.2188 13.1738L44.4075 35.3523Z" fill="white"/>
</mask>
<g mask="url(#mask13_1_990)">
<path d="M45.7114 13.1738H32.2188V35.3523H45.7114V13.1738Z" fill="url(#paint12_linear_1_990)"/>
</g>
<mask id="mask14_1_990" style="mask-type:luminance" maskUnits="userSpaceOnUse" x="29" y="15" width="14" height="22">
<path d="M41.47 36.5701C41.906 36.4115 42.3462 36.2429 42.7924 36.0621L29.75 15.2422L41.47 36.5701Z" fill="white"/>
</mask>
<g mask="url(#mask14_1_990)">
<path d="M42.7924 15.2422H29.75V36.5701H42.7924V15.2422Z" fill="url(#paint13_linear_1_990)"/>
</g>
<mask id="mask15_1_990" style="mask-type:luminance" maskUnits="userSpaceOnUse" x="27" y="17" width="13" height="21">
<path d="M38.3781 37.5037C38.8141 37.3969 39.2585 37.2779 39.7068 37.1459L27.2812 17.3115L38.3781 37.5037Z" fill="white"/>
</mask>
<g mask="url(#mask15_1_990)">
<path d="M39.7068 17.3115H27.2812V37.5037H39.7068V17.3115Z" fill="url(#paint14_linear_1_990)"/>
</g>
<mask id="mask16_1_990" style="mask-type:luminance" maskUnits="userSpaceOnUse" x="25" y="19" width="12" height="20">
<path d="M25.0469 19.8022L35.1051 38.1043C35.5369 38.0509 35.9768 37.9874 36.425 37.9108L25.0654 19.7773C25.0591 19.7853 25.0528 19.7937 25.0469 19.8022Z" fill="white"/>
</mask>
<g mask="url(#mask16_1_990)">
<path d="M36.425 19.7772H25.0469V38.1041H36.425V19.7772Z" fill="url(#paint15_linear_1_990)"/>
</g>
<mask id="mask17_1_990" style="mask-type:luminance" maskUnits="userSpaceOnUse" x="23" y="22" width="10" height="17">
<path d="M23.0859 22.7857L31.6056 38.2917C32.0253 38.2976 32.455 38.2934 32.8931 38.2791L23.1372 22.7037C23.1187 22.7323 23.1023 22.7588 23.0859 22.7857Z" fill="white"/>
</mask>
<g mask="url(#mask17_1_990)">
<path d="M32.8931 22.7037H23.0859V38.2976H32.8931V22.7037Z" fill="url(#paint16_linear_1_990)"/>
</g>
<mask id="mask18_1_990" style="mask-type:luminance" maskUnits="userSpaceOnUse" x="21" y="25" width="9" height="14">
<path d="M21.2578 26.0143L27.8118 37.9437C28.2066 38.0118 28.6136 38.0711 29.0337 38.1207L21.344 25.8457C21.3137 25.9029 21.2843 25.9588 21.2578 26.0143Z" fill="white"/>
</mask>
<g mask="url(#mask18_1_990)">
<path d="M29.0337 25.8457H21.2578V38.1207H29.0337V25.8457Z" fill="url(#paint17_linear_1_990)"/>
</g>
<mask id="mask19_1_990" style="mask-type:luminance" maskUnits="userSpaceOnUse" x="19" y="29" width="6" height="9">
<path d="M19.7109 29.7673L23.5793 36.8065C23.9224 36.9339 24.2908 37.0639 24.6814 37.1875L19.8177 29.4221C19.7812 29.5394 19.7458 29.6542 19.7109 29.7673Z" fill="white"/>
</mask>
<g mask="url(#mask19_1_990)">
<path d="M24.6814 29.4221H19.7109V37.1875H24.6814V29.4221Z" fill="url(#paint18_linear_1_990)"/>
</g>
<mask id="mask20_1_990" style="mask-type:luminance" maskUnits="userSpaceOnUse" x="20" y="0" width="20" height="30">
<path d="M36.8769 29.2021C37.7057 29.2122 38.4873 29.2656 39.2152 29.3476L20.8281 0L36.8769 29.2021Z" fill="white"/>
</mask>
<g mask="url(#mask20_1_990)">
<path d="M39.2152 0H20.8281V29.3476H39.2152V0Z" fill="url(#paint19_linear_1_990)"/>
</g>
<mask id="mask21_1_990" style="mask-type:luminance" maskUnits="userSpaceOnUse" x="18" y="3" width="18" height="27">
<path d="M33.4145 29.393C34.0747 29.311 34.7163 29.2572 35.3374 29.2265L18.9375 3.05176L33.4145 29.393Z" fill="white"/>
</mask>
<g mask="url(#mask21_1_990)">
<path d="M35.3374 3.05176H18.9375V29.393H35.3374V3.05176Z" fill="url(#paint20_linear_1_990)"/>
</g>
<mask id="mask22_1_990" style="mask-type:luminance" maskUnits="userSpaceOnUse" x="17" y="6" width="15" height="25">
<path d="M30.1813 30.0057C30.7305 29.8661 31.2691 29.7471 31.7955 29.6483L17.0469 6.10156L30.1813 30.0057Z" fill="white"/>
</mask>
<g mask="url(#mask22_1_990)">
<path d="M31.7955 6.10156H17.0469V30.0057H31.7955V6.10156Z" fill="url(#paint21_linear_1_990)"/>
</g>
<mask id="mask23_1_990" style="mask-type:luminance" maskUnits="userSpaceOnUse" x="15" y="9" width="14" height="22">
<path d="M27.1457 30.9723C27.6104 30.7957 28.067 30.6351 28.5211 30.4871L15.1562 9.15332L27.1457 30.9723Z" fill="white"/>
</mask>
<g mask="url(#mask23_1_990)">
<path d="M28.5211 9.15332H15.1562V30.9723H28.5211V9.15332Z" fill="url(#paint22_linear_1_990)"/>
</g>
<mask id="mask24_1_990" style="mask-type:luminance" maskUnits="userSpaceOnUse" x="13" y="12" width="13" height="21">
<path d="M24.268 32.2434C24.667 32.0416 25.0619 31.8524 25.4546 31.6758L13.2578 12.2051L24.268 32.2434Z" fill="white"/>
</mask>
<g mask="url(#mask24_1_990)">
<path d="M25.4546 12.2051H13.2578V32.2434H25.4546V12.2051Z" fill="url(#paint23_linear_1_990)"/>
</g>
<mask id="mask25_1_990" style="mask-type:luminance" maskUnits="userSpaceOnUse" x="11" y="15" width="12" height="19">
<path d="M21.5286 33.7655C21.8066 33.6074 22.0862 33.4489 22.3679 33.2823C22.4377 33.2407 22.5058 33.202 22.5752 33.1608L11.3594 15.2573L21.5286 33.7655Z" fill="white"/>
</mask>
<g mask="url(#mask25_1_990)">
<path d="M22.5752 15.2573H11.3594V33.7655H22.5752V15.2573Z" fill="url(#paint24_linear_1_990)"/>
</g>
<mask id="mask26_1_990" style="mask-type:luminance" maskUnits="userSpaceOnUse" x="9" y="18" width="11" height="18">
<path d="M18.7558 35.2084C19.0825 35.0524 19.416 34.8901 19.749 34.7194L9.46875 18.3086L18.7558 35.2084Z" fill="white"/>
</mask>
<g mask="url(#mask26_1_990)">
<path d="M19.749 18.3086H9.46875V35.2084H19.749V18.3086Z" fill="url(#paint25_linear_1_990)"/>
</g>
<mask id="mask27_1_990" style="mask-type:luminance" maskUnits="userSpaceOnUse" x="7" y="21" width="10" height="16">
<path d="M15.8695 36.4488C16.176 36.3314 16.4868 36.2099 16.7988 36.0804L7.57812 21.3604L15.8695 36.4488Z" fill="white"/>
</mask>
<g mask="url(#mask27_1_990)">
<path d="M16.7988 21.3604H7.57812V36.4488H16.7988V21.3604Z" fill="url(#paint26_linear_1_990)"/>
</g>
<mask id="mask28_1_990" style="mask-type:luminance" maskUnits="userSpaceOnUse" x="5" y="24" width="9" height="14">
<path d="M12.8516 37.4505C13.1312 37.3727 13.4133 37.2903 13.6989 37.202L5.6875 24.4106L12.8516 37.4505Z" fill="white"/>
</mask>
<g mask="url(#mask28_1_990)">
<path d="M13.6989 24.4106H5.6875V37.4505H13.6989V24.4106Z" fill="url(#paint27_linear_1_990)"/>
</g>
<mask id="mask29_1_990" style="mask-type:luminance" maskUnits="userSpaceOnUse" x="3" y="27" width="8" height="12">
<path d="M9.66818 38.1619C9.91079 38.1211 10.1576 38.0778 10.4086 38.0282L3.78906 27.4624L9.66818 38.1619Z" fill="white"/>
</mask>
<g mask="url(#mask29_1_990)">
<path d="M10.4086 27.4624H3.78906V38.1619H10.4086V27.4624Z" fill="url(#paint28_linear_1_990)"/>
</g>
<mask id="mask30_1_990" style="mask-type:luminance" maskUnits="userSpaceOnUse" x="1" y="30" width="6" height="9">
<path d="M6.27873 38.4969C6.47215 38.4931 6.67145 38.4851 6.87496 38.4725L1.89062 30.5142L6.27873 38.4969Z" fill="white"/>
</mask>
<g mask="url(#mask30_1_990)">
<path d="M6.87496 30.5142H1.89062V38.4969H6.87496V30.5142Z" fill="url(#paint29_linear_1_990)"/>
</g>
<mask id="mask31_1_990" style="mask-type:luminance" maskUnits="userSpaceOnUse" x="0" y="33" width="3" height="6">
<path d="M2.58299 38.2648C2.70829 38.2875 2.84201 38.3076 2.98371 38.3287L0 33.5659L2.58299 38.2648Z" fill="white"/>
</mask>
<g mask="url(#mask31_1_990)">
<path d="M2.98371 33.5659H0V38.3286H2.98371V33.5659Z" fill="url(#paint30_linear_1_990)"/>
</g>
</g>
<defs>
<linearGradient id="paint0_linear_1_990" x1="61.1875" y1="31.0512" x2="68.0013" y2="31.0512" gradientUnits="userSpaceOnUse">
<stop stop-color="#C56C68"/>
<stop offset="0.00156006" stop-color="#C56C68"/>
<stop offset="0.0575004" stop-color="#BF6763"/>
<stop offset="0.129946" stop-color="#AF5A56"/>
<stop offset="0.21114" stop-color="#944440"/>
<stop offset="0.245752" stop-color="#873936"/>
<stop offset="0.376344" stop-color="#C56C68"/>
<stop offset="0.708117" stop-color="#FBE5EC"/>
<stop offset="0.99844" stop-color="#E9B3BA"/>
<stop offset="1" stop-color="#E9B3BA"/>
</linearGradient>
<linearGradient id="paint1_linear_1_990" x1="57.7266" y1="31.8543" x2="65.185" y2="31.8543" gradientUnits="userSpaceOnUse">
<stop stop-color="#C56C68"/>
<stop offset="0.00156006" stop-color="#C56C68"/>
<stop offset="0.0575004" stop-color="#BF6763"/>
<stop offset="0.129946" stop-color="#AF5A56"/>
<stop offset="0.21114" stop-color="#944440"/>
<stop offset="0.245752" stop-color="#873936"/>
<stop offset="0.376344" stop-color="#C56C68"/>
<stop offset="0.708117" stop-color="#FBE5EC"/>
<stop offset="0.99844" stop-color="#E9B3BA"/>
<stop offset="1" stop-color="#E9B3BA"/>
</linearGradient>
<linearGradient id="paint2_linear_1_990" x1="54.2734" y1="32.3817" x2="62.0346" y2="32.3817" gradientUnits="userSpaceOnUse">
<stop stop-color="#C56C68"/>
<stop offset="0.00156006" stop-color="#C56C68"/>
<stop offset="0.0575004" stop-color="#BF6763"/>
<stop offset="0.129946" stop-color="#AF5A56"/>
<stop offset="0.21114" stop-color="#944440"/>
<stop offset="0.245752" stop-color="#873936"/>
<stop offset="0.376344" stop-color="#C56C68"/>
<stop offset="0.708117" stop-color="#FBE5EC"/>
<stop offset="0.99844" stop-color="#E9B3BA"/>
<stop offset="1" stop-color="#E9B3BA"/>
</linearGradient>
<linearGradient id="paint3_linear_1_990" x1="50.8125" y1="32.6182" x2="58.4942" y2="32.6182" gradientUnits="userSpaceOnUse">
<stop stop-color="#C56C68"/>
<stop offset="0.00156006" stop-color="#C56C68"/>
<stop offset="0.0575004" stop-color="#BF6763"/>
<stop offset="0.129946" stop-color="#AF5A56"/>
<stop offset="0.21114" stop-color="#944440"/>
<stop offset="0.245752" stop-color="#873936"/>
<stop offset="0.376344" stop-color="#C56C68"/>
<stop offset="0.708117" stop-color="#FBE5EC"/>
<stop offset="0.99844" stop-color="#E9B3BA"/>
<stop offset="1" stop-color="#E9B3BA"/>
</linearGradient>
<linearGradient id="paint4_linear_1_990" x1="48.2344" y1="33.3785" x2="54.5071" y2="33.3785" gradientUnits="userSpaceOnUse">
<stop stop-color="#C56C68"/>
<stop offset="0.00156006" stop-color="#C56C68"/>
<stop offset="0.0575004" stop-color="#BF6763"/>
<stop offset="0.129946" stop-color="#AF5A56"/>
<stop offset="0.21114" stop-color="#944440"/>
<stop offset="0.245752" stop-color="#873936"/>
<stop offset="0.376344" stop-color="#C56C68"/>
<stop offset="0.708117" stop-color="#FBE5EC"/>
<stop offset="0.99844" stop-color="#E9B3BA"/>
<stop offset="1" stop-color="#E9B3BA"/>
</linearGradient>
<linearGradient id="paint5_linear_1_990" x1="46.125" y1="34.064" x2="49.945" y2="34.064" gradientUnits="userSpaceOnUse">
<stop stop-color="#C56C68"/>
<stop offset="0.00156006" stop-color="#C56C68"/>
<stop offset="0.0575004" stop-color="#BF6763"/>
<stop offset="0.129946" stop-color="#AF5A56"/>
<stop offset="0.21114" stop-color="#944440"/>
<stop offset="0.245752" stop-color="#873936"/>
<stop offset="0.376344" stop-color="#C56C68"/>
<stop offset="0.708117" stop-color="#FBE5EC"/>
<stop offset="0.99844" stop-color="#E9B3BA"/>
<stop offset="1" stop-color="#E9B3BA"/>
</linearGradient>
<linearGradient id="paint6_linear_1_990" x1="47.0312" y1="15.4256" x2="65.4015" y2="15.4256" gradientUnits="userSpaceOnUse">
<stop stop-color="#C56C68"/>
<stop offset="0.00156006" stop-color="#C56C68"/>
<stop offset="0.0575004" stop-color="#BF6763"/>
<stop offset="0.129946" stop-color="#AF5A56"/>
<stop offset="0.21114" stop-color="#944440"/>
<stop offset="0.245752" stop-color="#873936"/>
<stop offset="0.376344" stop-color="#C56C68"/>
<stop offset="0.708117" stop-color="#FBE5EC"/>
<stop offset="0.99844" stop-color="#E9B3BA"/>
<stop offset="1" stop-color="#E9B3BA"/>
</linearGradient>
<linearGradient id="paint7_linear_1_990" x1="44.5625" y1="16.4268" x2="61.5426" y2="16.4268" gradientUnits="userSpaceOnUse">
<stop stop-color="#C56C68"/>
<stop offset="0.00156006" stop-color="#C56C68"/>
<stop offset="0.0575004" stop-color="#BF6763"/>
<stop offset="0.129946" stop-color="#AF5A56"/>
<stop offset="0.21114" stop-color="#944440"/>
<stop offset="0.245752" stop-color="#873936"/>
<stop offset="0.376344" stop-color="#C56C68"/>
<stop offset="0.708117" stop-color="#FBE5EC"/>
<stop offset="0.99844" stop-color="#E9B3BA"/>
<stop offset="1" stop-color="#E9B3BA"/>
</linearGradient>
<linearGradient id="paint8_linear_1_990" x1="42.0937" y1="17.6835" x2="57.9348" y2="17.6835" gradientUnits="userSpaceOnUse">
<stop stop-color="#C56C68"/>
<stop offset="0.00156006" stop-color="#C56C68"/>
<stop offset="0.0575004" stop-color="#BF6763"/>
<stop offset="0.129946" stop-color="#AF5A56"/>
<stop offset="0.21114" stop-color="#944440"/>
<stop offset="0.245752" stop-color="#873936"/>
<stop offset="0.376344" stop-color="#C56C68"/>
<stop offset="0.708117" stop-color="#FBE5EC"/>
<stop offset="0.99844" stop-color="#E9B3BA"/>
<stop offset="1" stop-color="#E9B3BA"/>
</linearGradient>
<linearGradient id="paint9_linear_1_990" x1="39.625" y1="19.1159" x2="54.565" y2="19.1159" gradientUnits="userSpaceOnUse">
<stop stop-color="#C56C68"/>
<stop offset="0.00156006" stop-color="#C56C68"/>
<stop offset="0.0575004" stop-color="#BF6763"/>
<stop offset="0.129946" stop-color="#AF5A56"/>
<stop offset="0.21114" stop-color="#944440"/>
<stop offset="0.245752" stop-color="#873936"/>
<stop offset="0.376344" stop-color="#C56C68"/>
<stop offset="0.708117" stop-color="#FBE5EC"/>
<stop offset="0.99844" stop-color="#E9B3BA"/>
<stop offset="1" stop-color="#E9B3BA"/>
</linearGradient>
<linearGradient id="paint10_linear_1_990" x1="37.1562" y1="20.7231" x2="51.4222" y2="20.7231" gradientUnits="userSpaceOnUse">
<stop stop-color="#C56C68"/>
<stop offset="0.00156006" stop-color="#C56C68"/>
<stop offset="0.0575004" stop-color="#BF6763"/>
<stop offset="0.129946" stop-color="#AF5A56"/>
<stop offset="0.21114" stop-color="#944440"/>
<stop offset="0.245752" stop-color="#873936"/>
<stop offset="0.376344" stop-color="#C56C68"/>
<stop offset="0.708117" stop-color="#FBE5EC"/>
<stop offset="0.99844" stop-color="#E9B3BA"/>
<stop offset="1" stop-color="#E9B3BA"/>
</linearGradient>
<linearGradient id="paint11_linear_1_990" x1="34.6875" y1="22.499" x2="48.5027" y2="22.499" gradientUnits="userSpaceOnUse">
<stop stop-color="#C56C68"/>
<stop offset="0.00156006" stop-color="#C56C68"/>
<stop offset="0.0575004" stop-color="#BF6763"/>
<stop offset="0.129946" stop-color="#AF5A56"/>
<stop offset="0.21114" stop-color="#944440"/>
<stop offset="0.245752" stop-color="#873936"/>
<stop offset="0.376344" stop-color="#C56C68"/>
<stop offset="0.708117" stop-color="#FBE5EC"/>
<stop offset="0.99844" stop-color="#E9B3BA"/>
<stop offset="1" stop-color="#E9B3BA"/>
</linearGradient>
<linearGradient id="paint12_linear_1_990" x1="32.2187" y1="24.2631" x2="45.7114" y2="24.2631" gradientUnits="userSpaceOnUse">
<stop stop-color="#C56C68"/>
<stop offset="0.00156006" stop-color="#C56C68"/>
<stop offset="0.0575004" stop-color="#BF6763"/>
<stop offset="0.129946" stop-color="#AF5A56"/>
<stop offset="0.21114" stop-color="#944440"/>
<stop offset="0.245752" stop-color="#873936"/>
<stop offset="0.376344" stop-color="#C56C68"/>
<stop offset="0.708117" stop-color="#FBE5EC"/>
<stop offset="0.99844" stop-color="#E9B3BA"/>
<stop offset="1" stop-color="#E9B3BA"/>
</linearGradient>
<linearGradient id="paint13_linear_1_990" x1="29.75" y1="25.9061" x2="42.7924" y2="25.9061" gradientUnits="userSpaceOnUse">
<stop stop-color="#C56C68"/>
<stop offset="0.00156006" stop-color="#C56C68"/>
<stop offset="0.0575004" stop-color="#BF6763"/>
<stop offset="0.129946" stop-color="#AF5A56"/>
<stop offset="0.21114" stop-color="#944440"/>
<stop offset="0.245752" stop-color="#873936"/>
<stop offset="0.376344" stop-color="#C56C68"/>
<stop offset="0.708117" stop-color="#FBE5EC"/>
<stop offset="0.99844" stop-color="#E9B3BA"/>
<stop offset="1" stop-color="#E9B3BA"/>
</linearGradient>
<linearGradient id="paint14_linear_1_990" x1="27.2813" y1="27.4076" x2="39.7068" y2="27.4076" gradientUnits="userSpaceOnUse">
<stop stop-color="#C56C68"/>
<stop offset="0.00156006" stop-color="#C56C68"/>
<stop offset="0.0575004" stop-color="#BF6763"/>
<stop offset="0.129946" stop-color="#AF5A56"/>
<stop offset="0.21114" stop-color="#944440"/>
<stop offset="0.245752" stop-color="#873936"/>
<stop offset="0.376344" stop-color="#C56C68"/>
<stop offset="0.708117" stop-color="#FBE5EC"/>
<stop offset="0.99844" stop-color="#E9B3BA"/>
<stop offset="1" stop-color="#E9B3BA"/>
</linearGradient>
<linearGradient id="paint15_linear_1_990" x1="25.0469" y1="28.9406" x2="36.425" y2="28.9406" gradientUnits="userSpaceOnUse">
<stop stop-color="#C56C68"/>
<stop offset="0.00156006" stop-color="#C56C68"/>
<stop offset="0.0575004" stop-color="#BF6763"/>
<stop offset="0.129946" stop-color="#AF5A56"/>
<stop offset="0.21114" stop-color="#944440"/>
<stop offset="0.245752" stop-color="#873936"/>
<stop offset="0.376344" stop-color="#C56C68"/>
<stop offset="0.708117" stop-color="#FBE5EC"/>
<stop offset="0.99844" stop-color="#E9B3BA"/>
<stop offset="1" stop-color="#E9B3BA"/>
</linearGradient>
<linearGradient id="paint16_linear_1_990" x1="23.0859" y1="30.5006" x2="32.8931" y2="30.5006" gradientUnits="userSpaceOnUse">
<stop stop-color="#C56C68"/>
<stop offset="0.00156006" stop-color="#C56C68"/>
<stop offset="0.0575004" stop-color="#BF6763"/>
<stop offset="0.129946" stop-color="#AF5A56"/>
<stop offset="0.21114" stop-color="#944440"/>
<stop offset="0.245752" stop-color="#873936"/>
<stop offset="0.376344" stop-color="#C56C68"/>
<stop offset="0.708117" stop-color="#FBE5EC"/>
<stop offset="0.99844" stop-color="#E9B3BA"/>
<stop offset="1" stop-color="#E9B3BA"/>
</linearGradient>
<linearGradient id="paint17_linear_1_990" x1="21.2578" y1="31.9832" x2="29.0337" y2="31.9832" gradientUnits="userSpaceOnUse">
<stop stop-color="#C56C68"/>
<stop offset="0.00156006" stop-color="#C56C68"/>
<stop offset="0.0575004" stop-color="#BF6763"/>
<stop offset="0.129946" stop-color="#AF5A56"/>
<stop offset="0.21114" stop-color="#944440"/>
<stop offset="0.245752" stop-color="#873936"/>
<stop offset="0.376344" stop-color="#C56C68"/>
<stop offset="0.708117" stop-color="#FBE5EC"/>
<stop offset="0.99844" stop-color="#E9B3BA"/>
<stop offset="1" stop-color="#E9B3BA"/>
</linearGradient>
<linearGradient id="paint18_linear_1_990" x1="19.7109" y1="33.3048" x2="24.6814" y2="33.3048" gradientUnits="userSpaceOnUse">
<stop stop-color="#C56C68"/>
<stop offset="0.00156006" stop-color="#C56C68"/>
<stop offset="0.0575004" stop-color="#BF6763"/>
<stop offset="0.129946" stop-color="#AF5A56"/>
<stop offset="0.21114" stop-color="#944440"/>
<stop offset="0.245752" stop-color="#873936"/>
<stop offset="0.376344" stop-color="#C56C68"/>
<stop offset="0.708117" stop-color="#FBE5EC"/>
<stop offset="0.99844" stop-color="#E9B3BA"/>
<stop offset="1" stop-color="#E9B3BA"/>
</linearGradient>
<linearGradient id="paint19_linear_1_990" x1="20.8281" y1="14.6738" x2="39.2152" y2="14.6738" gradientUnits="userSpaceOnUse">
<stop stop-color="#C56C68"/>
<stop offset="0.00156006" stop-color="#C56C68"/>
<stop offset="0.0575004" stop-color="#BF6763"/>
<stop offset="0.129946" stop-color="#AF5A56"/>
<stop offset="0.21114" stop-color="#944440"/>
<stop offset="0.245752" stop-color="#873936"/>
<stop offset="0.376344" stop-color="#C56C68"/>
<stop offset="0.708117" stop-color="#FBE5EC"/>
<stop offset="0.99844" stop-color="#E9B3BA"/>
<stop offset="1" stop-color="#E9B3BA"/>
</linearGradient>
<linearGradient id="paint20_linear_1_990" x1="18.9375" y1="16.2224" x2="35.3374" y2="16.2224" gradientUnits="userSpaceOnUse">
<stop stop-color="#C56C68"/>
<stop offset="0.00156006" stop-color="#C56C68"/>
<stop offset="0.0575004" stop-color="#BF6763"/>
<stop offset="0.129946" stop-color="#AF5A56"/>
<stop offset="0.21114" stop-color="#944440"/>
<stop offset="0.245752" stop-color="#873936"/>
<stop offset="0.376344" stop-color="#C56C68"/>
<stop offset="0.708117" stop-color="#FBE5EC"/>
<stop offset="0.99844" stop-color="#E9B3BA"/>
<stop offset="1" stop-color="#E9B3BA"/>
</linearGradient>
<linearGradient id="paint21_linear_1_990" x1="17.0469" y1="18.0536" x2="31.7955" y2="18.0536" gradientUnits="userSpaceOnUse">
<stop stop-color="#C56C68"/>
<stop offset="0.00156006" stop-color="#C56C68"/>
<stop offset="0.0575004" stop-color="#BF6763"/>
<stop offset="0.129946" stop-color="#AF5A56"/>
<stop offset="0.21114" stop-color="#944440"/>
<stop offset="0.245752" stop-color="#873936"/>
<stop offset="0.376344" stop-color="#C56C68"/>
<stop offset="0.708117" stop-color="#FBE5EC"/>
<stop offset="0.99844" stop-color="#E9B3BA"/>
<stop offset="1" stop-color="#E9B3BA"/>
</linearGradient>
<linearGradient id="paint22_linear_1_990" x1="15.1562" y1="20.0628" x2="28.5211" y2="20.0628" gradientUnits="userSpaceOnUse">
<stop stop-color="#C56C68"/>
<stop offset="0.00156006" stop-color="#C56C68"/>
<stop offset="0.0575004" stop-color="#BF6763"/>
<stop offset="0.129946" stop-color="#AF5A56"/>
<stop offset="0.21114" stop-color="#944440"/>
<stop offset="0.245752" stop-color="#873936"/>
<stop offset="0.376344" stop-color="#C56C68"/>
<stop offset="0.708117" stop-color="#FBE5EC"/>
<stop offset="0.99844" stop-color="#E9B3BA"/>
<stop offset="1" stop-color="#E9B3BA"/>
</linearGradient>
<linearGradient id="paint23_linear_1_990" x1="13.2578" y1="22.2243" x2="25.4546" y2="22.2243" gradientUnits="userSpaceOnUse">
<stop stop-color="#C56C68"/>
<stop offset="0.00156006" stop-color="#C56C68"/>
<stop offset="0.0575004" stop-color="#BF6763"/>
<stop offset="0.129946" stop-color="#AF5A56"/>
<stop offset="0.21114" stop-color="#944440"/>
<stop offset="0.245752" stop-color="#873936"/>
<stop offset="0.376344" stop-color="#C56C68"/>
<stop offset="0.708117" stop-color="#FBE5EC"/>
<stop offset="0.99844" stop-color="#E9B3BA"/>
<stop offset="1" stop-color="#E9B3BA"/>
</linearGradient>
<linearGradient id="paint24_linear_1_990" x1="11.3594" y1="24.5114" x2="22.5752" y2="24.5114" gradientUnits="userSpaceOnUse">
<stop stop-color="#C56C68"/>
<stop offset="0.00156006" stop-color="#C56C68"/>
<stop offset="0.0575004" stop-color="#BF6763"/>
<stop offset="0.129946" stop-color="#AF5A56"/>
<stop offset="0.21114" stop-color="#944440"/>
<stop offset="0.245752" stop-color="#873936"/>
<stop offset="0.376344" stop-color="#C56C68"/>
<stop offset="0.708117" stop-color="#FBE5EC"/>
<stop offset="0.99844" stop-color="#E9B3BA"/>
<stop offset="1" stop-color="#E9B3BA"/>
</linearGradient>
<linearGradient id="paint25_linear_1_990" x1="9.46875" y1="26.7585" x2="19.749" y2="26.7585" gradientUnits="userSpaceOnUse">
<stop stop-color="#C56C68"/>
<stop offset="0.00156006" stop-color="#C56C68"/>
<stop offset="0.0575004" stop-color="#BF6763"/>
<stop offset="0.129946" stop-color="#AF5A56"/>
<stop offset="0.21114" stop-color="#944440"/>
<stop offset="0.245752" stop-color="#873936"/>
<stop offset="0.376344" stop-color="#C56C68"/>
<stop offset="0.708117" stop-color="#FBE5EC"/>
<stop offset="0.99844" stop-color="#E9B3BA"/>
<stop offset="1" stop-color="#E9B3BA"/>
</linearGradient>
<linearGradient id="paint26_linear_1_990" x1="7.57813" y1="28.9046" x2="16.7988" y2="28.9046" gradientUnits="userSpaceOnUse">
<stop stop-color="#C56C68"/>
<stop offset="0.00156006" stop-color="#C56C68"/>
<stop offset="0.0575004" stop-color="#BF6763"/>
<stop offset="0.129946" stop-color="#AF5A56"/>
<stop offset="0.21114" stop-color="#944440"/>
<stop offset="0.245752" stop-color="#873936"/>
<stop offset="0.376344" stop-color="#C56C68"/>
<stop offset="0.708117" stop-color="#FBE5EC"/>
<stop offset="0.99844" stop-color="#E9B3BA"/>
<stop offset="1" stop-color="#E9B3BA"/>
</linearGradient>
<linearGradient id="paint27_linear_1_990" x1="5.6875" y1="30.9306" x2="13.6989" y2="30.9306" gradientUnits="userSpaceOnUse">
<stop stop-color="#C56C68"/>
<stop offset="0.00156006" stop-color="#C56C68"/>
<stop offset="0.0575004" stop-color="#BF6763"/>
<stop offset="0.129946" stop-color="#AF5A56"/>
<stop offset="0.21114" stop-color="#944440"/>
<stop offset="0.245752" stop-color="#873936"/>
<stop offset="0.376344" stop-color="#C56C68"/>
<stop offset="0.708117" stop-color="#FBE5EC"/>
<stop offset="0.99844" stop-color="#E9B3BA"/>
<stop offset="1" stop-color="#E9B3BA"/>
</linearGradient>
<linearGradient id="paint28_linear_1_990" x1="3.78906" y1="32.8121" x2="10.4086" y2="32.8121" gradientUnits="userSpaceOnUse">
<stop stop-color="#C56C68"/>
<stop offset="0.00156006" stop-color="#C56C68"/>
<stop offset="0.0575004" stop-color="#BF6763"/>
<stop offset="0.129946" stop-color="#AF5A56"/>
<stop offset="0.21114" stop-color="#944440"/>
<stop offset="0.245752" stop-color="#873936"/>
<stop offset="0.376344" stop-color="#C56C68"/>
<stop offset="0.708117" stop-color="#FBE5EC"/>
<stop offset="0.99844" stop-color="#E9B3BA"/>
<stop offset="1" stop-color="#E9B3BA"/>
</linearGradient>
<linearGradient id="paint29_linear_1_990" x1="1.89062" y1="34.5055" x2="6.87496" y2="34.5055" gradientUnits="userSpaceOnUse">
<stop stop-color="#C56C68"/>
<stop offset="0.00156006" stop-color="#C56C68"/>
<stop offset="0.0575004" stop-color="#BF6763"/>
<stop offset="0.129946" stop-color="#AF5A56"/>
<stop offset="0.21114" stop-color="#944440"/>
<stop offset="0.245752" stop-color="#873936"/>
<stop offset="0.376344" stop-color="#C56C68"/>
<stop offset="0.708117" stop-color="#FBE5EC"/>
<stop offset="0.99844" stop-color="#E9B3BA"/>
<stop offset="1" stop-color="#E9B3BA"/>
</linearGradient>
<linearGradient id="paint30_linear_1_990" x1="0" y1="35.9472" x2="2.98371" y2="35.9472" gradientUnits="userSpaceOnUse">
<stop stop-color="#C56C68"/>
<stop offset="0.00156006" stop-color="#C56C68"/>
<stop offset="0.0575004" stop-color="#BF6763"/>
<stop offset="0.129946" stop-color="#AF5A56"/>
<stop offset="0.21114" stop-color="#944440"/>
<stop offset="0.245752" stop-color="#873936"/>
<stop offset="0.376344" stop-color="#C56C68"/>
<stop offset="0.708117" stop-color="#FBE5EC"/>
<stop offset="0.99844" stop-color="#E9B3BA"/>
<stop offset="1" stop-color="#E9B3BA"/>
</linearGradient>
<clipPath id="clip0_1_990">
<rect width="68" height="62" fill="white"/>
</clipPath>
</defs>
</svg>
