<svg width="1920" height="974" viewBox="0 0 1920 974" fill="none" xmlns="http://www.w3.org/2000/svg">
<g filter="url(#filter0_d_58_9518)">
<path fill-rule="evenodd" clip-rule="evenodd" d="M1919 40C1840.25 94.7874 1579.4 124.862 1366.02 126.86C1237.08 128.068 1099.69 110.494 955.222 92.0154C800.845 72.2695 638.391 51.4904 469.541 51.4904C189.5 51.4904 -1 116.86 -1 116.86V636L-0.999939 934C77.7514 879.213 338.598 849.139 551.976 847.14C680.916 845.933 818.31 863.506 962.778 881.985C1117.15 901.731 1279.61 922.51 1448.46 922.51C1728.5 922.51 1919 857.14 1919 857.14V636V338V40Z" fill="#FF5841"/>
</g>
<defs>
<filter id="filter0_d_58_9518" x="-41" y="0" width="2000" height="974" filterUnits="userSpaceOnUse" color-interpolation-filters="sRGB">
<feFlood flood-opacity="0" result="BackgroundImageFix"/>
<feColorMatrix in="SourceAlpha" type="matrix" values="0 0 0 0 0 0 0 0 0 0 0 0 0 0 0 0 0 0 127 0" result="hardAlpha"/>
<feOffset/>
<feGaussianBlur stdDeviation="20"/>
<feComposite in2="hardAlpha" operator="out"/>
<feColorMatrix type="matrix" values="0 0 0 0 0.254167 0 0 0 0 0 0 0 0 0 0 0 0 0 0.15 0"/>
<feBlend mode="normal" in2="BackgroundImageFix" result="effect1_dropShadow_58_9518"/>
<feBlend mode="normal" in="SourceGraphic" in2="effect1_dropShadow_58_9518" result="shape"/>
</filter>
</defs>
</svg>
