<svg width="781" height="665" viewBox="0 0 781 665" fill="none" xmlns="http://www.w3.org/2000/svg">
<path d="M205.113 614.849C207.947 614.142 210.224 612.711 210.652 609.481C210.947 606.76 209.871 604.3 207.706 602.922C210.237 599.323 207.633 595.103 203.728 593.81C206.885 588.45 201.294 583.146 195.625 584.331C195.948 579.677 189.775 575.813 185.625 577.838C185.285 575.729 183.713 574.062 181.37 573.286C178.153 572.208 174.774 573.342 172.136 575.287C171.378 572.635 169.438 570.793 166.502 570.306L166.41 570.262C166.41 570.262 166.41 570.262 166.318 570.218C166.318 570.218 166.318 570.218 166.226 570.174C166.134 570.13 166.134 570.13 165.997 570.179C162.519 570.579 161.755 572.16 160.174 574.496C157.317 572.673 153.718 574.732 153.058 577.737C150.664 576.364 147.411 576.299 145.228 578.004C142.819 579.944 142.485 583.447 143.381 586.279C137.008 585.64 133.503 592.894 138.58 597.151C136.808 598.709 136.149 601.714 136.489 603.822C137.12 607.673 140.112 609.216 143.454 609.095C142.656 611.919 144.603 614.452 147.269 615.496C150.419 624.213 146.624 634.878 142.851 642.921C142.716 643.2 142.763 643.337 142.765 643.567L142.812 643.704C142.906 643.978 143.045 644.159 143.321 644.29C148.474 646.752 153.625 648.983 158.778 651.444C159.054 651.576 159.283 651.57 159.419 651.521C159.419 651.521 159.512 651.565 159.556 651.472C159.83 651.374 160.012 651.232 160.147 650.953C164.145 642.445 169.468 633.54 178.734 630.067C179.703 630.873 180.944 631.352 182.32 631.551C184.246 631.784 187.039 631.629 188.721 630.258C190.019 632.023 192.089 632.897 194.511 632.337C197.665 631.668 198.699 629.529 198.995 626.808C205.774 626.841 209.19 619.772 205.113 614.849ZM158.942 649.462C154.434 647.308 149.88 645.248 145.372 643.095C149.053 635.008 152.304 624.999 149.841 616.267C150.941 616.334 152.131 616.216 153.18 615.686C153.293 618.03 154.275 620.216 156.394 621.457C156.486 621.501 156.578 621.545 156.578 621.545C156.533 621.638 156.625 621.682 156.58 621.775C157.102 623.741 157.395 625.713 157.322 627.739C157.285 628.752 158.937 629.083 159.295 628.109C160.055 626.068 160.906 624.07 161.85 622.117C163.13 621.813 164.408 621.278 165.501 620.656C165.554 621.483 165.653 622.216 165.751 622.95C165.661 623.136 165.616 623.229 165.571 623.322C164.72 625.319 163.821 627.18 162.877 629.133C162.428 630.063 163.536 631.05 164.4 630.433C166.13 629.198 168.09 628.188 170.005 627.272C172.254 627.773 174.172 627.086 175.901 625.852C176.277 626.947 176.836 627.901 177.439 628.762C168.451 632.597 163.032 640.998 158.942 649.462ZM159.426 622.447C159.291 622.726 159.111 623.099 158.976 623.378C158.927 623.011 158.833 622.737 158.784 622.37C159.013 622.365 159.242 622.36 159.426 622.447ZM166.2 626.942C166.425 626.477 166.695 625.919 166.827 625.41C167.014 625.728 167.337 625.997 167.568 626.222C167.112 626.462 166.656 626.702 166.2 626.942ZM198.475 625.072C197.925 625.038 197.24 625.283 197.291 625.88C197.278 629.423 191.997 632.853 190.032 628.48C189.75 627.659 188.558 627.547 188.154 628.384C187.075 630.617 182.718 630.024 181.154 629.277C178.854 628.178 177.782 626.178 177.255 623.751C177.11 622.881 176.057 622.95 175.511 623.376C173.196 625.59 170.271 626.254 168.274 623.354C167.159 621.677 167.243 620.801 167.271 618.868C167.309 618.085 166.252 617.695 165.707 618.121C164.251 619.257 162.518 620.032 160.688 620.303C156.011 619.672 154.25 617.457 155.313 613.615C155.579 612.597 154.154 612.031 153.565 612.78C148.277 615.52 144.22 612.666 145.971 608.809C146.422 608.109 146.091 606.92 145.085 607.127C139.371 608.404 136.269 599.825 140.883 598.48C141.797 598.23 141.739 596.943 141.003 596.591C136.306 593.89 138.53 586.71 144.733 588.871C145.698 589.218 146.606 588.278 146.047 587.324C142.977 582.194 149.463 575.333 153.454 580.902C154.149 581.807 155.746 581.081 155.277 579.941C155.838 576.203 157.34 575.203 159.784 576.943C160.154 577.348 160.886 577.24 161.203 576.819C162.47 575.134 163.959 572.755 166.063 572.386C168.723 572.741 170.203 574.364 170.368 577.304C170.468 578.268 171.523 578.429 172.114 577.909C173.383 576.455 174.933 575.592 176.625 575.37C179.546 574.247 181.806 575.899 183.265 580.144C182.91 581.348 184.654 581.724 185.24 580.744C187.723 576.779 194.825 582.002 193.162 585.444C192.667 586.467 193.774 587.224 194.685 586.744C201.826 586.262 203.955 588.653 201.117 593.823C200.619 594.386 200.903 595.438 201.682 595.466C203.833 595.234 205.17 596.216 206.011 597.992C206.529 599.498 206.681 601.059 205.365 602.376C204.819 602.803 204.645 603.865 205.518 604.167C211.125 606.158 207.153 612.503 202.946 613.241C202.077 613.399 201.582 614.422 202.321 615.003C206.934 618.58 204.8 625.575 198.475 625.072Z" fill="white" fill-opacity="0.5"/>
<path d="M152.971 630.504C152.594 634.088 150.623 637.708 149.104 640.859C148.523 642.064 150.353 642.94 150.934 641.735C152.543 638.398 154.603 634.593 154.933 630.873C155.148 629.493 153.05 629.173 152.971 630.504Z" fill="white" fill-opacity="0.5"/>
<path d="M154.675 626.43C153.478 625.859 152.58 627.719 153.776 628.291C154.972 628.862 155.871 627.002 154.675 626.43Z" fill="white" fill-opacity="0.5"/>
<path d="M157.903 591.756C156.248 591.425 154.47 592.524 153.842 594.059C153.349 595.314 155.192 596.194 155.685 594.939C156.448 593.125 158.837 593.578 158.809 595.514C158.822 596.896 160.883 596.62 160.825 595.331C160.81 593.719 159.557 592.088 157.903 591.756Z" fill="white" fill-opacity="0.5"/>
<path d="M190.102 595.606C188.305 594.633 186.158 595.556 185.627 597.594C185.226 598.893 187.338 599.214 187.602 597.964C187.868 596.945 189.155 597.331 189.528 597.968C190.132 598.829 189.958 599.892 189.737 600.818C189.337 602.117 191.449 602.438 191.712 601.188C192.381 599.101 192.083 596.667 190.102 595.606Z" fill="white" fill-opacity="0.5"/>
<path d="M176.839 607.799C175.181 607.007 172.989 608.023 172.363 609.788C171.87 611.042 173.713 611.923 174.206 610.668C174.429 609.972 175.202 609.31 175.939 609.662C176.721 609.921 176.822 610.886 176.462 611.631C175.877 612.842 177.719 613.722 178.304 612.511C179.252 610.785 178.635 608.542 176.839 607.799Z" fill="white" fill-opacity="0.5"/>
<path d="M21.0463 371.608C17.4844 369.422 12.5088 369.821 10.4412 374.151C9.08276 376.924 10.5543 381.054 13.4291 382.155C11.8451 384.713 12.7594 387.514 15.7596 388.9C18.1088 390.001 21.0564 389.172 23.1169 387.4C24.3656 389.286 25.9442 390.787 27.278 392.688C24.8578 395.017 23.4142 397.775 24.1345 401.691C25.2778 407.707 29.8646 413.067 33.9345 417.368C38.666 422.399 43.5634 427.987 49.0549 432.175C51.906 434.418 59.185 438.906 63.0418 436.377C66.9135 433.762 65.0262 424.973 63.946 421.614C61.7707 414.983 58.259 408.481 55.1281 402.307C52.4438 397.091 48.9724 390.86 43.7275 387.772C40.306 385.786 37.1478 386.314 34.1659 387.843C33.0576 386.157 32.1345 384.413 31.2113 382.67C31.1411 382.57 31.071 382.47 31.0008 382.37C31.816 381.712 32.4206 380.755 32.9147 379.426C33.7282 377.268 33.3755 375.267 31.7223 374.195C33.7766 371.452 31.3898 368.05 27.7744 367.178C24.3994 366.435 21.9642 368.85 21.0463 371.608ZM46.4565 392.732C47.2735 393.575 47.9053 394.475 48.6222 395.39C47.5516 396.004 46.5661 396.633 45.4806 397.333C44.51 397.876 45.4779 399.362 46.4634 398.734C47.534 398.119 48.5344 397.405 49.605 396.79C49.8858 397.19 50.1517 397.676 50.5176 398.091C50.4325 398.077 50.2473 398.134 50.1473 398.205C49.562 398.548 49.0618 398.905 48.4764 399.248C47.491 399.877 48.5589 401.292 49.4593 400.649C50.0446 400.306 50.5448 399.949 51.1301 399.606C51.2301 399.534 51.2451 399.449 51.3302 399.463C52.4788 401.421 53.5274 403.45 54.5611 405.565C55.9712 408.538 57.3814 411.51 58.7915 414.483C58.0763 415.069 57.2058 415.54 56.3502 415.926C55.3094 416.369 55.8921 418.056 56.9478 417.527C57.8034 417.141 58.6888 416.584 59.4891 416.012C59.8805 416.784 60.1867 417.541 60.5781 418.313C62.0839 421.743 65.9351 431.833 61.6229 434.462C59.1666 435.991 55.7812 434.805 52.8704 432.904C53.7409 432.432 54.6264 431.875 55.3565 431.203C55.6715 430.903 55.8462 430.403 55.5654 430.003C55.3548 429.703 54.6887 429.503 54.3737 429.803C53.4435 430.617 52.4431 431.332 51.2172 431.832C49.5086 430.574 47.9151 429.159 46.8726 428.102C43.7153 425.1 40.7581 421.956 37.7008 418.884C38.8565 418.283 40.0272 417.597 41.2277 416.74C42.128 416.097 41.1452 414.696 40.2449 415.339C39.0444 416.197 37.8588 416.969 36.5329 417.54C35.9265 416.997 35.4202 416.382 34.9139 415.768C36.1442 414.739 37.3745 413.71 38.8154 412.981C39.8562 412.538 39.2735 410.852 38.2178 411.381C36.5918 412.167 35.1614 413.339 33.731 414.51C31.761 412.238 29.891 409.894 28.336 407.25C26.5854 404.22 24.5883 400.09 26.2512 396.575C27.335 394.374 29.6211 392.816 31.6069 391.473C33.5077 390.116 35.8235 388.387 38.156 388.072C41.4397 387.829 44.3163 390.431 46.4565 392.732ZM32.4248 388.787C32.1247 389.001 31.7395 389.201 31.4394 389.415C30.5268 388.115 29.529 386.8 28.6164 385.499C27.9846 384.599 26.5841 385.599 27.2159 386.5C28.1285 387.8 29.1262 389.115 30.0388 390.416C29.5386 390.773 29.0384 391.13 28.5233 391.573C27.1895 389.672 25.5406 388.072 24.292 386.185C24.9668 385.328 25.4863 384.356 25.6653 383.327C27.0124 383.642 28.2488 383.584 29.2896 383.141L29.2746 383.227C30.2381 385.242 31.3315 387.014 32.4248 388.787ZM27.6164 369.093C29.0336 369.508 31.0396 372.581 29.424 373.809C28.8088 374.324 29.0151 375.153 29.7662 375.367C32.3602 376.068 31.0973 379.297 30.1224 380.369C28.7174 381.898 27.2107 381.998 25.1275 381.383C24.8721 381.341 24.6018 381.383 24.4868 381.541C24.2868 381.684 24.1718 381.841 24.1271 382.098C23.8304 385.313 19.2987 388.7 16.3985 387.242C13.8941 386.027 13.6414 383.955 15.5465 382.069C16.1766 381.469 15.4448 380.64 14.834 380.626C10.3586 380.668 11.6031 374.523 13.7188 372.937C16.0347 371.208 18.8138 371.851 20.9585 373.623C21.4095 374.052 22.2502 373.752 22.3695 373.066C22.5486 372.037 23.0576 370.622 23.8026 369.865C24.803 369.15 26.3694 368.707 27.6164 369.093Z" fill="white" fill-opacity="0.5"/>
<path d="M28.9168 397.791C27.4118 401.416 29.9748 405.285 32.1069 408.111C32.8226 409.024 34.2207 408.025 33.505 407.112C31.7934 404.885 29.2409 401.459 30.4419 398.576C30.9754 397.52 29.3654 396.721 28.9168 397.791Z" fill="white" fill-opacity="0.5"/>
<path d="M30.9073 395.237C30.7133 396.352 32.4158 396.638 32.6097 395.523C32.8037 394.408 31.1012 394.122 30.9073 395.237Z" fill="white" fill-opacity="0.5"/>
<path d="M144.852 102.051C145.204 101.651 145.526 101.176 145.743 100.656C146.034 100.107 145.437 99.4789 144.934 99.5062C141.67 100.116 138.411 99.6831 135.112 99.7862C132.212 99.8168 129.719 100.638 127.034 101.622C125.929 98.6852 124.426 95.8205 122.466 93.3109C120.732 91.1446 119.72 92.241 117.616 93.6C117.277 93.8215 117.237 94.3571 117.462 94.7005C119.452 97.2847 120.925 100.075 121.987 103.116C119.657 104.132 117.492 105.341 115.583 106.969C113.143 108.981 111.526 111.965 108.637 113.29C108.047 113.526 107.994 114.24 108.427 114.673C108.829 115.033 109.245 115.213 109.691 115.468C97.7165 130.724 120.886 148.159 133.316 153.681C138.826 156.074 144.684 157.635 149.112 152.924C155.126 146.628 157.318 136.4 157.588 127.978C157.95 118.306 156.127 103.876 144.852 102.051ZM123.432 104.358C123.727 104.241 123.888 104.003 123.871 103.75C123.871 103.75 123.841 103.676 123.914 103.646C123.884 103.572 123.928 103.468 123.898 103.393C122.85 100.173 121.346 97.3088 119.37 94.546C119.634 94.3538 119.855 94.2656 120.12 94.0734C120.663 93.5105 121.048 93.6165 121.277 94.3915C121.991 94.8861 122.475 96.079 122.955 96.8403C124.169 98.7809 125.12 100.914 125.922 103.105C126.043 103.403 126.281 103.568 126.459 103.584C126.637 103.6 126.741 103.645 126.962 103.557C130.575 102.116 133.588 101.52 137.48 101.613C139.478 101.682 141.476 101.752 143.457 101.568C140.791 104.71 136.373 105.433 132.316 105.145C131.532 105.112 131.11 105.973 131.707 106.601C133.542 108.381 134.18 110.378 134.614 112.716C132.17 112.392 130.004 111.697 128.652 109.205C128.306 108.564 127.166 108.499 127.1 109.391C126.964 112.65 125.253 114.978 123.065 116.976C122.085 114.769 120.866 112.397 121.763 109.961C122.037 109.158 120.951 108.379 120.395 109.121C118.596 111.657 114.251 115.728 110.747 114.268C112.027 113.411 113.038 112.315 114.167 111.085C116.79 108.047 119.702 105.933 123.432 104.358ZM155.353 134.932C154.207 141.192 150.722 154.36 142.556 154.499C134.39 154.639 125.472 148.062 119.555 142.974C111.924 136.403 103.268 125.825 111.177 116.175C111.22 116.071 111.294 116.042 111.264 115.967C114.241 116.339 117.435 114.285 119.679 112.004C119.875 114.178 120.942 116.177 121.775 118.444C121.956 118.891 122.654 119.132 123.036 118.807C125.475 116.795 127.482 114.349 128.241 111.361C130.032 113.245 132.449 113.926 135.323 114.253C135.856 114.3 136.311 113.945 136.247 113.364C135.827 110.847 135.275 108.642 133.883 106.686C137.493 106.718 140.993 105.842 143.563 103.518L143.667 103.563C157.097 104.789 157.163 125.029 155.353 134.932Z" fill="white" fill-opacity="0.5"/>
<path d="M116.384 123.615C116.354 123.541 116.354 123.541 116.384 123.615C116.173 123.094 115.537 123.002 115.156 123.327C114.891 123.519 114.731 123.756 114.852 124.054C114.963 124.961 114.987 126.076 115.245 126.925C115.503 127.773 116.35 128.387 117.173 127.886C118.819 126.883 116.88 124.629 116.384 123.615Z" fill="white" fill-opacity="0.5"/>
<path d="M125.908 121.763C125.613 121.88 125.379 122.147 125.383 122.578C125.524 123.56 125.622 124.645 125.984 125.539C126.285 126.284 127.163 126.972 127.986 126.47C128.661 126.028 128.624 125.091 128.426 124.391C128.064 123.498 127.438 122.796 126.959 122.036C126.6 121.573 126.246 121.542 125.908 121.763Z" fill="white" fill-opacity="0.5"/>
<path d="M121.546 133.001C121.251 133.119 120.913 133.34 121.021 133.816C121.236 134.769 121.333 135.854 121.695 136.748C121.997 137.493 122.844 138.106 123.667 137.605C124.343 137.162 124.305 136.226 124.034 135.555C123.672 134.662 122.972 133.989 122.493 133.229C122.268 132.886 121.914 132.854 121.546 133.001Z" fill="white" fill-opacity="0.5"/>
<path d="M139.456 120.048C140.101 119.531 139.96 118.549 139.615 117.908C139.21 117.119 138.54 116.521 137.987 115.79C137.867 115.492 137.555 115.357 137.261 115.474C136.789 115.576 136.364 116.005 136.575 116.526C136.864 117.449 136.931 118.46 137.367 119.324C137.772 120.114 138.663 120.624 139.456 120.048Z" fill="white" fill-opacity="0.5"/>
<path d="M135.161 128.907C134.867 129.024 134.529 129.246 134.636 129.722C134.851 130.674 134.949 131.76 135.311 132.653C135.612 133.398 136.459 134.012 137.282 133.51C137.958 133.068 137.921 132.131 137.649 131.461C137.287 130.567 136.587 129.895 136.108 129.134C135.81 128.821 135.455 128.789 135.161 128.907Z" fill="white" fill-opacity="0.5"/>
<path d="M145.883 110.11C145.588 110.228 145.251 110.449 145.358 110.925C145.573 111.878 145.67 112.963 146.032 113.857C146.334 114.602 147.181 115.215 148.004 114.714C148.68 114.271 148.642 113.334 148.371 112.664C148.009 111.77 147.309 111.098 146.83 110.338C146.532 110.024 146.177 109.993 145.883 110.11Z" fill="white" fill-opacity="0.5"/>
<path d="M141.028 145C140.733 145.117 140.395 145.338 140.503 145.815C140.718 146.767 140.815 147.853 141.177 148.746C141.479 149.491 142.326 150.104 143.149 149.603C143.825 149.16 143.787 148.224 143.516 147.554C143.154 146.66 142.454 145.988 141.975 145.227C141.751 144.884 141.396 144.853 141.028 145Z" fill="white" fill-opacity="0.5"/>
<path d="M145.926 134.235C145.631 134.353 145.294 134.574 145.401 135.05C145.616 136.003 145.713 137.088 146.075 137.982C146.377 138.727 147.224 139.34 148.047 138.839C148.723 138.396 148.685 137.46 148.414 136.789C148.052 135.896 147.352 135.223 146.873 134.463C146.575 134.149 146.22 134.118 145.926 134.235Z" fill="white" fill-opacity="0.5"/>
<path d="M130.664 139.596C130.37 139.713 130.032 139.935 130.139 140.411C130.354 141.363 130.452 142.449 130.814 143.342C131.115 144.087 131.962 144.701 132.785 144.199C133.461 143.757 133.424 142.82 133.152 142.15C132.79 141.256 132.09 140.584 131.611 139.823C131.313 139.51 130.958 139.478 130.664 139.596Z" fill="white" fill-opacity="0.5"/>
<path d="M146.337 123.034C146.042 123.151 145.704 123.373 145.812 123.849C146.027 124.801 146.124 125.887 146.486 126.78C146.788 127.525 147.635 128.139 148.458 127.637C149.134 127.194 149.096 126.258 148.825 125.588C148.463 124.694 147.763 124.022 147.284 123.261C146.986 122.948 146.631 122.916 146.337 123.034Z" fill="white" fill-opacity="0.5"/>
<circle cx="192.068" cy="314.5" r="5.5" stroke="white" stroke-opacity="0.5" stroke-width="2"/>
<circle cx="774.5" cy="6.5" r="5.5" stroke="white" stroke-opacity="0.5" stroke-width="2"/>
<circle cx="14.5676" cy="608" r="9" stroke="white" stroke-opacity="0.5" stroke-width="2"/>
<circle cx="535" cy="49" r="9" stroke="white" stroke-opacity="0.5" stroke-width="2"/>
</svg>
