<svg width="703" height="625" viewBox="0 0 703 625" fill="none" xmlns="http://www.w3.org/2000/svg">
<circle cx="383.5" cy="618.5" r="5.5" stroke="white" stroke-opacity="0.5" stroke-width="2"/>
<path d="M685.546 512.849C688.379 512.142 690.656 510.711 691.084 507.481C691.38 504.76 690.303 502.3 688.138 500.922C690.67 497.323 688.066 493.103 684.16 491.81C687.317 486.45 681.726 481.146 676.057 482.331C676.381 477.677 670.207 473.813 666.058 475.838C665.718 473.729 664.145 472.062 661.802 471.286C658.586 470.208 655.207 471.342 652.568 473.287C651.811 470.635 649.87 468.793 646.934 468.306L646.842 468.262C646.842 468.262 646.842 468.262 646.75 468.218C646.75 468.218 646.75 468.218 646.658 468.174C646.566 468.13 646.566 468.13 646.429 468.179C642.952 468.579 642.188 470.16 640.606 472.496C637.749 470.673 634.15 472.732 633.491 475.737C631.096 474.364 627.843 474.299 625.661 476.004C623.251 477.944 622.917 481.447 623.813 484.279C617.441 483.64 613.935 490.894 619.013 495.151C617.241 496.709 616.582 499.714 616.922 501.822C617.553 505.673 620.544 507.216 623.887 507.095C623.088 509.919 625.035 512.452 627.702 513.496C630.851 522.213 627.056 532.878 623.283 540.921C623.148 541.2 623.195 541.337 623.197 541.567L623.245 541.704C623.339 541.978 623.478 542.159 623.754 542.29C628.907 544.752 634.057 546.983 639.21 549.444C639.486 549.576 639.715 549.571 639.852 549.521C639.852 549.521 639.944 549.565 639.989 549.472C640.263 549.374 640.445 549.232 640.579 548.953C644.577 540.445 649.9 531.54 659.166 528.067C660.135 528.873 661.376 529.352 662.752 529.551C664.678 529.784 667.471 529.629 669.153 528.258C670.452 530.023 672.521 530.897 674.943 530.337C678.098 529.668 679.131 527.529 679.427 524.808C686.206 524.841 689.622 517.772 685.546 512.849ZM639.375 547.462C634.866 545.309 630.313 543.248 625.804 541.095C629.485 533.008 632.736 522.999 630.274 514.267C631.374 514.335 632.564 514.216 633.612 513.686C633.725 516.03 634.707 518.216 636.826 519.457C636.918 519.501 637.01 519.545 637.01 519.545C636.965 519.638 637.057 519.682 637.012 519.775C637.534 521.741 637.827 523.713 637.754 525.739C637.718 526.752 639.37 527.083 639.727 526.109C640.487 524.068 641.339 522.071 642.283 520.117C643.562 519.813 644.84 519.278 645.933 518.656C645.987 519.483 646.085 520.216 646.184 520.95C646.094 521.136 646.049 521.229 646.004 521.322C645.152 523.319 644.253 525.18 643.309 527.133C642.86 528.063 643.968 529.05 644.833 528.433C646.562 527.198 648.522 526.188 650.437 525.272C652.687 525.773 654.604 525.087 656.333 523.852C656.71 524.947 657.268 525.901 657.871 526.762C648.884 530.597 643.465 538.998 639.375 547.462ZM639.858 520.447C639.723 520.727 639.543 521.099 639.409 521.378C639.359 521.011 639.265 520.737 639.216 520.37C639.445 520.365 639.674 520.36 639.858 520.447ZM646.633 524.942C646.857 524.477 647.127 523.919 647.26 523.41C647.446 523.728 647.769 523.997 648 524.222C647.544 524.462 647.089 524.702 646.633 524.942ZM678.907 523.072C678.357 523.038 677.672 523.283 677.724 523.88C677.71 527.423 672.429 530.853 670.465 526.48C670.182 525.659 668.99 525.547 668.586 526.384C667.507 528.617 663.151 528.024 661.586 527.277C659.286 526.178 658.214 524.178 657.688 521.751C657.542 520.881 656.489 520.95 655.944 521.376C653.628 523.59 650.703 524.254 648.707 521.354C647.592 519.677 647.675 518.801 647.703 516.868C647.742 516.085 646.685 515.695 646.139 516.121C644.684 517.258 642.95 518.032 641.121 518.303C636.443 517.672 634.682 515.457 635.746 511.615C636.011 510.597 634.586 510.031 633.998 510.78C628.71 513.52 624.653 510.666 626.403 506.809C626.855 506.109 626.523 504.92 625.517 505.127C619.804 506.404 616.702 497.825 621.315 496.48C622.229 496.23 622.171 494.943 621.435 494.591C616.738 491.89 618.962 484.71 625.166 486.871C626.131 487.218 627.038 486.278 626.48 485.324C623.409 480.194 629.896 473.333 633.886 478.902C634.582 479.807 636.178 479.081 635.71 477.941C636.27 474.203 637.773 473.203 640.216 474.943C640.587 475.348 641.318 475.24 641.635 474.819C642.902 473.135 644.392 470.755 646.495 470.386C649.155 470.741 650.636 472.364 650.8 475.304C650.901 476.268 651.956 476.429 652.546 475.909C653.816 474.455 655.365 473.592 657.058 473.37C659.979 472.247 662.238 473.899 663.697 478.144C663.342 479.348 665.086 479.724 665.672 478.744C668.155 474.779 675.257 480.003 673.594 483.444C673.1 484.467 674.206 485.224 675.118 484.744C682.259 484.262 684.388 486.653 681.55 491.823C681.051 492.386 681.336 493.438 682.115 493.466C684.265 493.234 685.603 494.216 686.443 495.992C686.961 497.498 687.113 499.059 685.797 500.376C685.251 500.803 685.078 501.865 685.951 502.167C691.557 504.158 687.585 510.503 683.378 511.241C682.509 511.399 682.015 512.422 682.753 513.003C687.366 516.58 685.233 523.575 678.907 523.072Z" fill="white" fill-opacity="0.5"/>
<path d="M633.403 528.504C633.026 532.088 631.056 535.708 629.536 538.859C628.955 540.064 630.785 540.94 631.366 539.735C632.975 536.398 635.035 532.593 635.365 528.873C635.58 527.493 633.482 527.173 633.403 528.504Z" fill="white" fill-opacity="0.5"/>
<path d="M635.107 524.43C633.911 523.859 633.012 525.719 634.208 526.291C635.404 526.862 636.303 525.002 635.107 524.43Z" fill="white" fill-opacity="0.5"/>
<path d="M638.335 489.756C636.681 489.425 634.902 490.524 634.274 492.059C633.781 493.314 635.624 494.194 636.117 492.939C636.88 491.125 639.269 491.578 639.241 493.514C639.254 494.896 641.315 494.62 641.258 493.331C641.243 491.719 639.989 490.088 638.335 489.756Z" fill="white" fill-opacity="0.5"/>
<path d="M670.534 493.606C668.737 492.633 666.591 493.556 666.059 495.594C665.659 496.893 667.771 497.214 668.034 495.965C668.3 494.945 669.587 495.331 669.96 495.968C670.564 496.829 670.39 497.892 670.17 498.818C669.769 500.117 671.881 500.438 672.145 499.189C672.813 497.101 672.515 494.667 670.534 493.606Z" fill="white" fill-opacity="0.5"/>
<path d="M657.272 505.799C655.613 505.007 653.421 506.023 652.795 507.788C652.302 509.043 654.145 509.923 654.638 508.668C654.861 507.972 655.634 507.31 656.371 507.662C657.154 507.921 657.254 508.886 656.894 509.631C656.309 510.842 658.152 511.722 658.737 510.511C659.684 508.786 659.067 506.542 657.272 505.799Z" fill="white" fill-opacity="0.5"/>
<path d="M501.478 229.608C497.917 227.422 492.941 227.821 490.873 232.151C489.515 234.924 490.986 239.054 493.861 240.155C492.277 242.713 493.192 245.514 496.192 246.9C498.541 248.001 501.489 247.172 503.549 245.4C504.798 247.286 506.376 248.787 507.71 250.688C505.29 253.017 503.846 255.775 504.567 259.691C505.71 265.707 510.297 271.067 514.367 275.368C519.098 280.399 523.996 285.987 529.487 290.175C532.338 292.418 539.617 296.906 543.474 294.377C547.346 291.762 545.458 282.973 544.378 279.614C542.203 272.983 538.691 266.481 535.56 260.307C532.876 255.091 529.405 248.86 524.16 245.772C520.738 243.786 517.58 244.314 514.598 245.843C513.49 244.157 512.567 242.413 511.644 240.67C511.573 240.57 511.503 240.47 511.433 240.37C512.248 239.712 512.853 238.755 513.347 237.426C514.16 235.268 513.808 233.267 512.154 232.195C514.209 229.452 511.822 226.05 508.207 225.178C504.832 224.435 502.396 226.85 501.478 229.608ZM526.889 250.732C527.706 251.575 528.337 252.475 529.054 253.39C527.984 254.004 526.998 254.633 525.913 255.333C524.942 255.876 525.91 257.362 526.896 256.734C527.966 256.119 528.967 255.405 530.037 254.79C530.318 255.19 530.584 255.676 530.95 256.091C530.865 256.077 530.68 256.134 530.579 256.205C529.994 256.548 529.494 256.905 528.909 257.248C527.923 257.877 528.991 259.292 529.891 258.649C530.477 258.306 530.977 257.949 531.562 257.606C531.662 257.534 531.677 257.449 531.762 257.463C532.911 259.421 533.96 261.45 534.993 263.565C536.403 266.538 537.814 269.51 539.224 272.483C538.509 273.069 537.638 273.54 536.782 273.926C535.742 274.369 536.324 276.056 537.38 275.527C538.236 275.141 539.121 274.584 539.921 274.012C540.313 274.784 540.619 275.541 541.01 276.313C542.516 279.743 546.367 289.833 542.055 292.462C539.599 293.991 536.213 292.805 533.303 290.904C534.173 290.432 535.059 289.875 535.789 289.203C536.104 288.903 536.278 288.403 535.998 288.003C535.787 287.703 535.121 287.503 534.806 287.803C533.876 288.617 532.875 289.332 531.649 289.832C529.941 288.574 528.347 287.159 527.305 286.102C524.148 283.1 521.19 279.956 518.133 276.884C519.289 276.283 520.459 275.597 521.66 274.74C522.56 274.097 521.577 272.696 520.677 273.339C519.477 274.197 518.291 274.969 516.965 275.54C516.359 274.997 515.852 274.382 515.346 273.768C516.576 272.739 517.807 271.71 519.248 270.981C520.288 270.538 519.706 268.852 518.65 269.381C517.024 270.167 515.594 271.339 514.163 272.51C512.193 270.238 510.323 267.894 508.768 265.25C507.018 262.22 505.02 258.09 506.683 254.575C507.767 252.374 510.053 250.816 512.039 249.473C513.94 248.116 516.256 246.387 518.588 246.072C521.872 245.829 524.748 248.431 526.889 250.732ZM512.857 246.787C512.557 247.001 512.172 247.201 511.872 247.415C510.959 246.115 509.961 244.8 509.049 243.499C508.417 242.599 507.016 243.599 507.648 244.5C508.561 245.8 509.558 247.115 510.471 248.416C509.971 248.773 509.471 249.13 508.955 249.573C507.622 247.672 505.973 246.072 504.724 244.185C505.399 243.328 505.919 242.356 506.098 241.327C507.445 241.642 508.681 241.584 509.722 241.141L509.707 241.227C510.67 243.242 511.764 245.014 512.857 246.787ZM508.049 227.093C509.466 227.508 511.472 230.581 509.856 231.809C509.241 232.324 509.447 233.153 510.198 233.367C512.792 234.068 511.53 237.297 510.555 238.369C509.15 239.898 507.643 239.998 505.56 239.383C505.304 239.341 505.034 239.383 504.919 239.541C504.719 239.684 504.604 239.841 504.559 240.098C504.263 243.313 499.731 246.7 496.831 245.242C494.326 244.027 494.074 241.955 495.979 240.069C496.609 239.469 495.877 238.64 495.266 238.626C490.791 238.668 492.035 232.523 494.151 230.937C496.467 229.208 499.246 229.851 501.391 231.623C501.842 232.052 502.682 231.752 502.802 231.066C502.981 230.037 503.49 228.622 504.235 227.865C505.235 227.15 506.802 226.707 508.049 227.093Z" fill="white" fill-opacity="0.5"/>
<path d="M509.349 255.791C507.844 259.416 510.407 263.285 512.539 266.111C513.255 267.024 514.653 266.025 513.937 265.112C512.226 262.885 509.673 259.459 510.874 256.576C511.408 255.52 509.798 254.721 509.349 255.791Z" fill="white" fill-opacity="0.5"/>
<path d="M511.34 253.237C511.146 254.352 512.848 254.638 513.042 253.523C513.236 252.408 511.533 252.122 511.34 253.237Z" fill="white" fill-opacity="0.5"/>
<path d="M625.285 20.0507C625.636 19.6505 625.958 19.1759 626.175 18.656C626.467 18.1068 625.87 17.4789 625.367 17.5062C622.102 18.1155 618.843 17.683 615.545 17.7862C612.645 17.8168 610.151 18.6382 607.467 19.6223C606.362 16.6852 604.858 13.8205 602.899 11.3108C601.164 9.14453 600.152 10.2409 598.048 11.5999C597.71 11.8215 597.67 12.3571 597.895 12.7005C599.884 15.2847 601.358 18.0748 602.419 21.1159C600.09 22.1315 597.925 23.3414 596.015 24.9692C593.576 26.9814 591.959 29.9649 589.07 31.2904C588.48 31.5257 588.427 32.2397 588.859 32.6734C589.262 33.0325 589.678 33.2131 590.124 33.4683C578.149 48.7242 601.318 66.1591 613.749 71.6809C619.258 74.0738 625.116 75.635 629.545 70.9238C635.558 64.6279 637.751 54.3995 638.02 45.9775C638.383 36.3058 636.56 21.8761 625.285 20.0507ZM603.865 22.3581C604.159 22.2405 604.32 22.0031 604.303 21.7501C604.303 21.7501 604.273 21.6755 604.347 21.6461C604.317 21.5715 604.36 21.4676 604.33 21.393C603.282 18.1734 601.778 15.3087 599.802 12.546C600.067 12.3538 600.288 12.2656 600.553 12.0734C601.095 11.5105 601.481 11.6165 601.709 12.3915C602.424 12.8861 602.907 14.079 603.387 14.8403C604.602 16.7808 605.552 18.9136 606.355 21.1051C606.475 21.4034 606.714 21.5682 606.891 21.584C607.069 21.5997 607.173 21.6449 607.394 21.5566C611.007 20.1156 614.02 19.52 617.913 19.6132C619.911 19.6824 621.909 19.7516 623.89 19.5677C621.223 22.7098 616.805 23.4326 612.749 23.1451C611.964 23.1116 611.542 23.9727 612.14 24.6007C613.975 26.3805 614.613 28.3778 615.047 30.7164C612.603 30.3921 610.437 29.697 609.084 27.2052C608.738 26.5636 607.598 26.4985 607.532 27.3911C607.397 30.6497 605.685 32.9779 603.497 34.9765C602.517 32.7692 601.298 30.397 602.195 27.9606C602.47 27.1583 601.383 26.3792 600.827 27.1206C599.028 29.6568 594.683 33.7284 591.179 32.2679C592.459 31.4109 593.471 30.3145 594.6 29.0848C597.223 26.0466 600.134 23.9325 603.865 22.3581ZM635.785 52.9316C634.639 59.1914 631.155 72.3603 622.988 72.4994C614.822 72.6385 605.904 66.0622 599.987 60.9736C592.356 54.4035 583.701 43.825 591.609 34.1749C591.653 34.071 591.726 34.0415 591.696 33.967C594.673 34.3385 597.867 32.2853 600.111 30.0043C600.307 32.1781 601.375 34.1774 602.207 36.4436C602.389 36.8909 603.086 37.1324 603.468 36.8068C605.907 34.7946 607.914 32.3488 608.673 29.3611C610.464 31.2449 612.882 31.9263 615.755 32.2527C616.288 32.2999 616.744 31.9449 616.68 31.3642C616.259 28.8471 615.708 26.6419 614.315 24.6856C617.926 24.7179 621.425 23.8419 623.995 21.5178L624.099 21.5629C637.529 22.7886 637.596 43.0288 635.785 52.9316Z" fill="white" fill-opacity="0.5"/>
<path d="M596.816 41.6155C596.786 41.541 596.786 41.541 596.816 41.6155C596.605 41.0942 595.969 41.0019 595.588 41.3271C595.324 41.5191 595.163 41.7561 595.284 42.054C595.395 42.9613 595.419 44.0763 595.677 44.9249C595.936 45.7734 596.783 46.387 597.606 45.8855C599.251 44.8827 597.312 42.6287 596.816 41.6155Z" fill="white" fill-opacity="0.5"/>
<path d="M606.34 39.7628C606.046 39.8803 605.812 40.1468 605.815 40.5779C605.956 41.5596 606.054 42.6453 606.416 43.5389C606.718 44.2836 607.595 44.9717 608.418 44.4702C609.094 44.0276 609.056 43.0909 608.858 42.3913C608.496 41.4976 607.87 40.7959 607.391 40.0355C607.033 39.5729 606.678 39.5415 606.34 39.7628Z" fill="white" fill-opacity="0.5"/>
<path d="M601.978 51.0013C601.684 51.1188 601.346 51.3402 601.453 51.8164C601.668 52.7688 601.766 53.8544 602.128 54.748C602.429 55.4927 603.277 56.1063 604.099 55.6049C604.775 55.1622 604.738 54.2255 604.466 53.5553C604.104 52.6616 603.404 51.9893 602.925 51.2289C602.701 50.8859 602.346 50.8545 601.978 51.0013Z" fill="white" fill-opacity="0.5"/>
<path d="M619.888 38.048C620.534 37.5309 620.392 36.5491 620.047 35.9083C619.642 35.1185 618.972 34.5207 618.42 33.7897C618.299 33.4918 617.988 33.3565 617.693 33.474C617.221 33.5758 616.797 34.0048 617.008 34.5261C617.296 35.4491 617.364 36.4602 617.799 37.3244C618.205 38.1142 619.095 38.6239 619.888 38.048Z" fill="white" fill-opacity="0.5"/>
<path d="M615.593 46.9067C615.299 47.0242 614.961 47.2455 615.069 47.7217C615.283 48.6741 615.381 49.7597 615.743 50.6533C616.045 51.398 616.892 52.0115 617.715 51.5101C618.39 51.0674 618.353 50.1308 618.082 49.4606C617.72 48.5669 617.02 47.8946 616.541 47.1342C616.243 46.8206 615.888 46.7892 615.593 46.9067Z" fill="white" fill-opacity="0.5"/>
<path d="M626.315 28.1102C626.021 28.2277 625.683 28.449 625.79 28.9252C626.005 29.8776 626.103 30.9632 626.465 31.8568C626.766 32.6015 627.614 33.215 628.436 32.7136C629.112 32.2709 629.075 31.3343 628.803 30.6641C628.441 29.7704 627.741 29.0981 627.262 28.3377C626.964 28.0241 626.61 27.9927 626.315 28.1102Z" fill="white" fill-opacity="0.5"/>
<path d="M621.46 62.9996C621.166 63.1171 620.828 63.3384 620.935 63.8146C621.15 64.767 621.248 65.8526 621.61 66.7462C621.911 67.4909 622.758 68.1044 623.581 67.603C624.257 67.1603 624.22 66.2237 623.948 65.5535C623.586 64.6598 622.886 63.9875 622.407 63.2271C622.183 62.8842 621.828 62.8527 621.46 62.9996Z" fill="white" fill-opacity="0.5"/>
<path d="M626.358 52.2354C626.064 52.3529 625.726 52.5742 625.833 53.0504C626.048 54.0028 626.146 55.0884 626.508 55.982C626.809 56.7267 627.657 57.3403 628.479 56.8389C629.155 56.3962 629.118 55.4595 628.846 54.7893C628.484 53.8957 627.784 53.2234 627.305 52.463C627.007 52.1494 626.653 52.1179 626.358 52.2354Z" fill="white" fill-opacity="0.5"/>
<path d="M611.096 57.5958C610.802 57.7133 610.464 57.9346 610.571 58.4108C610.786 59.3632 610.884 60.4487 611.246 61.3424C611.548 62.0871 612.395 62.7006 613.218 62.1992C613.893 61.7565 613.856 60.8199 613.584 60.1496C613.222 59.256 612.523 58.5837 612.044 57.8233C611.746 57.5097 611.391 57.4783 611.096 57.5958Z" fill="white" fill-opacity="0.5"/>
<path d="M626.769 41.0336C626.475 41.1511 626.137 41.3725 626.244 41.8487C626.459 42.801 626.557 43.8866 626.919 44.7803C627.22 45.5249 628.067 46.1385 628.89 45.6371C629.566 45.1944 629.529 44.2577 629.257 43.5875C628.895 42.6939 628.195 42.0216 627.716 41.2612C627.418 40.9476 627.064 40.9161 626.769 41.0336Z" fill="white" fill-opacity="0.5"/>
<path d="M237.767 498.969C238.082 498.611 238.369 498.187 238.564 497.722C238.824 497.23 238.29 496.669 237.841 496.693C234.92 497.238 232.006 496.851 229.056 496.944C226.462 496.971 224.232 497.706 221.831 498.586C220.843 495.959 219.498 493.397 217.745 491.152C216.194 489.215 215.289 490.195 213.407 491.411C213.104 491.609 213.068 492.088 213.269 492.395C215.049 494.706 216.367 497.202 217.316 499.922C215.233 500.83 213.297 501.912 211.588 503.368C209.407 505.168 207.96 507.836 205.377 509.022C204.849 509.232 204.801 509.871 205.188 510.259C205.548 510.58 205.92 510.741 206.319 510.97C195.609 524.615 216.331 540.208 227.449 545.147C232.377 547.287 237.616 548.683 241.577 544.47C246.956 538.839 248.917 529.69 249.158 522.158C249.482 513.508 247.851 500.602 237.767 498.969ZM218.609 501.033C218.873 500.928 219.017 500.715 219.001 500.489C219.001 500.489 218.974 500.422 219.04 500.396C219.013 500.329 219.052 500.236 219.025 500.17C218.088 497.29 216.743 494.728 214.975 492.257C215.212 492.085 215.41 492.006 215.647 491.834C216.132 491.331 216.477 491.426 216.681 492.119C217.32 492.561 217.753 493.628 218.182 494.309C219.268 496.045 220.118 497.952 220.836 499.912C220.944 500.179 221.157 500.326 221.316 500.34C221.475 500.355 221.568 500.395 221.766 500.316C224.997 499.027 227.692 498.494 231.173 498.578C232.96 498.64 234.748 498.702 236.519 498.537C234.135 501.347 230.183 501.994 226.555 501.737C225.853 501.707 225.476 502.477 226.01 503.039C227.651 504.63 228.222 506.417 228.61 508.508C226.424 508.218 224.487 507.597 223.277 505.368C222.968 504.794 221.949 504.736 221.889 505.534C221.768 508.449 220.237 510.531 218.28 512.319C217.404 510.344 216.314 508.223 217.116 506.044C217.361 505.326 216.39 504.629 215.892 505.292C214.284 507.561 210.397 511.202 207.263 509.896C208.408 509.13 209.313 508.149 210.323 507.049C212.668 504.332 215.273 502.441 218.609 501.033ZM247.159 528.378C246.134 533.976 243.017 545.754 235.713 545.879C228.409 546.003 220.433 540.121 215.141 535.57C208.316 529.694 200.574 520.233 207.648 511.602C207.687 511.509 207.753 511.482 207.726 511.416C210.388 511.748 213.245 509.912 215.252 507.872C215.427 509.816 216.382 511.604 217.127 513.631C217.289 514.031 217.913 514.247 218.255 513.956C220.436 512.156 222.231 509.968 222.91 507.296C224.512 508.981 226.674 509.591 229.244 509.882C229.721 509.925 230.128 509.607 230.071 509.088C229.695 506.837 229.202 504.864 227.956 503.114C231.185 503.143 234.315 502.36 236.614 500.281L236.706 500.322C248.718 501.418 248.778 519.521 247.159 528.378Z" fill="white" fill-opacity="0.5"/>
<path d="M212.305 518.256C212.278 518.19 212.278 518.19 212.305 518.256C212.116 517.79 211.547 517.708 211.206 517.999C210.97 518.17 210.827 518.382 210.934 518.649C211.034 519.46 211.055 520.457 211.286 521.216C211.517 521.975 212.275 522.524 213.011 522.076C214.483 521.179 212.749 519.163 212.305 518.256Z" fill="white" fill-opacity="0.5"/>
<path d="M220.823 516.6C220.56 516.705 220.35 516.943 220.354 517.329C220.48 518.207 220.567 519.178 220.891 519.977C221.161 520.643 221.946 521.258 222.682 520.81C223.286 520.414 223.253 519.576 223.076 518.95C222.752 518.151 222.192 517.524 221.763 516.843C221.443 516.43 221.125 516.402 220.823 516.6Z" fill="white" fill-opacity="0.5"/>
<path d="M216.922 526.651C216.658 526.756 216.356 526.954 216.452 527.38C216.644 528.232 216.732 529.203 217.056 530.002C217.325 530.668 218.083 531.217 218.819 530.768C219.423 530.373 219.39 529.535 219.147 528.935C218.823 528.136 218.197 527.535 217.769 526.855C217.568 526.548 217.251 526.52 216.922 526.651Z" fill="white" fill-opacity="0.5"/>
<path d="M232.941 515.066C233.518 514.603 233.392 513.725 233.083 513.152C232.72 512.446 232.121 511.911 231.627 511.257C231.519 510.991 231.241 510.87 230.977 510.975C230.555 511.066 230.176 511.45 230.364 511.916C230.622 512.741 230.683 513.646 231.072 514.419C231.435 515.125 232.231 515.581 232.941 515.066Z" fill="white" fill-opacity="0.5"/>
<path d="M229.099 522.989C228.836 523.094 228.534 523.292 228.63 523.718C228.822 524.57 228.909 525.541 229.233 526.34C229.503 527.006 230.26 527.555 230.996 527.106C231.601 526.71 231.567 525.873 231.325 525.273C231.001 524.474 230.375 523.873 229.946 523.193C229.68 522.912 229.362 522.884 229.099 522.989Z" fill="white" fill-opacity="0.5"/>
<path d="M238.689 506.177C238.425 506.283 238.123 506.481 238.219 506.906C238.411 507.758 238.499 508.729 238.822 509.528C239.092 510.195 239.85 510.743 240.586 510.295C241.19 509.899 241.157 509.061 240.914 508.462C240.59 507.662 239.964 507.061 239.536 506.381C239.269 506.1 238.952 506.072 238.689 506.177Z" fill="white" fill-opacity="0.5"/>
<path d="M234.346 537.382C234.083 537.488 233.781 537.685 233.877 538.111C234.069 538.963 234.156 539.934 234.48 540.733C234.75 541.399 235.508 541.948 236.244 541.5C236.848 541.104 236.814 540.266 236.572 539.667C236.248 538.867 235.622 538.266 235.193 537.586C234.993 537.279 234.675 537.251 234.346 537.382Z" fill="white" fill-opacity="0.5"/>
<path d="M238.727 527.755C238.464 527.86 238.162 528.058 238.258 528.484C238.45 529.336 238.537 530.307 238.861 531.106C239.131 531.772 239.888 532.321 240.624 531.872C241.229 531.476 241.195 530.639 240.952 530.039C240.629 529.24 240.003 528.639 239.574 527.958C239.308 527.678 238.99 527.65 238.727 527.755Z" fill="white" fill-opacity="0.5"/>
<path d="M225.077 532.549C224.814 532.654 224.512 532.852 224.608 533.278C224.8 534.13 224.887 535.101 225.211 535.9C225.481 536.566 226.238 537.115 226.974 536.667C227.579 536.271 227.545 535.433 227.303 534.833C226.979 534.034 226.353 533.433 225.924 532.753C225.658 532.472 225.341 532.444 225.077 532.549Z" fill="white" fill-opacity="0.5"/>
<path d="M239.095 517.736C238.831 517.841 238.529 518.039 238.625 518.465C238.817 519.317 238.905 520.288 239.229 521.087C239.498 521.753 240.256 522.302 240.992 521.854C241.596 521.458 241.563 520.62 241.32 520.02C240.996 519.221 240.37 518.62 239.942 517.94C239.675 517.659 239.358 517.631 239.095 517.736Z" fill="white" fill-opacity="0.5"/>
<path d="M306.83 388.855C308.72 383.026 309.847 376.728 309.496 370.996C309.159 364.937 308.323 358.071 306.122 352.219C309.928 354.312 314.072 355.262 318.425 353.291C320.96 352.202 324.836 348.52 325.521 345.654C325.634 345.273 325.475 344.979 325.218 344.739C322.545 342.973 317.88 342.121 314.786 342.055C310.069 341.933 305.724 344.155 304.067 348.644C303.72 348.709 303.38 349.025 303.343 349.428C301.912 362.842 293.377 373.126 283.565 381.634C279.101 377.611 274.323 376.313 269.783 381.128C265.53 385.529 266.093 391.654 270.383 395.709C274.877 399.905 280.93 400.496 285.606 396.051C290.138 391.814 287.938 386.79 284.599 382.844C294.019 374.554 302.147 364.815 304.477 352.24C306.882 358.234 307.733 365.601 307.949 371.791C308.165 377.152 307.022 382.949 305.343 388.343C299.531 386.663 294.49 388.186 292.722 394.713C291.202 400.401 294.692 405.219 300.052 406.768C305.563 408.361 310.724 406.706 313.398 401.269C316.352 395.168 311.791 391.2 306.83 388.855ZM284.933 394.449C281.125 398.731 275.419 398.075 271.545 394.554C267.874 391.175 267.244 386.107 270.841 382.262C274.536 378.362 278.786 379.507 282.35 382.69C281.038 383.802 279.748 384.836 278.458 385.871C278.065 385.261 277.891 384.465 278.17 383.801C278.464 382.809 276.954 382.373 276.66 383.364C276.178 384.715 276.723 386.198 277.531 387.342C278.574 388.803 279.986 389.293 281.692 389.621C282.695 389.828 283.147 388.303 282.143 388.095C281.139 387.888 280.211 387.702 279.471 387.157C280.783 386.046 282.148 385.033 283.483 383.846C286.021 386.898 288.16 390.745 284.933 394.449ZM323.83 345.828C323.914 346.101 324.132 345.915 323.83 345.828V345.828ZM317.24 344.006C318.72 344.268 320.23 344.705 321.717 345.217C322.245 345.37 322.804 345.697 323.355 345.773C323.506 345.817 323.68 345.784 323.83 345.828C322.663 348.388 319.608 351.232 317.217 352.114C312.803 353.736 308.968 352.296 305.426 349.865C306.758 344.537 312.296 342.991 317.24 344.006ZM311.316 401.661C308.745 405.637 304.784 406.562 300.504 405.242C295.997 403.857 292.937 400.075 294.232 395.15C294.834 392.84 296.559 389.778 299.11 389.19C300.966 388.733 303.027 389.246 304.816 389.846C304.266 391.426 303.641 392.984 303.016 394.542C302.404 394.117 301.913 393.561 301.867 392.885C301.761 391.861 300.214 391.828 300.32 392.852C300.465 394.302 301.371 395.392 302.542 396.144C304.12 397.18 305.712 397.06 307.546 396.679C308.512 396.462 308.163 394.871 307.175 395.165C306.209 395.382 305.341 395.545 304.511 395.305C305.136 393.747 305.784 392.113 306.356 390.457C310.833 392.496 314.911 396.159 311.316 401.661Z" fill="white" fill-opacity="0.5"/>
<path d="M307.451 401.943C306.279 402.849 304.896 403.361 303.474 403.448C302.476 403.491 302.401 405.129 303.422 405.009C305.267 404.879 307.021 404.224 308.533 403.002C309.266 402.467 308.207 401.332 307.451 401.943Z" fill="white" fill-opacity="0.5"/>
<path d="M309.516 400.25C308.533 399.966 308.081 401.493 309.064 401.777C310.046 402.061 310.498 400.534 309.516 400.25Z" fill="white" fill-opacity="0.5"/>
<path d="M280.545 393.821C279.145 394.663 277.062 394.477 275.578 394.214C274.548 394.082 274.094 395.614 275.124 395.745C277.01 396.041 279.57 396.283 281.288 395.2C282.174 394.708 281.453 393.253 280.545 393.821Z" fill="white" fill-opacity="0.5"/>
<path d="M282.473 393.999C283.456 394.283 283.908 392.756 282.925 392.472C281.943 392.188 281.491 393.715 282.473 393.999Z" fill="white" fill-opacity="0.5"/>
<circle cx="672.5" cy="192.5" r="5.5" stroke="white" stroke-opacity="0.5" stroke-width="2"/>
<circle cx="495" cy="446" r="9" stroke="white" stroke-opacity="0.5" stroke-width="2"/>
<path d="M60.252 582.298C58.7542 576.587 55.5705 562.621 46.8419 566.51C46.7766 566.522 46.7884 566.587 46.7231 566.599C43.8693 564.584 39.8982 564.595 36.8639 566.071C36.7985 566.082 36.7985 566.082 36.8104 566.148C36.5137 565.996 36.1635 565.921 35.8787 565.835C35.8668 565.769 35.9203 565.692 35.9085 565.626C35.8967 565.56 35.8967 565.56 35.8848 565.495C35.8848 565.495 35.8848 565.495 35.873 565.429C35.9219 563.453 34.7238 562.032 32.848 562.087C32.5518 561.188 32.4099 560.399 32.4105 559.652C32.3873 558.774 32.5719 557.928 32.7745 556.807C32.8162 556.664 32.8044 556.599 32.7925 556.533C32.8105 556.258 32.6979 556.006 32.4013 555.854C31.5883 555.453 30.3424 554.516 29.4462 554.4C28.6271 554.338 28.3833 554.856 27.8902 555.484C27.0762 556.575 26.4699 557.698 26.1722 559.039C26.1125 559.456 26.0529 559.874 26.0585 560.28C26.04 561.301 26.2056 562.222 26.2524 563.231C24.8512 563.678 23.9482 564.649 23.9888 565.999C23.941 566.482 24.0474 567.074 24.3498 567.633C24.3616 567.698 24.4387 567.753 24.5159 567.807C24.2248 568.061 23.8685 568.327 23.5774 568.581C23.5003 568.526 23.4232 568.472 23.2926 568.495C19.7312 568.163 16.2043 569.521 14.2909 572.364C14.2256 572.375 14.1485 572.321 14.0832 572.332C8.07635 571.882 6.5707 577.368 6.43025 582.955C6.35668 586.293 6.75206 589.616 6.9464 591.822C7.34742 595.551 8.40044 600.661 11.2953 603.279C13.3064 605.101 17.1402 606.2 19.2726 604.201C19.8778 604.571 20.5483 604.93 21.2723 605.211C24.8804 606.553 28.7508 606.356 31.5368 603.497C33.7679 604.671 36.2962 605.25 38.6589 604.907C40.6952 604.622 42.2568 603.944 43.4091 602.862C43.4863 602.916 43.5516 602.905 43.6287 602.959C47.1366 603.368 50.8481 601.163 53.0345 598.341C55.7109 599.369 58.8645 597.058 60.0652 594.746C60.7666 593.403 61.0288 591.865 61.125 590.152C61.3168 587.473 60.7965 584.578 60.252 582.298ZM27.5461 563.685C27.5944 562.456 27.4705 561.392 27.4772 560.305C27.4839 559.218 27.6984 558.163 28.4352 557.018C28.6491 556.709 28.9582 556.181 29.3027 555.849C29.3798 555.904 29.4569 555.958 29.5994 556.002C30.1393 556.383 30.7208 556.621 31.3795 556.914C31.1296 557.771 30.945 558.618 30.891 559.441C30.8848 559.781 30.8787 560.122 30.9496 560.516C31.1033 561.372 31.4766 562.325 31.761 563.157C31.8736 563.409 32.2356 563.55 32.4968 563.505C33.7494 563.355 34.5443 564.031 34.5196 565.392C34.5196 565.392 34.5196 565.392 34.5315 565.458C33.4275 565.311 32.1394 565.263 30.768 565.501C28.8089 565.841 27.0576 566.213 25.5731 566.945C25.5612 566.88 25.5494 566.814 25.5258 566.682C25.3242 566.31 25.2651 565.981 25.2831 565.707C25.4024 564.872 26.204 564.461 27.053 564.314C27.3142 564.268 27.6052 564.014 27.6232 563.74C27.5697 563.817 27.5579 563.751 27.5461 563.685C27.5579 563.751 27.5579 563.751 27.5461 563.685ZM38.4523 603.383C36.2854 603.691 33.953 603.078 31.9297 601.937C31.8525 601.882 31.7754 601.828 31.7101 601.839C29.6867 600.698 27.9842 599.093 26.9764 597.233C25.1742 593.95 24.566 589.442 23.5772 585.814C22.7838 582.899 22.1093 579.895 22.1648 576.832C22.1833 575.811 22.279 574.845 22.5053 573.855C23.5949 569.053 26.5876 567.719 31.04 567.014C40.0221 565.659 42.8475 574.26 44.172 581.629C44.7041 584.589 45.5381 588.855 45.5946 592.916C45.4367 598.032 43.985 602.694 38.4523 603.383ZM15.0671 591.294C14.5232 588.268 13.7545 583.991 13.7869 580.05C13.9274 574.462 15.7354 569.535 22.4724 569.926C22.1515 570.389 21.9196 570.972 21.6877 571.555C20.992 573.304 20.7235 575.182 20.7163 577.015C20.6726 580.144 21.3708 583.28 22.176 586.261C23.4429 591.062 24.0383 596.997 27.6685 600.709C28.41 601.462 29.282 602.193 30.2611 602.769C27.5466 605.276 23.6351 604.869 20.4486 603.251C16.2296 601.134 15.8003 595.373 15.0671 591.294ZM46.7639 593.052C46.7963 589.111 46.0513 584.966 45.5726 581.928C44.5973 576.127 42.7318 569.87 38.4481 567.017C48.0313 563.386 50.925 576.114 52.2022 583.22C52.7462 586.247 53.6522 589.414 53.5313 592.488C53.5369 592.894 53.4891 593.377 53.4294 593.795C52.9044 597.618 48.7347 601.394 44.6983 601.417C46.1956 599.257 46.732 596.246 46.7639 593.052ZM13.4471 573.664C13.3638 573.949 13.2034 574.181 13.1201 574.467C12.5251 576.402 12.2804 578.412 12.2433 580.454C12.2402 584.932 13.4181 589.613 14.1868 593.889C14.849 597.574 15.7134 600.884 18.1337 603.11C14.8968 605.707 11.0419 600.745 10.0346 598.138C9.03914 595.597 8.44732 593.054 8.23551 590.377C8.1003 588.5 7.7877 585.637 7.81345 582.783C7.79294 578.173 8.86459 573.645 13.4471 573.664ZM53.9436 597.03C54.6568 595.753 54.9427 594.346 54.932 592.788C55.0708 589.439 53.9931 585.691 53.4846 582.862C52.5504 577.664 51.6938 571.774 47.9273 567.679C54.7672 565.27 57.2877 577.045 58.6734 581.758C59.4076 584.344 59.7264 586.867 59.677 589.589C59.5623 592.323 57.7893 598.194 53.9436 597.03Z" fill="white" fill-opacity="0.5"/>
<path d="M25.5161 574.593C25.0851 575.548 24.9135 576.457 24.9482 577.398C24.9242 578.011 24.9651 578.613 25.0708 579.203C25.3347 581.052 25.398 583.273 26.1691 584.965C26.4928 585.653 27.4952 585.275 27.4426 584.608C27.484 584.465 27.4722 584.4 27.3721 584.214C26.7247 582.839 26.7084 580.88 26.4382 579.371C26.3091 578.649 26.2447 577.916 26.257 577.238C26.2693 576.559 26.3995 575.792 26.7478 575.123C26.7891 574.98 26.8422 574.903 26.8187 574.772C26.8545 574.224 25.7878 573.869 25.5161 574.593Z" fill="white" fill-opacity="0.5"/>
<path d="M26.6347 572.035C26.6465 572.101 26.6465 572.101 26.6583 572.167L26.6702 572.232C26.8238 573.087 28.1292 572.861 27.9755 572.006C27.9637 571.94 27.9637 571.94 27.9519 571.874L27.9401 571.809C27.7864 570.954 26.4811 571.18 26.6347 572.035Z" fill="white" fill-opacity="0.5"/>
</svg>
