<svg width="25" height="25" viewBox="0 0 25 25" fill="none" xmlns="http://www.w3.org/2000/svg">
<path d="M12.5 1.29199C10.1794 1.29199 7.95376 2.21386 6.31282 3.85481C4.67187 5.49575 3.75 7.72135 3.75 10.042C3.75 12.1114 4.19042 13.4662 5.39063 14.9639L12.5 23.167L19.6094 14.9639C20.8096 13.4662 21.25 12.1114 21.25 10.042C21.25 7.72135 20.3281 5.49575 18.6872 3.85481C17.0462 2.21386 14.8206 1.29199 12.5 1.29199V1.29199Z" stroke="#EC2E2F" stroke-width="2" stroke-linecap="round" stroke-linejoin="round"/>
<path d="M12.5013 11.5007C13.3067 11.5007 13.9596 10.8477 13.9596 10.0423C13.9596 9.2369 13.3067 8.58398 12.5013 8.58398C11.6959 8.58398 11.043 9.2369 11.043 10.0423C11.043 10.8477 11.6959 11.5007 12.5013 11.5007Z" fill="#EC2E2F" stroke="#EC2E2F" stroke-width="2" stroke-linecap="round" stroke-linejoin="round"/>
</svg>
