<svg width="25" height="25" viewBox="0 0 25 25" fill="none" xmlns="http://www.w3.org/2000/svg">
<path d="M20.8333 20.8334H4.16668C3.61414 20.8334 3.08424 20.6139 2.69354 20.2232C2.30284 19.8325 2.08334 19.3026 2.08334 18.7501V6.15946C2.10671 5.62278 2.33648 5.11587 2.72467 4.74456C3.11287 4.37325 3.62949 4.16624 4.16668 4.16675H20.8333C21.3859 4.16675 21.9158 4.38624 22.3065 4.77694C22.6972 5.16764 22.9167 5.69755 22.9167 6.25008V18.7501C22.9167 19.3026 22.6972 19.8325 22.3065 20.2232C21.9158 20.6139 21.3859 20.8334 20.8333 20.8334ZM4.16668 8.19592V18.7501H20.8333V8.19592L12.5 13.7501L4.16668 8.19592ZM5.00001 6.25008L12.5 11.2501L20 6.25008H5.00001Z" fill="#EC2E2F"/>
</svg>
