<svg width="25" height="25" viewBox="0 0 25 25" fill="none" xmlns="http://www.w3.org/2000/svg">
<path d="M17.2604 22.9166C17.5371 22.9182 17.8113 22.8646 18.067 22.7591C18.3228 22.6536 18.555 22.4982 18.75 22.302L21.5729 19.4791C21.7669 19.2839 21.8758 19.0199 21.8758 18.7447C21.8758 18.4695 21.7669 18.2055 21.5729 18.0103L17.4063 13.8437C17.2111 13.6496 16.9471 13.5407 16.6719 13.5407C16.3967 13.5407 16.1327 13.6496 15.9375 13.8437L14.2708 15.4999C13.1169 15.1922 12.0483 14.6258 11.1458 13.8437C10.3658 12.9398 9.79963 11.8716 9.4896 10.7187L11.1458 9.05199C11.3399 8.85682 11.4488 8.5928 11.4488 8.31761C11.4488 8.04242 11.3399 7.77841 11.1458 7.58324L6.97918 3.41657C6.78401 3.22256 6.52 3.11366 6.24481 3.11366C5.96961 3.11366 5.7056 3.22256 5.51043 3.41657L2.69793 6.2499C2.50171 6.44495 2.34631 6.67712 2.24079 6.93287C2.13527 7.18862 2.08175 7.46283 2.08335 7.73949C2.17785 11.7419 3.77718 15.5617 6.56251 18.4374C9.43826 21.2227 13.258 22.8221 17.2604 22.9166ZM6.25001 5.63532L8.94793 8.33324L7.60418 9.67699C7.47691 9.7962 7.38161 9.94546 7.32701 10.1111C7.27241 10.2767 7.26026 10.4534 7.29168 10.6249C7.68102 12.3649 8.50534 13.9777 9.68751 15.3124C11.0212 16.4961 12.6344 17.3206 14.375 17.7082C14.5439 17.7436 14.719 17.7363 14.8845 17.6872C15.0499 17.6382 15.2006 17.5487 15.3229 17.427L16.6667 16.052L19.3646 18.7499L17.2813 20.8332C13.8268 20.7443 10.5307 19.3657 8.04168 16.9687C5.63846 14.4786 4.25586 11.1781 4.16668 7.71865L6.25001 5.63532ZM20.8333 11.4582H22.9167C22.9437 10.2197 22.7197 8.9885 22.2581 7.83887C21.7965 6.68923 21.1069 5.64495 20.231 4.76896C19.355 3.89297 18.3107 3.20341 17.161 2.74183C16.0114 2.28026 14.7802 2.05622 13.5417 2.08324V4.16657C14.5082 4.13313 15.4714 4.29887 16.3712 4.65348C17.2709 5.00809 18.0882 5.54399 18.7721 6.22786C19.4559 6.91174 19.9918 7.72897 20.3464 8.62876C20.701 9.52855 20.8668 10.4917 20.8333 11.4582Z" fill="#EC2E2F"/>
<path d="M13.5417 8.33333C15.7292 8.33333 16.6667 9.27083 16.6667 11.4583H18.75C18.75 8.10417 16.8958 6.25 13.5417 6.25V8.33333Z" fill="#EC2E2F"/>
</svg>
