<?xml version="1.0" standalone="no"?>
<!DOCTYPE svg PUBLIC "-//W3C//DTD SVG 20010904//EN"
 "http://www.w3.org/TR/2001/REC-SVG-20010904/DTD/svg10.dtd">
<svg version="1.0" xmlns="http://www.w3.org/2000/svg"
 width="1618.000000pt" height="1618.000000pt" viewBox="0 0 1618.000000 1618.000000"
 preserveAspectRatio="xMidYMid meet">
<metadata>
Created by potrace 1.14, written by Peter Selinger 2001-2017
</metadata>
<g transform="translate(0.000000,1618.000000) scale(0.100000,-0.100000)"
fill="#000000" stroke="none">
<path d="M4995 12620 c3 -5 8 -10 11 -10 2 0 4 5 4 10 0 6 -5 10 -11 10 -5 0
-7 -4 -4 -10z"/>
<path d="M5019 12608 c-7 -24 -5 -40 7 -45 8 -3 11 -9 8 -14 -3 -5 0 -9 5 -9
6 0 11 -7 11 -15 0 -8 5 -15 10 -15 6 0 10 -9 10 -21 0 -11 5 -17 10 -14 6 3
10 0 10 -7 0 -19 23 -68 33 -68 4 0 7 -9 7 -20 0 -11 5 -20 10 -20 6 0 10 -6
10 -14 0 -7 7 -19 15 -26 9 -7 14 -19 11 -27 -3 -7 -2 -13 2 -13 4 0 18 -21
32 -47 13 -27 27 -50 30 -53 3 -3 14 -24 24 -47 11 -24 23 -43 28 -43 4 0 8
-9 8 -20 0 -11 5 -20 11 -20 5 0 7 -4 4 -10 -3 -5 -3 -10 2 -10 4 0 14 -15 22
-32 8 -18 17 -35 21 -38 3 -3 17 -27 30 -55 13 -27 26 -52 30 -55 3 -3 21 -34
39 -70 48 -91 72 -133 82 -146 5 -6 6 -14 2 -17 -3 -4 -2 -7 3 -7 5 0 32 -44
59 -98 28 -53 53 -99 56 -102 3 -3 21 -34 40 -70 18 -36 38 -68 44 -72 5 -4 6
-8 1 -8 -5 0 -3 -7 4 -15 7 -9 23 -35 35 -58 19 -38 57 -106 73 -132 4 -5 7
-16 9 -24 1 -8 6 -17 11 -20 5 -3 28 -42 51 -86 24 -44 47 -84 52 -89 5 -6 9
-18 9 -28 0 -10 4 -18 9 -18 5 0 14 -12 20 -27 6 -16 15 -35 20 -43 32 -52 56
-96 53 -102 -1 -5 2 -8 8 -8 5 0 10 -4 10 -9 0 -8 105 -204 130 -241 5 -8 20
-36 32 -62 13 -27 26 -48 30 -48 5 0 8 -9 8 -20 0 -11 4 -20 8 -20 5 0 14 -16
22 -35 8 -19 18 -35 22 -35 5 0 6 -4 3 -10 -3 -5 -3 -10 2 -10 4 0 22 -28 38
-63 17 -34 33 -64 36 -67 4 -3 21 -34 39 -70 18 -36 40 -73 48 -82 8 -10 11
-18 6 -18 -5 0 -4 -4 2 -8 6 -4 26 -36 44 -72 18 -36 36 -67 39 -70 4 -3 13
-20 20 -37 8 -18 17 -33 22 -33 5 0 8 -3 7 -7 -4 -12 26 -73 34 -73 5 0 8 -5
8 -11 0 -6 9 -24 21 -40 11 -16 17 -29 13 -29 -3 0 -1 -7 6 -15 7 -9 23 -35
35 -58 12 -23 34 -63 48 -89 15 -27 39 -69 53 -95 14 -27 30 -52 35 -58 5 -5
9 -17 9 -27 0 -10 5 -18 10 -18 6 0 10 -7 10 -15 0 -8 4 -15 9 -15 5 0 12 -13
16 -30 4 -16 11 -30 16 -30 6 0 7 -4 4 -10 -3 -5 -3 -10 2 -10 4 0 26 -35 48
-77 22 -43 45 -81 50 -85 7 -5 7 -8 0 -8 -7 0 -7 -3 0 -8 6 -4 20 -25 32 -47
11 -22 31 -58 43 -80 13 -22 36 -65 53 -95 17 -30 45 -82 63 -115 19 -33 42
-76 51 -95 10 -19 23 -38 28 -42 7 -5 7 -8 0 -8 -7 0 -7 -3 0 -8 6 -4 25 -36
44 -72 19 -36 42 -77 52 -91 10 -14 16 -29 12 -33 -3 -3 -1 -6 5 -6 7 0 12 -6
12 -13 0 -7 11 -29 25 -49 14 -20 25 -44 25 -52 0 -9 4 -16 10 -16 5 0 12 -11
16 -25 3 -14 9 -25 13 -25 4 0 13 -16 20 -35 7 -19 17 -35 22 -35 6 0 7 -4 4
-10 -3 -5 -1 -10 5 -10 6 0 9 -4 6 -9 -4 -5 -3 -11 1 -13 8 -3 22 -28 82 -143
14 -27 28 -52 31 -55 3 -3 14 -23 25 -45 11 -22 24 -43 28 -46 5 -3 9 -10 9
-15 1 -5 6 -18 13 -29 7 -11 34 -60 61 -110 27 -49 53 -98 59 -107 5 -9 28
-52 50 -95 22 -43 46 -84 53 -91 7 -8 10 -18 7 -23 -4 -5 -3 -9 2 -9 10 0 43
-57 43 -75 0 -7 4 -15 8 -17 5 -1 30 -42 55 -90 25 -47 56 -103 68 -125 12
-21 33 -58 47 -83 13 -25 37 -68 53 -96 16 -28 26 -54 22 -57 -3 -4 2 -7 11
-7 12 0 16 -5 12 -15 -3 -8 -1 -15 4 -15 5 0 14 -16 21 -35 7 -19 17 -35 21
-35 4 0 8 -5 8 -10 0 -6 11 -28 25 -50 14 -22 22 -40 18 -40 -5 0 -3 -4 3 -8
5 -4 18 -23 27 -42 10 -19 31 -57 47 -85 16 -27 41 -75 57 -105 15 -30 31 -57
36 -58 4 -2 5 -8 1 -13 -3 -5 -1 -9 4 -9 6 0 15 -12 21 -27 6 -16 20 -44 31
-63 38 -64 44 -75 45 -80 0 -3 8 -16 18 -30 15 -23 23 -26 77 -25 58 1 62 -1
79 -30 32 -53 112 -199 167 -305 16 -30 32 -57 35 -60 10 -8 43 -74 41 -82 -1
-3 5 -12 13 -18 8 -7 15 -19 15 -26 0 -8 4 -14 9 -14 5 0 12 -13 16 -30 4 -16
11 -30 16 -30 6 0 8 -4 5 -9 -4 -5 -2 -11 3 -13 5 -1 27 -37 49 -78 22 -41 56
-104 76 -140 21 -36 40 -73 43 -82 3 -10 10 -18 15 -18 5 0 6 -4 3 -10 -3 -6
-1 -10 5 -10 6 0 9 -4 6 -9 -4 -5 -3 -11 1 -13 5 -1 26 -37 47 -78 22 -41 42
-77 46 -80 4 -3 11 -16 15 -30 4 -14 11 -27 15 -30 3 -3 18 -28 32 -57 14 -29
28 -49 32 -46 3 4 6 0 6 -8 0 -20 23 -69 33 -69 4 0 7 -6 7 -13 0 -7 11 -29
25 -48 13 -20 21 -39 18 -43 -4 -3 -1 -6 5 -6 7 0 12 -6 12 -13 0 -7 11 -29
25 -49 14 -20 25 -44 25 -52 0 -9 4 -16 10 -16 5 0 12 -11 16 -25 3 -14 9 -25
13 -25 3 0 15 -20 25 -43 10 -24 25 -44 32 -44 8 0 14 3 14 7 0 3 23 13 51 20
27 8 53 18 55 22 3 5 10 6 15 3 5 -4 9 -1 9 4 0 6 3 10 8 9 6 -2 32 7 82 27 3
1 20 8 38 14 30 12 45 41 21 41 -5 0 -7 5 -4 10 3 6 2 10 -3 10 -5 0 -15 14
-22 30 -7 16 -16 30 -21 30 -5 0 -9 6 -9 14 0 8 -6 21 -14 28 -7 8 -22 29 -32
47 -23 40 -28 49 -77 124 -20 31 -37 62 -37 67 0 6 -4 10 -9 10 -5 0 -14 14
-21 30 -7 17 -16 30 -21 30 -5 0 -9 4 -9 9 0 9 -78 140 -90 151 -3 3 -11 15
-17 28 -7 12 -19 32 -25 45 -7 12 -15 24 -18 27 -3 3 -32 48 -64 100 -33 52
-74 118 -93 147 -18 28 -33 56 -33 62 0 6 -4 11 -8 11 -5 0 -17 17 -28 38 -10
20 -26 43 -34 50 -13 12 -13 13 0 6 8 -4 5 4 -7 17 -25 27 -123 188 -123 201
0 4 -4 8 -8 8 -5 0 -15 12 -23 28 -8 15 -16 29 -19 32 -8 8 -29 43 -42 70 -7
14 -15 27 -19 30 -3 3 -18 26 -33 51 l-26 46 32 -4 c98 -12 118 -11 118 3 0 8
-4 14 -9 14 -5 0 -16 16 -25 35 -9 19 -22 35 -28 35 -5 0 -8 6 -5 14 3 8 -1
17 -10 20 -9 4 -13 9 -10 12 3 4 1 12 -6 20 -25 28 -33 39 -33 46 1 4 -7 17
-16 28 -10 11 -18 25 -18 30 0 6 -4 10 -10 10 -5 0 -10 4 -10 9 0 15 -73 131
-83 131 -5 0 -7 7 -3 15 3 8 1 15 -4 15 -5 0 -19 17 -30 38 -23 43 -43 75 -50
82 -8 8 -29 43 -43 70 -6 14 -20 34 -29 44 -10 11 -18 26 -18 33 0 7 -4 13
-10 13 -5 0 -10 7 -10 15 0 8 -5 15 -11 15 -5 0 -8 4 -5 9 4 5 3 11 -1 13 -11
4 -83 116 -83 128 0 5 -4 10 -10 10 -5 0 -10 5 -10 11 0 5 -18 37 -40 69 -22
32 -40 62 -40 65 0 8 -43 68 -55 77 -5 4 -6 8 -1 8 5 0 2 8 -6 18 -8 9 -52 78
-99 152 -46 74 -88 138 -94 142 -5 4 -6 8 -1 8 5 0 2 8 -6 18 -22 25 -138 213
-138 223 0 5 -4 9 -10 9 -5 0 -10 6 -10 13 0 7 -9 23 -20 35 -11 12 -20 24
-20 28 0 3 -13 26 -30 51 -16 24 -30 46 -30 48 0 2 -18 31 -40 64 -22 33 -40
65 -40 71 0 5 -4 10 -9 10 -5 0 -14 14 -21 30 -7 17 -16 30 -21 30 -5 0 -9 5
-9 10 0 6 -18 38 -40 71 -22 33 -40 64 -40 68 0 5 -7 14 -15 21 -9 7 -13 15
-11 17 3 3 -4 14 -15 26 -10 11 -19 27 -19 34 0 7 -4 13 -8 13 -5 0 -23 27
-42 60 -19 33 -38 60 -44 60 -5 0 -7 3 -4 6 4 3 -5 22 -18 42 -40 60 -42 63
-99 155 -30 48 -52 87 -50 87 3 0 -4 9 -15 20 -11 11 -20 25 -20 30 0 6 -5 16
-10 23 -30 36 -78 116 -73 121 4 3 2 6 -4 6 -5 0 -18 16 -29 35 -10 19 -22 35
-26 35 -5 0 -8 6 -8 13 0 8 -13 32 -29 54 -16 22 -37 55 -46 73 -9 18 -21 38
-26 44 -19 23 -60 88 -62 99 -1 7 -10 18 -20 25 -9 7 -15 17 -12 22 3 5 -6 20
-19 33 -14 14 -22 28 -19 31 4 3 1 6 -5 6 -7 0 -12 5 -12 10 0 9 -51 94 -91
151 -7 10 -11 20 -10 23 1 4 -4 13 -11 21 -31 34 -36 43 -31 49 4 3 0 6 -7 6
-7 0 -10 3 -7 6 4 4 -3 15 -15 25 -11 11 -18 19 -14 19 4 0 -11 27 -34 59 -22
33 -40 65 -40 70 0 6 -4 11 -9 11 -5 0 -12 8 -15 18 -12 31 -62 112 -67 107
-3 -2 -11 11 -18 30 -7 19 -17 35 -22 35 -5 0 -9 5 -9 10 0 6 -22 44 -50 86
-27 41 -50 79 -50 83 0 4 -9 19 -20 32 -30 37 -35 44 -38 58 -1 7 -9 20 -17
28 -8 8 -15 19 -15 24 0 6 -6 17 -12 24 -28 31 -35 41 -48 73 -8 17 -18 32
-22 32 -5 0 -8 7 -8 15 0 8 -4 15 -10 15 -5 0 -10 7 -10 15 0 8 -4 15 -8 15
-4 0 -14 16 -21 35 -7 19 -15 33 -19 31 -4 -2 -18 18 -31 45 -14 27 -29 49
-33 49 -4 0 -8 4 -8 10 0 5 -25 48 -55 95 -30 47 -52 85 -48 85 4 0 -2 7 -13
15 -10 8 -14 15 -9 15 6 0 5 3 -1 8 -6 4 -35 45 -64 92 -29 47 -57 88 -62 91
-5 3 -9 9 -9 13 1 3 -6 17 -14 31 -8 14 -22 36 -30 50 -8 14 -15 27 -15 30 0
3 -8 15 -18 26 -11 11 -30 40 -42 64 -13 25 -27 45 -32 45 -4 0 -8 4 -8 10 0
5 -31 59 -70 120 -38 61 -70 113 -70 116 0 3 -9 14 -20 26 -11 12 -20 28 -20
35 0 7 -4 13 -10 13 -5 0 -10 4 -10 9 0 5 -43 77 -95 160 -52 83 -95 155 -95
160 0 5 -3 11 -7 13 -11 4 -83 116 -83 127 0 5 -3 11 -7 13 -10 4 -73 107 -73
119 0 5 -4 9 -9 9 -5 0 -14 14 -21 30 -7 17 -16 30 -21 30 -5 0 -9 6 -9 13 0
7 -9 23 -20 35 -11 12 -20 25 -20 29 0 5 -6 15 -14 25 -8 9 -12 19 -9 22 4 3
1 6 -5 6 -7 0 -12 7 -12 15 0 8 -4 15 -10 15 -5 0 -10 6 -10 14 0 8 -6 21 -13
28 -11 11 -30 42 -87 137 -42 70 -71 111 -80 111 -5 0 -7 9 -5 20 2 11 2 20
-1 20 -2 0 -4 -1 -5 -2z"/>
<path d="M11216 12467 c3 -10 9 -15 12 -12 3 3 0 11 -7 18 -10 9 -11 8 -5 -6z"/>
<path d="M11234 12427 c1 -7 11 -26 23 -41 12 -15 25 -37 29 -49 4 -12 10 -24
13 -27 4 -3 22 -35 41 -72 18 -38 37 -68 42 -68 4 0 7 -3 7 -7 -3 -18 2 -32
14 -45 13 -13 40 -70 37 -77 -1 -2 2 -7 7 -10 5 -3 31 -46 58 -96 67 -125 69
-129 75 -135 3 -3 12 -18 20 -35 8 -16 39 -72 67 -124 29 -51 53 -97 53 -102
0 -4 6 -14 13 -21 7 -7 25 -38 40 -68 16 -30 48 -91 73 -135 25 -44 52 -93 60
-110 36 -70 48 -90 56 -96 5 -3 10 -13 12 -21 1 -8 9 -26 17 -39 8 -13 23 -41
33 -61 9 -21 21 -38 26 -38 6 0 9 -3 8 -7 -1 -9 13 -46 21 -53 12 -10 31 -50
31 -65 0 -8 3 -15 8 -15 4 0 23 -31 42 -68 19 -37 38 -68 43 -70 4 -2 7 -8 7
-14 0 -6 20 -45 44 -87 24 -42 60 -107 81 -146 46 -86 57 -106 70 -125 5 -8
10 -22 12 -30 1 -8 7 -16 13 -18 5 -2 8 -8 4 -13 -3 -5 0 -9 5 -9 6 0 11 -7
11 -15 0 -8 5 -15 10 -15 6 0 10 -7 10 -15 0 -8 14 -36 30 -62 17 -26 30 -52
30 -59 0 -7 3 -14 8 -16 4 -1 23 -33 42 -70 19 -38 38 -68 42 -68 5 0 7 -3 6
-7 -2 -11 24 -63 32 -63 4 0 7 -6 7 -13 0 -6 12 -31 26 -55 15 -23 24 -42 20
-42 -5 0 -3 -4 2 -8 11 -8 17 -18 69 -114 18 -35 46 -85 61 -113 16 -27 38
-68 49 -90 12 -22 23 -42 27 -45 3 -3 19 -32 36 -65 17 -33 47 -89 68 -125 20
-36 43 -78 51 -95 8 -16 31 -57 50 -90 19 -33 44 -78 55 -100 11 -22 30 -58
43 -80 40 -71 89 -159 110 -200 12 -22 23 -42 26 -45 3 -3 16 -27 30 -55 13
-27 27 -52 30 -55 3 -3 16 -25 29 -50 58 -109 96 -180 137 -251 24 -42 44 -79
44 -82 0 -5 97 -180 120 -217 6 -8 18 -32 27 -52 10 -21 21 -38 25 -38 5 0 8
-9 8 -20 0 -11 3 -20 8 -20 4 0 12 -10 17 -23 17 -35 79 -151 85 -157 3 -3 14
-23 25 -45 10 -22 26 -48 34 -57 8 -10 11 -18 7 -18 -4 0 0 -7 8 -16 9 -8 16
-22 16 -30 0 -8 5 -14 10 -14 6 0 10 -9 10 -20 0 -11 3 -20 8 -20 8 0 38 -61
34 -72 -1 -5 3 -8 8 -8 6 0 15 -11 20 -25 5 -13 21 -42 35 -65 14 -22 22 -40
18 -40 -5 0 -3 -4 3 -8 14 -9 49 -74 46 -84 -1 -5 2 -8 7 -8 8 0 24 -37 22
-52 -1 -5 3 -8 8 -8 5 0 19 -21 32 -47 12 -27 25 -50 28 -53 9 -8 46 -83 44
-89 -1 -3 5 -10 13 -14 8 -4 14 -14 14 -21 0 -7 11 -30 25 -50 13 -20 22 -36
19 -36 -3 0 3 -12 13 -27 10 -16 28 -45 38 -65 11 -21 23 -38 28 -38 4 0 6 -4
3 -9 -3 -5 5 -25 19 -45 14 -20 25 -43 25 -51 0 -8 4 -15 8 -15 5 0 21 -27 37
-60 16 -33 31 -60 35 -60 3 0 12 -16 19 -35 7 -19 16 -35 20 -35 4 0 8 -6 8
-12 0 -7 14 -37 32 -66 17 -29 31 -57 31 -62 0 -6 4 -10 8 -10 7 0 27 -43 29
-64 1 -5 6 -12 11 -15 5 -3 24 -34 41 -68 18 -34 36 -65 42 -68 5 -4 7 -11 4
-16 -4 -5 -2 -9 3 -9 6 0 17 -17 26 -37 18 -44 73 -143 87 -157 5 -6 9 -18 9
-28 0 -14 9 -18 40 -19 22 -1 49 -2 60 -3 20 -1 64 -59 53 -70 -4 -3 -1 -6 6
-6 7 0 19 -17 28 -37 8 -21 24 -50 35 -65 11 -16 16 -28 11 -28 -4 0 -3 -4 2
-8 11 -8 18 -19 71 -119 20 -37 40 -71 46 -74 5 -3 9 -8 7 -10 -1 -2 9 -24 22
-49 12 -25 22 -48 21 -52 -1 -5 2 -8 7 -8 5 0 15 -16 22 -35 7 -19 16 -35 19
-35 4 0 12 -16 20 -35 8 -19 17 -35 22 -35 4 0 8 -6 8 -12 0 -7 10 -29 22 -48
12 -19 23 -42 24 -50 2 -8 8 -16 13 -18 6 -2 11 -12 11 -22 0 -10 4 -20 8 -22
8 -3 62 -99 124 -218 13 -25 26 -46 31 -48 4 -2 7 -9 7 -16 0 -6 11 -28 25
-47 13 -20 21 -39 18 -43 -4 -3 -2 -6 4 -6 6 0 13 -8 16 -17 4 -10 27 -54 52
-98 25 -44 51 -91 57 -105 26 -54 59 -100 71 -100 7 0 22 7 32 15 39 30 96 65
105 65 6 0 10 5 10 11 0 5 5 7 10 4 6 -3 10 -2 10 4 0 5 9 13 20 16 17 5 18 9
8 28 -7 12 -11 25 -10 30 1 4 -2 7 -6 7 -4 0 -21 25 -37 55 -17 30 -33 55 -37
55 -5 0 -8 7 -8 15 0 8 -4 15 -10 15 -5 0 -10 6 -10 13 0 7 -9 23 -20 35 -12
12 -18 22 -14 22 4 0 -2 10 -13 22 -11 13 -24 33 -28 46 -3 12 -11 22 -17 22
-6 0 -9 3 -5 6 3 3 -3 15 -13 27 -11 11 -17 24 -14 29 3 4 1 8 -5 8 -5 0 -13
9 -16 20 -3 11 -12 26 -18 33 -18 20 -51 69 -67 102 -8 17 -21 34 -27 38 -7 4
-13 13 -13 18 0 6 -13 30 -30 54 -16 24 -30 48 -30 53 0 6 -7 13 -16 16 -9 4
-14 13 -10 21 3 8 1 15 -5 15 -5 0 -15 12 -22 28 -6 15 -16 32 -22 39 -5 7
-16 19 -23 28 -7 8 -10 15 -7 15 3 0 1 6 -5 13 -16 18 -60 87 -60 93 0 3 -18
32 -40 64 -22 32 -40 64 -40 69 0 6 -4 11 -8 11 -5 0 -15 12 -23 28 -8 15 -37
63 -65 107 -62 98 -70 118 -46 111 9 -3 40 -6 67 -7 28 -1 57 -5 65 -9 8 -4
24 -4 35 0 11 4 28 4 37 -1 23 -12 32 5 13 24 -8 9 -15 18 -15 21 0 3 -17 32
-37 63 -21 32 -43 67 -49 78 -29 54 -40 71 -52 78 -7 5 -10 12 -7 18 4 5 2 9
-3 9 -5 0 -12 8 -16 18 -3 9 -33 59 -66 110 -33 51 -60 97 -60 102 0 4 -3 10
-7 12 -11 4 -63 86 -63 98 0 5 -4 10 -10 10 -5 0 -10 7 -10 15 0 8 -4 15 -10
15 -5 0 -10 4 -10 10 0 5 -17 36 -37 67 -21 32 -42 66 -48 75 -5 10 -46 75
-90 145 -44 69 -87 138 -95 152 -9 14 -27 44 -41 66 -15 22 -26 42 -25 45 1 3
-9 16 -21 30 -13 13 -23 30 -23 37 0 7 -3 13 -8 13 -7 0 -13 9 -42 66 -8 16
-19 34 -25 41 -5 7 -15 19 -22 27 -6 7 -9 17 -6 20 4 3 1 6 -6 6 -7 0 -9 5 -6
10 3 6 3 10 -2 10 -8 0 -43 55 -42 67 0 3 -3 9 -8 12 -11 8 -53 69 -53 76 0 4
-14 28 -32 53 -61 91 -68 101 -68 107 0 3 -22 39 -50 81 -27 41 -50 79 -50 83
0 4 -9 17 -20 29 -12 12 -18 22 -15 22 3 0 1 6 -5 13 -6 6 -26 37 -45 67 -19
30 -39 60 -45 67 -5 7 -10 15 -10 18 0 4 -14 26 -30 51 -17 24 -28 44 -25 44
4 0 0 7 -7 15 -25 27 -50 65 -68 100 -6 11 -24 40 -40 65 -16 25 -43 70 -61
100 -18 30 -36 57 -41 58 -4 2 -8 9 -8 17 0 7 -7 18 -15 25 -8 7 -13 16 -10
20 3 4 -1 10 -8 13 -6 3 -21 22 -32 43 -11 22 -22 41 -25 44 -7 6 -41 58 -56
85 -6 11 -30 49 -53 85 -22 36 -45 75 -51 88 -5 12 -14 22 -20 22 -5 0 -10 5
-10 10 0 6 -16 36 -35 66 -19 30 -35 59 -35 64 0 6 -4 10 -10 10 -5 0 -10 7
-10 15 0 8 -5 15 -11 15 -5 0 -7 5 -4 10 3 6 2 10 -3 10 -5 0 -15 14 -22 30
-7 17 -16 30 -21 30 -5 0 -9 6 -9 14 0 8 -6 21 -14 28 -7 8 -22 29 -32 47 -23
40 -28 49 -77 124 -20 31 -37 62 -37 67 0 6 -4 10 -8 10 -5 0 -19 20 -32 45
-12 24 -30 52 -39 62 -9 11 -17 25 -19 33 -2 8 -8 17 -13 18 -5 2 -9 7 -9 12
0 5 -18 36 -40 69 -22 33 -40 64 -40 70 0 5 -3 11 -8 13 -6 3 -202 309 -211
331 -2 5 -29 48 -60 96 -32 47 -60 93 -64 101 -4 8 -25 42 -47 75 -22 33 -43
68 -46 78 -4 9 -10 17 -15 17 -5 0 -9 6 -9 13 0 7 -9 23 -20 35 -12 12 -18 22
-15 22 3 0 1 6 -5 13 -20 23 -60 88 -60 96 0 5 -7 14 -15 21 -8 7 -12 16 -9
21 3 5 1 9 -5 9 -6 0 -18 16 -27 35 -9 19 -20 35 -24 35 -4 0 -11 11 -14 25
-4 14 -11 25 -16 25 -6 0 -10 5 -10 10 0 12 -52 94 -63 98 -4 2 -5 8 -1 13 3
5 0 9 -5 9 -6 0 -11 6 -11 14 0 7 -7 19 -15 26 -8 7 -12 16 -9 21 3 5 1 9 -5
9 -6 0 -19 17 -30 38 -22 41 -104 170 -120 189 -6 7 -11 17 -11 22 0 5 -6 16
-12 23 -16 17 -27 34 -74 116 -19 34 -40 62 -45 62 -6 0 -7 5 -4 10 3 6 2 10
-3 10 -5 0 -12 8 -16 18 -3 9 -15 31 -26 47 -11 17 -23 38 -26 48 -4 9 -10 17
-15 17 -5 0 -9 7 -9 15 0 8 -5 15 -11 15 -5 0 -7 5 -4 10 3 6 3 10 -2 10 -9 0
-47 62 -45 73 1 4 -3 7 -8 7 -6 0 -10 6 -10 13 0 7 -9 23 -20 35 -12 12 -18
22 -15 22 3 0 1 6 -5 13 -6 6 -23 32 -39 57 -15 25 -49 78 -75 118 -25 39 -52
83 -58 97 -6 14 -15 25 -20 25 -4 0 -8 7 -8 15 0 8 -4 15 -10 15 -5 0 -10 4
-10 10 0 5 -23 45 -50 87 -28 43 -50 82 -49 86 0 5 -9 17 -20 26 -12 10 -21
25 -21 34 0 8 -7 18 -16 21 -8 3 -12 10 -9 16 3 5 1 10 -4 10 -6 0 -11 7 -11
15 0 8 -4 15 -10 15 -5 0 -10 7 -10 15 0 8 -5 15 -11 15 -5 0 -8 4 -4 9 3 6
-3 14 -12 20 -10 6 -14 11 -9 11 4 0 -4 16 -18 35 -15 19 -24 35 -21 35 3 0 1
6 -4 13 -47 56 -66 81 -63 84 6 7 1 23 -7 23 -5 0 -8 -6 -7 -13z"/>
<path d="M10631 11965 c15 -19 34 -60 27 -60 -2 0 7 -11 19 -24 12 -13 20 -28
17 -33 -3 -4 0 -8 5 -8 6 0 11 -7 11 -15 0 -8 5 -15 10 -15 16 0 12 15 -11 44
-11 14 -18 26 -14 26 3 0 -3 10 -15 22 -11 12 -20 27 -20 33 0 7 -10 20 -22
31 -23 19 -23 19 -7 -1z"/>
<path d="M4530 11919 c0 -5 5 -7 10 -4 6 3 10 8 10 11 0 2 -4 4 -10 4 -5 0
-10 -5 -10 -11z"/>
<path d="M4547 11889 c7 -7 15 -10 18 -7 3 3 -2 9 -12 12 -14 6 -15 5 -6 -5z"/>
<path d="M4581 11833 c11 -21 28 -51 38 -68 10 -16 17 -33 15 -37 -3 -4 0 -9
6 -13 13 -8 35 5 24 14 -10 6 -17 19 -61 93 -33 56 -52 65 -22 11z"/>
<path d="M10725 11800 c-3 -5 -1 -10 5 -10 7 0 10 -6 8 -12 -3 -7 3 -21 13
-32 10 -10 21 -31 24 -47 3 -15 13 -30 21 -33 8 -3 14 -14 14 -25 0 -11 3 -21
8 -23 7 -3 33 -49 86 -153 17 -33 33 -62 37 -65 3 -3 13 -21 23 -40 10 -19 33
-62 52 -95 18 -33 39 -71 46 -85 6 -14 18 -33 26 -42 9 -10 12 -18 9 -18 -4 0
7 -21 23 -47 17 -26 30 -52 30 -59 0 -7 3 -14 8 -16 4 -1 23 -32 41 -68 19
-36 45 -82 58 -102 13 -21 20 -38 16 -38 -5 0 -3 -4 3 -8 11 -7 15 -14 69
-119 17 -32 33 -59 38 -61 4 -2 7 -7 7 -12 0 -4 18 -40 40 -79 22 -39 40 -76
40 -82 0 -7 8 -17 17 -24 9 -7 17 -19 19 -28 1 -9 12 -30 23 -46 12 -16 21
-36 21 -45 0 -9 4 -16 9 -16 5 0 14 -15 22 -32 7 -18 16 -35 19 -38 3 -3 14
-21 23 -40 10 -19 26 -48 36 -65 9 -16 39 -70 66 -120 58 -108 84 -156 141
-257 24 -43 44 -79 44 -81 0 -2 25 -47 55 -100 30 -52 55 -100 55 -106 0 -5 6
-16 13 -23 6 -7 19 -26 27 -43 8 -16 23 -42 33 -57 10 -16 15 -28 10 -28 -4 0
-3 -4 3 -8 6 -4 30 -43 53 -87 72 -137 103 -190 115 -197 6 -4 8 -8 3 -8 -4 0
0 -12 10 -27 9 -14 18 -33 19 -41 2 -8 6 -18 11 -21 9 -7 15 -18 63 -109 17
-34 36 -65 41 -68 5 -3 7 -10 4 -15 -4 -5 -1 -9 5 -9 6 0 8 -4 5 -10 -3 -5 -2
-10 4 -10 9 0 27 -40 22 -49 -2 -2 2 -7 7 -10 12 -8 122 -206 122 -220 0 -6 4
-11 9 -11 5 0 13 -10 17 -22 4 -13 15 -34 25 -47 11 -13 19 -32 19 -42 0 -11
4 -19 8 -19 9 0 47 -71 44 -82 -1 -5 3 -8 8 -8 6 0 10 -7 10 -15 0 -8 5 -15
11 -15 5 0 8 -4 5 -9 -4 -5 -3 -11 1 -13 5 -1 21 -28 37 -58 15 -30 38 -73 49
-95 12 -22 23 -42 26 -45 4 -3 16 -25 29 -50 68 -131 98 -186 108 -196 6 -7
17 -27 24 -46 8 -18 16 -35 19 -38 3 -3 11 -14 17 -25 6 -11 30 -56 54 -100
24 -44 52 -96 63 -115 11 -19 38 -69 60 -110 23 -41 51 -93 64 -115 12 -22 28
-51 35 -65 7 -14 17 -28 23 -32 5 -4 6 -8 2 -8 -5 0 0 -12 10 -27 10 -16 25
-41 33 -58 8 -16 17 -32 20 -35 3 -3 17 -27 30 -55 14 -27 27 -52 30 -55 3 -3
12 -18 20 -35 8 -16 21 -38 29 -47 8 -10 11 -18 7 -18 -4 0 2 -13 13 -29 12
-16 21 -34 21 -39 0 -6 3 -12 8 -14 4 -1 23 -34 42 -73 19 -38 38 -72 41 -75
3 -3 21 -34 40 -70 18 -36 38 -68 44 -72 5 -4 6 -8 1 -8 -5 0 -3 -8 6 -17 8
-10 25 -40 39 -68 13 -27 26 -52 29 -55 3 -3 12 -18 20 -35 8 -16 17 -32 20
-35 5 -4 18 -30 79 -148 8 -15 18 -30 23 -33 5 -3 10 -13 12 -21 1 -8 9 -27
19 -41 9 -15 17 -31 17 -37 0 -5 5 -10 10 -10 6 0 10 -9 10 -20 0 -11 4 -20 8
-20 5 0 19 -25 33 -55 13 -30 27 -55 30 -55 3 0 16 -22 29 -49 l23 -49 48 2
c26 2 52 0 57 -3 5 -3 24 -35 43 -71 19 -36 36 -67 39 -70 14 -12 50 -82 50
-96 0 -8 3 -14 8 -14 4 0 16 -19 27 -43 11 -23 22 -44 25 -47 3 -3 19 -29 34
-59 38 -74 50 -95 57 -101 8 -7 22 -44 21 -52 -1 -5 2 -8 7 -8 5 0 14 -12 20
-27 6 -16 21 -46 34 -68 13 -22 40 -71 61 -110 21 -38 43 -73 49 -76 5 -4 6
-12 3 -18 -4 -6 -3 -11 3 -11 5 0 15 -16 22 -35 7 -19 17 -35 21 -35 4 0 8 -9
8 -19 0 -10 7 -22 16 -25 8 -3 13 -10 10 -15 -4 -5 -3 -11 1 -13 5 -1 24 -33
43 -70 19 -38 38 -68 41 -68 3 0 6 -6 6 -13 0 -6 11 -31 26 -53 14 -23 23 -45
20 -48 -4 -3 -1 -6 5 -6 7 0 12 -6 12 -12 0 -7 9 -24 20 -38 11 -14 20 -33 20
-42 0 -10 3 -18 8 -18 4 0 23 -30 42 -67 19 -38 37 -70 40 -73 3 -3 16 -25 29
-50 72 -138 104 -196 113 -201 5 -3 10 -10 10 -15 0 -5 4 -19 9 -32 10 -25 29
-24 107 9 23 10 45 18 47 18 10 0 95 40 95 45 0 2 -6 11 -14 18 -7 8 -23 32
-35 54 -41 74 -56 98 -73 117 -9 11 -24 35 -33 53 -8 18 -20 36 -25 39 -6 4
-8 11 -5 16 4 5 3 9 -2 9 -4 0 -21 21 -38 48 -16 26 -34 50 -40 54 -5 4 -7 8
-3 8 4 0 -15 34 -42 75 -28 41 -50 77 -50 80 0 3 -13 24 -30 47 -16 22 -30 47
-30 55 0 7 -4 13 -9 13 -5 0 -16 15 -25 34 -8 18 -22 39 -31 46 -8 7 -15 16
-15 21 0 5 -25 47 -55 94 -30 46 -55 89 -55 95 0 5 -4 10 -8 10 -5 0 -16 16
-25 36 -10 19 -22 40 -27 47 -20 23 -59 87 -54 87 2 0 -4 9 -15 21 -11 12 -25
34 -31 50 -7 16 -16 29 -21 29 -5 0 -9 4 -9 9 0 11 -202 335 -212 339 -5 2 -8
8 -8 13 0 11 -70 122 -83 130 -14 10 31 17 123 19 47 1 90 2 97 3 16 1 -2 46
-28 70 -10 10 -19 22 -19 28 0 5 -8 22 -18 37 -44 64 -112 172 -112 177 0 3
-5 11 -10 18 -6 7 -31 46 -57 87 -25 41 -55 88 -66 104 -11 16 -20 35 -20 42
0 7 -3 11 -7 9 -3 -2 -15 13 -25 33 -11 20 -22 39 -25 42 -22 22 -50 73 -44
82 4 7 3 8 -4 4 -7 -4 -12 -1 -12 9 0 8 -9 23 -19 32 -11 9 -18 20 -15 25 3 4
1 8 -4 8 -5 0 -15 14 -22 30 -7 17 -15 30 -19 30 -3 0 -17 23 -31 51 -14 28
-31 54 -37 56 -7 3 -13 11 -13 18 0 8 -11 26 -24 42 -13 15 -25 33 -26 38 -1
6 -18 35 -38 65 -19 30 -50 79 -68 107 -19 29 -34 57 -34 63 0 5 -5 10 -11 10
-5 0 -8 4 -5 9 4 5 2 11 -2 13 -11 4 -82 115 -82 128 0 6 -4 10 -10 10 -5 0
-10 7 -10 15 0 8 -3 15 -8 15 -7 0 -21 22 -44 73 -7 15 -16 27 -20 27 -4 0 -8
7 -8 15 0 8 -5 15 -11 15 -5 0 -7 5 -4 10 3 6 1 10 -5 10 -6 0 -13 8 -17 18
-4 9 -19 36 -35 59 -15 23 -28 44 -28 48 0 3 -5 11 -10 18 -6 7 -26 37 -45 67
-19 30 -39 60 -44 66 -5 7 -7 15 -4 18 4 3 1 6 -5 6 -7 0 -12 5 -12 10 0 6 -5
16 -10 23 -20 23 -60 88 -60 96 0 5 -7 14 -15 21 -8 7 -12 16 -9 21 3 5 0 9
-6 9 -6 0 -14 8 -17 18 -4 9 -18 32 -31 50 -13 17 -21 32 -18 32 4 0 -2 10
-14 22 -11 12 -20 26 -20 30 0 5 -9 18 -20 30 -10 12 -17 25 -14 30 3 4 0 8
-6 8 -6 0 -9 4 -6 9 3 5 -1 11 -9 15 -8 3 -15 12 -15 21 0 8 -3 15 -8 15 -4 0
-16 17 -27 37 -11 21 -41 70 -67 110 -27 40 -48 77 -48 83 0 5 -4 10 -10 10
-5 0 -10 6 -10 13 0 7 -9 23 -20 35 -12 12 -18 22 -15 22 3 0 -5 15 -19 33
-15 19 -26 37 -26 41 0 4 -11 22 -25 40 -14 18 -25 36 -25 40 0 4 -11 22 -25
40 -14 18 -25 38 -25 44 0 7 -4 12 -10 12 -5 0 -10 7 -10 15 0 8 -4 15 -10 15
-5 0 -10 6 -10 14 0 8 -6 21 -14 28 -7 8 -21 27 -30 43 -23 42 -37 65 -64 103
-13 17 -20 32 -17 32 3 0 -3 10 -15 22 -11 12 -20 27 -20 34 0 7 -4 14 -8 16
-10 4 -72 105 -72 118 0 6 -4 10 -8 10 -4 0 -16 15 -26 33 -11 17 -37 61 -60
96 -23 36 -40 66 -38 68 1 2 -5 11 -14 21 -21 24 -194 302 -194 313 0 5 -4 9
-10 9 -5 0 -12 11 -16 25 -3 14 -10 25 -14 25 -4 0 -13 14 -19 30 -5 17 -14
30 -18 30 -4 0 -19 21 -33 48 -13 26 -27 49 -30 52 -4 3 -32 48 -64 100 -32
52 -65 103 -74 113 -8 9 -11 17 -6 17 5 0 4 4 -1 8 -15 10 -80 115 -77 124 1
5 -2 8 -6 8 -5 0 -17 16 -28 35 -10 19 -22 35 -26 35 -5 0 -8 6 -8 13 0 6 -25
50 -55 95 -30 46 -55 88 -55 93 0 5 -4 9 -10 9 -5 0 -10 6 -10 14 0 7 -7 19
-15 26 -9 7 -13 15 -11 17 3 3 -4 14 -14 25 -10 12 -26 36 -35 54 -9 19 -21
34 -27 34 -6 0 -8 3 -5 7 4 3 0 15 -10 25 -9 10 -12 18 -7 18 5 0 4 4 -1 8 -6
4 -22 25 -36 47 -64 98 -114 179 -113 184 0 6 -9 18 -33 46 -7 7 -13 17 -13
20 0 4 -13 27 -30 52 -16 24 -30 46 -30 49 0 3 -9 14 -20 26 -10 12 -17 25
-14 30 3 4 1 8 -3 8 -5 0 -22 25 -38 55 -17 30 -33 55 -37 55 -5 0 -8 4 -8 9
0 5 -22 44 -50 85 -27 42 -50 79 -50 84 0 5 -9 17 -20 27 -11 10 -20 27 -20
37 0 11 -4 16 -10 13 -5 -3 -10 -1 -10 5 0 6 -13 31 -30 54 -16 24 -26 46 -23
49 3 4 -2 9 -11 13 -9 3 -16 12 -16 19 0 7 -7 18 -15 25 -8 7 -12 17 -8 23 3
6 1 7 -5 3 -8 -5 -12 0 -12 12 0 11 -7 23 -16 26 -8 3 -13 10 -10 15 3 5 -1
15 -10 22 -9 7 -23 30 -31 51 -15 38 -27 47 -38 28z"/>
<path d="M4655 11700 c-3 -5 -2 -10 2 -10 5 0 15 -16 22 -35 7 -19 17 -35 22
-35 6 0 7 -5 3 -11 -3 -6 -2 -14 3 -18 5 -3 23 -31 39 -61 16 -30 31 -57 34
-60 6 -6 43 -74 73 -135 11 -22 22 -42 26 -45 3 -3 18 -27 32 -55 44 -85 140
-261 171 -312 11 -18 16 -33 11 -33 -4 0 -3 -4 3 -8 16 -11 57 -82 47 -82 -4
0 -3 -4 3 -8 6 -4 28 -41 50 -82 21 -41 41 -77 44 -80 6 -6 25 -40 52 -93 12
-23 30 -54 40 -69 11 -16 16 -28 12 -28 -4 0 -1 -8 7 -17 8 -10 24 -36 36 -58
11 -22 31 -58 43 -80 13 -22 34 -60 48 -85 13 -25 29 -50 33 -56 5 -6 6 -14 2
-17 -3 -4 -1 -7 5 -7 7 0 12 -6 12 -14 0 -7 7 -19 15 -26 9 -7 13 -15 10 -18
-3 -3 -1 -10 4 -16 11 -14 46 -76 80 -141 14 -27 30 -53 36 -57 5 -4 6 -8 2
-8 -5 0 0 -12 11 -27 11 -16 41 -68 67 -118 26 -49 53 -96 59 -104 5 -7 11
-20 12 -29 2 -8 6 -18 11 -21 4 -3 19 -28 33 -56 14 -27 28 -52 31 -55 3 -3
12 -20 20 -37 8 -18 17 -33 21 -33 5 0 8 -9 8 -20 0 -11 4 -20 9 -20 5 0 16
-17 25 -37 9 -21 28 -58 42 -83 14 -25 43 -76 64 -115 49 -91 85 -157 126
-227 18 -32 30 -58 26 -58 -4 0 -2 -4 4 -8 6 -4 30 -45 55 -92 24 -47 47 -87
50 -90 3 -3 12 -18 21 -35 48 -93 84 -161 88 -165 5 -5 40 -67 69 -125 9 -16
21 -33 26 -37 6 -4 7 -8 3 -8 -4 0 6 -21 22 -47 17 -26 30 -51 30 -56 0 -5 8
-21 19 -35 10 -15 39 -65 64 -112 24 -47 61 -114 81 -148 20 -35 36 -68 36
-73 0 -5 5 -9 10 -9 6 0 10 -9 10 -20 0 -11 3 -20 8 -20 4 0 13 -15 21 -32 8
-18 23 -45 33 -60 11 -16 16 -28 11 -28 -4 0 -1 -5 7 -10 8 -5 15 -13 15 -17
1 -8 15 -35 59 -113 14 -25 35 -65 48 -90 12 -25 24 -47 27 -50 3 -3 16 -23
27 -45 12 -22 36 -67 54 -100 18 -33 42 -78 54 -100 11 -22 23 -42 26 -45 6
-5 66 -118 85 -157 5 -13 14 -23 18 -23 5 0 6 -4 2 -9 -3 -5 1 -15 8 -23 7 -7
23 -35 37 -63 14 -27 31 -56 38 -63 6 -7 12 -20 12 -27 0 -7 6 -20 13 -27 11
-13 51 -85 101 -183 12 -22 23 -42 26 -45 3 -3 15 -25 28 -49 40 -77 57 -106
67 -113 6 -4 6 -8 2 -8 -5 0 0 -12 10 -27 11 -16 30 -50 44 -78 13 -27 27 -51
32 -53 4 -2 7 -8 7 -13 0 -4 20 -42 44 -83 24 -41 42 -77 38 -80 -3 -3 -1 -6
4 -6 5 0 18 -20 29 -45 11 -25 24 -45 28 -45 5 0 5 -4 2 -10 -3 -5 -1 -10 4
-10 6 0 11 -7 11 -15 0 -9 9 -28 21 -44 19 -26 24 -28 77 -24 47 4 59 1 68
-14 21 -35 77 -138 108 -198 17 -33 33 -62 36 -65 3 -3 12 -18 20 -35 8 -16
17 -32 20 -35 3 -3 21 -36 40 -75 19 -38 38 -72 41 -75 4 -3 19 -30 34 -60 15
-30 38 -72 51 -92 14 -21 21 -38 17 -38 -5 0 -3 -4 2 -8 10 -7 21 -27 69 -117
12 -22 23 -42 26 -45 3 -3 16 -27 30 -55 14 -27 27 -52 30 -55 3 -3 20 -34 39
-70 19 -36 42 -77 53 -92 10 -14 18 -33 18 -42 0 -9 3 -16 8 -16 4 0 15 -17
25 -37 9 -21 23 -47 29 -58 31 -50 42 -70 39 -74 -1 -2 1 -7 6 -10 4 -3 21
-31 37 -61 68 -130 119 -223 126 -230 5 -5 49 -88 88 -165 9 -16 18 -32 21
-35 3 -3 14 -22 25 -42 12 -24 24 -35 35 -33 9 2 41 11 71 19 30 8 91 24 134
36 44 11 83 23 87 26 8 5 -13 54 -23 54 -5 0 -8 8 -8 18 0 9 -9 23 -21 30 -12
7 -19 16 -16 19 3 3 -10 27 -29 54 -19 27 -34 51 -34 54 0 4 -18 33 -40 65
-22 32 -40 64 -40 69 0 6 -4 11 -9 11 -5 0 -12 8 -15 18 -8 20 -23 47 -53 89
-13 17 -23 36 -23 42 0 6 -4 11 -8 11 -8 0 -36 51 -32 58 1 2 -7 11 -17 20
-10 9 -27 35 -38 57 -11 22 -26 44 -32 48 -7 4 -13 14 -13 22 0 7 -6 20 -13
27 -7 7 -22 29 -33 48 -10 19 -21 37 -24 40 -13 12 -40 60 -34 60 4 0 -2 8
-12 18 -19 17 -35 42 -62 95 -7 15 -18 27 -24 27 -6 0 -9 3 -5 6 3 3 -19 44
-49 90 -30 46 -54 88 -54 93 0 5 -3 11 -7 13 -11 4 -63 86 -63 98 0 5 -4 10
-10 10 -5 0 -10 7 -10 15 0 8 -4 15 -10 15 -5 0 -10 4 -10 9 0 5 -49 87 -110
182 -154 246 -180 289 -172 290 4 0 24 2 44 4 20 1 41 6 47 10 6 3 11 1 11 -5
0 -6 4 -8 10 -5 10 6 5 17 -43 96 -41 66 -66 104 -77 117 -6 6 -7 12 -3 12 4
0 0 5 -9 11 -10 5 -18 18 -18 28 0 11 -7 21 -15 25 -8 3 -14 9 -13 13 2 11
-35 73 -44 73 -5 0 -8 5 -8 11 0 6 -13 31 -30 56 -16 24 -30 46 -30 48 0 3 -8
14 -17 25 -10 11 -18 24 -17 28 0 4 -4 12 -8 17 -20 25 -58 87 -58 95 0 6 -3
10 -8 10 -4 0 -12 9 -17 20 -6 11 -34 58 -63 105 -29 46 -52 86 -50 87 2 2 -6
14 -18 26 -11 12 -27 35 -35 50 -8 15 -17 29 -20 32 -3 3 -15 20 -25 39 -23
41 -29 51 -79 126 -21 33 -44 69 -50 80 -26 47 -40 70 -45 75 -10 10 -50 69
-50 74 0 3 -21 38 -47 78 -26 40 -48 75 -48 78 -1 9 -60 95 -67 98 -5 2 -8 10
-8 19 0 8 -6 21 -12 28 -25 27 -35 41 -39 51 -5 13 -181 297 -189 304 -3 3
-11 15 -17 28 -32 55 -39 67 -55 86 -10 11 -18 23 -18 27 0 4 -18 35 -40 68
-22 33 -40 64 -40 69 0 5 -9 17 -20 27 -11 10 -20 21 -20 26 0 4 -31 57 -70
118 -38 62 -70 116 -70 121 0 6 -4 10 -8 10 -5 0 -15 12 -23 28 -8 15 -16 29
-19 32 -9 9 -30 44 -40 68 -5 12 -14 22 -20 22 -5 0 -9 3 -8 8 3 9 -43 86 -54
90 -4 2 -8 8 -8 14 0 5 -13 29 -30 53 -16 24 -30 48 -30 54 0 6 -5 11 -11 11
-5 0 -7 5 -4 10 3 6 2 10 -3 10 -5 0 -21 23 -36 50 -15 28 -32 50 -37 50 -6 0
-8 4 -4 9 3 5 -2 16 -10 24 -8 9 -15 20 -15 26 0 6 -4 11 -10 11 -5 0 -10 5
-10 11 0 6 -13 30 -30 54 -16 24 -30 48 -30 54 0 6 -4 11 -10 11 -5 0 -10 6
-10 13 0 7 -8 22 -17 33 -10 10 -27 36 -38 57 -11 20 -23 37 -28 37 -4 0 -6 4
-3 8 3 5 -4 18 -14 30 -11 12 -20 23 -20 26 0 3 -13 25 -30 49 -16 25 -30 50
-30 56 0 6 -4 11 -8 11 -5 0 -15 12 -23 28 -21 42 -63 107 -72 110 -4 2 -5 8
-1 13 3 5 0 9 -5 9 -6 0 -11 7 -11 15 0 8 -4 15 -10 15 -5 0 -10 6 -10 13 0 8
-9 22 -20 32 -11 10 -17 21 -15 25 3 4 -2 13 -10 20 -8 7 -15 17 -15 22 0 5
-9 18 -20 30 -11 12 -20 28 -20 35 0 7 -4 13 -10 13 -5 0 -10 6 -10 14 0 7 -7
19 -15 26 -9 7 -13 15 -11 17 3 3 -6 17 -20 31 -13 15 -24 31 -24 36 0 5 -20
39 -45 77 -25 38 -45 73 -45 79 0 5 -4 10 -10 10 -5 0 -10 7 -10 15 0 8 -4 15
-10 15 -5 0 -10 5 -10 11 0 6 -13 30 -30 54 -16 24 -30 48 -30 53 0 6 -3 12
-7 14 -11 4 -113 167 -113 179 0 5 -4 9 -10 9 -5 0 -10 7 -10 15 0 8 -4 15
-10 15 -5 0 -10 6 -10 14 0 8 -6 21 -14 28 -7 8 -21 29 -31 48 -9 18 -21 38
-26 44 -20 24 -89 137 -89 146 0 6 -4 10 -9 10 -5 0 -14 14 -21 30 -7 17 -16
30 -21 30 -5 0 -9 5 -9 10 0 6 -12 29 -27 53 -16 23 -30 47 -33 52 -3 6 -24
39 -47 75 -23 36 -42 69 -42 73 0 5 -8 16 -19 25 -10 9 -22 27 -26 40 -4 12
-12 22 -17 22 -6 0 -8 4 -5 9 3 5 -1 14 -9 21 -8 7 -15 18 -15 25 0 8 -4 15
-8 17 -9 3 -72 105 -72 115 0 3 -7 14 -15 23 -8 9 -44 64 -80 121 -35 57 -68
109 -73 115 -5 5 -15 21 -22 35 -7 13 -16 26 -19 29 -3 3 -15 22 -26 43 -20
38 -29 44 -40 27z"/>
<path d="M10050 11469 c0 -8 18 -41 47 -88 12 -19 20 -38 17 -43 -3 -4 0 -8 5
-8 6 0 11 -6 11 -13 0 -7 9 -23 20 -35 11 -12 20 -28 20 -36 0 -8 6 -21 13
-28 14 -13 17 -19 25 -50 2 -10 8 -18 13 -18 4 0 13 -16 20 -35 7 -19 16 -35
19 -35 4 0 12 -16 20 -35 8 -19 18 -35 24 -35 5 0 6 -3 3 -6 -4 -4 2 -19 13
-34 11 -16 20 -31 20 -34 0 -3 13 -27 29 -55 16 -27 27 -52 24 -55 -4 -3 -2
-6 4 -6 9 0 37 -50 33 -59 -1 -2 2 -7 7 -10 4 -3 13 -15 19 -26 6 -11 30 -56
54 -100 24 -44 52 -96 63 -115 18 -32 46 -82 83 -150 8 -14 14 -30 14 -36 0
-7 7 -15 16 -18 9 -4 14 -9 11 -12 -3 -3 8 -27 24 -52 16 -25 29 -51 29 -56 0
-6 9 -22 20 -36 11 -14 20 -32 20 -42 0 -9 4 -18 9 -20 9 -3 62 -96 108 -188
16 -30 30 -57 33 -60 3 -3 16 -25 29 -50 13 -25 34 -63 46 -85 13 -22 33 -60
46 -85 13 -25 29 -48 34 -52 7 -5 7 -8 0 -8 -6 0 -6 -3 0 -8 6 -4 26 -36 44
-72 19 -36 45 -82 58 -102 13 -21 21 -38 17 -38 -3 0 2 -7 10 -16 9 -8 14 -20
11 -25 -4 -5 -2 -9 3 -9 5 0 19 -22 32 -50 13 -27 28 -50 33 -50 6 0 8 -3 5
-6 -4 -3 5 -22 18 -41 13 -20 24 -39 24 -44 0 -4 17 -36 37 -71 21 -35 38 -69
39 -77 2 -8 6 -17 11 -20 8 -6 30 -44 75 -131 13 -25 26 -47 29 -50 3 -3 12
-20 20 -37 8 -18 17 -33 21 -33 5 0 8 -9 8 -20 0 -11 3 -20 8 -20 4 0 13 -15
21 -32 8 -18 17 -35 20 -38 3 -3 26 -43 50 -90 25 -47 47 -87 51 -90 3 -3 12
-20 19 -37 8 -18 17 -33 22 -33 5 0 8 -3 7 -7 -4 -12 26 -73 34 -73 5 0 8 -5
8 -10 0 -6 8 -22 17 -37 10 -14 18 -32 19 -39 1 -8 9 -21 18 -30 9 -8 14 -20
11 -25 -4 -5 -2 -9 2 -9 5 0 22 -27 38 -60 17 -33 34 -60 38 -60 5 0 5 -4 2
-10 -3 -5 -1 -10 5 -10 6 0 8 -4 5 -10 -3 -5 -1 -10 5 -10 6 0 8 -4 5 -10 -3
-5 -1 -10 4 -10 6 0 11 -7 11 -15 0 -8 3 -15 8 -15 8 0 32 -49 32 -67 0 -7 5
-13 10 -13 6 0 10 -7 10 -15 0 -8 4 -15 8 -15 5 0 15 -18 22 -40 7 -22 16 -40
19 -40 3 0 24 -35 46 -77 22 -43 45 -81 50 -85 7 -5 7 -8 0 -8 -7 0 -7 -3 0
-8 6 -4 20 -25 32 -47 11 -22 31 -58 44 -80 32 -57 77 -141 111 -204 15 -30
33 -58 39 -62 6 -3 11 -10 11 -15 1 -11 24 -63 38 -84 25 -41 120 -214 120
-219 0 -4 11 -23 25 -43 14 -20 25 -44 25 -52 0 -9 4 -16 10 -16 5 0 12 -11
16 -25 3 -14 9 -25 13 -25 4 0 13 -16 20 -35 7 -19 17 -35 22 -35 6 0 7 -4 4
-10 -3 -5 -1 -10 5 -10 6 0 8 -4 5 -10 -3 -6 -2 -10 2 -10 5 0 16 -17 25 -37
17 -38 63 -120 99 -179 10 -17 16 -34 12 -37 -3 -4 -1 -7 5 -7 7 0 12 -7 12
-15 0 -8 3 -15 8 -15 4 0 15 -17 24 -37 10 -21 31 -62 47 -90 17 -29 28 -53
25 -53 -3 0 1 -7 8 -15 33 -36 39 -46 33 -55 -3 -6 -2 -10 4 -10 6 0 13 -11
17 -25 3 -14 10 -25 16 -25 5 0 6 -4 3 -10 -3 -5 -3 -10 2 -10 4 0 14 -15 22
-32 8 -18 17 -35 21 -38 4 -3 19 -30 34 -60 15 -30 45 -86 67 -125 22 -38 43
-78 46 -87 3 -10 9 -18 14 -18 5 0 9 -9 9 -19 0 -11 3 -21 8 -23 4 -1 15 -16
24 -33 10 -16 21 -29 25 -28 5 1 26 4 48 7 40 6 40 6 70 -46 16 -29 29 -56 27
-60 -1 -5 2 -8 7 -8 5 0 14 -15 22 -32 7 -18 16 -35 20 -38 3 -3 15 -23 26
-45 25 -51 62 -116 75 -133 6 -6 7 -12 3 -12 -5 0 -2 -8 6 -17 16 -21 35 -52
64 -110 12 -23 28 -49 35 -58 7 -8 9 -15 6 -15 -4 0 2 -13 13 -29 12 -16 21
-34 21 -39 0 -6 3 -12 8 -14 4 -1 18 -25 32 -53 13 -27 27 -52 30 -55 3 -3 20
-34 39 -70 19 -36 45 -83 58 -105 12 -22 30 -57 40 -77 10 -21 21 -38 25 -38
5 0 8 -9 8 -20 0 -11 5 -20 10 -20 6 0 10 -5 10 -11 0 -6 9 -24 21 -40 11 -16
17 -29 13 -29 -4 0 -1 -8 7 -17 8 -10 20 -28 27 -41 29 -52 78 -142 120 -222
24 -47 49 -88 56 -92 6 -4 7 -8 2 -8 -5 0 -4 -6 2 -12 9 -13 46 -77 102 -183
15 -27 36 -66 48 -86 11 -20 26 -47 34 -60 15 -28 29 -40 39 -33 4 2 24 6 45
8 22 2 50 7 64 10 35 8 83 17 98 18 14 2 16 14 2 23 -5 3 -17 21 -26 40 -9 19
-21 35 -26 35 -5 0 -7 4 -4 9 3 5 -1 14 -9 21 -8 7 -15 17 -15 22 0 5 -6 16
-12 23 -29 33 -38 45 -38 52 0 5 -6 15 -14 25 -8 9 -12 19 -9 22 4 3 1 6 -5 6
-7 0 -12 4 -12 9 0 5 -16 34 -36 64 -20 31 -36 59 -37 64 0 4 -8 16 -18 26 -9
10 -27 38 -39 62 -13 25 -27 45 -32 45 -4 0 -8 7 -8 15 0 8 -4 15 -10 15 -5 0
-10 6 -10 13 0 12 -42 81 -79 129 -12 14 -21 30 -21 35 0 5 -13 27 -30 49 -16
21 -30 45 -30 52 0 6 -4 12 -10 12 -5 0 -10 5 -10 11 0 5 -18 36 -40 68 -21
33 -41 65 -42 72 -2 8 -11 20 -20 27 -10 7 -18 18 -18 23 0 6 -13 30 -30 54
-16 24 -30 48 -30 54 0 6 -3 11 -8 11 -4 0 -12 9 -17 20 -6 11 -50 84 -100
163 -49 78 -96 154 -104 169 -7 16 -17 28 -22 28 -5 0 -9 4 -9 10 0 5 -31 59
-70 120 -38 61 -70 115 -70 120 0 6 -4 10 -8 10 -5 0 -17 17 -28 38 -10 20
-23 40 -29 44 -7 5 -7 8 0 9 6 0 18 2 27 4 40 8 106 17 141 19 21 2 40 6 43 9
6 6 -23 63 -43 84 -6 7 -15 22 -18 33 -3 11 -11 20 -16 20 -5 0 -9 4 -9 10 0
5 -17 36 -37 67 -21 32 -42 66 -48 75 -49 83 -99 164 -104 168 -3 3 -12 17
-20 33 -8 15 -18 27 -23 27 -5 0 -7 4 -4 9 3 5 -1 14 -9 21 -8 7 -15 16 -15
20 0 9 -61 106 -80 127 -5 7 -10 15 -10 19 0 4 -11 22 -26 41 -14 18 -22 33
-19 33 4 0 -1 7 -9 16 -9 8 -16 22 -16 30 0 8 -4 12 -10 9 -9 -5 -11 -1 -10
20 1 3 -5 12 -12 20 -31 34 -43 50 -38 50 8 0 -34 65 -43 65 -4 0 -5 5 -2 10
3 6 2 10 -3 10 -6 0 -15 14 -21 30 -5 17 -15 30 -20 30 -6 0 -11 6 -11 13 0 8
-14 33 -30 56 -17 23 -38 57 -47 76 -9 19 -20 35 -25 35 -4 0 -8 7 -8 15 0 8
-4 15 -10 15 -5 0 -10 5 -10 10 0 6 -18 38 -40 71 -22 33 -40 63 -40 67 0 4
-14 25 -30 46 -17 22 -30 44 -30 49 0 5 -9 21 -20 35 -37 48 -89 132 -82 132
4 0 0 5 -8 10 -8 5 -15 14 -15 19 0 5 -9 20 -20 33 -11 13 -22 28 -23 33 -2 9
-43 76 -118 192 -19 28 -34 54 -34 58 0 3 -5 11 -10 18 -24 28 -59 87 -52 87
4 0 -1 5 -10 11 -10 5 -18 14 -18 20 0 5 -8 22 -19 37 -50 73 -111 172 -111
182 0 5 -4 10 -9 10 -5 0 -14 14 -21 30 -7 17 -16 30 -20 30 -4 0 -10 8 -13
18 -6 18 -38 74 -48 82 -3 3 -14 21 -25 40 -10 19 -22 37 -25 40 -3 3 -14 20
-24 39 -9 19 -25 43 -36 54 -10 11 -16 24 -13 29 3 4 0 8 -6 8 -6 0 -16 14
-21 30 -6 17 -14 30 -18 30 -3 0 -15 17 -26 38 -11 20 -24 42 -28 47 -5 6 -18
26 -30 46 -84 141 -102 169 -109 169 -4 0 -8 4 -8 9 0 11 -79 140 -97 159 -7
7 -13 20 -13 28 0 8 -5 14 -11 14 -5 0 -7 5 -4 10 3 6 2 10 -4 10 -6 0 -13 11
-17 25 -3 14 -10 25 -14 25 -7 0 -66 93 -79 125 -2 5 -8 14 -13 20 -22 27 -57
85 -50 85 4 0 2 4 -4 8 -10 7 -254 389 -254 398 0 3 -5 10 -10 17 -13 16 -90
136 -90 142 0 2 -27 44 -60 94 -33 50 -60 95 -60 101 0 5 -4 10 -10 10 -5 0
-10 7 -10 15 0 8 -4 15 -10 15 -5 0 -10 4 -10 9 0 12 -63 115 -72 119 -5 2 -8
10 -8 18 0 8 -4 14 -10 14 -5 0 -10 6 -10 14 0 7 -7 19 -15 26 -9 7 -13 15
-11 17 3 3 -4 14 -15 26 -10 11 -19 27 -19 34 0 7 -4 13 -10 13 -5 0 -10 7
-10 15 0 8 -3 15 -7 15 -5 0 -21 25 -37 55 -16 30 -33 55 -38 55 -5 0 -6 5 -3
10 3 6 1 10 -5 10 -6 0 -9 4 -6 9 4 5 3 11 -2 13 -11 5 -82 115 -82 127 0 6
-5 11 -11 11 -5 0 -7 5 -4 10 3 6 2 10 -2 10 -5 0 -25 27 -44 60 -18 33 -38
60 -42 60 -5 0 -5 5 -2 10 3 6 1 10 -4 10 -6 0 -11 5 -11 10 0 6 -9 20 -20 32
-10 12 -17 25 -14 30 3 4 2 8 -3 8 -4 0 -21 25 -38 55 -16 30 -33 55 -37 55
-4 0 -8 7 -8 15 0 8 -4 15 -10 15 -5 0 -10 7 -10 15 0 8 -4 15 -10 15 -5 0
-10 6 -10 13 0 11 -45 84 -68 113 -5 5 -15 21 -22 35 -7 13 -16 26 -20 29 -3
3 -15 22 -26 43 -36 73 -39 77 -47 77 -4 0 -5 5 -1 12 4 7 3 8 -4 4 -7 -4 -12
-1 -12 8 0 9 -5 16 -11 16 -5 0 -7 5 -4 10 3 6 1 10 -4 10 -6 0 -11 6 -11 14
0 8 -6 21 -13 28 -7 7 -22 29 -35 48 -12 19 -22 32 -22 29z"/>
<path d="M4090 11184 c0 -6 9 -23 20 -37 11 -14 20 -32 20 -41 0 -9 5 -16 10
-16 6 0 10 -7 10 -15 0 -8 5 -15 12 -15 6 0 9 -3 5 -6 -3 -3 7 -27 21 -52 15
-26 41 -73 57 -104 16 -32 33 -58 38 -58 4 0 6 -4 2 -9 -3 -5 0 -15 7 -23 7
-7 26 -38 41 -68 15 -30 41 -77 57 -105 16 -27 38 -67 47 -87 10 -21 21 -38
26 -38 4 0 5 -4 2 -10 -3 -5 -1 -10 6 -10 7 0 9 -3 6 -6 -4 -4 3 -20 14 -35
11 -16 18 -29 14 -29 -3 0 3 -10 15 -22 11 -12 20 -26 20 -31 0 -5 16 -35 35
-68 19 -32 32 -59 29 -59 -3 0 2 -7 10 -16 9 -8 14 -19 11 -24 -3 -5 -1 -10 3
-12 10 -4 102 -166 102 -179 0 -5 5 -9 10 -9 6 0 10 -9 10 -20 0 -11 3 -20 8
-20 4 0 13 -15 21 -32 8 -18 23 -45 33 -60 11 -16 16 -28 11 -28 -4 0 0 -5 10
-11 9 -6 15 -14 12 -18 -2 -5 2 -14 10 -21 8 -7 15 -21 15 -31 0 -11 3 -19 8
-19 4 0 12 -10 18 -23 13 -29 92 -174 116 -212 25 -41 42 -79 40 -88 -1 -4 5
-10 13 -13 8 -3 12 -10 9 -15 -3 -5 0 -9 5 -9 6 0 11 -5 11 -12 0 -6 20 -46
45 -88 24 -43 46 -84 47 -91 2 -8 12 -22 22 -31 10 -10 16 -18 13 -18 -6 0 45
-100 63 -125 4 -5 24 -41 44 -80 21 -38 48 -88 61 -110 13 -22 21 -43 18 -47
-2 -5 0 -8 4 -8 5 0 17 -17 28 -37 10 -21 26 -46 34 -55 8 -10 10 -18 5 -18
-5 0 -4 -4 1 -8 6 -4 26 -37 45 -74 19 -38 38 -68 42 -68 5 0 8 -9 8 -20 0
-11 5 -20 11 -20 5 0 8 -4 4 -9 -3 -5 -1 -12 4 -15 5 -3 26 -39 46 -78 21 -40
46 -85 56 -99 10 -14 16 -29 12 -33 -3 -3 -1 -6 6 -6 7 0 10 -4 7 -9 -3 -4 3
-16 14 -26 11 -10 20 -26 20 -37 0 -10 3 -18 8 -18 4 0 16 -20 27 -45 11 -25
23 -45 28 -45 4 0 5 -4 2 -10 -3 -5 -1 -10 4 -10 6 0 11 -6 11 -13 0 -7 6 -19
13 -25 6 -7 13 -16 13 -20 5 -24 17 -52 23 -52 4 0 18 -24 32 -52 13 -29 26
-55 30 -58 3 -3 29 -50 58 -104 29 -55 63 -116 74 -135 12 -20 31 -54 42 -76
11 -22 22 -42 25 -45 3 -3 16 -27 30 -55 14 -27 27 -52 30 -55 5 -5 22 -36 78
-145 20 -38 39 -72 43 -75 3 -3 34 -59 69 -125 35 -66 66 -122 69 -125 3 -3
22 -36 41 -75 19 -38 38 -71 43 -73 4 -2 7 -8 7 -13 0 -5 8 -21 17 -36 10 -14
18 -33 19 -41 2 -8 7 -18 12 -21 7 -5 35 -56 143 -257 14 -28 38 -69 52 -91
14 -23 23 -44 20 -47 -4 -3 -1 -6 5 -6 7 0 12 -9 12 -19 0 -10 7 -22 16 -25 8
-3 13 -10 10 -15 -4 -5 -3 -11 1 -13 5 -1 19 -25 33 -53 14 -27 27 -52 30 -55
3 -3 13 -21 22 -40 28 -57 74 -138 86 -153 7 -8 9 -17 5 -20 -3 -4 -1 -7 5 -7
7 0 12 -9 12 -19 0 -11 4 -21 8 -23 5 -1 28 -39 52 -83 24 -44 48 -89 54 -100
13 -25 27 -35 38 -29 4 3 16 7 25 9 10 2 27 7 38 10 16 5 23 -1 34 -27 8 -18
27 -53 41 -78 22 -38 47 -83 124 -225 6 -11 16 -23 21 -27 6 -4 7 -8 3 -8 -4
0 6 -22 22 -49 17 -26 30 -53 30 -60 0 -6 5 -11 12 -11 6 0 8 -3 5 -6 -4 -4 2
-19 12 -33 10 -14 37 -62 61 -106 24 -44 52 -96 63 -115 18 -32 42 -76 100
-185 12 -22 24 -42 27 -45 3 -3 12 -18 20 -35 8 -16 41 -77 73 -134 31 -57 57
-107 57 -112 0 -5 5 -9 12 -9 6 0 8 -3 5 -7 -4 -3 -2 -13 5 -20 12 -14 35 -57
79 -143 12 -25 25 -47 29 -50 3 -3 16 -25 29 -50 22 -46 65 -125 91 -170 8
-14 13 -28 12 -32 -1 -5 2 -8 8 -8 5 0 10 -7 10 -15 0 -8 5 -15 10 -15 6 0 10
-9 10 -20 0 -11 4 -20 9 -20 5 0 13 -10 17 -22 3 -13 15 -35 26 -50 11 -16 16
-28 12 -28 -3 0 -1 -6 5 -14 13 -15 56 -15 146 -1 22 3 69 11 105 16 36 6 69
14 75 20 5 6 5 9 -1 9 -6 0 -16 16 -24 35 -8 19 -17 35 -22 35 -4 0 -8 5 -8
12 0 6 -7 19 -16 29 -19 21 -52 77 -60 102 -4 9 -10 17 -15 17 -5 0 -9 7 -9
15 0 8 -4 15 -10 15 -5 0 -10 7 -10 15 0 8 -4 15 -10 15 -5 0 -10 4 -10 9 0
12 -63 115 -72 119 -5 2 -8 10 -8 18 0 8 -4 14 -10 14 -5 0 -10 4 -10 10 0 9
-69 123 -90 147 -5 7 -10 14 -10 17 0 5 -39 69 -70 116 -51 77 -90 142 -90
150 0 4 -3 10 -8 12 -9 4 -192 297 -192 308 0 5 -3 10 -8 12 -10 4 -192 297
-192 309 0 5 -4 9 -8 9 -5 0 -17 17 -28 37 -18 36 -23 43 -52 78 -7 8 -10 15
-6 15 4 0 0 8 -8 18 -8 9 -18 24 -21 32 -4 8 -33 56 -66 105 -58 88 -62 106
-24 111 44 7 63 16 63 29 0 8 -5 15 -11 15 -5 0 -7 4 -4 10 3 6 2 10 -2 10 -8
0 -14 9 -43 66 -8 16 -18 31 -21 34 -8 6 -108 166 -123 197 -6 13 -14 23 -18
23 -5 0 -8 7 -8 15 0 8 -4 15 -10 15 -5 0 -10 7 -10 15 0 8 -5 15 -12 15 -6 0
-9 3 -5 6 3 3 1 11 -4 18 -5 6 -24 34 -41 61 -17 28 -47 75 -67 105 -20 30
-35 58 -34 61 1 4 -7 15 -17 24 -11 10 -20 24 -20 32 0 7 -4 13 -10 13 -5 0
-10 6 -10 14 0 7 -7 19 -15 26 -9 7 -13 15 -11 17 3 3 -6 17 -20 31 -13 15
-24 32 -24 39 0 6 -7 19 -16 27 -8 9 -12 16 -7 16 4 0 3 4 -2 8 -14 10 -65 90
-65 102 0 5 -4 10 -10 10 -5 0 -10 7 -10 15 0 8 -4 15 -10 15 -5 0 -10 5 -10
11 0 6 -13 30 -30 54 -16 24 -30 48 -30 54 0 6 -4 11 -10 11 -5 0 -10 7 -10
15 0 8 -4 15 -10 15 -5 0 -10 7 -10 15 0 8 -4 15 -10 15 -5 0 -10 6 -10 13 0
7 -13 31 -30 53 -16 21 -30 45 -30 52 0 6 -4 12 -10 12 -5 0 -10 6 -10 13 0 8
-9 22 -20 32 -11 10 -18 20 -16 23 3 2 -11 26 -30 53 -19 27 -34 51 -34 54 0
3 -16 28 -35 55 -19 28 -32 50 -28 50 5 0 3 4 -3 8 -9 6 -85 124 -129 200 -6
9 -27 43 -48 75 -20 31 -37 62 -37 67 0 6 -4 10 -9 10 -5 0 -14 14 -21 30 -7
17 -16 30 -20 30 -4 0 -10 8 -13 18 -7 21 -37 71 -54 90 -7 7 -13 17 -13 21 0
4 -9 18 -20 31 -11 12 -17 27 -14 31 3 5 1 9 -3 9 -5 0 -25 27 -44 60 -18 33
-37 60 -41 60 -5 0 -8 6 -8 13 0 7 -9 23 -20 35 -12 12 -18 22 -15 22 3 0 -4
15 -17 33 -31 43 -45 66 -65 105 -9 17 -20 32 -25 32 -4 0 -8 5 -8 12 0 6 -11
26 -26 45 -14 18 -21 33 -17 33 4 0 3 4 -2 8 -11 7 -65 88 -65 96 0 3 -20 34
-45 70 -25 36 -42 66 -40 66 3 0 1 6 -5 13 -6 6 -35 50 -65 97 -30 47 -58 90
-63 95 -4 6 -10 15 -12 20 -3 12 -40 71 -81 133 -16 24 -29 45 -29 48 0 2 -24
41 -53 87 -71 109 -84 131 -85 140 -1 4 -7 14 -14 22 -29 32 -38 45 -33 45 3
0 1 6 -5 13 -20 24 -90 138 -90 147 0 6 -4 10 -10 10 -5 0 -10 7 -10 15 0 8
-4 15 -10 15 -5 0 -10 5 -10 12 0 6 -6 19 -14 27 -8 9 -16 22 -18 30 -2 7 -13
25 -25 39 -13 13 -20 28 -18 32 3 4 -2 10 -10 14 -8 3 -15 12 -15 21 0 8 -3
15 -7 15 -5 0 -17 18 -27 40 -11 22 -23 40 -28 40 -5 0 -6 5 -3 10 3 6 1 10
-4 10 -6 0 -11 6 -11 14 0 8 -4 16 -9 18 -5 2 -11 10 -13 18 -2 8 -10 22 -18
30 -18 18 -49 69 -57 93 -3 9 -9 17 -14 17 -5 0 -9 7 -9 15 0 8 -3 15 -8 15
-7 0 -21 22 -44 73 -7 15 -16 27 -20 27 -4 0 -8 7 -8 15 0 8 -3 15 -8 15 -9 0
-48 71 -45 82 2 4 -3 8 -11 8 -7 0 -16 8 -18 18 -8 28 -12 35 -35 60 -13 14
-20 28 -18 32 3 4 -2 10 -10 14 -8 3 -15 10 -15 16 0 6 -18 38 -40 71 -23 32
-37 59 -33 59 4 0 0 5 -9 11 -10 5 -18 17 -18 25 0 8 -9 24 -20 36 -11 12 -26
34 -32 50 -7 15 -16 28 -20 28 -5 0 -8 5 -8 10 0 12 -41 73 -52 78 -5 2 -8 12
-8 23 0 10 -3 19 -8 19 -4 0 -18 20 -32 45 -14 25 -28 45 -32 45 -5 0 -8 7 -8
15 0 8 -3 15 -8 15 -4 0 -14 15 -22 33 -7 17 -18 37 -22 42 -22 28 -76 115
-71 115 4 0 -3 10 -14 23 -11 12 -25 31 -31 42 -6 11 -12 15 -12 9z"/>
<path d="M9470 10966 c0 -9 57 -115 72 -133 6 -7 7 -13 2 -13 -5 0 -4 -4 2 -8
6 -4 17 -20 26 -37 40 -79 64 -121 76 -133 7 -8 10 -18 7 -23 -4 -5 -3 -9 2
-9 4 0 14 -15 22 -32 8 -18 17 -35 20 -38 3 -3 18 -27 32 -55 14 -27 40 -77
59 -110 18 -33 44 -80 57 -105 14 -25 29 -49 34 -54 5 -6 9 -18 9 -28 0 -10 3
-18 8 -18 4 0 23 -30 42 -67 19 -38 39 -71 45 -75 5 -4 6 -8 1 -8 -5 0 -2 -8
7 -18 8 -9 20 -28 26 -42 6 -14 29 -56 51 -95 22 -38 51 -90 63 -115 12 -25
25 -46 30 -48 4 -2 7 -8 7 -12 0 -5 13 -32 30 -60 16 -27 26 -50 22 -50 -4 0
-2 -4 4 -8 6 -4 29 -41 51 -83 23 -41 50 -90 61 -109 12 -18 19 -37 16 -42 -3
-4 -1 -8 3 -8 5 0 24 -28 42 -62 18 -35 48 -90 67 -123 19 -33 40 -72 45 -87
6 -16 15 -28 20 -28 5 0 9 -9 9 -20 0 -11 4 -20 9 -20 5 0 14 -12 20 -27 15
-38 68 -134 81 -147 5 -5 10 -18 10 -28 0 -10 3 -18 8 -18 4 0 27 -37 51 -82
24 -46 58 -110 77 -143 19 -33 39 -72 45 -87 6 -16 14 -28 17 -28 4 0 18 -25
32 -55 14 -30 28 -55 33 -55 4 0 7 -9 7 -20 0 -11 5 -20 10 -20 6 0 10 -4 10
-10 0 -5 21 -47 48 -93 26 -46 58 -106 72 -133 14 -27 27 -51 30 -54 3 -3 12
-18 20 -35 8 -16 17 -32 20 -35 3 -3 14 -23 25 -45 11 -22 28 -52 37 -66 10
-14 15 -29 11 -33 -3 -3 -1 -6 5 -6 7 0 12 -4 12 -9 0 -5 18 -40 39 -78 22
-37 41 -74 43 -82 2 -8 11 -23 21 -33 9 -10 17 -25 17 -33 0 -8 4 -15 9 -15 4
0 16 -20 25 -45 10 -25 22 -45 27 -45 5 0 9 -3 8 -7 -2 -15 13 -53 21 -53 4 0
10 -8 13 -17 8 -24 61 -118 77 -138 7 -8 9 -15 6 -15 -4 0 2 -13 13 -29 12
-16 21 -34 21 -40 0 -6 4 -11 9 -11 5 0 11 -10 15 -23 3 -13 17 -40 31 -61 14
-20 25 -43 25 -51 0 -7 3 -15 8 -17 4 -1 20 -28 36 -58 16 -30 34 -58 40 -62
6 -4 8 -8 4 -8 -7 0 0 -14 54 -107 11 -21 31 -56 42 -78 12 -22 23 -42 26 -45
7 -7 27 -53 28 -64 0 -5 4 -12 9 -15 5 -3 20 -26 33 -51 14 -25 29 -51 34 -59
6 -7 11 -20 12 -29 2 -8 7 -18 12 -21 5 -3 21 -28 34 -56 30 -62 49 -95 67
-117 8 -10 10 -18 5 -18 -5 0 -4 -4 1 -8 6 -4 23 -32 40 -62 16 -30 39 -73 51
-95 13 -22 37 -66 54 -99 44 -82 68 -124 86 -152 9 -13 12 -24 8 -24 -5 0 -4
-4 1 -8 10 -7 22 -26 57 -93 11 -21 24 -42 29 -45 5 -3 9 -14 9 -25 0 -10 4
-19 8 -19 7 0 34 -44 36 -60 1 -3 6 -12 11 -20 5 -8 20 -35 33 -60 41 -77 57
-105 63 -110 3 -3 8 -12 11 -21 4 -9 16 -19 27 -22 12 -3 19 -1 15 4 -5 8 5
11 52 13 14 1 76 -100 132 -214 9 -19 19 -37 22 -40 3 -3 13 -21 24 -40 10
-19 27 -50 37 -67 10 -18 16 -33 12 -33 -4 0 2 -7 13 -15 10 -8 16 -15 12 -15
-4 0 6 -21 22 -47 17 -26 30 -53 30 -60 0 -7 5 -13 11 -13 5 0 7 -4 4 -10 -3
-5 -2 -10 3 -10 6 0 15 -12 21 -27 5 -16 28 -59 51 -98 22 -38 48 -86 57 -105
9 -19 19 -37 22 -40 4 -3 13 -18 21 -35 8 -16 25 -47 37 -67 13 -21 20 -38 16
-38 -5 0 -3 -4 2 -8 6 -4 19 -24 30 -45 11 -20 24 -37 28 -37 5 0 7 -7 3 -15
-3 -8 -1 -15 4 -15 5 0 14 -16 21 -35 7 -19 17 -35 22 -35 4 0 6 -4 3 -9 -4
-5 -3 -11 2 -13 13 -5 71 -115 65 -122 -4 -3 -1 -6 5 -6 6 0 16 -16 23 -35 7
-19 16 -35 19 -35 8 0 34 -52 32 -62 -1 -5 3 -8 9 -8 5 0 8 -4 4 -9 -3 -5 -1
-12 5 -16 5 -3 22 -31 37 -61 14 -30 30 -54 35 -54 5 0 6 -5 2 -11 -3 -6 -2
-14 3 -18 6 -3 27 -37 48 -76 21 -38 43 -76 50 -83 8 -9 42 -12 125 -10 106 3
113 4 97 20 -9 9 -17 19 -17 23 0 4 -13 26 -30 50 -16 24 -30 48 -30 54 0 6
-4 11 -10 11 -5 0 -10 7 -10 15 0 8 -4 15 -10 15 -5 0 -10 5 -10 11 0 6 -13
30 -30 54 -16 24 -30 46 -30 50 0 3 -9 15 -20 27 -10 12 -17 24 -15 28 3 4 -4
15 -15 25 -11 10 -20 22 -20 27 0 5 -8 21 -19 36 -40 58 -108 168 -114 185 -3
9 -11 17 -17 17 -5 0 -10 9 -10 20 0 11 -5 20 -12 20 -6 0 -8 3 -5 7 4 3 -1
12 -11 19 -9 7 -17 16 -17 21 -1 8 -7 19 -82 135 -24 37 -43 72 -43 78 0 5 -3
10 -8 10 -4 0 -18 20 -32 45 -14 25 -28 45 -31 45 -4 0 -9 8 -12 18 -6 17 -37
72 -47 82 -3 3 -10 14 -17 25 -43 73 -150 240 -159 249 -6 6 -11 15 -11 20 0
4 -5 15 -11 25 -54 78 -110 171 -104 171 4 0 -1 5 -10 11 -10 5 -18 15 -18 20
0 6 -13 30 -30 54 -16 24 -30 48 -30 54 0 6 -4 11 -9 11 -12 0 -22 40 -10 41
13 2 29 6 32 9 3 2 38 11 57 14 9 1 20 5 25 8 6 3 25 9 43 13 17 3 32 9 32 12
0 3 -36 62 -79 132 -44 69 -80 131 -81 136 -1 6 -8 14 -16 18 -8 4 -14 12 -14
18 0 5 -20 40 -43 77 -103 158 -117 182 -117 192 0 5 -4 10 -9 10 -5 0 -16 15
-24 33 -9 17 -32 54 -51 82 -20 27 -36 56 -36 62 0 7 -4 13 -10 13 -5 0 -10 4
-10 9 0 5 -17 36 -38 68 -21 32 -47 74 -58 93 -10 19 -22 37 -25 40 -3 3 -14
21 -25 40 -10 19 -27 43 -36 54 -10 11 -18 24 -18 29 0 4 -11 23 -25 41 -14
18 -22 36 -18 39 3 4 1 7 -5 7 -11 0 -35 36 -48 73 -3 9 -10 17 -15 17 -5 0
-9 6 -9 13 0 8 -9 22 -20 32 -11 10 -18 21 -15 25 2 3 -6 17 -18 31 -12 14
-23 31 -25 39 -2 8 -8 17 -13 18 -5 2 -9 9 -9 17 0 7 -7 18 -15 25 -8 7 -13
16 -10 20 3 4 -1 10 -8 13 -7 3 -22 23 -32 46 -11 22 -23 41 -27 41 -5 0 -8 7
-8 15 0 8 -3 15 -8 15 -4 0 -18 20 -31 45 -13 25 -28 45 -33 45 -5 0 -7 4 -3
9 3 5 -2 16 -10 24 -8 9 -15 20 -15 26 0 6 -4 11 -10 11 -5 0 -10 5 -10 11 0
6 -13 30 -30 54 -16 24 -30 48 -30 54 0 6 -4 11 -9 11 -5 0 -14 14 -21 30 -7
17 -16 30 -21 30 -5 0 -9 5 -9 11 0 6 -13 30 -30 54 -16 24 -30 48 -30 54 0 6
-4 11 -10 11 -5 0 -10 5 -10 10 0 6 -8 23 -19 38 -10 15 -32 50 -49 77 -17 28
-35 55 -39 61 -5 5 -13 19 -19 30 -6 10 -28 45 -48 77 -20 31 -33 57 -29 57 4
0 0 5 -9 10 -9 6 -23 23 -30 38 -21 40 -41 73 -58 94 -8 10 -13 21 -12 25 2 3
0 9 -5 12 -10 8 -73 100 -73 108 0 3 -20 36 -45 74 -25 38 -45 71 -45 74 0 3
-16 27 -35 54 -19 26 -35 53 -35 60 0 6 -5 11 -11 11 -5 0 -7 5 -4 10 3 6 2
10 -3 10 -5 0 -14 10 -20 23 -22 41 -57 96 -74 117 -10 11 -18 25 -18 31 0 5
-9 19 -20 31 -11 12 -20 28 -20 35 0 7 -4 13 -10 13 -5 0 -10 6 -10 14 0 8 -6
21 -13 28 -17 17 -88 135 -87 143 1 4 -7 14 -18 23 -10 9 -25 32 -33 50 -7 17
-17 32 -20 32 -4 0 -12 14 -19 30 -7 17 -16 30 -21 30 -5 0 -9 5 -9 11 0 5
-20 41 -45 79 -25 38 -45 73 -45 79 0 5 -3 11 -7 13 -11 4 -63 86 -63 98 0 5
-4 10 -10 10 -5 0 -10 7 -10 15 0 8 -4 15 -9 15 -5 0 -11 8 -14 18 -7 22 -37
71 -59 96 -10 11 -18 24 -18 29 0 4 -12 24 -26 43 -15 19 -22 34 -18 34 5 0 1
5 -8 11 -10 5 -18 14 -18 19 0 6 -21 42 -47 82 -26 40 -46 76 -45 81 1 4 -2 7
-6 7 -5 0 -14 11 -20 25 -7 14 -17 31 -22 38 -21 24 -90 138 -90 147 0 6 -4
10 -10 10 -5 0 -10 6 -10 13 0 8 -9 22 -20 32 -10 9 -19 20 -18 24 2 10 -36
71 -45 71 -5 0 -5 5 -2 10 3 6 1 10 -5 10 -6 0 -9 4 -6 9 4 5 3 11 -1 13 -12
5 -63 83 -63 96 0 7 -4 12 -10 12 -5 0 -10 7 -10 15 0 8 -4 15 -10 15 -5 0
-10 6 -10 14 0 8 -4 16 -8 18 -5 2 -23 29 -41 61 -18 31 -37 57 -42 57 -6 0
-8 3 -5 8 2 4 -9 26 -25 50 -16 23 -29 47 -29 52 0 6 -4 10 -10 10 -5 0 -10 7
-10 15 0 7 -7 18 -16 23 -9 5 -15 13 -15 18 1 5 -13 32 -31 59 -18 28 -32 53
-30 58 1 4 -2 7 -6 7 -5 0 -21 21 -36 48 -41 73 -116 187 -116 178z"/>
<path d="M8875 10470 c3 -5 8 -10 11 -10 2 0 4 5 4 10 0 6 -5 10 -11 10 -5 0
-7 -4 -4 -10z"/>
<path d="M3670 10402 c16 -29 30 -55 30 -58 0 -3 9 -19 21 -35 11 -16 17 -29
14 -29 -3 0 3 -13 14 -29 12 -16 21 -34 21 -39 0 -6 3 -12 8 -14 4 -1 15 -19
24 -38 10 -19 30 -57 46 -85 38 -67 97 -175 140 -255 50 -95 66 -124 72 -130
3 -3 16 -25 29 -50 79 -150 105 -196 113 -207 6 -7 7 -13 2 -13 -5 0 -4 -4 2
-8 12 -7 27 -35 114 -197 30 -55 56 -102 59 -105 3 -3 17 -27 31 -55 13 -27
46 -87 71 -132 26 -45 45 -84 41 -87 -3 -3 0 -6 7 -6 7 0 10 -4 7 -9 -4 -5 -2
-11 2 -13 5 -1 28 -38 51 -82 61 -114 65 -119 80 -138 8 -10 10 -18 5 -18 -5
0 -4 -4 1 -8 6 -4 22 -29 35 -57 14 -27 28 -52 31 -55 13 -11 48 -88 42 -94
-4 -3 -2 -6 4 -6 6 0 21 -19 33 -42 12 -24 36 -68 53 -98 16 -30 41 -75 54
-100 14 -25 29 -49 34 -54 5 -6 9 -18 9 -28 0 -10 3 -18 8 -18 4 0 23 -30 42
-67 19 -38 38 -69 43 -71 4 -2 7 -10 7 -18 0 -8 9 -24 20 -36 10 -12 17 -25
14 -30 -3 -4 0 -8 7 -8 7 0 9 -3 6 -6 -4 -4 2 -19 13 -34 11 -16 20 -33 20
-38 0 -6 3 -12 8 -14 6 -3 21 -30 85 -153 11 -22 29 -52 39 -67 11 -16 16 -28
11 -28 -4 0 -3 -4 2 -8 10 -7 53 -80 83 -142 9 -19 19 -37 22 -40 3 -3 12 -18
20 -35 8 -16 25 -47 37 -67 13 -21 20 -38 16 -38 -5 0 -3 -4 3 -8 6 -4 26 -36
45 -72 19 -36 37 -66 42 -68 4 -2 7 -12 7 -22 0 -10 4 -20 8 -22 5 -1 32 -48
62 -103 29 -55 57 -103 62 -106 5 -3 10 -10 10 -15 1 -17 33 -79 55 -105 6 -8
12 -18 13 -24 2 -9 40 -81 61 -115 5 -8 14 -27 20 -42 6 -16 16 -28 22 -28 6
0 8 -3 4 -6 -3 -3 5 -24 19 -45 13 -21 24 -41 24 -45 0 -3 7 -12 15 -21 8 -8
13 -19 10 -24 -4 -5 -2 -9 3 -9 8 0 22 -32 21 -48 0 -1 7 -10 16 -18 8 -9 15
-22 15 -30 0 -8 5 -14 10 -14 6 0 10 -5 10 -11 0 -6 9 -24 21 -40 11 -16 17
-29 13 -29 -4 0 -1 -8 7 -17 8 -10 25 -38 39 -63 13 -25 28 -54 34 -65 6 -11
18 -28 26 -39 8 -10 13 -19 11 -20 -3 0 12 -29 32 -64 20 -35 37 -67 37 -73 0
-5 5 -9 11 -9 5 0 8 -4 5 -9 -3 -5 4 -20 15 -35 11 -14 17 -26 12 -26 -4 0 -3
-4 2 -8 11 -7 25 -32 59 -97 12 -22 26 -43 31 -47 6 -4 6 -8 2 -8 -5 0 0 -12
10 -27 10 -16 28 -45 38 -65 16 -31 24 -38 47 -36 16 1 28 6 28 10 0 4 11 8
25 8 22 0 30 -9 26 -32 0 -5 3 -8 8 -8 5 0 14 -12 20 -27 10 -25 30 -63 56
-103 5 -8 10 -21 11 -28 2 -8 10 -22 18 -31 9 -10 16 -23 16 -29 0 -7 5 -12
10 -12 6 0 10 -6 10 -14 0 -18 26 -67 32 -61 2 2 10 -12 17 -33 8 -20 17 -39
20 -42 3 -3 22 -35 41 -72 19 -38 38 -68 42 -68 5 0 7 -3 6 -7 -2 -11 24 -63
32 -63 4 0 7 -6 7 -13 0 -6 12 -31 26 -55 15 -23 24 -42 20 -42 -5 0 -3 -4 4
-8 6 -4 13 -14 15 -22 2 -8 11 -23 20 -34 10 -10 15 -23 12 -28 -3 -4 -1 -8 4
-8 6 0 15 -12 21 -27 6 -16 23 -50 39 -78 46 -81 87 -156 123 -225 19 -36 36
-67 40 -70 3 -3 18 -30 33 -60 16 -30 33 -58 38 -61 5 -3 10 -10 10 -15 0 -11
15 -42 31 -69 29 -46 51 -90 49 -98 -1 -4 2 -7 6 -7 5 0 14 -16 22 -35 8 -19
17 -35 22 -35 4 0 8 -9 8 -20 0 -11 4 -20 8 -20 5 0 19 -22 32 -49 13 -28 28
-52 34 -54 9 -3 297 -1 303 2 6 3 -75 131 -90 142 -5 3 -9 10 -9 15 -1 5 -13
27 -27 49 -44 69 -51 80 -57 98 -3 9 -11 17 -16 17 -5 0 -6 5 -3 10 3 6 2 10
-2 10 -5 0 -25 27 -44 60 -18 33 -37 60 -41 60 -5 0 -8 4 -8 10 0 5 -31 59
-70 121 -38 61 -70 115 -70 120 0 5 -4 9 -9 9 -5 0 -14 14 -21 30 -7 17 -16
30 -20 30 -4 0 -10 8 -14 18 -3 9 -15 31 -26 47 -11 17 -24 40 -29 52 -5 11
-15 24 -21 28 -5 3 -8 11 -5 16 4 5 2 9 -3 9 -10 0 -72 95 -72 111 0 5 -3 9
-8 9 -4 0 -18 21 -32 47 -14 27 -31 54 -38 62 -7 7 -22 29 -33 50 -11 20 -37
63 -59 96 -22 33 -43 68 -46 78 -4 9 -10 17 -15 17 -5 0 -9 4 -9 9 0 12 -171
284 -184 293 -6 4 -7 8 -3 8 9 0 -30 60 -45 71 -11 7 15 29 39 34 10 2 19 4
21 5 1 2 7 3 12 4 11 1 12 3 4 34 -4 12 -10 22 -15 22 -5 0 -9 7 -9 15 0 8 -4
15 -10 15 -5 0 -10 6 -10 14 0 7 -7 19 -15 26 -9 7 -13 15 -11 17 3 3 -3 14
-13 24 -10 11 -24 32 -32 47 -7 15 -35 60 -61 100 -26 39 -44 72 -40 72 4 0 2
4 -3 8 -6 4 -25 30 -43 57 -17 28 -36 56 -42 63 -6 6 -8 12 -5 12 3 0 -3 10
-15 22 -11 12 -20 26 -20 30 0 5 -8 21 -18 36 -11 15 -30 45 -44 67 -70 112
-103 160 -110 163 -4 2 -5 8 -2 13 3 6 -4 19 -17 30 -12 10 -19 19 -15 19 4 0
-5 16 -20 35 -14 19 -23 35 -20 35 4 0 -2 10 -14 22 -11 12 -20 27 -20 34 0 7
-4 14 -9 16 -5 2 -11 10 -13 18 -2 8 -10 22 -18 30 -8 8 -20 24 -26 35 -25 46
-40 70 -54 87 -8 10 -14 21 -12 24 2 3 -5 12 -15 21 -11 9 -12 12 -3 8 10 -4
9 -2 -2 8 -10 8 -18 17 -18 21 0 4 -11 22 -25 40 -14 18 -25 36 -25 40 0 4
-12 23 -26 42 -15 19 -23 34 -20 34 4 0 -2 10 -14 22 -11 12 -20 28 -20 35 0
7 -4 13 -10 13 -5 0 -10 6 -10 14 0 8 -4 16 -9 18 -5 2 -11 10 -13 18 -2 8
-10 20 -18 27 -8 6 -15 15 -15 20 0 4 -10 22 -23 40 -12 17 -22 36 -22 41 0 6
-3 12 -7 14 -10 4 -73 107 -73 119 0 5 -4 9 -10 9 -5 0 -10 7 -10 15 0 8 -4
15 -10 15 -5 0 -10 6 -10 13 0 7 -8 22 -18 33 -19 20 -36 54 -34 67 1 4 -5 7
-13 7 -8 0 -15 5 -15 11 0 7 -25 51 -55 99 -30 48 -55 92 -55 99 0 6 -5 11
-11 11 -5 0 -17 16 -25 35 -8 19 -19 35 -24 35 -6 0 -10 4 -10 10 0 9 -126
218 -147 245 -4 6 -14 22 -22 38 -8 15 -18 27 -23 27 -4 0 -8 9 -8 20 0 11 -4
20 -8 20 -5 0 -19 19 -32 43 -13 23 -26 44 -30 47 -3 3 -21 32 -40 65 -19 33
-36 62 -40 65 -3 3 -19 27 -35 54 -96 161 -217 351 -229 358 -6 4 -8 8 -4 8 6
0 -42 79 -69 116 -11 14 -34 53 -51 87 -7 15 -17 27 -22 27 -4 0 -10 8 -14 18
-3 9 -11 26 -18 37 -67 102 -88 138 -88 146 0 5 -4 9 -10 9 -5 0 -10 5 -10 11
0 6 -15 31 -32 57 -18 26 -33 53 -34 59 -1 7 -9 19 -17 28 -9 8 -30 39 -47 67
-17 29 -44 73 -61 98 -16 25 -32 53 -35 63 -4 9 -11 17 -16 17 -5 0 -6 5 -3
10 3 6 2 10 -3 10 -5 0 -17 16 -26 35 -9 19 -21 35 -27 35 -6 0 -8 4 -5 9 3 5
-1 14 -9 21 -8 7 -15 19 -15 26 0 8 -4 14 -10 14 -5 0 -10 4 -10 10 0 5 -13
29 -29 52 -16 24 -27 47 -24 52 4 5 1 6 -5 2 -6 -3 -13 3 -17 14 -3 11 -22 42
-41 69 -19 28 -34 55 -34 61 0 5 -3 10 -8 10 -7 0 -13 9 -42 66 -8 16 -19 34
-25 41 -5 7 -16 19 -23 28 -7 8 -9 15 -5 15 4 0 3 4 -3 8 -6 4 -22 28 -36 54
-14 26 -28 45 -32 41 -5 -6 -10 12 -7 30 0 4 -3 7 -9 7 -5 0 -10 7 -10 15 0 8
-3 15 -8 15 -4 0 -16 17 -27 38 -21 39 -24 43 -55 82 -11 14 -7 1 10 -28z"/>
<path d="M8899 10437 c6 -8 8 -17 4 -20 -3 -4 -1 -7 5 -7 7 0 24 -25 38 -55
15 -30 30 -55 35 -55 5 0 6 -7 3 -15 -4 -8 -2 -15 4 -15 9 0 18 -20 20 -44 0
-5 4 -12 9 -15 5 -3 20 -26 34 -51 13 -25 26 -47 29 -50 3 -3 13 -21 22 -40
35 -71 94 -179 107 -194 7 -8 14 -22 15 -29 1 -8 7 -21 13 -28 5 -8 28 -48 50
-89 22 -41 50 -93 63 -115 12 -22 32 -58 43 -80 12 -22 24 -42 27 -45 3 -3 18
-30 34 -60 65 -125 79 -150 87 -156 5 -3 7 -9 4 -14 -3 -4 2 -13 10 -20 8 -7
15 -18 15 -24 0 -6 9 -22 20 -36 11 -14 20 -32 20 -41 0 -8 8 -24 18 -35 9
-10 25 -35 34 -54 10 -19 35 -66 56 -105 21 -38 53 -95 70 -126 17 -32 28 -60
24 -65 -4 -4 -2 -5 3 -1 6 3 17 -9 25 -26 7 -18 16 -34 20 -37 8 -7 39 -73 38
-84 0 -5 5 -12 10 -15 5 -3 31 -46 58 -96 26 -49 57 -106 69 -125 20 -32 38
-71 35 -78 0 -1 9 -12 19 -24 11 -11 18 -25 15 -30 -3 -4 -2 -8 3 -8 4 0 13
-10 19 -23 31 -64 87 -163 96 -168 5 -3 9 -8 7 -10 -1 -2 9 -24 22 -49 12 -25
22 -48 21 -52 -1 -5 2 -8 7 -8 5 0 14 -15 22 -32 7 -18 15 -35 18 -38 4 -3 13
-18 21 -35 8 -16 17 -32 20 -35 3 -3 14 -24 24 -47 11 -24 23 -43 28 -43 4 0
8 -9 8 -20 0 -11 5 -20 10 -20 6 0 9 -3 8 -7 -1 -5 13 -35 32 -68 19 -33 42
-73 50 -90 8 -16 17 -32 20 -35 3 -3 12 -18 20 -35 8 -16 28 -52 44 -80 16
-27 29 -56 29 -62 0 -7 4 -13 8 -13 4 0 17 -21 30 -47 12 -27 25 -50 28 -53 3
-3 20 -32 38 -65 17 -33 47 -89 68 -125 20 -36 39 -73 42 -82 3 -10 10 -18 15
-18 5 0 7 -4 3 -9 -3 -5 -1 -12 4 -15 5 -4 22 -32 38 -64 15 -31 31 -58 36
-60 4 -2 7 -8 7 -13 0 -5 11 -27 24 -48 14 -21 22 -42 19 -45 -4 -3 -1 -6 5
-6 7 0 12 -7 12 -15 0 -8 5 -15 11 -15 5 0 8 -4 5 -9 -3 -5 2 -19 12 -32 10
-13 26 -37 34 -54 9 -16 31 -59 51 -95 20 -36 48 -90 64 -120 15 -30 34 -61
40 -68 7 -7 16 -24 19 -38 3 -13 9 -24 13 -24 4 0 13 -16 20 -35 7 -19 17 -35
22 -35 6 0 8 -4 4 -9 -3 -5 -1 -13 5 -16 6 -4 21 -28 34 -53 12 -26 34 -67 48
-92 14 -25 38 -70 54 -100 16 -30 31 -57 34 -60 3 -3 21 -36 40 -75 19 -38 40
-74 45 -81 6 -6 28 -47 50 -90 22 -43 43 -80 48 -82 4 -2 7 -12 7 -23 0 -10 4
-19 9 -19 5 0 19 -21 31 -47 12 -27 25 -50 29 -53 3 -3 19 -30 34 -60 50 -98
81 -155 87 -160 3 -3 11 -18 18 -33 11 -26 16 -28 45 -22 17 4 34 11 35 16 7
17 27 9 38 -14 23 -48 67 -122 76 -128 6 -3 10 -10 10 -15 2 -21 11 -44 17
-44 4 0 13 -16 20 -35 7 -19 16 -35 21 -35 5 0 7 -7 4 -15 -4 -8 -2 -15 3 -15
6 0 15 -12 22 -27 7 -16 20 -39 29 -53 9 -14 17 -27 18 -30 13 -42 18 -50 25
-50 5 0 9 -7 9 -15 0 -8 3 -15 8 -15 4 0 13 -15 21 -33 7 -17 25 -52 39 -77
14 -25 25 -47 23 -49 -1 -2 1 -7 7 -10 5 -3 29 -44 54 -91 82 -153 111 -205
121 -211 5 -3 9 -9 8 -12 -1 -16 22 -67 30 -67 5 0 9 -4 9 -9 0 -8 66 -131
132 -246 16 -27 33 -62 39 -76 11 -30 46 -49 89 -49 16 0 31 -4 34 -8 2 -4 21
-9 42 -10 20 -2 41 -5 45 -8 4 -2 10 0 14 6 3 5 1 10 -4 10 -6 0 -11 6 -11 14
0 8 -7 22 -16 30 -8 9 -13 16 -9 16 3 0 1 6 -5 13 -6 6 -26 37 -45 67 -19 30
-39 61 -45 68 -6 6 -8 12 -5 12 4 0 0 7 -9 15 -8 8 -29 41 -47 72 -18 32 -36
60 -41 61 -4 2 -6 8 -2 13 3 5 0 9 -5 9 -6 0 -11 7 -11 15 0 8 -4 15 -10 15
-5 0 -10 7 -10 15 0 8 -4 15 -8 15 -4 0 -19 22 -33 49 -13 27 -27 47 -31 44
-5 -2 -8 5 -8 16 0 10 -3 21 -7 23 -9 4 -53 65 -53 73 0 3 -18 33 -40 66 -22
33 -40 65 -40 70 0 5 -4 9 -9 9 -5 0 -11 8 -14 18 -6 18 -38 73 -47 82 -12 11
-160 252 -160 260 0 4 -4 10 -8 12 -11 4 -57 81 -54 91 1 4 -2 7 -8 7 -5 0
-16 15 -25 34 -9 18 -24 42 -33 53 -9 10 -18 25 -20 33 -2 8 -7 17 -11 20 -16
10 -33 52 -24 59 15 13 136 62 141 57 2 -3 11 2 20 10 13 13 13 19 1 42 -8 15
-18 32 -22 37 -23 29 -107 166 -107 174 0 6 -8 15 -17 20 -10 6 -14 11 -10 11
9 0 -30 60 -46 71 -5 3 -8 8 -6 10 1 2 -10 23 -24 46 -15 24 -27 47 -27 52 0
5 -3 11 -7 13 -9 3 -63 84 -63 93 0 2 -18 31 -40 62 -22 32 -40 62 -40 66 0 4
-5 13 -10 20 -23 26 -98 147 -92 147 4 0 3 4 -3 8 -13 9 -55 69 -55 78 0 4
-11 22 -26 41 -14 18 -22 33 -19 33 4 0 0 7 -7 15 -29 32 -39 45 -33 45 3 0
-11 23 -30 50 -19 28 -33 50 -30 50 3 0 -3 10 -15 22 -11 12 -20 28 -20 35 0
7 -4 13 -10 13 -5 0 -10 5 -10 10 0 6 -22 44 -50 86 -27 41 -50 78 -50 81 0 2
-14 26 -32 51 -17 26 -40 59 -50 74 -10 15 -18 32 -18 38 0 5 -4 10 -10 10 -5
0 -10 5 -10 11 0 6 -13 30 -30 54 -16 24 -30 48 -30 54 0 6 -4 11 -10 11 -5 0
-10 7 -10 15 0 8 -4 15 -10 15 -5 0 -10 7 -10 15 0 8 -4 15 -10 15 -5 0 -10 5
-10 11 0 6 -13 29 -28 52 -15 23 -34 54 -41 70 -8 15 -18 27 -23 27 -5 0 -6 5
-3 10 3 6 2 10 -3 10 -5 0 -15 14 -22 30 -7 17 -17 30 -22 30 -5 0 -6 5 -3 10
3 6 1 10 -4 10 -6 0 -11 7 -11 15 0 8 -4 15 -10 15 -5 0 -10 7 -10 15 0 8 -4
15 -10 15 -5 0 -10 5 -10 11 0 6 -13 29 -28 52 -15 23 -34 54 -41 70 -8 15
-18 27 -23 27 -4 0 -8 5 -8 10 0 6 -15 34 -34 63 -18 28 -54 84 -80 124 -25
40 -46 76 -46 81 0 4 -8 17 -17 28 -17 19 -24 31 -55 87 -7 12 -19 26 -25 30
-7 4 -13 14 -13 22 0 7 -6 20 -12 27 -19 19 -78 118 -78 129 0 5 -4 9 -10 9
-5 0 -10 7 -10 15 0 8 -4 15 -10 15 -5 0 -10 6 -10 13 0 7 -8 22 -17 33 -10
10 -25 33 -33 49 -8 17 -17 32 -20 35 -15 15 -48 68 -54 88 -4 12 -11 22 -15
22 -3 0 -20 25 -36 55 -17 30 -33 55 -37 55 -5 0 -8 4 -8 10 0 5 -25 48 -55
95 -30 47 -52 85 -49 85 4 0 -3 8 -14 19 -12 10 -22 23 -22 30 0 6 -7 19 -15
28 -8 10 -15 22 -15 26 1 4 -5 14 -12 22 -31 34 -38 45 -31 45 4 0 0 6 -9 14
-10 7 -22 24 -28 37 -6 13 -19 38 -30 54 -11 17 -23 37 -27 45 -3 8 -9 17 -12
20 -13 11 -61 90 -61 100 0 5 -4 10 -10 10 -5 0 -12 11 -16 25 -3 14 -9 25
-13 25 -4 0 -16 18 -27 40 -10 22 -22 40 -26 40 -5 0 -8 7 -8 15 0 8 -4 15
-10 15 -5 0 -10 5 -10 11 0 6 -9 22 -20 36 -11 14 -17 30 -13 36 3 5 2 7 -4 4
-6 -4 -19 11 -29 33 -10 22 -22 40 -26 40 -5 0 -8 7 -8 15 0 8 -4 15 -10 15
-5 0 -10 7 -10 15 0 7 -8 18 -17 24 -10 5 -16 11 -13 13 5 4 -167 287 -180
298 -4 3 -19 29 -35 58 -15 28 -32 52 -37 52 -5 0 -6 5 -3 10 3 6 1 10 -4 10
-6 0 -11 6 -11 14 0 7 -7 19 -15 26 -9 7 -13 15 -11 17 2 3 -4 13 -15 24 -11
11 -17 24 -14 29 4 6 -1 10 -10 10 -9 0 -13 5 -10 10 3 6 1 10 -5 10 -6 0 -8
5 -5 10 3 6 2 10 -4 10 -5 0 -15 16 -22 34 -7 19 -16 33 -19 31 -4 -3 -13 8
-19 23 -7 15 -23 43 -35 62 -44 67 -60 95 -57 99 1 2 -3 7 -11 12 -7 5 -13 13
-13 19 0 6 -5 14 -12 18 -6 4 -17 19 -22 32 -14 33 -34 63 -46 72 -5 4 -6 8
-2 8 10 0 -19 30 -29 30 -3 0 -1 -6 5 -13z"/>
<path d="M8275 10011 c-3 -5 -2 -12 3 -15 5 -3 9 1 9 9 0 17 -3 19 -12 6z"/>
<path d="M8302 9960 c7 -11 17 -20 22 -20 5 0 1 9 -9 20 -10 11 -20 20 -22 20
-2 0 2 -9 9 -20z"/>
<path d="M8326 9915 c4 -8 10 -15 15 -15 5 0 8 -3 7 -7 -1 -5 9 -28 21 -53 13
-25 23 -47 22 -49 -2 -2 1 -7 6 -10 8 -6 47 -75 68 -118 5 -13 13 -23 18 -23
4 0 7 -9 7 -20 0 -11 5 -20 10 -20 6 0 10 -5 10 -10 0 -6 8 -22 17 -37 10 -14
18 -32 19 -39 1 -8 9 -20 17 -29 9 -8 19 -25 23 -38 4 -12 9 -24 13 -27 3 -3
16 -26 29 -52 13 -26 27 -50 33 -53 5 -4 9 -15 9 -26 0 -10 3 -19 8 -19 4 0
23 -30 42 -67 19 -38 37 -70 40 -73 3 -3 25 -43 49 -90 25 -47 47 -87 50 -90
3 -3 19 -30 34 -60 49 -96 81 -155 87 -160 3 -3 25 -43 49 -90 25 -47 49 -88
53 -91 5 -3 10 -13 12 -21 1 -8 9 -26 17 -39 8 -13 23 -41 33 -61 9 -21 21
-38 26 -38 6 0 9 -3 8 -7 -1 -9 13 -46 21 -53 12 -10 31 -50 31 -65 0 -8 3
-15 8 -15 4 0 25 -34 46 -75 21 -42 43 -78 48 -81 4 -3 6 -10 3 -15 -4 -5 -3
-9 2 -9 4 0 14 -15 22 -32 8 -18 17 -35 20 -38 3 -3 15 -23 27 -45 12 -22 32
-60 46 -85 14 -25 46 -85 73 -135 26 -49 56 -102 66 -116 10 -14 16 -29 12
-33 -3 -3 -1 -6 5 -6 7 0 12 -5 12 -10 0 -6 20 -45 44 -88 23 -42 58 -104 76
-137 19 -33 49 -87 67 -120 19 -33 41 -76 51 -95 9 -19 19 -37 22 -40 3 -3 15
-25 28 -50 38 -72 67 -125 72 -130 3 -3 24 -42 48 -88 74 -141 77 -147 83
-152 3 -3 17 -27 31 -55 15 -27 38 -70 51 -95 61 -109 83 -148 104 -190 25
-47 36 -67 66 -112 10 -16 15 -28 10 -28 -4 0 -3 -4 2 -8 6 -4 17 -20 25 -37
8 -16 21 -36 28 -43 7 -8 10 -18 7 -23 -4 -5 -2 -9 3 -9 8 0 20 -28 20 -47 0
-3 7 -10 16 -15 9 -5 16 -18 16 -28 0 -11 5 -20 10 -20 6 0 10 -6 10 -14 0 -8
6 -21 13 -28 6 -7 22 -33 35 -58 61 -117 77 -146 91 -162 8 -10 11 -18 7 -18
-4 0 2 -13 13 -29 12 -16 21 -34 21 -39 0 -6 3 -12 8 -14 4 -1 20 -28 35 -58
15 -30 37 -71 49 -90 11 -19 32 -57 46 -85 14 -27 29 -52 32 -55 3 -3 16 -27
30 -55 14 -27 28 -51 33 -53 4 -2 7 -12 7 -23 0 -10 3 -19 8 -19 4 0 13 -15
21 -32 8 -18 17 -35 20 -38 3 -3 17 -27 31 -55 14 -27 27 -52 30 -55 3 -3 14
-23 25 -45 10 -22 26 -48 34 -57 8 -10 11 -18 7 -18 -4 0 0 -7 8 -16 9 -8 16
-22 16 -30 0 -8 5 -14 10 -14 6 0 10 -9 10 -20 0 -11 3 -20 8 -20 4 0 15 -17
25 -37 38 -82 54 -99 78 -77 8 7 20 14 26 14 6 0 13 6 16 13 2 7 10 0 17 -15
7 -16 16 -28 20 -28 3 0 12 -16 20 -35 8 -19 17 -35 22 -35 4 0 8 -9 8 -20 0
-11 3 -20 8 -20 4 0 18 -24 32 -53 14 -28 31 -58 38 -65 7 -8 10 -17 7 -22 -3
-5 -1 -10 4 -12 8 -3 48 -73 120 -210 39 -73 55 -102 61 -108 8 -8 45 -84 44
-89 -1 -4 9 -16 22 -29 13 -12 24 -20 24 -17 0 4 25 -5 117 -42 7 -3 10 3 6
16 -3 12 -9 21 -14 21 -5 0 -9 6 -9 13 0 7 -9 23 -20 35 -12 12 -18 22 -14 22
4 0 0 8 -8 18 -8 9 -52 78 -99 152 -46 74 -88 138 -94 142 -5 4 -6 8 -1 8 5 0
2 8 -6 18 -22 25 -138 213 -138 223 0 5 -4 9 -10 9 -5 0 -10 7 -10 15 0 9 -7
18 -16 22 -8 3 -13 12 -10 19 3 8 2 14 -3 14 -4 0 -14 12 -22 28 -8 15 -20 33
-27 41 -12 12 -10 17 15 29 15 8 36 21 46 30 9 8 17 12 17 8 0 -4 13 2 29 13
16 12 34 21 39 21 28 0 12 39 -63 158 -46 73 -81 132 -78 132 3 0 -4 9 -17 20
-13 11 -20 20 -17 20 3 0 -30 56 -74 125 -43 69 -79 129 -79 134 0 5 -3 11 -7
13 -5 2 -35 46 -67 98 -32 52 -74 118 -93 147 -18 28 -33 56 -33 62 0 6 -3 11
-7 11 -5 0 -24 27 -43 60 -19 33 -39 60 -43 60 -5 0 -6 4 -3 9 3 4 -5 21 -19
37 -13 16 -30 41 -36 56 -6 15 -15 28 -20 28 -5 0 -9 6 -9 14 0 7 -7 19 -15
26 -8 7 -12 16 -9 21 3 5 1 9 -4 9 -5 0 -15 12 -23 28 -8 15 -16 29 -19 32 -8
8 -29 43 -42 70 -7 14 -15 27 -18 30 -3 3 -18 25 -34 50 -16 25 -40 61 -53 81
-13 19 -23 40 -23 47 0 7 -3 12 -8 12 -4 0 -18 20 -32 45 -14 25 -28 45 -32
45 -5 0 -8 6 -8 13 0 7 -10 24 -22 37 -13 14 -21 26 -19 28 2 2 -1 11 -7 21
-40 57 -92 143 -92 151 0 6 -4 10 -10 10 -5 0 -10 7 -10 15 0 8 -4 15 -8 15
-4 0 -18 20 -30 45 -12 25 -27 45 -32 45 -6 0 -8 5 -5 10 3 6 1 10 -5 10 -6 0
-8 5 -5 10 3 6 1 10 -4 10 -6 0 -11 7 -11 15 0 8 -4 15 -10 15 -5 0 -10 6 -10
14 0 7 -7 19 -15 26 -8 7 -12 16 -9 21 3 5 1 9 -3 9 -5 0 -24 26 -43 58 -19
31 -38 59 -42 60 -5 2 -8 12 -8 23 0 10 -4 19 -8 19 -4 0 -21 22 -37 50 -17
27 -34 50 -38 50 -5 0 -5 5 -2 10 3 6 1 10 -6 10 -7 0 -10 3 -6 6 3 3 1 11 -4
18 -29 33 -97 145 -92 150 4 3 1 6 -6 6 -7 0 -10 4 -7 9 4 5 3 11 -1 13 -13 5
-60 72 -67 96 -4 12 -12 22 -17 22 -6 0 -8 4 -5 9 4 5 3 11 -1 13 -11 4 -83
116 -83 128 0 5 -4 10 -10 10 -5 0 -10 7 -10 15 0 8 -4 15 -10 15 -5 0 -10 6
-10 13 0 8 -8 23 -17 35 -28 33 -88 135 -85 144 1 4 -2 8 -8 8 -5 0 -10 7 -10
16 0 8 -4 12 -10 9 -5 -3 -10 -1 -10 5 0 6 -16 36 -35 66 -19 30 -35 59 -35
64 0 6 -3 10 -7 10 -5 0 -21 23 -38 51 -16 28 -40 68 -53 88 -12 20 -27 46
-32 59 -5 12 -14 22 -20 22 -5 0 -10 4 -10 9 0 7 -19 40 -110 186 -8 13 -40
64 -70 112 -30 48 -58 90 -62 91 -4 2 -8 8 -8 14 0 5 -13 29 -30 53 -16 24
-30 48 -30 54 0 6 -4 11 -10 11 -5 0 -10 5 -10 10 0 12 -41 73 -53 78 -4 2 -5
8 -1 13 3 5 0 9 -6 9 -6 0 -9 4 -6 9 3 4 -3 16 -14 26 -11 10 -20 24 -20 32 0
7 -4 13 -10 13 -5 0 -10 5 -10 11 0 6 -13 30 -30 54 -16 24 -30 46 -30 49 0 2
-17 31 -38 63 -63 94 -89 137 -90 147 0 5 -4 12 -9 15 -9 7 -42 57 -45 68 -1
5 -10 17 -20 27 -10 11 -18 24 -18 29 0 4 -6 15 -12 22 -33 36 -39 46 -33 54
3 5 1 11 -4 13 -5 1 -22 24 -38 50 -17 26 -34 44 -38 40 -5 -4 -5 -1 0 7 4 7
4 16 -1 20 -5 3 -31 43 -59 89 -27 45 -52 82 -57 82 -4 0 -5 -7 -2 -15z"/>
<path d="M3210 9698 c12 -21 19 -38 15 -38 -3 0 1 -7 9 -16 9 -8 16 -22 16
-30 0 -8 5 -14 10 -14 6 0 10 -7 10 -15 0 -8 5 -15 10 -15 15 0 12 16 -6 34
-8 9 -12 16 -7 16 4 0 3 4 -4 8 -6 4 -13 14 -15 21 -2 8 -9 22 -15 30 -39 49
-43 52 -23 19z"/>
<path d="M3285 9561 c-3 -5 0 -15 7 -23 7 -7 24 -36 38 -63 13 -28 48 -91 77
-142 29 -51 53 -96 53 -102 0 -5 6 -16 13 -23 6 -7 23 -35 37 -63 14 -27 27
-52 30 -55 3 -3 17 -27 30 -55 14 -27 28 -51 33 -53 4 -2 7 -8 7 -13 0 -8 117
-225 150 -279 6 -8 18 -31 28 -50 23 -45 113 -209 129 -235 7 -11 15 -27 19
-35 4 -8 25 -46 47 -85 22 -38 40 -75 40 -82 0 -7 4 -13 8 -13 4 0 18 -22 31
-50 13 -27 27 -50 31 -50 5 0 5 -4 2 -10 -3 -5 -2 -10 3 -10 9 0 25 -37 23
-52 -1 -5 3 -8 7 -8 5 0 17 -18 28 -40 10 -22 23 -40 27 -40 5 0 6 -4 3 -9 -3
-5 4 -20 15 -35 11 -14 17 -26 12 -26 -4 0 -3 -4 2 -8 11 -7 25 -32 59 -97 12
-22 26 -43 31 -47 6 -4 6 -8 1 -8 -5 0 -2 -8 7 -18 10 -10 14 -22 10 -25 -3
-4 -2 -7 4 -7 6 0 16 -12 22 -27 6 -16 20 -44 31 -63 41 -68 44 -75 42 -82 -1
-3 5 -12 13 -18 8 -7 15 -16 15 -21 0 -7 168 -316 190 -349 6 -8 15 -27 21
-42 6 -16 15 -28 20 -28 5 0 9 -7 9 -15 0 -17 18 -52 38 -73 6 -7 12 -20 12
-28 0 -8 5 -14 11 -14 5 0 8 -4 4 -9 -3 -5 -1 -13 5 -16 6 -4 20 -28 32 -53
12 -26 28 -53 35 -60 7 -8 11 -18 8 -23 -4 -5 -2 -9 3 -9 5 0 15 -15 23 -32 7
-18 15 -35 18 -38 7 -6 17 -23 61 -108 17 -34 36 -65 41 -68 5 -3 7 -9 4 -14
-3 -4 2 -13 10 -20 8 -7 15 -19 15 -26 0 -8 5 -14 10 -14 6 0 10 -8 10 -17 0
-10 9 -29 20 -43 11 -14 20 -31 20 -37 0 -7 5 -13 11 -13 5 0 8 -4 4 -9 -3 -5
1 -15 8 -23 7 -7 30 -47 51 -88 22 -41 43 -78 48 -81 6 -3 9 -10 9 -15 -1 -5
4 -16 11 -25 7 -8 14 -20 15 -25 1 -5 20 -42 42 -80 23 -39 41 -76 41 -83 0
-6 5 -11 11 -11 5 0 7 -4 4 -10 -3 -5 -2 -10 3 -10 6 0 15 -12 21 -27 9 -26
35 -73 97 -179 13 -22 21 -44 17 -47 -3 -4 -2 -7 3 -7 5 0 25 -30 44 -67 19
-38 40 -71 45 -75 7 -5 7 -8 0 -8 -6 0 -5 -3 1 -8 6 -4 29 -41 51 -82 22 -41
50 -93 62 -115 13 -22 33 -58 44 -80 12 -22 26 -43 30 -46 5 -3 9 -10 9 -15 1
-5 8 -19 16 -32 14 -21 16 -22 33 -6 11 10 19 14 19 9 0 -4 6 -2 13 4 10 8 18
4 34 -17 11 -15 24 -39 28 -52 4 -14 11 -27 15 -30 4 -3 28 -43 52 -90 68
-129 100 -184 110 -191 6 -3 10 -10 10 -15 2 -23 11 -44 19 -44 5 0 9 -9 9
-20 0 -11 4 -20 9 -20 5 0 11 -8 14 -17 7 -21 74 -142 89 -160 6 -7 7 -13 3
-13 -5 0 -2 -8 6 -17 26 -33 90 -153 81 -153 -3 0 3 -7 14 -15 10 -8 15 -15 9
-15 -7 0 -7 -3 0 -8 10 -7 31 -43 82 -142 15 -30 33 -58 38 -62 7 -5 7 -8 0
-8 -7 0 -7 -3 0 -8 9 -6 20 -25 69 -117 6 -11 16 -23 21 -27 6 -4 6 -8 1 -8
-5 0 -2 -8 6 -17 8 -10 21 -33 29 -50 8 -18 17 -33 20 -33 4 0 9 -9 12 -20 4
-14 14 -20 34 -21 15 0 37 -2 48 -4 11 -3 38 -7 60 -10 158 -22 169 -20 131
26 -14 17 -26 35 -26 40 0 6 -6 17 -13 24 -30 35 -37 45 -30 45 4 0 -1 7 -11
15 -11 8 -16 15 -12 15 5 0 -3 15 -18 34 -14 19 -26 37 -26 41 0 3 -20 36 -45
73 -25 37 -45 72 -45 79 0 7 -4 13 -9 13 -5 0 -16 12 -23 28 -22 42 -42 76
-49 82 -9 7 -46 69 -59 98 -5 12 -14 22 -20 22 -5 0 -10 5 -10 10 0 14 -100
174 -111 178 -5 2 -7 7 -4 12 3 4 -2 13 -10 20 -8 7 -15 16 -15 20 0 5 -22 43
-50 84 -27 42 -50 80 -50 85 0 6 -8 15 -17 20 -10 6 -14 11 -10 11 4 0 -10 27
-33 59 -22 33 -40 63 -40 66 0 5 -39 64 -50 75 -3 3 -11 15 -17 28 -25 43 -38
66 -70 115 -24 38 -30 54 -22 64 6 7 15 10 20 7 5 -3 9 0 9 7 0 7 3 9 7 6 3
-4 12 -2 20 4 10 9 10 15 2 25 -6 8 -9 14 -5 14 3 0 -3 9 -14 20 -11 11 -20
27 -20 35 0 8 -4 15 -10 15 -5 0 -10 5 -10 10 0 6 -5 16 -10 23 -21 24 -90
138 -90 147 0 6 -4 10 -8 10 -5 0 -14 10 -19 23 -6 13 -27 49 -47 80 -20 31
-36 59 -36 63 1 3 -8 14 -20 24 -12 11 -19 23 -16 28 3 6 -1 13 -10 16 -9 4
-14 9 -11 12 3 4 1 12 -6 20 -31 34 -42 49 -38 49 3 0 -16 32 -42 72 -26 40
-47 77 -47 82 0 6 -4 11 -8 11 -5 0 -15 12 -23 28 -21 42 -63 106 -74 114 -7
5 -7 8 0 8 6 0 2 5 -8 11 -9 6 -15 14 -12 20 4 5 -1 12 -9 15 -9 3 -13 10 -10
15 3 5 0 9 -6 9 -6 0 -8 5 -5 10 3 6 1 10 -5 10 -6 0 -9 4 -6 9 3 5 -1 12 -10
15 -9 4 -14 9 -11 12 3 4 -3 15 -14 27 -10 11 -19 27 -19 34 0 7 -4 13 -10 13
-5 0 -10 7 -10 15 0 8 -5 15 -11 15 -5 0 -7 5 -4 10 3 6 3 10 -2 10 -4 0 -27
33 -51 73 -24 39 -61 99 -83 132 -21 33 -42 67 -46 75 -3 8 -9 17 -12 20 -8 7
-29 41 -43 70 -7 14 -15 27 -18 30 -4 3 -34 50 -68 105 -34 55 -65 105 -69
110 -7 9 -67 105 -106 170 -7 11 -22 35 -35 53 -13 17 -20 32 -17 32 3 0 -3
10 -15 22 -11 12 -20 28 -20 35 0 7 -3 13 -8 13 -4 0 -16 17 -27 38 -11 20
-22 39 -25 42 -5 4 -93 146 -131 209 -8 14 -18 30 -22 35 -11 15 -184 292
-209 336 -11 19 -23 37 -27 40 -4 3 -11 12 -14 20 -4 8 -16 29 -27 45 -35 53
-54 90 -52 98 1 4 -2 7 -7 7 -9 0 -50 64 -80 123 -7 15 -17 27 -22 27 -5 0 -9
4 -9 9 0 12 -121 204 -134 213 -6 4 -7 8 -3 8 5 0 1 7 -7 16 -9 8 -16 22 -16
30 0 8 -4 14 -10 14 -5 0 -10 7 -10 15 0 8 -4 15 -10 15 -5 0 -10 5 -10 12 0
6 -11 26 -25 43 -13 18 -21 35 -18 39 4 3 2 6 -4 6 -5 0 -15 11 -21 25 -7 14
-16 31 -22 38 -20 23 -59 87 -54 87 2 0 -4 10 -16 22 -11 12 -20 28 -20 35 0
7 -4 13 -10 13 -5 0 -10 6 -10 14 0 8 -4 16 -8 18 -7 3 -62 90 -87 139 -5 10
-13 19 -17 19 -5 0 -8 5 -8 11 0 5 -18 37 -40 70 -23 32 -37 59 -33 59 4 0 3
4 -2 8 -6 4 -24 27 -40 52 -16 25 -34 48 -38 51 -5 3 -8 9 -8 13 1 3 -6 17
-14 31 -8 14 -22 36 -30 50 -8 14 -14 26 -13 28 2 1 -7 13 -19 27 -13 13 -23
30 -23 37 0 15 -16 17 -25 4z"/>
<path d="M7697 9499 c4 -13 8 -18 11 -10 2 7 -1 18 -6 23 -8 8 -9 4 -5 -13z"/>
<path d="M7720 9463 c0 -6 7 -19 16 -27 8 -9 12 -16 8 -16 -4 0 1 -9 11 -20
10 -11 14 -20 10 -20 -4 0 -1 -8 8 -17 8 -10 17 -25 19 -33 2 -8 6 -17 9 -20
11 -10 74 -125 71 -132 -1 -5 3 -8 9 -8 5 0 7 -4 4 -10 -3 -5 -1 -10 4 -10 6
0 11 -9 11 -20 0 -11 4 -20 8 -20 4 0 21 -26 37 -57 17 -32 33 -60 38 -61 4
-2 5 -7 2 -12 -3 -4 2 -13 10 -20 8 -7 15 -21 15 -32 0 -12 4 -16 11 -12 7 4
10 1 7 -6 -2 -8 4 -22 14 -32 10 -10 16 -23 13 -28 -4 -6 -1 -10 4 -10 6 0 11
-6 11 -14 0 -8 7 -22 16 -30 8 -9 12 -16 8 -16 -4 0 0 -8 8 -17 8 -10 26 -40
39 -66 43 -86 52 -102 61 -108 5 -3 10 -12 12 -20 1 -8 14 -35 29 -60 15 -25
27 -51 27 -57 0 -5 3 -12 8 -14 4 -1 23 -32 41 -68 19 -36 45 -82 58 -102 13
-21 20 -38 16 -38 -5 0 -3 -4 3 -8 12 -8 45 -68 43 -78 0 -4 3 -10 8 -13 4 -3
15 -20 24 -36 32 -64 64 -120 70 -125 8 -7 22 -44 21 -52 -1 -5 2 -8 6 -8 5 0
19 -22 32 -50 13 -27 27 -50 32 -50 4 0 7 -3 6 -7 -2 -11 24 -65 39 -80 6 -7
17 -29 23 -48 6 -19 16 -35 21 -35 5 0 9 -4 9 -9 0 -5 17 -40 38 -78 22 -37
56 -99 77 -138 84 -155 110 -202 138 -250 16 -27 30 -57 32 -64 1 -8 7 -17 13
-19 7 -2 10 -8 6 -13 -3 -5 0 -9 7 -9 7 0 9 -3 6 -6 -4 -4 2 -19 13 -34 11
-16 20 -33 20 -39 0 -6 5 -11 12 -11 6 0 8 -3 5 -7 -4 -3 -3 -11 2 -17 5 -6
19 -29 31 -51 51 -90 68 -125 62 -125 -4 0 1 -5 11 -11 9 -6 15 -14 12 -20 -4
-5 -2 -9 3 -9 5 0 12 -8 15 -17 3 -10 22 -47 42 -83 31 -55 63 -113 129 -235
6 -11 17 -28 25 -37 8 -10 10 -18 6 -18 -4 0 -2 -8 6 -17 16 -20 25 -36 65
-114 15 -30 31 -56 34 -59 3 -3 21 -35 40 -72 18 -38 38 -68 43 -68 6 0 7 -3
4 -7 -4 -3 0 -17 8 -29 8 -12 36 -62 61 -111 26 -48 52 -91 58 -95 6 -4 7 -8
2 -8 -5 0 -1 -9 9 -20 10 -11 14 -20 9 -20 -5 0 -4 -4 1 -8 6 -4 20 -25 32
-47 11 -22 31 -58 43 -80 22 -38 44 -79 101 -185 13 -25 27 -47 32 -48 4 -2 5
-8 1 -13 -3 -5 0 -9 6 -9 6 0 8 -4 5 -10 -3 -5 -2 -10 4 -10 10 0 27 -38 23
-52 -1 -5 2 -8 7 -8 5 0 21 -26 37 -57 15 -32 30 -60 34 -63 4 -3 19 -30 34
-60 16 -30 38 -73 51 -95 66 -117 98 -175 122 -225 16 -30 31 -57 34 -60 3 -3
26 -43 50 -90 24 -47 47 -86 52 -88 4 -2 7 -8 7 -13 0 -5 11 -27 25 -49 14
-22 22 -40 18 -40 -5 0 -3 -4 2 -8 6 -4 21 -27 34 -52 38 -71 37 -70 84 -46
23 12 49 26 57 31 8 5 24 11 34 12 11 2 28 10 37 19 10 9 23 17 31 18 7 1 29
11 48 21 19 11 38 18 43 17 12 -3 8 38 -5 53 -7 7 -42 61 -78 119 -36 59 -73
119 -83 134 -9 15 -20 35 -23 45 -4 9 -10 17 -14 17 -4 0 -13 14 -20 30 -7 16
-16 30 -21 30 -5 0 -9 4 -9 10 0 5 -20 41 -45 80 -25 39 -45 75 -45 80 0 6 -3
10 -8 10 -4 0 -16 17 -27 38 -11 20 -22 39 -25 42 -5 4 -92 142 -125 198 -6 9
-23 36 -38 59 -15 24 -27 47 -27 53 0 5 -4 10 -8 10 -8 0 -45 59 -77 121 -5
10 -13 19 -18 19 -4 0 -5 5 -2 10 3 6 2 10 -3 10 -5 0 -14 11 -20 25 -7 14
-17 31 -22 38 -21 24 -119 187 -113 187 4 0 -2 6 -13 14 -10 8 -19 18 -19 23
0 4 -10 22 -23 40 -12 17 -22 34 -22 38 0 3 -11 21 -25 39 -14 18 -22 36 -18
39 3 4 1 7 -5 7 -6 0 -21 17 -32 38 -23 42 -31 55 -82 134 -21 31 -38 62 -38
67 0 6 -5 11 -12 11 -6 0 -9 3 -5 6 3 3 1 11 -4 18 -19 21 -98 146 -93 146 3
0 -1 7 -8 15 -30 33 -66 90 -75 118 -3 9 -9 17 -14 17 -5 0 -9 7 -9 15 0 8 -4
15 -10 15 -5 0 -10 7 -10 15 0 8 -4 15 -10 15 -5 0 -10 5 -10 11 0 6 -13 31
-30 56 -16 24 -30 48 -30 54 0 5 -4 9 -10 9 -5 0 -10 5 -10 10 0 6 -18 38 -40
71 -22 33 -40 63 -40 65 0 3 -9 14 -20 26 -10 12 -17 25 -14 30 3 4 1 8 -4 8
-5 0 -15 14 -22 30 -7 17 -17 30 -22 30 -5 0 -6 5 -3 10 3 6 2 10 -3 10 -5 0
-15 14 -22 30 -7 17 -17 30 -23 30 -6 0 -8 3 -4 6 3 3 1 11 -4 18 -18 20 -109
166 -111 177 -2 7 -12 22 -24 35 -11 12 -29 40 -40 61 -10 20 -27 46 -36 57
-10 11 -18 26 -18 33 0 7 -5 13 -11 13 -5 0 -7 5 -4 10 3 6 2 10 -3 10 -5 0
-15 12 -23 28 -8 15 -22 36 -31 46 -10 11 -18 28 -18 38 0 10 -5 18 -10 18 -6
0 -16 12 -23 28 -6 15 -14 29 -17 32 -10 9 -50 69 -50 74 0 5 -39 69 -70 116
-52 79 -90 142 -90 150 0 6 -4 10 -8 10 -5 0 -17 18 -28 40 -10 22 -22 40 -25
40 -4 0 -12 14 -19 30 -7 17 -17 30 -22 30 -5 0 -6 5 -3 10 3 6 2 10 -3 10 -5
0 -12 8 -16 18 -8 24 -29 56 -43 65 -7 4 -13 17 -13 27 0 11 -4 20 -8 20 -5 0
-19 20 -32 45 -13 25 -27 45 -32 45 -4 0 -8 4 -8 10 0 12 -140 234 -151 238
-4 2 -6 9 -3 16 3 8 -2 16 -10 19 -9 4 -16 13 -16 22 0 8 -4 15 -10 15 -5 0
-10 5 -10 12 0 6 -11 26 -26 45 -14 18 -21 33 -17 33 4 0 3 4 -3 8 -7 4 -20
21 -30 39 -61 103 -108 173 -116 173 -5 0 -7 4 -4 9 3 5 -3 20 -14 34 -11 14
-20 28 -20 31 0 3 -17 31 -38 63 -53 79 -72 112 -72 119 1 3 -8 14 -19 23 -11
10 -19 20 -17 22 3 2 -4 15 -14 29 -11 14 -20 20 -20 13z"/>
<path d="M2744 8998 c9 -16 13 -28 9 -28 -5 0 -3 -4 3 -8 7 -4 20 -23 30 -43
43 -83 67 -124 76 -130 5 -3 10 -10 11 -15 2 -21 22 -64 29 -64 4 0 8 -9 8
-21 0 -11 5 -17 10 -14 6 3 10 -2 10 -12 0 -10 9 -29 20 -43 11 -14 20 -31 20
-37 0 -7 5 -13 11 -13 5 0 8 -4 4 -9 -3 -5 2 -17 11 -25 8 -9 12 -16 7 -16 -4
0 -3 -4 2 -8 6 -4 23 -32 39 -62 48 -91 68 -124 78 -137 6 -7 7 -13 3 -13 -5
0 -2 -8 6 -17 8 -10 24 -36 36 -58 11 -22 31 -58 43 -80 38 -68 103 -189 114
-212 6 -13 15 -23 19 -23 5 0 5 -4 2 -10 -3 -5 -1 -10 5 -10 6 0 8 -4 5 -10
-3 -5 -2 -10 4 -10 10 0 27 -38 23 -52 -1 -5 2 -8 6 -8 4 0 21 -26 37 -57 17
-32 32 -60 35 -63 3 -3 11 -16 18 -30 11 -24 16 -32 40 -75 7 -11 20 -36 30
-55 11 -19 30 -55 43 -80 13 -25 26 -47 29 -50 3 -3 12 -18 20 -35 8 -16 25
-47 37 -67 13 -21 20 -38 16 -38 -5 0 -3 -4 3 -8 6 -4 28 -41 50 -82 21 -41
42 -77 47 -78 4 -2 5 -8 1 -13 -3 -5 -1 -9 4 -9 6 0 17 -17 26 -37 26 -59 69
-137 81 -145 6 -5 6 -8 0 -8 -7 0 -7 -3 0 -8 6 -4 17 -20 26 -37 75 -140 106
-196 130 -236 15 -25 30 -56 33 -67 4 -12 13 -28 19 -35 7 -7 32 -51 56 -97
25 -47 47 -87 50 -90 8 -6 44 -84 41 -88 -1 -2 7 -11 18 -20 10 -9 17 -23 15
-29 -3 -7 -1 -13 4 -13 4 0 14 -15 22 -32 8 -18 17 -35 20 -38 3 -3 17 -27 31
-55 14 -27 28 -52 31 -55 4 -3 9 -15 13 -27 4 -13 14 -30 22 -38 8 -8 17 -24
19 -35 2 -11 11 -27 19 -36 9 -8 16 -22 16 -30 0 -8 5 -14 10 -14 6 0 10 -7
10 -16 0 -8 7 -22 15 -31 8 -8 13 -19 10 -24 -4 -5 -1 -9 4 -9 6 0 11 -6 11
-14 0 -8 3 -16 8 -18 4 -1 15 -19 24 -38 10 -19 33 -64 53 -100 20 -36 55 -99
77 -140 23 -41 50 -91 61 -110 30 -52 70 -127 108 -200 19 -36 37 -67 40 -70
3 -3 28 -48 56 -100 28 -52 63 -117 78 -145 16 -27 33 -59 39 -70 27 -50 36
-55 62 -38 26 17 54 12 54 -11 0 -8 3 -16 8 -18 4 -1 21 -29 37 -60 17 -32 34
-58 38 -58 5 0 7 -6 4 -12 -2 -7 1 -20 8 -28 7 -8 30 -49 51 -90 22 -41 45
-81 52 -88 6 -7 12 -18 12 -23 0 -5 11 -27 25 -49 14 -22 22 -40 18 -40 -5 0
-3 -4 2 -8 17 -12 45 -60 45 -77 0 -8 4 -15 9 -15 5 0 11 -6 13 -13 2 -6 21
-44 42 -83 36 -65 43 -72 85 -84 25 -7 51 -15 56 -19 6 -3 19 -7 30 -8 10 -2
22 -7 25 -11 5 -6 18 -11 45 -16 6 -1 16 -5 23 -9 6 -5 12 -5 12 0 0 4 5 1 10
-7 7 -11 10 -11 10 -2 0 7 -29 60 -65 117 -36 57 -65 108 -65 114 0 6 -5 11
-10 11 -6 0 -13 8 -17 18 -4 9 -19 36 -35 59 -15 23 -28 46 -28 52 0 6 -4 11
-8 11 -5 0 -16 15 -26 33 -21 41 -32 58 -81 132 -21 33 -38 64 -37 68 1 4 -5
10 -13 13 -8 4 -15 15 -15 25 0 10 -4 19 -8 19 -5 0 -19 19 -32 43 -13 23 -26
44 -29 47 -3 3 -15 21 -25 40 -11 19 -22 37 -25 40 -18 15 -43 74 -34 77 20 7
68 53 55 53 -7 0 -10 4 -7 10 3 6 2 10 -2 10 -5 0 -17 15 -28 33 -10 17 -34
57 -54 87 -19 30 -34 58 -33 63 1 4 -2 7 -7 7 -5 0 -16 15 -25 33 -9 17 -39
66 -66 107 -28 41 -53 82 -57 90 -3 8 -24 41 -45 72 -21 31 -38 62 -38 67 0 6
-4 11 -10 11 -5 0 -10 7 -10 15 0 8 -4 15 -10 15 -5 0 -10 6 -10 14 0 7 -7 19
-15 26 -8 7 -12 16 -9 21 3 5 1 9 -4 9 -5 0 -14 10 -20 23 -22 41 -57 96 -74
117 -10 11 -15 20 -12 20 3 0 -8 19 -24 43 -56 82 -86 132 -84 140 1 4 -2 7
-7 7 -5 0 -14 14 -21 30 -7 17 -16 30 -21 30 -5 0 -9 5 -9 11 0 6 -13 30 -30
54 -16 24 -30 48 -30 54 0 6 -4 11 -10 11 -5 0 -10 7 -10 15 0 8 -4 15 -10 15
-5 0 -10 7 -10 15 0 8 -4 15 -10 15 -5 0 -10 9 -10 21 0 11 -4 17 -10 14 -5
-3 -10 -1 -10 5 0 7 -9 25 -21 41 -11 16 -17 29 -14 29 4 0 0 7 -7 15 -23 25
-33 39 -47 68 -8 15 -18 27 -23 27 -5 0 -7 4 -4 9 3 5 -1 14 -9 21 -8 7 -15
19 -15 26 0 8 -4 14 -8 14 -10 0 -37 50 -34 63 1 4 -2 7 -7 7 -4 0 -19 20 -32
45 -13 25 -27 45 -31 45 -5 0 -8 7 -8 15 0 8 -4 15 -10 15 -5 0 -10 7 -10 15
0 8 -4 15 -8 15 -5 0 -14 16 -22 35 -8 19 -17 35 -22 35 -4 0 -8 5 -8 10 0 6
-9 20 -20 32 -10 12 -17 25 -14 30 3 4 1 8 -4 8 -5 0 -22 24 -37 53 -16 28
-35 58 -42 65 -7 7 -13 18 -13 23 0 6 -6 17 -12 24 -30 33 -38 45 -33 45 4 0
-1 7 -9 16 -9 8 -16 21 -16 29 0 7 -4 15 -8 17 -8 3 -81 119 -85 135 -1 4 -12
18 -24 32 -13 13 -23 30 -23 37 0 8 -4 14 -10 14 -5 0 -10 4 -10 9 0 12 -63
115 -72 119 -5 2 -8 7 -8 12 0 5 -18 36 -40 69 -22 33 -40 65 -40 71 0 5 -4
10 -8 10 -5 0 -15 12 -23 28 -7 15 -26 46 -41 69 -15 23 -28 46 -28 52 0 6 -4
11 -10 11 -5 0 -10 7 -10 15 0 8 -4 15 -10 15 -5 0 -10 6 -10 13 0 7 -9 23
-20 35 -11 12 -20 28 -20 37 0 8 -4 15 -10 15 -5 0 -10 7 -10 15 0 8 -4 15 -9
15 -5 0 -14 14 -21 30 -7 17 -16 30 -21 30 -5 0 -9 4 -9 9 0 5 -31 59 -70 120
-38 62 -70 116 -70 121 0 6 -4 10 -8 10 -5 0 -15 12 -23 28 -8 15 -16 29 -19
32 -8 8 -29 43 -43 70 -6 14 -20 34 -29 44 -10 11 -18 26 -18 33 0 7 -4 13
-10 13 -5 0 -10 6 -10 14 0 7 -7 19 -15 26 -9 7 -13 15 -11 17 2 3 -4 13 -15
24 -10 10 -19 26 -19 34 0 8 -4 15 -10 15 -5 0 -10 7 -10 15 0 8 -4 15 -10 15
-5 0 -10 5 -10 11 0 6 -13 30 -30 54 -16 24 -30 48 -30 54 0 6 -4 11 -10 11
-5 0 -10 7 -10 15 0 8 -4 15 -10 15 -5 0 -10 7 -10 15 0 8 -4 15 -10 15 -5 0
-10 5 -10 10 0 12 -52 94 -63 98 -4 2 -5 8 -1 13 3 5 0 9 -5 9 -6 0 -11 7 -11
15 0 8 -4 15 -9 15 -5 0 -14 12 -20 28 -6 15 -21 38 -33 52 l-20 25 16 -27z"/>
<path d="M2270 8305 c0 -5 5 -17 10 -25 5 -8 10 -10 10 -5 0 6 -5 17 -10 25
-5 8 -10 11 -10 5z"/>
<path d="M2300 8268 c0 -14 34 -78 42 -78 5 0 7 -4 3 -9 -3 -5 -1 -12 5 -16 6
-4 7 -11 4 -17 -4 -6 -2 -8 4 -4 6 3 13 -6 17 -24 4 -16 10 -30 13 -30 4 0 20
-27 36 -60 16 -33 34 -60 39 -60 6 0 7 -3 4 -6 -6 -6 20 -62 34 -74 3 -3 21
-34 40 -70 18 -36 38 -68 44 -72 5 -4 7 -8 3 -8 -4 0 10 -30 31 -67 21 -38 51
-90 66 -118 16 -27 43 -78 61 -112 17 -34 35 -59 38 -56 3 4 6 0 6 -8 0 -20
23 -69 33 -69 4 0 7 -9 7 -20 0 -11 4 -20 8 -20 4 0 24 -31 43 -70 18 -38 37
-70 42 -70 4 0 7 -8 7 -18 0 -10 5 -23 11 -29 12 -12 68 -111 76 -135 3 -10
10 -18 15 -18 5 0 7 -4 4 -9 -3 -5 1 -14 9 -21 8 -7 15 -21 15 -31 0 -11 4
-19 10 -19 5 0 12 -11 16 -25 3 -14 9 -25 13 -25 3 0 12 -15 20 -32 8 -18 17
-35 20 -38 3 -3 19 -30 34 -60 26 -52 51 -97 110 -202 15 -27 23 -48 19 -48
-4 0 -1 -4 6 -8 12 -8 73 -115 113 -199 11 -24 25 -43 31 -43 5 0 8 -7 4 -15
-3 -8 -1 -15 3 -15 5 0 14 -13 20 -30 5 -16 14 -30 19 -30 5 0 9 -6 9 -12 0
-7 14 -37 32 -67 17 -29 33 -58 34 -65 1 -6 5 -13 8 -16 6 -4 37 -60 103 -185
11 -22 26 -43 31 -47 6 -4 6 -8 1 -8 -4 0 4 -16 18 -35 15 -19 24 -35 20 -35
-3 0 -2 -6 4 -12 5 -7 22 -34 36 -60 14 -27 38 -69 53 -95 14 -27 36 -67 48
-90 12 -23 28 -49 35 -58 7 -8 9 -15 6 -15 -4 0 5 -17 19 -37 14 -21 25 -43
25 -49 0 -6 7 -17 15 -24 8 -7 15 -22 15 -33 0 -11 3 -17 7 -14 7 8 42 -59 43
-80 0 -7 3 -13 8 -13 4 0 23 -31 42 -68 19 -37 40 -70 45 -74 6 -4 6 -8 2 -8
-5 0 1 -13 12 -29 12 -16 21 -34 21 -39 0 -6 3 -12 8 -14 4 -1 25 -37 46 -78
22 -41 50 -93 63 -115 12 -22 28 -51 33 -65 6 -13 16 -27 21 -31 5 -3 12 -16
14 -29 2 -13 8 -26 13 -29 5 -3 16 -21 25 -38 41 -79 49 -93 54 -93 12 0 233
110 233 116 0 4 -10 23 -22 43 -13 19 -27 43 -33 53 -5 9 -30 49 -55 88 -25
39 -50 79 -55 88 -6 9 -26 42 -46 72 -19 30 -44 71 -55 90 -10 19 -21 37 -25
40 -3 3 -20 30 -38 60 -19 30 -39 58 -45 62 -6 4 -7 8 -2 8 4 0 -4 16 -18 35
-15 19 -25 35 -22 35 4 0 -2 8 -12 18 -11 11 -25 33 -33 50 -8 18 -17 32 -21
32 -5 0 -8 5 -8 10 0 11 -70 121 -83 131 -5 3 -8 10 -8 15 1 5 -4 16 -11 25
-20 25 -49 72 -55 92 -3 9 -9 17 -14 17 -5 0 -9 7 -9 15 0 8 -4 15 -9 15 -5 0
-14 14 -21 30 -7 17 -15 30 -19 30 -3 0 -15 18 -25 40 -11 22 -23 40 -28 40
-5 0 -7 4 -4 8 3 5 -2 18 -12 29 -20 23 -30 38 -78 121 -19 34 -40 62 -45 62
-6 0 -7 5 -4 10 3 6 1 10 -4 10 -6 0 -11 5 -11 11 0 6 -13 31 -30 56 -16 24
-30 48 -30 54 0 5 -4 9 -10 9 -5 0 -10 4 -10 10 0 9 -39 72 -59 96 -6 7 -7 15
-4 18 4 3 2 6 -4 6 -6 0 -16 14 -23 30 -7 17 -17 30 -23 30 -6 0 -8 3 -4 6 3
3 2 11 -4 18 -29 34 -96 145 -91 150 3 3 0 6 -7 6 -7 0 -10 4 -7 9 3 5 -1 11
-9 15 -8 3 -15 10 -15 16 0 11 -39 71 -53 81 -5 3 -7 9 -5 12 1 4 -4 15 -13
26 -10 10 -20 28 -24 40 -3 12 -11 21 -16 21 -6 0 -7 5 -4 10 3 6 2 10 -3 10
-5 0 -15 12 -23 27 -8 15 -35 60 -61 100 -27 40 -48 77 -48 83 0 5 -4 10 -10
10 -5 0 -10 6 -10 13 0 8 -9 22 -20 32 -11 10 -18 20 -16 23 3 2 -11 26 -30
53 -19 27 -34 51 -34 55 0 3 -13 24 -29 47 -16 23 -29 46 -29 51 0 5 -4 12 -9
15 -13 9 -63 89 -63 101 0 5 -5 10 -11 10 -5 0 -7 5 -4 10 3 6 1 10 -5 10 -6
0 -15 10 -20 23 -6 12 -18 34 -28 49 -9 15 -42 67 -72 115 -30 48 -58 90 -62
91 -4 2 -8 8 -8 12 0 8 -53 96 -92 151 -6 10 -11 21 -11 25 -1 5 -11 20 -23
33 -13 14 -21 28 -18 33 3 4 1 8 -3 8 -5 0 -17 17 -28 38 -11 20 -25 41 -32
45 -7 4 -13 15 -13 22 0 8 -5 15 -12 15 -6 0 -9 3 -5 6 3 3 -10 28 -29 55 -19
27 -32 49 -28 49 3 0 -1 7 -8 15 -31 35 -38 45 -38 60 0 8 -4 15 -9 15 -5 0
-13 9 -16 20 -3 11 -12 26 -19 33 -7 7 -20 26 -29 42 -9 17 -16 27 -17 23z"/>
<path d="M1846 7535 c4 -8 8 -15 10 -15 2 0 4 7 4 15 0 8 -4 15 -10 15 -5 0
-7 -7 -4 -15z"/>
<path d="M1860 7500 c0 -5 4 -10 8 -10 8 0 35 -46 36 -62 1 -4 9 -16 18 -27 9
-11 14 -22 11 -25 -4 -3 -1 -6 6 -6 7 0 9 -4 6 -10 -3 -5 -1 -10 5 -10 6 0 9
-4 6 -9 -4 -5 -3 -11 1 -13 5 -1 18 -23 31 -48 39 -76 67 -125 72 -130 3 -3
18 -30 33 -60 15 -30 37 -71 48 -90 11 -19 25 -44 32 -55 6 -11 12 -26 13 -34
2 -8 7 -17 12 -20 5 -3 15 -19 24 -36 8 -16 24 -47 36 -67 12 -21 19 -38 16
-38 -2 0 4 -10 15 -22 11 -11 18 -24 16 -28 -3 -4 2 -13 10 -20 8 -7 15 -19
15 -26 0 -8 5 -14 10 -14 6 0 10 -9 10 -20 0 -10 7 -23 16 -28 9 -5 16 -13 16
-18 1 -16 11 -39 30 -66 11 -16 16 -28 11 -28 -4 0 -3 -4 3 -8 12 -8 45 -68
43 -78 0 -4 3 -10 8 -13 5 -3 14 -17 21 -31 7 -14 28 -52 46 -85 19 -33 32
-64 29 -69 -4 -5 -1 -6 5 -2 7 4 12 3 12 -2 0 -6 16 -39 36 -74 20 -34 37 -69
37 -75 0 -7 4 -13 7 -13 4 0 23 -30 41 -67 19 -38 37 -70 41 -73 4 -3 15 -24
24 -45 9 -22 19 -42 23 -45 6 -5 29 -46 82 -150 19 -36 37 -67 41 -70 4 -3 14
-21 23 -40 8 -19 34 -66 56 -105 22 -38 43 -78 46 -87 3 -10 10 -18 15 -18 5
0 6 -4 3 -10 -3 -5 -2 -10 3 -10 8 0 20 -28 20 -47 0 -3 4 -9 9 -12 6 -3 24
-33 42 -66 18 -33 38 -66 43 -72 6 -7 7 -13 3 -13 -5 0 -2 -8 6 -17 8 -10 19
-27 25 -38 6 -11 30 -56 54 -100 24 -44 54 -96 66 -116 13 -20 20 -40 17 -43
-4 -3 -1 -6 5 -6 7 0 12 -6 12 -14 0 -8 7 -22 16 -30 8 -9 13 -16 10 -16 -3 0
17 -39 44 -86 28 -47 50 -90 50 -95 0 -5 5 -9 12 -9 6 0 9 -3 5 -6 -3 -4 5
-22 18 -42 13 -19 22 -39 19 -44 -3 -4 -1 -8 4 -8 5 0 26 -33 47 -72 21 -40
50 -95 65 -123 16 -27 39 -70 51 -95 12 -25 26 -47 29 -50 4 -3 13 -19 20 -37
12 -26 17 -30 32 -22 10 5 18 7 18 4 0 -3 13 1 29 9 16 9 31 12 35 9 3 -4 6
-1 6 6 0 7 5 9 10 6 6 -3 10 -1 10 5 0 6 5 8 11 5 5 -4 19 1 30 11 10 9 22 14
26 11 11 -12 32 14 26 31 -4 9 -9 19 -13 22 -3 3 -31 45 -61 93 -30 48 -61 99
-69 111 -32 51 -85 138 -95 157 -5 10 -13 19 -17 19 -5 0 -8 5 -8 11 0 6 -13
30 -30 54 -17 24 -30 46 -30 49 0 9 -64 101 -72 104 -5 2 -6 8 -2 13 3 5 1 9
-4 9 -5 0 -12 8 -16 18 -5 17 -26 52 -36 62 -8 8 -29 43 -43 70 -6 14 -20 34
-29 44 -10 11 -18 26 -18 33 0 7 -4 13 -10 13 -5 0 -10 5 -10 12 0 6 -10 25
-23 42 -12 17 -29 43 -36 59 -8 15 -18 27 -23 27 -4 0 -8 6 -8 12 0 11 -28 58
-91 150 -11 15 -19 32 -19 38 0 5 -4 10 -10 10 -5 0 -10 5 -10 10 0 12 -52 94
-63 98 -4 2 -5 8 -1 13 3 5 0 9 -5 9 -6 0 -11 5 -11 10 0 6 -8 23 -19 38 -10
15 -36 54 -56 87 -21 33 -57 90 -81 128 -25 37 -42 67 -38 67 3 0 -1 7 -8 15
-28 30 -38 44 -38 51 0 3 -13 26 -30 51 -16 24 -30 48 -30 54 0 5 -4 9 -10 9
-5 0 -10 6 -10 14 0 8 -4 16 -9 18 -5 2 -11 10 -13 18 -2 8 -13 25 -25 39 -12
14 -20 28 -17 33 3 4 0 8 -5 8 -6 0 -11 6 -11 13 0 7 -9 23 -20 35 -12 12 -18
22 -15 22 3 0 1 6 -5 13 -6 6 -26 37 -45 67 -19 30 -38 60 -43 65 -4 6 -19 29
-32 53 -13 23 -28 42 -32 42 -5 0 -7 4 -3 9 3 5 -2 16 -10 24 -8 9 -15 20 -15
26 0 6 -3 11 -8 11 -4 0 -12 9 -17 20 -20 41 -169 275 -177 278 -4 2 -6 8 -2
13 3 5 0 9 -5 9 -6 0 -11 7 -11 15 0 8 -4 15 -10 15 -5 0 -10 5 -10 11 0 6
-13 30 -30 54 -16 24 -30 48 -30 54 0 6 -4 11 -9 11 -5 0 -14 14 -21 30 -7 17
-16 30 -21 30 -5 0 -9 6 -9 14 0 7 -7 19 -15 26 -8 7 -12 16 -9 21 3 5 0 9 -5
9 -6 0 -11 7 -11 15 0 8 -4 15 -10 15 -5 0 -10 6 -10 13 0 7 -9 23 -19 34 -11
12 -17 24 -14 27 4 3 2 6 -4 6 -5 0 -18 18 -29 40 -10 22 -22 40 -26 40 -5 0
-8 4 -8 9 0 5 -21 42 -47 82 -27 40 -47 74 -45 76 3 5 -24 33 -32 33 -3 0 -6
-4 -6 -10z"/>
<path d="M1393 6821 c0 -11 5 -18 9 -15 4 3 5 11 1 19 -7 21 -12 19 -10 -4z"/>
<path d="M1414 6775 c8 -8 29 -43 47 -78 17 -34 36 -65 43 -69 6 -4 7 -8 2 -8
-5 0 -1 -10 10 -22 13 -14 14 -19 4 -14 -9 4 -8 2 3 -7 9 -8 17 -22 17 -31 0
-9 5 -16 11 -16 5 0 7 -4 4 -10 -3 -5 -3 -10 2 -10 4 0 13 -10 19 -23 14 -28
67 -127 128 -236 25 -46 46 -87 46 -91 0 -4 7 -13 15 -20 8 -7 12 -16 9 -21
-3 -5 -1 -9 4 -9 5 0 12 -8 15 -17 7 -20 74 -142 88 -159 5 -6 6 -14 2 -17 -3
-4 -1 -7 6 -7 7 0 9 -4 6 -10 -3 -5 -1 -10 4 -10 6 0 11 -4 11 -8 0 -11 95
-181 109 -195 6 -6 11 -19 11 -28 0 -9 7 -22 15 -29 8 -7 12 -16 9 -21 -3 -5
-2 -9 3 -9 4 0 14 -15 22 -32 8 -18 17 -35 20 -38 3 -3 24 -39 45 -80 22 -41
52 -97 68 -125 16 -27 32 -58 35 -67 3 -10 9 -18 14 -18 5 0 9 -9 9 -20 0 -11
5 -20 10 -20 6 0 10 -4 10 -10 0 -5 13 -31 29 -59 16 -27 27 -52 24 -55 -4 -3
-1 -6 5 -6 7 0 12 -4 12 -10 0 -5 13 -31 28 -57 16 -26 50 -88 77 -138 26 -49
57 -106 68 -125 20 -36 30 -54 108 -195 24 -44 56 -102 72 -130 15 -27 35 -66
45 -85 9 -19 20 -36 25 -38 4 -2 7 -12 7 -23 0 -10 5 -19 10 -19 6 0 10 -7 10
-15 0 -8 3 -15 8 -15 4 0 16 -20 27 -45 11 -25 24 -45 29 -45 5 0 6 -3 3 -7
-4 -3 -3 -11 2 -17 9 -11 31 -49 74 -131 12 -22 25 -42 28 -45 3 -3 11 -20 18
-37 8 -18 17 -33 22 -33 5 0 6 -7 3 -15 -4 -8 -1 -15 4 -15 6 0 14 -10 17 -21
6 -18 12 -20 44 -14 20 4 44 7 54 8 9 1 17 5 17 9 0 4 11 8 24 8 14 0 28 5 31
10 4 6 10 8 15 5 4 -3 14 2 21 11 10 13 10 17 -2 25 -8 5 -9 9 -4 9 6 0 5 3
-1 8 -13 8 -234 360 -234 372 0 5 -3 10 -8 12 -10 4 -92 137 -92 149 0 5 -3 9
-7 9 -8 0 -41 53 -43 68 -1 4 -8 11 -16 15 -8 4 -14 18 -14 29 0 12 -3 18 -7
15 -4 -4 -13 5 -20 20 -15 32 -24 46 -76 126 -20 31 -37 60 -37 63 0 2 -5 10
-10 17 -17 19 -185 290 -193 310 -3 9 -11 17 -17 17 -5 0 -10 9 -10 19 0 11
-4 21 -8 23 -9 3 -82 114 -82 124 0 3 -11 20 -25 38 -14 18 -22 36 -18 39 3 4
1 7 -5 7 -11 0 -35 36 -48 73 -3 9 -10 17 -15 17 -5 0 -9 6 -9 13 0 8 -9 22
-20 32 -11 10 -18 21 -15 25 2 3 -6 17 -18 31 -12 14 -23 31 -25 39 -2 8 -8
17 -13 18 -5 2 -9 10 -9 18 0 8 -3 14 -8 14 -4 0 -12 9 -17 19 -36 69 -88 151
-96 151 -6 0 -7 5 -4 10 3 6 2 10 -3 10 -5 0 -12 8 -15 18 -8 23 -40 76 -49
80 -5 2 -8 10 -8 18 0 8 -4 14 -10 14 -5 0 -10 4 -10 10 0 9 -39 72 -60 98 -6
6 -7 12 -3 12 4 0 0 5 -10 11 -9 6 -15 14 -12 20 4 5 1 9 -4 9 -6 0 -11 5 -11
11 0 6 -12 26 -26 45 -15 19 -23 34 -20 34 4 0 -2 10 -14 22 -11 12 -20 28
-20 35 0 7 -4 13 -10 13 -5 0 -10 5 -10 11 0 6 -12 26 -26 45 -15 19 -23 34
-20 34 4 0 -2 10 -14 22 -11 12 -20 28 -20 35 0 7 -4 13 -10 13 -5 0 -10 7
-10 15 0 8 -3 15 -8 15 -7 0 -13 9 -42 66 -8 16 -18 34 -23 39 -26 34 -67 102
-67 113 0 6 -4 12 -9 12 -5 0 -20 20 -32 45 -12 25 -29 45 -36 45 -12 0 -12
-3 1 -15z"/>
<path d="M935 6100 c3 -5 8 -10 11 -10 2 0 4 5 4 10 0 6 -5 10 -11 10 -5 0 -7
-4 -4 -10z"/>
<path d="M950 6074 c0 -12 42 -64 51 -64 5 0 -1 12 -15 27 -14 15 -23 30 -20
35 3 4 0 8 -5 8 -6 0 -11 -3 -11 -6z"/>
<path d="M1002 5978 c17 -26 58 -101 109 -198 19 -36 39 -68 44 -72 6 -4 6 -8
2 -8 -5 0 -1 -7 7 -16 9 -8 16 -22 16 -30 0 -8 4 -14 9 -14 5 0 12 -11 15 -25
4 -14 10 -25 15 -25 5 0 12 -13 16 -30 4 -16 11 -32 16 -35 4 -3 16 -23 26
-43 9 -20 20 -39 23 -42 4 -3 19 -30 34 -60 15 -30 35 -68 45 -85 10 -16 33
-57 51 -90 18 -33 37 -65 41 -71 5 -6 6 -14 2 -17 -3 -4 -2 -7 3 -7 6 0 16
-16 24 -35 8 -19 17 -35 22 -35 4 0 8 -9 8 -20 0 -11 4 -20 9 -20 5 0 11 -8
14 -17 3 -10 23 -47 43 -83 20 -36 47 -84 59 -107 12 -23 28 -49 35 -58 7 -8
9 -15 4 -15 -5 0 -4 -4 1 -8 11 -8 16 -16 76 -129 23 -43 71 -132 108 -198 36
-66 65 -123 63 -127 -1 -4 2 -8 7 -8 5 0 19 -21 31 -47 12 -27 27 -51 32 -54
5 -3 10 -12 11 -20 2 -8 7 -21 12 -29 6 -8 15 -25 22 -37 30 -58 49 -89 61
-105 7 -9 14 -22 16 -30 1 -7 14 -34 29 -59 15 -25 27 -51 27 -57 0 -7 3 -12
8 -12 4 0 12 -10 17 -23 26 -54 81 -153 90 -159 5 -4 12 -5 16 -2 4 2 24 6 44
10 35 5 59 10 95 19 8 2 17 4 19 4 2 1 -4 12 -13 26 -9 14 -14 25 -12 25 3 0
-6 12 -19 26 -14 15 -25 33 -25 40 0 8 -4 14 -10 14 -5 0 -10 5 -10 11 0 6
-13 30 -30 54 -17 24 -30 48 -30 54 0 6 -4 11 -10 11 -5 0 -10 5 -10 10 0 6
-18 37 -40 69 -22 32 -40 63 -40 69 0 6 -4 12 -8 14 -4 2 -41 57 -81 123 -41
66 -76 122 -80 125 -7 6 -28 41 -49 83 -7 15 -18 27 -24 27 -6 0 -9 3 -5 6 3
3 -19 44 -49 90 -30 46 -51 84 -47 84 5 0 2 4 -5 8 -7 5 -52 73 -102 153 -49
79 -94 149 -99 156 -6 7 -11 15 -11 19 0 4 -10 21 -23 38 -13 17 -27 38 -30
46 -4 8 -20 35 -37 60 -16 25 -44 70 -62 100 -17 30 -36 60 -40 65 -20 24 -57
85 -52 85 2 0 -3 9 -13 19 -10 11 -31 43 -46 72 -16 28 -33 56 -38 63 -23 27
-58 86 -51 86 4 0 2 4 -3 8 -6 4 -24 28 -40 54 -17 27 -33 48 -36 48 -3 0 -11
16 -19 35 -8 19 -17 35 -22 35 -4 0 -8 7 -8 15 0 8 -4 15 -10 15 -5 0 -10 7
-10 15 0 8 -4 15 -9 15 -5 0 -15 16 -22 35 -7 19 -17 35 -21 35 -4 0 -8 7 -8
15 0 8 -4 15 -10 15 -5 0 -10 7 -10 15 0 8 -4 15 -8 15 -5 0 -14 11 -20 25 -6
14 -17 25 -23 25 -7 0 -6 -8 3 -22z"/>
<path d="M506 5338 c4 -7 16 -25 26 -40 10 -14 18 -33 18 -42 0 -9 4 -16 8
-16 5 0 14 -16 22 -35 8 -19 16 -35 20 -35 3 0 12 -16 19 -35 7 -19 17 -35 22
-35 5 0 8 -3 7 -7 -3 -12 45 -103 54 -103 4 0 8 -9 8 -19 0 -11 3 -21 8 -23 4
-1 18 -23 31 -48 13 -25 33 -63 45 -85 11 -22 24 -41 29 -43 4 -2 7 -12 7 -23
0 -10 5 -19 10 -19 6 0 10 -4 10 -9 0 -5 26 -55 58 -112 31 -57 64 -118 72
-134 8 -17 17 -32 20 -35 3 -3 14 -23 26 -45 11 -22 36 -67 54 -100 18 -33 46
-82 60 -110 46 -85 82 -149 93 -162 5 -7 6 -13 1 -13 -5 0 -4 -4 2 -8 9 -6 71
-114 121 -214 8 -15 19 -30 24 -33 5 -4 7 -10 4 -15 -3 -4 2 -13 10 -20 8 -7
15 -19 15 -26 0 -8 5 -14 10 -14 6 0 10 -8 10 -17 0 -10 9 -29 20 -43 11 -14
20 -31 20 -37 0 -7 4 -13 9 -13 5 0 11 -8 13 -18 4 -15 15 -18 66 -16 33 1 65
5 71 8 10 7 -17 66 -31 66 -5 0 -8 5 -8 11 0 6 -13 30 -30 54 -16 24 -30 48
-30 52 0 5 -8 18 -18 29 -10 10 -25 34 -32 52 -8 17 -18 32 -21 32 -4 0 -14
15 -23 33 -19 37 -39 70 -46 77 -8 7 -234 371 -239 384 -2 6 -7 13 -11 16 -11
8 -90 141 -90 151 0 5 -4 9 -8 9 -5 0 -15 12 -23 28 -7 15 -24 41 -36 58 -13
17 -20 34 -16 37 3 4 1 7 -6 7 -6 0 -17 12 -24 28 -7 15 -33 59 -59 99 -27 40
-48 76 -48 81 0 5 -9 17 -20 27 -11 10 -20 24 -20 32 0 7 -5 13 -11 13 -6 0
-8 7 -5 17 4 10 4 14 0 10 -7 -7 -64 76 -64 93 0 6 -5 10 -11 10 -5 0 -7 5 -4
10 3 6 2 10 -2 10 -5 0 -26 28 -46 63 -21 34 -43 71 -50 82 -7 11 -15 22 -18
25 -3 3 -8 10 -10 15 -11 28 -55 95 -62 95 -5 0 -5 -6 -1 -12z"/>
<path d="M30 4646 c0 -2 7 -9 15 -16 13 -11 14 -10 9 4 -5 14 -24 23 -24 12z"/>
<path d="M60 4601 c0 -5 6 -16 13 -23 23 -24 67 -115 59 -123 -4 -5 -2 -5 4
-2 6 3 17 -9 24 -28 8 -19 18 -35 24 -35 5 0 7 -3 3 -6 -3 -4 5 -23 18 -43 14
-19 25 -41 25 -48 0 -7 5 -13 11 -13 5 0 8 -4 4 -9 -3 -5 0 -15 7 -23 7 -7 20
-26 28 -43 8 -16 27 -50 42 -74 15 -24 25 -48 22 -52 -3 -5 -1 -9 4 -9 5 0 25
-31 45 -70 21 -38 48 -89 62 -112 14 -24 33 -60 42 -80 10 -21 21 -38 25 -38
5 0 8 -5 8 -11 0 -6 15 -37 34 -69 19 -32 32 -61 29 -64 -4 -3 -1 -6 5 -6 7 0
12 -7 12 -15 0 -13 18 -20 42 -16 4 0 19 -4 33 -9 31 -12 33 4 5 40 -11 14
-20 29 -20 33 0 10 -43 71 -52 75 -5 2 -8 8 -8 13 0 5 -12 28 -27 52 -15 23
-32 50 -38 59 -49 84 -121 194 -127 196 -4 2 -8 8 -8 13 0 6 -18 37 -40 70
-22 33 -40 64 -40 69 0 5 -4 10 -8 12 -9 4 -61 90 -58 98 0 3 -11 18 -27 34
-15 15 -25 32 -22 37 4 5 2 9 -2 9 -5 0 -17 17 -28 38 -11 20 -24 42 -28 47
-4 6 -26 38 -48 73 -39 60 -49 72 -49 53z"/>
</g>
</svg>
