<svg width="70" height="70" viewBox="0 0 70 70" fill="none" xmlns="http://www.w3.org/2000/svg">
<path fill-rule="evenodd" clip-rule="evenodd" d="M8.46017 0.314932C6.44934 0.940637 4.59292 2.62319 3.6161 4.70538L3 6.0185V54.1665L3.52019 55.4501C4.22449 57.1883 6.12248 59.0765 7.86871 59.7762C9.14379 60.2872 9.2762 60.2945 19.3205 60.4032L29.4824 60.5133L30.9781 62.3661C33.0538 64.9368 35.0294 66.5154 37.9504 67.9371C40.9465 69.3953 42.5323 69.81 45.7239 69.9702C51.8743 70.279 57.1792 68.182 61.4115 63.769C63.2099 61.8939 64.0664 60.6514 65.1569 58.3357C67.8496 52.6188 67.574 45.545 64.4471 40.1069C61.9071 35.6897 57.0898 31.8926 52.5097 30.6974L51.0602 30.319L51.0448 23.6402C51.0362 19.9668 50.9608 16.7892 50.8772 16.5791C50.7936 16.3688 47.2341 12.5526 42.9672 8.0985L35.2091 0L22.2938 0.0146636C12.3173 0.026044 9.16974 0.0943262 8.46017 0.314932ZM33.065 8.48062C33.1334 13.8647 33.1374 13.9038 33.7192 14.9915C34.4648 16.3856 35.4817 17.3523 36.8731 17.9896C37.901 18.4602 38.3006 18.4978 42.9769 18.5628L47.9808 18.6322L47.9786 29.8737L46.0551 29.9233C42.1945 30.0229 38.2364 31.3645 35.0035 33.6693L33.5738 34.6885L23.8485 34.7979C13.088 34.9189 13.4415 34.867 13.3997 36.3325C13.3852 36.8394 13.5293 37.1793 13.8777 37.46C14.3416 37.8336 14.946 37.8619 22.512 37.8619H30.6475L30.177 38.5731C29.9181 38.9642 29.3392 39.9445 28.8905 40.751L28.0749 42.2177L21.0988 42.2829C13.3726 42.3554 13.4406 42.3422 13.3997 43.7736C13.3852 44.2804 13.5293 44.6203 13.8777 44.9011C14.3361 45.2703 14.8939 45.3029 20.7563 45.3029H27.1363L26.9868 45.9048C26.9045 46.2357 26.7831 47.6884 26.7169 49.1329C26.5913 51.8777 26.9522 54.6955 27.6387 56.3301C27.8182 56.7575 27.9649 57.1594 27.9649 57.2235C27.9649 57.2876 23.9688 57.3399 19.0844 57.3399C9.26323 57.3399 8.95595 57.3034 7.53812 55.9627C7.12966 55.5766 6.61189 54.8669 6.38731 54.3854C5.99777 53.5502 5.97885 52.442 5.97424 30.2497C5.96896 4.95115 5.90319 6.35051 7.17585 4.69027C7.46883 4.30794 8.13398 3.78575 8.65373 3.52969C9.58172 3.07272 9.80959 3.0644 21.2974 3.06418L32.996 3.06397L33.065 8.48062ZM42.892 12.4482L45.8317 15.5387H42.2514C38.8428 15.5387 38.627 15.5129 37.7459 14.999C36.2592 14.1321 36.1017 13.5688 36.1132 9.15885L36.1233 5.36194L38.0378 7.35986C39.0909 8.45873 41.2753 10.7484 42.892 12.4482ZM14.0387 27.8184C13.1012 28.3644 13.2233 29.9301 14.2391 30.3906C15.0021 30.7366 29.4866 30.7381 30.2492 30.3923C30.5492 30.2564 30.915 29.8562 31.0619 29.5031C31.2935 28.9468 31.2702 28.7822 30.8881 28.273L30.4471 27.6851L22.4423 27.6357C17.1042 27.6026 14.3048 27.6634 14.0387 27.8184ZM51.6506 33.6143C56.5529 35.0213 60.6043 38.6163 62.6162 43.3446C65.962 51.2076 62.911 60.3511 55.4961 64.6823C53.0121 66.1333 50.8081 66.7721 47.7954 66.9144C44.9252 67.0501 42.8495 66.7601 40.728 65.9273C36.5535 64.2886 33.4447 61.4356 31.4897 57.4493C30.0428 54.4996 29.6394 52.5667 29.7837 49.2775C29.9117 46.3674 30.2909 44.7781 31.4004 42.5055C33.9028 37.3786 39.3901 33.5351 45.0114 32.9713C46.7302 32.7991 49.8689 33.1031 51.6506 33.6143Z" fill="#171717"/>
<path fill-rule="evenodd" clip-rule="evenodd" d="M46.0532 35.9022C45.531 36.1088 45.1223 36.9022 45.1208 37.7119C45.1201 38.0704 44.8793 38.2886 44.1585 38.5836C42.7354 39.1658 41.4882 40.3391 40.791 41.7522C40.2769 42.7937 40.1738 43.2816 40.1795 44.6463C40.1951 48.4098 42.5948 50.9082 46.6838 51.4192C48.3343 51.6254 49.0417 51.9872 49.8181 53.0219C50.4153 53.8177 50.5612 55.7394 50.0929 56.6404C48.4115 59.8756 43.9403 59.2026 43.1643 55.598C43.0229 54.9408 42.7466 54.2269 42.5506 54.0113C42.068 53.4808 41.1354 53.5174 40.5169 54.0908C40.068 54.5071 40.0227 54.7029 40.1322 55.7578C40.3803 58.151 41.9715 60.3165 44.1358 61.2073C45.035 61.5772 45.0794 61.6397 45.18 62.6811C45.4327 65.2981 48.201 65.1539 48.201 62.5237C48.201 61.6936 48.2745 61.4977 48.586 61.4962C49.1913 61.4929 51.1594 60.2818 51.8103 59.512C52.8538 58.2784 53.3236 57.106 53.4265 55.4796C53.5539 53.4646 52.9741 51.8804 51.6022 50.4957C50.3258 49.2077 49.104 48.6315 47.123 48.3842C45.2453 48.1495 44.0509 47.4709 43.5063 46.3289C42.7664 44.7774 43.1658 43.0588 44.5467 41.8524C45.2706 41.2202 45.5 41.1447 46.6981 41.1447C48.8877 41.1447 49.999 42.0796 50.4068 44.2647C50.5385 44.9713 50.7991 45.5596 51.0849 45.7953C52.1561 46.6791 53.48 45.9369 53.48 44.4527C53.48 41.7898 51.3042 39.0137 48.586 38.2085C48.3335 38.1337 48.201 37.8748 48.201 37.4552C48.201 36.2975 47.0883 35.4927 46.0532 35.9022Z" fill="#C80D0D"/>
</svg>
