<svg width="70" height="70" viewBox="0 0 70 70" fill="none" xmlns="http://www.w3.org/2000/svg">
<path fill-rule="evenodd" clip-rule="evenodd" d="M32.3428 3.25264C30.0301 3.90885 28.1756 5.41211 27.0267 7.56223C26.564 8.42822 26.4858 8.93818 26.4858 11.0919C26.4858 13.4269 26.5415 13.7268 27.2533 15.2298C28.5386 17.9431 31.052 20.1637 33.4243 20.6818C33.9206 20.7902 33.2661 20.9012 31.4008 21.0249C27.9869 21.2515 25.7476 21.7001 24.2547 22.4565C21.6145 23.7946 19.5903 26.4067 18.8279 29.4602C18.6339 30.2365 18.3045 32.6518 18.0959 34.8276C17.8873 37.0033 17.6166 39.5927 17.4946 40.5817C16.9801 44.7493 16.9417 45.5983 17.2508 45.9706C17.6451 46.4458 18.7885 46.4398 19.1865 45.9603C19.5145 45.5652 20.1585 40.9123 20.6114 35.6667C20.9564 31.669 21.2328 30.237 21.9902 28.5242C22.7505 26.8052 24.6712 24.9729 26.2974 24.4155C28.149 23.7809 32.1047 23.4881 36.7953 23.6385C41.6038 23.7926 43.3437 24.1309 44.9069 25.2156C47.5145 27.0248 48.267 28.6119 48.7852 33.395C49.2174 37.3845 50.0386 43.9226 50.2549 45.096C50.4387 46.0946 51.2513 46.5444 52.1396 46.1397C52.8847 45.8002 52.8922 45.4878 52.269 40.7016C52.0113 38.7236 51.6413 35.5857 51.4467 33.7285C50.9144 28.6525 49.835 26.0411 47.373 23.8742C45.2819 22.0333 43.0088 21.3143 38.3537 21.0208L35.5965 20.847L36.8181 20.5044C39.212 19.8329 41.6551 17.3792 42.7187 14.5782C43.5252 12.4542 43.5026 9.28127 42.6693 7.61809C41.8471 5.97769 40.2732 4.45981 38.6412 3.73359C36.9904 2.99922 34.0326 2.77337 32.3428 3.25264ZM37.7888 6.12946C38.8452 6.68041 39.984 7.87607 40.3993 8.86961C40.8498 9.94802 40.8507 12.1878 40.4012 13.4619C39.5582 15.8513 37.4019 17.8705 35.3678 18.1754C31.8662 18.7007 28.1704 13.881 29.0239 9.90199C29.4499 7.91467 30.5626 6.63821 32.4936 5.92087C33.7118 5.46845 36.7507 5.58809 37.7888 6.12946ZM25.1065 31.8906C24.8174 32.2142 24.64 33.5974 24.3305 37.9444C23.8788 44.2871 23.9047 45.8119 24.4707 46.1668C24.9754 46.483 26.0337 46.2037 26.2255 45.7038C26.3091 45.4858 26.4832 43.8934 26.6122 42.1653C26.7412 40.4371 26.9661 37.5342 27.1116 35.7139C27.3552 32.6688 27.3427 32.3675 26.9538 31.9378C26.429 31.3578 25.6012 31.3367 25.1065 31.8906ZM42.774 31.8798C42.331 32.3231 42.3329 32.4403 42.9244 41.0612C43.2061 45.1655 43.3286 45.8138 43.8908 46.1665C44.4871 46.5405 45.5187 46.1699 45.6811 45.523C45.8254 44.9481 45.1713 34.105 44.9129 32.7897C44.8352 32.3941 44.6631 31.9357 44.5302 31.7707C44.1855 31.3427 43.2533 31.4005 42.774 31.8798Z" fill="#171717"/>
<path fill-rule="evenodd" clip-rule="evenodd" d="M33.9525 40.8672C33.758 41.1717 32.8189 42.9927 31.8654 44.9138L30.1317 48.4068L26.1504 48.9618C23.9607 49.267 21.9293 49.6063 21.6363 49.7159C21.3433 49.8254 21.0321 50.1997 20.9448 50.5476C20.8022 51.116 21.1088 51.5035 23.9859 54.3863L27.1856 57.5927L26.6232 60.7752C26.3139 62.5257 26.0087 64.5746 25.9447 65.3287C25.8337 66.6416 25.8567 66.7123 26.4927 67.0019C27.1137 67.2851 27.4108 67.1731 31.0816 65.2716L35.0067 63.2385L38.9226 65.2706C42.5815 67.1697 42.8819 67.2831 43.5007 67.0012C44.1348 66.7123 44.1581 66.6408 44.0471 65.3287C43.9831 64.5746 43.6779 62.5257 43.3686 60.7752L42.8061 57.5927L45.9737 54.4184C47.716 52.6727 49.1414 51.0777 49.1414 50.8739C49.1414 49.7482 48.4581 49.5396 42.0533 48.7094L39.8799 48.4277L37.8576 44.4449C35.9252 40.6392 35.801 40.4585 35.0707 40.3877C34.4857 40.3311 34.2231 40.4438 33.9525 40.8672ZM36.5248 47.5348C37.2841 49.1172 38.0868 50.5087 38.3086 50.6272C38.5306 50.7454 40.0878 51.0331 41.7689 51.2666C43.4501 51.5001 44.8258 51.7703 44.8258 51.8669C44.8258 51.9638 43.8207 52.9976 42.5925 54.1643C41.364 55.3309 40.2947 56.4587 40.2158 56.6702C40.0976 56.9874 40.6764 61.1097 41.1077 63.0246C41.2062 63.4619 40.8025 63.3166 38.1086 61.9457L34.9959 60.3614L31.8831 61.9457C29.1895 63.3166 28.7855 63.4619 28.8843 63.0246C28.9471 62.7467 29.1209 61.764 29.2705 60.8409C29.4204 59.9179 29.6249 58.6772 29.7254 58.0838C29.8268 57.4849 29.8093 56.8181 29.686 56.5851C29.5642 56.3542 28.4973 55.2328 27.3151 54.0933C26.1331 52.954 25.1659 51.9472 25.1659 51.8564C25.1659 51.7655 26.5417 51.5001 28.2228 51.2666C29.904 51.0331 31.4415 50.7552 31.6393 50.649C31.8371 50.5428 32.6427 49.1512 33.4296 47.5566C34.2162 45.9623 34.9239 44.6575 35.0023 44.6575C35.0805 44.6575 35.7657 45.9522 36.5248 47.5348ZM10.1509 46.5135C10.0024 46.6134 9.22492 48.0059 8.42318 49.6077L6.96571 52.5198L5.4567 52.6912C-0.995326 53.4237 -1.29094 53.8662 2.30249 57.4132L4.61325 59.6942L4.07164 62.9738C3.55233 66.1194 3.54754 66.2728 3.95584 66.724C4.19008 66.9827 4.58903 67.1944 4.84221 67.1944C5.09563 67.1944 6.54878 66.531 8.07122 65.7202L10.8397 64.2462L13.7747 65.7736C16.4422 67.1618 16.7671 67.2747 17.3413 67.0132C18.1232 66.6569 18.1474 65.9935 17.5087 62.3993L17.0613 59.8819L19.4353 57.4592C20.741 56.1266 21.8094 54.8591 21.8094 54.6421C21.8094 53.7962 20.9609 53.3534 18.7813 53.0621C14.3597 52.4711 14.9476 52.8499 13.1782 49.4502C11.8653 46.9273 11.5254 46.4458 11.0204 46.3936C10.6908 46.3593 10.2995 46.4132 10.1509 46.5135ZM58.0957 46.9951C57.8902 47.3576 57.1671 48.7326 56.4886 50.0503C55.0926 52.7619 55.5934 52.4761 51.2105 53.0621C49.0249 53.3544 48.1824 53.796 48.1824 54.65C48.1824 54.8715 49.2342 56.1151 50.52 57.4139C51.8058 58.7129 52.8729 59.7994 52.8916 59.8287C52.9106 59.8579 52.7255 61.0148 52.4807 62.3993C51.8451 65.9952 51.8693 66.6571 52.6487 67.0125C53.2203 67.2728 53.5545 67.1582 56.2364 65.7828L59.1938 64.2658L61.9579 65.73C63.4782 66.5356 64.922 67.1944 65.1661 67.1944C65.4104 67.1944 65.8045 66.9796 66.0419 66.7173C66.4583 66.257 66.4543 66.1232 65.9268 62.9616L65.3797 59.6832L67.6897 57.4249C69.3117 55.8397 70 54.9991 70 54.6044C70 53.4774 69.5188 53.3136 64.2912 52.6624L63.0179 52.5037L61.5645 49.5996C60.7649 48.0023 59.9893 46.6161 59.8409 46.5192C59.2451 46.1308 58.4652 46.3435 58.0957 46.9951ZM13.3516 54.8135C13.5858 54.8809 14.6139 55.0657 15.6357 55.2242C16.6575 55.3827 17.4938 55.5551 17.4938 55.6073C17.4938 55.6596 16.8446 56.3074 16.0512 57.0473C15.2579 57.7869 14.5489 58.6304 14.4758 58.9215C14.3597 59.3839 14.6292 61.4408 15.0169 63.0529C15.1346 63.5422 14.9718 63.4948 13.0454 62.4785L10.9456 61.3706L8.91731 62.3766C7.8015 62.9299 6.84056 63.3344 6.78182 63.2754C6.68568 63.1793 7.00096 60.9992 7.31839 59.5657C7.41669 59.1217 7.09854 58.6561 5.74009 57.2549L4.03855 55.5002L6.15079 55.205C7.31264 55.043 8.40736 54.7941 8.58358 54.6522C8.76004 54.5105 9.34 53.5277 9.8725 52.4685L10.8409 50.5423L11.8831 52.6166C12.465 53.7749 13.1135 54.7449 13.3516 54.8135ZM60.1466 52.5229C60.6642 53.5522 61.2317 54.5105 61.4082 54.6522C61.5844 54.7941 62.6791 55.043 63.841 55.205L65.9532 55.5002L64.2421 57.2648C63.038 58.5067 62.5693 59.1557 62.6604 59.4556C62.8901 60.2118 63.3092 63.1761 63.2018 63.2838C63.1445 63.3411 62.2008 62.9309 61.1049 62.3725L59.1123 61.3571L56.9809 62.4658C55.0343 63.4782 54.8605 63.5286 54.9763 63.0467C55.3608 61.4482 55.6322 59.3847 55.5179 58.9294C55.446 58.6426 54.737 57.7879 53.9425 57.03C53.1479 56.2724 52.4979 55.6191 52.4979 55.5786C52.4979 55.5383 53.3879 55.3695 54.4759 55.2041C55.5639 55.0384 56.616 54.82 56.814 54.7186C57.0123 54.6171 57.6001 53.6605 58.1209 52.5927C58.6414 51.525 59.0984 50.6514 59.1365 50.6514C59.1746 50.6514 59.6292 51.4936 60.1466 52.5229Z" fill="#C80D0D"/>
</svg>