<svg width="70" height="70" viewBox="0 0 70 70" fill="none" xmlns="http://www.w3.org/2000/svg">
<path fill-rule="evenodd" clip-rule="evenodd" d="M43.329 28.7185C42.9397 28.8754 39.3256 32.191 33.2218 37.9911L32.2862 38.8799L29.6047 36.0933C27.2956 33.694 26.8287 33.307 26.2444 33.3097C25.3862 33.3136 24.8403 33.9055 24.8403 34.8326C24.8403 35.467 25.2352 35.9515 28.176 38.9245C30.0107 40.7793 31.7379 42.3535 32.0141 42.4226C32.2989 42.4941 32.7391 42.4027 33.0313 42.2117C34.2388 41.4222 45.2384 30.831 45.3623 30.3388C45.4962 29.806 44.9734 28.719 44.5832 28.719C44.4751 28.719 44.2555 28.6759 44.095 28.6234C43.9343 28.5707 43.5897 28.6135 43.329 28.7185Z" fill="#C80D0D"/>
<path fill-rule="evenodd" clip-rule="evenodd" d="M31.6089 2.41931C29.9963 3.475 28.3208 4.58231 27.8858 4.88025L27.0949 5.42188L22.336 5.22544C18.3587 5.06137 17.5289 5.07931 17.2843 5.33481C17.1232 5.50303 16.0917 7.4125 14.9921 9.57812L12.9926 13.5156L8.95168 15.5353C6.52951 16.7459 4.81301 17.7371 4.667 18.0094C4.489 18.3413 4.48636 19.5343 4.65714 22.4268C4.78604 24.6065 4.89127 26.6478 4.89127 26.9633C4.89127 27.3266 3.99399 28.8968 2.44476 31.2451C0.96304 33.4908 -0.00109517 35.1688 9.33627e-07 35.5C0.00109704 35.8255 0.998773 37.5705 2.46493 39.8105L4.9281 43.5741L4.67205 48.0786C4.45107 51.966 4.46006 52.6491 4.73694 53.065C4.91867 53.3377 6.76342 54.3899 8.98764 55.4896L12.9172 57.4323L14.9877 61.4691C16.1264 63.6892 17.1808 65.6074 17.331 65.7319C17.6236 65.9745 19.53 65.9673 24.0731 65.7063L26.923 65.5425L30.7059 68.0213C32.8955 69.4559 34.7119 70.5 35.0189 70.5C35.3247 70.5 37.1545 69.4518 39.3472 68.0202L43.1454 65.5407L45.9953 65.7052C51.0398 65.9968 52.4774 65.987 52.7835 65.6591C52.9373 65.4941 53.9782 63.5783 55.0962 61.4013L57.1293 57.4433L61.0698 55.4951C63.3212 54.3821 65.1488 53.3388 65.3337 53.0615C65.6112 52.6448 65.623 52.0511 65.4172 48.8724C65.0465 43.1528 64.8452 43.9917 67.5894 39.8214C69.3217 37.1892 70 35.9716 70 35.4945C70 35.0205 69.3537 33.8469 67.7409 31.3919C66.4984 29.5006 65.4049 27.826 65.3111 27.6707C65.217 27.5156 65.2604 25.3771 65.4071 22.919C65.6414 18.994 65.6335 18.3889 65.3422 17.9514C65.1469 17.6583 63.3962 16.6551 61.0904 15.5152L57.1707 13.5773L55.0905 9.53656C53.9464 7.31406 52.8836 5.39037 52.7289 5.26175C52.5316 5.09769 51.0588 5.08872 47.7964 5.23178L43.1454 5.43566L41.3916 4.31041C40.427 3.69156 38.7145 2.58119 37.5862 1.84269C36.4576 1.10419 35.3106 0.5 35.0375 0.5C34.7643 0.5 33.2215 1.36362 31.6089 2.41931ZM38.912 6.33931C40.442 7.339 41.9217 8.23566 42.2003 8.33191C42.479 8.42816 43.9401 8.43735 45.4472 8.35225C46.9544 8.26738 48.8287 8.18906 49.6124 8.17878L51.0374 8.15953L52.9161 11.9314L54.7946 15.7031L58.5062 17.6067C60.5474 18.6538 62.297 19.5415 62.3939 19.5794C62.4908 19.6174 62.4502 21.586 62.3034 23.9537L62.0366 28.2592L64.3741 31.7882C65.6599 33.7294 66.7117 35.4083 66.7117 35.5192C66.7117 35.6302 65.6596 37.2966 64.3735 39.2225L62.0355 42.7238L62.3014 47.013C62.4476 49.372 62.5379 51.3272 62.502 51.3576C62.4662 51.388 60.7283 52.277 58.6399 53.3332L54.843 55.2533L52.9117 59.1033L50.9806 62.9531L48.8166 62.8109C47.6267 62.7328 45.6171 62.6596 44.3511 62.6484L42.0493 62.6278L38.5518 64.9166L35.0544 67.2052L34.4772 66.8292C34.1597 66.6224 32.5526 65.5812 30.906 64.5154L27.9121 62.578L25.335 62.6471C23.9175 62.6852 21.9311 62.7204 20.9207 62.7254L19.0837 62.7344L17.181 59.0156L15.2782 55.2969L11.5646 53.3933C9.52188 52.3462 7.78126 51.4602 7.69642 51.4246C7.61158 51.3887 7.64534 49.4055 7.7714 47.0174L8.0007 42.6754L5.67871 39.1982C4.40153 37.2857 3.35672 35.6319 3.35672 35.523C3.35672 35.4138 4.39736 33.7647 5.66906 31.8576L7.98163 28.3906L7.85492 25.4375C7.78543 23.8133 7.67582 21.8445 7.61158 21.0625L7.49474 19.6406L11.3758 17.6719L15.2571 15.7031L17.153 11.9844L19.0488 8.26562L20.9032 8.27416C21.9232 8.27897 23.9416 8.31681 25.3885 8.35816L28.0191 8.43362L31.5214 6.11466C34.9882 3.81909 35.0292 3.79941 35.577 4.15859C35.8813 4.35831 37.3821 5.33941 38.912 6.33931ZM32.4035 13.8595C24.4594 14.7761 17.2435 20.4345 14.5697 27.8438C13.4291 31.0042 13.3466 31.5207 13.3466 35.5C13.3466 39.4793 13.4291 39.9958 14.5697 43.1562C17.0146 49.9316 23.2977 55.3238 30.5402 56.8625C33.0307 57.3914 37.0377 57.3914 39.5282 56.8625C43.6939 55.9774 47.8503 53.6692 50.7537 50.6285C53.4177 47.8386 55.2179 44.6619 56.2285 40.9688C56.6648 39.3741 56.7371 38.5955 56.7371 35.5C56.7371 31.4256 56.3776 29.6064 54.9722 26.5713C51.6505 19.3978 45.2175 14.7428 37.388 13.8475C35.2479 13.6029 34.6148 13.6044 32.4035 13.8595ZM39.8036 17.3293C45.2245 18.7917 49.5741 22.3612 51.943 27.2916C53.0439 29.583 53.4961 31.1801 53.7559 33.6953C54.6946 42.782 48.8079 51.2493 39.8571 53.6873C37.302 54.3832 32.8926 54.3939 30.3832 53.7103C23.7991 51.9165 18.9677 47.2464 16.9017 40.6785C16.4729 39.315 16.4085 38.6364 16.41 35.5C16.4113 32.6202 16.4933 31.6253 16.8152 30.5781C19.0295 23.3734 24.4907 18.4056 31.7459 16.9966C33.855 16.5869 37.63 16.7428 39.8036 17.3293Z" fill="#171717"/>
</svg>