<svg width="70" height="70" viewBox="0 0 70 70" fill="none" xmlns="http://www.w3.org/2000/svg">
<path fill-rule="evenodd" clip-rule="evenodd" d="M46.7886 9.95869C46.3776 10.2092 45.8763 10.7022 45.6744 11.0541C45.3689 11.5866 45.0616 11.7429 43.8431 11.9851C41.8665 12.3782 39.1796 13.763 37.7696 15.1153C35.6282 17.1695 34.1965 20.0279 33.9418 22.7585L33.8086 24.1854H36.1042L36.2492 23.1123C36.7679 19.2675 39.2999 16.0241 42.8077 14.7112C44.5036 14.0766 45.2463 14.1046 45.7153 14.8209C46.6421 16.2358 48.8433 16.7188 50.3039 15.8278C52.485 14.4974 52.485 11.2823 50.3039 9.95192C49.3326 9.35936 47.7659 9.36252 46.7886 9.95869ZM49.2292 12.2121C49.4776 12.4606 49.6808 12.7656 49.6808 12.8899C49.6808 13.0141 49.4776 13.3191 49.2292 13.5676C48.9808 13.8161 48.676 14.0194 48.5518 14.0194C48.4276 14.0194 48.1227 13.8161 47.8743 13.5676C47.6259 13.3191 47.4227 13.0141 47.4227 12.8899C47.4227 12.7656 47.6259 12.4606 47.8743 12.2121C48.1227 11.9636 48.4276 11.7603 48.5518 11.7603C48.676 11.7603 48.9808 11.9636 49.2292 12.2121ZM56.3381 25.2584C55.8194 29.1032 53.2873 32.3466 49.7795 33.6596C48.0837 34.2941 47.341 34.2661 46.8719 33.5498C45.9452 32.1349 43.744 31.6519 42.2834 32.5429C40.1023 33.8733 40.1023 37.0884 42.2834 38.4188C43.7857 39.3353 46.0665 38.7922 46.9128 37.3166C47.2183 36.7841 47.5257 36.6278 48.7442 36.3856C50.9269 35.9516 53.4592 34.5885 55.0518 32.9902C57.1284 30.9062 58.7134 27.4656 58.7134 25.0415V24.1854H56.483L56.3381 25.2584ZM44.7129 34.8031C44.9613 35.0516 45.1646 35.3566 45.1646 35.4808C45.1646 35.6051 44.9613 35.9101 44.7129 36.1586C44.4645 36.4071 44.1597 36.6104 44.0355 36.6104C43.9113 36.6104 43.6064 36.4071 43.358 36.1586C43.1096 35.9101 42.9064 35.6051 42.9064 35.4808C42.9064 35.3566 43.1096 35.0516 43.358 34.8031C43.6064 34.5546 43.9113 34.3513 44.0355 34.3513C44.1597 34.3513 44.4645 34.5546 44.7129 34.8031Z" fill="#C80D0D"/>
<path fill-rule="evenodd" clip-rule="evenodd" d="M42.4541 0.722097C33.6988 2.1634 26.1636 8.7559 23.6343 17.1877C22.8126 19.9274 22.5824 21.4579 22.5824 24.1853C22.5824 27.7775 23.4238 31.5434 24.8638 34.3973C25.2236 35.1105 25.518 35.7923 25.518 35.9125C25.518 36.0327 23.4602 37.7584 20.9453 39.7471C18.4304 41.736 13.5273 45.6108 10.0498 48.3581C6.57223 51.1052 3.2557 53.8149 2.67988 54.3797C-0.0120535 57.0195 -0.778695 61.4349 0.850101 64.9168C3.18457 69.9078 8.94892 71.911 13.8886 69.4479C14.5096 69.1384 15.4077 68.5106 15.8843 68.0531C16.3608 67.5954 20.7195 62.2064 25.5697 56.077C31.9993 47.9524 34.4871 44.9636 34.752 45.0453C34.9516 45.107 35.9281 45.5157 36.9216 45.9533C37.9152 46.3909 39.5411 46.9658 40.5347 47.231C42.8023 47.836 47.3057 48.0673 49.6801 47.7007C61.4387 45.886 70 35.9782 70 24.1853C70 12.4938 61.4834 2.54044 49.9059 0.701313C48.1613 0.424121 44.1965 0.435192 42.4541 0.722097ZM51.2798 3.39596C59.2032 5.35483 65.3277 11.6184 67.2112 19.6888C67.7389 21.9499 67.7389 26.4207 67.2112 28.6818C66.2309 32.8824 64.1029 36.6388 61.0521 39.5548C58.1574 42.3216 55.1062 44.0084 51.1669 45.02C48.5967 45.6799 43.9892 45.6799 41.4189 45.02C33.3456 42.9469 27.3668 36.8997 25.3927 28.8104C24.8185 26.458 24.8559 21.6913 25.467 19.3093C26.4782 15.3683 28.1643 12.3158 30.9299 9.41984C34.3894 5.79738 39.2615 3.38196 44.1477 2.86688C45.8133 2.69135 49.551 2.96854 51.2798 3.39596ZM42.4541 5.32162C34.8972 6.84628 28.879 12.935 27.4176 20.5341C25.6472 29.7393 30.8213 38.9349 39.6314 42.2414C49.4396 45.9221 60.6226 40.7666 64.3413 30.8496C65.8583 26.8036 65.8583 21.567 64.3413 17.521C61.9723 11.2034 56.5072 6.56548 49.9425 5.30196C47.9206 4.91272 44.4349 4.92198 42.4541 5.32162ZM50.4574 7.8369C56.3949 9.35795 61.0481 14.0386 62.6809 20.132C63.2102 22.1078 63.2102 26.2628 62.6809 28.2386C61.3114 33.3496 57.8973 37.4238 53.1981 39.5555C50.846 40.6225 49.1483 40.9702 46.2929 40.9702C41.5066 40.9702 37.3886 39.2444 34.1868 35.8967C31.0058 32.5706 29.5152 28.8338 29.5152 24.1853C29.5152 19.3969 31.2402 15.2772 34.5865 12.0741C38.8456 7.99729 44.8387 6.39717 50.4574 7.8369ZM29.3144 40.718C30.1075 41.5483 31.151 42.5011 31.6331 42.8353L32.5097 43.443L32.0657 44.0367C30.8364 45.6808 31.0378 45.5864 29.9711 45.0189C28.506 44.2398 26.9991 42.843 25.9859 41.3251C25.4801 40.5674 25.0702 39.832 25.0748 39.6908C25.0795 39.5496 25.5113 39.106 26.0345 38.7047L26.9858 37.9753L27.4291 38.5918C27.673 38.9309 28.5214 39.8876 29.3144 40.718ZM24.6265 43.4854C25.5117 44.6457 26.9702 45.9413 28.84 47.2281C29.3246 47.5615 29.2622 47.6553 24.9309 53.1017C22.51 56.1459 19.277 60.2122 17.7469 62.1381C14.3172 66.4541 13.9697 66.8061 12.4208 67.5297C9.75598 68.7747 6.34755 68.071 4.30483 65.8539C2.95153 64.385 2.43058 63.0551 2.40664 61.0086C2.39061 59.635 2.49674 59.0791 2.96688 58.0718C3.69039 56.5218 4.04311 56.1732 8.35616 52.7453C10.2812 51.2152 14.3459 47.9813 17.3887 45.5588C22.8306 41.2268 22.9268 41.1626 23.2599 41.6463C23.4462 41.917 24.0611 42.7445 24.6265 43.4854ZM20.5465 48.2625L22.2609 49.9372L24.6184 47.5491L22.904 45.8744L20.5465 48.2625ZM15.0177 49.4623C11.4832 51.0943 11.5858 56.2184 15.183 57.722C17.4305 58.6616 20.0145 57.6674 21.0266 55.4738C21.8095 53.7768 21.3825 51.4404 20.0687 50.2322C18.7673 49.0354 16.6435 48.7116 15.0177 49.4623ZM18.5126 52.0906C19.3142 52.8921 19.2887 54.2405 18.4561 55.0732C17.0927 56.4373 14.802 55.4962 14.802 53.5716C14.802 51.5556 17.0715 50.6497 18.5126 52.0906Z" fill="#171717"/>
</svg>