<svg width="70" height="70" viewBox="0 0 70 70" fill="none" xmlns="http://www.w3.org/2000/svg">
<path fill-rule="evenodd" clip-rule="evenodd" d="M24.4433 0.197084C18.9133 0.57397 14.6452 1.1846 12.249 1.94166L10.8886 2.37151L9.51323 1.65976C6.83192 0.272154 4.17073 0.919996 2.68573 3.32204C2.14798 4.19181 2.03767 4.60262 2.04096 5.72365C2.04555 7.3914 2.60628 8.57765 3.89584 9.649L4.81376 10.4113L4.56819 11.6985C4.02978 14.5209 3.784 18.9595 3.79385 25.6798C3.80326 32.1203 4.07969 36.6375 4.66581 39.9358C4.77174 40.532 4.69798 40.6753 4.10507 41.0255C2.53515 41.9531 1.65925 44.2269 2.12478 46.1673C2.8919 49.3649 6.40929 50.8095 9.48347 49.1894L10.7643 48.5147L12.4058 48.9495C14.276 49.4451 16.297 49.8265 18.2057 50.0443L19.5189 50.194L19.6677 51.7254C19.7493 52.5676 19.922 55.6206 20.0512 58.5096C20.1803 61.3986 20.3499 65.1657 20.428 66.8812L20.5701 70H30.386H40.2016V68.9057V67.8113H31.4691H22.7369L22.6088 66.334C22.5383 65.5216 22.3781 62.4929 22.2525 59.6039C21.7618 48.314 21.6454 46.9997 21.0608 46.1474C20.7703 45.7239 19.049 43.3586 17.2357 40.8909C14.453 37.1043 13.9468 36.2969 13.9928 35.7172C14.0354 35.1796 14.8321 34.1269 17.6561 30.8756L21.265 26.7211L21.6399 27.3375C22.1713 28.2114 22.9065 28.6286 24.1803 28.7794C25.1188 28.8905 25.3059 28.9912 25.4199 29.4456C25.5322 29.8927 25.2374 30.3436 23.6309 32.181C22.5731 33.3911 21.4517 34.6835 21.1389 35.0531L20.5703 35.7253L21.7773 37.5968C22.4412 38.6261 22.9925 39.4845 23.0026 39.5042C23.0124 39.5239 24.3821 39.6683 26.0461 39.825L29.0715 40.1102L29.6114 41.2516C30.5777 43.2941 32.3354 44.4365 34.5111 44.4365C36.6869 44.4365 38.4446 43.2941 39.4109 41.2516L39.9508 40.1102L42.9762 39.825C44.6402 39.6683 46.0099 39.5239 46.0197 39.5042C46.0298 39.4845 46.5811 38.6261 47.2449 37.5968L48.452 35.7253L47.8834 35.0531C47.5706 34.6835 46.4492 33.3911 45.3914 32.181C43.7849 30.3436 43.4901 29.8927 43.6024 29.4456C43.7164 28.9912 43.9035 28.8905 44.842 28.7794C46.1158 28.6286 46.851 28.2114 47.3824 27.3375L47.7573 26.7211L51.3662 30.8756C54.1902 34.1269 54.9869 35.1796 55.0295 35.7172C55.0755 36.2969 54.5693 37.1043 51.7866 40.8909C49.9733 43.3586 48.248 45.7298 47.953 46.1603C47.3583 47.0277 47.2767 47.9515 46.7755 59.4945C46.6474 62.4437 46.4853 65.5179 46.4148 66.3261L46.287 67.7956L44.2839 67.8582L42.2809 67.9208L42.2141 68.9604L42.1474 70H45.3329H48.5185V68.9608C48.5185 68.3894 48.6183 65.8039 48.7402 63.2156C49.1832 53.8108 49.4242 50.4188 49.6599 50.273C49.7895 50.1929 50.5459 50.0605 51.341 49.9789C52.9182 49.8167 53.8394 49.6348 56.5257 48.9557L58.2954 48.5083L59.566 49.1864C62.5101 50.7574 65.766 49.5363 66.7866 46.4781C67.4537 44.4794 66.6145 42.024 64.924 41.0284C64.2902 40.655 64.2405 40.548 64.3657 39.8246C65.5088 33.2269 65.5609 18.0399 64.462 11.805L64.2153 10.4058L65.13 9.64615C66.4162 8.57765 66.9767 7.39009 66.9813 5.72365C66.9846 4.60262 66.8743 4.19181 66.3366 3.32204C64.85 0.917369 62.1908 0.271935 59.5023 1.66326C58.1241 2.37632 58.1175 2.37742 57.1061 2.03402C54.747 1.23319 50.2668 0.593012 44.1784 0.186798C40.37 -0.0670859 28.2293 -0.0607395 24.4433 0.197084ZM48.4091 2.6672C53.1898 3.21677 55.5476 3.68011 57.4042 4.43475L58.3014 4.79916L59.9212 3.91626C60.8122 3.4306 61.7658 3.03205 62.0405 3.03029C63.5079 3.02132 64.931 4.37675 64.9325 5.78537C64.9336 6.69038 64.1343 7.83023 63.0665 8.44655C62.5887 8.72232 62.07 9.02567 61.914 9.12066C61.7019 9.25001 61.6866 9.44064 61.8531 9.87881C62.3322 11.1388 62.754 14.8444 63.0028 19.9777C63.3808 27.7761 62.8616 37.5075 61.8905 40.8305C61.6879 41.5237 61.7069 41.5501 62.956 42.3089C64.8371 43.4516 65.383 44.8565 64.5053 46.296C63.4541 48.0198 62.0232 48.1855 59.7809 46.8425C58.3797 46.0034 58.2589 45.9697 57.6942 46.2617C56.7616 46.744 54.0967 47.4072 51.6921 47.7554C50.4883 47.9296 49.4669 48.0367 49.422 47.9933C49.3773 47.9498 50.9039 45.7751 52.8144 43.1606C54.7251 40.5462 56.5097 38.0072 56.7807 37.5184C57.3738 36.448 57.4171 35.1269 56.8901 34.1689C56.6796 33.7859 54.682 31.3744 52.4511 28.81C50.2204 26.2458 48.0081 23.68 47.5352 23.1081C47.062 22.5364 46.5133 22.0173 46.3159 21.9547C46.0213 21.861 45.9346 21.399 45.8337 19.3828C45.5851 14.4207 43.4864 11.0189 39.4509 9.03727C36.8467 7.75822 34.0419 7.52994 31.2104 8.36645C29.8959 8.75471 27.6987 9.97817 27.5646 10.3966C27.5195 10.5374 27.762 10.9655 28.1034 11.3476L28.7243 12.0425L29.8307 11.3546C32.8252 9.49317 36.5759 9.60085 39.6022 11.635C42.2638 13.4242 43.473 15.7394 43.6514 19.3874L43.7608 21.6308L38.9718 21.626C33.3685 21.6203 32.6882 21.4548 31.8977 19.905C31.6497 19.4194 31.447 18.8648 31.447 18.6728C31.447 18.3944 31.2437 18.3373 30.4407 18.3905C29.4895 18.4535 29.4184 18.5034 29.1461 19.2988C28.6388 20.7805 27.4295 21.6255 25.8113 21.6295C25.3427 21.6308 25.3188 21.5485 25.3188 19.9258C25.3188 17.8313 25.7817 15.9493 26.639 14.5579C26.9962 13.9782 27.2886 13.4365 27.2886 13.3542C27.2886 13.2719 26.9463 12.9313 26.5278 12.5973L25.7668 11.9902L25.1122 12.8939C23.8406 14.6494 23.1339 17.2734 23.1315 20.2482C23.1304 21.5653 23.0667 21.8402 22.7388 21.9444C22.5235 22.0127 21.9603 22.5364 21.4871 23.1081C21.0142 23.68 18.8019 26.2458 16.5712 28.81C14.3403 31.3744 12.3429 33.7859 12.1322 34.1689C11.6051 35.1269 11.6485 36.448 12.2416 37.5184C12.5126 38.0072 14.2972 40.5462 16.2079 43.1606C18.1184 45.7751 19.6449 47.9498 19.6003 47.9933C19.5554 48.0367 18.534 47.9296 17.3302 47.7554C14.9256 47.4072 12.2607 46.744 11.3281 46.2617C10.7634 45.9697 10.6426 46.0034 9.24141 46.8425C6.99913 48.1855 5.56819 48.0198 4.51698 46.296C3.63933 44.8565 4.18518 43.4516 6.06633 42.3089C7.31539 41.5501 7.33443 41.5237 7.13176 40.8305C6.1519 37.4775 5.64195 27.9317 6.02146 20.0414C6.27447 14.779 6.68374 11.1557 7.16919 9.87859C7.33574 9.44064 7.32042 9.25001 7.10834 9.12066C6.95229 9.02567 6.43358 8.72232 5.9558 8.44655C4.88795 7.83023 4.08866 6.69038 4.08975 5.78537C4.09128 4.37675 5.51435 3.02132 6.98184 3.03029C7.25652 3.03205 8.21011 3.4306 9.10111 3.91626L10.7209 4.79916L11.6181 4.43475C14.0236 3.45708 18.8316 2.71382 25.5377 2.28287C28.7848 2.07407 45.7269 2.35882 48.4091 2.6672ZM49.6129 6.41964V7.40454H50.7072H51.8015V6.41964V5.43475H50.7072H49.6129V6.41964ZM53.7713 7.40454V8.49886H54.8656H55.9599V7.40454V6.31021H54.8656H53.7713V7.40454ZM32.2844 23.1434C33.1003 23.5596 33.5534 23.6006 37.3476 23.6006H41.5148V26.4069C41.5148 29.8303 41.2262 30.8231 39.7654 32.4213C38.1596 34.1783 37.0417 34.6533 34.5111 34.6533C31.9806 34.6533 30.8627 34.1783 29.2568 32.4213C27.7964 30.8231 27.5075 29.8303 27.5075 26.4079V23.6028L28.4646 23.153C28.9909 22.9054 29.6379 22.473 29.9021 22.1917L30.3825 21.6805L30.8854 22.1832C31.1619 22.4598 31.7915 22.8919 32.2844 23.1434ZM25.0999 25.1326C25.0999 26.6647 25.0999 26.6647 24.4871 26.6647C23.62 26.6647 23.349 26.292 23.349 25.0998C23.349 23.9866 23.6583 23.62 24.6075 23.6071C25.0719 23.601 25.0999 23.6877 25.0999 25.1326ZM45.25 23.8271C45.5776 24.0024 45.6733 24.2896 45.6733 25.0965C45.6733 26.292 45.4028 26.6647 44.5352 26.6647C43.9224 26.6647 43.9224 26.6647 43.9224 25.1326C43.9224 23.7301 43.9607 23.6006 44.3745 23.6006C44.6232 23.6006 45.0171 23.7026 45.25 23.8271ZM29.4044 25.7163C29.324 25.7964 29.2584 26.2889 29.2584 26.8107V27.759H30.8999H32.5414V26.6647V25.5704H31.0459C30.2231 25.5704 29.4845 25.636 29.4044 25.7163ZM36.4809 26.655V27.759H38.1345H39.788L39.7212 26.7194L39.6545 25.6798L38.0677 25.6154L36.4809 25.5511V26.655ZM26.7371 32.7789C26.811 33.012 27.4685 33.7553 28.1982 34.4309L29.525 35.6594L29.3733 36.8732C29.235 37.9818 29.1805 38.0761 28.7475 37.9603C28.4869 37.8905 27.3818 37.7695 26.2921 37.6913C24.3357 37.5513 24.3048 37.5401 23.8172 36.7962C23.5456 36.3821 23.3538 35.9573 23.391 35.8522C23.4985 35.5478 26.2879 32.3674 26.4532 32.3611C26.5353 32.3578 26.6631 32.5458 26.7371 32.7789ZM44.2154 34.1061C45.0154 35.0089 45.6707 35.8229 45.6715 35.9148C45.6724 36.0067 45.4566 36.4127 45.1916 36.817C44.7192 37.5375 44.6715 37.5548 42.7293 37.7001C41.64 37.7817 40.5354 37.9014 40.2745 37.9662C39.8429 38.0735 39.7865 37.9748 39.6488 36.8717L39.4973 35.6594L40.8241 34.4309C41.5538 33.7553 42.213 33.0065 42.2892 32.7669C42.3651 32.5272 42.5026 32.3611 42.5943 32.3979C42.686 32.4346 43.4155 33.2033 44.2154 34.1061ZM33.964 36.8901C34.927 36.9448 36.1253 36.8949 36.6269 36.7789L37.5391 36.5683L37.6186 37.9089C37.7252 39.7049 37.5107 40.5965 36.7906 41.3481C35.5593 42.6333 33.7815 42.7029 32.4326 41.5186C31.5046 40.704 31.2728 39.9084 31.4009 37.9776C31.4853 36.704 31.5517 36.509 31.8563 36.6388C32.0526 36.7222 33.001 36.8353 33.964 36.8901Z" fill="#171717"/>
</svg>