<svg width="20" height="20" viewBox="0 0 20 20" fill="none" xmlns="http://www.w3.org/2000/svg">
<path d="M3 7.5C3 7.22386 2.77614 7 2.5 7C2.22386 7 2 7.22386 2 7.5H3ZM12.5001 18C12.7762 18 13.0001 17.7761 13.0001 17.5C13.0001 17.2239 12.7762 17 12.5001 17V18ZM2.59083 17.045L2.14532 17.272L2.14532 17.272L2.59083 17.045ZM2.95492 17.4092L3.18191 16.9637L3.18191 16.9637L2.95492 17.4092ZM14.8335 14.1667L14.8335 13.6667H14.8335V14.1667ZM8.50016 14.1667L8.50016 14.6667H8.50016V14.1667ZM17.5002 11.5L18.0002 11.5V11.5H17.5002ZM17.3185 13.2566L17.764 13.4836L17.764 13.4836L17.3185 13.2566ZM16.5898 13.985L16.8168 14.4305L16.8168 14.4305L16.5898 13.985ZM16.5898 2.68166L16.8168 2.23615L16.8168 2.23615L16.5898 2.68166ZM17.5002 5.16669L17.0002 5.16669V5.16669H17.5002ZM17.3185 3.41003L17.764 3.18304L17.764 3.18304L17.3185 3.41003ZM6.01499 3.41003L5.56949 3.18304L5.56949 3.18304L6.01499 3.41003ZM6.74316 2.68166L6.97016 3.12716L6.97016 3.12716L6.74316 2.68166ZM6.01499 13.2566L6.46049 13.0296L6.46049 13.0296L6.01499 13.2566ZM6.74316 13.985L6.97016 13.5395L6.97016 13.5395L6.74316 13.985ZM11.1667 10.8333C11.1667 11.1095 11.3905 11.3333 11.6667 11.3333C11.9428 11.3333 12.1667 11.1095 12.1667 10.8333H11.1667ZM12.1667 5.83333C12.1667 5.55719 11.9428 5.33333 11.6667 5.33333C11.3905 5.33333 11.1667 5.55719 11.1667 5.83333H12.1667ZM9.16667 7.83333C8.89052 7.83333 8.66667 8.05719 8.66667 8.33333C8.66667 8.60948 8.89052 8.83333 9.16667 8.83333L9.16667 7.83333ZM14.1667 8.83333C14.4428 8.83333 14.6667 8.60948 14.6667 8.33333C14.6667 8.05719 14.4428 7.83333 14.1667 7.83333L14.1667 8.83333ZM2 7.5V16.1667H3V7.5H2ZM3.83341 18H12.5001V17H3.83341V18ZM2 16.1667C2 16.3918 1.99961 16.5907 2.01301 16.7547C2.02689 16.9246 2.05801 17.1006 2.14532 17.272L3.03633 16.818C3.03282 16.8111 3.01852 16.7813 3.00969 16.6733C3.00039 16.5594 3 16.4083 3 16.1667H2ZM3.83341 17C3.59182 17 3.44063 16.9996 3.32671 16.9903C3.21859 16.9815 3.18879 16.9672 3.18191 16.9637L2.72792 17.8547C2.89931 17.942 3.07539 17.9731 3.24528 17.987C3.40936 18.0004 3.6083 18 3.83341 18V17ZM2.14532 17.272C2.27312 17.5228 2.47696 17.7268 2.72792 17.8547L3.18191 16.9637C3.11926 16.9317 3.06833 16.8808 3.03633 16.818L2.14532 17.272ZM6.33333 11.5V5.16668H5.33333V11.5H6.33333ZM8.50016 3H14.8335V2H8.50016V3ZM14.8335 13.6667H8.50016V14.6667H14.8335V13.6667ZM17.0002 11.5C17.0002 11.975 16.9998 12.3011 16.9791 12.5539C16.959 12.8009 16.9219 12.9336 16.873 13.0296L17.764 13.4836C17.8968 13.2231 17.9506 12.9442 17.9758 12.6354C18.0006 12.3324 18.0002 11.9584 18.0002 11.5L17.0002 11.5ZM14.8335 14.6667C15.292 14.6667 15.6658 14.667 15.9687 14.6423C16.2775 14.617 16.5564 14.5632 16.8168 14.4305L16.3628 13.5395C16.2668 13.5884 16.1341 13.6254 15.8873 13.6456C15.6345 13.6663 15.3085 13.6667 14.8335 13.6667L14.8335 14.6667ZM16.873 13.0296C16.7613 13.2489 16.5826 13.4275 16.3628 13.5395L16.8168 14.4305C17.2243 14.2229 17.5562 13.8915 17.764 13.4836L16.873 13.0296ZM14.8335 3C15.3085 3 15.6345 3.00039 15.8873 3.02105C16.1342 3.04122 16.2668 3.07822 16.3628 3.12716L16.8168 2.23615C16.5564 2.10344 16.2775 2.04961 15.9687 2.02437C15.6658 1.99961 15.292 2 14.8335 2V3ZM18.0002 5.16669C18.0002 4.70823 18.0006 4.33431 17.9758 4.03131C17.9506 3.72247 17.8968 3.44353 17.764 3.18304L16.873 3.63703C16.9219 3.73306 16.959 3.86574 16.9791 4.11274C16.9998 4.36557 17.0002 4.69172 17.0002 5.16669L18.0002 5.16669ZM16.3628 3.12716C16.5826 3.23912 16.7613 3.41771 16.873 3.63703L17.764 3.18304C17.5562 2.77515 17.2243 2.44377 16.8168 2.23615L16.3628 3.12716ZM6.33333 5.16668C6.33333 4.69172 6.33372 4.36557 6.35438 4.11273C6.37456 3.86574 6.41156 3.73306 6.46049 3.63703L5.56949 3.18304C5.43676 3.44353 5.38293 3.72246 5.3577 4.0313C5.33294 4.3343 5.33333 4.70822 5.33333 5.16668H6.33333ZM8.50016 2C8.0417 2 7.6677 1.99961 7.36462 2.02437C7.05574 2.0496 6.77669 2.10341 6.51617 2.23615L6.97016 3.12716C7.06616 3.07825 7.1989 3.04123 7.44603 3.02105C7.69896 3.00039 8.02521 3 8.50016 3V2ZM6.46049 3.63703C6.57241 3.41738 6.75077 3.23895 6.97016 3.12716L6.51617 2.23615C6.10836 2.44394 5.77715 2.77548 5.56949 3.18304L6.46049 3.63703ZM5.33333 11.5C5.33333 11.9585 5.33294 12.3324 5.3577 12.6354C5.38293 12.9442 5.43676 13.2231 5.56949 13.4836L6.46049 13.0296C6.41156 12.9336 6.37456 12.8009 6.35438 12.5539C6.33372 12.3011 6.33333 11.975 6.33333 11.5H5.33333ZM8.50016 13.6667C8.02521 13.6667 7.69897 13.6663 7.44604 13.6456C7.19892 13.6254 7.06616 13.5884 6.97016 13.5395L6.51617 14.4305C6.77668 14.5632 7.05572 14.617 7.36461 14.6423C7.6677 14.667 8.04169 14.6667 8.50016 14.6667L8.50016 13.6667ZM5.56949 13.4836C5.77716 13.8912 6.10838 14.2227 6.51617 14.4305L6.97016 13.5395C6.75074 13.4277 6.5724 13.2493 6.46049 13.0296L5.56949 13.4836ZM17.0002 5.16669V11.5H18.0002V5.16669H17.0002ZM12.1667 10.8333V5.83333H11.1667V10.8333H12.1667ZM9.16667 8.83333L14.1667 8.83333L14.1667 7.83333L9.16667 7.83333L9.16667 8.83333Z" fill="#8A8894"/>
</svg>
