<svg width="15" height="16" viewBox="0 0 15 16" fill="none" xmlns="http://www.w3.org/2000/svg">
<path fill-rule="evenodd" clip-rule="evenodd" d="M4.375 1.75C2.64911 1.75 1.25 3.14911 1.25 4.875V11.125C1.25 12.8509 2.64911 14.25 4.375 14.25H10.625C12.3509 14.25 13.75 12.8509 13.75 11.125V4.875C13.75 3.14911 12.3509 1.75 10.625 1.75H4.375ZM4.22335 8C4.22335 7.65482 4.50317 7.375 4.84835 7.375H6.875V5.34835C6.875 5.00317 7.15482 4.72335 7.5 4.72335C7.84518 4.72335 8.125 5.00317 8.125 5.34835L8.125 7.375H10.1517C10.4968 7.375 10.7767 7.65482 10.7767 8C10.7767 8.34518 10.4968 8.625 10.1517 8.625H8.125L8.125 10.6517C8.125 10.9968 7.84518 11.2767 7.5 11.2767C7.15482 11.2767 6.875 10.9968 6.875 10.6517V8.625H4.84835C4.50317 8.625 4.22335 8.34518 4.22335 8Z" fill="#FFC700"/>
</svg>
