<svg width="50" height="50" viewBox="0 0 50 50" fill="none" xmlns="http://www.w3.org/2000/svg">
<path d="M16.6667 24C16.1144 24 15.6667 24.4477 15.6667 25C15.6667 25.5523 16.1144 26 16.6667 26V24ZM33.3333 26C33.8856 26 34.3333 25.5523 34.3333 25C34.3333 24.4477 33.8856 24 33.3333 24V26ZM24 33.3333C24 33.8856 24.4477 34.3333 25 34.3333C25.5523 34.3333 26 33.8856 26 33.3333H24ZM26 16.6667C26 16.1144 25.5523 15.6667 25 15.6667C24.4477 15.6667 24 16.1144 24 16.6667H26ZM25 42.75C15.1969 42.75 7.25 34.8031 7.25 25H5.25C5.25 35.9076 14.0924 44.75 25 44.75V42.75ZM7.25 25C7.25 15.1969 15.1969 7.25 25 7.25V5.25C14.0924 5.25 5.25 14.0924 5.25 25H7.25ZM25 7.25C34.8031 7.25 42.75 15.1969 42.75 25H44.75C44.75 14.0924 35.9076 5.25 25 5.25V7.25ZM42.75 25C42.75 34.8031 34.8031 42.75 25 42.75V44.75C35.9076 44.75 44.75 35.9076 44.75 25H42.75ZM16.6667 26H33.3333V24H16.6667V26ZM26 33.3333V16.6667H24V33.3333H26Z" fill="#E25B26"/>
</svg>
