<svg width="84" height="84" viewBox="0 0 84 84" fill="none" xmlns="http://www.w3.org/2000/svg">
<path fill-rule="evenodd" clip-rule="evenodd" d="M47.2987 33.3014C43.1566 34.208 39.1768 36.7516 36.5823 40.1502C35.8637 41.0915 34.4498 43.7808 33.9958 45.07C33.7161 45.8641 33.3192 48.0414 33.123 49.8603L33 51H33.7897C38.2097 51 42.8962 48.8992 46.1064 45.4785C48.9114 42.4896 50.8222 38.0571 50.9579 34.2239L51 33.0386L49.9167 33.002C49.3209 32.9819 48.1428 33.1167 47.2987 33.3014Z" fill="#124144"/>
<path fill-rule="evenodd" clip-rule="evenodd" d="M30.9622 36.3141C35.6554 34.6049 41.219 34.6269 45.9431 36.3731C47.2515 36.8567 50.3538 38.6413 51.6183 39.6378C52.3972 40.2517 54.1647 42.168 55.5066 43.8542L56.3475 44.9107L55.5617 45.4085C51.1636 48.195 45.176 49.059 39.8253 47.679C35.15 46.4733 30.4543 43.2673 27.9027 39.5388L27.1137 38.3859L28.1685 37.6665C28.7487 37.271 30.0059 36.6624 30.9622 36.3141Z" fill="#E25B26"/>
<circle cx="43" cy="43" r="20" fill="#C9C8D3"/>
<circle cx="41" cy="41" r="20" fill="#E25B26"/>
<path fill-rule="evenodd" clip-rule="evenodd" d="M39.1997 32.1057C37.9204 32.3822 36.8801 32.946 35.9503 33.867C35.2557 34.5549 34.8042 35.2286 34.4519 36.1026C34.0766 37.0337 33.9992 37.4676 34 38.6345C34.0006 39.5815 34.0139 39.7261 34.1478 40.238C34.2287 40.5475 34.3431 40.9146 34.402 41.0539C35.3594 43.3165 37.4017 46.4788 39.7707 49.367C40.265 49.9697 40.2999 50 40.5 50C40.7001 50 40.735 49.9697 41.2293 49.367C42.0946 48.312 42.9809 47.1301 43.8556 45.8645C44.758 44.5589 45.7378 42.9012 46.2574 41.8011C46.6246 41.0238 46.6953 40.8378 46.8522 40.238C46.986 39.7261 46.9994 39.5815 47 38.6345C47.0006 37.7219 46.9847 37.5312 46.8707 37.0872C46.3759 35.1591 45.2006 33.6309 43.5132 32.7218C42.9884 32.4391 42.4506 32.249 41.7726 32.1066C41.0973 31.9648 39.8535 31.9644 39.1997 32.1057ZM41.4959 35.3746C42.5141 35.7119 43.3115 36.507 43.6639 37.5364C43.7959 37.9218 43.8185 38.0763 43.8191 38.5977C43.8196 38.9923 43.7883 39.3204 43.7306 39.5261C43.4275 40.6062 42.6083 41.4795 41.5232 41.8791C41.1285 42.0244 39.8715 42.0244 39.4768 41.8791C38.3917 41.4795 37.5724 40.6062 37.2694 39.5261C37.2117 39.3204 37.1804 38.9923 37.1809 38.5977C37.1815 38.0763 37.2041 37.9219 37.3359 37.5373C37.7469 36.338 38.7135 35.4934 39.9467 35.2561C40.3287 35.1825 41.0926 35.241 41.4959 35.3746Z" fill="white"/>
</svg>
