<svg width="84" height="84" viewBox="0 0 84 84" fill="none" xmlns="http://www.w3.org/2000/svg">
<path fill-rule="evenodd" clip-rule="evenodd" d="M47.2987 33.3014C43.1566 34.208 39.1768 36.7516 36.5823 40.1502C35.8637 41.0915 34.4498 43.7808 33.9958 45.07C33.7161 45.8641 33.3192 48.0414 33.123 49.8603L33 51H33.7897C38.2097 51 42.8962 48.8992 46.1064 45.4785C48.9114 42.4896 50.8222 38.0571 50.9579 34.2239L51 33.0386L49.9167 33.002C49.3209 32.9819 48.1428 33.1167 47.2987 33.3014Z" fill="#124144"/>
<path fill-rule="evenodd" clip-rule="evenodd" d="M30.9622 36.3141C35.6554 34.6049 41.219 34.6269 45.9431 36.3731C47.2515 36.8567 50.3538 38.6413 51.6183 39.6378C52.3972 40.2517 54.1647 42.168 55.5066 43.8542L56.3475 44.9107L55.5617 45.4085C51.1636 48.195 45.176 49.059 39.8253 47.679C35.15 46.4733 30.4543 43.2673 27.9027 39.5388L27.1137 38.3859L28.1685 37.6665C28.7487 37.271 30.0059 36.6624 30.9622 36.3141Z" fill="#E25B26"/>
<circle cx="43" cy="43" r="20" fill="#C9C8D3"/>
<circle cx="41" cy="41" r="20" fill="#E25B26"/>
<path fill-rule="evenodd" clip-rule="evenodd" d="M34.9919 37.0851C33.5177 37.5607 32.6459 38.3645 32.1958 39.6633C31.9454 40.3856 31.9336 41.5344 32.1694 42.2239C32.7639 43.9631 34.2289 45.0008 36.0887 45C36.6942 44.9997 36.9949 44.958 37.4052 44.8174C38.0626 44.592 38.8065 44.1169 39.1424 43.7079L39.3961 43.3989H40.8336L41.0929 43.083C41.5696 42.5025 42.0763 42.5025 42.553 43.083L42.8124 43.3989H44.1059L44.3653 43.083C44.842 42.5025 45.3487 42.5025 45.8254 43.083L46.0847 43.3989H47.05C47.7784 43.3989 48.081 43.3669 48.2826 43.2684C48.6284 43.0995 49.698 42.0527 49.8706 41.7142C50.0404 41.3809 50.0437 40.6192 49.8769 40.2916C49.7175 39.9791 48.8402 39.0856 48.4176 38.8055L48.0995 38.5946H39.447L39.0132 38.1702C38.1612 37.3362 37.2762 36.9909 36.0145 37.0002C35.587 37.0033 35.1269 37.0415 34.9919 37.0851ZM36.7917 39.6166C37.3415 39.8817 37.6696 40.3974 37.6696 40.9968C37.6696 41.8523 36.9708 42.5366 36.0974 42.5366C35.6972 42.5366 35.17 42.3222 34.9404 42.0662C34.2594 41.3069 34.4491 40.0977 35.3189 39.654C35.8359 39.3903 36.2979 39.3785 36.7917 39.6166Z" fill="white"/>
</svg>
