<svg width="84" height="84" viewBox="0 0 84 84" fill="none" xmlns="http://www.w3.org/2000/svg">
<path fill-rule="evenodd" clip-rule="evenodd" d="M47.2987 33.3014C43.1566 34.208 39.1768 36.7516 36.5823 40.1502C35.8637 41.0915 34.4498 43.7808 33.9958 45.07C33.7161 45.8641 33.3192 48.0414 33.123 49.8603L33 51H33.7897C38.2097 51 42.8962 48.8992 46.1064 45.4785C48.9114 42.4896 50.8222 38.0571 50.9579 34.2239L51 33.0386L49.9167 33.002C49.3209 32.9819 48.1428 33.1167 47.2987 33.3014Z" fill="#124144"/>
<path fill-rule="evenodd" clip-rule="evenodd" d="M30.9622 36.3141C35.6554 34.6049 41.219 34.6269 45.9431 36.3731C47.2515 36.8567 50.3538 38.6413 51.6183 39.6378C52.3972 40.2517 54.1647 42.168 55.5066 43.8542L56.3475 44.9107L55.5617 45.4085C51.1636 48.195 45.176 49.059 39.8253 47.679C35.15 46.4733 30.4543 43.2673 27.9027 39.5388L27.1137 38.3859L28.1685 37.6665C28.7487 37.271 30.0059 36.6624 30.9622 36.3141Z" fill="#E25B26"/>
<circle cx="43" cy="43" r="20" fill="#C9C8D3"/>
<circle cx="41" cy="41" r="20" fill="#E25B26"/>
<path fill-rule="evenodd" clip-rule="evenodd" d="M39.611 32.0844C39.4831 32.174 39.3776 32.4554 39.2316 33.0967C39.1823 33.3133 39.1178 33.579 39.0882 33.6873C39.0587 33.7956 39.0015 34.0103 38.9611 34.1645C38.889 34.4396 38.8808 34.4475 38.5237 34.5869C38.3235 34.6651 38.0736 34.773 37.9683 34.8268C37.863 34.8806 37.757 34.9246 37.7327 34.9246C37.7083 34.9246 37.4528 34.7777 37.1648 34.5981C36.1893 33.9898 35.8668 33.8335 35.6823 33.8796C35.5744 33.9066 35.2267 34.2084 34.6875 34.7431C33.8473 35.5764 33.6934 35.7992 33.7767 36.0619C33.7988 36.1315 34.0411 36.5637 34.3151 37.0221C34.5891 37.4805 34.8132 37.8732 34.8132 37.8946C34.8132 37.9161 34.7292 38.1484 34.6266 38.4109L34.4402 38.8881L34.1627 38.9607C34.0101 39.0007 33.7967 39.0579 33.6884 39.0877C33.5802 39.1176 33.2642 39.195 32.9864 39.2596C32.3566 39.4062 32.1394 39.4957 32.0619 39.6406C31.9794 39.7948 31.9794 42.2029 32.0619 42.3571C32.1394 42.502 32.3566 42.5915 32.9864 42.7381C33.2642 42.8027 33.5802 42.8801 33.6884 42.91C33.7967 42.9399 34.0114 42.9974 34.1656 43.0378C34.4407 43.1099 34.4486 43.118 34.588 43.4752C34.6662 43.6753 34.7732 43.9234 34.8258 44.0264C34.9191 44.2088 34.918 44.2192 34.7831 44.433C34.7069 44.5537 34.6446 44.6643 34.6446 44.6787C34.6446 44.6932 34.4964 44.9404 34.3152 45.2282C34.134 45.516 33.9677 45.8088 33.9455 45.8788C33.8629 46.1401 34.016 46.3616 34.8646 47.2088C35.9341 48.2765 35.8439 48.2613 36.9949 47.568L37.7986 47.0839L37.9792 47.1764C38.0785 47.2271 38.3235 47.3327 38.5237 47.4108C38.8808 47.5503 38.889 47.5581 38.9611 47.8332C39.0015 47.9874 39.059 48.2022 39.0889 48.3104C39.1187 48.4187 39.1961 48.7346 39.2607 49.0125C39.4074 49.6423 39.4969 49.8594 39.6417 49.937C39.7132 49.9752 40.2159 49.9977 41 49.9977C41.7841 49.9977 42.2868 49.9752 42.3583 49.937C42.5031 49.8594 42.5926 49.6423 42.7393 49.0125C42.8039 48.7346 42.8813 48.4187 42.9111 48.3104C42.941 48.2022 42.9981 47.9889 43.038 47.8365C43.1087 47.5665 43.1198 47.5556 43.4761 47.4096C43.6772 47.3272 43.9307 47.2175 44.0396 47.1658L44.2375 47.0719L45.043 47.5531C45.486 47.8178 45.9205 48.0487 46.0084 48.0663C46.2457 48.1138 46.4437 47.9649 47.3068 47.0906C47.8689 46.5212 48.0841 46.2648 48.1129 46.1301C48.1469 45.9711 48.1051 45.8656 47.801 45.3427C47.6079 45.0107 47.3671 44.6085 47.2661 44.449C47.1651 44.2895 47.0993 44.1422 47.1199 44.1216C47.1405 44.1009 47.2484 43.8647 47.3597 43.5965L47.562 43.109L47.8383 43.0367C47.9904 42.9969 48.2033 42.9399 48.3116 42.91C48.4198 42.8801 48.7358 42.8027 49.0136 42.7381C49.6434 42.5915 49.8606 42.502 49.9381 42.3571C50.0206 42.2029 50.0206 39.7948 49.9381 39.6406C49.8606 39.4957 49.6434 39.4062 49.0136 39.2596C48.7358 39.195 48.4198 39.1176 48.3116 39.0877C48.2033 39.0579 47.9886 39.0003 47.8344 38.9599C47.5593 38.8878 47.5514 38.8797 47.412 38.5225C47.3338 38.3224 47.2283 38.0774 47.1775 37.9781L47.0851 37.7976L47.5062 37.109C48.1042 36.131 48.157 36.0171 48.1107 35.8059C48.0827 35.6783 47.8405 35.3934 47.2579 34.8025C46.4369 33.9701 46.227 33.8165 45.9909 33.8758C45.9198 33.8936 45.4848 34.1328 45.0242 34.4074L44.1869 34.9066L44.0136 34.8178C43.9183 34.7689 43.6765 34.6651 43.4763 34.5869C43.1192 34.4475 43.111 34.4396 43.0389 34.1645C42.9985 34.0103 42.941 33.7956 42.9111 33.6873C42.8813 33.579 42.8039 33.2631 42.7393 32.9853C42.5926 32.3555 42.5031 32.1383 42.3583 32.0607C42.2867 32.0224 41.7807 32 40.9881 32C39.9619 32 39.7093 32.0155 39.611 32.0844ZM41.8044 37.4337C43.1124 37.7264 44.2724 38.8865 44.5652 40.1944C44.8431 41.4363 44.485 42.6381 43.5621 43.561C42.0944 45.0287 39.9056 45.0287 38.4379 43.561C37.515 42.6381 37.1569 41.4363 37.4348 40.1944C37.7221 38.9108 38.8452 37.7659 40.1282 37.4487C40.6315 37.3243 41.2893 37.3184 41.8044 37.4337Z" fill="white"/>
</svg>
