<svg width="84" height="84" viewBox="0 0 84 84" fill="none" xmlns="http://www.w3.org/2000/svg">
<path fill-rule="evenodd" clip-rule="evenodd" d="M47.2987 33.3014C43.1566 34.208 39.1768 36.7516 36.5823 40.1502C35.8637 41.0915 34.4498 43.7808 33.9958 45.07C33.7161 45.8641 33.3192 48.0414 33.123 49.8603L33 51H33.7897C38.2097 51 42.8962 48.8992 46.1064 45.4785C48.9114 42.4896 50.8222 38.0571 50.9579 34.2239L51 33.0386L49.9167 33.002C49.3209 32.9819 48.1428 33.1167 47.2987 33.3014Z" fill="#124144"/>
<path fill-rule="evenodd" clip-rule="evenodd" d="M30.9622 36.3141C35.6554 34.6049 41.219 34.6269 45.9431 36.3731C47.2515 36.8567 50.3538 38.6413 51.6183 39.6378C52.3972 40.2517 54.1647 42.168 55.5066 43.8542L56.3475 44.9107L55.5617 45.4085C51.1636 48.195 45.176 49.059 39.8253 47.679C35.15 46.4733 30.4543 43.2673 27.9027 39.5388L27.1137 38.3859L28.1685 37.6665C28.7487 37.271 30.0059 36.6624 30.9622 36.3141Z" fill="#E25B26"/>
<circle cx="43" cy="43" r="20" fill="#C9C8D3"/>
<circle cx="41" cy="41" r="20" fill="#E25B26"/>
<path fill-rule="evenodd" clip-rule="evenodd" d="M37.0925 33.1317C36.9867 33.2622 36.9858 33.297 36.9858 36.8818V40.5H35.5996H34.2134L34.1067 40.6317C34.0071 40.7547 34 40.8278 34 41.734C34 42.6978 34.0009 42.7054 34.1264 42.8273L34.2527 42.95H35.6193H36.9858V43.6V44.25H35.6193H34.2527L34.1264 44.3727C34.0025 44.493 34 44.5114 34.0007 45.3102C34.0011 45.7583 34.0156 46.1766 34.033 46.2395C34.0981 46.4754 34.2528 46.5 35.6705 46.5H36.9858V47.6182C36.9858 48.6739 36.9917 48.7439 37.0925 48.8682L37.1991 49H38.3715C39.4974 49 39.5476 48.9959 39.6418 48.8949C39.7312 48.7991 39.7413 48.6883 39.7554 47.6449L39.771 46.5H42.6949C44.6302 46.5 45.672 46.482 45.776 46.4467C46.0226 46.3633 46.0552 46.2171 46.0367 45.2768C46.0208 44.4679 46.0163 44.4378 45.8987 44.3455C45.7822 44.254 45.653 44.25 42.7714 44.25H39.7656V43.6042V42.9583L42.2494 42.9366C44.9252 42.9132 44.8942 42.916 45.7778 42.6211C47.1183 42.1736 48.3008 41.0232 48.7486 39.7308C48.9487 39.1536 49.0021 38.7745 48.9999 37.95C48.9976 37.0575 48.9137 36.5811 48.6466 35.9425C48.139 34.7291 46.9599 33.6785 45.6342 33.2579C44.8408 33.0062 44.7266 33 40.8375 33H37.1991L37.0925 33.1317ZM44.5108 35.6068C45.6883 36.0459 46.286 36.9759 46.1805 38.2048C46.1103 39.0214 45.7664 39.6107 45.1206 40.0205C44.4196 40.4653 44.1734 40.5 41.7173 40.5H39.7656V37.9713V35.4425L41.9663 35.4606L44.167 35.4786L44.5108 35.6068Z" fill="white"/>
</svg>
