<svg width="84" height="84" viewBox="0 0 84 84" fill="none" xmlns="http://www.w3.org/2000/svg">
<path fill-rule="evenodd" clip-rule="evenodd" d="M47.2987 33.3014C43.1566 34.208 39.1768 36.7516 36.5823 40.1502C35.8637 41.0915 34.4498 43.7808 33.9958 45.07C33.7161 45.8641 33.3192 48.0414 33.123 49.8603L33 51H33.7897C38.2097 51 42.8962 48.8992 46.1064 45.4785C48.9114 42.4896 50.8222 38.0571 50.9579 34.2239L51 33.0386L49.9167 33.002C49.3209 32.9819 48.1428 33.1167 47.2987 33.3014Z" fill="#124144"/>
<path fill-rule="evenodd" clip-rule="evenodd" d="M30.9622 36.3141C35.6554 34.6049 41.219 34.6269 45.9431 36.3731C47.2515 36.8567 50.3538 38.6413 51.6183 39.6378C52.3972 40.2517 54.1647 42.168 55.5066 43.8542L56.3475 44.9107L55.5617 45.4085C51.1636 48.195 45.176 49.059 39.8253 47.679C35.15 46.4733 30.4543 43.2673 27.9027 39.5388L27.1137 38.3859L28.1685 37.6665C28.7487 37.271 30.0059 36.6624 30.9622 36.3141Z" fill="#E25B26"/>
<circle cx="43" cy="43" r="20" fill="#C9C8D3"/>
<circle cx="41" cy="41" r="20" fill="#E25B26"/>
<path fill-rule="evenodd" clip-rule="evenodd" d="M41.267 32.2482C41.0718 32.3847 40.3933 32.8795 39.7594 33.3479C39.1254 33.8163 37.6579 34.8968 36.4982 35.7492C35.3385 36.6015 34.377 37.3145 34.3615 37.3337C34.3461 37.3529 33.8084 37.753 33.1667 38.2228C32.0771 39.0206 32 39.0888 32 39.2558C32 39.3775 32.0494 39.481 32.1546 39.5797C32.2396 39.6595 33.6503 40.7017 35.2893 41.8958C36.9283 43.0899 38.282 44.082 38.2974 44.1006C38.3129 44.1191 38.4521 44.2262 38.6067 44.3385C38.7613 44.4508 39.4749 44.9726 40.1925 45.498C41.5575 46.4977 41.7144 46.5751 41.9154 46.3485C41.998 46.2554 42.0084 46.0329 42.0084 44.3698V42.4959H42.2208C42.6397 42.4959 43.3944 42.6178 43.8558 42.76C45.433 43.2461 46.5377 44.2584 46.93 45.5774C47.0639 46.0274 47.0381 46.8756 46.875 47.385C46.6528 48.0794 46.3966 48.4928 45.7558 49.1909C45.3677 49.6136 45.389 49.9051 45.8137 49.9864C46.0588 50.0333 46.1858 49.9743 46.724 49.5633C48.1184 48.4986 49.1604 47.1061 49.6519 45.6504C50.1156 44.2772 50.1161 42.6774 49.6533 41.2915C48.6833 38.3868 45.8725 36.3272 42.5606 36.0946L42.0084 36.0558V34.1468V32.2377L41.8603 32.1189C41.7788 32.0535 41.6918 32 41.667 32C41.6422 32 41.4622 32.1117 41.267 32.2482Z" fill="white"/>
</svg>
