<svg width="20" height="21" viewBox="0 0 20 21" fill="none" xmlns="http://www.w3.org/2000/svg">
<path d="M10 8.66671V17.1667M10 8.66671C10 7.26658 10 6.5665 10.2725 6.03172C10.5122 5.56131 10.8947 5.17884 11.3652 4.93915C11.8999 4.66667 12.5997 4.66667 13.9998 4.66667H16.1665C16.6332 4.66667 16.8667 4.66667 17.0449 4.7575C17.2017 4.83739 17.3294 4.96488 17.4093 5.12169C17.5001 5.29994 17.5 5.53327 17.5 5.99998V13.3333C17.5 13.8 17.5001 14.0334 17.4093 14.2117C17.3294 14.3685 17.2017 14.4959 17.0449 14.5758C16.8667 14.6667 16.6333 14.6667 16.1666 14.6667H13.8074C13.0247 14.6667 12.6335 14.6667 12.2782 14.7745C11.9638 14.87 11.6713 15.0266 11.4174 15.2353C11.1306 15.471 10.9134 15.7967 10.4792 16.4479L10 17.1667M10 8.66671C10 7.26658 9.99986 6.5665 9.72738 6.03172C9.48769 5.56131 9.10554 5.17884 8.63514 4.93915C8.10036 4.66667 7.40021 4.66667 6.00008 4.66667H3.83341C3.3667 4.66667 3.13318 4.66667 2.95492 4.7575C2.79811 4.83739 2.67072 4.96488 2.59083 5.12169C2.5 5.29994 2.5 5.53327 2.5 5.99998V13.3333C2.5 13.8 2.5 14.0334 2.59083 14.2117C2.67072 14.3685 2.79811 14.4959 2.95492 14.5758C3.13318 14.6667 3.3667 14.6667 3.83341 14.6667H6.19268C6.97536 14.6667 7.36664 14.6667 7.72186 14.7745C8.03634 14.87 8.32886 15.0266 8.58276 15.2353C8.86956 15.471 9.08652 15.7967 9.52067 16.4479L10 17.1667" stroke="#8A8894" stroke-width="1.5" stroke-linecap="round" stroke-linejoin="round"/>
</svg>
