<svg width="24" height="24" viewBox="0 0 24 24" fill="none" xmlns="http://www.w3.org/2000/svg">
<path d="M3.21799 7.09204L3.66349 7.31904L3.21799 7.09204ZM4.0918 6.21799L4.31879 6.66349L4.0918 6.21799ZM4.0918 17.782L4.31879 17.3365L4.0918 17.782ZM3.21799 16.908L2.77248 17.135H2.77248L3.21799 16.908ZM20.7822 16.908L20.3367 16.681L20.7822 16.908ZM19.9078 17.782L19.6808 17.3365L19.9078 17.782ZM20.7822 7.09204L20.3367 7.31904L20.7822 7.09204ZM19.9078 6.21799L20.1348 5.77248L19.9078 6.21799ZM11.5 18C11.5 18.2761 11.7239 18.5 12 18.5C12.2761 18.5 12.5 18.2761 12.5 18H11.5ZM5.5 18C5.5 18.2761 5.72386 18.5 6 18.5C6.27614 18.5 6.5 18.2761 6.5 18H5.5ZM18 14.5C18.2761 14.5 18.5 14.2761 18.5 14C18.5 13.7239 18.2761 13.5 18 13.5V14.5ZM14 13.5C13.7239 13.5 13.5 13.7239 13.5 14C13.5 14.2761 13.7239 14.5 14 14.5V13.5ZM18 11.5C18.2761 11.5 18.5 11.2761 18.5 11C18.5 10.7239 18.2761 10.5 18 10.5V11.5ZM15 10.5C14.7239 10.5 14.5 10.7239 14.5 11C14.5 11.2761 14.7239 11.5 15 11.5V10.5ZM9 12.5C8.17157 12.5 7.5 11.8284 7.5 11H6.5C6.5 12.3807 7.61929 13.5 9 13.5V12.5ZM7.5 11C7.5 10.1716 8.17157 9.5 9 9.5V8.5C7.61929 8.5 6.5 9.61929 6.5 11H7.5ZM9 9.5C9.82843 9.5 10.5 10.1716 10.5 11H11.5C11.5 9.61929 10.3807 8.5 9 8.5V9.5ZM10.5 11C10.5 11.8284 9.82843 12.5 9 12.5V13.5C10.3807 13.5 11.5 12.3807 11.5 11H10.5ZM20.5 9.19995V14.8H21.5V9.19995H20.5ZM17.8002 17.5H6.2002V18.5H17.8002V17.5ZM3.5 14.8V9.19995H2.5V14.8H3.5ZM6.2002 6.5H17.8002V5.5H6.2002V6.5ZM3.5 9.19995C3.5 8.63165 3.50039 8.23551 3.52559 7.92711C3.55031 7.62455 3.59639 7.45072 3.66349 7.31904L2.77248 6.86505C2.62159 7.16119 2.55868 7.48126 2.52891 7.84567C2.49961 8.20424 2.5 8.64815 2.5 9.19995H3.5ZM6.2002 5.5C5.64839 5.5 5.20437 5.49961 4.84569 5.52891C4.4812 5.55868 4.16098 5.62157 3.8648 5.77248L4.31879 6.66349C4.45044 6.59641 4.62436 6.55032 4.92709 6.52559C5.23563 6.50039 5.6319 6.5 6.2002 6.5V5.5ZM3.66349 7.31904C3.80737 7.03666 4.03668 6.80723 4.31879 6.66349L3.8648 5.77248C3.39427 6.01223 3.0121 6.39477 2.77248 6.86505L3.66349 7.31904ZM6.2002 17.5C5.6319 17.5 5.23563 17.4996 4.92711 17.4744C4.62438 17.4497 4.45045 17.4036 4.31879 17.3365L3.8648 18.2275C4.16097 18.3784 4.48118 18.4413 4.84568 18.4711C5.20436 18.5004 5.64838 18.5 6.2002 18.5V17.5ZM2.5 14.8C2.5 15.3518 2.49961 15.7957 2.52891 16.1543C2.55868 16.5187 2.62159 16.8389 2.77248 17.135L3.66349 16.681C3.5964 16.5494 3.55031 16.3755 3.52559 16.0729C3.50039 15.7644 3.5 15.3683 3.5 14.8H2.5ZM4.31879 17.3365C4.03662 17.1927 3.80734 16.9634 3.66349 16.681L2.77248 17.135C3.01213 17.6054 3.39432 17.9878 3.8648 18.2275L4.31879 17.3365ZM20.5 14.8C20.5 15.3683 20.4997 15.7645 20.4745 16.073C20.4498 16.3756 20.4038 16.5494 20.3367 16.681L21.2277 17.135C21.3787 16.8388 21.4415 16.5186 21.4712 16.1542C21.5004 15.7957 21.5 15.3517 21.5 14.8H20.5ZM17.8002 18.5C18.352 18.5 18.7958 18.5004 19.1543 18.4711C19.5187 18.4413 19.8387 18.3784 20.1348 18.2275L19.6808 17.3365C19.5491 17.4036 19.3753 17.4497 19.0729 17.4744C18.7645 17.4996 18.3685 17.5 17.8002 17.5V18.5ZM20.3367 16.681C20.193 16.963 19.9633 17.1925 19.6808 17.3365L20.1348 18.2275C20.6049 17.9879 20.9879 17.6057 21.2277 17.135L20.3367 16.681ZM21.5 9.19995C21.5 8.6482 21.5004 8.20429 21.4712 7.84575C21.4415 7.48136 21.3787 7.16124 21.2277 6.86505L20.3367 7.31904C20.4038 7.45066 20.4498 7.62444 20.4745 7.92703C20.4997 8.23546 20.5 8.6316 20.5 9.19995H21.5ZM17.8002 6.5C18.3685 6.5 18.7646 6.50039 19.0729 6.52559C19.3753 6.55031 19.5491 6.59638 19.6808 6.66349L20.1348 5.77248C19.8387 5.6216 19.5187 5.55869 19.1543 5.52891C18.7958 5.49961 18.352 5.5 17.8002 5.5V6.5ZM21.2277 6.86505C20.9879 6.39444 20.605 6.01206 20.1348 5.77248L19.6808 6.66349C19.9632 6.8074 20.193 7.037 20.3367 7.31904L21.2277 6.86505ZM12.5 18C12.5 17.2285 12.031 16.5913 11.3987 16.1698C10.7629 15.7459 9.91337 15.5 9 15.5V16.5C9.74348 16.5 10.394 16.7018 10.844 17.0018C11.2975 17.3041 11.5 17.6669 11.5 18H12.5ZM9 15.5C8.08663 15.5 7.23711 15.7459 6.60133 16.1698C5.96904 16.5913 5.5 17.2285 5.5 18H6.5C6.5 17.6669 6.70253 17.3041 7.15603 17.0018C7.60604 16.7018 8.25652 16.5 9 16.5V15.5ZM18 13.5L14 13.5V14.5L18 14.5V13.5ZM18 10.5L15 10.5V11.5L18 11.5V10.5Z" fill="#212121"/>
</svg>
