<svg width="24" height="24" viewBox="0 0 24 24" fill="none" xmlns="http://www.w3.org/2000/svg">
<path d="M17.4489 19.0087C17.7298 19.3131 18.2043 19.3321 18.5087 19.0511C18.8131 18.7702 18.8321 18.2957 18.5511 17.9913L17.4489 19.0087ZM12 12H11.25C11.25 12.1885 11.321 12.3702 11.4489 12.5087L12 12ZM12 20.25C7.44365 20.25 3.75 16.5563 3.75 12H2.25C2.25 17.3848 6.61522 21.75 12 21.75V20.25ZM3.75 12C3.75 7.44365 7.44365 3.75 12 3.75V2.25C6.61522 2.25 2.25 6.61522 2.25 12H3.75ZM12 3.75C16.5563 3.75 20.25 7.44365 20.25 12H21.75C21.75 6.61522 17.3848 2.25 12 2.25V3.75ZM20.25 12C20.25 16.5563 16.5563 20.25 12 20.25V21.75C17.3848 21.75 21.75 17.3848 21.75 12H20.25ZM18.5511 17.9913L12.5511 11.4913L11.4489 12.5087L17.4489 19.0087L18.5511 17.9913ZM12.75 12V3H11.25V12H12.75ZM12 12.75H21V11.25H12V12.75Z" fill="#E25B26"/>
</svg>
