<svg width="30" height="28" viewBox="0 0 30 28" fill="none" xmlns="http://www.w3.org/2000/svg">
<path fill-rule="evenodd" clip-rule="evenodd" d="M28.4112 12.6766L29.1117 17.223C29.6752 18.1472 30.0001 19.2318 30 20.3907C30 23.7594 27.2554 26.5 23.8819 26.5C20.7969 26.5 18.2384 24.208 17.8231 21.24H14.9085C14.9936 20.9722 15.0629 20.6979 15.1154 20.4181H17.7641L17.7639 20.4044L17.7637 20.3907C17.7637 18.8753 18.3194 17.4872 19.2375 16.4183H14.6845C14.5647 16.135 14.4266 15.8607 14.2717 15.5964H19.9311C19.9783 15.5964 20.0234 15.6047 20.0656 15.6193C20.4144 15.3407 20.794 15.0992 21.1989 14.9011L21.0171 14.2266H15.2992C14.7932 14.2266 14.3004 14.0485 13.9116 13.725L12.556 12.5969C11.9599 12.1009 11.6181 11.3722 11.6181 10.5975V4.14491H11.1517C10.6525 4.14491 10.2464 4.55047 10.2464 5.04897L10.2463 12.3158C9.97873 12.222 9.70405 12.1422 9.42332 12.0771V5.04902C9.42332 4.09735 10.1987 3.32308 11.1518 3.32308H19.4922C19.7195 3.32308 19.9038 3.50707 19.9038 3.73402C19.9038 3.96097 19.7195 4.14496 19.4922 4.14496H19.1512L21.057 11.2131H22.6889L20.8708 4.10529L20.8682 4.09466C20.7358 3.51282 20.909 2.91362 21.3315 2.49172L22.2042 1.62036C22.3648 1.45988 22.6254 1.45988 22.7861 1.62036C22.9468 1.7808 22.9468 2.041 22.7861 2.20149L21.9135 3.0729C21.6934 3.29272 21.6024 3.60449 21.6698 3.90771L23.5383 11.2131H26.7029C27.5621 11.2131 28.2806 11.8286 28.4112 12.6766ZM27.5977 12.8015C27.5292 12.3573 27.1529 12.035 26.7029 12.035H21.2786L21.967 14.5882C22.5697 14.3894 23.2134 14.2814 23.8819 14.2814C25.5074 14.2814 26.9867 14.9178 28.0834 15.954L27.5977 12.8015ZM15.2992 13.4047H20.7955L18.2988 4.14491H12.4412V10.5975C12.4412 11.1276 12.6751 11.6261 13.0829 11.9655L13.813 12.5731V5.48731C13.813 5.26035 13.9972 5.07636 14.2245 5.07636C14.4518 5.07636 14.6361 5.26035 14.6361 5.48731V13.2297C14.8371 13.3434 15.0659 13.4047 15.2992 13.4047ZM18.5868 20.3907C18.5868 23.3062 20.9622 25.6782 23.8819 25.6782C26.8016 25.6782 29.177 23.3063 29.177 20.3907C29.177 17.4753 26.8016 15.1033 23.8819 15.1033C20.9622 15.1033 18.5868 17.4753 18.5868 20.3907ZM14.1659 19.1321C14.1659 22.5065 11.2813 25.3257 7.61708 25.3257C3.95286 25.3257 1.06823 22.5065 1.06823 19.1321C1.06823 15.7577 3.95286 12.9385 7.61708 12.9385C11.2813 12.9385 14.1659 15.7577 14.1659 19.1321ZM15.2252 19.4867C15.0312 23.3318 11.6991 26.3924 7.61708 26.3924C3.41027 26.3924 0 23.1419 0 19.1321C0 15.1224 3.41027 11.8718 7.61708 11.8718C11.183 11.8718 14.1765 14.2074 15.0059 17.3613C15.037 17.3538 15.0694 17.3498 15.1027 17.3498H16.8586C17.0859 17.3498 17.2701 17.5338 17.2701 17.7608C17.2701 17.9877 17.0859 18.1717 16.8586 18.1717H15.1681C15.1906 18.3344 15.2075 18.4989 15.2186 18.6648H16.8586C17.0859 18.6648 17.2701 18.8489 17.2701 19.0758C17.2701 19.3027 17.0859 19.4867 16.8586 19.4867H15.2252ZM20.3979 20.3905C20.3979 18.472 21.961 16.9112 23.8822 16.9112C25.8035 16.9112 27.3665 18.472 27.3665 20.3905C27.3665 22.309 25.8035 23.8698 23.8822 23.8698C21.961 23.8698 20.3979 22.309 20.3979 20.3905ZM21.221 20.3905C21.221 21.8558 22.4148 23.0479 23.8822 23.0479C25.3496 23.0479 26.5435 21.8558 26.5435 20.3905C26.5435 18.9252 25.3496 17.7331 23.8822 17.7331C22.4148 17.7331 21.221 18.9252 21.221 20.3905ZM10.0111 18.7864C10.0111 20.1067 8.93927 21.177 7.61708 21.177C6.29485 21.177 5.22299 20.1067 5.22299 18.7864C5.22299 17.4661 6.29485 16.3958 7.61708 16.3958C8.93927 16.3958 10.0111 17.4661 10.0111 18.7864ZM11.0794 18.7864C11.0794 20.6958 9.52922 22.2437 7.61708 22.2437C5.70488 22.2437 4.15475 20.6958 4.15475 18.7864C4.15475 16.877 5.70488 15.3291 7.61708 15.3291C9.52922 15.3291 11.0794 16.877 11.0794 18.7864Z" fill="#E25B26"/>
</svg>
