<svg width="20" height="20" viewBox="0 0 20 20" fill="none" xmlns="http://www.w3.org/2000/svg">
<path d="M2.68166 5.07672L3.34991 5.41721L2.68166 5.07672ZM3.40983 4.34834L3.75032 5.0166L3.40983 4.34834ZM3.40983 15.6517L3.75032 14.9834H3.75032L3.40983 15.6517ZM2.68166 14.9234L2.0134 15.2639L2.68166 14.9234ZM17.3185 14.9234L16.6503 14.5829L17.3185 14.9234ZM16.5898 15.6517L16.2493 14.9834L16.5898 15.6517ZM17.3185 5.07672L16.6503 5.41721L17.3185 5.07672ZM16.5898 4.34834L16.9303 3.68009L16.5898 4.34834ZM5.83333 11.75C5.41912 11.75 5.08333 12.0858 5.08333 12.5C5.08333 12.9142 5.41912 13.25 5.83333 13.25V11.75ZM9.16667 13.25C9.58088 13.25 9.91667 12.9142 9.91667 12.5C9.91667 12.0858 9.58088 11.75 9.16667 11.75V13.25ZM2.5 8.41669C2.08579 8.41669 1.75 8.75247 1.75 9.16669C1.75 9.5809 2.08579 9.91669 2.5 9.91669V8.41669ZM17.5 9.91669C17.9142 9.91669 18.25 9.5809 18.25 9.16669C18.25 8.75247 17.9142 8.41669 17.5 8.41669V9.91669ZM2.5 6.75002C2.08579 6.75002 1.75 7.08581 1.75 7.50002C1.75 7.91423 2.08579 8.25002 2.5 8.25002V6.75002ZM17.5 8.25002C17.9142 8.25002 18.25 7.91423 18.25 7.50002C18.25 7.08581 17.9142 6.75002 17.5 6.75002V8.25002ZM16.75 6.83331V13.1666H18.25V6.83331H16.75ZM14.8335 15.0834H5.16683V16.5834H14.8335V15.0834ZM3.25 13.1666V6.83331H1.75V13.1666H3.25ZM5.16683 4.91669H14.8335V3.41669H5.16683V4.91669ZM3.25 6.83331C3.25 6.35423 3.25058 6.04003 3.27022 5.79976C3.28913 5.56824 3.32193 5.47213 3.34991 5.41721L2.0134 4.73623C1.85973 5.03783 1.8017 5.35331 1.7752 5.6776C1.74942 5.99313 1.75 6.37898 1.75 6.83331H3.25ZM5.16683 3.41669C4.71249 3.41669 4.32656 3.4161 4.01094 3.44188C3.68661 3.46837 3.37099 3.52639 3.06934 3.68009L3.75032 5.0166C3.80519 4.98864 3.90136 4.95583 4.13305 4.9369C4.37344 4.91727 4.68775 4.91669 5.16683 4.91669V3.41669ZM3.34991 5.41721C3.43789 5.24454 3.57804 5.10438 3.75032 5.0166L3.06934 3.68009C2.61442 3.91188 2.245 4.2817 2.0134 4.73623L3.34991 5.41721ZM5.16683 15.0834C4.68776 15.0834 4.37345 15.0828 4.13306 15.0631C3.90138 15.0442 3.8052 15.0114 3.75032 14.9834L3.06934 16.3199C3.37098 16.4736 3.68659 16.5316 4.01092 16.5581C4.32655 16.5839 4.71248 16.5834 5.16683 16.5834V15.0834ZM1.75 13.1666C1.75 13.621 1.74942 14.0069 1.7752 14.3224C1.80169 14.6467 1.85972 14.9622 2.0134 15.2639L3.34991 14.5829C3.32194 14.528 3.28914 14.4319 3.27022 14.2003C3.25058 13.96 3.25 13.6457 3.25 13.1666H1.75ZM3.75032 14.9834C3.57796 14.8956 3.43785 14.7555 3.34991 14.5829L2.0134 15.2639C2.24504 15.7185 2.6145 16.0882 3.06934 16.3199L3.75032 14.9834ZM16.75 13.1666C16.75 13.6458 16.7495 13.96 16.7299 14.2004C16.711 14.432 16.6782 14.5281 16.6503 14.5829L17.9868 15.2639C18.1405 14.9622 18.1985 14.6466 18.2249 14.3223C18.2506 14.0068 18.25 13.6209 18.25 13.1666H16.75ZM14.8335 16.5834C15.2878 16.5834 15.6736 16.5839 15.9891 16.5581C16.3134 16.5316 16.6288 16.4736 16.9303 16.3199L16.2493 14.9834C16.1944 15.0114 16.0983 15.0442 15.8669 15.0631C15.6267 15.0828 15.3126 15.0834 14.8335 15.0834V16.5834ZM16.6503 14.5829C16.5626 14.755 16.4222 14.8953 16.2493 14.9834L16.9303 16.3199C17.3847 16.0884 17.7549 15.719 17.9868 15.2639L16.6503 14.5829ZM18.25 6.83331C18.25 6.37905 18.2506 5.9932 18.2249 5.67772C18.1985 5.35346 18.1405 5.03792 17.9868 4.73623L16.6503 5.41721C16.6782 5.47205 16.711 5.56808 16.7299 5.79964C16.7495 6.03996 16.75 6.35415 16.75 6.83331H18.25ZM14.8335 4.91669C15.3126 4.91669 15.6267 4.91727 15.8669 4.9369C16.0983 4.95581 16.1944 4.9886 16.2493 5.0166L16.9303 3.68009C16.6287 3.52643 16.3134 3.46839 15.9891 3.44189C15.6736 3.4161 15.2878 3.41669 14.8335 3.41669V4.91669ZM17.9868 4.73623C17.7549 4.2812 17.3847 3.91163 16.9303 3.68009L16.2493 5.0166C16.4221 5.10464 16.5625 5.24504 16.6503 5.41721L17.9868 4.73623ZM5.83333 13.25H9.16667V11.75H5.83333V13.25ZM2.5 9.91669H17.5V8.41669H2.5V9.91669ZM2.5 8.25002H17.5V6.75002H2.5V8.25002Z" fill="#124144"/>
</svg>
