<svg width="230" height="18" viewBox="0 0 230 18" fill="none" xmlns="http://www.w3.org/2000/svg">
<mask id="path-1-inside-1_1735_64410" fill="white">
<path d="M0 0H230V18H0V0Z"/>
</mask>
<path d="M0 18.5H0.991379V17.5H0V18.5ZM2.97414 18.5H4.9569V17.5H2.97414V18.5ZM6.93966 18.5H8.92241V17.5H6.93966V18.5ZM10.9052 18.5H12.8879V17.5H10.9052V18.5ZM14.8707 18.5H16.8534V17.5H14.8707V18.5ZM18.8362 18.5H20.819V17.5H18.8362V18.5ZM22.8017 18.5H24.7845V17.5H22.8017V18.5ZM26.7672 18.5H28.75V17.5H26.7672V18.5ZM30.7328 18.5H32.7155V17.5H30.7328V18.5ZM34.6983 18.5H36.681V17.5H34.6983V18.5ZM38.6638 18.5H40.6466V17.5H38.6638V18.5ZM42.6293 18.5H44.6121V17.5H42.6293V18.5ZM46.5948 18.5H48.5776V17.5H46.5948V18.5ZM50.5603 18.5H52.5431V17.5H50.5603V18.5ZM54.5259 18.5H56.5086V17.5H54.5259V18.5ZM58.4914 18.5H60.4741V17.5H58.4914V18.5ZM62.4569 18.5H64.4396V17.5H62.4569V18.5ZM66.4224 18.5H68.4052V17.5H66.4224V18.5ZM70.3879 18.5H72.3707V17.5H70.3879V18.5ZM74.3534 18.5H76.3362V17.5H74.3534V18.5ZM78.3189 18.5H80.3017V17.5H78.3189V18.5ZM82.2845 18.5H84.2672V17.5H82.2845V18.5ZM86.25 18.5H88.2327V17.5H86.25V18.5ZM90.2155 18.5H92.1982V17.5H90.2155V18.5ZM94.181 18.5H96.1638V17.5H94.181V18.5ZM98.1465 18.5H100.129V17.5H98.1465V18.5ZM102.112 18.5H104.095V17.5H102.112V18.5ZM106.078 18.5H108.06V17.5H106.078V18.5ZM110.043 18.5H112.026V17.5H110.043V18.5ZM114.009 18.5H115.991V17.5H114.009V18.5ZM117.974 18.5H119.957V17.5H117.974V18.5ZM121.94 18.5H123.922V17.5H121.94V18.5ZM125.905 18.5H127.888V17.5H125.905V18.5ZM129.871 18.5H131.853V17.5H129.871V18.5ZM133.836 18.5H135.819V17.5H133.836V18.5ZM137.802 18.5H139.784V17.5H137.802V18.5ZM141.767 18.5H143.75V17.5H141.767V18.5ZM145.733 18.5H147.715V17.5H145.733V18.5ZM149.698 18.5H151.681V17.5H149.698V18.5ZM153.664 18.5H155.646V17.5H153.664V18.5ZM157.629 18.5H159.612V17.5H157.629V18.5ZM161.595 18.5H163.578V17.5H161.595V18.5ZM165.56 18.5H167.543V17.5H165.56V18.5ZM169.526 18.5H171.509V17.5H169.526V18.5ZM173.491 18.5H175.474V17.5H173.491V18.5ZM177.457 18.5H179.44V17.5H177.457V18.5ZM181.422 18.5H183.405V17.5H181.422V18.5ZM185.388 18.5H187.371V17.5H185.388V18.5ZM189.353 18.5H191.336V17.5H189.353V18.5ZM193.319 18.5H195.302V17.5H193.319V18.5ZM197.284 18.5H199.267V17.5H197.284V18.5ZM201.25 18.5H203.233V17.5H201.25V18.5ZM205.215 18.5H207.198V17.5H205.215V18.5ZM209.181 18.5H211.164V17.5H209.181V18.5ZM213.146 18.5H215.129V17.5H213.146V18.5ZM217.112 18.5H219.095V17.5H217.112V18.5ZM221.077 18.5H223.06V17.5H221.077V18.5ZM225.043 18.5H227.026V17.5H225.043V18.5ZM229.009 18.5H230V17.5H229.009V18.5ZM0 19H0.991379V17H0V19ZM2.97414 19H4.9569V17H2.97414V19ZM6.93966 19H8.92241V17H6.93966V19ZM10.9052 19H12.8879V17H10.9052V19ZM14.8707 19H16.8534V17H14.8707V19ZM18.8362 19H20.819V17H18.8362V19ZM22.8017 19H24.7845V17H22.8017V19ZM26.7672 19H28.75V17H26.7672V19ZM30.7328 19H32.7155V17H30.7328V19ZM34.6983 19H36.681V17H34.6983V19ZM38.6638 19H40.6466V17H38.6638V19ZM42.6293 19H44.6121V17H42.6293V19ZM46.5948 19H48.5776V17H46.5948V19ZM50.5603 19H52.5431V17H50.5603V19ZM54.5259 19H56.5086V17H54.5259V19ZM58.4914 19H60.4741V17H58.4914V19ZM62.4569 19H64.4396V17H62.4569V19ZM66.4224 19H68.4052V17H66.4224V19ZM70.3879 19H72.3707V17H70.3879V19ZM74.3534 19H76.3362V17H74.3534V19ZM78.3189 19H80.3017V17H78.3189V19ZM82.2845 19H84.2672V17H82.2845V19ZM86.25 19H88.2327V17H86.25V19ZM90.2155 19H92.1982V17H90.2155V19ZM94.181 19H96.1638V17H94.181V19ZM98.1465 19H100.129V17H98.1465V19ZM102.112 19H104.095V17H102.112V19ZM106.078 19H108.06V17H106.078V19ZM110.043 19H112.026V17H110.043V19ZM114.009 19H115.991V17H114.009V19ZM117.974 19H119.957V17H117.974V19ZM121.94 19H123.922V17H121.94V19ZM125.905 19H127.888V17H125.905V19ZM129.871 19H131.853V17H129.871V19ZM133.836 19H135.819V17H133.836V19ZM137.802 19H139.784V17H137.802V19ZM141.767 19H143.75V17H141.767V19ZM145.733 19H147.715V17H145.733V19ZM149.698 19H151.681V17H149.698V19ZM153.664 19H155.646V17H153.664V19ZM157.629 19H159.612V17H157.629V19ZM161.595 19H163.578V17H161.595V19ZM165.56 19H167.543V17H165.56V19ZM169.526 19H171.509V17H169.526V19ZM173.491 19H175.474V17H173.491V19ZM177.457 19H179.44V17H177.457V19ZM181.422 19H183.405V17H181.422V19ZM185.388 19H187.371V17H185.388V19ZM189.353 19H191.336V17H189.353V19ZM193.319 19H195.302V17H193.319V19ZM197.284 19H199.267V17H197.284V19ZM201.25 19H203.233V17H201.25V19ZM205.215 19H207.198V17H205.215V19ZM209.181 19H211.164V17H209.181V19ZM213.146 19H215.129V17H213.146V19ZM217.112 19H219.095V17H217.112V19ZM221.077 19H223.06V17H221.077V19ZM225.043 19H227.026V17H225.043V19ZM229.009 19H230V17H229.009V19Z" fill="#C9C8D3" mask="url(#path-1-inside-1_1735_64410)"/>
</svg>
