<svg width="24" height="24" viewBox="0 0 24 24" fill="none" xmlns="http://www.w3.org/2000/svg">
<path d="M20.1892 10.9343C20.7056 11.5613 20.7056 12.4387 20.1892 13.0657C18.7691 14.7899 15.6369 18 12.0012 18C8.36542 18 5.23321 14.7899 3.81312 13.0657C3.29667 12.4387 3.29667 11.5613 3.81312 10.9343C5.23321 9.21014 8.36542 6 12.0012 6C15.6369 6 18.7691 9.21014 20.1892 10.9343Z" stroke="#212121"/>
<path d="M15 12C15 13.6569 13.6569 15 12 15C10.3431 15 9 13.6569 9 12C9 10.3431 10.3431 9 12 9C13.6569 9 15 10.3431 15 12Z" stroke="#212121"/>
</svg>
