<svg width="46" height="66" viewBox="0 0 46 66" fill="none" xmlns="http://www.w3.org/2000/svg">
<path fill-rule="evenodd" clip-rule="evenodd" d="M0 23.1389C0 10.3798 10.168 0 22.6667 0C35.1653 0 45.3333 10.3798 45.3333 23.1389C45.3333 45.5074 24.4293 64.2145 23.5387 65.0012C23.288 65.2217 22.976 65.3333 22.6667 65.3333C22.3573 65.3333 22.0453 65.2217 21.7947 65.0012C20.904 64.2172 0 45.5101 0 23.1389ZM10.6667 22.6667C10.6667 29.2933 16.04 34.6667 22.6667 34.6667C29.2933 34.6667 34.6667 29.2933 34.6667 22.6667C34.6667 16.04 29.2933 10.6667 22.6667 10.6667C16.04 10.6667 10.6667 16.04 10.6667 22.6667Z" fill="#E25B26"/>
</svg>
