<svg width="15" height="15" viewBox="0 0 15 15" fill="none" xmlns="http://www.w3.org/2000/svg">
<path d="M3.125 6.20193C3.125 9.23432 5.7778 11.742 6.95199 12.7034L6.95245 12.7038C7.12082 12.8416 7.20504 12.9106 7.33053 12.9459C7.42816 12.9734 7.57175 12.9734 7.66937 12.9459C7.79498 12.9106 7.87942 12.8415 8.0481 12.7034C9.22229 11.742 11.875 9.2343 11.875 6.20192C11.875 5.05434 11.4141 3.95378 10.5936 3.14233C9.77312 2.33087 8.66035 1.875 7.50003 1.875C6.3397 1.875 5.22688 2.33086 4.40641 3.14232C3.58594 3.95377 3.125 5.05436 3.125 6.20193Z" stroke="#8A8894" stroke-width="1.5" stroke-linecap="round" stroke-linejoin="round"/>
</svg>
