<svg width="26" height="26" viewBox="0 0 26 26" fill="none" xmlns="http://www.w3.org/2000/svg">
<path d="M17.2559 17.2554L8.7452 8.74461L0.259906 17.2299L8.77065 25.7406L17.2559 17.2554Z" fill="#124144"/>
<path d="M3.12373 17.2341C4.61586 15.742 6.64133 14.9054 8.75468 14.9084C10.868 14.9113 12.8962 15.7535 14.3931 17.2498C12.901 18.742 10.8755 19.5786 8.76214 19.5756C6.6488 19.5727 4.62064 18.7304 3.12373 17.2341Z" fill="white"/>
<path d="M25.7412 8.77008L17.2305 0.259338L8.7452 8.74461L17.2559 17.2554L25.7412 8.77008Z" fill="#E25B26"/>
<path d="M19.7742 6.22637L19.773 6.22523C18.3716 4.82385 16.103 4.82045 14.7058 6.21764L14.7046 6.21878C13.3074 7.61597 13.3108 9.88467 14.7122 11.286L14.7134 11.2872C16.1147 12.6886 18.3834 12.692 19.7806 11.2948L19.7818 11.2936C21.179 9.89645 21.1756 7.62776 19.7742 6.22637Z" fill="white"/>
</svg>
