<svg width="25" height="25" viewBox="0 0 25 25" fill="none" xmlns="http://www.w3.org/2000/svg">
<path d="M17.5 17.5C16.3954 17.5 15.5 18.3954 15.5 19.5C15.5 20.6046 16.3954 21.5 17.5 21.5C18.6046 21.5 19.5 20.6046 19.5 19.5C19.5 18.3954 18.6046 17.5 17.5 17.5ZM17.5 17.5H9.79395C9.33269 17.5 9.10197 17.5 8.91211 17.418C8.74466 17.3456 8.59934 17.2288 8.49349 17.0802C8.37348 16.9118 8.32609 16.6863 8.22945 16.2353L5.77148 4.76477C5.67484 4.31376 5.62587 4.08825 5.50586 3.9198C5.40002 3.77123 5.25525 3.65441 5.0878 3.58205C4.89794 3.5 4.66779 3.5 4.20653 3.5H3.5M6.5 6.5H19.3732C20.095 6.5 20.4557 6.5 20.6979 6.65036C20.9101 6.78206 21.0652 6.98838 21.1329 7.22876C21.2102 7.50319 21.111 7.84996 20.911 8.54346L19.5264 13.3435C19.4068 13.7581 19.3469 13.9655 19.2256 14.1193C19.1185 14.2551 18.9772 14.3608 18.8171 14.426C18.6356 14.5 18.4199 14.5 17.9883 14.5H8.23047M8.5 21.5C7.39543 21.5 6.5 20.6046 6.5 19.5C6.5 18.3954 7.39543 17.5 8.5 17.5C9.60457 17.5 10.5 18.3954 10.5 19.5C10.5 20.6046 9.60457 21.5 8.5 21.5Z" stroke="#124144" stroke-linecap="round" stroke-linejoin="round"/>
</svg>
