<svg width="24" height="22" viewBox="0 0 24 22" fill="none" xmlns="http://www.w3.org/2000/svg">
<path fill-rule="evenodd" clip-rule="evenodd" d="M5.9557 5.19231V8.80769H8.06248C7.52237 8.40414 7.18354 7.72817 7.18354 7C7.18354 6.27183 7.52237 5.59586 8.06248 5.19231H5.9557ZM10.3679 5.19231C10.908 5.59586 11.2468 6.27183 11.2468 7C11.2468 7.72817 10.908 8.40414 10.3679 8.80769H13.6321C13.092 8.40414 12.7532 7.72817 12.7532 7C12.7532 6.27183 13.092 5.59586 13.6321 5.19231H10.3679ZM15.9375 5.19231C16.4776 5.59586 16.8165 6.27183 16.8165 7C16.8165 7.72817 16.4776 8.40414 15.9375 8.80769H18.0443V5.19231H15.9375ZM19.0441 4.19231C19.0253 2.19657 17.5447 0.5 15.6203 0.5H8.37975C6.45529 0.5 4.97468 2.19657 4.95588 4.19231L4.9557 9.11539H0.5V21.5H23.5V9.11539H19.0443L19.0441 4.19231ZM22.5 14.6538V10.1154H1.5V14.6538H22.5ZM1.5 15.6538V20.5H4.53797V15.6538H1.5ZM5.53797 15.6538V20.5H8.99367V15.6538H5.53797ZM9.99367 15.6538V20.5H13.4494V15.6538H9.99367ZM14.4494 15.6538V20.5H17.9051V15.6538H14.4494ZM18.9051 15.6538V20.5H22.5V15.6538H18.9051ZM5.95593 4.19231C5.97438 2.6552 7.09741 1.5 8.37975 1.5H15.6203C16.9026 1.5 18.0256 2.6552 18.0441 4.19231H5.95593ZM9.21519 5.80769C8.69118 5.80769 8.18354 6.29341 8.18354 7C8.18354 7.70659 8.69118 8.19231 9.21519 8.19231C9.73919 8.19231 10.2468 7.70659 10.2468 7C10.2468 6.29341 9.73919 5.80769 9.21519 5.80769ZM14.7848 5.80769C14.2608 5.80769 13.7532 6.29341 13.7532 7C13.7532 7.70659 14.2608 8.19231 14.7848 8.19231C15.3088 8.19231 15.8165 7.70659 15.8165 7C15.8165 6.29341 15.3088 5.80769 14.7848 5.80769Z" fill="#3F3F3F"/>
</svg>
