<svg width="24" height="22" viewBox="0 0 24 22" fill="none" xmlns="http://www.w3.org/2000/svg">
<path d="M16.82 13.8508H17.32C17.32 13.762 17.2963 13.6749 17.2515 13.5982L16.82 13.8508ZM16.6157 13.5018L17.0472 13.2492L17.0471 13.2491L16.6157 13.5018ZM15.7591 13.274L15.5134 12.8385L15.5082 12.8415L15.7591 13.274ZM15.2847 13.3394L15.1608 13.8238L15.161 13.8239L15.2847 13.3394ZM14.9026 13.0551L15.3321 12.7992L15.3308 12.7969L14.9026 13.0551ZM14.8184 12.7593L14.3186 12.7446C14.3184 12.7513 14.3184 12.7579 14.3184 12.7646L14.8184 12.7593ZM14.6409 12.3106L14.2851 12.6619L14.2852 12.662L14.6409 12.3106ZM14.1903 12.1233V12.6233H14.1906L14.1903 12.1233ZM13.7786 12.1233L13.7784 12.6233H13.7786V12.1233ZM13.3355 12.3046L12.9839 11.949V11.949L13.3355 12.3046ZM13.1535 12.7415L13.6535 12.7489L13.6535 12.739L13.1535 12.7415ZM12.5254 13.3509L12.5202 13.8509H12.5253L12.5254 13.3509ZM12.2248 13.2681L12.4772 12.8364L12.4704 12.8325L12.2248 13.2681ZM11.3683 13.4959L11.7937 13.7588L11.7998 13.7484L11.3683 13.4959ZM11.1489 13.8508L10.7234 13.5879L10.7174 13.5982L11.1489 13.8508ZM11.3773 14.6939L11.1289 15.1278L11.1302 15.1286L11.3773 14.6939ZM11.3773 15.7647L11.1302 15.33L11.1299 15.3302L11.3773 15.7647ZM11.1489 16.6048L10.7175 16.8577L10.7181 16.8586L11.1489 16.6048ZM11.3562 16.9568L11.792 16.7115L11.787 16.7031L11.3562 16.9568ZM11.7339 17.2519L11.5992 17.7334L11.5993 17.7334L11.7339 17.2519ZM12.2128 17.1964L12.4544 17.6343L12.4618 17.63L12.2128 17.1964ZM13.0663 17.4213L12.634 17.6726L12.6381 17.6794L13.0663 17.4213ZM13.1504 17.7171H13.6505L13.6504 17.7118L13.1504 17.7171ZM14.8184 17.72L15.3184 17.7225L15.3184 17.7177L14.8184 17.72ZM15.0015 17.282L15.3522 17.6385L15.3523 17.6384L15.0015 17.282ZM15.4466 17.1018L15.4597 16.6019L15.449 16.6018L15.4466 17.1018ZM15.7471 17.1846L15.9937 16.7497L15.9923 16.7489L15.7471 17.1846ZM16.6036 16.9598L16.1766 16.6995L16.1732 16.7054L16.6036 16.9598ZM16.82 16.6048L17.247 16.8651L17.2502 16.8595L16.82 16.6048ZM16.8839 16.1366L17.3665 16.0059L17.3665 16.0057L16.8839 16.1366ZM16.5916 15.7617L16.8381 15.3267L16.8379 15.3266L16.5916 15.7617ZM16.2993 15.387L15.8167 15.5176L15.8167 15.5178L16.2993 15.387ZM16.3632 14.9187L16.7935 15.1734L16.7954 15.1701L16.3632 14.9187ZM16.5916 14.6939L16.8373 15.1294L16.8411 15.1272L16.5916 14.6939ZM16.82 13.8538H16.32C16.32 13.9419 16.3433 14.0284 16.3875 14.1046L16.82 13.8538ZM8.72739 7.0218C8.45125 7.0218 8.22739 7.24566 8.22739 7.5218C8.22739 7.79795 8.45125 8.0218 8.72739 8.0218V7.0218ZM14.3374 8.0218C14.6135 8.0218 14.8374 7.79795 14.8374 7.5218C14.8374 7.24566 14.6135 7.0218 14.3374 7.0218V8.0218ZM8.72739 8.40226C8.45125 8.40226 8.22739 8.62611 8.22739 8.90226C8.22739 9.1784 8.45125 9.40226 8.72739 9.40226V8.40226ZM14.3374 9.40226C14.6135 9.40226 14.8374 9.1784 14.8374 8.90226C14.8374 8.62611 14.6135 8.40226 14.3374 8.40226V9.40226ZM17.5774 12.1233C17.5774 12.3995 17.8012 12.6233 18.0774 12.6233C18.3535 12.6233 18.5774 12.3995 18.5774 12.1233H17.5774ZM18.5774 5.22103C18.5774 4.94488 18.3535 4.72103 18.0774 4.72103C17.8012 4.72103 17.5774 4.94488 17.5774 5.22103H18.5774ZM4.85 18.2406H4.35V18.7406H4.85V18.2406ZM4.85 5.24812V4.74812H4.35V5.24812H4.85ZM11.0375 3.39205L11.4606 3.12563L11.3135 2.89205H11.0375V3.39205ZM8.7 3.39205H8.2V3.89205H8.7V3.39205ZM18.05 3.39205V3.89205H18.55V3.39205H18.05ZM15.7125 3.39205V2.89205H15.4365L15.2894 3.12563L15.7125 3.39205ZM18.5674 15.1143C18.5674 17.529 16.5764 19.5 14.1036 19.5V20.5C17.1137 20.5 19.5674 18.0962 19.5674 15.1143H18.5674ZM14.1036 19.5C11.6309 19.5 9.63989 17.529 9.63989 15.1143H8.63989C8.63989 18.0962 11.0936 20.5 14.1036 20.5V19.5ZM9.63989 15.1143C9.63989 12.6996 11.6309 10.7286 14.1036 10.7286V9.72857C11.0936 9.72857 8.63989 12.1324 8.63989 15.1143H9.63989ZM14.1036 10.7286C16.5764 10.7286 18.5674 12.6996 18.5674 15.1143H19.5674C19.5674 12.1324 17.1137 9.72857 14.1036 9.72857V10.7286ZM17.2515 13.5982L17.0472 13.2492L16.1841 13.7543L16.3885 14.1034L17.2515 13.5982ZM17.0471 13.2491C16.7344 12.715 16.0486 12.5367 15.5135 12.8385L16.0047 13.7095C16.0707 13.6723 16.151 13.6978 16.1842 13.7544L17.0471 13.2491ZM15.5082 12.8415C15.479 12.8584 15.4429 12.8637 15.4084 12.8549L15.161 13.8239C15.448 13.8971 15.7532 13.8554 16.0099 13.7065L15.5082 12.8415ZM15.4086 12.855C15.3744 12.8462 15.3476 12.8251 15.3321 12.7992L14.473 13.311C14.6255 13.567 14.8737 13.7504 15.1608 13.8238L15.4086 12.855ZM15.3308 12.7969C15.3226 12.7833 15.3185 12.7685 15.3184 12.754L14.3184 12.7646C14.3205 12.9584 14.3745 13.1476 14.4744 13.3132L15.3308 12.7969ZM15.3182 12.7739C15.3271 12.4691 15.2102 12.1753 14.9966 11.9592L14.2852 12.662C14.3084 12.6855 14.3195 12.7154 14.3186 12.7446L15.3182 12.7739ZM14.9968 11.9594C14.7836 11.7434 14.4923 11.6231 14.19 11.6233L14.1906 12.6233C14.2278 12.6233 14.2617 12.6381 14.2851 12.6619L14.9968 11.9594ZM14.1903 11.6233H13.7786V12.6233H14.1903V11.6233ZM13.7788 11.6233C13.4818 11.6232 13.1956 11.7396 12.9839 11.949L13.687 12.6601C13.71 12.6374 13.7427 12.6233 13.7784 12.6233L13.7788 11.6233ZM12.9839 11.949C12.7718 12.1587 12.652 12.4447 12.6535 12.7441L13.6535 12.739C13.6533 12.711 13.6645 12.6824 13.687 12.6601L12.9839 11.949ZM12.6535 12.7342C12.6527 12.7917 12.6028 12.8509 12.5254 12.8509L12.5253 13.8509C13.1347 13.851 13.6443 13.3673 13.6534 12.7489L12.6535 12.7342ZM12.5305 12.8509C12.511 12.8507 12.4926 12.8454 12.4771 12.8364L11.9724 13.6997C12.139 13.7971 12.328 13.8489 12.5202 13.8509L12.5305 12.8509ZM12.4704 12.8325C11.9354 12.5308 11.2494 12.7091 10.9367 13.2433L11.7998 13.7484C11.8329 13.6919 11.9133 13.6664 11.9792 13.7036L12.4704 12.8325ZM10.943 13.233L10.7236 13.5879L11.5742 14.1137L11.7936 13.7587L10.943 13.233ZM10.7174 13.5982C10.4023 14.1364 10.5919 14.8204 11.1289 15.1278L11.6257 14.26C11.5647 14.225 11.5501 14.1552 11.5804 14.1034L10.7174 13.5982ZM11.1302 15.1286C11.1705 15.1515 11.1913 15.191 11.1913 15.2293H12.1913C12.1913 14.8259 11.9727 14.4572 11.6243 14.2592L11.1302 15.1286ZM11.1913 15.2293C11.1913 15.2676 11.1706 15.3071 11.1302 15.33L11.6243 16.1994C11.9727 16.0015 12.1913 15.6327 12.1913 15.2293H11.1913ZM11.1299 15.3302C10.5925 15.6362 10.4023 16.32 10.7175 16.8577L11.5802 16.352C11.5506 16.3015 11.5649 16.2333 11.6247 16.1992L11.1299 15.3302ZM10.7181 16.8586L10.9254 17.2106L11.787 16.7031L11.5797 16.3511L10.7181 16.8586ZM10.9205 17.2021C11.0674 17.463 11.3123 17.6531 11.5992 17.7334L11.8686 16.7704C11.834 16.7607 11.8071 16.7385 11.7919 16.7115L10.9205 17.2021ZM11.5993 17.7334C11.8859 17.8135 12.1934 17.7782 12.4543 17.6342L11.9713 16.7587C11.9406 16.7755 11.9034 16.7801 11.8685 16.7703L11.5993 17.7334ZM12.4618 17.63C12.4907 17.6134 12.5262 17.6085 12.5597 17.6173L12.8145 16.6503C12.5274 16.5747 12.2214 16.6149 11.9638 16.7629L12.4618 17.63ZM12.5597 17.6173C12.5931 17.6261 12.6192 17.647 12.634 17.6726L13.4986 17.17C13.3486 16.912 13.1017 16.726 12.8145 16.6503L12.5597 17.6173ZM12.6381 17.6794C12.6463 17.693 12.6503 17.7078 12.6505 17.7223L13.6504 17.7118C13.6484 17.518 13.5943 17.3287 13.4945 17.1631L12.6381 17.6794ZM12.6504 17.7171C12.6504 18.3421 13.163 18.8353 13.7786 18.8353V17.8353C13.7003 17.8353 13.6504 17.775 13.6504 17.7171H12.6504ZM13.7786 18.8353H14.1903V17.8353H13.7786V18.8353ZM14.1903 18.8353C14.8038 18.8353 15.3154 18.3453 15.3184 17.7225L14.3184 17.7176C14.3181 17.7753 14.2683 17.8353 14.1903 17.8353V18.8353ZM15.3184 17.7177C15.3183 17.6894 15.3296 17.6607 15.3522 17.6385L14.6509 16.9256C14.4375 17.1355 14.317 17.4223 14.3184 17.7224L15.3184 17.7177ZM15.3523 17.6384C15.3753 17.6157 15.4083 17.6016 15.4441 17.6018L15.449 16.6018C15.1512 16.6004 14.8637 16.7161 14.6508 16.9257L15.3523 17.6384ZM15.4335 17.6016C15.4579 17.6023 15.4815 17.6089 15.5019 17.6204L15.9923 16.7489C15.8294 16.6572 15.6464 16.6069 15.4597 16.602L15.4335 17.6016ZM15.5005 17.6196C16.0341 17.9222 16.7196 17.7464 17.0341 17.2142L16.1732 16.7054C16.1398 16.7618 16.0595 16.787 15.9937 16.7497L15.5005 17.6196ZM17.0305 17.2201L17.2469 16.8651L16.393 16.3446L16.1767 16.6996L17.0305 17.2201ZM17.2502 16.8595C17.4025 16.6023 17.4447 16.2948 17.3665 16.0059L16.4013 16.2673C16.4087 16.2948 16.405 16.3244 16.3897 16.3502L17.2502 16.8595ZM17.3665 16.0057C17.2882 15.7171 17.0971 15.4734 16.8381 15.3267L16.3452 16.1968C16.3746 16.2134 16.3938 16.2395 16.4013 16.2674L17.3665 16.0057ZM16.8379 15.3266C16.8086 15.31 16.7894 15.284 16.7819 15.2561L15.8167 15.5178C15.895 15.8064 16.0861 16.0502 16.3454 16.1969L16.8379 15.3266ZM16.7819 15.2563C16.7745 15.2287 16.7782 15.1991 16.7935 15.1734L15.9329 14.664C15.7807 14.9213 15.7384 15.2287 15.8167 15.5176L16.7819 15.2563ZM16.7954 15.1701C16.8047 15.1542 16.8188 15.1398 16.8373 15.1294L16.3459 14.2584C16.1743 14.3552 16.0307 14.496 15.931 14.6673L16.7954 15.1701ZM16.8411 15.1272C17.3749 14.8199 17.5639 14.1399 17.2525 13.603L16.3875 14.1046C16.4174 14.1563 16.4027 14.2257 16.3422 14.2605L16.8411 15.1272ZM17.32 13.8538V13.8508H16.32V13.8538H17.32ZM14.352 15.2293C14.352 15.4163 14.1959 15.5813 13.9865 15.5813V16.5813C14.7332 16.5813 15.352 15.9834 15.352 15.2293H14.352ZM13.9865 15.5813C13.7771 15.5813 13.6209 15.4163 13.6209 15.2293H12.6209C12.6209 15.9834 13.2398 16.5813 13.9865 16.5813V15.5813ZM13.6209 15.2293C13.6209 15.0424 13.7771 14.8774 13.9865 14.8774V13.8774C13.2398 13.8774 12.6209 14.4752 12.6209 15.2293H13.6209ZM13.9865 14.8774C14.1959 14.8774 14.352 15.0424 14.352 15.2293H15.352C15.352 14.4752 14.7332 13.8774 13.9865 13.8774V14.8774ZM8.72739 8.0218H14.3374V7.0218H8.72739V8.0218ZM8.72739 9.40226H14.3374V8.40226H8.72739V9.40226ZM18.5774 12.1233V5.22103H17.5774V12.1233H18.5774ZM9.86512 17.7406H4.85V18.7406H9.86512V17.7406ZM5.35 18.2406V5.24812H4.35V18.2406H5.35ZM4.85 5.74812H19.7V4.74812H4.85V5.74812ZM19.7 5.74812C21.2539 5.74812 22.5 6.98593 22.5 8.49624H23.5C23.5 6.41877 21.7912 4.74812 19.7 4.74812V5.74812ZM22.5 8.49624V14.9925H23.5V8.49624H22.5ZM22.5 14.9925C22.5 16.5028 21.2539 17.7406 19.7 17.7406V18.7406C21.7912 18.7406 23.5 17.0699 23.5 14.9925H22.5ZM19.7 17.7406H18.4625V18.7406H19.7V17.7406ZM4.85 9.07895H3.2V10.0789H4.85V9.07895ZM3.2 9.07895C1.71633 9.07895 0.5 10.2649 0.5 11.7444H1.5C1.5 10.832 2.25362 10.0789 3.2 10.0789V9.07895ZM0.5 11.7444C0.5 13.2238 1.71633 14.4098 3.2 14.4098V13.4098C2.25362 13.4098 1.5 12.6567 1.5 11.7444H0.5ZM3.2 14.4098H4.85V13.4098H3.2V14.4098ZM12.6294 4.98169L11.4606 3.12563L10.6144 3.65848L11.7831 5.51455L12.6294 4.98169ZM11.0375 2.89205H8.7V3.89205H11.0375V2.89205ZM9.2 3.39205C9.2 2.90683 9.60186 2.5 10.1143 2.5V1.5C9.06457 1.5 8.2 2.33966 8.2 3.39205H9.2ZM10.1143 2.5H16.6357V1.5H10.1143V2.5ZM16.6357 2.5C17.1481 2.5 17.55 2.90683 17.55 3.39205H18.55C18.55 2.33966 17.6854 1.5 16.6357 1.5V2.5ZM18.05 2.89205H15.7125V3.89205H18.05V2.89205ZM15.2894 3.12563L14.1206 4.98169L14.9669 5.51455L16.1356 3.65848L15.2894 3.12563Z" fill="#3F3F3F"/>
</svg>
