<svg width="24" height="22" viewBox="0 0 24 22" fill="none" xmlns="http://www.w3.org/2000/svg">
<path fill-rule="evenodd" clip-rule="evenodd" d="M3.95627 1.12665C3.82449 1.19652 3.62378 1.38405 3.51029 1.54344L3.30394 1.83331L3.2833 6.00562C3.27195 8.30036 3.23722 10.178 3.20613 10.178C3.17504 10.178 2.90968 10.3339 2.61639 10.5246C2.01605 10.9149 1.37865 11.4872 1.23379 11.7661C1.02057 12.1768 1.15799 12.6228 1.60687 12.9768C1.84582 13.1652 1.87842 13.2282 1.91378 13.5692C1.9633 14.047 1.84974 14.3374 1.51339 14.5929C1.08068 14.9215 1.00028 15.1235 1 15.8823C0.999657 16.6837 1.08447 16.9236 1.47976 17.2399C1.85607 17.541 1.96048 17.7985 1.91391 18.3101C1.86935 18.7995 1.97038 19.0279 2.43721 19.4927C2.96374 20.017 3.08253 20.0709 3.80378 20.1122L4.44779 20.1492L4.77004 20.5013C4.94729 20.6949 5.1599 20.8863 5.24251 20.9266C5.32518 20.967 5.7074 21 6.0919 21C6.91248 21 7.18499 20.9029 7.43965 20.5197C7.66223 20.1847 7.85093 20.1096 8.46931 20.1096C9.09983 20.1096 9.23422 20.0451 9.77574 19.4829C10.2543 18.9861 10.3651 18.7238 10.3386 18.1516L10.3198 17.7465L12.5915 17.7286L14.8633 17.7105L14.9566 18.0368C15.2026 18.8969 15.8707 19.8129 16.6232 20.3217C17.2796 20.7656 17.8374 20.9452 18.6781 20.9834C19.5786 21.0243 20.0276 20.9356 20.7605 20.572C21.8543 20.0294 22.7186 18.9056 22.9451 17.7316C23.0555 17.1585 22.994 16.2116 22.8091 15.6381C22.6177 15.0445 22.0424 14.2008 21.5863 13.8449L21.232 13.5684L21.2255 12.3012C21.2173 10.6999 21.1564 10.2813 20.8388 9.64144C20.4102 8.77757 19.6076 8.12531 18.7112 7.91221C18.5221 7.86721 18.3286 7.82027 18.2813 7.80769C18.2236 7.79242 18.1953 7.63771 18.1953 7.33755C18.1953 6.84707 18.1946 6.84826 18.768 6.38182C19.3434 5.91368 19.4219 5.59625 19.0866 5.09219C18.7405 4.57197 18.3781 4.28745 18.0611 4.28745C17.8194 4.28745 17.7027 4.35917 16.9943 4.94322C16.5568 5.30391 16.1528 5.68769 16.0966 5.79602C16.0213 5.94091 15.9943 6.22999 15.9943 6.88938V7.78579L15.3705 7.76614L14.7467 7.74642L13.653 5.6231C13.0513 4.45526 12.5583 3.48066 12.5572 3.45723C12.5561 3.43388 12.7657 3.39408 13.0231 3.36881C13.5583 3.31627 13.8304 3.17655 14.1112 2.8099C14.2771 2.59325 14.3067 2.49236 14.3021 2.15708C14.2977 1.83406 14.2613 1.71427 14.1058 1.51125C14.0008 1.37419 13.8179 1.20316 13.6993 1.13117C13.4927 1.0057 13.2905 1.00021 8.83986 1.00001C4.45013 0.999732 4.18284 1.00665 3.95627 1.12665ZM13.4744 1.75817C13.7091 1.94194 13.7243 2.32235 13.5062 2.55359L13.3566 2.71208H10.5878C8.16245 2.71208 7.80561 2.72545 7.71088 2.81969C7.61641 2.91387 7.60283 3.26032 7.60283 5.58536C7.60283 7.97379 7.61439 8.25286 7.71654 8.33735C7.81001 8.41464 8.79322 8.43742 13.2363 8.46559L18.6424 8.49982L19.0391 8.69984C19.2618 8.81218 19.5933 9.06709 19.7956 9.28151L20.1557 9.66315L19.6468 9.71885C19.3669 9.74946 19.0226 9.83313 18.8817 9.90473C17.8784 10.4145 17.8765 11.8518 18.8783 12.3947C19.1725 12.5542 19.2883 12.5752 19.8726 12.5752H20.5339V12.8728V13.1705L20.1384 13.0329C19.8923 12.9472 19.4943 12.8837 19.0845 12.8648C17.8951 12.8097 16.8749 13.2045 16.0283 14.0475C15.3048 14.768 14.9261 15.554 14.8484 16.4965L14.8046 17.0273H12.9175C11.4344 17.0273 11.0382 17.009 11.0667 16.9417C11.0867 16.8947 11.1384 16.7287 11.1818 16.573C11.2582 16.2984 11.2712 16.2886 11.6105 16.2437C12.0487 16.1858 12.2884 16.0188 12.4522 15.657C12.5758 15.3842 12.576 15.353 12.4594 14.7471C12.1631 13.2083 11.3665 11.8845 10.1572 10.9212C8.45347 9.56408 6.27541 9.16579 4.07774 9.80948C3.96872 9.84139 3.95737 9.77962 3.95737 9.15515V8.46559H5.35207C6.50315 8.46559 6.77354 8.44694 6.89968 8.35894L7.05258 8.25236V5.60745C7.05258 3.24251 7.04055 2.94935 6.93875 2.83736C6.83544 2.72366 6.69278 2.71208 5.39114 2.71208H3.95737V2.33208C3.95737 2.0092 3.98468 1.92687 4.13937 1.78413L4.32137 1.61618H8.8073C13.2414 1.61618 13.2954 1.61782 13.4744 1.75817ZM6.43354 5.58886V7.78066H5.19546H3.95737V5.58886V3.39703H5.19546H6.43354V5.58886ZM12.9007 5.55457C13.5028 6.7224 13.9963 7.70105 13.9975 7.72927C13.9987 7.7575 12.6996 7.78066 11.1108 7.78066H8.22191V5.58767V3.39477L10.014 3.41299L11.8061 3.43127L12.9007 5.55457ZM18.364 5.21253C18.5037 5.38233 18.608 5.56201 18.5958 5.61177C18.5836 5.66159 18.3493 5.89403 18.075 6.12828L17.5763 6.55418V7.16745V7.78066H17.0948H16.6133L16.6144 6.97587C16.615 6.53315 16.6398 6.13279 16.6696 6.08616C16.7367 5.98083 18.0071 4.90691 18.0667 4.9052C18.0905 4.90445 18.2243 5.0428 18.364 5.21253ZM14.0987 10.1382C13.9783 10.2259 13.9652 10.3236 13.9652 11.1338C13.9652 12.0725 13.9928 12.1605 14.2871 12.1632C14.5634 12.1657 14.6186 11.9889 14.6186 11.1016C14.6186 10.3036 14.6098 10.248 14.4658 10.1476C14.2789 10.0172 14.2654 10.0168 14.0987 10.1382ZM15.2205 10.115C15.1155 10.1759 15.1001 10.3002 15.1001 11.0923C15.1001 12.0448 15.1346 12.1643 15.4096 12.1643C15.683 12.1643 15.7192 12.0432 15.7192 11.128C15.7192 10.4268 15.6981 10.2351 15.6111 10.1486C15.4867 10.0248 15.3903 10.0164 15.2205 10.115ZM16.3087 10.1486C16.2226 10.2344 16.2007 10.4222 16.2007 11.0778C16.2007 11.9627 16.256 12.1643 16.4988 12.1643C16.7863 12.1643 16.8197 12.0528 16.8197 11.0913C16.8197 10.2632 16.8079 10.1765 16.6867 10.1118C16.5059 10.0156 16.4355 10.0224 16.3087 10.1486ZM7.37862 10.2893C9.22964 10.6726 10.8278 12.0363 11.5267 13.8286C11.7587 14.4235 11.9049 15.1566 11.8417 15.4076C11.8021 15.5646 11.7603 15.589 11.5303 15.589C11.2736 15.589 11.2621 15.5788 11.1882 15.2866C11.1053 14.9589 10.8374 14.5931 10.6329 14.5285C10.4112 14.4584 10.2702 14.0561 10.322 13.6423C10.3849 13.141 10.2155 12.7892 9.65467 12.2567C9.16552 11.7922 8.8623 11.6657 8.39219 11.7299C7.9789 11.7864 7.67298 11.6569 7.4289 11.3222C7.15858 10.9517 6.77649 10.8026 6.08963 10.7996C5.45538 10.7969 5.09731 10.9423 4.78482 11.3295C4.50337 11.6783 4.25314 11.7842 3.84265 11.7281C3.35834 11.662 3.04772 11.7799 2.58688 12.2047C2.18457 12.5757 2.17301 12.581 2.00656 12.4723C1.63239 12.2283 1.71658 12.0245 2.4262 11.4571C3.85667 10.3132 5.55732 9.91218 7.37862 10.2893ZM20.4922 10.4918C20.5152 10.5514 20.5339 10.9058 20.5339 11.2795V11.9588H19.9791C19.4107 11.9588 19.2386 11.9087 18.9702 11.6653C18.6378 11.3639 18.7159 10.757 19.1184 10.5126C19.4039 10.3393 20.4274 10.3238 20.4922 10.4918ZM6.82904 11.621C7.38905 12.2799 7.79442 12.4734 8.45303 12.3962L8.84369 12.3506L9.26477 12.7699L9.68585 13.1892L9.64631 13.5703C9.57541 14.2549 9.75613 14.6464 10.3785 15.1557C10.5505 15.2964 10.5605 15.3382 10.5605 15.9143C10.5605 16.5697 10.5664 16.5568 10.1001 16.9271C9.77787 17.183 9.58767 17.7353 9.64235 18.2563L9.68516 18.6638L9.30142 19.0614L8.91774 19.4589L8.34624 19.4627C7.70334 19.4669 7.31381 19.6156 7.06056 19.9536C6.74678 20.3724 6.72208 20.3835 6.10889 20.3835C5.57878 20.3835 5.52011 20.3696 5.36927 20.2074C5.27909 20.1105 5.12723 19.9476 5.03175 19.8454C4.76632 19.5612 4.26132 19.4068 3.77558 19.4614L3.37272 19.5067L2.94056 19.0583L2.5084 18.6098L2.55324 18.174C2.59279 17.7894 2.57629 17.6924 2.41293 17.3485C2.31113 17.1342 2.20514 16.9589 2.17749 16.9589C2.14977 16.9589 2.01275 16.8546 1.87292 16.727C1.61918 16.4956 1.61877 16.4943 1.61877 15.9292V15.3632L1.99356 15.0137C2.47442 14.5654 2.6157 14.2247 2.55221 13.6663L2.50565 13.2559L2.93884 12.8067L3.37203 12.3574L3.79037 12.402C4.36161 12.4629 4.71701 12.3205 5.17234 11.8479L5.52761 11.4793H6.11811C6.63047 11.4793 6.72463 11.4981 6.82904 11.621ZM5.25798 13.2487C3.28303 13.9007 2.64982 16.3404 4.06468 17.8466C5.42113 19.2907 7.80108 18.9088 8.65701 17.1096C8.85909 16.6847 8.87531 16.5973 8.87531 15.9314C8.87531 15.2647 8.85928 15.1786 8.65569 14.7506C8.37245 14.1551 7.87456 13.6579 7.28747 13.3843C6.69753 13.1095 5.85103 13.0528 5.25798 13.2487ZM19.516 13.5386C21.3853 13.9127 22.612 15.6062 22.3335 17.4282C21.9754 19.7698 19.4664 21.0618 17.3414 19.999C16.2891 19.4727 15.5683 18.4021 15.4703 17.2198C15.2845 14.9809 17.3468 13.1045 19.516 13.5386ZM7.01757 13.9705C8.37409 14.59 8.69359 16.4131 7.62948 17.4621C6.56808 18.5084 4.83944 18.2153 4.16695 16.8751C3.77799 16.1001 3.90971 15.1327 4.49195 14.4872C5.13259 13.7769 6.14156 13.5705 7.01757 13.9705ZM5.39245 14.547C4.29516 15.1147 4.24254 16.6544 5.29938 17.2711C5.94347 17.647 6.66967 17.5522 7.20143 17.0227C8.47038 15.7591 6.98339 13.724 5.39245 14.547ZM18.5549 14.5698C18.0618 14.6319 17.5103 14.914 17.176 15.2753C16.2217 16.3062 16.2798 17.7679 17.3121 18.7058C17.7995 19.1485 18.266 19.3228 18.9519 19.3183C21.0474 19.3046 22.1121 16.7764 20.6482 15.2908C20.0671 14.7012 19.3829 14.4655 18.5549 14.5698ZM6.45858 15.067C7.28087 15.4091 7.20638 16.5782 6.34757 16.8098C5.99051 16.9061 5.66551 16.8023 5.40744 16.5096C5.01188 16.0609 5.16485 15.3522 5.71133 15.1017C6.04347 14.9494 6.16275 14.9439 6.45858 15.067ZM19.706 15.3687C21.3538 16.1949 20.7707 18.6712 18.9282 18.6712C18.2418 18.6712 17.7553 18.403 17.3865 17.8212C17.2518 17.6088 17.202 17.4238 17.1777 17.0468C17.1498 16.6139 17.1684 16.5053 17.3251 16.1863C17.5397 15.7495 17.7304 15.5602 18.1731 15.3442C18.6505 15.1112 19.2103 15.1202 19.706 15.3687ZM18.5249 15.7214C18.0023 15.889 17.6451 16.3774 17.6451 16.9246C17.6451 17.6368 18.2021 18.1917 18.9169 18.1917C19.8739 18.1917 20.4665 17.2284 20.0441 16.3596C19.961 16.1885 19.7882 15.9869 19.6423 15.8907C19.361 15.7054 18.8271 15.6244 18.5249 15.7214ZM19.321 16.4719C19.5228 16.6454 19.5851 16.88 19.4985 17.1411C19.4239 17.3663 19.1474 17.5753 18.9242 17.5753C18.6035 17.5753 18.2642 17.2276 18.2642 16.899C18.2642 16.7148 18.5781 16.3568 18.7651 16.3275C18.9803 16.294 19.1719 16.3438 19.321 16.4719Z" fill="#3F3F3F"/>
</svg>
