<svg width="15" height="16" viewBox="0 0 15 16" fill="none" xmlns="http://www.w3.org/2000/svg">
<path fill-rule="evenodd" clip-rule="evenodd" d="M4.375 1.75C2.64911 1.75 1.25 3.14911 1.25 4.875V11.125C1.25 12.8509 2.64911 14.25 4.375 14.25H10.625C12.3509 14.25 13.75 12.8509 13.75 11.125V4.875C13.75 3.14911 12.3509 1.75 10.625 1.75H4.375ZM5.18313 5.68306C5.42721 5.43898 5.82294 5.43898 6.06701 5.68306L7.50007 7.11612L8.93313 5.68306C9.17721 5.43898 9.57294 5.43898 9.81701 5.68306C10.0611 5.92714 10.0611 6.32286 9.81701 6.56694L8.38396 8L9.81701 9.43306C10.0611 9.67714 10.0611 10.0729 9.81701 10.3169C9.57294 10.561 9.17721 10.561 8.93313 10.3169L7.50007 8.88388L6.06701 10.3169C5.82294 10.561 5.42721 10.561 5.18313 10.3169C4.93905 10.0729 4.93905 9.67714 5.18313 9.43306L6.61619 8L5.18313 6.56694C4.93905 6.32286 4.93905 5.92714 5.18313 5.68306Z" fill="#F93232"/>
</svg>
