<svg width="20" height="21" viewBox="0 0 20 21" fill="none" xmlns="http://www.w3.org/2000/svg">
<path d="M13.3333 7.16667C13.3333 5.32572 11.8409 3.83333 10 3.83333C8.15905 3.83333 6.66667 5.32572 6.66667 7.16667M17.5 9.83329V14.5C17.5 15.4334 17.5002 15.9002 17.3185 16.2567C17.1587 16.5703 16.9034 16.8252 16.5898 16.985C16.2333 17.1666 15.7669 17.1667 14.8335 17.1667H5.16683C4.23341 17.1667 3.76635 17.1666 3.40983 16.985C3.09623 16.8252 2.84144 16.5703 2.68166 16.2567C2.5 15.9002 2.5 15.4334 2.5 14.5V9.83329C2.5 8.89987 2.5 8.43322 2.68166 8.0767C2.84144 7.7631 3.09623 7.50811 3.40983 7.34832C3.76635 7.16667 4.23341 7.16667 5.16683 7.16667H14.8335C15.7669 7.16667 16.2333 7.16667 16.5898 7.34832C16.9034 7.50811 17.1587 7.7631 17.3185 8.0767C17.5002 8.43322 17.5 8.89987 17.5 9.83329Z" stroke="#8A8894" stroke-width="1.5" stroke-linecap="round" stroke-linejoin="round"/>
</svg>
