<svg width="24" height="24" viewBox="0 0 24 24" fill="none" xmlns="http://www.w3.org/2000/svg">
<path fill-rule="evenodd" clip-rule="evenodd" d="M2.20228 0.13895C1.43405 0.400816 0.826161 0.89621 0.417329 1.59357C-0.0184285 2.33681 0.00152184 1.84112 0.000621829 11.9806C-0.000278187 22.352 -0.0324538 21.6918 0.51528 22.539C0.938738 23.1937 1.54032 23.6453 2.29364 23.8737C2.84894 24.0421 21.1511 24.0421 21.7064 23.8737C22.4597 23.6453 23.0613 23.1937 23.4847 22.539C24.0325 21.6918 24.0003 22.352 23.9994 11.9806C23.9985 1.85596 24.0175 2.33524 23.5882 1.60309C23.2946 1.10222 23.0244 0.817943 22.5514 0.51237C21.7032 -0.0355777 22.3704 -0.00349113 11.9509 0.00235644C3.23535 0.00722941 2.56071 0.0166754 2.20228 0.13895ZM12.9105 7.86089C13.2422 8.02755 13.275 8.21235 13.275 9.91736C13.275 11.2365 13.295 11.5374 13.3918 11.6755C13.5787 11.9423 13.7592 11.8745 14.195 11.3736C14.799 10.6793 15.472 9.54162 15.8245 8.61853C16.0306 8.07913 15.9783 8.09375 17.7026 8.09375C19.4466 8.09375 19.4797 8.10342 19.4006 8.59041C19.3323 9.01129 19.0377 9.50968 18.0827 10.8197C17.597 11.4859 17.1604 12.1044 17.1124 12.194C16.9101 12.5719 16.9877 12.7157 17.9063 13.6658C18.391 14.1671 18.8075 14.5944 18.8317 14.6154C18.856 14.6364 18.9994 14.8344 19.1505 15.0555C19.5239 15.6022 19.5378 15.8272 19.2147 16.0963C19.0237 16.2553 18.9462 16.2646 17.8072 16.265C16.1311 16.2655 16.092 16.2497 14.9928 15.1284C14.0795 14.1967 13.8855 14.0896 13.6275 14.3746C13.4867 14.53 13.275 15.2891 13.275 15.6385C13.275 15.8119 13.2171 15.9256 13.0688 16.0433C12.8756 16.1967 12.8033 16.2048 11.925 16.1728C11.134 16.144 10.8865 16.1036 10.3411 15.9144C9.2197 15.5256 8.23621 14.7407 7.30492 13.4915C6.2993 12.1427 4.633 9.00267 4.6195 8.43111L4.61237 8.13123L5.9249 8.11031C6.86721 8.09524 7.28715 8.11579 7.4136 8.18318C7.5297 8.24496 7.73625 8.58472 8.01893 9.17869C8.7805 10.7791 9.58496 11.8718 9.96881 11.8272C10.2665 11.7926 10.341 11.4535 10.3446 10.1179C10.3482 8.78211 10.3086 8.64889 9.84371 8.43305C9.66836 8.35164 9.52496 8.24721 9.52496 8.20103C9.52496 8.09067 9.74351 7.89628 9.97654 7.79942C10.2519 7.68494 12.6606 7.73539 12.9105 7.86089Z" fill="#C9C8D3"/>
</svg>
