<svg width="29" height="14" viewBox="0 0 29 14" fill="none" xmlns="http://www.w3.org/2000/svg">
<path d="M2.93704 0.828697C2.29015 0.311182 1.34621 0.416065 0.828697 1.06296C0.311182 1.70985 0.416065 2.65379 1.06296 3.1713L2.93704 0.828697ZM14.5 12L13.563 13.1713L14.5 13.9209L15.437 13.1713L14.5 12ZM27.937 3.1713C28.5839 2.65379 28.6888 1.70985 28.1713 1.06296C27.6538 0.416065 26.7099 0.311182 26.063 0.828697L27.937 3.1713ZM1.06296 3.1713L13.563 13.1713L15.437 10.8287L2.93704 0.828697L1.06296 3.1713ZM15.437 13.1713L27.937 3.1713L26.063 0.828697L13.563 10.8287L15.437 13.1713Z" fill="#1783D3"/>
</svg>
