<svg width="30" height="30" viewBox="0 0 30 30" fill="none" xmlns="http://www.w3.org/2000/svg">
<path d="M14.9999 0.000119534C11.0219 0.000119534 7.2068 1.5804 4.39321 4.39333C1.58028 7.2065 0 11.0216 0 15.0001C0 18.9786 1.58028 22.7932 4.39321 25.6068C7.20638 28.4197 11.0214 30 14.9999 30C18.9784 30 22.7931 28.4197 25.6067 25.6068C28.4196 22.7936 29.9999 18.9786 29.9999 15.0001C29.9954 11.0231 28.4138 7.21051 25.6018 4.39811C22.7898 1.58614 18.9771 0.0044252 14.9998 0L14.9999 0.000119534ZM14.9999 27.907V27.9068C11.5769 27.9068 8.29397 26.547 5.87326 24.1265C3.45273 21.706 2.093 18.4231 2.093 14.9998C2.093 11.5766 3.45273 8.29385 5.87326 5.87315C8.29379 3.45262 11.5767 2.09289 14.9999 2.09289C18.4232 2.09289 21.7059 3.45262 24.1266 5.87315C26.5471 8.29367 27.9069 11.5766 27.9069 14.9998C27.9034 18.4218 26.5422 21.7028 24.1227 24.1223C21.7029 26.5419 18.4221 27.9031 15.0002 27.9065L14.9999 27.907Z" fill="#1783D3"/>
<path d="M15 4C12.0826 4 9.2847 5.15885 7.2218 7.2218C5.15885 9.28451 4 12.0824 4 15C4 17.9176 5.15885 20.7153 7.2218 22.7782C9.28451 24.8411 12.0824 26 15 26C17.9176 26 20.7153 24.8411 22.7782 22.7782C24.8411 20.7155 26 17.9176 26 15C25.9967 12.0838 24.8366 9.2878 22.7747 7.22545C20.7124 5.16347 17.9164 4.00341 15.0001 4.00012L15 4ZM17.8388 16.0642H15C14.7177 16.0642 14.4468 15.952 14.2472 15.7525C14.0476 15.5529 13.9355 15.282 13.9355 14.9997V9.32241C13.9355 8.94199 14.1384 8.59058 14.4677 8.40049C14.7971 8.2104 15.2029 8.2104 15.5323 8.40049C15.8616 8.59058 16.0645 8.942 16.0645 9.32241V13.9352H17.8388C18.2189 13.9352 18.5704 14.1381 18.7604 14.4674C18.9508 14.7968 18.9508 15.2026 18.7604 15.5319C18.5704 15.8613 18.2189 16.0642 17.8388 16.0642Z" fill="#1783D3"/>
</svg>
