<svg width="30" height="30" viewBox="0 0 30 30" fill="none" xmlns="http://www.w3.org/2000/svg">
<g clip-path="url(#clip0_132_513)">
<path d="M13.0353 0H15.9681V3.73599H13.0353V0Z" fill="#1783D3"/>
<path d="M7.21057 13.785C7.21057 14.3294 7.35786 14.8398 7.61389 15.2804C8.38308 14.5605 9.41969 14.1175 10.5593 14.1175H13.7312V10.7769H10.2473C8.57275 10.7769 7.21057 12.1259 7.21057 13.785Z" fill="#1783D3"/>
<path d="M18.7525 18.3161C18.3283 18.3161 17.9844 17.9754 17.9844 17.5551C17.9844 17.1347 18.3282 16.7941 18.7525 16.7941C19.3216 16.7941 19.8546 16.6378 20.3103 16.3669C19.8188 15.9163 19.1614 15.6404 18.4402 15.6404H15.2682V18.9592H18.0504C19.0612 18.9592 19.9841 19.3384 20.6825 19.9597C21.0065 19.5122 21.1981 18.9643 21.1981 18.3724C21.1981 18.1295 21.1651 17.8942 21.1048 17.6701C20.4167 18.0796 19.6119 18.3161 18.7525 18.3161Z" fill="#1783D3"/>
<path d="M8.69012 16.3669C9.14581 16.638 9.67881 16.7941 10.2479 16.7941C10.6727 16.7941 11.016 17.1348 11.016 17.5547C11.016 17.975 10.6722 18.3156 10.2479 18.3156C9.38851 18.3156 8.58385 18.0792 7.89601 17.6688C7.83562 17.8933 7.80309 18.1287 7.80309 18.3715C7.80309 18.963 7.99428 19.5109 8.31827 19.9588C9.01706 19.3378 9.94004 18.9583 10.9507 18.9583H13.7323V15.6392H10.5604C9.83975 15.64 9.18236 15.9159 8.69012 16.3669Z" fill="#1783D3"/>
<path d="M18.7526 10.7766H15.2682V14.1174H18.4406C19.5802 14.1174 20.6168 14.5605 21.386 15.2804C21.642 14.8393 21.7893 14.3289 21.7893 13.785C21.7889 12.1261 20.4267 10.7766 18.7526 10.7766Z" fill="#1783D3"/>
<path d="M25.7012 1.93749H17.0579V4.81715H11.9426V1.93749H3.29867C2.5814 1.93749 2 2.51368 2 3.22476V28.0714C2 29.1367 2.87147 30.0001 3.94709 30.0001H25.0529C26.1281 30.0001 26.9997 29.1364 26.9997 28.0712V3.22448C27.0004 2.5134 26.4189 1.93704 25.7012 1.93749ZM23.3218 13.9827C23.2788 14.9658 22.9181 15.8674 22.3396 16.5913C22.5927 17.1333 22.7349 17.7355 22.7349 18.3716C22.7349 19.4659 22.3151 20.4653 21.6272 21.2198C21.6497 21.2678 21.6707 21.3172 21.6916 21.3662C21.8868 21.8285 21.996 22.335 21.996 22.8661C21.996 25.0212 20.2261 26.7743 18.0513 26.7743C17.8565 26.7743 17.6798 26.7021 17.5446 26.5844C17.3843 26.4449 17.2825 26.2411 17.2825 26.0133C17.2825 25.593 17.6263 25.2523 18.0506 25.2523C19.3782 25.2523 20.459 24.1816 20.459 22.8663C20.459 22.627 20.4224 22.3956 20.3562 22.1769C19.7793 22.4632 19.1289 22.6248 18.441 22.6248C18.2289 22.6248 18.0368 22.5398 17.898 22.4018C17.7587 22.2643 17.6729 22.074 17.6729 21.8638C17.6729 21.4435 18.0168 21.1028 18.441 21.1028C18.7924 21.1028 19.1282 21.0366 19.4378 20.9174C19.3887 20.8832 19.3384 20.8507 19.2865 20.8194C18.925 20.6043 18.5023 20.48 18.0507 20.48H15.2688V24.1626C15.2688 24.583 14.925 24.9236 14.5012 24.9236C14.0769 24.9236 13.7331 24.583 13.7331 24.1626V20.48H10.9513C10.4352 20.48 9.95699 20.6423 9.56459 20.9172C9.8741 21.0364 10.2095 21.1026 10.5613 21.1026C10.9856 21.1026 11.329 21.4432 11.329 21.8636C11.329 22.2839 10.9851 22.6241 10.5613 22.6241C9.87302 22.6241 9.22323 22.4625 8.64612 22.1762C8.57971 22.3943 8.54339 22.6257 8.54339 22.8656C8.54339 24.1809 9.62347 25.2517 10.9513 25.2517C11.0914 25.2517 11.2222 25.2892 11.3357 25.3546C11.3406 25.3574 11.3461 25.3605 11.351 25.3636C11.3695 25.3744 11.3876 25.3863 11.4045 25.3991C11.4121 25.4047 11.4195 25.41 11.427 25.4159C11.448 25.4323 11.468 25.4495 11.487 25.4678C11.489 25.4698 11.4914 25.4718 11.4939 25.4742C11.5148 25.4945 11.5338 25.5168 11.5523 25.5396C11.5578 25.5464 11.5632 25.5539 11.5683 25.5607C11.5812 25.578 11.5933 25.5954 11.6048 25.6137C11.6097 25.6217 11.6149 25.6296 11.6193 25.6376C11.6327 25.6614 11.6458 25.6855 11.6568 25.7113C11.6577 25.7133 11.6588 25.7153 11.6597 25.7173C11.6712 25.7444 11.6806 25.7727 11.6891 25.8014C11.6915 25.8098 11.6935 25.8186 11.696 25.8277C11.7016 25.8495 11.706 25.8711 11.7094 25.8934C11.7109 25.9023 11.7122 25.9118 11.7134 25.9206C11.7174 25.9513 11.7198 25.9824 11.7198 26.014C11.7198 26.4343 11.376 26.7745 10.9522 26.7745C10.9118 26.7745 10.8708 26.7741 10.831 26.773L10.8314 26.7714C8.71209 26.7081 7.00698 24.9817 7.00698 22.8663C7.00698 22.2784 7.13979 21.7205 7.37532 21.22C6.68742 20.4654 6.26763 19.4661 6.26763 18.3717C6.26763 17.7364 6.4098 17.1335 6.66293 16.5915C6.04594 15.819 5.67624 14.8443 5.67624 13.7851C5.67624 11.287 7.72761 9.25435 10.2494 9.25435H13.7337L13.7344 8.66534C13.7344 8.245 14.0782 7.90436 14.5025 7.90436C14.9268 7.90436 15.2702 8.24499 15.2702 8.66534V9.25435H18.7548C21.2763 9.25435 23.3279 11.2867 23.3279 13.7851C23.3263 13.8511 23.3247 13.917 23.3218 13.9827Z" fill="#1783D3"/>
</g>
<defs>
<clipPath id="clip0_132_513">
<rect width="30" height="30" fill="white"/>
</clipPath>
</defs>
</svg>
