<svg width="800" height="160" viewBox="0 0 800 160" fill="none" xmlns="http://www.w3.org/2000/svg">
<path d="M86.6883 25.8069L55.9187 111.149L25.0163 25.8069H0V134.193H22.7419V72.0288L46.9555 134.193H64.8823L89.0961 72.1623V134.193H111.838V25.8069H86.6883ZM196.615 134.193H219.357L182.033 25.8069H156.883L117.151 134.193H139.893L148.321 111.819H188.187L196.615 134.193ZM155.813 91.8574L168.254 58.8992L180.695 91.8574H155.813ZM274.471 70.0192L315.139 25.8069H288.651L247.448 70.8228V25.8069H224.706V134.193H247.448V99.4937L259.22 86.6317L293.2 134.193H319.956L274.471 70.0192ZM346.985 25.8069H324.778V134.193H346.985V25.8069Z" fill="#222923"/>
<path d="M446.087 94.6705C441.806 114.499 428.026 125.485 407.558 125.485C388.026 125.485 367.693 113.561 367.693 79.9328C367.693 47.5108 388.026 34.5152 407.558 34.5152C423.344 34.5152 439.665 42.1522 445.417 62.6502H456.655C451.036 38.1327 433.11 23.5294 407.692 23.5294C393.512 23.5294 380.802 28.6207 371.706 37.8645C361.94 47.9131 356.722 62.516 356.722 79.9328C356.722 114.231 376.655 136.471 407.692 136.471C429.096 136.471 451.839 125.216 457.324 94.6705H446.087ZM478.17 25.8068H467.334V134.193H539.307V123.743H478.17V25.8068ZM557.212 134.193V25.8068H546.242V134.193H557.212ZM648.637 134.193H662.952V25.8068H651.981V121.6L586.297 25.8068H571.849V134.193H582.818V38.4005L648.637 134.193ZM688.508 134.193V25.8068H677.539V134.193H688.508ZM788.763 94.6705C784.482 114.499 770.702 125.485 750.235 125.485C730.703 125.485 710.369 113.561 710.369 79.9328C710.369 47.5108 730.703 34.5152 750.235 34.5152C766.02 34.5152 782.341 42.1522 788.094 62.6502H799.331C793.713 38.1327 775.786 23.5294 750.368 23.5294C736.188 23.5294 723.479 28.6207 714.381 37.8645C704.616 47.9131 699.399 62.516 699.399 79.9328C699.399 114.231 719.332 136.471 750.368 136.471C771.773 136.471 794.515 125.216 800 94.6705H788.763Z" fill="#829E86"/>
</svg>
