<svg width="170" height="24" viewBox="0 0 170 24" fill="none" xmlns="http://www.w3.org/2000/svg">
<path d="M18.4213 0.483965L11.8827 18.6192L5.31597 0.483965H0V23.5161H4.83265V10.3061L9.97805 23.5161H13.7875L18.9329 10.3345V23.5161H23.7656V0.483965H18.4213ZM41.7807 23.5161H46.6134L38.682 0.483965H33.3377L24.8945 23.5161H29.7273L31.5182 18.7616H39.9898L41.7807 23.5161ZM33.1102 14.5197L35.754 7.51608L38.3977 14.5197H33.1102ZM58.325 9.87908L66.9671 0.483965H61.3384L52.5826 10.0498V0.483965H47.75V23.5161H52.5826V16.1424L55.0843 13.4092L62.3049 23.5161H67.9906L58.325 9.87908ZM73.7343 0.483965H69.0153V23.5161H73.7343V0.483965Z" fill="#222923"/>
<path d="M94.7934 15.1175C93.8837 19.331 90.9556 21.6655 86.6061 21.6655C82.4556 21.6655 78.1347 19.1318 78.1347 11.9857C78.1347 5.09604 82.4556 2.33447 86.6061 2.33447C89.9607 2.33447 93.4288 3.95734 94.6512 8.31317H97.0391C95.8452 3.1032 92.0359 0 86.6346 0C83.6212 0 80.9205 1.08189 78.9874 3.04622C76.9122 5.18154 75.8035 8.28465 75.8035 11.9857C75.8035 19.274 80.0393 24 86.6346 24C91.183 24 96.0157 21.6085 97.1814 15.1175H94.7934ZM101.611 0.483938H99.3085V23.5161H114.603V21.2953H101.611V0.483938ZM118.408 23.5161V0.483938H116.076V23.5161H118.408ZM137.835 23.5161H140.877V0.483938H138.546V20.8399L124.588 0.483938H121.518V23.5161H123.849V3.1601L137.835 23.5161ZM146.308 23.5161V0.483938H143.977V23.5161H146.308ZM167.612 15.1175C166.702 19.331 163.774 21.6655 159.425 21.6655C155.274 21.6655 150.953 19.1318 150.953 11.9857C150.953 5.09604 155.274 2.33447 159.425 2.33447C162.779 2.33447 166.247 3.95734 167.47 8.31317H169.858C168.664 3.1032 164.855 0 159.453 0C156.44 0 153.739 1.08189 151.806 3.04622C149.731 5.18154 148.622 8.28465 148.622 11.9857C148.622 19.274 152.858 24 159.453 24C164.002 24 168.834 21.6085 170 15.1175H167.612Z" fill="white"/>
</svg>
