<svg width="13" height="13" viewBox="0 0 13 13" fill="none" xmlns="http://www.w3.org/2000/svg">
<path fill-rule="evenodd" clip-rule="evenodd" d="M0.555097 0.555098C0.961893 0.148301 1.62144 0.148301 2.02824 0.555098L12.4449 10.9718C12.8517 11.3786 12.8517 12.0381 12.4449 12.4449C12.0381 12.8517 11.3786 12.8517 10.9718 12.4449L0.555097 2.02824C0.148301 1.62144 0.148301 0.961893 0.555097 0.555098Z" fill="#C80D0D"/>
<path fill-rule="evenodd" clip-rule="evenodd" d="M1.29167 12.75C0.71637 12.75 0.25 12.2836 0.25 11.7083L0.25 1.29167C0.25 0.71637 0.71637 0.25 1.29167 0.25H11.7083C12.2836 0.25 12.75 0.71637 12.75 1.29167C12.75 1.86696 12.2836 2.33333 11.7083 2.33333H2.33333L2.33333 11.7083C2.33333 12.2836 1.86696 12.75 1.29167 12.75Z" fill="#C80D0D"/>
</svg>