<svg width="281" height="141" viewBox="0 0 281 141" fill="none" xmlns="http://www.w3.org/2000/svg">
<path d="M116.667 47C129.553 47 140 57.5213 140 70.5C140 83.4787 129.553 94 116.667 94C103.78 94 93.3333 83.4787 93.3333 70.5C93.3333 57.5213 103.78 47 116.667 47Z" fill="#FFD93D"/>
<path d="M46.6667 141V94H93.3333V117.5C93.3333 130.479 82.8866 141 70 141H46.6667Z" fill="#8CC93D"/>
<path d="M70 47C57.1134 47 46.6667 36.4787 46.6667 23.5C46.6667 10.5213 57.1134 0 70 0C82.8866 0 93.3333 10.5213 93.3333 23.5V47H70Z" fill="#FF6B6B"/>
<path d="M0 94L0 70.5C0 57.5213 10.4467 47 23.3333 47H46.6667L46.6667 70.5C46.6667 83.4787 36.22 94 23.3333 94H0Z" fill="#4D96FF"/>
<path d="M93.3333 141V117.5C93.3333 104.521 103.78 94 116.667 94H140V117.5C140 130.479 129.553 141 116.667 141H93.3333Z" fill="#7EB3FF"/>
<path d="M23.3333 94C36.22 94 46.6667 104.521 46.6667 117.5C46.6667 130.479 36.22 141 23.3333 141C10.4467 141 0 130.479 0 117.5C0 104.521 10.4467 94 23.3333 94Z" fill="#FFD93D"/>
<path d="M186.5 23.8333C186.5 10.9467 197.021 0.5 210 0.5C222.979 0.5 233.5 10.9467 233.5 23.8333C233.5 36.72 222.979 47.1667 210 47.1667C197.021 47.1667 186.5 36.72 186.5 23.8333Z" fill="#FFD93D"/>
<path d="M280.5 93.8333H233.5V47.1667H257C269.979 47.1667 280.5 57.6134 280.5 70.5V93.8333Z" fill="#8CC93D"/>
<path d="M186.5 70.5C186.5 83.3866 175.979 93.8333 163 93.8333C150.021 93.8333 139.5 83.3866 139.5 70.5C139.5 57.6134 150.021 47.1667 163 47.1667H186.5V70.5Z" fill="#FF6B6B"/>
<path d="M233.5 140.5H210C197.021 140.5 186.5 130.053 186.5 117.167V93.8333L210 93.8333C222.979 93.8333 233.5 104.28 233.5 117.167V140.5Z" fill="#4D96FF"/>
<path d="M280.5 47.1667H257C244.021 47.1667 233.5 36.72 233.5 23.8333L233.5 0.5H257C269.979 0.5 280.5 10.9467 280.5 23.8333V47.1667Z" fill="#7EB3FF"/>
<path d="M233.5 117.167C233.5 104.28 244.021 93.8333 257 93.8333C269.979 93.8333 280.5 104.28 280.5 117.167C280.5 130.053 269.979 140.5 257 140.5C244.021 140.5 233.5 130.053 233.5 117.167Z" fill="#FFD93D"/>
</svg>
