<svg width="30" height="30" viewBox="0 0 30 30" fill="none" xmlns="http://www.w3.org/2000/svg">
<g clip-path="url(#clip0_130_434)">
<path d="M3.72845 14L13 23.2716L11.2716 25L2 15.7284L3.72845 14Z" fill="#1783D3"/>
<path d="M1.74695 18L9 25.2531L7.25305 27L0 19.7469L1.74695 18Z" fill="#1783D3"/>
<path d="M20 6.15733L29.1573 -3L30 -2.15733L20.8427 7L20 6.15733Z" fill="#1783D3"/>
<path d="M18.1561 3L6 15.1561L11.8439 21L24 8.84389L18.1561 3ZM9.38715 14.978L8.59812 14.189L17.1816 5.60543L17.9707 6.39446L9.38715 14.978Z" fill="#1783D3"/>
<path d="M4 22.1525L8.15254 18L9 18.8475L4.84746 23L4 22.1525Z" fill="#1783D3"/>
</g>
<defs>
<clipPath id="clip0_130_434">
<rect width="30" height="30" fill="white"/>
</clipPath>
</defs>
</svg>
