<svg width="30" height="30" viewBox="0 0 30 30" fill="none" xmlns="http://www.w3.org/2000/svg">
<g clip-path="url(#clip0_130_451)">
<path d="M29.0489 15.248C29.0489 15.248 31.3236 11.4085 27.5789 10.7391H21.2792C21.2792 10.7391 24.884 6.75851 23.449 2.56667C23.449 2.56667 22.504 0.664588 20.8942 1.05207C20.8942 1.05207 19.4592 1.47471 19.5642 3.97584C19.5642 3.97584 19.5642 6.54728 17.3944 7.95644C15.1896 9.40052 11.1646 12.1482 10.7096 12.9936C10.7096 12.9936 8.74979 14.6142 7.34966 14.2267V25.3229C7.34966 25.3229 9.79949 24.4774 15.9593 28H25.0589C25.0589 28 29.1537 27.5068 28.2086 23.9842C28.2086 23.9842 30.7635 22.3637 29.2587 19.581C29.2235 19.581 31.0788 17.432 29.0489 15.248Z" fill="#1783D3"/>
<path d="M1.50506 26.9431H4.40995C5.24998 26.9431 5.91476 26.2738 5.91476 25.4285V14.7198C5.91476 13.8743 5.24973 13.2052 4.40995 13.2052L1.50506 13.2049C0.665036 13.2049 0 13.8743 0 14.7198V25.3933C0 26.274 0.665036 26.9431 1.50506 26.9431Z" fill="#1783D3"/>
</g>
<defs>
<clipPath id="clip0_130_451">
<rect width="30" height="30" fill="white"/>
</clipPath>
</defs>
</svg>
