<svg width="29" height="31" viewBox="0 0 29 31" fill="none" xmlns="http://www.w3.org/2000/svg">
<path d="M3.78261 21.08H1.26087C0.926466 21.08 0.605759 21.2106 0.3693 21.4432C0.132841 21.6757 0 21.9911 0 22.32V29.76C0 30.0889 0.132841 30.4043 0.3693 30.6368C0.605759 30.8694 0.926466 31 1.26087 31C1.59527 31 1.91598 30.8694 2.15244 30.6368C2.3889 30.4043 2.52174 30.0889 2.52174 29.76V28.52H3.78261C4.78582 28.52 5.74794 28.1281 6.45732 27.4304C7.16669 26.7328 7.56522 25.7866 7.56522 24.8C7.56522 23.8134 7.16669 22.8672 6.45732 22.1696C5.74794 21.4719 4.78582 21.08 3.78261 21.08ZM3.78261 26.04H2.52174V23.56H3.78261C4.11701 23.56 4.43772 23.6906 4.67418 23.9232C4.91064 24.1557 5.04348 24.4711 5.04348 24.8C5.04348 25.1289 4.91064 25.4443 4.67418 25.6768C4.43772 25.9094 4.11701 26.04 3.78261 26.04V26.04ZM24.587 23.56V25.42H27.1087C27.4431 25.42 27.7638 25.5506 28.0003 25.7832C28.2367 26.0157 28.3696 26.3311 28.3696 26.66C28.3696 26.9889 28.2367 27.3043 28.0003 27.5368C27.7638 27.7694 27.4431 27.9 27.1087 27.9H24.587V29.76C24.587 30.0889 24.4541 30.4043 24.2177 30.6368C23.9812 30.8694 23.6605 31 23.3261 31C22.9917 31 22.671 30.8694 22.4345 30.6368C22.1981 30.4043 22.0652 30.0889 22.0652 29.76V22.32C22.0652 21.9911 22.1981 21.6757 22.4345 21.4432C22.671 21.2106 22.9917 21.08 23.3261 21.08H27.7391C28.0735 21.08 28.3942 21.2106 28.6307 21.4432C28.8672 21.6757 29 21.9911 29 22.32C29 22.6489 28.8672 22.9643 28.6307 23.1968C28.3942 23.4294 28.0735 23.56 27.7391 23.56H24.587ZM13.8696 21.08H11.663C11.3286 21.08 11.0079 21.2106 10.7715 21.4432C10.535 21.6757 10.4022 21.9911 10.4022 22.32V29.76C10.4022 30.0889 10.535 30.4043 10.7715 30.6368C11.0079 30.8694 11.3286 31 11.663 31H13.8696C15.2072 31 16.49 30.4774 17.4358 29.5473C18.3817 28.6171 18.913 27.3555 18.913 26.04C18.913 24.7245 18.3817 23.4629 17.4358 22.5328C16.49 21.6026 15.2072 21.08 13.8696 21.08ZM13.8696 28.52H12.9239V23.56H13.8696C14.5384 23.56 15.1798 23.8213 15.6527 24.2864C16.1256 24.7515 16.3913 25.3823 16.3913 26.04C16.3913 26.6977 16.1256 27.3285 15.6527 27.7936C15.1798 28.2587 14.5384 28.52 13.8696 28.52V28.52ZM1.26087 17.36H26.4783C26.8127 17.36 27.1334 17.2294 27.3698 16.9968C27.6063 16.7643 27.7391 16.4489 27.7391 16.12V9.92001C27.741 9.59011 27.6108 9.27274 27.3766 9.03652L18.5505 0.35652C18.3103 0.126224 17.9876 -0.00183995 17.6522 1.99797e-05H2.52174C1.85293 1.99797e-05 1.21152 0.261305 0.7386 0.726395C0.265682 1.19148 0 1.82228 0 2.48002V16.12C0 16.4489 0.132841 16.7643 0.3693 16.9968C0.605759 17.2294 0.926466 17.36 1.26087 17.36ZM17.6522 3.10002L24.587 9.92001H17.6522V3.10002Z" fill="#1783D3"/>
</svg>
