<svg width="50" height="50" viewBox="0 0 50 50" fill="none" xmlns="http://www.w3.org/2000/svg">
<path d="M47.5775 19.7236H34.0581C33.8257 19.7236 33.6356 19.9136 33.6356 20.1458V22.6791C33.6356 22.9113 33.8257 23.1013 34.0581 23.1013H47.5775C47.8099 23.1013 48 22.9113 48 22.6791V20.1458C48 19.9136 47.8099 19.7236 47.5775 19.7236ZM40.5009 26.9013H34.0581C33.8257 26.9013 33.6356 27.0913 33.6356 27.3235V29.8568C33.6356 30.089 33.8257 30.279 34.0581 30.279H40.5009C40.7333 30.279 40.9234 30.089 40.9234 29.8568V27.3235C40.9234 27.0913 40.7333 26.9013 40.5009 26.9013ZM22.8782 15H20.5915C20.2641 15 20 15.2639 20 15.5911V28.6799C20 28.8699 20.0898 29.0441 20.2429 29.1549L28.1064 34.8865C28.3704 35.0765 28.7401 35.0237 28.9302 34.7598L30.2874 32.9074V32.9021C30.4776 32.6382 30.4195 32.2687 30.1554 32.0788L23.4644 27.2443V15.5911C23.4696 15.2639 23.2003 15 22.8782 15Z" fill="#5BC4F8"/>
<path d="M39.5283 33.2803H36.5683C36.2815 33.2803 36.01 33.4286 35.8564 33.6742C35.206 34.7024 34.4481 35.6539 33.5775 36.5235C32.0769 38.0224 30.3306 39.199 28.3897 40.0175C26.377 40.8666 24.2415 41.2963 22.0394 41.2963C19.8321 41.2963 17.6966 40.8666 15.689 40.0175C13.7481 39.199 12.0018 38.0224 10.5013 36.5235C9.00074 35.0247 7.82286 33.2803 7.00346 31.3415C6.15334 29.3362 5.72316 27.203 5.72316 24.9982C5.72316 22.7934 6.15334 20.6654 7.00346 18.6549C7.82286 16.7162 9.00074 14.9718 10.5013 13.4729C12.0018 11.974 13.7481 10.7975 15.689 9.97898C17.6966 9.1298 19.8372 8.7001 22.0394 8.7001C24.2466 8.7001 26.3821 9.1298 28.3897 9.97898C30.3306 10.7975 32.0769 11.974 33.5775 13.4729C34.4481 14.3425 35.206 15.294 35.8564 16.3223C36.01 16.5678 36.2815 16.7162 36.5683 16.7162H39.5283C39.8817 16.7162 40.107 16.3478 39.9483 16.0358C36.6092 9.40093 29.839 5.08852 22.2801 5.00156C11.2131 4.86344 2.02052 13.9128 2.00003 24.9573C1.97955 36.0222 10.957 45 22.0342 45C29.6905 45 36.5734 40.6723 39.9483 33.9607C40.107 33.6486 39.8766 33.2803 39.5283 33.2803Z" fill="#5BC4F8"/>
</svg>
