<svg width="50" height="50" viewBox="0 0 50 50" fill="none" xmlns="http://www.w3.org/2000/svg">
<path d="M40.0585 5.00022C39.5385 5.00027 39.0238 5.10219 38.5448 5.29996C38.0658 5.49772 37.6322 5.78732 37.2697 6.15164L36.6953 6.73021L36.115 6.15164C35.7526 5.78722 35.319 5.49753 34.84 5.29973C34.361 5.10192 33.8463 5 33.3263 5C32.8063 5 32.2916 5.10192 31.8126 5.29973C31.3335 5.49753 30.9 5.78722 30.5375 6.15164C29.7982 6.89777 29.3847 7.89576 29.3847 8.93448C29.3847 9.97321 29.7982 10.9712 30.5375 11.7173L36.6953 17.8573L42.8472 11.7173C43.5866 10.9712 44 9.97321 44 8.93448C44 7.89576 43.5866 6.89777 42.8472 6.15164C42.4847 5.78726 42.0512 5.49761 41.5722 5.29984C41.0932 5.10207 40.5784 5.00019 40.0585 5.00022ZM34.9721 27.8572H22.199L17.4941 10.6645C17.0787 9.21624 16.0959 7.98648 14.7588 7.24192C13.4218 6.49737 11.8383 6.29809 10.3518 6.68729C8.86537 7.07649 7.59587 8.02279 6.81867 9.32093C6.04147 10.6191 5.81926 12.1644 6.20024 13.6216L12.643 37.1672C12.8094 37.7749 13.1764 38.312 13.6869 38.695C14.1975 39.0781 14.8232 39.2857 15.4669 39.2857H27.9242V42.1429H6V45H27.9242C28.6995 45 29.443 44.699 29.9912 44.1632C30.5394 43.6273 30.8474 42.9006 30.8474 42.1429V39.2857H35.2322C36.049 39.2847 36.8564 39.1165 37.6027 38.7922C38.349 38.4678 39.0176 37.9944 39.5655 37.4024C40.1133 36.8104 40.5284 36.1129 40.784 35.3547C41.0396 34.5965 41.13 33.7944 41.0494 33.0001C40.8621 31.5618 40.1384 30.2418 39.0169 29.2928C37.8955 28.3438 36.4552 27.8326 34.9721 27.8572ZM35.2322 36.4286H15.4683L9.02261 12.883C8.92328 12.5206 8.89797 12.1426 8.94811 11.7706C8.99825 11.3985 9.12287 11.0398 9.31485 10.7149C9.50683 10.39 9.76241 10.1052 10.067 9.87677C10.3716 9.64837 10.7192 9.48085 11.0901 9.38377C11.4609 9.28668 11.8477 9.26194 12.2283 9.31095C12.6089 9.35996 12.9759 9.48176 13.3084 9.6694C13.6408 9.85704 13.9322 10.1068 14.1659 10.4045C14.3995 10.7022 14.5709 11.042 14.6703 11.4045L19.954 30.7144H35.2322C36.0075 30.7144 36.751 31.0154 37.2992 31.5512C37.8475 32.087 38.1554 32.8137 38.1554 33.5715C38.1554 34.3292 37.8475 35.056 37.2992 35.5918C36.751 36.1276 36.0075 36.4286 35.2322 36.4286Z" fill="#5BC4F8"/>
</svg>
