<svg width="50" height="50" viewBox="0 0 50 50" fill="none" xmlns="http://www.w3.org/2000/svg">
<path d="M10.8652 25C10.8652 24.5874 11.0307 24.1918 11.3252 23.9001C11.6198 23.6083 12.0192 23.4444 12.4358 23.4444H15.5768V20.3333C15.5768 19.9208 15.7423 19.5251 16.0368 19.2334C16.3313 18.9417 16.7308 18.7778 17.1473 18.7778C17.5639 18.7778 17.9633 18.9417 18.2579 19.2334C18.5524 19.5251 18.7179 19.9208 18.7179 20.3333V23.4444H21.8589C22.2755 23.4444 22.6749 23.6083 22.9695 23.9001C23.264 24.1918 23.4295 24.5874 23.4295 25C23.4295 25.4126 23.264 25.8082 22.9695 26.0999C22.6749 26.3917 22.2755 26.5556 21.8589 26.5556H18.7179V29.6667C18.7179 30.0792 18.5524 30.4749 18.2579 30.7666C17.9633 31.0583 17.5639 31.2222 17.1473 31.2222C16.7308 31.2222 16.3313 31.0583 16.0368 30.7666C15.7423 30.4749 15.5768 30.0792 15.5768 29.6667V26.5556H12.4358C12.0192 26.5556 11.6198 26.3917 11.3252 26.0999C11.0307 25.8082 10.8652 25.4126 10.8652 25ZM34.4075 29.6667C34.4075 30.4918 34.0765 31.2831 33.4875 31.8666C32.8984 32.45 32.0995 32.7778 31.2664 32.7778C30.4334 32.7778 29.6344 32.45 29.0454 31.8666C28.4563 31.2831 28.1254 30.4918 28.1254 29.6667C28.1254 28.8415 28.4563 28.0502 29.0454 27.4668C29.6344 26.8833 30.4334 26.5556 31.2664 26.5556C32.0995 26.5556 32.8984 26.8833 33.4875 27.4668C34.0765 28.0502 34.4075 28.8415 34.4075 29.6667ZM34.4075 23.4444C35.2405 23.4444 36.0395 23.1167 36.6285 22.5332C37.2176 21.9498 37.5485 21.1585 37.5485 20.3333C37.5485 19.5082 37.2176 18.7169 36.6285 18.1334C36.0395 17.55 35.2405 17.2222 34.4075 17.2222C33.5744 17.2222 32.7755 17.55 32.1864 18.1334C31.5974 18.7169 31.2664 19.5082 31.2664 20.3333C31.2664 21.1585 31.5974 21.9498 32.1864 22.5332C32.7755 23.1167 33.5744 23.4444 34.4075 23.4444ZM3 25C3 21.287 4.4892 17.726 7.13998 15.1005C9.79077 12.475 13.386 11 17.1348 11H32.8652C36.614 11 40.2092 12.475 42.86 15.1005C45.5108 17.726 47 21.287 47 25C47 28.713 45.5108 32.274 42.86 34.8995C40.2092 37.525 36.614 39 32.8652 39H17.1348C13.386 39 9.79077 37.525 7.13998 34.8995C4.4892 32.274 3 28.713 3 25ZM17.1348 14.1111C14.2191 14.1111 11.4228 15.2583 9.36105 17.3004C7.29933 19.3425 6.14106 22.1121 6.14106 25C6.14106 27.8879 7.29933 30.6575 9.36105 32.6996C11.4228 34.7417 14.2191 35.8889 17.1348 35.8889H32.8652C35.7809 35.8889 38.5772 34.7417 40.639 32.6996C42.7007 30.6575 43.8589 27.8879 43.8589 25C43.8589 22.1121 42.7007 19.3425 40.639 17.3004C38.5772 15.2583 35.7809 14.1111 32.8652 14.1111H17.1348Z" fill="#5BC4F8"/>
</svg>
