<svg width="119" height="22" viewBox="0 0 119 22" fill="none" xmlns="http://www.w3.org/2000/svg">
<path d="M117.92 5.04592C117.962 5.37733 117.778 5.8415 117.094 6.44265C116.427 7.0293 115.38 7.65771 113.964 8.31151C111.138 9.6162 106.955 10.9713 101.708 12.2943C91.2226 14.9385 76.5732 17.4338 60.2487 19.1496C43.9242 20.8654 29.0358 21.4746 18.1643 21.0752C12.7247 20.8753 8.31224 20.4237 5.23454 19.7394C3.69229 19.3966 2.51601 19.0018 1.71948 18.569C0.903248 18.1255 0.608043 17.7117 0.566038 17.3803C0.524032 17.0489 0.707958 16.5847 1.39178 15.9835C2.05911 15.3969 3.1057 14.7685 4.52163 14.1147C7.34725 12.81 11.5307 11.4548 16.7773 10.1319C27.2631 7.48773 41.9124 4.99236 58.2369 3.27659C74.5614 1.56081 89.4499 0.951637 100.321 1.35102C105.761 1.55085 110.173 2.00252 113.251 2.68676C114.793 3.02963 115.97 3.42441 116.766 3.8572C117.582 4.30069 117.878 4.7145 117.92 5.04592Z" stroke="#6BBD45"/>
</svg>
