<svg width="119" height="22" viewBox="0 0 119 22" fill="none" xmlns="http://www.w3.org/2000/svg">
<path d="M117.92 5.04585C117.962 5.37727 117.778 5.84144 117.094 6.44259C116.427 7.02923 115.38 7.65765 113.964 8.31144C111.138 9.61614 106.955 10.9713 101.708 12.2943C91.2226 14.9384 76.5732 17.4338 60.2487 19.1495C43.9242 20.8653 29.0358 21.4745 18.1643 21.0751C12.7247 20.8753 8.31224 20.4236 5.23454 19.7394C3.69229 19.3965 2.51601 19.0017 1.71948 18.5689C0.903248 18.1254 0.608043 17.7116 0.566038 17.3802C0.524033 17.0488 0.707958 16.5846 1.39178 15.9835C2.05911 15.3968 3.1057 14.7684 4.52163 14.1146C7.34725 12.8099 11.5307 11.4548 16.7773 10.1318C27.2631 7.48767 41.9124 4.9923 58.2369 3.27653C74.5614 1.56075 89.4499 0.951576 100.321 1.35095C105.761 1.55078 110.173 2.00246 113.251 2.68669C114.793 3.02957 115.97 3.42435 116.766 3.85714C117.582 4.30062 117.878 4.71444 117.92 5.04585Z" stroke="#5BC4F8"/>
</svg>
