<svg width="23" height="11" viewBox="0 0 23 11" fill="none" xmlns="http://www.w3.org/2000/svg">
<path d="M10.6025 10.7013L0.367436 2.36906C0.130519 2.17634 0 1.91909 0 1.64478C0 1.37047 0.130519 1.11321 0.367436 0.920498L1.12101 0.306883C1.61204 -0.0923997 2.41012 -0.0923997 2.90041 0.306883L11.4952 7.3037L20.0996 0.29912C20.3365 0.106404 20.6523 0 20.9891 0C21.3262 0 21.6421 0.106404 21.8792 0.29912L22.6326 0.912734C22.8695 1.1056 23 1.36271 23 1.63702C23 1.91132 22.8695 2.16858 22.6326 2.3613L12.3881 10.7013C12.1504 10.8945 11.8331 11.0006 11.4958 11C11.1572 11.0006 10.84 10.8945 10.6025 10.7013Z" fill="#6BBD45"/>
</svg>
