<svg width="736" height="410" viewBox="0 0 736 410" fill="none" xmlns="http://www.w3.org/2000/svg">
<path d="M531.538 0C464.168 0 401.271 33.5322 363.286 89.6811L358.915 96.1519H376.399L377.63 94.4153C413.091 44.4064 470.632 14.5541 531.559 14.5541C635.806 14.5541 720.599 99.9971 720.599 204.997C720.599 309.997 635.806 395.44 531.559 395.44C470.632 395.44 413.091 365.588 377.63 315.579L376.399 313.842H358.915L363.286 320.313C401.271 376.462 464.168 409.994 531.538 409.994C643.748 409.994 735.026 318.039 735.026 204.997C735.026 91.9552 643.727 0 531.538 0Z" fill="white"/>
<path d="M45.8646 176.076C40.3445 173.264 33.5725 171.858 25.5282 171.858H0V242.665H25.5282C33.5725 242.665 40.3445 241.259 45.8646 238.447C51.4464 235.636 55.6737 231.584 58.5261 226.291C61.3786 220.999 62.8151 214.632 62.8151 207.21C62.8151 199.788 61.3786 193.359 58.5261 188.128C55.6737 182.836 51.4464 178.825 45.8646 176.076ZM43.6689 225.795C39.5441 229.889 33.2442 231.915 24.7279 231.915H12.8667V182.505H24.7279C33.2442 182.505 39.5441 184.552 43.6689 188.625C47.7936 192.635 49.8457 198.837 49.8457 207.21C49.8457 215.583 47.7936 221.702 43.6689 225.795Z" fill="white"/>
<path d="M109.03 194.038C105.767 191.97 101.724 190.916 96.8607 190.916C91.9972 190.916 87.6262 192.012 83.8913 194.224C80.2386 196.436 77.3862 199.516 75.3135 203.465C73.2614 207.413 72.2148 212.044 72.2148 217.316C72.2148 222.588 73.2819 227.425 75.3956 231.374C77.5914 235.322 80.6695 238.361 84.6711 240.511C88.7343 242.579 93.5773 243.633 99.2206 243.633C102.935 243.633 106.465 243.096 109.789 242.021C113.113 240.946 115.966 239.436 118.367 237.493L114.673 229.058C112.416 230.795 110.015 232.077 107.491 232.883C105.028 233.627 102.381 233.979 99.5079 233.979C94.5828 233.979 90.7659 232.635 88.0366 229.968C85.6562 227.508 84.3428 223.911 84.0966 219.218H118.941V215.91C118.941 210.887 118.079 206.504 116.356 202.762C114.694 199.02 112.231 196.105 108.989 194.017L109.03 194.038ZM89.8835 201.563C91.8125 200.219 94.1724 199.557 96.9633 199.557C100.678 199.557 103.51 200.798 105.438 203.279C107.224 205.491 108.168 208.633 108.352 212.623H84.3428C84.5685 210.638 84.979 208.861 85.6151 207.31C86.6207 204.829 88.0366 202.927 89.904 201.583L89.8835 201.563Z" fill="white"/>
<path d="M158.568 190.937C154.443 190.937 150.832 191.908 147.712 193.851C145.168 195.381 143.177 197.469 141.638 200.095L140.838 191.929H128.771C129.038 193.996 129.243 196.105 129.367 198.255C129.49 200.405 129.572 202.514 129.572 204.581V242.641H142.028V214.029C142.028 210.018 143.157 206.793 145.414 204.395C147.671 201.976 150.729 200.777 154.587 200.777C157.706 200.777 160.046 201.687 161.564 203.485C163.165 205.222 163.965 208.137 163.965 212.23V242.661H176.421V211.631C176.421 204.54 174.923 199.309 171.927 195.96C168.931 192.611 164.478 190.937 158.568 190.937Z" fill="white"/>
<path d="M205.478 175.765L193.022 178.969V191.931H183.356V201.379H193.022V224.781C193.022 231.066 194.54 235.8 197.598 238.942C200.656 242.085 205.17 243.656 211.163 243.656C212.435 243.656 213.728 243.532 215.041 243.263C216.436 243.056 217.709 242.726 218.837 242.25V232.306C217.976 232.637 217.073 232.906 216.149 233.113C215.287 233.319 214.22 233.423 212.968 233.423C210.649 233.423 208.823 232.72 207.489 231.314C206.155 229.908 205.499 227.469 205.499 223.975V201.379H218.961V191.931H205.499V175.765H205.478Z" fill="white"/>
<path d="M263.593 200.384C262.382 197.862 260.535 195.774 257.99 194.141C254.81 191.991 251.075 190.937 246.827 190.937C242.579 190.937 238.577 192.012 235.253 194.141C231.929 196.208 229.343 199.227 227.475 203.175C225.608 207.062 224.685 211.755 224.685 217.233C224.685 222.712 225.608 227.446 227.475 231.394C229.343 235.343 231.929 238.382 235.253 240.532C238.577 242.599 242.435 243.654 246.827 243.654C250.952 243.654 254.645 242.62 257.888 240.532C260.227 239.043 261.992 237.162 263.203 234.929L263.285 242.641H275.638V204.581C275.638 202.514 275.7 200.405 275.844 198.255C276.049 196.105 276.234 193.996 276.439 191.929H264.475L263.613 200.384H263.593ZM259.776 229.885C257.375 232.635 254.235 233.999 250.315 233.999C246.396 233.999 243.133 232.635 240.753 229.885C238.434 227.074 237.264 222.856 237.264 217.233C237.264 211.61 238.454 207.434 240.855 204.684C243.256 201.935 246.396 200.57 250.336 200.57C254.276 200.57 257.416 201.935 259.796 204.684C262.197 207.434 263.387 211.61 263.387 217.233C263.387 222.856 262.197 227.074 259.796 229.885H259.776Z" fill="white"/>
<path d="M301.66 168.735H289.204V242.643H301.66V168.735Z" fill="white"/>
<path d="M389.798 211.612C393.328 209.875 395.975 207.435 397.781 204.272C399.648 201.068 400.572 197.285 400.572 192.923C400.572 186.369 398.54 181.201 394.497 177.459C390.434 173.717 384.565 171.836 376.849 171.836H345.637V242.642H358.503V214.113H376.849C381.959 214.113 386.289 213.286 389.819 211.612H389.798ZM358.503 203.88V181.987H375.351C379.599 181.987 382.8 182.958 384.914 184.902C387.048 186.783 388.095 189.45 388.095 192.943C388.095 196.437 387.028 199.145 384.914 201.068C382.78 202.949 379.599 203.88 375.351 203.88H358.503Z" fill="white"/>
<path d="M423.494 168.735H411.038V242.643H423.494V168.735Z" fill="white"/>
<path d="M444.897 240.532C448.222 242.599 452.08 243.654 456.451 243.654C460.576 243.654 464.249 242.62 467.512 240.532C469.851 239.043 471.616 237.162 472.827 234.929L472.888 242.641H485.242V204.581C485.242 202.514 485.303 200.405 485.447 198.255C485.652 196.105 485.858 193.996 486.042 191.929H474.078L473.217 200.384C472.006 197.862 470.159 195.753 467.614 194.141C464.434 191.991 460.699 190.937 456.451 190.937C452.203 190.937 448.201 192.012 444.897 194.141C441.573 196.208 438.987 199.227 437.12 203.175C435.253 207.062 434.329 211.755 434.329 217.233C434.329 222.712 435.253 227.446 437.12 231.394C438.987 235.343 441.573 238.382 444.897 240.532ZM450.479 204.684C452.88 201.935 456.04 200.57 459.96 200.57C463.879 200.57 467.04 201.935 469.42 204.684C471.821 207.434 473.011 211.61 473.011 217.233C473.011 222.856 471.821 227.074 469.42 229.885C467.019 232.635 463.879 233.999 459.96 233.999C456.04 233.999 452.778 232.635 450.377 229.885C448.058 227.074 446.888 222.856 446.888 217.233C446.888 211.61 448.078 207.434 450.479 204.684Z" fill="white"/>
<path d="M502.234 178.991V191.953H492.568V201.4H502.234V224.803C502.234 231.087 503.773 235.822 506.831 238.964C509.888 242.106 514.403 243.677 520.395 243.677C521.667 243.677 522.96 243.553 524.273 243.285C525.669 243.078 526.921 242.747 528.07 242.272V232.328C527.208 232.659 526.305 232.927 525.382 233.134C524.52 233.341 523.453 233.444 522.201 233.444C519.882 233.444 518.035 232.741 516.722 231.335C515.388 229.93 514.731 227.49 514.731 223.996V201.4H528.193V191.953H514.731V175.786L502.275 178.991H502.234Z" fill="white"/>
<path d="M562.032 233.009C560.431 234.146 557.969 234.725 554.665 234.725C551.546 234.725 548.447 234.25 545.39 233.32C542.332 232.389 539.541 231.045 537.017 229.309L533.528 237.744C535.991 239.625 539.007 241.093 542.599 242.168C546.251 243.181 550.232 243.677 554.562 243.677C558.892 243.677 562.545 243.036 565.726 241.775C568.907 240.493 571.41 238.653 573.196 236.255C574.981 233.836 575.884 230.963 575.884 227.614C575.884 223.872 574.714 220.916 572.395 218.786C570.138 216.574 566.772 215.044 562.319 214.176L552.346 212.274C550.294 211.799 548.755 211.096 547.77 210.165C546.847 209.152 546.375 207.933 546.375 206.444C546.375 204.501 547.175 202.93 548.776 201.731C550.376 200.449 552.9 199.829 556.348 199.829C558.872 199.829 561.458 200.304 564.125 201.234C566.793 202.165 569.153 203.467 571.205 205.142L574.796 197.017C572.539 195.012 569.748 193.503 566.424 192.49C563.161 191.477 559.672 190.98 555.958 190.98C551.71 190.98 547.975 191.683 544.794 193.089C541.675 194.433 539.233 196.294 537.509 198.712C535.847 201.131 535.026 203.901 535.026 207.044C535.026 210.724 536.135 213.701 538.31 215.975C540.567 218.249 543.83 219.861 548.078 220.791L558.051 222.693C560.308 223.169 561.93 223.872 562.935 224.802C564.002 225.67 564.536 226.869 564.536 228.42C564.536 230.363 563.694 231.893 562.053 233.03L562.032 233.009Z" fill="white"/>
</svg>
