<svg width="232" height="79" viewBox="0 0 232 79" fill="none" xmlns="http://www.w3.org/2000/svg">
<path d="M175.155 12.3472C175.155 12.3472 199.272 -3.07497 223.827 0.726254C223.827 0.726254 219.134 7.56849 217.388 13.6505C215.642 19.5152 215.315 23.7508 215.315 23.7508C224.372 29.9414 231.902 39.4988 231.902 39.4988C208.112 41.5623 181.921 55.6812 181.921 55.6812L175.155 12.3472Z" fill="#3C67B8"/>
<path d="M56.7479 12.3472C56.7479 12.3472 32.63 -3.07497 8.07567 0.726254C8.07567 0.726254 12.7683 7.56849 14.5144 13.6505C16.2605 19.5152 16.5878 23.7508 16.5878 23.7508C7.53 29.9414 0 39.4988 0 39.4988C23.7905 41.5623 49.9818 55.6812 49.9818 55.6812L56.7479 12.3472Z" fill="#3C67B8"/>
<path d="M175.155 12.3487L198.836 21.2545L208.112 64.0454L181.484 57.8548L175.155 12.3487Z" fill="#0B2351"/>
<path d="M56.7479 12.3487L33.0666 21.2545L23.7905 64.0454L50.4183 57.8548L56.7479 12.3487Z" fill="#0B2351"/>
<path d="M198.836 21.2533C140.778 38.5217 91.124 38.5217 33.0666 21.2533C29.3561 35.4808 27.61 49.7082 23.7905 64.0443C89.1597 83.702 142.743 83.702 208.112 64.0443C204.402 49.8168 202.655 35.4808 198.836 21.2533Z" fill="#1F4690"/>
</svg>
