<svg width="29" height="24" viewBox="0 0 29 24" fill="none" xmlns="http://www.w3.org/2000/svg">
<path d="M26.4447 0.211879C26.4447 0.211879 29.109 -0.826978 28.8869 1.69596C28.8129 2.73483 28.1469 6.37083 27.6288 10.3037L25.8527 21.9537C25.8527 21.9537 25.7047 23.6604 24.3726 23.9573C23.0404 24.254 21.0423 22.9184 20.6723 22.6216C20.3762 22.399 15.1219 19.0598 13.2717 17.4273C12.7536 16.982 12.1616 16.0916 13.3457 15.0527L21.1163 7.63234C22.0044 6.74187 22.8925 4.66416 19.1922 7.1871L8.83136 14.2365C8.83136 14.2365 7.64727 14.9785 5.42714 14.3107L0.616729 12.8266C0.616729 12.8266 -1.15941 11.7136 1.87483 10.6005C9.27543 7.11284 18.3781 3.55104 26.4447 0.211879Z" fill="#0088CC"/>
</svg>
