<svg width="86" height="95" viewBox="0 0 86 95" fill="none" xmlns="http://www.w3.org/2000/svg">
<path fill-rule="evenodd" clip-rule="evenodd" d="M0 76.4389C0 73.0496 2.71789 69.9753 6.07777 69.5714L36.5575 65.9071L67.0373 69.5714C70.394 69.9749 73.1151 73.0395 73.1151 76.4389V95H0V76.4389Z" fill="#7EB3FF"/>
<path fill-rule="evenodd" clip-rule="evenodd" d="M36.5576 66.8114C48.8197 66.8114 58.7601 50.7462 58.7601 38.4841C58.7601 26.222 48.8197 16.2816 36.5576 16.2816C24.2955 16.2816 14.3551 26.222 14.3551 38.4841C14.3551 50.7462 24.2955 66.8114 36.5576 66.8114Z" fill="#FFF7E6"/>
<path fill-rule="evenodd" clip-rule="evenodd" d="M24.4471 58.7378H48.668V74.8851C48.668 74.8851 40.4583 77.809 36.5576 77.809C32.6569 77.809 24.4471 74.8851 24.4471 74.8851V58.7378Z" fill="#FFF7E6"/>
<path d="M15.1207 47.4674C17.6577 47.4674 19.7143 45.4108 19.7143 42.8738C19.7143 40.3368 17.6577 38.2802 15.1207 38.2802C12.5837 38.2802 10.5271 40.3368 10.5271 42.8738C10.5271 45.4108 12.5837 47.4674 15.1207 47.4674Z" fill="#FFF7E6"/>
<path d="M57.9945 47.4674C60.5315 47.4674 62.5881 45.4108 62.5881 42.8738C62.5881 40.3368 60.5315 38.2802 57.9945 38.2802C55.4575 38.2802 53.4009 40.3368 53.4009 42.8738C53.4009 45.4108 55.4575 47.4674 57.9945 47.4674Z" fill="#FFF7E6"/>
<path fill-rule="evenodd" clip-rule="evenodd" d="M17.7571 52.061C21.6873 60.1105 28.6382 66.8113 36.5575 66.8113C44.4768 66.8113 51.4277 60.1105 55.3579 52.061H17.7571H17.7571ZM15.312 6.12479C15.312 6.12479 26.0305 3.06238 36.7489 3.06238C47.4673 3.06238 58.1858 6.12479 58.1858 6.12479V32.1553C58.1858 32.1553 47.4673 24.4993 36.7489 24.4993C26.0305 24.4993 15.312 32.1553 15.312 32.1553V6.12479Z" fill="#7EB3FF"/>
<path d="M36.7489 32.1553C40.9772 32.1553 44.405 28.7276 44.405 24.4993C44.405 20.271 40.9772 16.8433 36.7489 16.8433C32.5206 16.8433 29.0929 20.271 29.0929 24.4993C29.0929 28.7276 32.5206 32.1553 36.7489 32.1553Z" fill="#CAE2FF"/>
<path d="M36.7489 27.5617C38.4403 27.5617 39.8113 26.1906 39.8113 24.4993C39.8113 22.808 38.4403 21.4369 36.7489 21.4369C35.0576 21.4369 33.6865 22.808 33.6865 24.4993C33.6865 26.1906 35.0576 27.5617 36.7489 27.5617Z" fill="#74C2F4"/>
<mask id="path-9-inside-1_973_4022" fill="white">
<path fill-rule="evenodd" clip-rule="evenodd" d="M21.2437 57.7678C19.9137 56.006 18.7408 54.0758 17.7571 52.0611H17.7572C17.0172 50.5454 16.3843 48.982 15.8721 47.4064C15.6277 47.4466 15.3768 47.4675 15.121 47.4675C12.584 47.4675 10.5273 45.4109 10.5273 42.8739C10.5273 40.5977 12.1829 38.7082 14.3555 38.3438C14.3692 36.1439 14.7027 34.02 15.312 32.0161V6.12491C15.312 6.12491 26.0305 3.0625 36.7489 3.0625C47.4673 3.0625 58.1858 6.12491 58.1858 6.12491V32.1554C58.1858 32.1554 58.0364 32.0487 57.7552 31.8605C58.3949 33.9099 58.7457 36.0869 58.7596 38.3437C60.9324 38.708 62.5881 40.5976 62.5881 42.8739C62.5881 45.4109 60.5315 47.4675 57.9945 47.4675C57.7386 47.4675 57.4876 47.4466 57.2431 47.4063C55.5456 52.6288 52.5209 57.7184 48.668 61.3741V67.3631L67.0373 69.5715C70.394 69.975 73.1151 73.0396 73.1151 76.439V95.0001H0V76.439C0 73.0497 2.71789 69.9754 6.07777 69.5715L24.4471 67.3631V61.374C24.0717 61.0178 23.704 60.6479 23.3447 60.2656C22.608 59.4817 21.9064 58.6457 21.2437 57.7678Z"/>
</mask>
<path d="M17.7571 52.0611V51.0611C17.4122 51.0611 17.0917 51.2388 16.909 51.5314C16.7263 51.8239 16.7072 52.1899 16.8585 52.4998L17.7571 52.0611ZM21.2437 57.7678L22.0418 57.1653L21.2437 57.7678ZM17.7572 52.0611V53.0611C18.1021 53.0611 18.4226 52.8834 18.6054 52.5908C18.7881 52.2983 18.8071 51.9323 18.6558 51.6224L17.7572 52.0611ZM15.8721 47.4064L16.8231 47.0973C16.6704 46.6274 16.1974 46.3395 15.7098 46.4197L15.8721 47.4064ZM14.3555 38.3438L14.521 39.33C15.0004 39.2496 15.3525 38.8361 15.3555 38.35L14.3555 38.3438ZM15.312 32.0161L16.2688 32.307C16.2974 32.2127 16.312 32.1147 16.312 32.0161H15.312ZM15.312 6.12491L15.0373 5.16339C14.608 5.28605 14.312 5.67843 14.312 6.12491H15.312ZM58.1858 6.12491H59.1858C59.1858 5.67843 58.8898 5.28605 58.4605 5.16339L58.1858 6.12491ZM58.1858 32.1554L57.6045 32.9692C57.9094 33.1869 58.3103 33.216 58.6434 33.0446C58.9764 32.8732 59.1858 32.53 59.1858 32.1554H58.1858ZM57.7552 31.8605L58.3115 31.0295C57.9592 30.7936 57.4963 30.8056 57.1567 31.0594C56.817 31.3132 56.6743 31.7537 56.8007 32.1584L57.7552 31.8605ZM58.7596 38.3437L57.7597 38.3499C57.7627 38.836 58.1148 39.2496 58.5943 39.3299L58.7596 38.3437ZM57.2431 47.4063L57.4054 46.4196C56.9179 46.3394 56.4448 46.6273 56.292 47.0972L57.2431 47.4063ZM48.668 61.3741L47.9797 60.6486C47.7807 60.8374 47.668 61.0997 47.668 61.3741H48.668ZM48.668 67.3631H47.668C47.668 67.8693 48.0462 68.2956 48.5487 68.356L48.668 67.3631ZM67.0373 69.5715L66.918 70.5643L67.0373 69.5715ZM73.1151 95.0001V96.0001C73.6674 96.0001 74.1151 95.5524 74.1151 95.0001H73.1151ZM0 95.0001H-1C-1 95.5524 -0.552285 96.0001 0 96.0001L0 95.0001ZM6.07777 69.5715L5.95841 68.5786H5.95841L6.07777 69.5715ZM24.4471 67.3631L24.5665 68.356C25.069 68.2956 25.4471 67.8692 25.4471 67.3631H24.4471ZM24.4471 61.374H25.4471C25.4471 61.0997 25.3344 60.8374 25.1354 60.6486L24.4471 61.374ZM23.3447 60.2656L22.616 60.9504L23.3447 60.2656ZM16.8585 52.4998C17.8688 54.5691 19.0749 56.5546 20.4456 58.3703L22.0418 57.1653C20.7526 55.4575 19.6128 53.5825 18.6557 51.6223L16.8585 52.4998ZM17.7572 51.0611H17.7571V53.0611H17.7572V51.0611ZM14.9211 47.7155C15.4479 49.3361 16.0984 50.9429 16.8586 52.4998L18.6558 51.6224C17.936 50.148 17.3206 48.6278 16.8231 47.0973L14.9211 47.7155ZM15.121 48.4675C15.4314 48.4675 15.7366 48.4421 16.0344 48.3931L15.7098 46.4197C15.5188 46.4511 15.3222 46.4675 15.121 46.4675V48.4675ZM9.52734 42.8739C9.52734 45.9632 12.0317 48.4675 15.121 48.4675V46.4675C13.1363 46.4675 11.5273 44.8586 11.5273 42.8739H9.52734ZM14.1901 37.3575C11.5437 37.8014 9.52734 40.1012 9.52734 42.8739H11.5273C11.5273 41.0942 12.822 39.6149 14.521 39.33L14.1901 37.3575ZM14.3553 31.7252C13.7182 33.8204 13.3698 36.0402 13.3556 38.3376L15.3555 38.35C15.3685 36.2477 15.6872 34.2196 16.2688 32.307L14.3553 31.7252ZM16.312 32.0161V6.12491H14.312V32.0161H16.312ZM15.312 6.12491C15.5867 7.08644 15.5866 7.08646 15.5866 7.08647C15.5866 7.08646 15.5866 7.08646 15.5867 7.08644C15.5869 7.08639 15.5872 7.0863 15.5877 7.08616C15.5887 7.08589 15.5903 7.08543 15.5925 7.08479C15.5971 7.08351 15.6041 7.0815 15.6138 7.0788C15.633 7.07339 15.6624 7.06518 15.7015 7.05436C15.7798 7.03271 15.8972 7.00061 16.0512 6.95956C16.3591 6.87744 16.813 6.75952 17.3921 6.61771C18.5505 6.33402 20.2081 5.95509 22.1982 5.57604C26.1845 4.81674 31.4761 4.0625 36.7489 4.0625V2.0625C31.3033 2.0625 25.8764 2.83946 21.8239 3.61137C19.7945 3.99792 18.1026 4.3846 16.9164 4.67511C16.3231 4.8204 15.8559 4.94173 15.5358 5.02709C15.3758 5.06977 15.2525 5.10347 15.1685 5.12668C15.1265 5.13829 15.0944 5.14728 15.0724 5.15346C15.0614 5.15655 15.053 5.15894 15.0471 5.1606C15.0442 5.16143 15.0419 5.16208 15.0402 5.16255C15.0394 5.16278 15.0388 5.16297 15.0383 5.16311C15.038 5.16318 15.0378 5.16325 15.0377 5.16328C15.0375 5.16334 15.0373 5.16339 15.312 6.12491ZM36.7489 4.0625C42.0217 4.0625 47.3133 4.81674 51.2996 5.57604C53.2896 5.95509 54.9473 6.33402 56.1057 6.61771C56.6847 6.75952 57.1387 6.87744 57.4466 6.95956C57.6006 7.00061 57.718 7.03271 57.7963 7.05436C57.8354 7.06518 57.8648 7.07339 57.884 7.0788C57.8936 7.0815 57.9007 7.08351 57.9053 7.08479C57.9075 7.08543 57.9091 7.08589 57.9101 7.08616C57.9106 7.0863 57.9109 7.08639 57.9111 7.08644C57.9111 7.08646 57.9111 7.08646 57.9112 7.08647C57.9111 7.08646 57.9111 7.08644 58.1858 6.12491C58.4605 5.16339 58.4603 5.16334 58.4601 5.16328C58.46 5.16325 58.4598 5.16318 58.4595 5.16311C58.459 5.16297 58.4584 5.16278 58.4576 5.16255C58.4559 5.16208 58.4536 5.16143 58.4507 5.1606C58.4448 5.15894 58.4364 5.15655 58.4254 5.15346C58.4034 5.14728 58.3713 5.13829 58.3293 5.12668C58.2453 5.10347 58.122 5.06977 57.962 5.02709C57.6419 4.94173 57.1747 4.8204 56.5814 4.67511C55.3952 4.3846 53.7033 3.99792 51.6739 3.61137C47.6214 2.83946 42.1945 2.0625 36.7489 2.0625V4.0625ZM57.1858 6.12491V32.1554H59.1858V6.12491H57.1858ZM58.1858 32.1554C58.767 31.3417 58.767 31.3417 58.767 31.3416C58.767 31.3416 58.7669 31.3416 58.7669 31.3416C58.7669 31.3416 58.7669 31.3416 58.7668 31.3415C58.7667 31.3415 58.7666 31.3414 58.7666 31.3413C58.7664 31.3412 58.7661 31.341 58.7659 31.3409C58.7653 31.3405 58.7647 31.34 58.7638 31.3394C58.7622 31.3382 58.76 31.3367 58.7572 31.3347C58.7516 31.3307 58.7437 31.3251 58.7335 31.3179C58.7131 31.3036 58.6836 31.283 58.6453 31.2564C58.5687 31.2034 58.4567 31.1267 58.3115 31.0295L57.1989 32.6914C57.3349 32.7825 57.4382 32.8533 57.5066 32.9006C57.5408 32.9243 57.5662 32.9421 57.5826 32.9537C57.5908 32.9594 57.5968 32.9636 57.6005 32.9662C57.6023 32.9675 57.6035 32.9684 57.6042 32.9689C57.6046 32.9692 57.6048 32.9693 57.6048 32.9693C57.6049 32.9694 57.6048 32.9694 57.6048 32.9693C57.6048 32.9693 57.6047 32.9693 57.6047 32.9693C57.6047 32.9692 57.6047 32.9692 57.6046 32.9692C57.6046 32.9692 57.6046 32.9692 57.6046 32.9692C57.6046 32.9692 57.6045 32.9692 58.1858 32.1554ZM59.7596 38.3375C59.745 35.9806 59.3787 33.7053 58.7098 31.5625L56.8007 32.1584C57.4112 34.1145 57.7463 36.1932 57.7597 38.3499L59.7596 38.3375ZM63.5881 42.8739C63.5881 40.1011 61.5715 37.8012 58.925 37.3575L58.5943 39.3299C60.2933 39.6148 61.5881 41.0941 61.5881 42.8739H63.5881ZM57.9945 48.4675C61.0838 48.4675 63.5881 45.9632 63.5881 42.8739H61.5881C61.5881 44.8586 59.9792 46.4675 57.9945 46.4675V48.4675ZM57.0807 48.3931C57.3787 48.4421 57.684 48.4675 57.9945 48.4675V46.4675C57.7932 46.4675 57.5965 46.4511 57.4054 46.4196L57.0807 48.3931ZM49.3563 62.0995C53.3457 58.3143 56.4522 53.0745 58.1941 47.7155L56.292 47.0972C54.639 52.183 51.6961 57.1225 47.9797 60.6486L49.3563 62.0995ZM49.668 67.3631V61.3741H47.668V67.3631H49.668ZM67.1567 68.5786L48.7874 66.3703L48.5487 68.356L66.918 70.5643L67.1567 68.5786ZM74.1151 76.439C74.1151 72.5346 71.0169 69.0427 67.1567 68.5786L66.918 70.5643C69.771 70.9073 72.1151 73.5447 72.1151 76.439H74.1151ZM74.1151 95.0001V76.439H72.1151V95.0001H74.1151ZM0 96.0001H73.1151V94.0001H0V96.0001ZM-1 76.439V95.0001H1V76.439H-1ZM5.95841 68.5786C2.09378 69.0432 -1 72.5458 -1 76.439H1C1 73.5536 3.342 70.9076 6.19713 70.5643L5.95841 68.5786ZM24.3278 66.3703L5.95841 68.5786L6.19713 70.5643L24.5665 68.356L24.3278 66.3703ZM23.4471 61.374V67.3631H25.4471V61.374H23.4471ZM22.616 60.9504C22.988 61.3462 23.3691 61.7297 23.7588 62.0995L25.1354 60.6486C24.7742 60.3059 24.42 59.9496 24.0734 59.5808L22.616 60.9504ZM20.4456 58.3703C21.1287 59.2753 21.8535 60.139 22.616 60.9504L24.0734 59.5808C23.3626 58.8245 22.684 58.0161 22.0418 57.1653L20.4456 58.3703Z" fill="#222222" mask="url(#path-9-inside-1_973_4022)"/>
<path d="M68.9043 33.6865C78.2066 33.6865 85.7476 26.1455 85.7476 16.8433C85.7476 7.54099 78.2066 0 68.9043 0C59.602 0 52.061 7.54099 52.061 16.8433C52.061 26.1455 59.602 33.6865 68.9043 33.6865Z" fill="#8CC93D"/>
<path d="M61.0538 20.3191L68.9671 24.9862L75.1241 9.08923" stroke="white" stroke-width="6.39613" stroke-linecap="round" stroke-linejoin="round"/>
</svg>
