<svg width="89" height="92" viewBox="0 0 89 92" fill="none" xmlns="http://www.w3.org/2000/svg">
<g clip-path="url(#clip0_973_4042)">
<path d="M44.5 91L43.319 90.5717C31.4849 86.2806 20.8512 76.7772 13.3771 63.8129C5.78165 50.6383 1.76709 34.8547 1.76709 18.1691V14.7044H5.23201C27.4144 14.7044 41.035 7.30489 41.035 2H47.9647C47.9647 7.30489 61.5854 14.7044 83.7679 14.7044H87.2328V18.1693C87.2328 34.8551 83.2183 50.6385 75.6228 63.8131C68.1488 76.7774 57.515 86.2807 45.6809 90.5719L44.5 91Z" fill="#8CC93D"/>
<path d="M83.7681 14.7044C61.5856 14.7044 47.9649 7.30489 47.9649 2H44.5V91L45.681 90.5717C57.515 86.2806 68.1488 76.7772 75.6229 63.8129C83.2183 50.6383 87.2329 34.8547 87.2329 18.1691V14.7044H83.7681Z" fill="#6FAC20"/>
<mask id="path-3-outside-1_973_4042" maskUnits="userSpaceOnUse" x="0.76709" y="1" width="88" height="92" fill="black">
<rect fill="white" x="0.76709" y="1" width="88" height="92"/>
<path fill-rule="evenodd" clip-rule="evenodd" d="M43.319 90.5717L44.5 91L44.6024 90.9629L45.6809 90.5719C56.7754 86.5489 66.8148 77.9449 74.1849 66.2029C74.6762 65.4201 75.1557 64.6234 75.6228 63.8131C76.5723 62.1663 77.4657 60.4787 78.3024 58.7537C84.1592 46.6785 87.2328 32.7694 87.2328 18.1693C87.2328 18.1693 87.2329 18.1692 87.2329 18.1691L87.2328 14.7044H83.7681C83.7681 14.7044 83.768 14.7044 83.7679 14.7044C76.8958 14.7044 70.8454 13.9942 65.7671 12.8562C54.4534 10.3207 47.9649 5.66141 47.9649 2H47.9647H44.5H41.035C41.035 7.30489 27.4144 14.7044 5.23201 14.7044H1.76709V18.1691C1.76709 34.8547 5.78165 50.6383 13.3771 63.8129C20.8512 76.7772 31.4849 86.2806 43.319 90.5717Z"/>
</mask>
<path d="M44.5 91L44.159 91.9401L44.4999 92.0637L44.8408 91.9401L44.5 91ZM43.319 90.5717L43.6599 89.6316L43.6599 89.6316L43.319 90.5717ZM44.6024 90.9629L44.2616 90.0227L44.2616 90.0227L44.6024 90.9629ZM45.6809 90.5719L46.0218 91.512L46.0218 91.512L45.6809 90.5719ZM74.1849 66.2029L73.3379 65.6713L73.3379 65.6713L74.1849 66.2029ZM75.6228 63.8131L74.7565 63.3136L75.6228 63.8131ZM78.3024 58.7537L77.4027 58.3173L78.3024 58.7537ZM87.2329 18.1691H88.2329V18.1691L87.2329 18.1691ZM87.2328 14.7044L88.2328 14.7044L88.2328 13.7044H87.2328V14.7044ZM65.7671 12.8562L65.5484 13.832L65.5484 13.832L65.7671 12.8562ZM47.9649 2H48.9649V1H47.9649V2ZM41.035 2V1H40.035V2H41.035ZM1.76709 14.7044V13.7044H0.76709V14.7044H1.76709ZM13.3771 63.8129L14.2434 63.3135L14.2434 63.3135L13.3771 63.8129ZM44.8409 90.0599L43.6599 89.6316L42.978 91.5118L44.159 91.9401L44.8409 90.0599ZM44.2616 90.0227L44.1591 90.0599L44.8408 91.9401L44.9432 91.903L44.2616 90.0227ZM45.3401 89.6317L44.2616 90.0227L44.9432 91.903L46.0218 91.512L45.3401 89.6317ZM73.3379 65.6713C66.064 77.2601 56.1887 85.698 45.3401 89.6318L46.0218 91.512C57.3621 87.3999 67.5657 78.6298 75.0319 66.7346L73.3379 65.6713ZM74.7565 63.3136C74.2956 64.1131 73.8226 64.8992 73.3379 65.6713L75.0319 66.7346C75.5299 65.9411 76.0158 65.1336 76.4892 64.3126L74.7565 63.3136ZM77.4027 58.3173C76.5762 60.0212 75.6939 61.6877 74.7565 63.3136L76.4892 64.3126C77.4507 62.6448 78.3553 60.9362 79.2022 59.1901L77.4027 58.3173ZM86.2328 18.1693C86.2328 32.6307 83.1882 46.389 77.4027 58.3173L79.2022 59.1901C85.1301 46.9681 88.2328 32.908 88.2328 18.1693H86.2328ZM88.2328 18.1693C88.2328 18.2358 88.2262 18.2937 88.2181 18.3405C88.21 18.3869 88.1999 18.4254 88.1916 18.4534C88.1874 18.4676 88.1834 18.48 88.1799 18.4902C88.1765 18.5004 88.1734 18.5091 88.1709 18.5156C88.1685 18.5221 88.1665 18.5274 88.1653 18.5305C88.1642 18.5333 88.1633 18.5358 88.1634 18.5354C88.1634 18.5354 88.1634 18.5354 88.1634 18.5353C88.1634 18.5353 88.1634 18.5353 88.1634 18.5353C88.1634 18.5353 88.1634 18.5353 88.1634 18.5353C88.1635 18.5352 88.1635 18.5351 88.1635 18.535C88.1636 18.5349 88.1637 18.5345 88.1639 18.5341C88.1642 18.5333 88.1647 18.5321 88.1653 18.5305C88.1665 18.5273 88.1685 18.5221 88.171 18.5156C88.1734 18.509 88.1765 18.5004 88.18 18.4902C88.1834 18.4799 88.1874 18.4675 88.1917 18.4533C88.2 18.4253 88.21 18.3868 88.2181 18.3403C88.2262 18.2936 88.2329 18.2356 88.2329 18.1691H86.2329C86.2329 18.1027 86.2395 18.0448 86.2476 17.998C86.2557 17.9515 86.2658 17.9131 86.2741 17.8851C86.2783 17.8709 86.2823 17.8585 86.2858 17.8482C86.2892 17.838 86.2923 17.8294 86.2948 17.8228C86.2972 17.8163 86.2992 17.8111 86.3004 17.808C86.3015 17.8051 86.3024 17.8027 86.3023 17.8031C86.3023 17.8031 86.3023 17.8031 86.3023 17.8031C86.3023 17.8031 86.3023 17.8031 86.3023 17.8031C86.3023 17.8031 86.3023 17.8032 86.3023 17.8032C86.3022 17.8032 86.3022 17.8033 86.3022 17.8034C86.3021 17.8036 86.302 17.8039 86.3018 17.8043C86.3015 17.8051 86.301 17.8064 86.3004 17.808C86.2992 17.8111 86.2971 17.8164 86.2947 17.8229C86.2923 17.8294 86.2892 17.8381 86.2857 17.8483C86.2823 17.8585 86.2783 17.871 86.274 17.8852C86.2657 17.9132 86.2557 17.9516 86.2476 17.9981C86.2395 18.0449 86.2328 18.1028 86.2328 18.1693H88.2328ZM88.2329 18.1691L88.2328 14.7044L86.2328 14.7044L86.2329 18.1692L88.2329 18.1691ZM87.2328 13.7044H83.7681V15.7044H87.2328V13.7044ZM83.7681 13.7044H83.7681C83.7681 13.7044 83.7681 13.7044 83.7681 13.7044C83.7681 13.7044 83.7681 13.7044 83.7681 13.7044H83.7681C83.7681 13.7044 83.7681 13.7044 83.7681 13.7044H83.7681C83.7681 13.7044 83.7681 13.7044 83.7681 13.7044C83.7681 13.7044 83.7681 13.7044 83.7681 13.7044H83.7681H83.7681C83.768 13.7044 83.768 13.7044 83.768 13.7044C83.768 13.7044 83.768 13.7044 83.768 13.7044C83.768 13.7044 83.768 13.7044 83.768 13.7044C83.768 13.7044 83.768 13.7044 83.768 13.7044C83.768 13.7044 83.768 13.7044 83.768 13.7044C83.768 13.7044 83.768 13.7044 83.768 13.7044C83.768 13.7044 83.768 13.7044 83.768 13.7044C83.768 13.7044 83.768 13.7044 83.768 13.7044C83.768 13.7044 83.768 13.7044 83.768 13.7044H83.768H83.768C83.768 13.7044 83.768 13.7044 83.768 13.7044C83.768 13.7044 83.768 13.7044 83.768 13.7044H83.7679C83.7679 13.7044 83.7679 13.7044 83.7679 13.7044H83.7679C83.7679 13.7044 83.7679 13.7044 83.7679 13.7044C83.7679 13.7044 83.7679 13.7044 83.7679 13.7044H83.7679V15.7044H83.7679C83.7679 15.7044 83.7679 15.7044 83.7679 15.7044C83.7679 15.7044 83.7679 15.7044 83.7679 15.7044H83.7679C83.7679 15.7044 83.7679 15.7044 83.7679 15.7044H83.768C83.768 15.7044 83.768 15.7044 83.768 15.7044C83.768 15.7044 83.768 15.7044 83.768 15.7044H83.768H83.768C83.768 15.7044 83.768 15.7044 83.768 15.7044C83.768 15.7044 83.768 15.7044 83.768 15.7044C83.768 15.7044 83.768 15.7044 83.768 15.7044C83.768 15.7044 83.768 15.7044 83.768 15.7044C83.768 15.7044 83.768 15.7044 83.768 15.7044C83.768 15.7044 83.768 15.7044 83.768 15.7044C83.768 15.7044 83.768 15.7044 83.768 15.7044C83.768 15.7044 83.768 15.7044 83.768 15.7044C83.768 15.7044 83.768 15.7044 83.7681 15.7044H83.7681H83.7681C83.7681 15.7044 83.7681 15.7044 83.7681 15.7044C83.7681 15.7044 83.7681 15.7044 83.7681 15.7044H83.7681C83.7681 15.7044 83.7681 15.7044 83.7681 15.7044H83.7681C83.7681 15.7044 83.7681 15.7044 83.7681 15.7044C83.7681 15.7044 83.7681 15.7044 83.7681 15.7044H83.7681V13.7044ZM65.5484 13.832C70.7039 14.9873 76.828 15.7044 83.7679 15.7044V13.7044C76.9635 13.7044 70.9868 13.0011 65.9858 11.8804L65.5484 13.832ZM65.9858 11.8804C60.4064 10.63 56.0731 8.86722 53.1617 7.00756C51.7052 6.07722 50.6354 5.14228 49.9395 4.26354C49.2403 3.38071 48.9649 2.61614 48.9649 2H46.9649C46.9649 3.21457 47.5006 4.40544 48.3716 5.50523C49.2458 6.60911 50.5053 7.68397 52.0851 8.69307C55.2463 10.7123 59.8141 12.5469 65.5484 13.832L65.9858 11.8804ZM47.9649 1H47.9647V3H47.9649V1ZM47.9647 1H44.5V3H47.9647V1ZM41.035 3H44.5V1H41.035V3ZM5.23201 15.7044C16.4263 15.7044 25.5091 13.8384 31.8287 11.2678C34.9846 9.98412 37.4893 8.50927 39.2237 6.97126C40.9304 5.45777 42.035 3.74989 42.035 2H40.035C40.035 2.90255 39.4371 4.10894 37.8967 5.47487C36.3841 6.81626 34.0972 8.18595 31.0751 9.41523C25.0388 11.8706 16.2201 13.7044 5.23201 13.7044V15.7044ZM1.76709 15.7044H5.23201V13.7044H1.76709V15.7044ZM2.76709 18.1691V14.7044H0.76709V18.1691H2.76709ZM14.2434 63.3135C6.74391 50.3053 2.76709 34.6969 2.76709 18.1691H0.76709C0.76709 35.0125 4.81939 50.9714 12.5107 64.3124L14.2434 63.3135ZM43.6599 89.6316C32.0876 85.4354 21.623 76.1139 14.2434 63.3135L12.5107 64.3124C20.0793 77.4405 30.8822 87.1257 42.9781 91.5118L43.6599 89.6316Z" fill="#222222" mask="url(#path-3-outside-1_973_4042)"/>
<path d="M57.2047 29.7186C50.8525 29.7186 50.8525 30.8735 44.5003 30.8735C38.1481 30.8735 38.1481 29.7186 31.7959 29.7186C27.9689 29.7186 24.8662 32.8213 24.8662 36.6483V50.5076C24.8662 55.1274 31.7959 58.0147 31.7959 62.6345C31.7959 66.1431 34.6399 68.9867 38.1481 68.9867C41.6561 68.9867 44.5003 66.1431 44.5003 62.6345C44.5003 66.1431 47.3443 68.9867 50.8525 68.9867C54.3605 68.9867 57.2047 66.1431 57.2047 62.6345C57.2047 58.0147 64.1343 55.1274 64.1343 50.5076V36.6483C64.1343 32.8213 61.0317 29.7186 57.2047 29.7186Z" fill="#F7F7FC"/>
<path d="M57.2044 29.7186C50.8522 29.7186 50.8522 30.8735 44.5 30.8735V62.6345C44.5 66.1431 47.344 68.9867 50.8522 68.9867C54.3602 68.9867 57.2044 66.1431 57.2044 62.6345C57.2044 58.0147 64.1341 55.1274 64.1341 50.5076V36.6483C64.1341 32.8213 61.0314 29.7186 57.2044 29.7186Z" fill="#DBECF6"/>
</g>
<defs>
<clipPath id="clip0_973_4042">
<rect width="89" height="92" fill="white"/>
</clipPath>
</defs>
</svg>
