<svg width="53" height="101" viewBox="0 0 53 101" fill="none" xmlns="http://www.w3.org/2000/svg">
<path fill-rule="evenodd" clip-rule="evenodd" d="M14.464 30.6602C6.35203 30.6602 1 40.0386 1 51.6074C1 63.1763 6.35203 99.663 14.464 99.663C19.1962 99.663 19.7337 69.3631 26.0919 69.3357C33.6742 69.3631 32.9877 99.663 37.7199 99.663C45.8319 99.663 51.1839 63.1763 51.1839 51.6074C51.1839 40.0386 45.8319 30.6602 37.7199 30.6602C33.8439 30.6602 29.9679 34.3567 26.0919 34.3567C22.216 34.3567 18.34 30.6602 14.464 30.6602Z" fill="#7EB3FF"/>
<path d="M26.0919 38.5014C39.9498 38.5014 51.1839 34.9908 51.1839 30.6602C51.1839 26.3296 39.9498 22.819 26.0919 22.819C12.234 22.819 1 26.3296 1 30.6602C1 34.9908 12.234 38.5014 26.0919 38.5014Z" fill="#FF6B6B"/>
<path d="M1.41603 14.7003L0.5 13.3263V14.9777V51.0473V51.3917L0.821689 51.5145L1 51.0473C0.821689 51.5145 0.821813 51.5145 0.821985 51.5146L0.822568 51.5148L0.824591 51.5156L0.832058 51.5184L0.86054 51.5291C0.885502 51.5385 0.92235 51.5523 0.970701 51.5701C1.0674 51.6059 1.21012 51.658 1.39578 51.7241C1.76711 51.8564 2.31031 52.0449 3.00086 52.2708C4.38177 52.7226 6.35293 53.3246 8.71792 53.9264C13.4436 55.129 19.7612 56.3364 26.0919 56.3364C32.4227 56.3364 38.7403 55.129 43.466 53.9264C45.831 53.3246 47.8021 52.7226 49.183 52.2708C49.8736 52.0449 50.4168 51.8564 50.7881 51.7241C50.9738 51.658 51.1165 51.6059 51.2132 51.5701C51.2615 51.5523 51.2984 51.5385 51.3233 51.5291L51.3518 51.5184L51.3593 51.5156L51.3613 51.5148L51.3619 51.5146C51.3621 51.5145 51.3622 51.5145 51.1839 51.0473L51.3622 51.5145L51.6839 51.3917V51.0473V14.9777V13.3263L50.7679 14.7003L38.6379 32.8952L26.508 14.7003L26.0919 14.0763L25.6759 14.7003L13.546 32.8952L1.41603 14.7003Z" fill="#FFD93D" stroke="#222222"/>
<mask id="path-4-outside-1_973_4050" maskUnits="userSpaceOnUse" x="0" y="13.9777" width="53" height="87" fill="black">
<rect fill="white" y="13.9777" width="53" height="87"/>
<path fill-rule="evenodd" clip-rule="evenodd" d="M7.86282 25.2719L1 14.9777V30.6602V51.0473C1 51.0473 1.0014 51.0479 1.00417 51.0489C1.00139 51.2345 1 51.4207 1 51.6074C1 63.1763 6.35203 99.663 14.464 99.663C16.6562 99.663 17.9482 93.1605 19.3357 86.1774C20.9434 78.0865 22.6792 69.3504 26.0919 69.3357C30.3272 69.351 31.9826 78.8116 33.4435 87.1608C34.598 93.7589 35.631 99.663 37.7199 99.663C45.8319 99.663 51.1839 63.1763 51.1839 51.6074C51.1839 51.4207 51.1825 51.2345 51.1797 51.0489C51.1825 51.0479 51.1839 51.0473 51.1839 51.0473V30.6602V14.9777L44.3211 25.2719C40.9162 24.1474 36.4573 23.3377 31.4384 22.9974L26.0919 14.9777L20.7455 22.9974C15.7266 23.3377 11.2677 24.1474 7.86282 25.2719Z"/>
</mask>
<path d="M1 14.9777L1.83205 14.423C1.58761 14.0563 1.13197 13.8929 0.710216 14.0206C0.288457 14.1483 0 14.537 0 14.9777H1ZM7.86282 25.2719L7.03077 25.8266C7.28034 26.2009 7.74919 26.3625 8.17642 26.2214L7.86282 25.2719ZM1 51.0473H0C0 51.4618 0.25563 51.8332 0.642704 51.9813L1 51.0473ZM1.00417 51.0489L2.00406 51.0639C2.01036 50.6429 1.75232 50.2631 1.35864 50.1138L1.00417 51.0489ZM19.3357 86.1774L20.3165 86.3723L19.3357 86.1774ZM26.0919 69.3357L26.0956 68.3357L26.0876 68.3357L26.0919 69.3357ZM33.4435 87.1608L34.4285 86.9885L33.4435 87.1608ZM51.1797 51.0489L50.8249 50.114C50.4314 50.2633 50.1735 50.643 50.1798 51.0639L51.1797 51.0489ZM51.1839 51.0473L51.5412 51.9813C51.9282 51.8333 52.1839 51.4618 52.1839 51.0473H51.1839ZM51.1839 14.9777H52.1839C52.1839 14.537 51.8954 14.1483 51.4737 14.0206C51.0519 13.8929 50.5963 14.0563 50.3518 14.423L51.1839 14.9777ZM44.3211 25.2719L44.0075 26.2214C44.4347 26.3625 44.9035 26.2009 45.1531 25.8266L44.3211 25.2719ZM31.4384 22.9974L30.6064 23.5521C30.7786 23.8104 31.061 23.9741 31.3707 23.9951L31.4384 22.9974ZM26.0919 14.9777L26.924 14.423C26.7385 14.1448 26.4263 13.9777 26.0919 13.9777C25.7576 13.9777 25.4454 14.1448 25.2599 14.423L26.0919 14.9777ZM20.7455 22.9974L20.8131 23.9951C21.1229 23.9741 21.4053 23.8104 21.5775 23.5521L20.7455 22.9974ZM0.16795 15.5324L7.03077 25.8266L8.69487 24.7172L1.83205 14.423L0.16795 15.5324ZM2 30.6602V14.9777H0V30.6602H2ZM2 51.0473V30.6602H0V51.0473H2ZM1.35864 50.1138C1.35773 50.1135 1.35716 50.1133 1.35693 50.1132C1.35682 50.1132 1.35679 50.1131 1.35685 50.1132C1.35688 50.1132 1.35694 50.1132 1.35701 50.1132C1.35705 50.1132 1.35709 50.1133 1.35714 50.1133C1.35716 50.1133 1.35719 50.1133 1.35721 50.1133C1.35723 50.1133 1.35724 50.1133 1.35725 50.1133C1.35726 50.1133 1.35727 50.1133 1.35727 50.1133C1.35728 50.1133 1.35728 50.1133 1.35728 50.1133C1.35729 50.1133 1.35729 50.1133 1.35729 50.1133C1.35729 50.1133 1.3573 50.1133 1 51.0473C0.642704 51.9813 0.642707 51.9813 0.64271 51.9813C0.642711 51.9813 0.642713 51.9813 0.642715 51.9813C0.642719 51.9813 0.642723 51.9813 0.642726 51.9813C0.642734 51.9813 0.642742 51.9813 0.642749 51.9813C0.642764 51.9813 0.64278 51.9813 0.642796 51.9814C0.642828 51.9814 0.642861 51.9814 0.642896 51.9814C0.642966 51.9814 0.643041 51.9814 0.643121 51.9815C0.643282 51.9815 0.643465 51.9816 0.643669 51.9817C0.644078 51.9818 0.644575 51.982 0.645159 51.9823C0.646326 51.9827 0.647843 51.9833 0.649706 51.984L1.35864 50.1138ZM0.00428551 51.0339C0.00143206 51.2245 0 51.4157 0 51.6074H2C2 51.4257 2.00136 51.2445 2.00406 51.0639L0.00428551 51.0339ZM0 51.6074C0 57.483 1.35048 69.5718 3.71389 80.1908C4.89537 85.4993 6.34279 90.5008 8.02816 94.1961C8.8691 96.04 9.79402 97.6147 10.8147 98.7434C11.8296 99.8656 13.049 100.663 14.464 100.663V98.663C13.851 98.663 13.1286 98.3202 12.2981 97.4019C11.4735 96.49 10.6494 95.1237 9.84784 93.3662C8.24822 89.8588 6.83664 85.0156 5.66612 79.7563C3.32553 69.2398 2 57.3008 2 51.6074H0ZM14.464 100.663C15.5557 100.663 16.308 99.8564 16.8019 99.0695C17.3235 98.2385 17.7644 97.1075 18.1572 95.8335C18.9463 93.2746 19.6265 89.845 20.3165 86.3723L18.3549 85.9825C17.6574 89.4929 16.9979 92.8061 16.246 95.2442C15.8684 96.4688 15.4885 97.3998 15.1079 98.0063C14.6997 98.6567 14.4684 98.663 14.464 98.663V100.663ZM20.3165 86.3723C21.1244 82.3064 21.9483 78.1684 22.986 75.0431C23.5062 73.4762 24.0566 72.2395 24.64 71.4117C25.2324 70.5711 25.7206 70.3373 26.0963 70.3357L26.0876 68.3357C24.7569 68.3414 23.7483 69.2052 23.0052 70.2596C22.2531 71.3268 21.6291 72.7825 21.0879 74.4129C20.0025 77.682 19.1547 81.9575 18.3549 85.9825L20.3165 86.3723ZM26.0883 70.3357C26.7204 70.338 27.3573 70.6773 28.0253 71.5577C28.7004 72.4474 29.3085 73.7703 29.8585 75.4365C30.9566 78.7632 31.7239 83.1355 32.4584 87.3332L34.4285 86.9885C33.7021 82.8369 32.9113 78.3043 31.7577 74.8096C31.1818 73.0651 30.4907 71.4982 29.6186 70.3488C28.7394 69.1901 27.5811 68.3411 26.0956 68.3357L26.0883 70.3357ZM32.4584 87.3332C33.0321 90.6119 33.5884 93.799 34.2705 96.1634C34.6098 97.3399 35.0012 98.3903 35.4838 99.1658C35.9477 99.9111 36.6655 100.663 37.7199 100.663V98.663C37.7129 98.663 37.6752 98.6656 37.5871 98.5989C37.487 98.5232 37.3472 98.3748 37.1818 98.109C36.8471 97.5712 36.5164 96.7333 36.1921 95.609C35.5468 93.3719 35.0093 90.3079 34.4285 86.9885L32.4584 87.3332ZM37.7199 100.663C39.1349 100.663 40.3543 99.8656 41.3692 98.7434C42.3899 97.6147 43.3148 96.04 44.1557 94.1961C45.8411 90.5008 47.2885 85.4993 48.47 80.1908C50.8334 69.5718 52.1839 57.483 52.1839 51.6074H50.1839C50.1839 57.3008 48.8584 69.2398 46.5178 79.7563C45.3472 85.0156 43.9357 89.8588 42.336 93.3662C41.5345 95.1237 40.7104 96.49 39.8858 97.4019C39.0553 98.3202 38.3329 98.663 37.7199 98.663V100.663ZM52.1839 51.6074C52.1839 51.4157 52.1824 51.2245 52.1796 51.034L50.1798 51.0639C50.1825 51.2445 50.1839 51.4257 50.1839 51.6074H52.1839ZM51.1839 51.0473C50.8266 50.1133 50.8266 50.1133 50.8266 50.1133C50.8266 50.1133 50.8266 50.1133 50.8266 50.1133C50.8266 50.1133 50.8266 50.1133 50.8266 50.1133C50.8266 50.1133 50.8266 50.1133 50.8267 50.1133C50.8267 50.1133 50.8267 50.1133 50.8267 50.1133C50.8267 50.1133 50.8267 50.1133 50.8268 50.1133C50.8268 50.1133 50.8268 50.1132 50.8269 50.1132C50.8269 50.1132 50.827 50.1132 50.827 50.1132C50.827 50.1132 50.827 50.1132 50.8268 50.1133C50.8265 50.1134 50.8259 50.1136 50.8249 50.114L51.5345 51.9839C51.5363 51.9832 51.5377 51.9826 51.5389 51.9822C51.5394 51.982 51.5399 51.9818 51.5403 51.9817C51.5405 51.9816 51.5406 51.9815 51.5408 51.9815C51.5408 51.9814 51.5409 51.9814 51.541 51.9814C51.541 51.9814 51.541 51.9814 51.5411 51.9814C51.5411 51.9814 51.5411 51.9813 51.5411 51.9813C51.5411 51.9813 51.5411 51.9813 51.5411 51.9813C51.5411 51.9813 51.5411 51.9813 51.5411 51.9813C51.5411 51.9813 51.5411 51.9813 51.5411 51.9813C51.5411 51.9813 51.5412 51.9813 51.1839 51.0473ZM50.1839 30.6602V51.0473H52.1839V30.6602H50.1839ZM50.1839 14.9777V30.6602H52.1839V14.9777H50.1839ZM45.1531 25.8266L52.0159 15.5324L50.3518 14.423L43.489 24.7172L45.1531 25.8266ZM44.6347 24.3223C41.1295 23.1647 36.5837 22.344 31.5061 21.9996L31.3707 23.9951C36.3308 24.3314 40.7028 25.13 44.0075 26.2214L44.6347 24.3223ZM25.2599 15.5324L30.6064 23.5521L32.2705 22.4427L26.924 14.423L25.2599 15.5324ZM21.5775 23.5521L26.924 15.5324L25.2599 14.423L19.9134 22.4427L21.5775 23.5521ZM20.6778 21.9996C15.6001 22.344 11.0544 23.1647 7.54921 24.3223L8.17642 26.2214C11.4811 25.13 15.8531 24.3314 20.8131 23.9951L20.6778 21.9996Z" fill="#222222" mask="url(#path-4-outside-1_973_4050)"/>
<path d="M26.092 8.84123V1M13.546 8.84123L8.84125 1" stroke="#222222" stroke-linecap="round"/>
<path d="M38.6379 8.84123L43.3427 1" stroke="#222222" stroke-linecap="round"/>
</svg>
