<svg width="56" height="49" viewBox="0 0 56 49" fill="none" xmlns="http://www.w3.org/2000/svg">
<path d="M26.406 49C21.6457 49 12.1112 47.5107 8.77796 45.6751C3.31003 42.664 -0.368022 31.3016 0.0293261 25.4126C0.350931 20.6449 4.46909 15.0842 7.87734 12.176C11.7372 8.88255 15.2753 8.91389 18.2987 9.03936C21.3221 9.16483 21.8368 8.38066 21.7724 6.8751C21.7081 5.36953 21.2256 4.36576 20.0034 4.02079C18.7812 3.67572 17.9449 3.55025 17.2372 3.01702C16.8717 2.74154 16.5968 2.3485 16.6261 2.07603C16.6261 1.66827 17.0756 1.7047 17.5267 1.95056C18.6204 2.54657 19.1349 2.4211 20.132 2.04468C21.1291 1.66827 22.3193 1.88787 23.5415 2.32697C24.7637 2.76616 24.6602 1.73278 24.4029 1.13677C24.1456 0.540845 23.9596 0.0703961 24.4742 0.00761503C24.9889 -0.0550752 25.0853 0.289903 26.6293 0.289903C28.1732 0.289903 28.2073 -0.0550752 28.7219 0.00761503C29.2365 0.0703961 29.0505 0.540845 28.7932 1.13677C28.5359 1.73278 28.4325 2.76616 29.6547 2.32697C30.8769 1.88787 32.067 1.66827 33.0641 2.04468C34.0612 2.4211 34.5758 2.54657 35.6694 1.95056C36.1206 1.7047 36.57 1.66827 36.57 2.07603C36.5993 2.3485 36.3245 2.74154 35.9589 3.01702C35.2513 3.55025 34.4149 3.67572 33.1927 4.02079C31.9705 4.36576 31.488 5.36953 31.4237 6.8751C31.3594 8.38066 31.874 9.16483 34.8974 9.03936C37.4774 8.93234 40.432 8.89372 43.6414 10.931C43.2017 11.242 42.8266 11.6345 42.5393 12.0857C42.1301 11.9922 41.7036 11.9427 41.2653 11.9427C38.5182 11.9427 36.2361 13.8837 35.7822 16.4361C33.2189 16.9212 31.2836 19.122 31.2836 21.7637C31.2836 22.5265 31.4449 23.2524 31.736 23.9109C30.3067 24.8932 29.373 26.5155 29.373 28.3504C29.373 30.2147 30.3368 31.8595 31.8051 32.8366C31.4219 33.5732 31.2059 34.4065 31.2059 35.2891C31.2059 37.9664 33.1937 40.1909 35.8087 40.6355C36.3547 43.0738 38.5815 44.8993 41.2456 44.8993C41.7561 44.8993 42.2504 44.8324 42.7199 44.7068C43.0132 45.193 43.4069 45.6146 43.8732 45.9445C40.1109 47.6308 30.9296 49 26.406 49Z" fill="#00599B"/>
<path d="M37.8592 43.7789C35.139 44.3623 32.3138 44.6726 29.4138 44.6726C18.1838 44.6726 8.05982 40.0597 0.921436 32.6723C0.222514 29.9842 -0.104122 27.3899 0.0292899 25.4126C0.350895 20.6449 4.46906 15.0842 7.87731 12.176C11.7371 8.88255 15.2752 8.91389 18.2986 9.03936C21.3221 9.16483 21.8367 8.38066 21.7724 6.8751C21.7081 5.36953 21.2256 4.36576 20.0034 4.02079C18.7811 3.67572 17.9449 3.55025 17.2372 3.01702C16.8716 2.74154 16.5968 2.3485 16.626 2.07603C16.626 1.66827 17.0756 1.7047 17.5267 1.95056C18.6203 2.54657 19.1349 2.4211 20.132 2.04468C21.1291 1.66827 22.3192 1.88787 23.5415 2.32697C24.7637 2.76616 24.6602 1.73278 24.4029 1.13677C24.1456 0.540845 23.9596 0.0703961 24.4741 0.00761503C24.9889 -0.0550752 25.0853 0.289903 26.6292 0.289903C28.1732 0.289903 28.2073 -0.0550752 28.7219 0.00761503C29.2365 0.0703961 29.0505 0.540845 28.7932 1.13677C28.5359 1.73278 28.4324 2.76616 29.6547 2.32697C30.8769 1.88787 32.067 1.66827 33.064 2.04468C34.0612 2.4211 34.5758 2.54657 35.6694 1.95056C36.1206 1.7047 36.57 1.66827 36.57 2.07603C36.5993 2.3485 36.3244 2.74154 35.9588 3.01702C35.2513 3.55025 34.4149 3.67572 33.1927 4.02079C31.9705 4.36576 31.488 5.36953 31.4237 6.8751C31.3594 8.38066 31.8739 9.16483 34.8974 9.03936C37.4773 8.93234 40.432 8.89372 43.6414 10.931C43.2017 11.242 42.8266 11.6345 42.5393 12.0857C42.1301 11.9922 41.7036 11.9427 41.2652 11.9427C38.5182 11.9427 36.2361 13.8837 35.7822 16.4361C33.2189 16.9212 31.2836 19.122 31.2836 21.7637C31.2836 22.5265 31.4448 23.2524 31.736 23.9109C30.3066 24.8932 29.3729 26.5155 29.3729 28.3504C29.3729 30.2147 30.3368 31.8595 31.8051 32.8366C31.4219 33.5732 31.2059 34.4065 31.2059 35.2891C31.2059 37.9664 33.1937 40.1909 35.8087 40.6355C36.0936 41.9076 36.836 43.0126 37.8592 43.7789Z" fill="#00B7DF"/>
<path fill-rule="evenodd" clip-rule="evenodd" d="M30.3813 25.2347C23.7753 21.6743 18.5731 15.9398 15.7924 9.01946C16.6616 8.97949 17.4984 9.00611 18.2991 9.03936C21.3225 9.16483 21.8372 8.38066 21.7728 6.8751C21.7085 5.36953 21.226 4.36576 20.0038 4.02079C18.7816 3.67572 17.9453 3.55025 17.2376 3.01702C16.872 2.74154 16.5972 2.3485 16.6265 2.07603C16.6265 1.66827 17.076 1.7047 17.5271 1.95056C18.6208 2.54657 19.1353 2.4211 20.1324 2.04468C21.1295 1.66827 22.3197 1.88787 23.5419 2.32697C24.7641 2.76616 24.6606 1.73278 24.4033 1.13676C24.146 0.540845 23.96 0.0703961 24.4746 0.00761502C24.9893 -0.0550752 25.0857 0.289903 26.6297 0.289903C28.1736 0.289903 28.2077 -0.0550752 28.7223 0.00761502C29.2369 0.0703961 29.0509 0.540845 28.7936 1.13676C28.5363 1.73278 28.4329 2.76616 29.6551 2.32697C30.8773 1.88787 32.0674 1.66827 33.0645 2.04468C34.0616 2.4211 34.5762 2.54657 35.6698 1.95056C36.121 1.7047 36.5704 1.66827 36.5704 2.07603C36.5997 2.3485 36.3249 2.74154 35.9593 3.01702C35.2517 3.55025 34.4153 3.67572 33.1931 4.02079C31.9709 4.36576 31.4884 5.36953 31.4241 6.8751C31.3598 8.38066 31.8744 9.16483 34.8979 9.03936C37.4778 8.93233 40.4324 8.89372 43.6418 10.931C43.2021 11.242 42.827 11.6345 42.5397 12.0857C42.1305 11.9922 41.704 11.9427 41.2657 11.9427C38.5186 11.9427 36.2365 13.8837 35.7826 16.4361C33.2193 16.9212 31.284 19.122 31.284 21.7637C31.284 22.5265 31.4453 23.2524 31.7364 23.9109C31.2102 24.2725 30.7513 24.721 30.3813 25.2347Z" fill="#66D4EC"/>
<path d="M5.86808 29.177C5.82737 29.6715 4.94119 29.871 4.54486 29.871C3.3313 29.871 2.86035 28.9853 2.86035 27.9137C2.86035 26.8085 3.37425 25.873 4.61856 25.873C5.00631 25.873 5.81144 26.0624 5.85252 26.5411C5.85541 26.5742 5.85681 26.6157 5.85681 26.6654C5.85681 26.8191 5.81954 27.0569 5.60787 27.0569C5.38428 27.0569 5.17345 26.6526 4.61045 26.6526C3.91432 26.6526 3.78455 27.3425 3.78455 27.8794C3.78455 28.4423 3.92485 29.0759 4.6261 29.0759C5.16394 29.0759 5.42937 28.6405 5.6389 28.6405C5.8597 28.6405 5.87237 28.8994 5.87237 29.0549C5.87237 29.1018 5.87088 29.1425 5.86808 29.177ZM26.7505 29.6977C26.674 29.8252 26.4601 29.8244 26.3296 29.8244C26.154 29.8244 25.8814 29.8161 25.8814 29.5813V28.2696H25.6419C25.1196 28.2696 24.9712 28.4602 24.793 28.922L24.5101 29.5898C24.4176 29.8256 24.2259 29.8244 24.0008 29.8244C23.8385 29.8244 23.5713 29.8237 23.5713 29.6003C23.5713 29.5097 23.6556 29.3366 23.6902 29.2588L23.9694 28.6179C24.0687 28.3963 24.2101 28.1826 24.4041 28.0286C23.9949 27.862 23.7697 27.5369 23.7697 27.0948C23.7697 26.1662 24.702 25.8963 25.4919 25.8963L25.7099 25.9002L25.965 25.9118L26.2193 25.929L26.4323 25.9463C26.6504 25.9675 26.7817 26.1238 26.7817 26.3333V29.5812C26.7817 29.6203 26.7727 29.6605 26.7505 29.6977ZM25.7195 26.6271C25.6238 26.6234 25.5355 26.6216 25.455 26.6216C25.0975 26.6216 24.67 26.6668 24.67 27.1022C24.67 27.5362 25.1491 27.56 25.4858 27.56H25.8814V26.6379C25.8283 26.6328 25.7743 26.6293 25.7195 26.6271ZM20.0989 28.2504C20.1365 28.1975 20.1755 28.1452 20.2164 28.0932L21.7128 26.0848C21.8269 25.9352 21.9668 25.9237 22.1456 25.9237C22.3197 25.9237 22.561 25.939 22.561 26.167V29.5851C22.561 29.8133 22.2834 29.8244 22.1146 29.8244C21.9455 29.8244 21.6605 29.814 21.6605 29.585V27.6176L21.6624 27.4704L21.5106 27.6759L20.0287 29.6637L19.9753 29.7224C19.8845 29.8186 19.7414 29.8244 19.6168 29.8244C19.4487 29.8244 19.1996 29.8057 19.1996 29.585V26.1591C19.1996 25.926 19.4716 25.9197 19.644 25.9197C19.807 25.9197 20.1 25.9287 20.1 26.1591V28.1379L20.0989 28.2504ZM14.5514 30.9337C14.4829 31.0345 14.3041 31.0449 14.1936 31.0449C14.0378 31.0449 13.7873 31.0274 13.7873 30.8209V29.3021C13.7873 29.1136 13.8719 29.0215 14.0679 29.0215H14.2553C14.8147 28.3187 14.9535 27.1237 15.0505 26.273C15.0774 26.0868 15.166 25.943 15.3795 25.943H17.3148C17.5305 25.943 17.6408 26.0941 17.6408 26.2925V29.0215H17.9961C18.186 29.0215 18.2759 29.1181 18.2759 29.3021V30.8209C18.2759 31.0273 18.0348 31.0449 17.8773 31.0449C17.7226 31.0449 17.4787 31.0241 17.4787 30.8208V29.8011H14.5844V30.8208C14.5844 30.8559 14.5768 30.8965 14.5514 30.9337ZM15.8786 26.7071C15.7807 27.4267 15.6422 28.3994 15.2297 29.0215H16.7404V26.7071H15.8786ZM12.114 28.6334C12.2764 28.0358 12.9378 26.1391 12.9378 26.1391C13.0098 25.915 13.2027 25.9197 13.405 25.9197C13.5784 25.9197 13.8477 25.928 13.8477 26.1628C13.8477 26.212 13.8351 26.2659 13.8175 26.3177L12.5649 29.7181L12.0994 30.9771C12.0242 31.1734 11.7469 31.1848 11.5716 31.1848C11.3388 31.1848 11.0434 31.1235 11.1774 30.8178L11.622 29.7171C11.5908 29.6828 11.5591 29.6353 11.5453 29.5902L10.3038 26.3323C10.2816 26.2751 10.2646 26.2164 10.2646 26.1628C10.2646 25.924 10.5355 25.9197 10.7111 25.9197C10.9471 25.9197 11.1154 25.9058 11.2116 26.1497L12.114 28.6334ZM9.6162 26.4986C9.59672 26.6316 9.52024 26.7614 9.36521 26.7614H8.45024V29.5812C8.45024 29.8125 8.16953 29.8244 7.99811 29.8244C7.8252 29.8244 7.54989 29.8121 7.54989 29.5812V26.7614H6.63511C6.4117 26.7614 6.37499 26.5143 6.37499 26.3484C6.37499 26.1868 6.42074 25.943 6.6353 25.943H9.36493C9.58433 25.943 9.62523 26.1876 9.62523 26.3522C9.62523 26.4096 9.62207 26.4584 9.6162 26.4986Z" fill="white"/>
<path d="M46.0982 26.3324C46.7728 27.1111 47.5126 27.8211 49.6745 27.7626C50.2143 27.7479 51.7071 27.0457 52.6148 25.9314C56.8063 20.7853 51.0841 16.3129 46.4624 16.5648C41.2085 16.8514 36.6083 22.1547 35.7817 27.996C33.8227 41.8394 51.0086 39.8332 55.7054 31.8875C55.8446 31.652 55.877 31.6019 55.9939 31.3568C56.0392 31.2621 55.8202 31.2517 55.6964 31.2711C55.3474 31.3261 54.9781 31.4103 54.5688 31.8942C49.327 38.0903 38.3283 36.7095 38.5929 27.1237C38.6778 24.0545 40.0242 20.8774 42.0405 18.9239C43.385 17.6214 46.8414 18.3722 48.0172 18.8987C51.0223 20.2449 52.8412 23.7589 50.0618 26.89C49.9682 26.995 49.9605 27.0137 49.789 27.0059C47.893 26.8287 47.5704 24.898 47.4422 24.086C47.4059 23.8969 47.4078 23.7822 47.3466 23.7868C46.0046 23.6811 45.761 25.6496 45.9927 26.1695C46.0213 26.234 46.0465 26.2727 46.0982 26.3324Z" fill="#00B7DF"/>
</svg>
