<svg width="27" height="27" viewBox="0 0 27 27" fill="none" xmlns="http://www.w3.org/2000/svg">
<path d="M13.6785 21.5244C9.29474 21.5244 7.29048 19.3044 7.29048 17.675C7.2902 17.4827 7.32937 17.2923 7.4056 17.1156C7.48183 16.9389 7.59351 16.7795 7.73382 16.6471C7.87413 16.5148 8.04012 16.4123 8.22162 16.346C8.40313 16.2796 8.59634 16.2508 8.78943 16.2612C10.6674 16.2612 10.1771 19.0625 13.6785 19.0625C15.4696 19.0625 16.5217 17.99 16.5217 16.9812C16.5217 16.3775 16.1729 15.6875 14.9907 15.41L11.0803 14.4294C7.93909 13.6344 7.39041 11.8963 7.39041 10.2856C7.39041 6.93876 10.4675 5.72938 13.3975 5.72938C16.0937 5.72938 19.3028 7.21063 19.3028 9.21688C19.3028 10.0813 18.5769 10.5444 17.7341 10.5444C16.1314 10.5444 16.3992 8.30563 13.175 8.30563C11.5724 8.30563 10.7277 9.05188 10.7277 10.0981C10.7277 11.1444 11.9759 11.4988 13.0713 11.7369L15.9561 12.3838C19.1199 13.0925 19.9627 14.9394 19.9627 16.7056C19.9627 19.4244 17.8472 21.5244 13.6747 21.5244H13.6785ZM25.7869 15.7737C25.9114 15.0594 25.9755 14.3356 25.9736 13.6119C25.9813 11.8145 25.5923 10.0373 24.8338 8.40576C24.0754 6.77424 22.9661 5.32817 21.5842 4.16961C20.2023 3.01105 18.5815 2.16825 16.8363 1.70071C15.091 1.23317 13.2639 1.15229 11.4838 1.46376C10.3765 0.829788 9.12064 0.497365 7.84293 0.500016C6.55364 0.507711 5.28884 0.850832 4.17423 1.49527C3.05962 2.13971 2.13403 3.06303 1.48945 4.17344C0.844875 5.28386 0.503766 6.5427 0.500031 7.82484C0.496296 9.10698 0.830063 10.3678 1.46816 11.4819C1.11144 13.4313 1.23398 15.4377 1.82532 17.3299C2.41667 19.222 3.45929 20.944 4.86433 22.349C6.26937 23.754 7.99517 24.8003 9.89464 25.3988C11.7941 25.9973 13.8109 26.1302 15.7732 25.7862C16.8799 26.4201 18.1351 26.7525 19.4122 26.75C20.7005 26.7414 21.9641 26.3979 23.0777 25.7537C24.1912 25.1094 25.116 24.1867 25.7602 23.0772C26.4044 21.9677 26.7456 20.7099 26.75 19.4288C26.7543 18.1476 26.4217 16.8876 25.785 15.7737H25.7869Z" fill="#7EB3FF"/>
</svg>
