<svg width="17" height="17" viewBox="0 0 17 17" fill="none" xmlns="http://www.w3.org/2000/svg">
<path fill-rule="evenodd" clip-rule="evenodd" d="M8.02689 14.8566L4.34798 16.8778C3.85105 17.1508 3.23642 16.9511 2.97517 16.4318C2.87114 16.225 2.83524 15.9882 2.87303 15.7579L3.57564 11.477C3.6322 11.1324 3.52287 10.7808 3.28329 10.5367L0.306985 7.50496C-0.0950414 7.09544 -0.103268 6.42289 0.288611 6.00276C0.444659 5.83547 0.649129 5.7266 0.870367 5.693L4.98351 5.06843C5.31461 5.01815 5.60084 4.80084 5.74891 4.4873L7.58836 0.592399C7.83683 0.0662913 8.44637 -0.149715 8.94982 0.109934C9.1503 0.213328 9.31256 0.3829 9.41151 0.592399L11.251 4.4873C11.399 4.80084 11.6853 5.01815 12.0164 5.06843L16.1295 5.693C16.6851 5.77737 17.07 6.31642 16.9893 6.89702C16.9572 7.12821 16.853 7.34189 16.6929 7.50496L13.7166 10.5367C13.477 10.7808 13.3677 11.1324 13.4242 11.477L14.1268 15.7579C14.2217 16.3362 13.8501 16.8853 13.2968 16.9845C13.0764 17.024 12.8498 16.9865 12.6519 16.8778L8.97297 14.8566C8.67683 14.6939 8.32304 14.6939 8.02689 14.8566ZM7.20833 13.3666C8.01425 12.9239 8.98562 12.9239 9.79154 13.3666L12.2316 14.7072L11.7467 11.7523C11.6029 10.8761 11.8818 9.97902 12.5035 9.34579L14.6256 7.18412L11.7611 6.74916C10.8645 6.613 10.1011 6.0334 9.71377 5.21328L8.49993 2.64308L7.2861 5.21328C6.89878 6.0334 6.13539 6.613 5.23873 6.74916L2.37429 7.18412L4.49641 9.34579C5.11806 9.97902 5.397 10.8761 5.2532 11.7523L4.76822 14.7072L7.20833 13.3666Z" fill="#DA8300"/>
</svg>
