<svg width="32" height="32" viewBox="0 0 32 32" fill="none" xmlns="http://www.w3.org/2000/svg">
<path d="M31.6569 24.2686C30.4657 22.0164 26.3292 19.5744 26.1471 19.4676C25.6156 19.165 25.0609 19.0048 24.5418 19.0048C23.77 19.0048 23.1383 19.3584 22.7556 20.0016C22.1505 20.7254 21.4001 21.5714 21.218 21.7026C19.8085 22.659 18.7051 22.5504 17.4843 21.3294L10.6705 14.5141C9.45738 13.3008 9.34585 12.1836 10.2956 10.7816C10.4285 10.5982 11.2744 9.84711 11.9981 9.24135C12.4597 8.96665 12.7765 8.55845 12.9153 8.0577C13.0998 7.39142 12.9639 6.60766 12.5285 5.84407C12.4259 5.66845 9.98297 1.53073 7.73229 0.339965C7.31229 0.117475 6.83889 0 6.36432 0C5.58245 0 4.84686 0.30496 4.29397 0.857328L2.78838 2.36255C0.407185 4.74349 -0.454767 7.44244 0.225065 10.3841C0.792185 12.8356 2.4449 15.4444 5.13813 18.1374L13.8615 26.862C17.2701 30.2711 20.5198 32 23.5203 32C23.5203 32 23.5203 32 23.5209 32C25.7277 32 27.785 31.062 29.634 29.2126L31.139 27.7074C32.0538 26.7931 32.2614 25.4107 31.6569 24.2686Z" fill="#8CC93D"/>
</svg>
