<svg width="40" height="40" viewBox="0 0 40 40" fill="none" xmlns="http://www.w3.org/2000/svg">
<g clip-path="url(#clip0_973_2797)">
<path d="M35.6041 24.596C35.6041 24.596 38.8381 27.79 39.6381 29.268C39.6536 29.2893 39.6658 29.3129 39.6741 29.338C40.0001 29.884 40.0801 30.312 39.9201 30.628C39.6501 31.15 38.7361 31.412 38.4261 31.434H32.7101C32.3121 31.434 31.4841 31.33 30.4761 30.634C29.7061 30.096 28.9401 29.21 28.1981 28.344C27.0901 27.058 26.1321 25.942 25.1621 25.942C25.0395 25.9417 24.9179 25.962 24.8021 26.002C24.0681 26.234 23.1361 27.28 23.1361 30.066C23.1361 30.938 22.4481 31.434 21.9661 31.434H19.3481C18.4561 31.434 13.8121 31.122 9.69406 26.78C4.64806 21.464 0.116058 10.8 0.072058 10.706C-0.209942 10.016 0.382058 9.63998 1.02206 9.63998H6.79406C7.56806 9.63998 7.82006 10.108 7.99606 10.528C8.20006 11.01 8.95606 12.938 10.1961 15.104C12.2041 18.628 13.4381 20.062 14.4241 20.062C14.6093 20.0625 14.7914 20.0142 14.9521 19.922C16.2401 19.214 16.0001 14.614 15.9401 13.666C15.9401 13.482 15.9381 11.612 15.2781 10.708C14.8061 10.06 14.0021 9.80798 13.5161 9.71598C13.6461 9.52798 13.9221 9.23998 14.2761 9.06998C15.1581 8.62998 16.7521 8.56598 18.3341 8.56598H19.2121C20.9281 8.58998 21.3721 8.69998 21.9961 8.85798C23.2521 9.15798 23.2761 9.97198 23.1661 12.744C23.1341 13.536 23.1001 14.428 23.1001 15.478C23.1001 15.702 23.0901 15.952 23.0901 16.206C23.0521 17.628 23.0021 19.23 24.0061 19.888C24.1363 19.9691 24.2866 20.0121 24.4401 20.012C24.7881 20.012 25.8301 20.012 28.6561 15.162C29.8961 13.02 30.8561 10.494 30.9221 10.304C30.9781 10.198 31.1461 9.89998 31.3501 9.77998C31.4952 9.70277 31.6577 9.6642 31.8221 9.66798H38.6121C39.3521 9.66798 39.8541 9.77998 39.9521 10.06C40.1161 10.514 39.9201 11.9 36.8201 16.092C36.2981 16.79 35.8401 17.394 35.4381 17.922C32.6281 21.61 32.6281 21.796 35.6041 24.596Z" fill="#8CC93D"/>
</g>
<defs>
<clipPath id="clip0_973_2797">
<rect width="40" height="40" fill="white"/>
</clipPath>
</defs>
</svg>
