<svg width="60" height="60" viewBox="0 0 60 60" fill="none" xmlns="http://www.w3.org/2000/svg">
<path d="M59.438 24.1214C57.185 12.3266 47.6736 2.81517 35.8788 0.562123C14.7795 -3.46807 -3.46786 14.7793 0.562336 35.8786C2.8155 47.6733 12.3269 57.1848 24.1216 59.4378C45.2209 63.468 63.4682 45.2206 59.438 24.1214ZM43.9016 43.9013C43.1691 44.6338 42.2097 45 41.2502 45C40.2907 45 39.3312 44.6338 38.5988 43.9013L27.3488 32.6513C26.6457 31.9482 26.2502 30.9961 26.2502 30V15C26.2502 12.9272 27.9293 11.25 30.0002 11.25C32.0711 11.25 33.7502 12.9273 33.7502 15V28.4472L43.9016 38.5986C45.3664 40.0634 45.3664 42.4365 43.9016 43.9013Z" fill="#FFBE52"/>
</svg>
