<svg width="60" height="60" viewBox="0 0 60 60" fill="none" xmlns="http://www.w3.org/2000/svg">
<path d="M22.5168 26.491C26.6564 21.2124 33.0863 17.8199 40.3245 17.8199C41.4023 17.8199 42.4678 17.8934 43.5211 18.0403V13.2148C40.251 16.1542 31.7758 18.2485 21.8187 18.2485C11.9228 18.2485 3.47208 16.1787 0.165283 13.2516V19.461C1.81868 26.2338 22.2841 26.5033 22.5168 26.491Z" fill="#FFBE52"/>
<path d="M0.152994 24.3115L0.140747 30.6189C0.936828 34.1217 8.32201 36.9631 17.8872 37.5877C18.2546 34.6116 19.2099 31.8069 20.6306 29.3085C11.2369 29.1492 3.31282 27.1284 0.152994 24.3115Z" fill="#FFBE52"/>
<path d="M0.140787 35.5176L0.12854 41.5188C0.165282 41.4821 0.202024 41.4453 0.238767 41.4208C0.471467 45.291 8.73846 48.4631 19.357 48.9162C18.2914 46.2953 17.7158 43.4416 17.7158 40.441V40.4288C9.60802 39.9266 2.95769 38.0405 0.140787 35.5176Z" fill="#FFBE52"/>
<path d="M20.7654 51.77C11.188 51.6107 3.14144 49.4919 0.12858 46.6016L0.116333 52.2599C0.116333 56.522 9.82852 59.9757 21.8187 59.9757C24.109 59.9757 26.3135 59.8532 28.3833 59.6205C25.248 57.661 22.6271 54.9665 20.7654 51.77Z" fill="#FFBE52"/>
<path d="M21.8187 15.4072C33.8181 15.4072 43.5456 11.9582 43.5456 7.70361C43.5456 3.44902 33.8181 0 21.8187 0C9.81925 0 0.0917969 3.44902 0.0917969 7.70361C0.0917969 11.9582 9.81925 15.4072 21.8187 15.4072Z" fill="#FFBE52"/>
<path d="M40.3246 20.8447C29.5101 20.8447 20.741 29.6139 20.741 40.4283C20.741 51.2428 29.5101 59.9997 40.3246 59.9997C51.139 59.9997 59.9081 51.2305 59.9081 40.4161C59.9081 29.6016 51.139 20.8447 40.3246 20.8447ZM42.1127 50.8753V52.1123C42.1127 53.1044 41.3166 53.9005 40.3246 53.9005C39.3325 53.9005 38.5364 53.1044 38.5364 52.1123V50.8753C37.4954 50.5569 36.5279 49.9813 35.7685 49.173C35.0949 48.4504 35.1317 47.3236 35.842 46.65C36.5646 45.9764 37.6546 46.0499 38.365 46.7235C39.1488 47.4706 40.447 47.5563 40.5083 47.5563C41.8922 47.4583 42.9945 46.2948 42.9945 44.8864C42.9945 43.4167 41.7942 42.2042 40.3246 42.2042C36.883 42.2042 34.0784 39.3995 34.0784 35.958C34.0784 33.1289 35.9645 30.7406 38.5364 29.969V28.7321C38.5364 27.74 39.3325 26.9439 40.3246 26.9439C41.3166 26.9439 42.1127 27.74 42.1127 28.7321V29.969C43.1537 30.2875 44.1212 30.8631 44.8806 31.6714C45.5542 32.394 45.5175 33.5208 44.8071 34.1944C44.0845 34.868 42.8965 34.8925 42.2841 34.1209C41.635 33.3003 40.2021 33.2881 40.1408 33.2881C38.7569 33.3861 37.6546 34.5496 37.6546 35.958C37.6546 37.4277 38.8549 38.6402 40.3246 38.6402C43.7661 38.6402 46.5707 41.4448 46.5707 44.8864C46.5707 47.7155 44.6846 50.1038 42.1127 50.8753Z" fill="#FFBE52"/>
</svg>
