<svg width="280" height="236" viewBox="0 0 280 236" fill="none" xmlns="http://www.w3.org/2000/svg">
<path fill-rule="evenodd" clip-rule="evenodd" d="M280 53.353V226C280 231.523 275.523 236 270 236H18.8308C6.81286 213.496 0 187.794 0 160.5C0 71.8583 71.8583 0 160.5 0C207.964 0 250.616 20.6028 280 53.353Z" fill="#E7E7F9"/>
<path d="M241 36C249.284 36 256 29.2843 256 21C256 12.7157 249.284 6 241 6C232.716 6 226 12.7157 226 21C226 29.2843 232.716 36 241 36Z" fill="#4F6ECB"/>
<path d="M47 56C52.5228 56 57 51.5228 57 46C57 40.4772 52.5228 36 47 36C41.4772 36 37 40.4772 37 46C37 51.5228 41.4772 56 47 56Z" fill="#213570"/>
<path d="M212 14C214.761 14 217 11.7614 217 9C217 6.23858 214.761 4 212 4C209.239 4 207 6.23858 207 9C207 11.7614 209.239 14 212 14Z" fill="#213570"/>
</svg>
