<svg width="102" height="96" viewBox="0 0 102 96" fill="none" xmlns="http://www.w3.org/2000/svg">
<path d="M0 45C0 69.6458 22.8353 89.625 51 89.625C56.0512 89.6318 61.0815 88.976 65.9621 87.6743C69.6851 89.5612 78.234 93.1823 92.616 95.541C93.891 95.745 94.86 94.419 94.3564 93.2333C92.0996 87.9037 90.0596 80.802 89.4476 74.325C97.257 66.4837 102 56.22 102 45C102 20.3542 79.1648 0.375 51 0.375C22.8353 0.375 0 20.3542 0 45ZM56.1383 37.1332C56.5585 36.5061 57.0435 35.9249 57.5854 35.3993C58.4374 34.5219 59.4532 33.8201 60.5752 33.3338L60.6263 33.3083C62.136 32.6072 63.7812 32.246 65.4457 32.25C71.553 32.25 76.5 37.0057 76.5 42.8771C76.5 48.7421 71.553 53.4979 65.4457 53.4979C63.2591 53.4979 61.2255 52.8923 59.5106 51.8404C60.384 54.3203 61.9969 56.9659 64.6744 59.6179C64.9266 59.864 65.1257 60.1592 65.2595 60.4853C65.3933 60.8113 65.459 61.1613 65.4524 61.5137C65.4458 61.866 65.3672 62.2133 65.2213 62.5341C65.0755 62.855 64.8655 63.1425 64.6042 63.3791C63.5014 64.3991 61.7546 64.3673 60.69 63.3154C52.1857 54.843 51.9562 45.7331 54.6911 39.6896C55.0928 38.7963 55.5773 37.9426 56.1383 37.1396V37.1332ZM31.875 51.8404C32.742 54.3203 34.3613 56.9659 37.0387 59.6179C37.2906 59.8645 37.4892 60.16 37.6225 60.4863C37.7557 60.8126 37.8208 61.1627 37.8136 61.515C37.8065 61.8674 37.7272 62.2146 37.5808 62.5352C37.4344 62.8558 37.2239 63.143 36.9622 63.3791C35.8658 64.3991 34.119 64.3673 33.0544 63.3154C24.5501 54.843 24.3206 45.7331 27.0491 39.6896C27.453 38.7962 27.9397 37.9424 28.5026 37.1396C28.9224 36.5102 29.4075 35.9268 29.9498 35.3993C30.8016 34.5218 31.8175 33.82 32.9396 33.3338L32.9906 33.3083C34.4984 32.6082 36.1413 32.2469 37.8037 32.25C43.9046 32.25 48.858 37.0057 48.858 42.8771C48.858 48.7421 43.9046 53.4979 37.8037 53.4979C35.6171 53.4979 33.5835 52.8923 31.8686 51.8404H31.875Z" fill="#E7E7F9"/>
</svg>
