<svg width="30" height="34" viewBox="0 0 30 34" fill="none" xmlns="http://www.w3.org/2000/svg">
<path d="M23.6876 3.07765V0H6.30548V3.07765H0.358604V7.64201C0.358604 10.9211 3.02636 13.5889 6.30548 13.5889H6.40969C6.95852 17.1528 9.67491 19.9943 13.1624 20.7446V25.6702H11.0296C10.3696 25.6702 9.84164 26.2052 9.84164 26.8582V28.4213H8.02146V34H21.9785V28.4213H20.1584V26.8582C20.1584 26.1982 19.6234 25.6702 18.9704 25.6702H16.8376V20.7446C20.332 19.9943 23.0415 17.1459 23.5903 13.5889H23.6945C26.9736 13.5889 29.6414 10.9211 29.6414 7.64201V3.07765H23.6876ZM6.30548 10.5807C4.68676 10.5807 3.36678 9.26073 3.36678 7.64201V6.08582H6.30548V10.5807ZM15.5037 11.4144L13.9753 12.9289L12.4608 11.4005L11.0018 9.92767L12.5302 8.41316L13.9892 9.88598L17.4837 6.41234L18.9982 7.94074L15.5037 11.4144ZM26.6193 7.64201C26.6193 9.26073 25.3063 10.5807 23.6876 10.5807V6.08582H26.6193V7.64201Z" fill="#FFBE52"/>
</svg>
