<svg width="300" height="136" viewBox="0 0 300 136" fill="none" xmlns="http://www.w3.org/2000/svg">
<path d="M17.7447 90.1815H22.978C23.7589 90.1771 24.5351 90.0626 25.282 89.8417C26.1374 89.5744 26.9233 89.1318 27.586 88.544C27.9765 88.2477 28.3108 87.8879 28.5774 87.4771C28.8178 87.1082 29.0243 86.7193 29.1952 86.314C29.4088 85.8192 29.5467 85.2969 29.6045 84.7637V76.705C29.5824 75.9624 29.3873 75.2343 29.0337 74.5749C28.6101 73.8171 28.0299 73.1517 27.3292 72.6202C26.6286 72.0886 25.8224 71.7023 24.9609 71.4852C24.5322 71.3508 24.0933 71.2488 23.6483 71.1799C23.2103 71.1207 22.7686 71.091 22.3264 71.0908H17.7729V75.2183H18.7549V86.0541H17.7447V90.1815ZM0 90.1815H17.7447V86.0559H16.7007V75.2201H17.7447V71.0927H0V90.1815ZM56 80.1891L56.8075 79.8656C57.4572 79.5566 58.028 79.0732 58.4711 78.4607C58.9978 77.687 59.255 76.7706 59.2053 75.8453C59.2033 75.3936 59.1214 74.9454 58.9631 74.5204C58.8121 74.0984 58.603 73.698 58.3416 73.33C57.7708 72.5993 57.0056 72.0326 56.1277 71.6906C55.2457 71.293 54.2841 71.0883 53.3111 71.0908H48.9885V75.2183H49.7396V78.0572H48.9885V82.2483H49.7396V90.1724H59.0438V87.837C59.0438 87.0791 59.0232 86.2503 58.98 85.3471C58.9452 84.5064 58.8148 83.672 58.5913 82.859C58.4528 82.2521 58.1487 81.6922 57.7106 81.2378C57.2158 80.7773 56.6193 80.4318 55.9662 80.2273L56 80.1909V80.1891ZM48.9885 71.0908H33.5534V90.1815H48.2374V82.2574H48.9885V78.059H48.2374V75.2183H48.9885V71.0908ZM71.0539 86.3648H63.158V90.1815H71.052V86.3648H71.0539ZM3.0288 130.566C4.55764 132.488 6.61748 133.951 8.96999 134.788C11.6796 135.651 14.5225 136.06 17.3767 135.993H51.0747C53.1227 136.001 55.1446 135.547 56.9802 134.668C57.8477 134.122 58.6871 133.584 59.4964 133.056C60.2156 132.597 60.8519 132.027 61.3798 131.369C62.2905 130.05 63.1317 128.685 63.8959 127.283C64.7192 125.767 65.1429 124.077 65.1296 122.363C65.1132 121.564 64.9178 120.778 64.5569 120.059C64.1307 119.181 63.6368 118.334 63.0791 117.527C62.2609 116.487 61.3793 115.494 60.439 114.556C59.5632 113.693 58.585 112.934 57.5248 112.295L57.6036 112.369C55.362 110.878 52.7016 110.089 49.9818 110.108H36.8076V103.078H41.8061V108.311H61.3985C62.3111 108.347 63.2218 108.242 64.1006 107.998C64.6865 107.789 64.9794 107.14 64.9794 106.048C64.8217 104.41 64.4063 102.805 63.7476 101.288C62.9801 99.0431 61.4065 97.1389 59.3124 95.9211C56.9916 94.6021 54.3359 93.938 51.6455 94.0037H16.4434C15.1342 94.0098 13.8296 94.1542 12.5527 94.4344C11.2102 94.7228 9.90517 95.1556 8.66204 95.7248C7.4171 96.2828 6.23787 96.9643 5.14127 97.7604C4.16484 98.4855 3.25977 99.2961 2.43919 100.183C1.0714 102.003 0.29951 104.179 0.223452 106.428V108.343C0.26664 108.823 0.369916 109.298 0.529524 109.754C0.687255 110.232 0.908829 110.69 1.19049 111.113C1.58294 111.695 2.00543 112.258 2.45797 112.8C2.98374 113.394 3.54331 113.959 4.13855 114.488C4.74131 115.039 5.38538 115.548 6.067 116.008C6.72421 116.453 7.34011 116.844 7.9147 117.18C8.31842 117.434 8.74091 117.656 9.18218 117.847C10.1098 118.107 11.0393 118.329 11.9725 118.514C12.9434 118.699 13.931 118.79 14.9206 118.785H41.808V126.896H36.8095V120.142H4.24371C3.6432 120.115 3.04313 120.205 2.47923 120.407C1.91534 120.608 1.39915 120.918 0.961406 121.317C0.329167 122.05 -0.0105843 122.979 0.00375549 123.934C-0.015022 124.412 0.0694766 124.888 0.247862 125.333C0.413104 125.7 0.6328 126.22 0.908829 126.896L2.05425 129.004L3.03068 130.567L3.0288 130.566ZM109.27 136H137.151L143.077 121.106V136H163.815V101.637H129.395L123.319 118.101L117.322 101.635H71.052V136H103.415V120.962L109.27 136ZM201.317 101.637H167.763V136H201.317V101.637ZM207.237 136H248.685V128.337H238.509V101.637H207.237V136ZM250.658 136H300V128.337H285.881V121.965H300V114.379H285.881V109.301H300V101.639H250.658V136Z" fill="white"/>
<path fill-rule="evenodd" clip-rule="evenodd" d="M89.6907 39.5438C110.831 48.5058 120.9 63.3309 137.644 67.3968C139.049 66.0599 140.445 66.6181 141.85 65.3079C171.794 73.9089 192.145 56.257 210.103 52.7263C222.71 38.2976 238.918 25.3462 235.143 5.56988L237.946 8.23659L239.204 1.88626L240.975 3.28006L242.577 0L243.646 4.05341C245.579 4.56008 246.383 5.29254 246.449 6.72012C248.352 18.9692 247.861 32.4841 241.377 43.4657C237.112 50.3298 234.793 55.9495 230.32 61.8411L234.58 62.474C221.283 74.2431 207.724 83.726 187.506 89.4078L148.723 89.5323C144.573 91.3172 90.2687 69.9586 89.6907 39.5438Z" fill="#009FE3"/>
</svg>
