<svg width="97" height="44" viewBox="0 0 97 44" fill="none" xmlns="http://www.w3.org/2000/svg">
<path d="M5.73745 29.1764H7.42955C7.68206 29.175 7.93301 29.1379 8.17451 29.0665C8.4511 28.98 8.70519 28.8368 8.91946 28.6466C9.04575 28.5508 9.15382 28.4343 9.24003 28.3015C9.31775 28.1821 9.38453 28.0563 9.43978 27.9251C9.50885 27.7651 9.55344 27.5961 9.57214 27.4236V24.8164C9.56498 24.5761 9.50189 24.3405 9.38757 24.1272C9.2506 23.882 9.063 23.6668 8.83645 23.4948C8.6099 23.3228 8.34924 23.1978 8.07068 23.1276C7.93206 23.0841 7.79018 23.0511 7.6463 23.0288C7.50468 23.0097 7.36186 23 7.21887 23H5.74656V24.3354H6.06409V27.841H5.73745V29.1764ZM0 29.1764H5.73745V27.8416H5.39988V24.336H5.73745V23.0006H0V29.1764ZM18.1067 25.9436L18.3677 25.8389C18.5778 25.7389 18.7624 25.5825 18.9057 25.3844C19.0759 25.1341 19.1591 24.8376 19.1431 24.5382C19.1424 24.3921 19.1159 24.2471 19.0647 24.1096C19.0159 23.973 18.9483 23.8435 18.8638 23.7244C18.6792 23.488 18.4318 23.3047 18.148 23.194C17.8628 23.0654 17.5518 22.9992 17.2373 23H15.8396V24.3354H16.0825V25.2538H15.8396V26.6098H16.0825V29.1735H19.0908V28.4179C19.0908 28.1727 19.0842 27.9046 19.0702 27.6123C19.0589 27.3403 19.0168 27.0704 18.9445 26.8073C18.8997 26.611 18.8014 26.4299 18.6598 26.2828C18.4998 26.1339 18.3069 26.0221 18.0957 25.9559L18.1067 25.9441V25.9436ZM15.8396 23H10.8489V29.1764H15.5968V26.6127H15.8396V25.2544H15.5968V24.3354H15.8396V23ZM22.9741 27.9416H20.4211V29.1764H22.9735V27.9416H22.9741ZM0.979313 42.2419C1.47364 42.8637 2.13965 43.3373 2.9003 43.6078C3.7764 43.8871 4.6956 44.0194 5.61845 43.9977H16.5142C17.1764 44.0002 17.8301 43.8534 18.4236 43.569C18.7041 43.3926 18.9755 43.2185 19.2372 43.0474C19.4697 42.8992 19.6754 42.7148 19.8461 42.5018C20.1406 42.0749 20.4126 41.6333 20.6597 41.1799C20.9259 40.6892 21.0629 40.1425 21.0586 39.5882C21.0533 39.3296 20.9901 39.0752 20.8734 38.8426C20.7356 38.5586 20.5759 38.2846 20.3956 38.0235C20.131 37.6869 19.846 37.3659 19.5419 37.0621C19.2588 36.7831 18.9425 36.5376 18.5997 36.3307L18.6252 36.3548C17.9004 35.8724 17.0402 35.6171 16.1608 35.6233H11.9011V33.3489H13.5173V35.0418H19.8522C20.1473 35.0535 20.4417 35.0194 20.7259 34.9406C20.9153 34.873 21.01 34.6631 21.01 34.3097C20.959 33.7797 20.8247 33.2604 20.6117 32.7697C20.3636 32.0434 19.8548 31.4273 19.1777 31.0333C18.4273 30.6066 17.5686 30.3917 16.6987 30.413H5.31671C4.89339 30.415 4.47156 30.4617 4.05872 30.5523C3.62462 30.6456 3.20267 30.7857 2.80073 30.9698C2.39819 31.1503 2.01691 31.3708 1.66234 31.6284C1.34663 31.863 1.05399 32.1253 0.788672 32.4122C0.346418 33.001 0.0968415 33.7048 0.0722494 34.4326V35.0523C0.0862136 35.2076 0.119606 35.361 0.171213 35.5086C0.222212 35.6633 0.293855 35.8115 0.384925 35.9485C0.511817 36.1366 0.648423 36.3189 0.794744 36.4941C0.964742 36.6864 1.14567 36.8693 1.33813 37.0404C1.53302 37.2185 1.74127 37.3832 1.96166 37.532C2.17416 37.676 2.3733 37.8024 2.55909 37.9112C2.68962 37.9935 2.82623 38.0653 2.9689 38.127C3.26883 38.2111 3.56936 38.2828 3.87111 38.3428C4.18503 38.4028 4.50436 38.4321 4.82432 38.4304H13.5179V41.0547H11.9017V38.8697H1.37213C1.17797 38.8608 0.983946 38.8898 0.801619 38.9551C0.619292 39.0203 0.45239 39.1205 0.310855 39.2495C0.106431 39.4868 -0.00342227 39.7872 0.00121428 40.0962C-0.0048571 40.2509 0.0224641 40.4049 0.0801422 40.549C0.13357 40.6678 0.204605 40.836 0.293855 41.0547L0.664209 41.7368L0.979921 42.2425L0.979313 42.2419ZM35.3306 44H44.3454L46.2615 39.1813V44H52.9667V32.8826H41.8379L39.8732 38.2093L37.934 32.882H22.9735V44H33.4375V39.1349L35.3306 44ZM65.0925 32.8826H54.2435V44H65.0925V32.8826ZM67.0068 44H80.4081V41.521H77.118V32.8826H67.0068V44ZM81.0462 44H97V41.521H92.4349V39.4594H97V37.0051H92.4349V35.3622H97V32.8832H81.0462V44Z" fill="#213570"/>
<path fill-rule="evenodd" clip-rule="evenodd" d="M29 12.7936C35.8354 15.693 39.0911 20.4894 44.505 21.8048C44.959 21.3723 45.4107 21.5529 45.8648 21.129C55.5467 23.9117 62.1269 18.2008 67.9332 17.0585C72.0095 12.3904 77.2503 8.20025 76.0295 1.80202L76.9358 2.66478L77.3425 0.610259L77.9152 1.0612L78.4334 0L78.779 1.3114C79.4038 1.47532 79.6637 1.71229 79.6853 2.17416C80.3005 6.1371 80.1418 10.5096 78.0452 14.0624C76.6663 16.2832 75.9163 18.1013 74.4703 20.0074L75.8474 20.2122C71.5482 24.0198 67.164 27.0878 60.627 28.9261L48.0871 28.9663C46.7453 29.5438 29.1869 22.6337 29 12.7936Z" fill="#009FE3"/>
</svg>
