<svg width="23" height="44" viewBox="0 0 23 44" fill="none" xmlns="http://www.w3.org/2000/svg">
<path d="M6.13068 15.7168C6.13068 15.7168 7.86297 13.4821 6.74265 10.3787C5.61842 7.27722 3.00043 6.09924 3.00043 6.09924C3.00043 6.09924 1.04134 8.76241 2.13624 11.7856C3.22919 14.8108 6.13068 15.7168 6.13068 15.7168Z" fill="#4F6ECB"/>
<path d="M10.9385 17.3037C10.9385 17.3037 13.9671 17.0611 15.7013 14.351C17.4356 11.6428 16.1099 8.61371 16.1099 8.61371C16.1099 8.61371 13.2984 9.18508 11.5172 11.9657C9.73801 14.7443 10.9385 17.3037 10.9385 17.3037Z" fill="#4F6ECB"/>
<path d="M11.2454 20.8846C9.84358 23.8726 11.3667 26.256 11.3667 26.256C11.3667 26.256 14.3405 25.6181 15.7052 22.7083C17.068 19.7947 15.3592 16.9652 15.3592 16.9652C15.3592 16.9652 12.6473 17.8966 11.2454 20.8846Z" fill="#4F6ECB"/>
<path d="M18.0905 23.2914C18.0905 23.2914 15.4764 24.4772 14.362 27.5807C13.2475 30.69 14.9857 32.9168 14.9857 32.9168C14.9857 32.9168 17.8833 32.003 18.9704 28.9759C20.0555 25.9487 18.0905 23.2914 18.0905 23.2914Z" fill="#4F6ECB"/>
<path d="M20.2686 39.6345C20.2686 39.6345 22.783 37.9223 22.9531 34.7112C23.1212 31.4982 20.472 29.5219 20.472 29.5219C20.472 29.5219 18.3095 31.4101 18.1355 34.7053C17.9635 37.9986 20.2686 39.6345 20.2686 39.6345Z" fill="#4F6ECB"/>
<path d="M9.99216 9.7369C9.99216 9.7369 12.6727 8.8407 13.4587 5.63746C14.2466 2.43423 12.7236 0 12.7236 0C12.7236 0 9.61872 1.1271 8.85034 4.25207C8.08391 7.37508 9.99216 9.7369 9.99216 9.7369Z" fill="#4F6ECB"/>
<path d="M6.12872 22.5284C6.12872 22.5284 7.12391 19.8808 5.1394 17.249C3.15098 14.6152 0.304233 14.261 0.304233 14.261C0.304233 14.261 -0.782849 17.384 1.15278 19.9513C3.08841 22.5205 6.12872 22.5284 6.12872 22.5284Z" fill="#4F6ECB"/>
<path d="M8.34981 29.514C8.34981 29.514 8.73107 26.7119 6.21279 24.5869C3.69061 22.4599 0.836039 22.7495 0.836039 22.7495C0.836039 22.7495 0.468465 26.0368 2.92418 28.1091C5.3838 30.1793 8.34981 29.514 8.34981 29.514Z" fill="#4F6ECB"/>
<path d="M11.7323 35.2904C11.7323 35.2904 11.2533 32.5039 8.20709 31.2438C5.15896 29.9797 2.52728 31.1205 2.52728 31.1205C2.52728 31.1205 3.17249 34.3648 6.14046 35.5976C9.10843 36.8245 11.7323 35.2904 11.7323 35.2904Z" fill="#4F6ECB"/>
<path d="M13.2104 37.6894C10.0352 36.8011 7.556 38.2471 7.556 38.2471C7.556 38.2471 8.58247 41.3897 11.6756 42.2565C14.7726 43.1234 17.1931 41.286 17.1931 41.286C17.1931 41.286 16.3856 38.5758 13.2104 37.6894Z" fill="#4F6ECB"/>
<path d="M10.3226 11.6467L8.91096 10.9521C8.83667 11.1067 1.57512 26.5437 21.9794 44L23 42.8044C3.57331 26.1817 10.0371 12.2318 10.3226 11.6467Z" fill="#4F6ECB"/>
</svg>
