<svg width="95" height="25" viewBox="0 0 95 25" fill="none" xmlns="http://www.w3.org/2000/svg">
<rect x="0.5" y="0.5" width="94" height="24" rx="9.5" stroke="url(#paint0_linear_102_221)"/>
<path d="M21.222 18.07C20.522 18.07 19.8873 17.93 19.318 17.65C18.7487 17.37 18.254 16.992 17.834 16.516C17.4233 16.0307 17.106 15.4893 16.882 14.892C16.658 14.2853 16.546 13.6647 16.546 13.03C16.546 12.3673 16.6627 11.7373 16.896 11.14C17.1387 10.5333 17.47 9.99667 17.89 9.53C18.3193 9.054 18.8187 8.68067 19.388 8.41C19.9573 8.13 20.578 7.99 21.25 7.99C21.95 7.99 22.5847 8.13467 23.154 8.424C23.7233 8.71333 24.2133 9.10067 24.624 9.586C25.0347 10.0713 25.352 10.6127 25.576 11.21C25.8 11.8073 25.912 12.4187 25.912 13.044C25.912 13.7067 25.7953 14.3413 25.562 14.948C25.3287 15.5453 24.9973 16.082 24.568 16.558C24.148 17.0247 23.6533 17.3933 23.084 17.664C22.5147 17.9347 21.894 18.07 21.222 18.07ZM17.82 13.03C17.82 13.534 17.8993 14.024 18.058 14.5C18.226 14.9667 18.4593 15.382 18.758 15.746C19.0567 16.11 19.416 16.3993 19.836 16.614C20.256 16.8287 20.7227 16.936 21.236 16.936C21.768 16.936 22.244 16.824 22.664 16.6C23.084 16.376 23.4387 16.0773 23.728 15.704C24.0267 15.3307 24.2507 14.9107 24.4 14.444C24.5587 13.9773 24.638 13.506 24.638 13.03C24.638 12.526 24.554 12.0407 24.386 11.574C24.2273 11.1073 23.994 10.692 23.686 10.328C23.3873 9.95467 23.028 9.66533 22.608 9.46C22.1973 9.24533 21.74 9.138 21.236 9.138C20.704 9.138 20.228 9.25 19.808 9.474C19.388 9.68867 19.0287 9.98267 18.73 10.356C18.4407 10.7293 18.2167 11.1493 18.058 11.616C17.8993 12.0733 17.82 12.5447 17.82 13.03ZM27.6627 18V8.06H35.3347V18H34.0747V9.18H28.9227V18H27.6627ZM44.8795 9.18H41.4495V18H40.1895V9.18H36.7595V8.06H44.8795V9.18ZM46.3811 18V8.06H47.6411V16.25L53.3951 8.06H54.5711V18H53.3111V9.964L47.6271 18H46.3811ZM65.6122 18V10.412L62.3362 16.25H61.5662L58.2762 10.412V18H57.0162V8.06H58.3462L61.9442 14.514L65.5562 8.06H66.8722V18H65.6122ZM72.2765 8.06H73.3405L77.4005 18H76.0565L74.8805 15.088H70.7085L69.5465 18H68.2025L72.2765 8.06ZM74.6005 14.108L72.8085 9.516L70.9605 14.108H74.6005Z" fill="url(#paint1_linear_102_221)"/>
<defs>
<linearGradient id="paint0_linear_102_221" x1="94" y1="0.499994" x2="3.35007e-06" y2="25" gradientUnits="userSpaceOnUse">
<stop stop-color="#7A7A7E"/>
<stop offset="0.471157" stop-color="#7A7A7E" stop-opacity="0.2"/>
<stop offset="1" stop-color="#59595E" stop-opacity="0.68"/>
</linearGradient>
<linearGradient id="paint1_linear_102_221" x1="92.5" y1="1.00001" x2="2" y2="23" gradientUnits="userSpaceOnUse">
<stop stop-color="#7A7A7E"/>
<stop offset="0.505208" stop-color="#7A7A7E" stop-opacity="0.24"/>
<stop offset="1" stop-color="#7A7A7E" stop-opacity="0.88"/>
</linearGradient>
</defs>
</svg>
