<svg width="30" height="30" viewBox="0 0 30 30" fill="none" xmlns="http://www.w3.org/2000/svg">
<path d="M29.6785 22.7518C28.5618 20.6406 24.6837 18.3515 24.513 18.2514C24.0146 17.9678 23.4946 17.8176 23.008 17.8176C22.2845 17.8176 21.6922 18.1491 21.3334 18.752C20.7662 19.4305 20.0626 20.2235 19.8919 20.3464C18.5705 21.243 17.536 21.1412 16.3915 19.9966L10.0035 13.6081C8.86615 12.4708 8.76159 11.4235 9.65199 10.1093C9.77657 9.93749 10.5696 9.2334 11.2482 8.66557C11.6808 8.40807 11.9778 8.02544 12.108 7.55604C12.2809 6.93148 12.1536 6.1968 11.7454 5.48104C11.6491 5.31641 9.3589 1.4378 7.24886 0.321605C6.8551 0.113048 6.41129 0.00292969 5.96637 0.00292969C5.23336 0.00292969 4.54373 0.288792 4.0254 0.806571L2.61388 2.21753C0.381481 4.44937 -0.426609 6.97931 0.210742 9.73672C0.742425 12.0347 2.29187 14.4801 4.8168 17.0045L12.995 25.1828C16.1907 28.3784 19.2373 29.999 22.0503 29.999C22.0503 29.999 22.0503 29.999 22.0509 29.999C24.1198 29.999 26.0485 29.1198 27.782 27.3862L29.193 25.9753C30.0506 25.1182 30.2452 23.8224 29.6785 22.7518Z" fill="#FFBE52"/>
</svg>
