<svg width="37" height="37" viewBox="0 0 37 37" fill="none" xmlns="http://www.w3.org/2000/svg">
<g clip-path="url(#clip0_15_146)">
<path d="M17.411 7.41728C17.0465 7.33035 16.6876 7.25143 16.3343 7.17866C16.1579 7.14289 16.0044 7.26191 15.9717 7.43831C15.6973 8.93067 14.5293 10.5056 12.9346 11.4535C12.7347 11.5725 12.7415 11.8629 12.9432 11.9788C14.3085 12.7644 15.3661 13.9065 15.783 15.1596C15.8243 15.286 15.9587 15.4167 16.0913 15.4167H16.2652C16.5001 15.3581 16.5963 15.1485 16.6395 14.9104L17.8729 8.12708C17.9315 7.80701 17.7268 7.49251 17.411 7.41728Z" fill="#FFBE52"/>
<path d="M14.4849 6.85734C8.36824 5.97245 3.99356 7.22489 1.80507 8.87074C1.0848 9.41157 0.495256 10.0202 0.176492 10.6535C0.0740919 10.8583 0.228307 11.1 0.457678 11.1H9.86681C12.3587 11.1 14.4159 8.91453 14.7477 7.23717C14.7827 7.05896 14.665 6.88386 14.4849 6.85734Z" fill="#FFBE52"/>
<path d="M32.6834 0C32.343 0 32.0667 0.275621 32.0667 0.616643C32.0667 0.957664 32.343 1.23329 32.6834 1.23329C33.971 1.23329 35.7667 5.22191 35.7667 11.7166C35.7667 18.2114 33.971 22.2 32.6834 22.2C32.343 22.2 32.0667 22.4756 32.0667 22.8166C32.0667 23.1577 32.343 23.4333 32.6834 23.4333C35.4873 23.4333 37 17.3967 37 11.7166C37 6.03656 35.4873 0 32.6834 0Z" fill="#FFBE52"/>
<path d="M27.75 2.46671C27.4096 2.46671 27.1334 2.74233 27.1334 3.08335C27.1334 3.42437 27.4096 3.69999 27.75 3.69999C29.2084 3.69999 30.8334 6.99234 30.8334 11.7166C30.8334 16.4409 29.2085 19.7333 27.75 19.7333C27.4096 19.7333 27.1334 20.009 27.1334 20.35C27.1334 20.691 27.4096 20.9666 27.75 20.9666C30.2112 20.9666 32.0666 16.9904 32.0666 11.7166C32.0666 6.4429 30.2112 2.46671 27.75 2.46671Z" fill="#FFBE52"/>
<path d="M22.8167 4.93335C22.4763 4.93335 22.2001 5.20897 22.2001 5.54999C22.2001 5.89101 22.4763 6.16663 22.8167 6.16663C24.4879 6.16663 25.9001 8.70793 25.9001 11.7166C25.9001 14.7253 24.4879 17.2666 22.8167 17.2666C22.4763 17.2666 22.2001 17.5423 22.2001 17.8833C22.2001 18.2243 22.4763 18.4999 22.8167 18.4999C25.2371 18.4999 27.1334 15.5202 27.1334 11.7166C27.1334 7.91293 25.2371 4.93335 22.8167 4.93335Z" fill="#FFBE52"/>
<path d="M10.4914 33.3C9.14459 33.3056 8.04384 31.9544 8.01732 30.2802L9.37461 23.9451C9.42086 23.7287 9.2334 23.5344 9.01574 23.5758C7.5296 23.8557 5.5501 24.687 5.5501 27.1333C5.5501 31.2742 2.59501 33.0046 0.233226 33.6207C0.101197 33.6552 0.000675712 33.7693 2.53213e-05 33.9056C-0.00799616 35.6397 1.89078 37 4.31674 37H10.4834C10.8238 37 11.1 36.7237 11.1 36.3833V33.9167C11.1 33.5787 10.8293 33.2988 10.4914 33.3Z" fill="#FFBE52"/>
<path d="M14.504 15.4568C13.8195 13.941 12.0034 12.3334 9.86666 12.3334H0.427975C0.207204 12.3334 0.0548679 12.5585 0.139997 12.7626C0.567954 13.7924 1.62065 14.702 2.91688 15.1965C1.38998 19.906 0.500169 26.5494 0.121497 31.9446C0.106104 32.1629 0.321311 32.3183 0.527846 32.2467C2.3501 31.6116 4.31666 30.1606 4.31666 27.1334C4.31666 23.9193 7.02012 22.5084 9.59162 22.226C9.74822 22.2087 9.86666 22.0804 9.86666 21.9232V21.275C9.86666 21.1048 10.0048 20.9667 10.175 20.9667H11.1C11.3023 20.9667 11.4916 20.8674 11.6069 20.7009C11.7222 20.5344 11.7481 20.3228 11.6778 20.1335C11.4256 19.4607 11.1104 17.2512 12.1686 15.6473C12.2568 15.5134 12.44 15.4777 12.5787 15.5579L13.291 15.968C13.4229 16.0327 13.5728 16.0506 13.7165 16.0142L14.2918 15.8706C14.4732 15.825 14.5811 15.627 14.504 15.4568Z" fill="#FFBE52"/>
</g>
<defs>
<clipPath id="clip0_15_146">
<rect width="37" height="37" fill="white"/>
</clipPath>
</defs>
</svg>
