<svg width="29" height="29" viewBox="0 0 29 29" fill="none" xmlns="http://www.w3.org/2000/svg">
<path d="M8.3375 13.7749C8.15625 13.9562 7.43125 14.4999 5.4375 14.4999C7.43125 14.4999 8.15625 15.0437 8.3375 15.2249C8.7 14.8624 9.425 14.4999 11.0562 14.4999C9.425 14.4999 8.7 14.1374 8.3375 13.7749Z" fill="#4F6ECB"/>
<path d="M14.5 0C6.525 0 0 6.525 0 14.5C0 22.475 6.525 29 14.5 29C22.475 29 29 22.475 29 14.5C29 6.525 22.475 0 14.5 0ZM23.7438 21.025C21.9313 21.025 21.2062 19.575 20.8438 18.125C20.4813 19.7563 19.7563 21.75 17.5812 21.75C15.5875 21.75 14.8625 19.7563 14.5 18.125C14.1375 19.9375 13.4125 21.75 11.4188 21.75C9.425 21.75 8.51875 19.7563 8.15625 18.125C7.79375 19.575 7.06875 21.025 5.25625 21.025C1.63125 21.025 1.8125 15.5875 1.8125 15.5875C1.8125 15.5875 2.175 14.5 4.89375 14.5C2.175 14.5 1.8125 13.5938 1.8125 13.5938C1.8125 13.5938 1.63125 8.15625 5.25625 8.15625C7.06875 8.15625 7.79375 9.60625 8.15625 11.0562C8.51875 9.425 9.24375 7.43125 11.4188 7.43125C13.4125 7.25 14.1375 9.24375 14.5 10.875C14.8625 9.0625 15.5875 7.25 17.5812 7.25C19.575 7.25 20.4813 9.24375 20.8438 10.875C21.2062 9.425 21.9313 7.975 23.7438 7.975C27.3688 7.975 27.1875 13.4125 27.1875 13.4125C27.1875 13.4125 26.6437 14.5 23.925 14.5C21.75 14.5 21.025 13.9563 20.6625 13.775C20.3 14.1375 19.3938 14.5 17.7625 14.5C15.5875 14.5 14.8625 14.1375 14.5 13.775C14.3188 13.9563 13.4125 14.5 11.6 14.5C13.4125 14.5 14.1375 15.0437 14.5 15.225C14.8625 14.8625 15.5875 14.5 17.7625 14.5C19.575 14.5 20.3 14.8625 20.8438 15.225C20.8438 15.0437 21.75 14.5 23.925 14.5C26.6437 14.5 27.1875 15.5875 27.1875 15.5875C27.1875 15.5875 27.3688 21.025 23.7438 21.025Z" fill="#4F6ECB"/>
</svg>
