<svg width="34" height="29" viewBox="0 0 34 29" fill="none" xmlns="http://www.w3.org/2000/svg">
<path fill-rule="evenodd" clip-rule="evenodd" d="M26.9638 20.5707C31.6985 17.7503 34 14.3608 34 10.2082C34 5.25945 30.7538 -0.000163709 24.7376 3.82176e-09C20.7075 3.82176e-09 18.2646 1.77269 17.0001 3.10089C15.7355 1.77285 13.2926 3.82176e-09 9.26257 3.82176e-09C3.24637 3.82176e-09 0 5.25945 0 10.2082C0 14.3606 2.30151 17.7503 7.0362 20.5707C12.9618 24.1005 15.9297 28.3915 15.9745 28.4575C16.204 28.7965 16.5885 29 16.9999 29C17.4117 29 17.7966 28.7962 18.0262 28.4563C18.0552 28.4134 20.99 24.1294 26.9638 20.5707ZM16.9258 6.18337C17.3701 5.93106 20.5063 4.26847 22.3473 6.40032C23.8379 8.12858 23.9928 9.80877 23.8608 10.9139C23.6882 12.3468 22.9232 13.6713 21.7506 14.5771C21.3037 16.6282 20.1432 20.4303 18.6704 21.3108C18.4164 21.462 18.1853 21.5126 17.9923 21.5126C17.8705 21.5126 17.7637 21.4924 17.6774 21.4672C16.7182 21.1898 16.8698 19.9391 17.045 18.494L17.0451 18.4926C17.167 17.4936 17.3321 16.1287 16.9512 15.6695C16.8928 15.599 16.7965 15.5156 16.5703 15.5005C15.8187 15.45 15.5269 16.7266 15.2088 18.4044C14.9625 19.7061 14.7492 20.8314 14.0712 21.2804C13.8125 21.4521 13.5052 21.5076 13.1828 21.4394C11.9261 21.1745 11.7988 19.0628 11.6543 16.6181L11.6522 16.582C11.5835 15.4375 11.4909 13.8951 11.2245 13.5755C10.6967 12.9372 9.68056 10.9644 9.91737 8.93081C10.0745 7.58108 10.7395 6.45081 11.8956 5.57788C13.4997 4.36183 15.4964 5.21461 16.9258 6.18337Z" fill="#4F6ECB"/>
</svg>
