<svg xmlns="http://www.w3.org/2000/svg" viewBox="0 0 93 88"><defs><style>.cls-1{fill:#bfa380;}.cls-2{fill:#502d13;}.cls-3{fill:#dbd6d2;}.cls-4{fill:#e7eced;}.cls-5{fill:#6c797a;}</style></defs><g id="Слой_2" data-name="Слой 2"><g id="Слой_1-2" data-name="Слой 1"><rect class="cls-1" x="20.07" y="4.63" width="49.4" height="83.37"/><polygon class="cls-2" points="15.44 0 15.44 88 20.07 88 20.07 4.63 69.47 4.63 69.47 88 74.11 88 74.11 0 15.44 0"/><rect class="cls-3" y="83.37" width="15.44" height="4.63"/><rect class="cls-3" x="74.11" y="83.37" width="15.44" height="4.63"/><path class="cls-4" d="M58.67,51h-7a2.32,2.32,0,0,1-2.32-2.32h0a2.31,2.31,0,0,1,2.32-2.31h7Z"/><path class="cls-5" d="M55.58,43.91v2.41h3.09V51H55.58v2.4a2.23,2.23,0,0,0,2.23,2.23h3.26a2.23,2.23,0,0,0,2.23-2.23V43.91a2.23,2.23,0,0,0-2.23-2.23H57.81A2.23,2.23,0,0,0,55.58,43.91Z"/><rect class="cls-3" x="20" y="1" width="73" height="2"/><rect class="cls-3" x="31" y="3" width="4" height="2"/><rect class="cls-3" x="53" y="3" width="4" height="2"/></g></g></svg>