<svg xmlns="http://www.w3.org/2000/svg" viewBox="0 0 109.54 88"><defs><style>.cls-1{fill:#bfa380;}.cls-2{fill:#502d13;}.cls-3{fill:#dbd6d2;}.cls-4{fill:#e7eced;}.cls-5{fill:#6c797a;}</style></defs><g id="Слой_2" data-name="Слой 2"><g id="Слой_1-2" data-name="Слой 1"><rect class="cls-1" x="57" y="4.63" width="33" height="83.37"/><rect class="cls-1" x="20" y="4.63" width="34" height="83.37"/><polygon class="cls-2" points="93.33 0.77 94 0 15 0 15.44 0.48 15.44 88 20.07 88 20.07 4.63 89.47 4.63 89.47 88 94.11 88 94.11 0 93.33 0.77"/><rect class="cls-3" y="83.37" width="15.44" height="4.63"/><rect class="cls-3" x="94.11" y="83.37" width="15.44" height="4.63"/><path class="cls-4" d="M44.67,51h-7a2.32,2.32,0,0,1-2.32-2.32h0a2.31,2.31,0,0,1,2.32-2.31h7Z"/><path class="cls-5" d="M41.58,43.91v2.41h3.09V51H41.58v2.4a2.23,2.23,0,0,0,2.23,2.23h3.26a2.23,2.23,0,0,0,2.23-2.23V43.91a2.23,2.23,0,0,0-2.23-2.23H43.81A2.23,2.23,0,0,0,41.58,43.91Z"/><path class="cls-4" d="M65,46.32H72a2.31,2.31,0,0,1,2.32,2.31h0A2.32,2.32,0,0,1,72,51H65Z"/><path class="cls-5" d="M65.9,41.68H62.63a2.23,2.23,0,0,0-2.23,2.23v9.44a2.23,2.23,0,0,0,2.23,2.23H65.9a2.22,2.22,0,0,0,2.22-2.23V51H65V46.32h3.08V43.91A2.22,2.22,0,0,0,65.9,41.68Z"/></g></g></svg>