<svg width="10" height="17" viewBox="0 0 10 17" fill="none" xmlns="http://www.w3.org/2000/svg">
<path d="M9.16016 8.82227C9.16016 8.55859 9.0625 8.33398 8.86719 8.12891L1.58203 1.00977C1.40625 0.833984 1.18164 0.746094 0.927734 0.746094C0.400391 0.746094 0 1.14648 0 1.67383C0 1.91797 0.107422 2.16211 0.273438 2.32812L6.91406 8.82227L0.273438 15.3066C0.107422 15.4824 0 15.707 0 15.9707C0 16.498 0.400391 16.8984 0.927734 16.8984C1.18164 16.8984 1.40625 16.8008 1.58203 16.6348L8.86719 9.50586C9.0625 9.31055 9.16016 9.08594 9.16016 8.82227Z" fill="#436EE8"/>
</svg>
