<svg width="36" height="36" viewBox="0 0 36 36" fill="none" xmlns="http://www.w3.org/2000/svg">
<path d="M18.0001 4.01006C22.5551 4.01006 23.0951 4.02506 24.8951 4.11006C26.5601 4.18506 27.465 4.46506 28.0651 4.70006C28.8601 5.01006 29.4301 5.38006 30.0251 5.97506C30.6201 6.57006 30.9901 7.14006 31.3001 7.93506C31.5351 8.53506 31.81 9.44006 31.89 11.1051C31.97 12.9051 31.99 13.4451 31.99 18.0001C31.99 22.5551 31.975 23.0951 31.89 24.8951C31.8151 26.5601 31.5351 27.4651 31.3001 28.0651C30.9901 28.8601 30.6201 29.4301 30.0251 30.0251C29.4301 30.6201 28.8601 30.9901 28.0651 31.3001C27.465 31.5351 26.5601 31.8101 24.8951 31.8901C23.0951 31.9701 22.5551 31.9901 18.0001 31.9901C13.4451 31.9901 12.9051 31.9751 11.1051 31.8901C9.44005 31.8151 8.53505 31.5351 7.93505 31.3001C7.14005 30.9901 6.57005 30.6201 5.97505 30.0251C5.38005 29.4301 5.01005 28.8601 4.70005 28.0651C4.46505 27.4651 4.19005 26.5601 4.11005 24.8951C4.03005 23.0951 4.01005 22.5551 4.01005 18.0001C4.01005 13.4451 4.02505 12.9051 4.11005 11.1051C4.18505 9.44006 4.46505 8.53506 4.70005 7.93506C5.01005 7.14006 5.38005 6.57006 5.97505 5.97506C6.57005 5.38006 7.14005 5.01006 7.93505 4.70006C8.53505 4.46506 9.44005 4.19006 11.1051 4.11006C12.9051 4.02506 13.4451 4.01006 18.0001 4.01006ZM18.0001 0.935059C13.3651 0.935059 12.7851 0.955059 10.9651 1.04006C9.15005 1.12506 7.91005 1.41006 6.82005 1.83506C5.70005 2.26506 4.74505 2.85006 3.80005 3.80006C2.85005 4.75006 2.27005 5.70006 1.83005 6.82506C1.41005 7.91006 1.12005 9.15006 1.03505 10.9701C0.950053 12.7901 0.930054 13.3701 0.930054 18.0051C0.930054 22.6401 0.950053 23.2201 1.03505 25.0401C1.12005 26.8551 1.40505 28.0951 1.83005 29.1851C2.26505 30.3001 2.85005 31.2551 3.80005 32.2001C4.75005 33.1501 5.70005 33.7301 6.82505 34.1701C7.91005 34.5901 9.15005 34.8801 10.9701 34.9651C12.7901 35.0501 13.3701 35.0701 18.0051 35.0701C22.6401 35.0701 23.2201 35.0501 25.0401 34.9651C26.8551 34.8801 28.0951 34.5951 29.1851 34.1701C30.3001 33.7351 31.2551 33.1501 32.2001 32.2001C33.1501 31.2501 33.7301 30.3001 34.1701 29.1751C34.5901 28.0901 34.8801 26.8501 34.965 25.0301C35.05 23.2101 35.0701 22.6301 35.0701 17.9951C35.0701 13.3601 35.05 12.7801 34.965 10.9601C34.8801 9.14506 34.5951 7.90506 34.1701 6.81506C33.7351 5.70006 33.1501 4.74506 32.2001 3.80006C31.2501 2.85006 30.3001 2.27006 29.1751 1.83006C28.0901 1.41006 26.85 1.12006 25.0301 1.03506C23.2151 0.955059 22.6351 0.935059 18.0001 0.935059Z" fill="#436EE8"/>
<path d="M18.0001 9.23499C13.1601 9.23499 9.23511 13.16 9.23511 18C9.23511 22.84 13.1601 26.765 18.0001 26.765C22.8401 26.765 26.7651 22.84 26.7651 18C26.7651 13.16 22.8401 9.23499 18.0001 9.23499ZM18.0001 23.69C14.8601 23.69 12.3101 21.145 12.3101 18C12.3101 14.855 14.8601 12.31 18.0001 12.31C21.1401 12.31 23.6901 14.855 23.6901 18C23.6901 21.145 21.1401 23.69 18.0001 23.69Z" fill="#436EE8"/>
<path d="M27.1101 10.94C28.2422 10.94 29.1601 10.0222 29.1601 8.88997C29.1601 7.75778 28.2422 6.83997 27.1101 6.83997C25.9779 6.83997 25.0601 7.75778 25.0601 8.88997C25.0601 10.0222 25.9779 10.94 27.1101 10.94Z" fill="#436EE8"/>
</svg>
