<svg width="21" height="17" viewBox="0 0 21 17" fill="none" xmlns="http://www.w3.org/2000/svg">
<path d="M10.627 9.375C11.0176 9.375 11.3691 9.18945 11.7793 8.78906L19.8164 0.820312C19.4746 0.488281 18.8301 0.332031 17.9219 0.332031H3.03906C2.26758 0.332031 1.71094 0.478516 1.39844 0.78125L9.48438 8.78906C9.88477 9.18945 10.2461 9.375 10.627 9.375ZM0.597656 14.8438L7.16016 8.33984L0.587891 1.85547C0.431641 2.12891 0.353516 2.58789 0.353516 3.24219V13.4473C0.353516 14.1016 0.431641 14.5703 0.597656 14.8438ZM20.6465 14.8242C20.793 14.5508 20.8711 14.0918 20.8711 13.4473V3.24219C20.8711 2.60742 20.793 2.14844 20.6465 1.875L14.0938 8.33984L20.6465 14.8242ZM3.30273 16.3574H18.1855C18.9766 16.3574 19.5234 16.2012 19.8359 15.9082L13.1465 9.26758L12.541 9.87305C11.9062 10.4785 11.3008 10.7715 10.627 10.7715C9.95312 10.7715 9.34766 10.4785 8.71289 9.87305L8.10742 9.26758L1.4375 15.8887C1.78906 16.2012 2.41406 16.3574 3.30273 16.3574Z" fill="#436EE8"/>
</svg>
