<svg width="18" height="18" viewBox="0 0 18 18" fill="none" xmlns="http://www.w3.org/2000/svg">
<path d="M4.85547 12.5293C7.54102 15.2246 10.8125 17.3047 13.4785 17.3047C14.6797 17.3047 15.7344 16.8848 16.5742 15.9473C17.0625 15.4004 17.3652 14.7656 17.3652 14.1406C17.3652 13.6621 17.1895 13.2031 16.7402 12.8906L13.8984 10.8789C13.4688 10.5664 13.0977 10.4199 12.7656 10.4199C12.3457 10.4199 11.9648 10.6641 11.5449 11.084L10.8809 11.7383C10.7734 11.8457 10.6465 11.875 10.5293 11.875C10.3828 11.875 10.2461 11.8262 10.1484 11.7773C9.58203 11.4746 8.5957 10.625 7.67773 9.7168C6.76953 8.79883 5.91992 7.82227 5.61719 7.24609C5.56836 7.14844 5.51953 7.01172 5.51953 6.875C5.51953 6.75781 5.54883 6.63086 5.65625 6.52344L6.31055 5.84961C6.73047 5.42969 6.97461 5.04883 6.97461 4.61914C6.97461 4.28711 6.81836 3.92578 6.51562 3.48633L4.52344 0.683594C4.19141 0.234375 3.72266 0.0292969 3.21484 0.0292969C2.59961 0.0292969 1.97461 0.3125 1.42773 0.830078C0.519531 1.69922 0.128906 2.76367 0.128906 3.94531C0.128906 6.62109 2.16992 9.85352 4.85547 12.5293Z" fill="#436EE8"/>
</svg>
