<svg width="34" height="21" viewBox="0 0 34 21" fill="none" xmlns="http://www.w3.org/2000/svg">
<path d="M32.95 2.22495C33.18 1.44995 32.95 0.884949 31.845 0.884949H28.2C27.275 0.884949 26.845 1.37495 26.615 1.91495C26.615 1.91495 24.76 6.43495 22.135 9.36995C21.285 10.2199 20.9 10.4899 20.435 10.4899C20.205 10.4899 19.87 10.2199 19.87 9.44495V2.22495C19.87 1.29995 19.6 0.884949 18.83 0.884949H13.1C12.52 0.884949 12.17 1.31495 12.17 1.72495C12.17 2.60495 13.485 2.80495 13.62 5.27995V10.6499C13.62 11.8249 13.405 12.0399 12.945 12.0399C11.71 12.0399 8.70502 7.49995 6.92002 2.30495C6.57002 1.29495 6.22002 0.889948 5.29002 0.889948H1.64502C0.60502 0.889948 0.39502 1.37995 0.39502 1.91995C0.39502 2.88495 1.63002 7.67495 6.15002 14.0099C9.16502 18.3349 13.405 20.6799 17.27 20.6799C19.585 20.6799 19.875 20.1599 19.875 19.2599V15.9899C19.875 14.9499 20.095 14.7399 20.83 14.7399C21.37 14.7399 22.3 15.0099 24.46 17.0949C26.93 19.5649 27.34 20.6749 28.73 20.6749H32.375C33.415 20.6749 33.935 20.1549 33.635 19.1249C33.305 18.0999 32.125 16.6149 30.56 14.8499C29.71 13.8449 28.435 12.7649 28.05 12.2249C27.51 11.5299 27.665 11.2199 28.05 10.6049C28.045 10.6049 32.485 4.34995 32.95 2.22495Z" fill="#436EE8"/>
</svg>
