<svg width="34" height="24" viewBox="0 0 34 24" fill="none" xmlns="http://www.w3.org/2000/svg">
<path d="M32.91 3.95493C32.53 2.51493 31.405 1.38493 29.975 0.999927C27.385 0.299927 17.005 0.299927 17.005 0.299927C17.005 0.299927 6.62002 0.299927 4.03502 0.999927C2.60502 1.38493 1.48002 2.51493 1.10002 3.95493C0.400024 6.55992 0.400024 11.9999 0.400024 11.9999C0.400024 11.9999 0.400024 17.4399 1.09502 20.0449C1.47502 21.4849 2.60002 22.6149 4.03002 22.9999C6.62002 23.6999 17 23.6999 17 23.6999C17 23.6999 27.385 23.6999 29.97 22.9999C31.4 22.6149 32.525 21.4849 32.905 20.0449C33.6 17.4399 33.6 11.9999 33.6 11.9999C33.6 11.9999 33.6 6.55992 32.91 3.95493ZM13.605 16.9349V7.06492L22.28 11.9999L13.605 16.9349Z" fill="#436EE8"/>
</svg>
