<svg width="15" height="15" viewBox="0 0 15 15" fill="none" xmlns="http://www.w3.org/2000/svg">
<path fill-rule="evenodd" clip-rule="evenodd" d="M2.5 7.5C2.5 7.15482 2.77982 6.875 3.125 6.875H11.875C12.2202 6.875 12.5 7.15482 12.5 7.5C12.5 7.84518 12.2202 8.125 11.875 8.125H3.125C2.77982 8.125 2.5 7.84518 2.5 7.5Z" fill="white"/>
<path fill-rule="evenodd" clip-rule="evenodd" d="M7.05806 2.68306C7.30214 2.43898 7.69786 2.43898 7.94194 2.68306L12.3169 7.05806C12.561 7.30214 12.561 7.69786 12.3169 7.94194L7.94194 12.3169C7.69786 12.561 7.30214 12.561 7.05806 12.3169C6.81398 12.0729 6.81398 11.6771 7.05806 11.4331L10.9911 7.5L7.05806 3.56694C6.81398 3.32286 6.81398 2.92714 7.05806 2.68306Z" fill="white"/>
</svg>
