<svg width="20" height="20" viewBox="0 0 20 20" fill="none" xmlns="http://www.w3.org/2000/svg">
<path fill-rule="evenodd" clip-rule="evenodd" d="M3.33337 9.99996C3.33337 9.53972 3.70647 9.16663 4.16671 9.16663H15.8334C16.2936 9.16663 16.6667 9.53972 16.6667 9.99996C16.6667 10.4602 16.2936 10.8333 15.8334 10.8333H4.16671C3.70647 10.8333 3.33337 10.4602 3.33337 9.99996Z" fill="#C9283B"/>
<path fill-rule="evenodd" clip-rule="evenodd" d="M9.4107 3.57745C9.73614 3.25201 10.2638 3.25201 10.5892 3.57745L16.4225 9.41079C16.748 9.73622 16.748 10.2639 16.4225 10.5893L10.5892 16.4226C10.2638 16.7481 9.73614 16.7481 9.4107 16.4226C9.08527 16.0972 9.08527 15.5696 9.4107 15.2441L14.6548 10L9.4107 4.75596C9.08527 4.43053 9.08527 3.90289 9.4107 3.57745Z" fill="#C9283B"/>
</svg>
