<svg width="50" height="50" viewBox="0 0 50 50" fill="none" xmlns="http://www.w3.org/2000/svg">
<path fill-rule="evenodd" clip-rule="evenodd" d="M24.9997 6.25004C14.6443 6.25004 6.24967 14.6447 6.24967 25C6.24967 35.3554 14.6443 43.75 24.9997 43.75C35.355 43.75 43.7497 35.3554 43.7497 25C43.7497 14.6447 35.355 6.25004 24.9997 6.25004ZM2.08301 25C2.08301 12.3435 12.3431 2.08337 24.9997 2.08337C37.6562 2.08337 47.9163 12.3435 47.9163 25C47.9163 37.6566 37.6562 47.9167 24.9997 47.9167C12.3431 47.9167 2.08301 37.6566 2.08301 25Z" fill="#C9283B"/>
<path fill-rule="evenodd" clip-rule="evenodd" d="M23.5265 15.1936C24.3401 14.38 25.6592 14.38 26.4728 15.1936L34.8061 23.5269C35.6197 24.3405 35.6197 25.6596 34.8061 26.4732C33.9926 27.2868 32.6735 27.2868 31.8599 26.4732L24.9997 19.613L18.1395 26.4732C17.3259 27.2868 16.0068 27.2868 15.1932 26.4732C14.3796 25.6596 14.3796 24.3405 15.1932 23.5269L23.5265 15.1936Z" fill="#C9283B"/>
<path fill-rule="evenodd" clip-rule="evenodd" d="M25.0003 14.5834C26.1509 14.5834 27.0837 15.5161 27.0837 16.6667V33.3334C27.0837 34.484 26.1509 35.4167 25.0003 35.4167C23.8497 35.4167 22.917 34.484 22.917 33.3334V16.6667C22.917 15.5161 23.8497 14.5834 25.0003 14.5834Z" fill="#C9283B"/>
</svg>
