<svg width="47" height="40" viewBox="0 0 47 40" fill="none" xmlns="http://www.w3.org/2000/svg">
<path fill-rule="evenodd" clip-rule="evenodd" d="M0 20.165C0 19.2454 1.11929 18.5 2.5 18.5H37.5C38.8807 18.5 40 19.2454 40 20.165C40 21.0846 38.8807 21.83 37.5 21.83H2.5C1.11929 21.83 0 21.0846 0 20.165Z" fill="#C9283B"/>
<path fill-rule="evenodd" clip-rule="evenodd" d="M25.8217 7.1549C26.4725 6.50403 27.5278 6.50403 28.1787 7.1549L39.8453 18.8216C40.4962 19.4724 40.4962 20.5277 39.8453 21.1786L28.1787 32.8453C27.5278 33.4961 26.4725 33.4961 25.8217 32.8453C25.1708 32.1944 25.1708 31.1391 25.8217 30.4882L36.3098 20.0001L25.8217 9.51193C25.1708 8.86105 25.1708 7.80578 25.8217 7.1549Z" fill="#C9283B"/>
</svg>
