<svg width="409" height="389" viewBox="0 0 409 389" fill="none" xmlns="http://www.w3.org/2000/svg">
<path fill-rule="evenodd" clip-rule="evenodd" d="M366.981 0.216914C360.64 1.175 351.034 5.97641 346.33 10.5413C339.567 17.1027 334.922 30.0812 335.692 40.2612C335.968 43.9036 336.58 47.6546 337.052 48.5963C337.523 49.5379 338.897 52.2999 340.103 54.7339C342.286 59.1407 352.789 69.94 354.901 69.951C355.51 69.9546 357.244 70.657 358.753 71.5137C362.714 73.7623 382.22 73.7623 386.182 71.5137C387.69 70.657 389.379 69.9546 389.935 69.951C391.661 69.9418 402.556 59.3563 404.172 56.1194C408.521 47.4071 408.959 45.764 408.999 38.0308C409.049 28.3613 406.967 21.7406 401.639 14.6239C397.487 9.07992 391.318 4.49589 384.81 2.1203C380.378 0.502788 371.42 -0.454387 366.981 0.216914ZM386.383 8.29445C391.678 10.6883 398.195 16.8451 400.492 21.6228C401.316 23.3353 402.547 25.9282 403.229 27.3859C403.975 28.9824 404.44 32.9755 404.397 37.4326C404.31 46.5477 401.477 53.2095 394.889 59.791C387.894 66.778 383.359 68.5527 372.467 68.5645C361.463 68.5773 357.518 67.0539 350.375 60.0285C341.688 51.487 338.236 39.9753 341.252 29.609C343.525 21.799 347.093 16.2679 352.707 11.8519C357.952 7.72636 361.432 6.24493 367.896 5.38548C369.907 5.11787 371.666 4.79638 371.805 4.67125C372.535 4.01 382.244 6.42303 386.383 8.29445ZM357.381 37.5742V55.4372L361.267 55.1559L365.153 54.8755L365.181 48.4821L365.21 42.0888L370.261 41.8202C376.687 41.4787 378.191 42.9327 378.583 49.8631L378.867 54.8755L383.017 55.1458L387.168 55.4162L386.217 48.5689C385.695 44.8032 384.754 41.2083 384.125 40.5808C382.509 38.9688 382.701 37.6025 384.81 35.6954C386.188 34.4505 386.635 32.8942 386.625 29.3888C386.61 24.2322 386.282 23.496 383.006 21.2574C381.174 20.0043 378.537 19.7121 369.063 19.7121H357.381V37.5742ZM377.483 27.4635C379.835 29.5898 379.824 32.0001 377.453 34.3683C375.934 35.8854 374.712 36.1676 370.959 35.8671C368.415 35.6635 366.063 35.0579 365.732 34.5227C365.401 33.9866 365.277 31.685 365.458 29.408L365.788 25.2679L370.714 25.5337C373.9 25.7054 376.293 26.3876 377.483 27.4635ZM162.177 36.6745C157.148 37.3449 151.594 38.2929 149.834 38.7798C148.074 39.2675 143.137 40.5361 138.862 41.5992C134.588 42.6632 130.268 43.8835 129.262 44.3127C128.256 44.7411 125.376 45.8079 122.862 46.6819C99.2748 54.8837 73.7081 71.2123 54.2562 90.4974C41.3207 103.322 29.816 118.995 21.0267 135.767C10.4866 155.878 3.7857 177.761 0.766667 201.922C-0.249125 210.055 -0.257355 236.612 0.752952 244.393C2.74248 259.711 5.04104 269.887 9.62171 283.666C13.0504 293.979 20.7049 310.669 26.0042 319.382L29.2783 324.766H187.275C331.262 324.766 345.379 324.636 346.491 323.298C348.794 320.526 358.557 301.788 360.716 295.996C368.884 274.083 371.644 263.225 373.95 243.936C375.099 234.315 374.475 199.34 373.044 193.246C372.513 190.985 371.197 185.231 370.119 180.459C368.032 171.214 366.056 164.446 364.082 159.771C363.414 158.188 362.867 156.492 362.867 156.003C362.867 154.841 358.99 146.047 354.926 137.989C344.22 116.762 324.83 92.4455 308.009 79.1519C304.74 76.5681 301.339 73.8491 300.45 73.1093C297.668 70.7922 290.403 65.8738 284.694 62.4434C278.747 58.8695 259.261 48.9388 258.196 48.9388C257.835 48.9388 256.244 48.3625 254.66 47.6592C249.676 45.4453 236.541 41.4677 226.178 39.0346C210.343 35.3164 180.578 34.2186 162.177 36.6745ZM185.122 48.5853C184.81 49.3964 181.207 55.8692 177.115 62.9703C173.023 70.0715 167.332 79.9922 164.468 85.0155C161.606 90.0389 154.613 102.163 148.931 111.959C143.247 121.754 137.574 131.618 136.322 133.879C135.071 136.139 133.734 138.4 133.352 138.902C132.682 139.784 131.114 142.51 126.26 151.232C125.001 153.493 123.208 156.433 122.274 157.766C121.341 159.1 120.576 160.397 120.576 160.648C120.576 160.899 116.749 167.617 112.07 175.576C103.067 190.895 96.6571 202.027 88.7731 216.031C87.5159 218.266 85.2429 222.17 83.7234 224.707C82.2029 227.246 77.2793 235.693 72.7819 243.479C68.2844 251.265 61.6667 262.681 58.0753 268.847C54.4839 275.014 50.9291 281.216 50.1748 282.632C45.0666 292.216 35.0129 308.326 34.1406 308.326C33.2967 308.326 28.0312 298.016 22.7118 285.949C20.7543 281.508 16.2257 265.039 14.5489 256.266C10.1337 233.16 10.9465 200.855 16.4452 180.916C21.2572 163.465 27.042 149.325 35.5898 134.115C43.8853 119.354 59.2666 101.077 73.0324 89.6242C91.495 74.2628 110.6 63.5311 133.834 55.471C145.435 51.4459 167.769 47.3998 179.418 47.2126C184.834 47.1258 185.611 47.313 185.122 48.5853ZM212.342 48.8858C227.394 50.7728 250.491 57.9744 264.579 65.1751C284.94 75.5817 298.228 85.3032 313.667 101.088C337.941 125.906 353.953 156.941 360.745 192.332C363.167 204.954 363.141 242.042 360.703 254.439C358.402 266.132 354.328 280.731 351.91 285.949C351.444 286.954 349.97 290.447 348.633 293.713C346.209 299.635 342.317 307.188 340.947 308.63C340.549 309.048 336.653 303.294 332.289 295.843C318.08 271.582 308.009 254.181 308.009 253.89C308.009 253.734 306.722 251.431 305.151 248.771C303.578 246.111 295.187 231.606 286.501 216.536C277.816 201.466 264.651 178.655 257.247 165.846C249.843 153.036 242.751 140.706 241.487 138.446C240.222 136.185 237.737 131.87 235.963 128.856C234.19 125.842 230.405 119.266 227.554 114.242C224.702 109.219 219.973 100.999 217.046 95.9755C214.12 90.9522 210.803 85.1982 209.675 83.1889C208.548 81.1795 203.522 72.5485 198.506 64.0088C193.49 55.4691 189.597 48.1195 189.854 47.6765C190.343 46.8317 200.164 47.3596 212.342 48.8858ZM192.262 73.5988C194.573 77.6175 198.256 84.0903 200.445 87.9839C202.635 91.8765 206.955 99.449 210.046 104.809C213.136 110.171 215.664 114.761 215.664 115.009C215.664 115.258 217.447 118.475 219.626 122.158C221.804 125.842 224.84 131.116 226.37 133.879C233.378 146.528 238.78 156.181 244.517 166.302C247.933 172.33 251.912 179.403 253.359 182.019L255.989 186.777L252.513 193.436C250.6 197.099 248.728 200.233 248.35 200.4C247.973 200.568 247.665 201.063 247.665 201.5C247.665 201.938 245.607 205.867 243.093 210.232C240.579 214.597 238.522 218.343 238.522 218.557C238.522 218.772 236.732 221.898 234.546 225.505C232.36 229.111 229.121 234.734 227.349 237.999C225.577 241.264 221.677 248.251 218.684 253.526C209.776 269.218 200 286.611 197.893 290.516C193.956 297.809 188.013 307.413 187.437 307.413C186.721 307.413 185.874 306.078 181.353 297.823C179.427 294.306 176.279 288.854 174.357 285.704C172.436 282.556 170.863 279.825 170.863 279.635C170.863 279.445 166.899 272.362 162.055 263.896C153.646 249.2 146.371 236.317 142.016 228.409C139.566 223.96 130.333 207.751 123.576 196.037L118.6 187.411L120.678 183.257C121.82 180.972 125.144 175.059 128.065 170.116C130.987 165.174 133.377 160.929 133.377 160.684C133.377 160.439 135.159 157.287 137.339 153.68C139.519 150.073 142.544 144.862 144.063 142.099C146.519 137.631 158.845 115.764 164.399 106.022C165.544 104.013 170.412 95.3819 175.216 86.8422C183.48 72.1503 187.054 66.2922 187.753 66.2922C187.922 66.2922 189.952 69.5802 192.262 73.5988ZM30.9744 363.583V388.699L37.3745 388.797C40.8946 388.851 45.6261 388.895 47.889 388.895C50.1519 388.895 54.8834 388.851 58.4035 388.797L64.8037 388.699V378.734V368.769L61.866 366.299L58.9283 363.829L61.866 361.207L64.8037 358.585V348.526V338.466H47.889H30.9744V363.583ZM75.4708 339.075C75.1353 339.41 74.861 350.712 74.861 364.192V388.699L86.9755 388.821C98.9776 388.941 102.439 388.934 106.862 388.781C109.015 388.706 109.141 388.423 109.031 383.905L108.914 379.109L97.6025 378.653L86.2898 378.196V373.629V369.063L91.5471 368.789L96.8043 368.515V363.583V358.651L91.5471 358.377L86.2898 358.103V353.536V348.969L97.4901 348.713L108.69 348.456V343.461V338.466H92.3855C83.4171 338.466 75.8055 338.74 75.4708 339.075ZM117.833 363.583V388.699H122.862H127.891V382.381C127.891 372.712 127.272 373.173 140.275 373.173H151.548L151.834 363.343C151.991 357.937 151.985 350.128 151.822 345.989L151.524 338.466H134.678H117.833V363.583ZM162.348 339.056C161.979 339.426 161.709 350.728 161.75 364.173L161.824 388.618L167.944 388.888C171.309 389.036 182.807 389.037 193.492 388.893L212.921 388.63V363.548V338.466H207.911H202.899L202.653 358.331L202.407 378.196L197.625 378.472L192.842 378.747L192.596 358.835L192.349 338.923H187.32H182.292L182.045 358.788L181.799 378.653H177.245H172.692L172.601 361.071C172.475 336.392 173.047 338.97 167.628 338.653C165.094 338.505 162.718 338.686 162.348 339.056ZM223.855 339.151C223.818 339.818 223.836 385.282 223.873 387.558C223.886 388.34 225.59 388.699 229.281 388.699C234.551 388.699 234.696 388.632 235.909 385.605C238.622 378.837 247.249 361.367 247.893 361.334C248.589 361.298 248.743 364.019 248.932 379.566L249.036 388.243L254.293 388.517L259.551 388.791V363.628V338.466H254.012H248.473L244.369 347.371C236.907 363.566 235.328 366.708 234.636 366.744C234.258 366.764 233.95 360.409 233.95 352.623V338.466H228.921C226.156 338.466 223.875 338.774 223.855 339.151ZM269.822 363.354L270.065 388.243L275.094 388.51L280.122 388.777L279.819 380.88C279.652 376.538 279.767 371.98 280.075 370.754C280.608 368.63 280.928 368.537 286.779 368.793L292.923 369.063L293.182 378.881L293.442 388.699L298.668 388.7H303.894L303.637 363.584L303.38 338.466H298.38H293.38V347.068C293.38 351.799 293.13 356.32 292.825 357.115C292.406 358.203 290.956 358.559 286.936 358.559C283.905 358.559 281.321 358.106 280.953 357.51C280.199 356.293 280.005 354.184 279.809 345.088L279.665 338.466H274.622H269.579L269.822 363.354ZM315.829 345.544C315.519 349.437 314.879 355.705 314.408 359.473C313.936 363.24 313.275 370.433 312.939 375.456C312.602 380.479 311.998 385.474 311.595 386.557C310.924 388.362 311.2 388.551 314.935 388.847C321.422 389.363 322.118 388.805 322.638 382.676L323.095 377.283L329.138 376.988L335.183 376.692L335.767 379.614C336.089 381.22 336.352 383.922 336.352 385.617V388.699H341.795H347.238L346.789 384.361C346.542 381.975 345.964 375.502 345.505 369.976C345.046 364.45 344.178 355.1 343.575 349.198L342.48 338.466H329.436H316.394L315.829 345.544ZM52.0034 349.312C54.2453 349.405 54.7463 349.821 54.7463 351.586C54.7463 352.774 53.8933 354.829 52.851 356.153C51.2619 358.171 50.2296 358.559 46.4508 358.559H41.946V354.069C41.946 349.266 42.2752 348.907 46.5176 349.084C48.0262 349.147 50.4948 349.249 52.0034 349.312ZM140.045 349.322C141.489 349.413 141.653 350.22 141.417 356.048L141.148 362.669H134.748H128.348L128.074 356.358C127.924 352.887 128.193 349.804 128.673 349.508C129.425 349.044 134.398 348.963 140.045 349.322ZM333.949 357.353C334.336 362.381 334.221 365.489 333.634 365.851C333.125 366.166 330.957 366.378 328.816 366.325C324.446 366.215 324.8 367.333 325.203 354.906L325.381 349.426H329.36H333.34L333.949 357.353ZM52.392 370.753C54.2617 372.358 54.8176 373.57 54.5918 375.548C54.2946 378.147 54.1749 378.201 48.1176 378.466L41.946 378.736V373.671V368.606H45.9178C48.7695 368.606 50.5963 369.213 52.392 370.753Z" fill="#F8F8F8"/>
</svg>
