<svg width="210" height="195" viewBox="0 0 210 195" fill="none" xmlns="http://www.w3.org/2000/svg">
<path fill-rule="evenodd" clip-rule="evenodd" d="M178.8 161.747C188.511 146.661 194.203 128.525 194.203 109.299C194.203 72.258 173.429 40.0319 142.846 23.7266V30.9166C169.828 46.548 187.964 75.8535 187.964 109.299C187.964 125.637 183.656 140.85 176.034 154.139L142.846 96.7165V161.747H178.8ZM97.1496 27.8667L132.492 90.682L97.1496 153.337L61.6796 90.682L97.1496 27.8667ZM142.846 23.7266C142.814 23.6945 142.782 23.6945 142.782 23.6945C129.18 16.3444 113.519 12.2031 97.1496 12.2031C80.685 12.2031 65.0241 16.3444 51.4206 23.6945V30.8845C64.7343 23.1167 80.1383 18.5591 96.6027 18.5591L51.4206 96.5884V96.6204V161.747H142.782H142.846V96.7165L142.782 96.5884L97.6962 18.5591C114.065 18.5591 129.469 23.1167 142.782 30.8845C142.782 30.8845 142.814 30.9166 142.846 30.9166V23.7266ZM51.4206 23.6945C20.806 39.9998 0 72.258 0 109.299C0 128.525 5.69173 146.661 15.5326 161.747H51.4206V96.6204L18.1697 154.139C10.548 140.85 6.23839 125.637 6.23839 109.299C6.23839 75.8535 24.4083 46.5159 51.4206 30.8845V23.6945Z" fill="#F8E622"/>
<path fill-rule="evenodd" clip-rule="evenodd" d="M170.372 188.741V183.028H173.009L172.173 174.072H170.372V168.391H177.19L179.795 195H174.07L173.492 188.741H170.372ZM170.372 168.391V174.072H168.571L167.703 183.028H170.372V188.741H167.221L166.642 195H160.918L163.522 168.391H170.372ZM69.9746 187.008V181.326H73.1903V174.072H69.9746V168.391H78.9144V187.008H69.9746ZM145.128 168.391V178.726H151.592V168.391H157.316V195H151.592V184.408H145.128V195H139.404V174.072V168.391H145.128ZM134.451 168.391V195H128.76V179.112L121.202 195H115.478V174.072V168.391H121.202V184.279L128.76 168.391H134.451ZM83.8025 174.072V168.391H89.4944V189.287H94.2216V168.391H99.9459V189.287H104.705V168.391H110.429V195H83.8025V174.072ZM28.4584 174.072V177.09L26.3681 179.015H25.2103V184.344H26.3681L28.4584 186.302V189.287H25.2103V195H34.1503V184.344L30.838 181.68L34.1503 179.015V168.391H25.2103V174.072H28.4584ZM69.9746 168.391V174.072H66.7264V181.326H69.9746V187.008H66.7264V195H61.0024V168.391H69.9746ZM56.6288 168.391V174.072H44.8268V178.855H50.8404V184.536H44.8268V189.287H56.6288V195H39.1027V168.391H56.6288ZM25.2103 179.015H21.9624V174.072H25.2103V168.391H16.2383V195H25.2103V189.287H21.9624V184.344H25.2103V179.015Z" fill="#F8E622"/>
<path d="M175.578 17.1786V17.1713H175.582C175.584 12.4266 177.51 8.13255 180.623 5.02691C183.73 1.9265 188.026 0.00827991 192.774 0.00422444V0H192.789H192.796V0.00422444C197.548 0.00625218 201.851 1.92752 204.964 5.03519C208.07 8.13661 209.992 12.4246 209.996 17.1632H210V17.1786V17.1859H209.996C209.994 21.9286 208.067 26.2248 204.954 29.3303C201.848 32.4299 197.552 34.349 192.805 34.3532V34.3572H192.789H192.782V34.3532C188.028 34.351 183.726 32.4277 180.615 29.321C177.509 26.2206 175.586 21.9326 175.582 17.1942H175.578V17.1786ZM177.645 17.1713H177.649V17.1786V17.1942H177.645C177.648 21.3622 179.343 25.1365 182.079 27.868C184.815 30.6005 188.601 32.2933 192.782 32.2944V32.2903H192.789H192.805V32.2944C196.981 32.2913 200.762 30.5995 203.499 27.869C206.237 25.1364 207.932 21.3591 207.933 17.1859H207.929V17.1786V17.1632H207.933C207.93 12.9951 206.236 9.22077 203.5 6.48823C200.762 3.75468 196.977 2.0639 192.796 2.06288V2.06711H192.789H192.774V2.06288C188.598 2.06592 184.816 3.75671 182.079 6.48823C179.341 9.21976 177.646 12.9983 177.645 17.1713Z" fill="#F8E622"/>
<path fill-rule="evenodd" clip-rule="evenodd" d="M185.007 26.2624H189.284V19.5539H192.564C193.078 19.5539 195.329 19.4578 195.522 21.6403C195.747 24.4007 195.458 25.1069 196.23 26.2624H200.603C199.96 25.3316 199.96 24.5613 199.896 22.2502C199.864 20.9342 199.831 18.5911 197.291 17.8528V17.8207C198.513 17.4035 200.475 16.3121 200.475 13.2629C200.475 8.57663 196.133 8.12732 194.3 8.12732H185.007V26.2624ZM189.284 11.6258H193.046C194.879 11.6258 195.94 12.1716 195.94 13.9691C195.94 14.8357 195.619 16.2479 193.207 16.2479H189.284V11.6258Z" fill="#F8E622"/>
</svg>
