<svg width="71" height="67" viewBox="0 0 71 67" fill="none" xmlns="http://www.w3.org/2000/svg">
<path fill-rule="evenodd" clip-rule="evenodd" d="M59.4182 54.3282C62.6039 49.3544 64.4632 43.4765 64.4632 37.1462C64.4632 19.6439 50.1874 5.45035 32.6392 5.45035C15.0476 5.45035 0.760986 19.6439 0.760986 37.1462C0.760986 43.4765 2.63113 49.3544 5.86023 54.3282H59.4182ZM32.8458 9.5748L44.7949 31.1575L32.8458 52.6851L20.8536 31.1575L32.8458 9.5748Z" fill="#F8E622"/>
<path d="M45.8767 31.0231L32.769 8.30975L19.6614 31.0231L32.769 53.7365L45.8767 31.0231Z" fill="white"/>
<path fill-rule="evenodd" clip-rule="evenodd" d="M60.4513 55.5746C63.7347 50.3912 65.6591 44.16 65.6591 37.5542C65.6591 24.8272 58.6355 13.7546 48.2957 8.1523V10.6227C57.4179 15.9935 63.5499 26.0626 63.5499 37.5542C63.5499 43.1675 62.0932 48.3949 59.5163 52.9607L48.2957 33.2309V55.5746H60.4513ZM32.8458 9.5748L44.7949 31.1575L32.8458 52.6851L20.8536 31.1575L32.8458 9.5748ZM48.2957 8.1523C48.2848 8.14127 48.274 8.14127 48.274 8.14127C43.675 5.61587 38.3801 4.19296 32.8458 4.19296C27.2792 4.19296 21.9844 5.61587 17.3851 8.14127V10.6117C21.8864 7.94276 27.0944 6.3768 32.6609 6.3768L17.3851 33.1869V33.1979V55.5746H48.274H48.2957V33.2309L48.274 33.1869L33.0307 6.3768C38.565 6.3768 43.7727 7.94276 48.274 10.6117C48.274 10.6117 48.2848 10.6227 48.2957 10.6227V8.1523ZM17.3851 8.14127C7.03441 13.7436 0 24.8272 0 37.5542C0 44.16 1.92435 50.3912 5.2515 55.5746H17.3851V33.1979L6.1431 52.9607C3.56623 48.3949 2.10917 43.1675 2.10917 37.5542C2.10917 26.0626 8.25233 15.9825 17.3851 10.6117V8.14127Z" fill="#CC282B"/>
<path fill-rule="evenodd" clip-rule="evenodd" d="M57.6025 64.8494V62.8864H58.494L58.2113 59.8094H57.6025V57.8575H59.9075L60.7881 67H58.8528L58.6571 64.8494H57.6025ZM57.6025 57.8575V59.8094H56.9936L56.7001 62.8864H57.6025V64.8494H56.537L56.3412 67H54.406L55.2866 57.8575H57.6025ZM23.6585 64.2539V62.3019H24.7457V59.8094H23.6585V57.8575H26.681V64.2539H23.6585ZM49.0676 57.8575V61.4086H51.2529V57.8575H53.1882V67H51.2529V63.3606H49.0676V67H47.1322V59.8094V57.8575H49.0676ZM45.4578 57.8575V67H43.5334V61.5409L40.9784 67H39.0431V59.8094V57.8575H40.9784V63.3165L43.5334 57.8575H45.4578ZM28.3336 59.8094V57.8575H30.258V65.0369H31.8563V57.8575H33.7917V65.0369H35.4008V57.8575H37.3361V67H28.3336V59.8094ZM9.62205 59.8094V60.8462L8.91533 61.5079H8.52388V63.3386H8.91533L9.62205 64.0113V65.0369H8.52388V67H11.5465V63.3386L10.4266 62.4232L11.5465 61.5079V57.8575H8.52388V59.8094H9.62205ZM23.6585 57.8575V59.8094H22.5603V62.3019H23.6585V64.2539H22.5603V67H20.625V57.8575H23.6585ZM19.1463 57.8575V59.8094H15.1561V61.4527H17.1893V63.4048H15.1561V65.0369H19.1463V67H13.2208V57.8575H19.1463ZM8.52388 61.5079H7.42576V59.8094H8.52388V57.8575H5.49048V67H8.52388V65.0369H7.42576V63.3386H8.52388V61.5079Z" fill="#CC282B"/>
<path d="M59.3621 5.9024V5.8999H59.3635C59.3642 4.26966 60.0153 2.79426 61.0676 1.72719C62.1182 0.661927 63.5707 0.00284489 65.1758 0.00145148V0H65.181H65.1835V0.00145148C66.79 0.00214818 68.2449 0.662276 69.2972 1.73004C70.3475 2.79566 70.9972 4.26896 70.9986 5.89711H71V5.9024V5.90489H70.9986C70.9979 7.53443 70.3464 9.01059 69.294 10.0776C68.2438 11.1426 66.7914 11.8019 65.1863 11.8034V11.8048H65.181H65.1786V11.8034C63.5714 11.8026 62.1168 11.1418 61.0648 10.0744C60.015 9.00914 59.3649 7.53583 59.3635 5.90774H59.3621V5.9024ZM60.0608 5.8999H60.0622V5.9024V5.90774H60.0608C60.0619 7.33982 60.6349 8.63663 61.5598 9.57515C62.4851 10.514 63.7649 11.0957 65.1786 11.096V11.0946H65.181H65.1863V11.096C66.5981 11.095 67.8766 10.5137 68.8019 9.5755C69.7278 8.63663 70.3009 7.33878 70.3012 5.90489H70.2998V5.9024V5.89711H70.3012C70.3002 4.46497 69.7275 3.16816 68.8022 2.22929C67.8766 1.29007 66.5971 0.709133 65.1835 0.708785V0.710237H65.181H65.1758V0.708785C63.7639 0.70983 62.4854 1.29077 61.5598 2.22929C60.6342 3.16781 60.0612 4.46607 60.0608 5.8999Z" fill="#CC282B"/>
<path fill-rule="evenodd" clip-rule="evenodd" d="M62.5498 9.02356H63.9959V6.71861H65.1049C65.2788 6.71861 66.0399 6.68558 66.1051 7.43547C66.1812 8.38392 66.0833 8.62655 66.3443 9.02356H67.823C67.6055 8.70377 67.6055 8.43907 67.5838 7.645C67.5729 7.19284 67.562 6.38779 66.7031 6.13413V6.1231C67.1163 5.97975 67.7795 5.60475 67.7795 4.55707C67.7795 2.94692 66.3117 2.79254 65.692 2.79254H62.5498V9.02356ZM63.9959 3.9946H65.2679C65.8877 3.9946 66.2465 4.18213 66.2465 4.7997C66.2465 5.09748 66.1377 5.58269 65.3223 5.58269H63.9959V3.9946Z" fill="#CC282B"/>
</svg>
