<svg width="20" height="20" viewBox="0 0 20 20" fill="none" xmlns="http://www.w3.org/2000/svg">
<path fill-rule="evenodd" clip-rule="evenodd" d="M6.31901 1.91134C6.58914 1.87669 6.86318 1.93177 7.09894 2.06812C7.33365 2.20385 7.51748 2.41264 7.62241 2.66257L9.19045 6.32136C9.19068 6.32188 9.19091 6.3224 9.19113 6.32292C9.27231 6.51054 9.30624 6.71521 9.28994 6.919C9.27359 7.12336 9.20723 7.32057 9.0967 7.49323L9.09259 7.49966L7.79034 9.48024C8.37152 10.6789 9.34086 11.6459 10.5409 12.2242L10.5435 12.2225L12.495 10.9188C12.6682 10.8019 12.8681 10.7305 13.0763 10.7114C13.2844 10.6922 13.494 10.7258 13.6856 10.8092C13.6864 10.8095 13.6872 10.8099 13.6879 10.8102L17.3378 12.3777C17.5876 12.4827 17.7962 12.6665 17.9319 12.9011C18.0683 13.1368 18.1233 13.4109 18.0887 13.681C17.9535 14.7362 17.4384 15.7061 16.6399 16.409C15.8413 17.1119 14.814 17.4998 13.7501 17.5C10.7665 17.5 7.90483 16.3148 5.79505 14.205C3.68526 12.0952 2.5 9.23371 2.5 6.25003C2.50024 5.18617 2.88811 4.15871 3.59104 3.36016C4.29392 2.56166 5.26386 2.04658 6.31901 1.91134ZM7.22656 9.75003L6.6628 10.0198C6.5705 9.82696 6.52921 9.61364 6.54289 9.40026C6.55657 9.18688 6.62475 8.98058 6.74092 8.80108L6.74338 8.79728L8.0439 6.81927L8.04272 6.81654L6.47241 3.15248C5.72087 3.25016 5.03014 3.61712 4.52931 4.18608C4.02725 4.75643 3.75021 5.49018 3.75 6.25003M7.22656 9.75003L6.66404 10.0224C7.36873 11.4777 8.54545 12.6514 10.0025 13.3523L10.006 13.354C10.2021 13.4469 10.4191 13.4871 10.6356 13.4706C10.8515 13.4542 11.0594 13.382 11.239 13.2611C11.2394 13.2608 11.2399 13.2605 11.2403 13.2602L13.1909 11.9572L16.8471 13.5274L16.8481 13.5279C16.7504 14.2794 16.3829 14.9699 15.8139 15.4707C15.2436 15.9728 14.5098 16.2498 13.75 16.25M3.75 6.25003C3.75004 8.90214 4.8036 11.4458 6.67893 13.3211C8.55426 15.1964 11.0979 16.25 13.75 16.25" fill="#C9283B"/>
</svg>
