<svg width="25" height="25" viewBox="0 0 25 25" fill="none" xmlns="http://www.w3.org/2000/svg">
<path fill-rule="evenodd" clip-rule="evenodd" d="M2.08398 6.25016C2.08398 5.67487 2.55035 5.2085 3.12565 5.2085H21.8757C22.4509 5.2085 22.9173 5.67487 22.9173 6.25016C22.9173 6.82546 22.4509 7.29183 21.8757 7.29183H3.12565C2.55035 7.29183 2.08398 6.82546 2.08398 6.25016Z" fill="#C9283B"/>
<path fill-rule="evenodd" clip-rule="evenodd" d="M10.416 3.12484C10.1397 3.12484 9.8748 3.23458 9.67945 3.42993C9.4841 3.62529 9.37435 3.89024 9.37435 4.1665V5.20817H15.6243V4.1665C15.6243 3.89024 15.5146 3.62529 15.3193 3.42993C15.1239 3.23458 14.859 3.12484 14.5827 3.12484H10.416ZM17.7077 5.20817V4.1665C17.7077 3.3377 17.3784 2.54285 16.7924 1.9568C16.2063 1.37074 15.4115 1.0415 14.5827 1.0415H10.416C9.58721 1.0415 8.79236 1.37074 8.20631 1.9568C7.62026 2.54285 7.29102 3.3377 7.29102 4.1665V5.20817H5.20768C4.63239 5.20817 4.16602 5.67454 4.16602 6.24984V20.8332C4.16602 21.662 4.49526 22.4568 5.08131 23.0429C5.66736 23.6289 6.46221 23.9582 7.29102 23.9582H17.7077C18.5365 23.9582 19.3313 23.6289 19.9174 23.0429C20.5034 22.4568 20.8327 21.662 20.8327 20.8332V6.24984C20.8327 5.67454 20.3663 5.20817 19.791 5.20817H17.7077ZM6.24935 7.2915V20.8332C6.24935 21.1094 6.3591 21.3744 6.55445 21.5697C6.7498 21.7651 7.01475 21.8748 7.29102 21.8748H17.7077C17.9839 21.8748 18.2489 21.7651 18.4443 21.5697C18.6396 21.3744 18.7493 21.1094 18.7493 20.8332V7.2915H6.24935Z" fill="#C9283B"/>
<path fill-rule="evenodd" clip-rule="evenodd" d="M10.4167 10.4165C10.992 10.4165 11.4583 10.8829 11.4583 11.4582V17.7082C11.4583 18.2835 10.992 18.7498 10.4167 18.7498C9.84137 18.7498 9.375 18.2835 9.375 17.7082V11.4582C9.375 10.8829 9.84137 10.4165 10.4167 10.4165Z" fill="#C9283B"/>
<path fill-rule="evenodd" clip-rule="evenodd" d="M14.5827 10.4165C15.158 10.4165 15.6243 10.8829 15.6243 11.4582V17.7082C15.6243 18.2835 15.158 18.7498 14.5827 18.7498C14.0074 18.7498 13.541 18.2835 13.541 17.7082V11.4582C13.541 10.8829 14.0074 10.4165 14.5827 10.4165Z" fill="#C9283B"/>
</svg>
