<svg width="30" height="30" viewBox="0 0 30 30" fill="none" xmlns="http://www.w3.org/2000/svg">
<path fill-rule="evenodd" clip-rule="evenodd" d="M29.322 7.63854C29.7383 7.8528 30 8.28177 30 8.75V21.25C30 21.7182 29.7383 22.1472 29.322 22.3615C28.9056 22.5757 28.4045 22.5393 28.0235 22.2672L19.2735 16.0172C18.945 15.7825 18.75 15.4037 18.75 15C18.75 14.5963 18.945 14.2175 19.2735 13.9828L28.0235 7.73283C28.4045 7.46068 28.9056 7.42429 29.322 7.63854ZM22.1506 15L27.5 18.821V11.179L22.1506 15Z" fill="#C9283B"/>
<path fill-rule="evenodd" clip-rule="evenodd" d="M3.75 7.5C3.05964 7.5 2.5 8.05964 2.5 8.75V21.25C2.5 21.9404 3.05964 22.5 3.75 22.5H17.5C18.1904 22.5 18.75 21.9404 18.75 21.25V8.75C18.75 8.05964 18.1904 7.5 17.5 7.5H3.75ZM0 8.75C0 6.67893 1.67893 5 3.75 5H17.5C19.5711 5 21.25 6.67893 21.25 8.75V21.25C21.25 23.3211 19.5711 25 17.5 25H3.75C1.67893 25 0 23.3211 0 21.25V8.75Z" fill="#C9283B"/>
</svg>
