<svg width="51" height="10" viewBox="0 0 51 10" fill="none" xmlns="http://www.w3.org/2000/svg">
<line x1="0.5" y1="5" x2="49.5" y2="5" stroke="black" stroke-linecap="round"/>
<path d="M44.6877 8.60957C44.472 8.78207 44.4371 9.09672 44.6096 9.31235C44.7821 9.52798 45.0967 9.56294 45.3123 9.39043L44.6877 8.60957ZM45.3123 0.609566C45.0967 0.43706 44.7821 0.472021 44.6096 0.687653C44.4371 0.903283 44.472 1.21793 44.6877 1.39043L45.3123 0.609566ZM50 5L50.3123 5.39043L50.8004 5L50.3123 4.60957L50 5ZM45.3123 9.39043L50.3123 5.39043L49.6877 4.60957L44.6877 8.60957L45.3123 9.39043ZM50.3123 4.60957L45.3123 0.609566L44.6877 1.39043L49.6877 5.39043L50.3123 4.60957Z" fill="black"/>
</svg>
