<svg width="15" height="16" viewBox="0 0 15 16" fill="none" xmlns="http://www.w3.org/2000/svg">
<path d="M0.5 13.5734C0.5 14.3823 0.70507 14.9876 1.11521 15.3894C1.53061 15.7965 2.15108 16 2.97662 16H12.26C12.9646 16 13.5141 15.7965 13.9085 15.3894C14.3028 14.9876 14.5 14.3823 14.5 13.5734L13.6026 5.47162C13.6026 4.66275 13.3949 4.0574 12.9795 3.65558C12.5641 3.24853 11.9463 3.04501 11.126 3.04501H10.7614C10.7509 2.49706 10.5958 1.99348 10.2961 1.53425C10.0016 1.0698 9.60986 0.699282 9.12084 0.422701C8.63183 0.1409 8.09023 0 7.49606 0C6.90188 0 6.36028 0.1409 5.87127 0.422701C5.38225 0.699282 4.99052 1.0698 4.69606 1.53425C4.4016 1.99348 4.24648 2.49706 4.2307 3.04501H3.87402C3.04848 3.04501 2.42801 3.24853 2.01261 3.65558C1.60247 4.0574 1.3974 4.66275 1.3974 5.47162L0.5 13.5734ZM1.76986 13.5108L2.66726 5.53425C2.66726 5.1272 2.77243 4.82192 2.98275 4.6184C3.19308 4.40965 3.49543 4.30528 3.8898 4.30528H11.1023C11.4914 4.30528 11.7938 4.40965 12.0094 4.6184C12.2249 4.82192 12.3327 5.1272 12.3327 5.53425L13.2301 13.5108C13.2301 13.9178 13.1329 14.2257 12.9383 14.4344C12.7438 14.638 12.5098 14.7397 12.2363 14.7397H2.99239C2.59803 14.7397 2.29568 14.638 2.08535 14.4344C1.87502 14.2257 1.76986 13.9178 1.76986 13.5108ZM5.50056 3.04501C5.51108 2.70581 5.60573 2.3953 5.78451 2.1135C5.96329 1.8317 6.19991 1.60731 6.49437 1.44031C6.79408 1.27332 7.12798 1.18982 7.49606 1.18982C7.86939 1.18982 8.20329 1.27332 8.49775 1.44031C8.79746 1.60731 9.03408 1.8317 9.20761 2.1135C9.38638 2.3953 9.48103 2.70581 9.49155 3.04501H5.50056Z" fill="black"/>
</svg>
