<svg width="27" height="25" viewBox="0 0 27 25" fill="none" xmlns="http://www.w3.org/2000/svg">
<path d="M1.96964 14.09L1.96963 14.09L1.97101 14.0925C2.94876 15.8836 4.3263 17.6191 6.09333 19.3012L6.09425 19.302C7.85826 20.9727 9.93641 22.5662 12.3256 24.0838L12.3296 24.0863C12.4907 24.1866 12.6669 24.2739 12.8564 24.3496C13.0638 24.4375 13.2829 24.5 13.5 24.5C13.7207 24.5 13.938 24.4402 14.1438 24.3497C14.3396 24.2747 14.5203 24.1875 14.683 24.0863L14.683 24.0864L14.687 24.0838C17.0764 22.5661 19.1507 20.9723 20.9066 19.3012L20.9067 19.3012C22.6738 17.619 24.0475 15.8831 25.017 14.0914C26.0003 12.2815 26.5 10.438 26.5 8.56645C26.5 7.40193 26.3108 6.32509 25.9251 5.34202C25.5506 4.35805 25.0173 3.49962 24.3234 2.77291C23.6374 2.0456 22.8246 1.48445 21.8897 1.09071C20.9583 0.694888 19.9472 0.5 18.8625 0.5C17.6207 0.5 16.4913 0.771916 15.4865 1.32639L15.4848 1.32734C14.7114 1.75806 14.0494 2.30243 13.5021 2.95944C12.9578 2.30147 12.2936 1.75691 11.5135 1.3264C10.5087 0.771916 9.37928 0.5 8.13746 0.5C7.06026 0.5 6.04965 0.695227 5.11112 1.09038L5.11111 1.09037L5.10952 1.09105C4.18286 1.48499 3.37104 2.04592 2.67772 2.77173C1.98353 3.49846 1.44583 4.35688 1.06276 5.34095L1.06275 5.34095L1.06188 5.34322C0.68484 6.32594 0.5 7.4023 0.5 8.56645C0.5 10.4372 0.995062 12.2802 1.96964 14.09Z" stroke="white"/>
</svg>
