<svg width="35" height="31" viewBox="0 0 35 31" fill="none" xmlns="http://www.w3.org/2000/svg">
<path d="M0.919922 10.334C0.919922 12.7012 1.59375 15.0449 2.94141 17.3652C4.30078 19.6855 6.16992 21.9531 8.54883 24.168C10.9395 26.3828 13.6875 28.5156 16.793 30.5664C16.9102 30.6484 17.0449 30.7129 17.1973 30.7598C17.3496 30.8184 17.4902 30.8477 17.6191 30.8477C17.7363 30.8477 17.8711 30.8184 18.0234 30.7598C18.1758 30.7129 18.3105 30.6484 18.4277 30.5664C21.5332 28.5156 24.2754 26.3828 26.6543 24.168C29.0449 21.9531 30.9141 19.6855 32.2617 17.3652C33.6211 15.0449 34.3008 12.7012 34.3008 10.334C34.3008 8.89258 34.0664 7.57422 33.5977 6.37891C33.1406 5.17187 32.4902 4.12891 31.6465 3.25C30.8145 2.37109 29.8359 1.69141 28.7109 1.21094C27.5859 0.730469 26.3496 0.490234 25.002 0.490234C23.4668 0.490234 22.0254 0.894531 20.6777 1.70312C19.3301 2.5 18.3105 3.57813 17.6191 4.9375C16.916 3.57813 15.8906 2.5 14.543 1.70312C13.1953 0.894531 11.7539 0.490234 10.2188 0.490234C8.88281 0.490234 7.64648 0.730469 6.50977 1.21094C5.38477 1.69141 4.40039 2.37109 3.55664 3.25C2.72461 4.12891 2.07422 5.17187 1.60547 6.37891C1.14844 7.57422 0.919922 8.89258 0.919922 10.334ZM2.2207 10.334C2.2207 8.64648 2.56055 7.16406 3.24023 5.88672C3.93164 4.59766 4.88086 3.58984 6.08789 2.86328C7.29492 2.13672 8.66602 1.77344 10.2012 1.77344C11.2676 1.77344 12.2227 1.97266 13.0664 2.37109C13.9219 2.75781 14.666 3.2793 15.2988 3.93555C15.9434 4.5918 16.4824 5.3125 16.916 6.09766C17.0449 6.30859 17.1562 6.45508 17.25 6.53711C17.3555 6.61914 17.4785 6.66016 17.6191 6.66016C17.748 6.66016 17.8594 6.61914 17.9531 6.53711C18.0586 6.45508 18.1758 6.30859 18.3047 6.09766C18.7383 5.3125 19.2773 4.5918 19.9219 3.93555C20.5664 3.2793 21.3105 2.75781 22.1543 2.37109C22.998 1.97266 23.9531 1.77344 25.0195 1.77344C26.5547 1.77344 27.9199 2.13672 29.1152 2.86328C30.3223 3.58984 31.2715 4.59766 31.9629 5.88672C32.6543 7.16406 33 8.64648 33 10.334C33 11.9863 32.6016 13.6504 31.8047 15.3262C31.0195 17.002 29.9297 18.6543 28.5352 20.2832C27.1523 21.9121 25.5469 23.4941 23.7188 25.0293C21.8906 26.5645 19.9336 28.0176 17.8477 29.3887C17.7422 29.4707 17.666 29.5117 17.6191 29.5117C17.5723 29.5117 17.4902 29.4707 17.373 29.3887C15.2988 28.0176 13.3477 26.5645 11.5195 25.0293C9.69141 23.4941 8.08008 21.9121 6.68555 20.2832C5.29102 18.6543 4.19531 17.002 3.39844 15.3262C2.61328 13.6504 2.2207 11.9863 2.2207 10.334Z" fill="black"/>
</svg>
