<svg width="30" height="22" viewBox="0 0 30 22" fill="none" xmlns="http://www.w3.org/2000/svg">
<path d="M0.839432 7.76393H29.1993V4.82445H0.839432V7.76393ZM3.79681 22H26.1903C27.4559 22 28.4072 21.6749 29.0443 21.0246C29.6814 20.3831 30 19.4296 30 18.1642V3.84901C30 2.58358 29.6814 1.62572 29.0443 0.975434C28.4072 0.325145 27.4559 0 26.1903 0H3.79681C2.53982 0 1.59277 0.320751 0.955661 0.962253C0.318554 1.60375 0 2.56601 0 3.84901V18.1642C0 19.4384 0.318554 20.3962 0.955661 21.0377C1.59277 21.6792 2.53982 22 3.79681 22ZM3.83556 20.3919C3.10375 20.3919 2.54412 20.1985 2.15669 19.8119C1.77787 19.4164 1.58846 18.8364 1.58846 18.0719V3.9281C1.58846 3.17236 1.77787 2.59676 2.15669 2.20132C2.54412 1.80587 3.10375 1.60815 3.83556 1.60815H26.1644C26.879 1.60815 27.43 1.80587 27.8175 2.20132C28.2135 2.59676 28.4115 3.17236 28.4115 3.9281V18.0719C28.4115 18.8364 28.2135 19.4164 27.8175 19.8119C27.43 20.1985 26.879 20.3919 26.1644 20.3919H3.83556Z" fill="#EE4B55"/>
</svg>
