<svg width="35" height="27" viewBox="0 0 35 27" fill="none" xmlns="http://www.w3.org/2000/svg">
<path d="M3.79681 22H26.1903C27.4559 22 28.4072 21.6749 29.0443 21.0246C29.6814 20.3831 30 19.4296 30 18.1642V3.84901C30 2.58358 29.6814 1.62572 29.0443 0.975434C28.4072 0.325145 27.4559 0 26.1903 0H3.79681C2.53982 0 1.59277 0.320751 0.955661 0.962253C0.318554 1.60375 0 2.56601 0 3.84901V18.1642C0 19.4384 0.318554 20.3962 0.955661 21.0377C1.59277 21.6792 2.53982 22 3.79681 22ZM3.83556 20.3919C3.10374 20.3919 2.54412 20.1985 2.15669 19.8119C1.77787 19.4164 1.58846 18.8364 1.58846 18.0719V3.9281C1.58846 3.17236 1.77787 2.59676 2.15669 2.20132C2.54412 1.80587 3.10374 1.60815 3.83556 1.60815H26.1644C26.879 1.60815 27.43 1.80587 27.8175 2.20132C28.2135 2.59676 28.4115 3.17236 28.4115 3.9281V18.0719C28.4115 18.8364 28.2135 19.4164 27.8175 19.8119C27.43 20.1985 26.879 20.3919 26.1644 20.3919H3.83556Z" fill="#EE4B55"/>
<path d="M2.48446 1.35324C2.16825 1.08568 1.69502 1.12512 1.42746 1.44132C1.1599 1.75753 1.19934 2.23076 1.51554 2.49832L2.48446 1.35324ZM28.4845 2.49832C28.8007 2.23076 28.8401 1.75753 28.5725 1.44132C28.305 1.12512 27.8317 1.08568 27.5155 1.35324L28.4845 2.49832ZM15 12.9258L14.5155 13.4983C14.7952 13.7349 15.2048 13.7349 15.4845 13.4983L15 12.9258ZM1.51554 2.49832L14.5155 13.4983L15.4845 12.3532L2.48446 1.35324L1.51554 2.49832ZM15.4845 13.4983L28.4845 2.49832L27.5155 1.35324L14.5155 12.3532L15.4845 13.4983Z" fill="#EE4B55"/>
<circle cx="26" cy="18" r="9" fill="white"/>
<path d="M29.4561 18.8545H26.0107C25.8558 18.8545 25.7259 18.8021 25.6211 18.6973C25.5163 18.5924 25.4639 18.4626 25.4639 18.3076V13.8301C25.4639 13.6797 25.5163 13.5521 25.6211 13.4473C25.7259 13.3424 25.8558 13.29 26.0107 13.29C26.1611 13.29 26.2887 13.3424 26.3936 13.4473C26.4984 13.5521 26.5508 13.6797 26.5508 13.8301V17.7676H29.4561C29.611 17.7676 29.7409 17.82 29.8457 17.9248C29.9505 18.0251 30.0029 18.1527 30.0029 18.3076C30.0029 18.4626 29.9505 18.5924 29.8457 18.6973C29.7409 18.8021 29.611 18.8545 29.4561 18.8545ZM26.0039 25.0615C25.0378 25.0615 24.1286 24.877 23.2764 24.5078C22.4242 24.1432 21.6722 23.6351 21.0205 22.9834C20.3688 22.3317 19.8584 21.5798 19.4893 20.7275C19.1201 19.8753 18.9355 18.9661 18.9355 18C18.9355 17.0339 19.1201 16.1247 19.4893 15.2725C19.8584 14.4202 20.3688 13.6706 21.0205 13.0234C21.6722 12.3717 22.4242 11.8613 23.2764 11.4922C24.1286 11.123 25.04 10.9385 26.0107 10.9385C26.9769 10.9385 27.8861 11.123 28.7383 11.4922C29.5859 11.8613 30.3356 12.3717 30.9873 13.0234C31.6344 13.6706 32.1426 14.4202 32.5117 15.2725C32.8809 16.1247 33.0654 17.0339 33.0654 18C33.0654 18.9661 32.8809 19.8753 32.5117 20.7275C32.1426 21.5798 31.6344 22.3317 30.9873 22.9834C30.3356 23.6351 29.5837 24.1432 28.7314 24.5078C27.8792 24.877 26.9701 25.0615 26.0039 25.0615ZM26.0039 23.667C26.7878 23.667 27.5238 23.5212 28.2119 23.2295C28.8955 22.9378 29.4971 22.5322 30.0166 22.0127C30.5316 21.4932 30.9349 20.8916 31.2266 20.208C31.5182 19.5244 31.6641 18.7884 31.6641 18C31.6641 17.2161 31.5182 16.4824 31.2266 15.7988C30.9349 15.1107 30.5316 14.5068 30.0166 13.9873C29.5016 13.4678 28.9023 13.0622 28.2188 12.7705C27.5306 12.4788 26.7946 12.333 26.0107 12.333C25.2223 12.333 24.4863 12.4788 23.8027 12.7705C23.1191 13.0622 22.5176 13.4678 21.998 13.9873C21.474 14.5068 21.0661 15.1107 20.7744 15.7988C20.4827 16.4824 20.3369 17.2161 20.3369 18C20.3369 18.7884 20.4827 19.5244 20.7744 20.208C21.0661 20.8916 21.4717 21.4932 21.9912 22.0127C22.5062 22.5322 23.1077 22.9378 23.7959 23.2295C24.4795 23.5212 25.2155 23.667 26.0039 23.667Z" fill="#EE4B55"/>
</svg>
