<svg width="33" height="31" viewBox="0 0 33 31" fill="none" xmlns="http://www.w3.org/2000/svg">
<path d="M0 10.2279C0 12.5672 0.66614 14.8833 1.99842 17.1763C3.34229 19.4693 5.1901 21.7102 7.54186 23.899C9.90521 26.0877 12.6219 28.1954 15.6919 30.2221C15.8078 30.3031 15.941 30.3668 16.0916 30.4131C16.2422 30.471 16.3813 30.5 16.5087 30.5C16.6245 30.5 16.7578 30.471 16.9084 30.4131C17.059 30.3668 17.1922 30.3031 17.3081 30.2221C20.3781 28.1954 23.089 26.0877 25.4408 23.899C27.8041 21.7102 29.6519 19.4693 30.9842 17.1763C32.3281 14.8833 33 12.5672 33 10.2279C33 8.80342 32.7683 7.50058 32.3049 6.31934C31.8531 5.12652 31.2101 4.09583 30.376 3.22727C29.5534 2.35871 28.5861 1.68703 27.4739 1.21222C26.3618 0.737406 25.1395 0.5 23.8073 0.5C22.2896 0.5 20.8647 0.899537 19.5324 1.69861C18.2001 2.4861 17.1922 3.55153 16.5087 4.8949C15.8136 3.55153 14.7999 2.4861 13.4676 1.69861C12.1353 0.899537 10.7104 0.5 9.19273 0.5C7.87204 0.5 6.64982 0.737406 5.52607 1.21222C4.4139 1.68703 3.44076 2.35871 2.60664 3.22727C1.7841 4.09583 1.14113 5.12652 0.677725 6.31934C0.225908 7.50058 0 8.80342 0 10.2279Z" fill="#EE4B55"/>
</svg>
