<svg width="50" height="50" viewBox="0 0 50 50" fill="none" xmlns="http://www.w3.org/2000/svg">
<circle cx="25" cy="25" r="25" fill="white"/>
<path d="M4.498 27V22.77H5.122V24.594H7.498V22.77H8.122V27H7.498V25.116H5.122V27H4.498ZM10.7712 24.882C10.7712 24.438 10.8492 24.054 11.0052 23.73C11.1612 23.406 11.3872 23.156 11.6832 22.98C11.9832 22.804 12.3392 22.716 12.7512 22.716C13.1592 22.716 13.5112 22.804 13.8072 22.98C14.1032 23.156 14.3312 23.406 14.4912 23.73C14.6552 24.054 14.7372 24.436 14.7372 24.876C14.7372 25.32 14.6552 25.706 14.4912 26.034C14.3312 26.358 14.1012 26.61 13.8012 26.79C13.5052 26.966 13.1552 27.054 12.7512 27.054C12.3392 27.054 11.9852 26.966 11.6892 26.79C11.3932 26.61 11.1652 26.358 11.0052 26.034C10.8492 25.706 10.7712 25.322 10.7712 24.882ZM11.4252 24.882C11.4252 25.222 11.4732 25.516 11.5692 25.764C11.6692 26.008 11.8172 26.194 12.0132 26.322C12.2132 26.45 12.4592 26.514 12.7512 26.514C13.1752 26.514 13.5032 26.372 13.7352 26.088C13.9672 25.8 14.0832 25.398 14.0832 24.882C14.0832 24.538 14.0312 24.244 13.9272 24C13.8272 23.756 13.6772 23.572 13.4772 23.448C13.2772 23.32 13.0352 23.256 12.7512 23.256C12.3152 23.256 11.9852 23.398 11.7612 23.682C11.5372 23.966 11.4252 24.366 11.4252 24.882ZM17.391 27V22.77H19.155C19.611 22.77 19.961 22.866 20.205 23.058C20.453 23.25 20.577 23.52 20.577 23.868C20.577 24.128 20.499 24.346 20.343 24.522C20.187 24.698 19.973 24.816 19.701 24.876V24.786C20.013 24.826 20.255 24.936 20.427 25.116C20.599 25.296 20.685 25.534 20.685 25.83C20.685 26.206 20.557 26.496 20.301 26.7C20.049 26.9 19.693 27 19.233 27H17.391ZM17.997 26.514H19.167C19.451 26.514 19.673 26.46 19.833 26.352C19.997 26.244 20.079 26.062 20.079 25.806C20.079 25.634 20.041 25.496 19.965 25.392C19.893 25.288 19.789 25.214 19.653 25.17C19.517 25.122 19.355 25.098 19.167 25.098H17.997V26.514ZM17.997 24.618H19.059C19.363 24.618 19.591 24.56 19.743 24.444C19.895 24.328 19.971 24.158 19.971 23.934C19.971 23.71 19.895 23.54 19.743 23.424C19.591 23.308 19.363 23.25 19.059 23.25H17.997V24.618ZM23.2984 27V22.77H23.8744V26.19H23.7364L26.3284 22.77H26.8084V27H26.2264V23.58H26.3644L23.7664 27H23.2984ZM29.5984 27V22.77H30.2224V24.594H32.5984V22.77H33.2224V27H32.5984V25.116H30.2224V27H29.5984ZM36.0156 27V22.77H36.6336V24.618H37.4256L37.2756 24.714L38.5836 22.77H39.2736L37.8576 24.822L37.6296 24.642C37.8896 24.674 38.1096 24.762 38.2896 24.906C38.4696 25.05 38.6256 25.252 38.7576 25.512L39.5016 27H38.8296L38.2356 25.77C38.1236 25.538 37.9936 25.374 37.8456 25.278C37.6976 25.182 37.5116 25.134 37.2876 25.134H36.6336V27H36.0156ZM41.3151 27L43.1991 22.77H43.7331L45.6471 27H45.0051L44.4831 25.8L44.7471 25.968H42.1851L42.4671 25.8L41.9451 27H41.3151ZM43.4571 23.454L42.5451 25.608L42.4011 25.47H44.5311L44.4111 25.608L43.4811 23.454H43.4571Z" fill="black"/>
</svg>
