<svg width="6" height="8" viewBox="0 0 6 8" fill="none" xmlns="http://www.w3.org/2000/svg">
<path d="M1.53033 7.53033C1.23744 7.82322 0.762563 7.82322 0.46967 7.53033C0.176777 7.23744 0.176777 6.76256 0.46967 6.46967L1.53033 7.53033ZM0.46967 1.53033C0.176777 1.23744 0.176777 0.762563 0.46967 0.46967C0.762563 0.176776 1.23744 0.176776 1.53033 0.46967L0.46967 1.53033ZM4 4L4.53033 3.46967L5.06066 4L4.53033 4.53033L4 4ZM0.46967 6.46967L3.46967 3.46967L4.53033 4.53033L1.53033 7.53033L0.46967 6.46967ZM3.46967 4.53033L0.46967 1.53033L1.53033 0.46967L4.53033 3.46967L3.46967 4.53033Z" fill="#EE4B55"/>
</svg>
