<svg width="14" height="22" viewBox="0 0 14 22" fill="none" xmlns="http://www.w3.org/2000/svg">
<path d="M7.09294 0C3.94428 0 1.39185 2.55251 1.39185 5.7011C1.39185 8.84976 3.94428 11.4024 7.09294 11.4024C10.2416 11.4024 12.794 8.84976 12.794 5.7011C12.794 2.55251 10.2416 0 7.09294 0ZM7.09294 8.05797C5.79139 8.05797 4.73624 7.00273 4.73624 5.70118C4.73624 4.39963 5.79139 3.34447 7.09294 3.34447C8.39449 3.34447 9.44965 4.39963 9.44965 5.70118C9.44965 7.00273 8.39449 8.05797 7.09294 8.05797Z" fill="black"/>
<path d="M9.10551 15.9386C11.3879 15.4737 12.7556 14.3928 12.828 14.3348C13.4958 13.7992 13.6031 12.8236 13.0675 12.1556C12.532 11.4878 11.5565 11.3805 10.8884 11.916C10.8743 11.9274 9.41554 13.0465 7.01535 13.0481C4.61524 13.0465 3.12564 11.9274 3.11152 11.916C2.44349 11.3805 1.46796 11.4878 0.932429 12.1556C0.396814 12.8236 0.504101 13.7992 1.17197 14.3348C1.24531 14.3936 2.66949 15.5026 5.01583 15.9567L1.74576 19.3741C1.15149 19.9905 1.16936 20.9718 1.78566 21.566C2.08647 21.8561 2.47417 22.0003 2.86154 22.0003C3.26768 22.0003 3.67341 21.8416 3.97756 21.5261L7.01543 18.2899L10.3602 21.547C10.9662 22.1521 11.9475 22.1511 12.5524 21.5453C13.1573 20.9395 13.1565 19.958 12.5507 19.3531L9.10551 15.9386Z" fill="black"/>
</svg>
