<svg width="12" height="18" viewBox="0 0 12 18" fill="none" xmlns="http://www.w3.org/2000/svg">
<path d="M1.49827 0.439443C1.18869 0.164254 0.714632 0.19214 0.439444 0.501727C0.164255 0.811314 0.192141 1.28537 0.501727 1.56056L1.49827 0.439443ZM0.501727 16.4394C0.192141 16.7146 0.164255 17.1887 0.439444 17.4983C0.714632 17.8079 1.18869 17.8357 1.49827 17.5606L0.501727 16.4394ZM10 9L10.4983 9.56056L11.1289 9L10.4983 8.43944L10 9ZM0.501727 1.56056L9.50173 9.56056L10.4983 8.43944L1.49827 0.439443L0.501727 1.56056ZM9.50173 8.43944L0.501727 16.4394L1.49827 17.5606L10.4983 9.56056L9.50173 8.43944Z" fill="#242424"/>
</svg>
