<svg width="30" height="22" viewBox="0 0 30 22" fill="none" xmlns="http://www.w3.org/2000/svg">
<path d="M3.79681 22H26.1903C27.4559 22 28.4072 21.6749 29.0443 21.0246C29.6814 20.3831 30 19.4296 30 18.1642V3.84901C30 2.58358 29.6814 1.62572 29.0443 0.975434C28.4072 0.325145 27.4559 0 26.1903 0H3.79681C2.53982 0 1.59277 0.320751 0.955661 0.962253C0.318554 1.60375 0 2.56601 0 3.84901V18.1642C0 19.4384 0.318554 20.3962 0.955661 21.0377C1.59277 21.6792 2.53982 22 3.79681 22ZM3.83556 20.3919C3.10375 20.3919 2.54412 20.1985 2.15669 19.8119C1.77787 19.4164 1.58846 18.8364 1.58846 18.0719V3.9281C1.58846 3.17236 1.77787 2.59676 2.15669 2.20132C2.54412 1.80587 3.10375 1.60815 3.83556 1.60815H26.1644C26.879 1.60815 27.43 1.80587 27.8175 2.20132C28.2135 2.59676 28.4115 3.17236 28.4115 3.9281V18.0719C28.4115 18.8364 28.2135 19.4164 27.8175 19.8119C27.43 20.1985 26.879 20.3919 26.1644 20.3919H3.83556Z" fill="#EE4B55"/>
<path d="M12.319 15.9636V13.8516H11V13.0208H12.319V11.6832H11V10.8666H12.319V6.03711H15.6452C16.3524 6.03711 16.9594 6.15444 17.466 6.38911C17.9725 6.62378 18.3548 6.95701 18.6129 7.3888C18.871 7.8112 19 8.31809 19 8.90945C19 9.49143 18.8662 9.98892 18.5986 10.4019C18.3309 10.815 17.9534 11.1341 17.466 11.3594C16.9785 11.5753 16.405 11.6832 15.7455 11.6832H13.6523V13.0208H16.1183V13.8516H13.6523V15.9636H12.319ZM13.638 10.8666H15.5448C16.2616 10.8666 16.8112 10.707 17.1935 10.3879C17.5759 10.0593 17.767 9.5806 17.767 8.95169C17.767 8.31339 17.5759 7.83936 17.1935 7.5296C16.8208 7.21045 16.2712 7.05088 15.5448 7.05088H13.638V10.8666Z" fill="#EE4B55"/>
</svg>
