<svg width="50" height="50" viewBox="0 0 50 50" fill="none" xmlns="http://www.w3.org/2000/svg">
<circle cx="25" cy="25" r="25" fill="white"/>
<path d="M11.952 30.126C11.1587 30.126 10.4493 30.0233 9.824 29.818C9.19867 29.6127 8.65267 29.3187 8.186 28.936L8.606 28.012C8.93267 28.2547 9.25933 28.46 9.586 28.628C9.922 28.7867 10.2813 28.908 10.664 28.992C11.0467 29.0667 11.476 29.104 11.952 29.104C12.7827 29.104 13.3987 28.95 13.8 28.642C14.2013 28.334 14.402 27.9233 14.402 27.41C14.402 26.9713 14.262 26.6353 13.982 26.402C13.702 26.1687 13.212 25.982 12.512 25.842L11.042 25.548C10.1367 25.3613 9.46 25.058 9.012 24.638C8.57333 24.218 8.354 23.6487 8.354 22.93C8.354 22.342 8.50333 21.8287 8.802 21.39C9.11 20.9513 9.53933 20.6107 10.09 20.368C10.6407 20.1253 11.28 20.004 12.008 20.004C12.708 20.004 13.3473 20.1113 13.926 20.326C14.5047 20.5313 14.9993 20.8347 15.41 21.236L15.004 22.132C14.5653 21.74 14.1033 21.46 13.618 21.292C13.142 21.1147 12.6007 21.026 11.994 21.026C11.2287 21.026 10.622 21.194 10.174 21.53C9.73533 21.8567 9.516 22.3047 9.516 22.874C9.516 23.3313 9.656 23.6907 9.936 23.952C10.216 24.204 10.678 24.3953 11.322 24.526L12.806 24.82C13.758 25.016 14.458 25.31 14.906 25.702C15.354 26.094 15.578 26.6447 15.578 27.354C15.578 27.8953 15.4287 28.376 15.13 28.796C14.8407 29.216 14.4253 29.5427 13.884 29.776C13.3427 30.0093 12.6987 30.126 11.952 30.126ZM16.4473 30L20.8013 20.13H21.8093L26.2333 30H25.0293L23.7973 27.186L24.3153 27.48H18.2813L18.8413 27.186L17.6373 30H16.4473ZM21.2913 21.46L19.0233 26.78L18.6873 26.528H23.8953L23.6433 26.78L21.3193 21.46H21.2913ZM27.7222 30V20.13H28.8842V28.992H33.8682V30H27.7222ZM35.3511 30V20.13H41.6511V21.082H36.4851V24.512H41.3431V25.478H36.4851V29.034H41.6511V30H35.3511Z" fill="#EE4B55"/>
</svg>
