<svg width="17" height="16" viewBox="0 0 17 16" fill="none" xmlns="http://www.w3.org/2000/svg">
<path d="M1 6.47136C1 7.36341 1.16923 8.20139 1.50768 8.9853C1.84613 9.76381 2.31559 10.4504 2.91607 11.0451C3.51655 11.6398 4.20983 12.1047 4.99591 12.4399C5.78744 12.7751 6.63357 12.9427 7.53429 12.9427C8.24394 12.9427 8.92085 12.8346 9.56499 12.6183C10.2091 12.4021 10.7987 12.1047 11.3337 11.7263L15.3623 15.7243C15.4606 15.8162 15.567 15.8838 15.6817 15.927C15.8018 15.9757 15.9273 16 16.0583 16C16.2439 16 16.4077 15.9567 16.5496 15.8702C16.6916 15.7892 16.8008 15.6756 16.8772 15.5296C16.9591 15.3837 17 15.2215 17 15.0431C17 14.9133 16.9754 14.7917 16.9263 14.6782C16.8826 14.5646 16.8171 14.4646 16.7298 14.3781L12.7257 10.3882C13.146 9.84761 13.4736 9.2448 13.7083 8.57983C13.9485 7.91485 14.0686 7.21203 14.0686 6.47136C14.0686 5.57932 13.8994 4.74404 13.5609 3.96553C13.2224 3.18162 12.753 2.49231 12.1525 1.89762C11.552 1.30292 10.856 0.837979 10.0645 0.502788C9.2784 0.167596 8.43501 0 7.53429 0C6.63357 0 5.78744 0.167596 4.99591 0.502788C4.20983 0.837979 3.51655 1.30292 2.91607 1.89762C2.31559 2.49231 1.84613 3.18162 1.50768 3.96553C1.16923 4.74404 1 5.57932 1 6.47136ZM2.4002 6.47136C2.4002 5.76854 2.53122 5.11167 2.79324 4.50076C3.06073 3.88444 3.4292 3.34381 3.89867 2.87886C4.37359 2.40851 4.91948 2.04359 5.53634 1.78409C6.15865 1.51918 6.82463 1.38672 7.53429 1.38672C8.24394 1.38672 8.9072 1.51918 9.52405 1.78409C10.1464 2.04359 10.6923 2.40851 11.1617 2.87886C11.6312 3.34381 11.9997 3.88444 12.2671 4.50076C12.5346 5.11167 12.6684 5.76854 12.6684 6.47136C12.6684 7.17418 12.5346 7.83376 12.2671 8.45008C11.9997 9.06099 11.6312 9.59892 11.1617 10.0639C10.6923 10.5288 10.1464 10.8937 9.52405 11.1586C8.9072 11.4236 8.24394 11.556 7.53429 11.556C6.82463 11.556 6.15865 11.4236 5.53634 11.1586C4.91948 10.8937 4.37359 10.5288 3.89867 10.0639C3.4292 9.59892 3.06073 9.06099 2.79324 8.45008C2.53122 7.83376 2.4002 7.17418 2.4002 6.47136Z" fill="black"/>
</svg>
