<svg width="50" height="50" viewBox="0 0 50 50" fill="none" xmlns="http://www.w3.org/2000/svg">
<circle cx="25" cy="25" r="25" fill="black"/>
<path d="M10.998 27V22.77H12.762C13.218 22.77 13.568 22.866 13.812 23.058C14.06 23.25 14.184 23.52 14.184 23.868C14.184 24.128 14.106 24.346 13.95 24.522C13.794 24.698 13.58 24.816 13.308 24.876V24.786C13.62 24.826 13.862 24.936 14.034 25.116C14.206 25.296 14.292 25.534 14.292 25.83C14.292 26.206 14.164 26.496 13.908 26.7C13.656 26.9 13.3 27 12.84 27H10.998ZM11.604 26.514H12.774C13.058 26.514 13.28 26.46 13.44 26.352C13.604 26.244 13.686 26.062 13.686 25.806C13.686 25.634 13.648 25.496 13.572 25.392C13.5 25.288 13.396 25.214 13.26 25.17C13.124 25.122 12.962 25.098 12.774 25.098H11.604V26.514ZM11.604 24.618H12.666C12.97 24.618 13.198 24.56 13.35 24.444C13.502 24.328 13.578 24.158 13.578 23.934C13.578 23.71 13.502 23.54 13.35 23.424C13.198 23.308 12.97 23.25 12.666 23.25H11.604V24.618ZM16.9054 27V22.77H19.6774V23.268H17.5114V24.6H19.5394V25.104H17.5114V26.496H19.6774V27H16.9054ZM24.1406 27.054C23.7086 27.054 23.3406 26.966 23.0366 26.79C22.7326 26.614 22.4986 26.364 22.3346 26.04C22.1746 25.712 22.0946 25.326 22.0946 24.882C22.0946 24.438 22.1746 24.054 22.3346 23.73C22.4986 23.406 22.7326 23.156 23.0366 22.98C23.3406 22.804 23.7086 22.716 24.1406 22.716C24.4406 22.716 24.7086 22.76 24.9446 22.848C25.1806 22.936 25.3866 23.064 25.5626 23.232L25.3466 23.73C25.1546 23.566 24.9666 23.448 24.7826 23.376C24.6026 23.304 24.3926 23.268 24.1526 23.268C23.6966 23.268 23.3486 23.408 23.1086 23.688C22.8686 23.968 22.7486 24.366 22.7486 24.882C22.7486 25.226 22.8006 25.52 22.9046 25.764C23.0126 26.004 23.1706 26.188 23.3786 26.316C23.5906 26.44 23.8486 26.502 24.1526 26.502C24.3926 26.502 24.6026 26.466 24.7826 26.394C24.9666 26.322 25.1546 26.202 25.3466 26.034L25.5626 26.532C25.3866 26.7 25.1806 26.83 24.9446 26.922C24.7086 27.01 24.4406 27.054 24.1406 27.054ZM28.1402 27V22.77H28.7642V24.594H31.1402V22.77H31.7642V27H31.1402V25.116H28.7642V27H28.1402ZM34.1194 27L36.0034 22.77H36.5374L38.4514 27H37.8094L37.2874 25.8L37.5514 25.968H34.9894L35.2714 25.8L34.7494 27H34.1194ZM36.2614 23.454L35.3494 25.608L35.2054 25.47H37.3354L37.2154 25.608L36.2854 23.454H36.2614Z" fill="white"/>
</svg>
