<svg width="17" height="16" viewBox="0 0 17 16" fill="none" xmlns="http://www.w3.org/2000/svg">
<path d="M2.74385 16H14.2562C15.7521 16 16.5 15.4673 16.5 14.402C16.5 13.7495 16.3168 13.0537 15.9505 12.3146C15.5841 11.5755 15.0529 10.8797 14.3569 10.2272C13.667 9.56804 12.8274 9.03204 11.8383 8.61923C10.8553 8.20641 9.74404 8 8.50458 8C7.25902 8 6.14167 8.20641 5.15255 8.61923C4.16953 9.03204 3.32999 9.56804 2.63394 10.2272C1.944 10.8797 1.41586 11.5755 1.04951 12.3146C0.683171 13.0537 0.5 13.7495 0.5 14.402C0.5 15.4673 1.24795 16 2.74385 16ZM2.31339 14.4919C2.19128 14.4919 2.10275 14.4719 2.0478 14.432C1.99895 14.392 1.97453 14.3188 1.97453 14.2122C1.97453 13.8061 2.11496 13.3367 2.39582 12.804C2.68279 12.2647 3.10408 11.7453 3.6597 11.2459C4.21532 10.7466 4.89916 10.3337 5.71122 10.0075C6.52328 9.67457 7.4544 9.50811 8.50458 9.50811C9.55476 9.50811 10.4828 9.67457 11.2888 10.0075C12.1008 10.3337 12.7847 10.7466 13.3403 11.2459C13.8959 11.7453 14.3142 12.2647 14.595 12.804C14.882 13.3367 15.0255 13.8061 15.0255 14.2122C15.0255 14.3188 14.998 14.392 14.943 14.432C14.8942 14.4719 14.8118 14.4919 14.6958 14.4919H2.31339Z" fill="black"/>
<path d="M12 3.5C12 5.433 10.433 7 8.5 7C6.567 7 5 5.433 5 3.5C5 1.567 6.567 0 8.5 0C10.433 0 12 1.567 12 3.5ZM6.34825 3.5C6.34825 4.68838 7.31162 5.65175 8.5 5.65175C9.68838 5.65175 10.6518 4.68838 10.6518 3.5C10.6518 2.31162 9.68838 1.34825 8.5 1.34825C7.31162 1.34825 6.34825 2.31162 6.34825 3.5Z" fill="black"/>
</svg>
