<svg width="35" height="28" viewBox="0 0 35 28" fill="none" xmlns="http://www.w3.org/2000/svg">
<path d="M8.79681 25H19.1903C20.4559 25 23 25 23 25C23 25 23 22.4296 23 21.1642V8.84901C23 7.58358 22.6814 6.62572 22.0443 5.97543C21.4072 5.32514 20.4559 5 19.1903 5H8.79681C7.53982 5 6.59277 5.32075 5.95566 5.96225C5.31855 6.60375 5 7.56601 5 8.84901V21.1642C5 22.4384 5.31855 23.3962 5.95566 24.0377C6.59277 24.6792 7.53982 25 8.79681 25ZM8.83556 23.3919C8.10374 23.3919 7.54412 23.1985 7.15669 22.8119C6.77787 22.4164 6.58846 21.8364 6.58846 21.0719V8.9281C6.58846 8.17236 6.77787 7.59676 7.15669 7.20132C7.54412 6.80587 8.10374 6.60815 8.83556 6.60815H19.1644C19.879 6.60815 20.43 6.80587 20.8175 7.20132C21.2135 7.59676 21.4115 8.17236 21.4115 8.9281V21.0719C21.4115 21.8364 21.4115 23.3919 21.4115 23.3919C21.4115 23.3919 19.879 23.3919 19.1644 23.3919H8.83556Z" fill="#EE4B55"/>
<path d="M19.7968 25H31.1903C32.4559 25 35 25 35 25C35 25 35 22.4296 35 21.1642V13.849C35 12.5836 34.6814 11.6257 34.0443 10.9754C33.4072 10.3251 32.4559 10 31.1903 10H21.8347L21.6512 23.3919L16 23.9048V25C16 25 18.5398 25 19.7968 25ZM22.1393 23.3919L22.5 11.6081H31.1644C31.879 11.6081 32.43 11.8059 32.8175 12.2013C33.2135 12.5968 33.4115 13.1724 33.4115 13.9281V21.0719C33.4115 21.8364 33.4115 23.3919 33.4115 23.3919C33.4115 23.3919 31.879 23.3919 31.1644 23.3919H22.1393Z" fill="#EE4B55"/>
<circle cx="9" cy="9" r="9" fill="white"/>
<path d="M12.4561 9.85449H9.01074C8.85579 9.85449 8.72591 9.80208 8.62109 9.69727C8.51628 9.59245 8.46387 9.46256 8.46387 9.30762V4.83008C8.46387 4.67969 8.51628 4.55208 8.62109 4.44727C8.72591 4.34245 8.85579 4.29004 9.01074 4.29004C9.16113 4.29004 9.28874 4.34245 9.39355 4.44727C9.49837 4.55208 9.55078 4.67969 9.55078 4.83008V8.76758H12.4561C12.611 8.76758 12.7409 8.81999 12.8457 8.9248C12.9505 9.02506 13.0029 9.15267 13.0029 9.30762C13.0029 9.46256 12.9505 9.59245 12.8457 9.69727C12.7409 9.80208 12.611 9.85449 12.4561 9.85449ZM9.00391 16.0615C8.03776 16.0615 7.12858 15.877 6.27637 15.5078C5.42415 15.1432 4.6722 14.6351 4.02051 13.9834C3.36882 13.3317 2.8584 12.5798 2.48926 11.7275C2.12012 10.8753 1.93555 9.96615 1.93555 9C1.93555 8.03385 2.12012 7.12467 2.48926 6.27246C2.8584 5.42025 3.36882 4.67057 4.02051 4.02344C4.6722 3.37174 5.42415 2.86133 6.27637 2.49219C7.12858 2.12305 8.04004 1.93848 9.01074 1.93848C9.97689 1.93848 10.8861 2.12305 11.7383 2.49219C12.5859 2.86133 13.3356 3.37174 13.9873 4.02344C14.6344 4.67057 15.1426 5.42025 15.5117 6.27246C15.8809 7.12467 16.0654 8.03385 16.0654 9C16.0654 9.96615 15.8809 10.8753 15.5117 11.7275C15.1426 12.5798 14.6344 13.3317 13.9873 13.9834C13.3356 14.6351 12.5837 15.1432 11.7314 15.5078C10.8792 15.877 9.97005 16.0615 9.00391 16.0615ZM9.00391 14.667C9.78776 14.667 10.5238 14.5212 11.2119 14.2295C11.8955 13.9378 12.4971 13.5322 13.0166 13.0127C13.5316 12.4932 13.9349 11.8916 14.2266 11.208C14.5182 10.5244 14.6641 9.78841 14.6641 9C14.6641 8.21615 14.5182 7.48242 14.2266 6.79883C13.9349 6.11068 13.5316 5.50684 13.0166 4.9873C12.5016 4.46777 11.9023 4.06217 11.2188 3.77051C10.5306 3.47884 9.7946 3.33301 9.01074 3.33301C8.22233 3.33301 7.48633 3.47884 6.80273 3.77051C6.11914 4.06217 5.51758 4.46777 4.99805 4.9873C4.47396 5.50684 4.06608 6.11068 3.77441 6.79883C3.48275 7.48242 3.33691 8.21615 3.33691 9C3.33691 9.78841 3.48275 10.5244 3.77441 11.208C4.06608 11.8916 4.47168 12.4932 4.99121 13.0127C5.50618 13.5322 6.10775 13.9378 6.7959 14.2295C7.47949 14.5212 8.21549 14.667 9.00391 14.667Z" fill="#EE4B55"/>
<circle cx="13" cy="23.999" r="3.25" fill="white" stroke="#EE4B55" stroke-width="1.5"/>
<circle cx="27.9883" cy="23.999" r="3.25" fill="white" stroke="#EE4B55" stroke-width="1.5"/>
</svg>
