<svg width="22" height="14" viewBox="0 0 22 14" fill="none" xmlns="http://www.w3.org/2000/svg">
<path d="M20.6576 1.79962C20.7973 1.32868 20.6576 0.985352 19.9861 0.985352H17.7712C17.2091 0.985352 16.9478 1.28311 16.808 1.61125C16.808 1.61125 15.6808 4.35789 14.0857 6.14139C13.5692 6.65791 13.3352 6.82198 13.0526 6.82198C12.9129 6.82198 12.7093 6.65791 12.7093 6.18697V1.79962C12.7093 1.23753 12.5452 0.985352 12.0773 0.985352H8.59542C8.24298 0.985352 8.03029 1.24665 8.03029 1.49579C8.03029 2.03054 8.82937 2.15207 8.91141 3.65604V6.9192C8.91141 7.63321 8.78076 7.76386 8.50123 7.76386C7.75077 7.76386 5.92473 5.00506 4.84005 1.84824C4.62737 1.23449 4.41468 0.988389 3.84955 0.988389H1.63461C1.00264 0.988389 0.875031 1.28615 0.875031 1.61428C0.875031 2.20068 1.6255 5.1114 4.37215 8.96096C6.20426 11.5891 8.78076 13.0141 11.1294 13.0141C12.5361 13.0141 12.7124 12.6981 12.7124 12.1512V10.1641C12.7124 9.53217 12.846 9.40456 13.2927 9.40456C13.6208 9.40456 14.1859 9.56863 15.4985 10.8356C16.9994 12.3365 17.2486 13.0111 18.0932 13.0111H20.3082C20.9401 13.0111 21.2561 12.6951 21.0738 12.0692C20.8733 11.4463 20.1563 10.5439 19.2053 9.4714C18.6887 8.8607 17.914 8.20442 17.68 7.87628C17.3519 7.45395 17.4461 7.26557 17.68 6.89186C17.677 6.89186 20.375 3.09091 20.6576 1.79962Z" fill="black"/>
</svg>
