<svg width="30" height="22" viewBox="0 0 30 22" fill="none" xmlns="http://www.w3.org/2000/svg">
<path d="M3.79681 22H26.1903C27.4559 22 28.4072 21.6749 29.0443 21.0246C29.6814 20.3831 30 19.4296 30 18.1642V3.84901C30 2.58358 29.6814 1.62572 29.0443 0.975434C28.4072 0.325145 27.4559 0 26.1903 0H3.79681C2.53982 0 1.59277 0.320751 0.955661 0.962253C0.318554 1.60375 0 2.56601 0 3.84901V18.1642C0 19.4384 0.318554 20.3962 0.955661 21.0377C1.59277 21.6792 2.53982 22 3.79681 22ZM3.83556 20.3918C3.10375 20.3918 2.54412 20.1985 2.15669 19.8119C1.77787 19.4164 1.58846 18.8364 1.58846 18.0719V3.9281C1.58846 3.17236 1.77787 2.59676 2.15669 2.20132C2.54412 1.80587 3.10375 1.60815 3.83556 1.60815H26.1644C26.879 1.60815 27.43 1.80587 27.8175 2.20132C28.2135 2.59676 28.4115 3.17236 28.4115 3.9281V18.0719C28.4115 18.8364 28.2135 19.4164 27.8175 19.8119C27.43 20.1985 26.879 20.3918 26.1644 20.3918H3.83556Z" fill="#EE4B55"/>
<path d="M21.7968 12.0117H26.1903H30V8.17589V7.86073V4.01172H26.1903H21.7968C20.5398 4.01172 19.5928 4.33247 18.9557 4.97397C18.3186 5.61547 18 6.57773 18 7.86073V8.17589C18 9.4501 18.3186 10.408 18.9557 11.0495C19.5928 11.691 20.5398 12.0117 21.7968 12.0117ZM21.8356 10.4036C21.1037 10.4036 20.5441 10.2102 20.1567 9.82358C19.7779 9.42814 19.5885 8.84815 19.5885 8.08362V7.93982C19.5885 7.18408 19.7779 6.60848 20.1567 6.21304C20.5441 5.81759 21.1037 5.61987 21.8356 5.61987H26.1644H28.4115V7.93982V8.08362V10.4036H26.1644H21.8356Z" fill="#EE4B55"/>
<circle cx="22.1709" cy="8.00781" r="1" fill="#EE4B55"/>
</svg>
