<svg width="110" height="30" viewBox="0 0 110 30" fill="none" xmlns="http://www.w3.org/2000/svg">
<path fill-rule="evenodd" clip-rule="evenodd" d="M19.0612 0.305178C11.5642 1.47429 5.27776 4.64161 2.10851 8.84671C0.540425 10.9271 0.120994 12.1216 0.0244579 14.7815C-0.0427428 16.6288 0.0134317 17.1541 0.384595 18.1475C2.02883 22.5482 6.51088 26.1512 13.0624 28.3385C16.9917 29.6504 19.5798 30 25.3605 30C30.6153 30 32.2591 29.8209 35.9304 28.8488C42.4025 27.135 47.5954 23.5547 49.6813 19.3679L50.5643 17.5959L50.4975 14.8797C50.4345 12.3094 50.3952 12.0908 49.7629 10.8053C47.2147 5.62498 40.1911 1.62168 31.3391 0.304761C28.607 -0.101761 21.6691 -0.101552 19.0612 0.305178ZM73.1287 3.52399L73.2721 5.60872H70.2256H67.1791V6.65108V7.69344H70.1958H73.2126V11.1161C73.2126 12.9987 73.1558 14.6873 73.0863 14.8687C72.9923 15.114 72.6673 15.1985 71.8157 15.1985C70.8111 15.1985 70.6885 15.2431 70.8121 15.5633C70.8895 15.764 71.0632 16.2909 71.1984 16.7343L71.4441 17.5404L72.966 17.4268C73.829 17.3624 74.7074 17.1694 74.9945 16.9807L75.5012 16.6482V12.1708V7.69344H76.6454H77.7897V6.65108V5.60872H76.6153H75.4406L75.5552 3.52399L75.6699 1.43927H74.3277H72.9854L73.1287 3.52399ZM92.804 6.80743C92.836 12.3455 92.6748 13.361 91.5084 14.9743L90.8608 15.8704L91.7631 16.6665L92.6654 17.4625L93.1628 17.008C93.4364 16.758 93.9181 16.1522 94.2331 15.6617L94.8056 14.7698L95.5398 15.6554L96.2738 16.541L97.4435 15.7338C98.0868 15.2898 99.0253 14.4673 99.5288 13.9061L100.444 12.8859L101.629 14.5793L102.813 16.2729L103.782 15.3164L104.751 14.3602L105.008 15.0709C105.149 15.4618 105.687 16.1718 106.203 16.6486C107.006 17.3899 107.254 17.5065 107.914 17.4516C108.62 17.3928 108.733 17.2907 109.255 16.2408C109.568 15.6102 109.882 14.7992 109.953 14.4386C110.075 13.8161 110.026 13.7554 109.002 13.2399C108.408 12.9411 107.894 12.6968 107.859 12.6968C107.824 12.6968 107.734 13.0278 107.658 13.4323C107.464 14.4688 107.216 14.179 106.911 12.5592C106.724 11.5692 106.681 9.81695 106.762 6.51078L106.875 1.85621H99.8253H92.7752L92.804 6.80743ZM59.4812 9.11794V15.9629H63.2261H66.971V9.11794V2.27316H63.2261H59.4812V9.11794ZM32.4541 3.11101C36.0305 3.84129 39.6067 5.15925 42.0465 6.64587L42.7135 7.05239L41.5761 7.5742C39.346 8.59717 32.7624 9.88532 28.313 10.1693C22.4021 10.5464 19.1192 9.44107 19.1192 7.07365C19.1192 6.4228 19.2538 6.15888 19.8563 5.62873C21.1134 4.52299 23.7496 3.3593 26.0005 2.91671C27.6449 2.59337 30.3128 2.67384 32.4541 3.11101ZM16.4447 3.96325C13.0129 5.72651 11.3447 7.5792 11.0021 10.0089C10.8344 11.1981 10.866 11.4535 11.2979 12.3839C11.9774 13.8482 13.6019 15.5245 16.6149 17.8702C19.6976 20.2706 20.4715 21.3073 20.4715 23.0366C20.4715 24.2207 20.0952 24.9239 19.0385 25.7134C18.5543 26.0751 18.1605 26.1428 16.5546 26.1401C14.3261 26.1366 13.3227 25.847 10.277 24.3279C5.40821 21.8996 3.29773 19.5601 2.39749 15.5933C2.22876 14.8497 2.77178 12.8752 3.5451 11.4213C5.25862 8.20024 9.50536 5.51678 15.8803 3.62677C18.2456 2.92568 18.3469 2.98593 16.4447 3.96325ZM104.168 7.8498C104.174 9.99977 104.281 12.2663 104.405 12.8869C104.529 13.5073 104.596 14.0494 104.555 14.091C104.488 14.1582 102.456 11.5425 102.057 10.8762C101.973 10.7348 102.239 9.72188 102.649 8.6249C103.059 7.52792 103.448 6.36318 103.513 6.0365C103.627 5.46633 103.584 5.4286 102.438 5.09483C101.781 4.90346 101.179 4.82361 101.1 4.91721C101.021 5.01082 100.792 5.81448 100.59 6.7032C100.389 7.59192 100.161 8.3149 100.086 8.3099C100.009 8.30489 99.4861 7.64591 98.9223 6.84538C98.3587 6.04484 97.8438 5.41776 97.778 5.45195C97.7125 5.48614 97.2138 5.74172 96.6704 6.01983C96.127 6.29814 95.6838 6.57728 95.6859 6.64045C95.688 6.70362 96.3901 7.64591 97.2463 8.73435C98.1024 9.82278 98.8029 10.7807 98.8029 10.8633C98.8029 10.9458 98.4003 11.5083 97.9081 12.1133C97.0501 13.1679 95.1776 14.5539 94.9367 14.3124C94.8732 14.2489 94.9307 13.6483 95.0642 12.9778C95.1978 12.3074 95.3569 9.99977 95.4179 7.8498L95.5286 3.94094H99.8425H104.156L104.168 7.8498ZM64.4744 6.1299V7.90192H63.2261H61.9778V6.1299V4.35788H63.2261H64.4744V6.1299ZM69.1562 8.77187C68.5845 8.99973 68.0912 9.21154 68.0604 9.2426C68.0294 9.27346 68.3334 9.84676 68.7359 10.5166C69.1383 11.1862 69.4691 11.8335 69.4708 11.9548C69.4726 12.0764 69.5563 12.3059 69.657 12.4652C69.8091 12.7055 70.0377 12.6728 71.0041 12.2713L72.1682 11.7878L71.322 10.2097C70.8568 9.34184 70.413 8.56986 70.3361 8.4946C70.2589 8.41914 69.7279 8.54401 69.1562 8.77187ZM45.7392 9.50298C46.9103 10.8362 48.0323 13.1756 48.1751 14.5826C48.4072 16.8698 46.6082 20.1974 44.1276 22.0697C42.555 23.2565 39.9092 24.6723 37.7361 25.4895C34.339 26.767 29.3986 27.7081 26.193 27.6882C24.503 27.6778 24.457 27.6655 25.155 27.4076C26.5204 26.9031 28.396 25.8687 29.4286 25.0504C31.6809 23.2655 32.3673 20.4038 31.1423 17.9046C30.8323 17.2717 30.395 16.5567 30.1705 16.3155L29.7627 15.8766L32.3989 15.0023C36.5585 13.6226 40.6939 11.5002 43.3572 9.3779C43.9293 8.92197 44.5065 8.54422 44.6398 8.53817C44.7732 8.53213 45.2679 8.96638 45.7392 9.50298ZM64.4744 11.8629V13.7391H63.2261H61.9778V11.8629V9.98664H63.2261H64.4744V11.8629ZM61.1456 21.8043C60.2327 22.2782 59.6318 23.3912 59.7743 24.345C59.9612 25.5944 60.5185 25.9517 63.0699 26.457C64.1869 26.6782 64.8905 27.0808 64.8905 27.4983C64.8905 27.958 64.1775 28.3322 63.3016 28.3322C62.1422 28.3322 61.648 28.0796 61.4777 27.3995C61.367 26.958 61.2245 26.8729 60.5943 26.8729C59.844 26.8729 59.843 26.874 59.9678 27.6443C60.153 28.7877 61.0678 29.5999 62.4093 29.8126C65.0489 30.2306 66.7599 28.8369 66.2206 26.708C65.9657 25.7017 65.1924 25.1966 63.3098 24.8067C61.4173 24.4148 60.9473 23.9683 61.7408 23.3157C62.521 22.6743 64.0646 22.8711 64.5368 23.672C64.7815 24.0871 66.1388 24.0444 66.1388 23.6216C66.1388 23.1394 65.5365 22.1919 65.0272 21.8733C64.283 21.4076 61.9886 21.3667 61.1456 21.8043ZM67.3871 25.6221V29.7915H68.2194H69.0516V28.0195V26.2475H70.82H72.5884V28.0195V29.7915H73.3166H74.0448V25.6221V21.4526H73.3166H72.5884V23.0162V24.5797H70.82H69.0516V23.0162V21.4526H68.2194H67.3871V25.6221ZM75.2931 25.6221V29.7915H76.2293H77.1656V25.6221V21.4526H76.2293H75.2931V25.6221ZM78.4139 25.6221V29.7915H79.2461H80.0783V28.0195V26.2475H82.2628H84.4474V25.5178V24.7882H82.2628H80.0783V23.9543V23.1204H82.6789H85.2796V22.2865V21.4526H81.8467H78.4139V25.6221ZM86.3198 25.6221V29.7915H89.7527H93.1855V28.9576V28.1237H90.5849H87.9842V27.2899V26.456H90.2728H92.5614V25.6221V24.7882H90.2728H87.9842V23.9543V23.1204H90.5849H93.1855V22.2865V21.4526H89.7527H86.3198V25.6221ZM94.2258 25.6102V29.7915H95.0513H95.8771L95.9355 27.3468L95.9942 24.902L97.5257 27.3468C99.0532 29.7853 99.0592 29.7915 99.8663 29.7915H100.675V25.6221V21.4526H99.8498H99.0241L98.9656 23.849L98.9069 26.2452L97.442 23.9011C95.9819 21.5646 95.9742 21.5567 95.1015 21.4929L94.2258 21.4287V25.6102ZM104.088 21.8498C102.186 22.7149 101.381 25.3408 102.356 27.4946C102.893 28.6812 103.299 29.1267 104.181 29.4961C105.099 29.8801 106.159 29.8714 106.927 29.4734C107.477 29.1884 107.541 29.1884 107.541 29.4734C107.541 29.6879 107.745 29.7915 108.165 29.7915H108.789V27.6026V25.4136H107.333H105.877V26.1433C105.877 26.8381 105.911 26.8729 106.605 26.8729C107.43 26.8729 107.518 27.1041 106.922 27.7016C105.164 29.4634 102.682 26.9628 103.688 24.443C104.079 23.4631 104.75 23.0295 105.828 23.06C106.604 23.0821 107.333 23.6781 107.333 24.2901C107.333 24.4821 107.579 24.5797 108.061 24.5797C108.703 24.5797 108.789 24.5168 108.789 24.0481C108.789 23.1834 108.213 22.3192 107.337 21.8717C106.319 21.3515 105.199 21.344 104.088 21.8498Z" fill="#E25B26"/>
</svg>
