<svg width="180" height="180" viewBox="0 0 180 180" fill="none" xmlns="http://www.w3.org/2000/svg">
<path d="M91 68.9998C91 68.4475 90.5523 67.9998 90 67.9998C89.4477 67.9998 89 68.4475 89 68.9998L91 68.9998ZM89.2929 111.707C89.6834 112.097 90.3166 112.097 90.7071 111.707L97.0711 105.343C97.4616 104.952 97.4616 104.319 97.0711 103.929C96.6805 103.538 96.0474 103.538 95.6569 103.929L90 109.586L84.3431 103.929C83.9526 103.538 83.3195 103.538 82.9289 103.929C82.5384 104.319 82.5384 104.952 82.9289 105.343L89.2929 111.707ZM89 68.9998L89 111L91 111L91 68.9998L89 68.9998Z" fill="#BB8B7A"/>
</svg>
