<svg width="180" height="180" viewBox="0 0 180 180" fill="none" xmlns="http://www.w3.org/2000/svg">
<path fill-rule="evenodd" clip-rule="evenodd" d="M80.2901 76.274C79.8996 75.8834 79.2664 75.8834 78.8759 76.274C78.4854 76.6645 78.4854 77.2977 78.8759 77.6882L90.219 89.0313L78.8759 100.374C78.4854 100.765 78.4854 101.398 78.8759 101.789C79.2664 102.179 79.8996 102.179 80.2901 101.789L91.6332 90.4455L103.251 102.063C103.641 102.454 104.275 102.454 104.665 102.063C105.056 101.673 105.056 101.039 104.665 100.649L93.0474 89.0313L103.728 78.3511C104.118 77.9606 104.118 77.3275 103.728 76.9369C103.337 76.5464 102.704 76.5464 102.313 76.9369L91.6332 87.6171L80.2901 76.274Z" fill="#BB8B7A"/>
</svg>
