<svg width="60" height="60" viewBox="0 0 60 60" fill="none" xmlns="http://www.w3.org/2000/svg">
<path d="M22 29C21.4477 29 21 29.4477 21 30C21 30.5523 21.4477 31 22 31L22 29ZM38.7071 30.7071C39.0976 30.3166 39.0976 29.6834 38.7071 29.2929L32.3431 22.9289C31.9526 22.5384 31.3195 22.5384 30.9289 22.9289C30.5384 23.3195 30.5384 23.9526 30.9289 24.3431L36.5858 30L30.9289 35.6569C30.5384 36.0474 30.5384 36.6805 30.9289 37.0711C31.3195 37.4616 31.9526 37.4616 32.3431 37.0711L38.7071 30.7071ZM22 31L38 31L38 29L22 29L22 31Z" fill="#BB8B7A"/>
</svg>
