<svg width="202" height="258" viewBox="0 0 202 258" fill="none" xmlns="http://www.w3.org/2000/svg">
<path d="M-56.1914 52.5174C-21.5658 46.2322 8.70368 27.4438 29.7703 0.99865V34.4927C6.30704 55.9187 -23.3448 70.6816 -56.1914 75.7876V52.5174Z" fill="#8024C0"/>
<path d="M115.732 52.5174C81.1068 46.2322 50.8373 27.4438 29.7707 0.99865V34.4927C53.234 55.9187 82.8858 70.6816 115.732 75.7876V52.5174Z" fill="#8024C0"/>
<path d="M201.849 52.5174C167.223 46.2322 136.954 27.4438 115.887 0.99865V34.4927C139.35 55.9187 169.002 70.6816 201.849 75.7876V52.5174Z" fill="#8024C0"/>
<path d="M-56.1914 143.174C-21.5658 136.889 8.70368 118.101 29.7703 91.6554V125.149C6.30704 146.575 -23.3448 161.338 -56.1914 166.444V143.174Z" fill="#8024C0"/>
<path d="M115.732 143.174C81.1068 136.889 50.8373 118.101 29.7707 91.6554V125.149C53.234 146.575 82.8858 161.338 115.732 166.444V143.174Z" fill="#8024C0"/>
<path d="M201.849 143.174C167.223 136.889 136.954 118.101 115.887 91.6554V125.149C139.35 146.575 169.002 161.338 201.849 166.444V143.174Z" fill="#8024C0"/>
<path d="M-56.1914 233.83C-21.5658 227.545 8.70368 208.757 29.7703 182.312V215.806C6.30704 237.232 -23.3448 251.995 -56.1914 257.101V233.83Z" fill="#8024C0"/>
<path d="M115.732 233.83C81.1068 227.545 50.8373 208.757 29.7707 182.312V215.806C53.234 237.232 82.8858 251.995 115.732 257.101V233.83Z" fill="#8024C0"/>
<path d="M201.849 233.83C167.223 227.545 136.954 208.757 115.887 182.312V215.806C139.35 237.232 169.002 251.995 201.849 257.101V233.83Z" fill="#8024C0"/>
</svg>
