<svg width="16" height="20" viewBox="0 0 16 20" fill="none" xmlns="http://www.w3.org/2000/svg">
<path fill-rule="evenodd" clip-rule="evenodd" d="M8.00004 2C6.40519 2 4.87782 2.62669 3.75344 3.73871C2.62943 4.85037 2 6.35578 2 7.9231C2 10.0586 2.9376 12.071 4.1689 13.7829C5.39515 15.4879 6.85427 16.8128 7.75671 17.5517C7.8263 17.6087 7.87739 17.6505 7.92214 17.6857C7.9583 17.7142 7.98279 17.7324 8.00001 17.7445C8.01724 17.7324 8.04182 17.7142 8.07815 17.6856C8.12285 17.6504 8.17394 17.6086 8.24343 17.5517C9.14586 16.8128 10.6049 15.4879 11.8311 13.7829C13.0624 12.071 14 10.0585 14 7.92306C14 6.35574 13.3706 4.85038 12.2466 3.73872C11.1222 2.62669 9.59488 2 8.00004 2ZM2.34706 2.31671C3.84819 0.832077 5.88186 0 8.00004 0C10.1182 0 12.1518 0.832101 13.6529 2.31672C15.1544 3.80172 16 5.81816 16 7.92306C16 10.6394 14.8154 13.059 13.4548 14.9507C12.0892 16.8495 10.4868 18.2998 9.51048 19.0992C9.49401 19.1127 9.47716 19.1266 9.4599 19.1408C9.23899 19.3231 8.95073 19.561 8.542 19.6761C8.20858 19.7699 7.79127 19.7699 7.45784 19.6761C7.04935 19.5611 6.76119 19.3232 6.54083 19.1413C6.52336 19.1269 6.50631 19.1128 6.48967 19.0992C5.5134 18.2998 3.91092 16.8495 2.54525 14.9508C1.18463 13.059 0 10.6394 0 7.9231C0 5.81818 0.845567 3.8017 2.34706 2.31671ZM8 6C7.44772 6 7 6.44772 7 7C7 7.55228 7.44772 8 8 8C8.55228 8 9 7.55228 9 7C9 6.44772 8.55228 6 8 6ZM5 7C5 5.34315 6.34315 4 8 4C9.65685 4 11 5.34315 11 7C11 8.65685 9.65685 10 8 10C6.34315 10 5 8.65685 5 7Z" fill="#303030"/>
</svg>
