<svg width="133" height="133" viewBox="0 0 133 133" fill="none" xmlns="http://www.w3.org/2000/svg">
<path fill-rule="evenodd" clip-rule="evenodd" d="M66.5 3C31.4299 3 3 31.4299 3 66.5C3 101.57 31.4299 130 66.5 130C101.57 130 130 101.57 130 66.5C130 31.4299 101.57 3 66.5 3ZM0 66.5C0 29.7731 29.7731 0 66.5 0C103.227 0 133 29.7731 133 66.5C133 103.227 103.227 133 66.5 133C29.7731 133 0 103.227 0 66.5ZM55.4393 64.4393C56.0251 63.8536 56.9749 63.8536 57.5607 64.4393L66.6111 73.4898L75.6616 64.4393C76.2474 63.8536 77.1971 63.8536 77.7828 64.4393C78.3686 65.0251 78.3686 65.9749 77.7828 66.5607L67.6718 76.6718C67.3904 76.9531 67.0089 77.1111 66.6111 77.1111C66.2133 77.1111 65.8317 76.9531 65.5504 76.6718L55.4393 66.5607C54.8535 65.9749 54.8535 65.0251 55.4393 64.4393Z" fill="white"/>
</svg>
