<svg width="13" height="19" viewBox="0 0 13 19" fill="none" xmlns="http://www.w3.org/2000/svg">
<path fill-rule="evenodd" clip-rule="evenodd" d="M6.5 0C6.77614 0 7 0.223858 7 0.5L7 13.2929L11.1464 9.14645C11.3417 8.95118 11.6583 8.95118 11.8536 9.14645C12.0488 9.34171 12.0488 9.65829 11.8536 9.85355L6.85355 14.8536C6.75979 14.9473 6.63261 15 6.5 15C6.36739 15 6.24022 14.9473 6.14645 14.8536L1.14645 9.85355C0.951185 9.65829 0.951184 9.34171 1.14645 9.14645C1.34171 8.95118 1.65829 8.95118 1.85355 9.14645L6 13.2929L6 0.5C6 0.223858 6.22386 0 6.5 0ZM0 18.5C0 18.2239 0.223858 18 0.5 18H12.5C12.7761 18 13 18.2239 13 18.5C13 18.7761 12.7761 19 12.5 19H0.5C0.223858 19 0 18.7761 0 18.5Z" fill="#202020"/>
</svg>
