<svg width="16" height="16" viewBox="0 0 16 16" fill="none" xmlns="http://www.w3.org/2000/svg">
<path fill-rule="evenodd" clip-rule="evenodd" d="M6.29395 1.57227C6.29395 1.01998 6.74166 0.572266 7.29395 0.572266H14.3646C14.6299 0.572266 14.8842 0.67763 15.0718 0.865178C15.2593 1.05273 15.3647 1.30709 15.3646 1.57232L15.3643 8.64339C15.3642 9.19567 14.9165 9.64336 14.3642 9.64333C13.8119 9.6433 13.3642 9.19556 13.3643 8.64328L13.3645 3.98661L2.34383 15.0073C1.9533 15.3978 1.32014 15.3978 0.929612 15.0073C0.539088 14.6168 0.539088 13.9836 0.929612 13.5931L11.9504 2.57227H7.29395C6.74166 2.57227 6.29395 2.12455 6.29395 1.57227Z" fill="#202020"/>
</svg>
