<svg width="18" height="21" viewBox="0 0 18 21" fill="none" xmlns="http://www.w3.org/2000/svg">
<path fill-rule="evenodd" clip-rule="evenodd" d="M5 0.5C5.55229 0.5 6 0.947715 6 1.5V2.5H12V1.5C12 0.947715 12.4477 0.5 13 0.5C13.5523 0.5 14 0.947715 14 1.5V2.50003C14.4591 2.50031 14.8593 2.50313 15.1951 2.53057C15.5904 2.56288 15.9835 2.63421 16.3618 2.82698C16.9259 3.11439 17.3854 3.57315 17.6732 4.13805C17.8661 4.51653 17.9373 4.90983 17.9696 5.30511C18 5.67899 18 6.13286 18 6.6588V16.341C18 16.867 18 17.3209 17.9696 17.6949C17.9373 18.0902 17.8661 18.4835 17.6732 18.862C17.3854 19.427 16.9257 19.8856 16.3618 20.173C15.9835 20.3657 15.5904 20.4371 15.1951 20.4694C14.8205 20.5 14.3657 20.5 13.8384 20.5H4.16209C3.63473 20.5 3.17973 20.5 2.80496 20.4694C2.40959 20.4371 2.01623 20.3658 1.63781 20.173C1.07317 19.8853 0.614525 19.4264 0.326982 18.862C0.134181 18.4836 0.0628699 18.0904 0.0305708 17.695C-3.25181e-05 17.3204 -1.70213e-05 16.8656 8.60117e-07 16.3385V6.6614C-1.70213e-05 6.13426 -3.25181e-05 5.67951 0.0305716 5.30495C0.062874 4.90961 0.134193 4.51642 0.326982 4.13805C0.614471 3.57382 1.07306 3.11473 1.63781 2.82698C2.01625 2.63416 2.40962 2.56286 2.80499 2.53057C3.14079 2.50314 3.54102 2.50031 4 2.50003V1.5C4 0.947715 4.44772 0.5 5 0.5ZM4.2002 4.5C3.62365 4.5 3.25126 4.50078 2.9678 4.52393C2.69595 4.54613 2.59517 4.58383 2.54579 4.60899C2.35789 4.70474 2.205 4.85761 2.109 5.04603C2.0838 5.09549 2.04612 5.1962 2.02393 5.46783C2.00357 5.71696 2.00052 6.03487 2.00007 6.5H15.9999C15.9995 6.03479 15.9965 5.71687 15.9762 5.46767C15.954 5.19598 15.9164 5.09537 15.8912 5.04603C15.7956 4.85828 15.6424 4.70508 15.4538 4.60899C15.4043 4.58377 15.3036 4.54611 15.0321 4.52393C14.7489 4.50078 14.3768 4.5 13.8002 4.5H4.2002ZM16 8.5H2V16.3C2 16.8765 2.00078 17.2488 2.02393 17.5322C2.04613 17.8039 2.08381 17.9046 2.109 17.954C2.20495 18.1424 2.35778 18.2952 2.54579 18.391C2.59519 18.4161 2.69598 18.4538 2.96782 18.4761C3.25127 18.4992 3.62367 18.5 4.2002 18.5H13.8002C14.3767 18.5 14.7489 18.4992 15.0321 18.4761C15.3036 18.4539 15.4043 18.4162 15.4538 18.391C15.6425 18.2948 15.7956 18.1417 15.8912 17.954C15.9164 17.9047 15.954 17.8041 15.9762 17.5323C15.9993 17.2489 16 16.8766 16 16.3V8.5ZM4 11.5C4 10.9477 4.44772 10.5 5 10.5H5.002C5.27127 10.5 5.52916 10.6086 5.71732 10.8012C5.90548 10.9938 6.00802 11.2542 6.00173 11.5234L6.00168 11.5254C5.99548 11.7906 5.88414 12.0425 5.69215 12.2256C5.50016 12.4087 5.24327 12.5081 4.97804 12.5017L4.97608 12.5017C4.43327 12.4887 4 12.0449 4 11.502V11.5ZM8 11.5C8 10.9477 8.44772 10.5 9 10.5H9.002C9.27127 10.5 9.52916 10.6086 9.71732 10.8012C9.90548 10.9938 10.008 11.2542 10.0017 11.5234L10.0017 11.5254C9.99548 11.7906 9.88414 12.0425 9.69215 12.2256C9.50016 12.4087 9.24327 12.5081 8.97804 12.5017L8.97608 12.5017C8.43327 12.4887 8 12.0449 8 11.502V11.5ZM12 11.5C12 10.9477 12.4477 10.5 13 10.5H13.002C13.5542 10.5 14.002 10.9477 14.002 11.5V11.502C14.002 11.7714 13.8933 12.0293 13.7006 12.2175C13.5078 12.4057 13.2473 12.5082 12.978 12.5017L12.9761 12.5017C12.4333 12.4887 12 12.0449 12 11.502V11.5ZM4 15.5C4 14.9477 4.44772 14.5 5 14.5H5.002C5.27127 14.5 5.52916 14.6086 5.71732 14.8012C5.90548 14.9938 6.00802 15.2542 6.00173 15.5234L6.00168 15.5254C5.99548 15.7906 5.88414 16.0425 5.69215 16.2256C5.50016 16.4087 5.24327 16.5081 4.97804 16.5017L4.97608 16.5017C4.43327 16.4887 4 16.0449 4 15.502V15.5ZM8 15.5C8 14.9477 8.44772 14.5 9 14.5H9.002C9.27127 14.5 9.52916 14.6086 9.71732 14.8012C9.90548 14.9938 10.008 15.2542 10.0017 15.5234L10.0017 15.5254C9.99548 15.7906 9.88414 16.0425 9.69215 16.2256C9.50016 16.4087 9.24327 16.5081 8.97804 16.5017L8.97608 16.5017C8.43327 16.4887 8 16.0449 8 15.502V15.5ZM12 15.5C12 14.9477 12.4477 14.5 13 14.5H13.002C13.2713 14.5 13.5292 14.6086 13.7173 14.8012C13.9055 14.9938 14.008 15.2542 14.0017 15.5234L14.0017 15.5254C13.9955 15.7906 13.8841 16.0425 13.6921 16.2256C13.5002 16.4087 13.2433 16.5081 12.978 16.5017L12.9761 16.5017C12.4333 16.4887 12 16.0449 12 15.502V15.5Z" fill="#303030"/>
</svg>
