<svg width="29" height="29" viewBox="0 0 29 29" fill="none" xmlns="http://www.w3.org/2000/svg">
<path fill-rule="evenodd" clip-rule="evenodd" d="M14.6667 3C8.22334 3 3 8.22334 3 14.6667C3 16.7582 3.55142 18.7245 4.51758 20.4242L3.63676 23.0667C3.55322 23.3171 3.46723 23.5749 3.4158 23.7936C3.36572 24.0065 3.2882 24.4052 3.44041 24.8321C3.617 25.3273 4.0068 25.7164 4.50113 25.8927C4.92772 26.0448 5.32637 25.9675 5.53942 25.9174C5.75895 25.8659 6.01766 25.7796 6.26903 25.6957L8.9092 24.8157C10.609 25.7818 12.5752 26.3333 14.6668 26.3333C21.1102 26.3333 26.3333 21.11 26.3333 14.6667C26.3333 8.22334 21.11 3 14.6667 3ZM14.6667 5.33333C9.51201 5.33333 5.33333 9.51201 5.33333 14.6667C5.33333 16.3643 5.7855 17.9527 6.57519 19.322C6.63638 19.4262 6.77807 19.6676 6.84069 19.8941C6.89396 20.0869 6.91371 20.2784 6.89993 20.4798C6.88394 20.7135 6.8074 20.937 6.77086 21.0437L6.76059 21.0739L6.01117 23.3221L8.25969 22.5726L8.28991 22.5624C8.39764 22.5255 8.61973 22.4496 8.85339 22.4336C9.05272 22.42 9.24449 22.4389 9.43923 22.4927C9.66576 22.5553 9.87642 22.6789 9.98137 22.7405L10.0115 22.7581C11.3807 23.5478 12.9692 23.9999 14.6668 23.9999C19.8215 23.9999 24 19.8213 24 14.6667C24 9.51201 19.8213 5.33333 14.6667 5.33333Z" fill="white"/>
<path d="M10 13.5C9.35567 13.5 8.83333 14.0223 8.83333 14.6667V14.6689C8.83333 15.3024 9.33882 15.8201 9.9721 15.8353L9.97437 15.8353C10.2838 15.8427 10.5835 15.7269 10.8075 15.5132C11.0315 15.2996 11.1614 15.0057 11.1686 14.6963L11.1687 14.6939C11.176 14.3799 11.0564 14.0761 10.8369 13.8514C10.6173 13.6267 10.3165 13.5 10.0023 13.5H10Z" fill="white"/>
<path d="M14.6667 13.5C14.0223 13.5 13.5 14.0223 13.5 14.6667V14.6689C13.5 15.3024 14.0055 15.8201 14.6388 15.8353L14.641 15.8353C14.9505 15.8427 15.2502 15.7269 15.4742 15.5132C15.6982 15.2996 15.8281 15.0057 15.8353 14.6963L15.8353 14.6939C15.8427 14.3799 15.7231 14.0761 15.5035 13.8514C15.284 13.6267 14.9831 13.5 14.669 13.5H14.6667Z" fill="white"/>
<path d="M19.3333 13.5C18.689 13.5 18.1667 14.0223 18.1667 14.6667V14.6689C18.1667 15.3024 18.6722 15.8201 19.3054 15.8353L19.3077 15.8353C19.6171 15.8427 19.9169 15.7269 20.1408 15.5132C20.3648 15.2996 20.4947 15.0057 20.502 14.6963L20.502 14.6939C20.5094 14.3799 20.3897 14.0761 20.1702 13.8514C19.9507 13.6267 19.6498 13.5 19.3357 13.5H19.3333Z" fill="white"/>
</svg>
