<svg width="18" height="21" viewBox="0 0 18 21" fill="none" xmlns="http://www.w3.org/2000/svg">
<path fill-rule="evenodd" clip-rule="evenodd" d="M14.6469 3.77605C12.9872 2.11632 10.2963 2.11632 8.63655 3.77605L1.74226 10.6703C1.35174 11.0609 0.718574 11.0609 0.328049 10.6703C-0.0624748 10.2798 -0.0624748 9.64665 0.328049 9.25612L7.22234 2.36183C9.66312 -0.0789442 13.6203 -0.0789442 16.0611 2.36183C18.5019 4.80264 18.5017 8.75986 16.061 11.2006L8.10603 19.1556C6.34869 20.9129 3.49971 20.913 1.74234 19.1556C-0.0149401 17.3983 -0.0153307 14.5491 1.74211 12.7916L9.69706 4.83669C10.771 3.76274 12.5126 3.76274 13.5865 4.83669C14.6606 5.91081 14.66 7.65199 13.5863 8.72575L6.69197 15.62C6.30145 16.0106 5.66828 16.0106 5.27776 15.62C4.88723 15.2295 4.88723 14.5964 5.27776 14.2058L12.172 7.31154C12.4651 7.01847 12.465 6.54361 12.1723 6.2509C11.8794 5.95801 11.4042 5.95801 11.1113 6.2509L3.15633 14.2059C2.1801 15.1821 2.18016 16.765 3.15655 17.7414C4.13284 18.7177 5.71549 18.7177 6.69182 17.7413L14.6468 9.78639C16.3065 8.12663 16.3066 5.43574 14.6469 3.77605Z" fill="#202020"/>
</svg>
