<svg width="20" height="17" viewBox="0 0 20 17" fill="none" xmlns="http://www.w3.org/2000/svg">
<path fill-rule="evenodd" clip-rule="evenodd" d="M4.16168 0.486329H15.8388C16.3659 0.486311 16.8206 0.486296 17.1951 0.516901C17.5904 0.54921 17.9835 0.620544 18.3618 0.81331C18.9259 1.10072 19.3854 1.55949 19.6732 2.12438C19.8661 2.50286 19.9373 2.89616 19.9696 3.29144C20 3.66532 20 4.11919 20 4.64513V12.3274C20 12.8533 20 13.3073 19.9696 13.6812C19.9373 14.0765 19.8661 14.4698 19.6732 14.8484C19.3854 15.4134 18.9258 15.872 18.3618 16.1593C17.9835 16.3521 17.5904 16.4234 17.1951 16.4557C16.8205 16.4864 16.3657 16.4863 15.8384 16.4863H4.16204C3.6347 16.4863 3.17972 16.4864 2.80496 16.4557C2.40959 16.4234 2.01623 16.3521 1.63781 16.1593C1.07317 15.8716 0.614525 15.4127 0.326982 14.8484C0.134181 14.47 0.0628699 14.0767 0.0305708 13.6814C-3.25181e-05 13.3068 -1.70213e-05 12.852 8.60117e-07 12.3248V4.64773C-1.70213e-05 4.12059 -3.25181e-05 3.66584 0.0305716 3.29128C0.062874 2.89594 0.134193 2.50275 0.326982 2.12438C0.614471 1.56015 1.07306 1.10106 1.63781 0.81331C2.01625 0.620486 2.40962 0.54919 2.80499 0.516897C3.17965 0.486296 3.63451 0.486311 4.16168 0.486329ZM3.69865 2.48732L10.2114 7.23621L16.3618 2.48774C16.1986 2.48644 16.0134 2.48633 15.8002 2.48633H4.2002C4.01276 2.48633 3.8469 2.48641 3.69865 2.48732ZM17.9921 3.75572L10.8397 9.27787C10.4877 9.54959 9.99867 9.5563 9.6394 9.29434L2.00875 3.73032C2.00039 3.97426 2 4.27939 2 4.68628V12.2863C2 12.8628 2.00078 13.2351 2.02393 13.5185C2.04613 13.7902 2.08381 13.8909 2.109 13.9404C2.20495 14.1287 2.35778 14.2815 2.54579 14.3773C2.59519 14.4025 2.69598 14.4402 2.96782 14.4624C3.25127 14.4855 3.62367 14.4863 4.2002 14.4863H15.8002C16.3767 14.4863 16.7489 14.4855 17.0321 14.4624C17.3036 14.4402 17.4043 14.4025 17.4538 14.3773C17.6425 14.2812 17.7956 14.128 17.8912 13.9404C17.9164 13.8911 17.954 13.7904 17.9762 13.5187C17.9993 13.2352 18 12.8629 18 12.2863V4.68628C18 4.29338 17.9997 3.99538 17.9921 3.75572Z" fill="#303030"/>
</svg>
