<svg width="26" height="27" viewBox="0 0 26 27" fill="none" xmlns="http://www.w3.org/2000/svg">
<path d="M9.6706 3.17629C9.26563 2.16387 8.28507 1.5 7.19466 1.5H3.52632C2.13107 1.5 1 2.63112 1 4.02637C1 15.886 10.6144 25.5 22.474 25.5C23.8692 25.5 25 24.369 25 22.9738L24.9999 19.3054C24.9999 18.215 24.3359 17.2345 23.3235 16.8295L19.8095 15.4238C18.9001 15.0601 17.8647 15.224 17.1123 15.8511L16.2041 16.6076C15.1446 17.4906 13.5866 17.42 12.6114 16.4447L10.0552 13.8887C9.0799 12.9134 9.00963 11.3554 9.89258 10.2958L10.6491 9.38796C11.2761 8.63551 11.44 7.59991 11.0763 6.69048L9.6706 3.17629Z" stroke="#202020" stroke-width="2" stroke-linecap="round" stroke-linejoin="round"/>
</svg>
