<svg width="22" height="22" viewBox="0 0 22 22" fill="none" xmlns="http://www.w3.org/2000/svg">
<path d="M1.33496 9.33666C1.02171 9.04698 1.19187 8.52328 1.61557 8.47305L7.61914 7.76124C7.79182 7.74077 7.94181 7.63197 8.01465 7.47407L10.5469 1.98421C10.7256 1.59677 11.2764 1.59672 11.4551 1.98416L13.9873 7.47415C14.0601 7.63205 14.2092 7.74078 14.3818 7.76126L20.3857 8.47305C20.8094 8.52328 20.9795 9.04701 20.6662 9.33669L16.2279 13.4414C16.1002 13.5595 16.0433 13.7355 16.0771 13.906L17.2551 19.8358C17.3383 20.2543 16.8929 20.5779 16.5206 20.3695L11.2453 17.4166C11.0935 17.3317 10.9087 17.3316 10.757 17.4165L5.48109 20.3696C5.10878 20.578 4.66294 20.2544 4.74609 19.8359L5.92437 13.906C5.95826 13.7354 5.90134 13.5595 5.77367 13.4415L1.33496 9.33666Z" stroke="white" stroke-width="2" stroke-linecap="round" stroke-linejoin="round"/>
</svg>
