<svg width="18" height="21" viewBox="0 0 18 21" fill="none" xmlns="http://www.w3.org/2000/svg">
<path fill-rule="evenodd" clip-rule="evenodd" d="M9 2.98633C6.79086 2.98633 5 4.77719 5 6.98633C5 9.19547 6.79086 10.9863 9 10.9863C11.2091 10.9863 13 9.19547 13 6.98633C13 4.77719 11.2091 2.98633 9 2.98633ZM3 6.98633C3 3.67262 5.68629 0.986328 9 0.986328C12.3137 0.986328 15 3.67262 15 6.98633C15 10.3 12.3137 12.9863 9 12.9863C5.68629 12.9863 3 10.3 3 6.98633ZM2.81315 15.6028C4.44343 14.5839 6.63342 13.9863 9 13.9863C11.3666 13.9863 13.5566 14.5839 15.1869 15.6028C16.803 16.6129 18 18.1364 18 19.9863C18 20.5386 17.5523 20.9863 17 20.9863C16.4477 20.9863 16 20.5386 16 19.9863C16 19.0748 15.4061 18.0983 14.1269 17.2988C12.8617 16.5081 11.0517 15.9863 9 15.9863C6.9483 15.9863 5.13829 16.5081 3.87314 17.2988C2.59391 18.0983 2 19.0748 2 19.9863C2 20.5386 1.55228 20.9863 1 20.9863C0.447715 20.9863 0 20.5386 0 19.9863C0 18.1364 1.19695 16.6129 2.81315 15.6028Z" fill="#303030"/>
</svg>
