<svg width="100" height="72" viewBox="0 0 100 72" fill="none" xmlns="http://www.w3.org/2000/svg">
<path d="M97.8235 12.0885C96.6765 7.77971 94.1618 4.13265 89.8529 2.98559C82.0441 0.897353 50 0.706177 50 0.706177C50 0.706177 17.9559 0.897353 10.1471 2.98559C5.83824 4.13265 3.33824 7.77971 2.17647 12.0885C0.0882354 19.8974 0 36.0003 0 36.0003C0 36.0003 0.0882354 52.1032 2.17647 59.9121C3.32353 64.2209 5.83824 67.8679 10.1471 69.015C17.9559 71.1032 50 71.2944 50 71.2944C50 71.2944 82.0441 71.1032 89.8529 69.015C94.1618 67.8679 96.6765 64.2209 97.8235 59.9121C99.9118 52.1032 100 36.0003 100 36.0003C100 36.0003 99.9118 19.8974 97.8235 12.0885Z" fill="#FF0000"/>
<path d="M66.177 35.9997L39.7064 21.2938V50.7056" fill="white"/>
</svg>
