<svg width="64" height="85" viewBox="0 0 64 85" fill="none" xmlns="http://www.w3.org/2000/svg">
<g opacity="0.5">
<path d="M15.8076 83.3221L53.644 6.24609C61.7819 9.464 65.4766 17.9915 61.891 25.3018L37.0409 75.9279C33.4552 83.2311 23.9533 86.547 15.8076 83.329V83.3221Z" fill="white"/>
<path d="M41.3724 1.39345L53.6199 6.23668L42.1099 29.6791L29.8695 24.8387C27.9222 24.0687 27.0364 22.0213 27.8944 20.2737L36.2897 3.17514C37.1477 1.42752 39.429 0.632616 41.3764 1.40268L41.3724 1.39345Z" fill="white"/>
<path d="M15.0335 55.036L27.2811 59.8793L15.771 83.3217L3.53062 78.4813C1.58328 77.7112 0.697507 75.6639 1.55557 73.9163L9.95078 56.8178C10.8088 55.0701 13.0902 54.2752 15.0375 55.0453L15.0335 55.036Z" fill="white"/>
</g>
</svg>
