<svg width="120" height="91" viewBox="0 0 120 91" fill="none" xmlns="http://www.w3.org/2000/svg">
<path d="M118.594 14.9315C117.426 14.365 116.425 14.7495 115.486 15.5567C99.8346 28.9797 84.172 42.391 68.5211 55.814C66.7423 57.3404 65.0252 58.9254 62.6623 59.5506C59.5538 60.3725 56.6039 59.9498 54.1383 57.9509C50.0758 54.6605 46.1983 51.1381 42.221 47.7391C29.7461 37.084 17.2653 26.4407 4.7845 15.7974C2.7621 14.0744 1.44416 14.2564 0 16.4109V81.0956C0.507803 83.5495 1.44709 85.7568 3.39318 87.4622C5.50658 89.3143 7.98395 90.0041 10.7314 90.0041C36.3534 89.9983 61.9754 90.0012 87.5945 90.0012C94.8975 90.0012 102.203 90.0159 109.506 89.9953C113.783 89.9836 117.094 88.1901 118.94 84.2774C119.601 82.8802 119.947 81.2012 119.95 79.6514C120.015 58.99 119.991 38.3286 120 17.6672C120 16.4872 119.721 15.4775 118.594 14.9315Z" fill="white"/>
<path d="M3.06809 7.7873C20.7473 22.9275 38.4264 38.0676 56.1056 53.2107C58.8883 55.5942 61.1337 55.6088 63.9047 53.2048C67.2362 50.3107 70.5266 47.3695 73.8817 44.5017C88.2557 32.2264 102.647 19.9716 117.03 7.70511C118.739 6.24921 118.815 4.85495 117.265 3.20826C115.16 0.977454 112.554 -0.00292855 109.501 6.73136e-06C93.0167 0.0176184 76.5351 0.00881256 60.0506 0.00881256C43.5661 0.00881256 27.0082 0.0176184 10.4855 6.73136e-06C7.47688 -0.00292855 4.89971 0.953972 2.80685 3.12901C1.15723 4.84615 1.25116 6.2316 3.06516 7.7873H3.06809Z" fill="white"/>
</svg>
