<svg width="110" height="110" viewBox="0 0 110 110" fill="none" xmlns="http://www.w3.org/2000/svg">
<path d="M54.9947 9.54465e-08C24.7137 0.0017736 0.037264 24.6588 4.19939e-05 54.9539C-0.03718 85.256 24.6747 109.993 54.9894 110C85.2846 110.007 110.009 85.2702 110 54.9592C109.991 24.712 85.2544 -0.00177341 54.9947 9.54465e-08ZM90.6818 55.3547C90.6818 60.2248 90.6818 65.0966 90.6818 69.9666C90.6818 80.5332 83.5405 88.9715 73.1254 90.6847C72.1399 90.8461 71.1278 90.9171 70.1281 90.9188C60.0622 90.9348 49.9963 90.933 39.9322 90.9277C28.5157 90.9206 19.3271 81.7303 19.3183 70.3089C19.3112 60.2726 19.313 50.2364 19.3183 40.1983C19.3236 28.7149 28.4926 19.56 39.9871 19.5565C49.9928 19.5529 60.0002 19.5529 70.0058 19.5565C81.4862 19.5618 90.6676 28.7344 90.68 40.209C90.6853 45.2564 90.68 50.3037 90.68 55.3529L90.6818 55.3547Z" fill="white"/>
<path d="M70.3318 26.3366C60.117 26.2657 49.9022 26.271 39.6892 26.3348C31.807 26.3827 25.9117 32.4197 25.9082 40.2976C25.9046 50.4244 25.8993 60.5511 25.9082 70.6778C25.9153 78.46 31.9541 84.481 39.7388 84.4881C44.817 84.4934 49.8933 84.4881 54.9715 84.4881C60.0496 84.4881 65.126 84.4899 70.2042 84.4881C78.0545 84.4828 84.0543 78.4866 84.0596 70.6246C84.0667 60.4979 84.0667 50.3712 84.0596 40.2444C84.0543 32.4126 78.1803 26.3916 70.3282 26.3366H70.3318ZM54.9343 73.9499C44.7106 73.9251 36.3871 65.5453 36.465 55.36C36.5448 45.0506 44.7496 36.9067 55.0512 36.9102C65.2412 36.9138 73.5134 45.1837 73.5346 55.3884C73.5559 65.6393 65.2005 73.9748 54.9343 73.9499ZM74.1426 40.5317C71.7303 40.5442 69.8089 38.643 69.7965 36.2328C69.7841 33.8226 71.6895 31.8841 74.0877 31.8664C76.4646 31.8469 78.4302 33.7871 78.455 36.1778C78.4799 38.5561 76.5337 40.5211 74.1426 40.5335V40.5317Z" fill="white"/>
<path d="M54.9971 43.4453C48.3999 43.44 43.0399 48.7783 43.0293 55.3668C43.0187 61.9448 48.3326 67.3664 54.811 67.3859C61.5535 67.4072 66.9595 62.1079 66.9719 55.4661C66.9843 48.8297 61.6279 43.4524 54.9989 43.4453H54.9971Z" fill="white"/>
</svg>
