<svg width="120" height="120" viewBox="0 0 120 120" fill="none" xmlns="http://www.w3.org/2000/svg">
<path d="M119.966 60.0634C119.966 70.1706 119.991 80.2778 119.958 90.385C119.936 97.227 117.705 103.333 113.459 108.666C109.049 114.201 103.338 117.722 96.4296 119.297C93.626 119.936 90.7848 119.983 87.9297 119.975C81.6003 119.955 75.2709 119.969 68.9416 119.968C62.6818 119.967 56.422 119.96 50.1608 119.96C43.901 119.96 37.6384 119.873 31.3813 119.993C24.0265 120.133 17.3841 118.184 11.5709 113.652C5.38485 108.828 1.68657 102.473 0.364765 94.7674C0.0544876 92.9532 0.0210946 91.0765 0.0169204 89.2275C-0.00812434 77.4272 0.0127463 65.6269 0.0155291 53.828C0.0169204 45.6212 -0.028995 37.4144 0.0308342 29.2076C0.0739669 23.256 1.90641 17.8205 5.30694 12.9568C10.1573 6.01598 16.8164 1.81867 25.1577 0.388498C27.0625 0.0629527 29.0327 0.026781 30.9737 0.0212161C41.7318 -0.0121732 52.4899 0.00313024 63.2481 0.00591268C72.3838 0.0073039 81.5182 0.000347804 90.654 0.0253897C95.3722 0.0379107 99.8135 1.23297 103.964 3.4464C110.86 7.122 115.624 12.6785 118.295 20.0116C119.634 23.6872 120.041 27.5047 119.997 31.4099C119.927 37.7149 119.979 44.0213 119.979 50.3263C119.979 53.572 119.979 56.8177 119.979 60.0634C119.975 60.0634 119.972 60.0634 119.968 60.0634H119.966ZM46.3748 38.6053C49.703 39.2522 50.9719 40.4305 51.3518 43.2005C51.8568 46.8872 51.8833 50.592 51.4812 54.2857C51.3532 55.4585 50.9956 56.6355 50.5517 57.7345C50.1552 58.7181 49.2494 58.9602 48.288 58.4941C47.7773 58.2465 47.2542 57.9293 46.8785 57.5161C45.9769 56.5256 45.0795 55.5155 44.3198 54.4151C41.1989 49.8908 38.5734 45.0897 36.5378 39.9798C35.8031 38.135 34.4744 37.3448 32.5612 37.3615C28.8546 37.3935 25.1466 37.4158 21.44 37.4589C20.9836 37.4645 20.5147 37.5312 20.0736 37.6509C18.7852 38.0001 18.4151 38.6915 18.7713 39.9979C18.8436 40.2636 18.923 40.5321 19.0343 40.7839C21.6542 46.7314 24.5942 52.5175 27.8765 58.1268C30.8151 63.1478 33.9818 68.0115 37.8679 72.3688C41.3756 76.3031 45.5442 79.2817 50.4627 81.228C55.1113 83.0672 59.9519 83.1702 64.8245 82.9309C66.6875 82.8391 67.5822 81.708 67.6476 79.8646C67.674 79.1245 67.7074 78.383 67.7979 77.6498C67.9815 76.1556 68.232 74.6754 69.0459 73.3607C70.0157 71.7914 71.428 71.3935 72.9153 72.4814C74.0257 73.2925 75.0038 74.3039 75.9666 75.2973C77.5765 76.9584 79.0555 78.7503 80.7224 80.3488C82.4866 82.0405 84.614 83.102 87.1394 83.0742C90.8446 83.0324 94.5485 82.9573 98.2537 82.8877C99.403 82.8655 100.505 82.6345 101.479 81.9835C102.314 81.4256 102.765 80.6076 102.436 79.6601C102.063 78.5833 101.575 77.5107 100.943 76.5661C98.8604 73.4469 96.1736 70.8565 93.4688 68.2855C92.1456 67.0279 90.8502 65.7354 89.6216 64.3859C88.496 63.1491 88.4793 61.7092 89.3795 60.357C90.5956 58.5303 91.8868 56.7495 93.21 54.9966C95.9301 51.3961 98.7379 47.8583 100.931 43.8919C101.636 42.6161 102.293 41.3154 102.467 39.8351C102.613 38.5844 102.155 37.8679 100.931 37.6231C100.189 37.4756 99.4183 37.4186 98.66 37.42C94.1436 37.4311 89.6272 37.4728 85.1094 37.5034C84.2189 37.509 83.4662 37.7984 82.9987 38.5997C82.7663 38.9962 82.5562 39.4122 82.3878 39.8393C80.2368 45.2873 77.5013 50.4181 73.9589 55.0884C73.0767 56.2529 71.9706 57.2782 70.8394 58.2117C69.967 58.931 69.103 58.7501 68.5506 57.7679C68.0998 56.968 67.7269 56.0191 67.6796 55.1176C67.5572 52.786 67.6128 50.4431 67.6351 48.1045C67.6629 45.2789 67.8146 42.452 67.7505 39.6292C67.706 37.6272 66.9811 36.2416 64.5977 35.7936C64.3486 35.7463 64.1038 35.6642 63.8533 35.6308C59.4204 35.0549 54.9861 35.066 50.5629 35.6893C49.1131 35.8938 47.8038 36.4809 46.8618 37.6759C46.6642 37.9277 46.5543 38.2491 46.3707 38.6053H46.3748Z" fill="white"/>
</svg>
