<svg width="111" height="110" viewBox="0 0 111 110" fill="none" xmlns="http://www.w3.org/2000/svg">
<path d="M62.3135 110V67.5992H75.328C76.0002 62.5517 76.6559 57.6131 77.3281 52.5623H62.8169C62.7606 52.2062 62.6811 51.9359 62.6811 51.6688C62.6811 48.5863 62.6546 45.5004 62.7109 42.4179C62.7772 38.732 64.4362 36.8594 68.1286 36.5C70.3805 36.2825 72.6622 36.355 74.9339 36.3121C75.924 36.2923 76.9109 36.3121 78.0037 36.3121V22.5445C77.3447 22.4785 76.6592 22.3467 75.9737 22.3533C71.3177 22.3928 66.5855 21.9708 62.0155 22.6302C53.5611 23.85 47.8884 30.4536 47.3652 39.0155C47.1201 43.0311 47.2228 47.0697 47.1698 51.0985C47.1632 51.6293 47.1698 52.1601 47.1698 52.859H34.2051V67.8663H47.0539C47.0539 81.9702 47.0539 95.9587 47.0539 109.947C26.8865 107.616 1.55972 89.1244 0.0628986 57.7746C-1.43061 26.4677 23.8664 0.148988 55.3493 0.000629895C86.7926 -0.147728 112.189 25.9303 110.957 57.5603C109.752 88.4749 84.6798 108.174 62.3135 110Z" fill="white"/>
</svg>
