<svg width="109" height="109" viewBox="0 0 109 109" fill="none" xmlns="http://www.w3.org/2000/svg">
<path d="M0.00177631 109C1.06046 105.152 2.07473 101.464 3.089 97.7762C4.55801 92.4399 6.03945 87.1072 7.47293 81.7621C7.58484 81.3416 7.4978 80.762 7.28464 80.375C1.83137 70.4764 -0.472498 59.8905 0.754931 48.6897C2.59874 31.8645 10.6241 18.5204 24.7653 9.14302C46.3652 -5.18006 74.3634 -2.43066 92.8814 15.6773C102.646 25.226 108.028 36.9163 108.888 50.5344C110.264 72.2964 98.9013 92.4028 79.3335 102.176C62.9044 110.382 46.2764 110.115 29.7887 102.038C29.0409 101.672 28.4121 101.605 27.6163 101.815C18.7525 104.157 9.87983 106.463 1.00717 108.777C0.728287 108.85 0.444077 108.901 0 108.998L0.00177631 109ZM36.8833 29.1823C35.0643 28.9561 33.4408 29.2512 32.2062 30.5393C31.1902 31.5995 30.1688 32.7038 29.4068 33.946C26.5203 38.6532 26.5842 43.5884 28.4991 48.6225C29.7816 51.9939 31.8545 54.8953 33.908 57.8161C41.42 68.4957 51.1417 76.053 64.0697 79.2141C68.8835 80.3909 73.3758 80.3238 77.662 77.4365C81.1418 75.0935 82.2857 71.807 82.2875 67.8825C82.2875 67.0786 81.9234 66.552 81.2164 66.2092C80.2323 65.7321 79.2624 65.2268 78.273 64.7603C75.5482 63.4739 72.8393 62.1469 70.0789 60.9419C68.5531 60.2757 68.0149 60.5567 67.0414 61.8024C65.7163 63.4987 64.3468 65.1614 62.9595 66.8064C62.1371 67.7818 61.4709 67.8967 60.279 67.4266C52.3229 64.2797 46.1858 59.0123 41.7877 51.7218C40.8515 50.1686 40.9777 49.7922 42.1696 48.3822C43.3419 46.9951 44.3811 45.4914 45.4131 43.993C45.8732 43.3251 45.8146 42.5406 45.5001 41.7879C44.1732 38.6091 42.7948 35.448 41.5461 32.2391C40.681 30.0198 39.3648 28.6769 36.8833 29.1823Z" fill="white"/>
</svg>
