<svg width="120" height="120" viewBox="0 0 120 120" fill="none" xmlns="http://www.w3.org/2000/svg">
<path d="M60.1135 120C57.8707 119.83 55.6278 119.708 53.3922 119.488C49.3833 119.091 45.4754 118.182 41.6543 116.919C36.4246 115.192 31.473 112.876 26.8681 109.838C23.0867 107.342 19.5725 104.528 16.4484 101.242C12.4864 97.0759 9.26844 92.3901 6.69693 87.2498C4.38907 82.6397 2.60491 77.8457 1.44556 72.8244C0.716003 69.668 0.329554 66.4648 0.109242 63.2291C-0.103846 60.1052 0.00811564 56.9993 0.329554 53.8971C0.73045 50.0301 1.52863 46.2425 2.69159 42.5343C5.03917 35.042 8.64362 28.2171 13.5483 22.0703C17.355 17.3051 21.8082 13.2686 26.9403 9.98243C31.9353 6.7828 37.2697 4.29379 42.9581 2.58756C44.847 2.02122 46.772 1.53785 48.7079 1.15188C52.9588 0.30778 57.2711 -0.121483 61.6196 0.0300211C64.8882 0.141846 68.1423 0.473713 71.3494 1.13745C76.9042 2.28816 82.2242 4.10982 87.2914 6.6854C92.9508 9.56399 98.065 13.2037 102.554 17.6731C105.754 20.8583 108.387 24.5052 110.735 28.3578C113.36 32.6648 115.621 37.1414 117.156 41.9607C118.092 44.9006 118.839 47.8946 119.298 50.9428C119.926 55.1272 120.161 59.3332 119.887 63.5718C119.428 70.6672 117.694 77.4308 114.866 83.9455C112.176 90.15 108.488 95.7016 104.01 100.737C101.38 103.695 98.3756 106.238 95.1431 108.533C92.1491 110.657 88.9852 112.475 85.6697 114.023C81.0287 116.191 76.1963 117.796 71.1616 118.81C68.359 119.372 65.5383 119.686 62.685 119.784C61.8327 119.812 60.9767 119.787 60.1208 119.787L60.1135 119.996V120ZM89.5703 39.8252C89.5125 37.2388 87.9306 35.3739 85.2038 36.4524C82.4625 37.5346 79.696 38.5555 76.9439 39.616C69.6664 42.4188 62.3925 45.2289 55.1186 48.0317C51.4997 49.4241 47.8808 50.8057 44.2619 52.2017C40.3649 53.7059 36.4715 55.2138 32.5782 56.7252C30.4978 57.5332 28.4139 58.3232 26.3552 59.1817C25.8027 59.4126 25.279 59.7877 24.8492 60.2062C24.0257 61.0034 24.1305 62.082 25.0587 62.7421C25.3657 62.9621 25.7449 63.1064 26.1097 63.2182C27.641 63.6908 29.1796 64.1273 30.7145 64.5926C34.1962 65.6459 37.6706 66.7137 41.1559 67.7526C41.3906 67.8211 41.7337 67.7706 41.9432 67.6407C43.843 66.4684 45.721 65.2636 47.6135 64.0768C53.1972 60.5705 58.7844 57.0715 64.3645 53.5652C68.3337 51.069 72.2993 48.5656 76.2721 46.0694C76.5105 45.9215 76.7742 45.7736 77.045 45.7267C77.3809 45.6654 77.8143 45.5319 78.0382 45.9071C78.2802 46.3111 77.8938 46.5527 77.6662 46.8161C77.6374 46.8485 77.6012 46.8774 77.5651 46.9063C75.2211 49.0526 72.8808 51.2061 70.5332 53.3452C67.0985 56.4763 63.6494 59.593 60.2147 62.7241C57.1664 65.5016 54.1507 68.3153 51.0771 71.0604C50.2753 71.7747 49.6216 72.4672 49.7878 73.6216C49.795 73.6793 49.7733 73.7406 49.7661 73.7983C49.5747 76.0673 49.376 78.3326 49.1918 80.6016C49.0185 82.7659 48.8596 84.9303 48.6862 87.0946C48.6501 87.5275 48.762 87.6249 49.1954 87.5239C50.5318 87.2101 51.5647 86.4129 52.5254 85.4858C54.6057 83.4766 56.6933 81.4709 58.7772 79.4617C58.9361 79.3102 59.0445 79.1695 59.2973 79.3607C61.4065 80.9443 63.5266 82.5134 65.643 84.0862C68.0159 85.8465 70.396 87.5924 72.758 89.3636C73.614 90.0057 74.488 90.5973 75.5462 90.8678C77.0378 91.2502 78.0635 90.8498 78.7822 89.4935C79.0856 88.9199 79.2879 88.2778 79.4324 87.643C79.956 85.3379 80.4364 83.0257 80.9276 80.7134C82.0075 75.62 83.0837 70.5265 84.1673 65.4367C85.034 61.3677 85.9153 57.306 86.7821 53.237C87.555 49.6081 88.3207 45.9792 89.0827 42.3467C89.2886 41.3547 89.462 40.3555 89.5631 39.8216L89.5703 39.8252Z" fill="white"/>
</svg>
