<svg width="32" height="32" viewBox="0 0 32 32" fill="none" xmlns="http://www.w3.org/2000/svg">
<path d="M24.3332 28C24.3332 28.5523 24.7809 29 25.3332 29C25.8855 29 26.3332 28.5523 26.3332 28H24.3332ZM5.6665 28C5.6665 28.5523 6.11422 29 6.6665 29C7.21879 29 7.6665 28.5523 7.6665 28H5.6665ZM26.3332 28C26.3332 22.2931 21.7068 17.6667 15.9998 17.6667V19.6667C20.6022 19.6667 24.3332 23.3976 24.3332 28H26.3332ZM15.9998 17.6667C10.2929 17.6667 5.6665 22.2931 5.6665 28H7.6665C7.6665 23.3976 11.3975 19.6667 15.9998 19.6667V17.6667ZM15.9998 13.6667C13.6066 13.6667 11.6665 11.7266 11.6665 9.33333H9.6665C9.6665 12.8311 12.502 15.6667 15.9998 15.6667V13.6667ZM11.6665 9.33333C11.6665 6.9401 13.6066 5 15.9998 5V3C12.502 3 9.6665 5.83553 9.6665 9.33333H11.6665ZM15.9998 5C18.3931 5 20.3332 6.9401 20.3332 9.33333H22.3332C22.3332 5.83553 19.4976 3 15.9998 3V5ZM20.3332 9.33333C20.3332 11.7266 18.3931 13.6667 15.9998 13.6667V15.6667C19.4976 15.6667 22.3332 12.8311 22.3332 9.33333H20.3332Z" fill="#E64545"/>
</svg>
