<svg width="32" height="32" viewBox="0 0 32 32" fill="none" xmlns="http://www.w3.org/2000/svg">
<path d="M2.6665 25.6673C2.11422 25.6673 1.6665 26.115 1.6665 26.6673C1.6665 27.2196 2.11422 27.6673 2.6665 27.6673V25.6673ZM29.3332 27.6673C29.8855 27.6673 30.3332 27.2196 30.3332 26.6673C30.3332 26.115 29.8855 25.6673 29.3332 25.6673V27.6673ZM26.6665 26.6673V27.6673C27.2188 27.6673 27.6665 27.2196 27.6665 26.6673H26.6665ZM25.2514 15.9841L24.5831 16.728L25.2514 15.9841ZM22.1847 13.229L22.853 12.4851V12.4851L22.1847 13.229ZM16.4817 13.229L15.8134 12.4851L15.8134 12.4851L16.4817 13.229ZM15.3315 12.9181C14.9207 13.2871 14.8869 13.9194 15.256 14.3302C15.625 14.7411 16.2573 14.7749 16.6681 14.4058L15.3315 12.9181ZM20.1027 11.6989L20.3913 10.7414L20.1027 11.6989ZM18.5634 11.6989L18.852 12.6563L18.5634 11.6989ZM26.5825 17.7806L27.551 17.5316L26.5825 17.7806ZM26.2197 16.9673L27.0522 16.4132L26.2197 16.9673ZM5.33317 26.6673H4.33317C4.33317 27.2196 4.78089 27.6673 5.33317 27.6673V26.6673ZM5.62382 6.79004L6.51483 7.24403L5.62382 6.79004ZM6.7889 5.62463L7.24289 6.51564L6.7889 5.62463ZM15.7095 6.79004L14.8185 7.24403L15.7095 6.79004ZM14.5436 5.62463L14.9975 4.73363V4.73363L14.5436 5.62463ZM2.6665 27.6673H29.3332V25.6673H2.6665V27.6673ZM15.9998 27.6673H26.6665V25.6673H15.9998V27.6673ZM27.6665 26.6673V19.158H25.6665V26.6673H27.6665ZM25.9197 15.2402L22.853 12.4851L21.5164 13.9729L24.5831 16.728L25.9197 15.2402ZM15.8134 12.4851L15.3315 12.9181L16.6681 14.4058L17.15 13.9729L15.8134 12.4851ZM22.853 12.4851C22.3606 12.0427 21.9492 11.6722 21.5878 11.3952C21.2167 11.1106 20.8382 10.8762 20.3913 10.7414L19.8141 12.6563C19.937 12.6934 20.0956 12.7712 20.3709 12.9824C20.6561 13.201 21.0009 13.5097 21.5164 13.9729L22.853 12.4851ZM17.15 13.9729C17.6656 13.5097 18.0103 13.201 18.2955 12.9823C18.5708 12.7712 18.7292 12.6934 18.852 12.6563L18.2748 10.7414C17.8278 10.8762 17.4494 11.1107 17.0784 11.3952C16.7171 11.6723 16.3058 12.0427 15.8134 12.4851L17.15 13.9729ZM20.3913 10.7414C19.7012 10.5334 18.965 10.5334 18.2748 10.7414L18.852 12.6563C19.1657 12.5618 19.5004 12.5618 19.8141 12.6563L20.3913 10.7414ZM27.6665 19.158C27.6665 18.509 27.6739 18.0094 27.551 17.5316L25.614 18.0296C25.6592 18.2052 25.6665 18.4061 25.6665 19.158H27.6665ZM24.5831 16.728C25.1419 17.23 25.2867 17.3702 25.3872 17.5213L27.0522 16.4132C26.7789 16.0026 26.4031 15.6745 25.9197 15.2402L24.5831 16.728ZM27.551 17.5316C27.4486 17.1331 27.2797 16.7551 27.0522 16.4132L25.3872 17.5213C25.4909 17.6772 25.5676 17.849 25.614 18.0296L27.551 17.5316ZM14.9998 9.60059V26.6673H16.9998V9.60059H14.9998ZM15.9998 25.6673H5.33317V27.6673H15.9998V25.6673ZM6.33317 26.6673V9.60059H4.33317V26.6673H6.33317ZM9.6001 6.33398H11.7334V4.33398H9.6001V6.33398ZM6.33317 9.60059C6.33317 8.83735 6.33395 8.32509 6.36618 7.93061C6.39746 7.54781 6.4533 7.36479 6.51483 7.24403L4.73281 6.33605C4.50369 6.78572 4.41421 7.26123 4.37282 7.76774C4.33239 8.26255 4.33317 8.87035 4.33317 9.60059H6.33317ZM9.6001 4.33398C8.86985 4.33398 8.26191 4.33321 7.76695 4.37363C7.26038 4.41501 6.78465 4.50447 6.33491 4.73363L7.24289 6.51564C7.36358 6.45415 7.54671 6.39828 7.92976 6.367C8.32443 6.33476 8.83687 6.33398 9.6001 6.33398V4.33398ZM6.51483 7.24403C6.67475 6.93017 6.92955 6.6753 7.24289 6.51564L6.33491 4.73363C5.64472 5.08529 5.08422 5.64638 4.73281 6.33605L6.51483 7.24403ZM16.9998 9.60059C16.9998 8.87045 17.0007 8.26265 16.9603 7.76789C16.919 7.26144 16.8297 6.78583 16.6005 6.33605L14.8185 7.24403C14.8799 7.36467 14.9357 7.5476 14.967 7.93045C14.9991 8.32499 14.9998 8.83725 14.9998 9.60059H16.9998ZM11.7334 6.33398C12.4967 6.33398 13.0088 6.33476 13.4032 6.36699C13.7858 6.39826 13.9688 6.45409 14.0896 6.51564L14.9975 4.73363C14.5479 4.50453 14.0725 4.41503 13.5661 4.37364C13.0714 4.33321 12.4637 4.33398 11.7334 4.33398V6.33398ZM16.6005 6.33605C16.2487 5.64571 15.6871 5.08495 14.9975 4.73363L14.0896 6.51564C14.4036 6.67564 14.6589 6.93084 14.8185 7.24403L16.6005 6.33605Z" fill="#E64545"/>
</svg>
