<svg width="32" height="32" viewBox="0 0 32 32" fill="none" xmlns="http://www.w3.org/2000/svg">
<path d="M6.78923 26.3753L7.24322 25.4843L6.78923 26.3753ZM5.62415 25.2101L4.73314 25.664H4.73314L5.62415 25.2101ZM26.3765 25.2101L25.4855 24.7561L26.3765 25.2101ZM25.2105 26.3753L24.7566 25.4843L25.2105 26.3753ZM25.2105 5.62333L25.6645 4.73233H25.6645L25.2105 5.62333ZM26.3765 6.78874L25.4855 7.24273L26.3765 6.78874ZM6.78923 5.62333L7.24322 6.51434L6.78923 5.62333ZM5.62415 6.78874L6.51515 7.24273L5.62415 6.78874ZM21.3335 21.3327V20.3327C20.7812 20.3327 20.3335 20.7804 20.3335 21.3327H21.3335ZM21.3362 21.3327L22.3359 21.356C22.3422 21.0868 22.2396 20.8265 22.0515 20.6339C21.8633 20.4413 21.6054 20.3327 21.3362 20.3327V21.3327ZM21.3361 21.3354L21.3122 22.3351C21.5774 22.3414 21.8343 22.2421 22.0263 22.059C22.2183 21.8759 22.3296 21.624 22.3358 21.3587L21.3361 21.3354ZM21.3335 21.3353H20.3335C20.3335 21.8783 20.7668 22.322 21.3096 22.335L21.3335 21.3353ZM16.0002 21.3327V20.3327C15.4479 20.3327 15.0002 20.7804 15.0002 21.3327H16.0002ZM16.0028 21.3327L17.0026 21.356C17.0088 21.0868 16.9063 20.8265 16.7181 20.6339C16.53 20.4413 16.2721 20.3327 16.0028 20.3327V21.3327ZM16.0028 21.3354L15.9788 22.3351C16.2441 22.3414 16.501 22.2421 16.693 22.059C16.8849 21.8759 16.9963 21.624 17.0025 21.3587L16.0028 21.3354ZM16.0002 21.3353H15.0002C15.0002 21.8783 15.4334 22.322 15.9762 22.335L16.0002 21.3353ZM10.6668 21.3327V20.3327C10.1145 20.3327 9.66683 20.7804 9.66683 21.3327H10.6668ZM10.6695 21.3327L11.6692 21.356C11.6755 21.0868 11.573 20.8265 11.3848 20.6339C11.1967 20.4413 10.9388 20.3327 10.6695 20.3327V21.3327ZM10.6694 21.3354L10.6455 22.3351C10.9108 22.3414 11.1676 22.2421 11.3596 22.059C11.5516 21.8759 11.663 21.624 11.6692 21.3587L10.6694 21.3354ZM10.6668 21.3353H9.66683C9.66683 21.8783 10.1001 22.322 10.6429 22.335L10.6668 21.3353ZM21.3361 15.9993H22.3361C22.3361 15.4471 21.8884 14.9993 21.3361 14.9993V15.9993ZM21.3361 16.002L21.3122 17.0017C21.5815 17.0082 21.842 16.9057 22.0347 16.7175C22.2274 16.5294 22.3361 16.2714 22.3361 16.002H21.3361ZM21.3335 16.002H20.3335C20.3335 16.5449 20.7668 16.9887 21.3096 17.0017L21.3335 16.002ZM21.3335 15.9993V14.9993C20.7812 14.9993 20.3335 15.4471 20.3335 15.9993H21.3335ZM16.0002 15.9993V14.9993C15.4479 14.9993 15.0002 15.4471 15.0002 15.9993H16.0002ZM16.0028 15.9993L17.0026 16.0227C17.0088 15.7535 16.9063 15.4932 16.7181 15.3006C16.53 15.1079 16.2721 14.9993 16.0028 14.9993V15.9993ZM16.0028 16.002L15.9788 17.0017C16.2441 17.0081 16.501 16.9088 16.693 16.7256C16.8849 16.5425 16.9963 16.2906 17.0025 16.0254L16.0028 16.002ZM16.0002 16.002H15.0002C15.0002 16.5449 15.4334 16.9887 15.9762 17.0017L16.0002 16.002ZM10.6668 15.9993V14.9993C10.1145 14.9993 9.66683 15.4471 9.66683 15.9993H10.6668ZM10.6695 15.9993L11.6692 16.0227C11.6755 15.7535 11.573 15.4932 11.3848 15.3006C11.1967 15.1079 10.9388 14.9993 10.6695 14.9993V15.9993ZM10.6694 16.002L10.6455 17.0017C10.9108 17.0081 11.1676 16.9088 11.3596 16.7256C11.5516 16.5425 11.663 16.2906 11.6692 16.0254L10.6694 16.002ZM10.6668 16.002H9.66683C9.66683 16.5449 10.1001 16.9887 10.6429 17.0017L10.6668 16.002ZM5.3335 9.66602C4.78121 9.66602 4.3335 10.1137 4.3335 10.666C4.3335 11.2183 4.78121 11.666 5.3335 11.666V9.66602ZM26.6668 11.666C27.2191 11.666 27.6668 11.2183 27.6668 10.666C27.6668 10.1137 27.2191 9.66602 26.6668 9.66602V11.666ZM22.3335 2.66602C22.3335 2.11373 21.8858 1.66602 21.3335 1.66602C20.7812 1.66602 20.3335 2.11373 20.3335 2.66602H22.3335ZM20.3335 5.33268C20.3335 5.88497 20.7812 6.33268 21.3335 6.33268C21.8858 6.33268 22.3335 5.88497 22.3335 5.33268H20.3335ZM11.6668 2.66602C11.6668 2.11373 11.2191 1.66602 10.6668 1.66602C10.1145 1.66602 9.66683 2.11373 9.66683 2.66602H11.6668ZM9.66683 5.33268C9.66683 5.88497 10.1145 6.33268 10.6668 6.33268C11.2191 6.33268 11.6668 5.88497 11.6668 5.33268H9.66683ZM9.60042 6.33268H22.4004V4.33268H9.60042V6.33268ZM25.6668 9.59928V22.3993H27.6668V9.59928H25.6668ZM22.4004 25.666H9.60042V27.666H22.4004V25.666ZM6.3335 22.3993V9.59928H4.3335V22.3993H6.3335ZM9.60042 25.666C8.83721 25.666 8.32476 25.6652 7.93011 25.633C7.54707 25.6017 7.36392 25.5458 7.24322 25.4843L6.33523 27.2663C6.78496 27.4955 7.26068 27.585 7.76725 27.6263C8.26223 27.6668 8.87016 27.666 9.60042 27.666V25.666ZM4.3335 22.3993C4.3335 23.1295 4.33272 23.7374 4.37315 24.2322C4.41453 24.7388 4.50401 25.2143 4.73314 25.664L6.51515 24.7561C6.45363 24.6353 6.39779 24.4523 6.36651 24.0694C6.33427 23.6748 6.3335 23.1625 6.3335 22.3993H4.3335ZM7.24322 25.4843C6.92976 25.3246 6.67502 25.0698 6.51515 24.7561L4.73314 25.664C5.0846 26.3538 5.64516 26.9147 6.33523 27.2663L7.24322 25.4843ZM25.6668 22.3993C25.6668 23.1626 25.6661 23.6749 25.6339 24.0695C25.6027 24.4525 25.5469 24.6354 25.4855 24.7561L27.2675 25.664C27.4967 25.2142 27.586 24.7386 27.6273 24.2321C27.6677 23.7373 27.6668 23.1294 27.6668 22.3993H25.6668ZM22.4004 27.666C23.1307 27.666 23.7384 27.6668 24.2331 27.6263C24.7396 27.5849 25.2149 27.4954 25.6645 27.2663L24.7566 25.4843C24.6357 25.5459 24.4528 25.6017 24.0701 25.633C23.6758 25.6652 23.1637 25.666 22.4004 25.666V27.666ZM25.4855 24.7561C25.3259 25.0692 25.0707 25.3243 24.7566 25.4843L25.6645 27.2663C26.3539 26.9151 26.9157 26.3545 27.2675 25.664L25.4855 24.7561ZM22.4004 6.33268C23.1637 6.33268 23.6758 6.33346 24.0702 6.36569C24.4528 6.39696 24.6357 6.45279 24.7566 6.51434L25.6645 4.73233C25.2149 4.50323 24.7395 4.41373 24.2331 4.37234C23.7384 4.3319 23.1306 4.33268 22.4004 4.33268V6.33268ZM27.6668 9.59928C27.6668 8.86915 27.6677 8.26134 27.6273 7.76659C27.586 7.26014 27.4966 6.78453 27.2675 6.33475L25.4855 7.24273C25.5469 7.36337 25.6027 7.5463 25.6339 7.92915C25.6661 8.32369 25.6668 8.83594 25.6668 9.59928H27.6668ZM24.7566 6.51434C25.0706 6.67434 25.3259 6.92953 25.4855 7.24273L27.2675 6.33475C26.9157 5.64441 26.354 5.08365 25.6645 4.73233L24.7566 6.51434ZM9.60042 4.33268C8.87018 4.33268 8.26224 4.33191 7.76728 4.37233C7.26071 4.41371 6.78498 4.50317 6.33523 4.73233L7.24322 6.51434C7.3639 6.45284 7.54704 6.39698 7.93009 6.36569C8.32475 6.33346 8.83719 6.33268 9.60042 6.33268V4.33268ZM6.3335 9.59928C6.3335 8.83604 6.33427 8.32378 6.36651 7.92931C6.39778 7.54651 6.45362 7.36349 6.51515 7.24273L4.73314 6.33475C4.50402 6.78442 4.41453 7.25993 4.37315 7.76643C4.33272 8.26125 4.3335 8.86905 4.3335 9.59928H6.3335ZM6.33523 4.73233C5.64505 5.08399 5.08454 5.64508 4.73314 6.33475L6.51515 7.24273C6.67507 6.92887 6.92987 6.674 7.24322 6.51434L6.33523 4.73233ZM21.3335 22.3327H21.3362V20.3327H21.3335V22.3327ZM20.3364 21.3093L20.3364 21.312L22.3358 21.3587L22.3359 21.356L20.3364 21.3093ZM21.36 20.3356L21.3574 20.3356L21.3096 22.335L21.3122 22.3351L21.36 20.3356ZM22.3335 21.3353V21.3327H20.3335V21.3353H22.3335ZM16.0002 22.3327H16.0028V20.3327H16.0002V22.3327ZM15.0031 21.3093L15.003 21.312L17.0025 21.3587L17.0026 21.356L15.0031 21.3093ZM16.0267 20.3356L16.0241 20.3356L15.9762 22.335L15.9788 22.3351L16.0267 20.3356ZM17.0002 21.3353V21.3327H15.0002V21.3353H17.0002ZM10.6668 22.3327H10.6695V20.3327H10.6668V22.3327ZM9.66977 21.3093L9.66971 21.312L11.6692 21.3587L11.6692 21.356L9.66977 21.3093ZM10.6934 20.3356L10.6907 20.3356L10.6429 22.335L10.6455 22.3351L10.6934 20.3356ZM11.6668 21.3353V21.3327H9.66683V21.3353H11.6668ZM20.3361 15.9993V16.002H22.3361V15.9993H20.3361ZM21.36 15.0023L21.3574 15.0022L21.3096 17.0017L21.3122 17.0017L21.36 15.0023ZM22.3335 16.002V15.9993H20.3335V16.002H22.3335ZM21.3335 16.9993H21.3361V14.9993H21.3335V16.9993ZM16.0002 16.9993H16.0028V14.9993H16.0002V16.9993ZM15.0031 15.976L15.003 15.9787L17.0025 16.0254L17.0026 16.0227L15.0031 15.976ZM16.0267 15.0023L16.0241 15.0022L15.9762 17.0017L15.9788 17.0017L16.0267 15.0023ZM17.0002 16.002V15.9993H15.0002V16.002H17.0002ZM10.6668 16.9993H10.6695V14.9993H10.6668V16.9993ZM9.66977 15.976L9.66971 15.9787L11.6692 16.0254L11.6692 16.0227L9.66977 15.976ZM10.6934 15.0023L10.6907 15.0022L10.6429 17.0017L10.6455 17.0017L10.6934 15.0023ZM11.6668 16.002V15.9993H9.66683V16.002H11.6668ZM5.3335 11.666H26.6668V9.66602H5.3335V11.666ZM20.3335 2.66602V5.33268H22.3335V2.66602H20.3335ZM9.66683 2.66602V5.33268H11.6668V2.66602H9.66683Z" fill="#E64545"/>
</svg>
