<svg width="32" height="32" viewBox="0 0 32 32" fill="none" xmlns="http://www.w3.org/2000/svg">
<path d="M4 7.00065C3.44772 7.00065 3 7.44837 3 8.00065C3 8.55294 3.44772 9.00065 4 9.00065L4 7.00065ZM28 9.00065C28.5523 9.00065 29 8.55294 29 8.00065C29 7.44837 28.5523 7.00065 28 7.00065V9.00065ZM28 9.60067H29H28ZM28 22.4007H27H28ZM23.7336 26.6673V25.6673V26.6673ZM8.26693 26.6673V27.6673V26.6673ZM27.7096 25.2113L26.8186 24.7573L27.7096 25.2113ZM26.5437 26.3767L26.9977 27.2677L26.5437 26.3767ZM26.5437 5.62463L26.9977 4.73363V4.73363L26.5437 5.62463ZM27.7096 6.79004L28.6006 6.33605L27.7096 6.79004ZM4.29065 6.79004L3.39964 6.33605L3.39964 6.33605L4.29065 6.79004ZM5.45573 5.62463L5.90972 6.51564L5.90972 6.51564L5.45573 5.62463ZM4.29065 25.2113L5.18166 24.7573H5.18166L4.29065 25.2113ZM5.45573 26.3767L5.00174 27.2677L5.45573 26.3767ZM20.7071 15.3744C21.0976 14.9839 21.0976 14.3507 20.7071 13.9602C20.3166 13.5697 19.6834 13.5697 19.2929 13.9602L20.7071 15.3744ZM14.6667 20.0007L13.9596 20.7078C14.3501 21.0983 14.9832 21.0983 15.3738 20.7078L14.6667 20.0007ZM12.7071 16.6269C12.3166 16.2364 11.6834 16.2364 11.2929 16.6269C10.9024 17.0174 10.9024 17.6506 11.2929 18.0411L12.7071 16.6269ZM4 9.00065L28 9.00065V7.00065L4 7.00065L4 9.00065ZM5 22.4007V9.60067H3V22.4007H5ZM8.26693 6.33398H23.7336V4.33398H8.26693V6.33398ZM27 9.60067V22.4007H29V9.60067H27ZM23.7336 25.6673L8.26693 25.6673V27.6673L23.7336 27.6673V25.6673ZM27 22.4007C27 23.164 26.9993 23.6763 26.9671 24.0708C26.9359 24.4537 26.8801 24.6367 26.8186 24.7573L28.6006 25.6653C28.8298 25.2155 28.9192 24.7398 28.9605 24.2334C29.0008 23.7386 29 23.1308 29 22.4007H27ZM23.7336 27.6673C24.4638 27.6673 25.0715 27.6681 25.5662 27.6277C26.0727 27.5863 26.5481 27.4968 26.9977 27.2677L26.0897 25.4857C25.9689 25.5472 25.786 25.6031 25.4034 25.6343C25.009 25.6665 24.4969 25.6673 23.7336 25.6673V27.6673ZM26.8186 24.7573C26.659 25.0705 26.4037 25.3257 26.0897 25.4857L26.9977 27.2677C27.6872 26.9164 28.2489 26.3556 28.6006 25.6653L26.8186 24.7573ZM23.7336 6.33398C24.4968 6.33398 25.009 6.33476 25.4033 6.36699C25.786 6.39826 25.9689 6.45409 26.0897 6.51564L26.9977 4.73363C26.5481 4.50453 26.0727 4.41503 25.5662 4.37364C25.0715 4.33321 24.4638 4.33398 23.7336 4.33398V6.33398ZM29 9.60067C29 8.87053 29.0008 8.26271 28.9605 7.76794C28.9192 7.26148 28.8298 6.78584 28.6006 6.33605L26.8186 7.24403C26.8801 7.36467 26.9359 7.54761 26.9671 7.93049C26.9993 8.32505 27 8.83733 27 9.60067H29ZM26.0897 6.51564C26.4037 6.67564 26.659 6.93084 26.8186 7.24403L28.6006 6.33605C28.2489 5.64571 27.6872 5.08495 26.9977 4.73363L26.0897 6.51564ZM5 9.60067C5 8.83743 5.00078 8.32515 5.03301 7.93065C5.06429 7.54782 5.12013 7.36478 5.18166 7.24403L3.39964 6.33605C3.17052 6.78573 3.08104 7.26127 3.03965 7.76778C2.99922 8.26262 3 8.87043 3 9.60067H5ZM8.26693 4.33398C7.53668 4.33398 6.92874 4.33321 6.43378 4.37363C5.92721 4.41501 5.45148 4.50447 5.00174 4.73363L5.90972 6.51564C6.03041 6.45415 6.21354 6.39828 6.59659 6.367C6.99126 6.33476 7.5037 6.33398 8.26693 6.33398V4.33398ZM5.18166 7.24403C5.34158 6.93017 5.59637 6.6753 5.90972 6.51564L5.00174 4.73363C4.31155 5.08529 3.75105 5.64638 3.39964 6.33605L5.18166 7.24403ZM3 22.4007C3 23.1309 2.99922 23.7387 3.03965 24.2335C3.08104 24.7401 3.17052 25.2156 3.39964 25.6653L5.18166 24.7573C5.12013 24.6365 5.06429 24.4535 5.03301 24.0707C5.00078 23.6762 5 23.1639 5 22.4007H3ZM8.26693 25.6673C7.50369 25.6673 6.99124 25.6666 6.59657 25.6343C6.21351 25.603 6.03039 25.5472 5.90972 25.4857L5.00174 27.2677C5.4515 27.4969 5.92724 27.5863 6.4338 27.6277C6.92875 27.6681 7.5367 27.6673 8.26693 27.6673V25.6673ZM3.39964 25.6653C3.75104 26.3549 4.31153 26.916 5.00174 27.2677L5.90972 25.4857C5.5964 25.3261 5.34159 25.0712 5.18166 24.7573L3.39964 25.6653ZM19.2929 13.9602L13.9596 19.2935L15.3738 20.7078L20.7071 15.3744L19.2929 13.9602ZM15.3738 19.2935L12.7071 16.6269L11.2929 18.0411L13.9596 20.7078L15.3738 19.2935Z" fill="#E64545"/>
</svg>
