<svg width="24" height="24" viewBox="0 0 24 24" fill="none" xmlns="http://www.w3.org/2000/svg">
<path d="M6.64645 16.6464C6.45118 16.8417 6.45118 17.1583 6.64645 17.3536C6.84171 17.5488 7.15829 17.5488 7.35355 17.3536L6.64645 16.6464ZM17 7H17.5C17.5 6.72386 17.2761 6.5 17 6.5V7ZM9 6.5C8.72386 6.5 8.5 6.72386 8.5 7C8.5 7.27614 8.72386 7.5 9 7.5V6.5ZM16.5 15C16.5 15.2761 16.7239 15.5 17 15.5C17.2761 15.5 17.5 15.2761 17.5 15H16.5ZM7.35355 17.3536L17.3536 7.35355L16.6464 6.64645L6.64645 16.6464L7.35355 17.3536ZM9 7.5H17V6.5H9V7.5ZM16.5 7V15H17.5V7H16.5Z" fill="#151515"/>
</svg>
