<svg width="400" height="51" viewBox="0 0 400 51" fill="none" xmlns="http://www.w3.org/2000/svg">
<path d="M95.4043 48.4028V39.0087H99.3823V40.2728H97.1091V48.4028H95.4043Z" fill="white"/>
<path d="M100.342 48.4028V39.0087H101.746V44.9351L104.32 39.0087H105.469V48.4028H104.054V42.3836L101.467 48.4028H100.342Z" fill="white"/>
<path d="M106.377 50.27V47.185H106.714C106.868 47.1 107.015 46.9878 107.154 46.8487C107.301 46.7018 107.433 46.5085 107.549 46.2688C107.665 46.0291 107.769 45.7237 107.862 45.3526C107.962 44.9737 108.047 44.5137 108.117 43.9725C108.194 43.4312 108.252 42.7895 108.291 42.0473L108.5 39.0087H112.652V47.185H113.637V50.27H112.443L112.338 48.4028H107.711L107.595 50.27H106.377ZM108.314 47.185H111.028V40.238H109.845L109.741 42.314C109.71 43.0562 109.659 43.6864 109.59 44.2044C109.52 44.7147 109.439 45.14 109.346 45.4802C109.254 45.8126 109.149 46.0832 109.033 46.292C108.925 46.5007 108.809 46.6708 108.685 46.8023C108.562 46.9337 108.438 47.0613 108.314 47.185Z" fill="white"/>
<path d="M114.578 48.4028V39.0087H117.339C117.903 39.0087 118.359 39.1131 118.707 39.3218C119.063 39.5306 119.322 39.836 119.484 40.238C119.654 40.6323 119.739 41.1117 119.739 41.6761C119.739 42.2869 119.635 42.7818 119.426 43.1606C119.217 43.5318 118.924 43.8024 118.545 43.9725C118.174 44.1426 117.733 44.2276 117.223 44.2276H116.295V48.4028H114.578ZM116.295 43.0215H116.944C117.254 43.0215 117.493 42.9789 117.663 42.8939C117.841 42.8011 117.961 42.6581 118.023 42.4648C118.092 42.2637 118.127 41.997 118.127 41.6645C118.127 41.3243 118.1 41.0499 118.046 40.8411C118 40.6246 117.891 40.4661 117.721 40.3656C117.559 40.2651 117.3 40.2148 116.944 40.2148H116.295V43.0215Z" fill="white"/>
<path d="M120.049 48.4028L121.928 39.0087H123.76L125.639 48.4028H124.05L123.679 46.234H122.044L121.661 48.4028H120.049ZM122.218 45.1438H123.493L122.856 41.2006L122.218 45.1438Z" fill="white"/>
<path d="M126.584 48.4028V39.0087H128.892C129.309 39.0087 129.684 39.0473 130.017 39.1247C130.357 39.202 130.647 39.3334 130.886 39.519C131.134 39.6968 131.323 39.9404 131.455 40.2496C131.586 40.5589 131.652 40.9493 131.652 41.421C131.652 41.7998 131.598 42.1246 131.49 42.3952C131.389 42.6658 131.238 42.8823 131.037 43.0447C130.836 43.1993 130.585 43.3037 130.283 43.3578C130.654 43.4196 130.96 43.5511 131.2 43.7521C131.447 43.9454 131.629 44.2005 131.745 44.5176C131.868 44.8346 131.93 45.2173 131.93 45.6657C131.93 46.1142 131.872 46.5123 131.756 46.8603C131.648 47.2005 131.482 47.4865 131.258 47.7185C131.041 47.9427 130.767 48.1128 130.434 48.2288C130.109 48.3448 129.727 48.4028 129.286 48.4028H126.584ZM128.3 47.1966H128.95C129.468 47.1966 129.819 47.0729 130.005 46.8255C130.191 46.5703 130.283 46.1799 130.283 45.6541C130.283 45.2753 130.237 44.9699 130.144 44.7379C130.059 44.4982 129.912 44.3204 129.703 44.2044C129.502 44.0884 129.232 44.0305 128.892 44.0305H128.3V47.1966ZM128.3 42.8475H128.88C129.22 42.8475 129.483 42.7972 129.669 42.6967C129.854 42.5962 129.982 42.4416 130.051 42.2328C130.129 42.0241 130.167 41.7612 130.167 41.4442C130.167 41.1117 130.109 40.8566 129.993 40.6787C129.885 40.4932 129.719 40.3695 129.495 40.3076C129.271 40.238 128.984 40.2032 128.636 40.2032H128.3V42.8475Z" fill="white"/>
<path d="M132.39 48.4028V47.1734C132.606 47.1811 132.788 47.1695 132.935 47.1386C133.09 47.1 133.217 47.0188 133.318 46.8951C133.426 46.7714 133.515 46.5819 133.585 46.3268C133.654 46.0639 133.712 45.7121 133.758 45.2714C133.805 44.8307 133.855 44.2701 133.909 43.5897L134.211 39.0087H138.78V48.4028H137.075V40.296H135.73L135.521 43.7985C135.475 44.4866 135.421 45.0936 135.359 45.6193C135.305 46.1451 135.216 46.5935 135.092 46.9647C134.976 47.328 134.81 47.6219 134.594 47.8461C134.377 48.0703 134.091 48.2288 133.735 48.3216C133.38 48.4066 132.931 48.4337 132.39 48.4028Z" fill="white"/>
<path d="M140.255 48.4028V39.0087H141.658V44.9351L144.233 39.0087H145.381V48.4028H143.966V42.3836L141.379 48.4028H140.255Z" fill="white"/>
<path d="M150.407 48.4028V44.3088C149.958 44.3938 149.541 44.4364 149.154 44.4364C148.659 44.4364 148.222 44.3552 147.844 44.1928C147.472 44.0227 147.179 43.7714 146.962 43.439C146.753 43.1065 146.649 42.6967 146.649 42.2096V39.0087H148.365V42.2096C148.365 42.4493 148.396 42.6581 148.458 42.8359C148.52 43.006 148.64 43.1374 148.818 43.2302C148.996 43.3153 149.247 43.3578 149.572 43.3578C149.695 43.3578 149.827 43.3539 149.966 43.3462C150.105 43.3307 150.252 43.3075 150.407 43.2766V39.0087H152.111V48.4028H150.407Z" fill="white"/>
<path d="M153.55 48.4028V39.0087H157.494V40.2148H155.267V42.9171H157.018V44.1116H155.267V47.2198H157.517V48.4028H153.55Z" fill="white"/>
<path d="M161.039 48.5303C160.351 48.5303 159.81 48.395 159.416 48.1244C159.029 47.8538 158.759 47.4865 158.604 47.0226C158.449 46.551 158.372 46.0098 158.372 45.399V42.0473C158.372 41.4055 158.449 40.8488 158.604 40.3772C158.759 39.9056 159.029 39.5422 159.416 39.287C159.81 39.0319 160.351 38.9043 161.039 38.9043C161.689 38.9043 162.195 39.0164 162.559 39.2406C162.93 39.4571 163.193 39.7703 163.347 40.18C163.502 40.5898 163.579 41.0653 163.579 41.6065V42.3952H161.932V41.5834C161.932 41.3205 161.917 41.0808 161.886 40.8643C161.863 40.6478 161.789 40.4777 161.666 40.354C161.55 40.2226 161.345 40.1568 161.051 40.1568C160.757 40.1568 160.541 40.2264 160.402 40.3656C160.27 40.497 160.185 40.6787 160.146 40.9107C160.108 41.1349 160.088 41.3901 160.088 41.6761V45.7585C160.088 46.0987 160.116 46.3809 160.17 46.6051C160.224 46.8216 160.32 46.9878 160.46 47.1038C160.606 47.2121 160.804 47.2662 161.051 47.2662C161.337 47.2662 161.538 47.2005 161.654 47.069C161.778 46.9299 161.855 46.7482 161.886 46.5239C161.917 46.2997 161.932 46.0484 161.932 45.7701V44.9235H163.579V45.6773C163.579 46.234 163.506 46.7288 163.359 47.1618C163.212 47.5871 162.953 47.9234 162.582 48.1708C162.219 48.4105 161.704 48.5303 161.039 48.5303Z" fill="white"/>
<path d="M164.798 48.4028V39.0087H166.502V42.9519H166.85L168.37 39.0087H170.074L168.288 43.439L170.214 48.4028H168.474L166.85 44.0768H166.502V48.4028H164.798Z" fill="white"/>
<path d="M173.6 48.5303C172.935 48.5303 172.406 48.4066 172.011 48.1592C171.617 47.9118 171.335 47.5561 171.165 47.0922C170.995 46.6283 170.91 46.0794 170.91 45.4454V41.9313C170.91 41.2973 170.995 40.7561 171.165 40.3076C171.335 39.8514 171.617 39.5035 172.011 39.2638C172.406 39.0241 172.935 38.9043 173.6 38.9043C174.281 38.9043 174.814 39.0241 175.201 39.2638C175.595 39.5035 175.877 39.8514 176.047 40.3076C176.225 40.7561 176.314 41.2973 176.314 41.9313V45.457C176.314 46.0832 176.225 46.6283 176.047 47.0922C175.877 47.5484 175.595 47.9041 175.201 48.1592C174.814 48.4066 174.281 48.5303 173.6 48.5303ZM173.6 47.2662C173.886 47.2662 174.095 47.2043 174.227 47.0806C174.366 46.9569 174.459 46.7868 174.505 46.5703C174.551 46.3538 174.575 46.118 174.575 45.8629V41.537C174.575 41.2741 174.551 41.0383 174.505 40.8295C174.459 40.6207 174.366 40.4584 174.227 40.3424C174.095 40.2187 173.886 40.1568 173.6 40.1568C173.33 40.1568 173.125 40.2187 172.986 40.3424C172.846 40.4584 172.754 40.6207 172.707 40.8295C172.661 41.0383 172.638 41.2741 172.638 41.537V45.8629C172.638 46.118 172.657 46.3538 172.696 46.5703C172.742 46.7868 172.835 46.9569 172.974 47.0806C173.113 47.2043 173.322 47.2662 173.6 47.2662Z" fill="white"/>
<path d="M177.584 48.4028V39.0087H181.527V40.2148H179.3V42.9171H181.052V44.1116H179.3V47.2198H181.55V48.4028H177.584Z" fill="white"/>
<path d="M187.916 48.5303C187.251 48.5303 186.722 48.4066 186.327 48.1592C185.933 47.9118 185.651 47.5561 185.481 47.0922C185.311 46.6283 185.226 46.0794 185.226 45.4454V41.9313C185.226 41.2973 185.311 40.7561 185.481 40.3076C185.651 39.8514 185.933 39.5035 186.327 39.2638C186.722 39.0241 187.251 38.9043 187.916 38.9043C188.597 38.9043 189.13 39.0241 189.517 39.2638C189.911 39.5035 190.193 39.8514 190.363 40.3076C190.541 40.7561 190.63 41.2973 190.63 41.9313V45.457C190.63 46.0832 190.541 46.6283 190.363 47.0922C190.193 47.5484 189.911 47.9041 189.517 48.1592C189.13 48.4066 188.597 48.5303 187.916 48.5303ZM187.916 47.2662C188.202 47.2662 188.411 47.2043 188.542 47.0806C188.682 46.9569 188.774 46.7868 188.821 46.5703C188.867 46.3538 188.89 46.118 188.89 45.8629V41.537C188.89 41.2741 188.867 41.0383 188.821 40.8295C188.774 40.6207 188.682 40.4584 188.542 40.3424C188.411 40.2187 188.202 40.1568 187.916 40.1568C187.646 40.1568 187.441 40.2187 187.301 40.3424C187.162 40.4584 187.07 40.6207 187.023 40.8295C186.977 41.0383 186.954 41.2741 186.954 41.537V45.8629C186.954 46.118 186.973 46.3538 187.012 46.5703C187.058 46.7868 187.151 46.9569 187.29 47.0806C187.429 47.2043 187.638 47.2662 187.916 47.2662Z" fill="white"/>
<path d="M191.923 48.4028V39.0087H196.284V40.2844H193.628V42.9519H193.999C194.633 42.9519 195.162 43.0408 195.588 43.2186C196.021 43.3887 196.345 43.6748 196.562 44.0768C196.778 44.4712 196.887 45.0047 196.887 45.6773C196.887 46.2031 196.821 46.6438 196.69 46.9994C196.558 47.3474 196.361 47.6257 196.098 47.8345C195.843 48.0432 195.534 48.1901 195.17 48.2752C194.807 48.3602 194.393 48.4028 193.929 48.4028H191.923ZM193.628 47.243H193.941C194.266 47.243 194.528 47.1966 194.729 47.1038C194.931 47.011 195.077 46.8487 195.17 46.6167C195.263 46.377 195.306 46.0523 195.298 45.6425C195.29 45.1554 195.19 44.7843 194.996 44.5291C194.811 44.274 194.451 44.1464 193.918 44.1464H193.628V47.243Z" fill="white"/>
<path d="M200.544 48.5303C199.88 48.5303 199.35 48.4066 198.956 48.1592C198.561 47.9118 198.279 47.5561 198.109 47.0922C197.939 46.6283 197.854 46.0794 197.854 45.4454V41.9313C197.854 41.2973 197.939 40.7561 198.109 40.3076C198.279 39.8514 198.561 39.5035 198.956 39.2638C199.35 39.0241 199.88 38.9043 200.544 38.9043C201.225 38.9043 201.758 39.0241 202.145 39.2638C202.539 39.5035 202.821 39.8514 202.992 40.3076C203.169 40.7561 203.258 41.2973 203.258 41.9313V45.457C203.258 46.0832 203.169 46.6283 202.992 47.0922C202.821 47.5484 202.539 47.9041 202.145 48.1592C201.758 48.4066 201.225 48.5303 200.544 48.5303ZM200.544 47.2662C200.831 47.2662 201.039 47.2043 201.171 47.0806C201.31 46.9569 201.403 46.7868 201.449 46.5703C201.495 46.3538 201.519 46.118 201.519 45.8629V41.537C201.519 41.2741 201.495 41.0383 201.449 40.8295C201.403 40.6207 201.31 40.4584 201.171 40.3424C201.039 40.2187 200.831 40.1568 200.544 40.1568C200.274 40.1568 200.069 40.2187 199.93 40.3424C199.791 40.4584 199.698 40.6207 199.651 40.8295C199.605 41.0383 199.582 41.2741 199.582 41.537V45.8629C199.582 46.118 199.601 46.3538 199.64 46.5703C199.686 46.7868 199.779 46.9569 199.918 47.0806C200.057 47.2043 200.266 47.2662 200.544 47.2662Z" fill="white"/>
<path d="M204.528 48.4028V39.0087H207.288C207.853 39.0087 208.309 39.1131 208.657 39.3218C209.012 39.5306 209.271 39.836 209.434 40.238C209.604 40.6323 209.689 41.1117 209.689 41.6761C209.689 42.2869 209.585 42.7818 209.376 43.1606C209.167 43.5318 208.873 43.8024 208.494 43.9725C208.123 44.1426 207.683 44.2276 207.172 44.2276H206.244V48.4028H204.528ZM206.244 43.0215H206.894C207.203 43.0215 207.443 42.9789 207.613 42.8939C207.791 42.8011 207.911 42.6581 207.972 42.4648C208.042 42.2637 208.077 41.997 208.077 41.6645C208.077 41.3243 208.05 41.0499 207.996 40.8411C207.949 40.6246 207.841 40.4661 207.671 40.3656C207.509 40.2651 207.25 40.2148 206.894 40.2148H206.244V43.0215Z" fill="white"/>
<path d="M210.551 50.0496V48.8551C210.915 48.8783 211.212 48.8705 211.444 48.8319C211.684 48.7932 211.866 48.7159 211.989 48.5999C212.113 48.4839 212.186 48.3293 212.21 48.136C212.233 47.935 212.217 47.6914 212.163 47.4054L210.18 39.0087H211.769L212.569 42.9403L212.998 45.6773L213.346 42.9403L214.042 39.0087H215.654L213.833 47.5793C213.748 47.9814 213.659 48.3254 213.567 48.6115C213.481 48.9053 213.369 49.1489 213.23 49.3422C213.099 49.5432 212.921 49.6978 212.697 49.8061C212.472 49.9143 212.186 49.9839 211.838 50.0148C211.491 50.0535 211.061 50.0651 210.551 50.0496Z" fill="white"/>
<path d="M215.422 50.27V47.185H215.759C215.913 47.1 216.06 46.9878 216.199 46.8487C216.346 46.7018 216.478 46.5085 216.594 46.2688C216.71 46.0291 216.814 45.7237 216.907 45.3526C217.007 44.9737 217.092 44.5137 217.162 43.9725C217.239 43.4312 217.297 42.7895 217.336 42.0473L217.545 39.0087H221.697V47.185H222.682V50.27H221.488L221.383 48.4028H216.756L216.64 50.27H215.422ZM217.359 47.185H220.073V40.238H218.89L218.786 42.314C218.755 43.0562 218.704 43.6864 218.635 44.2044C218.565 44.7147 218.484 45.14 218.391 45.4802C218.298 45.8126 218.194 46.0832 218.078 46.292C217.97 46.5007 217.854 46.6708 217.73 46.8023C217.606 46.9337 217.483 47.0613 217.359 47.185Z" fill="white"/>
<path d="M226.175 48.5303C225.51 48.5303 224.98 48.4066 224.586 48.1592C224.192 47.9118 223.909 47.5561 223.739 47.0922C223.569 46.6283 223.484 46.0794 223.484 45.4454V41.9313C223.484 41.2973 223.569 40.7561 223.739 40.3076C223.909 39.8514 224.192 39.5035 224.586 39.2638C224.98 39.0241 225.51 38.9043 226.175 38.9043C226.855 38.9043 227.389 39.0241 227.775 39.2638C228.17 39.5035 228.452 39.8514 228.622 40.3076C228.8 40.7561 228.889 41.2973 228.889 41.9313V45.457C228.889 46.0832 228.8 46.6283 228.622 47.0922C228.452 47.5484 228.17 47.9041 227.775 48.1592C227.389 48.4066 226.855 48.5303 226.175 48.5303ZM226.175 47.2662C226.461 47.2662 226.67 47.2043 226.801 47.0806C226.94 46.9569 227.033 46.7868 227.079 46.5703C227.126 46.3538 227.149 46.118 227.149 45.8629V41.537C227.149 41.2741 227.126 41.0383 227.079 40.8295C227.033 40.6207 226.94 40.4584 226.801 40.3424C226.67 40.2187 226.461 40.1568 226.175 40.1568C225.904 40.1568 225.699 40.2187 225.56 40.3424C225.421 40.4584 225.328 40.6207 225.282 40.8295C225.235 41.0383 225.212 41.2741 225.212 41.537V45.8629C225.212 46.118 225.232 46.3538 225.27 46.5703C225.317 46.7868 225.409 46.9569 225.548 47.0806C225.688 47.2043 225.896 47.2662 226.175 47.2662Z" fill="white"/>
<path d="M230.158 48.4028V39.0087H232.466C232.884 39.0087 233.259 39.0473 233.591 39.1247C233.931 39.202 234.221 39.3334 234.461 39.519C234.708 39.6968 234.898 39.9404 235.029 40.2496C235.161 40.5589 235.226 40.9493 235.226 41.421C235.226 41.7998 235.172 42.1246 235.064 42.3952C234.964 42.6658 234.813 42.8823 234.612 43.0447C234.411 43.1993 234.159 43.3037 233.858 43.3578C234.229 43.4196 234.534 43.5511 234.774 43.7521C235.022 43.9454 235.203 44.2005 235.319 44.5176C235.443 44.8346 235.505 45.2173 235.505 45.6657C235.505 46.1142 235.447 46.5123 235.331 46.8603C235.223 47.2005 235.056 47.4865 234.832 47.7185C234.616 47.9427 234.341 48.1128 234.009 48.2288C233.684 48.3448 233.301 48.4028 232.861 48.4028H230.158ZM231.875 47.1966H232.524C233.042 47.1966 233.394 47.0729 233.58 46.8255C233.765 46.5703 233.858 46.1799 233.858 45.6541C233.858 45.2753 233.812 44.9699 233.719 44.7379C233.634 44.4982 233.487 44.3204 233.278 44.2044C233.077 44.0884 232.806 44.0305 232.466 44.0305H231.875V47.1966ZM231.875 42.8475H232.455C232.795 42.8475 233.058 42.7972 233.243 42.6967C233.429 42.5962 233.556 42.4416 233.626 42.2328C233.703 42.0241 233.742 41.7612 233.742 41.4442C233.742 41.1117 233.684 40.8566 233.568 40.6787C233.46 40.4932 233.294 40.3695 233.069 40.3076C232.845 40.238 232.559 40.2032 232.211 40.2032H231.875V42.8475Z" fill="white"/>
<path d="M236.138 48.4028L238.017 39.0087H239.85L241.729 48.4028H240.14L239.769 46.234H238.133L237.751 48.4028H236.138ZM238.307 45.1438H239.583L238.945 41.2006L238.307 45.1438Z" fill="white"/>
<path d="M242.697 48.4028V39.0087H244.401V42.9403H246.315V39.0087H248.031V48.4028H246.315V44.158H244.401V48.4028H242.697Z" fill="white"/>
<path d="M249.492 48.4028V39.0087H250.895V44.9351L253.47 39.0087H254.618V48.4028H253.203V42.3836L250.617 48.4028H249.492Z" fill="white"/>
<path d="M256.06 48.4028V39.0087H260.004V40.2148H257.777V42.9171H259.528V44.1116H257.777V47.2198H260.027V48.4028H256.06Z" fill="white"/>
<path d="M263.864 48.4028V39.0087H265.268V44.9351L267.842 39.0087H268.991V48.4028H267.576V42.3836L264.989 48.4028H263.864Z" fill="white"/>
<path d="M273.276 48.4028V39.0087H274.68V44.9351L277.254 39.0087H278.402V48.4028H276.987V42.3836L274.401 48.4028H273.276Z" fill="white"/>
<path d="M282.373 48.5303C281.685 48.5303 281.144 48.395 280.749 48.1244C280.363 47.8538 280.092 47.4865 279.937 47.0226C279.783 46.551 279.705 46.0098 279.705 45.399V42.0473C279.705 41.4055 279.783 40.8488 279.937 40.3772C280.092 39.9056 280.363 39.5422 280.749 39.287C281.144 39.0319 281.685 38.9043 282.373 38.9043C283.022 38.9043 283.529 39.0164 283.892 39.2406C284.263 39.4571 284.526 39.7703 284.681 40.18C284.835 40.5898 284.913 41.0653 284.913 41.6065V42.3952H283.266V41.5834C283.266 41.3205 283.25 41.0808 283.22 40.8643C283.196 40.6478 283.123 40.4777 282.999 40.354C282.883 40.2226 282.678 40.1568 282.385 40.1568C282.091 40.1568 281.874 40.2264 281.735 40.3656C281.604 40.497 281.519 40.6787 281.48 40.9107C281.441 41.1349 281.422 41.3901 281.422 41.6761V45.7585C281.422 46.0987 281.449 46.3809 281.503 46.6051C281.557 46.8216 281.654 46.9878 281.793 47.1038C281.94 47.2121 282.137 47.2662 282.385 47.2662C282.671 47.2662 282.872 47.2005 282.988 47.069C283.111 46.9299 283.189 46.7482 283.22 46.5239C283.25 46.2997 283.266 46.0484 283.266 45.7701V44.9235H284.913V45.6773C284.913 46.234 284.839 46.7288 284.692 47.1618C284.546 47.5871 284.287 47.9234 283.915 48.1708C283.552 48.4105 283.038 48.5303 282.373 48.5303Z" fill="white"/>
<path d="M286.108 48.4028V39.0087H291.524V48.4028H289.831V40.2264H287.801V48.4028H286.108Z" fill="white"/>
<path d="M292.96 48.4028V39.0087H294.665V42.9519H295.083C295.725 42.9519 296.258 43.0408 296.683 43.2186C297.109 43.3887 297.429 43.6748 297.646 44.0768C297.862 44.4712 297.971 45.0047 297.971 45.6773C297.971 46.2031 297.901 46.6438 297.762 46.9994C297.63 47.3474 297.437 47.6257 297.182 47.8345C296.927 48.0432 296.618 48.1901 296.254 48.2752C295.891 48.3602 295.477 48.4028 295.013 48.4028H292.96ZM294.665 47.243H295.025C295.35 47.243 295.612 47.1966 295.813 47.1038C296.014 47.011 296.161 46.8487 296.254 46.6167C296.347 46.377 296.389 46.0523 296.382 45.6425C296.382 45.1554 296.285 44.7843 296.092 44.5291C295.899 44.274 295.535 44.1464 295.002 44.1464H294.665V47.243ZM298.852 48.4028V39.0087H300.557V48.4028H298.852Z" fill="white"/>
<path d="M302.937 48.4028V40.2728H301.441V39.0087H306.127V40.2728H304.654V48.4028H302.937Z" fill="white"/>
<path d="M306.506 48.4028L308.385 39.0087H310.217L312.096 48.4028H310.507L310.136 46.234H308.501L308.118 48.4028H306.506ZM308.675 45.1438H309.95L309.312 41.2006L308.675 45.1438Z" fill="white"/>
<path d="M313.753 48.4028V40.2728H312.257V39.0087H316.943V40.2728H315.47V48.4028H313.753Z" fill="white"/>
<path d="M317.797 48.4028V39.0087H321.741V40.2148H319.514V42.9171H321.265V44.1116H319.514V47.2198H321.764V48.4028H317.797Z" fill="white"/>
<path d="M322.109 48.4028V47.1734C322.325 47.1811 322.507 47.1695 322.654 47.1386C322.808 47.1 322.936 47.0188 323.036 46.8951C323.145 46.7714 323.234 46.5819 323.303 46.3268C323.373 46.0639 323.431 45.7121 323.477 45.2714C323.524 44.8307 323.574 44.2701 323.628 43.5897L323.929 39.0087H328.499V48.4028H326.794V40.296H325.449L325.24 43.7985C325.194 44.4866 325.14 45.0936 325.078 45.6193C325.024 46.1451 324.935 46.5935 324.811 46.9647C324.695 47.328 324.529 47.6219 324.312 47.8461C324.096 48.0703 323.81 48.2288 323.454 48.3216C323.098 48.4066 322.65 48.4337 322.109 48.4028Z" fill="white"/>
<path d="M329.973 48.4028V39.0087H331.678V42.9519H332.096C332.73 42.9519 333.259 43.0408 333.684 43.2186C334.11 43.3887 334.431 43.6748 334.647 44.0768C334.864 44.4712 334.972 45.0047 334.972 45.6773C334.972 46.2031 334.906 46.6438 334.775 46.9994C334.643 47.3474 334.446 47.6257 334.183 47.8345C333.928 48.0432 333.619 48.1901 333.255 48.2752C332.892 48.3602 332.482 48.4028 332.026 48.4028H329.973ZM331.678 47.243H332.026C332.358 47.243 332.621 47.1966 332.815 47.1038C333.016 47.011 333.163 46.8487 333.255 46.6167C333.348 46.377 333.395 46.0523 333.395 45.6425C333.387 45.1554 333.286 44.7843 333.093 44.5291C332.907 44.274 332.544 44.1464 332.003 44.1464H331.678V47.243Z" fill="white"/>
<path d="M336.078 48.4028V39.0087H337.783V42.9403H339.696V39.0087H341.413V48.4028H339.696V44.158H337.783V48.4028H336.078Z" fill="white"/>
<path d="M342.873 48.4028V39.0087H344.578V42.9519H344.996C345.637 42.9519 346.171 43.0408 346.596 43.2186C347.021 43.3887 347.342 43.6748 347.559 44.0768C347.775 44.4712 347.883 45.0047 347.883 45.6773C347.883 46.2031 347.814 46.6438 347.675 46.9994C347.543 47.3474 347.35 47.6257 347.095 47.8345C346.84 48.0432 346.53 48.1901 346.167 48.2752C345.804 48.3602 345.39 48.4028 344.926 48.4028H342.873ZM344.578 47.243H344.938C345.262 47.243 345.525 47.1966 345.726 47.1038C345.927 47.011 346.074 46.8487 346.167 46.6167C346.26 46.377 346.302 46.0523 346.295 45.6425C346.295 45.1554 346.198 44.7843 346.005 44.5291C345.811 44.274 345.448 44.1464 344.915 44.1464H344.578V47.243ZM348.765 48.4028V39.0087H350.47V48.4028H348.765Z" fill="white"/>
<path d="M351.911 48.4028V39.0087H355.854V40.2148H353.627V42.9171H355.378V44.1116H353.627V47.2198H355.877V48.4028H351.911Z" fill="white"/>
<path d="M362.22 48.5303C361.532 48.5303 360.991 48.395 360.596 48.1244C360.21 47.8538 359.939 47.4865 359.784 47.0226C359.63 46.551 359.552 46.0098 359.552 45.399V42.0473C359.552 41.4055 359.63 40.8488 359.784 40.3772C359.939 39.9056 360.21 39.5422 360.596 39.287C360.991 39.0319 361.532 38.9043 362.22 38.9043C362.869 38.9043 363.376 39.0164 363.739 39.2406C364.11 39.4571 364.373 39.7703 364.528 40.18C364.682 40.5898 364.76 41.0653 364.76 41.6065V42.3952H363.113V41.5834C363.113 41.3205 363.097 41.0808 363.067 40.8643C363.043 40.6478 362.97 40.4777 362.846 40.354C362.73 40.2226 362.525 40.1568 362.231 40.1568C361.938 40.1568 361.721 40.2264 361.582 40.3656C361.451 40.497 361.366 40.6787 361.327 40.9107C361.288 41.1349 361.269 41.3901 361.269 41.6761V45.7585C361.269 46.0987 361.296 46.3809 361.35 46.6051C361.404 46.8216 361.501 46.9878 361.64 47.1038C361.787 47.2121 361.984 47.2662 362.231 47.2662C362.518 47.2662 362.719 47.2005 362.835 47.069C362.958 46.9299 363.036 46.7482 363.067 46.5239C363.097 46.2997 363.113 46.0484 363.113 45.7701V44.9235H364.76V45.6773C364.76 46.234 364.686 46.7288 364.539 47.1618C364.392 47.5871 364.133 47.9234 363.762 48.1708C363.399 48.4105 362.885 48.5303 362.22 48.5303Z" fill="white"/>
<path d="M366.894 48.4028V40.2728H365.398V39.0087H370.084V40.2728H368.611V48.4028H366.894Z" fill="white"/>
<path d="M370.938 48.4028V39.0087H374.881V40.2148H372.655V42.9171H374.406V44.1116H372.655V47.2198H374.905V48.4028H370.938Z" fill="white"/>
<path d="M375.922 48.4028V39.0087H377.627V42.9403H379.54V39.0087H381.257V48.4028H379.54V44.158H377.627V48.4028H375.922Z" fill="white"/>
<path d="M382.161 50.27V47.185H382.497C382.652 47.1 382.799 46.9878 382.938 46.8487C383.085 46.7018 383.216 46.5085 383.332 46.2688C383.448 46.0291 383.553 45.7237 383.645 45.3526C383.746 44.9737 383.831 44.5137 383.9 43.9725C383.978 43.4312 384.036 42.7895 384.074 42.0473L384.283 39.0087H388.435V47.185H389.421V50.27H388.226L388.122 48.4028H383.495L383.379 50.27H382.161ZM384.098 47.185H386.811V40.238H385.629L385.524 42.314C385.493 43.0562 385.443 43.6864 385.373 44.2044C385.304 44.7147 385.223 45.14 385.13 45.4802C385.037 45.8126 384.933 46.0832 384.817 46.292C384.708 46.5007 384.592 46.6708 384.469 46.8023C384.345 46.9337 384.221 47.0613 384.098 47.185Z" fill="white"/>
<path d="M390.385 48.4028V39.0087H392.09V42.9519H392.507C393.149 42.9519 393.683 43.0408 394.108 43.2186C394.533 43.3887 394.854 43.6748 395.071 44.0768C395.287 44.4712 395.395 45.0047 395.395 45.6773C395.395 46.2031 395.326 46.6438 395.187 46.9994C395.055 47.3474 394.862 47.6257 394.607 47.8345C394.351 48.0432 394.042 48.1901 393.679 48.2752C393.315 48.3602 392.902 48.4028 392.438 48.4028H390.385ZM392.09 47.243H392.449C392.774 47.243 393.037 47.1966 393.238 47.1038C393.439 47.011 393.586 46.8487 393.679 46.6167C393.772 46.377 393.814 46.0523 393.806 45.6425C393.806 45.1554 393.71 44.7843 393.516 44.5291C393.323 44.274 392.96 44.1464 392.426 44.1464H392.09V47.243ZM396.277 48.4028V39.0087H397.982V48.4028H396.277Z" fill="white"/>
<path d="M0 4.73373C0 2.11936 2.11936 0 4.73373 0H82.8402V33.1361H4.73373C2.11936 33.1361 0 31.0167 0 28.4024V4.73373Z" fill="#E54545"/>
<path d="M400 28.403C400 31.0174 397.881 33.1367 395.266 33.1367L82.8402 33.1367L82.8402 0.000624586L395.266 0.000651899C397.881 0.000652128 400 2.12001 400 4.73438L400 28.403Z" fill="white"/>
<g filter="url(#filter0_i_671_8688)">
<path d="M11.834 5.32617H16.5677V27.8114H11.834V5.32617Z" fill="black"/>
<path d="M33.1348 5.32617H37.8685V27.8114H33.1348V5.32617Z" fill="black"/>
<path d="M54.4375 5.32617H59.1712V27.8114H55.6209C54.9673 27.8114 54.4375 27.2815 54.4375 26.6279V5.32617Z" fill="black"/>
<path d="M23.668 5.32617H27.2183C27.8719 5.32617 28.4017 5.85601 28.4017 6.5096V26.6279C28.4017 27.2815 27.8719 27.8114 27.2183 27.8114H23.668V5.32617Z" fill="black"/>
<path d="M44.9707 5.32617H48.521C49.1746 5.32617 49.7044 5.85601 49.7044 6.5096V26.6279C49.7044 27.2815 49.1746 27.8114 48.521 27.8114H44.9707V5.32617Z" fill="black"/>
<path d="M66.2617 5.32617H69.8225C70.4761 5.32617 71.0059 5.85601 71.0059 6.5096V26.6279C71.0059 27.2815 70.4761 27.8114 69.8225 27.8114L66.2617 27.7982V5.32617Z" fill="black"/>
<path d="M24.8516 14.2012L24.8516 18.9349L16.5675 18.9349L16.5675 14.2012L24.8516 14.2012Z" fill="black"/>
<path d="M48.5197 5.32617C49.1733 5.32617 49.7031 5.85601 49.7031 6.5096L49.7031 10.0599L37.8688 10.0599L37.8688 5.32617L48.5197 5.32617Z" fill="black"/>
<path d="M66.261 5.32617L66.2715 10.0599L55.6206 10.0599L55.6206 5.32617L66.261 5.32617Z" fill="black"/>
<path d="M66.2617 23.0645L66.2617 26.6147C66.2617 27.2683 66.2617 27.5615 66.2617 27.7982L59.1611 27.7982L59.1611 23.0645L66.2617 23.0645Z" fill="black"/>
</g>
<g filter="url(#filter1_i_671_8688)">
<path d="M328.994 5.32617H333.728V27.8114H328.994V5.32617Z" fill="black"/>
<path d="M243.785 5.32617H248.519V27.8114H243.785V5.32617Z" fill="black"/>
<path d="M158.58 5.32617H163.314V27.8114H159.764C159.11 27.8114 158.58 27.2815 158.58 26.6279V5.32617Z" fill="black"/>
<path d="M350.295 5.32617H355.029V27.8114H351.478C350.825 27.8114 350.295 27.2815 350.295 26.6279V5.32617Z" fill="black"/>
<path d="M222.484 6.5096C222.484 5.85601 223.014 5.32617 223.668 5.32617H227.218V27.8114H223.668C223.014 27.8114 222.484 27.2815 222.484 26.6279V6.5096Z" fill="black"/>
<path d="M286.391 6.5096C286.391 5.85601 286.92 5.32617 287.574 5.32617H291.124V19.8824H287.574C286.92 19.8824 286.391 19.3525 286.391 18.699V6.5096Z" fill="black"/>
<path d="M340.828 5.32617H344.378C345.032 5.32617 345.562 5.85601 345.562 6.5096V26.6279C345.562 27.2815 345.032 27.8114 344.378 27.8114H340.828V5.32617Z" fill="black"/>
<path d="M255.621 5.32617H259.171C259.825 5.32617 260.355 5.85601 260.355 6.5096V26.6279C260.355 27.2815 259.825 27.8114 259.171 27.8114H255.621V5.32617Z" fill="black"/>
<path d="M298.225 5.32617H301.775C302.428 5.32617 302.958 5.85601 302.958 6.5096V26.6279C302.958 27.2815 302.428 27.8114 301.775 27.8114H298.225V5.32617Z" fill="black"/>
<path d="M362.129 5.32617H365.679C366.333 5.32617 366.863 5.85601 366.863 6.5096V26.6279C366.863 27.2815 366.333 27.8114 365.679 27.8114H362.129V5.32617Z" fill="black"/>
<path d="M137.277 6.5096C137.277 5.85601 137.807 5.32617 138.461 5.32617H142.366V27.8114H138.461C137.807 27.8114 137.277 27.2815 137.277 26.6279V19.7809L139.881 17.5155L137.277 13.3566V6.5096Z" fill="black"/>
<path d="M153.846 26.6271C153.846 27.2807 153.316 27.8105 152.662 27.8105L149.112 27.8105L149.112 5.32534L152.662 5.32534C153.316 5.32534 153.846 5.85518 153.846 6.50877L153.846 13.3558L151.242 17.5147L153.846 19.7801L153.846 26.6271Z" fill="black"/>
<path d="M100.592 10.0605H105.326V27.812H100.592V10.0605Z" fill="black"/>
<path d="M115.977 10.0605H120.71V23.0783H115.977V10.0605Z" fill="black"/>
<path d="M201.184 10.0605H205.917V27.812H202.367C201.713 27.812 201.184 27.2822 201.184 26.6286V10.0605Z" fill="black"/>
<path d="M265.088 10.0605H269.822V27.812H266.271C265.618 27.812 265.088 27.2822 265.088 26.6286V10.0605Z" fill="black"/>
<path d="M307.691 10.0605H312.425V27.812H308.875C308.221 27.812 307.691 27.2822 307.691 26.6286V10.0605Z" fill="black"/>
<path d="M371.598 10.0605H376.331V27.812H372.781C372.127 27.812 371.598 27.2822 371.598 26.6286V10.0605Z" fill="black"/>
<path d="M179.881 5.32617H184.615V27.8114H181.064C180.411 27.8114 179.881 27.2815 179.881 26.6279V5.32617Z" fill="black"/>
<path d="M196.449 26.6271C196.449 27.2807 195.919 27.8105 195.266 27.8105L191.715 27.8105L191.715 15.1478L195.266 15.1478C195.919 15.1478 196.449 15.6777 196.449 16.3313L196.449 26.6271Z" fill="black"/>
<path d="M170.414 5.32617H173.964C174.618 5.32617 175.148 5.85601 175.148 6.5096V26.6279C175.148 27.2815 174.618 27.8114 173.964 27.8114H170.414V5.32617Z" fill="black"/>
<path d="M342.129 15.1484L342.129 19.8822L333.727 19.8822L333.727 15.1484L342.129 15.1484Z" fill="black"/>
<path d="M259.17 5.32617C259.824 5.32617 260.354 5.85601 260.354 6.5096L260.354 10.0599L248.519 10.0599L248.519 5.32617L259.17 5.32617Z" fill="black"/>
<path d="M110.059 5.32617C110.712 5.32617 111.242 5.85601 111.242 6.5096L111.242 10.0599L95.8576 10.0599C95.204 10.0599 94.6741 9.53006 94.6741 8.87647L94.6741 5.32617L110.059 5.32617Z" fill="black"/>
<path d="M131.36 5.32617C132.013 5.32617 132.543 5.85601 132.543 6.5096L132.543 10.0599L115.975 10.0599L115.975 5.32617L131.36 5.32617Z" fill="black"/>
<path d="M216.567 5.32617C217.22 5.32617 217.75 5.85601 217.75 6.5096L217.75 10.0599L201.182 10.0599L201.182 5.32617L216.567 5.32617Z" fill="black"/>
<path d="M280.473 5.32617C281.126 5.32617 281.656 5.85601 281.656 6.5096L281.656 10.0599L265.088 10.0599L265.088 5.32617L280.473 5.32617Z" fill="black"/>
<path d="M323.076 5.32617C323.73 5.32617 324.26 5.85601 324.26 6.5096L324.26 10.0599L307.692 10.0599L307.692 5.32617L323.076 5.32617Z" fill="black"/>
<path d="M386.981 5.32617C387.634 5.32617 388.164 5.85601 388.164 6.5096L388.164 10.0599L371.596 10.0599L371.596 5.32617L386.981 5.32617Z" fill="black"/>
<path d="M195.266 5.32617C195.919 5.32617 196.449 5.85601 196.449 6.5096L196.449 10.0599L179.881 10.0599L179.881 5.32617L195.266 5.32617Z" fill="black"/>
<path d="M132.543 23.0781L132.543 27.8119L117.158 27.8119C116.505 27.8119 115.975 27.282 115.975 26.6284L115.975 23.0781C122.445 23.0781 126.073 23.0781 132.543 23.0781Z" fill="black"/>
<path d="M217.75 23.0781L217.75 27.8119L202.365 27.8119C201.712 27.8119 201.182 27.282 201.182 26.6284L201.182 23.0781C207.652 23.0781 211.28 23.0781 217.75 23.0781Z" fill="black"/>
<path d="M281.656 23.0781L281.656 27.8119L266.272 27.8119C265.618 27.8119 265.088 27.282 265.088 26.6284L265.088 23.0781C271.558 23.0781 275.186 23.0781 281.656 23.0781Z" fill="black"/>
<path d="M324.26 23.6699L324.26 27.8119L308.875 27.8119C308.222 27.8119 307.692 27.2821 307.692 26.6285L307.692 23.6699C314.162 23.6699 317.79 23.6699 324.26 23.6699Z" fill="black"/>
<path d="M388.164 23.6699L388.164 27.8119L372.779 27.8119C372.126 27.8119 371.596 27.2821 371.596 26.6285L371.596 23.6699C378.066 23.6699 381.694 23.6699 388.164 23.6699Z" fill="black"/>
<path d="M196.449 23.0781L196.449 26.6284C196.449 27.282 195.919 27.8119 195.266 27.8119L184.615 27.8119L184.615 23.0781C189.236 23.0781 191.828 23.0781 196.449 23.0781Z" fill="black"/>
<path d="M128.994 15.1484L128.994 19.8822L115.976 19.8822L115.976 15.1484L128.994 15.1484Z" fill="black"/>
<path d="M214.201 15.1484L214.201 19.8822L201.183 19.8822L201.183 15.1484L214.201 15.1484Z" fill="black"/>
<path d="M278.105 15.1484L278.105 19.8822L265.088 19.8822L265.088 15.1484L278.105 15.1484Z" fill="black"/>
<path d="M320.709 15.1484L320.709 19.8822L307.691 19.8822L307.691 15.1484L320.709 15.1484Z" fill="black"/>
<path d="M384.615 15.1484L384.615 19.8822L371.597 19.8822L371.597 15.1484L384.615 15.1484Z" fill="black"/>
<path d="M195.266 15.1484C195.919 15.1484 196.449 15.6783 196.449 16.3319L196.449 18.6987C196.449 19.3523 195.919 19.8822 195.266 19.8822L184.615 19.8822L184.615 15.1484L195.266 15.1484Z" fill="black"/>
<path d="M149.111 15.1484L149.111 19.8822L139.881 19.8822L139.881 15.1484L149.111 15.1484Z" fill="black"/>
<path d="M170.414 5.32617L170.414 10.0599L158.58 10.0599L158.58 5.32617L170.414 5.32617Z" fill="black"/>
<path d="M239.053 5.32617L239.053 8.87647C239.053 9.53006 238.523 10.0599 237.869 10.0599L222.485 10.0599L222.485 6.5096C222.485 5.85601 223.015 5.32617 223.668 5.32617L239.053 5.32617Z" fill="black"/>
<path d="M173.373 23.0781L173.373 26.6284C173.373 27.282 172.843 27.8119 172.19 27.8119L163.314 27.8119L163.314 23.0781L173.373 23.0781Z" fill="black"/>
<path d="M237.869 23.0781C238.523 23.0781 239.053 23.608 239.053 24.2616L239.053 27.8119L227.218 27.8119L227.218 23.0781L237.869 23.0781Z" fill="black"/>
<path d="M298.225 15.1484L298.225 19.8822L287.574 19.8822C286.92 19.8822 286.39 19.3523 286.39 18.6987L286.39 15.1484L298.225 15.1484Z" fill="black"/>
<path d="M363.617 12.0724L365.984 16.1719L352.775 23.7979L350.408 19.6984L363.617 12.0724Z" fill="black"/>
</g>
<defs>
<filter id="filter0_i_671_8688" x="11.834" y="5.32617" width="59.1719" height="22.9577" filterUnits="userSpaceOnUse" color-interpolation-filters="sRGB">
<feFlood flood-opacity="0" result="BackgroundImageFix"/>
<feBlend mode="normal" in="SourceGraphic" in2="BackgroundImageFix" result="shape"/>
<feColorMatrix in="SourceAlpha" type="matrix" values="0 0 0 0 0 0 0 0 0 0 0 0 0 0 0 0 0 0 127 0" result="hardAlpha"/>
<feOffset dy="0.473373"/>
<feGaussianBlur stdDeviation="0.236686"/>
<feComposite in2="hardAlpha" operator="arithmetic" k2="-1" k3="1"/>
<feColorMatrix type="matrix" values="0 0 0 0 0 0 0 0 0 0 0 0 0 0 0 0 0 0 0.25 0"/>
<feBlend mode="normal" in2="shape" result="effect1_innerShadow_671_8688"/>
</filter>
<filter id="filter1_i_671_8688" x="94.6738" y="5.32617" width="293.49" height="22.9597" filterUnits="userSpaceOnUse" color-interpolation-filters="sRGB">
<feFlood flood-opacity="0" result="BackgroundImageFix"/>
<feBlend mode="normal" in="SourceGraphic" in2="BackgroundImageFix" result="shape"/>
<feColorMatrix in="SourceAlpha" type="matrix" values="0 0 0 0 0 0 0 0 0 0 0 0 0 0 0 0 0 0 127 0" result="hardAlpha"/>
<feOffset dy="0.473373"/>
<feGaussianBlur stdDeviation="0.236686"/>
<feComposite in2="hardAlpha" operator="arithmetic" k2="-1" k3="1"/>
<feColorMatrix type="matrix" values="0 0 0 0 0 0 0 0 0 0 0 0 0 0 0 0 0 0 0.25 0"/>
<feBlend mode="normal" in2="shape" result="effect1_innerShadow_671_8688"/>
</filter>
</defs>
</svg>
