<svg width="100" height="23" viewBox="0 0 100 23" fill="none" xmlns="http://www.w3.org/2000/svg">
<path d="M0 3.27869C0 1.46792 1.46792 0 3.27869 0H57.377V22.9508H3.27869C1.46792 22.9508 0 21.4829 0 19.6721V3.27869Z" fill="#E54545"/>
<path d="M100 19.6725C100 21.4833 98.5321 22.9512 96.7213 22.9512L57.377 22.9512L57.3771 0.000368207L96.7213 0.000371646C98.5321 0.000371805 100 1.46829 100 3.27906L100 19.6725Z" fill="#2F2F2F"/>
<g filter="url(#filter0_i_796_39245)">
<path d="M8.19727 3.68945H11.476V19.2632H8.19727V3.68945Z" fill="white"/>
<path d="M22.9512 3.68945H26.2299V19.2632H22.9512V3.68945Z" fill="white"/>
<path d="M37.7051 3.68945H40.9838V19.2632H38.5248C38.0721 19.2632 37.7051 18.8962 37.7051 18.4436V3.68945Z" fill="white"/>
<path d="M16.3945 3.68945H18.8535C19.3062 3.68945 19.6732 4.05643 19.6732 4.50913V18.4436C19.6732 18.8962 19.3062 19.2632 18.8535 19.2632H16.3945V3.68945Z" fill="white"/>
<path d="M31.1484 3.68945H33.6075C34.0601 3.68945 34.4271 4.05643 34.4271 4.50913V18.4436C34.4271 18.8962 34.0601 19.2632 33.6075 19.2632H31.1484V3.68945Z" fill="white"/>
<path d="M45.8945 3.68945H48.3608C48.8135 3.68945 49.1805 4.05643 49.1805 4.50913V18.4436C49.1805 18.8962 48.8135 19.2632 48.3608 19.2632L45.8945 19.2541V3.68945Z" fill="white"/>
<path d="M17.2129 9.83789L17.2129 13.1166L11.4752 13.1166L11.4752 9.83789L17.2129 9.83789Z" fill="white"/>
<path d="M33.6081 3.68945C34.0608 3.68945 34.4277 4.05643 34.4277 4.50913L34.4277 6.96814L26.231 6.96814L26.231 3.68945L33.6081 3.68945Z" fill="white"/>
<path d="M45.8951 3.68945L45.9023 6.96814L38.5253 6.96814L38.5253 3.68945L45.8951 3.68945Z" fill="white"/>
<path d="M45.8945 15.9766L45.8945 18.4356C45.8945 18.8883 45.8945 19.0913 45.8945 19.2553L40.9765 19.2553L40.9765 15.9766L45.8945 15.9766Z" fill="white"/>
</g>
<g filter="url(#filter1_i_796_39245)">
<path d="M80.3281 3.68945H83.6068V19.2632H81.1478C80.6951 19.2632 80.3281 18.8962 80.3281 18.4436V3.68945Z" fill="white"/>
<path d="M69.6719 6.96875H72.9506V19.2638H69.6719V6.96875Z" fill="white"/>
<path d="M88.5254 3.68945H90.9844C91.4371 3.68945 91.8041 4.05643 91.8041 4.50913V18.4436C91.8041 18.8962 91.4371 19.2632 90.9844 19.2632H88.5254V3.68945Z" fill="white"/>
<path d="M76.2292 3.68945C76.6818 3.68945 77.0488 4.05643 77.0488 4.50913L77.0488 6.96814L66.3931 6.96814C65.9404 6.96814 65.5734 6.60116 65.5734 6.14847L65.5734 3.68945L76.2292 3.68945Z" fill="white"/>
<path d="M88.5254 3.68945L88.5254 6.96814L80.3287 6.96814L80.3287 3.68945L88.5254 3.68945Z" fill="white"/>
<path d="M90.5742 15.9844L90.5742 18.4434C90.5742 18.8961 90.2072 19.2631 89.7545 19.2631L83.607 19.2631L83.607 15.9844L90.5742 15.9844Z" fill="white"/>
</g>
<defs>
<filter id="filter0_i_796_39245" x="8.19727" y="3.68945" width="40.9824" height="15.9021" filterUnits="userSpaceOnUse" color-interpolation-filters="sRGB">
<feFlood flood-opacity="0" result="BackgroundImageFix"/>
<feBlend mode="normal" in="SourceGraphic" in2="BackgroundImageFix" result="shape"/>
<feColorMatrix in="SourceAlpha" type="matrix" values="0 0 0 0 0 0 0 0 0 0 0 0 0 0 0 0 0 0 127 0" result="hardAlpha"/>
<feOffset dy="0.327869"/>
<feGaussianBlur stdDeviation="0.163934"/>
<feComposite in2="hardAlpha" operator="arithmetic" k2="-1" k3="1"/>
<feColorMatrix type="matrix" values="0 0 0 0 0 0 0 0 0 0 0 0 0 0 0 0 0 0 0.25 0"/>
<feBlend mode="normal" in2="shape" result="effect1_innerShadow_796_39245"/>
</filter>
<filter id="filter1_i_796_39245" x="65.5742" y="3.68945" width="26.2305" height="15.9021" filterUnits="userSpaceOnUse" color-interpolation-filters="sRGB">
<feFlood flood-opacity="0" result="BackgroundImageFix"/>
<feBlend mode="normal" in="SourceGraphic" in2="BackgroundImageFix" result="shape"/>
<feColorMatrix in="SourceAlpha" type="matrix" values="0 0 0 0 0 0 0 0 0 0 0 0 0 0 0 0 0 0 127 0" result="hardAlpha"/>
<feOffset dy="0.327869"/>
<feGaussianBlur stdDeviation="0.163934"/>
<feComposite in2="hardAlpha" operator="arithmetic" k2="-1" k3="1"/>
<feColorMatrix type="matrix" values="0 0 0 0 0 0 0 0 0 0 0 0 0 0 0 0 0 0 0.25 0"/>
<feBlend mode="normal" in2="shape" result="effect1_innerShadow_796_39245"/>
</filter>
</defs>
</svg>
