<svg width="24" height="24" viewBox="0 0 24 24" fill="none" xmlns="http://www.w3.org/2000/svg">
<path d="M3.21799 7.09204L3.66349 7.31904L3.21799 7.09204ZM4.0918 6.21799L4.31879 6.66349L4.0918 6.21799ZM4.0918 19.782L4.31879 19.3365L4.0918 19.782ZM3.21799 18.908L2.77248 19.135H2.77248L3.21799 18.908ZM20.7822 18.908L20.3367 18.681L20.7822 18.908ZM19.9078 19.782L19.6808 19.3365L19.9078 19.782ZM20.7822 7.09204L20.3367 7.31904L20.7822 7.09204ZM19.9078 6.21799L20.1348 5.77248L19.9078 6.21799ZM4.29459 6.596C4.07146 6.4333 3.75869 6.48229 3.596 6.70541C3.4333 6.92854 3.48229 7.24131 3.70541 7.404L4.29459 6.596ZM12.2286 13L11.934 13.404C12.1136 13.535 12.3582 13.5316 12.5341 13.3958L12.2286 13ZM20.3055 7.39577C20.5241 7.22701 20.5645 6.91302 20.3957 6.69444C20.227 6.47586 19.913 6.43547 19.6944 6.60423L20.3055 7.39577ZM20.5 9.19995V16.8H21.5V9.19995H20.5ZM17.8002 19.5H6.2002V20.5H17.8002V19.5ZM3.5 16.8V9.19995H2.5V16.8H3.5ZM6.2002 6.5H17.8002V5.5H6.2002V6.5ZM3.5 9.19995C3.5 8.63165 3.50039 8.23551 3.52559 7.92711C3.55031 7.62455 3.59639 7.45072 3.66349 7.31904L2.77248 6.86505C2.62159 7.16119 2.55868 7.48126 2.52891 7.84567C2.49961 8.20424 2.5 8.64815 2.5 9.19995H3.5ZM6.2002 5.5C5.64839 5.5 5.20437 5.49961 4.84569 5.52891C4.4812 5.55868 4.16098 5.62157 3.8648 5.77248L4.31879 6.66349C4.45044 6.59641 4.62436 6.55032 4.92709 6.52559C5.23563 6.50039 5.6319 6.5 6.2002 6.5V5.5ZM3.66349 7.31904C3.80737 7.03666 4.03668 6.80723 4.31879 6.66349L3.8648 5.77248C3.39427 6.01223 3.0121 6.39477 2.77248 6.86505L3.66349 7.31904ZM6.2002 19.5C5.6319 19.5 5.23563 19.4996 4.92711 19.4744C4.62438 19.4497 4.45045 19.4036 4.31879 19.3365L3.8648 20.2275C4.16097 20.3784 4.48118 20.4413 4.84568 20.4711C5.20436 20.5004 5.64838 20.5 6.2002 20.5V19.5ZM2.5 16.8C2.5 17.3518 2.49961 17.7957 2.52891 18.1543C2.55868 18.5187 2.62159 18.8389 2.77248 19.135L3.66349 18.681C3.5964 18.5494 3.55031 18.3755 3.52559 18.0729C3.50039 17.7644 3.5 17.3683 3.5 16.8H2.5ZM4.31879 19.3365C4.03662 19.1927 3.80734 18.9634 3.66349 18.681L2.77248 19.135C3.01213 19.6054 3.39432 19.9878 3.8648 20.2275L4.31879 19.3365ZM20.5 16.8C20.5 17.3683 20.4997 17.7645 20.4745 18.073C20.4498 18.3756 20.4038 18.5494 20.3367 18.681L21.2277 19.135C21.3787 18.8388 21.4415 18.5186 21.4712 18.1542C21.5004 17.7957 21.5 17.3517 21.5 16.8H20.5ZM17.8002 20.5C18.352 20.5 18.7958 20.5004 19.1543 20.4711C19.5187 20.4413 19.8387 20.3784 20.1348 20.2275L19.6808 19.3365C19.5491 19.4036 19.3753 19.4497 19.0729 19.4744C18.7645 19.4996 18.3685 19.5 17.8002 19.5V20.5ZM20.3367 18.681C20.193 18.963 19.9633 19.1925 19.6808 19.3365L20.1348 20.2275C20.6049 19.9879 20.9879 19.6057 21.2277 19.135L20.3367 18.681ZM21.5 9.19995C21.5 8.6482 21.5004 8.20429 21.4712 7.84575C21.4415 7.48136 21.3787 7.16124 21.2277 6.86505L20.3367 7.31904C20.4038 7.45066 20.4498 7.62444 20.4745 7.92703C20.4997 8.23546 20.5 8.6316 20.5 9.19995H21.5ZM17.8002 6.5C18.3685 6.5 18.7646 6.50039 19.0729 6.52559C19.3753 6.55031 19.5491 6.59638 19.6808 6.66349L20.1348 5.77248C19.8387 5.6216 19.5187 5.55869 19.1543 5.52891C18.7958 5.49961 18.352 5.5 17.8002 5.5V6.5ZM21.2277 6.86505C20.9879 6.39444 20.605 6.01206 20.1348 5.77248L19.6808 6.66349C19.9632 6.8074 20.193 7.037 20.3367 7.31904L21.2277 6.86505ZM3.70541 7.404L11.934 13.404L12.5232 12.596L4.29459 6.596L3.70541 7.404ZM12.5341 13.3958L20.3055 7.39577L19.6944 6.60423L11.923 12.6042L12.5341 13.3958Z" fill="#777777"/>
</svg>
