<svg width="25" height="24" viewBox="0 0 25 24" fill="none" xmlns="http://www.w3.org/2000/svg">
<path d="M10.0029 4.25722L10.4672 4.07153L10.4672 4.07152L10.0029 4.25722ZM11.0572 6.89286L10.593 7.07856L10.593 7.07856L11.0572 6.89286ZM10.7368 8.91597L10.3527 8.59588L10.3527 8.5959L10.7368 8.91597ZM10.1694 9.59688L10.5535 9.91698L10.5536 9.91696L10.1694 9.59688ZM10.2914 12.2915L9.93781 12.6451L9.93782 12.6451L10.2914 12.2915ZM12.2085 14.2085L12.5621 13.855L12.5621 13.855L12.2085 14.2085ZM14.9031 14.3307L14.583 13.9466L14.583 13.9466L14.9031 14.3307ZM15.5842 13.7633L15.9042 14.1475L15.9043 14.1474L15.5842 13.7633ZM17.6071 13.4429L17.7928 12.9786L17.7928 12.9786L17.6071 13.4429ZM20.2426 14.4971L20.0569 14.9614L20.0569 14.9614L20.2426 14.4971ZM21.4999 16.354H20.9999V16.354L21.4999 16.354ZM21.5 19.1053H22V19.1053L21.5 19.1053ZM8.146 3.5C8.75935 3.5 9.31092 3.87343 9.53871 4.44291L10.4672 4.07152C10.0875 3.12238 9.16826 2.5 8.146 2.5V3.5ZM9.53871 4.44291L10.593 7.07856L11.5214 6.70717L10.4672 4.07153L9.53871 4.44291ZM10.593 7.07856C10.7976 7.59017 10.7054 8.17268 10.3527 8.59588L11.1209 9.23606C11.7088 8.53058 11.8624 7.55969 11.5214 6.70717L10.593 7.07856ZM10.3527 8.5959L9.78531 9.27681L10.5536 9.91696L11.1209 9.23605L10.3527 8.5959ZM9.78532 9.27679C8.95765 10.27 9.02342 11.7307 9.93781 12.6451L10.6449 11.938C10.0964 11.3895 10.0568 10.5131 10.5535 9.91698L9.78532 9.27679ZM9.93782 12.6451L11.855 14.5621L12.5621 13.855L10.6449 11.9379L9.93782 12.6451ZM11.855 14.5621C12.7693 15.4764 14.2299 15.5426 15.2232 14.7148L14.583 13.9466C13.987 14.4433 13.1107 14.4036 12.5621 13.855L11.855 14.5621ZM15.2231 14.7149L15.9042 14.1475L15.2642 13.3791L14.583 13.9466L15.2231 14.7149ZM15.9043 14.1474C16.3275 13.7947 16.9099 13.7025 17.4214 13.9071L17.7928 12.9786C16.9403 12.6376 15.9695 12.7913 15.2641 13.3792L15.9043 14.1474ZM17.4214 13.9071L20.0569 14.9614L20.4283 14.0329L17.7928 12.9786L17.4214 13.9071ZM20.0569 14.9614C20.6264 15.1892 20.9999 15.7407 20.9999 16.354H21.9999C21.9999 15.3317 21.3774 14.4125 20.4283 14.0329L20.0569 14.9614ZM20.9999 16.354L21 19.1053L22 19.1053L21.9999 16.354L20.9999 16.354ZM21 19.1053C21 19.8757 20.3757 20.5 19.6055 20.5V21.5C20.9281 21.5 22 20.4279 22 19.1053H21ZM19.6055 20.5C10.9869 20.5 4 13.5133 4 4.89478H3C3 14.0656 10.4346 21.5 19.6055 21.5V20.5ZM4 4.89478C4 4.12447 4.62446 3.5 5.39474 3.5V2.5C4.07215 2.5 3 3.57221 3 4.89478H4ZM5.39474 3.5H8.146V2.5H5.39474V3.5Z" fill="#777777"/>
</svg>
