<svg width="25" height="26" viewBox="0 0 25 26" fill="none" xmlns="http://www.w3.org/2000/svg">
<g clip-path="url(#clip0_903_1061)">
<path d="M12.5 1.79297C10.1794 1.79297 7.95376 2.71484 6.31282 4.35578C4.67187 5.99673 3.75 8.22232 3.75 10.543C3.75 12.6123 4.19042 13.9671 5.39063 15.4648L12.5 23.668L19.6094 15.4648C20.8096 13.9671 21.25 12.6123 21.25 10.543C21.25 8.22232 20.3281 5.99673 18.6872 4.35578C17.0462 2.71484 14.8206 1.79297 12.5 1.79297V1.79297Z" stroke="#E64545" stroke-width="2" stroke-linecap="round" stroke-linejoin="round"/>
<path d="M12.5013 12.0026C13.3067 12.0026 13.9596 11.3497 13.9596 10.5443C13.9596 9.73886 13.3067 9.08594 12.5013 9.08594C11.6959 9.08594 11.043 9.73886 11.043 10.5443C11.043 11.3497 11.6959 12.0026 12.5013 12.0026Z" fill="#E64545" stroke="#E64545" stroke-width="2" stroke-linecap="round" stroke-linejoin="round"/>
</g>
<defs>
<clipPath id="clip0_903_1061">
<rect width="25" height="25" fill="white" transform="translate(0 0.5)"/>
</clipPath>
</defs>
</svg>
