<svg width="400" height="52" viewBox="0 0 400 52" fill="none" xmlns="http://www.w3.org/2000/svg">
<path d="M95.4053 49.268V39.8739H99.3833V41.1381H97.1101V49.268H95.4053Z" fill="black"/>
<path d="M100.343 49.268V39.8739H101.747V45.8003L104.321 39.8739H105.469V49.268H104.055V43.2488L101.468 49.268H100.343Z" fill="black"/>
<path d="M106.378 51.1352V48.0502H106.715C106.869 47.9652 107.016 47.8531 107.155 47.7139C107.302 47.567 107.434 47.3737 107.55 47.134C107.666 46.8943 107.77 46.5889 107.863 46.2178C107.963 45.839 108.048 45.3789 108.118 44.8377C108.195 44.2965 108.253 43.6547 108.292 42.9125L108.501 39.8739H112.653V48.0502H113.638V51.1352H112.444L112.339 49.268H107.712L107.596 51.1352H106.378ZM108.315 48.0502H111.029V41.1033H109.846L109.742 43.1792C109.711 43.9215 109.66 44.5516 109.591 45.0696C109.521 45.5799 109.44 46.0052 109.347 46.3454C109.254 46.6779 109.15 46.9485 109.034 47.1572C108.926 47.366 108.81 47.5361 108.686 47.6675C108.562 47.799 108.439 47.9265 108.315 48.0502Z" fill="black"/>
<path d="M114.579 49.268V39.8739H117.34C117.904 39.8739 118.36 39.9783 118.708 40.187C119.064 40.3958 119.323 40.7012 119.485 41.1033C119.655 41.4976 119.74 41.9769 119.74 42.5414C119.74 43.1522 119.636 43.647 119.427 44.0259C119.218 44.397 118.925 44.6676 118.546 44.8377C118.175 45.0078 117.734 45.0928 117.224 45.0928H116.296V49.268H114.579ZM116.296 43.8867H116.945C117.255 43.8867 117.494 43.8442 117.664 43.7591C117.842 43.6663 117.962 43.5233 118.024 43.33C118.093 43.129 118.128 42.8622 118.128 42.5298C118.128 42.1896 118.101 41.9151 118.047 41.7063C118.001 41.4898 117.892 41.3313 117.722 41.2308C117.56 41.1303 117.301 41.0801 116.945 41.0801H116.296V43.8867Z" fill="black"/>
<path d="M120.05 49.268L121.929 39.8739H123.761L125.64 49.268H124.051L123.68 47.0992H122.045L121.662 49.268H120.05ZM122.219 46.0091H123.494L122.857 42.0659L122.219 46.0091Z" fill="black"/>
<path d="M126.585 49.268V39.8739H128.893C129.31 39.8739 129.685 39.9126 130.018 39.9899C130.358 40.0672 130.648 40.1986 130.887 40.3842C131.135 40.562 131.324 40.8056 131.456 41.1149C131.587 41.4241 131.653 41.8146 131.653 42.2862C131.653 42.6651 131.599 42.9898 131.49 43.2604C131.39 43.531 131.239 43.7475 131.038 43.9099C130.837 44.0645 130.586 44.1689 130.284 44.223C130.655 44.2849 130.961 44.4163 131.201 44.6173C131.448 44.8106 131.63 45.0658 131.746 45.3828C131.869 45.6998 131.931 46.0825 131.931 46.531C131.931 46.9794 131.873 47.3776 131.757 47.7255C131.649 48.0657 131.483 48.3518 131.259 48.5837C131.042 48.808 130.768 48.9781 130.435 49.094C130.11 49.21 129.728 49.268 129.287 49.268H126.585ZM128.301 48.0618H128.951C129.469 48.0618 129.82 47.9381 130.006 47.6907C130.192 47.4356 130.284 47.0451 130.284 46.5194C130.284 46.1405 130.238 45.8351 130.145 45.6031C130.06 45.3635 129.913 45.1856 129.704 45.0696C129.503 44.9537 129.233 44.8957 128.893 44.8957H128.301V48.0618ZM128.301 43.7127H128.881C129.221 43.7127 129.484 43.6625 129.67 43.562C129.855 43.4614 129.983 43.3068 130.052 43.0981C130.13 42.8893 130.168 42.6264 130.168 42.3094C130.168 41.9769 130.11 41.7218 129.994 41.544C129.886 41.3584 129.72 41.2347 129.496 41.1728C129.271 41.1033 128.985 41.0685 128.637 41.0685H128.301V43.7127Z" fill="black"/>
<path d="M132.391 49.268V48.0386C132.607 48.0464 132.789 48.0348 132.936 48.0039C133.091 47.9652 133.218 47.884 133.319 47.7603C133.427 47.6366 133.516 47.4472 133.585 47.192C133.655 46.9291 133.713 46.5773 133.759 46.1366C133.806 45.6959 133.856 45.1354 133.91 44.455L134.212 39.8739H138.781V49.268H137.076V41.1612H135.731L135.522 44.6637C135.476 45.3519 135.422 45.9588 135.36 46.4846C135.306 47.0103 135.217 47.4588 135.093 47.8299C134.977 48.1933 134.811 48.4871 134.594 48.7113C134.378 48.9355 134.092 49.094 133.736 49.1868C133.381 49.2719 132.932 49.2989 132.391 49.268Z" fill="black"/>
<path d="M140.255 49.268V39.8739H141.659V45.8003L144.233 39.8739H145.382V49.268H143.967V43.2488L141.38 49.268H140.255Z" fill="black"/>
<path d="M150.408 49.268V45.174C149.959 45.2591 149.542 45.3016 149.155 45.3016C148.66 45.3016 148.223 45.2204 147.845 45.0581C147.473 44.888 147.18 44.6367 146.963 44.3042C146.754 43.9717 146.65 43.562 146.65 43.0749V39.8739H148.366V43.0749C148.366 43.3145 148.397 43.5233 148.459 43.7011C148.521 43.8712 148.641 44.0027 148.819 44.0954C148.997 44.1805 149.248 44.223 149.573 44.223C149.696 44.223 149.828 44.2192 149.967 44.2114C150.106 44.196 150.253 44.1728 150.408 44.1418V39.8739H152.112V49.268H150.408Z" fill="black"/>
<path d="M153.551 49.268V39.8739H157.495V41.0801H155.268V43.7823H157.019V44.9769H155.268V48.085H157.518V49.268H153.551Z" fill="black"/>
<path d="M161.04 49.3956C160.352 49.3956 159.811 49.2603 159.417 48.9896C159.03 48.719 158.76 48.3518 158.605 47.8879C158.45 47.4162 158.373 46.875 158.373 46.2642V42.9125C158.373 42.2708 158.45 41.7141 158.605 41.2424C158.76 40.7708 159.03 40.4074 159.417 40.1523C159.811 39.8971 160.352 39.7695 161.04 39.7695C161.69 39.7695 162.196 39.8816 162.56 40.1059C162.931 40.3224 163.194 40.6355 163.348 41.0453C163.503 41.4551 163.58 41.9306 163.58 42.4718V43.2604H161.933V42.4486C161.933 42.1857 161.918 41.946 161.887 41.7295C161.864 41.513 161.79 41.3429 161.667 41.2192C161.551 41.0878 161.346 41.0221 161.052 41.0221C160.758 41.0221 160.542 41.0917 160.403 41.2308C160.271 41.3623 160.186 41.544 160.147 41.7759C160.109 42.0001 160.089 42.2553 160.089 42.5414V46.6237C160.089 46.9639 160.117 47.2461 160.171 47.4704C160.225 47.6868 160.321 47.8531 160.461 47.9691C160.607 48.0773 160.805 48.1314 161.052 48.1314C161.338 48.1314 161.539 48.0657 161.655 47.9343C161.779 47.7951 161.856 47.6134 161.887 47.3892C161.918 47.165 161.933 46.9137 161.933 46.6353V45.7887H163.58V46.5425C163.58 47.0992 163.507 47.5941 163.36 48.027C163.213 48.4523 162.954 48.7886 162.583 49.036C162.22 49.2757 161.705 49.3956 161.04 49.3956Z" fill="black"/>
<path d="M164.799 49.268V39.8739H166.503V43.8171H166.851L168.371 39.8739H170.075L168.289 44.3042L170.215 49.268H168.475L166.851 44.9421H166.503V49.268H164.799Z" fill="black"/>
<path d="M173.601 49.3956C172.936 49.3956 172.407 49.2719 172.012 49.0244C171.618 48.777 171.336 48.4214 171.166 47.9575C170.996 47.4936 170.911 46.9446 170.911 46.3106V42.7965C170.911 42.1625 170.996 41.6213 171.166 41.1728C171.336 40.7167 171.618 40.3687 172.012 40.1291C172.407 39.8894 172.936 39.7695 173.601 39.7695C174.282 39.7695 174.815 39.8894 175.202 40.1291C175.596 40.3687 175.878 40.7167 176.048 41.1728C176.226 41.6213 176.315 42.1625 176.315 42.7965V46.3222C176.315 46.9485 176.226 47.4936 176.048 47.9575C175.878 48.4136 175.596 48.7693 175.202 49.0244C174.815 49.2719 174.282 49.3956 173.601 49.3956ZM173.601 48.1314C173.887 48.1314 174.096 48.0696 174.228 47.9459C174.367 47.8222 174.46 47.6521 174.506 47.4356C174.552 47.2191 174.576 46.9833 174.576 46.7281V42.4022C174.576 42.1393 174.552 41.9035 174.506 41.6947C174.46 41.486 174.367 41.3236 174.228 41.2076C174.096 41.0839 173.887 41.0221 173.601 41.0221C173.331 41.0221 173.126 41.0839 172.987 41.2076C172.847 41.3236 172.755 41.486 172.708 41.6947C172.662 41.9035 172.639 42.1393 172.639 42.4022V46.7281C172.639 46.9833 172.658 47.2191 172.697 47.4356C172.743 47.6521 172.836 47.8222 172.975 47.9459C173.114 48.0696 173.323 48.1314 173.601 48.1314Z" fill="black"/>
<path d="M177.585 49.268V39.8739H181.528V41.0801H179.301V43.7823H181.053V44.9769H179.301V48.085H181.551V49.268H177.585Z" fill="black"/>
<path d="M187.917 49.3956C187.252 49.3956 186.723 49.2719 186.328 49.0244C185.934 48.777 185.652 48.4214 185.482 47.9575C185.312 47.4936 185.226 46.9446 185.226 46.3106V42.7965C185.226 42.1625 185.312 41.6213 185.482 41.1728C185.652 40.7167 185.934 40.3687 186.328 40.1291C186.723 39.8894 187.252 39.7695 187.917 39.7695C188.598 39.7695 189.131 39.8894 189.518 40.1291C189.912 40.3687 190.194 40.7167 190.364 41.1728C190.542 41.6213 190.631 42.1625 190.631 42.7965V46.3222C190.631 46.9485 190.542 47.4936 190.364 47.9575C190.194 48.4136 189.912 48.7693 189.518 49.0244C189.131 49.2719 188.598 49.3956 187.917 49.3956ZM187.917 48.1314C188.203 48.1314 188.412 48.0696 188.543 47.9459C188.683 47.8222 188.775 47.6521 188.822 47.4356C188.868 47.2191 188.891 46.9833 188.891 46.7281V42.4022C188.891 42.1393 188.868 41.9035 188.822 41.6947C188.775 41.486 188.683 41.3236 188.543 41.2076C188.412 41.0839 188.203 41.0221 187.917 41.0221C187.647 41.0221 187.442 41.0839 187.302 41.2076C187.163 41.3236 187.071 41.486 187.024 41.6947C186.978 41.9035 186.955 42.1393 186.955 42.4022V46.7281C186.955 46.9833 186.974 47.2191 187.013 47.4356C187.059 47.6521 187.152 47.8222 187.291 47.9459C187.43 48.0696 187.639 48.1314 187.917 48.1314Z" fill="black"/>
<path d="M191.924 49.268V39.8739H196.285V41.1496H193.629V43.8171H194C194.634 43.8171 195.163 43.906 195.589 44.0839C196.022 44.254 196.346 44.54 196.563 44.9421C196.779 45.3364 196.888 45.8699 196.888 46.5425C196.888 47.0683 196.822 47.509 196.69 47.8647C196.559 48.2126 196.362 48.491 196.099 48.6997C195.844 48.9085 195.535 49.0554 195.171 49.1404C194.808 49.2255 194.394 49.268 193.93 49.268H191.924ZM193.629 48.1082H193.942C194.267 48.1082 194.529 48.0618 194.73 47.9691C194.932 47.8763 195.078 47.7139 195.171 47.482C195.264 47.2423 195.306 46.9175 195.299 46.5078C195.291 46.0207 195.191 45.6495 194.997 45.3944C194.812 45.1392 194.452 45.0117 193.919 45.0117H193.629V48.1082Z" fill="black"/>
<path d="M200.545 49.3956C199.88 49.3956 199.351 49.2719 198.957 49.0244C198.562 48.777 198.28 48.4214 198.11 47.9575C197.94 47.4936 197.855 46.9446 197.855 46.3106V42.7965C197.855 42.1625 197.94 41.6213 198.11 41.1728C198.28 40.7167 198.562 40.3687 198.957 40.1291C199.351 39.8894 199.88 39.7695 200.545 39.7695C201.226 39.7695 201.759 39.8894 202.146 40.1291C202.54 40.3687 202.822 40.7167 202.993 41.1728C203.17 41.6213 203.259 42.1625 203.259 42.7965V46.3222C203.259 46.9485 203.17 47.4936 202.993 47.9575C202.822 48.4136 202.54 48.7693 202.146 49.0244C201.759 49.2719 201.226 49.3956 200.545 49.3956ZM200.545 48.1314C200.831 48.1314 201.04 48.0696 201.172 47.9459C201.311 47.8222 201.404 47.6521 201.45 47.4356C201.496 47.2191 201.52 46.9833 201.52 46.7281V42.4022C201.52 42.1393 201.496 41.9035 201.45 41.6947C201.404 41.486 201.311 41.3236 201.172 41.2076C201.04 41.0839 200.831 41.0221 200.545 41.0221C200.275 41.0221 200.07 41.0839 199.931 41.2076C199.792 41.3236 199.699 41.486 199.652 41.6947C199.606 41.9035 199.583 42.1393 199.583 42.4022V46.7281C199.583 46.9833 199.602 47.2191 199.641 47.4356C199.687 47.6521 199.78 47.8222 199.919 47.9459C200.058 48.0696 200.267 48.1314 200.545 48.1314Z" fill="black"/>
<path d="M204.529 49.268V39.8739H207.289C207.854 39.8739 208.31 39.9783 208.658 40.187C209.013 40.3958 209.272 40.7012 209.435 41.1033C209.605 41.4976 209.69 41.9769 209.69 42.5414C209.69 43.1522 209.586 43.647 209.377 44.0259C209.168 44.397 208.874 44.6676 208.495 44.8377C208.124 45.0078 207.683 45.0928 207.173 45.0928H206.245V49.268H204.529ZM206.245 43.8867H206.895C207.204 43.8867 207.444 43.8442 207.614 43.7591C207.792 43.6663 207.912 43.5233 207.973 43.33C208.043 43.129 208.078 42.8622 208.078 42.5298C208.078 42.1896 208.051 41.9151 207.997 41.7063C207.95 41.4898 207.842 41.3313 207.672 41.2308C207.51 41.1303 207.251 41.0801 206.895 41.0801H206.245V43.8867Z" fill="black"/>
<path d="M210.552 50.9149V49.7203C210.915 49.7435 211.213 49.7358 211.445 49.6971C211.685 49.6584 211.866 49.5811 211.99 49.4652C212.114 49.3492 212.187 49.1945 212.211 49.0012C212.234 48.8002 212.218 48.5567 212.164 48.2706L210.181 39.8739H211.77L212.57 43.8055L212.999 46.5425L213.347 43.8055L214.043 39.8739H215.655L213.834 48.4446C213.749 48.8466 213.66 49.1907 213.567 49.4768C213.482 49.7706 213.37 50.0141 213.231 50.2074C213.1 50.4084 212.922 50.5631 212.698 50.6713C212.473 50.7796 212.187 50.8491 211.839 50.8801C211.492 50.9187 211.062 50.9303 210.552 50.9149Z" fill="black"/>
<path d="M215.423 51.1352V48.0502H215.76C215.914 47.9652 216.061 47.8531 216.2 47.7139C216.347 47.567 216.479 47.3737 216.595 47.134C216.711 46.8943 216.815 46.5889 216.908 46.2178C217.008 45.839 217.093 45.3789 217.163 44.8377C217.24 44.2965 217.298 43.6547 217.337 42.9125L217.546 39.8739H221.698V48.0502H222.683V51.1352H221.489L221.384 49.268H216.757L216.641 51.1352H215.423ZM217.36 48.0502H220.074V41.1033H218.891L218.787 43.1792C218.756 43.9215 218.705 44.5516 218.636 45.0696C218.566 45.5799 218.485 46.0052 218.392 46.3454C218.299 46.6779 218.195 46.9485 218.079 47.1572C217.971 47.366 217.855 47.5361 217.731 47.6675C217.607 47.799 217.484 47.9265 217.36 48.0502Z" fill="black"/>
<path d="M226.176 49.3956C225.511 49.3956 224.981 49.2719 224.587 49.0244C224.193 48.777 223.91 48.4214 223.74 47.9575C223.57 47.4936 223.485 46.9446 223.485 46.3106V42.7965C223.485 42.1625 223.57 41.6213 223.74 41.1728C223.91 40.7167 224.193 40.3687 224.587 40.1291C224.981 39.8894 225.511 39.7695 226.176 39.7695C226.856 39.7695 227.39 39.8894 227.776 40.1291C228.171 40.3687 228.453 40.7167 228.623 41.1728C228.801 41.6213 228.89 42.1625 228.89 42.7965V46.3222C228.89 46.9485 228.801 47.4936 228.623 47.9575C228.453 48.4136 228.171 48.7693 227.776 49.0244C227.39 49.2719 226.856 49.3956 226.176 49.3956ZM226.176 48.1314C226.462 48.1314 226.671 48.0696 226.802 47.9459C226.941 47.8222 227.034 47.6521 227.08 47.4356C227.127 47.2191 227.15 46.9833 227.15 46.7281V42.4022C227.15 42.1393 227.127 41.9035 227.08 41.6947C227.034 41.486 226.941 41.3236 226.802 41.2076C226.671 41.0839 226.462 41.0221 226.176 41.0221C225.905 41.0221 225.7 41.0839 225.561 41.2076C225.422 41.3236 225.329 41.486 225.283 41.6947C225.236 41.9035 225.213 42.1393 225.213 42.4022V46.7281C225.213 46.9833 225.232 47.2191 225.271 47.4356C225.318 47.6521 225.41 47.8222 225.549 47.9459C225.689 48.0696 225.897 48.1314 226.176 48.1314Z" fill="black"/>
<path d="M230.159 49.268V39.8739H232.467C232.885 39.8739 233.26 39.9126 233.592 39.9899C233.932 40.0672 234.222 40.1986 234.462 40.3842C234.709 40.562 234.899 40.8056 235.03 41.1149C235.162 41.4241 235.227 41.8146 235.227 42.2862C235.227 42.6651 235.173 42.9898 235.065 43.2604C234.965 43.531 234.814 43.7475 234.613 43.9099C234.412 44.0645 234.16 44.1689 233.859 44.223C234.23 44.2849 234.535 44.4163 234.775 44.6173C235.023 44.8106 235.204 45.0658 235.32 45.3828C235.444 45.6998 235.506 46.0825 235.506 46.531C235.506 46.9794 235.448 47.3776 235.332 47.7255C235.224 48.0657 235.057 48.3518 234.833 48.5837C234.617 48.808 234.342 48.9781 234.01 49.094C233.685 49.21 233.302 49.268 232.862 49.268H230.159ZM231.876 48.0618H232.525C233.043 48.0618 233.395 47.9381 233.581 47.6907C233.766 47.4356 233.859 47.0451 233.859 46.5194C233.859 46.1405 233.813 45.8351 233.72 45.6031C233.635 45.3635 233.488 45.1856 233.279 45.0696C233.078 44.9537 232.807 44.8957 232.467 44.8957H231.876V48.0618ZM231.876 43.7127H232.456C232.796 43.7127 233.059 43.6625 233.244 43.562C233.43 43.4614 233.557 43.3068 233.627 43.0981C233.704 42.8893 233.743 42.6264 233.743 42.3094C233.743 41.9769 233.685 41.7218 233.569 41.544C233.461 41.3584 233.294 41.2347 233.07 41.1728C232.846 41.1033 232.56 41.0685 232.212 41.0685H231.876V43.7127Z" fill="black"/>
<path d="M236.139 49.268L238.018 39.8739H239.851L241.73 49.268H240.141L239.77 47.0992H238.134L237.752 49.268H236.139ZM238.308 46.0091H239.584L238.946 42.0659L238.308 46.0091Z" fill="black"/>
<path d="M242.697 49.268V39.8739H244.402V43.8055H246.316V39.8739H248.032V49.268H246.316V45.0233H244.402V49.268H242.697Z" fill="black"/>
<path d="M249.493 49.268V39.8739H250.896V45.8003L253.471 39.8739H254.619V49.268H253.204V43.2488L250.618 49.268H249.493Z" fill="black"/>
<path d="M256.061 49.268V39.8739H260.005V41.0801H257.778V43.7823H259.529V44.9769H257.778V48.085H260.028V49.268H256.061Z" fill="black"/>
<path d="M263.865 49.268V39.8739H265.269V45.8003L267.843 39.8739H268.992V49.268H267.577V43.2488L264.99 49.268H263.865Z" fill="black"/>
<path d="M273.277 49.268V39.8739H274.68V45.8003L277.255 39.8739H278.403V49.268H276.988V43.2488L274.402 49.268H273.277Z" fill="black"/>
<path d="M282.374 49.3956C281.686 49.3956 281.145 49.2603 280.75 48.9896C280.364 48.719 280.093 48.3518 279.938 47.8879C279.784 47.4162 279.706 46.875 279.706 46.2642V42.9125C279.706 42.2708 279.784 41.7141 279.938 41.2424C280.093 40.7708 280.364 40.4074 280.75 40.1523C281.145 39.8971 281.686 39.7695 282.374 39.7695C283.023 39.7695 283.53 39.8816 283.893 40.1059C284.264 40.3224 284.527 40.6355 284.682 41.0453C284.836 41.4551 284.914 41.9306 284.914 42.4718V43.2604H283.267V42.4486C283.267 42.1857 283.251 41.946 283.221 41.7295C283.197 41.513 283.124 41.3429 283 41.2192C282.884 41.0878 282.679 41.0221 282.385 41.0221C282.092 41.0221 281.875 41.0917 281.736 41.2308C281.605 41.3623 281.52 41.544 281.481 41.7759C281.442 42.0001 281.423 42.2553 281.423 42.5414V46.6237C281.423 46.9639 281.45 47.2461 281.504 47.4704C281.558 47.6868 281.655 47.8531 281.794 47.9691C281.941 48.0773 282.138 48.1314 282.385 48.1314C282.672 48.1314 282.873 48.0657 282.989 47.9343C283.112 47.7951 283.19 47.6134 283.221 47.3892C283.251 47.165 283.267 46.9137 283.267 46.6353V45.7887H284.914V46.5425C284.914 47.0992 284.84 47.5941 284.693 48.027C284.547 48.4523 284.287 48.7886 283.916 49.036C283.553 49.2757 283.039 49.3956 282.374 49.3956Z" fill="black"/>
<path d="M286.109 49.268V39.8739H291.525V49.268H289.832V41.0917H287.802V49.268H286.109Z" fill="black"/>
<path d="M292.961 49.268V39.8739H294.666V43.8171H295.084C295.726 43.8171 296.259 43.906 296.684 44.0839C297.11 44.254 297.43 44.54 297.647 44.9421C297.863 45.3364 297.972 45.8699 297.972 46.5425C297.972 47.0683 297.902 47.509 297.763 47.8647C297.631 48.2126 297.438 48.491 297.183 48.6997C296.928 48.9085 296.619 49.0554 296.255 49.1404C295.892 49.2255 295.478 49.268 295.014 49.268H292.961ZM294.666 48.1082H295.026C295.351 48.1082 295.613 48.0618 295.814 47.9691C296.015 47.8763 296.162 47.7139 296.255 47.482C296.348 47.2423 296.39 46.9175 296.383 46.5078C296.383 46.0207 296.286 45.6495 296.093 45.3944C295.9 45.1392 295.536 45.0117 295.003 45.0117H294.666V48.1082ZM298.853 49.268V39.8739H300.558V49.268H298.853Z" fill="black"/>
<path d="M302.938 49.268V41.1381H301.442V39.8739H306.128V41.1381H304.655V49.268H302.938Z" fill="black"/>
<path d="M306.507 49.268L308.386 39.8739H310.218L312.097 49.268H310.508L310.137 47.0992H308.502L308.119 49.268H306.507ZM308.676 46.0091H309.951L309.313 42.0659L308.676 46.0091Z" fill="black"/>
<path d="M313.754 49.268V41.1381H312.258V39.8739H316.944V41.1381H315.471V49.268H313.754Z" fill="black"/>
<path d="M317.798 49.268V39.8739H321.742V41.0801H319.515V43.7823H321.266V44.9769H319.515V48.085H321.765V49.268H317.798Z" fill="black"/>
<path d="M322.11 49.268V48.0386C322.326 48.0464 322.508 48.0348 322.655 48.0039C322.809 47.9652 322.937 47.884 323.037 47.7603C323.146 47.6366 323.235 47.4472 323.304 47.192C323.374 46.9291 323.432 46.5773 323.478 46.1366C323.525 45.6959 323.575 45.1354 323.629 44.455L323.93 39.8739H328.5V49.268H326.795V41.1612H325.45L325.241 44.6637C325.195 45.3519 325.14 45.9588 325.079 46.4846C325.025 47.0103 324.936 47.4588 324.812 47.8299C324.696 48.1933 324.53 48.4871 324.313 48.7113C324.097 48.9355 323.811 49.094 323.455 49.1868C323.099 49.2719 322.651 49.2989 322.11 49.268Z" fill="black"/>
<path d="M329.974 49.268V39.8739H331.679V43.8171H332.097C332.731 43.8171 333.26 43.906 333.685 44.0839C334.111 44.254 334.432 44.54 334.648 44.9421C334.865 45.3364 334.973 45.8699 334.973 46.5425C334.973 47.0683 334.907 47.509 334.776 47.8647C334.644 48.2126 334.447 48.491 334.184 48.6997C333.929 48.9085 333.62 49.0554 333.256 49.1404C332.893 49.2255 332.483 49.268 332.027 49.268H329.974ZM331.679 48.1082H332.027C332.359 48.1082 332.622 48.0618 332.816 47.9691C333.017 47.8763 333.164 47.7139 333.256 47.482C333.349 47.2423 333.395 46.9175 333.395 46.5078C333.388 46.0207 333.287 45.6495 333.094 45.3944C332.908 45.1392 332.545 45.0117 332.004 45.0117H331.679V48.1082Z" fill="black"/>
<path d="M336.079 49.268V39.8739H337.784V43.8055H339.697V39.8739H341.414V49.268H339.697V45.0233H337.784V49.268H336.079Z" fill="black"/>
<path d="M342.874 49.268V39.8739H344.579V43.8171H344.997C345.638 43.8171 346.172 43.906 346.597 44.0839C347.022 44.254 347.343 44.54 347.56 44.9421C347.776 45.3364 347.884 45.8699 347.884 46.5425C347.884 47.0683 347.815 47.509 347.676 47.8647C347.544 48.2126 347.351 48.491 347.096 48.6997C346.841 48.9085 346.531 49.0554 346.168 49.1404C345.805 49.2255 345.391 49.268 344.927 49.268H342.874ZM344.579 48.1082H344.939C345.263 48.1082 345.526 48.0618 345.727 47.9691C345.928 47.8763 346.075 47.7139 346.168 47.482C346.261 47.2423 346.303 46.9175 346.296 46.5078C346.296 46.0207 346.199 45.6495 346.006 45.3944C345.812 45.1392 345.449 45.0117 344.915 45.0117H344.579V48.1082ZM348.766 49.268V39.8739H350.471V49.268H348.766Z" fill="black"/>
<path d="M351.912 49.268V39.8739H355.855V41.0801H353.628V43.7823H355.379V44.9769H353.628V48.085H355.878V49.268H351.912Z" fill="black"/>
<path d="M362.221 49.3956C361.533 49.3956 360.992 49.2603 360.597 48.9896C360.211 48.719 359.94 48.3518 359.785 47.8879C359.631 47.4162 359.553 46.875 359.553 46.2642V42.9125C359.553 42.2708 359.631 41.7141 359.785 41.2424C359.94 40.7708 360.211 40.4074 360.597 40.1523C360.992 39.8971 361.533 39.7695 362.221 39.7695C362.87 39.7695 363.377 39.8816 363.74 40.1059C364.111 40.3224 364.374 40.6355 364.529 41.0453C364.683 41.4551 364.761 41.9306 364.761 42.4718V43.2604H363.114V42.4486C363.114 42.1857 363.098 41.946 363.068 41.7295C363.044 41.513 362.971 41.3429 362.847 41.2192C362.731 41.0878 362.526 41.0221 362.232 41.0221C361.939 41.0221 361.722 41.0917 361.583 41.2308C361.452 41.3623 361.366 41.544 361.328 41.7759C361.289 42.0001 361.27 42.2553 361.27 42.5414V46.6237C361.27 46.9639 361.297 47.2461 361.351 47.4704C361.405 47.6868 361.502 47.8531 361.641 47.9691C361.788 48.0773 361.985 48.1314 362.232 48.1314C362.519 48.1314 362.72 48.0657 362.836 47.9343C362.959 47.7951 363.037 47.6134 363.068 47.3892C363.098 47.165 363.114 46.9137 363.114 46.6353V45.7887H364.761V46.5425C364.761 47.0992 364.687 47.5941 364.54 48.027C364.393 48.4523 364.134 48.7886 363.763 49.036C363.4 49.2757 362.886 49.3956 362.221 49.3956Z" fill="black"/>
<path d="M366.895 49.268V41.1381H365.399V39.8739H370.085V41.1381H368.612V49.268H366.895Z" fill="black"/>
<path d="M370.939 49.268V39.8739H374.882V41.0801H372.656V43.7823H374.407V44.9769H372.656V48.085H374.905V49.268H370.939Z" fill="black"/>
<path d="M375.923 49.268V39.8739H377.628V43.8055H379.541V39.8739H381.258V49.268H379.541V45.0233H377.628V49.268H375.923Z" fill="black"/>
<path d="M382.162 51.1352V48.0502H382.498C382.653 47.9652 382.8 47.8531 382.939 47.7139C383.086 47.567 383.217 47.3737 383.333 47.134C383.449 46.8943 383.553 46.5889 383.646 46.2178C383.747 45.839 383.832 45.3789 383.901 44.8377C383.979 44.2965 384.037 43.6547 384.075 42.9125L384.284 39.8739H388.436V48.0502H389.422V51.1352H388.227L388.123 49.268H383.496L383.38 51.1352H382.162ZM384.099 48.0502H386.812V41.1033H385.629L385.525 43.1792C385.494 43.9215 385.444 44.5516 385.374 45.0696C385.305 45.5799 385.224 46.0052 385.131 46.3454C385.038 46.6779 384.934 46.9485 384.818 47.1572C384.709 47.366 384.593 47.5361 384.47 47.6675C384.346 47.799 384.222 47.9265 384.099 48.0502Z" fill="black"/>
<path d="M390.386 49.268V39.8739H392.091V43.8171H392.508C393.15 43.8171 393.684 43.906 394.109 44.0839C394.534 44.254 394.855 44.54 395.072 44.9421C395.288 45.3364 395.396 45.8699 395.396 46.5425C395.396 47.0683 395.327 47.509 395.188 47.8647C395.056 48.2126 394.863 48.491 394.608 48.6997C394.352 48.9085 394.043 49.0554 393.68 49.1404C393.316 49.2255 392.903 49.268 392.439 49.268H390.386ZM392.091 48.1082H392.45C392.775 48.1082 393.038 48.0618 393.239 47.9691C393.44 47.8763 393.587 47.7139 393.68 47.482C393.773 47.2423 393.815 46.9175 393.807 46.5078C393.807 46.0207 393.711 45.6495 393.517 45.3944C393.324 45.1392 392.961 45.0117 392.427 45.0117H392.091V48.1082ZM396.278 49.268V39.8739H397.983V49.268H396.278Z" fill="black"/>
<path d="M0 5.59896C0 2.9846 2.11936 0.865234 4.73373 0.865234H82.8402V34.0013H4.73373C2.11936 34.0013 0 31.882 0 29.2676V5.59896Z" fill="#E54545"/>
<path d="M400 29.2682C400 31.8826 397.881 34.002 395.266 34.002L82.8402 34.0019L82.8402 0.865859L395.266 0.865886C397.881 0.865887 400 2.98525 400 5.59961L400 29.2682Z" fill="black"/>
<g filter="url(#filter0_i_940_8554)">
<path d="M11.8345 6.19141H16.5682V28.6766H11.8345V6.19141Z" fill="white"/>
<path d="M33.1357 6.19141H37.8695V28.6766H33.1357V6.19141Z" fill="white"/>
<path d="M54.4375 6.19141H59.1712V28.6766H55.6209C54.9673 28.6766 54.4375 28.1468 54.4375 27.4932V6.19141Z" fill="white"/>
<path d="M23.6689 6.19141H27.2192C27.8728 6.19141 28.4027 6.72125 28.4027 7.37484V27.4932C28.4027 28.1468 27.8728 28.6766 27.2192 28.6766H23.6689V6.19141Z" fill="white"/>
<path d="M44.9702 6.19141H48.5205C49.1741 6.19141 49.7039 6.72125 49.7039 7.37484V27.4932C49.7039 28.1468 49.1741 28.6766 48.5205 28.6766H44.9702V6.19141Z" fill="white"/>
<path d="M66.2617 6.19141H69.8225C70.4761 6.19141 71.0059 6.72125 71.0059 7.37484V27.4932C71.0059 28.1468 70.4761 28.6766 69.8225 28.6766L66.2617 28.6635V6.19141Z" fill="white"/>
<path d="M24.8521 15.0664L24.8521 19.8001L16.568 19.8001L16.568 15.0664L24.8521 15.0664Z" fill="white"/>
<path d="M48.5207 6.19141C49.1743 6.19141 49.7041 6.72125 49.7041 7.37484L49.7041 10.9251L37.8698 10.9251L37.8698 6.19141L48.5207 6.19141Z" fill="white"/>
<path d="M66.2615 6.19141L66.272 10.9251L55.6211 10.9251L55.6211 6.19141L66.2615 6.19141Z" fill="white"/>
<path d="M66.2617 23.9297L66.2617 27.48C66.2617 28.1336 66.2617 28.4267 66.2617 28.6634L59.1611 28.6634L59.1611 23.9297L66.2617 23.9297Z" fill="white"/>
</g>
<g filter="url(#filter1_i_940_8554)">
<path d="M328.994 6.19141H333.728V28.6766H328.994V6.19141Z" fill="white"/>
<path d="M243.787 6.19141H248.52V28.6766H243.787V6.19141Z" fill="white"/>
<path d="M158.58 6.19141H163.313V28.6766H159.763C159.109 28.6766 158.58 28.1468 158.58 27.4932V6.19141Z" fill="white"/>
<path d="M350.295 6.19141H355.029V28.6766H351.479C350.825 28.6766 350.295 28.1468 350.295 27.4932V6.19141Z" fill="white"/>
<path d="M222.485 7.37484C222.485 6.72125 223.015 6.19141 223.668 6.19141H227.219V28.6766H223.668C223.015 28.6766 222.485 28.1468 222.485 27.4932V7.37484Z" fill="white"/>
<path d="M286.39 7.37484C286.39 6.72125 286.92 6.19141 287.574 6.19141H291.124V20.7476H287.574C286.92 20.7476 286.39 20.2178 286.39 19.5642V7.37484Z" fill="white"/>
<path d="M340.828 6.19141H344.378C345.032 6.19141 345.562 6.72125 345.562 7.37484V27.4932C345.562 28.1468 345.032 28.6766 344.378 28.6766H340.828V6.19141Z" fill="white"/>
<path d="M255.621 6.19141H259.171C259.825 6.19141 260.355 6.72125 260.355 7.37484V27.4932C260.355 28.1468 259.825 28.6766 259.171 28.6766H255.621V6.19141Z" fill="white"/>
<path d="M298.225 6.19141H301.775C302.428 6.19141 302.958 6.72125 302.958 7.37484V27.4932C302.958 28.1468 302.428 28.6766 301.775 28.6766H298.225V6.19141Z" fill="white"/>
<path d="M362.13 6.19141H365.68C366.334 6.19141 366.864 6.72125 366.864 7.37484V27.4932C366.864 28.1468 366.334 28.6766 365.68 28.6766H362.13V6.19141Z" fill="white"/>
<path d="M137.278 7.37484C137.278 6.72125 137.808 6.19141 138.462 6.19141H142.367V28.6766H138.462C137.808 28.6766 137.278 28.1468 137.278 27.4932V20.6462L139.882 18.3808L137.278 14.2218V7.37484Z" fill="white"/>
<path d="M153.846 27.4923C153.846 28.1459 153.316 28.6758 152.662 28.6758L149.112 28.6758L149.112 6.19057L152.662 6.19057C153.316 6.19057 153.846 6.72042 153.846 7.37401L153.846 14.221L151.242 18.3799L153.846 20.6454L153.846 27.4923Z" fill="white"/>
<path d="M100.591 10.9258H105.325V28.6773H100.591V10.9258Z" fill="white"/>
<path d="M115.976 10.9258H120.71V23.9435H115.976V10.9258Z" fill="white"/>
<path d="M201.184 10.9258H205.917V28.6773H202.367C201.713 28.6773 201.184 28.1474 201.184 27.4938V10.9258Z" fill="white"/>
<path d="M265.089 10.9258H269.823V28.6773H266.272C265.619 28.6773 265.089 28.1474 265.089 27.4938V10.9258Z" fill="white"/>
<path d="M307.692 10.9258H312.426V28.6773H308.876C308.222 28.6773 307.692 28.1474 307.692 27.4938V10.9258Z" fill="white"/>
<path d="M371.598 10.9258H376.331V28.6773H372.781C372.127 28.6773 371.598 28.1474 371.598 27.4938V10.9258Z" fill="white"/>
<path d="M179.881 6.19141H184.615V28.6766H181.065C180.411 28.6766 179.881 28.1468 179.881 27.4932V6.19141Z" fill="white"/>
<path d="M196.45 27.4923C196.45 28.1459 195.92 28.6758 195.266 28.6758L191.716 28.6758L191.716 16.0131L195.266 16.0131C195.92 16.0131 196.45 16.5429 196.45 17.1965L196.45 27.4923Z" fill="white"/>
<path d="M170.414 6.19141H173.964C174.618 6.19141 175.148 6.72125 175.148 7.37484V27.4932C175.148 28.1468 174.618 28.6766 173.964 28.6766H170.414V6.19141Z" fill="white"/>
<path d="M342.13 16.0137L342.13 20.7474L333.728 20.7474L333.728 16.0137L342.13 16.0137Z" fill="white"/>
<path d="M259.172 6.19141C259.825 6.19141 260.355 6.72125 260.355 7.37484L260.355 10.9251L248.521 10.9251L248.521 6.19141L259.172 6.19141Z" fill="white"/>
<path d="M110.059 6.19141C110.712 6.19141 111.242 6.72125 111.242 7.37484L111.242 10.9251L95.8576 10.9251C95.204 10.9251 94.6741 10.3953 94.6741 9.7417L94.6741 6.19141L110.059 6.19141Z" fill="white"/>
<path d="M131.361 6.19141C132.015 6.19141 132.544 6.72125 132.544 7.37484L132.544 10.9251L115.976 10.9251L115.976 6.19141L131.361 6.19141Z" fill="white"/>
<path d="M216.568 6.19141C217.221 6.19141 217.751 6.72125 217.751 7.37484L217.751 10.9251L201.183 10.9251L201.183 6.19141L216.568 6.19141Z" fill="white"/>
<path d="M280.473 6.19141C281.126 6.19141 281.656 6.72125 281.656 7.37484L281.656 10.9251L265.088 10.9251L265.088 6.19141L280.473 6.19141Z" fill="white"/>
<path d="M323.077 6.19141C323.73 6.19141 324.26 6.72125 324.26 7.37484L324.26 10.9251L307.692 10.9251L307.692 6.19141L323.077 6.19141Z" fill="white"/>
<path d="M386.982 6.19141C387.636 6.19141 388.166 6.72125 388.166 7.37484L388.166 10.9251L371.597 10.9251L371.597 6.19141L386.982 6.19141Z" fill="white"/>
<path d="M195.266 6.19141C195.92 6.19141 196.45 6.72125 196.45 7.37484L196.45 10.9251L179.882 10.9251L179.882 6.19141L195.266 6.19141Z" fill="white"/>
<path d="M132.544 23.9434L132.544 28.6771L117.16 28.6771C116.506 28.6771 115.976 28.1472 115.976 27.4937L115.976 23.9434C122.447 23.9434 126.074 23.9434 132.544 23.9434Z" fill="white"/>
<path d="M217.751 23.9434L217.751 28.6771L202.366 28.6771C201.713 28.6771 201.183 28.1472 201.183 27.4937L201.183 23.9434C207.653 23.9434 211.281 23.9434 217.751 23.9434Z" fill="white"/>
<path d="M281.656 23.9434L281.656 28.6771L266.272 28.6771C265.618 28.6771 265.088 28.1472 265.088 27.4937L265.088 23.9434C271.558 23.9434 275.186 23.9434 281.656 23.9434Z" fill="white"/>
<path d="M324.26 24.5352L324.26 28.6772L308.876 28.6772C308.222 28.6772 307.692 28.1473 307.692 27.4937L307.692 24.5352C314.162 24.5352 317.79 24.5352 324.26 24.5352Z" fill="white"/>
<path d="M388.166 24.5352L388.166 28.6772L372.781 28.6772C372.127 28.6772 371.597 28.1473 371.597 27.4937L371.597 24.5352C378.068 24.5352 381.695 24.5352 388.166 24.5352Z" fill="white"/>
<path d="M196.45 23.9434L196.45 27.4937C196.45 28.1472 195.92 28.6771 195.266 28.6771L184.615 28.6771L184.615 23.9434C189.237 23.9434 191.828 23.9434 196.45 23.9434Z" fill="white"/>
<path d="M128.994 16.0137L128.994 20.7474L115.976 20.7474L115.976 16.0137L128.994 16.0137Z" fill="white"/>
<path d="M214.201 16.0137L214.201 20.7474L201.183 20.7474L201.183 16.0137L214.201 16.0137Z" fill="white"/>
<path d="M278.106 16.0137L278.106 20.7474L265.088 20.7474L265.088 16.0137L278.106 16.0137Z" fill="white"/>
<path d="M320.71 16.0137L320.71 20.7474L307.692 20.7474L307.692 16.0137L320.71 16.0137Z" fill="white"/>
<path d="M384.615 16.0137L384.615 20.7474L371.597 20.7474L371.597 16.0137L384.615 16.0137Z" fill="white"/>
<path d="M195.266 16.0137C195.92 16.0137 196.45 16.5435 196.45 17.1971L196.45 19.564C196.45 20.2176 195.92 20.7474 195.266 20.7474L184.615 20.7474L184.615 16.0137L195.266 16.0137Z" fill="white"/>
<path d="M149.112 16.0137L149.112 20.7474L139.882 20.7474L139.882 16.0137L149.112 16.0137Z" fill="white"/>
<path d="M170.414 6.19141L170.414 10.9251L158.58 10.9251L158.58 6.19141L170.414 6.19141Z" fill="white"/>
<path d="M239.053 6.19141L239.053 9.7417C239.053 10.3953 238.523 10.9251 237.87 10.9251L222.485 10.9251L222.485 7.37484C222.485 6.72125 223.015 6.19141 223.669 6.19141L239.053 6.19141Z" fill="white"/>
<path d="M173.373 23.9434L173.373 27.4937C173.373 28.1472 172.843 28.6771 172.19 28.6771L163.314 28.6771L163.314 23.9434L173.373 23.9434Z" fill="white"/>
<path d="M237.87 23.9434C238.523 23.9434 239.053 24.4732 239.053 25.1268L239.053 28.6771L227.219 28.6771L227.219 23.9434L237.87 23.9434Z" fill="white"/>
<path d="M298.225 16.0137L298.225 20.7474L287.574 20.7474C286.92 20.7474 286.39 20.2176 286.39 19.564L286.39 16.0137L298.225 16.0137Z" fill="white"/>
<path d="M363.618 12.9376L365.984 17.0371L352.776 24.6631L350.409 20.5636L363.618 12.9376Z" fill="white"/>
</g>
<defs>
<filter id="filter0_i_940_8554" x="11.8345" y="6.19141" width="59.1714" height="22.9577" filterUnits="userSpaceOnUse" color-interpolation-filters="sRGB">
<feFlood flood-opacity="0" result="BackgroundImageFix"/>
<feBlend mode="normal" in="SourceGraphic" in2="BackgroundImageFix" result="shape"/>
<feColorMatrix in="SourceAlpha" type="matrix" values="0 0 0 0 0 0 0 0 0 0 0 0 0 0 0 0 0 0 127 0" result="hardAlpha"/>
<feOffset dy="0.473373"/>
<feGaussianBlur stdDeviation="0.236686"/>
<feComposite in2="hardAlpha" operator="arithmetic" k2="-1" k3="1"/>
<feColorMatrix type="matrix" values="0 0 0 0 0 0 0 0 0 0 0 0 0 0 0 0 0 0 0.25 0"/>
<feBlend mode="normal" in2="shape" result="effect1_innerShadow_940_8554"/>
</filter>
<filter id="filter1_i_940_8554" x="94.6743" y="6.19141" width="293.491" height="22.9597" filterUnits="userSpaceOnUse" color-interpolation-filters="sRGB">
<feFlood flood-opacity="0" result="BackgroundImageFix"/>
<feBlend mode="normal" in="SourceGraphic" in2="BackgroundImageFix" result="shape"/>
<feColorMatrix in="SourceAlpha" type="matrix" values="0 0 0 0 0 0 0 0 0 0 0 0 0 0 0 0 0 0 127 0" result="hardAlpha"/>
<feOffset dy="0.473373"/>
<feGaussianBlur stdDeviation="0.236686"/>
<feComposite in2="hardAlpha" operator="arithmetic" k2="-1" k3="1"/>
<feColorMatrix type="matrix" values="0 0 0 0 0 0 0 0 0 0 0 0 0 0 0 0 0 0 0.25 0"/>
<feBlend mode="normal" in2="shape" result="effect1_innerShadow_940_8554"/>
</filter>
</defs>
</svg>
