<svg width="25" height="26" viewBox="0 0 25 26" fill="none" xmlns="http://www.w3.org/2000/svg">
<path d="M20.833 21.3346H4.16634C3.61381 21.3346 3.0839 21.1151 2.6932 20.7244C2.3025 20.3337 2.08301 19.8038 2.08301 19.2513V6.66068C2.10638 6.124 2.33614 5.61709 2.72434 5.24578C3.11254 4.87447 3.62916 4.66746 4.16634 4.66797H20.833C21.3855 4.66797 21.9154 4.88746 22.3061 5.27816C22.6968 5.66886 22.9163 6.19877 22.9163 6.7513V19.2513C22.9163 19.8038 22.6968 20.3337 22.3061 20.7244C21.9154 21.1151 21.3855 21.3346 20.833 21.3346ZM4.16634 8.69714V19.2513H20.833V8.69714L12.4997 14.2513L4.16634 8.69714ZM4.99967 6.7513L12.4997 11.7513L19.9997 6.7513H4.99967Z" fill="#E64545"/>
</svg>
