<svg width="25" height="26" viewBox="0 0 25 26" fill="none" xmlns="http://www.w3.org/2000/svg">
<path d="M17.2601 23.4175C17.5368 23.4191 17.811 23.3656 18.0667 23.2601C18.3225 23.1546 18.5547 22.9992 18.7497 22.803L21.5726 19.98C21.7666 19.7849 21.8755 19.5209 21.8755 19.2457C21.8755 18.9705 21.7666 18.7065 21.5726 18.5113L17.406 14.3446C17.2108 14.1506 16.9468 14.0417 16.6716 14.0417C16.3964 14.0417 16.1324 14.1506 15.9372 14.3446L14.2705 16.0009C13.1166 15.6932 12.0479 15.1268 11.1455 14.3446C10.3655 13.4408 9.79932 12.3726 9.48929 11.2196L11.1455 9.55296C11.3396 9.35779 11.4485 9.09378 11.4485 8.81859C11.4485 8.54339 11.3396 8.27938 11.1455 8.08421L6.97888 3.91755C6.78371 3.72354 6.51969 3.61464 6.2445 3.61464C5.96931 3.61464 5.70529 3.72354 5.51013 3.91755L2.69763 6.75088C2.50141 6.94592 2.34601 7.1781 2.24049 7.43385C2.13497 7.6896 2.08144 7.9638 2.08304 8.24046C2.17755 12.2429 3.77687 16.0626 6.56221 18.9384C9.43796 21.7237 13.2577 23.323 17.2601 23.4175ZM6.24971 6.1363L8.94763 8.83421L7.60388 10.178C7.47661 10.2972 7.3813 10.4464 7.3267 10.6121C7.2721 10.7777 7.25996 10.9543 7.29138 11.1259C7.68072 12.8658 8.50503 14.4786 9.68721 15.8134C11.0209 16.9971 12.6341 17.8216 14.3747 18.2092C14.5436 18.2445 14.7187 18.2373 14.8842 18.1882C15.0496 18.1391 15.2003 18.0497 15.3226 17.928L16.6664 16.553L19.3643 19.2509L17.281 21.3342C13.8265 21.2453 10.5304 19.8666 8.04138 17.4696C5.63816 14.9795 4.25555 11.6791 4.16638 8.21963L6.24971 6.1363ZM20.833 11.9592H22.9164C22.9434 10.7207 22.7194 9.48948 22.2578 8.33984C21.7962 7.19021 21.1066 6.14593 20.2306 5.26994C19.3547 4.39395 18.3104 3.70439 17.1607 3.24281C16.0111 2.78123 14.7799 2.5572 13.5414 2.58421V4.66755C14.5079 4.63411 15.4711 4.79985 16.3708 5.15446C17.2706 5.50906 18.0879 6.04496 18.7717 6.72884C19.4556 7.41271 19.9915 8.22995 20.3461 9.12974C20.7007 10.0295 20.8665 10.9926 20.833 11.9592Z" fill="#E64545"/>
<path d="M13.542 8.83333C15.7295 8.83333 16.667 9.77083 16.667 11.9583H18.7503C18.7503 8.60417 16.8962 6.75 13.542 6.75V8.83333Z" fill="#E64545"/>
</svg>
