<svg width="24" height="25" viewBox="0 0 24 25" fill="none" xmlns="http://www.w3.org/2000/svg">
<path d="M16.7071 10.8067C17.0976 10.4162 17.0976 9.78303 16.7071 9.3925C16.3166 9.00198 15.6834 9.00198 15.2929 9.3925L16.7071 10.8067ZM12 14.0996L11.2929 14.8067C11.6834 15.1972 12.3166 15.1972 12.7071 14.8067L12 14.0996ZM8.70711 9.3925C8.31658 9.00198 7.68342 9.00198 7.29289 9.3925C6.90237 9.78303 6.90237 10.4162 7.29289 10.8067L8.70711 9.3925ZM15.2929 9.3925L11.2929 13.3925L12.7071 14.8067L16.7071 10.8067L15.2929 9.3925ZM12.7071 13.3925L8.70711 9.3925L7.29289 10.8067L11.2929 14.8067L12.7071 13.3925Z" fill="#E54545"/>
</svg>
