<svg width="64" height="64" viewBox="0 0 64 64" fill="none" xmlns="http://www.w3.org/2000/svg">
<path d="M38.7071 37.2929C38.3166 36.9024 37.6834 36.9024 37.2929 37.2929C36.9024 37.6834 36.9024 38.3166 37.2929 38.7071L38.7071 37.2929ZM49.2929 50.7071C49.6834 51.0976 50.3166 51.0976 50.7071 50.7071C51.0976 50.3166 51.0976 49.6834 50.7071 49.2929L49.2929 50.7071ZM28 41C20.8203 41 15 35.1797 15 28H13C13 36.2843 19.7157 43 28 43V41ZM15 28C15 20.8203 20.8203 15 28 15V13C19.7157 13 13 19.7157 13 28H15ZM28 15C35.1797 15 41 20.8203 41 28H43C43 19.7157 36.2843 13 28 13V15ZM41 28C41 35.1797 35.1797 41 28 41V43C36.2843 43 43 36.2843 43 28H41ZM37.2929 38.7071L49.2929 50.7071L50.7071 49.2929L38.7071 37.2929L37.2929 38.7071Z" fill="#777777"/>
</svg>
