<svg width="70" height="70" viewBox="0 0 70 70" fill="none" xmlns="http://www.w3.org/2000/svg">
<path d="M26.1216 7.47012L28.9071 6.35596L28.9071 6.35595L26.1216 7.47012ZM29.8701 16.8413L27.0846 17.9555L27.0847 17.9555L29.8701 16.8413ZM28.731 24.0346L26.4263 22.1141L26.4262 22.1141L28.731 24.0346ZM26.7136 26.4556L29.0183 28.3762L29.0183 28.3761L26.7136 26.4556ZM27.1471 36.0365L25.0258 38.1579L25.0259 38.1579L27.1471 36.0365ZM33.9638 42.8527L36.0851 40.7314L36.085 40.7313L33.9638 42.8527ZM43.5444 43.2871L41.6242 40.9821L41.6238 40.9824L43.5444 43.2871ZM45.9661 41.2696L47.8863 43.5746L47.8867 43.5743L45.9661 41.2696ZM53.1588 40.1303L54.273 37.3449L54.273 37.3449L53.1588 40.1303ZM62.5294 43.8788L61.4151 46.6642L61.4152 46.6642L62.5294 43.8788ZM66.9998 50.4811H63.9998V50.4812L66.9998 50.4811ZM67.0001 60.2635H70.0001V60.2634L67.0001 60.2635ZM19.5191 6C21.2002 6 22.7119 7.02347 23.3362 8.58429L28.9071 6.35595C27.3716 2.51717 23.6536 0 19.5191 0V6ZM23.3362 8.58428L27.0846 17.9555L32.6555 15.7272L28.9071 6.35596L23.3362 8.58428ZM27.0847 17.9555C27.6456 19.3579 27.3927 20.9543 26.4263 22.1141L31.0356 25.9552C33.4134 23.1018 34.0347 19.175 32.6555 15.7271L27.0847 17.9555ZM26.4262 22.1141L24.4089 24.5352L29.0183 28.3761L31.0357 25.9551L26.4262 22.1141ZM24.4089 24.5351C21.0616 28.5519 21.3274 34.4594 25.0258 38.1579L29.2684 33.9152C27.7655 32.4123 27.6565 30.0103 29.0183 28.3762L24.4089 24.5351ZM25.0259 38.1579L31.8425 44.9741L36.085 40.7313L29.2684 33.9151L25.0259 38.1579ZM31.8425 44.974C35.5404 48.6719 41.4476 48.9395 45.4649 45.5918L41.6238 40.9824C39.9902 42.3437 37.5885 42.2348 36.0851 40.7314L31.8425 44.974ZM45.4646 45.5921L47.8863 43.5746L44.0459 38.9647L41.6242 40.9821L45.4646 45.5921ZM47.8867 43.5743C49.0466 42.6077 50.6424 42.3549 52.0446 42.9157L54.273 37.3449C50.8249 35.9656 46.8987 36.5873 44.0455 38.965L47.8867 43.5743ZM52.0446 42.9157L61.4151 46.6642L63.6436 41.0934L54.273 37.3449L52.0446 42.9157ZM61.4152 46.6642C62.9763 47.2887 63.9998 48.8003 63.9998 50.4811H69.9998C69.9998 46.3463 67.482 42.6287 63.6435 41.0934L61.4152 46.6642ZM63.9998 50.4812L64.0001 60.2636L70.0001 60.2634L69.9998 50.481L63.9998 50.4812ZM64.0001 60.2635C64.0001 62.3275 62.3276 64 60.264 64V70C65.6418 70 70.0001 65.6408 70.0001 60.2635H64.0001ZM60.264 64C30.2952 64 6 39.7057 6 9.73699H0C0 43.0195 26.9816 70 60.264 70V64ZM6 9.73699C6 7.67311 7.67313 6 9.73686 6V0C4.35926 0 0 4.35956 0 9.73699H6ZM9.73686 6H19.5191V0H9.73686V6Z" fill="white"/>
</svg>
