<svg width="195" height="202" viewBox="0 0 195 202" fill="none" xmlns="http://www.w3.org/2000/svg">
<path d="M84.8452 106.693V106.954C85.654 107.034 86.452 107.183 87.2499 106.693H84.8452ZM114.996 106.41C112.854 106.133 112.356 106.229 111.863 106.991C112.897 106.906 113.93 107.418 115.001 106.4L114.996 106.41ZM92.5567 99.0916C90.4147 98.7505 90.0454 98.8306 89.6541 99.6942C91.7054 99.9236 92.1121 99.8436 92.5623 99.0814L92.5567 99.0916ZM92.7549 58.0207H94.2761V55.7343L94.0886 55.6915C93.6707 56.4164 93.2533 57.1571 92.7605 58.01L92.7549 58.0207ZM97.468 58.0207L96.0703 55.6808L95.8987 55.7659V58.0207H97.468ZM119.157 96.1118C120.721 96.485 121.669 96.2877 122.118 95.494C119.961 95.1738 119.687 95.2273 119.184 96.1118H119.157ZM115.778 104.806C113.684 104.481 113.223 104.598 112.752 105.589C114.841 105.861 115.376 105.723 115.805 104.806H115.778ZM91.6788 100.393H89.4933C89.0077 100.345 88.576 100.699 88.5278 101.182C88.5242 101.219 88.5232 101.256 88.5243 101.293C90.6503 101.517 91.0734 101.405 91.6839 100.393H91.6788ZM90.6662 101.991C89.7238 101.991 88.9366 101.954 88.1601 101.991C87.6838 102.023 87.464 102.359 87.528 102.999C88.5673 102.668 89.8416 103.511 90.6718 102.002L90.6662 101.991ZM116.935 99.3261C119.446 99.5611 119.65 99.5025 120.148 98.3029C119.056 98.7398 117.695 97.7539 116.94 99.321L116.935 99.3261ZM86.4571 104.417C87.4799 104.268 88.7547 105.083 89.44 103.601C88.4331 103.804 87.1429 102.924 86.4622 104.411L86.4571 104.417ZM88.3368 105.185C87.3247 105.419 85.9592 104.401 85.3538 106.043C86.3608 105.776 87.6459 106.634 88.3634 105.179L88.3368 105.185ZM118.129 97.7218C120.057 98.0842 120.662 97.9349 121.133 96.981C119.296 96.613 118.589 96.7888 118.134 97.7004L118.129 97.7218ZM115.847 100.957H118.108C118.697 100.957 118.98 100.638 119.039 99.8915C117.963 100.302 116.592 99.2838 115.853 100.936L115.847 100.957ZM113.673 104.102H115.853C116.517 104.102 116.86 103.793 116.978 102.999C115.89 103.335 114.573 102.519 113.679 104.081L113.673 104.102ZM118.123 101.554H115.836C115.216 101.554 114.996 101.933 114.862 102.62C115.992 102.263 117.331 103.154 118.129 101.533L118.123 101.554ZM100.269 111.831H97.489V114.582H100.269V111.831ZM82.2904 114.534H85.0967V111.837H82.2904V114.534ZM69.9734 111.816H67.1564V114.55H69.957L69.9734 111.816ZM123.082 111.784C122.144 111.671 121.195 111.685 120.26 111.826V114.529H123.082V111.784ZM119.221 121.331V118.484H116.458C116.348 119.43 116.359 120.387 116.49 121.331H119.221ZM101.286 121.293H104.065V118.484H101.27L101.286 121.293ZM88.9366 118.468H86.1569V121.309H88.8992L88.9366 118.468ZM73.7861 118.468H70.9855V121.25H73.7861V118.468ZM112.688 114.545H115.451V111.773H112.688V114.545ZM105.067 114.534H107.9V111.773H105.067V114.534ZM92.7498 111.805H89.8954V114.518H92.7498V111.805ZM77.5297 111.773H74.7076V114.539H77.5297V111.773ZM96.5415 118.457H93.7188V121.293H96.5415V118.457ZM81.4018 118.484H78.5259V121.272H81.4018V118.484ZM111.713 118.484H108.843V121.261H111.713V118.484ZM71.6872 76.9067L68.0133 70.0943C67.665 71.3627 67.6814 75.8994 67.981 76.9011L71.6872 76.9067ZM66.3318 76.9067V73.4472C66.4004 72.2579 66.3472 71.0644 66.171 69.8863L62.4223 76.9067H66.3318ZM123.441 76.9067C123.709 75.1209 123.645 70.9207 123.307 70.0515L119.628 76.9067H123.441ZM125.107 69.8277C124.834 71.7894 124.893 76.0324 125.155 76.9067H128.904L125.107 69.8277ZM94.2387 106.944C94.4794 105.489 94.4256 100.014 94.1311 98.9478C92.3267 101.613 90.5807 104.177 88.7168 106.944H94.2387ZM101.592 106.944C99.6474 104.155 97.971 101.496 95.9038 99.0758V106.944H101.592ZM66.2457 104.278V95.5898L66.0265 95.4991L60.0765 104.273L66.2457 104.278ZM69.3306 95.4139L70.9374 97.8176C72.8278 100.606 74.686 103.404 76.6139 106.176C76.8388 106.507 77.1763 106.922 77.5189 106.981C78.3599 107.054 79.2045 107.067 80.0466 107.018L72.2066 95.4139H69.3306ZM67.831 104.315C68.0051 104.367 68.1854 104.395 68.3667 104.401C70.23 104.129 71.6923 104.63 72.5384 106.448C72.71 106.729 72.9948 106.924 73.3206 106.981C74.0648 107.055 74.8197 107.007 75.6285 107.007C75.0932 105.654 68.6023 96.1547 67.8366 95.5842L67.831 104.315ZM107.129 107.029L107.29 106.736L102.068 99.033H97.7835C97.7835 99.1823 97.7518 99.2838 97.7835 99.3368C99.3902 101.741 100.997 104.135 102.647 106.528C102.844 106.79 103.139 106.962 103.466 107.007C104.676 107.05 105.903 107.024 107.107 107.024L107.129 107.029ZM123.5 106.944V96.1225L123.281 96.0267L115.885 106.938L123.5 106.944ZM124.984 106.944H132.862C132.685 106.613 132.583 106.41 132.449 106.192C130.046 102.678 127.638 99.1665 125.225 95.6591C121.604 90.398 125.15 95.6591 125.112 95.6591C125.068 95.6734 125.025 95.6907 124.984 95.7122V106.944ZM126.473 95.4139C129.091 99.2782 131.566 102.935 134.061 106.575C134.226 106.812 134.486 106.966 134.773 106.997C135.995 106.938 137.205 106.805 138.645 106.682L131.008 95.4139H126.473ZM48.3162 95.366C50.0781 97.3328 51.7811 99.3582 53.6235 101.229C55.0212 102.739 56.9265 103.687 58.9789 103.894C60.8371 101.165 62.7276 98.3881 64.7466 95.366H55.6958C59.9802 89.1612 60.1728 83.1059 55.7495 76.9761H61.1049L63.6111 72.317C64.3824 70.8886 65.1748 69.4759 65.898 68.026C66.15 67.5422 66.2924 67.009 66.3154 66.464C66.3584 63.9109 66.3154 61.3523 66.3528 58.7992C66.3379 58.2522 66.0588 57.746 65.6035 57.4401C64.975 56.8222 64.8132 55.874 65.2014 55.0838C65.6982 54.0668 66.929 53.6431 67.9498 54.1371C68.4978 54.4022 68.8994 54.8952 69.0469 55.4835C69.2968 56.1498 69.0996 56.9007 68.5542 57.36C67.665 58.0156 67.6599 58.7992 67.8689 59.7428C68.715 60.169 69.5447 59.8387 70.3535 59.6465C71.5156 59.3641 72.6511 58.9909 73.8133 58.7085C74.2281 58.607 74.6574 58.5805 75.0825 58.6284C76.6887 58.7992 76.9192 59.0653 76.9192 60.7023V64.8174C76.7209 64.8174 76.5873 64.8597 76.4961 64.8174C75.3022 64.3142 73.9603 64.2872 72.7474 64.7424C71.1407 65.2171 69.62 65.9048 67.9278 65.7126C67.7034 66.4457 67.7808 67.2374 68.1419 67.9139C69.7481 70.8728 71.3548 73.8413 72.9615 76.8425C73.1613 76.9032 73.3687 76.9343 73.5777 76.9332C74.8197 76.7094 75.5055 77.3171 76.0945 78.351C77.5138 80.8459 78.4993 83.4418 78.4188 86.3466C78.3277 89.513 77.1066 92.2955 75.4251 94.9235C74.9969 95.5949 74.3219 95.1901 73.7436 95.4562C73.8681 95.7172 74.0059 95.9716 74.1559 96.2184C76.3998 99.5397 78.676 102.839 80.8825 106.186C81.2481 106.829 82.0005 107.148 82.7191 106.965C83.0055 106.924 83.2667 106.78 83.4526 106.56C85.1449 104.113 86.8105 101.64 88.6103 98.9907C87.0517 98.8571 85.6647 98.9371 84.288 98.9213C82.9117 98.905 81.5621 98.9213 80.0041 98.9213C80.2714 98.4732 80.443 98.1536 80.6468 97.8553C81.8879 96.1185 82.9112 94.2368 83.6938 92.2527C85.3451 88.1676 85.2719 83.5917 83.49 79.5612C82.6874 77.8748 81.7936 76.2317 80.8123 74.6412C80.6089 74.2731 80.3411 73.9377 79.9662 73.3886C81.2948 73.3886 82.4564 73.3565 83.6242 73.3514H94.335V71.3255H87.2392C88.6636 69.1935 89.7612 67.141 89.7561 64.7108C89.7509 62.2801 88.7117 60.1955 87.2228 58.0957H91.3945C92.3749 56.4001 93.3547 54.7585 94.2653 53.0849C94.3883 52.7234 94.4272 52.3385 94.378 51.9603V45.6969C94.4722 44.9837 94.1834 44.273 93.6174 43.8259C92.9572 43.2845 92.7836 42.3496 93.2051 41.6083C93.5058 40.8752 94.2192 40.3919 95.0152 40.3828C95.8531 40.3491 96.6255 40.8319 96.9589 41.5976C97.3323 42.3485 97.1812 43.2519 96.584 43.8417C95.7005 44.8389 95.6953 44.8333 95.9576 46.3474C96.8467 46.6726 97.7087 46.3474 98.5605 46.1445C99.4118 45.9421 100.349 45.5531 101.265 45.34C102.534 45.0469 103.803 44.9771 104.917 45.8356V51.5392C102.946 50.5848 101.169 51.1981 99.3636 51.7416C98.2926 52.0668 97.1356 52.2427 95.8398 52.5251C95.8721 52.8325 95.9473 53.1343 96.0646 53.4208C96.9159 54.9451 97.8107 56.4485 98.6568 57.9035C98.8012 57.9728 98.8816 58.0473 98.9513 58.0371C100.247 57.7862 100.858 58.5698 101.431 59.5506C103.771 63.5113 103.439 67.0136 100.858 70.7871C100.609 71.1898 100.152 71.4157 99.6796 71.3683H95.8987V73.33C96.2362 73.33 96.6004 73.3937 96.9697 73.3937H104.419C104.929 73.3096 105.443 73.515 105.753 73.9269C107.739 76.6931 109.351 79.6199 110.01 82.9886C110.701 86.3548 110.302 89.852 108.869 92.9776C108.071 94.7155 107 96.3198 106.069 97.9935C105.76 98.722 104.977 99.1309 104.2 98.9692C103.956 98.9621 103.712 98.9784 103.471 99.0172C103.653 99.3531 103.771 99.6141 103.932 99.8487C105.36 101.981 106.788 104.099 108.216 106.203C109.03 107.391 110.005 107.397 110.814 106.203C113.095 102.855 115.369 99.5025 117.636 96.1439C117.754 95.9737 117.856 95.7922 118.064 95.4404H112.945C113.309 94.8384 113.534 94.4489 113.764 94.065C115.039 92.0493 115.856 89.7812 116.158 87.4182C116.424 84.5098 115.761 81.5918 114.262 79.0815C113.909 78.4575 113.523 77.8498 113.052 77.0612H118.311C120.035 73.8627 121.701 70.7978 123.324 67.7064C123.506 67.2807 123.59 66.8199 123.57 66.3575V59.3268C123.661 58.6126 123.363 57.9035 122.788 57.4666C122.115 56.8803 121.955 55.9 122.408 55.1317C122.91 54.1213 124.14 53.7068 125.156 54.2064C125.745 54.4965 126.16 55.0507 126.269 55.6971C126.401 56.3369 126.2 57.0011 125.733 57.461C124.861 58.4418 124.855 58.4367 124.994 59.8117C125.873 60.2226 126.74 59.908 127.597 59.6893C128.754 59.4013 129.894 59.0337 131.057 58.7671C131.516 58.6672 131.99 58.6539 132.454 58.7299C133.97 58.9481 134.125 59.1561 134.125 60.6916V65.1049C132.138 63.991 130.376 64.6787 128.55 65.2171C127.415 65.5525 126.237 65.7498 124.957 65.9899C124.827 66.565 124.894 67.167 125.144 67.7008L130.136 76.9174C130.397 76.9638 130.663 76.9796 130.928 76.9653C132.031 76.7681 132.626 77.3171 133.145 78.2286C134.289 80.0817 135.069 82.1352 135.443 84.2784C135.804 86.8687 135.389 89.5079 134.249 91.8637C133.713 93.0576 133.027 94.193 132.353 95.4618L139.716 106.325C142.528 105.557 144.964 104.321 146.866 102.184C147.698 101.357 148.117 100.203 148.006 99.0386C147.906 97.6433 146.689 96.5941 145.288 96.6935C144.993 96.7149 144.704 96.7868 144.434 96.9061C143.668 97.2553 143.241 98.0812 143.401 98.905C143.545 99.6141 144.102 100.019 144.67 99.8272C145.238 99.6355 145.356 99.1987 145.071 98.4681C145.015 98.3529 144.948 98.2428 144.874 98.1378C145.993 98.1694 146.56 98.825 146.389 99.8752C146.214 100.825 145.48 101.575 144.531 101.773C142.693 102.238 140.824 101.133 140.354 99.3047C139.682 96.8597 141.128 94.3357 143.584 93.6668C143.692 93.6378 143.8 93.6123 143.91 93.5909C148.906 92.5942 152.751 96.7409 151.348 101.624C150.944 103.024 150.185 104.296 149.142 105.318C148.324 106.127 147.447 106.876 146.517 107.556C145.653 108.183 144.736 108.734 143.776 109.203C136.739 112.626 132.824 118.351 131.298 125.856C131.202 126.314 131.105 126.773 131.003 127.226C131.003 127.269 130.955 127.295 130.842 127.455C130.462 127.337 130.029 127.22 129.6 127.071C125.153 125.534 120.529 124.562 115.836 124.177C111.903 123.89 107.95 124.056 104.055 124.672C98.223 125.568 92.4179 126.623 86.623 127.711C77.9087 129.336 69.0366 129.971 60.1784 129.603C59.0695 129.561 59.0644 129.555 58.7161 128.569C58.3683 127.583 58.0093 126.485 57.6451 125.467C59.4875 124.001 59.9105 122.652 59.2145 120.365C58.3791 117.695 56.6326 115.398 54.2765 113.873C53.7095 113.506 53.2885 112.954 53.0877 112.311C51.3366 107.152 49.5531 102.002 47.7753 96.8531C47.5449 96.1761 47.363 95.547 46.5005 95.2538C45.8347 94.9556 45.5376 94.1756 45.8377 93.5124C45.8536 93.4777 45.8716 93.443 45.89 93.4094C46.2055 92.7482 46.9574 92.4132 47.6627 92.6207C48.3956 92.8328 48.8376 93.5735 48.6747 94.3158C48.579 94.6732 48.4591 95.0239 48.3162 95.366Z" fill="#323E5A"/>
<path d="M95.0638 140.458C92.9163 140.471 91.1861 142.214 91.1989 144.351C91.2112 146.488 92.9618 148.21 95.1094 148.198C97.256 148.185 98.9872 146.442 98.9744 144.305C98.9744 144.279 98.9739 144.253 98.9733 144.227C98.918 142.121 97.1802 140.446 95.0638 140.458ZM136.873 131.983C123.089 129.19 109.652 130.762 96.1722 134.472C96.0974 135.869 96.1399 137.383 96.1722 138.949C98.7429 139.781 100.457 141.391 100.516 144.163C100.574 146.934 99.0855 148.609 96.5471 149.584C96.9702 154.243 97.3933 158.853 97.822 163.555H92.4666C92.884 158.923 93.3071 154.291 93.7301 149.61C91.0524 148.544 89.5748 146.69 89.7781 143.795C89.9333 141.562 91.3095 140.064 94.062 138.998V134.84C87.1004 136.247 80.1383 136.972 73.128 136.274C66.171 135.607 59.3692 133.821 52.9863 130.986L53.0345 130.714H53.9825C61.0133 131.393 68.0901 131.448 75.1312 130.879C80.8763 130.326 86.5851 129.449 92.2304 128.251C97.1792 127.281 102.133 126.37 107.162 125.874C117.337 124.867 126.885 126.94 135.979 131.418C136.252 131.567 136.563 131.786 136.873 131.983Z" fill="#323E5A"/>
<path d="M21.181 141.539C20.6827 141.587 20.1849 141.614 19.6921 141.683L8.77798 143.282C7.53542 143.464 7.32082 143.373 6.80146 142.216C5.67158 139.684 5.50051 140.084 7.6691 138.229C10.2433 136.051 12.8155 133.865 15.3862 131.673C15.6971 131.406 15.9967 131.139 16.3716 130.772C15.8364 130.409 15.461 130.735 15.1076 130.878L3.21361 135.686C2.77979 135.862 2.34085 136.017 1.77283 136.22L0.75 133.986C1.1408 133.789 1.43018 133.624 1.73544 133.501C6.34459 131.653 10.943 129.805 15.5306 127.957C16.9714 127.377 17.1373 127.425 17.7853 128.821C18.0373 129.354 18.2944 129.887 18.53 130.447C18.9582 131.455 18.9049 131.683 18.0695 132.441C17.8442 132.638 17.6142 132.829 17.3837 133.021L8.78311 140.292C8.63304 140.42 8.50448 140.58 8.19922 140.9C8.53982 140.919 8.88144 140.919 9.22205 140.9C13.1172 140.342 17.0103 139.775 20.9024 139.199C22.2249 139.002 22.4502 139.109 23.007 140.265C23.2426 140.767 23.4782 141.268 23.6979 141.774C24.2711 143.091 24.1958 143.33 22.9215 143.975C19.4191 145.752 15.9112 147.52 12.3981 149.279C11.1771 149.898 9.95601 150.505 8.61716 151.171L7.49752 148.858L21.3255 141.928L21.181 141.539Z" fill="#323E5A"/>
<path d="M81.2891 196.649C82.315 196.935 83.3931 196.977 84.438 196.772C85.5663 196.61 86.5241 195.865 86.9554 194.815C87.6058 193.422 87.9157 191.894 87.8604 190.359C87.9009 189.363 87.4829 188.403 86.7249 187.752C85.7225 186.967 84.5179 186.477 83.2492 186.34C82.5956 189.762 81.937 193.147 81.2891 196.649ZM78.9274 196.217C79.5861 192.715 80.2288 189.314 80.9034 185.705C79.8324 185.705 78.9863 185.657 78.1458 185.705C76.7265 185.751 75.4932 186.689 75.0768 188.04C74.8268 188.718 74.6317 189.415 74.4929 190.124C73.9039 193.2 74.1933 195.338 78.9274 196.217ZM80.9889 198.978C80.8235 199.724 80.6678 200.423 80.4803 201.238L77.9957 200.796C78.1186 199.991 78.2313 199.293 78.3543 198.498L77.4492 198.152C76.5708 197.827 75.6714 197.55 74.8145 197.176C72.5707 196.185 71.5478 194.378 71.6011 191.99C71.6098 190.152 72.0057 188.336 72.7632 186.66C73.5003 184.828 75.2586 183.605 77.2402 183.546C78.51 183.472 79.7894 183.546 81.1656 183.546L81.7285 181.313C82.526 181.457 83.2707 181.596 84.1542 181.766C84.0523 182.518 83.956 183.216 83.8433 184.026C84.0579 184.128 84.3043 184.256 84.5558 184.357C85.6811 184.747 86.7853 185.194 87.8655 185.695C89.5173 186.522 90.555 188.21 90.5432 190.05C90.6457 192.011 90.2897 193.968 89.5045 195.769C88.6901 197.64 87.3031 198.802 85.2201 198.967C83.8546 199.058 82.4727 198.978 80.9889 198.978Z" fill="#323E5A"/>
<path d="M18.8508 63.2927C19.3691 62.3231 19.6514 61.2459 19.6754 60.1478C19.742 59.1547 19.321 58.1912 18.5455 57.5626C17.1447 56.3697 15.4146 55.6259 13.5815 55.4306C12.8122 55.3124 12.028 55.5046 11.4016 55.9634C10.4238 56.7561 9.66427 57.7834 9.19511 58.9482L18.8508 63.2927ZM17.8229 65.4252L8.09749 61.0435C7.85626 62.0351 7.61502 62.8823 7.4547 63.7459C7.1648 65.0327 7.71233 66.3627 8.82582 67.0775C9.44454 67.522 10.1047 67.9074 10.7962 68.2286C14.2186 69.8278 16.0825 69.1508 17.7583 65.8086C17.7942 65.6837 17.8162 65.5552 17.8229 65.4252ZM21.0896 64.1242L23.1245 65.1316L22.1232 67.4078L19.9489 66.5177C19.7774 66.7736 19.6007 67.0505 19.4132 67.3069C18.8083 68.1756 18.2562 69.0978 17.5765 69.9079C16.4318 71.3506 14.5597 72.0144 12.7563 71.6193C10.5519 71.2481 8.48983 70.2882 6.7904 68.8419C5.35731 67.6928 4.70683 65.831 5.11453 64.0447C5.35014 62.7972 5.70866 61.5762 6.02468 60.313L3.96826 59.247L4.98034 57.0028L7.20271 57.8772C7.57814 57.2695 7.92079 56.6883 8.2742 56.1285C10.5073 52.6961 12.7404 51.9232 16.5644 53.4633C17.8654 53.9935 19.092 54.6904 20.2112 55.5372C21.7155 56.62 22.4131 58.5006 21.9787 60.2972C21.7482 61.5074 21.4215 62.733 21.0896 64.1242Z" fill="#323E5A"/>
<path d="M68.2756 18.9945C69.1699 18.424 69.952 17.9922 70.6644 17.4702C71.6724 16.7661 72.1887 15.5508 71.9925 14.341C71.8148 12.595 71.1157 10.9422 69.9837 9.59686C69.5433 9.08961 68.965 8.71949 68.3186 8.53087C66.9711 8.22397 65.558 8.41412 64.3395 9.06361L68.2756 18.9945ZM62.0526 9.79925C61.1747 10.3325 60.3926 10.7587 59.6801 11.2705C58.6937 11.9297 58.1702 13.0895 58.3305 14.261C58.4919 16.0937 59.1925 17.8383 60.3444 19.2769C60.8423 19.9325 61.5993 20.3439 62.4224 20.4071C63.6475 20.504 64.8767 20.2679 65.9785 19.7245L62.0526 9.79925ZM61.1424 7.86456L60.3552 5.66274L62.658 4.6875L63.6219 6.88371C64.4035 6.68642 65.1374 6.47332 65.8816 6.35046C66.5521 6.22403 67.2302 6.14042 67.9114 6.10015C69.6626 5.9569 71.3538 6.77359 72.3244 8.23213C73.6868 10.0536 74.5053 12.2213 74.6861 14.4848C74.8664 16.1478 74.1319 17.7781 72.7634 18.7493C71.6924 19.5649 70.4929 20.2414 69.2073 21.0729L69.9945 23.2054L67.6815 24.1434L66.6904 22.0115C65.6517 22.246 64.6662 22.507 63.6649 22.6829C60.7618 23.2161 58.8878 22.3367 57.4096 19.831C56.4882 18.2894 55.893 16.5775 55.6584 14.7993C55.3721 13.2552 55.9069 11.6733 57.0721 10.6149C57.9909 9.83697 58.9625 9.12223 59.9803 8.47734C60.3567 8.25354 60.7449 8.04911 61.1424 7.86456Z" fill="#323E5A"/>
<path d="M153.009 26.0667C154.23 27.0047 155.274 27.879 156.388 28.6519C157.93 29.7179 158.835 29.5634 160.003 28.1186C160.164 27.9213 160.313 27.7128 160.448 27.4952C161.053 26.4771 161.031 25.8322 160.255 24.9472C159.157 23.6946 157.738 22.8152 156.425 21.7492L153.009 26.0667ZM147.991 32.4259C149.089 33.2946 150.101 34.1317 151.156 34.9204C153.271 36.5196 154.434 36.2637 155.831 34.0195C155.922 33.8758 156.002 33.7213 156.083 33.5719C156.581 32.7904 156.488 31.7734 155.858 31.0933C154.712 29.7072 153.18 28.812 151.788 27.618L147.991 32.4259ZM157.716 30.9704L158.177 31.7754C158.69 32.6319 158.755 33.6821 158.353 34.5951C157.826 35.9073 156.96 37.0569 155.842 37.9266C154.981 38.673 153.766 38.8601 152.72 38.4064C152.354 38.2667 151.996 38.1071 151.648 37.9266C149.178 36.3075 146.876 34.4473 144.777 32.3724L155.638 18.6094C158.064 20.3203 160.517 21.8716 162.466 24.0413C163.763 25.4804 163.816 26.8074 162.804 28.4704C162.648 28.7253 162.479 28.9705 162.295 29.206C161.197 30.6773 159.885 31.7489 157.716 30.9704Z" fill="#323E5A"/>
<path d="M95.2513 10.3147C95.1795 8.39128 94.8615 6.48565 94.3032 4.64273C93.8909 3.23161 92.5654 2.28135 91.0898 2.33997C90.45 2.33386 89.8103 2.39452 89.1834 2.52146C87.7324 2.80389 86.7305 3.66749 86.5969 5.14386C86.4309 6.83231 86.3987 8.53096 86.5006 10.224C86.6317 11.4506 86.897 12.6583 87.2929 13.8273C87.5685 14.8433 88.3982 15.6156 89.4349 15.8211C90.5678 16.079 91.7515 16.0107 92.8465 15.6233C93.8509 15.3301 94.612 14.5109 94.8282 13.4913C95.0423 12.4253 95.1119 11.3644 95.2513 10.3147ZM90.6677 0H91.0754C91.7402 0.0122352 92.4045 0.0830975 93.0606 0.213096C94.714 0.475132 96.0876 1.62269 96.6326 3.19847C97.0613 4.39956 97.3835 5.63531 97.5971 6.89247C97.8112 8.09151 97.8327 9.33389 97.9663 10.901C97.827 11.8018 97.7041 13.033 97.4306 14.2325C97.1038 15.8619 95.9017 17.1802 94.3032 17.6599C92.4373 18.3216 90.4275 18.4741 88.4817 18.1024C86.8217 17.875 85.4286 16.7433 84.8723 15.1706C84.459 14.0546 84.1558 12.9015 83.9673 11.7269C83.5627 9.54495 83.5048 7.31254 83.7962 5.11225C84.187 2.50566 85.4347 1.01297 87.9731 0.37878C88.8556 0.143254 89.7601 0.0163135 90.6677 0Z" fill="#323E5A"/>
<path d="M136.102 10.3406C134.986 10.2845 133.922 10.8096 133.29 11.7262C131.59 13.9841 130.419 16.5928 129.862 19.3594C129.541 20.6982 130.16 22.0843 131.373 22.7445C131.84 23.0432 132.337 23.2936 132.857 23.4903C134.688 24.1679 135.984 23.8319 137.141 22.2541C138.799 20.0212 139.935 17.4477 140.466 14.7223C140.682 13.7914 140.424 12.8142 139.775 12.1101C138.815 11.0854 137.505 10.4543 136.102 10.3406ZM143.283 14.2477C143.165 14.914 143.096 15.5961 142.925 16.2517C142.217 19.023 140.985 21.6337 139.293 23.9436C138.559 25.0605 137.435 25.867 136.139 26.2091C133.462 26.8224 128.76 24.6476 127.533 22.2113C126.984 20.9918 126.895 19.6159 127.282 18.3363C127.957 15.4238 129.219 12.678 130.993 10.2657C132.738 7.90989 134.602 7.33943 137.419 8.18722C138.904 8.61444 140.286 9.33988 141.479 10.3192C142.677 11.2659 143.348 12.7265 143.283 14.2477Z" fill="#323E5A"/>
<path d="M189.157 64.4994C188.67 63.3962 188.242 62.3674 187.781 61.3973C186.71 59.0894 185.575 58.7321 183.309 59.8888C182.862 60.1238 182.449 60.4195 182.083 60.7682C181.553 61.2306 181.335 61.9524 181.521 62.6284C182.012 64.1726 182.646 65.6684 183.416 67.0953L189.157 64.4994ZM191.926 66.0986L175.994 73.2735C175.624 72.4686 175.298 71.7543 174.923 70.9494L181.349 68.0175C180.765 66.7864 180.278 65.6189 179.678 64.5101C179.191 63.5986 178.318 63.4441 177.354 63.5614L172.534 64.2705C172.368 64.2705 172.197 64.2705 171.929 64.3077L170.783 61.8556C173.032 61.5783 175.132 61.2372 177.247 61.1041C177.98 61.0613 178.752 61.5466 179.539 61.797C179.539 61.797 179.609 61.7597 179.603 61.7062C179.319 59.7659 180.283 58.5083 181.922 57.7191C182.843 57.2801 183.809 56.9427 184.803 56.7117C186.092 56.4079 187.438 56.8907 188.236 57.9429C188.586 58.3155 188.882 58.7356 189.114 59.1904C190.073 61.3228 190.989 63.4548 191.91 65.6189C191.969 65.7255 191.926 65.8641 191.926 66.0986Z" fill="#323E5A"/>
<path d="M41.5737 163.357L43.6245 164.957L41.4825 167.766L39.3406 170.58L45.4243 175.239L49.7942 169.637L51.8507 171.236L41.0594 185.143L38.9871 183.544L44.0209 176.972L37.9372 172.334L32.8604 178.864L30.7983 177.297C34.4026 172.638 37.9643 168.032 41.5737 163.357Z" fill="#323E5A"/>
<path d="M5.7949 106.662C2.65111 106.718 0.0568931 104.227 0.000552828 101.098L4.01435e-05 101.062V101.06V101.057V101.055V101.052V101.05V100.944V100.942V100.939V100.936C-0.0117401 97.7543 2.5707 95.1651 5.76775 95.1528C5.77185 95.1528 5.77492 95.1528 5.77851 95.1528C8.92435 95.2145 11.4668 97.7263 11.5519 100.856C11.5693 104.041 8.99349 106.638 5.7949 106.662Z" fill="#323E5A"/>
<path d="M189.275 106.662C186.102 106.709 183.491 104.187 183.444 101.028C183.443 101.001 183.443 100.974 183.443 100.947C183.414 97.7709 185.977 95.1719 189.168 95.1423C192.359 95.1133 194.971 97.6643 195 100.841V101.01C194.96 104.097 192.458 106.612 189.335 106.661C189.315 106.661 189.295 106.662 189.275 106.662Z" fill="#323E5A"/>
<path d="M101.533 193.967C103.236 194.089 106.224 193.791 107.011 193.434C106.813 192.928 106.621 192.416 106.422 191.904C105.708 190.127 105.003 188.35 104.307 186.573C104.157 186.201 104.055 185.7 103.354 186.041L101.533 193.967ZM99.7015 201.803L97.1841 202C97.2379 201.616 97.2486 201.339 97.3126 201.078C98.5767 195.914 99.8444 190.753 101.115 185.593C101.49 184.068 101.501 184.068 103.048 183.898C105.517 183.621 105.517 183.621 106.486 185.95C108.372 190.463 110.257 194.979 112.142 199.5C112.302 199.878 112.436 200.268 112.64 200.817L110.048 201.003L107.965 195.875L101.002 196.408C100.574 198.157 100.146 199.915 99.7015 201.803Z" fill="#323E5A"/>
<path d="M26.2416 162.012C27.5692 160.44 30.4932 155.664 30.6971 154.678C29.6261 154.566 28.8655 155.259 28.0194 155.568C27.1733 155.877 26.2949 156.293 25.4329 156.666L22.6963 157.849L26.2416 162.012ZM23.7882 170.781L22.0801 168.771L25.0415 164.091L20.4898 158.761L15.3858 160.893L13.6992 158.974C14.0793 158.782 14.3471 158.617 14.6416 158.494L29.4545 152.449C30.8257 151.89 30.8738 151.917 31.8326 153.036C33.7174 155.259 33.6529 154.678 32.1747 157.108C29.6471 161.277 27.1144 165.425 24.576 169.555C24.3511 169.918 24.0991 170.269 23.7882 170.781Z" fill="#323E5A"/>
<path d="M176.77 133.341C176.77 133.693 176.701 133.927 176.77 133.997C178.784 135.798 180.808 137.578 182.972 139.487C183.738 137.675 184.579 136.091 185.216 134.322L176.77 133.341ZM194.186 132.931L193.163 135.255L187.62 134.658L184.761 141.022L188.933 144.684C188.6 145.43 188.263 146.177 187.862 147.04C187.454 146.704 187.16 146.481 186.886 146.235L175.281 135.788C174.055 134.684 174.044 134.679 174.714 133.213C175.881 130.639 175.346 130.974 178.2 131.225C183.218 131.672 188.231 132.221 193.249 132.728C193.522 132.755 193.757 132.835 194.186 132.931Z" fill="#323E5A"/>
<path d="M21.8397 36.6884L26.4452 44.0234L30.1191 39.8069C27.5536 38.6823 25.1812 37.627 22.7928 36.6089C22.6105 36.5238 22.3426 36.641 21.8397 36.6884ZM27.6929 46.033C28.6999 47.6323 29.6474 49.1566 30.6221 50.7237L28.9565 52.6482C28.7157 52.3122 28.5068 52.0563 28.3408 51.779C25.5776 47.2234 22.821 42.6679 20.0721 38.1118C19.3387 36.9021 19.3438 36.8271 20.2703 35.7825C22.3109 33.4691 21.6148 33.7036 24.3617 34.8282C28.8602 36.6783 33.3377 38.5599 37.8249 40.4518C38.2163 40.6119 38.5855 40.804 39.0731 41.0278L37.3701 42.9788L32.2611 40.7877C30.7348 42.5363 29.2566 44.2421 27.6929 46.033Z" fill="#323E5A"/>
<path d="M167.714 43.7487C168.394 44.6174 168.941 45.3479 169.493 46.0193C170.044 46.6912 170.59 47.3576 171.201 48.0983C172.732 45.8919 174.168 43.8343 175.581 41.7763C175.694 41.5301 175.766 41.2675 175.796 40.9983C175.491 40.9479 175.179 40.9479 174.875 40.9983C173.595 41.4566 172.331 41.9685 171.061 42.4589L167.714 43.7487ZM169.803 50.0493L165.519 44.6016L160.313 46.5577L158.75 44.5695C159.173 44.3778 159.504 44.1963 159.848 44.0739C164.778 42.2652 169.712 40.4651 174.65 38.6742C176.122 38.1414 176.139 38.1414 177.113 39.3833C178.87 41.6167 178.768 41.0835 177.247 43.3704C174.551 47.4177 171.845 51.4548 169.128 55.4812C168.898 55.8278 168.641 56.1633 168.293 56.6486L166.686 54.6334L169.803 50.0493Z" fill="#323E5A"/>
<path d="M122.36 190.329C123.089 192.893 123.796 195.383 124.54 198.016L122.034 198.719C120.459 193.074 118.906 187.526 117.315 181.827L119.811 181.086C120.464 183.464 121.091 185.74 121.718 188.016C123.924 188.016 125.376 187.014 125.868 184.919C126.131 183.544 126.324 182.156 126.447 180.761C126.5 180.297 126.511 179.828 126.548 179.253L128.958 178.549C128.994 178.903 129.012 179.259 129.012 179.615C128.921 180.846 128.846 182.078 128.701 183.298C128.487 185.154 127.962 186.875 126.024 188.133C128.166 187.968 129.43 188.933 130.468 190.228C131.748 191.827 132.943 193.474 134.287 195.265L131.668 196.049C131.052 195.207 130.458 194.385 129.858 193.57C129.322 192.883 128.862 192.184 128.31 191.534C126.537 189.471 125.086 189.172 122.36 190.329Z" fill="#323E5A"/>
<path d="M165.921 152.184L171.421 156.091C172.143 155.084 172.813 154.167 173.461 153.234C173.7 152.884 173.913 152.517 174.098 152.136C174.616 151.299 174.422 150.209 173.648 149.599C172.992 149.006 172.274 148.484 171.506 148.042C170.387 147.424 169.578 147.509 168.759 148.49C167.752 149.641 166.89 150.905 165.921 152.184ZM162.771 153.165C164.107 150.836 165.654 148.635 167.393 146.587C169.086 144.716 170.575 144.455 172.749 145.739C173.914 146.447 175 147.276 175.989 148.213C177.162 149.193 177.446 150.877 176.658 152.184C175.924 153.522 174.998 154.753 174.136 156.011C173.852 156.427 173.504 156.795 173.102 157.29L178.667 161.283L177.156 163.415L162.771 153.165Z" fill="#323E5A"/>
<path d="M110.712 9.79708C112.318 10.0423 113.786 10.3303 115.258 10.469C116.522 10.5755 117.219 10.0902 117.561 8.90187C117.801 7.96028 117.95 6.99829 118.006 6.02865C118.093 5.18953 117.562 4.41004 116.747 4.17911C115.182 3.68511 113.565 3.37414 111.928 3.25127C111.505 5.42097 111.13 7.49432 110.712 9.79708ZM109.689 0.6875C111.408 0.932713 113.009 1.1193 114.6 1.40173C115.777 1.58576 116.938 1.86564 118.07 2.23881C119.982 2.91022 120.748 4.00323 120.705 6.00724C120.696 7.54071 120.394 9.05838 119.816 10.4797C119.184 12.0412 118.043 12.8997 116.357 12.7819C114.878 12.6759 113.406 12.393 111.938 12.1585C111.44 12.0784 110.953 11.924 110.375 11.7802C109.962 14.0136 109.56 16.1726 109.132 18.4805L106.572 18.0594C107.643 12.2599 108.639 6.55629 109.689 0.6875Z" fill="#323E5A"/>
<path d="M41.2363 27.7489C42.5107 26.7946 43.7215 25.9901 44.8191 25.0516C45.9172 24.1135 46.0079 23.3458 45.3118 22.1095C44.8821 21.3769 44.3801 20.6897 43.8121 20.0571C43.1924 19.2786 42.083 19.0874 41.2363 19.6146C39.8683 20.4129 38.5566 21.3035 37.311 22.2798L41.2363 27.7489ZM34.0063 22.1411C36.1488 20.3767 38.2211 18.65 40.6043 17.3811C42.7468 16.2509 44.1712 16.4854 45.7405 18.2983C46.6476 19.3683 47.4287 20.5378 48.0699 21.7843C48.8551 23.0944 48.5662 24.7783 47.3897 25.7556C46.1472 26.8216 44.7494 27.7596 43.4162 28.7456C43.1427 28.9428 42.8323 29.1029 42.3877 29.3695L46.3561 34.9503L44.2459 36.4695L34.0063 22.1411Z" fill="#323E5A"/>
<path d="M161.556 169.314C160.249 165.935 158.97 162.603 157.652 159.186L159.575 157.513C159.767 157.896 159.934 158.173 160.051 158.467C161.583 162.432 163.126 166.398 164.614 170.375C164.984 171.376 165.275 172.404 165.482 173.451C165.805 174.866 165.217 176.333 164.003 177.139C163.329 177.646 162.595 178.077 161.792 178.605L160.721 176.963C161.176 176.595 161.545 176.249 161.953 175.966C163.05 175.344 163.458 173.971 162.879 172.854C162.724 172.475 162.579 172.086 162.402 171.627C162.097 171.846 161.867 171.974 161.701 172.134C161.057 172.75 160.063 172.819 159.339 172.299L149.565 166.697C149.458 166.633 149.335 166.585 149.062 166.457L151.065 164.762C151.456 164.964 151.799 165.124 152.136 165.295L159.532 169.634C160.555 170.252 160.56 170.247 161.556 169.314Z" fill="#323E5A"/>
<path d="M66.9691 178.643L69.32 179.709C68.9451 180.14 68.6879 180.461 68.4042 180.775C65.6353 183.68 62.8777 186.595 60.0873 189.474C59.2812 190.295 58.4207 191.061 57.5116 191.766C56.3627 192.738 54.7227 192.883 53.4197 192.129C52.6381 191.723 51.9098 191.222 51.1118 190.743C51.5082 190.135 51.8028 189.677 52.1828 189.143C52.7667 189.415 53.3076 189.639 53.8213 189.916C54.7314 190.484 55.9212 190.305 56.6224 189.495C57.0229 189.146 57.4434 188.821 57.8809 188.52C55.7389 187.15 55.7117 187.15 55.8833 184.789C56.1246 181.436 56.4191 178.083 56.6598 174.73C56.6895 174.56 56.732 174.392 56.7884 174.229L59.1234 175.226C58.9303 177.571 58.7429 179.815 58.5503 182.054C58.454 183.157 58.3254 184.255 58.2343 185.359C58.1754 186.111 58.2343 186.153 59.4983 186.569L66.9691 178.643Z" fill="#323E5A"/>
<path d="M146.203 171.534L141.329 174.391C143.916 178.799 146.471 183.144 149.073 187.563L146.824 188.895L139.053 175.739L134.234 178.501L133.066 176.55L144.917 169.62L146.203 171.534Z" fill="#323E5A"/>
<path d="M92.2569 144.338C92.2477 142.772 93.5164 141.496 95.0898 141.486C96.6632 141.478 97.9457 142.74 97.9549 144.307C97.9636 145.873 96.6955 147.149 95.122 147.158C95.1185 147.158 95.1149 147.158 95.1113 147.158C93.5445 147.155 92.2712 145.898 92.2569 144.338Z" fill="#323E5A"/>
</svg>
