<svg width="2280" height="1339" viewBox="0 0 2280 1339" fill="none" xmlns="http://www.w3.org/2000/svg">
<g clip-path="url(#clip0_2036_83852)">
<path fill-rule="evenodd" clip-rule="evenodd" d="M2050.64 159.686C2049.09 158.133 2046.57 158.133 2045.02 159.686C2043.46 161.239 2043.46 163.757 2045.02 165.31C2046.57 166.863 2049.09 166.863 2050.64 165.31C2052.2 163.757 2052.2 161.239 2050.64 159.686ZM2043.14 157.811C2045.73 155.222 2049.93 155.222 2052.52 157.811C2055.11 160.4 2055.11 164.596 2052.52 167.185C2049.93 169.773 2045.73 169.773 2043.14 167.185C2040.55 164.596 2040.55 160.4 2043.14 157.811Z" fill="white"/>
<path fill-rule="evenodd" clip-rule="evenodd" d="M2052.75 148.77C2055.85 149.88 2058.48 152.005 2060.21 154.8C2061.95 157.596 2062.69 160.896 2062.32 164.166C2061.94 167.436 2060.47 170.482 2058.14 172.809L2057.2 173.747C2056.21 174.741 2054.86 175.3 2053.46 175.3C2052.05 175.3 2050.7 174.741 2049.71 173.747C2048.71 172.752 2048.15 171.403 2048.15 169.997C2048.15 168.591 2048.71 167.242 2049.71 166.248L2054.39 161.561C2054.91 161.043 2055.75 161.043 2056.27 161.561C2056.78 162.078 2056.78 162.918 2056.27 163.435L2051.58 168.122C2051.08 168.62 2050.8 169.294 2050.8 169.997C2050.8 170.7 2051.08 171.375 2051.58 171.872C2052.08 172.369 2052.75 172.648 2053.46 172.648C2054.16 172.648 2054.83 172.369 2055.33 171.872L2056.27 170.935C2056.27 170.935 2056.27 170.935 2056.27 170.935C2058.17 169.03 2059.37 166.538 2059.68 163.863C2059.99 161.188 2059.38 158.487 2057.96 156.2C2056.54 153.913 2054.39 152.174 2051.85 151.266C2049.32 150.358 2046.55 150.335 2044 151.199C2041.45 152.063 2039.27 153.765 2037.81 156.027C2036.35 158.29 2035.69 160.98 2035.96 163.66C2036.22 166.34 2037.38 168.852 2039.25 170.789C2041.12 172.725 2043.59 173.972 2046.26 174.326C2046.99 174.422 2047.5 175.089 2047.4 175.814C2047.31 176.54 2046.64 177.051 2045.91 176.954C2042.65 176.522 2039.63 174.998 2037.34 172.631C2035.06 170.264 2033.64 167.193 2033.32 163.918C2033 160.642 2033.79 157.355 2035.58 154.589C2037.36 151.824 2040.03 149.745 2043.15 148.688C2046.27 147.631 2049.65 147.66 2052.75 148.77Z" fill="white"/>
</g>
<path fill-rule="evenodd" clip-rule="evenodd" d="M314.601 1031.54C308.767 1033.1 305.304 1039.1 306.868 1044.93C308.431 1050.76 314.428 1054.23 320.262 1052.66C326.097 1051.1 329.559 1045.1 327.996 1039.27C326.433 1033.43 320.435 1029.97 314.601 1031.54ZM304.947 1045.44C303.099 1038.55 307.191 1031.46 314.086 1029.61C320.982 1027.77 328.069 1031.86 329.917 1038.75C331.764 1045.65 327.672 1052.74 320.777 1054.58C313.882 1056.43 306.794 1052.34 304.947 1045.44Z" fill="white"/>
<path fill-rule="evenodd" clip-rule="evenodd" d="M315.372 1034.42C315.903 1034.27 316.448 1034.59 316.59 1035.12L318.134 1040.88L323.896 1039.34C324.427 1039.2 324.972 1039.51 325.114 1040.04C325.256 1040.57 324.941 1041.12 324.411 1041.26L317.688 1043.06C317.158 1043.2 316.613 1042.89 316.471 1042.36L314.669 1035.63C314.527 1035.1 314.842 1034.56 315.372 1034.42Z" fill="white"/>
<path fill-rule="evenodd" clip-rule="evenodd" d="M1666.5 411.384C1667.04 411.35 1667.52 411.766 1667.55 412.314C1667.66 414.089 1668.8 415.32 1670.06 416.155C1670.56 416.487 1671.07 416.74 1671.49 416.925C1671.54 416.467 1671.57 415.906 1671.53 415.305C1671.44 413.792 1670.94 412.193 1669.46 411.21C1669.01 410.906 1668.88 410.289 1669.19 409.831C1669.49 409.374 1670.11 409.249 1670.56 409.553C1672.79 411.029 1673.41 413.373 1673.52 415.187C1673.57 416.103 1673.5 416.928 1673.42 417.521C1673.37 417.82 1673.33 418.063 1673.29 418.235C1673.27 418.321 1673.26 418.39 1673.24 418.438C1673.24 418.463 1673.23 418.482 1673.23 418.497L1673.23 418.514L1673.22 418.52L1673.22 418.522L1673.22 418.523C1673.22 418.524 1673.22 418.524 1672.26 418.267C1672.01 419.227 1672 419.227 1672 419.227L1672 419.227L1672 419.226L1672 419.224L1671.98 419.219C1671.96 419.215 1671.94 419.21 1671.92 419.203C1671.87 419.189 1671.81 419.168 1671.72 419.141C1671.55 419.087 1671.32 419.005 1671.04 418.893C1670.48 418.67 1669.73 418.321 1668.97 417.815C1667.45 416.814 1665.73 415.1 1665.57 412.439C1665.53 411.891 1665.95 411.418 1666.5 411.384ZM1672.26 418.267L1672.01 419.227C1672.54 419.369 1673.08 419.054 1673.22 418.524L1672.26 418.267Z" fill="white"/>
<path fill-rule="evenodd" clip-rule="evenodd" d="M1656.94 391.737C1656.49 392.808 1655.69 395.536 1657.75 399.097L1663.22 408.571L1668.39 405.584L1662.92 396.11C1660.86 392.549 1658.1 391.875 1656.94 391.737ZM1655.12 390.949C1654.49 392.423 1653.57 395.84 1656.02 400.091L1661.99 410.426C1662.12 410.655 1662.34 410.821 1662.59 410.889C1662.85 410.958 1663.12 410.922 1663.35 410.79L1670.24 406.809C1670.72 406.535 1670.88 405.927 1670.61 405.451L1664.64 395.116C1662.19 390.864 1658.77 389.951 1657.18 389.762C1656.75 389.708 1656.32 389.795 1655.95 390.009C1655.58 390.224 1655.28 390.554 1655.12 390.949Z" fill="white"/>
<path fill-rule="evenodd" clip-rule="evenodd" d="M1663.81 397.076C1663.95 396.545 1664.5 396.231 1665.03 396.373L1672.79 398.451L1672.8 398.455C1673.3 398.597 1673.73 398.931 1673.99 399.385L1676.83 404.302C1677.01 404.614 1677.11 404.969 1677.1 405.329C1677.09 405.689 1676.99 406.041 1676.8 406.346C1676.61 406.652 1676.34 406.9 1676.02 407.065C1675.7 407.229 1675.34 407.303 1674.98 407.28C1674.98 407.28 1674.98 407.28 1674.98 407.28L1669.68 406.941C1669.14 406.906 1668.72 406.433 1668.75 405.885C1668.79 405.337 1669.26 404.921 1669.81 404.956L1675.11 405.296L1672.26 400.368L1664.52 398.294C1663.99 398.151 1663.67 397.606 1663.81 397.076Z" fill="white"/>
<path fill-rule="evenodd" clip-rule="evenodd" d="M1654.84 408.825L1654.84 408.812L1656.92 401.057C1657.06 400.526 1657.61 400.212 1658.14 400.354C1658.67 400.496 1658.98 401.041 1658.84 401.571L1656.76 409.313L1656.77 409.323L1656.77 409.323L1659.6 414.249L1659.61 414.248L1661.96 409.488C1662.2 408.996 1662.8 408.795 1663.29 409.038C1663.79 409.282 1663.99 409.878 1663.74 410.37L1661.39 415.129C1661.39 415.129 1661.39 415.129 1661.39 415.13C1661.23 415.452 1660.98 415.725 1660.68 415.92C1660.38 416.116 1660.03 416.225 1659.67 416.237C1659.31 416.249 1658.95 416.163 1658.64 415.988C1658.32 415.813 1658.06 415.556 1657.88 415.245L1657.88 415.243L1657.88 415.243L1655.05 410.318C1654.78 409.868 1654.71 409.332 1654.84 408.825Z" fill="white"/>
<g clip-path="url(#clip1_2036_83852)">
<path fill-rule="evenodd" clip-rule="evenodd" d="M210.935 196.483C206.275 191.824 198.721 191.824 194.062 196.483C189.402 201.143 189.402 208.697 194.062 213.356C198.721 218.016 206.275 218.016 210.935 213.356C215.594 208.697 215.594 201.143 210.935 196.483ZM192.187 194.609C197.882 188.914 207.115 188.914 212.809 194.609C218.504 200.303 218.504 209.536 212.809 215.231C207.115 220.926 197.882 220.926 192.187 215.231C186.492 209.536 186.492 200.303 192.187 194.609Z" fill="white"/>
<path fill-rule="evenodd" clip-rule="evenodd" d="M206.467 201.435C206.105 200.923 205.574 200.557 204.968 200.399C204.362 200.242 203.72 200.304 203.155 200.575C202.495 200.891 201.703 200.613 201.387 199.953C201.07 199.293 201.349 198.501 202.009 198.184C203.138 197.643 204.423 197.518 205.635 197.833C206.847 198.148 207.908 198.881 208.631 199.904C209.354 200.926 209.692 202.172 209.585 203.419C209.478 204.667 208.933 205.836 208.046 206.72C206.611 208.154 204.6 208.038 203.335 207.785C202.654 207.649 202.052 207.447 201.625 207.283C201.409 207.2 201.233 207.125 201.108 207.068C201.045 207.04 200.995 207.017 200.959 207L200.915 206.979L200.901 206.972L200.896 206.969L200.894 206.968C200.894 206.968 200.893 206.968 201.485 205.782L200.893 206.968C200.238 206.64 199.972 205.844 200.3 205.189C200.627 204.535 201.422 204.269 202.077 204.596L202.075 204.595C202.076 204.595 202.076 204.595 202.077 204.596L202.097 204.605C202.117 204.615 202.149 204.63 202.193 204.649C202.28 204.688 202.411 204.745 202.577 204.808C202.911 204.937 203.363 205.087 203.855 205.185C204.932 205.4 205.733 205.284 206.172 204.844L206.174 204.843C206.617 204.401 206.89 203.816 206.943 203.192C206.997 202.569 206.828 201.946 206.467 201.435Z" fill="white"/>
<path fill-rule="evenodd" clip-rule="evenodd" d="M196.873 208.669C197.391 208.152 198.23 208.152 198.748 208.669L198.757 208.679C199.275 209.196 199.275 210.036 198.757 210.553C198.24 211.071 197.4 211.071 196.883 210.553L196.873 210.544C196.355 210.026 196.355 209.187 196.873 208.669Z" fill="white"/>
</g>
<g clip-path="url(#clip2_2036_83852)">
<path fill-rule="evenodd" clip-rule="evenodd" d="M1767.28 1168.44C1760.91 1170.15 1757.13 1176.69 1758.84 1183.06C1760.54 1189.42 1767.09 1193.2 1773.45 1191.49C1779.82 1189.79 1783.59 1183.25 1781.89 1176.88C1780.18 1170.52 1773.64 1166.74 1767.28 1168.44ZM1756.28 1183.74C1754.19 1175.96 1758.81 1167.97 1766.59 1165.88C1774.37 1163.8 1782.36 1168.42 1784.45 1176.19C1786.53 1183.97 1781.92 1191.97 1774.14 1194.05C1766.36 1196.14 1758.36 1191.52 1756.28 1183.74Z" fill="white"/>
<path fill-rule="evenodd" clip-rule="evenodd" d="M1768.65 1173.57C1769.36 1173.38 1770.08 1173.8 1770.27 1174.5L1771.65 1179.63C1771.84 1180.33 1771.42 1181.06 1770.71 1181.25C1770 1181.44 1769.27 1181.02 1769.08 1180.31L1767.71 1175.19C1767.52 1174.48 1767.94 1173.76 1768.65 1173.57Z" fill="white"/>
<path fill-rule="evenodd" clip-rule="evenodd" d="M1770.46 1185.43C1770.27 1184.73 1770.69 1184 1771.39 1183.81L1771.41 1183.81C1772.11 1183.62 1772.84 1184.04 1773.03 1184.74C1773.22 1185.45 1772.8 1186.18 1772.09 1186.37L1772.08 1186.37C1771.37 1186.56 1770.65 1186.14 1770.46 1185.43Z" fill="white"/>
</g>
<path fill-rule="evenodd" clip-rule="evenodd" d="M817.668 1133.91C818.056 1133.52 818.686 1133.52 819.074 1133.91L821.886 1136.72C822.275 1137.11 822.275 1137.74 821.886 1138.13C821.498 1138.52 820.868 1138.52 820.48 1138.13L817.668 1135.32C817.28 1134.93 817.28 1134.3 817.668 1133.91Z" fill="white"/>
<path fill-rule="evenodd" clip-rule="evenodd" d="M837.385 1116.65C837.839 1116.69 838.263 1116.89 838.586 1117.21C838.909 1117.54 839.11 1117.96 839.152 1118.42C839.314 1120 839.442 1123.66 837.77 1127.42C836.073 1131.24 832.568 1135.06 825.668 1136.98C825.323 1137.08 824.953 1136.98 824.699 1136.72L819.075 1131.1C818.824 1130.85 818.726 1130.48 818.818 1130.14C820.683 1123.19 824.511 1119.67 828.344 1117.98C832.118 1116.32 835.794 1116.47 837.385 1116.65ZM837.174 1118.63L837.174 1118.63C835.755 1118.47 832.473 1118.34 829.146 1119.8C825.968 1121.2 822.649 1124.1 820.892 1130.11L825.69 1134.9C831.649 1133.1 834.543 1129.78 835.952 1126.61C837.424 1123.3 837.319 1120.05 837.174 1118.63Z" fill="white"/>
<path fill-rule="evenodd" clip-rule="evenodd" d="M825.909 1121.28C825.958 1121.83 825.554 1122.31 825.007 1122.36L818.956 1122.91C818.956 1122.91 818.955 1122.91 818.954 1122.91L815.142 1128.88L819.887 1129.41C820.433 1129.47 820.826 1129.96 820.765 1130.51C820.705 1131.05 820.213 1131.45 819.667 1131.39L814.922 1130.86C814.587 1130.82 814.266 1130.7 813.991 1130.5C813.716 1130.31 813.495 1130.05 813.349 1129.74C813.203 1129.44 813.137 1129.1 813.157 1128.77C813.177 1128.43 813.282 1128.1 813.463 1127.82L813.464 1127.82L817.272 1121.85C817.43 1121.59 817.648 1121.37 817.906 1121.21C818.168 1121.05 818.464 1120.95 818.771 1120.93L824.829 1120.38C825.376 1120.33 825.859 1120.74 825.909 1121.28Z" fill="white"/>
<path fill-rule="evenodd" clip-rule="evenodd" d="M834.536 1129.77C835.083 1129.82 835.486 1130.3 835.436 1130.85L834.874 1137.03C834.849 1137.34 834.752 1137.63 834.59 1137.89C834.43 1138.15 834.211 1138.37 833.952 1138.53L827.986 1142.34L827.983 1142.34C827.698 1142.52 827.372 1142.62 827.035 1142.64C826.699 1142.66 826.363 1142.6 826.058 1142.45C825.754 1142.3 825.492 1142.08 825.297 1141.81C825.102 1141.53 824.98 1141.21 824.942 1140.88L824.415 1136.13C824.354 1135.59 824.748 1135.09 825.293 1135.03C825.839 1134.97 826.331 1135.37 826.391 1135.91L826.919 1140.66L832.892 1136.84C832.893 1136.84 832.894 1136.84 832.895 1136.84L833.456 1130.67C833.506 1130.12 833.989 1129.72 834.536 1129.77Z" fill="white"/>
<path d="M829.973 1125.83C830.555 1126.41 831.499 1126.41 832.082 1125.83C832.664 1125.25 832.664 1124.3 832.082 1123.72C831.499 1123.14 830.555 1123.14 829.973 1123.72C829.39 1124.3 829.39 1125.25 829.973 1125.83Z" fill="white"/>
<path fill-rule="evenodd" clip-rule="evenodd" d="M2083.82 872.692C2084.23 872.655 2084.65 872.747 2085.01 872.955C2085.37 873.163 2085.65 873.477 2085.83 873.854C2086 874.226 2086.06 874.641 2085.99 875.045L2084.92 882.363L2084.91 882.386C2084.91 882.393 2084.91 882.4 2084.92 882.407C2084.92 882.413 2084.92 882.419 2084.93 882.423L2084.94 882.426L2091.05 886.502C2092.64 887.56 2092.01 889.949 2090.23 890.254C2090.23 890.254 2090.23 890.254 2090.23 890.254L2083.03 891.503L2083.02 891.503C2083.01 891.506 2082.99 891.513 2082.98 891.524C2082.97 891.535 2082.96 891.549 2082.95 891.564C2082.95 891.564 2082.95 891.565 2082.95 891.565L2080.96 898.645C2080.47 900.365 2078.07 900.781 2077.18 899.078L2077.17 899.075L2073.74 892.499C2073.74 892.495 2073.73 892.491 2073.73 892.488C2073.72 892.486 2073.72 892.485 2073.72 892.485L2073.71 892.485L2066.82 892.767C2066.82 892.767 2066.82 892.767 2066.82 892.767C2064.71 892.858 2063.78 890.332 2065.16 888.921C2065.16 888.921 2065.16 888.921 2065.16 888.921L2069.92 884.038C2069.92 884.038 2069.92 884.037 2069.92 884.037C2069.93 884.025 2069.94 884.011 2069.94 883.995C2069.94 883.979 2069.94 883.963 2069.93 883.947L2069.93 883.943L2067.41 877.079C2067.41 877.079 2067.41 877.078 2067.41 877.078C2066.79 875.388 2068.54 873.649 2070.25 874.494L2076.84 877.754C2076.85 877.758 2076.86 877.759 2076.87 877.758C2076.87 877.757 2076.88 877.754 2076.88 877.75L2076.9 877.735L2082.7 873.147C2083.02 872.886 2083.41 872.727 2083.82 872.692ZM2075.5 891.579C2075.5 891.579 2075.5 891.579 2075.5 891.579L2078.94 898.152C2078.94 898.152 2078.94 898.151 2078.94 898.152C2078.94 898.163 2078.95 898.17 2078.95 898.171C2078.95 898.172 2078.96 898.174 2078.97 898.172C2078.99 898.17 2079.01 898.162 2079.02 898.155C2079.02 898.151 2079.03 898.147 2079.03 898.141C2079.03 898.135 2079.04 898.124 2079.05 898.105C2079.05 898.105 2079.05 898.105 2079.05 898.105L2081.04 891.015C2081.15 890.639 2081.36 890.301 2081.65 890.041C2081.95 889.781 2082.3 889.608 2082.69 889.543C2082.69 889.543 2082.69 889.543 2082.69 889.543L2089.9 888.294C2089.91 888.291 2089.92 888.288 2089.92 888.286C2089.93 888.284 2089.93 888.281 2089.93 888.277C2089.94 888.267 2089.96 888.248 2089.96 888.221C2089.97 888.193 2089.97 888.176 2089.96 888.172C2089.96 888.17 2089.96 888.17 2089.96 888.169C2089.96 888.169 2089.96 888.164 2089.95 888.156C2089.95 888.156 2089.95 888.156 2089.95 888.156L2083.84 884.084C2083.84 884.084 2083.84 884.083 2083.84 884.082C2083.51 883.866 2083.25 883.56 2083.09 883.2C2082.94 882.843 2082.89 882.449 2082.95 882.065L2084.03 874.745C2084.03 874.735 2084.03 874.726 2084.03 874.716C2084.03 874.709 2084.03 874.701 2084.03 874.694C2084.02 874.687 2084.02 874.681 2084.01 874.677C2084.01 874.674 2084 874.672 2083.99 874.673C2083.98 874.673 2083.98 874.676 2083.97 874.681C2083.96 874.687 2083.95 874.693 2083.95 874.699L2078.14 879.289C2077.84 879.535 2077.48 879.69 2077.09 879.734C2076.7 879.778 2076.31 879.708 2075.96 879.533L2069.37 876.277C2069.37 876.277 2069.37 876.277 2069.37 876.277C2069.36 876.271 2069.35 876.27 2069.35 876.27C2069.35 876.27 2069.35 876.27 2069.35 876.27C2069.34 876.271 2069.33 876.276 2069.31 876.295C2069.29 876.314 2069.28 876.334 2069.27 876.348C2069.27 876.354 2069.27 876.358 2069.27 876.363C2069.27 876.367 2069.27 876.375 2069.28 876.389L2069.28 876.391L2071.8 883.254C2071.8 883.254 2071.8 883.255 2071.8 883.256C2071.93 883.622 2071.96 884.019 2071.89 884.401C2071.81 884.784 2071.62 885.136 2071.35 885.418L2071.34 885.421L2066.58 890.31C2066.48 890.414 2066.47 890.533 2066.52 890.638C2066.54 890.692 2066.57 890.728 2066.6 890.749C2066.63 890.766 2066.67 890.784 2066.74 890.781L2073.63 890.498C2073.63 890.498 2073.63 890.498 2073.63 890.498C2074.01 890.482 2074.39 890.575 2074.72 890.766C2075.05 890.958 2075.32 891.24 2075.5 891.579Z" fill="white"/>
<path fill-rule="evenodd" clip-rule="evenodd" d="M2067.59 586.372C2070.83 585.504 2075.24 585.289 2079.84 587.94C2084.43 590.591 2086.45 594.525 2087.32 597.763C2087.75 599.378 2087.9 600.826 2087.94 601.873C2087.96 602.398 2087.95 602.824 2087.94 603.123C2087.93 603.273 2087.93 603.391 2087.92 603.474C2087.92 603.516 2087.91 603.549 2087.91 603.572L2087.91 603.601L2087.91 603.61L2087.91 603.613L2087.91 603.614C2087.91 603.615 2087.91 603.615 2086.92 603.511C2087.5 604.315 2087.5 604.315 2087.5 604.315L2087.5 604.316L2087.5 604.318L2087.49 604.323L2087.47 604.339C2087.45 604.353 2087.42 604.372 2087.39 604.395C2087.32 604.442 2087.22 604.508 2087.09 604.588C2086.84 604.749 2086.48 604.968 2086.01 605.212C2085.08 605.701 2083.76 606.297 2082.14 606.73C2078.9 607.597 2074.48 607.812 2069.89 605.161C2065.3 602.51 2063.28 598.576 2062.41 595.339C2061.98 593.724 2061.83 592.275 2061.79 591.228C2061.77 590.704 2061.78 590.278 2061.79 589.978C2061.8 589.829 2061.8 589.71 2061.81 589.627C2061.81 589.586 2061.81 589.553 2061.82 589.529L2061.82 589.501L2061.82 589.492L2061.82 589.489L2061.82 589.487C2061.82 589.487 2061.82 589.486 2062.81 589.591C2062.22 588.787 2062.23 588.787 2062.23 588.786L2062.23 588.786L2062.23 588.784L2062.24 588.779L2062.26 588.762C2062.28 588.748 2062.31 588.73 2062.34 588.706C2062.41 588.659 2062.51 588.593 2062.63 588.513C2062.89 588.353 2063.25 588.134 2063.72 587.889C2064.64 587.4 2065.97 586.804 2067.59 586.372ZM2062.81 589.591L2062.22 588.787C2062 588.953 2061.85 589.207 2061.82 589.486L2062.81 589.591ZM2063.77 590.147C2063.76 590.395 2063.76 590.737 2063.78 591.152C2063.81 592.086 2063.95 593.383 2064.33 594.824C2065.1 597.698 2066.87 601.119 2070.89 603.439C2074.91 605.759 2078.75 605.579 2081.63 604.809C2083.07 604.423 2084.26 603.89 2085.08 603.454C2085.45 603.26 2085.75 603.086 2085.96 602.955C2085.96 602.706 2085.97 602.365 2085.95 601.949C2085.92 601.015 2085.78 599.718 2085.4 598.277C2084.63 595.403 2082.86 591.983 2078.84 589.662C2074.82 587.342 2070.98 587.522 2068.1 588.292C2066.66 588.678 2065.47 589.212 2064.65 589.648C2064.28 589.842 2063.98 590.016 2063.77 590.147ZM2086.92 603.511L2087.5 604.315C2087.73 604.149 2087.88 603.895 2087.91 603.615L2086.92 603.511Z" fill="white"/>
<path fill-rule="evenodd" clip-rule="evenodd" d="M2076.85 593.106C2074.95 592.008 2072.52 592.66 2071.42 594.562C2070.32 596.464 2070.97 598.896 2072.87 599.995C2074.78 601.093 2077.21 600.441 2078.31 598.539C2079.41 596.637 2078.75 594.204 2076.85 593.106ZM2069.7 593.568C2071.34 590.714 2074.99 589.737 2077.85 591.384C2080.7 593.031 2081.68 596.68 2080.03 599.533C2078.38 602.386 2074.73 603.364 2071.88 601.717C2069.03 600.069 2068.05 596.421 2069.7 593.568Z" fill="white"/>
<path fill-rule="evenodd" clip-rule="evenodd" d="M1278.94 144.972C1272.9 144.972 1268 149.868 1268 155.909C1268 161.949 1272.9 166.845 1278.94 166.845C1284.98 166.845 1289.88 161.949 1289.88 155.909C1289.88 149.868 1284.98 144.972 1278.94 144.972ZM1266.02 155.909C1266.02 148.77 1271.8 142.983 1278.94 142.983C1286.08 142.983 1291.87 148.77 1291.87 155.909C1291.87 163.047 1286.08 168.834 1278.94 168.834C1271.8 168.834 1266.02 163.047 1266.02 155.909Z" fill="white"/>
<path fill-rule="evenodd" clip-rule="evenodd" d="M1279.81 155.52L1282.65 155.904C1282.93 155.937 1283.2 156.033 1283.43 156.184L1290.18 160.331C1290.64 160.619 1290.79 161.231 1290.5 161.699C1290.21 162.167 1289.6 162.313 1289.13 162.025L1282.39 157.876L1279.55 157.492L1279.55 157.494L1277.85 161.31L1277.85 161.313L1280.19 163.84C1280.4 164.069 1280.55 164.343 1280.63 164.642C1280.72 164.94 1280.73 165.253 1280.68 165.558L1280.68 165.571L1280.19 168.032C1280.09 168.57 1279.56 168.921 1279.02 168.815C1278.48 168.709 1278.13 168.186 1278.24 167.647L1278.72 165.197C1278.72 165.194 1278.72 165.191 1278.72 165.188C1278.72 165.185 1278.72 165.181 1278.72 165.179L1276.38 162.658C1276.12 162.372 1275.95 162.014 1275.88 161.629C1275.82 161.246 1275.87 160.852 1276.03 160.498L1277.73 156.692C1277.9 156.297 1278.2 155.968 1278.57 155.756C1278.95 155.543 1279.38 155.46 1279.81 155.52Z" fill="white"/>
<path fill-rule="evenodd" clip-rule="evenodd" d="M1271.5 145.995C1272.01 146.21 1272.24 146.794 1272.03 147.299L1270.91 149.928L1270.91 149.929L1272.34 153.732L1272.34 153.745L1274.99 154.314C1275.29 154.375 1275.57 154.504 1275.81 154.69C1276.05 154.878 1276.24 155.118 1276.37 155.392C1276.37 155.393 1276.37 155.394 1276.37 155.395L1276.83 156.357C1276.84 156.36 1276.84 156.363 1276.84 156.365C1276.85 156.367 1276.85 156.368 1276.85 156.368H1278.52C1279.07 156.368 1279.51 156.813 1279.51 157.363C1279.51 157.912 1279.07 158.357 1278.52 158.357H1276.84L1276.83 158.357C1276.46 158.351 1276.1 158.246 1275.79 158.051C1275.48 157.856 1275.22 157.58 1275.06 157.252L1275.05 157.234L1274.58 156.259L1271.92 155.688C1271.92 155.688 1271.92 155.688 1271.92 155.688C1271.59 155.617 1271.28 155.462 1271.03 155.239C1270.78 155.019 1270.59 154.738 1270.48 154.423L1269.05 150.63C1269.05 150.629 1269.05 150.629 1269.05 150.629C1268.87 150.155 1268.88 149.631 1269.07 149.163L1269.08 149.157L1269.08 149.157L1270.2 146.522C1270.41 146.017 1270.99 145.781 1271.5 145.995Z" fill="white"/>
<path fill-rule="evenodd" clip-rule="evenodd" d="M1281.5 143.493C1281.98 143.227 1282.59 143.401 1282.86 143.881L1284.01 145.976C1284.23 146.366 1284.3 146.815 1284.23 147.254C1284.16 147.692 1283.94 148.094 1283.62 148.397L1283.61 148.406L1280.27 151.419C1280.16 151.527 1280.03 151.62 1279.89 151.696C1279.89 151.696 1279.89 151.696 1279.89 151.696L1278.37 152.54L1278.35 152.549C1278.07 152.698 1277.76 152.78 1277.44 152.789C1277.43 152.789 1277.42 152.789 1277.41 152.789H1274.76C1274.75 152.789 1274.75 152.79 1274.75 152.791C1274.75 152.792 1274.75 152.794 1274.75 152.796L1273.72 155.238C1273.5 155.744 1272.92 155.981 1272.42 155.768C1271.91 155.555 1271.67 154.972 1271.88 154.466L1272.92 152.011C1273.07 151.653 1273.33 151.348 1273.65 151.133C1273.98 150.918 1274.36 150.802 1274.75 150.8L1274.75 150.8L1277.39 150.8C1277.4 150.8 1277.41 150.797 1277.42 150.794L1278.92 149.96C1278.93 149.957 1278.93 149.954 1278.93 149.951L1282.27 146.939C1282.27 146.938 1282.27 146.936 1282.27 146.933C1282.27 146.931 1282.27 146.928 1282.27 146.926L1281.12 144.844C1280.85 144.364 1281.02 143.759 1281.5 143.493Z" fill="white"/>
<path fill-rule="evenodd" clip-rule="evenodd" d="M635.314 322.133C636.817 322.493 639.003 323.58 642.116 325.767C642.565 326.083 643.185 325.974 643.501 325.525C643.817 325.076 643.708 324.456 643.259 324.14C640.093 321.915 637.656 320.649 635.777 320.199C634.826 319.971 633.958 319.938 633.189 320.146C632.4 320.358 631.783 320.807 631.329 321.416C630.471 322.567 630.232 324.244 630.195 325.919C630.158 327.628 630.332 329.584 630.5 331.468L630.503 331.504C630.675 333.43 630.839 335.282 630.804 336.869C630.768 338.501 630.52 339.616 630.064 340.228C629.861 340.501 629.614 340.677 629.281 340.767C628.928 340.862 628.414 340.876 627.674 340.699C626.171 340.339 623.984 339.252 620.872 337.065C620.422 336.749 619.802 336.858 619.487 337.307C619.171 337.756 619.279 338.376 619.728 338.692C622.894 340.917 625.331 342.183 627.211 342.633C628.161 342.86 629.029 342.894 629.798 342.686C630.588 342.474 631.205 342.025 631.658 341.416C632.516 340.265 632.755 338.588 632.792 336.913C632.83 335.204 632.655 333.248 632.487 331.364L632.484 331.328C632.312 329.402 632.148 327.55 632.183 325.963C632.219 324.331 632.467 323.216 632.923 322.604C633.127 322.331 633.374 322.155 633.707 322.065C634.06 321.97 634.573 321.956 635.314 322.133Z" fill="white"/>
<path fill-rule="evenodd" clip-rule="evenodd" d="M979.2 800.435C978.014 801.12 977.138 802.236 976.757 803.551C976.603 804.079 976.052 804.382 975.525 804.229C974.997 804.076 974.694 803.524 974.847 802.997C975.372 801.189 976.575 799.654 978.205 798.713C979.836 797.772 981.767 797.497 983.595 797.946C984.128 798.078 984.454 798.616 984.323 799.149C984.192 799.683 983.653 800.009 983.12 799.877C981.79 799.55 980.385 799.75 979.2 800.435Z" fill="white"/>
<path fill-rule="evenodd" clip-rule="evenodd" d="M983.329 782.317C983.859 782.459 984.174 783.004 984.032 783.534L981.848 791.684C981.706 792.214 981.161 792.529 980.63 792.387C980.1 792.244 979.785 791.699 979.927 791.169L982.111 783.02C982.253 782.489 982.798 782.175 983.329 782.317Z" fill="white"/>
<path fill-rule="evenodd" clip-rule="evenodd" d="M976.945 786.003C977.087 785.472 977.632 785.157 978.162 785.3L986.311 787.483C986.842 787.625 987.157 788.17 987.014 788.701C986.872 789.231 986.327 789.546 985.797 789.404L977.648 787.22C977.117 787.078 976.803 786.533 976.945 786.003Z" fill="white"/>
<path fill-rule="evenodd" clip-rule="evenodd" d="M973.233 790.105C969.307 792.357 966.435 796.074 965.244 800.44C965.1 800.97 964.554 801.283 964.024 801.138C963.494 800.994 963.182 800.447 963.326 799.917C964.655 795.044 967.861 790.895 972.242 788.381" fill="white"/>
<path fill-rule="evenodd" clip-rule="evenodd" d="M977.87 794.486C977.299 794.699 976.748 794.96 976.222 795.267L976.214 795.272L976.214 795.272C973.658 796.734 971.783 799.147 970.998 801.986C970.852 802.515 970.304 802.826 969.775 802.679C969.246 802.533 968.935 801.985 969.082 801.456C970.006 798.113 972.213 795.271 975.223 793.548C975.846 793.184 976.5 792.875 977.176 792.623C977.691 792.431 978.263 792.693 978.455 793.208C978.647 793.722 978.385 794.295 977.87 794.486Z" fill="white"/>
<path d="M982.431 806.033C983.145 805.621 983.389 804.709 982.977 803.996C982.565 803.283 981.653 803.038 980.94 803.45C980.227 803.862 979.982 804.774 980.394 805.487C980.806 806.201 981.718 806.445 982.431 806.033Z" fill="white"/>
<path fill-rule="evenodd" clip-rule="evenodd" d="M910.769 210.782C911.158 210.394 911.787 210.394 912.176 210.782L917.8 216.407C918.188 216.795 918.188 217.424 917.8 217.813C917.412 218.201 916.782 218.201 916.394 217.813L910.769 212.188C910.381 211.8 910.381 211.171 910.769 210.782Z" fill="white"/>
<path fill-rule="evenodd" clip-rule="evenodd" d="M905.85 212.892C905.461 212.503 904.832 212.503 904.443 212.892L891.086 226.249C890.697 226.638 890.697 227.267 891.086 227.656L900.928 237.498C901.317 237.886 901.946 237.886 902.334 237.498L915.692 224.14C916.08 223.752 916.08 223.123 915.692 222.734L905.85 212.892ZM903.037 211.486C904.202 210.321 906.091 210.321 907.256 211.486L917.098 221.328C918.263 222.493 918.263 224.382 917.098 225.546L903.74 238.904C902.576 240.069 900.687 240.069 899.522 238.904L889.68 229.062C888.515 227.897 888.515 226.008 889.68 224.843L903.037 211.486Z" fill="white"/>
<path fill-rule="evenodd" clip-rule="evenodd" d="M894.32 225.828C894.709 225.439 895.338 225.439 895.726 225.828L902.757 232.858C903.145 233.246 903.145 233.876 902.757 234.264C902.368 234.653 901.739 234.653 901.351 234.264L894.32 227.234C893.932 226.846 893.932 226.216 894.32 225.828Z" fill="white"/>
<defs>
<clipPath id="clip0_2036_83852">
<rect width="31.8161" height="31.8161" fill="white" transform="translate(2047.83 140) rotate(45)"/>
</clipPath>
<clipPath id="clip1_2036_83852">
<rect width="31.8161" height="31.8161" fill="white" transform="translate(202.498 182.422) rotate(45)"/>
</clipPath>
<clipPath id="clip2_2036_83852">
<rect width="31.8161" height="31.8161" fill="white" transform="translate(1750.88 1168.72) rotate(-15)"/>
</clipPath>
</defs>
</svg>
