<svg width="130" height="130" viewBox="0 0 130 130" fill="none" xmlns="http://www.w3.org/2000/svg">
<path fill-rule="evenodd" clip-rule="evenodd" d="M66.092 1.31248L65.6031 7.34366L66.9137 8.88805L72.7775 9.36476L72.8804 8.09503L67.0166 7.61833L67.2353 4.92017L73.416 5.42264L73.8148 0.50247L67.6341 0L66.092 1.31248ZM72.156 4.04212L67.3253 3.80917L67.5312 1.26972L72.349 1.66139L72.156 4.04212ZM55.6541 11.7664L54.6692 0.663515L61.2418 0.0775178L62.7938 1.37795L63.3285 7.40523L62.0297 8.95982L56.8825 9.41874L57.0795 11.6393L55.6541 11.7664ZM61.3543 1.34642L56.2071 1.80533L56.77 8.14984L61.9172 7.69092L61.3543 1.34642ZM44.8632 4.56884L46.3978 10.4214L48.1451 11.4429L53.8345 9.94358L53.5115 8.71145L47.8221 10.2108L47.1355 7.59249L53.1325 6.01214L51.8806 1.23765L45.8837 2.818L44.8632 4.56884ZM51.487 5.1285L46.8529 6.51438L46.2067 4.05013L50.8813 2.81826L51.487 5.1285ZM37.8568 15.7539L34.1785 7.63306L41.4159 4.33833L45.0942 12.4592L43.7915 13.0522L40.6387 6.09151L36.0067 8.20013L39.1595 15.1609L37.8568 15.7539ZM19.8298 18.1112L25.5001 24.9866L26.578 24.0931L21.9203 18.4455L26.9847 20.0353L27.7197 19.4261L27.1138 14.1406L31.7716 19.7882L32.8495 18.8947L27.1792 12.0194L25.7828 13.1768L26.4004 18.5766L21.2262 16.9538L19.8298 18.1112ZM18.6008 30.9333L15.8178 28.5573L19.818 23.6025L18.003 22.0529L14.0879 26.6618L13.1199 25.8354L17.035 21.2265L19.0512 21.0647L24.7382 25.92L20.6171 30.7715L18.6008 30.9333ZM17.7131 28.2921L19.6491 29.945L22.843 26.1852L20.665 24.3257L17.7131 28.2921ZM15.0286 39.4807L7.41479 34.8572L10.7074 29.4077L12.4536 28.9783L14.425 30.1754L14.5405 31.307L15.99 30.7533L18.0566 32.0083L18.4858 33.7587L15.0286 39.4807ZM9.24331 34.2915L11.3371 35.563L13.8066 31.4759L11.7128 30.2044L9.24331 34.2915ZM12.4248 36.2235L14.6817 37.594L17.3158 33.2344L15.0589 31.8639L12.4248 36.2235ZM9.52602 55.6757L0.950439 53.2758L1.33483 51.8953L3.47872 52.4953L4.86679 47.5103L6.6294 46.5155L10.3046 47.5441L11.2985 49.3102L9.52602 55.6757ZM8.68533 53.9524L10.0734 48.9674L6.09188 47.8531L4.70381 52.8381L8.68533 53.9524ZM12.174 46.1658L3.59845 43.7659L3.98284 42.3854L12.5584 44.7854L12.174 46.1658ZM-0.000244141 65.93L8.88688 66.4807L8.97311 65.0821L1.67297 64.6297L6.29488 62.0125L6.35367 61.0589L2.08845 57.8909L9.38859 58.3433L9.47482 56.9446L0.5877 56.3939L0.47599 58.2058L4.83251 61.4432L0.111465 64.1182L-0.000244141 65.93ZM130 66.102L121.134 65.2771L121.005 66.6724L128.288 67.35L123.588 69.8233L123.5 70.7746L127.665 74.0729L120.383 73.3952L120.253 74.7905L129.119 75.6155L129.287 73.8079L125.032 70.4374L129.833 67.9096L130 66.102ZM128.663 78.6698L120.164 76.0108L118.2 82.3197L119.14 84.1152L122.783 85.2548L124.575 84.3139L126.113 79.3732L128.237 80.038L128.663 78.6698ZM119.414 82.6995L120.952 77.7588L124.898 78.9934L123.36 83.9341L119.414 82.6995ZM125.729 88.0951L117.23 85.4361L116.804 86.8043L125.303 89.4633L125.729 88.0951ZM121.591 96.9465L114.117 92.1009L110.493 97.7188L110.871 99.481L112.9 100.796L114.365 100.285L114.447 101.42L116.382 102.675L118.14 102.297L121.591 96.9465ZM117.692 96.1255L119.747 97.4581L117.159 101.471L115.103 100.138L117.692 96.1255ZM114.408 93.9969L116.624 95.4333L113.863 99.7136L111.647 98.2772L114.408 93.9969ZM113.032 102.929L110.319 100.472L108.299 100.576L104.039 105.305L109.583 110.324L111.603 110.221L115.65 105.728L114.706 104.874L110.659 109.367L108.89 107.765L113.032 102.929ZM109.243 101.43L111.13 103.138L108.064 107.017L105.941 105.095L109.243 101.43ZM103.188 106.242L108.656 113.28L107.227 114.397L102.102 112.623L102.562 118.039L101.133 119.155L95.6649 112.117L96.7684 111.256L101.26 117.037L100.808 111.736L101.56 111.148L106.576 112.885L102.085 107.104L103.188 106.242ZM94.0308 123.28L90.5959 115.053L89.276 115.607L92.2203 122.659L87.5275 124.628L84.5833 117.576L83.2634 118.13L86.6984 126.357L94.0308 123.28ZM81.8896 120.116L83.2459 126.012L82.1728 127.731L76.1306 129.128L75.0242 124.318L81.0664 122.921L80.4596 120.283L74.7273 121.608L74.4417 120.367L80.1741 119.042L81.8896 120.116ZM81.3162 124.007L76.6421 125.251L77.1774 127.579L81.8873 126.49L81.3162 124.007ZM73.3191 129.592L72.6332 118.466L71.2049 118.555L71.3421 120.78L66.1844 121.1L64.8443 122.619L65.2166 128.658L66.7331 130L73.3191 129.592ZM71.8124 128.409L66.6547 128.729L66.2627 122.371L71.4204 122.052L71.8124 128.409ZM62.5706 122.574L61.9204 128.59L60.3437 129.86L54.1788 129.19L54.7092 124.283L60.8741 124.952L61.1651 122.261L55.3163 121.626L55.4532 120.359L61.3019 120.995L62.5706 122.574ZM60.7544 126.061L55.9318 125.697L55.6751 128.072L60.4806 128.594L60.7544 126.061ZM47.7225 118.387L46.1558 119.271L45.5066 121.603L46.4294 122.853L45.3729 123.268L44.7536 125.492L45.637 127.062L51.6093 128.734L51.951 127.507L46.1318 125.878L46.7896 123.516L51.9962 124.973L52.3379 123.746L46.825 122.203L47.534 119.657L53.8125 121.414L54.1542 120.187L47.7225 118.387ZM41.4646 125.682L45.173 117.575L39.1039 114.785L37.4181 115.411L36.4115 117.612L37.1269 118.992L36.0184 119.236L35.0582 121.335L35.6845 123.025L41.4646 125.682ZM41.7137 121.696L40.6938 123.926L36.3587 121.933L37.3786 119.703L41.7137 121.696ZM43.3427 118.135L42.2434 120.538L37.6193 118.412L38.7186 116.009L43.3427 118.135ZM32.9763 119.998L36.3471 114.977L35.9586 112.987L31.8706 110.229L29.8854 110.617L26.5146 115.639L26.9031 117.629L30.9911 120.387L32.9763 119.998ZM31.1609 111.286L35.249 114.044L31.7008 119.33L27.6127 116.572L31.1609 111.286ZM29.7085 108.71L23.5779 115.177L22.5411 114.189L25.1685 111.417L21.4822 107.905L18.8548 110.676L17.818 109.689L23.9487 103.222L24.9854 104.21L22.358 106.981L26.0443 110.493L28.6718 107.722L29.7085 108.71ZM18.4746 96.2072L17.625 95.054L10.4655 100.356L11.5795 101.868L20.5899 101.572L14.6193 105.993L15.469 107.147L22.6285 101.845L21.5145 100.333L12.5041 100.628L18.4746 96.2072ZM16.8371 93.9181L8.82983 97.8183L8.03837 96.1852L10.8365 91.5287L5.45569 90.8561L4.66423 89.223L12.6715 85.3227L13.2825 86.5834L6.70505 89.7871L11.9723 90.4443L12.3888 91.3038L9.64875 95.8612L16.2262 92.6574L16.8371 93.9181ZM82.1937 10.1647L80.6544 11.0962L74.1711 9.49285L74.4754 8.25595L80.8044 9.82112L81.4359 7.25456L75.8788 5.88027L76.1831 4.64337L81.4315 5.94131L82.0174 3.56028L76.1515 2.10964L76.4559 0.872746L82.4761 2.36156L83.4067 3.90386L82.8551 6.14573L81.8116 6.59297L82.7719 7.81459L82.1937 10.1647ZM82.928 11.6972L86.3936 3.48302L92.2503 5.96645L92.9266 7.63659L92.0293 9.76347L90.9286 10.0403L91.6847 11.3985L90.744 13.628L89.0776 14.3048L82.928 11.6972ZM87.2163 5.21524L86.2632 7.47414L90.6558 9.33671L91.6088 7.07782L87.2163 5.21524ZM85.7682 8.64759L84.7409 11.0825L89.4263 13.0692L90.4536 10.6343L85.7682 8.64759ZM92.0912 14.1273L95.3135 9.00865L97.2865 8.5618L101.454 11.1984L101.9 13.1761L98.6779 18.2948L96.7049 18.7416L92.5378 16.1051L92.0912 14.1273ZM93.2162 15.0274L97.3833 17.664L100.775 12.276L96.6081 9.63941L93.2162 15.0274ZM104.907 13.5782L98.967 20.2209L100.032 21.1782L102.578 18.3313L106.365 21.7347L103.819 24.5816L104.884 25.5388L110.824 18.8961L109.759 17.9389L107.213 20.7857L103.426 17.3823L105.972 14.5354L104.907 13.5782ZM111.433 33.4943L110.55 32.3665L116.389 27.7726L107.391 28.3312L106.234 26.8524L113.235 21.3438L114.118 22.4716L108.279 27.0655L117.277 26.5069L118.435 27.9857L111.433 33.4943ZM120.15 30.4573L112.261 34.5937L112.909 35.8357L119.389 32.4379L116.785 37.0747L117.227 37.9215L122.511 38.422L116.031 41.8197L116.679 43.0617L124.568 38.9253L123.728 37.3164L118.33 36.8038L120.989 32.0662L120.15 30.4573Z" fill="white"/>
</svg>
