<svg width="33" height="41" viewBox="0 0 33 41" fill="none" xmlns="http://www.w3.org/2000/svg">
<path d="M25.8605 9.6912V8.07493L19.3953 4.84237V1.61628L16.1628 0L12.9302 1.61628V9.68474L6.46511 12.9173V16.1499L0 19.3824V29.0865L3.23256 30.7028L6.46511 29.0865V33.9354L9.69767 35.5517L12.9302 33.9354V38.7842L16.1628 40.4005L19.3953 38.7842V29.0736L22.6279 30.6899L25.8605 29.0736V22.6085L29.093 24.2248L32.3256 22.6085V12.9238L25.8605 9.6912Z" fill="#0094D9"/>
<path d="M32.3254 22.6086L29.0929 24.2249V14.5401L32.3254 12.9238V22.6086Z" fill="#2747C4"/>
<path d="M6.46498 29.0865L3.23242 30.7027V20.9986L6.46498 19.3823V29.0865Z" fill="#2747C4"/>
<path d="M25.8603 29.0737L22.6278 30.69V9.69129L25.8603 8.07501V29.0737Z" fill="#2747C4"/>
<path d="M12.9301 33.9353L9.69753 35.5516V14.5335L12.9301 12.9172V33.9353Z" fill="#2747C4"/>
<path d="M19.3952 38.7841L16.1626 40.4004V3.23249L19.3952 1.61621V38.7841Z" fill="#2747C4"/>
<path d="M25.8605 22.6086L29.093 24.2249V14.5401L25.8605 12.9238V22.6086Z" fill="#7D98FF"/>
<path d="M0 29.0865L3.23256 30.7027V20.9986L0 19.3823V29.0865Z" fill="#7D98FF"/>
<path d="M19.3953 29.0737L22.6279 30.69V9.69129L19.3953 8.07501V29.0737Z" fill="#7D98FF"/>
<path d="M6.46511 33.9353L9.69767 35.5516V14.5335L6.46511 12.9172V33.9353Z" fill="#7D98FF"/>
<path d="M12.9302 38.7841L16.1628 40.4004V3.23249L12.9302 1.61621V38.7841Z" fill="#7D98FF"/>
<path d="M32.3256 12.9239L25.8605 9.69136V12.9239L29.093 14.5402L32.3256 12.9239Z" fill="#2BDFFF"/>
<path d="M0 19.3824L6.46511 16.1498V19.3824L3.23256 20.9987L0 19.3824Z" fill="#2BDFFF"/>
<path d="M25.8605 8.07508L19.3953 4.84252V8.07508L22.6279 9.69136L25.8605 8.07508Z" fill="#2BDFFF"/>
<path d="M6.46511 12.9173L12.9302 9.68473V12.9173L9.69767 14.5336L6.46511 12.9173Z" fill="#2BDFFF"/>
<path d="M16.1628 0L12.9302 1.61628L16.1628 3.23256L19.3953 1.61628L16.1628 0Z" fill="#2BDFFF"/>
</svg>
