<svg width="139" height="41" viewBox="0 0 139 41" fill="none" xmlns="http://www.w3.org/2000/svg">
<path d="M38.791 12.93H43.9631V19.3951H42.8576V13.9062H39.903V19.3951H38.791V12.93Z" fill="#2BDFFF"/>
<path d="M45.5017 12.93H49.6523V13.9127H46.6073V15.5807H49.1351V16.5634H46.6073V18.4189H49.6523V19.3951H45.5017V12.93Z" fill="#2BDFFF"/>
<path d="M52.5166 13.9062H50.5318V12.93H55.6004V13.9127H53.6221V19.3951H52.5166V13.9062Z" fill="#2BDFFF"/>
<path d="M56.7191 12.93H60.8761V13.9127H57.8311V15.5807H60.3266V16.5634H57.8311V18.4189H60.8761V19.3951H56.7191V12.93Z" fill="#2BDFFF"/>
<path d="M62.1885 12.9301H64.4061C65.0837 12.8725 65.7587 13.0683 66.3003 13.4796C66.5084 13.685 66.6698 13.9328 66.7735 14.2061C66.8773 14.4794 66.9209 14.7719 66.9016 15.0636C66.9122 15.3535 66.8599 15.6423 66.7483 15.9102C66.6367 16.178 66.4684 16.4185 66.2551 16.6152C65.7313 17.0394 65.0653 17.2475 64.3931 17.197H63.2941V19.3952H62.1885V12.9301ZM63.2941 13.9128V16.2208H64.4061C64.7666 16.2494 65.124 16.1357 65.4017 15.904C65.6134 15.6728 65.7308 15.3706 65.7308 15.0571C65.7308 14.7436 65.6134 14.4414 65.4017 14.2102C65.1152 13.987 64.7548 13.8807 64.3931 13.9128H63.2941Z" fill="#2BDFFF"/>
<path d="M68.0778 12.93H72.3254V13.9127H69.1769V15.3156H70.3794C70.728 15.3076 71.0754 15.3578 71.4074 15.4643C71.6854 15.5516 71.9428 15.6946 72.1638 15.8845C72.3639 16.0624 72.5208 16.2835 72.6228 16.5311C72.7287 16.7917 72.7814 17.0708 72.778 17.3521C72.7949 17.6303 72.7517 17.9088 72.6513 18.1687C72.5509 18.4287 72.3956 18.6639 72.1961 18.8585C71.6802 19.2607 71.0311 19.4524 70.3794 19.3951H68.0778V12.93ZM69.1834 16.2918V18.4189H70.3859C70.7236 18.4383 71.0555 18.3246 71.3104 18.1021C71.4153 18.003 71.4973 17.8823 71.5509 17.7483C71.6045 17.6143 71.6283 17.4703 71.6207 17.3263C71.6251 17.1843 71.5985 17.043 71.5427 16.9123C71.4868 16.7817 71.4032 16.6648 71.2975 16.5698C71.0439 16.3552 70.7175 16.2464 70.3859 16.266L69.1834 16.2918Z" fill="#2BDFFF"/>
<path d="M75.6419 17.5719L73.392 12.93H74.6462L76.2496 16.3694L77.6396 12.93H78.8744L76.1009 19.3951H74.866L75.6419 17.5719Z" fill="#2BDFFF"/>
<path d="M79.8896 12.9301H82.1071C82.7848 12.8725 83.4598 13.0683 84.0014 13.4796C84.2094 13.685 84.3708 13.9328 84.4746 14.2061C84.5783 14.4794 84.622 14.7719 84.6027 15.0636C84.6133 15.3535 84.5609 15.6423 84.4493 15.9102C84.3377 16.178 84.1695 16.4185 83.9562 16.6152C83.4324 17.0394 82.7663 17.2475 82.0942 17.197H80.9822V19.3952H79.8767L79.8896 12.9301ZM80.9951 13.9128V16.2208H82.1071C82.4677 16.2494 82.8251 16.1357 83.1028 15.904C83.3145 15.6728 83.4319 15.3706 83.4319 15.0571C83.4319 14.7436 83.3145 14.4414 83.1028 14.2102C82.8163 13.987 82.4559 13.8807 82.0942 13.9128H80.9951Z" fill="#2BDFFF"/>
<path d="M85.831 12.93H89.8006V13.9127H86.9366V19.3951H85.831V12.93Z" fill="#2BDFFF"/>
<path d="M93.1757 19.4791C92.7811 19.4817 92.3892 19.4138 92.0185 19.2787C91.6808 19.1492 91.3777 18.9434 91.1327 18.6774C90.8787 18.3965 90.6851 18.0665 90.5638 17.7077C90.4243 17.2911 90.3565 16.8539 90.3634 16.4146V15.9362C90.3565 15.497 90.4243 15.0598 90.5638 14.6432C90.6873 14.284 90.8832 13.954 91.1392 13.6734C91.3886 13.4112 91.6934 13.208 92.0314 13.0787C92.7258 12.8106 93.4922 12.7946 94.1972 13.0334C94.4848 13.1335 94.752 13.2846 94.9859 13.4795C95.207 13.6597 95.3932 13.8788 95.5355 14.126C95.6766 14.3716 95.7708 14.6412 95.8135 14.9212H94.5916C94.5072 14.6328 94.3355 14.3776 94.1002 14.1907C93.9764 14.0972 93.839 14.0231 93.6929 13.9708C93.5264 13.9142 93.3516 13.8858 93.1757 13.8868C92.954 13.8886 92.7346 13.9325 92.5292 14.0161C92.3251 14.0967 92.1449 14.228 92.0055 14.3975C91.8536 14.5899 91.7395 14.8092 91.6693 15.044C91.5867 15.3363 91.5475 15.6391 91.553 15.9427V16.4211C91.5461 16.721 91.5876 17.0201 91.6758 17.3068C91.7469 17.5426 91.8633 17.7622 92.0185 17.9533C92.157 18.1252 92.3373 18.2588 92.5421 18.3413C92.747 18.4264 92.9667 18.4704 93.1886 18.4706C93.363 18.4717 93.536 18.441 93.6994 18.38C93.8504 18.3226 93.9904 18.2395 94.1132 18.1344C94.2317 18.022 94.334 17.8936 94.417 17.7529C94.5026 17.5944 94.5657 17.4246 94.6045 17.2487H95.8264C95.7861 17.564 95.692 17.8701 95.5484 18.1538C95.2676 18.7029 94.7895 19.1255 94.2101 19.3369C93.8764 19.4451 93.5262 19.4932 93.1757 19.4791Z" fill="#2BDFFF"/>
<path d="M97.21 12.93H98.3155V15.5807H98.9621L100.792 12.93H102.085L99.8866 16.0138L102.292 19.3951H100.902L98.9621 16.5634H98.3155V19.3951H97.21V12.93Z" fill="#2BDFFF"/>
<path d="M103.513 12.93H104.619V18.1021L105.046 17.184L107.321 12.93H108.783V19.3951H107.671V14.2747L107.27 15.1411L104.988 19.3951H103.513V12.93Z" fill="#2BDFFF"/>
<path d="M111.11 12.9301H112.216V18.1022L112.642 17.1841L114.911 12.9301H116.373V19.3952H115.267V14.2748L114.86 15.1411L112.584 19.3952H111.11V12.9301ZM113.741 12.3676C113.353 12.3951 112.969 12.2725 112.668 12.025C112.546 11.901 112.452 11.7531 112.391 11.5905C112.329 11.428 112.303 11.2545 112.312 11.0811H113.14C113.133 11.1671 113.143 11.2538 113.169 11.336C113.196 11.4181 113.239 11.4941 113.295 11.5595C113.352 11.6138 113.419 11.6561 113.492 11.6839C113.565 11.7116 113.644 11.7243 113.722 11.7211C113.883 11.7241 114.04 11.6664 114.162 11.5595C114.219 11.4947 114.263 11.4189 114.291 11.3367C114.319 11.2545 114.33 11.1676 114.323 11.0811H115.151C115.16 11.2545 115.134 11.428 115.073 11.5905C115.011 11.7531 114.917 11.901 114.795 12.025C114.499 12.2672 114.123 12.3895 113.741 12.3676Z" fill="#2BDFFF"/>
<path d="M38.4871 25.6146C38.4812 25.2345 38.5493 24.8568 38.6875 24.5026C38.819 24.1752 39.0222 23.8813 39.2823 23.6428C39.5546 23.3905 39.8759 23.1968 40.2262 23.0739C40.6418 22.9305 41.0797 22.8626 41.5192 22.8734V22.6278H42.6312V22.8799C43.0707 22.8693 43.5086 22.9372 43.9242 23.0803C44.2744 23.1974 44.596 23.3868 44.8681 23.6363C45.1245 23.8779 45.3233 24.174 45.45 24.5026C45.5898 24.8588 45.66 25.2385 45.6569 25.6211V25.9379C45.6607 26.3185 45.5904 26.6962 45.45 27.0499C45.3232 27.3783 45.1218 27.6726 44.8617 27.9098C44.5894 28.1621 44.2681 28.3557 43.9178 28.4787C43.5022 28.6221 43.0643 28.69 42.6247 28.6791V29.0929H41.4869V28.6791C41.0474 28.6902 40.6094 28.6224 40.1939 28.4787C39.8437 28.3616 39.5221 28.1722 39.25 27.9227C38.9937 27.6797 38.793 27.3842 38.6616 27.0564C38.524 26.6998 38.456 26.3201 38.4612 25.9379L38.4871 25.6146ZM39.6508 25.9314C39.6346 26.168 39.6682 26.4053 39.7495 26.628C39.8308 26.8508 39.958 27.054 40.1228 27.2245C40.4986 27.5522 40.9893 27.7173 41.4869 27.6835V23.8691C40.9893 23.8352 40.4986 24.0003 40.1228 24.3281C39.9586 24.499 39.8319 24.7023 39.7506 24.9249C39.6694 25.1475 39.6354 25.3846 39.6508 25.6211V25.9314ZM44.435 25.6146C44.4499 25.3777 44.4151 25.1402 44.3327 24.9175C44.2503 24.6948 44.1222 24.4918 43.9566 24.3216C43.7723 24.1581 43.5574 24.0327 43.3244 23.9528C43.0913 23.8729 42.8447 23.84 42.5989 23.8561V27.6512C43.0977 27.6878 43.5906 27.525 43.9695 27.1986C44.1325 27.0271 44.258 26.8236 44.3381 26.601C44.4183 26.3784 44.4512 26.1416 44.435 25.9056V25.6146Z" fill="#7D98FF"/>
<path d="M49.6265 29.0928C49.2247 29.0996 48.8253 29.0293 48.4498 28.8859C48.1064 28.7568 47.7969 28.5511 47.5447 28.2846C47.2864 28.0058 47.0903 27.6752 46.9693 27.3149C46.826 26.8991 46.756 26.4616 46.7625 26.0219V25.537C46.7576 25.0974 46.8276 24.6601 46.9693 24.244C47.0977 23.8875 47.2954 23.5601 47.5512 23.2806C47.808 23.0197 48.1162 22.815 48.4563 22.6794C48.8292 22.5344 49.2264 22.462 49.6265 22.466C50.0282 22.4613 50.4272 22.5315 50.8031 22.6729C51.1521 22.7986 51.4665 23.0046 51.7212 23.2742C51.9835 23.5487 52.1822 23.8776 52.3031 24.2375C52.4426 24.654 52.5104 25.0913 52.5035 25.5305V26.0154C52.5083 26.455 52.4383 26.8922 52.2966 27.3084C52.1682 27.6668 51.9705 27.9963 51.7147 28.2782C51.4625 28.5447 51.153 28.7503 50.8096 28.8794C50.4328 29.0267 50.031 29.0991 49.6265 29.0928ZM49.6265 28.0584C49.8636 28.0636 50.0991 28.0196 50.3183 27.9291C50.5252 27.8469 50.7093 27.7161 50.8549 27.5476C51.0142 27.3583 51.133 27.1382 51.204 26.9011C51.2913 26.612 51.3328 26.3109 51.3268 26.0089V25.524C51.3324 25.2263 51.2909 24.9296 51.204 24.6448C51.1327 24.4065 51.0115 24.1861 50.8484 23.9983C50.7001 23.8313 50.5169 23.6988 50.3118 23.6104C50.0938 23.5236 49.8611 23.4797 49.6265 23.4811C49.3894 23.4758 49.1539 23.5199 48.9347 23.6104C48.7287 23.6942 48.545 23.8248 48.3981 23.9918C48.2378 24.1795 48.1208 24.4003 48.0555 24.6383C47.9654 24.9248 47.9217 25.2238 47.9262 25.524V26.0089C47.9222 26.307 47.9658 26.6039 48.0555 26.8882C48.1231 27.1266 48.2423 27.3473 48.4046 27.5347C48.5505 27.7072 48.7372 27.8405 48.9477 27.9226C49.1625 28.0124 49.3937 28.0565 49.6265 28.0519V28.0584Z" fill="#7D98FF"/>
<path d="M53.9002 22.6277H56.1112C56.791 22.5697 57.4681 22.7654 58.012 23.1772C58.2172 23.3844 58.3762 23.6326 58.4787 23.9056C58.5812 24.1786 58.6249 24.4701 58.6068 24.7611C58.6174 25.0511 58.5651 25.3399 58.4535 25.6078C58.3419 25.8756 58.1736 26.1161 57.9603 26.3128C57.4339 26.7368 56.7659 26.9448 56.0919 26.8946H55.0057V29.0928H53.9002V22.6277ZM55.0057 23.6103V25.9184H56.1112C56.4737 25.9466 56.833 25.8331 57.1133 25.6016C57.225 25.4931 57.3122 25.362 57.3691 25.217C57.4259 25.0721 57.4512 24.9166 57.4431 24.7611C57.4516 24.6067 57.4278 24.4522 57.3733 24.3075C57.3188 24.1628 57.2346 24.031 57.1263 23.9207C56.8378 23.6965 56.475 23.5902 56.1112 23.6233L55.0057 23.6103Z" fill="#7D98FF"/>
<path d="M61.5612 27.2697L59.292 22.6278H60.5462L62.156 26.0672L63.5396 22.6278H64.7421L61.9685 29.0929H60.7725L61.5612 27.2697Z" fill="#7D98FF"/>
<path d="M65.6668 22.6278H67.3283L68.7765 26.1319L70.2118 22.6278H71.8539V29.0929H70.7484V23.8561L70.3605 24.8453L69.3131 27.3861H68.2076L67.1538 24.8453L66.7723 23.8691V29.0929H65.6668V22.6278Z" fill="#7D98FF"/>
<path d="M38.7911 32.3254H43.9632V38.7905H42.8577V33.2952H39.9031V38.7905H38.7911V32.3254Z" fill="#7D98FF"/>
<path d="M45.9028 32.3255H48.1203C48.7983 32.2648 49.4743 32.4609 50.0146 32.8751C50.2214 33.081 50.3816 33.3291 50.4842 33.6024C50.5869 33.8756 50.6295 34.1678 50.6094 34.459C50.6199 34.749 50.5676 35.0378 50.456 35.3056C50.3444 35.5735 50.1762 35.814 49.9629 36.0106C49.4384 36.4337 48.7729 36.6416 48.1009 36.5925H47.0018V38.7906H45.9028V32.3255ZM47.0018 33.2953V35.6098H48.1138C48.4826 35.6418 48.8493 35.5281 49.1353 35.293C49.3339 35.0593 49.443 34.7625 49.443 34.4558C49.443 34.1491 49.3339 33.8523 49.1353 33.6186C48.8498 33.3931 48.4893 33.2845 48.1268 33.3147L47.0018 33.2953Z" fill="#7D98FF"/>
<path d="M51.799 32.3254H55.9561V33.2952H52.911V34.9697H55.4001V35.9459H52.911V37.8078H55.9561V38.7905H51.799V32.3254Z" fill="#7D98FF"/>
<path d="M57.0614 37.8014H57.6045C57.713 37.6471 57.8061 37.4825 57.8825 37.31C57.9712 37.1025 58.0362 36.8856 58.0764 36.6635C58.1309 36.3686 58.1676 36.0707 58.1863 35.7713C58.1863 35.4158 58.2187 34.9761 58.2187 34.4783V32.3254H62.5955V37.8014H63.1968V40.3874H62.1236V38.7905H58.1281V40.4133H57.0614V37.8014ZM59.3177 34.446C59.3177 34.9115 59.3177 35.3252 59.3177 35.6744C59.3177 36.0235 59.2725 36.3209 59.2337 36.5989C59.2016 36.818 59.1519 37.0342 59.085 37.2454C59.0298 37.427 58.9562 37.6025 58.8652 37.7691H61.4835V33.2435H59.3177V34.446Z" fill="#7D98FF"/>
<path d="M64.6516 32.3254H69.8237V38.7905H68.7117V33.2952H65.7571V38.7905H64.6516V32.3254Z" fill="#7D98FF"/>
<path d="M71.388 32.3254H73.6055C74.2854 32.2662 74.9629 32.4621 75.5063 32.8749C75.7121 33.0816 75.8716 33.3298 75.9742 33.6029C76.0767 33.876 76.12 34.1678 76.1011 34.4589C76.1104 34.7487 76.0575 35.0371 75.946 35.3047C75.8344 35.5724 75.6669 35.813 75.4546 36.0105C74.9281 36.4345 74.2602 36.6425 73.5861 36.5924H72.4806V38.7905H71.3686L71.388 32.3254ZM72.5 33.3016V35.6161H73.6055C73.9658 35.6427 74.3225 35.5292 74.6012 35.2993C74.7144 35.1917 74.803 35.0608 74.861 34.9158C74.919 34.7707 74.9451 34.6149 74.9374 34.4589C74.9461 34.3025 74.9225 34.146 74.868 33.9991C74.8135 33.8523 74.7293 33.7183 74.6206 33.6055C74.3331 33.379 73.9702 33.2704 73.6055 33.3016H72.5Z" fill="#7D98FF"/>
<path d="M77.0843 32.3254H78.1898V37.4975L78.6165 36.5795L80.8858 32.3254H82.3469V38.7905H81.2349V33.6702L80.8147 34.5365L78.5583 38.7905H77.0843V32.3254Z" fill="#7D98FF"/>
<path d="M83.8979 32.3254H85.0099V34.9761H88.055V32.3254H89.1605V38.7905H88.055V35.9459H85.0099V38.7905H83.8979V32.3254Z" fill="#7D98FF"/>
<path d="M90.68 32.3254H91.8049V37.4975L92.2316 36.5795L94.4815 32.3254H95.9426V38.7905H94.8371V33.6702L94.4297 34.5365L92.154 38.7905H90.68V32.3254Z" fill="#7D98FF"/>
<path d="M97.4942 32.3254H99.1558L100.604 35.8231L102.039 32.3254H103.681V38.7905H102.576V33.5538L102.188 34.543L101.141 37.0838H100.035L98.9812 34.543L98.5998 33.5603V38.7905H97.4942V32.3254Z" fill="#7D98FF"/>
<path d="M107.024 32.3254H108.317L110.625 38.7905H109.41L108.873 37.1549H106.416L105.88 38.7905H104.735L107.024 32.3254ZM106.739 36.2045H108.55L108.078 34.7886L107.645 33.4956L107.211 34.7886L106.739 36.2045Z" fill="#7D98FF"/>
<path d="M112.39 33.2952H110.405V32.3254H115.48V33.2952H113.495V38.7905H112.39V33.2952Z" fill="#7D98FF"/>
<path d="M116.437 32.3254H120.587V33.2952H117.542V34.9697H120.038V35.9459H117.542V37.8078H120.587V38.7905H116.437V32.3254Z" fill="#7D98FF"/>
<path d="M121.545 37.8272H121.726C121.855 37.8293 121.984 37.8005 122.101 37.7432C122.23 37.6699 122.332 37.5564 122.392 37.4199C122.487 37.2154 122.55 36.9973 122.579 36.7734C122.631 36.4268 122.655 36.0765 122.65 35.7261V32.3254H127.072V38.7905H125.967V33.3017H123.756V35.739C123.765 36.2504 123.724 36.7615 123.633 37.2648C123.571 37.6061 123.441 37.9315 123.251 38.2216C123.091 38.4485 122.865 38.6219 122.605 38.7194C122.319 38.8204 122.016 38.8686 121.713 38.8617H121.545V37.8272Z" fill="#7D98FF"/>
<path d="M128.495 32.3254H132.645V33.2952H129.6V34.9697H132.096V35.9459H129.6V37.8078H132.645V38.7905H128.495V32.3254Z" fill="#7D98FF"/>
<path d="M133.744 32.3254H134.85V37.4975L135.277 36.5794L137.546 32.3254H139V38.7905H137.888V33.6701L137.488 34.5364L135.218 38.7905H133.744V32.3254ZM136.376 31.7629C135.987 31.7939 135.601 31.6708 135.302 31.4203C135.18 31.298 135.085 31.1513 135.024 30.9897C134.963 30.8281 134.936 30.6553 134.947 30.4828H135.768C135.76 30.5689 135.77 30.6556 135.797 30.7377C135.824 30.8199 135.867 30.8959 135.923 30.9612C135.98 31.0147 136.047 31.056 136.12 31.0827C136.194 31.1094 136.272 31.1208 136.35 31.1164C136.51 31.1211 136.667 31.0658 136.789 30.9612C136.847 30.8964 136.891 30.8206 136.919 30.7385C136.947 30.6563 136.958 30.5693 136.951 30.4828H137.779C137.789 30.6553 137.763 30.8281 137.701 30.9897C137.64 31.1513 137.545 31.298 137.423 31.4203C137.129 31.6609 136.755 31.7811 136.376 31.7564V31.7629Z" fill="#7D98FF"/>
<path d="M25.8605 9.6912V8.07493L19.3953 4.84237V1.61628L16.1628 0L12.9302 1.61628V9.68474L6.46511 12.9173V16.1499L0 19.3824V29.0865L3.23256 30.7028L6.46511 29.0865V33.9354L9.69767 35.5517L12.9302 33.9354V38.7842L16.1628 40.4005L19.3953 38.7842V29.0736L22.6279 30.6899L25.8605 29.0736V22.6085L29.093 24.2248L32.3256 22.6085V12.9238L25.8605 9.6912Z" fill="#0094D9"/>
<path d="M32.3254 22.6086L29.0929 24.2249V14.5401L32.3254 12.9238V22.6086Z" fill="#2747C4"/>
<path d="M6.46498 29.0865L3.23242 30.7027V20.9986L6.46498 19.3823V29.0865Z" fill="#2747C4"/>
<path d="M25.8603 29.0737L22.6278 30.69V9.69129L25.8603 8.07501V29.0737Z" fill="#2747C4"/>
<path d="M12.9301 33.9353L9.69753 35.5516V14.5335L12.9301 12.9172V33.9353Z" fill="#2747C4"/>
<path d="M19.3952 38.7841L16.1626 40.4004V3.23249L19.3952 1.61621V38.7841Z" fill="#2747C4"/>
<path d="M25.8605 22.6086L29.093 24.2249V14.5401L25.8605 12.9238V22.6086Z" fill="#7D98FF"/>
<path d="M0 29.0865L3.23256 30.7027V20.9986L0 19.3823V29.0865Z" fill="#7D98FF"/>
<path d="M19.3953 29.0737L22.6279 30.69V9.69129L19.3953 8.07501V29.0737Z" fill="#7D98FF"/>
<path d="M6.46511 33.9353L9.69767 35.5516V14.5335L6.46511 12.9172V33.9353Z" fill="#7D98FF"/>
<path d="M12.9302 38.7841L16.1628 40.4004V3.23249L12.9302 1.61621V38.7841Z" fill="#7D98FF"/>
<path d="M32.3256 12.9239L25.8605 9.69136V12.9239L29.093 14.5402L32.3256 12.9239Z" fill="#2BDFFF"/>
<path d="M0 19.3824L6.46511 16.1498V19.3824L3.23256 20.9987L0 19.3824Z" fill="#2BDFFF"/>
<path d="M25.8605 8.07508L19.3953 4.84252V8.07508L22.6279 9.69136L25.8605 8.07508Z" fill="#2BDFFF"/>
<path d="M6.46511 12.9173L12.9302 9.68473V12.9173L9.69767 14.5336L6.46511 12.9173Z" fill="#2BDFFF"/>
<path d="M16.1628 0L12.9302 1.61628L16.1628 3.23256L19.3953 1.61628L16.1628 0Z" fill="#2BDFFF"/>
</svg>
