<svg width="64" height="77" viewBox="0 0 64 77" fill="none" xmlns="http://www.w3.org/2000/svg">
<g filter="url(#filter0_d)">
<path d="M60 28C60 43.464 47.464 56 32 56C16.536 56 4 43.464 4 28C4 12.536 16.536 0 32 0C47.464 0 60 12.536 60 28Z" fill="white"/>
<path d="M32 69L22.4737 52.5H41.5263L32 69Z" fill="white"/>
</g>
<path d="M40.2581 21.4682V20.3458L34.6936 18.101V15.8607L31.9113 14.7383L29.1291 15.8607V21.4637L23.5645 23.7086V25.9534L18 28.1982V34.9371L20.7823 36.0595L23.5645 34.9371V38.3043L26.3468 39.4267L29.1291 38.3043V41.6715L31.9113 42.7939L34.6936 41.6715V34.9281L37.4758 36.0505L40.2581 34.9281V30.4385L43.0404 31.5609L45.8226 30.4385V23.713L40.2581 21.4682Z" fill="#0094D9"/>
<path d="M45.8235 30.4385L43.0413 31.5609V24.8353L45.8235 23.7129V30.4385Z" fill="#2747C4"/>
<path d="M23.5655 34.937L20.7832 36.0594V29.3204L23.5655 28.198V34.937Z" fill="#2747C4"/>
<path d="M40.259 34.9281L37.4768 36.0506V21.4681L40.259 20.3456V34.9281Z" fill="#2747C4"/>
<path d="M29.13 38.3043L26.3477 39.4267V24.8307L29.13 23.7083V38.3043Z" fill="#2747C4"/>
<path d="M34.6945 41.6715L31.9122 42.7939V16.9828L34.6945 15.8604V41.6715Z" fill="#2747C4"/>
<path d="M40.2581 30.4385L43.0403 31.5609V24.8353L40.2581 23.7129V30.4385Z" fill="#7D98FF"/>
<path d="M18 34.937L20.7823 36.0594V29.3204L18 28.198V34.937Z" fill="#7D98FF"/>
<path d="M34.6936 34.9281L37.4758 36.0506V21.4681L34.6936 20.3456V34.9281Z" fill="#7D98FF"/>
<path d="M23.5645 38.3043L26.3468 39.4267V24.8307L23.5645 23.7083V38.3043Z" fill="#7D98FF"/>
<path d="M29.129 41.6715L31.9113 42.7939V16.9828L29.129 15.8604V41.6715Z" fill="#7D98FF"/>
<path d="M45.8226 23.7133L40.2581 21.4684V23.7133L43.0404 24.8357L45.8226 23.7133Z" fill="#2BDFFF"/>
<path d="M18 28.1984L23.5645 25.9535V28.1984L20.7823 29.3208L18 28.1984Z" fill="#2BDFFF"/>
<path d="M40.2581 20.346L34.6936 18.1012V20.346L37.4758 21.4684L40.2581 20.346Z" fill="#2BDFFF"/>
<path d="M23.5645 23.7087L29.1291 21.4638V23.7087L26.3468 24.8311L23.5645 23.7087Z" fill="#2BDFFF"/>
<path d="M31.9113 14.7383L29.1291 15.8607L31.9113 16.9831L34.6936 15.8607L31.9113 14.7383Z" fill="#2BDFFF"/>
<defs>
<filter id="filter0_d" x="0" y="0" width="64" height="77" filterUnits="userSpaceOnUse" color-interpolation-filters="sRGB">
<feFlood flood-opacity="0" result="BackgroundImageFix"/>
<feColorMatrix in="SourceAlpha" type="matrix" values="0 0 0 0 0 0 0 0 0 0 0 0 0 0 0 0 0 0 127 0"/>
<feOffset dy="4"/>
<feGaussianBlur stdDeviation="2"/>
<feColorMatrix type="matrix" values="0 0 0 0 0 0 0 0 0 0 0 0 0 0 0 0 0 0 0.25 0"/>
<feBlend mode="normal" in2="BackgroundImageFix" result="effect1_dropShadow"/>
<feBlend mode="normal" in="SourceGraphic" in2="effect1_dropShadow" result="shape"/>
</filter>
</defs>
</svg>
