<svg width="1155" height="278" viewBox="0 0 1155 278" fill="none" xmlns="http://www.w3.org/2000/svg">
<path d="M142.84 141.66V181.26H190.69C179.14 209.97 155.71 222.84 127.99 222.84C88.39 222.84 58.3599 196.77 58.3599 139.35C58.3599 82.5899 88.7199 55.8599 127.99 55.8599C157.36 55.8599 181.12 70.0499 191.68 100.41H251.08C237.55 37.0499 189.37 0.419922 127.99 0.419922C58.3599 0.419922 0.939941 50.2499 0.939941 139.35C0.939941 230.43 58.3599 277.95 127.99 277.95C159.67 277.95 188.71 268.38 211.15 249.24L216.1 272.67H252.07V141.66H142.84Z" fill="#B3BBBE" fill-opacity="0.1"/>
<path d="M335.441 219.54V6.02993H276.371V273H465.791V219.54H335.441Z" fill="#B3BBBE" fill-opacity="0.1"/>
<path d="M652.517 273H708.947L616.547 6.02993H554.507L456.497 273H512.597L533.387 217.89H631.727L652.517 273ZM551.867 168.72L582.557 87.5399L613.247 168.72H551.867Z" fill="#B3BBBE" fill-opacity="0.1"/>
<path d="M823.393 113.28C791.713 106.35 764.653 100.08 764.653 81.2699C764.653 62.1299 789.733 53.8799 806.893 53.8799C832.303 53.8799 858.703 66.0899 858.703 86.2199V91.4999H917.113V86.2199C917.113 36.0599 874.213 0.749918 812.833 0.749918C746.173 0.749918 702.943 34.4099 702.943 86.2199C702.943 136.05 755.413 148.59 797.323 158.49C830.323 166.41 858.703 173.01 858.703 192.81C858.703 216.9 834.943 223.83 811.513 223.83C786.763 223.83 762.013 215.91 762.013 192.81V187.53H698.653V192.81C698.653 240.66 738.583 277.95 802.603 277.95C879.493 277.95 919.423 240.99 919.423 188.19C919.423 134.73 866.293 122.85 823.393 113.28Z" fill="#B3BBBE" fill-opacity="0.1"/>
<path d="M1058 113.28C1026.32 106.35 999.262 100.08 999.262 81.2699C999.262 62.1299 1024.34 53.8799 1041.5 53.8799C1066.91 53.8799 1093.31 66.0899 1093.31 86.2199V91.4999H1151.72V86.2199C1151.72 36.0599 1108.82 0.749918 1047.44 0.749918C980.782 0.749918 937.552 34.4099 937.552 86.2199C937.552 136.05 990.022 148.59 1031.93 158.49C1064.93 166.41 1093.31 173.01 1093.31 192.81C1093.31 216.9 1069.55 223.83 1046.12 223.83C1021.37 223.83 996.622 215.91 996.622 192.81V187.53H933.262V192.81C933.262 240.66 973.192 277.95 1037.21 277.95C1114.1 277.95 1154.03 240.99 1154.03 188.19C1154.03 134.73 1100.9 122.85 1058 113.28Z" fill="#B3BBBE" fill-opacity="0.1"/>
</svg>
