<svg id="_-e-step-3" data-name="-e-step-3" xmlns="http://www.w3.org/2000/svg" width="49.75" height="71.78" viewBox="0 0 49.75 71.78">
  <defs>
    <style>
      .cls-1 {
        fill: #231f20;
      }

      .cls-1, .cls-2 {
        fill-rule: evenodd;
      }

      .cls-2 {
        fill: #febf2b;
      }
    </style>
  </defs>
  <path id="_-e-file-clip" data-name="-e-file-clip" class="cls-1" d="M1218.63,2070.63a0.02,0.02,0,0,0-.01.02,3.073,3.073,0,0,1-.25.74l-0.09.15a3.25,3.25,0,0,1-.46.64l-14.62,14.97a3.16,3.16,0,0,1-.45.37c-0.06.04-.12,0.06-0.17,0.1-0.11.06-.22,0.13-0.33,0.18a2.335,2.335,0,0,1-.25.07c-0.1.04-.2,0.07-0.3,0.1a3.676,3.676,0,0,1-.57.06h-26.32a5.948,5.948,0,0,1-5.87-6.01v-53.87a5.94,5.94,0,0,1,5.87-6h38a5.94,5.94,0,0,1,5.87,6v41.91A3.553,3.553,0,0,1,1218.63,2070.63Zm-14.58,7.17,4.64-4.74h-4.64v4.74Zm-29.24-49.66-0.02,53.88,23.58,0.02v-11.95a2.843,2.843,0,0,1,2.76-3.02h11.93v-38.86Z" transform="translate(-1168.94 -2016.25)"/>
  <path id="_-e-file-clip-2" data-name="-e-file-clip" class="cls-2" d="M1189.42,2052.1a8.894,8.894,0,0,1-8.78-8.98v-7.98a2.931,2.931,0,1,1,5.86,0v7.98a2.926,2.926,0,1,0,5.85,0v-20.37a2.65,2.65,0,0,0-1.53-.52,1.546,1.546,0,0,0-.95,0c-2.9,0-2.97-.06-6.3-0.06,0-3.55,3.75-5.93,7.25-5.93,3.48,0,7.28,2.42,7.38,6.03v20.85A8.894,8.894,0,0,1,1189.42,2052.1Z" transform="translate(-1168.94 -2016.25)"/>
</svg>
