<svg xmlns="http://www.w3.org/2000/svg" width="67" height="90">
    <path fill="#231F20" fill-rule="evenodd" d="M55.771 67.153v17.573h5.801c1.447 0 2.621 1.181 2.621 2.637S63.019 90 61.572 90H44.729c-1.448 0-2.621-1.181-2.621-2.637s1.173-2.637 2.621-2.637h5.801V67.153c-6.388-1.237-11.229-6.899-11.229-13.68v-19.77c0-1.456 1.173-2.637 2.621-2.637h22.457c1.448 0 2.621 1.181 2.621 2.637v19.77c0 6.781-4.841 12.443-11.229 13.68zM30.693 90H2.62C1.173 90 0 88.819 0 87.363v-45.19c0-5.217 3.593-9.606 8.421-10.791v-9.164h16.471v9.164c4.828 1.186 8.421 5.575 8.421 10.791v.19H13.849c-1.447 0-2.621 1.18-2.621 2.637v31.066c0 1.456 1.174 2.637 2.621 2.637h19.464v8.66c0 1.456-1.173 2.637-2.62 2.637zM8.421 2.636C8.421 1.18 9.595 0 11.042 0h11.229c1.447 0 2.621 1.18 2.621 2.636v14.309H8.421V2.636z"/>
    <path fill="#FEBF2B" fill-rule="evenodd" d="M16.47 73.43v-6.024h16.843v6.024H16.47zm0-25.793h16.843v14.496H16.47V47.637z"/>
</svg>
