<svg xmlns="http://www.w3.org/2000/svg" width="91" height="90">
    <path fill="#231F20" fill-rule="evenodd" d="M87.769 89.468H45.403c-1.456 0-2.637-1.167-2.637-2.607V76.388c0-1.44 1.181-2.608 2.637-2.608h42.366c1.457 0 2.637 1.168 2.637 2.608v10.473c0 1.44-1.18 2.607-2.637 2.607zM58.878 64.164c-.515.51-1.19.764-1.864.764-.675 0-1.35-.254-1.865-.764l-3.76-3.718c-1.03-1.018-1.03-2.669 0-3.687l22.468-22.218c1.029-1.018 2.699-1.018 3.729 0l3.76 3.719c1.03 1.018 1.03 2.669 0 3.687L58.878 64.164zm-33.686-33.31c-1.03 1.018-2.7 1.018-3.729 0l-3.761-3.718c-1.029-1.019-1.029-2.67 0-3.688L40.17 1.231c1.03-1.018 2.699-1.018 3.729 0l3.761 3.718c1.029 1.018 1.029 2.669 0 3.687L25.192 30.854zM42.05 51.181L13.942 78.976c-1.546 1.529-3.578 2.294-5.609 2.294s-4.063-.765-5.609-2.294c-3.093-3.059-3.093-8.035 0-11.094l28.108-27.794L42.05 51.181z"/>
    <path fill="#FEBF2B" fill-rule="evenodd" d="M30.795 32.684L49.5 14.188l18.736 18.527-18.705 18.496-18.736-18.527z"/>
</svg>
