<svg xmlns="http://www.w3.org/2000/svg" width="59" height="90">
    <path fill="#231F20" fill-rule="evenodd" d="M56.18 27.892H33.956c-1.558 0-2.82-1.264-2.82-2.823V2.823c0-1.559 1.262-2.823 2.82-2.823C47.787 0 59 11.224 59 25.069c0 1.559-1.263 2.823-2.82 2.823zM2.82 90C1.263 90 0 88.736 0 87.177V64.931c0-1.559 1.263-2.823 2.82-2.823h22.224c1.557 0 2.82 1.264 2.82 2.823C27.864 78.776 16.652 90 2.82 90zm22.224-31.054H2.82c-1.557 0-2.82-1.264-2.82-2.823V33.877c0-1.559 1.263-2.823 2.82-2.823h22.224c1.557 0 2.82 1.264 2.82 2.823v22.246c0 1.559-1.263 2.823-2.82 2.823zm0-31.054H2.82c-1.557 0-2.82-1.264-2.82-2.823C0 11.224 11.212 0 25.044 0c1.557 0 2.82 1.264 2.82 2.823v22.246c0 1.559-1.263 2.823-2.82 2.823z"/>
    <path fill="#FEBF2B" fill-rule="evenodd" d="M34.435 58.946c-1.822 0-3.299-1.479-3.299-3.303V34.357c0-1.824 1.477-3.303 3.299-3.303H55.7c1.823 0 3.3 1.479 3.3 3.303 0 13.58-10.998 24.589-24.565 24.589z"/>
</svg>
