<svg xmlns="http://www.w3.org/2000/svg" width="94" height="94">
    <path fill="#231F20" fill-rule="evenodd" d="M93.979 46.005c-.173 1.443-.28 2.899-.545 4.325-1.022 5.518-2.681 10.763-6.841 14.833-3.422 3.348-7.558 5.1-12.313 5.56-2.472.24-4.858-.067-7.25-.589-.561-.123-.773-.359-.77-.967.023-6.3-.058-12.601.038-18.9.075-4.96 2.323-8.681 6.84-10.92l18.204-9.022c1.22-.605 2.65.282 2.65 1.644v13.822c0 .072-.004.143-.013.214zm-29.053-9.846h-2.789c-.745 0-1.349.604-1.349 1.349 0 .746-.604 1.35-1.349 1.35h-8.431c-.765 0-1.379-.637-1.348-1.402.086-2.119.09-4.212.518-6.214.811-3.804 4.271-6.149 8.033-6.036 4.205.126 7.424 3.132 7.893 7.123.093.792.132 1.591.17 2.418.035.769-.578 1.412-1.348 1.412zM42.77 38.887h-8.164c-.737 0-1.335-.597-1.335-1.334 0-.737-.597-1.335-1.334-1.335h-2.868c-.709 0-1.292-.555-1.334-1.262-.269-4.564 1.871-8.331 6.265-9.476 4.712-1.228 9.557 1.98 10.051 6.831.175 1.723.092 3.473.053 5.266-.016.727-.607 1.31-1.334 1.31zM26.961 70.138c-7.98 1.792-14.924.027-20.57-6.043-2.529-2.719-3.937-6.085-4.86-9.608-.726-2.769-.973-5.663-1.513-8.48l-.01-.108v-13.93c0-1.361 1.431-2.25 2.651-1.645 5.934 2.944 11.862 5.9 17.816 8.803 3.828 1.866 6.3 4.756 7.045 9.048.134.778.192 1.568.194 2.359.022 6.183.002 12.367.027 18.551.002.621-.147.911-.78 1.053zm-4.709 10.136c1.705-2.252 3.912-3.85 6.586-4.718 1.094-.355 2.239-.552 3.431-.785.542-.107.934-.584.934-1.137v-.451c0-.64.518-1.158 1.158-1.158h3.25c.678 0 1.238.583 1.153 1.255-.058.46-.385.643-1.251 1.144-2.436 1.409-4.498 3.234-6.16 5.516-.25.343-.641.654-1.034.81-1.61.635-2.899 1.657-3.93 3.031-1.329 1.772-2.661 3.541-4.031 5.364-.384.51-1.109.613-1.62.23l-2.478-1.856c-.511-.384-.615-1.111-.232-1.622 1.424-1.901 2.818-3.767 4.224-5.623zm34.195-8.254h3.098c.672 0 1.216.545 1.216 1.217v.342c0 .575.404 1.071.967 1.19 1.229.26 2.41.488 3.55.847 2.73.859 4.897 2.558 6.614 4.831 1.344 1.779 2.675 3.567 4.051 5.408.401.538.291 1.3-.246 1.702l-2.385 1.785c-.535.401-1.295.294-1.698-.239-1.182-1.559-2.348-3.078-3.463-4.635-1.24-1.73-2.726-3.108-4.755-3.852-.258-.094-.5-.329-.666-.559-1.833-2.547-4.124-4.569-6.922-5.988-.421-.214-.551-.481-.576-.77-.059-.694.519-1.279 1.215-1.279z"/>
    <path fill="#FEBF2B" fill-rule="evenodd" d="M58.867 66.417h-23.75c-1.014 0-1.835-.822-1.835-1.835V46.339c0-1.014.821-1.836 1.835-1.836h23.75c1.013 0 1.835.822 1.835 1.836v18.243c0 1.013-.822 1.835-1.835 1.835zm-9.171-14.579h-5.408v5.392h5.408v-5.392zm3.745-35.344c-.134.243-.101.545.078.758l1.396 1.662c.296.353.162.891-.265 1.064l-3.966 1.607c-.32.13-.697.005-.852-.303l-.004-.007c-.791-1.607-2.215-1.843-3.776-1.748-.232.014-.501.186-.667.364-.471.506-.918 1.033-1.316 1.498-.19.222-.501.297-.771.187l-3.944-1.598c-.426-.173-.561-.709-.267-1.062.436-.525.901-1.081 1.384-1.62.304-.339.316-.572.025-.935-1.273-1.592-1.735-3.462-1.753-5.462-.013-1.424-.006-2.849-.004-4.317.001-.375.304-.679.678-.679h4.151c.375 0 .679-.303.679-.678V.686c0-.375.303-.678.678-.678h4.15c.375 0 .678.303.678.678v4.506c0 .375.304.679.679.679h4.131c.343 0 .632.256.674.595.502 3.996.003 6.762-1.796 10.028zM34.336 85.999c1.816-4.132 4.863-6.846 9.253-8.008l.006-.002c.383-.103.641-.462.641-.858v-4.196c0-.499.405-.904.904-.904h3.669c.499 0 .904.405.904.904v4.104c0 .386.245.73.61.855.806.274 1.589.518 2.319.87 4.633 2.232 7.361 5.879 7.946 11.023.05.439.081.88.101 1.322.073 1.568-1.166 2.883-2.736 2.883H35.998c-1.563 0-2.813-1.305-2.738-2.865.085-1.748.347-3.471 1.076-5.128z"/>
</svg>
