<svg xmlns="http://www.w3.org/2000/svg" width="105" height="90">
    <path fill="#231F20" fill-rule="evenodd" d="M104.999 69.185s-2.35 4.772-13.817 7.056c-.195-11.229-1.141-18.872-5.256-24.562-2.381-3.292-5.613-5.541-9.166-7.156.221.01.445.017.676.017 5.592 0 7.992-3.083 7.992-3.083 17.043 3.102 19.27 8.002 19.541 25.199.017 1.108.026 1.291.031 1.189l-.001 1.34zM77.436 40.086c-2.399 0-4.662-.714-6.658-1.971 2.905-4.639 4.482-10.24 4.482-16.108 0-5.182-.394-11.674-3.269-17.019 1.55-.424 3.352-.651 5.445-.651 12.449 0 14.594 8.003 14.594 17.874 0 9.872-6.534 17.875-14.594 17.875zM86.4 76.73c.021 1.355.033 1.589.039 1.468l-.002 1.645S81.441 90 52.501 90c-28.94 0-33.936-10.157-33.936-10.157 0-1.181-.002-1.858-.003-2.224.006.195.02.107.051-1.577.382-20.617 3.292-26.561 24.048-30.338 0 0 2.954 3.795 9.839 3.795 6.886 0 9.84-3.795 9.84-3.795 20.985 3.819 23.728 9.853 24.06 31.026zM27.563 40.086c-8.059 0-14.593-8.003-14.593-17.874 0-9.872 2.145-17.875 14.593-17.875 2.095 0 3.896.227 5.446.651-2.875 5.345-3.269 11.837-3.269 17.02 0 5.867 1.577 11.469 4.482 16.107-1.997 1.257-4.259 1.971-6.659 1.971zm0 4.454c.232 0 .456-.007.676-.017-3.553 1.615-6.785 3.864-9.164 7.155-4.116 5.69-5.062 13.334-5.258 24.563C2.351 73.956.001 69.184.001 69.184L0 67.844c.005.103.013-.08.031-1.188.27-17.197 2.497-22.097 19.541-25.199 0 0 2.399 3.083 7.991 3.083z"/>
    <path fill="#FEBF2B" fill-rule="evenodd" d="M52.5 44.015c9.923 0 17.969-9.853 17.969-22.007C70.469 9.853 67.827-.001 52.5-.001c-15.328 0-17.969 9.854-17.969 22.009 0 12.154 8.045 22.007 17.969 22.007z"/>
</svg>
