<svg xmlns="http://www.w3.org/2000/svg" width="56" height="90">
    <path fill="#231F20" fill-rule="evenodd" d="M53.865 89.999H15.307l30.032-40.891c6.2 1.37 10.851 6.848 10.657 13.305v25.434c0 1.174-.969 2.152-2.131 2.152zM28.87 42.847c-8.525 0-15.501-6.848-15.695-15.456H9.494c-.775 0-1.356-.392-1.744-.978-.387-.783-.387-1.174 0-1.761l4.069-7.044h32.745v9.783c-.194 8.608-7.169 15.456-15.694 15.456zm-15.501 5.87h22.67L5.813 89.803H2.131C.969 89.803 0 88.825 0 87.652V62.413c0-7.435 6.006-13.5 13.369-13.5v-.196z"/>
    <path fill="#FEBF2B" fill-rule="evenodd" d="M11.819 11.739h32.745V2.152C44.564.978 43.595 0 42.433 0H9.494c-.775 0-1.55.391-1.937 1.173-.388.783-.388 1.957 0 2.74l4.262 7.826z"/>
</svg>
