<svg xmlns="http://www.w3.org/2000/svg" width="90" height="90">
    <path fill="#231F20" fill-rule="evenodd" d="M46.875 43.125V0h32.812C85.384 0 90 4.616 90 10.312v32.813H46.875zm30.937-24.376H60.937c-1.552 0-2.812 1.26-2.812 2.813 0 1.553 1.26 2.813 2.812 2.813h16.875c1.553 0 2.813-1.26 2.813-2.813 0-1.553-1.26-2.813-2.813-2.813zM0 79.687V46.875h43.125V90H10.312C4.616 90 0 85.383 0 79.687zm14.887-8.554c-1.098 1.099-1.098 2.88 0 3.979.548.551 1.268.825 1.988.825s1.44-.277 1.987-.825l2.7-2.7 2.7 2.7c.548.551 1.268.825 1.988.825s1.44-.274 1.987-.821c1.099-1.099 1.099-2.88 0-3.979l-2.692-2.704 2.7-2.699c1.099-1.1 1.099-2.881 0-3.979-1.099-1.099-2.88-1.099-3.979 0l-2.7 2.699-2.7-2.699c-1.099-1.099-2.88-1.099-3.979 0-1.098 1.098-1.098 2.88 0 3.979l2.7 2.699-2.7 2.7zM0 10.312C0 4.616 4.616 0 10.312 0h32.813v43.125H0V10.312zm14.062 15h3.75v3.75c0 1.553 1.26 2.813 2.813 2.813 1.552 0 2.812-1.26 2.812-2.813v-3.75h3.75c1.553 0 2.813-1.26 2.813-2.812 0-1.553-1.26-2.813-2.813-2.813h-3.75v-3.75c0-1.552-1.26-2.812-2.812-2.812-1.553 0-2.813 1.26-2.813 2.812v3.75h-3.75c-1.552 0-2.812 1.26-2.812 2.813 0 1.552 1.26 2.812 2.812 2.812z"/>
    <path fill="#FEBF2B" fill-rule="evenodd" d="M46.875 46.875V90h32.812C85.384 90 90 85.383 90 79.687V46.875H46.875zm30 29.999H60c-1.553 0-2.813-1.26-2.813-2.812 0-1.552 1.26-2.812 2.813-2.812h16.875c1.552 0 2.812 1.26 2.812 2.812 0 1.552-1.26 2.812-2.812 2.812zm0-11.249H60c-1.553 0-2.813-1.26-2.813-2.813C57.187 61.26 58.447 60 60 60h16.875c1.552 0 2.812 1.26 2.812 2.812 0 1.553-1.26 2.813-2.812 2.813z"/>
</svg>
