<?xml version="1.0" standalone="no"?>
<!DOCTYPE svg PUBLIC "-//W3C//DTD SVG 20010904//EN"
 "http://www.w3.org/TR/2001/REC-SVG-20010904/DTD/svg10.dtd">
<svg version="1.0" xmlns="http://www.w3.org/2000/svg"
 width="305.000000pt" height="306.000000pt" viewBox="0 0 305.000000 306.000000"
 preserveAspectRatio="xMidYMid meet">

<g transform="translate(0.000000,306.000000) scale(0.100000,-0.100000)"
fill="#000000" stroke="none">
<path d="M610 3023 c-230 -26 -403 -133 -502 -310 -87 -157 -88 -169 -88
-1185 0 -1037 0 -1030 99 -1197 75 -127 220 -235 371 -278 61 -17 124 -18
1030 -18 904 0 969 1 1029 18 196 56 356 199 420 374 46 127 46 125 46 1108 0
1042 2 1008 -72 1158 -48 96 -160 209 -259 260 -141 73 -102 70 -1124 72 -503
1 -931 0 -950 -2z m518 -450 l-3 -148 -205 -5 c-292 -7 -283 2 -290 -290 l-5
-205 -149 -3 -148 -3 5 223 c5 237 12 278 62 363 38 66 136 150 202 175 90 34
124 38 336 39 l198 1 -3 -147z m1241 132 c89 -21 153 -59 216 -127 104 -112
125 -191 125 -470 l0 -188 -150 0 -150 0 0 204 0 204 -26 32 c-48 57 -64 60
-279 60 l-195 0 0 150 0 150 198 0 c140 0 215 -5 261 -15z m-147 -802 c54 -54
98 -102 98 -108 0 -5 -218 -228 -485 -495 l-485 -485 -317 317 -318 318 105
105 105 105 212 -212 213 -213 383 383 c210 210 384 382 387 382 2 0 49 -44
102 -97z m-1592 -970 c0 -176 2 -201 19 -226 39 -59 48 -62 271 -67 l205 -5 3
-149 3 -148 -223 4 c-192 4 -231 8 -279 25 -77 28 -125 61 -182 122 -95 102
-117 188 -117 464 l0 177 150 0 150 0 0 -197z m2078 -20 c-4 -189 -8 -226 -26
-275 -46 -127 -143 -224 -269 -270 -51 -18 -86 -22 -281 -26 l-223 -4 3 148 3
149 208 5 208 5 40 42 39 42 0 201 0 200 151 0 151 0 -4 -217z"/>
</g>
</svg>
