<svg xmlns="http://www.w3.org/2000/svg" width="90" height="90">
    <path fill="#231F20" fill-rule="evenodd" d="M87.363 89.999H2.637C1.18 89.999 0 88.819 0 87.362V76.187h90v11.175c0 1.457-1.181 2.637-2.637 2.637zM4.236 34.712h11.738v8.608c0 1.457 1.181 2.637 2.637 2.637h20.754c1.456 0 2.637-1.18 2.637-2.637v-8.608h43.762l3.697 36.202H.539l3.697-36.202zm47.392 5.641c-.95-.56-2.169-.48-3.026.222-.852.697-1.182 1.892-.81 2.927.373 1.036 1.378 1.749 2.481 1.749 1.243 0 2.341-.905 2.586-2.122.216-1.075-.286-2.217-1.231-2.776zm0 10.547c-.95-.56-2.169-.48-3.026.222-.852.697-1.182 1.892-.81 2.927.373 1.036 1.378 1.749 2.481 1.749 1.243 0 2.341-.905 2.586-2.122.216-1.075-.286-2.217-1.231-2.776zm21.094-10.547c-.95-.561-2.169-.478-3.027.222-.851.695-1.183 1.894-.809 2.927.375 1.036 1.377 1.749 2.481 1.749 1.243 0 2.342-.905 2.586-2.122.216-1.075-.285-2.217-1.231-2.776zm0 10.547c-.951-.561-2.168-.479-3.027.222-.852.695-1.181 1.893-.809 2.927.373 1.036 1.378 1.749 2.481 1.749 1.243 0 2.341-.905 2.586-2.122.216-1.075-.286-2.217-1.231-2.776zm-3.836 13.696c.375 1.036 1.377 1.748 2.481 1.748 1.243 0 2.341-.904 2.586-2.121.216-1.077-.287-2.214-1.231-2.776-.947-.563-2.172-.478-3.027.222-.85.696-1.184 1.893-.809 2.927zm-6.711-24.243c-.95-.561-2.168-.478-3.026.222-.852.694-1.184 1.895-.81 2.927.375 1.036 1.377 1.749 2.481 1.749 1.243 0 2.342-.905 2.586-2.122.216-1.075-.285-2.217-1.231-2.776zm0 10.547c-.951-.561-2.168-.479-3.026.222-.853.696-1.182 1.893-.81 2.927.373 1.036 1.378 1.749 2.481 1.749 1.243 0 2.341-.905 2.586-2.122.216-1.075-.285-2.217-1.231-2.776zm-3.836 13.696c.375 1.036 1.377 1.748 2.481 1.748 1.242 0 2.343-.904 2.586-2.121.215-1.078-.286-2.214-1.231-2.776-.948-.564-2.171-.477-3.026.222-.852.694-1.184 1.894-.81 2.927zm-10.547 0c.375 1.036 1.377 1.748 2.481 1.748 1.243 0 2.342-.904 2.586-2.121.216-1.075-.285-2.217-1.231-2.776-.95-.561-2.168-.478-3.026.222-.852.694-1.184 1.894-.81 2.927zM41.081 50.9c-.951-.561-2.168-.479-3.026.222-.853.696-1.182 1.893-.81 2.927.373 1.036 1.379 1.749 2.481 1.749 1.243 0 2.342-.905 2.586-2.122.216-1.075-.285-2.217-1.231-2.776zm-3.836 13.696c.375 1.036 1.377 1.748 2.481 1.748 1.243 0 2.342-.904 2.586-2.121.216-1.075-.285-2.217-1.231-2.776-.95-.561-2.168-.478-3.026.222-.852.694-1.184 1.894-.81 2.927zM30.534 50.9c-.95-.561-2.168-.479-3.026.222-.853.696-1.181 1.893-.809 2.927.372 1.036 1.378 1.749 2.481 1.749 1.242 0 2.341-.905 2.585-2.122.216-1.075-.285-2.217-1.231-2.776zm-3.835 13.696c.375 1.036 1.376 1.748 2.481 1.748 1.242 0 2.341-.904 2.585-2.121.216-1.075-.285-2.217-1.231-2.776-.95-.561-2.168-.478-3.026.222-.852.694-1.184 1.894-.809 2.927zM19.987 50.9c-.95-.561-2.168-.479-3.026.222-.852.695-1.181 1.893-.809 2.927.372 1.036 1.378 1.749 2.481 1.749 1.243 0 2.341-.905 2.586-2.122.216-1.075-.286-2.217-1.232-2.776zm-3.835 13.696c.375 1.036 1.377 1.748 2.481 1.748 1.242 0 2.341-.904 2.586-2.121.215-1.075-.286-2.217-1.232-2.776-.95-.561-2.168-.478-3.026.222-.851.694-1.184 1.894-.809 2.927zm25.85-53.874c0-.85-.409-1.648-1.1-2.143-.691-.495-1.577-.627-2.382-.354l-4.344 1.471-4.343-1.471c-.548-.186-1.143-.186-1.692 0l-4.342 1.471-4.342-1.471c-.805-.273-1.692-.141-2.383.354-.69.495-1.1 1.293-1.1 2.143v18.717H4.236V2.636c0-1.456 1.18-2.637 2.636-2.637H83.08c1.456 0 2.637 1.181 2.637 2.637v26.803H42.002V10.722zm9.033 9.188c0 1.456 1.18 2.637 2.636 2.637h20.243c1.456 0 2.637-1.181 2.637-2.637V9.268c0-1.457-1.181-2.637-2.637-2.637H53.671c-1.456 0-2.636 1.18-2.636 2.637V19.91z"/>
    <path fill="#FEBF2B" fill-rule="evenodd" d="M56.308 17.273v-5.369h14.969v5.369H56.308zm-35.061-2.874l1.706.578c.549.186 1.143.186 1.692 0l4.342-1.471 4.343 1.471c.549.186 1.144.186 1.692 0l1.707-.578v26.284H21.247V14.399z"/>
</svg>
