<svg id="_-e-step-6" data-name="-e-step-6" xmlns="http://www.w3.org/2000/svg" width="68.43" height="65.59" viewBox="0 0 68.43 65.59">
  <defs>
    <style>
      .cls-1 {
        fill: #231f20;
      }

      .cls-1, .cls-2 {
        fill-rule: evenodd;
      }

      .cls-2 {
        fill: #febf2b;
      }
    </style>
  </defs>
  <path id="briefcase" class="cls-1" d="M1506.64,2087.96h-57.02a5.712,5.712,0,0,1-5.71-5.7v-42.78a5.712,5.712,0,0,1,5.71-5.7h14.25v-2.85a8.568,8.568,0,0,1,8.56-8.55h11.4a8.568,8.568,0,0,1,8.56,8.55v2.85h14.25a5.712,5.712,0,0,1,5.71,5.7v42.78A5.712,5.712,0,0,1,1506.64,2087.96Zm-19.96-57.03a2.849,2.849,0,0,0-2.85-2.85h-11.4a2.849,2.849,0,0,0-2.85,2.85v2.85h17.1v-2.85Zm-37.06,8.55v14.26h22.81a2.85,2.85,0,0,1,0,5.7h-22.81v22.82h57.02v-22.82h-22.81a2.85,2.85,0,1,1,0-5.7h22.81v-14.26h-57.02Z" transform="translate(-1443.91 -2022.38)"/>
  <path id="briefcase-2" data-name="briefcase" class="cls-2" d="M1478.13,2068a8.587,8.587,0,0,1-8.55-8.56v-5.7a8.55,8.55,0,0,1,17.1,0v5.7A8.561,8.561,0,0,1,1478.13,2068Zm0-17.11a2.855,2.855,0,0,0-2.85,2.85v5.7a2.808,2.808,0,0,0,.85,2.01,2.829,2.829,0,0,0,4.85-2.01v-5.7a2.834,2.834,0,0,0-.84-2A2.885,2.885,0,0,0,1478.13,2050.89Z" transform="translate(-1443.91 -2022.38)"/>
</svg>
