<svg xmlns="http://www.w3.org/2000/svg" width="72" height="72">
    <path fill="#231F20" fill-rule="evenodd" d="M66 60h-6v9c0 1.212-.73 2.307-1.852 2.771-.372.154-.761.228-1.148.228-.779 0-1.547-.304-2.121-.879L43.759 60H33c-3.307 0-6-2.692-6-6.001V51c0-1.658 1.342-3 3-3s3 1.342 3 3v2.999h12c.197 0 .393.021.587.059.093.019.179.053.268.08.098.029.197.051.291.09.11.046.211.107.314.165.067.038.137.067.202.11.167.112.323.239.464.381L54 61.757v-4.758c0-1.656 1.342-3 3-3h9V30h-3c-1.658 0-3-1.344-3-3 0-1.657 1.342-3.001 3-3.001h3c3.307 0 6 2.691 6 6.001v23.999C72 57.308 69.307 60 66 60zM48 41.999H28.242L17.121 53.12c-.574.574-1.342.879-2.121.879-.387 0-.776-.075-1.148-.228C12.729 53.306 12 52.212 12 51v-9.001H6c-3.308 0-6-2.691-6-6V6C0 2.691 2.692-.001 6-.001h42c3.307 0 6 2.692 6 6.001v29.999c0 3.309-2.693 6-6 6zM48 6H6v29.999h9c1.658 0 3 1.344 3 3.001v4.757l6.873-6.873c.142-.142.298-.27.466-.382.062-.042.131-.07.196-.106.104-.059.207-.122.319-.168.093-.039.191-.061.287-.089.091-.028.178-.063.272-.081.193-.039.39-.059.586-.059H48V6z"/>
    <path fill="#FEBF2B" fill-rule="evenodd" d="M39 18H15c-1.658 0-3-1.344-3-3.001 0-1.656 1.342-3 3-3h24c1.658 0 3 1.344 3 3C42 16.656 40.658 18 39 18zm-24 5.999h15c1.658 0 3 1.344 3 3.001 0 1.656-1.342 3-3 3H15c-1.658 0-3-1.344-3-3 0-1.657 1.342-3.001 3-3.001z"/>
</svg>
