<svg xmlns="http://www.w3.org/2000/svg" width="68" height="66">
    <path fill="#231F20" fill-rule="evenodd" d="M53.031 65.998c-7.204 0-20.345-8.181-32.701-20.352C6.883 32.404-4.632 15.239 1.864 8.845L11.152.704c.558-.489 1.29-.738 2.036-.688.746.048 1.439.388 1.929.943L27.22 14.706c.739.84.891 2.036.387 3.031l-4.685 9.225 16.703 16.442 9.371-4.611c1.006-.494 2.216-.349 3.071.377l13.962 11.848c.565.476.912 1.159.963 1.89.052.733-.196 1.456-.688 2.006L58.21 63.98c-1.026 1.023-2.582 2.018-5.179 2.018zM12.749 6.664L5.747 12.79C4.166 14.354 8.463 26.185 24.28 41.757 36.636 53.93 48.315 60.499 53.031 60.499c.612 0 .951-.119 1.053-.22l6.164-6.909-10.418-8.84-9.508 4.678c-1.08.528-2.375.322-3.222-.517L17.55 29.448c-.85-.835-1.061-2.113-.524-3.173l4.751-9.354-9.028-10.257z"/>
    <path fill="#FEBF2B" fill-rule="evenodd" d="M65.207 27.506c-1.543 0-2.793-1.231-2.793-2.75 0-10.613-8.769-19.247-19.547-19.247-1.543 0-2.793-1.231-2.793-2.749 0-1.519 1.25-2.75 2.793-2.75 13.857 0 25.132 11.101 25.132 24.746 0 1.519-1.251 2.75-2.792 2.75zm-5.585 0c0 1.518-1.251 2.749-2.793 2.749-1.542 0-2.792-1.231-2.792-2.749 0-7.581-6.265-13.748-13.963-13.748-1.542 0-2.792-1.231-2.792-2.749s1.25-2.751 2.792-2.751c10.779 0 19.548 8.634 19.548 19.248z"/>
</svg>
