<svg xmlns="http://www.w3.org/2000/svg" width="55" height="74">
    <path fill="#FEBF2B" fill-rule="evenodd" d="M28.053 52.186c-1.653 0-2.991-1.336-2.991-2.984V3.867c0-1.647 1.338-2.984 2.991-2.984 1.654 0 2.992 1.337 2.992 2.984v45.335c0 1.648-1.338 2.984-2.992 2.984z"/>
    <path fill="#231F20" fill-rule="evenodd" d="M51.987 73.079c-1.654 0-2.992-1.337-2.992-2.984V55.171c0-3.703-2.992-7.901-5.984-11.107v20.062c0 .265-.045.516-.11.761l2.527 3.446c.973 1.331.683 3.198-.652 4.17-1.329.973-3.202.683-4.181-.646L27.367 53.809c-.558-.798-1.999-2.354-4.278-1.007-.92.863-1.463 1.851.091 4.246l7.389 11.428c.893 1.386.493 3.233-.894 4.127-.503.323-1.064.476-1.619.476-.981 0-1.946-.481-2.518-1.367l-7.386-11.425c-3.973-6.13-.993-10.214 1.137-12.103.11-.1.231-.191.356-.271 5.148-3.341 10.135-1.08 12.589 2.424l4.794 6.539V8.558c0-.925-.783-1.706-1.709-1.706H7.112l-.167 54.123 3.158.165c1.654 0 2.992 1.337 2.992 2.986 0 1.647-1.338 2.985-2.992 2.985H7.112c-3.393 0-6.15-2.753-6.15-6.136V7.018C.962 3.636 3.608 1.061 7 1.061h30c4.242 0 6.011 3.264 6.011 7.497v27.279c3.334 2.788 11.967 10.826 11.967 19.334v14.924c0 1.647-1.338 2.984-2.991 2.984z"/>
</svg>
