<svg xmlns="http://www.w3.org/2000/svg" width="72" height="66">
    <path fill="#231F20" fill-rule="evenodd" d="M69 53.885h-3c-1.658 0-3-1.339-3-2.991 0-1.652 1.342-2.993 3-2.993V6.01H6v42.115h24c1.658 0 3 1.117 3 2.769 0 1.652-1.342 2.991-3 2.991H3c-1.658 0-3-1.339-3-2.991V3.019C0 1.366 1.342.026 3 .026h66c1.658 0 3 1.34 3 2.993v47.875c0 1.652-1.342 2.991-3 2.991zM21 32.94c-1.658 0-3-1.34-3-2.992 0-1.653 1.342-2.824 3-2.824h12c1.658 0 3 1.171 3 2.824 0 1.652-1.342 2.992-3 2.992H21zM9 17.979c0-1.652 1.342-2.854 3-2.854h48c1.658 0 3 1.202 3 2.854 0 1.653-1.342 2.993-3 2.993H12c-1.658 0-3-1.34-3-2.993z"/>
    <path fill="#FEBF2B" fill-rule="evenodd" d="M57 49.807v13.055c0 1.128-.636 2.16-1.644 2.67-.428.217-.893.323-1.356.323-.627 0-1.251-.196-1.776-.579L48 62.185l-4.225 3.091c-.908.667-2.124.766-3.131.256-1.008-.51-1.644-1.542-1.644-2.67V49.808c-1.861-2.11-3-4.867-3-7.891 0-6.6 5.381-11.969 12-11.969 6.618 0 12 5.369 12 11.969 0 3.024-1.139 5.781-3 7.89zm-12 7.149l1.224-.894c1.061-.774 2.491-.774 3.551 0l1.225.894v-3.464c-.961.248-1.963.393-3 .393-1.038 0-2.039-.145-3-.393v3.464zm3-21.023c-3.308 0-6 2.683-6 5.984 0 3.3 2.692 5.984 6 5.984 3.307 0 6-2.684 6-5.984 0-3.301-2.693-5.984-6-5.984z"/>
</svg>
