<svg width="120" height="120" viewBox="0 0 120 120" fill="none" xmlns="http://www.w3.org/2000/svg">
<path d="M120 60C120 93.1371 93.1371 120 60 120C26.8629 120 0 93.1371 0 60C0 26.8629 26.8629 0 60 0C93.1371 0 120 26.8629 120 60Z" fill="white"/>
<path fill-rule="evenodd" clip-rule="evenodd" d="M101.417 40.3556L101.81 41.0156L102.072 41.4116L102.334 41.9398L102.465 42.0718V42.2038L102.596 42.3358L102.989 43.1279L103.12 43.26V43.3919L103.251 43.524V43.6561L103.382 43.788V43.9201L103.513 44.0521V44.1841L103.644 44.3161V44.4482L103.775 44.5801V44.7122L104.43 46.0324L104.692 46.6924C105.638 47.7888 107.282 53.8347 107.731 55.9075C108.499 59.4478 108.579 63.1029 108.356 67.2827C107.904 75.7389 103.458 85.9036 103.382 86.8263C104.298 86.1497 107.057 81.5331 107.707 80.2271C119.63 56.2705 106.506 25.6724 82.3243 15.6329C78.3032 13.9635 69.7152 11.8758 63.7008 12.3822C53.6139 13.2316 46.2813 14.7785 38.5066 19.9984C37.0356 20.986 33.3749 23.7341 32.5062 25.0413C33.4248 24.8256 40.248 20.0916 50.3226 17.6475C64.0057 14.3277 78.7804 18.8853 89.4395 26.9456C91.6537 28.62 94.29 30.8745 96.0736 32.9342C97.1218 34.1445 101.096 38.9689 101.417 40.3556Z" fill="#0C54A0"/>
<path fill-rule="evenodd" clip-rule="evenodd" d="M11.5448 58.046V58.7062L11.6758 59.8944V60.5544L11.8068 61.2145V61.8747L11.9378 62.2708V62.9308L12.0689 63.1948V63.7229L12.1998 63.9869V64.515L12.3308 64.6471V65.1751L12.4607 65.3071L12.4619 65.8353L12.5928 65.9672V66.4953L12.7238 66.6274V67.0234L12.8549 67.1554V67.5514L12.9858 67.6835V68.0796L13.1169 68.2116V68.4756L13.248 68.7395V69.0037L13.3788 69.1356V69.3998L13.5099 69.6637V69.7958L13.641 70.0598V70.3238L13.7719 70.588V70.7199L13.9029 70.984L14.296 72.1722L14.4271 72.4362L14.5579 72.8322C14.7617 73.0683 16.0117 75.8936 16.3047 76.4848C16.9393 77.7655 17.5367 78.8627 18.3039 80.015C19.185 81.3383 22.0263 85.4596 23.0736 86.1662C22.9337 85.5609 20.4566 80.9241 19.8947 79.6001C12.4993 62.1768 15.9892 41.0457 28.4104 27.383C34.986 20.1501 42.111 15.8399 52.8684 12.8199C61.3217 10.4467 69.8024 10.8144 78.3895 13.2612C79.6252 13.6133 80.9054 14.0486 82.0421 14.4651C83.0035 14.8172 84.8436 15.7627 85.5648 15.9319C84.3591 14.1177 77.3365 11.2444 74.6746 10.4039C69.9077 8.89816 66.3028 8.56232 60.5691 7.98353C50.4541 6.96266 40.4174 11.1021 34.4783 14.7509C21.9098 22.4725 11.5448 37.5303 11.5448 58.046Z" fill="#87BD3B"/>
<path fill-rule="evenodd" clip-rule="evenodd" d="M104.692 46.6924L104.43 46.0324L103.775 44.7122V44.5801L103.644 44.4482V44.3161L103.513 44.1841V44.0521L103.382 43.9201V43.788L103.251 43.6561V43.524L103.12 43.3919V43.26L102.989 43.1279L102.596 42.3358L102.465 42.2038V42.0718L102.334 41.9398L102.072 41.4116L101.81 41.0156L101.417 40.3556C101.055 40.0881 99.1592 37.3073 98.5628 36.6306C97.5958 35.5336 96.4417 34.1563 95.2594 33.3584C95.4045 33.9861 97.9959 38.4934 98.5303 39.6997C110.907 67.6333 96.3741 98.6926 68.5205 107.276C64.2444 108.594 57.0593 109.689 51.3981 109.111C48.3185 108.796 45.6724 108.451 42.9514 107.853C41.0551 107.437 36.4268 105.649 35.5194 105.573C37.4475 107.262 45.1073 110.355 48.3026 111.174C50.8269 111.821 53.4662 112.08 56.2488 112.174H65.94C70.0083 112.046 77.1247 109.438 79.8879 108.038C84.3476 105.778 87.3605 103.818 90.9092 100.661C102.949 89.95 110.571 70.8753 106.764 53.8452C106.486 52.5996 106.197 51.3937 105.843 50.1528C105.622 49.3776 104.741 47.2914 104.692 46.6924Z" fill="#87BD3B"/>
<path fill-rule="evenodd" clip-rule="evenodd" d="M85.3027 96.5956C84.7812 96.736 81.899 98.6425 80.9796 99.1042C76.0541 101.577 71.1024 103.429 65.3483 104.211C56.4928 105.415 47.7924 104.017 41.4989 101.264C31.7293 96.9887 24.7249 91.0231 19.09 82.2593C18.1881 80.8569 14.6924 74.4592 14.5579 72.8322L14.4271 72.4362L14.296 72.1722L13.9029 70.984L13.7719 70.7199V70.588L13.641 70.3238V70.0598L13.5099 69.7958V69.6637L13.3788 69.3998V69.1356L13.248 69.0037V68.7395L13.1169 68.4756V68.2116L12.9858 68.0796V67.6835L12.8549 67.5514V67.1554L12.7238 67.0234V66.6274L12.5928 66.4953V65.9672L12.4619 65.8353L12.4607 65.3071L12.3308 65.1751V64.6471L12.1998 64.515V63.9869L12.0689 63.7229V63.1948L11.9378 62.9308V62.2708L11.8068 61.8747V61.2145L11.6758 60.5544V59.8944L11.5448 58.7062V58.046C10.7928 56.8518 12.0133 46.7788 12.2572 45.4299C12.6166 43.4409 13.0256 41.6945 13.4838 39.9332C13.831 38.5976 14.9989 35.685 15.082 34.6787C12.3325 37.8665 9.85616 44.5148 8.76777 49.5707C5.13353 66.452 12.3892 85.6871 24.1553 96.4296C31.0241 102.701 41.6035 108.483 54.6467 108.477C64.0641 108.473 72.2918 105.865 79.3296 101.27C80.6391 100.415 84.6005 97.6525 85.3027 96.5956Z" fill="#0C54A0"/>
<path fill-rule="evenodd" clip-rule="evenodd" d="M56.6151 66.4953L57.0048 66.1652L56.9092 61.1479L58.606 64.4796L59.625 64.428L59.784 64.5063L61.41 61.1559L61.4599 63.0629L61.4629 63.4589L61.4635 66.3829L63.3647 66.3656L63.4234 61.3466L63.4243 56.5939H61.4592L61.3105 56.99L59.239 61.628L56.8562 56.6203L55.0374 56.6171L55.0089 66.3876L56.6151 66.4953Z" fill="#0C54A0"/>
<path fill-rule="evenodd" clip-rule="evenodd" d="M73.7904 57.386L73.8144 58.5742L73.7827 64.2511L73.8144 65.0431L73.7685 66.3633H75.5829L75.8701 65.8839L77.5723 62.9308L77.8352 62.4381L78.8351 60.6581L78.8841 64.6471L78.931 66.3843L79.2744 66.3894L80.5864 66.3876L80.832 66.3685V65.9672L80.8485 62.1387L80.8328 61.3466L80.8476 58.046L80.812 56.6268L79.5383 56.5969L79.0143 56.5933L77.4897 59.4372L75.7392 62.4026V56.5939H73.7739L73.7904 57.386Z" fill="#0C54A0"/>
<path fill-rule="evenodd" clip-rule="evenodd" d="M53.0746 56.6558L51.3716 56.5868L50.0619 58.9702C49.9175 59.3267 48.4494 62.1045 48.0329 62.3593L48.0954 60.2904L48.0437 58.3102L48.0305 56.6291L46.1623 56.6243L46.1409 66.3752L47.8894 66.3896L51.1893 60.5308L51.2605 66.3659L53.1602 66.373L53.0746 56.6558Z" fill="#0C54A0"/>
<path fill-rule="evenodd" clip-rule="evenodd" d="M65.1273 59.9524L65.1283 62.5348L65.1273 62.8614L65.2196 66.3874L67.1141 66.3876L67.1211 65.1751L67.0915 58.4421H69.9747V61.9658L69.9775 63.3269L69.9745 66.3633H71.9398L71.9715 63.9869L71.9525 63.0629L71.9544 58.3102L71.9265 56.6195L68.1406 56.5957L65.1273 56.5937V59.9524Z" fill="#0C54A0"/>
<path fill-rule="evenodd" clip-rule="evenodd" d="M82.7048 59.2342L82.6818 66.3633H84.6477L84.6381 62.4027L84.6169 61.7024C84.7263 61.8033 84.7399 61.7966 84.8498 61.931C84.9097 62.0044 84.9067 62.0122 84.962 62.0933C85.0494 62.2216 85.0548 62.2575 85.1608 62.4167C85.3842 62.7521 85.3876 62.6975 85.5305 63.0629L87.5877 66.3264L90.019 66.3633L86.6864 61.253L89.7673 56.6009L87.3989 56.5939L84.8379 60.5928L84.676 60.5556L84.6345 56.594L82.7008 56.5939L82.7048 59.2342Z" fill="#0C54A0"/>
<path fill-rule="evenodd" clip-rule="evenodd" d="M36.6885 66.3633C38.7988 66.3633 39.1947 66.3707 39.9014 64.779C40.4266 62.5533 40.3336 60.8242 40.3339 58.4395H42.2007L42.3784 59.1023L42.3673 64.515L42.3654 65.3071L42.3809 66.332L44.2793 66.3883L44.2962 57.65L44.2597 56.726L38.5252 56.6174C38.3374 58.8633 39.4955 64.5118 36.7396 64.5649L36.6895 64.779L36.6885 66.3633Z" fill="#0C54A0"/>
<path fill-rule="evenodd" clip-rule="evenodd" d="M33.9472 59.1073C34.6291 59.7436 34.4176 62.327 34.2363 63.3576C33.9265 65.1182 31.8508 64.9407 31.5536 63.7229C31.1546 62.8536 31.2504 60.7398 31.4246 59.7285C31.7287 57.9647 33.6916 58.1241 33.9472 59.1073ZM30.5411 65.6801C36.1546 68.7928 37.2768 62.1544 35.5038 57.7821C33.9787 55.8198 30.823 56.2053 29.7584 58.3136C28.8636 60.0858 29.2473 64.8779 30.5411 65.6801Z" fill="#0C54A0"/>
<path fill-rule="evenodd" clip-rule="evenodd" d="M93.9397 67.5486L96.7368 68.3555C92.6564 68.9022 95.4253 70.0506 96.0454 70.984L93.1832 70.1246L92.8632 71.2365L98.1212 72.77C98.4251 71.4741 98.6264 71.7785 97.5448 70.9255C96.9664 70.4696 96.5667 69.9884 96.0454 69.5317C96.7445 69.5317 97.4838 69.3259 98.2244 69.2192C99.2043 69.0781 99.4267 69.0751 99.4516 67.9475L94.2316 66.425L93.9397 67.5486ZM20.5869 68.8801L21.7287 72.7108L26.8614 71.2085C26.8728 70.6964 26.7807 70.4166 26.6108 70.0598L22.4122 71.359L21.883 69.6672L26.0745 68.4335L25.8257 67.2871L20.5869 68.8801ZM20.8465 63.855V63.3269C20.8465 62.582 22.2876 62.3032 22.2876 63.5908V64.3829H21.3705C21.0964 64.3829 20.8465 64.7505 20.8465 63.855ZM25.4318 65.3071C25.4318 63.5899 25.5112 64.2511 23.3356 64.2511C23.3356 60.6093 20.2532 61.2037 19.861 63.0039C19.7946 63.3086 19.8775 65.4055 20.0499 65.5799C20.2031 65.7349 24.5903 65.3071 25.4318 65.3071ZM20.7155 57.5181C20.7155 55.8886 23.749 56.7912 24.1216 56.99C24.4827 58.5098 23.8858 58.4421 22.6806 58.4421C21.897 58.4421 21.3562 58.3178 20.8465 58.046C20.7623 57.6921 20.7155 57.7972 20.7155 57.5181ZM19.6674 57.386C19.6674 59.3312 21.3944 59.6303 23.3356 59.6303C24.9118 59.6303 26.1511 57.4162 24.5555 56.0248C23.7793 55.3479 19.6674 54.7432 19.6674 57.386ZM21.1349 48.8107L23.5135 50.7263C22.0165 51.4862 20.3645 50.7282 20.3224 52.6333L25.5687 53.7948L25.8667 52.643L22.9507 52.0662C23.9328 51.4722 25.0427 52.1908 25.1698 50.6531L23.6871 49.5149L26.4694 50.0404L26.7156 48.93L21.3754 47.7267L21.1349 48.8107ZM27.1349 45.3722L25.8185 44.8581C26.2956 42.8447 27.5279 43.5571 27.5279 44.1841C27.5279 44.7126 27.2579 44.8402 27.1349 45.3722ZM24.9076 44.3161L23.0748 43.3893L22.6179 44.4212L27.3955 46.959C27.9088 45.9817 28.576 45.0441 28.576 43.9201C28.576 42.6179 26.4442 41.7631 25.4828 43.1794C25.2631 43.5033 25.0836 43.9811 24.9076 44.3161ZM24.6415 40.4854L29.4892 43.003L29.9486 41.9668L25.1772 39.4173L24.6415 40.4854ZM29.9851 32.6747L33.369 35.4087L32.5553 36.5662L28.9979 33.8488L28.3634 34.8945C28.6493 34.86 31.3878 37.1316 31.8314 37.4768L31.0094 38.5962L27.3575 35.8789C26.6336 36.8264 26.8957 36.947 27.3014 37.2694L31.0652 40.0916L34.8886 35.2258L30.6022 31.8266L29.9851 32.6747ZM33.6853 29.1339C34.1654 30.0484 35.9124 31.6624 35.9124 32.6984C35.9124 33.1364 35.6654 33.0842 35.5193 33.4905L36.1089 34.0948C38.7123 32.4149 35.5388 30.6908 35.1263 29.1339L36.0277 28.5827C36.3292 28.7986 38.502 31.5978 38.7946 32.0383L39.5281 31.4463C39.5437 30.8575 36.6783 27.5829 36.3054 27.0215C35.9854 27.2377 33.8327 28.9312 33.6853 29.1339ZM38.8161 25.3443L41.411 30.1921L44.5385 28.4361L44.1264 27.5687L41.8262 28.7717L41.3005 27.6725L43.116 26.622L42.7196 25.8362C42.2643 25.8721 41.1866 26.5299 40.7598 26.7576L40.2315 25.7036L42.3386 24.5255L41.9423 23.5874L38.8161 25.3443ZM47.31 21.3439L47.9756 23.4538L46.2655 23.9967L45.6351 21.8641C44.4634 22.4223 44.3341 21.4352 45.1986 24.2648C45.5197 25.316 45.8835 26.3468 46.131 27.4176L47.1763 27.1439L46.6014 24.9245L48.3447 24.4616L48.9172 26.6149L49.9189 26.3231L48.4239 21.1006L47.31 21.3439ZM53.9954 19.7831L54.2803 22.001L52.5519 22.2765L52.2443 20.1635L51.1094 20.2886C51.1825 21.1735 51.4636 22.5693 51.6137 23.477C52.0982 26.4081 51.6886 25.5694 53.0745 25.5694C53.0298 23.5454 51.7247 23.0609 54.5157 23.0609L54.7917 25.1713L55.9575 25.0462L55.0516 19.6267L53.9954 19.7831ZM60.6731 23.7212C59.827 23.9198 60.1152 23.8531 59.101 23.8531V22.4009C59.5968 22.4009 61.3619 22.168 60.6731 23.7212ZM58.0529 23.8531C58.0529 24.9806 57.2464 24.9093 59.756 24.9093C62.6983 24.9093 62.6983 21.3448 59.756 21.3448H59.101V19.3645H58.0529V23.8531ZM62.5072 21.7409C62.5072 22.4791 62.4902 22.9468 62.4119 23.4966C62.1836 25.0986 62.4792 24.9093 63.5552 24.9093V19.3645H62.5072V21.7409ZM69.1886 22.797L68.5971 25.9516L69.7075 26.1304L70.861 20.8097L69.8439 20.5515L67.2504 23.3507L67.8998 20.1615L66.8381 19.8624L65.5982 25.2932C67.2526 25.3412 66.5614 25.5448 67.5885 24.353C67.9718 23.9081 68.7421 23.0982 69.1886 22.797ZM69.3197 20.1566C69.9875 20.1566 70.2402 19.7843 70.3677 19.2324C69.8195 19.1854 70.0442 19.0563 69.6473 19.1787C69.2665 19.2963 69.6459 19.3382 69.0575 19.4965L68.9107 19.3806C68.6664 19.0861 68.6964 19.2222 68.6646 18.8364L67.883 18.6844C67.8785 19.7258 68.3195 20.1566 69.3197 20.1566ZM76.2702 26.7585L75.2419 26.2985C75.3492 25.8554 76.1254 25.1791 76.5252 24.9093L76.2702 26.7585ZM72.6937 27.2531C74.4297 27.6856 73.0782 28.0215 74.5601 27.0215L76.1093 27.7338L76.0592 28.7434C77.4817 29.5273 77.1926 29.293 77.3065 27.1489C77.3755 25.8483 77.5732 24.755 77.5732 23.457L76.8942 23.1069L72.6937 27.2531ZM79.0143 29.266C78.3333 29.266 78.9374 28.7698 78.3878 29.1704C78.2309 29.2849 78.0235 29.7096 77.9662 29.926C79.6968 30.8488 79.915 30.7939 82.1585 27.4176C82.6495 27.5498 82.8413 27.8312 83.2067 28.0778C82.3861 29.3126 81.5435 30.531 80.7174 31.7742C81.0585 32.0045 81.2708 32.2609 81.7654 32.3024L84.6998 27.8495C84.11 27.4508 82.2676 26.0833 81.7654 25.9654C81.7303 26.0981 79.9438 29.266 79.0143 29.266ZM85.6649 32.7994C85.9085 33.1506 86.6128 33.6129 86.6128 34.0186C86.6128 34.5426 86.1033 34.6787 85.6957 34.6787C85.3559 34.6787 84.9792 34.1102 84.6477 33.8866L85.6649 32.7994ZM83.2067 33.8866C83.8143 34.2967 84.9858 35.8668 85.8268 35.8668C86.7089 35.8668 87.6608 35.1942 87.6608 34.1507C87.6608 32.9424 86.8602 32.8049 86.3509 32.0383L87.6895 30.6146L87.0356 29.896C86.4711 30.0648 83.5112 33.4281 83.2067 33.8866ZM87.1369 37.8471L87.7447 38.806C88.9537 37.9873 90.2268 36.9206 91.4602 36.2629L92.3878 37.7078L88.7345 40.2607L89.2853 41.1132C90.0029 40.9669 92.8133 38.647 93.8184 38.1113L91.6008 34.8041C90.7746 35.2461 90.1539 35.7746 89.3915 36.2906C88.5962 36.8289 87.9065 37.3278 87.1369 37.8471ZM90.5651 42.9132C90.8219 44.0702 91.0048 43.9176 92.2614 44.0367C93.0639 44.1126 94.1786 44.0922 94.7353 44.4482L91.8707 45.6763L92.1247 46.6895L97.0814 44.553C96.9926 43.3573 96.5939 43.5424 95.4957 43.418C94.7036 43.328 93.7626 43.1279 93.0323 43.1279L95.8805 41.7327L95.5396 40.7444L90.5651 42.9132ZM92.9125 48.7118L93.2013 49.7175L95.384 49.1772L95.8974 50.922L93.8206 51.4539L93.9524 52.5008C95.0844 52.5012 97.9603 51.3377 99.1896 51.0491L99.0363 49.9967L96.8426 50.5609L96.3815 48.8198L98.4019 48.2706L98.1755 47.2114L92.9125 48.7118ZM94.4763 54.6507L94.4733 55.4057C94.4733 56.0525 97.4272 56.8959 97.8795 57.5181C93.62 57.5181 94.7353 57.7725 94.7353 58.8381L100.104 58.412L100.107 57.65C100.107 56.8677 97.1266 56.359 96.8315 55.5378C97.6863 55.5378 98.2876 55.4834 98.9609 55.4353C100.35 55.3364 99.8446 55.4232 99.8446 54.2175L94.4763 54.6507ZM94.6044 62.5348C94.6044 63.4335 94.7585 64.6471 96.1765 64.6471C96.7007 64.6471 97.1086 64.4243 97.2245 63.9869C97.622 64.2552 97.9035 64.779 98.5346 64.779C100.045 64.779 100.768 62.2714 99.3269 61.2013C98.4514 60.5509 98.4036 60.8149 98.4036 62.0066C99.3192 62.253 99.3255 63.5908 98.4036 63.5908C97.7314 63.5908 97.8795 62.8039 97.8795 62.1387L96.9647 61.9951C96.9576 64.16 95.5213 63.5528 95.5213 62.7987C95.5213 61.9655 95.9397 61.9837 96.4384 61.7426V60.6865C95.4115 60.7096 94.6044 61.469 94.6044 62.5348Z" fill="#0C54A0"/>
<path fill-rule="evenodd" clip-rule="evenodd" d="M88.4272 81.5327L93.118 84.5215C93.3209 83.7679 93.5024 84.0469 93.5562 83.3937L89.8989 81.1321C90.1957 80.6863 90.9408 79.5839 91.0671 79.037L90.2837 78.6357L88.4272 81.5327ZM27.6588 84.4499C28.1105 84.4499 28.1662 84.3523 28.576 84.3179C28.523 83.677 28.2484 83.3805 27.6505 83.27C27.6218 83.2647 26.5853 83.3347 26.8121 82.276C26.9675 81.5508 30.017 79.534 30.017 81.4134C30.017 82.0147 29.7482 81.8428 29.8409 82.2863C29.8897 82.5186 30.1714 82.7233 30.2791 83.1297C31.6365 82.2138 31.2054 80.0175 29.4954 79.5496C28.5432 79.2891 27.6629 80.0498 27.003 80.4885C24.3093 82.278 26.4623 84.4499 27.6588 84.4499ZM32.2442 85.77L31.4683 87.2283C31.0585 86.9528 30.9344 86.693 30.6721 86.2981L32.2442 85.77ZM28.0519 86.1662C28.327 86.69 28.4299 86.6733 28.707 87.0902L29.7558 86.6961C30.7619 88.2033 31.1917 87.7623 30.41 88.9387C30.6725 89.3334 30.7965 89.5931 31.1961 89.8627L33.9585 84.8522C33.8515 84.7018 33.587 84.1858 33.4233 84.1858C32.6806 84.1858 29.1314 85.9127 28.0519 86.1662ZM32.5062 91.0509L33.4138 91.8545C33.7688 91.1849 34.3059 90.77 34.7333 90.1268C35.4411 90.504 35.4669 90.8056 36.1745 91.1829L34.7437 92.9081C34.9603 93.2407 35.199 93.5699 35.6504 93.6914C35.8194 93.0534 38.5296 90.4705 39.0565 89.4666L38.2942 88.9065C37.8223 89.241 37.1349 90.0631 36.8295 90.5229L35.4929 89.3651C35.8463 88.8428 36.7789 88.0994 36.8295 87.4863L36.0532 86.9463L32.5062 91.0509ZM37.4829 95.1425L38.5017 95.7256L39.8082 93.2755L40.0051 96.5939L41.148 97.2641L40.9284 93.6884L43.6445 92.5086C42.5344 90.9675 41.4257 92.6903 39.9737 93.0311L41.158 90.9219L40.1355 90.3369L37.4829 95.1425ZM44.2819 93.8178L45.4556 94.3939C45.2192 95.4624 43.7942 97.6109 43.7729 98.5759C44.3208 98.7045 44.1329 98.8247 44.821 98.8401L46.5163 94.8759L47.8224 95.4349L48.2303 94.4847L44.5761 92.861L44.2819 93.8178ZM47.8342 98.312C49.7215 98.4702 49.9026 99.7363 50.3234 97.9159C49.4857 97.8456 48.9262 97.3877 47.9652 97.3877C47.8755 97.7762 47.8342 97.7907 47.8342 98.312ZM51.7196 101.076L52.8073 101.249L53.5889 96.8581L55.2972 97.1501L54.5628 101.489L55.6851 101.787L56.5959 96.3288L52.6833 95.6616L51.7196 101.076ZM58.0213 100.423L58.0529 101.876H61.7212V100.952L59.2332 100.804L59.232 99.6322H61.3281C61.3281 98.3414 61.6048 98.5759 59.232 98.5759V97.3877L61.7212 97.5199V96.4637L58.1853 96.3047L58.0213 100.423ZM62.7685 96.327C62.7691 97.6454 62.8885 97.4341 64.2104 97.1238C64.279 97.9558 64.4907 99.0385 64.5912 99.9085C64.8299 101.978 64.3985 101.48 65.9133 101.48L65.3413 96.9982L66.6962 96.8354L66.5685 95.8035L62.7685 96.327ZM67.7508 95.5511L69.2367 100.806L72.7135 99.8515L72.4545 98.8426L69.9909 99.5587L69.7137 98.3116L71.676 97.7777L71.5354 96.8618L69.4429 97.3583L69.0719 96.1947L71.5428 95.525L71.2446 94.6279L67.7508 95.5511ZM73.9859 94.5029C74.564 94.3595 74.6905 94.0874 75.2151 94.0874C76.1141 94.0874 76.2159 95.6537 74.429 95.8035L73.9859 94.5029ZM72.5948 94.0874L74.7506 99.0771L75.7241 98.6746L74.9497 96.7291C77.7529 96.0686 77.4205 93.0311 75.084 93.0311C74.6506 93.0311 72.978 93.8831 72.5948 94.0874ZM79.742 93.7241C80.3253 93.55 80.4838 93.1632 81.1104 93.1632C81.5883 93.1632 81.8605 93.7138 81.599 94.1618C81.3973 94.5071 80.79 94.833 80.4555 95.0114L79.742 93.7241ZM77.1802 91.8429L80.0917 96.4445C81.3033 95.8038 82.8136 95.1173 82.8136 93.6914C82.8136 92.9224 82.0914 92.1471 81.3243 92.0619C80.2571 91.9431 79.9546 92.6814 79.1453 92.8992C78.1522 91.4046 79.8947 91.7863 80.7174 90.6548C80.032 89.6233 80.2011 89.8045 77.1802 91.8429ZM83.5997 86.9584L84.512 89.6004L82.1319 88.4646C81.7328 88.6977 81.3877 88.7824 81.2415 89.3347C81.5727 89.4123 85.0407 90.7326 85.0407 91.315C85.0407 91.8662 84.8032 91.8079 84.5166 92.239L85.1263 92.9385C87.2132 91.492 85.4302 90.2494 84.5166 86.2981C84.0882 86.5874 84.1087 86.8213 83.5997 86.9584ZM87.7919 86.2981L86.7018 85.4254C86.9837 84.9171 87.5657 83.9545 88.2697 84.4891C88.9934 85.0386 88.1154 85.8114 87.7919 86.2981ZM85.1718 85.6382C85.8593 86.102 86.5394 86.7348 87.1708 87.3201C87.6774 87.7896 88.7244 88.7275 89.233 89.0705L89.9945 88.3848L88.5403 87.0011C89.0002 86.1541 89.626 86.0298 89.626 84.846C89.626 84.156 88.1085 81.2188 85.1718 85.6382Z" fill="#0C54A0"/>
<path fill-rule="evenodd" clip-rule="evenodd" d="M48.0954 60.2904L48.0329 62.3593C48.4494 62.1045 49.9175 59.3267 50.0619 58.9702C49.7278 59.1951 49.4478 59.326 49.0878 59.5734C48.6029 59.9066 48.64 60.001 48.0954 60.2904ZM46.1623 56.6243L48.0305 56.6291L48.0437 58.3102C48.07 58.2874 48.1065 58.2138 48.117 58.2359C48.1276 58.2579 48.174 58.1784 48.1877 58.1606L49.0686 56.3856C49.4815 55.3774 51.1819 53.068 47.8604 55.3C47.3418 55.6483 46.4116 56.0639 46.1623 56.6243L44.2962 57.65L44.2793 66.3883L42.3809 66.332L42.3654 65.3071C40.8886 65.9296 35.2071 67.1823 34.8644 68.4756L40.7506 67.6231L33.9698 70.2536C33.9807 70.5956 34.5043 71.2555 34.767 71.4856C35.7428 72.3403 37.6797 70.5016 39.7117 70.4558L36.1392 72.3678C36.4047 73.4324 37.7966 74.5998 39.056 74.5597C40.2702 74.521 47.1057 68.6454 48.2272 68.3435C47.5773 69.0347 43.6683 73.0148 43.5083 73.479L44.7956 74.9514C45.2817 74.8551 46.2665 73.8791 46.7006 73.5195L46.8332 73.6513C45.2914 76.3813 45.2418 75.6074 46.6784 76.9131L46.7862 76.7928C47.752 76.7119 54.6839 67.7773 56.6151 66.4953L55.0089 66.3876L55.0374 56.6171L56.8562 56.6203L59.239 61.628L61.3105 56.99L58.3608 58.532C58.4302 58.0066 60.2504 56.5089 60.6745 56.1992C62.0523 55.1933 62.2947 55.208 61.8522 53.2933L60.6634 53.3473C61.0321 51.8722 62.9824 51.7295 62.2452 48.5407C61.2481 48.6242 60.8443 50.0809 60.2013 50.7057C59.5052 51.3822 58.581 52.0657 57.8088 52.6514C56.9497 53.3032 53.428 55.9622 53.0746 56.6558L53.1602 66.373L51.2605 66.3659L51.1893 60.5308L47.8894 66.3896L46.1409 66.3752L46.1623 56.6243ZM84.6381 62.4027C85.0543 62.6708 85.0758 62.9224 85.5305 63.0629C85.3876 62.6975 85.3842 62.7521 85.1608 62.4167C85.0548 62.2575 85.0494 62.2216 84.962 62.0933C84.9067 62.0122 84.9097 62.0044 84.8498 61.931C84.7399 61.7966 84.7263 61.8033 84.6169 61.7024L84.6381 62.4027ZM69.9775 63.3269L69.9747 61.9658C68.7702 61.2298 68.7227 59.5846 67.6166 58.8381C67.6349 59.6707 68.246 60.6351 68.5773 61.3026C68.7907 61.7326 68.9359 62.013 69.143 62.4486C69.413 63.0164 69.3451 63.1798 69.9775 63.3269ZM79.2744 66.4953C80.144 66.698 82.9916 68.1908 83.9357 68.2958C85.634 68.4846 81.7846 66.1781 80.832 65.9672V66.3685L80.5864 66.3876C80.0915 66.3876 79.6301 66.3216 79.2744 66.4953ZM68.1406 56.5957L71.9265 56.6195L71.9544 58.3102L73.8144 58.5742L73.7904 57.386C71.4205 56.3172 69.6641 55.4097 68.0352 53.5316C67.0867 52.438 64.528 48.8305 63.2932 48.5407L63.1193 48.6517L68.1406 56.5957ZM66.5685 69.7958C66.3356 70.0305 66.8014 69.5612 66.5685 69.7958V69.7958ZM78.0973 58.1843L78.4911 57.5181L75.6945 52.8681L75.921 52.7158L79.5383 56.5969L80.812 56.6268L80.8476 58.046L82.7048 59.2342L82.7008 56.5939C75.102 52.8528 77.2446 50.6406 73.8335 49.2728C72.9272 48.9094 70.7292 48.0354 69.7127 48.0127C71.0895 50.0847 77.6617 56.5025 78.0973 58.1843ZM35.5038 57.7821C37.2768 62.1544 36.1546 68.7928 30.5411 65.6801L32.1351 68.1584L32.2953 68.2085L36.6885 66.3633L36.6895 64.779L36.7396 64.5649C39.4955 64.5118 38.3374 58.8633 38.5252 56.6174L44.2597 56.726C45.7069 56.3843 47.4243 53.4404 48.6202 52.6333C48.5773 52.9723 48.4126 53.5377 48.5583 53.8372L51.8856 52.5561L49.8154 57.202C50.6629 56.7597 51.8868 54.3083 52.4767 53.3511C54.1084 50.7023 54.2256 52.5244 57.1359 51.8412C57.2407 50.5727 56.0976 48.8697 55.7422 48.0944L53.3418 49.2123C53.4952 48.5148 54.8777 47.4018 55.4256 46.4213C55.626 46.0626 57.2105 43.1975 56.2963 43.2195C55.5771 43.2366 51.904 47.0737 50.7164 47.3525C51.954 45.4902 54.4397 44.0782 55.1178 41.7544C55.3349 41.0103 55.3512 40.373 55.687 39.8196C56.0675 39.1922 56.3944 39.1192 56.5448 38.1757C56.7405 36.947 57.1105 34.6464 56.8738 33.6226C56.1283 33.8231 48.7855 45.7929 47.8421 47.3604C45.8954 50.595 45.7004 51.2741 42.3318 53.1614C41.0062 53.9041 36.2681 56.834 35.5038 57.7821ZM64.6034 47.4846C65.2711 47.4846 65.5155 46.6097 66.1755 46.1643L72.9878 54.4816C72.735 53.388 66.5832 45.7202 65.4457 44.1273C64.4203 42.6908 58.74 33.9772 57.6598 33.8866C59.5094 37.7708 62.2488 40.3353 63.2784 43.6711C63.4878 44.3493 63.9951 47.4846 64.6034 47.4846ZM63.4234 61.3466L63.3647 66.3656L61.4635 66.3829L61.4629 63.4589L61.4599 63.0629L61.41 61.1559L59.784 64.5063L59.625 64.428L58.606 64.4796L56.9092 61.1479L57.0048 66.1652L57.3804 65.9321C56.29 67.6345 55.2071 69.0228 53.9768 70.573C53.4841 71.194 50.123 74.7757 50.6878 75.4657L56.8739 70.324C56.5244 71.6425 50.8442 76.9829 51.1094 78.2449L56.2157 78.9299L59.2849 75.3663L57.345 79.4074C61.2972 82.0644 61.2393 81.6362 63.0361 77.5897C63.5529 76.4259 66.0627 70.6463 66.5685 70.0598C66.4111 71.9643 63.9871 78.4121 64.0786 79.5872C64.1805 80.8925 67.7397 78.9176 68.0713 78.5711C69.4352 77.1453 67.7428 75.0101 68.4025 73.6243L70.1058 77.981C72.3701 77.7911 80.1509 74.7482 80.1933 72.8322C78.7167 72.4856 72.8815 71.3266 72.1671 70.491C71.0338 69.1651 68.7093 65.5914 67.1211 65.1751L67.1141 66.3876L65.2196 66.3874L65.1273 62.8614L64.8664 62.9382L65.1283 62.5348L65.1273 59.9524L63.4234 61.3466ZM75.5829 66.3633L79.0389 68.8468C79.93 69.4548 81.7686 70.8706 82.8136 71.1159C82.7612 70.4819 82.6552 70.6563 82.1356 70.3469L75.8701 65.8839L75.5829 66.3633ZM71.9715 63.9869C72.5889 64.151 73.1535 64.7453 73.8144 65.0431L73.7827 64.2511C73.4855 64.0588 73.2286 63.9024 72.9114 63.6679C72.5605 63.4086 72.3833 63.1845 71.9525 63.0629L71.9715 63.9869ZM77.5723 62.9308C77.7162 63.5447 77.8564 64.0628 78.0178 64.7273C78.0973 65.0553 78.1521 65.3659 78.2703 65.659C78.4569 66.122 78.4808 66.1286 78.931 66.2313L78.8841 64.6471C78.4326 64.1264 78.3272 63.2754 77.9313 62.5848L77.8352 62.4381L77.5723 62.9308ZM80.8485 62.1387C81.0476 62.3696 80.9836 62.4301 81.3724 62.5347L80.8328 61.3466L80.8485 62.1387ZM31.5536 63.7229C31.8508 64.9407 33.9265 65.1182 34.2363 63.3576C34.4176 62.327 34.6291 59.7436 33.9472 59.1073C33.5103 59.9209 33.0633 60.0927 32.7105 61.1683C32.1774 62.7943 33.2486 62.0872 34.2094 62.0066C34.0215 62.7153 32.3241 63.5628 31.5536 63.7229ZM39.9014 64.779C40.3229 64.6531 40.6192 64.4476 41.0562 64.2749C41.9157 63.9348 41.7923 64.1849 42.3673 64.515L42.3784 59.1023L40.6287 60.0263L42.2007 58.4395H40.3339C40.3336 60.8242 40.4266 62.5533 39.9014 64.779Z" fill="#A4C9EB"/>
<path fill-rule="evenodd" clip-rule="evenodd" d="M24.7768 76.1328C24.7768 77.6662 26.8711 77.402 26.84 76.1495C26.8081 74.8715 24.7768 74.6254 24.7768 76.1328Z" fill="#A3C8EB"/>
<path fill-rule="evenodd" clip-rule="evenodd" d="M94.0803 77.1888C95.7671 77.1888 95.5364 75.0765 94.2114 75.0765C92.8975 75.0765 93.0216 77.1888 94.0803 77.1888Z" fill="#A3C8EB"/>
<path fill-rule="evenodd" clip-rule="evenodd" d="M85.3027 96.5956H85.4338L85.3245 96.4416L85.3027 96.5956Z" fill="#0C54A0"/>
<path fill-rule="evenodd" clip-rule="evenodd" d="M85.5648 15.9319L85.5648 16.064L85.7175 15.9539L85.5648 15.9319Z" fill="#87BD3B"/>
<path fill-rule="evenodd" clip-rule="evenodd" d="M23.0736 86.1662L23.0736 86.2981L23.2265 86.1882L23.0736 86.1662Z" fill="#87BD3B"/>
<path fill-rule="evenodd" clip-rule="evenodd" d="M95.2594 33.3584L95.2594 33.2265L95.1065 33.3365L95.2594 33.3584Z" fill="#87BD3B"/>
</svg>
