<svg width="21" height="17" viewBox="0 0 21 17" fill="none" xmlns="http://www.w3.org/2000/svg">
<path d="M18.833 16.8334H2.16634C1.61381 16.8334 1.0839 16.6139 0.693202 16.2232C0.302501 15.8325 0.0830078 15.3026 0.0830078 14.7501V2.15946C0.106375 1.62278 0.336142 1.11587 0.724339 0.744561C1.11254 0.373251 1.62916 0.166241 2.16634 0.166749H18.833C19.3855 0.166749 19.9154 0.386242 20.3061 0.776943C20.6968 1.16764 20.9163 1.69755 20.9163 2.25008V14.7501C20.9163 15.3026 20.6968 15.8325 20.3061 16.2232C19.9154 16.6139 19.3855 16.8334 18.833 16.8334ZM2.16634 4.19592V14.7501H18.833V4.19592L10.4997 9.75008L2.16634 4.19592ZM2.99967 2.25008L10.4997 7.25008L17.9997 2.25008H2.99967Z" fill="#EC4242"/>
</svg>
