<svg width="12" height="9" viewBox="0 0 12 9" fill="none" xmlns="http://www.w3.org/2000/svg">
<path d="M9.39849 0.523138C9.58337 0.347117 9.82941 0.249806 10.0847 0.251737C10.34 0.253669 10.5845 0.354692 10.7667 0.533491C10.9489 0.712289 11.0545 0.954877 11.0613 1.21007C11.068 1.46526 10.9754 1.71309 10.8029 1.90126L5.56599 8.45064C5.47594 8.54763 5.36725 8.62547 5.24643 8.67949C5.12561 8.73352 4.99514 8.76263 4.86281 8.76508C4.73049 8.76753 4.59903 8.74327 4.47629 8.69376C4.35355 8.64424 4.24206 8.57048 4.14848 8.47689L0.675609 5.00401C0.578896 4.91389 0.501324 4.80522 0.447522 4.68447C0.39372 4.56372 0.36479 4.43337 0.362458 4.3012C0.360126 4.16903 0.38444 4.03774 0.433949 3.91517C0.483457 3.79259 0.557147 3.68125 0.650622 3.58778C0.744096 3.4943 0.855441 3.42061 0.978013 3.3711C1.10058 3.32159 1.23187 3.29728 1.36405 3.29961C1.49622 3.30194 1.62657 3.33087 1.74732 3.38468C1.86807 3.43848 1.97674 3.51605 2.06686 3.61276L4.81524 6.35983L9.37355 0.552013C9.38175 0.541908 9.39052 0.532268 9.3998 0.523138H9.39849Z" fill="#595959"/>
</svg>
