<svg width="21" height="25" viewBox="0 0 21 25" fill="none" xmlns="http://www.w3.org/2000/svg">
<path fill-rule="evenodd" clip-rule="evenodd" d="M3.60571 3.1477C5.43419 1.31922 7.91414 0.291992 10.5 0.291992C13.0859 0.291992 15.5658 1.31922 17.3943 3.1477C19.2228 4.97618 20.25 7.45613 20.25 10.042C20.25 11.1474 20.1325 12.1165 19.829 13.032C19.5239 13.952 19.0476 14.7683 18.3897 15.5892C18.3817 15.5992 18.3735 15.6091 18.3651 15.6188L11.2557 23.8219C11.0657 24.0411 10.79 24.167 10.5 24.167C10.21 24.167 9.93425 24.0411 9.74431 23.8219L2.63494 15.6188C2.62653 15.6091 2.6183 15.5992 2.61028 15.5892C1.95242 14.7683 1.47606 13.952 1.17105 13.032C0.867499 12.1165 0.75 11.1474 0.75 10.042C0.75 7.45613 1.77723 4.97618 3.60571 3.1477ZM10.5 2.29199C8.44457 2.29199 6.47333 3.10851 5.01992 4.56191C3.56652 6.01532 2.75 7.98656 2.75 10.042C2.75 11.0059 2.85271 11.749 3.06942 12.4026C3.28311 13.0471 3.62365 13.6529 4.15923 14.3238L10.5 21.6401L16.8408 14.3238C17.3763 13.6529 17.7169 13.0471 17.9306 12.4026C18.1473 11.749 18.25 11.0059 18.25 10.042C18.25 7.98656 17.4335 6.01532 15.9801 4.56191C14.5267 3.10851 12.5554 2.29199 10.5 2.29199Z" fill="#EC4242"/>
<path d="M10.5013 11.5007C11.3067 11.5007 11.9596 10.8477 11.9596 10.0423C11.9596 9.2369 11.3067 8.58398 10.5013 8.58398C9.69589 8.58398 9.04297 9.2369 9.04297 10.0423C9.04297 10.8477 9.69589 11.5007 10.5013 11.5007Z" fill="#EC4242"/>
<path fill-rule="evenodd" clip-rule="evenodd" d="M10.5013 9.58398C10.2482 9.58398 10.043 9.78919 10.043 10.0423C10.043 10.2954 10.2482 10.5007 10.5013 10.5007C10.7544 10.5007 10.9596 10.2954 10.9596 10.0423C10.9596 9.78919 10.7544 9.58398 10.5013 9.58398ZM8.04297 10.0423C8.04297 8.68462 9.1436 7.58398 10.5013 7.58398C11.859 7.58398 12.9596 8.68462 12.9596 10.0423C12.9596 11.4 11.859 12.5007 10.5013 12.5007C9.1436 12.5007 8.04297 11.4 8.04297 10.0423Z" fill="#EC4242"/>
</svg>
