<svg width="21" height="21" viewBox="0 0 21 21" fill="none" xmlns="http://www.w3.org/2000/svg">
<path d="M15.2601 20.9166C15.5368 20.9182 15.811 20.8646 16.0667 20.7591C16.3225 20.6536 16.5547 20.4982 16.7497 20.302L19.5726 17.4791C19.7666 17.2839 19.8755 17.0199 19.8755 16.7447C19.8755 16.4695 19.7666 16.2055 19.5726 16.0103L15.406 11.8437C15.2108 11.6496 14.9468 11.5407 14.6716 11.5407C14.3964 11.5407 14.1324 11.6496 13.9372 11.8437L12.2705 13.4999C11.1166 13.1922 10.0479 12.6258 9.14554 11.8437C8.36546 10.9398 7.79932 9.87163 7.48929 8.71865L9.14554 7.05199C9.33955 6.85682 9.44845 6.59281 9.44845 6.31761C9.44845 6.04242 9.33955 5.77841 9.14554 5.58324L4.97888 1.41657C4.78371 1.22256 4.51969 1.11366 4.2445 1.11366C3.96931 1.11366 3.70529 1.22256 3.51013 1.41657L0.697626 4.2499C0.501409 4.44495 0.346006 4.67712 0.240487 4.93287C0.134967 5.18862 0.0814445 5.46283 0.0830426 5.73949C0.177546 9.74187 1.77687 13.5617 4.56221 16.4374C7.43796 19.2227 11.2577 20.8221 15.2601 20.9166V20.9166ZM4.24971 3.63532L6.94763 6.33324L5.60388 7.67699C5.47661 7.7962 5.3813 7.94546 5.3267 8.11108C5.2721 8.2767 5.25996 8.45337 5.29138 8.6249C5.68072 10.3649 6.50503 11.9777 7.68721 13.3124C9.02092 14.4961 10.6341 15.3206 12.3747 15.7082C12.5436 15.7436 12.7187 15.7363 12.8842 15.6872C13.0496 15.6382 13.2003 15.5487 13.3226 15.427L14.6664 14.052L17.3643 16.7499L15.281 18.8332C11.8265 18.7443 8.53044 17.3657 6.04138 14.9687C3.63816 12.4786 2.25555 9.17814 2.16638 5.71865L4.24971 3.63532ZM18.833 9.45824H20.9164C20.9434 8.21969 20.7194 6.9885 20.2578 5.83887C19.7962 4.68923 19.1066 3.64495 18.2306 2.76896C17.3547 1.89297 16.3104 1.20341 15.1607 0.741833C14.0111 0.280258 12.7799 0.0562248 11.5414 0.0832366V2.16657C12.5079 2.13313 13.4711 2.29887 14.3708 2.65348C15.2706 3.00809 16.0879 3.54399 16.7717 4.22786C17.4556 4.91174 17.9915 5.72897 18.3461 6.62876C18.7007 7.52855 18.8665 8.49167 18.833 9.45824Z" fill="#EC4242"/>
<path d="M11.542 6.33333C13.7295 6.33333 14.667 7.27083 14.667 9.45833H16.7503C16.7503 6.10417 14.8962 4.25 11.542 4.25V6.33333Z" fill="#EC4242"/>
</svg>
