<svg width="23" height="23" viewBox="0 0 23 23" fill="none" xmlns="http://www.w3.org/2000/svg">
<path fill-rule="evenodd" clip-rule="evenodd" d="M11.4997 2.08325C6.29899 2.08325 2.08301 6.29924 2.08301 11.4999C2.08301 16.7006 6.29899 20.9166 11.4997 20.9166C16.7004 20.9166 20.9163 16.7006 20.9163 11.4999C20.9163 6.29924 16.7004 2.08325 11.4997 2.08325ZM0.0830078 11.4999C0.0830078 5.19467 5.19442 0.083252 11.4997 0.083252C17.8049 0.083252 22.9163 5.19467 22.9163 11.4999C22.9163 17.8052 17.8049 22.9166 11.4997 22.9166C5.19442 22.9166 0.0830078 17.8052 0.0830078 11.4999Z" fill="#EC4242"/>
<path fill-rule="evenodd" clip-rule="evenodd" d="M11.5 4.25C12.0523 4.25 12.5 4.69772 12.5 5.25V11.679C12.5 11.679 12.5 11.6789 12.5 11.679C12.5001 11.9662 12.6143 12.2418 12.8174 12.4449L15.3321 14.9596C15.7226 15.3501 15.7226 15.9832 15.3321 16.3738C14.9416 16.7643 14.3084 16.7643 13.9179 16.3738L11.4034 13.8593C11.4034 13.8593 11.4035 13.8593 11.4034 13.8593C10.8252 13.2812 10.5002 12.497 10.5 11.6794V5.25C10.5 4.69772 10.9477 4.25 11.5 4.25Z" fill="#EC4242"/>
</svg>
