<svg width="96" height="88" viewBox="0 0 96 88" fill="none" xmlns="http://www.w3.org/2000/svg">
<g clip-path="url(#clip0_2_552)">
<mask id="mask0_2_552" style="mask-type:luminance" maskUnits="userSpaceOnUse" x="0" y="0" width="96" height="89">
<path d="M96 0H0V88.1062H96V0Z" fill="white"/>
</mask>
<g mask="url(#mask0_2_552)">
<path d="M16.8538 63.1216L16.9345 63.1935V63.6327L16.8627 63.6957C16.2061 63.7136 15.7983 63.7462 15.6404 63.7938C15.4819 63.8419 15.3697 63.921 15.3044 64.0315C15.2385 64.1427 15.2011 64.359 15.1922 64.6817C15.1833 65.0051 15.1667 65.9168 15.143 67.4175V71.5523C15.143 72.1496 15.1519 72.8254 15.1697 73.579C15.1875 74.332 15.2249 74.7707 15.2819 74.8931C15.3383 75.0155 15.4415 75.1053 15.5911 75.1617C15.7401 75.2188 16.164 75.2562 16.8627 75.2741L16.9345 75.3371V75.7763L16.8538 75.8482C15.8802 75.7941 15.0325 75.7674 14.3095 75.7674C13.8204 75.7674 12.9869 75.7941 11.8104 75.8482L11.7303 75.7763V75.3454L11.8015 75.2741C12.4586 75.2562 12.8664 75.2229 13.0243 75.1754C13.1822 75.1279 13.2944 75.0482 13.3603 74.9377C13.4262 74.8271 13.4648 74.6072 13.4767 74.2785C13.4886 73.9499 13.5034 73.0405 13.5218 71.5523V64.9688L10.4314 71.4441C9.65498 73.0649 8.97708 74.5894 8.39771 76.0182H8.04866C7.71386 75.2473 7.43961 74.6316 7.22413 74.171L2.94239 65.2648V71.5339C2.94239 72.1199 2.9501 72.7939 2.96494 73.5564C2.97978 74.319 3.01718 74.76 3.07654 74.8794C3.1365 74.9989 3.24098 75.0886 3.39057 75.1487C3.53956 75.2081 3.964 75.2437 4.66209 75.2562L4.73392 75.3281V75.7584L4.65318 75.8387L4.08035 75.8125C3.48911 75.7822 2.98097 75.7674 2.55713 75.7674C2.36599 75.7674 1.65246 75.7911 0.416554 75.8387L0.344727 75.7674V75.3371L0.416554 75.2562C1.07309 75.2437 1.47972 75.2146 1.63465 75.1665C1.79018 75.1189 1.90178 75.0381 1.97064 74.924C2.0389 74.8105 2.07808 74.5983 2.08699 74.2875C2.09589 73.9766 2.10954 73.059 2.12735 71.5339V67.4264C2.12735 66.8826 2.11964 66.2199 2.1048 65.4395C2.08995 64.6597 2.05434 64.208 1.99735 64.0856C1.94036 63.9632 1.83767 63.8716 1.68867 63.8122C1.53908 63.7528 1.11524 63.7165 0.416554 63.704L0.344727 63.6327V63.2024L0.425459 63.1216C0.837427 63.1513 1.39305 63.1662 2.09174 63.1662C2.74827 63.1662 3.32171 63.1513 3.81144 63.1216C4.31304 64.2817 4.79387 65.3307 5.25333 66.2692L8.64881 73.2474L11.7119 66.8523C12.5423 65.1245 13.1003 63.8806 13.387 63.1216C13.9605 63.1513 14.525 63.1662 15.08 63.1662C15.5816 63.1662 16.1735 63.1513 16.8538 63.1216Z" fill="white"/>
<path d="M27.0121 71.2469C27.0121 71.9999 26.891 72.6792 26.6488 73.2825C26.4072 73.8869 26.0582 74.4052 25.6011 74.8385C25.144 75.2723 24.6727 75.5772 24.1859 75.7537C23.6992 75.9297 23.1275 76.0182 22.4704 76.0182C21.0012 76.0182 19.8828 75.5968 19.1159 74.7535C18.3483 73.9107 17.9648 72.8581 17.9648 71.5963C17.9648 70.7298 18.1495 69.9583 18.5199 69.2826C18.8903 68.6068 19.4263 68.0897 20.128 67.7313C20.8296 67.3724 21.6524 67.1929 22.5956 67.1929C23.5151 67.1929 24.3005 67.3652 24.9517 67.7088C25.6023 68.0523 26.1086 68.5367 26.4702 69.1619C26.8311 69.7866 27.0121 70.4814 27.0121 71.2469ZM25.2829 71.7758C25.2829 70.58 25.0366 69.6207 24.5439 68.8968C24.0512 68.1735 23.3299 67.8122 22.3807 67.8122C21.5865 67.8122 20.9389 68.0915 20.4367 68.6502C19.9351 69.2095 19.6845 70.054 19.6845 71.1839C19.6845 72.344 19.9368 73.3443 20.4414 74.1841C20.946 75.0239 21.6732 75.4441 22.6229 75.4441C23.4528 75.4441 24.1034 75.1107 24.5753 74.4444C25.0473 73.7776 25.2829 72.8884 25.2829 71.7758Z" fill="white"/>
<path d="M35.3966 74.8073L35.038 75.4082C34.2681 75.8326 33.408 76.0453 32.4582 76.0453C31.1445 76.0453 30.1294 75.6537 29.4129 74.8703C28.6964 74.087 28.3379 73.0766 28.3379 71.8386C28.3379 71.277 28.399 70.7759 28.5213 70.3367C28.6442 69.8969 28.7991 69.5338 28.9873 69.2467C29.1755 68.9596 29.3832 68.7326 29.61 68.5656C29.8368 68.398 30.2202 68.165 30.761 67.8654C31.3012 67.5665 31.709 67.371 31.9833 67.2782C32.2581 67.1855 32.638 67.1392 33.1212 67.1392C34.0473 67.1392 34.8053 67.3157 35.3966 67.6681C35.2832 68.3439 35.1965 69.0975 35.1372 69.9284L35.0564 70.0003H34.689L34.6082 69.9195C34.5845 69.4173 34.5513 69.0797 34.5097 68.9061C34.4682 68.7326 34.2307 68.5471 33.798 68.3498C33.3646 68.1525 32.9034 68.0538 32.4137 68.0538C31.9239 68.0538 31.4882 68.1573 31.1059 68.3635C30.7236 68.5697 30.4357 68.9073 30.2416 69.3769C30.0475 69.8464 29.9501 70.4068 29.9501 71.0582C29.9501 71.6086 30.0279 72.1453 30.1834 72.6683C30.3384 73.1919 30.5432 73.6252 30.7966 73.9687C31.0507 74.3128 31.3867 74.5892 31.8046 74.7984C32.2225 75.0076 32.6885 75.1122 33.202 75.1122C33.5243 75.1122 33.8395 75.0706 34.147 74.9868C34.4545 74.903 34.8083 74.7657 35.2084 74.5744L35.3966 74.8073Z" fill="white"/>
<path d="M36.2207 75.7673V75.3191L36.2925 75.265C36.8179 75.2472 37.1835 75.2205 37.3895 75.1842C37.5955 75.1485 37.7315 75.0915 37.7973 75.0136C37.8632 74.9364 37.9078 74.8092 37.9315 74.6327C37.9552 74.4561 37.9736 74.011 37.9855 73.2966C37.9974 72.5822 38.0033 71.9974 38.0033 71.5433V67.3906C38.0033 66.7689 37.9956 66.108 37.9808 65.4085C37.9659 64.709 37.9422 64.2947 37.9095 64.1663C37.8763 64.0379 37.8282 63.9452 37.7659 63.8882C37.7036 63.8311 37.5777 63.7853 37.3895 63.7491C37.2014 63.7134 36.8357 63.6867 36.2925 63.6689L36.2207 63.6059V63.1571L36.2925 63.0947C36.3222 63.0947 36.7134 63.1066 37.4661 63.1304C38.1761 63.1542 38.648 63.166 38.8813 63.166C39.0243 63.166 39.8726 63.1423 41.4255 63.0947L41.4968 63.1571V63.6059L41.4255 63.6689C40.8996 63.6867 40.5339 63.7134 40.3279 63.7491C40.1219 63.7853 39.986 63.8406 39.9201 63.9155C39.8548 63.9904 39.8097 64.114 39.786 64.2876C39.7622 64.4611 39.7444 64.9152 39.7325 65.651C39.7201 66.3862 39.7141 66.9663 39.7141 67.3906V74.2784L39.8483 74.3414C41.1085 72.5233 42.5362 70.3593 44.1306 67.8477C45.7251 65.3366 46.701 63.7527 47.0595 63.0947C47.6864 63.1423 48.2687 63.166 48.8065 63.166C49.4156 63.166 49.9949 63.1423 50.544 63.0947L50.6159 63.1571V63.6059L50.544 63.6689C49.9587 63.6867 49.5782 63.7152 49.4019 63.7539C49.2256 63.7931 49.1075 63.8424 49.0481 63.9018C48.9882 63.9619 48.9437 64.0635 48.914 64.2067C48.8837 64.3506 48.8629 64.8017 48.851 65.5612C48.8392 66.3202 48.8332 66.93 48.8332 67.3906V71.5433C48.8332 72.0336 48.8392 72.6268 48.851 73.3233C48.8629 74.0199 48.8807 74.4579 48.9051 74.6374C48.9288 74.8163 48.9763 74.9435 49.0481 75.0184C49.12 75.0933 49.2618 75.1485 49.4738 75.1842C49.6857 75.2205 50.0424 75.2442 50.544 75.2561L50.6159 75.3191V75.7673L50.544 75.8392C50.5144 75.8392 50.1232 75.8273 49.3705 75.8035C48.6777 75.7791 48.2058 75.7673 47.9553 75.7673C47.7944 75.7673 46.9461 75.791 45.411 75.8392L45.3398 75.7673V75.3191L45.411 75.2561C45.937 75.2442 46.3027 75.2187 46.5086 75.18C46.7146 75.1408 46.8506 75.0855 46.9165 75.0136C46.9818 74.9423 47.0269 74.8181 47.0506 74.6416C47.0744 74.4656 47.0922 74.011 47.104 73.2787C47.1159 72.5459 47.1224 71.9676 47.1224 71.5433L47.1313 64.8522L46.9521 64.7898C46.4327 65.5494 45.2258 67.3758 43.3328 70.2696L39.7325 75.8392C39.2244 75.791 38.6361 75.7673 37.9677 75.7673C37.5017 75.7673 36.9431 75.791 36.2925 75.8392L36.2207 75.7673Z" fill="white"/>
<path d="M54.1539 71.0944C55.2526 71.1182 56.0107 71.1301 56.4292 71.1301C56.913 71.1301 57.6621 71.1182 58.6778 71.0944V70.8519C58.6778 70.4097 58.6713 69.8956 58.6594 69.3096C58.6475 68.7236 58.6101 68.3723 58.5478 68.2559C58.4849 68.1394 58.4041 68.0615 58.3056 68.0229C58.2071 67.9836 57.937 67.9462 57.4947 67.9105L57.4235 67.8386V67.4618L57.4947 67.3994C58.0919 67.447 58.7223 67.4707 59.3854 67.4707C60.0775 67.4707 60.708 67.447 61.2755 67.3994L61.3467 67.4618V67.8386L61.2755 67.9105C60.8273 67.9522 60.5542 67.9926 60.4557 68.0318C60.3571 68.0704 60.2776 68.1483 60.2182 68.2648C60.1583 68.3813 60.1227 68.6713 60.1108 69.1349C60.0989 69.5979 60.093 70.1708 60.093 70.8519V72.377L60.1108 73.9461C60.1227 74.5261 60.1601 74.8732 60.223 74.9868C60.2853 75.1003 60.3672 75.1752 60.4693 75.2108C60.5708 75.2471 60.8391 75.2857 61.2755 75.3279L61.3467 75.3903V75.7671L61.2755 75.8385C60.6783 75.7909 60.0479 75.7671 59.3854 75.7671C58.6926 75.7671 58.0622 75.7909 57.4947 75.8385L57.4235 75.7671V75.3903L57.4947 75.3279C57.9429 75.2857 58.216 75.2453 58.3145 75.2061C58.413 75.168 58.4926 75.0914 58.552 74.9778C58.6119 74.8643 58.6475 74.5874 58.6594 74.1482C58.6713 73.7083 58.6778 73.1182 58.6778 72.377V71.6596C58.0147 71.6412 57.265 71.6323 56.4292 71.6323C55.6705 71.6323 54.9119 71.6412 54.1539 71.6596V72.377C54.1539 72.8495 54.1598 73.3737 54.1717 73.9508C54.1835 74.5279 54.2209 74.8732 54.2839 74.9868C54.3462 75.1003 54.4281 75.1752 54.5302 75.2108C54.6317 75.2471 54.9 75.2857 55.3363 75.3279L55.4082 75.3903V75.7671L55.3363 75.8385C54.7392 75.7909 54.1093 75.7671 53.4463 75.7671C52.7476 75.7671 52.1172 75.7909 51.5562 75.8385L51.4844 75.7671V75.3903L51.5562 75.3279C52.0038 75.2857 52.2757 75.2453 52.3712 75.2061C52.4668 75.168 52.5464 75.0914 52.6087 74.9778C52.671 74.8643 52.7084 74.5891 52.7203 74.1529C52.7322 73.7161 52.7387 73.1247 52.7387 72.377V70.8519C52.7387 70.386 52.7322 69.8641 52.7203 69.287C52.7084 68.7099 52.6698 68.3652 52.6045 68.2511C52.5386 68.1376 52.4567 68.0615 52.3582 68.0229C52.2596 67.9837 51.9919 67.9462 51.5562 67.9105L51.4844 67.8386V67.4618L51.5562 67.3994C52.1474 67.447 52.7773 67.4707 53.4463 67.4707C54.139 67.4707 54.7688 67.447 55.3363 67.3994L55.4082 67.4618V67.8386L55.3363 67.9105C54.8882 67.9522 54.6151 67.9914 54.5166 68.027C54.418 68.0627 54.3391 68.1394 54.2791 68.2559C54.2197 68.3723 54.1835 68.6475 54.1717 69.0808C54.1598 69.5147 54.1539 70.1049 54.1539 70.8519V71.0944Z" fill="white"/>
<path d="M62.3145 75.7666V75.3904L62.3863 75.3274C62.8339 75.2858 63.1057 75.2454 63.2013 75.2062C63.2969 75.1675 63.3758 75.0915 63.4388 74.9774C63.5011 74.8638 63.5385 74.5887 63.5504 74.1524C63.5622 73.7162 63.5688 73.1242 63.5688 72.3765V70.852C63.5688 70.3855 63.5622 69.8642 63.5504 69.2871C63.5385 68.71 63.4999 68.3647 63.434 68.2512C63.3681 68.1377 63.2862 68.061 63.1877 68.0224C63.0891 67.9838 62.822 67.9463 62.3863 67.9107L62.3145 67.8381V67.4619L62.3863 67.3989C63.2043 67.4471 63.8252 67.4708 64.2496 67.4708C64.4521 67.4708 64.7364 67.4649 65.1003 67.453C66.1456 67.4233 66.8621 67.4078 67.2504 67.4078C67.9372 67.4078 68.4417 67.5606 68.7641 67.8655C69.0864 68.1704 69.2479 68.5531 69.2479 69.0137C69.2479 69.9938 68.5818 70.6636 67.2504 71.0226C68.0743 71.0702 68.6833 71.2752 69.0775 71.6366C69.4717 71.9985 69.6687 72.4692 69.6687 73.0493C69.6687 73.7607 69.3987 74.4003 68.8579 74.9684C68.3177 75.5366 67.4504 75.8207 66.2561 75.8207C66.1718 75.8207 65.9961 75.8148 65.7271 75.8029C65.2315 75.7785 64.8373 75.7666 64.5447 75.7666C63.8222 75.7904 63.1028 75.8148 62.3863 75.8386L62.3145 75.7666ZM64.9839 70.915C65.2226 70.9269 65.4137 70.9329 65.5574 70.9329C66.3872 70.9329 66.9678 70.7968 67.2996 70.5246C67.6309 70.2524 67.7965 69.8773 67.7965 69.3989C67.7965 68.9805 67.6635 68.6352 67.3976 68.3629C67.1322 68.0913 66.6621 67.9552 65.9871 67.9552C65.6886 67.9552 65.3751 67.9701 65.0463 67.9998L64.9839 70.915ZM64.9839 71.4529L65.0463 75.1925C65.3449 75.2347 65.6737 75.2555 66.0323 75.2555C66.5517 75.2555 66.9648 75.1539 67.2723 74.9506C67.5804 74.7473 67.7995 74.4989 67.9306 74.2065C68.0624 73.9135 68.1277 73.5961 68.1277 73.2556C68.1277 72.8609 68.0387 72.5144 67.8594 72.2155C67.6801 71.9165 67.4189 71.7103 67.0752 71.5962C66.7321 71.4826 66.2584 71.4262 65.6559 71.4262C65.5004 71.4262 65.2766 71.4351 64.9839 71.4529Z" fill="white"/>
<path d="M78.3397 74.4491L78.053 75.0945C77.432 75.4957 76.8776 75.7554 76.3914 75.8749C75.9041 75.9944 75.4701 76.0544 75.0878 76.0544C74.3714 76.0544 73.6917 75.9141 73.05 75.633C72.4077 75.3519 71.8853 74.8764 71.4822 74.2072C71.0792 73.5374 70.8779 72.7302 70.8779 71.7852C70.8779 71.1576 70.9551 70.5912 71.1106 70.086C71.2656 69.5802 71.4288 69.2058 71.5986 68.9603C71.7689 68.7149 72.0568 68.4433 72.4629 68.1437C72.8695 67.8454 73.2993 67.6058 73.7528 67.4264C74.2069 67.2475 74.6967 67.1577 75.222 67.1577C75.9385 67.1577 76.5701 67.3265 77.1168 67.6641C77.6629 68.0023 78.047 68.4344 78.2678 68.9603C78.4887 69.4863 78.5991 70.0456 78.5991 70.6376C78.5991 70.8224 78.5902 71.0025 78.5724 71.1755L78.4738 71.2741C78.0678 71.3639 77.5211 71.4239 76.8349 71.4536C76.1474 71.4833 75.6939 71.4982 75.4731 71.4982H72.5976C72.6095 72.7362 72.92 73.6479 73.529 74.2339C74.1381 74.8199 74.8848 75.113 75.7687 75.113C76.1866 75.113 76.5885 75.041 76.9738 74.8972C77.3584 74.754 77.7662 74.5537 78.196 74.2969L78.3397 74.4491ZM72.5976 70.7808C72.7051 70.7986 73.1182 70.8194 73.8383 70.8432C74.5577 70.8676 75.0908 70.8795 75.4375 70.8795C76.2674 70.8795 76.7719 70.8646 76.9506 70.8349C76.9571 70.6911 76.9601 70.5805 76.9601 70.5027C76.9601 69.5761 76.7719 68.8866 76.3956 68.4355C76.0192 67.9838 75.5058 67.7586 74.8551 67.7586C74.144 67.7586 73.5902 68.0124 73.193 68.5205C72.7959 69.0293 72.5976 69.7823 72.5976 70.7808Z" fill="white"/>
<path d="M86.9835 74.8078L86.6249 75.4087C85.855 75.8331 84.9949 76.0458 84.0451 76.0458C82.7314 76.0458 81.7163 75.6542 80.9998 74.8708C80.2834 74.0875 79.9248 73.0771 79.9248 71.8391C79.9248 71.2774 79.9859 70.7764 80.1082 70.3372C80.2311 69.8974 80.386 69.5342 80.5742 69.2472C80.7624 68.9601 80.9702 68.7331 81.1969 68.5661C81.4237 68.3985 81.8072 68.1655 82.3479 67.8659C82.8881 67.567 83.2959 67.3714 83.5702 67.2787C83.845 67.186 84.225 67.1396 84.7082 67.1396C85.6342 67.1396 86.3922 67.3162 86.9835 67.6686C86.8701 68.3444 86.7834 69.098 86.7241 69.9289L86.6433 70.0008H86.2759L86.1952 69.92C86.1714 69.4178 86.1382 69.0802 86.0966 68.9066C86.0551 68.7331 85.8176 68.5476 85.3849 68.3503C84.9515 68.153 84.4903 68.0543 84.0006 68.0543C83.5108 68.0543 83.0751 68.1578 82.6928 68.364C82.3105 68.5702 82.0226 68.9078 81.8285 69.3773C81.6344 69.8469 81.5371 70.4073 81.5371 71.0587C81.5371 71.6091 81.6148 72.1458 81.7703 72.6688C81.9253 73.1924 82.1301 73.6257 82.3836 73.9692C82.6376 74.3133 82.9736 74.5897 83.3915 74.7989C83.8094 75.0081 84.2754 75.1127 84.7889 75.1127C85.1112 75.1127 85.4264 75.0711 85.7339 74.9873C86.0414 74.9035 86.3952 74.7662 86.7953 74.5748L86.9835 74.8078Z" fill="white"/>
<path d="M87.6914 67.4618L87.7632 67.3994C88.9279 67.4588 90.2327 67.4886 91.6775 67.4886C93.1467 67.4886 94.4515 67.4588 95.5924 67.3994L95.6547 67.4618C95.6191 68.2511 95.6013 68.918 95.6013 69.4618L95.5473 69.5159H95.1888L95.1353 69.4618C95.0576 68.8163 94.9952 68.4354 94.9472 68.3183C94.8997 68.2018 94.832 68.1257 94.7459 68.09C94.6593 68.0538 94.4907 68.036 94.2396 68.036H92.4213L92.3851 70.3319V72.377C92.3851 72.8192 92.3911 73.3351 92.4029 73.9241C92.4154 74.5131 92.451 74.8643 92.511 74.9778C92.5703 75.0914 92.6511 75.1674 92.7526 75.2061C92.8541 75.2453 93.126 75.2857 93.5676 75.3273L93.6394 75.3903V75.7671L93.5676 75.8385C92.9704 75.7909 92.3406 75.7671 91.6775 75.7671C90.9848 75.7671 90.355 75.7909 89.7875 75.8385L89.7162 75.7671V75.3903L89.7875 75.3273C90.2356 75.2857 90.5087 75.2453 90.6072 75.2061C90.7058 75.1674 90.7847 75.0896 90.8447 74.9731C90.904 74.8566 90.9403 74.5666 90.9521 74.103C90.964 73.64 90.9699 73.0647 90.9699 72.377V70.3592C90.9521 69.5818 90.9373 68.8074 90.9254 68.036H89.1066C88.8501 68.036 88.6786 68.0556 88.5919 68.0942C88.5052 68.1328 88.4394 68.2172 88.3948 68.3456C88.3497 68.474 88.2886 68.846 88.2108 69.4618L88.1574 69.5159H87.8078L87.7454 69.4618C87.7454 69.2229 87.7276 68.556 87.6914 67.4618Z" fill="white"/>
<path d="M18.9609 82.9717H19.3557V84.8551H22.2383V82.9717H22.633V87.2248H22.2383V85.2498H19.3557V87.2248H18.9609V82.9717Z" fill="white"/>
<path d="M23.9102 82.9717H27.1572V83.2451L27.0355 83.3669H24.3049V84.8551H26.5197V85.2498H24.3049V86.8301H27.1572V87.2248H23.9102V82.9717Z" fill="white"/>
<path d="M27.4014 86.8301H27.6744C27.7534 86.7873 27.8323 86.7327 27.9053 86.6661C28.0264 86.5508 28.1481 86.3624 28.1903 86.0706L28.5548 82.9717H31.5585V86.8301H32.1354V88.1062H31.7407V87.2254H27.7961V88.1062H27.4014V86.8301ZM31.1643 86.8301V83.3669H28.9186L28.585 86.0706C28.5423 86.3624 28.4515 86.5383 28.3725 86.6542C28.3238 86.7208 28.2752 86.7695 28.2211 86.7998V86.8301H31.1643Z" fill="white"/>
<path d="M32.957 82.9717H35.506C36.0883 82.9717 36.4766 83.361 36.4766 83.944V84.1871C36.4766 84.5271 36.3436 84.7155 36.2041 84.8314C36.1252 84.8979 36.0337 84.9467 35.931 84.977V85.0073C36.0462 85.0376 36.143 85.0863 36.2344 85.1588C36.3858 85.2807 36.5377 85.4935 36.5377 85.8578V86.253C36.5377 86.8361 36.1495 87.2254 35.5666 87.2254H32.957V82.9717ZM35.4757 84.8248C35.8824 84.8248 36.0824 84.6245 36.0824 84.2174V83.9743C36.0824 83.5672 35.8824 83.3669 35.4757 83.3669H33.3512V84.8248H35.4757ZM35.5363 86.8301C35.9429 86.8301 36.143 86.6298 36.143 86.2227V85.8275C36.143 85.4204 35.9429 85.2201 35.5363 85.2201H33.3512V86.8301H35.5363Z" fill="white"/>
<path d="M37.6328 82.9717H38.0276V86.6174H38.0578L40.9404 82.9717H41.3655V87.2248H40.9707V83.5791H40.9404L38.0578 87.2248H37.6328V82.9717Z" fill="white"/>
<path d="M42.2178 87.0125L43.7956 85.0375L42.2783 83.1849V82.9722H42.6125L44.1292 84.8556H45.3432V82.9722H45.7379V84.8556H46.9513L48.4685 82.9722H48.8021V83.1849L47.2855 85.0375L48.8627 87.0125V87.2253H48.5291L46.9513 85.2503H45.7379V87.2253H45.3432V85.2503H44.1292L42.5514 87.2253H42.2178V87.0125Z" fill="white"/>
<path d="M49.7158 82.9717H50.1106V86.6174H50.1408L53.0234 82.9717H53.4485V87.2248H53.0537V83.5791H53.0234L50.1408 87.2248H49.7158V82.9717Z" fill="white"/>
<path d="M54.4521 87.0125L55.0285 82.9722H55.4233L57.0011 86.1014H57.0314L58.6092 82.9722H59.0034L59.5804 87.0125V87.2253H59.1856L58.7006 83.7008H58.6698L57.2136 86.6173H56.8189L55.3628 83.7008H55.3319L54.8469 87.2253H54.4521V87.0125Z" fill="white"/>
<path d="M60.3418 83.8829C60.3418 83.2998 60.7306 82.9111 61.313 82.9111H63.1638C63.7468 82.9111 64.135 83.2998 64.135 83.8829V86.3137C64.135 86.8968 63.7468 87.2861 63.1638 87.2861H61.313C60.7306 87.2861 60.3418 86.8968 60.3418 86.3137V83.8829ZM63.1336 86.8908C63.5402 86.8908 63.7402 86.6905 63.7402 86.2834V83.9138C63.7402 83.5067 63.5402 83.3058 63.1336 83.3058H61.3432C60.9366 83.3058 60.7366 83.5067 60.7366 83.9138V86.2834C60.7366 86.6905 60.9366 86.8908 61.3432 86.8908H63.1336Z" fill="white"/>
<path d="M65.1689 83.944C65.1689 83.361 65.5572 82.9717 66.1401 82.9717H68.5977V83.2451L68.4766 83.3669H66.1704C65.7637 83.3669 65.5637 83.5672 65.5637 83.9743V86.2221C65.5637 86.6298 65.7637 86.8301 66.1704 86.8301H68.5977V87.2254H66.1401C65.5572 87.2254 65.1689 86.8361 65.1689 86.253V83.944Z" fill="white"/>
<path d="M70.6638 83.3669H69.0254V82.9717H72.6969V83.2451L72.5752 83.3669H71.0585V87.2254H70.6638V83.3669Z" fill="white"/>
<path d="M73.457 82.9717H73.8512V84.552H76.0666C76.6495 84.552 77.0377 84.9407 77.0377 85.5238V86.253C77.0377 86.8361 76.6495 87.2254 76.0666 87.2254H73.457V82.9717ZM76.0363 86.8301C76.4429 86.8301 76.643 86.6298 76.643 86.2227V85.5541C76.643 85.147 76.4429 84.9467 76.0363 84.9467H73.8512V86.8301H76.0363Z" fill="white"/>
</g>
<mask id="mask1_2_552" style="mask-type:luminance" maskUnits="userSpaceOnUse" x="86" y="36" width="11" height="16">
<path d="M86.3809 36.3138L94.7247 51.5141C95.1515 51.2645 95.5765 50.9988 96.0004 50.7153L86.9602 36.2681C86.7697 36.2829 86.5767 36.2984 86.3809 36.3138Z" fill="white"/>
</mask>
<g mask="url(#mask1_2_552)">
<path d="M96.0004 36.2681H86.3809V51.5141H96.0004V36.2681Z" fill="url(#paint0_linear_2_552)"/>
</g>
<mask id="mask2_2_552" style="mask-type:luminance" maskUnits="userSpaceOnUse" x="81" y="36" width="12" height="18">
<path d="M81.5 36.693L90.6642 53.3886C91.1195 53.2299 91.5748 53.0552 92.0295 52.8632L81.893 36.6621C81.7618 36.6722 81.6312 36.6829 81.5 36.693Z" fill="white"/>
</mask>
<g mask="url(#mask2_2_552)">
<path d="M92.0295 36.6621H81.5V53.3886H92.0295V36.6621Z" fill="url(#paint1_linear_2_552)"/>
</g>
<mask id="mask3_2_552" style="mask-type:luminance" maskUnits="userSpaceOnUse" x="76" y="37" width="12" height="18">
<path d="M76.6201 37.0737L86.1767 54.4843C86.6409 54.4171 87.1075 54.3351 87.5771 54.2394L76.8267 37.0576C76.7578 37.063 76.6884 37.0683 76.6201 37.0737Z" fill="white"/>
</mask>
<g mask="url(#mask3_2_552)">
<path d="M87.5771 37.0576H76.6201V54.4843H87.5771V37.0576Z" fill="url(#paint2_linear_2_552)"/>
</g>
<mask id="mask4_2_552" style="mask-type:luminance" maskUnits="userSpaceOnUse" x="71" y="37" width="12" height="18">
<path d="M71.7393 37.4559L81.2217 54.7316C81.6704 54.75 82.1246 54.7571 82.584 54.7536L71.7594 37.4541C71.7529 37.4547 71.7464 37.4553 71.7393 37.4559Z" fill="white"/>
</mask>
<g mask="url(#mask4_2_552)">
<path d="M82.584 37.4541H71.7393V54.7571H82.584V37.4541Z" fill="url(#paint3_linear_2_552)"/>
</g>
<mask id="mask5_2_552" style="mask-type:luminance" maskUnits="userSpaceOnUse" x="68" y="40" width="9" height="15">
<path d="M75.7386 54.014C76.1357 54.1008 76.5435 54.1817 76.9591 54.2565L68.1035 40.1035L75.7386 54.014Z" fill="white"/>
</mask>
<g mask="url(#mask5_2_552)">
<path d="M76.9591 40.1035H68.1035V54.2565H76.9591V40.1035Z" fill="url(#paint4_linear_2_552)"/>
</g>
<mask id="mask6_2_552" style="mask-type:luminance" maskUnits="userSpaceOnUse" x="65" y="43" width="6" height="10">
<path d="M65.1191 43.9389L69.5843 52.0737C69.8722 52.1943 70.1809 52.3185 70.5121 52.4457L65.1346 43.8516C65.1292 43.8807 65.1245 43.9098 65.1191 43.9389Z" fill="white"/>
</mask>
<g mask="url(#mask6_2_552)">
<path d="M70.5121 43.8516H65.1191V52.4457H70.5121V43.8516Z" fill="url(#paint5_linear_2_552)"/>
</g>
<mask id="mask7_2_552" style="mask-type:luminance" maskUnits="userSpaceOnUse" x="66" y="1" width="27" height="42">
<path d="M89.0426 42.3312C90.1521 42.3633 91.2521 42.4304 92.3348 42.5291L66.4004 1.07861L89.0426 42.3312Z" fill="white"/>
</mask>
<g mask="url(#mask7_2_552)">
<path d="M92.3348 1.07861H66.4004V42.5291H92.3348V1.07861Z" fill="url(#paint6_linear_2_552)"/>
</g>
<mask id="mask8_2_552" style="mask-type:luminance" maskUnits="userSpaceOnUse" x="62" y="4" width="25" height="39">
<path d="M84.0137 42.439C84.9748 42.3664 85.9329 42.326 86.885 42.3147L62.9131 4L84.0137 42.439Z" fill="white"/>
</mask>
<g mask="url(#mask8_2_552)">
<path d="M86.885 4H62.9131V42.439H86.885V4Z" fill="url(#paint7_linear_2_552)"/>
</g>
<mask id="mask9_2_552" style="mask-type:luminance" maskUnits="userSpaceOnUse" x="59" y="6" width="23" height="38">
<path d="M79.2667 43.0668C80.1085 42.904 80.9508 42.7732 81.7926 42.6657L59.4287 6.92383L79.2667 43.0668Z" fill="white"/>
</mask>
<g mask="url(#mask9_2_552)">
<path d="M81.7925 6.92383H59.4287V43.0668H81.7925V6.92383Z" fill="url(#paint8_linear_2_552)"/>
</g>
<mask id="mask10_2_552" style="mask-type:luminance" maskUnits="userSpaceOnUse" x="55" y="9" width="23" height="36">
<path d="M74.7961 44.1921C75.5394 43.9567 76.2885 43.744 77.037 43.5579L55.9453 9.84814L74.7961 44.1921Z" fill="white"/>
</mask>
<g mask="url(#mask10_2_552)">
<path d="M77.037 9.84814H55.9453V44.1921H77.037V9.84814Z" fill="url(#paint9_linear_2_552)"/>
</g>
<mask id="mask11_2_552" style="mask-type:luminance" maskUnits="userSpaceOnUse" x="52" y="12" width="21" height="34">
<path d="M70.5947 45.8112C71.2595 45.5057 71.9303 45.224 72.6011 44.9655L52.4609 12.7725L70.5947 45.8112Z" fill="white"/>
</mask>
<g mask="url(#mask11_2_552)">
<path d="M72.6011 12.7725H52.4609V45.8112H72.6011V12.7725Z" fill="url(#paint10_linear_2_552)"/>
</g>
<mask id="mask12_2_552" style="mask-type:luminance" maskUnits="userSpaceOnUse" x="48" y="15" width="21" height="33">
<path d="M66.656 47.9069C66.8644 47.7851 67.0733 47.6656 67.2858 47.5408C67.6806 47.3084 68.0813 47.0844 68.4784 46.8692L48.9746 15.6973L66.656 47.9069Z" fill="white"/>
</mask>
<g mask="url(#mask12_2_552)">
<path d="M68.4784 15.6973H48.9746V47.9069H68.4784V15.6973Z" fill="url(#paint11_linear_2_552)"/>
</g>
<mask id="mask13_2_552" style="mask-type:luminance" maskUnits="userSpaceOnUse" x="45" y="18" width="20" height="32">
<path d="M62.6979 49.9702C63.3052 49.6861 63.9202 49.3836 64.5387 49.0638L45.4902 18.6211L62.6979 49.9702Z" fill="white"/>
</mask>
<g mask="url(#mask13_2_552)">
<path d="M64.5387 18.6211H45.4902V49.9702H64.5387V18.6211Z" fill="url(#paint12_linear_2_552)"/>
</g>
<mask id="mask14_2_552" style="mask-type:luminance" maskUnits="userSpaceOnUse" x="42" y="21" width="19" height="31">
<path d="M58.5527 51.6916C59.1682 51.4676 59.7898 51.2292 60.4196 50.9737L42.0068 21.5449L58.5527 51.6916Z" fill="white"/>
</mask>
<g mask="url(#mask14_2_552)">
<path d="M60.4196 21.5449H42.0068V51.6916H60.4196V21.5449Z" fill="url(#paint13_linear_2_552)"/>
</g>
<mask id="mask15_2_552" style="mask-type:luminance" maskUnits="userSpaceOnUse" x="38" y="24" width="19" height="30">
<path d="M54.1886 53.0111C54.8041 52.8602 55.4316 52.692 56.0644 52.5054L38.5225 24.4697L54.1886 53.0111Z" fill="white"/>
</mask>
<g mask="url(#mask15_2_552)">
<path d="M56.0644 24.4697H38.5225V53.0111H56.0644V24.4697Z" fill="url(#paint14_linear_2_552)"/>
</g>
<mask id="mask16_2_552" style="mask-type:luminance" maskUnits="userSpaceOnUse" x="35" y="27" width="17" height="27">
<path d="M35.3643 27.9897L49.5641 53.8595C50.1738 53.784 50.7947 53.6943 51.4275 53.5861L35.3904 27.9546C35.3815 27.9659 35.3726 27.9778 35.3643 27.9897Z" fill="white"/>
</mask>
<g mask="url(#mask16_2_552)">
<path d="M51.4275 27.9546H35.3643V53.8595H51.4275V27.9546Z" fill="url(#paint15_linear_2_552)"/>
</g>
<mask id="mask17_2_552" style="mask-type:luminance" maskUnits="userSpaceOnUse" x="32" y="32" width="15" height="23">
<path d="M32.5918 32.2072L44.6196 54.1247C45.2121 54.133 45.8187 54.1271 46.4373 54.1069L32.6642 32.0913C32.6381 32.1317 32.6149 32.1692 32.5918 32.2072Z" fill="white"/>
</mask>
<g mask="url(#mask17_2_552)">
<path d="M46.4373 32.0913H32.5918V54.133H46.4373V32.0913Z" fill="url(#paint16_linear_2_552)"/>
</g>
<mask id="mask18_2_552" style="mask-type:luminance" maskUnits="userSpaceOnUse" x="30" y="36" width="11" height="18">
<path d="M30.0078 36.771L39.2605 53.6331C39.8179 53.7294 40.3925 53.8132 40.9855 53.8833L30.1295 36.5327C30.0868 36.6135 30.0452 36.6926 30.0078 36.771Z" fill="white"/>
</mask>
<g mask="url(#mask18_2_552)">
<path d="M40.9855 36.5327H30.0078V53.8833H40.9855V36.5327Z" fill="url(#paint17_linear_2_552)"/>
</g>
<mask id="mask19_2_552" style="mask-type:luminance" maskUnits="userSpaceOnUse" x="27" y="41" width="8" height="12">
<path d="M27.8271 42.0758L33.2884 52.0257C33.7728 52.2058 34.2928 52.3894 34.8443 52.5642L27.9779 41.5879C27.9263 41.7537 27.8764 41.916 27.8271 42.0758Z" fill="white"/>
</mask>
<g mask="url(#mask19_2_552)">
<path d="M34.8443 41.5879H27.8271V52.5642H34.8443V41.5879Z" fill="url(#paint18_linear_2_552)"/>
</g>
<mask id="mask20_2_552" style="mask-type:luminance" maskUnits="userSpaceOnUse" x="29" y="0" width="27" height="42">
<path d="M52.0663 41.2769C53.2363 41.2912 54.3398 41.3667 55.3674 41.4826L29.4092 0L52.0663 41.2769Z" fill="white"/>
</mask>
<g mask="url(#mask20_2_552)">
<path d="M55.3674 0H29.4092V41.4826H55.3674V0Z" fill="url(#paint19_linear_2_552)"/>
</g>
<mask id="mask21_2_552" style="mask-type:luminance" maskUnits="userSpaceOnUse" x="26" y="4" width="24" height="38">
<path d="M47.1745 41.5468C48.1065 41.4309 49.0123 41.3548 49.8891 41.3114L26.7363 4.31372L47.1745 41.5468Z" fill="white"/>
</mask>
<g mask="url(#mask21_2_552)">
<path d="M49.8891 4.31372H26.7363V41.5468H49.8891V4.31372Z" fill="url(#paint20_linear_2_552)"/>
</g>
<mask id="mask22_2_552" style="mask-type:luminance" maskUnits="userSpaceOnUse" x="24" y="8" width="21" height="35">
<path d="M42.6082 42.4125C43.3834 42.2152 44.1439 42.047 44.8871 41.9073L24.0654 8.62427L42.6082 42.4125Z" fill="white"/>
</mask>
<g mask="url(#mask22_2_552)">
<path d="M44.8871 8.62427H24.0654V42.4125H44.8871V8.62427Z" fill="url(#paint21_linear_2_552)"/>
</g>
<mask id="mask23_2_552" style="mask-type:luminance" maskUnits="userSpaceOnUse" x="21" y="12" width="20" height="32">
<path d="M38.317 43.7789C38.9729 43.5293 39.6176 43.3022 40.2587 43.093L21.3906 12.938L38.317 43.7789Z" fill="white"/>
</mask>
<g mask="url(#mask23_2_552)">
<path d="M40.2587 12.938H21.3906V43.7789H40.2587V12.938Z" fill="url(#paint22_linear_2_552)"/>
</g>
<mask id="mask24_2_552" style="mask-type:luminance" maskUnits="userSpaceOnUse" x="18" y="17" width="18" height="29">
<path d="M34.2606 45.5753C34.8239 45.2901 35.3814 45.0226 35.9358 44.773L18.7168 17.2515L34.2606 45.5753Z" fill="white"/>
</mask>
<g mask="url(#mask24_2_552)">
<path d="M35.9358 17.2515H18.7168V45.5753H35.9358V17.2515Z" fill="url(#paint23_linear_2_552)"/>
</g>
<mask id="mask25_2_552" style="mask-type:luminance" maskUnits="userSpaceOnUse" x="16" y="21" width="16" height="27">
<path d="M30.3995 47.727C30.7919 47.5035 31.1867 47.2795 31.5844 47.0441C31.6829 46.9853 31.7791 46.9306 31.8771 46.8723L16.043 21.5659L30.3995 47.727Z" fill="white"/>
</mask>
<g mask="url(#mask25_2_552)">
<path d="M31.8771 21.5659H16.043V47.727H31.8771V21.5659Z" fill="url(#paint24_linear_2_552)"/>
</g>
<mask id="mask26_2_552" style="mask-type:luminance" maskUnits="userSpaceOnUse" x="13" y="25" width="15" height="25">
<path d="M26.4803 49.7671C26.9416 49.5466 27.4123 49.3172 27.8824 49.0759L13.3691 25.8794L26.4803 49.7671Z" fill="white"/>
</mask>
<g mask="url(#mask26_2_552)">
<path d="M27.8824 25.8794H13.3691V49.7671H27.8824V25.8794Z" fill="url(#paint25_linear_2_552)"/>
</g>
<mask id="mask27_2_552" style="mask-type:luminance" maskUnits="userSpaceOnUse" x="10" y="30" width="14" height="22">
<path d="M22.4008 51.5202C22.8336 51.3544 23.2722 51.1826 23.7127 50.9995L10.6953 30.1929L22.4008 51.5202Z" fill="white"/>
</mask>
<g mask="url(#mask27_2_552)">
<path d="M23.7127 30.1929H10.6953V51.5202H23.7127V30.1929Z" fill="url(#paint26_linear_2_552)"/>
</g>
<mask id="mask28_2_552" style="mask-type:luminance" maskUnits="userSpaceOnUse" x="8" y="34" width="12" height="19">
<path d="M18.1365 52.9356C18.5312 52.8256 18.9295 52.7091 19.3326 52.5843L8.02246 34.5039L18.1365 52.9356Z" fill="white"/>
</mask>
<g mask="url(#mask28_2_552)">
<path d="M19.3326 34.5039H8.02246V52.9356H19.3326V34.5039Z" fill="url(#paint27_linear_2_552)"/>
</g>
<mask id="mask29_2_552" style="mask-type:luminance" maskUnits="userSpaceOnUse" x="5" y="38" width="10" height="16">
<path d="M13.6476 53.941C13.9901 53.8833 14.3385 53.8221 14.6929 53.752L5.34766 38.8174L13.6476 53.941Z" fill="white"/>
</mask>
<g mask="url(#mask29_2_552)">
<path d="M14.6929 38.8174H5.34766V53.941H14.6929V38.8174Z" fill="url(#paint28_linear_2_552)"/>
</g>
<mask id="mask30_2_552" style="mask-type:luminance" maskUnits="userSpaceOnUse" x="2" y="43" width="8" height="12">
<path d="M8.86879 54.4144C9.14186 54.4091 9.42323 54.3978 9.71054 54.3799L2.67383 43.1309L8.86879 54.4144Z" fill="white"/>
</mask>
<g mask="url(#mask30_2_552)">
<path d="M9.71054 43.1309H2.67383V54.4144H9.71054V43.1309Z" fill="url(#paint29_linear_2_552)"/>
</g>
<mask id="mask31_2_552" style="mask-type:luminance" maskUnits="userSpaceOnUse" x="0" y="47" width="5" height="8">
<path d="M3.64658 54.0871C3.82347 54.1192 4.01224 54.1477 4.21229 54.1774L0 47.4453L3.64658 54.0871Z" fill="white"/>
</mask>
<g mask="url(#mask31_2_552)">
<path d="M4.21229 47.4453H0V54.1774H4.21229V47.4453Z" fill="url(#paint30_linear_2_552)"/>
</g>
</g>
<defs>
<linearGradient id="paint0_linear_2_552" x1="86.3809" y1="43.8911" x2="96.0004" y2="43.8911" gradientUnits="userSpaceOnUse">
<stop stop-color="#C56C68"/>
<stop offset="0.00156006" stop-color="#C56C68"/>
<stop offset="0.0575004" stop-color="#BF6763"/>
<stop offset="0.129946" stop-color="#AF5A56"/>
<stop offset="0.21114" stop-color="#944440"/>
<stop offset="0.245752" stop-color="#873936"/>
<stop offset="0.376344" stop-color="#C56C68"/>
<stop offset="0.708117" stop-color="#FBE5EC"/>
<stop offset="0.99844" stop-color="#E9B3BA"/>
<stop offset="1" stop-color="#E9B3BA"/>
</linearGradient>
<linearGradient id="paint1_linear_2_552" x1="81.5" y1="45.0254" x2="92.0295" y2="45.0254" gradientUnits="userSpaceOnUse">
<stop stop-color="#C56C68"/>
<stop offset="0.00156006" stop-color="#C56C68"/>
<stop offset="0.0575004" stop-color="#BF6763"/>
<stop offset="0.129946" stop-color="#AF5A56"/>
<stop offset="0.21114" stop-color="#944440"/>
<stop offset="0.245752" stop-color="#873936"/>
<stop offset="0.376344" stop-color="#C56C68"/>
<stop offset="0.708117" stop-color="#FBE5EC"/>
<stop offset="0.99844" stop-color="#E9B3BA"/>
<stop offset="1" stop-color="#E9B3BA"/>
</linearGradient>
<linearGradient id="paint2_linear_2_552" x1="76.6201" y1="45.7709" x2="87.5771" y2="45.7709" gradientUnits="userSpaceOnUse">
<stop stop-color="#C56C68"/>
<stop offset="0.00156006" stop-color="#C56C68"/>
<stop offset="0.0575004" stop-color="#BF6763"/>
<stop offset="0.129946" stop-color="#AF5A56"/>
<stop offset="0.21114" stop-color="#944440"/>
<stop offset="0.245752" stop-color="#873936"/>
<stop offset="0.376344" stop-color="#C56C68"/>
<stop offset="0.708117" stop-color="#FBE5EC"/>
<stop offset="0.99844" stop-color="#E9B3BA"/>
<stop offset="1" stop-color="#E9B3BA"/>
</linearGradient>
<linearGradient id="paint3_linear_2_552" x1="71.7393" y1="46.1056" x2="82.584" y2="46.1056" gradientUnits="userSpaceOnUse">
<stop stop-color="#C56C68"/>
<stop offset="0.00156006" stop-color="#C56C68"/>
<stop offset="0.0575004" stop-color="#BF6763"/>
<stop offset="0.129946" stop-color="#AF5A56"/>
<stop offset="0.21114" stop-color="#944440"/>
<stop offset="0.245752" stop-color="#873936"/>
<stop offset="0.376344" stop-color="#C56C68"/>
<stop offset="0.708117" stop-color="#FBE5EC"/>
<stop offset="0.99844" stop-color="#E9B3BA"/>
<stop offset="1" stop-color="#E9B3BA"/>
</linearGradient>
<linearGradient id="paint4_linear_2_552" x1="68.1035" y1="47.18" x2="76.9591" y2="47.18" gradientUnits="userSpaceOnUse">
<stop stop-color="#C56C68"/>
<stop offset="0.00156006" stop-color="#C56C68"/>
<stop offset="0.0575004" stop-color="#BF6763"/>
<stop offset="0.129946" stop-color="#AF5A56"/>
<stop offset="0.21114" stop-color="#944440"/>
<stop offset="0.245752" stop-color="#873936"/>
<stop offset="0.376344" stop-color="#C56C68"/>
<stop offset="0.708117" stop-color="#FBE5EC"/>
<stop offset="0.99844" stop-color="#E9B3BA"/>
<stop offset="1" stop-color="#E9B3BA"/>
</linearGradient>
<linearGradient id="paint5_linear_2_552" x1="65.1191" y1="48.1486" x2="70.5121" y2="48.1486" gradientUnits="userSpaceOnUse">
<stop stop-color="#C56C68"/>
<stop offset="0.00156006" stop-color="#C56C68"/>
<stop offset="0.0575004" stop-color="#BF6763"/>
<stop offset="0.129946" stop-color="#AF5A56"/>
<stop offset="0.21114" stop-color="#944440"/>
<stop offset="0.245752" stop-color="#873936"/>
<stop offset="0.376344" stop-color="#C56C68"/>
<stop offset="0.708117" stop-color="#FBE5EC"/>
<stop offset="0.99844" stop-color="#E9B3BA"/>
<stop offset="1" stop-color="#E9B3BA"/>
</linearGradient>
<linearGradient id="paint6_linear_2_552" x1="66.4004" y1="21.8039" x2="92.3348" y2="21.8039" gradientUnits="userSpaceOnUse">
<stop stop-color="#C56C68"/>
<stop offset="0.00156006" stop-color="#C56C68"/>
<stop offset="0.0575004" stop-color="#BF6763"/>
<stop offset="0.129946" stop-color="#AF5A56"/>
<stop offset="0.21114" stop-color="#944440"/>
<stop offset="0.245752" stop-color="#873936"/>
<stop offset="0.376344" stop-color="#C56C68"/>
<stop offset="0.708117" stop-color="#FBE5EC"/>
<stop offset="0.99844" stop-color="#E9B3BA"/>
<stop offset="1" stop-color="#E9B3BA"/>
</linearGradient>
<linearGradient id="paint7_linear_2_552" x1="62.9131" y1="23.2195" x2="86.885" y2="23.2195" gradientUnits="userSpaceOnUse">
<stop stop-color="#C56C68"/>
<stop offset="0.00156006" stop-color="#C56C68"/>
<stop offset="0.0575004" stop-color="#BF6763"/>
<stop offset="0.129946" stop-color="#AF5A56"/>
<stop offset="0.21114" stop-color="#944440"/>
<stop offset="0.245752" stop-color="#873936"/>
<stop offset="0.376344" stop-color="#C56C68"/>
<stop offset="0.708117" stop-color="#FBE5EC"/>
<stop offset="0.99844" stop-color="#E9B3BA"/>
<stop offset="1" stop-color="#E9B3BA"/>
</linearGradient>
<linearGradient id="paint8_linear_2_552" x1="59.4287" y1="24.9953" x2="81.7925" y2="24.9953" gradientUnits="userSpaceOnUse">
<stop stop-color="#C56C68"/>
<stop offset="0.00156006" stop-color="#C56C68"/>
<stop offset="0.0575004" stop-color="#BF6763"/>
<stop offset="0.129946" stop-color="#AF5A56"/>
<stop offset="0.21114" stop-color="#944440"/>
<stop offset="0.245752" stop-color="#873936"/>
<stop offset="0.376344" stop-color="#C56C68"/>
<stop offset="0.708117" stop-color="#FBE5EC"/>
<stop offset="0.99844" stop-color="#E9B3BA"/>
<stop offset="1" stop-color="#E9B3BA"/>
</linearGradient>
<linearGradient id="paint9_linear_2_552" x1="55.9453" y1="27.0201" x2="77.037" y2="27.0201" gradientUnits="userSpaceOnUse">
<stop stop-color="#C56C68"/>
<stop offset="0.00156006" stop-color="#C56C68"/>
<stop offset="0.0575004" stop-color="#BF6763"/>
<stop offset="0.129946" stop-color="#AF5A56"/>
<stop offset="0.21114" stop-color="#944440"/>
<stop offset="0.245752" stop-color="#873936"/>
<stop offset="0.376344" stop-color="#C56C68"/>
<stop offset="0.708117" stop-color="#FBE5EC"/>
<stop offset="0.99844" stop-color="#E9B3BA"/>
<stop offset="1" stop-color="#E9B3BA"/>
</linearGradient>
<linearGradient id="paint10_linear_2_552" x1="52.4609" y1="29.2919" x2="72.6011" y2="29.2919" gradientUnits="userSpaceOnUse">
<stop stop-color="#C56C68"/>
<stop offset="0.00156006" stop-color="#C56C68"/>
<stop offset="0.0575004" stop-color="#BF6763"/>
<stop offset="0.129946" stop-color="#AF5A56"/>
<stop offset="0.21114" stop-color="#944440"/>
<stop offset="0.245752" stop-color="#873936"/>
<stop offset="0.376344" stop-color="#C56C68"/>
<stop offset="0.708117" stop-color="#FBE5EC"/>
<stop offset="0.99844" stop-color="#E9B3BA"/>
<stop offset="1" stop-color="#E9B3BA"/>
</linearGradient>
<linearGradient id="paint11_linear_2_552" x1="48.9746" y1="31.8021" x2="68.4784" y2="31.8021" gradientUnits="userSpaceOnUse">
<stop stop-color="#C56C68"/>
<stop offset="0.00156006" stop-color="#C56C68"/>
<stop offset="0.0575004" stop-color="#BF6763"/>
<stop offset="0.129946" stop-color="#AF5A56"/>
<stop offset="0.21114" stop-color="#944440"/>
<stop offset="0.245752" stop-color="#873936"/>
<stop offset="0.376344" stop-color="#C56C68"/>
<stop offset="0.708117" stop-color="#FBE5EC"/>
<stop offset="0.99844" stop-color="#E9B3BA"/>
<stop offset="1" stop-color="#E9B3BA"/>
</linearGradient>
<linearGradient id="paint12_linear_2_552" x1="45.4902" y1="34.2956" x2="64.5387" y2="34.2956" gradientUnits="userSpaceOnUse">
<stop stop-color="#C56C68"/>
<stop offset="0.00156006" stop-color="#C56C68"/>
<stop offset="0.0575004" stop-color="#BF6763"/>
<stop offset="0.129946" stop-color="#AF5A56"/>
<stop offset="0.21114" stop-color="#944440"/>
<stop offset="0.245752" stop-color="#873936"/>
<stop offset="0.376344" stop-color="#C56C68"/>
<stop offset="0.708117" stop-color="#FBE5EC"/>
<stop offset="0.99844" stop-color="#E9B3BA"/>
<stop offset="1" stop-color="#E9B3BA"/>
</linearGradient>
<linearGradient id="paint13_linear_2_552" x1="42.0068" y1="36.6183" x2="60.4196" y2="36.6183" gradientUnits="userSpaceOnUse">
<stop stop-color="#C56C68"/>
<stop offset="0.00156006" stop-color="#C56C68"/>
<stop offset="0.0575004" stop-color="#BF6763"/>
<stop offset="0.129946" stop-color="#AF5A56"/>
<stop offset="0.21114" stop-color="#944440"/>
<stop offset="0.245752" stop-color="#873936"/>
<stop offset="0.376344" stop-color="#C56C68"/>
<stop offset="0.708117" stop-color="#FBE5EC"/>
<stop offset="0.99844" stop-color="#E9B3BA"/>
<stop offset="1" stop-color="#E9B3BA"/>
</linearGradient>
<linearGradient id="paint14_linear_2_552" x1="38.5225" y1="38.7404" x2="56.0644" y2="38.7404" gradientUnits="userSpaceOnUse">
<stop stop-color="#C56C68"/>
<stop offset="0.00156006" stop-color="#C56C68"/>
<stop offset="0.0575004" stop-color="#BF6763"/>
<stop offset="0.129946" stop-color="#AF5A56"/>
<stop offset="0.21114" stop-color="#944440"/>
<stop offset="0.245752" stop-color="#873936"/>
<stop offset="0.376344" stop-color="#C56C68"/>
<stop offset="0.708117" stop-color="#FBE5EC"/>
<stop offset="0.99844" stop-color="#E9B3BA"/>
<stop offset="1" stop-color="#E9B3BA"/>
</linearGradient>
<linearGradient id="paint15_linear_2_552" x1="35.3643" y1="40.907" x2="51.4275" y2="40.907" gradientUnits="userSpaceOnUse">
<stop stop-color="#C56C68"/>
<stop offset="0.00156006" stop-color="#C56C68"/>
<stop offset="0.0575004" stop-color="#BF6763"/>
<stop offset="0.129946" stop-color="#AF5A56"/>
<stop offset="0.21114" stop-color="#944440"/>
<stop offset="0.245752" stop-color="#873936"/>
<stop offset="0.376344" stop-color="#C56C68"/>
<stop offset="0.708117" stop-color="#FBE5EC"/>
<stop offset="0.99844" stop-color="#E9B3BA"/>
<stop offset="1" stop-color="#E9B3BA"/>
</linearGradient>
<linearGradient id="paint16_linear_2_552" x1="32.5918" y1="43.1122" x2="46.4373" y2="43.1122" gradientUnits="userSpaceOnUse">
<stop stop-color="#C56C68"/>
<stop offset="0.00156006" stop-color="#C56C68"/>
<stop offset="0.0575004" stop-color="#BF6763"/>
<stop offset="0.129946" stop-color="#AF5A56"/>
<stop offset="0.21114" stop-color="#944440"/>
<stop offset="0.245752" stop-color="#873936"/>
<stop offset="0.376344" stop-color="#C56C68"/>
<stop offset="0.708117" stop-color="#FBE5EC"/>
<stop offset="0.99844" stop-color="#E9B3BA"/>
<stop offset="1" stop-color="#E9B3BA"/>
</linearGradient>
<linearGradient id="paint17_linear_2_552" x1="30.0078" y1="45.208" x2="40.9855" y2="45.208" gradientUnits="userSpaceOnUse">
<stop stop-color="#C56C68"/>
<stop offset="0.00156006" stop-color="#C56C68"/>
<stop offset="0.0575004" stop-color="#BF6763"/>
<stop offset="0.129946" stop-color="#AF5A56"/>
<stop offset="0.21114" stop-color="#944440"/>
<stop offset="0.245752" stop-color="#873936"/>
<stop offset="0.376344" stop-color="#C56C68"/>
<stop offset="0.708117" stop-color="#FBE5EC"/>
<stop offset="0.99844" stop-color="#E9B3BA"/>
<stop offset="1" stop-color="#E9B3BA"/>
</linearGradient>
<linearGradient id="paint18_linear_2_552" x1="27.8271" y1="47.076" x2="34.8443" y2="47.076" gradientUnits="userSpaceOnUse">
<stop stop-color="#C56C68"/>
<stop offset="0.00156006" stop-color="#C56C68"/>
<stop offset="0.0575004" stop-color="#BF6763"/>
<stop offset="0.129946" stop-color="#AF5A56"/>
<stop offset="0.21114" stop-color="#944440"/>
<stop offset="0.245752" stop-color="#873936"/>
<stop offset="0.376344" stop-color="#C56C68"/>
<stop offset="0.708117" stop-color="#FBE5EC"/>
<stop offset="0.99844" stop-color="#E9B3BA"/>
<stop offset="1" stop-color="#E9B3BA"/>
</linearGradient>
<linearGradient id="paint19_linear_2_552" x1="29.4092" y1="20.7413" x2="55.3674" y2="20.7413" gradientUnits="userSpaceOnUse">
<stop stop-color="#C56C68"/>
<stop offset="0.00156006" stop-color="#C56C68"/>
<stop offset="0.0575004" stop-color="#BF6763"/>
<stop offset="0.129946" stop-color="#AF5A56"/>
<stop offset="0.21114" stop-color="#944440"/>
<stop offset="0.245752" stop-color="#873936"/>
<stop offset="0.376344" stop-color="#C56C68"/>
<stop offset="0.708117" stop-color="#FBE5EC"/>
<stop offset="0.99844" stop-color="#E9B3BA"/>
<stop offset="1" stop-color="#E9B3BA"/>
</linearGradient>
<linearGradient id="paint20_linear_2_552" x1="26.7363" y1="22.9302" x2="49.8891" y2="22.9302" gradientUnits="userSpaceOnUse">
<stop stop-color="#C56C68"/>
<stop offset="0.00156006" stop-color="#C56C68"/>
<stop offset="0.0575004" stop-color="#BF6763"/>
<stop offset="0.129946" stop-color="#AF5A56"/>
<stop offset="0.21114" stop-color="#944440"/>
<stop offset="0.245752" stop-color="#873936"/>
<stop offset="0.376344" stop-color="#C56C68"/>
<stop offset="0.708117" stop-color="#FBE5EC"/>
<stop offset="0.99844" stop-color="#E9B3BA"/>
<stop offset="1" stop-color="#E9B3BA"/>
</linearGradient>
<linearGradient id="paint21_linear_2_552" x1="24.0654" y1="25.5184" x2="44.8871" y2="25.5184" gradientUnits="userSpaceOnUse">
<stop stop-color="#C56C68"/>
<stop offset="0.00156006" stop-color="#C56C68"/>
<stop offset="0.0575004" stop-color="#BF6763"/>
<stop offset="0.129946" stop-color="#AF5A56"/>
<stop offset="0.21114" stop-color="#944440"/>
<stop offset="0.245752" stop-color="#873936"/>
<stop offset="0.376344" stop-color="#C56C68"/>
<stop offset="0.708117" stop-color="#FBE5EC"/>
<stop offset="0.99844" stop-color="#E9B3BA"/>
<stop offset="1" stop-color="#E9B3BA"/>
</linearGradient>
<linearGradient id="paint22_linear_2_552" x1="21.3906" y1="28.3584" x2="40.2587" y2="28.3584" gradientUnits="userSpaceOnUse">
<stop stop-color="#C56C68"/>
<stop offset="0.00156006" stop-color="#C56C68"/>
<stop offset="0.0575004" stop-color="#BF6763"/>
<stop offset="0.129946" stop-color="#AF5A56"/>
<stop offset="0.21114" stop-color="#944440"/>
<stop offset="0.245752" stop-color="#873936"/>
<stop offset="0.376344" stop-color="#C56C68"/>
<stop offset="0.708117" stop-color="#FBE5EC"/>
<stop offset="0.99844" stop-color="#E9B3BA"/>
<stop offset="1" stop-color="#E9B3BA"/>
</linearGradient>
<linearGradient id="paint23_linear_2_552" x1="18.7168" y1="31.4134" x2="35.9358" y2="31.4134" gradientUnits="userSpaceOnUse">
<stop stop-color="#C56C68"/>
<stop offset="0.00156006" stop-color="#C56C68"/>
<stop offset="0.0575004" stop-color="#BF6763"/>
<stop offset="0.129946" stop-color="#AF5A56"/>
<stop offset="0.21114" stop-color="#944440"/>
<stop offset="0.245752" stop-color="#873936"/>
<stop offset="0.376344" stop-color="#C56C68"/>
<stop offset="0.708117" stop-color="#FBE5EC"/>
<stop offset="0.99844" stop-color="#E9B3BA"/>
<stop offset="1" stop-color="#E9B3BA"/>
</linearGradient>
<linearGradient id="paint24_linear_2_552" x1="16.043" y1="34.6465" x2="31.8771" y2="34.6465" gradientUnits="userSpaceOnUse">
<stop stop-color="#C56C68"/>
<stop offset="0.00156006" stop-color="#C56C68"/>
<stop offset="0.0575004" stop-color="#BF6763"/>
<stop offset="0.129946" stop-color="#AF5A56"/>
<stop offset="0.21114" stop-color="#944440"/>
<stop offset="0.245752" stop-color="#873936"/>
<stop offset="0.376344" stop-color="#C56C68"/>
<stop offset="0.708117" stop-color="#FBE5EC"/>
<stop offset="0.99844" stop-color="#E9B3BA"/>
<stop offset="1" stop-color="#E9B3BA"/>
</linearGradient>
<linearGradient id="paint25_linear_2_552" x1="13.3691" y1="37.8233" x2="27.8824" y2="37.8233" gradientUnits="userSpaceOnUse">
<stop stop-color="#C56C68"/>
<stop offset="0.00156006" stop-color="#C56C68"/>
<stop offset="0.0575004" stop-color="#BF6763"/>
<stop offset="0.129946" stop-color="#AF5A56"/>
<stop offset="0.21114" stop-color="#944440"/>
<stop offset="0.245752" stop-color="#873936"/>
<stop offset="0.376344" stop-color="#C56C68"/>
<stop offset="0.708117" stop-color="#FBE5EC"/>
<stop offset="0.99844" stop-color="#E9B3BA"/>
<stop offset="1" stop-color="#E9B3BA"/>
</linearGradient>
<linearGradient id="paint26_linear_2_552" x1="10.6953" y1="40.8565" x2="23.7127" y2="40.8565" gradientUnits="userSpaceOnUse">
<stop stop-color="#C56C68"/>
<stop offset="0.00156006" stop-color="#C56C68"/>
<stop offset="0.0575004" stop-color="#BF6763"/>
<stop offset="0.129946" stop-color="#AF5A56"/>
<stop offset="0.21114" stop-color="#944440"/>
<stop offset="0.245752" stop-color="#873936"/>
<stop offset="0.376344" stop-color="#C56C68"/>
<stop offset="0.708117" stop-color="#FBE5EC"/>
<stop offset="0.99844" stop-color="#E9B3BA"/>
<stop offset="1" stop-color="#E9B3BA"/>
</linearGradient>
<linearGradient id="paint27_linear_2_552" x1="8.02246" y1="43.7197" x2="19.3326" y2="43.7197" gradientUnits="userSpaceOnUse">
<stop stop-color="#C56C68"/>
<stop offset="0.00156006" stop-color="#C56C68"/>
<stop offset="0.0575004" stop-color="#BF6763"/>
<stop offset="0.129946" stop-color="#AF5A56"/>
<stop offset="0.21114" stop-color="#944440"/>
<stop offset="0.245752" stop-color="#873936"/>
<stop offset="0.376344" stop-color="#C56C68"/>
<stop offset="0.708117" stop-color="#FBE5EC"/>
<stop offset="0.99844" stop-color="#E9B3BA"/>
<stop offset="1" stop-color="#E9B3BA"/>
</linearGradient>
<linearGradient id="paint28_linear_2_552" x1="5.34766" y1="46.3792" x2="14.6929" y2="46.3792" gradientUnits="userSpaceOnUse">
<stop stop-color="#C56C68"/>
<stop offset="0.00156006" stop-color="#C56C68"/>
<stop offset="0.0575004" stop-color="#BF6763"/>
<stop offset="0.129946" stop-color="#AF5A56"/>
<stop offset="0.21114" stop-color="#944440"/>
<stop offset="0.245752" stop-color="#873936"/>
<stop offset="0.376344" stop-color="#C56C68"/>
<stop offset="0.708117" stop-color="#FBE5EC"/>
<stop offset="0.99844" stop-color="#E9B3BA"/>
<stop offset="1" stop-color="#E9B3BA"/>
</linearGradient>
<linearGradient id="paint29_linear_2_552" x1="2.67383" y1="48.7726" x2="9.71054" y2="48.7726" gradientUnits="userSpaceOnUse">
<stop stop-color="#C56C68"/>
<stop offset="0.00156006" stop-color="#C56C68"/>
<stop offset="0.0575004" stop-color="#BF6763"/>
<stop offset="0.129946" stop-color="#AF5A56"/>
<stop offset="0.21114" stop-color="#944440"/>
<stop offset="0.245752" stop-color="#873936"/>
<stop offset="0.376344" stop-color="#C56C68"/>
<stop offset="0.708117" stop-color="#FBE5EC"/>
<stop offset="0.99844" stop-color="#E9B3BA"/>
<stop offset="1" stop-color="#E9B3BA"/>
</linearGradient>
<linearGradient id="paint30_linear_2_552" x1="0" y1="50.8114" x2="4.21229" y2="50.8114" gradientUnits="userSpaceOnUse">
<stop stop-color="#C56C68"/>
<stop offset="0.00156006" stop-color="#C56C68"/>
<stop offset="0.0575004" stop-color="#BF6763"/>
<stop offset="0.129946" stop-color="#AF5A56"/>
<stop offset="0.21114" stop-color="#944440"/>
<stop offset="0.245752" stop-color="#873936"/>
<stop offset="0.376344" stop-color="#C56C68"/>
<stop offset="0.708117" stop-color="#FBE5EC"/>
<stop offset="0.99844" stop-color="#E9B3BA"/>
<stop offset="1" stop-color="#E9B3BA"/>
</linearGradient>
<clipPath id="clip0_2_552">
<rect width="96" height="87.6364" fill="white"/>
</clipPath>
</defs>
</svg>
