<svg width="200" height="385" viewBox="0 0 200 385" fill="none" xmlns="http://www.w3.org/2000/svg">
<path d="M56.4516 272.462V250.923C56.4516 239.795 57.7061 229.205 60.215 219.154C63.0824 209.103 67.7419 199.051 74.1936 189C80.6452 178.949 89.0681 168.359 99.4624 157.231C107.348 148.615 113.62 140.897 118.28 134.077C122.939 127.256 126.344 120.795 128.495 114.692C130.645 108.231 131.72 101.769 131.72 95.3077C131.72 83.1026 127.061 73.5897 117.742 66.7692C108.781 59.9487 96.2366 56.5385 80.1075 56.5385C66.129 56.5385 52.3298 58.6923 38.7097 63C25.0896 67.3077 12.1864 73.0513 0 80.2308V22.0769C12.5448 14.8974 26.7025 9.51282 42.4731 5.92306C58.6022 1.97435 74.3728 0 89.785 0C110.932 0 129.749 3.23077 146.237 9.69231C163.082 15.7949 176.165 25.3077 185.484 38.2308C195.161 50.7949 200 66.9487 200 86.6923C200 98.5385 197.849 110.026 193.548 121.154C189.606 131.923 183.871 142.333 176.344 152.385C168.817 162.436 159.498 172.487 148.387 182.538C130.824 197.974 118.638 211.436 111.828 222.923C105.018 234.41 100.896 245.897 99.4624 257.385L97.3118 272.462H56.4516ZM39.2473 385V310.154H114.516V385H39.2473Z" fill="#F6F6F6"/>
</svg>
