<svg width="125" height="25" viewBox="0 0 125 25" fill="none" xmlns="http://www.w3.org/2000/svg">
<path d="M11.38 3.62501C11.4832 3.41568 11.6429 3.23941 11.841 3.11614C12.0392 2.99288 12.2679 2.92755 12.5012 2.92755C12.7346 2.92755 12.9633 2.99288 13.1615 3.11614C13.3596 3.23941 13.5193 3.41568 13.6225 3.62501L16.035 8.51251L21.4312 9.29751C21.6621 9.33104 21.879 9.42851 22.0574 9.57889C22.2357 9.72928 22.3684 9.92657 22.4405 10.1485C22.5126 10.3704 22.5211 10.608 22.4651 10.8345C22.4091 11.0609 22.2909 11.2672 22.1237 11.43L18.2187 15.235L19.1412 20.61C19.1806 20.8399 19.1549 21.0762 19.067 21.2922C18.9791 21.5083 18.8325 21.6954 18.6438 21.8325C18.4551 21.9695 18.2319 22.0511 17.9992 22.0679C17.7666 22.0847 17.5339 22.036 17.3275 21.9275L12.5025 19.39L7.675 21.9275C7.4685 22.0358 7.23583 22.0842 7.00327 22.0672C6.77072 22.0502 6.54756 21.9685 6.35901 21.8313C6.17046 21.6941 6.02404 21.5069 5.9363 21.2909C5.84856 21.0748 5.823 20.8386 5.8625 20.6088L6.78375 15.235L2.87875 11.43C2.71162 11.2672 2.59338 11.0609 2.5374 10.8345C2.48142 10.608 2.48994 10.3704 2.562 10.1485C2.63406 9.92657 2.76677 9.72928 2.94513 9.57889C3.12349 9.42851 3.34037 9.33104 3.57125 9.29751L8.9675 8.51376L11.38 3.62376V3.62501Z" fill="#4E026E"/>
<path d="M36.38 3.62501C36.4832 3.41568 36.6429 3.23941 36.841 3.11614C37.0392 2.99288 37.2679 2.92755 37.5012 2.92755C37.7346 2.92755 37.9633 2.99288 38.1615 3.11614C38.3596 3.23941 38.5193 3.41568 38.6225 3.62501L41.035 8.51251L46.4312 9.29751C46.6621 9.33104 46.879 9.42851 47.0574 9.57889C47.2357 9.72928 47.3684 9.92657 47.4405 10.1485C47.5126 10.3704 47.5211 10.608 47.4651 10.8345C47.4091 11.0609 47.2909 11.2672 47.1237 11.43L43.2187 15.235L44.1412 20.61C44.1806 20.8399 44.1549 21.0762 44.067 21.2922C43.9791 21.5083 43.8325 21.6954 43.6438 21.8325C43.4551 21.9695 43.2319 22.0511 42.9992 22.0679C42.7666 22.0847 42.5339 22.036 42.3275 21.9275L37.5025 19.39L32.675 21.9275C32.4685 22.0358 32.2358 22.0842 32.0033 22.0672C31.7707 22.0502 31.5476 21.9685 31.359 21.8313C31.1705 21.6941 31.024 21.5069 30.9363 21.2909C30.8486 21.0748 30.823 20.8386 30.8625 20.6088L31.7837 15.235L27.8787 11.43C27.7116 11.2672 27.5934 11.0609 27.5374 10.8345C27.4814 10.608 27.4899 10.3704 27.562 10.1485C27.6341 9.92657 27.7668 9.72928 27.9451 9.57889C28.1235 9.42851 28.3404 9.33104 28.5712 9.29751L33.9675 8.51376L36.38 3.62376V3.62501Z" fill="#4E026E"/>
<path d="M61.38 3.62501C61.4832 3.41568 61.6429 3.23941 61.841 3.11614C62.0392 2.99288 62.2679 2.92755 62.5012 2.92755C62.7346 2.92755 62.9633 2.99288 63.1615 3.11614C63.3596 3.23941 63.5193 3.41568 63.6225 3.62501L66.035 8.51251L71.4312 9.29751C71.6621 9.33104 71.879 9.42851 72.0574 9.57889C72.2357 9.72928 72.3684 9.92657 72.4405 10.1485C72.5126 10.3704 72.5211 10.608 72.4651 10.8345C72.4091 11.0609 72.2909 11.2672 72.1237 11.43L68.2187 15.235L69.1412 20.61C69.1806 20.8399 69.1549 21.0762 69.067 21.2922C68.9791 21.5083 68.8325 21.6954 68.6438 21.8325C68.4551 21.9695 68.2319 22.0511 67.9992 22.0679C67.7666 22.0847 67.5339 22.036 67.3275 21.9275L62.5025 19.39L57.675 21.9275C57.4685 22.0358 57.2358 22.0842 57.0033 22.0672C56.7707 22.0502 56.5476 21.9685 56.359 21.8313C56.1705 21.6941 56.024 21.5069 55.9363 21.2909C55.8486 21.0748 55.823 20.8386 55.8625 20.6088L56.7837 15.235L52.8787 11.43C52.7116 11.2672 52.5934 11.0609 52.5374 10.8345C52.4814 10.608 52.4899 10.3704 52.562 10.1485C52.6341 9.92657 52.7668 9.72928 52.9451 9.57889C53.1235 9.42851 53.3404 9.33104 53.5712 9.29751L58.9675 8.51376L61.38 3.62376V3.62501Z" fill="#4E026E"/>
<path d="M86.38 3.62501C86.4832 3.41568 86.6429 3.23941 86.841 3.11614C87.0392 2.99288 87.2679 2.92755 87.5012 2.92755C87.7346 2.92755 87.9633 2.99288 88.1615 3.11614C88.3596 3.23941 88.5193 3.41568 88.6225 3.62501L91.035 8.51251L96.4312 9.29751C96.6621 9.33104 96.879 9.42851 97.0574 9.57889C97.2357 9.72928 97.3684 9.92657 97.4405 10.1485C97.5126 10.3704 97.5211 10.608 97.4651 10.8345C97.4091 11.0609 97.2909 11.2672 97.1237 11.43L93.2187 15.235L94.1412 20.61C94.1806 20.8399 94.1549 21.0762 94.067 21.2922C93.9791 21.5083 93.8325 21.6954 93.6438 21.8325C93.4551 21.9695 93.2319 22.0511 92.9992 22.0679C92.7666 22.0847 92.5339 22.036 92.3275 21.9275L87.5025 19.39L82.675 21.9275C82.4685 22.0358 82.2358 22.0842 82.0033 22.0672C81.7707 22.0502 81.5476 21.9685 81.359 21.8313C81.1705 21.6941 81.024 21.5069 80.9363 21.2909C80.8486 21.0748 80.823 20.8386 80.8625 20.6088L81.7837 15.235L77.8787 11.43C77.7116 11.2672 77.5934 11.0609 77.5374 10.8345C77.4814 10.608 77.4899 10.3704 77.562 10.1485C77.6341 9.92657 77.7668 9.72928 77.9451 9.57889C78.1235 9.42851 78.3404 9.33104 78.5712 9.29751L83.9675 8.51376L86.38 3.62376V3.62501Z" fill="#4E026E"/>
<path d="M111.38 3.62501C111.483 3.41568 111.643 3.23941 111.841 3.11614C112.039 2.99288 112.268 2.92755 112.501 2.92755C112.735 2.92755 112.963 2.99288 113.161 3.11614C113.36 3.23941 113.519 3.41568 113.622 3.62501L116.035 8.51251L121.431 9.29751C121.662 9.33104 121.879 9.42851 122.057 9.57889C122.236 9.72928 122.368 9.92657 122.44 10.1485C122.513 10.3704 122.521 10.608 122.465 10.8345C122.409 11.0609 122.291 11.2672 122.124 11.43L118.219 15.235L119.141 20.61C119.181 20.8399 119.155 21.0762 119.067 21.2922C118.979 21.5083 118.833 21.6954 118.644 21.8325C118.455 21.9695 118.232 22.0511 117.999 22.0679C117.767 22.0847 117.534 22.036 117.327 21.9275L112.502 19.39L107.675 21.9275C107.468 22.0358 107.236 22.0842 107.003 22.0672C106.771 22.0502 106.548 21.9685 106.359 21.8313C106.17 21.6941 106.024 21.5069 105.936 21.2909C105.849 21.0748 105.823 20.8386 105.862 20.6088L106.784 15.235L102.879 11.43C102.712 11.2672 102.593 11.0609 102.537 10.8345C102.481 10.608 102.49 10.3704 102.562 10.1485C102.634 9.92657 102.767 9.72928 102.945 9.57889C103.123 9.42851 103.34 9.33104 103.571 9.29751L108.967 8.51376L111.38 3.62376V3.62501Z" fill="#4E026E"/>
</svg>
