<?xml version="1.0" encoding="utf-8"?>
<!-- Generator: Adobe Illustrator 22.0.1, SVG Export Plug-In . SVG Version: 6.00 Build 0)  -->
<svg version="1.1" id="Слой_1" xmlns="http://www.w3.org/2000/svg" xmlns:xlink="http://www.w3.org/1999/xlink" x="0px" y="0px"
	 viewBox="0 0 391.9 391" style="enable-background:new 0 0 391.9 391;" xml:space="preserve">
<style type="text/css">
	.st0{clip-path:url(#SVGID_2_);}
	.st1{clip-path:url(#SVGID_2_);fill:#FFC22D;}
</style>
<g>
	<defs>
		<rect id="SVGID_1_" y="0" width="391.9" height="391"/>
	</defs>
	<clipPath id="SVGID_2_">
		<use xlink:href="#SVGID_1_"  style="overflow:visible;"/>
	</clipPath>
	<path class="st0" d="M124.1,243.6c-1.7,0.1-3.3,0.2-5,0.2c-4.6,0-9-0.7-13.3-1.7L5.5,342.6c-4.9,4.9-4.9,12.9,0,17.8l26,26
		c4.9,4.9,12.9,4.9,17.8,0l120.6-120.6l-22.4-24.1L124.1,243.6z M124.1,243.6"/>
	<path class="st0" d="M388.3,82.8c-4.7-4.7-12.3-4.7-17,0l-65,65c-6.2,6.1-16.1,6.1-22.3,0c-6.1-6.1-6.1-16.1,0-22.2l64.7-64.7
		c4.9-4.9,4.9-12.8,0-17.7c-4.9-4.9-12.8-4.9-17.7,0l-64.7,64.7c-6.2,6.2-16.1,6.2-22.3,0c-6.1-6.1-6.1-16.1,0-22.2l65-65
		c4.7-4.7,4.7-12.4,0-17.1c-4.7-4.7-12.3-4.7-17.1,0l-73.2,73.2c-17.6,17.6-23.1,42.3-17.5,64.8l49,49c22.5,5.7,47.2,0.1,64.8-17.5
		l73.2-73.2C393,95.2,393,87.6,388.3,82.8L388.3,82.8z M388.3,82.8"/>
	<path class="st1" d="M32.9,10.1c-2.5-2.5-5.9-3.9-9.4-3.9c-0.7,0-1.5,0.1-2.2,0.2c-4.2,0.7-7.9,3.4-9.7,7.3
		C-9.9,58.1-0.9,111.1,33.9,145.9l62.2,62.2c6.1,6.1,14.4,9.5,23.1,9.5c0.9,0,1.8,0,2.8-0.1l36.1-3.1l157.6,170
		c2.4,2.6,5.9,4.2,9.5,4.3h0.2c3.5,0,6.9-1.4,9.4-3.9l27-27c2.5-2.5,3.9-5.9,3.9-9.4c0-3.5-1.4-6.9-3.9-9.4L32.9,10.1z M32.9,10.1"
		/>
</g>
</svg>
