<?xml version="1.0" encoding="utf-8"?>
<!-- Generator: Adobe Illustrator 22.0.1, SVG Export Plug-In . SVG Version: 6.00 Build 0)  -->
<svg version="1.1" id="Слой_1" xmlns="http://www.w3.org/2000/svg" xmlns:xlink="http://www.w3.org/1999/xlink" x="0px" y="0px"
	 viewBox="0 0 640 430" style="enable-background:new 0 0 640 430;" xml:space="preserve">
<style type="text/css">
	.st0{clip-path:url(#SVGID_2_);}
	.st1{fill:#FFC22D;}
</style>
<g>
	<defs>
		<rect id="SVGID_1_" x="0.1" width="639.8" height="430"/>
	</defs>
	<clipPath id="SVGID_2_">
		<use xlink:href="#SVGID_1_"  style="overflow:visible;"/>
	</clipPath>
	<g class="st0">
		<path d="M302.3,95.2l-37.9,92c-1.3,3.1-4.2,5.3-7.6,5.6l-193.8,17c-4.8,0.4-8.4,4.5-8.2,9.2l3.9,152.1c0.1,4.2,3.1,7.7,7.2,8.6
			l228.1,48c5.6,1.2,11.2,1.8,16.9,1.7l0-45.1V96.9C311,84.3,307.1,83.5,302.3,95.2z M275.7,378.8L190.1,365v-44.9h85.6V378.8z"/>
		<path d="M576.9,209.7l-193.8-17c-3.4-0.3-6.3-2.4-7.6-5.6l-37.9-92c-4.8-11.6-8.7-10.8-8.7,1.7v287.4l0,45.1
			c5.7,0,11.3-0.6,16.9-1.7l228.1-48c4.1-0.9,7.1-4.4,7.2-8.6l3.9-152.1C585.3,214.2,581.7,210.2,576.9,209.7z M497.2,291l-10.7,0.3
			l-0.2,67.4c0,3-3,5.8-6.8,6.3l-17.5,2.5c-4,0.6-7.3-1.5-7.3-4.6l0.2-70.7l-12.2,0.3c-6,0.2-9.7-4.6-6.7-8.6L465,246
			c2.8-3.6,9.5-3.3,12.2,0.5l25.6,36.4C505.2,286.4,502.1,290.8,497.2,291z"/>
		<path class="st1" d="M61.7,51.1l-60.8,130c-3,6.4,2.1,13.5,9.1,12.8l228.4-23.1c3.2-0.3,6-2.4,7.3-5.3L319.1,0L68.2,46.1
			C65.3,46.6,62.9,48.5,61.7,51.1z"/>
		<path class="st1" d="M639.1,181.1l-60.8-130c-1.2-2.6-3.7-4.5-6.5-5.1L320.9,0l73.5,165.5c1.3,3,4.1,5,7.3,5.3L630,193.9
			C637,194.6,642.1,187.5,639.1,181.1z"/>
	</g>
</g>
</svg>
