<?xml version="1.0" encoding="utf-8"?>
<!-- Generator: Adobe Illustrator 22.0.1, SVG Export Plug-In . SVG Version: 6.00 Build 0)  -->
<svg version="1.1" id="Слой_1" xmlns="http://www.w3.org/2000/svg" xmlns:xlink="http://www.w3.org/1999/xlink" x="0px" y="0px"
	 viewBox="0 0 291.2 346" style="enable-background:new 0 0 291.2 346;" xml:space="preserve">
<style type="text/css">
	.st0{fill:#FFC22D;}
</style>
<g>
	<path class="st0" d="M227.9,93.6c-34.9,0-63.3,28.4-63.3,63.3V330c0,8.8,7.2,16,16,16h94.6c8.8,0,16-7.2,16-16V156.9
		C291.2,122,262.8,93.6,227.9,93.6L227.9,93.6z M227.9,93.6"/>
	<path d="M124.7,235L121,132.8c-0.4-10.9-8.2-20.1-18.3-22.8l0.1-47.8c0-7.8-4.7-17.8-10.6-22.8L48.7,3.2c-2.5-2.1-5-3.2-7.5-3.2
		c-2.6,0-4.9,1.3-6.4,3.5c-1.2,1.8-1.9,4.2-1.8,7.1L33,110c-10.2,2.7-18,11.9-18.4,22.8L11,235c-6.4,2.1-11,8.1-11,15.2V330
		c0,8.8,7.2,16,16,16h103.7c8.8,0,16-7.2,16-16v-79.8C135.7,243.1,131.1,237.1,124.7,235L124.7,235z M30.4,234.2l3.2-89.1
		c0.2-5.5,4.9-10,10.3-10h47.8c5.5,0,10.1,4.5,10.3,10l3.2,89.1H30.4z M30.4,234.2"/>
</g>
</svg>
