<?xml version="1.0" encoding="utf-8"?>
<!-- Generator: Adobe Illustrator 22.0.1, SVG Export Plug-In . SVG Version: 6.00 Build 0)  -->
<svg version="1.1" id="Слой_1" xmlns="http://www.w3.org/2000/svg" xmlns:xlink="http://www.w3.org/1999/xlink" x="0px" y="0px"
	 viewBox="0 0 396.8 280" style="enable-background:new 0 0 396.8 280;" xml:space="preserve">
<style type="text/css">
	.st0{fill:#FFC22D;}
</style>
<g>
	<path class="st0" d="M95.3,0L0,280h48.2L117.3,0H95.3z M95.3,0"/>
	<path class="st0" d="M301.5,0h-22l69.1,280h48.2L301.5,0z M301.5,0"/>
	<path d="M136.1,0l-69,280h102.1l2.8-41.2h52.7l2.8,41.2h102.1l-69-280H136.1z M189.3,3.2h18.2l2.9,39.3h-23.9L189.3,3.2z
		 M183.6,81.7h29.7l2.9,39.3h-35.4L183.6,81.7z M174.9,199.5l2.9-39.3H219l2.9,39.3H174.9z M174.9,199.5"/>
</g>
</svg>
