<?xml version="1.0" encoding="utf-8"?>
<!-- Generator: Adobe Illustrator 22.0.1, SVG Export Plug-In . SVG Version: 6.00 Build 0)  -->
<svg version="1.1" id="Слой_1" xmlns="http://www.w3.org/2000/svg" xmlns:xlink="http://www.w3.org/1999/xlink" x="0px" y="0px"
	 viewBox="0 0 380.9 337" style="enable-background:new 0 0 380.9 337;" xml:space="preserve">
<style type="text/css">
	.st0{clip-path:url(#SVGID_2_);}
	.st1{fill:#FFC22D;}
</style>
<g>
	<g>
		<defs>
			<rect id="SVGID_1_" x="0" width="380.9" height="337"/>
		</defs>
		<clipPath id="SVGID_2_">
			<use xlink:href="#SVGID_1_"  style="overflow:visible;"/>
		</clipPath>
		<path class="st0" d="M63,176.9h51.8c-10.2-20.1-27.7-45.8-57.2-73.2c-5.8-5.3-13.5-8.4-21.3-8.4c-8.1,0-16.1,3.2-23.7,9.4
			c-23.7,19.4-7.5,43.4-2,50.3c7.3,9.1,14.9,21.9,21.6,37.2C39.3,182.9,50.4,176.9,63,176.9L63,176.9z M63,176.9"/>
		<path class="st0" d="M368.4,104.7c-7.6-6.2-15.6-9.4-23.7-9.4c-7.7,0-15.5,3.1-21.3,8.4c-29.6,27.4-47,53.1-57.2,73.2h51.8
			c12.6,0,23.7,6,30.8,15.2c6.7-15.3,14.3-28.1,21.6-37.2C375.9,148.1,392.1,124.1,368.4,104.7L368.4,104.7z M368.4,104.7"/>
	</g>
	<path class="st1" d="M340.8,267.3v-51.5c0-12.6-10.3-22.9-22.9-22.9H63c-12.6,0-22.9,10.3-22.9,22.9v51.5
		c0,12.6,10.3,22.9,22.9,22.9h255C330.6,290.2,340.8,279.9,340.8,267.3L340.8,267.3z M340.8,267.3"/>
	<path d="M289.2,306.2L293,336h19.3l3.8-29.9H289.2z M289.2,306.2"/>
	<path d="M64.9,306.2l3.8,29.9H88l3.8-29.9H64.9z M64.9,306.2"/>
	<path d="M248.3,176.9c11-23.8,30.3-53.5,64.2-84.9c4.8-4.4,10.4-7.8,16.3-9.9C307.4,34.1,253.4,0,190.5,0
		C127.5,0,73.6,34.1,52,82.1c6,2.1,11.6,5.5,16.3,9.9c34,31.4,53.3,61.2,64.2,84.9H248.3z M248.3,176.9"/>
</g>
</svg>
