<?xml version="1.0" encoding="utf-8"?>
<!-- Generator: Adobe Illustrator 22.0.1, SVG Export Plug-In . SVG Version: 6.00 Build 0)  -->
<svg version="1.1" id="Слой_1" xmlns="http://www.w3.org/2000/svg" xmlns:xlink="http://www.w3.org/1999/xlink" x="0px" y="0px"
	 viewBox="0 0 385.1 384.9" style="enable-background:new 0 0 385.1 384.9;" xml:space="preserve">
<style type="text/css">
	.st0{fill-rule:evenodd;clip-rule:evenodd;fill:#1E120D;}
	.st1{fill-rule:evenodd;clip-rule:evenodd;fill:#FFC22C;}
</style>
<g>
	<path class="st0" d="M0,98.2l0.1,8.6c1.2,2,1.7,6,2.8,8.5c8.1,18.2,30.6,24.7,49.2,8c8.2,2.7,15.6,12,18.9,20.7
		c4.2,11.1,2.7,22.6,4.3,34.8c8.4,63.9,60.4,102,120.8,113.9c47.3,9.2,93.8-2.8,127.4-23.3c6-3.7,17.1-12.1,21.8-17.2
		c3.3-3.5,6.1-5.9,9.5-10l8.4-11c8.3-11.6,14.5-25.9,17.9-40.6c1.1-4.7,2.1-14.7,3.5-16.8c0.2-0.8,0.3-1.5,0.4-2.3v-3.3
		c-0.1-1.8-0.5-3.6-0.8-5.5l-280.4,0c-1.4-8.9-0.9-14.5-3.5-23.5c-5.2-18.5-18.9-35.9-37.4-43.6c-5.7-2.4-4.8-0.9-7.5-6.1
		C47.5,73.1,23.5,69,10.5,81.6c-2.4,2.3-4.1,4-6.1,7.4c-2.5,4.5-1.8,4.7-2.9,6.9C0.4,98.2,1,97.2,0,98.2L0,98.2z"/>
	<path class="st1" d="M384.6,147.9c0.3-1.6,0.5-2.7,0.5-3.7v-1.6c-0.1-0.8-0.2-1.7-0.5-2.8c-1.7-3.1-1.5-10.5-2.1-14.9
		c-4.1-30.7-17.3-53.5-36.1-76.3c-2.6-3.2-5.8-5.4-8.3-8.2c-9.9-11.4-34-25.6-48.5-31.8c-4.1-1.8-21.1-7.1-23-8.6l-1.1,0
		l-58.5,147.9L384.6,147.9z"/>
	<path class="st0" d="M345.7,335.5c-1.6,14.6-14.5,26.6-31.1,24.8c-14.4-1.5-26.3-15-24.5-31.2C294.3,293.4,349.6,298.7,345.7,335.5
		L345.7,335.5z M312.3,384.5c1.6,0.4,10.3,0.5,12,0.1c2.4-1.7,8.6-1.4,18.9-6.9c45.4-24.7,28.7-97.1-25.5-96.7
		c-36,0.3-61.3,35.9-47.5,71.3C281.2,380.7,310.2,383.2,312.3,384.5L312.3,384.5z"/>
	<path class="st0" d="M134.8,305.4c16.5-4.1,30.3,8.1,33.2,20.8c8.4,36.5-46.3,48.3-54.5,12.6C110,323.8,118.8,309.4,134.8,305.4
		L134.8,305.4z M135.2,384.5c1.5,0.3,10.5,0.5,12,0.1l10.1-3.1c21.2-7.1,36.4-28.3,35-52c-1.6-26.6-23.6-48.7-51.6-48.6
		c-54.3,0.2-70.7,72.7-24,97.4C126.3,383.5,132.1,382.6,135.2,384.5L135.2,384.5z"/>
</g>
</svg>
