<?xml version="1.0" encoding="utf-8"?>
<!-- Generator: Adobe Illustrator 22.0.1, SVG Export Plug-In . SVG Version: 6.00 Build 0)  -->
<svg version="1.1" id="Слой_1" xmlns="http://www.w3.org/2000/svg" xmlns:xlink="http://www.w3.org/1999/xlink" x="0px" y="0px"
	 viewBox="0 0 419.9 419.6" style="enable-background:new 0 0 419.9 419.6;" xml:space="preserve">
<style type="text/css">
	.st0{fill-rule:evenodd;clip-rule:evenodd;fill:#010101;}
	.st1{fill-rule:evenodd;clip-rule:evenodd;fill:#FDBE2B;}
</style>
<g>
	<path class="st0" d="M40.2,218.9v-14.1c0-87.5,77.1-164.6,164.6-164.6c53.5,0,90,14.7,126,50.7c49.7,49.6,63.6,129.2,32.7,192.3
		C300.2,412,119.9,411.4,56.9,284.5C48.8,268.2,40.2,242.2,40.2,218.9L40.2,218.9z M0,196.8c0,41.2,1.3,66.5,20,104.4
		c5.8,11.7,10.2,20.1,17.8,30.4c3.9,5.4,6.4,8.3,10.8,13.3c37.5,43,89.3,74.7,150.1,74.7c55.1,0,88.9-7.3,132.5-38.1
		c20.2-14.3,24.3-18.4,38.7-35.5l20.4-27.8c3.8-6.3,6.2-10.7,9.2-16.9c34.6-70.5,24.8-166.7-27.6-225.4c-12.5-14-8-11.7-24.9-25.3
		C297.6,10.6,264,0,196.8,0c-27,0-60.1,11.1-78.3,20C90.6,33.7,69.3,50.2,49.6,73.7C22.5,106,0,151.4,0,196.8L0,196.8z"/>
	<path class="st0" d="M202.8,355.4c24.5,0,43.9-0.8,66.3-12c13.7-6.8,25.9-13.2,36.7-23.6c21.9-21.1,37.6-40.5,45.6-74.8h-78.3
		c0,57.9-60.9,84.9-105.6,49.4c-14.6-11.5-20.8-29.3-20.8-49.4H68.3C82.3,305.3,140.2,355.4,202.8,355.4L202.8,355.4z"/>
	<path class="st1" d="M208.8,287.1c47,0,59.3-66.5,9.4-79.7c-0.7-0.2-2.6-0.6-3.2-0.8c-11.1-4-49.5-63.4-62.4-72.1
		c1.1,13.3,20.7,82.5,21.3,89.1c0.7,8.2-11.3,21.7,0,42.2C179.7,276.3,193.4,287.1,208.8,287.1L208.8,287.1z"/>
	<path class="st0" d="M80.3,144.6c10.4,5.5,20.5,13.3,30.1,14.1c1.7-7.5,3.3-5.6,4-14.1c-11.1-2.6-17-11.5-28.1-14.1
		C83.8,135.3,81.7,138.7,80.3,144.6L80.3,144.6z"/>
	<path class="st0" d="M130.5,86.3c2.6,11.1,11.5,17,14.1,28.1c8.4-0.7,6.6-2.3,14.1-4c-0.7-8.2-8.6-19.8-14.1-30.1
		C138.7,81.7,135.3,83.8,130.5,86.3L130.5,86.3z"/>
	<path class="st0" d="M305.2,144.6c0.7,8.4,2.3,6.6,4,14.1c8.1-0.7,10-2.9,15.7-6.4c5.1-3.2,9.4-5,14.4-7.7c-1.4-5.9-3.5-9.3-6-14.1
		C323.7,133.1,315.1,142.2,305.2,144.6L305.2,144.6z"/>
	<path class="st0" d="M261,108.4c4.6,3.1,6.5,5.4,14.1,6c2.3-9.9,11.5-18.5,14.1-28.1c-4.8-2.5-8.2-4.6-14.1-6L261,108.4z"/>
	<rect x="202.8" y="64.3" class="st0" width="14.1" height="32.1"/>
	<rect x="64.3" y="202.8" class="st0" width="32.1" height="14.1"/>
	<rect x="323.3" y="202.8" class="st0" width="32.1" height="14.1"/>
</g>
</svg>
