<?xml version="1.0" encoding="utf-8"?>
<!-- Generator: Adobe Illustrator 22.0.1, SVG Export Plug-In . SVG Version: 6.00 Build 0)  -->
<svg version="1.1" id="Слой_1" xmlns="http://www.w3.org/2000/svg" xmlns:xlink="http://www.w3.org/1999/xlink" x="0px" y="0px"
	 viewBox="0 0 44 29" style="enable-background:new 0 0 44 29;" xml:space="preserve">
<style type="text/css">
	.st0{clip-path:url(#SVGID_2_);}
	.st1{fill:#FFC22D;}
</style>
<g>
	<g>
		<defs>
			<rect id="SVGID_1_" width="43.9" height="29"/>
		</defs>
		<clipPath id="SVGID_2_">
			<use xlink:href="#SVGID_1_"  style="overflow:visible;"/>
		</clipPath>
		<path class="st0" d="M27.6,8.8H24V5.6h-4v3.2h-1.6v1.7L20,9.9c0.3-0.1,2.6-1,3.5,0.8c1.1,2-0.2,3.2-0.8,3.5l-2,1H24v1.6h15.2v-1.6
			H44V0h-9.9L27.6,8.8z M40.8,8.8h-7.5L36.6,4h4.2V8.8z M40.8,8.8"/>
		<path class="st0" d="M41.2,18.4H20.4c-2.4,0-3.6,1.1-3.6,2.8v4.2c0,1.8,1.2,2.6,3.6,2.6h20.8c1.8,0,2.8-1.2,2.8-3.4v-3.4
			C44,19.4,43,18.4,41.2,18.4L41.2,18.4z M40.8,24.8H20v-3.2h20.8V24.8z M40.8,24.8"/>
	</g>
	<path d="M12.8,19c-0.3,0.1-2.3,1.2-3.4-1.1c-0.8-1.8,0.4-3.2,1.4-3.7l3.9-2.1c-0.6-0.8-0.5-0.8-0.5-0.9l-0.1-0.1H9.9L3.2,23.5v4.4
		L3.5,28c0,0,1.3,0.4,3,0.4c2.8,0,6.6-1,9-5.7c1-2,1.5-3.9,1.5-5.7L12.8,19z M12.8,19"/>
	<path d="M0,26.4V28h2.4v-4L0,26.4z M0,26.4"/>
	<path class="st1" d="M11.2,15.8c-0.6,0.3-0.8,1-0.5,1.6c0.3,0.6,1,0.8,1.6,0.5l9.6-4.9c0.2-0.1,0.4-0.3,0.6-0.5
		c0.2-0.3,0.3-0.7,0.1-1.1c-0.1-0.2-0.2-0.4-0.4-0.5c-0.2-0.1-0.4-0.2-0.6-0.2c0,0,0,0-0.1,0c-0.1,0-0.1,0-0.2,0c0,0-0.1,0-0.1,0
		c-0.1,0-0.2,0.1-0.3,0.1L11.2,15.8z M11.2,15.8"/>
</g>
</svg>
