<?xml version="1.0" encoding="utf-8"?>
<!-- Generator: Adobe Illustrator 22.0.1, SVG Export Plug-In . SVG Version: 6.00 Build 0)  -->
<svg version="1.1" id="Слой_1" xmlns="http://www.w3.org/2000/svg" xmlns:xlink="http://www.w3.org/1999/xlink" x="0px" y="0px"
	 viewBox="0 0 216 216.3" style="enable-background:new 0 0 216 216.3;" xml:space="preserve">
<style type="text/css">
	.st0{fill-rule:evenodd;clip-rule:evenodd;fill:#231F20;}
	.st1{fill-rule:evenodd;clip-rule:evenodd;fill:#FFC22C;}
</style>
<g>
	<path class="st0" d="M37.4,159.5c-3.3,4.6-14,14.8-18.4,18.8c-3.1,2.9-17.6,17-19,19.4c2.6,3,16.6,17.2,18.9,18.6L56.3,179
		c4.1,0.7,14,9.3,33.9,9.3c27.4,0,39.5-13.4,53.7-27.7c3.5-3.5,11.3-10.5,13.6-13.9L69.9,58.9c-2.7,1.3-16,15.3-19.1,18.5
		c-6,6-12,11.4-16.8,21.5c-4.4,9.2-6.6,20.4-5.8,32C29.2,145,33.3,149.5,37.4,159.5L37.4,159.5z"/>
	<path class="st0" d="M84.9,19.6c-3.6,1-14.3,12.3-17.1,15.4C60,43.6,72,52.1,75.7,55.5L92,72.1c3,3.1,5.5,5.2,8.2,8.2
		c2.9,3.2,5.2,4.8,8.2,8.2l24.3,24.4c1.4,1.4,3.3,3,4.2,4.1l33.2,32.8c7.8,3.8,12.6-2.9,16.2-6.6c13.2-13.5,15.8-13.4,0-29.1
		c-29.3-29.3-60.9-61.7-90.4-90.4C93.8,21.5,90.2,18.2,84.9,19.6L84.9,19.6z"/>
	<path class="st1" d="M165.1,84c4.5,4,12.3,13.1,15.8,15.1c3.3-2.1,31.2-30.3,32.3-31.7c9.4-12.4-6.3-24.3-15.8-16.6l-29.6,29.7
		C165.7,82.5,166.1,81.5,165.1,84L165.1,84z"/>
	<path class="st1" d="M117,36.1c3.9,2.9,12.5,13.3,16,14.8c3.5-2.8,7.4-7.1,10.7-10.4c3.7-3.7,6.8-6.8,10.5-10.5
		c3.5-3.4,7.2-6.9,10.5-10.5c4-4.5,4.6-11.2-0.1-16c-9.5-9.8-20,4-26.4,10.4C134.2,17.7,118.3,32.6,117,36.1L117,36.1z"/>
</g>
</svg>
