<?xml version="1.0" encoding="utf-8"?>
<!-- Generator: Adobe Illustrator 22.0.1, SVG Export Plug-In . SVG Version: 6.00 Build 0)  -->
<svg version="1.1" id="Слой_1" xmlns="http://www.w3.org/2000/svg" xmlns:xlink="http://www.w3.org/1999/xlink" x="0px" y="0px"
	 viewBox="0 0 360.7 228.7" style="enable-background:new 0 0 360.7 228.7;" xml:space="preserve">
<style type="text/css">
	.st0{fill:#FFC22D;}
</style>
<g>
	<path d="M352.5,68.1c-1.3-2.9-4.1-4.7-7.3-4.7H241.5c-2.9,0-5.6,1.6-7,4.1c-0.9,1.7-8.7,17.2-9.7,65.6c-10.6-6.2-22.9-23-35.7-40.5
		C180,80.3,170.4,67,159.6,54.9L119.5,95c6.1,9.1,12,18.7,18,28.7c19.8,32.7,40.2,66.6,76.9,88c19.3,11.3,39.1,17,58.8,17
		c13.7,0,27.3-2.8,40.6-8.3c15.6-6.4,28.1-17.8,36.2-32.9c7-13,10.7-28.3,10.7-44.4C360.7,87.8,353.3,70,352.5,68.1L352.5,68.1z
		 M352.5,68.1"/>
	<path class="st0" d="M142.7,37.9C136.8,32.7,130.6,28,124,24C102.1,10.8,60.3,0,30.8,0H19.7C8.9,0,0,8.9,0,19.7
		c0,10.9,8.9,19.7,19.7,19.7h12c27.7,2.2,48.8,11.5,66.4,29.1c2.3,2.3,4.5,4.7,6.7,7.2L142.7,37.9z M142.7,37.9"/>
</g>
</svg>
