<?xml version="1.0" encoding="utf-8"?>
<!-- Generator: Adobe Illustrator 22.0.1, SVG Export Plug-In . SVG Version: 6.00 Build 0)  -->
<svg version="1.1" id="Слой_1" xmlns="http://www.w3.org/2000/svg" xmlns:xlink="http://www.w3.org/1999/xlink" x="0px" y="0px"
	 viewBox="0 0 372 317" style="enable-background:new 0 0 372 317;" xml:space="preserve">
<style type="text/css">
	.st0{fill:#FFC22D;}
	.st1{clip-path:url(#SVGID_2_);fill:#FFC22D;}
	.st2{clip-path:url(#SVGID_2_);}
</style>
<g>
	<path class="st0" d="M273.1,130c-54.5,0-98.8,39.3-98.8,93.8c0,26.1,10.4,49.9,29.2,67.2c18.3,16.7,43,25.9,69.6,25.9
		c26.6,0,51.3-9.2,69.6-25.9c18.8-17.2,29.2-41.1,29.2-67.2C371.9,169.3,327.6,130,273.1,130L273.1,130z M273.1,265.8
		c-23.2,0-42.1-18.9-42.1-42.1c0-23.2,18.9-42.1,42.1-42.1c23.2,0,42.1,18.9,42.1,42.1C315.2,246.9,296.3,265.8,273.1,265.8
		L273.1,265.8z M273.1,265.8"/>
	<g>
		<defs>
			<rect id="SVGID_1_" y="0" width="372" height="317"/>
		</defs>
		<clipPath id="SVGID_2_">
			<use xlink:href="#SVGID_1_"  style="overflow:visible;"/>
		</clipPath>
		<path class="st1" d="M69.9,181C31.4,181,0,212.4,0,250.9c0,18.5,7.3,35.4,20.6,47.6c12.9,11.8,30.4,18.3,49.3,18.3
			c18.8,0,36.3-6.5,49.3-18.3c13.3-12.2,20.7-29.1,20.7-47.6C139.8,212.4,108.5,181,69.9,181L69.9,181z M69.9,280.6
			c-16.4,0-29.6-13.3-29.6-29.7c0-16.3,13.3-29.6,29.6-29.6c16.3,0,29.6,13.3,29.6,29.6C99.6,267.3,86.3,280.6,69.9,280.6
			L69.9,280.6z M69.9,280.6"/>
		<path class="st2" d="M196.2,148.8c20.3-18.9,47.6-29.3,76.9-29.3c19.7,0,38.6,4.7,55,13.6c0.1,0,0.2,0.1,0.2,0.1
			c1.5,1.1,3.4,1.7,5.4,1.5c4.4-0.4,7.7-4.3,7.3-8.7c-0.1-0.8-7.5-83.9-8.9-100.2C329.9,0,311.2,0,304.2,0h-108
			c-9.6,0-27.5,0-33,27.3c-3.1,15.4-9.9,47.7-15.2,72.4H74.2V59.3c0-5.9-4.8-10.7-10.7-10.7c-5.9,0-10.7,4.8-10.7,10.7v40.5h-18
			c-30.9,0-40.5,66.5-23.5,96.3c14.7-15.6,35.5-25.4,58.6-25.4c40.4,0,73.9,30,79.5,68.9h15.7c-0.8-5.1-1.2-10.4-1.2-15.7
			C163.9,194.8,175.4,168.2,196.2,148.8L196.2,148.8z M316.1,27.1c0.9,10.2,4.1,46.6,6.4,72.6h-66.5V16h48.2
			C312,16,315.2,16.4,316.1,27.1L316.1,27.1z M178.9,30.5C181.8,16,187.3,16,196.2,16h47v83.7h-78.9
			C169.9,73.6,176.7,41.4,178.9,30.5L178.9,30.5z M178.9,30.5"/>
	</g>
</g>
</svg>
