<?xml version="1.0" encoding="utf-8"?>
<!-- Generator: Adobe Illustrator 22.0.1, SVG Export Plug-In . SVG Version: 6.00 Build 0)  -->
<svg version="1.1" id="Слой_1" xmlns="http://www.w3.org/2000/svg" xmlns:xlink="http://www.w3.org/1999/xlink" x="0px" y="0px"
	 viewBox="0 0 130.4 98.6" style="enable-background:new 0 0 130.4 98.6;" xml:space="preserve">
<style type="text/css">
	.st0{fill-rule:evenodd;clip-rule:evenodd;}
	.st1{fill-rule:evenodd;clip-rule:evenodd;fill:#FFC22C;}
</style>
<path class="st0" d="M16.4,54.7l1.9,0.6l0.9,4.8l3-0.1c1.1-12,3.1-2.7,6-19.5l1.1-5.6c0-0.1,0.3-0.2,0.3-0.5
	c0.7-5.3,34-3.9,44.5,2.5c-0.7,13.5-3.9,23.3-6,35.5l33.7,0c-2-13-4.6-25.5-4.6-39.3l7.1,0l-0.1-17h-7C95,8.2,86.8,7.7,77.7,8.2
	c0-2.7,0-5.4,0-8.2h-2.2c0,2.8-0.1,5.6-0.1,8.4c-6.9,2.1-21.4,3.6-29.5,4.9C34.2,15.1,25.7,18.8,22.4,7l-8.2-0.1
	C14.2,16.2,13.2,48.2,16.4,54.7L16.4,54.7z"/>
<polygon class="st1" points="0,98.6 116.9,98.4 116.9,74.9 0,75.1 "/>
<path class="st0" d="M106,7.8c0,8.5-1.4,36.1,1.2,40.4l3.1,0.1c1.4-2.2,1-1.8,1.4-5.1l3.7-0.1l0.1-5.2l15,0.2l0-4.4l-15-0.1v-1.6
	l-4-0.1l0-25.1c-0.1-3.7-0.6-3.9-4.3-3.6C106.1,5.1,106,5,106,7.8L106,7.8z"/>
<path class="st0" d="M19.5,61.3l1.2,12.2c0.6-3.9,0.8-8.2,1.3-12.2L19.5,61.3z"/>
</svg>
