<?xml version="1.0" encoding="utf-8"?>
<!-- Generator: Adobe Illustrator 22.0.1, SVG Export Plug-In . SVG Version: 6.00 Build 0)  -->
<svg version="1.1" id="Слой_1" xmlns="http://www.w3.org/2000/svg" xmlns:xlink="http://www.w3.org/1999/xlink" x="0px" y="0px"
	 viewBox="0 0 25.6 18.1" style="enable-background:new 0 0 25.6 18.1;" xml:space="preserve">
<style type="text/css">
	.st0{fill:#FFC22D;}
</style>
<g>
	<path d="M3.9,15.1c0-0.4,0-0.7,0.1-1.1c0.1-0.8,0.3-1.7,0.5-2.5c0.1-0.4,0.2-0.8,0.4-1.2C5,10,5.2,9.6,5.3,9.2
		c0.4-0.7,0.8-1.4,1.3-2c0.1-0.1,0.2-0.3,0.3-0.4c0.1-0.1,0.3-0.3,0.4-0.4c0.3-0.2,0.5-0.5,0.7-0.7c0.5-0.4,1-0.8,1.4-1
		c0.4-0.3,0.8-0.5,1.2-0.6c0.7-0.3,1.1-0.4,1.1-0.4S11.4,4,10.9,4.5c-0.3,0.2-0.6,0.5-1,0.8C9.5,5.6,9.1,6,8.7,6.4
		C8.5,6.6,8.3,6.9,8.1,7.1C8,7.3,7.9,7.4,7.8,7.5C7.7,7.6,7.7,7.8,7.6,7.9C7.2,8.5,6.9,9.1,6.6,9.8c-0.1,0.3-0.2,0.7-0.4,1
		c-0.1,0.4-0.2,0.7-0.3,1.1c-0.2,0.8-0.3,1.5-0.4,2.3c0,0.3-0.1,0.6-0.1,0.9c6.3,0,11.2,0,18.1,0c0-0.3,0-0.6,0-0.9
		c0-5.8-4.2-10.5-9.6-11.1c0.3-0.3,0.6-0.8,0.6-1.3c0-1-0.8-1.8-1.8-1.8c-1,0-1.8,0.8-1.8,1.8c0,0.5,0.2,1,0.6,1.3
		C6.2,3.7,2,8.5,2,14.2c0,0.3,0,0.6,0,0.9H3.9z M3.9,15.1"/>
	<rect y="15.8" class="st0" width="25.6" height="2.3"/>
</g>
</svg>
