<?xml version="1.0" encoding="utf-8"?>
<!-- Generator: Adobe Illustrator 22.0.1, SVG Export Plug-In . SVG Version: 6.00 Build 0)  -->
<svg version="1.1" id="Слой_1" xmlns="http://www.w3.org/2000/svg" xmlns:xlink="http://www.w3.org/1999/xlink" x="0px" y="0px"
	 viewBox="0 0 760 339" style="enable-background:new 0 0 760 339;" xml:space="preserve">
<style type="text/css">
	.st0{clip-path:url(#SVGID_2_);}
	.st1{clip-path:url(#SVGID_2_);fill:#FFC22D;}
</style>
<g>
	<g>
		<defs>
			<rect id="SVGID_1_" x="0.1" y="0" width="759.8" height="339"/>
		</defs>
		<clipPath id="SVGID_2_">
			<use xlink:href="#SVGID_1_"  style="overflow:visible;"/>
		</clipPath>
		<path class="st0" d="M21.2,111.7c11,9.1,80.9,67.6,104.8,87.9c1.4,1.1,11.6,62.7,16.2,91.5c4.3,26.8,22.7,48.8,54.5,47.8
			c21.5-0.7,161.7-0.3,210.3,0c14.9,0.1,27.4-4.8,38.2-14.8c8-7.4,176.6-155.2,198.2-174c1.4-1.3,3.3-1.8,5.2-1.6l27.3,3.8
			c3.3,0.5,6.5-1.7,7.3-4.9l10.7-43.3c0.8-3.2-0.9-6.5-3.9-7.7l-60.3-24.2c-1.8-0.7-3.8-0.6-5.5,0.3c-16,8.4-98.7,51.7-119,62.9
			c0,0-28.4-20.3-41.1-29.3c-9.9-7-20.9-11.8-33.6-11.6c-26.4,0.3-81.5,0.1-82.8,0.1v-5.5c0-2.3,1.8-4.1,4.1-4.1h28.7
			c2.7,0,5-2.2,5-5V23.6c0-2.7-2.2-5-5-5l-151-0.1c-2.7,0-5,2.2-5,5l0,56.4c0,2.8,2.2,5,5,5h26.4c2.3,0,4.1,1.8,4.1,4.1v5.3l-60.4,0
			c0,0-104.3-86-113.5-89.5C71.4-0.9,56.5-1.9,41.5,4C24.2,10.8,12.8,23.4,5.4,40.1C-5.7,65.2,0.8,94.7,21.2,111.7L21.2,111.7z
			 M182.9,129.9c40.6-0.3,81.2-0.1,121.9-0.1c40.5,0,81,0,121.5,0c0.3,0,0.5,0,0.8,0c5.1-0.2,5.5,7.6,0.4,8
			c-39.8,3.5-182.2,14.7-217.3,17.5c-4.5,0.4-8.1,4-8.4,8.5c0,0-8.8,124.9-8.8,125.2c-0.2,3.4-4.5,5.7-7.7,5.5
			c-4.5-0.3-4.7-3.2-5.2-7c-0.9-6.7-1.7-13.3-2.6-20c-2.4-18.6-4.8-37.1-7.2-55.6c-2.5-19.5-4.5-39.2-7.7-58.6
			C160.3,138.8,169.5,130,182.9,129.9L182.9,129.9z M35.8,54.3c7.2-17.7,28.3-27.6,44.7-14.2c0.2,0.1,70.2,57.5,70.2,57.5
			c-22.5,10.8-34.4,27.2-30.2,53.4c-5-4.2-56-46.8-76.9-64.5C33.8,78.2,31,66.1,35.8,54.3L35.8,54.3z M35.8,54.3"/>
		<path class="st1" d="M723.6,160.5c-3.4-3.6-7.1-6.8-11.3-9.4c-4-2.5-8.9,0.9-8.4,5.5c1.2,10.3-1.1,20-5.7,29.4
			c-13.5,27.9-40.4,62.5-16.4,92.5c13.9,17.4,42.1,22.1,59.8,8.6c15.1-11.4,20.3-32.3,17.8-51C756,210.2,741.4,179.4,723.6,160.5
			L723.6,160.5z M723.6,160.5"/>
	</g>
</g>
</svg>
