<?xml version="1.0" encoding="utf-8"?>
<!-- Generator: Adobe Illustrator 22.0.1, SVG Export Plug-In . SVG Version: 6.00 Build 0)  -->
<svg version="1.1" id="Слой_1" xmlns="http://www.w3.org/2000/svg" xmlns:xlink="http://www.w3.org/1999/xlink" x="0px" y="0px"
	 viewBox="0 0 600 576" style="enable-background:new 0 0 600 576;" xml:space="preserve">
<style type="text/css">
	.st0{clip-path:url(#SVGID_2_);fill:#FFC22C;}
	.st1{clip-path:url(#SVGID_2_);fill:#1E120D;}
</style>
<g>
	<defs>
		<rect id="SVGID_1_" y="0" width="600" height="576"/>
	</defs>
	<clipPath id="SVGID_2_">
		<use xlink:href="#SVGID_1_"  style="overflow:visible;"/>
	</clipPath>
	<path class="st0" d="M578.8,279.5c-14.2-2.9-28.4,6.6-31.3,20.7l-13.9,68.6c-0.3,0.4-0.6,0.8-1,1.1c-1.6,1.8-3.4,3-5.8,1.8
		c-2.5-1.3-3.2-3.4-2.6-6.1c0.1-0.5,0.2-1.1,0.3-1.6c7.6-37.9,44.3-218.6,55-271.1c1.4-6.6,0.6-12.8-2.7-18.8
		c-5.3-9.6-13.6-14.3-24.2-14.2c-13.1,0.1-23,9-25.8,22.3c-5.6,27.5-27,132.5-32.1,157.5c-0.8,3.7-2.8,5.4-5.9,4.8
		c-3-0.6-4.3-3-3.6-6.7c0.5-2.6,34.4-169.8,41.7-206.1c2.9-14.3-6.6-28.4-20.9-31.3c-14.6-2.9-28.8,6.2-31.7,20.6
		c-4.2,20.7-39.7,195.6-40.8,201.5c-0.5,2.4-1.6,4.2-4.1,4.7c-3.7,0.7-6.3-2.4-5.4-6.6c2.8-14.1,28.3-139.2,33.1-163.8
		c2.4-12.2-4-22.6-13.8-28c-15.8-8.7-35.4,0.6-39,18.3c-1.2,6-3.1,15.3-5.4,26.8c13.5,5.1,22.7,15.7,26.2,30.3
		c2.4,10.1,1.2,20.1-3.7,29.8c-13.7,27.1-48.1,94.9-77.8,153.7c0.5,0,1.1,0,1.6,0c6.6,0,13.2,1.6,19,4.5
		c10.1,5.1,17.6,13.9,21.1,24.7c3.6,10.9,2.7,22.4-2.4,32.4l-1.5,3l-0.3,0.6l-8.7,17.3l-8.7,17.3c-2.5,4.9-5.1,9.9-7.5,14.6
		c-4.9,9.4-9.9,19-14.3,28.6c-2.2,4.8-4.5,9-7,13.1c-12.1,20-28.8,33.4-52.3,42.4c-2.1,0.8-4.1,1.5-6.2,2.2
		c2.5,8.7,5.1,15.2,6.8,19.1c0.9,2,1.1,4.2,0.7,6.4l-4.2,20.7c-1.2,5.8,2.6,11.4,8.3,12.5c0,0,50.6,2.9,67.3,6.3
		c18.5,3.7,73.3,22.2,73.3,22.2c5.8,1.2,11.4-2.6,12.6-8.3l7-34.3c0.1-0.5,0.3-1.1,0.5-1.6c0.3-0.7,0.5-1.4,0.7-2.2
		c1.4-5.3,4.1-9.5,7.9-13.1c25.4-23.9,59.8-35.9,88-56.5c17.8-13,27.8-27.3,33.2-46.2c1.2-4,2.1-8.3,2.9-12.8
		c2.7-16.1,6.5-32,9.7-48c6.5-32,1.2-5.9,7.7-38c0.3-1.3,0.5-2.6,0.8-3.9C602.4,296.6,592.9,282.4,578.8,279.5L578.8,279.5z
		 M578.8,279.5"/>
	<path class="st1" d="M138.6,553.5c3.9,0,7.6-2.1,9.5-5.8l15.8-31.2c0.3-0.5,0.5-1,0.9-1.4c0.4-0.6,0.9-1.3,1.3-1.9
		c2.7-4.7,6.5-8.1,11.1-10.6c29.4-15.6,64-18.6,95.4-29.6c1.5-0.5,2.9-1,4.4-1.6c20.6-7.8,34.1-18.9,44.3-35.7
		c2.2-3.6,4.2-7.4,6.1-11.6c6.9-14.8,14.7-29.1,22.1-43.7c14.7-29.2,2.7-5.4,17.5-34.6c0.6-1.2,1.2-2.4,1.8-3.6
		c6.5-12.9,1.2-29.1-11.7-35.6c-3.8-1.9-7.8-2.8-11.8-2.8c-9.7,0-19.2,5.3-23.9,14.5l-31.6,62.5c-0.4,0.3-0.8,0.6-1.2,0.8
		c-1.1,0.8-2.3,1.3-3.5,1.3c-0.9,0-1.8-0.3-2.7-1.1c-2.1-1.9-2.2-4.2-0.9-6.6c0.3-0.5,0.5-1,0.8-1.5c10.6-21,45.7-90.3,76.9-152.1
		c5.7-11.2,11.2-22.1,16.5-32.5c13.3-26.3,24.7-48.8,31.5-62.2c3.1-6,4-12.2,2.4-18.8c-2-8.5-6.8-14.6-13.9-18
		c-1.8-0.9-3.7-1.6-5.7-2.1c-2.4-0.6-4.7-0.9-7-0.9c-1.8,0-3.5,0.2-5.2,0.6c-7.7,1.7-14.4,7-18.5,15c-8.4,16.5-32.4,63.9-51,100.6
		c-9.6,18.9-17.7,35-21.6,42.7c-1.2,2.4-2.8,3.7-4.7,3.7c-0.7,0-1.5-0.2-2.2-0.6c-2.7-1.3-3.3-4-1.7-7.4
		c0.5-1.1,17.6-34.8,37.3-73.9c16-31.6,33.8-66.8,45.9-90.8c5-9.8,9-17.8,11.6-23c6.6-13,1.2-29.1-11.9-35.7c-4-2-8.2-2.9-12.3-2.9
		c-9.7,0-19,5.3-23.7,14.4c-9.5,18.8-90.1,178.1-92.8,183.4c-1,2-2.5,3.4-4.8,3.4c-0.2,0-0.3,0-0.5,0c-3.7-0.3-5.4-3.9-3.5-7.8
		C230,196,287.7,82.1,298.9,59.7c5.5-11.1,2.1-22.9-5.9-30.6c-5.2-5.1-11.8-7.5-18.4-7.5c-9.6,0-19.2,5.2-24.1,14.9
		c-14.2,27.9-69.7,137.8-83.4,164.8c-1.2,2.4-2.9,3.6-4.7,3.6c-0.7,0-1.5-0.2-2.3-0.6c-2.7-1.4-3.3-3.9-1.7-7.2
		c5.9-11.9,42.6-83.8,54.6-108.1c6.6-13.4,0.8-29.1-12.6-35.6c-3.8-1.8-7.8-2.7-11.7-2.7c-9.7,0-19,5.3-23.8,14.6
		C160.8,73,37.1,319,35.4,323.1C5.4,382.3,9.4,432.6,11.7,448.1c0.3,2.2,0,4.4-1,6.4l-9.5,18.8c-2.7,5.2-0.5,11.7,4.7,14.3
		c0,0,52.4,14.8,67.9,22.6c16.5,8.3,60,42.1,60,42.1C135.4,553.1,137,553.5,138.6,553.5L138.6,553.5z M138.6,553.5"/>
</g>
</svg>
