<svg width="160" height="17" viewBox="0 0 160 17" fill="none" xmlns="http://www.w3.org/2000/svg">
<g clip-path="url(#clip0_534_4403)">
<path d="M98.9727 15.6498V2.50124H94.042V0.0498047H106.667V2.50124H101.736V15.6498H98.9727Z" fill="#848484"/>
<path d="M79.5547 15.6498V0.0498047H85.6752C86.9931 0.0498047 88.1195 0.272662 89.0544 0.718379C90.0038 1.16409 90.7339 1.80295 91.2438 2.63495C91.7536 3.46695 92.0091 4.45495 92.0091 5.59893C92.0091 6.74293 91.7536 7.73093 91.2438 8.56293C90.7339 9.38011 90.0038 10.0115 89.0544 10.4572C88.9883 10.4878 88.9211 10.5173 88.8528 10.5457L92.264 15.6498H89.2886L86.2576 11.0889C86.0678 11.0987 85.8736 11.1035 85.6752 11.1035H82.3174V15.6498H79.5547ZM82.3174 8.71893H85.5478C86.7664 8.71893 87.68 8.44411 88.2896 7.89437C88.9131 7.34468 89.2246 6.5795 89.2246 5.59893C89.2246 4.60352 88.9131 3.83838 88.2896 3.30352C87.68 2.76866 86.7664 2.50124 85.5478 2.50124H82.3174V8.71893Z" fill="#848484"/>
<path d="M60.4673 15.6498L67.1622 0.0498047H69.8822L76.5985 15.6498H73.7078L72.2294 12.0395L71.7638 10.9029L71.2982 9.76637L68.5019 2.93916L65.7158 9.76637H71.2982L71.7638 10.9029L72.2294 12.0395H64.7884L63.3153 15.6498H60.4673Z" fill="#848484"/>
<path d="M52.4894 15.6498V2.50124H47.5586V0.0498047H60.183V2.50124H55.2523V15.6498H52.4894Z" fill="#848484"/>
<path d="M39.8972 15.6498C38.7353 15.6498 37.623 15.4837 36.5604 15.1515C35.4977 14.8048 34.6547 14.3643 34.0312 13.8298L34.9877 11.6415C35.5827 12.1181 36.3195 12.5154 37.198 12.8331C38.0765 13.1509 38.9762 13.3098 39.8972 13.3098C40.6764 13.3098 41.3069 13.2231 41.7887 13.0498C42.2704 12.8765 42.6246 12.6454 42.8514 12.3565C43.078 12.0531 43.1914 11.7137 43.1914 11.3381C43.1914 10.8759 43.0285 10.5076 42.7026 10.2331C42.3767 9.94426 41.9516 9.72035 41.4274 9.56149C40.9173 9.38812 40.3435 9.22926 39.7059 9.08481C39.0824 8.94035 38.4519 8.77426 37.8143 8.58649C37.1909 8.38426 36.6171 8.13149 36.0928 7.82812C35.5827 7.51035 35.1647 7.09149 34.8389 6.57149C34.513 6.05149 34.3501 5.38703 34.3501 4.57814C34.3501 3.75481 34.5626 3.0037 34.9877 2.32481C35.4269 1.63147 36.0858 1.08258 36.9642 0.678136C37.8569 0.259249 38.9832 0.0498047 40.3435 0.0498047C41.2361 0.0498047 42.1216 0.165361 43.0001 0.396472C43.8786 0.627582 44.6437 0.959805 45.2955 1.39314L44.4241 3.58147C43.7581 3.17703 43.071 2.88091 42.3625 2.69314C41.6541 2.49091 40.974 2.38981 40.3222 2.38981C39.5571 2.38981 38.9336 2.48369 38.4519 2.67147C37.9844 2.85925 37.6372 3.10481 37.4105 3.40814C37.198 3.71147 37.0917 4.05814 37.0917 4.44814C37.0917 4.91036 37.2476 5.28589 37.5593 5.57481C37.8852 5.84926 38.3031 6.06589 38.8132 6.22481C39.3375 6.38372 39.9184 6.54258 40.556 6.70149C41.1936 6.84589 41.8241 7.01203 42.4475 7.19981C43.0851 7.38758 43.659 7.63312 44.1691 7.93649C44.6933 8.23981 45.1112 8.65149 45.423 9.17149C45.7488 9.69149 45.9118 10.3487 45.9118 11.1431C45.9118 11.952 45.6922 12.7031 45.253 13.3965C44.8279 14.0754 44.1691 14.6243 43.2764 15.0431C42.3838 15.4476 41.2573 15.6498 39.8972 15.6498Z" fill="#848484"/>
<path d="M16.1648 15.6498L22.8596 0.0498047H25.58L32.296 15.6498H29.4055L27.9269 12.0395L27.4613 10.9029L26.9958 9.76637L24.1995 2.93916L21.4135 9.76637H26.9958L27.4613 10.9029L27.9269 12.0395H20.486L19.0127 15.6498H16.1648Z" fill="#848484"/>
<path d="M0 15.6498V0.0498047H2.2741L10.4779 10.6116V0.0498047H13.2195V15.6498H10.9454L2.74167 5.088V15.6498H0Z" fill="#848484"/>
<path d="M148.751 15.6498V5.28309V0.0498047H154.466C155.942 0.0498047 157.102 0.38409 157.947 1.05266C158.806 1.72124 159.235 2.70924 159.235 4.01666C159.235 4.86352 159.047 5.57668 158.672 6.15611C158.31 6.7355 157.8 7.16637 157.142 7.44868C156.988 7.51643 156.828 7.57603 156.661 7.62751C157.109 7.70551 157.51 7.82417 157.867 7.9835C158.565 8.2955 159.094 8.74868 159.456 9.34293C159.819 9.93724 160 10.6727 160 11.5492C160 12.8567 159.57 13.8669 158.712 14.5801C157.867 15.2932 156.585 15.6498 154.868 15.6498H148.751ZM149.435 14.9812H154.909C156.344 14.9812 157.438 14.7064 158.189 14.1567C158.94 13.5921 159.316 12.7155 159.316 11.5269C159.316 10.3235 158.94 9.44693 158.189 8.89724C157.438 8.33268 156.344 8.05037 154.909 8.05037H149.325L149.314 7.40411H154.486C155.774 7.40411 156.773 7.12181 157.485 6.55724C158.209 5.99268 158.571 5.16066 158.571 4.06124C158.571 2.96181 158.209 2.12981 157.485 1.56524C156.773 1.00066 155.774 0.718379 154.486 0.718379H149.435V5.28309H148.751V6.34357V7.40411H149.314L149.435 14.9812Z" fill="#848484"/>
<path d="M135.992 14.9589H144.827V15.6498H135.308V0.0498047H144.545V0.740661H135.992V5.25558H135.308V7.38181H143.64V8.07268H135.992V14.9589Z" fill="#848484"/>
<path d="M116.81 15.6498L112 0.0498047H112.724L117.353 15.1372L117.514 15.6498L118.658 12.0076L118.324 10.9204L121.76 0.0498047H122.424L127.001 14.588L127.329 15.6498L128.474 12.0202L128.133 10.9142L131.48 0.0498047H132.164L128.474 12.0202L127.329 15.6498H126.67L122.002 0.852092H122.163L118.658 12.0076L117.514 15.6498H116.81Z" fill="#848484"/>
</g>
<defs>
<clipPath id="clip0_534_4403">
<rect width="160" height="16" fill="white" transform="translate(0 0.0498047)"/>
</clipPath>
</defs>
</svg>
