<svg width="169" height="46" viewBox="0 0 169 46" fill="none" xmlns="http://www.w3.org/2000/svg">
<g clip-path="url(#clip0_530_6865)">
<path d="M132 8.5H161V37.5H132V35.5H124V45.5H169V0.5H124V10.5H132V8.5Z" fill="#F7501C"/>
<path d="M23.0078 15V31.5H18.4538V16.98L20.5108 19.037H8.03681L10.0938 16.98V31.5H5.52881V15H23.0078ZM28.8289 15H45.0099V31.5H40.4449V16.98L42.5019 19.037H31.3809L33.2949 17.53C33.5002 19.3413 33.6029 21.105 33.6029 22.821C33.6029 24.955 33.4085 26.682 33.0199 28.002C32.6385 29.3147 32.0409 30.2827 31.2269 30.906C30.4129 31.5293 29.3495 31.841 28.0369 31.841C27.4575 31.841 26.8929 31.7787 26.3429 31.654C25.7929 31.5293 25.2942 31.3533 24.8469 31.126V27.342C25.4849 27.5913 26.0789 27.716 26.6289 27.716C27.2669 27.716 27.7802 27.529 28.1689 27.155C28.5649 26.7737 28.8509 26.1797 29.0269 25.373C29.2102 24.5663 29.3019 23.4993 29.3019 22.172C29.3019 20.2507 29.1442 17.86 28.8289 15ZM48.0679 31.5V15H52.5779V29.091L51.3129 28.827L60.6629 15H66.6249V31.5H62.1149V17.145L63.3909 17.409L53.8649 31.5H48.0679ZM74.8621 17.002H79.4271V31.5H74.8621V17.002ZM68.5701 15H85.7191V19.059H68.5701V15ZM87.6636 31.5V15H92.2286V29.96L90.1826 27.903H96.6176C97.1089 27.903 97.5306 27.8187 97.8826 27.65C98.2419 27.4813 98.5132 27.243 98.6966 26.935C98.8872 26.6197 98.9826 26.2457 98.9826 25.813C98.9826 25.3803 98.8872 25.0063 98.6966 24.691C98.5132 24.3757 98.2419 24.1337 97.8826 23.965C97.5306 23.7963 97.1089 23.712 96.6176 23.712H89.7756V20.115H96.8926C98.2639 20.115 99.4556 20.3497 100.468 20.819C101.48 21.2883 102.253 21.952 102.789 22.81C103.324 23.668 103.592 24.669 103.592 25.813C103.592 26.9497 103.324 27.947 102.789 28.805C102.253 29.663 101.48 30.3267 100.468 30.796C99.4556 31.2653 98.2639 31.5 96.8926 31.5H87.6636ZM104.956 15H109.521V31.5H104.956V15ZM117.229 20.94C117.325 19.664 117.75 18.553 118.505 17.607C119.268 16.6537 120.284 15.9203 121.552 15.407C122.828 14.8937 124.266 14.637 125.864 14.637C127.36 14.637 128.684 14.868 129.835 15.33C130.987 15.792 131.878 16.4373 132.508 17.266C133.146 18.0947 133.465 19.048 133.465 20.126C133.465 20.9693 133.238 21.754 132.783 22.48C132.329 23.1987 131.617 23.9063 130.649 24.603C129.689 25.2923 128.416 26.022 126.832 26.792L122.3 29.069L122.124 27.892H133.916V31.5H117.581V28.332L124.665 24.339C125.817 23.6937 126.689 23.162 127.283 22.744C127.877 22.3187 128.295 21.9263 128.537 21.567C128.787 21.2077 128.911 20.8153 128.911 20.39C128.911 19.9427 128.787 19.5503 128.537 19.213C128.295 18.8757 127.932 18.6153 127.448 18.432C126.972 18.2413 126.389 18.146 125.699 18.146C124.849 18.146 124.141 18.2707 123.576 18.52C123.012 18.762 122.583 19.092 122.289 19.51C122.003 19.928 121.835 20.4047 121.783 20.94H117.229ZM150.437 15V31.5H145.927V17.002H147.313L138.733 26.473L138.711 25.043H153.077V28.42H135.389V25.208L144.673 15H150.437Z" fill="black"/>
</g>
<defs>
<clipPath id="clip0_530_6865">
<rect width="169" height="45" fill="white" transform="translate(0 0.5)"/>
</clipPath>
</defs>
</svg>
