<svg width="115" height="24" viewBox="0 0 115 24" fill="none" xmlns="http://www.w3.org/2000/svg">
<g clip-path="url(#clip0_461_7659)">
<path d="M96.2045 10.0958C96.9724 6.89201 99.2835 4.94811 102.566 4.94811C105.851 4.94811 108.122 6.85601 108.647 10.0958H96.2045ZM114.159 11.7158C114.159 5.19169 109.093 0.00195312 102.524 0.00195312C95.7161 0.00195312 90.6895 5.35369 90.6895 12.0829C90.6895 18.7702 95.8373 24.0008 102.566 24.0008C107.352 24.0008 111.97 20.7585 113.429 16.1771H107.757C106.662 18.1642 104.758 19.0534 102.566 19.0534C100.338 19.0534 98.3103 17.9195 97.0948 16.056C96.7708 15.5664 96.4864 15.0408 96.3664 14.436H113.835C114.037 13.5433 114.159 12.6085 114.159 11.7158Z" fill="white"/>
<path d="M92.5551 0.00195312C89.8792 0.00195312 88.7825 0.570725 87.2849 2.75822H87.2045V0.772315H82.2488V23.2748H87.6365V10.6238C87.6365 7.33959 89.0045 5.35249 92.5323 5.23009V0.00195312H92.5551ZM70.3394 19.0534C66.4468 19.0534 63.7337 15.8112 63.7337 12.0386C63.7337 8.39073 66.5296 4.94691 70.3334 4.94691C74.1372 4.94691 76.8611 8.47473 76.8611 12.0817C76.8611 15.7728 74.1372 19.0534 70.3334 19.0534H70.3394ZM70.3334 0.00195312C63.6857 0.00195312 58.334 5.43768 58.334 12.0398C58.334 18.6082 63.7577 24.0008 70.3334 24.0008C77.137 24.0008 82.2488 18.769 82.2488 11.9606C82.2488 5.36089 76.9691 0.00915278 70.3214 0.00915278" fill="white"/>
<path d="M47.7555 19.0526C43.7441 19.0526 40.9854 15.8908 40.9854 12.0006C40.9854 8.15119 43.5053 4.94735 47.5131 4.94735C50.0329 4.94735 51.5689 6.12329 52.7448 8.23159H58.8285C57.1606 3.24704 52.7808 0 47.5131 0C40.9494 0 35.5977 5.35173 35.5977 11.919C35.5977 18.5283 40.9134 24 47.5611 24C52.8768 24 57.0526 20.8802 58.8285 15.934H52.7448C51.6169 17.7555 49.9489 19.0539 47.765 19.0539" fill="white"/>
<path d="M33.5305 3.12224C31.9466 1.21674 29.2311 0 26.7592 0C24.1674 0 22.383 0.974351 20.5975 2.71786V0.763162H10.518C14.9242 2.43108 17.9577 6.66447 17.9577 11.7066C17.9577 12.6006 17.8353 13.5353 17.6337 14.4269H0.160156C0.28255 15.0328 0.565736 15.5584 0.88852 16.0468C2.10406 17.9115 4.13316 19.0466 6.36265 19.0466C8.55014 19.0466 10.4568 18.1551 11.5512 16.1668H17.2269C16.183 19.4666 13.4951 22.0645 10.2793 23.2668H21.0067V12.5706C21.0067 10.9087 21.0067 8.35398 21.9787 6.93565C22.7946 5.75971 24.2466 4.94975 25.6745 4.94975C29.6943 4.94975 30.2223 9.04155 30.2223 12.1614V23.2728H35.61V10.7827C35.61 8.14759 35.2944 5.22694 33.5461 3.11864" fill="white"/>
<path d="M6.36568 4.94727C3.08025 4.94727 0.769162 6.89117 0 10.095H12.4434C11.9154 6.85517 9.64512 4.94727 6.36448 4.94727" fill="white"/>
</g>
</svg>
