<svg width="200" height="102" viewBox="0 0 200 102" fill="none" xmlns="http://www.w3.org/2000/svg">
<g clip-path="url(#clip0_620_6664)">
<path d="M7.24873 95.6206V94.9816C7.24873 93.857 7.24873 92.7261 7.27748 91.5983L8.47878 91.4609V90.9273H2.16558V91.4609L3.36687 91.6238C3.12725 95.2276 2.15599 97.4704 0.810923 99.0168H0.0888672L0.165546 102.014H0.913161L1.26141 99.6781H7.50432L7.79506 102.014H8.54268L8.61935 99.0168H7.27748C7.25512 97.8986 7.24873 96.7676 7.24873 95.6206ZM1.76621 99.0104C2.96431 97.6014 3.90682 95.2308 4.17839 91.5823H5.9995C6.02187 92.6973 6.02826 93.8187 6.02826 94.9752V95.6142C6.02826 96.7388 6.02826 97.8762 5.9995 99.004L1.76621 99.0104Z" fill="#303030"/>
<path d="M13.4218 90.7219C11.3994 90.7219 9.41211 92.4248 9.41211 95.2969C9.41211 98.281 11.3866 99.8688 13.4218 99.8688C15.4569 99.8688 17.4186 98.1691 17.4186 95.2969C17.4186 92.3129 15.4442 90.7219 13.4218 90.7219ZM13.4218 99.2107C11.607 99.2107 10.8402 97.2682 10.8402 95.2969C10.8402 93.3257 11.607 91.396 13.4218 91.396C15.2365 91.396 15.9777 93.3385 15.9777 95.3129C15.9777 97.2874 15.2365 99.2107 13.4218 99.2107Z" fill="#303030"/>
<path d="M27.7059 95.6218V94.9829C27.7059 93.8391 27.7059 92.7113 27.7347 91.5995L28.9328 91.4621V90.9286H26.3513L23.5813 98.1298L20.6547 90.9286H18.233V91.4621L19.4055 91.6091V98.9797L18.2266 99.1458V99.6793H21.1563V99.1458L20.0828 98.9828V94.8615L20.0157 92.3567L23.003 99.6697H23.6643L26.4983 92.3567V95.6346C26.4983 96.7624 26.4983 97.8902 26.4727 98.9988L25.3704 99.1362V99.6697H28.936V99.1362L27.7347 98.9988C27.7123 97.8774 27.7059 96.7464 27.7059 95.6218Z" fill="#303030"/>
<path d="M42.55 95.6204V94.9814C42.55 93.8376 42.55 92.7098 42.5755 91.598L43.7736 91.4607V90.9271H41.1953L38.4221 98.1284L35.4891 90.9207H33.0738V91.4543L34.2495 91.6012V98.9718L33.0674 99.1379V99.6715H36.0003V99.1379L34.9268 98.975V94.8536L34.8502 92.3552L37.8374 99.6683H38.4988L41.3423 92.3552V95.6332C41.3423 96.7609 41.3423 97.8887 41.3135 98.9974L40.2145 99.1347V99.6683H43.78V99.1347L42.5787 98.9974C42.5532 97.876 42.55 96.745 42.55 95.6204Z" fill="#303030"/>
<path d="M50.7477 99.0114H47.4185C47.3962 97.89 47.393 96.7462 47.393 95.497H49.3387L49.5048 96.727H50.1023V93.644H49.5048L49.3291 94.8868H47.393C47.393 93.7654 47.393 92.6504 47.4217 91.5705H50.4953L50.7828 93.2319H51.5368L51.4442 90.9092H44.9297V91.4427L46.131 91.5801C46.1533 92.7079 46.1597 93.8389 46.1597 94.9635V95.6025C46.1597 96.743 46.1597 97.874 46.131 98.9826L44.9297 99.12V99.6536H51.6998L51.7924 97.3309H51.0384L50.7477 99.0114Z" fill="#303030"/>
<path d="M59.4704 95.6206V94.9816C59.4704 93.857 59.4704 92.7261 59.496 91.5983L60.6973 91.4609V90.9273H54.3841V91.4609L55.5854 91.6238C55.3457 95.2276 54.3745 97.4704 53.0294 99.0168H52.3105L52.3872 102.014H53.1348L53.4863 99.6781H59.7292L60.0167 102.014H60.7676L60.841 99.0168H59.4992C59.4736 97.8986 59.4704 96.7676 59.4704 95.6206ZM53.9879 99.0104C55.1828 97.6014 56.1285 95.2372 56.3841 91.5823H58.2052C58.2308 92.6973 58.234 93.8187 58.234 94.9752V95.6142C58.234 96.7388 58.234 97.8762 58.2052 99.004L53.9879 99.0104Z" fill="#303030"/>
<path d="M68.6561 90.9207H67.4292V91.4543L68.6625 91.598V92.1316L64.311 97.4958V94.975C64.311 93.8312 64.311 92.7034 64.3397 91.5916L65.5378 91.4543V90.9207H61.8477V91.4543L63.049 91.5916C63.0713 92.7194 63.0777 93.8504 63.0777 94.975V95.614C63.0777 96.7546 63.0777 97.8855 63.049 98.9942L61.8477 99.1315V99.6651H65.5346V99.1315L64.3046 98.991V98.4351L68.6529 93.1028V95.3616C68.6529 96.713 68.6529 97.8792 68.6305 98.9942L67.426 99.1315V99.6651H71.113V99.1315L69.9149 98.9942C69.8893 97.8696 69.8861 96.7354 69.8861 95.614V94.975C69.8861 93.8312 69.8861 92.7034 69.9149 91.5916L71.113 91.4543V90.9207H68.6593H68.6561Z" fill="#303030"/>
<path d="M79.944 95.6206V94.9816C79.944 93.857 79.944 92.7261 79.9727 91.5983L81.174 91.4609V90.9273H77.487V91.4609L78.682 91.5983C78.7043 92.7101 78.7107 93.8347 78.7107 94.9816V95.6206C78.7107 96.7452 78.7107 97.8826 78.682 99.0104H74.7682C74.7458 97.8986 74.7426 96.774 74.7426 95.6206V94.9816C74.7426 93.857 74.7426 92.7261 74.7682 91.5983L75.9631 91.4609V90.9273H72.2793V91.4609L73.4774 91.5983C73.4998 92.7101 73.5062 93.8347 73.5062 94.9816V95.6206C73.5062 96.742 73.5062 97.8762 73.4774 99.0008L72.2793 99.1382V99.6717H80.1868L80.436 102.007H81.1772L81.3082 99.0104H79.9663C79.9503 97.8986 79.944 96.7676 79.944 95.6206Z" fill="#303030"/>
<path d="M89.1676 90.9224H87.9216V91.456L89.1548 91.5997V92.1333L84.8065 97.4975V94.9767C84.8065 93.833 84.8065 92.7052 84.8353 91.5933L86.0366 91.456V90.9224H82.3496V91.456L83.5477 91.5933C83.5701 92.7211 83.5765 93.8521 83.5765 94.9767V95.6157C83.5765 96.7563 83.5765 97.8873 83.5477 98.9959L82.3496 99.1333V99.6668H86.0366V99.1333L84.8033 98.9927V98.4368L89.1676 93.1109V95.3697C89.1676 96.7211 89.1676 97.8872 89.1452 99.0023L87.9376 99.1396V99.6732H91.6277V99.1396L90.4264 99.0023C90.4041 97.8777 90.3977 96.7435 90.3977 95.6221V94.9831C90.3977 93.8393 90.3977 92.7116 90.4264 91.5997L91.6277 91.4624V90.9288H89.1676V90.9224Z" fill="#303030"/>
<path d="M99.4107 90.9207H98.2253V91.4543L99.4202 91.5916C99.4426 92.6907 99.449 93.7929 99.449 94.8856H95.2285C95.2285 93.7737 95.2285 92.6747 95.2572 91.5916L96.4521 91.4543V90.9207H92.7588V91.4543L93.9601 91.5916C93.9825 92.7194 93.9856 93.8504 93.9856 94.975V95.614C93.9856 96.7546 93.9856 97.8855 93.9601 98.9942L92.7588 99.1315V99.6651H96.4458V99.1315L95.2445 98.9942C95.2221 97.8983 95.2221 96.7578 95.2221 95.4798H99.449C99.449 96.7769 99.449 97.9079 99.4266 98.9942L98.2253 99.1315V99.6651H101.912V99.1315L100.711 98.9942C100.689 97.8696 100.685 96.7354 100.685 95.614V94.975C100.685 93.8312 100.685 92.7034 100.711 91.5916L101.912 91.4543V90.9207H99.4107Z" fill="#303030"/>
<path d="M108.861 98.8525C108.374 99.0879 107.84 99.2102 107.299 99.2104C105.506 99.2104 104.232 97.8525 104.232 95.2966C104.232 92.7407 105.647 91.3957 107.391 91.3957C107.863 91.4 108.325 91.5266 108.733 91.7631L108.992 93.2711H109.804L109.749 91.3542C108.978 90.9244 108.108 90.7041 107.225 90.7152C104.669 90.7152 102.807 92.6481 102.807 95.2902C102.807 97.9803 104.596 99.8621 107.232 99.8621C108.154 99.8735 109.065 99.6538 109.88 99.2231L109.931 97.3222H109.123L108.861 98.8525Z" fill="#303030"/>
<path d="M116.913 96.9027C116.616 95.9953 116.031 95.4937 115.021 95.2861C115.545 95.0401 115.897 94.5672 116.341 93.5449C116.544 93.0413 116.785 92.5533 117.06 92.0848C117.271 92.1213 117.485 92.1405 117.699 92.1423C118.338 92.1423 118.622 91.7462 118.622 91.4075C118.622 91.2218 118.55 91.0434 118.42 90.9104C118.291 90.7773 118.114 90.7 117.929 90.695C117.149 90.8037 116.587 91.2605 115.791 93.2797C115.184 94.8292 114.833 95.0241 113.874 95.0241H113.472C113.472 93.7909 113.472 92.6695 113.497 91.5896L114.695 91.4522V90.9187H111.012V91.4522L112.213 91.5896C112.235 92.7174 112.242 93.8484 112.242 94.973V95.612C112.242 96.7525 112.242 97.8835 112.213 98.9921L111.012 99.1295V99.6631H114.699V99.1295L113.501 98.9921C113.478 97.9027 113.475 96.7941 113.475 95.6151H114.031C114.919 95.6151 115.414 95.8899 115.628 96.6279L116.322 98.9602C116.507 99.5992 116.935 99.7972 117.785 99.7972C118.181 99.802 118.576 99.7569 118.961 99.6631V99.1295L117.619 98.9985L116.913 96.9027Z" fill="#303030"/>
<path d="M123.209 90.7235C121.19 90.7235 119.199 92.4263 119.199 95.2985C119.199 98.2825 121.177 99.8704 123.209 99.8704C125.241 99.8704 127.206 98.1707 127.206 95.2985C127.206 92.3145 125.231 90.7235 123.209 90.7235ZM123.209 99.2123C121.397 99.2123 120.627 97.2698 120.627 95.2985C120.627 93.3273 121.397 91.3976 123.209 91.3976C125.02 91.3976 125.781 93.3401 125.781 95.3145C125.781 97.2889 125.024 99.2123 123.209 99.2123Z" fill="#303030"/>
<path d="M134.899 90.9207H133.666V91.4543L134.899 91.598V92.1316L130.548 97.4958V94.975C130.548 93.8312 130.548 92.7034 130.576 91.5916L131.778 91.4543V90.9207H128.091V91.4543L129.292 91.5916C129.314 92.7194 129.321 93.8504 129.321 94.975V95.614C129.321 96.7546 129.321 97.8855 129.292 98.9942L128.091 99.1315V99.6651H131.781V99.1315L130.548 98.991V98.4351L134.896 93.1028V95.3616C134.896 96.713 134.896 97.8792 134.874 98.9942L133.669 99.1315V99.6651H137.356V99.1315L136.158 98.9942C136.136 97.8696 136.129 96.7354 136.129 95.614V94.975C136.129 93.8312 136.129 92.7034 136.158 91.5916L137.356 91.4543V90.9207H134.902H134.899Z" fill="#303030"/>
<path d="M131.028 87.9991C130.91 87.9942 130.794 88.0265 130.696 88.0913C130.598 88.1561 130.523 88.2502 130.481 88.3601C130.481 89.4304 131.37 90.2451 132.718 90.2451C134.066 90.2451 134.954 89.4304 134.954 88.3601C134.913 88.2502 134.838 88.1561 134.74 88.0913C134.642 88.0265 134.525 87.9942 134.408 87.9991C134.089 87.9991 133.785 88.2355 133.785 88.8394C133.783 89.0303 133.792 89.2212 133.811 89.4113C133.48 89.6079 133.103 89.7116 132.718 89.7116C132.333 89.7116 131.956 89.6079 131.625 89.4113C131.644 89.2212 131.652 89.0303 131.651 88.8394C131.651 88.2355 131.357 87.9991 131.028 87.9991Z" fill="#303030"/>
<path d="M145.607 90.7219C143.585 90.7219 141.598 92.4248 141.598 95.2969C141.598 98.281 143.572 99.8688 145.607 99.8688C147.642 99.8688 149.604 98.1691 149.604 95.2969C149.604 92.3129 147.633 90.7219 145.607 90.7219ZM145.607 99.2107C143.793 99.2107 143.026 97.2682 143.026 95.2969C143.026 93.3257 143.799 91.396 145.607 91.396C147.416 91.396 148.163 93.3385 148.163 95.3129C148.163 97.2874 147.422 99.2107 145.607 99.2107Z" fill="#303030"/>
<path d="M157.169 95.6218V94.9829C157.169 93.8583 157.169 92.7273 157.195 91.5995L158.396 91.4621V90.9286H152.099V91.4621L153.3 91.625C153.061 95.2289 152.089 97.4717 150.744 99.018H150.025L150.102 102.015H150.821L151.172 99.6793H157.415L157.703 102.015H158.454L158.527 99.018H157.211C157.172 97.8998 157.169 96.7688 157.169 95.6218ZM151.687 99.0116C152.882 97.6027 153.827 95.2384 154.083 91.5835H155.904C155.93 92.6985 155.933 93.8199 155.933 94.9765V95.6154C155.933 96.74 155.933 97.8774 155.904 99.0052L151.687 99.0116Z" fill="#303030"/>
<path d="M165.383 99.0121H162.05C162.028 97.8907 162.025 96.7469 162.025 95.4977H163.971L164.137 96.7277H164.737V93.6447H164.137L163.961 94.8875H162.025C162.025 93.7661 162.025 92.6511 162.054 91.5712H165.121L165.408 93.2326H166.162L166.07 90.9099H159.562V91.4434L160.763 91.5808C160.785 92.7086 160.792 93.8396 160.792 94.9642V95.6032C160.792 96.7437 160.792 97.8747 160.763 98.9833L159.562 99.1207V99.6543H166.332L166.424 97.3316H165.67L165.383 99.0121Z" fill="#303030"/>
<path d="M176.772 96.9179C176.661 96.4975 176.428 96.1192 176.103 95.83C175.778 95.5409 175.375 95.3537 174.945 95.2917C175.465 95.033 175.842 94.5473 176.277 93.5473C176.479 93.0502 176.714 92.5677 176.983 92.1033C177.167 92.1298 177.353 92.1437 177.539 92.1448C178.178 92.1448 178.465 91.7454 178.465 91.41C178.459 91.2214 178.381 91.0425 178.246 90.91C178.112 90.7775 177.932 90.7015 177.743 90.6975C177.028 90.8189 176.501 91.263 175.695 93.2822C175.101 94.7806 174.657 95.0266 173.75 95.0266H173.43C173.43 93.7806 173.43 92.6656 173.453 91.5985L174.657 91.4547V90.9212H171.063V91.4547L172.264 91.5953C172.286 92.6815 172.29 93.7965 172.29 95.0266H171.97C171.088 95.0266 170.631 94.7965 170.024 93.2822C169.216 91.263 168.692 90.8189 167.976 90.6975C167.788 90.7015 167.609 90.7777 167.475 90.9103C167.341 91.0428 167.263 91.2217 167.258 91.41C167.258 91.7295 167.536 92.1448 168.178 92.1448C168.365 92.1438 168.552 92.1299 168.737 92.1033C169.006 92.5673 169.242 93.0499 169.443 93.5473C169.877 94.5473 170.254 95.033 170.775 95.2917C170.346 95.356 169.944 95.544 169.619 95.8328C169.295 96.1216 169.061 96.4987 168.948 96.9179L168.226 99.0074L166.884 99.1384V99.6719C167.269 99.7657 167.664 99.8108 168.06 99.8061C168.909 99.8061 169.338 99.6112 169.523 98.969L170.229 96.6496C170.459 95.9115 170.976 95.624 171.826 95.624H172.29C172.29 96.8093 172.29 97.9211 172.264 98.9978L171.063 99.1384V99.6719H174.667V99.1384L173.465 98.9978C173.443 97.9052 173.44 96.7933 173.44 95.624H173.903C174.743 95.624 175.261 95.9115 175.501 96.6496L176.207 98.969C176.392 99.608 176.82 99.8061 177.67 99.8061C178.066 99.8108 178.461 99.7657 178.846 99.6719V99.1384L177.504 99.0074L176.772 96.9179Z" fill="#303030"/>
<path d="M186.096 95.6206V94.9816C186.096 93.857 186.096 92.7261 186.121 91.5983L187.323 91.4609V90.9273H181.009V91.4609L182.211 91.6238C181.971 95.2276 181 97.4704 179.655 99.0168H178.942L179.019 102.014H179.767L180.118 99.6781H186.361L186.649 102.014H187.396L187.473 99.0168H186.131C186.099 97.8986 186.096 96.7676 186.096 95.6206ZM180.613 99.0104C181.808 97.6014 182.754 95.2372 183.01 91.5823H184.831C184.856 92.6973 184.859 93.8187 184.859 94.9752V95.6142C184.859 96.7388 184.859 97.8762 184.831 99.004L180.613 99.0104Z" fill="#303030"/>
<path d="M192.167 94.5277C191.778 94.5277 191.366 94.5501 190.944 94.5916C190.944 93.5884 190.944 92.5916 190.973 91.6076L192.295 91.4543V90.9207H188.48V91.4543L189.682 91.5916C189.704 92.7194 189.707 93.8504 189.707 94.975V95.614C189.707 96.745 189.707 97.8823 189.685 98.9942L188.48 99.1315V99.6651H191.915C194.33 99.6651 195.286 98.5022 195.286 97.0453C195.286 95.5884 194.11 94.5277 192.167 94.5277ZM191.752 99.0645H190.973C190.947 97.9207 190.944 96.7769 190.944 95.6204V95.2306C191.225 95.205 191.528 95.1891 191.902 95.1891C193.362 95.1891 193.998 95.828 193.998 97.1954C193.992 98.4958 193.203 99.0645 191.752 99.0645Z" fill="#303030"/>
<path d="M196.769 90.918H195.577V91.4515L196.778 91.5889C196.801 92.7167 196.807 93.8477 196.807 94.9723V95.6112C196.807 96.7518 196.807 97.8828 196.778 98.9914L195.577 99.1288V99.6623H199.27V99.1288L198.069 98.9914C198.047 97.8668 198.04 96.7326 198.04 95.608V94.9691C198.04 93.8253 198.04 92.6975 198.069 91.5857L199.27 91.4483V90.9148H196.769V90.918Z" fill="#303030"/>
<path d="M194.306 49.8638C192.85 49.9063 191.592 49.966 190.533 50.0427C189.475 50.1193 188.492 50.1779 187.584 50.2184C186.68 50.2599 185.597 50.2791 184.341 50.2791C183.004 50.2791 181.863 50.2589 180.92 50.2184C179.976 50.1779 178.954 50.1193 177.853 50.0427C176.753 49.9639 175.456 49.9042 173.961 49.8638C172.466 49.8233 170.54 49.8041 168.185 49.8062V50.2791C172.428 50.2791 175.336 51.1044 176.91 52.7551C178.484 54.4058 179.268 57.1523 179.261 60.9947C179.261 64.5304 178.633 67.5761 177.376 70.132C176.236 72.5375 174.59 74.6689 172.552 76.3812C170.604 77.9823 168.36 79.1841 165.948 79.918C163.581 80.6532 161.117 81.0312 158.638 81.0394C153.526 81.0394 149.3 79.7028 145.961 77.0298C142.606 74.3479 139.9 70.9426 138.047 67.0682C136.104 63.0524 134.734 58.784 133.976 54.3877C133.231 50.342 132.837 46.2394 132.798 42.1258C132.798 35.4421 133.623 29.5252 135.274 24.375C136.924 19.2249 139.067 14.9012 141.702 11.4038C144.334 7.90651 147.303 5.25369 150.606 3.44539C153.91 1.63709 157.211 0.732944 160.51 0.732944C164.363 0.732944 167.803 1.36127 170.83 2.61792C173.741 3.79691 176.389 5.5408 178.623 7.74889C180.824 9.97192 182.551 12.6199 183.696 15.5316C184.941 18.6773 185.676 22.0011 185.875 25.3782H186.584V21.4869C186.584 20.4645 186.564 19.5604 186.524 18.7744C186.483 17.9885 186.464 17.243 186.466 16.538V13.9406C186.468 12.1849 186.586 10.4313 186.821 8.69138C187.057 6.92142 187.253 4.66158 187.409 1.91185H186.929L182.92 7.34314C179.676 5.16975 176.198 3.36721 172.552 1.96936C169.087 0.672242 165.154 0.0236816 160.753 0.0236816C154.86 0.0236816 149.435 1.08864 144.478 3.21856C139.648 5.25877 135.262 8.22264 131.567 11.9438C127.862 15.7233 124.958 20.2124 123.031 25.1418C120.96 30.398 119.919 36.0036 119.967 41.6529C119.965 43.636 120.071 45.6176 120.286 47.589C119.873 47.4992 119.451 47.4542 119.027 47.4548C117.211 47.434 115.457 48.1216 114.139 49.3717C112.653 50.7743 111.37 52.3776 110.327 54.1353C109.114 56.1469 108.009 58.2211 107.014 60.3493C106.019 62.494 104.855 64.5568 103.535 66.5186C101.26 64.1906 98.9897 61.6741 96.7234 58.9692C94.4572 56.2642 92.3272 53.475 90.3335 50.6018C91.8799 49.6071 93.3709 48.5421 94.8065 47.4069C96.1948 46.3212 97.4716 45.1001 98.618 43.7615C99.6947 42.5023 100.599 41.1056 101.308 39.6082C102.004 38.1175 102.358 36.4898 102.343 34.8446C102.343 31.4772 101.253 28.785 99.0717 26.768C96.8906 24.751 94.1206 23.7499 90.7617 23.7648C89.1256 23.7618 87.5056 24.0877 85.998 24.7233C84.4613 25.37 83.0673 26.3134 81.8957 27.4996C80.6324 28.7914 79.6463 30.3275 78.9979 32.014C78.2482 33.9839 77.8828 36.0791 77.9212 38.1865C77.9149 40.0811 78.1938 41.9659 78.7487 43.7775C79.2585 45.4606 79.8808 47.1075 80.6114 48.7072C81.1936 49.9944 81.8729 51.2354 82.6433 52.4197C83.3047 53.4133 83.72 54.049 83.883 54.3366C82.9437 54.835 81.7019 55.5666 80.1577 56.5315C78.5184 57.5719 76.9916 58.7796 75.6017 60.1353C74.0946 61.5916 72.7978 63.2508 71.7486 65.065C70.6805 66.8844 70.1231 68.9584 70.1351 71.0681C70.1267 72.4748 70.405 73.8684 70.953 75.164C71.5052 76.4636 72.3401 77.6238 73.3972 78.5601C73.8716 78.9846 74.3827 79.3663 74.9244 79.7007C72.558 79.5346 70.641 78.8413 69.1735 77.6208C67.4823 76.2044 65.8507 74.2396 64.2788 71.7263L40.9494 35.4037L59.3458 8.75208C60.9987 6.39214 62.709 4.64241 64.4769 3.5029C66.2448 2.3634 68.4653 1.79364 71.1384 1.79364V1.3208C69.6474 1.3208 68.429 1.34104 67.4833 1.3815C66.5376 1.42197 65.7315 1.44114 65.0648 1.43901C64.3981 1.43901 63.7495 1.45818 63.1191 1.49652C62.4886 1.53486 61.7431 1.55509 60.8826 1.55722C59.9369 1.55722 59.1509 1.53699 58.5247 1.49652C57.8985 1.45605 57.2489 1.43688 56.5758 1.43901C55.9091 1.43901 55.1434 1.41984 54.2787 1.3815C53.4139 1.34317 52.2733 1.32293 50.8569 1.3208V1.79364C51.5662 1.79364 52.3915 1.83305 53.333 1.91185C54.2361 1.98105 55.1275 2.15912 55.988 2.4422C56.7759 2.69681 57.4995 3.11856 58.1094 3.67862C58.4074 3.96705 58.6405 4.31572 58.7931 4.70137C58.9457 5.08701 59.0144 5.50077 58.9944 5.91503C58.9944 7.17382 58.2872 8.7851 56.8729 10.7489L40.4797 34.5699L24.9076 10.5188C24.329 9.64264 23.7958 8.7373 23.3101 7.8064C22.9595 7.11317 22.7777 6.34685 22.7798 5.56999C22.7694 5.16463 22.8611 4.76317 23.0464 4.40252C23.2318 4.04187 23.5048 3.73362 23.8405 3.5061C24.5523 2.99298 25.3511 2.61305 26.1983 2.3847C27.0484 2.15111 27.9177 1.99393 28.7958 1.91505C29.6585 1.83624 30.2868 1.79684 30.6808 1.79684V1.3208C28.4785 1.3208 26.6904 1.34104 25.3165 1.3815C23.9395 1.41984 22.7382 1.45818 21.719 1.49652L18.8947 1.62112C18.0289 1.66265 17.048 1.68182 15.9458 1.68182C14.8435 1.68182 13.8627 1.65626 12.9968 1.62112L10.1214 1.50291C9.05642 1.46457 7.79868 1.42623 6.34818 1.38789C4.89767 1.34956 2.9871 1.32719 0.616454 1.3208V1.79364C1.98105 1.75644 3.34067 1.97311 4.6261 2.43262C5.70149 2.85143 6.69846 3.44874 7.57503 4.19938C8.44928 4.9616 9.22139 5.83356 9.87219 6.79362C10.5399 7.78084 11.23 8.78084 11.9361 9.8032L33.2815 43.0587L15.7093 68.5314C14.4505 70.3397 13.311 71.9116 12.2908 73.2471C11.3334 74.5182 10.224 75.6673 8.9872 76.6688C7.81921 77.6057 6.50432 78.343 5.09576 78.8509C3.46077 79.4044 1.75109 79.706 0.0253906 79.7454L0.0253906 80.2151C1.5973 80.2151 2.87528 80.1959 3.85932 80.1576C4.84016 80.1192 5.68682 80.0969 6.39291 80.0969C7.09899 80.0969 7.78909 80.0969 8.45684 80.0394C9.12458 79.9818 9.89136 79.9787 10.7572 79.9787C11.623 79.9787 12.3547 80.001 12.9937 80.0394C13.6326 80.0777 14.2908 80.0969 15.0001 80.0969C15.7093 80.0969 16.5336 80.1192 17.4762 80.1576C18.4187 80.1959 19.6359 80.2151 21.1312 80.2151V79.7454C20.2653 79.7454 19.3644 79.7039 18.4187 79.6272C17.5536 79.5668 16.701 79.3872 15.8851 79.0937C15.1782 78.8486 14.548 78.4222 14.0576 77.8573C13.5709 77.2626 13.3196 76.51 13.3515 75.7422C13.3515 74.4835 14.1374 72.673 15.7093 70.311L33.7544 43.8925L51.7834 71.7263C52.8867 73.4558 53.4373 74.87 53.4352 75.9691C53.4536 76.3521 53.3895 76.7345 53.2473 77.0906C53.1051 77.4467 52.8881 77.768 52.6109 78.033C52.0381 78.5573 51.3512 78.9412 50.6045 79.1544C49.7974 79.396 48.9677 79.5545 48.1284 79.6272C47.2626 79.7039 46.5565 79.7454 46.007 79.7454V80.2151C48.6012 80.2151 50.6843 80.1959 52.2563 80.1576C53.8282 80.1192 55.1456 80.0798 56.2084 80.0394C57.2691 80.001 58.1701 79.9627 58.9209 79.9212C59.6717 79.8796 60.4704 79.8636 61.3363 79.8636C62.2021 79.8636 63.0072 79.8828 63.7548 79.9212C64.5025 79.9595 65.3523 80.001 66.3491 80.0394C67.346 80.0777 68.5856 80.1192 70.1224 80.1576C71.6006 80.1959 73.5026 80.2151 75.8285 80.2151C76.3148 80.4652 76.8151 80.687 77.327 80.8796C79.0009 81.4801 80.7693 81.7744 82.5475 81.7486C84.2597 81.7644 85.9638 81.5132 87.5987 81.0042C89.1116 80.5228 90.5584 79.8542 91.9055 79.0138C93.229 78.1876 94.4767 77.2457 95.634 76.1991C96.7658 75.1791 97.844 74.101 98.864 72.9691C101.071 75.3246 103.562 77.3969 106.279 79.1384C108.791 80.7135 111.625 81.394 114.772 81.4994C118.925 81.64 121.452 79.8285 122.309 79.1672C123.08 78.5519 123.777 77.8485 124.385 77.0713C124.719 76.6667 125.015 76.2325 125.27 75.7742L124.842 75.3461C124.272 76.242 123.485 76.9795 122.554 77.4905C121.623 78.0015 120.578 78.2694 119.516 78.2694C118.117 78.2112 116.753 77.8131 115.542 77.1097C114.028 76.2859 112.6 75.3153 111.276 74.2119C109.865 73.0491 108.523 71.8041 107.257 70.4835C105.979 69.1587 104.847 67.9436 103.861 66.8381C104.913 65.262 105.855 63.6148 106.679 61.9084C107.614 60.0043 108.58 58.1939 109.577 56.4771C110.454 54.9317 111.481 53.4754 112.641 52.1289C113.693 50.9404 114.798 50.3462 115.957 50.3462C116.174 50.3462 116.382 50.5698 116.577 51.0107C116.808 51.5238 117.07 52.0221 117.363 52.5027C117.712 53.0745 118.161 53.5788 118.689 53.9915C119.106 54.2837 119.579 54.486 120.078 54.5855C120.578 54.6851 121.092 54.6797 121.59 54.5698C121.907 55.7327 122.269 56.869 122.676 57.9787C124.353 62.6775 126.961 66.9894 130.344 70.656C133.69 74.2271 137.776 77.0249 142.315 78.8541C146.988 80.771 152.196 81.7295 157.938 81.7295C161.792 81.7295 165.173 81.2779 168.082 80.3748C170.838 79.5286 173.536 78.504 176.159 77.3077C178.636 76.1661 181.035 75.0852 183.354 74.0649C185.768 73.0183 188.339 72.3802 190.961 72.1768C190.802 70.6049 190.703 68.541 190.664 65.9851C190.626 63.4292 190.607 61.0863 190.607 58.9564C190.607 55.4207 191.334 53.0778 192.789 51.9276C194.244 50.7775 196.661 50.2077 200.041 50.2184V49.7455C197.673 49.7754 195.761 49.8148 194.306 49.8638ZM83.8031 38.4676C83.2226 36.8877 82.9137 35.2209 82.8893 33.5379C82.8893 30.8329 83.5283 28.6104 84.8063 26.8702C85.3764 26.0413 86.1448 25.3683 87.0416 24.9124C87.9383 24.4564 88.9349 24.2322 89.9406 24.26C92.0407 24.26 93.7809 25.2813 95.1611 27.3239C96.5413 29.3665 97.2314 32.1279 97.2314 35.6082C97.2314 36.0534 97.176 36.8681 97.0653 38.0523C96.9166 39.4054 96.6242 40.7388 96.1931 42.0299C95.6784 43.5844 94.9539 45.0613 94.0397 46.4197C92.9911 47.9551 91.6165 49.2402 90.0141 50.1832C89.6264 49.6295 89.0332 48.7455 88.2345 47.5315C87.3647 46.1958 86.5762 44.8088 85.8734 43.3782C85.0792 41.7872 84.3877 40.147 83.8031 38.4676ZM96.4742 74.624C95.6127 75.3108 94.6835 75.9082 93.701 76.4068C92.6421 76.9424 91.5322 77.3706 90.3879 77.6847C89.2145 78.0123 88.0022 78.1789 86.784 78.1799C85.3733 78.1978 83.9799 77.8687 82.7264 77.2215C81.5356 76.6072 80.4899 75.7456 79.6593 74.6943C78.823 73.6418 78.1745 72.4529 77.7423 71.18C77.304 69.915 77.0794 68.5858 77.0777 67.2471C77.047 65.6341 77.2712 64.0265 77.7423 62.4835C78.137 61.2295 78.7233 60.044 79.4803 58.9692C80.1403 58.0423 80.9047 57.1943 81.7583 56.442C82.4893 55.8023 83.2799 55.2342 84.1194 54.7455C84.7264 55.6848 85.5135 56.8169 86.4805 58.1417C87.4475 59.4665 88.555 60.9297 89.8032 62.5314C91.045 64.131 92.4124 65.8019 93.9055 67.5442C95.3986 69.2865 96.9449 70.984 98.5445 72.6368C97.9228 73.367 97.2292 74.0328 96.4742 74.624Z" fill="#303030"/>
</g>
<defs>
<clipPath id="clip0_620_6664">
<rect width="200" height="101.984" fill="white"/>
</clipPath>
</defs>
</svg>
