<svg width="40" height="40" viewBox="0 0 40 40" fill="none" xmlns="http://www.w3.org/2000/svg">
<g clip-path="url(#clip0_771_7911)">
<rect width="40" height="40" rx="20" fill="#D7D4C7"/>
<g clip-path="url(#clip1_771_7911)">
<path d="M6.00633 26.8094H7.27215L7.2664 27.2576H7.12313L7.05869 26.8146L7.16974 26.9175H6.10184L6.22094 26.8146L6.15362 27.2576H6.01208L6.00633 26.8094ZM6.45282 25.7177H6.57077C6.54603 26.2774 6.40679 26.6652 6.24166 26.8531L6.11507 26.8106C6.29919 26.6198 6.43268 26.2676 6.45282 25.72V25.7177ZM6.28999 25.7177H6.51266V25.8476H6.48734L6.28769 25.8177L6.28999 25.7177ZM6.51266 25.7177H6.93383V25.8257H6.51266V25.7177ZM6.78021 26.2837C6.78021 26.0906 6.78021 25.901 6.77503 25.7171H7.09321C7.08803 25.905 7.08803 26.0946 7.08803 26.2819V26.3498C7.08803 26.5411 7.08803 26.7307 7.09321 26.9146H6.77503C6.78021 26.7296 6.78021 26.5405 6.78021 26.3526V26.2837ZM6.93383 25.7177H7.22497V25.8154L6.95972 25.843H6.93383V25.7177Z" fill="#303030"/>
<path d="M8.48849 26.3187C8.48849 26.7388 8.21059 26.9508 7.90909 26.9508C7.60759 26.9508 7.32969 26.7428 7.32969 26.3187C7.32969 25.8947 7.6099 25.6867 7.90909 25.6867C8.20829 25.6867 8.48849 25.8941 8.48849 26.3187ZM7.90909 26.8456C8.09264 26.8456 8.16513 26.621 8.16513 26.3187C8.16513 26.0165 8.09264 25.7901 7.90909 25.7901C7.72555 25.7901 7.65305 26.0199 7.65305 26.3187C7.65305 26.6175 7.72612 26.8456 7.90909 26.8456Z" fill="#303030"/>
<path d="M8.55754 26.8198L8.77043 26.7922H8.82278L9.00288 26.8198V26.9175H8.55754V26.8198ZM8.57365 25.72H8.83429V25.8453H8.80437L8.57135 25.8177L8.57365 25.72ZM8.7336 25.72H8.83832L8.85213 26.352V26.918H8.7336V25.72ZM8.74453 25.72H9.05466L9.3832 26.6072H9.32566L9.63579 25.72H9.75604L9.33487 26.9175H9.1916L8.74453 25.72ZM9.51784 26.8198L9.75144 26.7922H9.83544L10.1001 26.8198V26.9175H9.51784V26.8198ZM9.6542 26.3905L9.6611 25.72H9.96548C9.95972 25.9067 9.95972 26.0964 9.95972 26.2848V26.3526C9.95972 26.5428 9.95972 26.7324 9.96548 26.9175H9.64902C9.6542 26.7307 9.65305 26.5411 9.6542 26.3905ZM9.80667 25.72H10.0944V25.8177L9.83602 25.8453H9.80725L9.80667 25.72Z" fill="#303030"/>
<path d="M10.5834 26.8198L10.7963 26.7922H10.8487L11.0288 26.8198V26.9175H10.5834V26.8198ZM10.599 25.72H10.8596L10.8625 25.8453H10.8331L10.5995 25.8177L10.599 25.72ZM10.7595 25.72H10.8636L10.8774 26.352V26.918H10.7624L10.7595 25.72ZM10.7704 25.72H11.0806L11.4085 26.6072H11.351L11.6611 25.72H11.7814L11.3602 26.9175H11.2169L10.7704 25.72ZM11.5437 26.8198L11.7773 26.7922H11.8613L12.126 26.8198V26.9175H11.5437V26.8198ZM11.6801 26.3905L11.6864 25.72H11.9908C11.9856 25.9067 11.9856 26.0964 11.9856 26.2848V26.3526C11.9856 26.5428 11.9856 26.7324 11.9908 26.9175H11.6743C11.6801 26.7307 11.6789 26.5411 11.6801 26.3905ZM11.832 25.72H12.1197V25.8177L11.8613 25.8453H11.832V25.72Z" fill="#303030"/>
<path d="M12.2451 25.8177V25.72H12.5385V25.8476H12.5098L12.2451 25.8177ZM12.5385 26.7945V26.9198H12.2451V26.8221L12.5098 26.7945H12.5385ZM12.3867 26.2848C12.3867 26.0975 12.3867 25.9079 12.3809 25.72H12.6985C12.6933 25.9039 12.6933 26.0935 12.6933 26.2848V26.3423C12.6933 26.5376 12.6933 26.7267 12.6985 26.9169H12.3809C12.3867 26.733 12.3867 26.5434 12.3867 26.352V26.2848ZM12.985 25.72L13.1168 25.8228H12.5414V25.72H13.1801L13.1927 26.0337H13.0403L12.985 25.72ZM12.9419 26.352H12.5391V26.2446H12.9419V26.352ZM13.2296 26.6026L13.2169 26.9163H12.5385V26.8146H13.1525L13.0201 26.9163L13.0742 26.6026H13.2296ZM12.8884 26.2756L12.9154 26.1032H13.0196V26.4957H12.9137L12.8867 26.3118L12.8884 26.2756Z" fill="#303030"/>
<path d="M13.2773 26.8094H14.5432L14.538 27.2576H14.3959L14.332 26.8146L14.4425 26.9175H13.3728L13.4925 26.8146L13.4252 27.2576H13.2831L13.2773 26.8094ZM13.7238 25.7177H13.8389C13.8142 26.2774 13.6749 26.6652 13.5098 26.8531L13.382 26.8083C13.5702 26.6198 13.7037 26.2676 13.7238 25.72V25.7177ZM13.561 25.7177H13.7837V25.8476H13.7583L13.561 25.82V25.7177ZM13.7837 25.7177H14.2048V25.8257H13.7837V25.7177ZM14.0512 26.2837C14.0512 26.0906 14.0512 25.901 14.046 25.7171H14.3636C14.3579 25.905 14.3579 26.0946 14.3579 26.2819V26.3498C14.3579 26.5411 14.3579 26.7307 14.3636 26.9146H14.046C14.0512 26.7296 14.0512 26.5405 14.0512 26.3526V26.2837ZM14.2048 25.7177H14.496V25.8154L14.2307 25.843H14.2048V25.7177Z" fill="#303030"/>
<path d="M14.6358 25.72H15.2112V25.8177L14.9453 25.8453H14.8913L14.6358 25.8177V25.72ZM14.6358 26.8198L14.8913 26.7922H14.9453L15.2112 26.8198V26.9175H14.6358V26.8198ZM14.7733 26.3526V26.2848C14.7733 26.0975 14.7733 25.9079 14.7681 25.72H15.0777C15.0719 25.9039 15.0719 26.0935 15.0719 26.2848L15.0593 26.9169H14.7681C14.7733 26.7336 14.7733 26.544 14.7733 26.3526ZM14.8947 26.7767L15.5765 25.8263L15.6795 25.8613L14.9977 26.81L14.8947 26.7767ZM15.3631 25.72H15.9384V25.8177L15.6761 25.8453H15.6254L15.3631 25.8177V25.72ZM15.3631 26.8198L15.6254 26.7922H15.6761L15.9384 26.8198V26.9175H15.3631V26.8198ZM15.5023 26.3411L15.5155 25.72H15.8061C15.8009 25.9039 15.8009 26.0935 15.8009 26.2848V26.3526C15.8009 26.5405 15.8009 26.7296 15.8061 26.9175H15.4965C15.5023 26.7336 15.5023 26.544 15.5023 26.3411Z" fill="#303030"/>
<path d="M16.0575 25.72H16.6266V25.8177L16.3671 25.8453H16.313L16.0575 25.8177V25.72ZM16.0575 26.8198L16.3222 26.7922H16.3487V26.9175H16.0575V26.8198ZM16.1951 26.3526V26.2848C16.1951 26.0935 16.1951 25.9039 16.1899 25.72H16.5075C16.5017 25.9079 16.5017 26.0975 16.5017 26.2865V26.3526C16.5017 26.544 16.5017 26.7336 16.5075 26.9175H16.1899C16.1951 26.7296 16.1951 26.5405 16.1951 26.3526ZM16.3487 26.8123H17.351L17.3331 27.2605H17.191L17.1392 26.8175L17.2572 26.9203H16.3487V26.8123ZM16.7376 25.7206H17.3067V25.8182L17.0472 25.8476H16.996L16.7405 25.82L16.7376 25.7206ZM16.8625 26.3526V26.2865C16.8625 26.0935 16.8625 25.9039 16.8567 25.72H17.1743C17.1686 25.9079 17.1686 26.0975 17.1686 26.2848V26.3526C17.1686 26.544 17.1686 26.7336 17.1743 26.9175H16.8567C16.8625 26.7296 16.8625 26.5405 16.8625 26.3526Z" fill="#303030"/>
<path d="M17.4499 25.72H18.0253V25.8177L17.7589 25.8453H17.7054L17.4494 25.8177L17.4499 25.72ZM17.4499 26.8198L17.706 26.7922H17.7595L18.0259 26.8198V26.9175H17.4499V26.8198ZM17.588 26.3526V26.2848C17.588 26.0975 17.588 25.9079 17.5823 25.72H17.8918C17.8867 25.9039 17.8867 26.0935 17.8867 26.2848L17.8734 26.9169H17.5823C17.5898 26.7336 17.5898 26.544 17.5898 26.3526H17.588ZM17.7094 26.7767L18.3913 25.8263L18.4937 25.8613L17.8119 26.81L17.7094 26.7767ZM18.1772 25.72H18.7526V25.8177L18.4902 25.8453H18.439L18.1766 25.8177L18.1772 25.72ZM18.1772 26.8198L18.4396 26.7922H18.4908L18.7532 26.8198V26.9175H18.1778L18.1772 26.8198ZM18.3165 26.3411L18.3297 25.72H18.6203C18.6151 25.9039 18.6151 26.0935 18.6151 26.2848V26.3526C18.6151 26.5405 18.6151 26.7296 18.6203 26.9175H18.313C18.3182 26.7336 18.3182 26.544 18.3182 26.3411H18.3165Z" fill="#303030"/>
<path d="M18.8734 25.8177V25.72H19.4488V25.8177L19.1824 25.8453H19.1289L18.8734 25.8177ZM19.183 26.7945L19.4494 26.8221V26.9198H18.874V26.8221L19.13 26.7945H19.183ZM19.0104 26.2871C19.0104 26.0998 19.0104 25.9102 19.0046 25.7223H19.3222C19.317 25.9062 19.317 26.0958 19.317 26.2871V26.3446C19.317 26.544 19.317 26.733 19.3222 26.9192H19.0035C19.0092 26.7353 19.0092 26.5457 19.0092 26.3543L19.0104 26.2871ZM19.1634 26.3578V26.2498H19.859V26.3561L19.1634 26.3578ZM19.5742 25.82V25.7223H20.1496V25.82L19.8872 25.8476H19.836L19.5742 25.82ZM19.8878 26.7968L20.1502 26.8244V26.9221H19.5748V26.8244L19.8372 26.7968H19.8878ZM19.706 26.2894C19.706 26.1021 19.706 25.9125 19.7002 25.7246H20.0178C20.0121 25.9085 20.0121 26.0981 20.0121 26.2894V26.3572C20.0121 26.5451 20.0121 26.7342 20.0178 26.9221H19.7002C19.706 26.7382 19.706 26.5486 19.706 26.3475V26.2894Z" fill="#303030"/>
<path d="M21.1899 26.7439V26.8376L21.0673 26.864L21.1289 26.5767H21.2681L21.2606 26.8571C21.1428 26.9199 21.011 26.9517 20.8774 26.9496C20.5259 26.9496 20.2445 26.7428 20.2445 26.3176C20.2445 25.8924 20.5483 25.6855 20.8913 25.6855C21.0162 25.6837 21.1395 25.7148 21.2486 25.7757L21.256 26.0584H21.1174L21.0547 25.7711L21.1766 25.7993V25.8998C21.1136 25.8327 21.0265 25.793 20.9344 25.7895C20.7394 25.7895 20.5679 25.9481 20.5679 26.3204C20.5679 26.6928 20.7324 26.8479 20.9252 26.8479C21.0225 26.8434 21.1156 26.8068 21.1899 26.7439Z" fill="#303030"/>
<path d="M21.3792 25.72H21.9545V25.8177L21.6887 25.8453H21.6346L21.3763 25.8177L21.3792 25.72ZM21.3792 26.8198L21.6375 26.7922H21.6916L21.9574 26.8198V26.9175H21.382L21.3792 26.8198ZM21.5201 26.3526V26.2848C21.5201 26.0975 21.5201 25.9079 21.5144 25.72H21.832C21.8262 25.9039 21.8262 26.0935 21.8262 26.2917V26.3492C21.8262 26.5434 21.8262 26.7324 21.832 26.9203H21.5144C21.5201 26.7336 21.5201 26.544 21.5201 26.3526ZM22.0667 26.4923C22.0596 26.453 22.0378 26.418 22.0057 26.3942C21.9737 26.3704 21.9338 26.3597 21.8941 26.3641H21.6726V26.2624H21.8786C21.9868 26.2624 22.0443 26.2325 22.1087 26.0326C22.1864 25.8027 22.2624 25.7073 22.3625 25.6878C22.4689 25.6878 22.523 25.739 22.523 25.828C22.523 25.905 22.4655 25.9676 22.3418 25.9676C22.2894 25.9683 22.2375 25.9567 22.1904 25.9337L22.2957 25.8872C22.2563 25.948 22.2249 26.0137 22.2025 26.0826C22.1421 26.2549 22.0736 26.321 21.9264 26.3365V26.3026C22.2198 26.3107 22.3539 26.3957 22.3976 26.6077L22.4551 26.8577L22.2791 26.7968L22.5852 26.8226V26.9203C22.5228 26.938 22.4583 26.9469 22.3936 26.9468C22.2468 26.9468 22.1634 26.9192 22.1295 26.7681L22.0667 26.4923Z" fill="#303030"/>
<path d="M23.7572 26.3187C23.7572 26.7388 23.4793 26.9508 23.1778 26.9508C22.8763 26.9508 22.5984 26.7428 22.5984 26.3187C22.5984 25.8947 22.878 25.6867 23.1778 25.6867C23.4776 25.6867 23.7572 25.8941 23.7572 26.3187ZM23.1778 26.8456C23.3613 26.8456 23.4338 26.621 23.4338 26.3187C23.4338 26.0165 23.3613 25.7901 23.1778 25.7901C22.9942 25.7901 22.9217 26.0199 22.9217 26.3187C22.9217 26.6175 22.9942 26.8456 23.1778 26.8456Z" fill="#303030"/>
<path d="M23.8521 25.72H24.4275V25.8177L24.1611 25.8453H24.1076L23.8516 25.8177L23.8521 25.72ZM23.8521 26.8198L24.1082 26.7922H24.1617L24.4281 26.8198V26.9175H23.8527L23.8521 26.8198ZM23.9902 26.3526V26.2848C23.9902 26.0975 23.9902 25.9079 23.9845 25.72H24.2969C24.2917 25.9039 24.2917 26.0935 24.2917 26.2848L24.2785 26.9169H23.9873C23.9902 26.7336 23.9902 26.544 23.9902 26.3526ZM24.1116 26.7767L24.7934 25.8263L24.8959 25.8613L24.214 26.81L24.1116 26.7767ZM24.1634 25.3678C24.17 25.3471 24.1832 25.3292 24.201 25.3168C24.2188 25.3043 24.2401 25.298 24.2618 25.2988C24.3153 25.2988 24.3711 25.3344 24.3711 25.4585C24.3699 25.4972 24.3651 25.5357 24.3567 25.5735L24.2842 25.4781C24.3512 25.5176 24.4275 25.5384 24.5052 25.5384C24.5829 25.5384 24.6592 25.5176 24.7261 25.4781L24.6536 25.5735C24.6448 25.5358 24.6398 25.4973 24.6387 25.4585C24.6387 25.3344 24.6962 25.2988 24.7486 25.2988C24.7702 25.2981 24.7915 25.3045 24.8093 25.3169C24.827 25.3293 24.8402 25.3472 24.8469 25.3678C24.8469 25.5401 24.6945 25.6332 24.5052 25.6332C24.3159 25.6332 24.1634 25.543 24.1634 25.3678ZM24.5794 25.72H25.1548V25.8177L24.8924 25.8453H24.8412L24.5788 25.8177L24.5794 25.72ZM24.5794 26.8198L24.8418 26.7922H24.893L25.1553 26.8198V26.9175H24.58L24.5794 26.8198ZM24.7186 26.3411L24.7319 25.72H25.023C25.0173 25.9039 25.0173 26.0935 25.0173 26.2848V26.3526C25.0173 26.5405 25.0173 26.7296 25.023 26.9175H24.7135C24.7186 26.7336 24.7186 26.544 24.7186 26.3411Z" fill="#303030"/>
<path d="M26.8251 26.3187C26.8251 26.7388 26.5472 26.9508 26.2457 26.9508C25.9442 26.9508 25.6663 26.7428 25.6663 26.3187C25.6663 25.8947 25.9465 25.6867 26.2457 25.6867C26.5449 25.6867 26.8251 25.8941 26.8251 26.3187ZM26.2457 26.8456C26.4292 26.8456 26.5017 26.621 26.5017 26.3187C26.5017 26.0165 26.4292 25.7901 26.2457 25.7901C26.0621 25.7901 25.9896 26.0199 25.9896 26.3187C25.9896 26.6175 26.0621 26.8456 26.2457 26.8456Z" fill="#303030"/>
<path d="M26.8285 26.8094H28.0944L28.0892 27.2576H27.9471L27.8832 26.8146L27.9937 26.9175H26.9258L27.0455 26.8146L26.9781 27.2576H26.836L26.8285 26.8094ZM27.275 25.7177H27.3901C27.3654 26.2774 27.2261 26.6652 27.061 26.8531L26.9333 26.8083C27.1231 26.6198 27.2566 26.2676 27.2768 25.72L27.275 25.7177ZM27.1122 25.7177H27.3349V25.8476H27.3095L27.1122 25.82V25.7177ZM27.3349 25.7177H27.756V25.8257H27.3349V25.7177ZM27.6024 26.3498V26.2837C27.6024 26.0906 27.6024 25.901 27.5972 25.7171H27.9148C27.9091 25.905 27.9091 26.0946 27.9091 26.2819V26.3498C27.9091 26.5411 27.9091 26.7307 27.9148 26.9146H27.5972C27.6041 26.7296 27.6041 26.5405 27.6041 26.3526L27.6024 26.3498ZM27.756 25.7177H28.0472V25.8154L27.7819 25.843H27.756V25.7177Z" fill="#303030"/>
<path d="M28.1887 25.8177V25.72H28.4822V25.8476H28.4534L28.1887 25.8177ZM28.4822 26.7945V26.9198H28.1887V26.8221L28.4534 26.7945H28.4822ZM28.3291 26.2871C28.3291 26.0998 28.3291 25.9102 28.3239 25.7223H28.641C28.6358 25.9062 28.6358 26.0958 28.6358 26.2871V26.3446C28.6358 26.5399 28.6358 26.729 28.641 26.9192H28.3245C28.3297 26.7353 28.3297 26.5457 28.3297 26.3543L28.3291 26.2871ZM28.9275 25.7223L29.0598 25.8251H28.4845V25.7223H29.1231L29.1358 26.036H28.9839L28.9275 25.7223ZM28.8843 26.3543H28.4816V26.2469H28.8843V26.3543ZM29.172 26.6049L29.1588 26.9186H28.4822V26.8169H29.0961L28.9637 26.9186L29.0178 26.6049H29.172ZM28.8303 26.2779L28.8579 26.1055H28.9637V26.498H28.8579L28.8303 26.3141V26.2779Z" fill="#303030"/>
<path d="M29.401 26.9439C29.3363 26.944 29.2718 26.9351 29.2094 26.9175V26.8198L29.5155 26.7939L29.34 26.8548L29.3976 26.6054C29.4407 26.398 29.5673 26.3078 29.8682 26.2998V26.3342C29.7209 26.3193 29.6502 26.2526 29.5892 26.0797C29.5672 26.0107 29.536 25.945 29.4965 25.8843L29.6064 25.9418C29.5553 25.9553 29.5028 25.963 29.4499 25.9648C29.3245 25.9648 29.2727 25.8929 29.2727 25.824C29.2727 25.7349 29.3303 25.6855 29.4338 25.6838C29.5316 25.7056 29.6064 25.7987 29.6841 26.0285C29.7514 26.2348 29.8113 26.2584 29.9171 26.2584H30.0898V26.3647H29.9005C29.8608 26.3607 29.821 26.3717 29.7891 26.3955C29.7571 26.4193 29.7353 26.4543 29.7278 26.4934L29.6651 26.7669C29.6329 26.9163 29.5483 26.9439 29.401 26.9439ZM29.8136 25.72H30.3717V25.8177L30.1162 25.8453H30.069L29.8136 25.8177V25.72ZM29.8136 26.8198L30.069 26.7922H30.1162L30.3717 26.8198V26.9175H29.8136V26.8198ZM29.9517 26.3469V26.2929C29.9517 26.0958 29.9517 25.9062 29.9459 25.7183H30.2394C30.2342 25.9039 30.2342 26.0935 30.2342 26.2929V26.3469C30.2342 26.5417 30.2342 26.7313 30.2394 26.9175H29.9459C29.9517 26.7324 29.9517 26.5428 29.9517 26.3469ZM30.4568 26.4928C30.4495 26.4536 30.4277 26.4186 30.3957 26.3948C30.3637 26.3709 30.3239 26.36 30.2842 26.3641H30.0944V26.2624H30.267C30.3734 26.2624 30.4396 26.2331 30.4971 26.0326C30.5702 25.8027 30.6496 25.7079 30.7474 25.6878C30.8539 25.6878 30.9091 25.739 30.9091 25.828C30.9091 25.8987 30.8562 25.9688 30.725 25.9688C30.6744 25.9684 30.6241 25.9614 30.5754 25.9481L30.6847 25.8872C30.6456 25.9481 30.6145 26.0138 30.5921 26.0826C30.5345 26.2549 30.4603 26.3222 30.3136 26.3371V26.3026C30.6139 26.3107 30.7411 26.4009 30.7837 26.6083L30.8412 26.8577L30.6657 26.7968L30.9712 26.8226V26.9203C30.9091 26.938 30.8448 26.9469 30.7802 26.9468C30.6329 26.9468 30.5501 26.9192 30.5161 26.7681L30.4568 26.4928Z" fill="#303030"/>
<path d="M31.0023 26.8094H32.2681L32.2624 27.2576H32.122L32.0581 26.8146L32.1686 26.9175H31.0978L31.2175 26.8146L31.1502 27.2576H31.0081L31.0023 26.8094ZM31.4494 25.7177H31.5644C31.5397 26.2774 31.4005 26.6652 31.2353 26.8531L31.1076 26.8083C31.2952 26.6198 31.4315 26.2676 31.4494 25.72V25.7177ZM31.286 25.7177H31.5086V25.8476H31.4833L31.286 25.82V25.7177ZM31.5086 25.7177H31.9298V25.8257H31.5086V25.7177ZM31.7762 26.3498V26.2837C31.7762 26.0906 31.7762 25.901 31.771 25.7171H32.0886C32.0829 25.905 32.0829 26.0946 32.0829 26.2819V26.3498C32.0829 26.5411 32.0829 26.7307 32.0886 26.9146H31.771C31.7768 26.7296 31.7768 26.5405 31.7768 26.3526L31.7762 26.3498ZM31.9298 25.7177H32.2209V25.8154L31.9557 25.843H31.9298V25.7177Z" fill="#303030"/>
<path d="M32.3608 25.72H32.9413V25.8177L32.6755 25.8453H32.618L32.3625 25.8177L32.3608 25.72ZM32.3608 26.8198L32.6254 26.7922H32.6548V26.9175H32.3608V26.8198ZM32.4988 26.3526V26.2848C32.4988 26.0975 32.4988 25.9079 32.4931 25.72H32.8124C32.8067 25.9039 32.8067 26.0935 32.8067 26.244V26.3515C32.8067 26.5405 32.8067 26.7296 32.8124 26.9175H32.4948C32.4988 26.7336 32.4988 26.5434 32.4988 26.3526ZM32.6542 26.8123H32.8521C32.9914 26.8123 33.0823 26.7273 33.0823 26.5514C33.0823 26.3756 33.0063 26.2888 32.8435 26.2888C32.7794 26.2886 32.7154 26.2948 32.6525 26.3072V26.2015C32.7448 26.1896 32.8378 26.1837 32.931 26.1837C33.2491 26.1837 33.3838 26.352 33.3838 26.5394C33.3838 26.7267 33.2802 26.9169 32.8596 26.9169H32.6525L32.6542 26.8123ZM33.4114 25.7206H34V25.8182L33.733 25.8476H33.6755L33.4102 25.82L33.4114 25.7206ZM33.4114 26.8203L33.6766 26.7928H33.733L34.0029 26.8203V26.918H33.4114V26.8203ZM33.5518 26.3532V26.2854C33.5518 26.0981 33.5518 25.9085 33.5466 25.7206H33.8636C33.8585 25.9044 33.8585 26.0941 33.8585 26.2854V26.352C33.8585 26.5411 33.8585 26.7301 33.8636 26.918H33.5466C33.5518 26.7336 33.5518 26.544 33.5518 26.3526V26.3532Z" fill="#303030"/>
<path d="M32.8285 20.0935C33.0341 19.9981 33.3913 19.9274 33.8999 19.8815V19.6821H28.3665V19.8815C29.0777 19.8815 29.5878 20.0085 29.897 20.2624C30.2062 20.5164 30.3609 20.9293 30.3613 21.5013C30.3613 22.1192 30.1906 22.6532 29.8493 23.1033C29.6401 23.3746 29.3783 23.6009 29.0794 23.7686C28.7284 23.9985 28.2129 24.145 27.6375 24.145C27.2551 24.1394 26.8763 24.0701 26.5167 23.9399C25.8838 23.6997 25.3147 23.2504 24.8193 22.5838C24.4085 22.023 24.1002 21.3941 23.9085 20.7261C23.6964 19.9982 23.5912 19.2433 23.5961 18.4852C23.5961 16.828 24.0297 15.3557 24.897 14.0682C25.3251 13.4385 25.7863 12.9838 26.2808 12.7041C26.7752 12.4245 27.3663 12.2854 28.0541 12.287C28.4757 12.2804 28.8942 12.3605 29.2836 12.5222C29.673 12.6839 30.025 12.9238 30.3176 13.227C30.9425 13.8533 31.4542 14.8076 31.8527 16.0897L32.0524 16.0724L31.9494 12.3031H31.7238C31.6022 12.6781 31.426 12.8656 31.1951 12.8656C31.0761 12.862 30.9589 12.8357 30.8498 12.788L30.3377 12.5542C29.9313 12.3708 29.5074 12.2285 29.0725 12.1295C28.6494 12.0401 28.2179 11.9965 27.7854 11.9997C27.0117 11.9955 26.2431 12.1244 25.5132 12.3806C24.8192 12.6222 24.1756 12.9892 23.6145 13.4632C22.9436 14.0408 22.4231 14.7742 22.0529 15.6633C21.6779 16.5785 21.4891 17.559 21.4977 18.5478C21.4936 19.2686 21.5974 19.986 21.8055 20.6761L21.809 20.6871C21.6916 20.9479 21.5245 21.2802 21.3078 21.684L19.2693 18.861C19.3671 18.792 19.5483 18.6723 19.813 18.5019C20.1878 18.2666 20.4586 18.0265 20.6254 17.7813C20.7928 17.5334 20.8801 17.2402 20.8757 16.9412C20.8807 16.7397 20.8393 16.5397 20.7546 16.3567C20.6699 16.1736 20.5442 16.0125 20.3872 15.8857C20.0619 15.6118 19.6471 15.4749 19.1427 15.4749C18.756 15.4749 18.4244 15.554 18.1479 15.7122C17.8703 15.8712 17.6504 16.114 17.5196 16.4057C17.4085 16.6223 17.3494 16.8617 17.347 17.105C17.347 17.4827 17.4708 17.9106 17.7186 18.3887C17.8787 18.6821 18.058 18.9647 18.2555 19.2345L18.1582 19.3011C17.8816 19.4761 17.616 19.668 17.3631 19.8757C17.178 20.0317 17.0114 20.2083 16.8665 20.4021C16.5235 20.8578 16.3396 21.4133 16.3429 21.9834C16.3433 22.0894 16.3502 22.1953 16.3636 22.3005C16.2255 22.1161 16.084 21.9173 15.9384 21.6995L12.9551 17.2751L14.8377 14.9445L15.4971 14.1131C16.1212 13.3281 16.6212 12.8493 16.9971 12.6765C17.2399 12.5616 17.5811 12.5042 18.0207 12.5042V12.3031H14.0397V12.5019C14.4152 12.5256 14.6784 12.566 14.8291 12.6231C15.1532 12.738 15.3151 12.9487 15.3147 13.2552C15.3147 13.4747 15.2367 13.7127 15.0806 13.9694C14.9244 14.2261 14.5863 14.6752 14.0662 15.3168L12.7388 16.9539L11.2209 14.7365C10.7468 14.0493 10.5098 13.5471 10.5098 13.2299C10.5098 12.9234 10.6834 12.7154 11.0305 12.6059C11.2438 12.5369 11.5506 12.5023 11.9511 12.5019V12.3031H6.23418V12.5019C6.34925 12.5139 6.43671 12.5191 6.49425 12.5191C6.9929 12.5601 7.34561 12.644 7.55236 12.7708C7.78328 12.9148 8.06655 13.2324 8.40219 13.7235L8.86249 14.39L11.5512 18.418L9.29574 21.172C8.53778 22.0914 7.9509 22.7411 7.5351 23.1211C7.25201 23.3865 7.00479 23.5727 6.79344 23.6796C6.5421 23.7992 6.27491 23.8822 6 23.9261V24.7725H33.8999V23.9399H30.1496C30.5514 23.7873 30.9338 23.5879 31.2888 23.3457C31.4856 23.213 31.6473 23.1469 31.775 23.1469C31.879 23.1469 32.0408 23.1873 32.2606 23.2682L32.2434 23.0688C32.2196 22.6306 32.2079 22.3072 32.2083 22.0989C32.2083 21.3423 32.2633 20.837 32.3734 20.5831C32.4567 20.3677 32.6196 20.1924 32.8285 20.0935ZM13.8579 23.6836C13.6404 23.8238 13.0978 23.9399 12.8343 23.9399H10.2152C9.94304 23.9399 9.45627 23.9399 9.16974 23.6359C8.97123 23.4256 8.81876 23.2245 8.81876 22.9131C8.82752 22.6618 8.89743 22.4165 9.02244 22.1983C9.15823 21.9416 9.38512 21.6196 9.70311 21.2324L11.7675 18.7225L13.8855 21.927C14.0281 22.1357 14.1579 22.3527 14.2745 22.5769C14.3366 22.6948 14.372 22.8248 14.378 22.9579C14.378 23.2682 14.1835 23.4739 13.8579 23.6836ZM18.1306 17.1418C18.0618 16.9758 18.026 16.798 18.0253 16.6183C18.0253 16.3264 18.1124 16.0893 18.2865 15.907C18.3751 15.8155 18.4821 15.7438 18.6004 15.6966C18.7187 15.6493 18.8457 15.6276 18.973 15.6329C19.1225 15.6274 19.2712 15.6571 19.4072 15.7195C19.5432 15.7818 19.6627 15.8752 19.756 15.992C19.9505 16.2318 20.0478 16.5541 20.0478 16.959C20.0498 17.2934 19.9771 17.624 19.8349 17.9267C19.7692 18.0731 19.6843 18.2101 19.5823 18.3341C19.4531 18.4797 19.3097 18.6122 19.1542 18.7294C18.9313 18.4413 18.725 18.1513 18.5351 17.8594C18.3791 17.6328 18.2437 17.3926 18.1306 17.1418ZM18.4292 23.5773C18.2145 23.4779 18.0244 23.3326 17.8723 23.1515C17.6958 22.9304 17.5616 22.6788 17.4764 22.4091C17.379 22.117 17.3296 21.8109 17.3303 21.503C17.3244 21.0752 17.4199 20.6521 17.6087 20.2682C17.783 19.9131 18.054 19.6144 18.3907 19.4063L20.7589 22.6005C20.656 22.7666 20.544 22.927 20.4235 23.0808C20.3345 23.1894 20.2346 23.2885 20.1254 23.3768C19.8894 23.5649 19.6054 23.6835 19.3055 23.719C19.0055 23.7546 18.7017 23.7057 18.4281 23.5779L18.4292 23.5773ZM19.5426 23.9393C19.5627 23.9307 19.5834 23.9238 19.6001 23.9152C19.9157 23.7746 20.1975 23.5681 20.4264 23.3095C20.5834 23.1232 20.7299 22.9283 20.8654 22.7257C21.1444 23.0669 21.4614 23.3754 21.8101 23.6451C21.9697 23.7646 22.1437 23.8636 22.328 23.9399L19.5426 23.9393ZM23.6168 23.6566C23.4399 23.6525 23.2669 23.6033 23.1145 23.5135C22.8956 23.3837 22.6922 23.2295 22.5081 23.0538C22.3458 22.9037 22.16 22.7121 21.9505 22.4792C21.7411 22.2463 21.5595 22.0284 21.4056 21.8253C21.6005 21.4725 21.7488 21.1866 21.8504 20.9675L21.8803 20.906C22.063 21.4486 22.3353 21.9568 22.6858 22.4097C23.0481 22.8678 23.4919 23.2552 23.9948 23.5526C23.8817 23.6235 23.7503 23.6598 23.6168 23.6572V23.6566Z" fill="#303030"/>
</g>
</g>
<defs>
<clipPath id="clip0_771_7911">
<rect width="40" height="40" rx="20" fill="white"/>
</clipPath>
<clipPath id="clip1_771_7911">
<rect width="28" height="15.258" fill="white" transform="translate(6 12)"/>
</clipPath>
</defs>
</svg>
