<svg width="120" height="13" viewBox="0 0 120 13" fill="none" xmlns="http://www.w3.org/2000/svg">
<g clip-path="url(#clip0_649_9171)">
<path d="M74.2293 12.2V2.33857H70.5312V0.5H79.9997V2.33857H76.3017V12.2H74.2293Z" fill="#303030"/>
<path d="M59.666 12.2V0.5H64.2564C65.2448 0.5 66.0896 0.667143 66.7908 1.00143C67.5028 1.33572 68.0504 1.81486 68.4328 2.43886C68.8152 3.06286 69.0068 3.80386 69.0068 4.66185C69.0068 5.51985 68.8152 6.26085 68.4328 6.88485C68.0504 7.49773 67.5028 7.97127 66.7908 8.30558C66.7412 8.32851 66.6908 8.35062 66.6396 8.37192L69.198 12.2H66.9664L64.6932 8.77931C64.5508 8.78664 64.4052 8.79027 64.2564 8.79027H61.738V12.2H59.666ZM61.738 7.00185H64.1608C65.0748 7.00185 65.76 6.79573 66.2172 6.38342C66.6848 5.97115 66.9184 5.39727 66.9184 4.66185C66.9184 3.91529 66.6848 3.34143 66.2172 2.94028C65.76 2.53914 65.0748 2.33857 64.1608 2.33857H61.738V7.00185Z" fill="#303030"/>
<path d="M45.3506 12.2L50.3718 0.5H52.4118L57.449 12.2H55.281L54.1722 9.49227L53.823 8.63985L53.4738 7.78742L51.3766 2.66702L49.287 7.78742H53.4738L53.823 8.63985L54.1722 9.49227H48.5914L47.4866 12.2H45.3506Z" fill="#303030"/>
<path d="M39.367 12.2V2.33857H35.6689V0.5H45.1372V2.33857H41.4392V12.2H39.367Z" fill="#303030"/>
<path d="M29.9229 12.2C29.0515 12.2 28.2173 12.0754 27.4203 11.8263C26.6233 11.5663 25.991 11.2358 25.5234 10.835L26.2408 9.19376C26.687 9.55124 27.2396 9.84916 27.8985 10.0875C28.5574 10.3258 29.2321 10.445 29.9229 10.445C30.5073 10.445 30.9802 10.38 31.3415 10.25C31.7028 10.12 31.9685 9.94666 32.1385 9.73001C32.3085 9.50249 32.3936 9.24794 32.3936 8.96624C32.3936 8.61957 32.2714 8.34333 32.0269 8.13749C31.7825 7.92084 31.4637 7.75291 31.0705 7.63376C30.688 7.50374 30.2576 7.38459 29.7794 7.27625C29.3118 7.16791 28.839 7.04334 28.3608 6.90251C27.8932 6.75084 27.4628 6.56126 27.0696 6.33374C26.687 6.09541 26.3736 5.78126 26.1292 5.39126C25.8848 5.00126 25.7626 4.50292 25.7626 3.89625C25.7626 3.27875 25.922 2.71542 26.2408 2.20625C26.5702 1.68625 27.0643 1.27458 27.7232 0.971249C28.3926 0.657083 29.2374 0.5 30.2576 0.5C30.9271 0.5 31.5912 0.586667 32.2501 0.760001C32.909 0.933333 33.4828 1.1825 33.9716 1.5075L33.3181 3.14875C32.8186 2.84542 32.3032 2.62333 31.7719 2.4825C31.2406 2.33083 30.7305 2.255 30.2416 2.255C29.6678 2.255 29.2002 2.32541 28.839 2.46625C28.4883 2.60708 28.2279 2.79125 28.0579 3.01875C27.8985 3.24625 27.8188 3.50625 27.8188 3.79875C27.8188 4.14542 27.9357 4.42707 28.1695 4.64375C28.4139 4.84959 28.7274 5.01207 29.1099 5.13125C29.5031 5.25043 29.9388 5.36958 30.417 5.48876C30.8952 5.59707 31.3681 5.72167 31.8356 5.8625C32.3138 6.00333 32.7442 6.18749 33.1268 6.41501C33.52 6.6425 33.8334 6.95126 34.0672 7.34126C34.3116 7.73126 34.4338 8.22418 34.4338 8.81999C34.4338 9.42667 34.2692 9.98999 33.9397 10.51C33.6209 11.0192 33.1268 11.4308 32.4573 11.745C31.7878 12.0483 30.943 12.2 29.9229 12.2Z" fill="#303030"/>
<path d="M12.124 12.2L17.1451 0.5H19.1854L24.2224 12.2H22.0546L20.9456 9.49227L20.5964 8.63985L20.2473 7.78742L18.1501 2.66702L16.0606 7.78742H20.2473L20.5964 8.63985L20.9456 9.49227H15.3649L14.26 12.2H12.124Z" fill="#303030"/>
<path d="M0 12.2V0.5H1.70557L7.8584 8.42137V0.5H9.91464V12.2H8.20908L2.05625 4.27865V12.2H0Z" fill="#303030"/>
<path d="M111.562 12.2V4.42496V0.5H115.849C116.956 0.5 117.826 0.750714 118.46 1.25214C119.104 1.75357 119.426 2.49457 119.426 3.47514C119.426 4.11029 119.285 4.64515 119.003 5.07973C118.732 5.51427 118.349 5.83742 117.856 6.04915C117.74 6.09997 117.62 6.14467 117.495 6.18328C117.831 6.24178 118.132 6.33077 118.4 6.45027C118.923 6.68427 119.32 7.02416 119.592 7.46985C119.864 7.91558 119.999 8.46715 119.999 9.12458C119.999 10.1052 119.677 10.8628 119.033 11.3977C118.4 11.9326 117.438 12.2 116.151 12.2H111.562ZM112.076 11.6986H116.181C117.257 11.6986 118.078 11.4924 118.641 11.0802C119.205 10.6567 119.486 9.99927 119.486 9.10785C119.486 8.20527 119.205 7.54785 118.641 7.13558C118.078 6.71215 117.257 6.50042 116.181 6.50042H111.993L111.985 6.01573H115.864C116.83 6.01573 117.579 5.804 118.113 5.38058C118.656 4.95715 118.928 4.33314 118.928 3.50857C118.928 2.684 118.656 2.06 118.113 1.63657C117.579 1.21314 116.83 1.00143 115.864 1.00143H112.076V4.42496H111.562V5.22033V6.01573H111.985L112.076 11.6986Z" fill="#303030"/>
<path d="M101.995 11.6818H108.621V12.2H101.481V0.5H108.409V1.01814H101.995V4.40433H101.481V5.999H107.73V6.51715H101.995V11.6818Z" fill="#303030"/>
<path d="M87.6072 12.2L84 0.5H84.5432L88.0148 11.8156L88.1356 12.2L88.9936 9.46836L88.7428 8.65291L91.32 0.5H91.818L95.2504 11.4037L95.4968 12.2L96.3552 9.47776L96.0996 8.64831L98.61 0.5H99.1232L96.3552 9.47776L95.4968 12.2H95.0028L91.5012 1.10172H91.622L88.9936 9.46836L88.1356 12.2H87.6072Z" fill="#303030"/>
</g>
<defs>
<clipPath id="clip0_649_9171">
<rect width="120" height="12" fill="white" transform="translate(0 0.5)"/>
</clipPath>
</defs>
</svg>
