<svg width="24" height="24" viewBox="0 0 24 24" fill="none" xmlns="http://www.w3.org/2000/svg">
<g clip-path="url(#clip0_6_3798)">
<path d="M10.667 10.6669C11.0352 10.2987 11.0352 9.70172 10.667 9.33353L7.33366 6.00017C6.96547 5.63198 6.36851 5.63198 6.00032 6.00017C5.63213 6.36836 5.63213 6.96532 6.00032 7.33351L9.33368 10.6669C9.70188 11.0351 10.2988 11.0351 10.667 10.6669Z" fill="#090D0E"/>
<path d="M13.3337 13.3336C12.9655 13.7018 12.9655 14.2987 13.3337 14.6669L16.6671 18.0003C17.0353 18.3685 17.6322 18.3685 18.0004 18.0003C18.3686 17.6321 18.3686 17.0351 18.0004 16.6669L14.6671 13.3336C14.2989 12.9654 13.7019 12.9654 13.3337 13.3336Z" fill="#090D0E"/>
<rect x="5.33301" y="17.3335" width="16.9707" height="1.88563" rx="0.942817" transform="rotate(-45 5.33301 17.3335)" fill="#090D0E"/>
</g>
<defs>
<clipPath id="clip0_6_3798">
<rect width="24" height="24" fill="white"/>
</clipPath>
</defs>
</svg>
