<svg width="80" height="80" viewBox="0 0 80 80" fill="none" xmlns="http://www.w3.org/2000/svg">
<circle cx="40" cy="40" r="39.5" stroke="white"/>
<path d="M48 41C48.5523 41 49 40.5523 49 40C49 39.4477 48.5523 39 48 39L48 41ZM31.2929 39.2929C30.9024 39.6834 30.9024 40.3166 31.2929 40.7071L37.6569 47.0711C38.0474 47.4616 38.6805 47.4616 39.0711 47.0711C39.4616 46.6805 39.4616 46.0474 39.0711 45.6569L33.4142 40L39.0711 34.3431C39.4616 33.9526 39.4616 33.3195 39.0711 32.9289C38.6805 32.5384 38.0474 32.5384 37.6569 32.9289L31.2929 39.2929ZM48 39L32 39L32 41L48 41L48 39Z" fill="white"/>
</svg>
