<svg width="16" height="16" viewBox="0 0 16 16" fill="none" xmlns="http://www.w3.org/2000/svg">
<g clip-path="url(#clip0_161_1187)">
<path d="M14.6753 2.50874C12.6207 3.32862 3.80362 6.8436 1.36575 7.80249C-0.267367 8.41527 0.687739 8.99117 0.687739 8.99117C0.687739 8.99117 2.08208 9.45076 3.27891 9.79686C4.47574 10.143 5.11247 9.75998 5.11247 9.75998L10.7311 6.11734C12.7238 4.81234 12.2463 5.88755 11.7658 6.34713C10.7311 7.3429 9.01544 8.91741 7.58278 10.1827C6.94604 10.7189 7.26441 11.1785 7.54445 11.4111C8.57915 12.2537 11.4091 13.9814 11.5683 14.0948C12.4114 14.6679 14.0651 15.4935 14.3186 13.7487L15.315 7.72873C15.6334 5.69747 15.9517 3.81657 15.993 3.28039C16.1109 1.97255 14.6753 2.50874 14.6753 2.50874Z" fill="white"/>
</g>
<defs>
<clipPath id="clip0_161_1187">
<rect width="16" height="12.8" fill="white" transform="translate(0 2)"/>
</clipPath>
</defs>
</svg>
