<svg width="16" height="16" viewBox="0 0 16 16" fill="none" xmlns="http://www.w3.org/2000/svg">
<g clip-path="url(#clip0_161_1185)">
<path d="M13.6698 2.32512C12.1656 0.82688 10.1657 0.00064 8.03474 0C3.64422 0 0.0707358 3.55648 0.0688073 7.92768C0.0681644 9.3248 0.435219 10.6893 1.13205 11.8912L0.00195312 16L4.22469 14.8973C5.38821 15.529 6.6983 15.8618 8.03152 15.8624H8.03474C12.4253 15.8624 15.9987 12.3053 16.0007 7.93408C16.0013 5.81568 15.174 3.824 13.6698 2.32512ZM8.03474 14.5235H8.03217C6.84422 14.5229 5.67877 14.2054 4.66246 13.6051L4.42076 13.4624L1.91501 14.1165L2.58419 11.6845L2.4267 11.4349C1.76395 10.3859 1.4136 9.17312 1.41425 7.92768C1.41489 4.29504 4.3854 1.33888 8.03731 1.33888C9.80573 1.33952 11.4681 2.0256 12.7184 3.27168C13.9687 4.51776 14.6565 6.1728 14.6559 7.93344C14.6539 11.5674 11.6841 14.5235 8.03474 14.5235ZM11.6667 9.58784C11.4674 9.48864 10.4891 9.00928 10.3065 8.94336C10.1239 8.87744 9.99151 8.84416 9.85844 9.04256C9.72602 9.24096 9.34418 9.68704 9.22847 9.81952C9.11212 9.952 8.99641 9.968 8.79713 9.8688C8.59786 9.7696 7.95696 9.56032 7.19649 8.88576C6.60509 8.36032 6.20525 7.712 6.0889 7.5136C5.97254 7.3152 6.07668 7.20832 6.17632 7.10912C6.26567 7.02016 6.3756 6.87744 6.47459 6.76224C6.57423 6.6464 6.60702 6.56384 6.67387 6.432C6.74008 6.29952 6.7073 6.18432 6.65716 6.08512C6.60766 5.98592 6.2091 5.01056 6.04325 4.6144C5.88191 4.22784 5.71734 4.28032 5.5952 4.27456C5.47949 4.2688 5.34643 4.26752 5.21401 4.26752C5.08158 4.26752 4.86559 4.3168 4.68303 4.5152C4.50111 4.71296 3.98685 5.19232 3.98685 6.16704C3.98685 7.14176 4.69974 8.08384 4.79938 8.21632C4.89902 8.3488 6.20268 10.3494 8.1993 11.2077C8.67435 11.4118 9.04462 11.5334 9.33389 11.625C9.81087 11.776 10.2448 11.7542 10.5874 11.7037C10.9699 11.6467 11.7651 11.2243 11.9309 10.7616C12.0968 10.2989 12.0968 9.90208 12.0473 9.81952C11.9984 9.73696 11.8654 9.68704 11.6667 9.58784Z" fill="white"/>
</g>
<defs>
<clipPath id="clip0_161_1185">
<rect width="16" height="16" fill="white"/>
</clipPath>
</defs>
</svg>
