<svg width="1896" height="273" viewBox="0 0 1896 273" fill="none" xmlns="http://www.w3.org/2000/svg">
<path d="M3.66028 269V222.921L104.197 130.762C114.606 121.114 122.35 112.101 127.427 103.723C132.505 95.0913 135.044 85.8246 135.044 75.9233C135.044 62.9753 130.982 52.5662 122.858 44.6958C114.733 36.8255 104.197 32.8904 91.2493 32.8904C66.8767 32.8904 49.105 48.2502 37.9343 78.9698L0.994524 72.8767C7.59544 49.7735 18.7662 31.3671 34.5069 17.6575C50.2475 3.69402 69.6694 -3.28771 92.7726 -3.28771C108.767 -3.28771 123.111 0.139684 135.806 6.99448C148.5 13.5954 158.401 22.989 165.51 35.1753C172.618 47.1077 176.173 60.5634 176.173 75.5424C176.173 91.0292 172.237 104.866 164.367 117.052C156.751 129.238 144.818 142.821 128.57 157.8L53.1671 226.729V232.441L178.077 231.299V269H3.66028ZM332.961 269H293.737V36.6986H200.435V0.520502H426.643V36.6986H332.961V269ZM458.695 269V0.520502H496.015V98.7726C502.616 89.1251 510.868 81.6356 520.769 76.3041C530.924 70.9726 541.968 68.3068 553.9 68.3068C568.118 68.3068 580.812 71.8612 591.983 78.9698C603.407 85.8246 612.293 95.4721 618.64 107.912C624.987 120.099 628.161 133.935 628.161 149.422V269H590.84V152.849C590.84 137.87 586.524 125.684 577.892 116.29C569.514 106.897 558.597 102.2 545.142 102.2C531.178 102.2 519.499 107.024 510.106 116.671C500.712 126.065 496.015 138.124 496.015 152.849V269H458.695ZM867.736 169.225C867.736 174.302 867.609 178.237 867.356 181.03H704.745C706.776 198.548 713.63 212.511 725.309 222.921C736.987 233.33 751.84 238.534 769.865 238.534C782.305 238.534 793.349 236.122 802.997 231.299C812.898 226.221 820.387 219.62 825.465 211.496L860.501 217.208C852.884 234.98 840.571 248.689 823.561 258.337C806.805 267.984 788.145 272.808 767.58 272.808C748.031 272.808 730.514 268.492 715.027 259.86C699.54 250.974 687.481 238.788 678.849 223.301C670.217 207.815 665.901 190.297 665.901 170.748C665.901 150.945 670.217 133.3 678.849 117.814C687.481 102.327 699.413 90.2675 714.646 81.6356C729.879 72.7497 747.27 68.3068 766.819 68.3068C786.114 68.3068 803.377 72.7497 818.61 81.6356C834.097 90.2675 846.156 102.327 854.788 117.814C863.42 133.047 867.736 150.184 867.736 169.225ZM766.819 101.438C751.84 101.438 738.892 105.881 727.975 114.767C717.312 123.653 710.203 135.585 706.649 150.564H826.988C823.688 135.839 816.579 124.034 805.662 115.148C794.999 106.008 782.051 101.438 766.819 101.438ZM946.082 269H907.619V0.520502H971.216L1050.05 212.638H1055.76L1135.35 0.520502H1197.42V269H1158.96V49.6465H1153.63L1070.99 269H1033.29L951.794 49.6465H946.082V269ZM1345.19 272.808C1325.13 272.808 1307.23 268.492 1291.49 259.86C1275.75 251.228 1263.44 239.169 1254.55 223.682C1245.67 208.195 1241.22 190.551 1241.22 170.748C1241.22 150.945 1245.67 133.3 1254.55 117.814C1263.44 102.327 1275.75 90.2675 1291.49 81.6356C1307.23 72.7497 1325.13 68.3068 1345.19 68.3068C1365.25 68.3068 1383.14 72.7497 1398.88 81.6356C1414.63 90.2675 1426.94 102.327 1435.82 117.814C1444.71 133.3 1449.15 150.945 1449.15 170.748C1449.15 190.551 1444.71 208.195 1435.82 223.682C1426.94 239.169 1414.63 251.228 1398.88 259.86C1383.14 268.492 1365.25 272.808 1345.19 272.808ZM1345.19 238.534C1364.48 238.534 1380.1 232.314 1392.03 219.874C1404.22 207.434 1410.31 191.058 1410.31 170.748C1410.31 150.437 1404.22 134.062 1392.03 121.622C1380.1 108.928 1364.48 102.581 1345.19 102.581C1325.89 102.581 1310.28 108.928 1298.35 121.622C1286.42 134.062 1280.45 150.437 1280.45 170.748C1280.45 190.805 1286.42 207.18 1298.35 219.874C1310.28 232.314 1325.89 238.534 1345.19 238.534ZM1581.72 272.808C1561.66 272.808 1543.76 268.492 1528.02 259.86C1512.28 251.228 1499.97 239.169 1491.08 223.682C1482.19 208.195 1477.75 190.551 1477.75 170.748C1477.75 150.945 1482.19 133.3 1491.08 117.814C1499.97 102.327 1512.28 90.2675 1528.02 81.6356C1543.76 72.7497 1561.66 68.3068 1581.72 68.3068C1601.77 68.3068 1619.67 72.7497 1635.41 81.6356C1651.15 90.2675 1663.46 102.327 1672.35 117.814C1681.24 133.3 1685.68 150.945 1685.68 170.748C1685.68 190.551 1681.24 208.195 1672.35 223.682C1663.46 239.169 1651.15 251.228 1635.41 259.86C1619.67 268.492 1601.77 272.808 1581.72 272.808ZM1581.72 238.534C1601.01 238.534 1616.62 232.314 1628.56 219.874C1640.74 207.434 1646.84 191.058 1646.84 170.748C1646.84 150.437 1640.74 134.062 1628.56 121.622C1616.62 108.928 1601.01 102.581 1581.72 102.581C1562.42 102.581 1546.81 108.928 1534.87 121.622C1522.94 134.062 1516.98 150.437 1516.98 170.748C1516.98 190.805 1522.94 207.18 1534.87 219.874C1546.81 232.314 1562.42 238.534 1581.72 238.534ZM1725.7 269V72.115H1752.74L1761.12 101.819C1767.72 91.1561 1776.22 82.905 1786.63 77.0657C1797.04 71.2265 1808.47 68.3068 1820.91 68.3068C1835.12 68.3068 1847.82 71.8612 1858.99 78.9698C1870.41 85.8246 1879.3 95.4721 1885.65 107.912C1891.99 120.099 1895.17 133.935 1895.17 149.422V269H1857.85V152.849C1857.85 137.87 1853.53 125.684 1844.9 116.29C1836.52 106.897 1825.6 102.2 1812.15 102.2C1798.18 102.2 1786.51 107.024 1777.11 116.671C1767.72 126.065 1763.02 138.124 1763.02 152.849V269H1725.7Z" fill="#005EFF"/>
</svg>
