<svg width="150" height="204" viewBox="0 0 150 204" fill="none" xmlns="http://www.w3.org/2000/svg">
<path d="M22.4958 0C26.3506 22.2483 36.2257 42.4329 50.3822 58.8148H22.4967C10.971 41.479 3.13428 21.5088 0 0H22.4958Z" fill="#6f16aa"/>
<path d="M77.4958 0C81.3506 22.2483 91.2257 42.4329 105.382 58.8148H77.4967C65.971 41.479 58.1343 21.5088 55 0H77.4958Z" fill="#6f16aa"/>
<path d="M132.496 0C136.351 22.2483 146.226 42.4329 160.382 58.8148H132.497C120.971 41.479 113.134 21.5088 110 0H132.496Z" fill="#6f16aa"/>
<path d="M22.4958 59C26.3506 81.2483 36.2257 101.433 50.3822 117.815H22.4967C10.971 100.479 3.13428 80.5088 0 59H22.4958Z" fill="#6f16aa"/>
<path d="M77.4958 59C81.3506 81.2483 91.2257 101.433 105.382 117.815H77.4967C65.971 100.479 58.1343 80.5088 55 59H77.4958Z" fill="#6f16aa"/>
<path d="M132.496 59C136.351 81.2483 146.226 101.433 160.382 117.815H132.497C120.971 100.479 113.134 80.5088 110 59H132.496Z" fill="#6f16aa"/>
<path d="M22.4958 118C26.3506 140.248 36.2257 160.433 50.3822 176.815H22.4967C10.971 159.479 3.13428 139.509 0 118H22.4958Z" fill="#6f16aa"/>
<path d="M77.4958 118C81.3506 140.248 91.2257 160.433 105.382 176.815H77.4967C65.971 159.479 58.1343 139.509 55 118H77.4958Z" fill="#6f16aa"/>
<path d="M132.496 118C136.351 140.248 146.226 160.433 160.382 176.815H132.497C120.971 159.479 113.134 139.509 110 118H132.496Z" fill="#6f16aa"/>
<path d="M22.4958 176C26.3506 198.248 36.2257 218.433 50.3822 234.815H22.4967C10.971 217.479 3.13428 197.509 0 176H22.4958Z" fill="#6f16aa"/>
<path d="M77.4958 176C81.3506 198.248 91.2257 218.433 105.382 234.815H77.4967C65.971 217.479 58.1343 197.509 55 176H77.4958Z" fill="#6f16aa"/>
<path d="M132.496 176C136.351 198.248 146.226 218.433 160.382 234.815H132.497C120.971 217.479 113.134 197.509 110 176H132.496Z" fill="#6f16aa"/>
</svg>
