<svg width="385" height="415" viewBox="0 0 385 415" fill="none" xmlns="http://www.w3.org/2000/svg">
<path d="M53.6983 0C62.8217 52.6562 86.1936 100.428 119.698 139.2H53.7003C26.4219 98.1705 7.87436 50.906 0.456299 0H53.6983Z" fill="#6A0FA8"/>
<path d="M53.6981 139.203C62.8215 191.859 86.1934 239.631 119.698 278.403H53.7C26.4217 237.374 7.87412 190.109 0.456055 139.203H53.6981Z" fill="#6A0FA8"/>
<path d="M53.6981 278.398C62.8215 331.055 86.1934 378.827 119.698 417.598H53.7C26.4217 376.569 7.87412 329.304 0.456055 278.398H53.6981Z" fill="#6A0FA8"/>
<path d="M183.646 0C192.77 52.6562 216.142 100.428 249.646 139.2H183.648C156.37 98.1705 137.822 50.906 130.404 0H183.646Z" fill="#6A0FA8"/>
<path d="M183.647 139.203C192.77 191.859 216.142 239.631 249.647 278.403H183.649C156.37 237.374 137.823 190.109 130.405 139.203H183.647Z" fill="#6A0FA8"/>
<path d="M183.647 278.398C192.77 331.055 216.142 378.827 249.647 417.598H183.649C156.37 376.569 137.823 329.304 130.405 278.398H183.647Z" fill="#6A0FA8"/>
<path d="M313.595 0C322.718 52.6562 346.09 100.428 379.595 139.2H313.597C286.319 98.1705 267.771 50.906 260.353 0H313.595Z" fill="#6A0FA8"/>
<path d="M313.595 139.203C322.718 191.859 346.09 239.631 379.595 278.403H313.597C286.318 237.374 267.771 190.109 260.353 139.203H313.595Z" fill="#6A0FA8"/>
<path d="M313.595 278.398C322.718 331.055 346.09 378.827 379.595 417.598H313.597C286.318 376.569 267.771 329.304 260.353 278.398H313.595Z" fill="#6A0FA8"/>
</svg>
