<svg width="160" height="71" viewBox="0 0 160 71" fill="none" xmlns="http://www.w3.org/2000/svg">
<path d="M18.511 0C21.6829 18.3073 29.8088 34.9164 41.4576 48.3965H18.5116C9.02762 34.1315 2.57908 17.6988 0 0H18.511Z" fill="#6F16AA"/>
<path d="M63.5637 0C66.7357 18.3073 74.8615 34.9164 86.5103 48.3965H63.5644C54.0804 34.1315 47.6318 17.6988 45.0527 0H63.5637Z" fill="#6F16AA"/>
<path d="M108.994 0C112.166 18.3073 120.292 34.9164 131.941 48.3965H108.995C99.511 34.1315 93.0625 17.6988 90.4834 0H108.994Z" fill="#6F16AA"/>
<path d="M154.047 0C157.219 18.3073 165.345 34.9164 176.994 48.3965H154.048C144.564 34.1315 138.115 17.6988 135.536 0H154.047Z" fill="#6F16AA"/>
<path d="M18.511 48.46C21.6829 66.7673 29.8088 83.3764 41.4576 96.8564H18.5116C9.02762 82.5914 2.57908 66.1587 0 48.46H18.511Z" fill="#6F16AA"/>
<path d="M63.5637 48.46C66.7357 66.7673 74.8615 83.3764 86.5103 96.8564H63.5644C54.0804 82.5914 47.6318 66.1587 45.0527 48.46H63.5637Z" fill="#6F16AA"/>
<path d="M108.994 48.46C112.166 66.7673 120.292 83.3764 131.941 96.8564H108.995C99.511 82.5914 93.0625 66.1587 90.4834 48.46H108.994Z" fill="#6F16AA"/>
<path d="M154.047 48.46C157.219 66.7673 165.345 83.3764 176.994 96.8564H154.048C144.564 82.5914 138.115 66.1587 135.536 48.46H154.047Z" fill="#6F16AA"/>
</svg>
