<svg width="215" height="246" viewBox="0 0 215 246" fill="none" xmlns="http://www.w3.org/2000/svg">
<path d="M63.0661 -83.9844C55.4941 -42.2689 32.8585 -5.80157 0.998566 19.5786H41.3507C67.1639 -8.68894 84.9496 -44.4122 91.1011 -83.9844H63.0661Z" fill="white"/>
<path d="M63.0661 19.5977C55.4941 61.3131 32.8585 97.7805 0.998566 123.161H41.3507C67.1639 94.8931 84.9496 59.1698 91.1011 19.5977H63.0661Z" fill="white"/>
<path d="M63.0661 226.724C55.4941 185.008 32.8585 148.541 0.998566 123.161H41.3507C67.1639 151.428 84.9496 187.151 91.1011 226.724H63.0661Z" fill="white"/>
<path d="M63.0661 330.32C55.4941 288.605 32.8585 252.138 0.998566 226.757H41.3507C67.1639 255.025 84.9496 290.748 91.1011 330.32H63.0661Z" fill="white"/>
<path d="M172.287 -83.9844C164.715 -42.2689 142.079 -5.80157 110.219 19.5786H150.571C176.385 -8.68894 194.17 -44.4122 200.322 -83.9844H172.287Z" fill="white"/>
<path d="M172.287 19.5977C164.715 61.3131 142.079 97.7805 110.219 123.161H150.571C176.385 94.8931 194.17 59.1698 200.322 19.5977H172.287Z" fill="white"/>
<path d="M172.287 226.724C164.715 185.008 142.079 148.541 110.219 123.161H150.571C176.385 151.428 194.17 187.151 200.322 226.724H172.287Z" fill="white"/>
<path d="M172.287 330.32C164.715 288.605 142.079 252.138 110.219 226.757H150.571C176.385 255.025 194.17 290.748 200.322 330.32H172.287Z" fill="white"/>
</svg>
