<svg width="176" height="263" viewBox="0 0 176 263" fill="none" xmlns="http://www.w3.org/2000/svg">
<path d="M88.1621 43.8333C88.1621 68.0418 68.4988 87.6667 44.243 87.6667C19.9872 87.6667 0.324037 68.0418 0.324037 43.8333C0.324037 19.6249 19.9872 0 44.243 0C68.4988 0 88.1621 19.6249 88.1621 43.8333Z" fill="#FFD93D"/>
<path d="M175.676 219.167C175.676 243.375 156.013 263 131.757 263C107.501 263 87.838 243.375 87.838 219.167C87.838 194.958 107.501 175.333 131.757 175.333C156.013 175.333 175.676 194.958 175.676 219.167Z" fill="#8CC93D"/>
<path d="M0 87.6667H87.838V175.333H43.919C19.6632 175.333 0 155.708 0 131.5V87.6667Z" fill="#7EB3FF"/>
<path d="M87.838 0H131.757C156.013 0 175.676 19.6249 175.676 43.8333V87.6667H131.757C107.501 87.6667 87.838 68.0418 87.838 43.8333V0Z" fill="#7EB3FF"/>
<path d="M0 175.333H43.919C68.1748 175.333 87.838 194.958 87.838 219.167V263H43.919C19.6632 263 0 243.375 0 219.167V175.333Z" fill="#FF6B6B"/>
<path d="M176 131.5C176 155.708 156.337 175.333 132.081 175.333C107.825 175.333 88.162 155.708 88.162 131.5C88.162 107.292 107.825 87.6667 132.081 87.6667C156.337 87.6667 176 107.292 176 131.5Z" fill="#C9DFFF"/>
</svg>
