<svg width="118" height="213" viewBox="0 0 118 213" fill="none" xmlns="http://www.w3.org/2000/svg">
<path d="M143.333 177.5C143.333 197.106 127.29 213 107.5 213C87.7098 213 71.6667 197.106 71.6667 177.5C71.6667 157.894 87.7098 142 107.5 142C127.29 142 143.333 157.894 143.333 177.5Z" fill="#8CC93D"/>
<path d="M0 71H71.6667V142H35.8333C16.0431 142 0 126.106 0 106.5V71Z" fill="#7EB3FF"/>
<path d="M143.333 106.5C143.333 86.8939 159.376 71 179.167 71C198.957 71 215 86.8939 215 106.5C215 126.106 198.957 142 179.167 142H143.333V106.5Z" fill="#FF6B6B"/>
<path d="M71.6667 0H107.5C127.29 0 143.333 15.8939 143.333 35.5V71H107.5C87.7098 71 71.6667 55.1061 71.6667 35.5V0Z" fill="#4D96FF"/>
<path d="M0 142H35.8333C55.6235 142 71.6667 157.894 71.6667 177.5V213H35.8333C16.0431 213 0 197.106 0 177.5V142Z" fill="#FF6B6B"/>
<path d="M71.6667 35.5C71.6667 55.1061 55.6235 71 35.8333 71C16.0431 71 0 55.1061 0 35.5C0 15.8939 16.0431 0 35.8333 0C55.6235 0 71.6667 15.8939 71.6667 35.5Z" fill="#FFD93D"/>
</svg>
