<svg width="25" height="25" viewBox="0 0 25 25" fill="none" xmlns="http://www.w3.org/2000/svg">
<path fill-rule="evenodd" clip-rule="evenodd" d="M11.2009 0.223607C8.82474 0.843284 6.94781 2.63866 6.19509 5.01197C5.82835 6.16818 5.84661 7.89264 6.23845 9.09521C6.7115 10.5473 7.71004 11.9035 8.91368 12.7288C9.6123 13.2077 9.67956 13.4785 9.25475 14.101C8.96656 14.523 8.85958 14.5877 7.62862 15.0849C5.20629 16.0632 3.17592 17.8963 2.35605 19.845C2.0943 20.4673 2.05923 20.7118 2.01962 22.1915C1.97703 23.7813 1.98522 23.858 2.23624 24.2289C2.7896 25.0466 2.13191 24.9994 12.9874 24.9995C22.6486 24.9997 22.7101 24.9983 23.1199 24.7691C23.7278 24.4291 23.9336 24.0008 23.9883 22.963C24.1661 19.5914 22.3175 16.989 18.5004 15.2375C16.9876 14.5433 16.9037 14.4921 16.6255 14.0921C16.2106 13.4958 16.2864 13.2046 16.9805 12.7288C18.1842 11.9035 19.1827 10.5473 19.6557 9.09521C20.0476 7.89264 20.0658 6.16818 19.6991 5.01197C18.551 1.39215 14.8075 -0.717084 11.2009 0.223607ZM13.6947 15.5014C13.9654 15.7396 15.1129 20.1061 15.0111 20.5102C14.9748 20.6538 14.5757 21.128 14.1239 21.5639C12.9995 22.6492 12.865 22.6455 11.71 21.4958C11.1133 20.9018 10.8452 20.5532 10.8452 20.3717C10.8452 20.227 11.0965 19.1154 11.4037 17.9014C12.0352 15.4063 12.0934 15.3087 12.9471 15.3087C13.2934 15.3087 13.5512 15.3752 13.6947 15.5014Z" fill="#373737"/>
</svg>
