<svg width="25" height="25" viewBox="0 0 25 25" fill="none" xmlns="http://www.w3.org/2000/svg">
<path fill-rule="evenodd" clip-rule="evenodd" d="M7.67532 2.0809C5.79603 2.36879 4.07773 3.01362 2.74742 3.93023C2.11274 4.36752 1.14565 5.35862 0.776235 5.95036C0.613995 6.21027 0.37287 6.71548 0.240428 7.07306C0.018122 7.67307 -0.000462095 7.80065 8.39323e-06 8.72568C0.000400467 9.62408 0.0229058 9.78896 0.216747 10.3149C0.335702 10.6376 0.558556 11.1206 0.711935 11.3883C0.985838 11.8663 2.01464 12.9988 2.52324 13.3824L2.78185 13.5773L2.62094 14.0521C2.36256 14.8144 2.09611 15.2078 1.21826 16.1235L0.391768 16.9855H1.65636C2.90637 16.9855 3.59705 16.8952 4.30348 16.6396C4.58272 16.5385 4.61432 16.5006 4.59174 16.2947C4.57778 16.1674 4.56155 15.4679 4.55567 14.7401C4.54532 13.4526 4.55151 13.398 4.7877 12.7124C5.15083 11.6579 5.67864 10.8181 6.5383 9.92721C7.4062 9.02768 8.0699 8.53105 9.16214 7.96385C11.6175 6.68886 15.0702 6.17835 17.8447 6.6802C18.7542 6.84468 18.7231 6.85735 18.503 6.41308C17.4405 4.2688 14.729 2.60376 11.4986 2.11178C10.6182 1.97777 8.46252 1.96029 7.67532 2.0809ZM13.2428 8.17155C9.59577 8.82536 6.98339 10.7078 6.15893 13.2761C5.57498 15.0952 6.08914 16.9834 7.5969 18.5566C9.85713 20.9151 14.0255 22.0279 17.8802 21.302L18.3616 21.2113L18.7428 21.537C19.2261 21.9499 19.771 22.2754 20.4318 22.5457C21.2898 22.8967 21.9507 23 23.3393 23H24.6039L23.7774 22.1379C22.8995 21.2223 22.6331 20.8289 22.3747 20.0665L22.2138 19.5918L22.4724 19.3976C22.6146 19.2907 23.0335 18.8891 23.4034 18.505C23.8939 17.9958 24.1618 17.6361 24.3934 17.1757C24.9242 16.1207 25.0057 15.7883 24.9997 14.7C24.995 13.8288 24.9718 13.6762 24.7544 13.0875C24.4317 12.2137 24.0423 11.6122 23.3277 10.8848C21.9121 9.44356 19.9005 8.49817 17.4581 8.12624C16.3206 7.95302 14.343 7.97427 13.2428 8.17155Z" fill="#373737"/>
</svg>
