<svg width="25" height="25" viewBox="0 0 25 25" fill="none" xmlns="http://www.w3.org/2000/svg">
<g clip-path="url(#clip0_128_513)">
<path fill-rule="evenodd" clip-rule="evenodd" d="M6.9445 0.0948789C3.87025 0.678311 1.30978 2.90442 0.359821 5.81952C0.0523599 6.76315 -0.00701256 7.21904 0.000622322 8.57808C0.00762845 9.82097 0.0343957 10.0549 0.252125 10.7716C0.911509 12.9425 2.40938 14.8407 4.28792 15.8864C7.19214 17.5029 10.8878 17.26 13.5097 15.2804L14.1821 14.7728L14.8744 15.4605L15.5666 16.1483L15.4371 16.4582C15.2575 16.8875 15.2762 17.7013 15.4755 18.1374C15.5709 18.346 16.2522 19.1273 17.1012 20.0018L18.5628 21.5071L20.0511 20.0198L21.5394 18.5326L20.0627 17.0466C19.1738 16.152 18.443 15.4936 18.2267 15.3923C17.7709 15.1789 16.9285 15.1673 16.5044 15.3683L16.1921 15.5164L15.5252 14.8545C15.1585 14.4904 14.8584 14.16 14.8584 14.1203C14.8584 14.0806 15.0202 13.8435 15.218 13.5934C17.1249 11.1827 17.4724 7.50331 16.0585 4.6926C15.6216 3.824 15.2879 3.34756 14.6389 2.66593C13.4245 1.39019 12.1061 0.620866 10.3673 0.172969C9.62498 -0.018217 7.76404 -0.0606732 6.9445 0.0948789ZM10.0418 2.11257C11.1744 2.40204 12.0921 2.93629 12.9721 3.81844C13.819 4.66737 14.222 5.28411 14.555 6.24103C15.0447 7.64818 15.0447 9.14894 14.555 10.5561C14.2269 11.4987 13.8221 12.126 13.017 12.939C12.2194 13.7446 11.4893 14.2125 10.4657 14.5744C9.83471 14.7976 9.67887 14.8153 8.39118 14.8115C7.09253 14.8076 6.95367 14.7905 6.32527 14.5562C4.54158 13.8914 3.32629 12.7914 2.54636 11.1362C0.818184 7.46812 2.86101 3.14794 6.81345 2.11212C7.69883 1.88009 9.13284 1.88027 10.0418 2.11257ZM7.68814 2.83719C6.94199 2.9379 6.60111 3.05216 5.76631 3.48157C4.57419 4.09471 3.63896 5.18555 3.10829 6.58166C2.90601 7.11402 2.87772 7.32729 2.87278 8.35368C2.86676 9.59747 2.95299 9.99995 3.43021 10.9567C4.11672 12.3331 5.50933 13.4382 7.07035 13.8456C7.79656 14.0351 9.08254 14.0333 9.8172 13.8416C11.5248 13.3962 13.0881 11.9912 13.6762 10.3733C13.9284 9.67969 14.0505 9.01996 14.0468 8.37172C14.0279 5.03404 10.9915 2.39127 7.68814 2.83719ZM20.6733 20.5843C19.8958 21.3624 19.2597 22.0402 19.2597 22.0904C19.2597 22.1406 19.5131 22.4327 19.8228 22.7394L20.3859 23.2972L21.8377 21.8392L23.2895 20.3814L22.7272 19.7755C22.4179 19.4423 22.1473 19.1696 22.1259 19.1696C22.1045 19.1696 21.4508 19.8063 20.6733 20.5843ZM22.4697 22.4692C21.6922 23.2474 21.0561 23.9145 21.0561 23.9519C21.0561 24.0914 21.7427 24.6796 22.0891 24.8368C22.297 24.9312 22.6565 25 22.9424 25C24.3644 25 25.3183 23.6805 24.9015 22.29C24.8059 21.9713 24.0951 21.0546 23.9435 21.0546C23.9105 21.0546 23.2472 21.6912 22.4697 22.4692Z" fill="#373737"/>
</g>
<defs>
<clipPath id="clip0_128_513">
<rect width="25" height="25" fill="white"/>
</clipPath>
</defs>
</svg>
