<svg width="24" height="24" viewBox="0 0 24 24" fill="none" xmlns="http://www.w3.org/2000/svg">
<path fill-rule="evenodd" clip-rule="evenodd" d="M7.40169 19.7625L7.06315 19.5938L3.67767 20.4375L4.58047 17.1188L4.35477 16.7812C3.5084 15.375 3.00058 13.7438 3.00058 12.0562C2.94416 7.05 7.00672 3 11.9721 3C14.3983 3 16.6553 3.95625 18.348 5.64375C20.0408 7.33125 21 9.6375 21 12C21 16.95 16.9374 21 11.9721 21C10.3922 21 8.81231 20.6063 7.40169 19.7625ZM16.373 14.0812L16.9937 14.3625C17.1065 14.4187 17.1629 14.475 17.1629 14.475V14.8687L17.1629 14.8687C17.1065 15.15 17.0501 15.4312 16.9372 15.6562C16.8808 15.7687 16.768 15.8812 16.6551 15.9937C16.5987 16.05 16.5423 16.0922 16.4858 16.1343C16.4294 16.1765 16.373 16.2187 16.3166 16.275L16.2037 16.3875C16.1403 16.4506 16.077 16.4783 16.0036 16.5104C15.9463 16.5355 15.883 16.5632 15.8087 16.6125C15.583 16.725 15.2445 16.8375 14.9624 16.8375H14.3981C14.3135 16.8094 14.2147 16.7953 14.116 16.7812C14.0173 16.7672 13.9185 16.7531 13.8339 16.725C12.3104 16.3312 10.9562 15.6 9.77132 14.5875C9.69759 14.4772 9.59978 14.391 9.49362 14.2974C9.43729 14.2477 9.3786 14.196 9.31992 14.1375L9.09422 13.9125C8.19143 13.0687 7.51434 12.1125 7.00652 11.0437L6.95009 10.875C6.78082 10.4812 6.66797 10.0312 6.66797 9.58123C6.66797 8.96248 6.89367 8.34373 7.28864 7.83748C7.34506 7.78123 7.38738 7.72498 7.4297 7.66873C7.47202 7.61248 7.51434 7.55623 7.57076 7.49998C7.62718 7.47185 7.68361 7.42966 7.74004 7.38748C7.79646 7.34529 7.85288 7.3031 7.90931 7.27498L7.96573 7.21873C8.02216 7.21873 8.07858 7.20466 8.13501 7.1906C8.19143 7.17654 8.24785 7.16248 8.30428 7.16248H8.75568H8.92495C9.09422 7.21873 9.20707 7.27498 9.31992 7.44373C9.48919 7.78123 10.1663 9.29998 10.2227 9.58123C10.2791 9.74998 10.2227 9.97498 10.1099 10.1437C10.0534 10.2 10.0111 10.2703 9.9688 10.3406C9.92648 10.4109 9.88417 10.4812 9.82774 10.5375C9.65847 10.7062 9.43277 10.9875 9.43277 10.9875C9.37635 11.0437 9.37635 11.1562 9.37635 11.2687C9.3979 11.3117 9.41122 11.3465 9.42259 11.3762C9.441 11.4242 9.45432 11.459 9.48919 11.4937L9.54562 11.6062C9.82774 12.1125 10.2227 12.5625 10.6177 12.9562C10.6741 13.0125 10.7446 13.0687 10.8152 13.125C10.8857 13.1812 10.9562 13.2375 11.0127 13.2937C11.4641 13.7437 12.0283 14.0812 12.649 14.3625L12.9311 14.475C12.9875 14.5312 13.1004 14.5875 13.1568 14.5875H13.2132C13.3261 14.5875 13.4389 14.5312 13.4953 14.4187C14.2853 13.5187 14.3417 13.4625 14.3417 13.4625L14.3417 13.4625C14.4546 13.4062 14.5674 13.35 14.7367 13.35C14.7649 13.35 14.7931 13.364 14.8213 13.3781C14.8495 13.3922 14.8777 13.4062 14.9059 13.4062C15.4702 13.6875 16.373 14.0812 16.373 14.0812Z" fill="#373737"/>
</svg>
