<svg width="110" height="87" viewBox="0 0 110 87" fill="none" xmlns="http://www.w3.org/2000/svg">
<path fill-rule="evenodd" clip-rule="evenodd" d="M0 43.5V87H55H110V43.5V0H55H0V43.5ZM109.305 43.5V86.3018H55H0.695322V43.5V0.698234H55H109.305V43.5ZM7.50948 17.2464C7.50948 23.3443 7.46178 26.5329 7.37042 26.5329C7.2785 26.5329 7.23135 32.4446 7.23135 43.9888V61.4446H23.0152H38.799V44.5605V27.6763L39.4495 27.4537C39.8073 27.3313 40.4331 27.2311 40.8402 27.2311C41.2472 27.2311 41.5803 27.1683 41.5803 27.0915C41.5803 27.0108 42.0207 26.9518 42.6233 26.9518C43.1969 26.9518 43.6662 26.8981 43.6662 26.8323C43.6662 26.7665 44.1825 26.6698 44.8135 26.6173C45.4445 26.5646 45.9817 26.4614 46.0071 26.3877C46.0798 26.1775 46.4475 26.2309 46.4475 26.4515C46.4475 26.5603 46.5258 26.6812 46.6214 26.7202C46.7526 26.7735 46.7442 26.8304 46.5866 26.9518C46.429 27.0733 46.4206 27.1302 46.5518 27.1835C46.7759 27.2748 46.8105 60.7464 46.5866 60.7464C46.3774 60.7464 46.4196 61.2969 46.6463 61.5244C46.8828 61.762 49.507 61.8169 49.507 61.5843C49.507 61.5066 49.8778 61.4446 50.3413 61.4446H51.1757V43.3697V25.2949L50.8826 25.2015C50.5025 25.0803 49.0898 25.2571 49.0898 25.4258C49.0898 25.497 48.6517 25.5554 48.1163 25.5554H47.1429V20.8772V16.199H47.5645C47.7965 16.199 48.2109 16.2933 48.4854 16.4085C48.76 16.5237 49.196 16.618 49.4544 16.618C49.7128 16.618 49.9241 16.6808 49.9241 16.7576C49.9241 16.8344 50.1668 16.8973 50.4634 16.8973C50.7601 16.8973 51.2273 16.9915 51.502 17.1067C51.7765 17.222 52.2222 17.3162 52.4924 17.3162C52.7626 17.3162 52.9836 17.3791 52.9836 17.4559C52.9836 17.5327 53.2527 17.5955 53.5815 17.5955C53.9104 17.5955 54.2438 17.66 54.3223 17.7389C54.4008 17.8177 54.7888 17.9207 55.1845 17.9678C55.5802 18.0149 55.9039 18.1075 55.9039 18.1735C55.9039 18.2397 56.243 18.2937 56.6572 18.2937C57.0807 18.2937 57.4328 18.3609 57.4613 18.4471C57.4894 18.5314 57.8074 18.6339 58.1683 18.6747C58.529 18.7156 58.8243 18.8037 58.8243 18.8705C58.8243 18.9374 59.1729 18.992 59.599 18.992C60.1023 18.992 60.4469 19.0654 60.5825 19.2014C60.6972 19.3167 60.9431 19.4109 61.1287 19.4109H61.4665V24.3684C61.4665 27.5803 61.4175 29.3258 61.3274 29.3258C61.2509 29.3258 61.1884 29.4201 61.1884 29.5353C61.1884 29.6505 61.1205 29.7448 61.0378 29.7448C60.9549 29.7448 60.6744 29.9647 60.4143 30.2335C60.1544 30.5024 59.8802 30.7223 59.805 30.7223C59.7297 30.7223 59.4783 30.9087 59.2462 31.1365L58.8243 31.5508V46.4977V61.4446H60.493H62.1618V45.3852C62.1618 33.3838 62.2021 29.3258 62.3216 29.3258C62.4095 29.3258 62.6942 29.1059 62.9541 28.8371C63.2141 28.5683 63.4714 28.3483 63.5258 28.3483C63.5803 28.3483 63.7936 28.1912 63.9998 27.9992C64.2059 27.8072 64.44 27.6501 64.5198 27.6501C64.5996 27.6501 64.665 27.5872 64.665 27.5104C64.665 27.2278 64.8421 27.3296 65.876 28.2059C65.9683 28.2842 66.1092 28.3483 66.1889 28.3483C66.2685 28.3483 66.3338 28.4005 66.3338 28.4644C66.3338 28.5282 66.4902 28.6645 66.6814 28.7673C66.8726 28.87 67.0291 29.0378 67.0291 29.14C67.0291 29.2451 67.1801 29.3258 67.3767 29.3258C67.568 29.3258 67.7244 29.3932 67.7244 29.4754C67.7244 29.6382 68.0668 30.0241 68.2111 30.0241C68.2604 30.0241 68.3877 30.1027 68.4944 30.1986C68.9121 30.575 69.1067 30.7223 69.1854 30.7223C69.2305 30.7223 69.4124 30.8794 69.5895 31.0714C69.7668 31.2634 69.956 31.4205 70.0101 31.4205C70.0642 31.4205 70.1978 31.5103 70.307 31.6201C70.4768 31.7905 70.5057 33.9807 70.5057 46.6321V61.4446H86.1504H101.795V34.7022V7.95987H54.6523H7.50948V17.2464ZM101.135 8.5732C101.365 8.74874 101.378 10.1575 101.378 34.6928C101.378 56.9826 101.35 60.6548 101.179 60.8261C101.019 60.9867 100.397 61.0257 97.9957 61.0257C95.4021 61.0257 94.9997 60.9968 94.9264 60.8048C94.8799 60.6833 94.842 58.8564 94.842 56.7451C94.842 52.5868 94.8562 52.5072 95.597 52.5072C95.7936 52.5072 95.9545 52.4456 95.9545 52.3702C95.9545 52.295 96.1109 52.1939 96.3021 52.1457C96.4934 52.0975 96.6498 52.002 96.6498 51.9336C96.6498 51.865 96.715 51.809 96.7947 51.809C96.9527 51.809 97.1055 51.6915 97.8359 51.0085C98.1014 50.7602 98.3186 50.4902 98.3186 50.4083C98.3186 50.3265 98.475 50.114 98.6662 49.936C98.8575 49.758 99.0139 49.4783 99.0139 49.3142C99.0139 49.1503 99.0737 49.0161 99.1467 49.0161C99.2197 49.0161 99.3207 48.7954 99.371 48.5258C99.4214 48.2561 99.5182 48.001 99.5859 47.9589C99.7472 47.8588 99.7469 44.8266 99.5856 44.8266C99.5177 44.8266 99.4209 44.6067 99.3707 44.3379C99.3205 44.0691 99.2197 43.8491 99.1467 43.8491C99.0737 43.8491 99.0139 43.7208 99.0139 43.564C99.0139 43.2978 98.9363 43.1643 98.4924 42.6673C98.3969 42.5602 98.3186 42.4367 98.3186 42.3927C98.3186 42.2544 97.7689 41.7544 97.6166 41.7544C97.5365 41.7544 97.3259 41.5973 97.1488 41.4053C96.9715 41.2133 96.6929 41.0562 96.5295 41.0562C96.3663 41.0562 96.2326 41.0038 96.2326 40.9399C96.2326 40.7649 94.7371 40.4628 93.8685 40.4624C93.0702 40.4621 91.7826 40.7619 91.7826 40.9482C91.7826 41.0076 91.7173 41.0562 91.6376 41.0562C91.5012 41.0562 91.3439 41.1654 90.8838 41.5799C90.7771 41.6759 90.6229 41.7544 90.5408 41.7544C90.4589 41.7544 90.3919 41.8199 90.3919 41.8999C90.3919 42.0369 90.2832 42.1949 89.8704 42.657C89.7749 42.7641 89.6966 42.9138 89.6966 42.9896C89.6966 43.0656 89.6497 43.1485 89.5923 43.1742C89.4123 43.2545 89.0013 44.2615 89.0013 44.6219C89.0013 44.8113 88.9387 44.9663 88.8622 44.9663C88.7783 44.9663 88.7231 45.5482 88.7231 46.4326C88.7231 47.317 88.7783 47.8989 88.8622 47.8989C88.9387 47.8989 89.0013 48.0829 89.0013 48.3079C89.0013 48.5327 89.0951 48.8111 89.2099 48.9263C89.3246 49.0415 89.4185 49.203 89.4185 49.2854C89.4185 49.3677 89.481 49.435 89.5575 49.435C89.634 49.435 89.6985 49.545 89.701 49.6794C89.7065 49.9812 90.0196 50.4125 90.2334 50.4125C90.3206 50.4125 90.3919 50.4798 90.3919 50.5621C90.3919 50.7298 90.736 51.1108 90.8875 51.1108C90.9416 51.1108 91.1308 51.2679 91.3081 51.4599C91.4852 51.6519 91.7271 51.809 91.8454 51.809C91.9639 51.809 92.0607 51.865 92.0607 51.9336C92.0607 52.002 92.2171 52.0975 92.4083 52.1457C92.5996 52.1939 92.756 52.295 92.756 52.3702C92.756 52.4456 92.823 52.5072 92.9049 52.5072C92.987 52.5072 93.1434 52.597 93.2526 52.7068C93.5466 53.0019 93.5466 60.5311 93.2526 60.8261C93.0916 60.988 92.4235 61.0257 89.7159 61.0257C86.4999 61.0257 86.3746 61.0155 86.2895 60.7464C86.241 60.5928 86.1429 60.4671 86.0716 60.4671C86.0003 60.4671 85.9418 60.1529 85.9418 59.7689C85.9418 59.3848 85.8861 59.0706 85.8178 59.0706C85.7497 59.0706 85.6545 58.9135 85.6066 58.7215C85.5586 58.5295 85.4579 58.3724 85.3829 58.3724C85.3079 58.3724 85.2465 58.3061 85.2465 58.2249C85.2465 58.1438 84.9336 57.7761 84.5512 57.4078L83.8559 56.7384V54.8437C83.8559 52.7548 83.9016 52.5072 84.2879 52.5072C84.4327 52.5072 84.5512 52.413 84.5512 52.2978C84.5512 52.1825 84.6182 52.0883 84.7001 52.0883C84.8672 52.0883 85.2465 51.7428 85.2465 51.5906C85.2465 51.5363 85.403 51.3463 85.5942 51.1683C85.7854 50.9904 85.9418 50.7475 85.9418 50.6287C85.9418 50.5097 86.0032 50.4125 86.0783 50.4125C86.1532 50.4125 86.2539 50.2554 86.3019 50.0634C86.3499 49.8714 86.445 49.7143 86.5131 49.7143C86.5814 49.7143 86.6372 49.4995 86.6372 49.2371C86.6372 48.9747 86.7059 48.737 86.7899 48.709C86.8739 48.6808 86.9759 48.3614 87.0165 47.999C87.0573 47.6368 87.145 47.3403 87.2115 47.3403C87.2781 47.3403 87.3325 46.9371 87.3325 46.4442C87.3325 45.8515 87.3913 45.5285 87.5063 45.49C87.6408 45.4449 87.6802 44.3626 87.6802 40.7071C87.6802 37.0514 87.6408 35.9691 87.5063 35.9242C87.3814 35.8824 87.3325 35.4369 87.3325 34.3415C87.3325 33.5031 87.278 32.817 87.2114 32.817C87.1448 32.817 87.0462 32.2514 86.9923 31.5602C86.9385 30.8689 86.8366 30.3034 86.7658 30.3034C86.695 30.3034 86.6372 29.8006 86.6372 29.1862C86.6372 28.5718 86.5835 28.069 86.5179 28.069C86.4524 28.069 86.3578 27.6763 86.308 27.1962C86.2581 26.7163 86.1553 26.3025 86.0795 26.2769C86.0039 26.2512 85.9418 25.8271 85.9418 25.3343C85.9418 24.8415 85.8873 24.4382 85.8207 24.4382C85.7541 24.4382 85.6572 24.0612 85.6053 23.6003C85.5533 23.1395 85.4514 22.7624 85.3786 22.7624C85.306 22.7624 85.2465 22.4482 85.2465 22.0642C85.2465 21.6802 85.1917 21.366 85.1247 21.366C85.0577 21.366 84.9733 21.0078 84.9371 20.57C84.901 20.1323 84.7993 19.75 84.7113 19.7205C84.6195 19.6898 84.5512 19.3741 84.5512 18.9804C84.5512 18.6028 84.5028 18.2937 84.4437 18.2937C84.3237 18.2937 84.0169 17.2462 83.9018 16.4434C83.8605 16.1555 83.7706 15.9197 83.7022 15.9197C83.6338 15.9197 83.5778 15.779 83.5778 15.6071C83.5778 15.1483 83.1191 14.1055 82.9172 14.1049C82.8217 14.1046 82.7414 14.0259 82.7392 13.9298C82.7368 13.8338 82.664 13.8809 82.5772 14.0345C82.4904 14.1881 82.3828 14.3452 82.338 14.3836C82.2163 14.4881 81.8869 15.3772 81.8077 15.815C81.7696 16.0263 81.6829 16.199 81.6151 16.199C81.5473 16.199 81.4896 16.4348 81.4869 16.7227C81.4841 17.0108 81.3925 17.4035 81.2832 17.5955C81.1739 17.7875 81.0822 18.1175 81.0795 18.3287C81.0768 18.5398 81.012 18.7127 80.9355 18.7127C80.859 18.7127 80.7965 18.9829 80.7965 19.3132C80.7965 19.6434 80.7322 19.9782 80.6536 20.0571C80.5752 20.1358 80.4726 20.5254 80.4257 20.9229C80.3788 21.3202 80.2867 21.6453 80.2209 21.6453C80.155 21.6453 80.1011 21.9909 80.1011 22.4133C80.1011 22.8358 80.0416 23.1814 79.969 23.1814C79.8963 23.1814 79.7944 23.5584 79.7423 24.0193C79.6905 24.4801 79.5936 24.8571 79.5269 24.8571C79.4603 24.8571 79.4058 25.3233 79.4058 25.8929C79.4058 26.4847 79.3439 26.9493 79.2615 26.9768C79.1821 27.0035 79.079 27.48 79.0327 28.0359C78.9863 28.5917 78.8948 29.0465 78.8294 29.0465C78.764 29.0465 78.7105 29.5807 78.7105 30.2335C78.7105 30.8864 78.6568 31.4205 78.5912 31.4205C78.5255 31.4205 78.3911 32.1903 78.2923 33.1312C78.08 35.1548 77.9497 45.6235 78.1339 45.8558C78.2026 45.9426 78.3025 46.3749 78.3557 46.8166C78.4089 47.2583 78.5105 47.6196 78.5814 47.6196C78.6524 47.6196 78.7105 47.9338 78.7105 48.3178C78.7105 48.7018 78.7663 49.0161 78.8345 49.0161C78.9027 49.0161 78.9978 49.1732 79.0458 49.3652C79.0938 49.5572 79.1944 49.7143 79.2694 49.7143C79.3445 49.7143 79.4058 49.8714 79.4058 50.0634C79.4058 50.2554 79.4616 50.4125 79.5299 50.4125C79.598 50.4125 79.6931 50.5696 79.7411 50.7616C79.7891 50.9537 79.8898 51.1108 79.9647 51.1108C80.0398 51.1108 80.1011 51.1781 80.1011 51.2603C80.1011 51.4375 80.4487 51.809 80.6144 51.809C80.6783 51.809 80.8479 51.9661 80.9916 52.1581C81.1351 52.3501 81.369 52.5072 81.5113 52.5072C81.6535 52.5072 81.7699 52.5701 81.7699 52.6469C81.7699 52.7237 81.8638 52.7865 81.9785 52.7865C82.1512 52.7865 82.1871 53.0503 82.1871 54.3226V55.8587H81.7699C81.5405 55.8587 81.3527 55.7959 81.3527 55.7191C81.3527 55.6394 80.9355 55.5795 80.3793 55.5795C79.8439 55.5795 79.4058 55.6342 79.4058 55.7012C79.4058 55.7683 79.1555 55.8632 78.8496 55.9124C78.5436 55.9615 78.2933 56.0638 78.2933 56.1397C78.2933 56.2155 78.1056 56.2777 77.8761 56.2777C77.6467 56.2777 77.4589 56.3405 77.4589 56.4173C77.4589 56.4941 77.3977 56.557 77.3229 56.557C77.1371 56.557 75.6511 58.0384 75.6511 58.2237C75.6511 58.3055 75.5897 58.3724 75.5146 58.3724C75.4397 58.3724 75.339 58.5295 75.291 58.7215C75.2431 58.9135 75.1479 59.0706 75.0798 59.0706C75.0115 59.0706 74.9557 59.2413 74.9557 59.4501C74.9557 59.6587 74.8534 60.0986 74.7282 60.4276L74.5007 61.0257H72.8509H71.201V46.2231C71.201 35.2716 71.16 31.4205 71.0432 31.4205C70.9563 31.4205 70.7403 31.2634 70.563 31.0714C70.3858 30.8794 70.144 30.7223 70.0256 30.7223C69.9072 30.7223 69.8104 30.6387 69.8104 30.5364C69.8104 30.4342 69.6539 30.2665 69.4627 30.1637C69.2715 30.0609 69.115 29.9246 69.115 29.8608C69.115 29.797 69.0498 29.7448 68.9701 29.7448C68.8133 29.7448 68.6303 29.6053 68.0088 29.0116C67.7877 28.8005 67.5678 28.6276 67.5201 28.6276C67.4726 28.6276 67.2772 28.4705 67.086 28.2785C66.8947 28.0865 66.6743 27.9294 66.5962 27.9294C66.518 27.9294 66.2475 27.7094 65.9951 27.4406C65.7426 27.1718 65.4857 26.9518 65.4244 26.9518C65.3629 26.9518 65.1952 26.8452 65.0517 26.7147C64.8042 26.4898 64.7741 26.4969 64.4683 26.8544C64.291 27.0616 64.09 27.2311 64.0215 27.2311C63.9532 27.2311 63.7285 27.3882 63.5223 27.5803C63.3162 27.7723 63.0821 27.9294 63.0023 27.9294C62.9225 27.9294 62.8571 27.9967 62.8571 28.0789C62.8571 28.2723 62.5034 28.6276 62.3108 28.6276C62.2077 28.6276 62.1618 27.1427 62.1618 23.8098V18.992H61.6866C61.4253 18.992 61.1886 18.923 61.1607 18.8386C61.1326 18.7543 60.8146 18.6518 60.4537 18.611C60.093 18.5701 59.7977 18.482 59.7977 18.4152C59.7977 18.3483 59.4848 18.2937 59.1024 18.2937C58.72 18.2937 58.4071 18.234 58.4071 18.1611C58.4071 18.088 58.0316 17.9857 57.5727 17.9335C57.1138 17.8814 56.7383 17.784 56.7383 17.7171C56.7383 17.6502 56.4254 17.5955 56.043 17.5955C55.6606 17.5955 55.3477 17.5385 55.3477 17.469C55.3477 17.3993 55.0348 17.2992 54.6523 17.2464C54.2699 17.1936 53.957 17.0935 53.957 17.0238C53.957 16.9542 53.6441 16.8973 53.2617 16.8973C52.8793 16.8973 52.5664 16.8375 52.5664 16.7646C52.5664 16.6916 52.1909 16.5892 51.732 16.537C51.2731 16.4849 50.8976 16.3876 50.8976 16.3207C50.8976 16.2538 50.5847 16.199 50.2023 16.199C49.8198 16.199 49.507 16.1362 49.507 16.0594C49.507 15.9826 49.2724 15.9175 48.9855 15.9149C48.6987 15.9121 48.3075 15.82 48.1163 15.7103C47.9251 15.6005 47.4715 15.5085 47.1081 15.5057L46.4475 15.5008V16.0594C46.4475 16.3666 46.5101 16.618 46.5866 16.618C46.8081 16.618 46.7738 24.8113 46.5518 24.9154C46.4128 24.9805 46.4128 25.0131 46.5518 25.0782C47.0476 25.3106 46.4973 25.8347 45.7576 25.8347C45.4438 25.8347 44.9623 25.9289 44.6878 26.0441C44.4082 26.1614 43.7676 26.2536 43.2321 26.2536C42.706 26.2536 42.2756 26.3074 42.2756 26.373C42.2756 26.4386 41.8407 26.529 41.3092 26.5738C40.7777 26.6185 40.2187 26.7218 40.0668 26.8035C39.915 26.8851 39.4424 26.9518 39.0168 26.9518C38.4928 26.9518 38.2412 27.0083 38.2381 27.1264C38.2355 27.2225 38.2124 28.0551 38.1868 28.9767C38.1612 29.8984 38.132 37.4865 38.122 45.8391L38.1037 61.0257H32.695C27.8913 61.0257 27.2769 61.001 27.202 60.8048C27.1555 60.6833 27.1176 58.8748 27.1176 56.786C27.1176 53.1538 27.1298 52.9777 27.3972 52.7477C27.5512 52.6154 27.7239 52.5072 27.7812 52.5072C27.8383 52.5072 28.054 52.3501 28.2603 52.1581C28.4664 51.9661 28.7366 51.809 28.8605 51.809C28.9845 51.809 29.2736 51.6205 29.5031 51.39C29.7325 51.1596 29.9687 50.9711 30.0281 50.9711C30.2259 50.9711 31.0114 50.1336 31.0114 49.9225C31.0114 49.808 31.074 49.7143 31.1504 49.7143C31.2269 49.7143 31.2895 49.62 31.2895 49.5048C31.2895 49.3896 31.3451 49.2953 31.4131 49.2953C31.481 49.2953 31.5778 49.0754 31.628 48.8066C31.6782 48.5378 31.779 48.3178 31.852 48.3178C32.0186 48.3178 32.0325 43.6159 31.8663 43.5127C31.8011 43.4722 31.7081 43.0133 31.6597 42.4927C31.6113 41.9723 31.5083 41.5251 31.4307 41.4991C31.3531 41.4732 31.2895 41.1429 31.2895 40.7653C31.2895 40.3876 31.235 40.0787 31.1682 40.0787C31.1015 40.0787 31.0069 39.8273 30.958 39.5201C30.909 39.2128 30.8072 38.9615 30.7316 38.9615C30.6561 38.9615 30.5942 38.6787 30.5942 38.3331C30.5942 37.9874 30.5366 37.7047 30.4661 37.7047C30.3957 37.7047 30.2969 37.5161 30.2465 37.2857C30.1962 37.0553 30.0973 36.8668 30.0269 36.8668C29.9564 36.8668 29.8989 36.6468 29.8989 36.378C29.8989 36.1092 29.8431 35.8892 29.7748 35.8892C29.7067 35.8892 29.6116 35.7321 29.5636 35.5401C29.5156 35.3481 29.4149 35.191 29.34 35.191C29.1451 35.191 29.1711 34.7208 29.3774 34.5137C29.6234 34.2667 29.6234 29.9709 29.3774 29.7238C29.2818 29.6279 29.2035 29.2791 29.2035 28.9488C29.2035 28.6185 29.141 28.3483 29.0645 28.3483C28.988 28.3483 28.9254 28.1643 28.9254 27.9393C28.9254 27.7145 28.8315 27.4361 28.7168 27.3209C28.6021 27.2057 28.5082 26.9813 28.5082 26.8221C28.5082 26.6631 28.4456 26.5329 28.3692 26.5329C28.2927 26.5329 28.2301 26.3758 28.2301 26.1838C28.2301 25.9918 28.1717 25.8347 28.1003 25.8347C28.029 25.8347 27.9278 25.6987 27.8752 25.5323C27.8226 25.366 27.6306 25.0803 27.4485 24.8975C27.2665 24.7147 27.1176 24.5006 27.1176 24.4219C27.1176 24.2338 26.7609 23.8796 26.5712 23.8796C26.4893 23.8796 26.4223 23.7854 26.4223 23.6701C26.4223 23.5549 26.357 23.4607 26.2773 23.4607C26.1409 23.4607 25.9836 23.3515 25.5235 22.937C25.4168 22.8409 25.2626 22.7624 25.1805 22.7624C25.0986 22.7624 25.0316 22.6996 25.0316 22.6228C25.0316 22.546 24.9222 22.4812 24.7882 22.4787C24.6543 22.4763 24.4233 22.382 24.275 22.2692C24.1264 22.1565 23.8605 22.0642 23.6839 22.0642C23.5073 22.0642 23.3628 22.0014 23.3628 21.9246C23.3628 21.8478 23.2453 21.7849 23.1017 21.7849C22.958 21.7849 22.6159 21.6907 22.3413 21.5754C21.6387 21.2806 18.1767 21.2806 17.474 21.5754C17.1995 21.6907 16.7851 21.7849 16.5531 21.7849C16.3212 21.7849 16.1315 21.8478 16.1315 21.9246C16.1315 22.0014 15.975 22.0642 15.7838 22.0642C15.5926 22.0642 15.4362 22.1258 15.4362 22.2012C15.4362 22.2765 15.2797 22.3776 15.0885 22.4258C14.8973 22.4739 14.7408 22.5694 14.7408 22.6379C14.7408 22.7064 14.6112 22.7624 14.4528 22.7624C14.1449 22.7624 13.7674 23.0646 13.7674 23.3111C13.7674 23.3934 13.7022 23.4607 13.6225 23.4607C13.4755 23.4607 13.1953 23.6633 12.8916 23.9892C12.4593 24.453 12.3767 24.5684 12.3767 24.7076C12.3767 24.7898 12.2829 24.8571 12.1681 24.8571C12.0534 24.8571 11.9595 24.9514 11.9595 25.0666C11.9595 25.1818 11.897 25.2761 11.8205 25.2761C11.744 25.2761 11.6814 25.4018 11.6814 25.5554C11.6814 25.709 11.6257 25.8347 11.5574 25.8347C11.4892 25.8347 11.3941 25.9918 11.3461 26.1838C11.2982 26.3758 11.1975 26.5329 11.1225 26.5329C11.0474 26.5329 10.9861 26.7528 10.9861 27.0217C10.9861 27.2905 10.9274 27.5104 10.8555 27.5104C10.7838 27.5104 10.682 27.8089 10.6294 28.1738C10.5768 28.5387 10.4764 28.9097 10.4062 28.9984C10.2217 29.2317 10.3547 34.1336 10.5717 35.0863C10.6722 35.5278 10.8066 35.8892 10.8703 35.8892C10.9339 35.8892 10.9861 36.1406 10.9861 36.4478C10.9861 36.7551 11.0487 37.0064 11.1252 37.0064C11.2016 37.0064 11.2642 37.1591 11.2642 37.3456C11.2642 37.5321 11.3581 37.7789 11.4728 37.8942C11.5875 38.0094 11.6814 38.2338 11.6814 38.393C11.6814 38.552 11.7372 38.6822 11.8055 38.6822C11.8736 38.6822 11.9687 38.8393 12.0167 39.0313C12.0647 39.2233 12.1654 39.3804 12.2403 39.3804C12.3154 39.3804 12.3767 39.5146 12.3767 39.6786C12.3767 39.8427 12.5332 40.1224 12.7244 40.3004C12.9156 40.4783 13.0721 40.6942 13.0721 40.7802C13.0721 41.0104 14.786 42.6832 15.1361 42.7948C15.3011 42.8474 15.4362 42.949 15.4362 43.0206C15.4362 43.0922 15.5032 43.1509 15.5851 43.1509C15.6671 43.1509 15.828 43.2451 15.9428 43.3604C16.0575 43.4756 16.3034 43.5698 16.489 43.5698C16.6748 43.5698 16.8268 43.6327 16.8268 43.7095C16.8268 43.7863 17.1129 43.8491 17.4625 43.8491C17.8281 43.8491 18.1827 43.9339 18.2969 44.0487C18.4647 44.2171 18.4956 45.5531 18.4956 52.6385V61.0289L13.1068 60.9924L7.71808 60.9559L7.73657 57.0457C7.9225 17.6162 7.97813 10.0546 8.08257 10.0546C8.14987 10.0546 8.2048 9.71942 8.2048 9.30984C8.2048 8.90011 8.24652 8.52307 8.29756 8.47196C8.34846 8.42071 29.203 8.38077 54.6408 8.38328C92.8777 8.38691 100.933 8.41987 101.135 8.5732ZM82.8824 15.431C82.8824 15.5462 82.945 15.6404 83.0215 15.6404C83.098 15.6404 83.1628 15.8448 83.1654 16.0943C83.1682 16.3439 83.2598 16.7053 83.3692 16.8973C83.4785 17.0893 83.5701 17.4191 83.5729 17.6304C83.5755 17.8417 83.6403 18.0144 83.7168 18.0144C83.7933 18.0144 83.8559 18.2935 83.8559 18.6346C83.8559 18.9758 83.9126 19.29 83.9819 19.333C84.0513 19.376 84.151 19.7254 84.2035 20.1093C84.2561 20.4933 84.3558 20.8074 84.4252 20.8074C84.4945 20.8074 84.5512 21.0864 84.5512 21.4276C84.5512 21.7687 84.6077 22.0828 84.6766 22.1255C84.7455 22.1684 84.8456 22.5805 84.8989 23.0415C84.9521 23.5024 85.0521 23.8796 85.1211 23.8796C85.1901 23.8796 85.2465 24.2567 85.2465 24.7175C85.2465 25.1783 85.3002 25.5554 85.3658 25.5554C85.4313 25.5554 85.5259 25.9482 85.5757 26.4282C85.6256 26.9083 85.7284 27.3219 85.8042 27.3475C85.8798 27.3732 85.9418 27.8287 85.9418 28.3599C85.9418 28.8913 85.9955 29.3258 86.061 29.3258C86.1267 29.3258 86.2155 29.8427 86.2586 30.4743C86.3018 31.1059 86.4045 31.6452 86.4871 31.6729C86.581 31.7043 86.6372 32.2411 86.6372 33.1079C86.6372 33.9381 86.6929 34.4928 86.7762 34.4928C86.8586 34.4928 86.9177 35.0202 86.921 35.7845C86.9242 36.4949 87.0115 37.9874 87.1151 39.1011C87.2741 40.8115 87.2737 41.408 87.1121 42.9414C87.0069 43.9399 86.9196 45.0868 86.9181 45.49C86.9165 45.8931 86.8527 46.2231 86.7762 46.2231C86.6989 46.2231 86.6372 46.5956 86.6372 47.061C86.6372 47.5218 86.5753 47.8989 86.4998 47.8989C86.4241 47.8989 86.3223 48.1502 86.2734 48.4575C86.2244 48.7647 86.1299 49.0161 86.0631 49.0161C85.9964 49.0161 85.9418 49.1732 85.9418 49.3652C85.9418 49.5572 85.8805 49.7143 85.8054 49.7143C85.7305 49.7143 85.6298 49.8714 85.5818 50.0634C85.5338 50.2554 85.4387 50.4125 85.3706 50.4125C85.3023 50.4125 85.2465 50.478 85.2465 50.558C85.2465 50.8049 84.3398 51.809 84.117 51.809C84.0381 51.809 83.8062 51.9819 83.6018 52.193C83.2318 52.5754 83.2302 52.5851 83.2726 54.4274C83.3094 56.0267 83.2857 56.2777 83.0988 56.2777C82.9136 56.2777 82.8824 56.0031 82.8824 54.3729C82.8824 52.3158 82.8077 52.1029 82.0828 52.0928C81.9108 52.0902 81.7699 52.0254 81.7699 51.9486C81.7699 51.8718 81.6783 51.809 81.566 51.809C81.2996 51.809 80.576 51.0946 80.4552 50.7119C80.4031 50.5473 80.3022 50.4125 80.2309 50.4125C80.1595 50.4125 80.1011 50.3183 80.1011 50.2031C80.1011 50.0878 80.0455 49.9936 79.9775 49.9936C79.9097 49.9936 79.8129 49.7736 79.7626 49.5048C79.7124 49.236 79.6116 49.0161 79.5386 49.0161C79.4656 49.0161 79.4058 48.7961 79.4058 48.5273C79.4058 48.2585 79.3491 48.0385 79.2798 48.0385C79.2104 48.0385 79.1107 47.7245 79.0582 47.3404C79.0056 46.9565 78.9059 46.6071 78.8365 46.5641C78.7672 46.5211 78.7105 45.9556 78.7105 45.3072C78.7105 44.6144 78.6532 44.1284 78.5714 44.1284C78.4826 44.1284 78.4324 42.8949 78.4324 40.7071C78.4324 38.5192 78.4826 37.2857 78.5714 37.2857C78.6571 37.2857 78.7105 36.5844 78.7105 35.4611C78.7105 34.4576 78.7713 33.5225 78.8455 33.383C78.9199 33.2436 79.023 32.5252 79.0747 31.7863C79.1264 31.0476 79.2221 30.443 79.2873 30.443C79.3524 30.443 79.4058 29.9456 79.4058 29.3374C79.4058 28.7139 79.4673 28.2113 79.547 28.1847C79.6246 28.1587 79.7275 27.7136 79.7756 27.1955C79.8238 26.6774 79.9167 26.2536 79.9822 26.2536C80.0476 26.2536 80.1011 25.8451 80.1011 25.3459C80.1011 24.8467 80.1568 24.4382 80.2249 24.4382C80.3541 24.4382 80.6271 23.0778 80.7504 21.8198C80.7899 21.4167 80.8731 21.0867 80.9354 21.0867C80.9976 21.0867 81.0916 20.7725 81.1441 20.3884C81.1967 20.0044 81.2964 19.6902 81.3658 19.6902C81.435 19.6902 81.4918 19.376 81.4918 18.992C81.4918 18.6079 81.5494 18.2937 81.6196 18.2937C81.7528 18.2937 82.0225 17.3446 82.1451 16.4434C82.1842 16.1555 82.2655 15.9197 82.3258 15.9197C82.3858 15.9197 82.4744 15.7626 82.5224 15.5706C82.6168 15.1926 82.8824 15.0895 82.8824 15.431ZM20.7206 21.9246C20.7206 22.0014 21.0805 22.0664 21.5202 22.0691C21.9599 22.0719 22.4763 22.1639 22.6675 22.2737C22.8587 22.3834 23.1559 22.4755 23.3281 22.4783C23.5002 22.4809 23.641 22.546 23.641 22.6228C23.641 22.6996 23.7974 22.7624 23.9886 22.7624C24.1798 22.7624 24.3363 22.8184 24.3363 22.887C24.3363 22.9554 24.4927 23.051 24.6839 23.0991C24.8752 23.1473 25.0316 23.2484 25.0316 23.3237C25.0316 23.3991 25.1255 23.4607 25.2402 23.4607C25.3549 23.4607 25.4488 23.5549 25.4488 23.6701C25.4488 23.7854 25.5142 23.8796 25.5941 23.8796C25.783 23.8796 26.4223 24.5216 26.4223 24.7112C26.4223 24.7915 26.5161 24.8571 26.6308 24.8571C26.7456 24.8571 26.8394 24.9226 26.8394 25.0027C26.8394 25.1397 26.9482 25.2976 27.3609 25.7597C27.4566 25.8668 27.5348 26.0217 27.5348 26.104C27.5348 26.1863 27.5973 26.2536 27.6738 26.2536C27.7503 26.2536 27.8129 26.4107 27.8129 26.6027C27.8129 26.7947 27.8685 26.9518 27.9365 26.9518C28.0044 26.9518 28.1012 27.1718 28.1514 27.4406C28.2016 27.7094 28.2961 27.9294 28.3615 27.9294C28.4267 27.9294 28.5132 28.1964 28.5537 28.5229C28.594 28.8494 28.6905 29.4306 28.768 29.8146C28.8454 30.1986 28.9126 31.1885 28.9171 32.014C28.924 33.259 28.8898 33.5153 28.7168 33.5153C28.6021 33.5153 28.5082 33.421 28.5082 33.3058C28.5082 33.1906 28.4456 33.0963 28.3692 33.0963C28.2927 33.0963 28.2301 33.0071 28.2301 32.8981C28.2301 32.649 27.779 31.8416 27.6391 31.8403C27.5818 31.8399 27.5348 31.7452 27.5348 31.63C27.5348 31.5148 27.4409 31.4205 27.3262 31.4205C27.2114 31.4205 27.1176 31.3532 27.1176 31.271C27.1176 30.9851 26.7178 30.7223 26.2832 30.7223C25.8486 30.7223 25.4488 30.9851 25.4488 31.271C25.4488 31.3532 25.3875 31.4205 25.3124 31.4205C25.2374 31.4205 25.1367 31.5777 25.0888 31.7697C25.0408 31.9617 24.9457 32.1188 24.8775 32.1188C24.8092 32.1188 24.7535 32.2378 24.7535 32.3831C24.7535 32.5285 24.6596 32.6837 24.5449 32.7279C24.4302 32.772 24.3363 32.9359 24.3363 33.092C24.3363 33.248 24.2737 33.3756 24.1972 33.3756C24.1207 33.3756 24.0582 33.5327 24.0582 33.7247C24.0582 33.9167 24.0006 34.0738 23.9301 34.0738C23.8597 34.0738 23.7608 34.2624 23.7105 34.4928C23.6602 34.7232 23.5613 34.9117 23.4909 34.9117C23.4204 34.9117 23.3628 35.1264 23.3628 35.3889C23.3628 35.6513 23.3158 35.8869 23.2585 35.9126C23.0786 35.9929 22.6675 36.9999 22.6675 37.3603C22.6675 37.5496 22.612 37.7047 22.5443 37.7047C22.4764 37.7047 22.379 37.986 22.3276 38.3299C22.2763 38.6737 22.1752 38.9915 22.1032 39.0363C22.0312 39.081 21.9722 39.3966 21.9722 39.7378C21.9722 40.0789 21.9096 40.3579 21.8331 40.3579C21.7566 40.3579 21.6925 40.6251 21.6907 40.9514C21.6889 41.2778 21.6212 41.7963 21.5403 42.1035C21.4593 42.4108 21.3597 42.835 21.3191 43.0462C21.2506 43.4025 21.1965 43.4302 20.5658 43.4302H19.8862V52.0284C19.8862 60.9595 19.8822 61.0257 19.3398 61.0257C19.2355 61.0257 19.1909 58.4155 19.1909 52.3127C19.1909 42.5602 19.2942 43.4302 18.1365 43.4302C17.7986 43.4302 17.5221 43.3673 17.5221 43.2905C17.5221 43.2137 17.3031 43.1509 17.0354 43.1509C16.7677 43.1509 16.5487 43.0949 16.5487 43.0263C16.5487 42.9579 16.3922 42.8624 16.201 42.8142C16.0098 42.766 15.8534 42.6649 15.8534 42.5896C15.8534 42.5142 15.788 42.4526 15.7082 42.4526C15.6283 42.4526 15.3943 42.2955 15.1882 42.1035C14.982 41.9115 14.7343 41.7544 14.6379 41.7544C14.5416 41.7544 14.4627 41.6752 14.4627 41.5785C14.4627 41.4817 14.3063 41.233 14.115 41.0259C13.9238 40.8189 13.7674 40.6068 13.7674 40.5546C13.7674 40.5025 13.6109 40.3142 13.4197 40.1362C13.2285 39.9583 13.0721 39.7154 13.0721 39.5966C13.0721 39.4776 13.0107 39.3804 12.9356 39.3804C12.8607 39.3804 12.76 39.2233 12.712 39.0313C12.664 38.8393 12.5689 38.6822 12.5008 38.6822C12.4325 38.6822 12.3767 38.5251 12.3767 38.3331C12.3767 38.1411 12.321 37.9839 12.2527 37.9839C12.1846 37.9839 12.0894 37.8268 12.0415 37.6348C11.9935 37.4428 11.8928 37.2857 11.8178 37.2857C11.7427 37.2857 11.6814 37.0658 11.6814 36.797C11.6814 36.5281 11.6269 36.3082 11.5603 36.3082C11.4937 36.3082 11.3976 35.994 11.3468 35.61C11.2962 35.2259 11.1943 34.9117 11.1204 34.9117C11.046 34.9117 10.9861 34.4446 10.9861 33.8644C10.9861 33.2593 10.9274 32.817 10.847 32.817C10.7646 32.817 10.708 32.3049 10.708 31.5602C10.708 30.8155 10.7646 30.3034 10.847 30.3034C10.9264 30.3034 10.9861 29.8844 10.9861 29.3258C10.9861 28.7751 11.046 28.3483 11.1235 28.3483C11.1991 28.3483 11.3009 28.097 11.3499 27.7897C11.3988 27.4825 11.4934 27.2311 11.5602 27.2311C11.6269 27.2311 11.6814 27.074 11.6814 26.882C11.6814 26.69 11.7427 26.5329 11.8178 26.5329C11.8928 26.5329 11.9935 26.3758 12.0415 26.1838C12.0894 25.9918 12.1846 25.8347 12.2527 25.8347C12.321 25.8347 12.3767 25.7393 12.3767 25.6227C12.3767 25.5062 12.5958 25.1972 12.8635 24.9362C13.1312 24.675 13.3502 24.3934 13.3502 24.3101C13.3502 24.2271 13.4213 24.1589 13.508 24.1589C13.5949 24.1589 13.8109 24.0018 13.9882 23.8098C14.1654 23.6178 14.4072 23.4607 14.5256 23.4607C14.644 23.4607 14.7408 23.3978 14.7408 23.321C14.7408 23.2442 14.8079 23.1814 14.8898 23.1814C14.9718 23.1814 15.1327 23.0871 15.2474 22.9719C15.3622 22.8567 15.608 22.7624 15.7937 22.7624C15.9795 22.7624 16.1315 22.6996 16.1315 22.6228C16.1315 22.546 16.249 22.4831 16.3926 22.4831C16.5363 22.4831 16.8784 22.3889 17.153 22.2737C17.4276 22.1585 17.9984 22.0642 18.4216 22.0642C18.8448 22.0642 19.1909 22.0014 19.1909 21.9246C19.1909 21.8478 19.5351 21.7849 19.9558 21.7849C20.3764 21.7849 20.7206 21.8478 20.7206 21.9246ZM50.4804 43.4302V61.0257H48.8116H47.1429V43.6396V26.2536H47.6296C47.8973 26.2536 48.1163 26.1941 48.1163 26.1212C48.1163 26.0031 48.537 25.9457 50.0284 25.8605L50.4804 25.8347V43.4302ZM61.4665 45.6645V61.0257H60.5079C59.7621 61.0257 59.5306 60.9767 59.4649 60.8048C59.4185 60.6833 59.3805 54.1303 59.3805 46.2427C59.3805 32.0471 59.3833 31.8991 59.6602 31.661C59.8141 31.5288 59.975 31.4205 60.0179 31.4205C60.153 31.4205 60.493 31.028 60.493 30.8719C60.493 30.7896 60.5601 30.7223 60.642 30.7223C60.724 30.7223 60.8849 30.628 60.9997 30.5128C61.1144 30.3976 61.2664 30.3034 61.3373 30.3034C61.416 30.3034 61.4665 36.3046 61.4665 45.6645ZM26.7699 31.6998C26.8184 31.8535 26.9165 31.9791 26.9878 31.9791C27.0592 31.9791 27.1176 32.0667 27.1176 32.1737C27.1176 32.2806 27.2114 32.4044 27.3262 32.4486C27.4409 32.4928 27.5348 32.6566 27.5348 32.8127C27.5348 32.9687 27.5973 33.0963 27.6738 33.0963C27.7503 33.0963 27.8129 33.1906 27.8129 33.3058C27.8129 33.421 27.8713 33.5153 27.9426 33.5153C28.014 33.5153 28.1162 33.6566 28.1699 33.8295C28.2237 34.0023 28.331 34.1846 28.4086 34.2346C28.572 34.34 28.5715 36.1762 28.4081 36.297C28.3477 36.3416 28.1791 36.7393 28.033 37.181C27.8872 37.6227 27.7153 37.9839 27.6513 37.9839C27.5872 37.9839 27.5348 38.1411 27.5348 38.3331C27.5348 38.5251 27.4734 38.6822 27.3983 38.6822C27.3234 38.6822 27.2227 38.8393 27.1747 39.0313C27.1268 39.2233 27.0458 39.3804 26.9951 39.3804C26.9443 39.3804 26.7848 39.6004 26.6406 39.8692C26.4964 40.138 26.3257 40.3579 26.2614 40.3579C26.1968 40.3579 26.1441 40.4522 26.1441 40.5674C26.1441 40.6826 26.0771 40.7769 25.9952 40.7769C25.8026 40.7769 25.4488 41.1321 25.4488 41.3256C25.4488 41.4078 25.3834 41.4751 25.3035 41.4751C25.2235 41.4751 25.0016 41.6322 24.8104 41.8242C24.6191 42.0163 24.3717 42.1734 24.2605 42.1734C24.1492 42.1734 24.0582 42.2362 24.0582 42.313C24.0582 42.3898 23.9643 42.4526 23.8496 42.4526C23.7348 42.4526 23.641 42.5155 23.641 42.5923C23.641 42.6691 23.5203 42.7319 23.3727 42.7319C23.2253 42.7319 23.0107 42.8262 22.896 42.9414C22.7813 43.0566 22.5265 43.1509 22.3297 43.1509C22.0001 43.1509 21.9722 43.1031 21.9722 42.5395C21.9722 42.2032 22.0661 41.7026 22.1808 41.4268C22.2955 41.1511 22.3894 40.7036 22.3894 40.4322C22.3894 40.1609 22.452 39.939 22.5284 39.939C22.6049 39.939 22.6675 39.6562 22.6675 39.3106C22.6675 38.965 22.7294 38.6822 22.8049 38.6822C22.8806 38.6822 22.9824 38.4308 23.0313 38.1236C23.0803 37.8164 23.1748 37.565 23.2416 37.565C23.3083 37.565 23.3628 37.3451 23.3628 37.0762C23.3628 36.8074 23.4226 36.5875 23.4956 36.5875C23.5686 36.5875 23.6695 36.3675 23.7197 36.0987C23.7699 35.8299 23.8667 35.61 23.9345 35.61C24.0025 35.61 24.0582 35.4484 24.0582 35.2509C24.0582 35.0533 24.152 34.7975 24.2668 34.6823C24.3815 34.5671 24.4753 34.3516 24.4753 34.2036C24.4753 34.0554 24.5379 33.9342 24.6144 33.9342C24.6909 33.9342 24.7535 33.7771 24.7535 33.5851C24.7535 33.3931 24.8088 33.236 24.8763 33.236C24.9439 33.236 25.0359 33.1261 25.0808 32.9916C25.1744 32.7119 25.4384 32.2879 25.6922 32.01C25.7878 31.9053 25.866 31.7297 25.866 31.6201C25.866 31.293 26.6635 31.3634 26.7699 31.6998ZM29.2829 36.5077C29.3923 36.6174 29.4817 36.8328 29.4817 36.9865C29.4817 37.1401 29.5755 37.36 29.6903 37.4752C29.805 37.5904 29.8989 37.9091 29.8989 38.1835C29.8989 38.4578 29.9614 38.6822 30.0379 38.6822C30.1144 38.6822 30.177 38.8348 30.177 39.0214C30.177 39.2078 30.2709 39.4547 30.3856 39.5699C30.5102 39.695 30.5942 40.0365 30.5942 40.4179C30.5942 40.7689 30.6568 41.0562 30.7332 41.0562C30.8097 41.0562 30.8751 41.2603 30.8784 41.51C30.8818 41.7597 30.9747 42.2152 31.0849 42.5225C31.3951 43.3872 31.3721 48.0359 31.0542 48.7597C30.9247 49.0543 30.7683 49.2953 30.7065 49.2953C30.6447 49.2953 30.5942 49.3631 30.5942 49.4457C30.5942 49.6068 29.8414 50.4125 29.691 50.4125C29.5461 50.4125 29.2035 50.7979 29.2035 50.9612C29.2035 51.0434 29.0756 51.1108 28.9193 51.1108C28.763 51.1108 28.4664 51.2679 28.2603 51.4599C28.054 51.6519 27.8064 51.809 27.71 51.809C27.6136 51.809 27.5348 51.8718 27.5348 51.9486C27.5348 52.0254 27.3783 52.0883 27.1871 52.0883C26.9707 52.0883 26.8394 52.1675 26.8394 52.2978C26.8394 52.428 26.7082 52.5072 26.4918 52.5072C26.2754 52.5072 26.1441 52.428 26.1441 52.2978C26.1441 52.1825 26.0503 52.0883 25.9355 52.0883C25.8208 52.0883 25.7269 52.0254 25.7269 51.9486C25.7269 51.8718 25.6301 51.809 25.5117 51.809C25.3933 51.809 25.1515 51.6519 24.9743 51.4599C24.797 51.2679 24.6097 51.1108 24.5578 51.1108C24.468 51.1108 24.2839 50.9736 23.8547 50.5871C23.748 50.4911 23.5938 50.4125 23.5118 50.4125C23.4299 50.4125 23.3628 50.2554 23.3628 50.0634C23.3628 49.8714 23.2915 49.7143 23.2043 49.7143C22.9943 49.7143 22.6775 49.285 22.672 48.9927C22.6695 48.8648 22.6205 48.7391 22.5632 48.7134C22.226 48.563 21.9722 47.6685 21.9722 46.6307C21.9722 45.9866 21.9141 45.5249 21.8331 45.5249C21.7566 45.5249 21.6941 45.3049 21.6941 45.0361C21.6941 44.7673 21.7566 44.5474 21.8331 44.5474C21.9096 44.5474 21.9722 44.3903 21.9722 44.1982C21.9722 43.9189 22.0417 43.8491 22.3198 43.8491C22.5111 43.8491 22.6675 43.7863 22.6675 43.7095C22.6675 43.6327 22.824 43.5698 23.0152 43.5698C23.2316 43.5698 23.3628 43.4906 23.3628 43.3604C23.3628 43.2301 23.4941 43.1509 23.7105 43.1509C23.9017 43.1509 24.0582 43.0949 24.0582 43.0263C24.0582 42.9579 24.2146 42.8624 24.4058 42.8142C24.597 42.766 24.7535 42.6649 24.7535 42.5896C24.7535 42.5142 24.8205 42.4526 24.9024 42.4526C24.9845 42.4526 25.1387 42.3742 25.2453 42.2781C25.7055 41.8636 25.8628 41.7544 25.9992 41.7544C26.0789 41.7544 26.1441 41.6889 26.1441 41.6089C26.1441 41.4719 26.2529 41.314 26.6656 40.8519C26.7613 40.7448 26.8394 40.6184 26.8394 40.571C26.8394 40.5237 26.9959 40.3278 27.1871 40.1358C27.3783 39.9438 27.5348 39.6953 27.5348 39.5836C27.5348 39.4719 27.5905 39.3804 27.6588 39.3804C27.727 39.3804 27.8221 39.2233 27.8701 39.0313C27.918 38.8393 28.0187 38.6822 28.0937 38.6822C28.1688 38.6822 28.2301 38.5251 28.2301 38.3331C28.2301 38.1411 28.2927 37.9839 28.3692 37.9839C28.4456 37.9839 28.5082 37.8268 28.5082 37.6348C28.5082 37.4428 28.568 37.2857 28.641 37.2857C28.714 37.2857 28.8149 37.0658 28.8651 36.797C28.9674 36.2488 29.0016 36.2251 29.2829 36.5077ZM95.5662 41.3087C95.6574 41.4003 95.8446 41.4751 95.9823 41.4751C96.12 41.4751 96.2326 41.538 96.2326 41.6148C96.2326 41.6916 96.3891 41.7544 96.5803 41.7544C96.7967 41.7544 96.9279 41.8336 96.9279 41.9639C96.9279 42.0791 96.993 42.1734 97.0724 42.1734C97.3373 42.1734 98.3186 43.2644 98.3186 43.5589C98.3186 43.7185 98.3799 43.8491 98.455 43.8491C98.53 43.8491 98.6306 44.0062 98.6786 44.1982C98.7266 44.3903 98.8217 44.5474 98.8899 44.5474C98.9581 44.5474 99.0139 45.3957 99.0139 46.4326C99.0139 47.572 98.9599 48.3178 98.8775 48.3178C98.8025 48.3178 98.7019 48.4749 98.6539 48.6669C98.6059 48.8589 98.5108 49.0161 98.4426 49.0161C98.3744 49.0161 98.3186 49.1732 98.3186 49.3652C98.3186 49.5825 98.2397 49.7143 98.11 49.7143C97.9953 49.7143 97.9014 49.7796 97.9014 49.8594C97.9014 50.014 96.8698 51.1108 96.7243 51.1108C96.6419 51.1108 96.4512 51.2543 96.0292 51.6344C95.9225 51.7305 95.7057 51.809 95.5472 51.809C95.3888 51.809 95.2592 51.8718 95.2592 51.9486C95.2592 52.0254 95.1369 52.0883 94.9876 52.0883C94.8382 52.0883 94.5459 52.1661 94.338 52.2612C94.0376 52.3987 93.9483 52.3987 93.9027 52.2612C93.8712 52.1661 93.6941 52.0883 93.5093 52.0883C93.3244 52.0883 93.1732 52.0323 93.1732 51.9637C93.1732 51.8953 93.0168 51.7998 92.8255 51.7516C92.6343 51.7034 92.4779 51.6023 92.4779 51.527C92.4779 51.4516 92.4109 51.39 92.3289 51.39C92.2469 51.39 92.0927 51.3116 91.986 51.2155C91.5649 50.8362 91.3734 50.6918 91.2918 50.6918C91.1507 50.6918 90.8091 50.3036 90.8091 50.1431C90.8091 50.0609 90.7152 49.9936 90.6005 49.9936C90.4847 49.9936 90.3919 49.8694 90.3919 49.7143C90.3919 49.5607 90.3293 49.435 90.2528 49.435C90.1764 49.435 90.1138 49.3407 90.1138 49.2255C90.1138 49.1103 90.0525 49.0161 89.9774 49.0161C89.9024 49.0161 89.8017 48.8589 89.7537 48.6669C89.7058 48.4749 89.6106 48.3178 89.5425 48.3178C89.4742 48.3178 89.4185 47.4695 89.4185 46.4326C89.4185 45.2689 89.4717 44.5474 89.5575 44.5474C89.634 44.5474 89.6966 44.3903 89.6966 44.1982C89.6966 44.0062 89.7579 43.8491 89.833 43.8491C89.908 43.8491 90.0086 43.692 90.0566 43.5C90.1046 43.308 90.1997 43.1509 90.2679 43.1509C90.3361 43.1509 90.3919 43.0836 90.3919 43.0013C90.3919 42.8192 90.7412 42.4526 90.9148 42.4526C90.9838 42.4526 91.1239 42.2955 91.2263 42.1035C91.3287 41.9115 91.4957 41.7544 91.5975 41.7544C91.6993 41.7544 91.7826 41.6916 91.7826 41.6148C91.7826 41.538 91.939 41.4751 92.1302 41.4751C92.3214 41.4751 92.4779 41.4169 92.4779 41.3457C92.4779 41.1308 92.9041 41.0713 94.1825 41.1076C94.8945 41.128 95.4694 41.2115 95.5662 41.3087ZM21.0695 44.0399C21.1995 44.1704 21.2784 44.7317 21.3197 45.8204C21.3775 47.3439 21.6377 48.7368 21.8647 48.7368C21.9238 48.7368 21.9722 48.8669 21.9722 49.026C21.9722 49.1852 22.0505 49.4029 22.146 49.51C22.5588 49.9721 22.6675 50.13 22.6675 50.267C22.6675 50.347 22.7345 50.4125 22.8164 50.4125C22.9786 50.4125 23.3628 50.7563 23.3628 50.9013C23.3628 51.0462 23.7471 51.39 23.9092 51.39C23.9911 51.39 24.0582 51.4843 24.0582 51.5995C24.0582 51.7239 24.1858 51.809 24.3729 51.809C24.5461 51.809 24.8048 51.9658 24.9486 52.1581C25.0921 52.3501 25.326 52.5072 25.4683 52.5072C25.7148 52.5072 25.7269 52.7072 25.7269 56.7665V61.0257H23.2352C21.8647 61.0257 20.6444 60.9876 20.5234 60.9409C20.3262 60.865 20.3034 60.0025 20.3034 52.6319C20.3034 44.9944 20.3208 44.3886 20.5468 44.14C20.8492 43.8074 20.8398 43.8092 21.0695 44.0399ZM26.7004 56.9759C26.7004 59.6757 26.6509 61.1653 26.5613 61.1653C26.4718 61.1653 26.4223 59.7224 26.4223 57.1156C26.4223 53.97 26.3835 53.0654 26.2484 53.0637C26.0624 53.0613 26.4021 52.7927 26.5961 52.7886C26.6534 52.7875 26.7004 54.6717 26.7004 56.9759ZM81.7699 56.4173C81.7699 56.4941 81.8638 56.557 81.9785 56.557C82.1553 56.557 82.1871 56.8983 82.1871 58.7913V61.0257H78.78H75.3729V60.3973C75.3729 60.0516 75.4355 59.7689 75.512 59.7689C75.5885 59.7689 75.6511 59.6118 75.6511 59.4197C75.6511 59.2277 75.7137 59.0706 75.7901 59.0706C75.8666 59.0706 75.9292 58.9792 75.9292 58.8674C75.9292 58.7557 76.0856 58.5073 76.2769 58.3153C76.4681 58.1233 76.6245 57.9004 76.6245 57.8201C76.6245 57.7398 76.6897 57.6742 76.7694 57.6742C76.9059 57.6742 77.0631 57.565 77.5233 57.1505C77.63 57.0545 77.7842 56.9759 77.8662 56.9759C77.9481 56.9759 78.0152 56.9131 78.0152 56.8363C78.0152 56.7595 78.1691 56.6966 78.3574 56.6966C78.5456 56.6966 78.7802 56.6047 78.8789 56.4925C79.0918 56.25 81.7699 56.1804 81.7699 56.4173ZM83.2237 57.2901C83.2614 57.463 83.3095 58.3034 83.3306 59.1578C83.3665 60.6038 83.2822 61.0257 82.9578 61.0257C82.9164 61.0257 82.8824 60.1145 82.8824 59.0008C82.8824 57.7702 82.936 56.9759 83.0189 56.9759C83.0938 56.9759 83.186 57.1172 83.2237 57.2901ZM84.3391 57.9535C84.4391 57.9535 84.5604 58.1106 84.6084 58.3026C84.6563 58.4946 84.757 58.6517 84.832 58.6517C84.9071 58.6517 84.9684 58.7459 84.9684 58.8612C84.9684 58.9764 85.031 59.0706 85.1075 59.0706C85.1839 59.0706 85.2465 59.2906 85.2465 59.5594C85.2465 59.8282 85.3091 60.0482 85.3856 60.0482C85.4621 60.0482 85.5247 60.2681 85.5247 60.5369V61.0257H84.7747C83.8669 61.0257 83.8559 61.0056 83.8559 59.3499C83.8559 58.1814 83.977 57.4106 84.1016 57.786C84.1322 57.878 84.239 57.9535 84.3391 57.9535ZM59.3458 65.5373C58.9059 65.6153 58.5461 65.7319 58.5461 65.7963C58.5461 65.8607 58.436 65.9133 58.3014 65.9133C58.1668 65.9133 57.8878 66.0704 57.6816 66.2624C57.4755 66.4545 57.2414 66.6116 57.1616 66.6116C57.0818 66.6116 57.0164 66.7058 57.0164 66.821C57.0164 66.9362 56.9539 67.0305 56.8774 67.0305C56.8009 67.0305 56.7364 67.1405 56.7339 67.2749C56.7315 67.4092 56.6376 67.6413 56.5253 67.7903C56.413 67.9395 56.3211 68.2065 56.3211 68.3838C56.3211 68.5612 56.2585 68.7063 56.182 68.7063C56.0935 68.7063 56.043 69.8468 56.043 71.8483C56.043 73.8499 56.0935 74.9904 56.182 74.9904C56.2585 74.9904 56.3211 75.2103 56.3211 75.4791C56.3211 75.748 56.3795 75.9679 56.4509 75.9679C56.5222 75.9679 56.6248 76.1094 56.6791 76.2821C56.8064 76.6878 57.6902 77.5752 58.0942 77.7032C58.2663 77.7576 58.4071 77.8607 58.4071 77.9323C58.4071 78.004 58.6261 78.0626 58.8938 78.0626C59.1615 78.0626 59.3805 78.1254 59.3805 78.2022C59.3805 78.2837 59.844 78.3419 60.493 78.3419C61.1421 78.3419 61.6056 78.2837 61.6056 78.2022C61.6056 78.1254 61.8246 78.0626 62.0923 78.0626C62.36 78.0626 62.579 78.004 62.579 77.9323C62.579 77.8607 62.717 77.7582 62.8854 77.7044C63.2435 77.5903 63.5525 77.3081 63.5525 77.095C63.5525 77.0127 63.6463 76.9454 63.7611 76.9454C63.8758 76.9454 63.9697 76.8512 63.9697 76.736C63.9697 76.6208 64.0322 76.5265 64.1087 76.5265C64.1852 76.5265 64.2478 76.4085 64.2478 76.2642C64.2478 76.1201 64.3417 75.9239 64.4564 75.8283C64.6324 75.6815 64.665 75.0592 64.665 71.8313C64.665 69.425 64.6144 68.008 64.5286 68.008C64.4536 68.008 64.3529 67.8509 64.3049 67.6589C64.257 67.4669 64.1618 67.3098 64.0937 67.3098C64.0254 67.3098 63.9697 67.2306 63.9697 67.1338C63.9697 66.9696 63.5623 66.4917 63.0781 66.0879C62.9631 65.9919 62.741 65.9133 62.5849 65.9133C62.4287 65.9133 62.3009 65.8614 62.3009 65.7978C62.3009 65.6819 60.6993 65.337 60.338 65.375C60.232 65.3862 59.7856 65.4592 59.3458 65.5373ZM7.50948 66.1228V66.6116H10.9166C13.8524 66.6116 14.3236 66.6405 14.3236 66.821C14.3236 66.9362 14.2611 67.0305 14.1846 67.0305C14.1081 67.0305 14.0455 67.1562 14.0455 67.3098C14.0455 67.4634 13.9829 67.5891 13.9064 67.5891C13.83 67.5891 13.7674 67.6833 13.7674 67.7986C13.7674 67.9138 13.7061 68.008 13.631 68.008C13.556 68.008 13.4553 68.1651 13.4073 68.3571C13.3594 68.5492 13.2711 68.7063 13.2111 68.7063C13.1512 68.7063 13.0629 68.8634 13.0149 69.0554C12.9669 69.2474 12.8662 69.4045 12.7913 69.4045C12.7162 69.4045 12.6549 69.4988 12.6549 69.614C12.6549 69.7292 12.5923 69.8234 12.5158 69.8234C12.4393 69.8234 12.3767 69.9491 12.3767 70.1027C12.3767 70.2563 12.3154 70.382 12.2403 70.382C12.1654 70.382 12.0647 70.5391 12.0167 70.7311C11.9687 70.9232 11.8736 71.0803 11.8055 71.0803C11.7372 71.0803 11.6814 71.1745 11.6814 71.2897C11.6814 71.4049 11.6201 71.4992 11.545 71.4992C11.47 71.4992 11.3694 71.6563 11.3214 71.8483C11.2734 72.0403 11.1783 72.1974 11.1101 72.1974C11.0419 72.1974 10.9861 72.3231 10.9861 72.4767C10.9861 72.6303 10.9235 72.756 10.847 72.756C10.7705 72.756 10.708 72.8503 10.708 72.9655C10.708 73.0807 10.6466 73.175 10.5715 73.175C10.4966 73.175 10.3959 73.3321 10.3479 73.5241C10.2999 73.7161 10.2116 73.8732 10.1517 73.8732C10.0918 73.8732 10.0035 74.0303 9.95549 74.2223C9.90751 74.4143 9.80683 74.5714 9.73187 74.5714C9.65678 74.5714 9.59545 74.6657 9.59545 74.7809C9.59545 74.8961 9.53287 74.9904 9.45638 74.9904C9.3799 74.9904 9.31732 75.1094 9.31732 75.2547C9.31732 75.4001 9.22345 75.5552 9.10872 75.5995C8.99399 75.6436 8.90013 75.8074 8.90013 75.9636C8.90013 76.1196 8.83755 76.2472 8.76106 76.2472C8.68458 76.2472 8.622 76.3415 8.622 76.4567C8.622 76.5719 8.56359 76.6661 8.49225 76.6661C8.42091 76.6661 8.3187 76.8076 8.26502 76.9803C8.2112 77.1531 8.12164 77.326 8.06574 77.3644C8.00984 77.4028 7.92028 77.5757 7.86646 77.7484L7.76884 78.0626H12.168H16.5672L16.5231 77.6786L16.4791 77.2945L13.0373 77.2573C9.71073 77.2211 9.59545 77.2106 9.59545 76.943C9.59545 76.7907 9.65678 76.6661 9.73187 76.6661C9.80683 76.6661 9.90751 76.509 9.95549 76.317C10.0035 76.125 10.0918 75.9679 10.1517 75.9679C10.2116 75.9679 10.2999 75.8108 10.3479 75.6188C10.3959 75.4268 10.4966 75.2697 10.5715 75.2697C10.6466 75.2697 10.708 75.1754 10.708 75.0602C10.708 74.945 10.7705 74.8507 10.847 74.8507C10.9235 74.8507 10.9861 74.725 10.9861 74.5714C10.9861 74.4178 11.0419 74.2921 11.1101 74.2921C11.1783 74.2921 11.2734 74.135 11.3214 73.943C11.3694 73.751 11.47 73.5939 11.545 73.5939C11.6201 73.5939 11.6814 73.4996 11.6814 73.3844C11.6814 73.2692 11.7427 73.175 11.8178 73.175C11.8928 73.175 11.9935 73.0179 12.0415 72.8258C12.0894 72.6338 12.1846 72.4767 12.2527 72.4767C12.321 72.4767 12.3767 72.351 12.3767 72.1974C12.3767 72.0438 12.4321 71.9181 12.4995 71.9181C12.5671 71.9181 12.6592 71.8081 12.7041 71.6738C12.7928 71.4086 13.0897 70.9131 13.2271 70.801C13.2743 70.7626 13.3566 70.5898 13.4104 70.4169C13.4641 70.244 13.5663 70.1027 13.6376 70.1027C13.709 70.1027 13.7674 70.0085 13.7674 69.8933C13.7674 69.7781 13.83 69.6838 13.9064 69.6838C13.9829 69.6838 14.0455 69.5562 14.0455 69.4002C14.0455 69.244 14.1394 69.0802 14.2541 69.0361C14.3688 68.9918 14.4627 68.8367 14.4627 68.6913C14.4627 68.5459 14.5185 68.427 14.5868 68.427C14.6549 68.427 14.75 68.2699 14.798 68.0779C14.846 67.8858 14.9466 67.7287 15.0216 67.7287C15.0967 67.7287 15.158 67.6345 15.158 67.5193C15.158 67.4041 15.2138 67.3098 15.2821 67.3098C15.3502 67.3098 15.4453 67.1527 15.4933 66.9607C15.5413 66.7687 15.642 66.6116 15.7169 66.6116C15.792 66.6116 15.8534 66.4859 15.8534 66.3323C15.8534 66.1786 15.9159 66.053 15.9924 66.053C16.0689 66.053 16.1315 65.9587 16.1315 65.8435C16.1315 65.6618 15.5598 65.634 11.8205 65.634H7.50948V66.1228ZM17.8003 71.8483V78.0626H21.2769H24.7535V77.7284C24.7535 77.5446 24.6545 77.3561 24.5335 77.3095C24.4125 77.2628 23.1108 77.2247 21.6409 77.2247C19.7477 77.2247 18.9197 77.1758 18.8015 77.0571C18.6256 76.8805 18.554 72.8503 18.7191 72.4184C18.7919 72.2277 19.1634 72.1974 21.4308 72.1974H24.0582V71.7087V71.2199H21.5664C20.1959 71.2199 18.9756 71.1818 18.8546 71.1351C18.6668 71.0628 18.6346 70.726 18.6346 68.831V66.6116H21.4706C24.5055 66.6116 24.4753 66.6187 24.4753 65.9019C24.4753 65.6453 24.3352 65.634 21.1378 65.634H17.8003V71.8483ZM27.9029 66.7025C27.8534 67.2901 27.8129 68.9868 27.8129 70.4729C27.8129 72.1812 27.7617 73.175 27.6738 73.175C27.5944 73.175 27.5327 73.6088 27.5299 74.1874C27.5268 74.8005 27.4465 75.3375 27.3262 75.549C27.2169 75.741 27.1252 76.044 27.1224 76.2222C27.1173 76.5621 26.8251 76.9454 26.5712 76.9454C26.4893 76.9454 26.4223 77.0055 26.4223 77.0788C26.4223 77.1521 26.2032 77.2533 25.9355 77.3038C25.5406 77.3782 25.4488 77.4584 25.4488 77.729C25.4488 77.9237 25.5308 78.0626 25.6459 78.0626C25.7542 78.0626 25.8743 78.1412 25.913 78.2372C25.969 78.3768 25.9853 78.3768 25.9941 78.2372C26.0002 78.1398 26.185 78.0626 26.4124 78.0626C26.6363 78.0626 26.9134 77.9683 27.0282 77.8531C27.1429 77.7379 27.3038 77.6437 27.3858 77.6437C27.4677 77.6437 27.5348 77.5494 27.5348 77.4342C27.5348 77.319 27.5973 77.2247 27.6738 77.2247C27.7503 77.2247 27.8148 77.1147 27.8173 76.9803C27.8197 76.846 27.9136 76.6139 28.0259 76.4649C28.1382 76.3158 28.2301 75.9859 28.2301 75.7318C28.2301 75.4776 28.2927 75.2697 28.3692 75.2697C28.4533 75.2697 28.5082 74.6759 28.5082 73.7675C28.5082 72.9413 28.5672 72.0592 28.6391 71.807C28.7111 71.5549 28.8142 70.2827 28.8681 68.9801L28.9663 66.6116H31.5185H34.0708V72.3371V78.0626H34.5575H35.0442V71.8483V65.634H31.5185H27.9927L27.9029 66.7025ZM37.1302 71.8507V78.0675L40.5721 78.0301C43.9591 77.9933 44.0146 77.988 44.0559 77.6967C44.1164 77.2712 43.8262 77.2288 40.8403 77.2267C38.7592 77.2251 38.1821 77.1838 38.0243 77.0252C37.868 76.8683 37.8255 76.331 37.8255 74.5115V72.1974H40.6068C43.2559 72.1974 43.3881 72.1847 43.3881 71.9296C43.3881 71.2202 43.3871 71.2199 40.7424 71.2199C39.3801 71.2199 38.1665 71.1818 38.0455 71.1351C37.8577 71.0628 37.8255 70.726 37.8255 68.831V66.6116H40.7459H43.6662V66.1228V65.634H40.3982H37.1302V71.8507ZM46.0303 65.8319C46.0303 65.9407 45.9522 66.0664 45.8565 66.1112C45.7174 66.1763 45.7174 66.209 45.8565 66.274C45.9914 66.3373 46.0303 67.6186 46.0303 71.988C46.0303 76.363 45.9915 77.6363 45.8565 77.6913C45.6086 77.7922 46.0085 78.0577 46.4128 78.0605L46.7257 78.0626V75.13V72.1974H49.7851C52.139 72.1974 52.8449 72.2376 52.8463 72.372C52.8473 72.4681 52.8629 73.7719 52.8811 75.2697L52.914 77.9928L53.4355 78.0361L53.957 78.0795V71.8567V65.634H53.4852C53.1831 65.634 52.9829 65.7135 52.9289 65.8549C52.8825 65.9764 52.8445 67.2333 52.8445 68.6479C52.8445 70.2663 52.7929 71.2217 52.7054 71.2247C51.3147 71.2723 47.1491 71.214 46.969 71.1445C46.7489 71.0593 46.7257 70.7924 46.7257 68.3422V65.634H46.378C46.1708 65.634 46.0303 65.7139 46.0303 65.8319ZM66.3338 71.8567V78.0795L66.8288 78.0361L67.324 77.9928L67.3503 72.3371L67.3767 66.6814L70.1233 66.6435L72.8698 66.6057V66.1199V65.634H69.6018H66.3338V71.8567ZM74.5386 71.8483V78.0626H75.0948H75.6511V75.7663V73.4698L77.4241 73.4051C78.3994 73.3695 79.474 73.2956 79.8122 73.2407C80.3914 73.1469 80.5213 73.0824 80.9999 72.6513C81.1066 72.5554 81.234 72.4767 81.2832 72.4767C81.5496 72.4767 82.1871 71.5192 82.1871 71.1189C82.1871 70.9441 82.2497 70.801 82.3262 70.801C82.4086 70.801 82.4652 70.2889 82.4652 69.5441C82.4652 68.7994 82.4086 68.2873 82.3262 68.2873C82.2497 68.2873 82.1871 68.1044 82.1871 67.881C82.1871 67.2722 80.8549 65.9133 80.2581 65.9133C80.0188 65.9133 79.823 65.8505 79.823 65.7737C79.823 65.6854 78.8496 65.634 77.1808 65.634H74.5386V71.8483ZM85.9418 65.9232C85.9418 66.0824 85.848 66.3068 85.7332 66.4221C85.6185 66.5373 85.5247 66.7842 85.5247 66.9706C85.5247 67.1572 85.4621 67.3098 85.3856 67.3098C85.3091 67.3098 85.2465 67.5297 85.2465 67.7986C85.2465 68.0674 85.1889 68.2873 85.1184 68.2873C85.0481 68.2873 84.9495 68.4752 84.8993 68.7047C84.8491 68.9342 84.7502 69.1579 84.6796 69.2017C84.6089 69.2454 84.5512 69.4661 84.5512 69.692C84.5512 69.918 84.4956 70.1027 84.4276 70.1027C84.3597 70.1027 84.2629 70.3227 84.2127 70.5915C84.1625 70.8603 84.0617 71.0803 83.9887 71.0803C83.9157 71.0803 83.8559 71.3316 83.8559 71.6388C83.8559 71.9461 83.8003 72.1974 83.7323 72.1974C83.6644 72.1974 83.5676 72.4174 83.5174 72.6862C83.4672 72.955 83.3664 73.175 83.2934 73.175C83.2204 73.175 83.1606 73.3321 83.1606 73.5241C83.1606 73.7161 83.1122 73.8732 83.0531 73.8732C82.9535 73.8732 82.6993 74.6781 82.5128 75.5839C82.4693 75.7952 82.3782 75.9679 82.3105 75.9679C82.2426 75.9679 82.1871 76.113 82.1871 76.2903C82.1871 76.4677 82.0952 76.7347 81.983 76.8838C81.8706 77.0329 81.7767 77.363 81.7744 77.6171C81.7701 78.0667 81.7844 78.0782 82.2914 78.0361C82.7845 77.9952 82.8153 77.9643 82.856 77.4691C82.8798 77.1812 82.9581 76.9454 83.0298 76.9454C83.1017 76.9454 83.1606 76.7928 83.1606 76.6062C83.1606 76.4198 83.2544 76.1729 83.3692 76.0577C83.4839 75.9425 83.5778 75.6552 83.5778 75.4192C83.5778 75.1834 83.6335 74.9904 83.7018 74.9904C83.7699 74.9904 83.8651 74.8333 83.913 74.6413L84.0002 74.2921H86.5007C88.7878 74.2921 89.0017 74.3129 89.0057 74.5365C89.0081 74.6709 89.1019 74.9029 89.2143 75.0519C89.3265 75.2011 89.4185 75.4681 89.4185 75.6455C89.4185 75.8228 89.481 75.9679 89.5575 75.9679C89.634 75.9679 89.6966 76.1878 89.6966 76.4567C89.6966 76.7255 89.7511 76.9454 89.8179 76.9454C89.8846 76.9454 89.9792 77.1968 90.0281 77.504C90.1121 78.0319 90.1438 78.0626 90.6022 78.0626C91.0484 78.0626 91.0872 78.0291 91.0872 77.6437C91.0872 77.4132 91.0247 77.2247 90.9482 77.2247C90.8717 77.2247 90.8072 77.052 90.8047 76.8407C90.8023 76.6294 90.7084 76.3346 90.5961 76.1856C90.4838 76.0365 90.3919 75.7695 90.3919 75.5921C90.3919 75.4148 90.3435 75.2697 90.2844 75.2697C90.1848 75.2697 89.9306 74.4647 89.7441 73.559C89.7006 73.3477 89.6095 73.175 89.5418 73.175C89.4739 73.175 89.4162 73.0335 89.4136 72.8608C89.4108 72.688 89.3192 72.3895 89.2099 72.1974C89.1006 72.0054 89.0089 71.7069 89.0061 71.5341C89.0035 71.3612 88.9387 71.2199 88.8622 71.2199C88.7857 71.2199 88.7231 71.0359 88.7231 70.8109C88.7231 70.5861 88.6293 70.3077 88.5145 70.1925C88.3998 70.0773 88.3059 69.8215 88.3059 69.6239C88.3059 69.4264 88.2434 69.2648 88.1669 69.2648C88.0904 69.2648 88.0278 69.0449 88.0278 68.7761C88.0278 68.5073 87.9722 68.2873 87.9042 68.2873C87.8363 68.2873 87.7395 68.0674 87.6893 67.7986C87.6391 67.5297 87.5383 67.3098 87.4653 67.3098C87.3923 67.3098 87.3325 67.0899 87.3325 66.821C87.3325 66.5522 87.2767 66.3323 87.2084 66.3323C87.1403 66.3323 87.0452 66.1752 86.9972 65.9831C86.925 65.6944 86.8263 65.634 86.4259 65.634C86.029 65.634 85.9418 65.6861 85.9418 65.9232ZM95.1994 65.9482C95.1245 66.3092 95.0139 68.3407 94.8912 71.6039C94.8442 72.8521 94.7514 73.8732 94.6848 73.8732C94.6184 73.8732 94.5638 74.1579 94.5638 74.5061C94.5638 74.8542 94.47 75.3646 94.3552 75.6403C94.2405 75.9161 94.1467 76.2327 94.1467 76.3441C94.1467 76.5807 93.8154 76.9454 93.6003 76.9454C93.5184 76.9454 93.4513 77.0013 93.4513 77.0696C93.4513 77.1377 93.2323 77.2349 92.9646 77.2853L92.4779 77.3771V78.9068V80.4366H93.0341H93.5904V79.2496V78.0626H97.4693C101.849 78.0626 101.517 77.9651 101.517 79.2496C101.517 80.2527 101.606 80.4366 102.093 80.4366H102.5L102.46 78.8656L102.421 77.2945L101.899 77.2513L101.378 77.2078V71.421V65.634H98.3212H95.2645L95.1994 65.9482ZM61.4665 66.4719C61.4665 66.5487 61.5939 66.6116 61.7495 66.6116C62.2542 66.6116 63.2588 67.419 63.2697 67.8335C63.2723 67.9295 63.3298 68.008 63.3977 68.008C63.6319 68.008 63.7313 68.9262 63.7905 71.6388C63.8483 74.2745 63.7001 75.8283 63.3912 75.8283C63.3269 75.8283 63.2743 75.9225 63.2743 76.0377C63.2743 76.1529 63.1805 76.2472 63.0657 76.2472C62.951 76.2472 62.8571 76.3145 62.8571 76.3968C62.8571 76.6396 62.4815 76.9454 62.1834 76.9454C62.0312 76.9454 61.8813 77.0222 61.8502 77.1161C61.8143 77.2242 61.3984 77.3067 60.7143 77.3413C59.4505 77.4054 58.7682 77.1672 57.9838 76.3877C57.137 75.5466 57.086 75.2827 57.086 71.7504C57.086 69.4006 57.1309 68.5353 57.2598 68.4059C57.3555 68.3099 57.4336 68.1183 57.4336 67.9801C57.4336 67.8418 57.4962 67.7287 57.5727 67.7287C57.6492 67.7287 57.7118 67.6345 57.7118 67.5193C57.7118 67.4041 57.7771 67.3098 57.8569 67.3098C57.9368 67.3098 58.1708 67.1527 58.3769 66.9607C58.5831 66.7687 58.8934 66.6116 59.0662 66.6116C59.2391 66.6116 59.3805 66.5487 59.3805 66.4719C59.3805 66.3912 59.8209 66.3323 60.4235 66.3323C61.0261 66.3323 61.4665 66.3912 61.4665 66.4719ZM80.1011 66.821C80.1011 66.9362 80.1665 67.0305 80.2465 67.0305C80.4353 67.0305 81.0746 67.6725 81.0746 67.8621C81.0746 67.9424 81.1685 68.008 81.2832 68.008C81.4547 68.008 81.4918 68.2563 81.4918 69.4045C81.4918 70.1751 81.4337 70.801 81.362 70.801C81.2907 70.801 81.1886 70.9395 81.1351 71.1086C81.0215 71.4682 80.7404 71.7785 80.5282 71.7785C80.4463 71.7785 80.3793 71.8401 80.3793 71.9155C80.3793 71.9908 80.2228 72.0919 80.0316 72.14C79.8404 72.1882 79.6839 72.2837 79.6839 72.3522C79.6839 72.4207 78.7766 72.4767 77.6675 72.4767H75.6511V69.5441V66.6116H77.8761C79.7613 66.6116 80.1011 66.6435 80.1011 66.821ZM100.371 71.8832L100.335 77.1549L97.674 77.1927C95.2715 77.227 95.0043 77.2074 94.9219 76.9921C94.866 76.8457 94.9136 76.7068 95.0449 76.633C95.1734 76.5608 95.2592 76.3195 95.2592 76.0307C95.2592 75.7658 95.3217 75.549 95.3982 75.549C95.4747 75.549 95.5395 75.2191 95.5422 74.8158C95.5448 74.4125 95.6374 73.5799 95.748 72.9655C95.8756 72.2558 95.95 70.8933 95.9517 69.2299L95.9545 66.6116H98.1812H100.408L100.371 71.8832ZM86.6372 67.6589C86.6372 67.8509 86.6997 68.008 86.7762 68.008C86.8527 68.008 86.9153 68.1531 86.9153 68.3305C86.9153 68.5078 87.0072 68.7748 87.1194 68.924C87.2318 69.073 87.3257 69.3992 87.328 69.6489C87.3305 69.8986 87.3951 70.1027 87.4716 70.1027C87.548 70.1027 87.6106 70.2554 87.6106 70.4419C87.6106 70.6284 87.7045 70.8753 87.8192 70.9905C87.9339 71.1057 88.0278 71.3929 88.0278 71.6289C88.0278 71.8648 88.0904 72.0578 88.1669 72.0578C88.2434 72.0578 88.3059 72.2411 88.3059 72.4651C88.3059 72.6891 88.3842 72.8989 88.4798 72.9311C88.6154 72.9769 88.6116 73.041 88.4628 73.222C88.1794 73.5668 84.7818 73.566 84.4383 73.221C84.2693 73.0515 84.253 72.9722 84.3786 72.9302C84.4736 72.8983 84.5531 72.7362 84.5556 72.5699C84.558 72.4034 84.6519 72.1452 84.7642 71.9962C84.8765 71.8471 84.9684 71.5801 84.9684 71.4027C84.9684 71.2253 85.031 71.0803 85.1075 71.0803C85.1839 71.0803 85.2465 70.8603 85.2465 70.5915C85.2465 70.3227 85.3084 70.1027 85.3839 70.1027C85.4596 70.1027 85.5614 69.8514 85.6103 69.5441C85.6593 69.2369 85.7538 68.9856 85.8206 68.9856C85.8873 68.9856 85.9418 68.7656 85.9418 68.4968C85.9418 68.228 85.9976 68.008 86.0659 68.008C86.134 68.008 86.2292 67.8509 86.2771 67.6589C86.3251 67.4669 86.4258 67.3098 86.5007 67.3098C86.5758 67.3098 86.6372 67.4669 86.6372 67.6589Z" fill="#373737"/>
</svg>
