<svg width="133" height="18" viewBox="0 0 133 18" fill="none" xmlns="http://www.w3.org/2000/svg">
<path d="M1 3.58H7L0.22 15H11V12.5H4.76L11.62 0.999999H1V3.58ZM15.2741 15H22.3341V12.58H15.2741V15ZM15.2741 3.42H22.3341V0.999999H15.2741V3.42ZM15.2741 8.76H21.9341V6.38H15.2741V8.76ZM13.4341 0.999999V15H16.1941V0.999999H13.4341ZM36.7328 0.999999H25.8728V9.44C25.8728 9.90667 25.8261 10.3333 25.7328 10.72C25.6395 11.1067 25.5061 11.44 25.3328 11.72C25.1595 12 24.9461 12.2133 24.6928 12.36C24.4395 12.5067 24.1528 12.58 23.8328 12.58V15C24.9661 15 25.8928 14.78 26.6128 14.34C27.3328 13.9 27.8595 13.2667 28.1928 12.44C28.5395 11.6 28.7128 10.5933 28.7128 9.42V3.58H33.8328V15H36.7328V0.999999ZM41.6998 15H48.7598V12.58H41.6998V15ZM41.6998 3.42H48.7598V0.999999H41.6998V3.42ZM41.6998 8.76H48.3598V6.38H41.6998V8.76ZM39.8598 0.999999V15H42.6198V0.999999H39.8598ZM52.5186 8.84H62.7986V6.26H52.5186V8.84ZM60.9786 0.999999V15H63.8386V0.999999H60.9786ZM51.5786 0.999999V15H54.4386V0.999999H51.5786ZM69.072 8C69.072 7.10667 69.2587 6.31333 69.632 5.62C70.0054 4.92667 70.5187 4.38 71.172 3.98C71.8254 3.58 72.5854 3.38 73.452 3.38C74.332 3.38 75.0987 3.58 75.752 3.98C76.4054 4.38 76.912 4.92667 77.272 5.62C77.632 6.31333 77.812 7.10667 77.812 8C77.812 8.89333 77.6254 9.68667 77.252 10.38C76.892 11.0733 76.3854 11.62 75.732 12.02C75.0787 12.42 74.3187 12.62 73.452 12.62C72.5854 12.62 71.8254 12.42 71.172 12.02C70.5187 11.62 70.0054 11.0733 69.632 10.38C69.2587 9.68667 69.072 8.89333 69.072 8ZM66.052 8C66.052 9.05333 66.232 10.0333 66.592 10.94C66.952 11.8333 67.4654 12.6133 68.132 13.28C68.7987 13.9467 69.5787 14.4667 70.472 14.84C71.3787 15.2 72.372 15.38 73.452 15.38C74.532 15.38 75.5187 15.2 76.412 14.84C77.3187 14.4667 78.0987 13.9467 78.752 13.28C79.4187 12.6133 79.932 11.8333 80.292 10.94C80.6654 10.0333 80.852 9.05333 80.852 8C80.852 6.93333 80.6654 5.96 80.292 5.08C79.932 4.18667 79.412 3.41333 78.732 2.76C78.0654 2.10667 77.2854 1.60667 76.392 1.26C75.4987 0.899999 74.5187 0.719999 73.452 0.719999C72.3987 0.719999 71.4187 0.899999 70.512 1.26C69.6187 1.60667 68.8387 2.10667 68.172 2.76C67.5054 3.41333 66.9854 4.18667 66.612 5.08C66.2387 5.96 66.052 6.93333 66.052 8ZM83.143 0.999999V15H86.003V3.58H91.023V0.999999H83.143ZM92.7505 0.999999V15H95.6105V0.999999H92.7505ZM94.4905 3.42H97.2705C98.0305 3.42 98.6305 3.59333 99.0705 3.94C99.5105 4.27333 99.7305 4.78 99.7305 5.46C99.7305 6.12667 99.5105 6.63333 99.0705 6.98C98.6305 7.32667 98.0305 7.5 97.2705 7.5H94.4905V9.92H97.2705C98.3771 9.92 99.3171 9.74 100.09 9.38C100.877 9.02 101.477 8.50667 101.89 7.84C102.304 7.16 102.51 6.36667 102.51 5.46C102.51 4.54 102.304 3.74667 101.89 3.08C101.477 2.41333 100.877 1.9 100.09 1.54C99.3171 1.18 98.3771 0.999999 97.2705 0.999999H94.4905V3.42ZM105.257 11.82H112.657L112.317 9.56H105.597L105.257 11.82ZM108.917 5.54L111.017 10.4L110.977 11.12L112.777 15H116.017L108.917 0.179999L101.817 15H105.037L106.877 11L106.817 10.36L108.917 5.54ZM125.121 5.7L128.341 14.4H131.601L125.121 0.3L118.641 14.4H121.901L125.121 5.7ZM130.041 15V17.2H132.821V12.5H117.421V17.2H120.201V15H130.041Z" fill="white"/>
</svg>
