<svg width="390" height="312" viewBox="0 0 390 312" fill="none" xmlns="http://www.w3.org/2000/svg">
<path fill-rule="evenodd" clip-rule="evenodd" d="M0 156V312H195H390V156V0H195H0V156ZM387.535 156V309.496H195H2.46523V156V2.50401H195H387.535V156ZM26.6245 61.8491C26.6245 83.7177 26.4554 95.1525 26.1315 95.1525C25.8056 95.1525 25.6384 116.353 25.6384 157.753V220.353H81.5992H137.56V159.803V99.2531L139.867 98.4548C141.135 98.0156 143.354 97.6565 144.797 97.6565C146.24 97.6565 147.421 97.4311 147.421 97.1557C147.421 96.8662 148.982 96.6549 151.119 96.6549C153.153 96.6549 154.817 96.4621 154.817 96.2262C154.817 95.9903 156.647 95.6433 158.884 95.455C161.121 95.2662 163.026 94.8961 163.116 94.6317C163.374 93.878 164.678 94.0693 164.678 94.8605C164.678 95.2506 164.955 95.6843 165.294 95.8241C165.759 96.0154 165.729 96.2192 165.171 96.6549C164.612 97.0906 164.582 97.2944 165.047 97.4857C165.842 97.8133 165.964 217.849 165.171 217.849C164.429 217.849 164.579 219.823 165.382 220.639C166.221 221.491 175.525 221.688 175.525 220.854C175.525 220.575 176.84 220.353 178.483 220.353H181.441V155.533V90.7129L180.402 90.3778C179.054 89.9431 174.046 90.5772 174.046 91.1821C174.046 91.4375 172.492 91.6469 170.594 91.6469H167.143V74.87V58.0931H168.638C169.46 58.0931 170.929 58.4311 171.903 58.8443C172.876 59.2575 174.422 59.5955 175.338 59.5955C176.254 59.5955 177.004 59.8209 177.004 60.0963C177.004 60.3717 177.864 60.5971 178.916 60.5971C179.967 60.5971 181.624 60.9352 182.598 61.3483C183.571 61.7615 185.151 62.0995 186.109 62.0995C187.067 62.0995 187.851 62.3249 187.851 62.6003C187.851 62.8758 188.805 63.1011 189.971 63.1011C191.137 63.1011 192.319 63.3325 192.597 63.6154C192.875 63.8979 194.251 64.2675 195.654 64.4363C197.057 64.605 198.205 64.9371 198.205 65.174C198.205 65.4113 199.407 65.6051 200.876 65.6051C202.377 65.6051 203.625 65.846 203.726 66.155C203.826 66.4575 204.954 66.8251 206.233 66.9713C207.512 67.1181 208.559 67.4341 208.559 67.6735C208.559 67.9133 209.795 68.1092 211.306 68.1092C213.09 68.1092 214.312 68.3726 214.792 68.8604C215.199 69.2735 216.071 69.6116 216.729 69.6116H217.927V87.3901C217.927 98.9085 217.753 105.169 217.434 105.169C217.162 105.169 216.941 105.507 216.941 105.92C216.941 106.333 216.7 106.671 216.407 106.671C216.113 106.671 215.118 107.46 214.196 108.424C213.275 109.388 212.302 110.177 212.036 110.177C211.769 110.177 210.878 110.845 210.055 111.662L208.559 113.148V166.75V220.353H214.475H220.392V162.761C220.392 119.721 220.535 105.169 220.958 105.169C221.27 105.169 222.279 104.38 223.201 103.416C224.123 102.452 225.035 101.663 225.228 101.663C225.421 101.663 226.177 101.1 226.909 100.411C227.639 99.7223 228.469 99.1589 228.752 99.1589C229.035 99.1589 229.267 98.9335 229.267 98.6581C229.267 97.6445 229.895 98.0096 233.56 101.152C233.888 101.433 234.387 101.663 234.67 101.663C234.952 101.663 235.183 101.85 235.183 102.079C235.183 102.308 235.738 102.797 236.416 103.165C237.094 103.534 237.649 104.135 237.649 104.502C237.649 104.879 238.184 105.169 238.881 105.169C239.559 105.169 240.114 105.41 240.114 105.705C240.114 106.289 241.328 107.673 241.839 107.673C242.014 107.673 242.466 107.955 242.844 108.299C244.325 109.648 245.015 110.177 245.294 110.177C245.453 110.177 246.098 110.74 246.727 111.429C247.355 112.117 248.026 112.681 248.217 112.681C248.409 112.681 248.883 113.003 249.27 113.396C249.872 114.007 249.975 121.862 249.975 167.232V220.353H305.442H360.91V124.449V28.5457H193.767H26.6245V61.8491ZM358.568 30.7453C359.385 31.3748 359.431 36.4269 359.431 124.415C359.431 204.351 359.332 217.521 358.727 218.135C358.16 218.711 355.954 218.851 347.439 218.851C338.244 218.851 336.817 218.747 336.557 218.058C336.393 217.623 336.258 211.071 336.258 203.5C336.258 188.587 336.308 188.302 338.935 188.302C339.632 188.302 340.202 188.081 340.202 187.81C340.202 187.541 340.757 187.178 341.435 187.005C342.113 186.832 342.668 186.49 342.668 186.244C342.668 185.999 342.899 185.798 343.181 185.798C343.741 185.798 344.283 185.377 346.873 182.927C347.814 182.037 348.584 181.068 348.584 180.775C348.584 180.481 349.139 179.719 349.817 179.081C350.495 178.442 351.049 177.439 351.049 176.851C351.049 176.263 351.261 175.782 351.52 175.782C351.779 175.782 352.137 174.99 352.315 174.023C352.494 173.056 352.837 172.141 353.077 171.991C353.649 171.632 353.648 160.758 353.076 160.758C352.836 160.758 352.492 159.969 352.314 159.005C352.136 158.041 351.779 157.252 351.52 157.252C351.261 157.252 351.049 156.792 351.049 156.229C351.049 155.275 350.774 154.796 349.2 153.014C348.862 152.63 348.584 152.187 348.584 152.029C348.584 151.533 346.635 149.74 346.095 149.74C345.811 149.74 345.065 149.177 344.437 148.488C343.808 147.799 342.82 147.236 342.241 147.236C341.662 147.236 341.188 147.048 341.188 146.819C341.188 146.191 335.886 145.108 332.807 145.107C329.976 145.106 325.411 146.181 325.411 146.849C325.411 147.062 325.18 147.236 324.897 147.236C324.413 147.236 323.856 147.628 322.224 149.114C321.846 149.459 321.299 149.74 321.008 149.74C320.718 149.74 320.48 149.975 320.48 150.262C320.48 150.753 320.095 151.32 318.632 152.977C318.293 153.361 318.015 153.898 318.015 154.17C318.015 154.442 317.849 154.739 317.645 154.832C317.007 155.12 315.55 158.731 315.55 160.023C315.55 160.703 315.328 161.258 315.057 161.258C314.76 161.258 314.564 163.345 314.564 166.517C314.564 169.688 314.76 171.775 315.057 171.775C315.328 171.775 315.55 172.435 315.55 173.242C315.55 174.048 315.883 175.047 316.29 175.46C316.696 175.873 317.029 176.452 317.029 176.748C317.029 177.043 317.251 177.284 317.522 177.284C317.793 177.284 318.022 177.679 318.031 178.161C318.05 179.243 319.161 180.79 319.918 180.79C320.227 180.79 320.48 181.031 320.48 181.326C320.48 181.928 321.7 183.294 322.238 183.294C322.429 183.294 323.1 183.857 323.729 184.546C324.357 185.234 325.214 185.798 325.634 185.798C326.054 185.798 326.397 185.999 326.397 186.244C326.397 186.49 326.952 186.832 327.63 187.005C328.308 187.178 328.862 187.541 328.862 187.81C328.862 188.081 329.1 188.302 329.39 188.302C329.681 188.302 330.236 188.624 330.623 189.017C331.665 190.076 331.665 217.077 330.623 218.135C330.052 218.716 327.683 218.851 318.084 218.851C306.681 218.851 306.237 218.814 305.936 217.849C305.763 217.298 305.416 216.848 305.163 216.848C304.91 216.848 304.703 215.721 304.703 214.344C304.703 212.966 304.505 211.839 304.263 211.839C304.022 211.839 303.684 211.276 303.514 210.587C303.344 209.899 302.987 209.335 302.721 209.335C302.455 209.335 302.238 209.098 302.238 208.807C302.238 208.516 301.128 207.197 299.772 205.876L297.307 203.476V196.681C297.307 189.19 297.469 188.302 298.839 188.302C299.352 188.302 299.772 187.964 299.772 187.551C299.772 187.137 300.01 186.799 300.301 186.799C300.893 186.799 302.238 185.56 302.238 185.014C302.238 184.82 302.792 184.139 303.47 183.5C304.148 182.862 304.703 181.991 304.703 181.565C304.703 181.138 304.92 180.79 305.187 180.79C305.452 180.79 305.809 180.226 305.979 179.538C306.15 178.849 306.487 178.286 306.728 178.286C306.97 178.286 307.168 177.515 307.168 176.574C307.168 175.633 307.412 174.781 307.71 174.68C308.007 174.579 308.369 173.434 308.513 172.134C308.658 170.835 308.969 169.772 309.204 169.772C309.441 169.772 309.633 168.326 309.633 166.558C309.633 164.433 309.842 163.275 310.25 163.136C310.726 162.975 310.866 159.093 310.866 145.984C310.866 132.874 310.726 128.993 310.25 128.831C309.807 128.682 309.633 127.084 309.633 123.156C309.633 120.149 309.44 117.689 309.204 117.689C308.968 117.689 308.618 115.66 308.427 113.181C308.237 110.702 307.875 108.674 307.624 108.674C307.373 108.674 307.168 106.871 307.168 104.668C307.168 102.464 306.978 100.661 306.745 100.661C306.513 100.661 306.178 99.2531 306.001 97.5313C305.824 95.81 305.46 94.3262 305.191 94.2345C304.923 94.1424 304.703 92.6214 304.703 90.8541C304.703 89.0868 304.51 87.6404 304.273 87.6404C304.037 87.6404 303.694 86.2883 303.51 84.6356C303.325 82.983 302.964 81.6308 302.706 81.6308C302.449 81.6308 302.238 80.504 302.238 79.1268C302.238 77.7496 302.043 76.6228 301.806 76.6228C301.568 76.6228 301.269 75.3382 301.141 73.7682C301.012 72.1987 300.652 70.8275 300.34 70.7218C300.015 70.6117 299.772 69.4793 299.772 68.0676C299.772 66.7134 299.601 65.6051 299.391 65.6051C298.966 65.6051 297.878 61.8486 297.47 58.9695C297.323 57.9368 297.005 57.0915 296.762 57.0915C296.52 57.0915 296.321 56.5867 296.321 55.9702C296.321 54.3251 294.695 50.5851 293.979 50.5831C293.64 50.5821 293.356 50.2996 293.348 49.9551C293.34 49.611 293.081 49.7798 292.774 50.3307C292.466 50.8815 292.084 51.4449 291.926 51.5827C291.494 51.9573 290.326 55.1459 290.046 56.7159C289.911 57.4736 289.603 58.0931 289.363 58.0931C289.122 58.0931 288.918 58.9385 288.908 59.9711C288.898 61.0043 288.573 62.4125 288.186 63.1011C287.798 63.7897 287.473 64.9731 287.464 65.7303C287.454 66.4875 287.224 67.1075 286.953 67.1075C286.682 67.1075 286.46 68.0766 286.46 69.261C286.46 70.4454 286.232 71.6458 285.954 71.9288C285.676 72.2112 285.312 73.6085 285.146 75.0337C284.98 76.4585 284.653 77.6244 284.419 77.6244C284.186 77.6244 283.995 78.8639 283.995 80.3788C283.995 81.8937 283.784 83.1332 283.527 83.1332C283.269 83.1332 282.907 84.4854 282.723 86.138C282.539 87.7907 282.195 89.1429 281.959 89.1429C281.723 89.1429 281.53 90.8145 281.53 92.8573C281.53 94.9797 281.31 96.6459 281.018 96.7445C280.736 96.8402 280.371 98.5489 280.207 100.543C280.042 102.536 279.718 104.167 279.486 104.167C279.254 104.167 279.064 106.083 279.064 108.424C279.064 110.765 278.874 112.681 278.641 112.681C278.409 112.681 277.932 115.441 277.582 118.815C276.829 126.073 276.367 163.615 277.02 164.449C277.264 164.76 277.618 166.31 277.807 167.894C277.995 169.478 278.355 170.774 278.607 170.774C278.858 170.774 279.064 171.9 279.064 173.278C279.064 174.655 279.262 175.782 279.504 175.782C279.746 175.782 280.083 176.345 280.253 177.034C280.423 177.722 280.78 178.286 281.046 178.286C281.312 178.286 281.53 178.849 281.53 179.538C281.53 180.226 281.727 180.79 281.97 180.79C282.211 180.79 282.548 181.353 282.718 182.042C282.889 182.73 283.246 183.294 283.511 183.294C283.777 183.294 283.995 183.535 283.995 183.83C283.995 184.466 285.227 185.798 285.815 185.798C286.041 185.798 286.643 186.361 287.152 187.05C287.661 187.738 288.49 188.302 288.994 188.302C289.499 188.302 289.911 188.527 289.911 188.803C289.911 189.078 290.244 189.303 290.651 189.303C291.263 189.303 291.391 190.249 291.391 194.812V200.321H289.911C289.098 200.321 288.432 200.096 288.432 199.82C288.432 199.534 286.953 199.319 284.981 199.319C283.083 199.319 281.53 199.516 281.53 199.756C281.53 199.997 280.642 200.337 279.558 200.513C278.473 200.69 277.585 201.056 277.585 201.329C277.585 201.601 276.92 201.823 276.106 201.823C275.293 201.823 274.627 202.049 274.627 202.324C274.627 202.6 274.41 202.825 274.145 202.825C273.486 202.825 268.217 208.138 268.217 208.802C268.217 209.096 268 209.335 267.734 209.335C267.468 209.335 267.111 209.899 266.941 210.587C266.771 211.276 266.434 211.839 266.192 211.839C265.95 211.839 265.752 212.451 265.752 213.2C265.752 213.948 265.389 215.526 264.946 216.706L264.139 218.851H258.289H252.44V165.766C252.44 126.491 252.295 112.681 251.88 112.681C251.572 112.681 250.806 112.117 250.178 111.429C249.55 110.74 248.692 110.177 248.273 110.177C247.853 110.177 247.509 109.877 247.509 109.51C247.509 109.143 246.955 108.542 246.277 108.173C245.599 107.805 245.044 107.316 245.044 107.087C245.044 106.858 244.813 106.671 244.531 106.671C243.974 106.671 243.326 106.171 241.122 104.042C240.338 103.285 239.559 102.665 239.39 102.665C239.221 102.665 238.528 102.101 237.85 101.413C237.172 100.724 236.391 100.161 236.114 100.161C235.837 100.161 234.878 99.3717 233.983 98.4077C233.087 97.4437 232.177 96.6549 231.959 96.6549C231.741 96.6549 231.147 96.2723 230.638 95.8045C229.76 94.9977 229.654 95.0233 228.57 96.3053C227.941 97.0485 227.228 97.6565 226.985 97.6565C226.743 97.6565 225.947 98.2199 225.215 98.9085C224.485 99.5971 223.655 100.161 223.372 100.161C223.089 100.161 222.857 100.402 222.857 100.697C222.857 101.39 221.603 102.665 220.92 102.665C220.555 102.665 220.392 97.3395 220.392 85.3868V68.1092H218.707C217.781 68.1092 216.942 67.8617 216.842 67.5593C216.743 67.2568 215.615 66.8892 214.336 66.743C213.057 66.5962 212.01 66.2802 212.01 66.0408C212.01 65.8009 210.901 65.6051 209.545 65.6051C208.189 65.6051 207.08 65.3908 207.08 65.1294C207.08 64.8675 205.748 64.5004 204.121 64.3131C202.494 64.1263 201.163 63.7772 201.163 63.5373C201.163 63.2974 200.054 63.1011 198.698 63.1011C197.342 63.1011 196.233 62.8968 196.233 62.6474C196.233 62.3975 195.123 62.0384 193.767 61.8491C192.412 61.6598 191.302 61.3007 191.302 61.0508C191.302 60.8014 190.193 60.5971 188.837 60.5971C187.481 60.5971 186.372 60.3828 186.372 60.1213C186.372 59.8594 185.04 59.4923 183.413 59.305C181.786 59.1182 180.455 58.7692 180.455 58.5293C180.455 58.2894 179.346 58.0931 177.99 58.0931C176.634 58.0931 175.525 57.8677 175.525 57.5923C175.525 57.3169 174.693 57.0835 173.676 57.074C172.659 57.0639 171.272 56.7339 170.594 56.3403C169.916 55.9467 168.308 55.6166 167.02 55.6066L164.678 55.5891V57.5923C164.678 58.6941 164.9 59.5955 165.171 59.5955C165.956 59.5955 165.834 88.9786 165.047 89.3517C164.554 89.5851 164.554 89.7022 165.047 89.9356C166.805 90.769 164.854 92.6485 162.232 92.6485C161.119 92.6485 159.412 92.9865 158.439 93.3997C157.447 93.8204 155.176 94.1509 153.277 94.1509C151.412 94.1509 149.886 94.3437 149.886 94.5791C149.886 94.8144 148.344 95.1385 146.46 95.2992C144.576 95.4595 142.594 95.8301 142.055 96.123C141.517 96.4155 139.841 96.6549 138.332 96.6549C136.474 96.6549 135.582 96.8572 135.572 97.2809C135.562 97.6255 135.48 100.611 135.39 103.917C135.299 107.222 135.195 134.434 135.16 164.388L135.095 218.851H115.919C98.8874 218.851 96.7092 218.762 96.4434 218.058C96.2787 217.623 96.1441 211.137 96.1441 203.646C96.1441 190.62 96.1875 189.989 97.1356 189.164C97.6814 188.69 98.2938 188.302 98.4969 188.302C98.6996 188.302 99.4643 187.738 100.195 187.05C100.926 186.361 101.884 185.798 102.323 185.798C102.763 185.798 103.788 185.122 104.602 184.295C105.415 183.469 106.253 182.793 106.463 182.793C107.165 182.793 109.949 179.79 109.949 179.032C109.949 178.622 110.171 178.286 110.442 178.286C110.714 178.286 110.936 177.948 110.936 177.535C110.936 177.121 111.133 176.783 111.374 176.783C111.614 176.783 111.958 175.995 112.136 175.031C112.314 174.066 112.671 173.278 112.93 173.278C113.521 173.278 113.57 156.416 112.981 156.046C112.749 155.9 112.42 154.255 112.248 152.388C112.076 150.521 111.711 148.918 111.436 148.825C111.161 148.731 110.936 147.547 110.936 146.193C110.936 144.838 110.742 143.73 110.506 143.73C110.269 143.73 109.934 142.829 109.76 141.727C109.587 140.625 109.226 139.724 108.957 139.724C108.69 139.724 108.47 138.71 108.47 137.47C108.47 136.231 108.266 135.217 108.016 135.217C107.767 135.217 107.416 134.541 107.238 133.714C107.059 132.888 106.709 132.212 106.459 132.212C106.209 132.212 106.005 131.423 106.005 130.459C106.005 129.495 105.807 128.706 105.565 128.706C105.324 128.706 104.986 128.143 104.816 127.454C104.646 126.766 104.289 126.202 104.024 126.202C103.333 126.202 103.425 124.516 104.156 123.773C105.028 122.887 105.028 107.482 104.156 106.596C103.817 106.252 103.54 105.001 103.54 103.816C103.54 102.632 103.318 101.663 103.047 101.663C102.776 101.663 102.554 101.003 102.554 100.196C102.554 99.3898 102.221 98.3917 101.814 97.9785C101.407 97.5654 101.075 96.7606 101.075 96.1897C101.075 95.6192 100.853 95.1525 100.582 95.1525C100.31 95.1525 100.089 94.5891 100.089 93.9005C100.089 93.2119 99.8814 92.6485 99.6285 92.6485C99.3756 92.6485 99.0166 92.1607 98.8302 91.5642C98.6439 90.9678 97.963 89.9431 97.3176 89.2876C96.6722 88.632 96.1441 87.8643 96.1441 87.5819C96.1441 86.9073 94.8795 85.6372 94.2069 85.6372C93.9165 85.6372 93.6789 85.2992 93.6789 84.886C93.6789 84.4729 93.4476 84.1348 93.1651 84.1348C92.6814 84.1348 92.1238 83.7432 90.4923 82.2568C90.1142 81.9123 89.5674 81.6308 89.2765 81.6308C88.9861 81.6308 88.7484 81.4055 88.7484 81.13C88.7484 80.8546 88.3604 80.6222 87.8856 80.6132C87.4108 80.6047 86.5918 80.2666 86.0658 79.862C85.5392 79.4578 84.5965 79.1268 83.9703 79.1268C83.3441 79.1268 82.8319 78.9014 82.8319 78.626C82.8319 78.3506 82.4152 78.1252 81.9059 78.1252C81.3966 78.1252 80.1837 77.7872 79.2099 77.374C76.7191 76.3168 64.4447 76.3168 61.9533 77.374C60.98 77.7872 59.5107 78.1252 58.6883 78.1252C57.8659 78.1252 57.1934 78.3506 57.1934 78.626C57.1934 78.9014 56.6387 79.1268 55.9608 79.1268C55.2829 79.1268 54.7282 79.3477 54.7282 79.6181C54.7282 79.888 54.1735 80.2506 53.4956 80.4234C52.8176 80.5962 52.263 80.9387 52.263 81.1841C52.263 81.43 51.8034 81.6308 51.2419 81.6308C50.1503 81.6308 48.8116 82.7146 48.8116 83.5985C48.8116 83.8934 48.5804 84.1348 48.2979 84.1348C47.7767 84.1348 46.7832 84.8615 45.7064 86.0304C44.174 87.6935 43.8812 88.1072 43.8812 88.6065C43.8812 88.9015 43.5484 89.1429 43.1416 89.1429C42.7348 89.1429 42.402 89.4809 42.402 89.8941C42.402 90.3072 42.1802 90.6453 41.909 90.6453C41.6378 90.6453 41.4159 91.096 41.4159 91.6469C41.4159 92.1978 41.2182 92.6485 40.9761 92.6485C40.7345 92.6485 40.3973 93.2119 40.2272 93.9005C40.0571 94.5891 39.7001 95.1525 39.4344 95.1525C39.1681 95.1525 38.9507 95.9413 38.9507 96.9053C38.9507 97.8693 38.7426 98.6581 38.4877 98.6581C38.2333 98.6581 37.8724 99.7283 37.686 101.037C37.4997 102.346 37.1437 103.676 36.8947 103.994C36.2404 104.831 36.7123 122.41 37.4814 125.827C37.8379 127.41 38.3142 128.706 38.54 128.706C38.7658 128.706 38.9507 129.608 38.9507 130.709C38.9507 131.811 39.1726 132.713 39.4437 132.713C39.7149 132.713 39.9368 133.26 39.9368 133.929C39.9368 134.598 40.2696 135.483 40.6764 135.896C41.0831 136.309 41.4159 137.114 41.4159 137.685C41.4159 138.256 41.6136 138.722 41.8557 138.722C42.0973 138.722 42.4346 139.286 42.6047 139.974C42.7748 140.663 43.1317 141.226 43.3975 141.226C43.6637 141.226 43.8812 141.708 43.8812 142.296C43.8812 142.884 44.4358 143.887 45.1138 144.526C45.7917 145.164 46.3464 145.938 46.3464 146.246C46.3464 147.072 52.4232 153.071 53.6642 153.471C54.2494 153.66 54.7282 154.024 54.7282 154.281C54.7282 154.538 54.9658 154.748 55.2562 154.748C55.5471 154.748 56.1176 155.086 56.5244 155.499C56.9311 155.912 57.8028 156.25 58.4611 156.25C59.1198 156.25 59.6587 156.476 59.6587 156.751C59.6587 157.027 60.6729 157.252 61.9124 157.252C63.2086 157.252 64.4659 157.556 64.8707 157.968C65.4658 158.572 65.5752 163.363 65.5752 188.773V218.862L46.4697 218.732L27.3641 218.6L27.4297 204.578C28.0889 63.1752 28.2861 36.0578 28.6564 36.0578C28.895 36.0578 29.0898 34.8559 29.0898 33.387C29.0898 31.9177 29.2377 30.5655 29.4186 30.3822C29.5991 30.1984 103.538 30.0552 193.726 30.0642C329.294 30.0772 357.855 30.1954 358.568 30.7453ZM293.856 55.3387C293.856 55.7518 294.078 56.0899 294.349 56.0899C294.62 56.0899 294.85 56.8226 294.859 57.7175C294.869 58.6124 295.194 59.9085 295.582 60.5971C295.969 61.2857 296.294 62.4686 296.304 63.2263C296.313 63.984 296.543 64.6035 296.814 64.6035C297.085 64.6035 297.307 65.6041 297.307 66.8276C297.307 68.0511 297.508 69.1779 297.754 69.3321C298 69.4864 298.353 70.7394 298.54 72.1161C298.726 73.4933 299.08 74.6196 299.326 74.6196C299.571 74.6196 299.772 75.6202 299.772 76.8436C299.772 78.0671 299.973 79.1934 300.217 79.3467C300.461 79.5004 300.816 80.9783 301.005 82.6314C301.194 84.2846 301.548 85.6372 301.793 85.6372C302.038 85.6372 302.238 86.9894 302.238 88.6421C302.238 90.2947 302.428 91.6469 302.661 91.6469C302.893 91.6469 303.228 93.0556 303.405 94.7769C303.582 96.4986 303.946 97.982 304.215 98.0737C304.483 98.1658 304.703 99.7994 304.703 101.704C304.703 103.61 304.893 105.169 305.125 105.169C305.358 105.169 305.673 107.022 305.826 109.287C305.979 111.552 306.343 113.486 306.636 113.586C306.969 113.698 307.168 115.623 307.168 118.732C307.168 121.709 307.366 123.698 307.661 123.698C307.953 123.698 308.163 125.59 308.174 128.331C308.186 130.878 308.495 136.231 308.863 140.225C309.426 146.359 309.425 148.497 308.852 153.997C308.479 157.578 308.17 161.691 308.164 163.136C308.159 164.582 307.932 165.766 307.661 165.766C307.387 165.766 307.168 167.101 307.168 168.77C307.168 170.423 306.949 171.775 306.681 171.775C306.413 171.775 306.052 172.677 305.878 173.778C305.705 174.88 305.37 175.782 305.133 175.782C304.896 175.782 304.703 176.345 304.703 177.034C304.703 177.722 304.485 178.286 304.219 178.286C303.953 178.286 303.597 178.849 303.426 179.538C303.256 180.226 302.919 180.79 302.677 180.79C302.435 180.79 302.238 181.025 302.238 181.312C302.238 182.197 299.023 185.798 298.233 185.798C297.953 185.798 297.131 186.418 296.406 187.175C295.094 188.546 295.089 188.581 295.239 195.188C295.37 200.923 295.286 201.823 294.623 201.823C293.966 201.823 293.856 200.839 293.856 194.992C293.856 187.615 293.591 186.852 291.021 186.815C290.411 186.806 289.911 186.574 289.911 186.299C289.911 186.023 289.587 185.798 289.189 185.798C288.244 185.798 285.679 183.236 285.25 181.863C285.065 181.273 284.708 180.79 284.455 180.79C284.202 180.79 283.995 180.452 283.995 180.039C283.995 179.625 283.798 179.287 283.557 179.287C283.316 179.287 282.973 178.499 282.795 177.535C282.617 176.57 282.259 175.782 282.001 175.782C281.742 175.782 281.53 174.993 281.53 174.029C281.53 173.065 281.329 172.276 281.083 172.276C280.837 172.276 280.483 171.15 280.297 169.773C280.111 168.396 279.757 167.143 279.511 166.989C279.266 166.834 279.064 164.806 279.064 162.481C279.064 159.996 278.861 158.254 278.571 158.254C278.256 158.254 278.078 153.83 278.078 145.984C278.078 138.138 278.256 133.714 278.571 133.714C278.875 133.714 279.064 131.199 279.064 127.171C279.064 123.572 279.28 120.219 279.543 119.718C279.807 119.219 280.172 116.642 280.356 113.992C280.539 111.343 280.878 109.175 281.11 109.175C281.34 109.175 281.53 107.391 281.53 105.21C281.53 102.974 281.748 101.172 282.03 101.076C282.305 100.983 282.67 99.3868 282.841 97.5288C283.012 95.6708 283.341 94.1509 283.573 94.1509C283.805 94.1509 283.995 92.686 283.995 90.8957C283.995 89.1053 284.192 87.6404 284.434 87.6404C284.892 87.6404 285.86 82.7616 286.297 78.2504C286.437 76.8046 286.732 75.6212 286.953 75.6212C287.173 75.6212 287.506 74.4944 287.693 73.1172C287.879 71.74 288.233 70.6132 288.479 70.6132C288.724 70.6132 288.925 69.4864 288.925 68.1092C288.925 66.7319 289.13 65.6051 289.379 65.6051C289.851 65.6051 290.807 62.2012 291.242 58.9695C291.38 57.9368 291.669 57.0915 291.882 57.0915C292.095 57.0915 292.409 56.5281 292.579 55.8395C292.914 54.4838 293.856 54.1142 293.856 55.3387ZM73.464 78.626C73.464 78.9014 74.74 79.1348 76.299 79.1443C77.858 79.1544 79.6887 79.4844 80.3666 79.878C81.0446 80.2716 82.0982 80.6017 82.7086 80.6117C83.319 80.6212 83.818 80.8546 83.818 81.13C83.818 81.4055 84.3726 81.6308 85.0506 81.6308C85.7285 81.6308 86.2832 81.8316 86.2832 82.0775C86.2832 82.3229 86.8379 82.6655 87.5158 82.8382C88.1937 83.011 88.7484 83.3736 88.7484 83.6435C88.7484 83.914 89.0812 84.1348 89.488 84.1348C89.8948 84.1348 90.2276 84.4729 90.2276 84.886C90.2276 85.2992 90.4593 85.6372 90.7428 85.6372C91.4124 85.6372 93.6789 87.9394 93.6789 88.6195C93.6789 88.9075 94.0117 89.1429 94.4185 89.1429C94.8252 89.1429 95.158 89.3777 95.158 89.6647C95.158 90.156 95.5436 90.7224 97.007 92.3795C97.3462 92.7637 97.6233 93.3191 97.6233 93.6145C97.6233 93.9095 97.8451 94.1509 98.1163 94.1509C98.3875 94.1509 98.6094 94.7143 98.6094 95.4029C98.6094 96.0915 98.8066 96.6549 99.0477 96.6549C99.2883 96.6549 99.6314 97.4437 99.8094 98.4077C99.9874 99.3717 100.323 100.161 100.554 100.161C100.786 100.161 101.092 101.118 101.236 102.289C101.379 103.46 101.721 105.544 101.996 106.921C102.27 108.299 102.508 111.848 102.524 114.809C102.549 119.274 102.428 120.193 101.814 120.193C101.407 120.193 101.075 119.855 101.075 119.441C101.075 119.028 100.853 118.69 100.582 118.69C100.31 118.69 100.089 118.37 100.089 117.98C100.089 117.086 98.4891 114.19 97.993 114.186C97.7899 114.184 97.6233 113.845 97.6233 113.432C97.6233 113.019 97.2905 112.681 96.8837 112.681C96.4769 112.681 96.1441 112.439 96.1441 112.144C96.1441 111.119 94.7266 110.177 93.1858 110.177C91.6451 110.177 90.2276 111.119 90.2276 112.144C90.2276 112.439 90.0101 112.681 89.7439 112.681C89.4781 112.681 89.1212 113.244 88.9511 113.933C88.781 114.621 88.4437 115.185 88.2021 115.185C87.96 115.185 87.7623 115.611 87.7623 116.133C87.7623 116.654 87.4295 117.21 87.0228 117.369C86.616 117.527 86.2832 118.115 86.2832 118.675C86.2832 119.234 86.0613 119.692 85.7901 119.692C85.519 119.692 85.2971 120.255 85.2971 120.944C85.2971 121.632 85.093 122.196 84.843 122.196C84.5935 122.196 84.243 122.872 84.0645 123.698C83.886 124.525 83.5354 125.201 83.286 125.201C83.036 125.201 82.8319 125.97 82.8319 126.912C82.8319 127.853 82.6652 128.698 82.4621 128.79C81.8241 129.078 80.3666 132.689 80.3666 133.982C80.3666 134.661 80.1699 135.217 79.9298 135.217C79.6892 135.217 79.3436 136.226 79.1616 137.459C78.9797 138.692 78.6212 139.832 78.3658 139.992C78.1104 140.153 77.9014 141.284 77.9014 142.508C77.9014 143.731 77.6795 144.732 77.4083 144.732C77.1372 144.732 76.9099 145.69 76.9035 146.86C76.8971 148.031 76.6569 149.89 76.37 150.992C76.083 152.094 75.73 153.615 75.586 154.372C75.343 155.65 75.1512 155.75 72.9152 155.75H70.5057V186.585C70.5057 218.613 70.4914 218.851 68.5685 218.851C68.1987 218.851 68.0405 209.49 68.0405 187.604C68.0405 152.63 68.4068 155.75 64.3022 155.75C63.1041 155.75 62.1239 155.524 62.1239 155.249C62.1239 154.973 61.3473 154.748 60.3982 154.748C59.4491 154.748 58.6726 154.547 58.6726 154.301C58.6726 154.056 58.1179 153.713 57.44 153.541C56.762 153.368 56.2073 153.005 56.2073 152.735C56.2073 152.465 55.9756 152.244 55.6926 152.244C55.4096 152.244 54.5798 151.681 53.8491 150.992C53.1179 150.303 52.2398 149.74 51.8981 149.74C51.5564 149.74 51.2769 149.456 51.2769 149.109C51.2769 148.762 50.7222 147.87 50.0443 147.127C49.3663 146.385 48.8116 145.624 48.8116 145.437C48.8116 145.25 48.257 144.575 47.579 143.937C46.9011 143.299 46.3464 142.428 46.3464 142.002C46.3464 141.575 46.129 141.226 45.8627 141.226C45.597 141.226 45.24 140.663 45.0699 139.974C44.8998 139.286 44.5626 138.722 44.321 138.722C44.0789 138.722 43.8812 138.159 43.8812 137.47C43.8812 136.782 43.6835 136.218 43.4414 136.218C43.1998 136.218 42.8625 135.655 42.6924 134.966C42.5223 134.278 42.1654 133.714 41.8996 133.714C41.6334 133.714 41.4159 132.926 41.4159 131.961C41.4159 130.997 41.2227 130.209 40.9865 130.209C40.7503 130.209 40.4096 129.082 40.2297 127.705C40.0502 126.327 39.6888 125.201 39.427 125.201C39.1632 125.201 38.9507 123.525 38.9507 121.445C38.9507 119.275 38.7426 117.689 38.4576 117.689C38.1653 117.689 37.9646 115.852 37.9646 113.181C37.9646 110.511 38.1653 108.674 38.4576 108.674C38.7392 108.674 38.9507 107.172 38.9507 105.169C38.9507 103.193 39.1632 101.663 39.4378 101.663C39.706 101.663 40.067 100.761 40.2405 99.6597C40.4141 98.5579 40.7493 97.6565 40.986 97.6565C41.2227 97.6565 41.4159 97.0931 41.4159 96.4045C41.4159 95.7159 41.6334 95.1525 41.8996 95.1525C42.1654 95.1525 42.5223 94.5891 42.6924 93.9005C42.8625 93.2119 43.1998 92.6485 43.4414 92.6485C43.6835 92.6485 43.8812 92.3064 43.8812 91.8883C43.8812 91.4706 44.6577 90.3623 45.6068 89.4263C46.5559 88.4898 47.3325 87.4797 47.3325 87.1812C47.3325 86.8832 47.5844 86.6388 47.8921 86.6388C48.2003 86.6388 48.966 86.0754 49.5946 85.3868C50.2227 84.6982 51.0801 84.1348 51.4997 84.1348C51.9198 84.1348 52.263 83.9095 52.263 83.634C52.263 83.3586 52.5006 83.1332 52.791 83.1332C53.0819 83.1332 53.6524 82.7952 54.0591 82.382C54.4659 81.9689 55.3376 81.6308 55.9958 81.6308C56.6545 81.6308 57.1934 81.4055 57.1934 81.13C57.1934 80.8546 57.6101 80.6292 58.1194 80.6292C58.6287 80.6292 59.8416 80.2912 60.8153 79.878C61.7886 79.4649 63.8126 79.1268 65.3129 79.1268C66.8133 79.1268 68.0405 78.9014 68.0405 78.626C68.0405 78.3506 69.2607 78.1252 70.7522 78.1252C72.2437 78.1252 73.464 78.3506 73.464 78.626ZM178.976 155.75V218.851H173.059H167.143V156.501V94.1509H168.869C169.818 94.1509 170.594 93.9375 170.594 93.6761C170.594 93.2524 172.086 93.0466 177.374 92.7411L178.976 92.6485V155.75ZM217.927 163.762V218.851H214.528C211.884 218.851 211.063 218.675 210.83 218.058C210.666 217.623 210.531 194.123 210.531 165.836C210.531 114.928 210.541 114.397 211.522 113.543C212.068 113.069 212.639 112.681 212.791 112.681C213.27 112.681 214.475 111.273 214.475 110.713C214.475 110.418 214.713 110.177 215.003 110.177C215.294 110.177 215.865 109.839 216.272 109.425C216.678 109.012 217.217 108.674 217.469 108.674C217.748 108.674 217.927 130.196 217.927 163.762ZM94.9115 113.682C95.0836 114.233 95.4312 114.684 95.6841 114.684C95.937 114.684 96.1441 114.998 96.1441 115.381C96.1441 115.765 96.4769 116.209 96.8837 116.367C97.2905 116.526 97.6233 117.113 97.6233 117.673C97.6233 118.232 97.8451 118.69 98.1163 118.69C98.3875 118.69 98.6094 119.028 98.6094 119.441C98.6094 119.855 98.8164 120.193 99.0694 120.193C99.3223 120.193 99.6847 120.699 99.875 121.319C100.066 121.939 100.446 122.593 100.722 122.772C101.301 123.15 101.299 129.735 100.72 130.169C100.506 130.328 99.9075 131.755 99.3898 133.339C98.8726 134.923 98.2632 136.218 98.0364 136.218C97.8091 136.218 97.6233 136.782 97.6233 137.47C97.6233 138.159 97.4058 138.722 97.1396 138.722C96.8738 138.722 96.5169 139.286 96.3468 139.974C96.1767 140.663 95.8897 141.226 95.7098 141.226C95.5298 141.226 94.9643 142.015 94.453 142.979C93.9417 143.943 93.3367 144.732 93.1084 144.732C92.8797 144.732 92.6928 145.07 92.6928 145.483C92.6928 145.896 92.4551 146.234 92.1647 146.234C91.4819 146.234 90.2276 147.508 90.2276 148.202C90.2276 148.497 89.9958 148.738 89.7123 148.738C89.4288 148.738 88.6419 149.302 87.964 149.99C87.286 150.679 86.4089 151.242 86.0145 151.242C85.62 151.242 85.2971 151.468 85.2971 151.743C85.2971 152.019 84.9643 152.244 84.5575 152.244C84.1508 152.244 83.818 152.469 83.818 152.745C83.818 153.02 83.39 153.246 82.8669 153.246C82.3442 153.246 81.5835 153.584 81.1767 153.997C80.7699 154.41 79.8667 154.748 79.169 154.748C78.0005 154.748 77.9014 154.577 77.9014 152.555C77.9014 151.35 78.2342 149.554 78.641 148.565C79.0477 147.576 79.3805 145.971 79.3805 144.998C79.3805 144.025 79.6024 143.23 79.8736 143.23C80.1448 143.23 80.3666 142.215 80.3666 140.976C80.3666 139.736 80.586 138.722 80.8538 138.722C81.122 138.722 81.4829 137.821 81.6564 136.719C81.83 135.617 82.1653 134.716 82.4019 134.716C82.6386 134.716 82.8319 133.927 82.8319 132.963C82.8319 131.999 83.0439 131.21 83.3027 131.21C83.5616 131.21 83.919 130.422 84.097 129.457C84.275 128.493 84.6182 127.705 84.8588 127.705C85.0999 127.705 85.2971 127.125 85.2971 126.417C85.2971 125.708 85.6299 124.791 86.0367 124.378C86.4434 123.965 86.7762 123.192 86.7762 122.661C86.7762 122.13 86.9981 121.695 87.2693 121.695C87.5405 121.695 87.7623 121.132 87.7623 120.443C87.7623 119.754 87.9586 119.191 88.1977 119.191C88.4373 119.191 88.7637 118.797 88.923 118.315C89.2548 117.312 90.1906 115.791 91.0904 114.794C91.4296 114.419 91.7067 113.789 91.7067 113.396C91.7067 112.223 94.5343 112.476 94.9115 113.682ZM103.821 130.924C104.209 131.317 104.526 132.09 104.526 132.641C104.526 133.192 104.859 133.981 105.265 134.394C105.672 134.807 106.005 135.95 106.005 136.934C106.005 137.918 106.227 138.722 106.498 138.722C106.769 138.722 106.991 139.27 106.991 139.939C106.991 140.607 107.324 141.493 107.731 141.906C108.172 142.355 108.47 143.579 108.47 144.947C108.47 146.206 108.692 147.236 108.963 147.236C109.235 147.236 109.466 147.968 109.478 148.864C109.49 149.759 109.819 151.393 110.21 152.494C111.31 155.595 111.228 172.267 110.101 174.862C109.642 175.919 109.088 176.783 108.869 176.783C108.649 176.783 108.47 177.026 108.47 177.323C108.47 177.9 105.801 180.79 105.268 180.79C104.754 180.79 103.54 182.172 103.54 182.757C103.54 183.052 103.086 183.294 102.532 183.294C101.978 183.294 100.926 183.857 100.195 184.546C99.4643 185.234 98.5862 185.798 98.2445 185.798C97.9028 185.798 97.6233 186.023 97.6233 186.299C97.6233 186.574 97.0686 186.799 96.3906 186.799C95.6235 186.799 95.158 187.083 95.158 187.551C95.158 188.018 94.6926 188.302 93.9254 188.302C93.1582 188.302 92.6928 188.018 92.6928 187.551C92.6928 187.137 92.36 186.799 91.9532 186.799C91.5465 186.799 91.2137 186.574 91.2137 186.299C91.2137 186.023 90.8705 185.798 90.4504 185.798C90.0308 185.798 89.1734 185.234 88.5453 184.546C87.9166 183.857 87.2525 183.294 87.0686 183.294C86.7501 183.294 86.0973 182.802 84.5758 181.416C84.1976 181.072 83.6508 180.79 83.3599 180.79C83.0695 180.79 82.8319 180.226 82.8319 179.538C82.8319 178.849 82.5789 178.286 82.2698 178.286C81.5253 178.286 80.4021 176.746 80.3824 175.698C80.3735 175.239 80.2 174.789 79.9968 174.696C78.8012 174.157 77.9014 170.949 77.9014 167.227C77.9014 164.917 77.6953 163.262 77.4083 163.262C77.1372 163.262 76.9153 162.473 76.9153 161.509C76.9153 160.545 77.1372 159.756 77.4083 159.756C77.6795 159.756 77.9014 159.193 77.9014 158.504C77.9014 157.502 78.1479 157.252 79.134 157.252C79.812 157.252 80.3666 157.027 80.3666 156.751C80.3666 156.476 80.9213 156.25 81.5992 156.25C82.3664 156.25 82.8319 155.966 82.8319 155.499C82.8319 155.032 83.2973 154.748 84.0645 154.748C84.7424 154.748 85.2971 154.547 85.2971 154.301C85.2971 154.056 85.8518 153.713 86.5297 153.541C87.2076 153.368 87.7623 153.005 87.7623 152.735C87.7623 152.465 88 152.244 88.2904 152.244C88.5813 152.244 89.1281 151.963 89.5062 151.618C91.1377 150.132 91.6954 149.74 92.179 149.74C92.4616 149.74 92.6928 149.505 92.6928 149.218C92.6928 148.727 93.0784 148.16 94.5417 146.503C94.8809 146.119 95.158 145.666 95.158 145.496C95.158 145.326 95.7127 144.624 96.3906 143.935C97.0686 143.247 97.6233 142.356 97.6233 141.955C97.6233 141.554 97.821 141.226 98.0631 141.226C98.3047 141.226 98.6419 140.663 98.812 139.974C98.9821 139.286 99.3391 138.722 99.6048 138.722C99.8711 138.722 100.089 138.159 100.089 137.47C100.089 136.782 100.31 136.218 100.582 136.218C100.853 136.218 101.075 135.655 101.075 134.966C101.075 134.278 101.287 133.714 101.545 133.714C101.804 133.714 102.162 132.926 102.34 131.961C102.703 129.996 102.824 129.911 103.821 130.924ZM338.826 148.141C339.149 148.47 339.813 148.738 340.301 148.738C340.789 148.738 341.188 148.964 341.188 149.239C341.188 149.515 341.743 149.74 342.421 149.74C343.188 149.74 343.654 150.024 343.654 150.491C343.654 150.904 343.884 151.242 344.166 151.242C345.105 151.242 348.584 155.155 348.584 156.211C348.584 156.784 348.802 157.252 349.068 157.252C349.334 157.252 349.69 157.815 349.861 158.504C350.031 159.193 350.368 159.756 350.609 159.756C350.852 159.756 351.049 162.798 351.049 166.517C351.049 170.603 350.858 173.278 350.566 173.278C350.3 173.278 349.943 173.841 349.773 174.53C349.603 175.218 349.265 175.782 349.024 175.782C348.782 175.782 348.584 176.345 348.584 177.034C348.584 177.813 348.305 178.286 347.845 178.286C347.438 178.286 347.105 178.52 347.105 178.806C347.105 179.36 343.448 183.294 342.932 183.294C342.639 183.294 341.963 183.809 340.467 185.172C340.089 185.516 339.32 185.798 338.758 185.798C338.197 185.798 337.737 186.023 337.737 186.299C337.737 186.574 337.304 186.799 336.774 186.799C336.245 186.799 335.208 187.078 334.471 187.419C333.406 187.913 333.09 187.913 332.928 187.419C332.816 187.078 332.188 186.799 331.533 186.799C330.877 186.799 330.341 186.599 330.341 186.353C330.341 186.107 329.787 185.765 329.109 185.592C328.431 185.419 327.876 185.057 327.876 184.787C327.876 184.516 327.638 184.295 327.348 184.295C327.057 184.295 326.51 184.014 326.132 183.669C324.639 182.309 323.96 181.791 323.671 181.791C323.17 181.791 321.96 180.399 321.96 179.824C321.96 179.529 321.627 179.287 321.22 179.287C320.809 179.287 320.48 178.842 320.48 178.286C320.48 177.735 320.259 177.284 319.987 177.284C319.716 177.284 319.494 176.946 319.494 176.533C319.494 176.12 319.277 175.782 319.011 175.782C318.745 175.782 318.388 175.218 318.218 174.53C318.048 173.841 317.71 173.278 317.469 173.278C317.227 173.278 317.029 170.235 317.029 166.517C317.029 162.344 317.218 159.756 317.522 159.756C317.793 159.756 318.015 159.193 318.015 158.504C318.015 157.815 318.233 157.252 318.499 157.252C318.765 157.252 319.122 156.689 319.292 156C319.462 155.311 319.799 154.748 320.041 154.748C320.283 154.748 320.48 154.507 320.48 154.212C320.48 153.559 321.719 152.244 322.334 152.244C322.579 152.244 323.076 151.681 323.439 150.992C323.802 150.303 324.394 149.74 324.755 149.74C325.116 149.74 325.411 149.515 325.411 149.239C325.411 148.964 325.966 148.738 326.643 148.738C327.321 148.738 327.876 148.53 327.876 148.274C327.876 147.503 329.387 147.29 333.92 147.42C336.444 147.493 338.483 147.793 338.826 148.141ZM74.701 157.936C75.162 158.404 75.4416 160.417 75.588 164.321C75.7931 169.785 76.7156 174.78 77.5203 174.78C77.7298 174.78 77.9014 175.247 77.9014 175.817C77.9014 176.388 78.179 177.169 78.5177 177.553C79.9811 179.21 80.3666 179.777 80.3666 180.268C80.3666 180.555 80.6043 180.79 80.8947 180.79C81.4696 180.79 82.8319 182.023 82.8319 182.543C82.8319 183.062 84.1942 184.295 84.769 184.295C85.0594 184.295 85.2971 184.633 85.2971 185.047C85.2971 185.493 85.7497 185.798 86.4129 185.798C87.0272 185.798 87.9443 186.36 88.4541 187.05C88.9629 187.738 89.7922 188.302 90.2966 188.302C91.1708 188.302 91.2137 189.019 91.2137 203.576V218.851H82.3792C77.5203 218.851 73.1938 218.714 72.7648 218.547C72.0657 218.274 71.9848 215.181 71.9848 188.749C71.9848 161.359 72.0465 159.187 72.8477 158.295C73.92 157.102 73.8865 157.109 74.701 157.936ZM94.665 204.327C94.665 214.009 94.4895 219.352 94.1719 219.352C93.8544 219.352 93.6789 214.177 93.6789 204.828C93.6789 193.548 93.5413 190.303 93.0626 190.297C92.4029 190.289 93.6074 189.325 94.2952 189.311C94.4983 189.307 94.665 196.064 94.665 204.327ZM289.911 202.324C289.911 202.6 290.244 202.825 290.651 202.825C291.278 202.825 291.391 204.049 291.391 210.838V218.851H279.311H267.231V216.597C267.231 215.358 267.453 214.344 267.724 214.344C267.996 214.344 268.217 213.78 268.217 213.091C268.217 212.403 268.439 211.839 268.711 211.839C268.982 211.839 269.204 211.511 269.204 211.111C269.204 210.71 269.758 209.819 270.436 209.131C271.114 208.442 271.669 207.643 271.669 207.355C271.669 207.067 271.9 206.831 272.183 206.831C272.666 206.831 273.224 206.44 274.855 204.953C275.234 204.609 275.78 204.327 276.071 204.327C276.362 204.327 276.599 204.102 276.599 203.827C276.599 203.551 277.145 203.326 277.813 203.326C278.48 203.326 279.311 202.996 279.662 202.594C280.416 201.724 289.911 201.474 289.911 202.324ZM295.066 205.454C295.199 206.074 295.37 209.088 295.445 212.152C295.572 217.338 295.273 218.851 294.123 218.851C293.976 218.851 293.856 215.583 293.856 211.589C293.856 207.176 294.046 204.327 294.34 204.327C294.605 204.327 294.932 204.834 295.066 205.454ZM299.021 207.833C299.375 207.833 299.805 208.396 299.975 209.085C300.145 209.774 300.502 210.337 300.768 210.337C301.034 210.337 301.252 210.675 301.252 211.088C301.252 211.501 301.473 211.839 301.745 211.839C302.016 211.839 302.238 212.628 302.238 213.592C302.238 214.556 302.46 215.345 302.731 215.345C303.002 215.345 303.224 216.134 303.224 217.098V218.851H300.565C297.346 218.851 297.307 218.779 297.307 212.841C297.307 208.65 297.737 205.886 298.178 207.233C298.287 207.563 298.666 207.833 299.021 207.833ZM210.408 235.03C208.848 235.31 207.573 235.728 207.573 235.959C207.573 236.19 207.182 236.379 206.705 236.379C206.228 236.379 205.239 236.942 204.507 237.631C203.777 238.319 202.947 238.883 202.664 238.883C202.381 238.883 202.149 239.221 202.149 239.634C202.149 240.047 201.927 240.385 201.656 240.385C201.385 240.385 201.156 240.78 201.147 241.262C201.139 241.743 200.806 242.576 200.408 243.11C200.01 243.645 199.684 244.602 199.684 245.239C199.684 245.875 199.462 246.395 199.191 246.395C198.877 246.395 198.698 250.485 198.698 257.663C198.698 264.841 198.877 268.931 199.191 268.931C199.462 268.931 199.684 269.72 199.684 270.684C199.684 271.648 199.891 272.437 200.144 272.437C200.397 272.437 200.761 272.944 200.953 273.563C201.405 275.018 204.538 278.201 205.97 278.66C206.581 278.855 207.08 279.224 207.08 279.481C207.08 279.738 207.856 279.949 208.805 279.949C209.754 279.949 210.531 280.174 210.531 280.449C210.531 280.741 212.174 280.95 214.475 280.95C216.776 280.95 218.42 280.741 218.42 280.449C218.42 280.174 219.196 279.949 220.145 279.949C221.095 279.949 221.871 279.738 221.871 279.481C221.871 279.224 222.36 278.857 222.957 278.664C224.227 278.255 225.322 277.243 225.322 276.479C225.322 276.184 225.655 275.942 226.062 275.942C226.469 275.942 226.802 275.604 226.802 275.191C226.802 274.778 227.023 274.44 227.295 274.44C227.566 274.44 227.788 274.017 227.788 273.499C227.788 272.982 228.12 272.279 228.527 271.936C229.151 271.409 229.267 269.178 229.267 257.602C229.267 248.972 229.087 243.891 228.783 243.891C228.517 243.891 228.16 243.327 227.99 242.639C227.82 241.95 227.483 241.387 227.241 241.387C226.999 241.387 226.802 241.103 226.802 240.756C226.802 240.167 225.357 238.453 223.641 237.005C223.233 236.661 222.445 236.379 221.892 236.379C221.338 236.379 220.885 236.193 220.885 235.965C220.885 235.549 215.207 234.312 213.926 234.448C213.55 234.488 211.967 234.75 210.408 235.03ZM26.6245 237.13V238.883H38.7042C49.1129 238.883 50.7838 238.986 50.7838 239.634C50.7838 240.047 50.5619 240.385 50.2908 240.385C50.0196 240.385 49.7977 240.836 49.7977 241.387C49.7977 241.938 49.5759 242.388 49.3047 242.388C49.0335 242.388 48.8116 242.726 48.8116 243.14C48.8116 243.553 48.5942 243.891 48.328 243.891C48.0622 243.891 47.7052 244.454 47.5351 245.143C47.365 245.831 47.0519 246.395 46.8394 246.395C46.6269 246.395 46.3139 246.958 46.1438 247.647C45.9737 248.335 45.6167 248.899 45.3509 248.899C45.0847 248.899 44.8673 249.237 44.8673 249.65C44.8673 250.063 44.6454 250.401 44.3742 250.401C44.103 250.401 43.8812 250.852 43.8812 251.403C43.8812 251.954 43.6637 252.404 43.3975 252.404C43.1317 252.404 42.7748 252.968 42.6047 253.657C42.4346 254.345 42.0973 254.909 41.8557 254.909C41.6136 254.909 41.4159 255.247 41.4159 255.66C41.4159 256.073 41.1985 256.411 40.9323 256.411C40.6665 256.411 40.3095 256.974 40.1394 257.663C39.9693 258.352 39.6321 258.915 39.3905 258.915C39.1484 258.915 38.9507 259.366 38.9507 259.917C38.9507 260.467 38.7288 260.918 38.4576 260.918C38.1865 260.918 37.9646 261.256 37.9646 261.669C37.9646 262.083 37.7472 262.421 37.4809 262.421C37.2152 262.421 36.8582 262.984 36.6881 263.673C36.518 264.361 36.2049 264.925 35.9924 264.925C35.7799 264.925 35.4668 265.488 35.2967 266.177C35.1266 266.865 34.7697 267.429 34.5039 267.429C34.2377 267.429 34.0202 267.767 34.0202 268.18C34.0202 268.593 33.7984 268.931 33.5272 268.931C33.256 268.931 33.0341 269.358 33.0341 269.879C33.0341 270.4 32.7013 270.957 32.2946 271.115C31.8878 271.274 31.555 271.861 31.555 272.421C31.555 272.98 31.3331 273.438 31.0619 273.438C30.7908 273.438 30.5689 273.776 30.5689 274.189C30.5689 274.603 30.3618 274.941 30.1089 274.941C29.856 274.941 29.4936 275.448 29.3032 276.067C29.1124 276.687 28.7949 277.307 28.5967 277.445C28.3985 277.582 28.081 278.202 27.8902 278.822L27.5441 279.949H43.1411H58.7381L58.5818 278.571L58.426 277.194L46.2231 277.06C34.429 276.931 34.0202 276.893 34.0202 275.934C34.0202 275.387 34.2377 274.941 34.5039 274.941C34.7697 274.941 35.1266 274.377 35.2967 273.689C35.4668 273 35.7799 272.437 35.9924 272.437C36.2049 272.437 36.518 271.873 36.6881 271.185C36.8582 270.496 37.2152 269.933 37.4809 269.933C37.7472 269.933 37.9646 269.595 37.9646 269.181C37.9646 268.768 38.1865 268.43 38.4576 268.43C38.7288 268.43 38.9507 267.979 38.9507 267.429C38.9507 266.878 39.1484 266.427 39.3905 266.427C39.6321 266.427 39.9693 265.864 40.1394 265.175C40.3095 264.486 40.6665 263.923 40.9323 263.923C41.1985 263.923 41.4159 263.585 41.4159 263.172C41.4159 262.759 41.6334 262.421 41.8996 262.421C42.1654 262.421 42.5223 261.857 42.6924 261.169C42.8625 260.48 43.1998 259.917 43.4414 259.917C43.6835 259.917 43.8812 259.466 43.8812 258.915C43.8812 258.364 44.0774 257.913 44.3165 257.913C44.5561 257.913 44.8825 257.519 45.0418 257.037C45.3564 256.086 46.409 254.309 46.8961 253.907C47.0633 253.769 47.3552 253.15 47.546 252.53C47.7363 251.91 48.0987 251.403 48.3516 251.403C48.6046 251.403 48.8116 251.065 48.8116 250.652C48.8116 250.239 49.0335 249.9 49.3047 249.9C49.5759 249.9 49.7977 249.443 49.7977 248.883C49.7977 248.323 50.1305 247.736 50.5373 247.578C50.9441 247.419 51.2769 246.863 51.2769 246.341C51.2769 245.82 51.4746 245.393 51.7167 245.393C51.9583 245.393 52.2955 244.83 52.4656 244.141C52.6357 243.453 52.9927 242.889 53.2584 242.889C53.5247 242.889 53.7421 242.551 53.7421 242.138C53.7421 241.725 53.9398 241.387 54.1819 241.387C54.4235 241.387 54.7607 240.823 54.9308 240.135C55.1009 239.446 55.4579 238.883 55.7237 238.883C55.9899 238.883 56.2073 238.432 56.2073 237.881C56.2073 237.33 56.4292 236.88 56.7004 236.88C56.9716 236.88 57.1934 236.542 57.1934 236.128C57.1934 235.477 55.1665 235.377 41.909 235.377H26.6245V237.13ZM63.11 257.663V279.949H75.4362H87.7623V278.75C87.7623 278.091 87.4113 277.415 86.9823 277.248C86.5534 277.081 81.9385 276.944 76.727 276.944C70.0146 276.944 67.079 276.769 66.6599 276.343C66.0362 275.709 65.7823 261.256 66.3675 259.707C66.6259 259.024 67.9428 258.915 75.982 258.915H85.2971V257.162V255.409H76.4627C71.6037 255.409 67.2772 255.273 66.8483 255.105C66.1822 254.846 66.0683 253.638 66.0683 246.842V238.883H76.123C86.8832 238.883 86.7762 238.908 86.7762 236.338C86.7762 235.418 86.2792 235.377 74.9431 235.377H63.11V257.663ZM98.9284 239.209C98.7528 241.316 98.6094 247.401 98.6094 252.731C98.6094 258.857 98.4279 262.421 98.1163 262.421C97.8348 262.421 97.6159 263.977 97.606 266.051C97.5952 268.25 97.3102 270.176 96.8837 270.934C96.4962 271.623 96.1712 272.71 96.1614 273.349C96.1431 274.568 95.1072 275.942 94.2069 275.942C93.9165 275.942 93.6789 276.158 93.6789 276.421C93.6789 276.683 92.9023 277.046 91.9532 277.227C90.553 277.494 90.2276 277.782 90.2276 278.752C90.2276 279.45 90.5185 279.949 90.9262 279.949C91.3103 279.949 91.7363 280.231 91.8734 280.575C92.0721 281.075 92.1297 281.075 92.1608 280.575C92.1825 280.226 92.8378 279.949 93.6439 279.949C94.4377 279.949 95.4203 279.611 95.8271 279.197C96.2339 278.784 96.8043 278.446 97.0952 278.446C97.3856 278.446 97.6233 278.108 97.6233 277.695C97.6233 277.282 97.8451 276.944 98.1163 276.944C98.3875 276.944 98.6163 276.549 98.6251 276.067C98.6335 275.586 98.9663 274.753 99.3647 274.219C99.7626 273.684 100.089 272.501 100.089 271.59C100.089 270.678 100.31 269.933 100.582 269.933C100.88 269.933 101.075 267.803 101.075 264.545C101.075 261.583 101.284 258.419 101.539 257.515C101.794 256.611 102.159 252.048 102.351 247.377L102.699 238.883H111.748H120.796V259.416V279.949H122.522H124.248V257.663V235.377H111.748H99.2469L98.9284 239.209ZM131.643 257.671V279.966L143.846 279.832C155.855 279.7 156.052 279.681 156.198 278.637C156.413 277.111 155.384 276.958 144.797 276.951C137.419 276.945 135.373 276.797 134.813 276.228C134.259 275.666 134.109 273.739 134.109 267.214V258.915H143.97C153.362 258.915 153.831 258.869 153.831 257.954C153.831 255.41 153.827 255.409 144.45 255.409C139.62 255.409 135.318 255.273 134.889 255.105C134.223 254.846 134.109 253.638 134.109 246.842V238.883H144.463H154.817V237.13V235.377H143.23H131.643V257.671ZM163.198 236.087C163.198 236.477 162.921 236.928 162.582 237.088C162.089 237.322 162.089 237.439 162.582 237.672C163.06 237.899 163.198 242.494 163.198 258.164C163.198 273.853 163.061 278.42 162.582 278.617C161.703 278.979 163.121 279.931 164.554 279.941L165.664 279.949V269.432V258.915H176.511C184.857 258.915 187.359 259.059 187.364 259.541C187.368 259.885 187.423 264.561 187.487 269.933L187.604 279.698L189.453 279.853L191.302 280.009V257.693V235.377H189.629C188.558 235.377 187.848 235.662 187.657 236.169C187.492 236.605 187.358 241.112 187.358 246.186C187.358 251.989 187.175 255.416 186.865 255.426C181.934 255.597 167.165 255.388 166.527 255.139C165.746 254.833 165.664 253.876 165.664 245.089V235.377H164.431C163.696 235.377 163.198 235.664 163.198 236.087ZM235.183 257.693V280.009L236.939 279.853L238.694 279.698L238.787 259.416L238.881 239.133L248.619 238.998L258.357 238.862V237.12V235.377H246.77H235.183V257.693ZM264.273 257.663V279.949H266.245H268.217V271.713V263.478L274.504 263.246C277.962 263.118 281.771 262.853 282.97 262.656C285.024 262.32 285.484 262.089 287.182 260.543C287.56 260.198 288.011 259.917 288.186 259.917C289.131 259.917 291.391 256.483 291.391 255.047C291.391 254.42 291.613 253.907 291.884 253.907C292.176 253.907 292.377 252.07 292.377 249.4C292.377 246.729 292.176 244.892 291.884 244.892C291.613 244.892 291.391 244.236 291.391 243.435C291.391 241.252 286.667 236.379 284.552 236.379C283.703 236.379 283.009 236.153 283.009 235.878C283.009 235.562 279.558 235.377 273.641 235.377H264.273V257.663ZM304.703 236.414C304.703 236.985 304.37 237.79 303.963 238.203C303.557 238.616 303.224 239.502 303.224 240.17C303.224 240.839 303.002 241.387 302.731 241.387C302.46 241.387 302.238 242.176 302.238 243.14C302.238 244.104 302.034 244.892 301.784 244.892C301.534 244.892 301.185 245.566 301.007 246.389C300.829 247.212 300.478 248.014 300.228 248.172C299.977 248.328 299.772 249.12 299.772 249.93C299.772 250.74 299.575 251.403 299.334 251.403C299.094 251.403 298.75 252.192 298.572 253.156C298.394 254.12 298.037 254.909 297.778 254.909C297.519 254.909 297.307 255.81 297.307 256.912C297.307 258.013 297.11 258.915 296.869 258.915C296.628 258.915 296.285 259.704 296.107 260.668C295.929 261.632 295.572 262.421 295.313 262.421C295.054 262.421 294.842 262.984 294.842 263.673C294.842 264.361 294.67 264.925 294.461 264.925C294.108 264.925 293.207 267.811 292.545 271.059C292.391 271.817 292.068 272.437 291.828 272.437C291.587 272.437 291.391 272.957 291.391 273.593C291.391 274.229 291.065 275.187 290.667 275.721C290.268 276.256 289.936 277.44 289.927 278.351C289.912 279.963 289.963 280.005 291.76 279.853C293.509 279.707 293.618 279.596 293.762 277.82C293.847 276.788 294.124 275.942 294.379 275.942C294.633 275.942 294.842 275.395 294.842 274.726C294.842 274.057 295.175 273.172 295.582 272.759C295.988 272.345 296.321 271.315 296.321 270.469C296.321 269.623 296.519 268.931 296.761 268.931C297.003 268.931 297.34 268.368 297.51 267.679L297.819 266.427H306.684C314.793 266.427 315.551 266.502 315.566 267.303C315.574 267.785 315.907 268.617 316.305 269.152C316.703 269.687 317.029 270.644 317.029 271.28C317.029 271.916 317.251 272.437 317.522 272.437C317.793 272.437 318.015 273.225 318.015 274.189C318.015 275.153 318.208 275.942 318.445 275.942C318.682 275.942 319.017 276.844 319.191 277.945C319.488 279.838 319.601 279.949 321.226 279.949C322.808 279.949 322.946 279.828 322.946 278.446C322.946 277.62 322.724 276.944 322.453 276.944C322.181 276.944 321.953 276.324 321.944 275.567C321.935 274.809 321.603 273.752 321.204 273.217C320.806 272.682 320.48 271.725 320.48 271.089C320.48 270.453 320.309 269.933 320.099 269.933C319.746 269.933 318.845 267.046 318.184 263.798C318.029 263.04 317.707 262.421 317.466 262.421C317.226 262.421 317.021 261.913 317.012 261.294C317.002 260.674 316.677 259.604 316.29 258.915C315.902 258.226 315.577 257.156 315.567 256.536C315.558 255.916 315.328 255.409 315.057 255.409C314.786 255.409 314.564 254.749 314.564 253.942C314.564 253.136 314.231 252.138 313.824 251.725C313.418 251.312 313.085 250.394 313.085 249.686C313.085 248.978 312.863 248.398 312.592 248.398C312.32 248.398 312.099 247.609 312.099 246.645C312.099 245.681 311.901 244.892 311.66 244.892C311.42 244.892 311.077 244.104 310.899 243.14C310.721 242.176 310.363 241.387 310.104 241.387C309.845 241.387 309.633 240.598 309.633 239.634C309.633 238.67 309.436 237.881 309.194 237.881C308.952 237.881 308.615 237.318 308.445 236.629C308.189 235.594 307.839 235.377 306.419 235.377C305.012 235.377 304.703 235.564 304.703 236.414ZM337.525 236.504C337.26 237.799 336.867 245.084 336.432 256.787C336.266 261.263 335.937 264.925 335.701 264.925C335.465 264.925 335.272 265.946 335.272 267.194C335.272 268.443 334.939 270.273 334.532 271.262C334.125 272.251 333.793 273.386 333.793 273.786C333.793 274.634 332.618 275.942 331.855 275.942C331.565 275.942 331.327 276.143 331.327 276.387C331.327 276.632 330.551 276.98 329.602 277.161L327.876 277.49V282.976V288.462H329.848H331.82V284.205V279.949H345.573C361.103 279.949 359.924 279.599 359.924 284.205C359.924 287.803 360.241 288.462 361.965 288.462H363.408L363.268 282.828L363.129 277.194L361.28 277.039L359.431 276.883V256.13V235.377H348.593H337.756L337.525 236.504ZM217.927 238.382C217.927 238.657 218.378 238.883 218.93 238.883C220.719 238.883 224.281 241.778 224.32 243.265C224.329 243.609 224.533 243.891 224.774 243.891C225.604 243.891 225.956 247.184 226.166 256.912C226.371 266.364 225.846 271.936 224.75 271.936C224.523 271.936 224.336 272.274 224.336 272.687C224.336 273.1 224.003 273.438 223.597 273.438C223.19 273.438 222.857 273.68 222.857 273.975C222.857 274.845 221.525 275.942 220.468 275.942C219.929 275.942 219.397 276.218 219.287 276.554C219.16 276.942 217.685 277.238 215.26 277.362C210.779 277.592 208.36 276.737 205.579 273.942C202.577 270.926 202.396 269.979 202.396 257.312C202.396 248.885 202.555 245.782 203.012 245.318C203.351 244.974 203.628 244.286 203.628 243.791C203.628 243.295 203.85 242.889 204.121 242.889C204.393 242.889 204.614 242.551 204.614 242.138C204.614 241.725 204.846 241.387 205.129 241.387C205.412 241.387 206.242 240.823 206.973 240.135C207.704 239.446 208.804 238.883 209.417 238.883C210.03 238.883 210.531 238.657 210.531 238.382C210.531 238.093 212.092 237.881 214.229 237.881C216.365 237.881 217.927 238.093 217.927 238.382ZM283.995 239.634C283.995 240.047 284.227 240.385 284.51 240.385C285.18 240.385 287.446 242.687 287.446 243.368C287.446 243.655 287.779 243.891 288.186 243.891C288.794 243.891 288.925 244.781 288.925 248.899C288.925 251.662 288.719 253.907 288.465 253.907C288.212 253.907 287.851 254.404 287.661 255.01C287.258 256.3 286.261 257.413 285.509 257.413C285.219 257.413 284.981 257.633 284.981 257.904C284.981 258.174 284.426 258.536 283.748 258.709C283.07 258.882 282.516 259.224 282.516 259.47C282.516 259.716 279.299 259.917 275.367 259.917H268.217V249.4V238.883H276.106C282.79 238.883 283.995 238.998 283.995 239.634ZM355.862 257.788L355.733 276.693L346.299 276.829C337.781 276.952 336.833 276.882 336.541 276.109C336.343 275.585 336.512 275.086 336.977 274.822C337.433 274.563 337.737 273.698 337.737 272.662C337.737 271.712 337.959 270.934 338.23 270.934C338.501 270.934 338.731 269.751 338.74 268.305C338.75 266.859 339.078 263.873 339.47 261.669C339.923 259.124 340.186 254.238 340.192 248.273L340.202 238.883H348.097H355.992L355.862 257.788ZM307.168 242.639C307.168 243.327 307.39 243.891 307.661 243.891C307.932 243.891 308.154 244.411 308.154 245.047C308.154 245.683 308.48 246.641 308.878 247.176C309.276 247.71 309.609 248.88 309.618 249.775C309.626 250.671 309.855 251.403 310.126 251.403C310.398 251.403 310.619 251.95 310.619 252.619C310.619 253.288 310.952 254.173 311.359 254.586C311.766 255 312.099 256.03 312.099 256.876C312.099 257.722 312.32 258.414 312.592 258.414C312.863 258.414 313.085 259.072 313.085 259.875C313.085 260.678 313.362 261.43 313.701 261.546C314.182 261.71 314.168 261.94 313.641 262.589C312.636 263.826 300.59 263.823 299.372 262.586C298.773 261.978 298.715 261.693 299.161 261.543C299.497 261.428 299.779 260.847 299.788 260.251C299.797 259.654 300.129 258.728 300.528 258.193C300.926 257.658 301.252 256.701 301.252 256.065C301.252 255.429 301.473 254.909 301.745 254.909C302.016 254.909 302.238 254.12 302.238 253.156C302.238 252.192 302.457 251.403 302.725 251.403C302.993 251.403 303.354 250.501 303.527 249.4C303.701 248.298 304.036 247.396 304.273 247.396C304.51 247.396 304.703 246.608 304.703 245.644C304.703 244.68 304.901 243.891 305.143 243.891C305.384 243.891 305.722 243.327 305.892 242.639C306.062 241.95 306.419 241.387 306.684 241.387C306.951 241.387 307.168 241.95 307.168 242.639Z" fill="white"/>
</svg>
