<svg width="672" height="66" viewBox="0 0 672 66" fill="none" xmlns="http://www.w3.org/2000/svg">
<path fill-rule="evenodd" clip-rule="evenodd" d="M32.9569 37.3384H49.953L41.4706 17.0139L32.9569 37.3384ZM41.468 20.9051L35.2153 35.832H47.6978L41.468 20.9051ZM26.6973 52.2818L22.1541 63.1278H2.31296L29.1145 2.87218H53.7559L80.6374 63.1278H60.7163L56.1897 52.2818H26.6973ZM27.6937 53.7882L23.1505 64.6342H0L28.1416 1.36579H54.7276L82.9532 64.6342H59.7185L55.1919 53.7882H27.6937ZM121.669 41.6541L121.673 41.6459C122.454 40.0776 122.875 38.1496 122.875 35.8119V1.36579H144.516V36.8564C144.516 42.6162 143.176 47.7438 140.453 52.1875L140.449 52.195C137.731 56.5735 133.912 59.9712 129.04 62.3894C124.155 64.8141 118.478 66 112.054 66C105.732 66 100.11 64.8124 95.2286 62.3894C90.3587 59.9723 86.5172 56.5781 83.7471 52.2068L83.741 52.1972L83.7351 52.1875C81.0119 47.7438 79.6723 42.6162 79.6723 36.8564V1.36579H101.314V35.8119C101.314 38.1516 101.735 40.0444 102.507 41.5493C103.269 43.0355 104.409 44.2137 105.971 45.0935C107.507 45.9063 109.51 46.3567 112.054 46.3567C114.724 46.3567 116.782 45.8996 118.313 45.0856C119.859 44.2635 120.958 43.127 121.665 41.6623L121.669 41.6541ZM105.254 46.4169C103.44 45.3993 102.08 44.0067 101.174 42.2392C100.267 40.4717 99.8135 38.3293 99.8135 35.8119V2.87218H81.1724V36.8564C81.1724 42.3731 82.4525 47.2203 85.0126 51.3981C87.6261 55.5222 91.253 58.7358 95.8932 61.039C100.534 63.3421 105.92 64.4936 112.054 64.4936C118.295 64.4936 123.735 63.3421 128.375 61.039C133.015 58.7358 136.616 55.5222 139.176 51.3981C141.736 47.2203 143.016 42.3731 143.016 36.8564V2.87218H124.375V35.8119C124.375 38.3293 123.922 40.4985 123.015 42.3195C122.161 44.087 120.828 45.4528 119.015 46.4169C117.201 47.381 114.881 47.8631 112.054 47.8631C109.334 47.8631 107.067 47.381 105.254 46.4169ZM207.126 55.9112C207.032 56.0141 206.938 56.1165 206.843 56.2185C206.499 56.5789 206.142 56.9288 205.773 57.2682C203.509 59.3495 200.772 61.035 197.562 62.3244C193.829 63.7705 189.455 64.4936 184.441 64.4936C179.748 64.4936 175.348 63.8241 171.241 62.4851C167.134 61.0925 163.507 59.084 160.36 56.4595C157.213 53.7815 154.733 50.4875 152.92 46.5776C151.16 42.6677 150.279 38.1418 150.279 33C150.279 27.8582 151.16 23.3323 152.92 19.4224C154.733 15.5125 157.24 12.2453 160.44 9.62082C163.694 6.94279 167.427 4.93427 171.641 3.59525C175.908 2.20268 180.494 1.50639 185.401 1.50639C192.175 1.50639 197.989 2.52404 202.842 4.55934C207.749 6.59464 211.696 9.40657 214.683 12.9951C217.344 16.1921 219.158 19.8141 220.126 23.8612C220.244 24.357 220.35 24.8591 220.443 25.3676H201.722C201.242 23.6001 200.229 22.1004 198.682 20.8685C197.189 19.5831 195.322 18.619 193.082 17.9763C190.842 17.28 188.335 16.9318 185.561 16.9318C182.148 16.9318 179.188 17.521 176.681 18.6993C174.227 19.8777 172.334 21.6452 171.001 24.0018C169.667 26.3585 169.001 29.3579 169.001 33C169.001 36.6421 169.721 39.6951 171.161 42.1589C172.654 44.6226 174.761 46.4705 177.481 47.7024C180.254 48.9343 183.508 49.5502 187.242 49.5502C190.868 49.5502 194.069 49.0682 196.842 48.1041C199.474 47.2065 201.62 45.9144 203.281 44.2276C203.404 44.1026 203.525 43.9754 203.642 43.846C203.818 43.6529 203.987 43.4549 204.148 43.2521C204.286 43.0787 204.418 42.9017 204.545 42.7212H188.362V31.0718H221.003V63.1278H207.963L207.126 55.9112ZM201.026 44.2276H186.862V29.5654H222.504V64.6342H206.627L205.984 59.0856C203.74 60.9773 201.113 62.5204 198.119 63.7231L198.111 63.7265L198.102 63.7299C194.159 65.2572 189.595 66 184.441 66C179.604 66 175.046 65.3097 170.777 63.9179L170.769 63.9151L170.761 63.9123C166.49 62.4641 162.699 60.368 159.402 57.6184L159.396 57.6136L159.39 57.6087C156.071 54.7841 153.461 51.3125 151.56 47.2136L151.556 47.2059L151.553 47.1981C149.689 43.0585 148.779 38.3141 148.779 33C148.779 27.6859 149.689 22.9416 151.553 18.8019L151.556 18.7941L151.56 18.7864C153.465 14.6795 156.108 11.2285 159.49 8.45493C162.897 5.65116 166.799 3.55463 171.182 2.16095C175.611 0.71627 180.354 0 185.401 0C192.317 0 198.337 1.03807 203.417 3.16782C208.516 5.28296 212.671 8.22931 215.834 12.0291C218.989 15.8196 221.019 20.1835 221.919 25.0951L222.245 26.874H200.577L200.275 25.764C199.886 24.3321 199.068 23.0985 197.75 22.0488L197.728 22.031L197.706 22.0123C196.404 20.8916 194.74 20.0187 192.67 19.4247L192.654 19.4202L192.638 19.4153C190.565 18.7709 188.211 18.4382 185.561 18.4382C182.32 18.4382 179.589 18.9971 177.323 20.0609C175.146 21.1075 173.485 22.6607 172.305 24.746C171.137 26.811 170.501 29.5324 170.501 33C170.501 36.4408 171.179 39.2099 172.448 41.3855C173.776 43.5729 175.643 45.2164 178.093 46.3268C180.635 47.4552 183.672 48.0438 187.242 48.0438C190.739 48.0438 193.768 47.5786 196.351 46.6806L196.36 46.6777C198.197 46.0509 199.746 45.2301 201.026 44.2276ZM321.847 1.36579V64.6342H301.086V26.7941L285.59 64.6342H265.022L249.443 26.8473V64.6342H228.762V1.36579H260.005L275.325 40.4187L290.521 1.36579H321.847ZM275.331 44.5431L258.984 2.87218H230.262V63.1278H247.943V19.2706L266.024 63.1278H284.585L302.586 19.1702V63.1278H320.347V2.87218H291.546L275.331 44.5431ZM384.561 24.9057V41.0943H351.433L350.532 46.678H387.362V64.6342H327.238L331.942 33L327.238 1.36579H386.962V19.322H350.532L351.433 24.9057H384.561ZM350.156 26.4121H383.061V39.5879H350.156L348.769 48.1844H385.861V63.1278H328.978L333.459 33L328.978 2.87218H385.461V17.8156H348.769L350.156 26.4121ZM445.124 41.8126V2.87218H463.205V63.1278H439.843L412.882 22.9522V63.1278H394.881V2.87218H418.962L445.124 41.8126ZM414.382 27.883L439.045 64.6342H464.705V1.36579H443.624V36.8863L419.76 1.36579H393.381V64.6342H414.382V27.883ZM510.839 19.5027V63.1278H492.198V19.5027H469.957V2.87218H533.08V19.5027H510.839ZM490.698 21.0091H468.457V1.36579H534.581V21.0091H512.339V64.6342H490.698V21.0091ZM593.792 24.9057V41.0943H560.663L559.762 46.678H596.592V64.6342H536.468L541.172 33L536.468 1.36579H596.192V19.322H559.762L560.663 24.9057H593.792ZM559.387 26.4121H592.292V39.5879H559.387L558 48.1844H595.092V63.1278H538.209L542.689 33L538.209 2.87218H594.692V17.8156H558L559.387 26.4121Z" fill="#343434" fill-opacity="0.9"/>
<path fill-rule="evenodd" clip-rule="evenodd" d="M653.73 61.3851L653.724 61.3881C648.045 63.9981 641.467 65.2769 634.03 65.2769H601.3V1.00427H634.03C641.468 1.00427 648.048 2.31056 653.727 4.97616C659.448 7.58148 663.938 11.2922 667.131 16.1242C670.395 20.981 672 26.6758 672 33.1406C672 39.5573 670.392 45.2497 667.132 50.1557C663.939 54.9877 659.45 58.7253 653.73 61.3851ZM665.793 49.2495C668.856 44.6392 670.388 39.2696 670.388 33.1406C670.388 26.9574 668.856 21.5878 665.793 17.0318C662.783 12.4757 658.537 8.95022 653.055 6.45525C647.627 3.90604 641.285 2.63143 634.03 2.63143H602.913V63.6498H634.03C641.285 63.6498 647.627 62.4023 653.055 59.9073C658.537 57.3581 662.783 53.8055 665.793 49.2495ZM635.481 46.8087C638.76 46.8087 641.581 46.2663 643.946 45.1816C646.364 44.0426 648.218 42.4425 649.508 40.3815C650.798 38.3204 651.443 35.9068 651.443 33.1406C651.443 30.3202 650.798 27.9066 649.508 25.8998C648.218 23.8387 646.364 22.2658 643.946 21.181C641.581 20.042 638.76 19.4725 635.481 19.4725H621.535V46.8087H635.481ZM623.147 45.1816H635.481C638.584 45.1816 641.164 44.6685 643.271 43.704C645.436 42.6828 647.038 41.281 648.145 39.5126C649.251 37.7453 649.831 35.6417 649.831 33.1406C649.831 30.5772 649.248 28.4842 648.156 26.7852L648.15 26.777L648.145 26.7687C647.042 25.0057 645.447 23.635 643.291 22.6679L643.271 22.659L643.251 22.6495C641.151 21.6378 638.578 21.0997 635.481 21.0997H623.147V45.1816Z" fill="#343434" fill-opacity="0.9"/>
</svg>
