<svg width="981" height="93" viewBox="0 0 981 93" fill="none" xmlns="http://www.w3.org/2000/svg">
<path fill-rule="evenodd" clip-rule="evenodd" d="M563 80V18H583.352V35.5532H598.234C603.63 35.5532 608.285 36.4531 612.172 38.2873C616.051 40.1177 619.044 42.7124 621.118 46.0769C623.246 49.4415 624.297 53.3512 624.297 57.7766C624.297 62.254 623.247 66.1913 621.118 69.5577C619.043 72.8695 616.049 75.4364 612.172 77.266C608.285 79.1001 603.63 80 598.234 80H563ZM620.436 69.1299C622.474 65.9091 623.493 62.1247 623.493 57.7766C623.493 53.4823 622.474 49.7247 620.436 46.5039C618.452 43.2831 615.583 40.787 611.829 39.0156C608.075 37.2442 603.543 36.3584 598.234 36.3584H582.548V18.8052H563.804V79.1948H598.234C603.543 79.1948 608.075 78.3091 611.829 76.5377C615.583 74.7662 618.452 72.297 620.436 69.1299ZM582.548 64.5403H597.027C599.387 64.5403 601.237 63.9498 602.578 62.7688C603.919 61.5342 604.589 59.8701 604.589 57.7766C604.589 55.6294 603.919 53.9654 602.578 52.7844C601.237 51.6035 599.387 51.013 597.027 51.013H582.548V64.5403ZM583.352 51.8182V63.7351H597.027C599.251 63.7351 600.888 63.1812 602.04 62.17C603.186 61.1116 603.785 59.6779 603.785 57.7766C603.785 55.81 603.179 54.3863 602.046 53.3889C600.894 52.3741 599.255 51.8182 597.027 51.8182H583.352ZM627.193 18H647.545V80H627.193V18ZM627.998 18.8052V79.1948H646.741V18.8052H627.998Z" fill="#343434" fill-opacity="0.9"/>
<path fill-rule="evenodd" clip-rule="evenodd" d="M847.535 77.021L847.533 77.0197C842.036 74.3606 837.717 70.6314 834.599 65.8308L834.595 65.8254C831.523 61.0115 830 55.393 830 49C830 42.607 831.523 36.9885 834.595 32.1746L834.599 32.1692C837.717 27.3686 842.036 23.6394 847.533 20.9803L847.535 20.979C853.09 18.318 859.519 17 866.8 17C874.08 17 880.482 18.3174 885.985 20.979C891.533 23.637 895.855 27.3659 898.922 32.1692C902.049 36.9838 903.6 42.6043 903.6 49C903.6 55.3957 902.049 61.0162 898.922 65.8308C895.855 70.6333 891.535 74.3618 885.987 77.0197C880.484 79.6821 874.081 81 866.8 81C859.519 81 853.09 79.682 847.535 77.021ZM885.639 76.3035C891.067 73.7032 895.271 70.068 898.252 65.398C901.285 60.728 902.802 55.262 902.802 49C902.802 42.738 901.285 37.272 898.252 32.602C895.271 27.932 891.067 24.2968 885.639 21.6965C880.264 19.0962 873.984 17.796 866.8 17.796C859.616 17.796 853.309 19.0962 847.881 21.6965C842.506 24.2968 838.302 27.932 835.269 32.602C832.288 37.272 830.798 42.738 830.798 49C830.798 55.262 832.288 60.728 835.269 65.398C838.302 70.068 842.506 73.7032 847.881 76.3035C853.309 78.9038 859.616 80.204 866.8 80.204C873.984 80.204 880.264 78.9038 885.639 76.3035ZM881.293 41.6253L881.288 41.618C879.996 39.5361 878.129 37.939 875.653 36.8307L875.644 36.8266L875.635 36.8223C873.212 35.6648 870.276 35.0697 866.8 35.0697C863.324 35.0697 860.359 35.6645 857.879 36.8251L857.873 36.8281C855.451 37.935 853.607 39.5318 852.312 41.618L852.307 41.6253C851.018 43.6528 850.356 46.0994 850.356 49C850.356 51.8979 851.017 54.3733 852.309 56.4569C853.603 58.4909 855.449 60.0915 857.877 61.2532C860.357 62.3619 863.325 62.9304 866.8 62.9304C870.278 62.9304 873.217 62.3611 875.642 61.2539C878.127 60.0907 879.998 58.4889 881.291 56.4572C882.583 54.3736 883.244 51.8979 883.244 49C883.244 46.0994 882.582 43.6528 881.293 41.6253ZM881.967 56.8806C880.583 59.0564 878.588 60.7546 875.98 61.9751C873.426 63.1426 870.366 63.7264 866.8 63.7264C863.234 63.7264 860.148 63.1426 857.54 61.9751C854.986 60.7546 853.017 59.0564 851.633 56.8806C850.249 54.6517 849.557 52.0249 849.557 49C849.557 45.9751 850.249 43.3748 851.633 41.199C853.017 38.9701 854.986 37.272 857.54 36.1045C860.148 34.8839 863.234 34.2736 866.8 34.2736C870.366 34.2736 873.426 34.8839 875.98 36.1045C878.588 37.272 880.583 38.9701 881.967 41.199C883.351 43.3748 884.042 45.9751 884.042 49C884.042 52.0249 883.351 54.6517 881.967 56.8806Z" fill="#343434" fill-opacity="0.9"/>
<path fill-rule="evenodd" clip-rule="evenodd" d="M0 92.64V62.16H8.34673C9.9421 59.9317 11.1789 57.0041 12.0256 53.3351L12.0283 53.3233C13.0169 49.2651 13.52 44.2565 13.52 38.28C13.52 35.4784 13.4143 32.5414 13.2024 29.4688C12.9904 26.3958 12.6723 23.161 12.2477 19.764L12.1072 18.64H74.48V62.16H84.8V92.64H65.28V80.64H19.52V92.64H0ZM18.52 79.64H66.28V91.64H83.8V63.16H73.48V19.64H13.24C13.2819 19.9749 13.3227 20.3082 13.3625 20.64C13.7284 23.6901 14.0076 26.6101 14.2 29.4C14.4133 32.4933 14.52 35.4533 14.52 38.28C14.52 44.3067 14.0133 49.4 13 53.56C12.2026 57.0154 11.0556 59.8821 9.55907 62.16C9.3311 62.507 9.09501 62.8403 8.85082 63.16H1V91.64H18.52V79.64ZM54.84 63.32V35.8H31.5475C31.5525 35.9336 31.5567 36.067 31.56 36.2C31.5701 36.4012 31.5796 36.6012 31.5888 36.8C31.6763 38.7094 31.72 40.5094 31.72 42.2C31.72 48.3333 31.16 53.4533 30.04 57.56C29.5556 59.3362 28.9614 60.9229 28.2575 62.32C28.0837 62.6649 27.9032 62.9982 27.7161 63.32H54.84ZM29.3706 62.32H53.84V36.8H32.5898C32.6765 38.7058 32.72 40.5059 32.72 42.2C32.72 48.3867 32.1559 53.6022 31.0048 57.8231C30.5567 59.4659 30.0133 60.9669 29.3706 62.32ZM144.137 47.291C144.077 47.3275 144.017 47.3638 143.957 47.4C143.613 47.6038 143.253 47.7979 142.878 47.9822C143.354 48.1028 143.817 48.2343 144.267 48.3768C144.999 48.6088 145.695 48.8699 146.357 49.16C149.397 50.44 151.664 52.2267 153.157 54.52C154.65 56.8133 155.397 59.5067 155.397 62.6C155.397 65.8533 154.65 68.7867 153.157 71.4C151.717 73.96 149.504 75.9867 146.517 77.48C143.53 78.92 139.824 79.64 135.397 79.64H89.7169L94.2769 48.84L89.7169 19.64H133.717C139.264 19.64 143.584 20.9467 146.677 23.56C149.824 26.12 151.397 29.6933 151.397 34.28C151.397 36.84 150.81 39.2667 149.637 41.56C148.542 43.8015 146.709 45.7118 144.137 47.291ZM145.364 47.6912C145.841 47.8615 146.303 48.0447 146.751 48.2411C149.934 49.5824 152.373 51.4834 153.995 53.9743C155.607 56.4505 156.397 59.339 156.397 62.6C156.397 66.012 155.612 69.118 154.026 71.894C152.475 74.6494 150.103 76.8051 146.964 78.3744L146.958 78.3777L146.951 78.3808C143.792 79.9042 139.926 80.64 135.397 80.64H88.5579L93.2654 48.844L88.5486 18.64H133.717C139.409 18.64 143.985 19.9803 147.315 22.7902C150.723 25.566 152.397 29.4402 152.397 34.28C152.397 36.9961 151.774 39.5759 150.532 42.0067C149.444 44.2307 147.703 46.1207 145.364 47.6912ZM109.256 67H129.877C131.957 67 133.584 66.4933 134.757 65.48C135.93 64.4133 136.517 62.9467 136.517 61.08C136.517 59.32 135.904 57.88 134.677 56.76C133.45 55.5867 131.664 55 129.317 55H111.093L109.256 67ZM111.952 56L110.42 66H129.877C131.793 66 133.156 65.5361 134.094 64.7315C135.015 63.8888 135.517 62.714 135.517 61.08C135.517 59.5821 135.008 58.4167 134.003 57.4985L133.994 57.4907L133.986 57.4826C133.006 56.546 131.506 56 129.317 56H111.952ZM126.677 42.68C128.33 42.68 129.717 42.1733 130.837 41.16C131.957 40.1467 132.517 38.8133 132.517 37.16C132.517 35.7733 132.01 34.6267 130.997 33.72C130.037 32.76 128.65 32.28 126.837 32.28H109.339L111.033 42.68H126.677ZM111.883 41.68H126.677C128.108 41.68 129.248 41.2491 130.166 40.4185C131.055 39.6139 131.517 38.5607 131.517 37.16C131.517 36.0514 131.127 35.178 130.33 34.4652L130.309 34.4467L130.29 34.4271C129.574 33.7109 128.477 33.28 126.837 33.28H110.515L111.883 41.68ZM161.959 80.64V18.64H182.359V57.4054L207.294 18.64H233.159V80.64H212.759V40.6564L187.106 80.64H161.959ZM213.759 37.246V79.64H232.159V19.64H207.839L181.359 60.8086V19.64H162.959V79.64H186.559L213.759 37.246ZM290.369 18.64V37.2H262.209V80.64H241.569V18.64H290.369ZM261.209 36.2H289.369V19.64H242.569V79.64H261.209V36.2ZM312.072 53.96H329.067L320.585 33.7218L312.072 53.96ZM320.583 36.3048L313.577 52.96H327.563L320.583 36.3048ZM305.812 68.84L301.269 79.64H281.429L308.229 19.64H332.869L359.749 79.64H339.829L335.303 68.84H305.812ZM306.477 69.84L301.934 80.64H279.887L307.581 18.64H333.517L361.293 80.64H339.164L334.638 69.84H306.477ZM363.834 80.64V18.64H384.234V57.4054L409.169 18.64H435.034V80.64H414.634V40.6564L388.981 80.64H363.834ZM415.634 37.246V79.64H434.034V19.64H409.714L383.234 60.8087V19.64H364.834V79.64H388.434L415.634 37.246ZM376.446 0H392.851L393.112 0.602392C393.744 2.06148 394.569 3.12775 395.562 3.8562C396.601 4.52794 397.839 4.88 399.314 4.88C400.859 4.88 402.091 4.52055 403.066 3.85706C404.107 3.1318 404.928 2.07424 405.506 0.628609L405.757 0H422.263L421.967 1.23337C420.639 6.76483 417.95 10.8588 413.836 13.3733C409.807 15.8351 404.951 17.04 399.314 17.04C393.78 17.04 388.954 15.8331 384.878 13.3765L384.873 13.3733C380.758 10.8588 378.07 6.76483 376.742 1.23337L376.446 0ZM403.634 4.68C402.461 5.48 401.021 5.88 399.314 5.88C397.661 5.88 396.221 5.48 394.994 4.68C393.821 3.82667 392.888 2.6 392.194 1H377.714C377.796 1.33938 377.882 1.67271 377.974 2C379.325 6.816 381.799 10.3227 385.394 12.52C389.288 14.8667 393.928 16.04 399.314 16.04C404.808 16.04 409.474 14.8667 413.314 12.52C416.91 10.3227 419.383 6.816 420.734 2C420.826 1.67271 420.913 1.33938 420.994 1H406.434C405.794 2.6 404.861 3.82667 403.634 4.68ZM554.899 18.64V80.64H535.139V40.9298L518.809 80.64H498.91L482.499 40.9985V80.64H462.819V18.64H493.22L508.881 58.3962L524.416 18.64H554.899ZM508.885 61.1342L492.539 19.64H463.819V79.64H481.499V35.9688L499.579 79.64H518.139L536.139 35.8688V79.64H553.899V19.64H525.099L508.885 61.1342ZM736.342 62.16V18.64H756.982V80.64H656.022V18.64H676.662V62.16H696.182V18.64H716.822V62.16H736.342ZM737.342 63.16H715.822V19.64H697.182V63.16H675.662V19.64H657.022V79.64H755.982V19.64H737.342V63.16ZM765.319 80.64V18.64H785.799V51.9114L811.427 18.64H833.526L812.479 44.8175L834.09 80.64H810.62L799.381 61.1093L783.678 80.64H765.319ZM799.518 59.3428L811.199 79.64H832.319L811.262 44.7356L831.439 19.64H811.919L784.799 54.8484V19.64H766.319V79.64H783.199L799.518 59.3428ZM909.381 80.64V18.64H929.781V57.4054L954.716 18.64H980.581V80.64H960.181V40.6564L934.528 80.64H909.381ZM961.181 37.246V79.64H979.581V19.64H955.261L928.781 60.8087V19.64H910.381V79.64H933.981L961.181 37.246ZM921.993 0H938.398L938.659 0.602392C939.291 2.06158 940.116 3.12791 941.109 3.85636C942.148 4.52799 943.386 4.88 944.861 4.88C946.407 4.88 947.64 4.51991 948.616 3.85529C949.656 3.13008 950.475 2.07306 951.053 0.628609L951.304 0H967.81L967.514 1.23337C966.186 6.76483 963.497 10.8588 959.383 13.3733C955.354 15.8351 950.498 17.04 944.861 17.04C939.327 17.04 934.501 15.8331 930.425 13.3765L930.42 13.3733C926.305 10.8588 923.616 6.76483 922.289 1.23337L921.993 0ZM949.181 4.68C948.008 5.48 946.568 5.88 944.861 5.88C943.208 5.88 941.768 5.48 940.541 4.68C939.368 3.82667 938.435 2.6 937.741 1H923.261C923.343 1.33938 923.429 1.67271 923.521 2C924.872 6.816 927.346 10.3227 930.941 12.52C934.835 14.8667 939.475 16.04 944.861 16.04C950.355 16.04 955.021 14.8667 958.861 12.52C962.457 10.3227 964.93 6.816 966.281 2C966.373 1.67271 966.46 1.33938 966.541 1H951.981C951.341 2.6 950.408 3.82667 949.181 4.68Z" fill="#343434" fill-opacity="0.9"/>
</svg>
