<svg width="1039" height="96" viewBox="0 0 1039 96" fill="none" xmlns="http://www.w3.org/2000/svg">
<path fill-rule="evenodd" clip-rule="evenodd" d="M0.113281 95.7V56.1H10.9066C12.7234 53.4553 14.1614 49.9969 15.1645 45.6503L15.1672 45.6385L15.1701 45.6267C16.3872 40.6301 17.0133 34.433 17.0133 27C17.0133 23.5167 16.8818 19.8628 16.618 16.0376C16.3542 12.2116 15.958 8.18193 15.4287 3.94806L15.1477 1.7H94.7133V56.1H107.613V95.7H81.7133V80.7H26.0133V95.7H0.113281ZM24.0133 78.7H83.7133V93.7H105.613V58.1H92.7133V3.7H17.4133C17.4972 4.37162 17.5779 5.03829 17.6552 5.7C18.0692 9.24199 18.3886 12.642 18.6133 15.9C18.8799 19.7667 19.0133 23.4667 19.0133 27C19.0133 34.5333 18.3799 40.9 17.1133 46.1C16.2021 50.0483 14.9259 53.3816 13.2845 56.1C12.8567 56.8084 12.4042 57.4751 11.9268 58.1H2.11328V93.7H24.0133V78.7ZM69.4133 58.3V23.9H40.2977C40.3039 24.0671 40.3091 24.2337 40.3133 24.4C40.3386 24.906 40.3615 25.406 40.382 25.9C40.4695 28.0094 40.5133 30.0094 40.5133 31.9C40.5133 39.5667 39.8133 45.9667 38.4133 51.1C37.8928 53.0084 37.271 54.7417 36.5478 56.3C36.2219 57.0022 35.8754 57.6689 35.5084 58.3H69.4133ZM38.7366 56.3H67.4133V25.9H42.3837C42.47 28.0037 42.5133 30.0039 42.5133 31.9C42.5133 39.6735 41.8052 46.2643 40.3428 51.6262C39.888 53.2939 39.3539 54.8538 38.7366 56.3ZM130.786 77.3028L130.779 77.2994C123.741 73.8851 118.186 69.0822 114.173 62.8873L114.169 62.8805L114.164 62.8738C110.201 56.6455 108.252 49.3957 108.252 41.2C108.252 33.0043 110.201 25.7545 114.164 19.5262L114.169 19.5195L114.173 19.5127C118.186 13.3178 123.741 8.51492 130.779 5.10058L130.786 5.09721C137.903 1.67805 146.109 0 155.352 0C164.592 0 172.768 1.67746 179.822 5.09943C186.924 8.51216 192.485 13.3161 196.435 19.5199C200.467 25.7483 202.452 33.0006 202.452 41.2C202.452 49.3995 200.467 56.6518 196.435 62.8803C192.485 69.0836 186.925 73.8874 179.823 77.3001C172.768 80.7224 164.593 82.4 155.352 82.4C146.109 82.4 137.903 80.722 130.786 77.3028ZM178.952 75.5C185.752 72.2333 191.018 67.6667 194.752 61.8C198.552 55.9333 200.452 49.0667 200.452 41.2C200.452 33.3333 198.552 26.4667 194.752 20.6C191.018 14.7333 185.752 10.1667 178.952 6.9C172.218 3.63333 164.352 2 155.352 2C146.352 2 138.452 3.63333 131.652 6.9C124.918 10.1667 119.652 14.7333 115.852 20.6C112.118 26.4667 110.252 33.3333 110.252 41.2C110.252 49.0667 112.118 55.9333 115.852 61.8C119.652 67.6667 124.918 72.2333 131.652 75.5C138.452 78.7667 146.352 80.4 155.352 80.4C164.352 80.4 172.218 78.7667 178.952 75.5ZM172.657 32.4619L172.651 32.4527C171.146 30.022 168.968 28.1426 166.032 26.8245L166.01 26.8144L165.987 26.8036C163.118 25.4286 159.594 24.7 155.352 24.7C151.11 24.7 147.547 25.428 144.601 26.8105L144.593 26.8143L144.585 26.8181C141.717 28.1325 139.564 30.0111 138.052 32.4527L138.046 32.4619L138.041 32.4711C136.544 34.8318 135.752 37.7122 135.752 41.2C135.752 44.6818 136.541 47.602 138.046 50.0376C139.555 52.4138 141.713 54.3008 144.593 55.6856C147.543 57.0051 151.11 57.7 155.352 57.7C159.601 57.7 163.133 57.0024 166.01 55.6859C168.965 54.2971 171.152 52.4075 172.657 50.0377C174.162 47.6021 174.952 44.6819 174.952 41.2C174.952 37.7122 174.16 34.8318 172.663 32.4711L172.657 32.4619ZM174.352 51.1C172.618 53.8333 170.118 55.9667 166.852 57.5C163.652 58.9667 159.818 59.7 155.352 59.7C150.885 59.7 147.018 58.9667 143.752 57.5C140.552 55.9667 138.085 53.8333 136.352 51.1C134.618 48.3 133.752 45 133.752 41.2C133.752 37.4 134.618 34.1333 136.352 31.4C138.085 28.6 140.552 26.4667 143.752 25C147.018 23.4667 150.885 22.7 155.352 22.7C159.818 22.7 163.652 23.4667 166.852 25C170.118 26.4667 172.618 28.6 174.352 31.4C176.085 34.1333 176.952 37.4 176.952 41.2C176.952 45 176.085 48.3 174.352 51.1ZM293.624 1.7V80.7H266.324V26.3H235.624V80.7H208.324V1.7H293.624ZM233.624 24.3H268.324V78.7H291.624V3.7H210.324V78.7H233.624V24.3ZM322.094 77.3028L322.087 77.2994C315.049 73.8851 309.494 69.0822 305.482 62.8873L305.477 62.8805L305.473 62.8738C301.509 56.6455 299.56 49.3957 299.56 41.2C299.56 33.0043 301.509 25.7545 305.473 19.5262L305.477 19.5195L305.482 19.5127C309.494 13.3178 315.049 8.51492 322.087 5.10058L322.094 5.09721C329.212 1.67805 337.418 0 346.66 0C355.899 0 364.073 1.67674 371.126 5.09723C378.232 8.51065 383.795 13.3163 387.745 19.5229C391.776 25.7507 393.76 33.0018 393.76 41.2C393.76 49.3983 391.776 56.6497 387.745 62.8775C383.795 69.084 378.232 73.8894 371.126 77.3028C364.073 80.7233 355.899 82.4 346.66 82.4C337.418 82.4 329.212 80.722 322.094 77.3028ZM386.06 61.8C389.86 55.9333 391.76 49.0667 391.76 41.2C391.76 33.3333 389.86 26.4667 386.06 20.6C382.327 14.7333 377.06 10.1667 370.26 6.9C363.527 3.63333 355.66 2 346.66 2C337.66 2 329.76 3.63333 322.96 6.9C316.227 10.1667 310.96 14.7333 307.16 20.6C303.427 26.4667 301.56 33.3333 301.56 41.2C301.56 49.0667 303.427 55.9333 307.16 61.8C310.96 67.6667 316.227 72.2333 322.96 75.5C329.76 78.7667 337.66 80.4 346.66 80.4C355.66 80.4 363.527 78.7667 370.26 75.5C377.06 72.2333 382.327 67.6667 386.06 61.8ZM363.965 32.4619L363.96 32.4527C362.455 30.022 360.277 28.1426 357.341 26.8245L357.318 26.8144L357.296 26.8036C354.426 25.4286 350.903 24.7 346.66 24.7C342.419 24.7 338.855 25.428 335.91 26.8105L335.902 26.8143L335.893 26.8181C333.026 28.1325 330.872 30.0111 329.361 32.4527L329.355 32.4619L329.349 32.4711C327.852 34.8318 327.06 37.7122 327.06 41.2C327.06 44.6818 327.85 47.602 329.355 50.0376C330.864 52.4138 333.021 54.3008 335.902 55.6856C338.851 57.0051 342.419 57.7 346.66 57.7C350.91 57.7 354.442 57.0023 357.319 55.6854C360.275 54.2963 362.462 52.4062 363.967 50.0361C365.471 47.6008 366.26 44.681 366.26 41.2C366.26 37.7122 365.468 34.8318 363.971 32.4711L363.965 32.4619ZM358.16 57.5C354.96 58.9667 351.127 59.7 346.66 59.7C342.193 59.7 338.327 58.9667 335.06 57.5C331.86 55.9667 329.393 53.8333 327.66 51.1C325.927 48.3 325.06 45 325.06 41.2C325.06 37.4 325.927 34.1333 327.66 31.4C329.393 28.6 331.86 26.4667 335.06 25C338.327 23.4667 342.193 22.7 346.66 22.7C351.127 22.7 354.96 23.4667 358.16 25C361.427 26.4667 363.927 28.6 365.66 31.4C367.393 34.1333 368.26 37.4 368.26 41.2C368.26 45 367.393 48.3 365.66 51.1C363.927 53.8333 361.427 55.9667 358.16 57.5ZM409.357 1.7H489.094V80.7H461.794V26.3H437.21C437.242 26.9405 437.269 27.5774 437.292 28.2107C437.493 31.9698 437.594 35.5663 437.594 39C437.594 48.7682 436.687 56.8754 434.814 63.259C432.997 69.6127 429.999 74.5079 425.685 77.7066L425.68 77.7101C421.446 80.8299 416.026 82.3 409.594 82.3C406.713 82.3 403.836 81.9837 400.965 81.3535L400.955 81.3512C398.139 80.7178 395.544 79.7967 393.178 78.578L392.094 78.0195V54.6832L394.815 55.7344C397.578 56.8022 400.031 57.3 402.194 57.3C403.959 57.3 405.354 56.9115 406.467 56.2237C407.579 55.5367 408.535 54.4729 409.298 52.9187C410.883 49.6903 411.794 44.0209 411.794 35.6C411.794 31.4614 411.597 26.7799 411.2 21.5515L411.199 21.5389L411.198 21.5263C410.867 16.2987 410.337 10.4317 409.606 3.92308L409.357 1.7ZM432.894 62.7C434.694 56.5667 435.594 48.6667 435.594 39C435.594 35.6 435.494 32.0333 435.294 28.3C435.27 27.6375 435.241 26.9709 435.207 26.3C435.173 25.6374 435.134 24.9708 435.09 24.3H463.794V78.7H487.094V3.7H411.594C411.669 4.37339 411.743 5.04006 411.814 5.7C412.435 11.4428 412.895 16.6762 413.194 21.4C413.594 26.6667 413.794 31.4 413.794 35.6C413.794 44.0667 412.894 50.1333 411.094 53.8C409.294 57.4667 406.327 59.3 402.194 59.3C400.298 59.3 398.265 58.9654 396.094 58.2961C395.44 58.0944 394.773 57.8624 394.094 57.6V76.8C396.294 77.9333 398.727 78.8 401.394 79.4C404.127 80 406.86 80.3 409.594 80.3C415.727 80.3 420.694 78.9 424.494 76.1C428.36 73.2333 431.16 68.7667 432.894 62.7ZM498.07 1.7H525.37V28.2H556.47V1.7H583.77V80.7H556.47V52.8H525.37V80.7H498.07V1.7ZM523.37 50.8H558.47V78.7H581.77V3.7H558.47V30.2H523.37V3.7H500.07V78.7H523.37V50.8ZM662.297 31V51.4H620.87L619.784 58.1H665.797V80.7H590.376L596.275 41.2L590.376 1.7H665.297V24.3H619.784L620.87 31H662.297ZM619.168 33H660.297V49.4H619.168L617.434 60.1H663.797V78.7H592.697L598.297 41.2L592.697 3.7H663.297V22.3H617.434L619.168 33ZM673.07 1.7H700.37V28.2H731.47V1.7H758.77V80.7H731.47V52.8H700.37V80.7H673.07V1.7ZM698.37 50.8H733.47V78.7H756.77V3.7H733.47V30.2H698.37V3.7H675.07V78.7H698.37V50.8ZM767.797 1.7H795.097V28.2H826.197V1.7H853.497V80.7H826.197V52.8H795.097V80.7H767.797V1.7ZM793.097 50.8H828.197V78.7H851.497V3.7H828.197V30.2H793.097V3.7H769.797V78.7H793.097V50.8ZM896.226 46.6H917.47L906.868 21.3022L896.226 46.6ZM906.864 26.4683L899.237 44.6H914.463L906.864 26.4683ZM888.402 65.2L882.723 78.7H857.923L891.423 3.7H922.223L955.823 78.7H930.923L925.266 65.2H888.402ZM889.731 67.2L884.052 80.7H854.84L890.126 1.7H923.519L957.059 76.5651L975.002 51.8671C974.381 51.6388 973.772 51.3935 973.175 51.131L973.164 51.126L973.152 51.1207C968.457 48.9866 964.724 45.9628 962.03 42.0305L962.023 42.02L962.016 42.0094C959.373 38.0454 958.08 33.45 958.08 28.3C958.08 23.0281 959.367 18.3368 962.006 14.3047L962.013 14.2941L962.02 14.2836C964.709 10.2872 968.436 7.19439 973.129 4.98974C977.845 2.77496 983.279 1.7 989.38 1.7H1038.38V80.7H1011.08V54.7H1003.94L985.72 80.7H929.593L923.935 67.2H889.731ZM984.68 78.7L1002.9 52.7H1013.08V78.7H1036.38V3.7H989.38C983.513 3.7 978.38 4.73333 973.98 6.8C969.58 8.86667 966.146 11.7333 963.68 15.4C961.28 19.0667 960.08 23.3667 960.08 28.3C960.08 33.1 961.28 37.3 963.68 40.9C966.146 44.5 969.58 47.3 973.98 49.3C974.708 49.6202 975.457 49.9139 976.226 50.1811C976.884 50.4095 977.556 50.6186 978.243 50.8083L957.98 78.7H984.68ZM1013.08 20.2H992.88C989.946 20.2 987.646 20.9 985.98 22.3C984.313 23.7 983.48 25.7 983.48 28.3C983.48 30.9 984.313 32.9 985.98 34.3C987.646 35.7 989.946 36.4 992.88 36.4H1013.08V20.2ZM1011.08 34.4V22.2H992.88C990.253 22.2 988.464 22.8251 987.266 23.8314C986.141 24.7768 985.48 26.164 985.48 28.3C985.48 30.436 986.141 31.8232 987.266 32.7686C988.464 33.7749 990.253 34.4 992.88 34.4H1011.08Z" fill="rgb(0, 255, 255)"/>
</svg>
