<svg width="615" height="67" viewBox="0 0 615 67" fill="none" xmlns="http://www.w3.org/2000/svg">
<path fill-rule="evenodd" clip-rule="evenodd" d="M16.985 63.9581L16.9727 63.9535C11.8663 62.0456 7.76493 59.3351 4.77833 55.7628L4.76698 55.7493L4.75588 55.7355C1.80219 52.0729 0.248499 47.758 0.073978 42.8714L0 40.8H22.3569L22.6109 42.5054C22.8863 44.3548 23.8432 45.761 25.6857 46.8125C27.6085 47.8561 30.5758 48.48 34.7927 48.48C38.7328 48.48 41.4766 47.979 43.2146 47.1534L43.2232 47.1494L43.2318 47.1454C44.1005 46.7428 44.613 46.3037 44.9091 45.8921C45.1906 45.5008 45.3527 45.0307 45.3527 44.4C45.3527 43.8657 45.219 43.5284 45.0327 43.28C44.8327 43.0133 44.4584 42.7004 43.7478 42.424L43.7255 42.4153L43.7035 42.4062C42.1719 41.768 39.3917 41.36 35.1127 41.36H22.4727V25.52H1.05301L1.19725 23.3852C1.49164 19.0282 3.03011 15.0533 5.76842 11.4993C8.53848 7.90415 12.4843 5.1286 17.4775 3.10808C22.5807 1.0111 28.6657 0 35.6727 0C41.6965 0 47.0364 0.738522 51.6582 2.26033C56.2452 3.77066 59.9489 5.91565 62.6371 8.77651C65.4286 11.6356 66.8727 15.0591 66.8727 18.96C66.8727 22.1022 65.9393 24.9877 64.1002 27.5625C62.7592 29.4399 60.8878 30.9785 58.5693 32.2205C61.0187 33.1897 63.0839 34.5038 64.705 36.2039C67.2081 38.717 68.3927 41.9975 68.3927 45.84C68.3927 50.0106 66.9863 53.7273 64.2231 56.9109C61.4797 60.0719 57.5735 62.4745 52.6572 64.2064L52.6477 64.2097L52.6381 64.213C47.6764 65.9045 41.7109 66.72 34.7927 66.72C28.1107 66.72 22.167 65.8168 16.9974 63.9626L16.985 63.9581ZM55.9424 33.4301C55.7229 33.365 55.5001 33.3021 55.2739 33.2416C55.2708 33.2408 55.2677 33.2399 55.2646 33.2391C55.0051 33.1697 54.7411 33.1034 54.4727 33.04C53.7384 32.8538 52.9749 32.6907 52.1824 32.5507C53.0819 32.3218 53.9253 32.0583 54.7127 31.76C54.7355 31.7515 54.7583 31.743 54.781 31.7344C54.7893 31.7313 54.7977 31.7281 54.8061 31.725C55.1542 31.5937 55.493 31.458 55.8222 31.318C58.8265 30.0405 61.0433 28.4011 62.4727 26.4C64.0727 24.16 64.8727 21.68 64.8727 18.96C64.8727 15.6 63.646 12.6667 61.1927 10.16C58.7927 7.6 55.406 5.6 51.0327 4.16C46.6594 2.72 41.5394 2 35.6727 2C28.846 2 23.0327 2.98667 18.2327 4.96C13.486 6.88 9.85937 9.46667 7.3527 12.72C5.27594 15.4154 3.96795 18.3487 3.42873 21.52C3.31711 22.1765 3.23844 22.8431 3.1927 23.52H21.6727C22.046 21.1733 23.326 19.3867 25.5127 18.16C27.7527 16.88 30.846 16.24 34.7927 16.24C37.1927 16.24 39.2194 16.4533 40.8727 16.88C42.526 17.3067 43.7794 17.9467 44.6327 18.8C45.5394 19.6 45.9927 20.6133 45.9927 21.84C45.9927 22.96 45.5927 23.9467 44.7927 24.8C43.9927 25.6 42.766 26.2133 41.1127 26.64C39.5127 27.0133 37.4327 27.2 34.8727 27.2H24.4727V39.36H35.1127C39.4327 39.36 42.5527 39.76 44.4727 40.56C46.3927 41.3067 47.3527 42.5867 47.3527 44.4C47.3527 46.4267 46.2594 47.9467 44.0727 48.96C41.9394 49.9733 38.846 50.48 34.7927 50.48C30.4194 50.48 27.0594 49.84 24.7127 48.56C22.366 47.2267 21.006 45.3067 20.6327 42.8H2.0727C2.097 43.4802 2.15018 44.1469 2.23226 44.8C2.69076 48.4487 4.05091 51.6754 6.3127 54.48C9.0327 57.7333 12.8194 60.2667 17.6727 62.08C22.5794 63.84 28.286 64.72 34.7927 64.72C41.566 64.72 47.2994 63.92 51.9927 62.32C56.686 60.6667 60.2594 58.4267 62.7127 55.6C65.166 52.7733 66.3927 49.52 66.3927 45.84C66.3927 42.4267 65.3527 39.68 63.2727 37.6C61.5129 35.7476 59.0695 34.3576 55.9424 33.4301ZM40.6356 24.6976C42.0683 24.3251 42.9032 23.8494 43.3563 23.4077C43.8092 22.9149 43.9927 22.418 43.9927 21.84C43.9927 21.1776 43.7788 20.7138 43.3095 20.2997L43.2626 20.2584L43.2185 20.2142C42.7015 19.6972 41.8164 19.1891 40.3729 18.8166C38.9339 18.4452 37.0865 18.24 34.7927 18.24C31.0249 18.24 28.3237 18.8572 26.505 19.8965L26.4981 19.9004L26.4912 19.9043C24.8039 20.8508 23.9191 22.1291 23.6479 23.8342L23.4306 25.2H34.8727C37.341 25.2 39.245 25.0192 40.6356 24.6976ZM105.051 37.68H122.046L113.564 17.4418L105.051 37.68ZM113.56 22.6079L108.062 35.68H119.039L113.56 22.6079ZM98.7913 52.56L94.2483 63.36H74.4083L101.208 3.36H125.848L152.728 63.36H132.808L128.282 52.56H98.7913ZM100.12 54.56L95.5768 65.36H71.3245L99.9112 1.36H127.144L155.816 65.36H131.478L126.952 54.56H100.12ZM163.813 65.36V1.36H186.293V32.6945L210.429 1.36H235.108L213.191 28.6194L235.356 65.36H209.537L198.738 46.5958L183.652 65.36H163.813ZM199.012 43.0628L210.693 63.36H231.813L210.756 28.4556L230.933 3.36H211.413L184.293 38.5684V3.36H165.813V63.36H182.693L199.012 43.0628ZM269.722 37.68H286.718L278.236 17.4418L269.722 37.68ZM278.232 22.6079L272.733 35.68H283.711L278.232 22.6079ZM263.463 52.56L258.92 63.36H239.08L265.88 3.36H290.52L317.4 63.36H297.48L292.954 52.56H263.463ZM264.792 54.56L260.249 65.36H235.996L264.583 1.36H291.816L320.488 65.36H296.15L291.624 54.56H264.792ZM339.063 63.9581L339.051 63.9535C333.944 62.0456 329.843 59.3351 326.856 55.7628L326.845 55.7493L326.834 55.7355C323.88 52.0729 322.327 47.758 322.152 42.8714L322.078 40.8H344.435L344.689 42.5054C344.964 44.3548 345.921 45.7611 347.764 46.8127C349.687 47.8561 352.654 48.48 356.871 48.48C360.811 48.48 363.555 47.979 365.293 47.1534L365.301 47.1494L365.31 47.1454C366.179 46.7428 366.691 46.3037 366.987 45.8921C367.269 45.5008 367.431 45.0307 367.431 44.4C367.431 43.8657 367.297 43.5284 367.111 43.28C366.911 43.0133 366.537 42.7004 365.826 42.424L365.804 42.4153L365.782 42.4062C364.25 41.768 361.47 41.36 357.191 41.36H344.551V25.52H323.131L323.275 23.3852C323.57 19.0282 325.108 15.0533 327.847 11.4993C330.617 7.90403 334.563 5.12841 339.556 3.10787C344.659 1.01104 350.744 0 357.751 0C363.775 0 369.115 0.738522 373.736 2.26033C378.323 3.7706 382.027 5.91545 384.715 8.77612C387.507 11.6353 388.951 15.0589 388.951 18.96C388.951 22.1022 388.017 24.9877 386.178 27.5625C384.837 29.4399 382.966 30.9785 380.647 32.2205C383.097 33.1898 385.162 34.5039 386.783 36.2042C389.286 38.7173 390.471 41.9977 390.471 45.84C390.471 50.0106 389.064 53.7273 386.301 56.9109C383.558 60.0719 379.652 62.4745 374.735 64.2064L374.726 64.2097L374.716 64.213C369.755 65.9045 363.789 66.72 356.871 66.72C350.189 66.72 344.245 65.8168 339.076 63.9626L339.063 63.9581ZM385.351 37.6C383.591 35.7476 381.148 34.3576 378.021 33.4301C377.801 33.365 377.578 33.3021 377.352 33.2416C377.349 33.2408 377.346 33.2399 377.343 33.2391C377.083 33.1697 376.819 33.1034 376.551 33.04C375.816 32.8538 375.053 32.6907 374.261 32.5507C375.16 32.3218 376.003 32.0583 376.791 31.76C376.814 31.7515 376.836 31.743 376.859 31.7344C376.867 31.7313 376.876 31.7281 376.884 31.725C377.232 31.5936 377.571 31.458 377.9 31.318C380.905 30.0405 383.121 28.4011 384.551 26.4C386.151 24.16 386.951 21.68 386.951 18.96C386.951 15.6 385.724 12.6667 383.271 10.16C380.871 7.6 377.484 5.6 373.111 4.16C368.738 2.72 363.618 2 357.751 2C350.924 2 345.111 2.98667 340.311 4.96C335.564 6.88 331.938 9.46667 329.431 12.72C327.354 15.4154 326.046 18.3487 325.507 21.52C325.395 22.1765 325.317 22.8431 325.271 23.52H343.751C344.124 21.1733 345.404 19.3867 347.591 18.16C349.831 16.88 352.924 16.24 356.871 16.24C359.271 16.24 361.298 16.4533 362.951 16.88C364.604 17.3067 365.858 17.9467 366.711 18.8C367.618 19.6 368.071 20.6133 368.071 21.84C368.071 22.96 367.671 23.9467 366.871 24.8C366.071 25.6 364.844 26.2133 363.191 26.64C361.591 27.0133 359.511 27.2 356.951 27.2H346.551V39.36H357.191C361.511 39.36 364.631 39.76 366.551 40.56C368.471 41.3067 369.431 42.5867 369.431 44.4C369.431 46.4267 368.338 47.9467 366.151 48.96C364.018 49.9733 360.924 50.48 356.871 50.48C352.497 50.48 349.138 49.84 346.791 48.56C344.444 47.2267 343.084 45.3067 342.711 42.8H324.151C324.175 43.4802 324.228 44.1469 324.31 44.8C324.769 48.4487 326.129 51.6754 328.391 54.48C331.111 57.7333 334.898 60.2667 339.751 62.08C344.658 63.84 350.364 64.72 356.871 64.72C363.644 64.72 369.378 63.92 374.071 62.32C378.764 60.6667 382.338 58.4267 384.791 55.6C387.244 52.7733 388.471 49.52 388.471 45.84C388.471 42.4267 387.431 39.68 385.351 37.6ZM365.434 23.4077C365.887 22.9149 366.071 22.418 366.071 21.84C366.071 21.1776 365.857 20.7138 365.388 20.2997L365.341 20.2584L365.297 20.2142C364.78 19.6972 363.895 19.1891 362.451 18.8166C361.012 18.4452 359.165 18.24 356.871 18.24C353.103 18.24 350.402 18.8572 348.583 19.8965L348.576 19.9004L348.569 19.9043C346.882 20.8508 345.997 22.1291 345.726 23.8342L345.509 25.2H356.951C359.419 25.2 361.323 25.0192 362.714 24.6976C364.146 24.3252 364.981 23.8494 365.434 23.4077ZM427.129 37.68H444.124L435.642 17.4418L427.129 37.68ZM435.638 22.6079L430.14 35.68H441.117L435.638 22.6079ZM420.869 52.56L416.326 63.36H396.486L423.286 3.36H447.926L474.806 63.36H454.886L450.36 52.56H420.869ZM422.198 54.56L417.655 65.36H393.403L421.989 1.36H449.222L477.894 65.36H453.556L449.03 54.56H422.198ZM515.796 19.92V63.36H497.156V19.92H474.916V3.36H538.036V19.92H515.796ZM495.156 21.92H472.916V1.36H540.036V21.92H517.796V65.36H495.156V21.92ZM550.845 65.36V1.36H573.485V18.8H587.085C592.58 18.8 597.394 19.7152 601.457 21.631C605.502 23.5376 608.664 26.2626 610.86 29.8194C613.11 33.3766 614.205 37.4878 614.205 42.08C614.205 46.7243 613.111 50.8668 610.854 54.4301C608.656 57.9327 605.494 60.626 601.457 62.5291C597.394 64.4448 592.58 65.36 587.085 65.36H550.845ZM609.165 30.88C607.191 27.68 604.338 25.2 600.605 23.44C596.871 21.68 592.365 20.8 587.085 20.8H571.485V3.36H552.845V63.36H587.085C592.365 63.36 596.871 62.48 600.605 60.72C604.338 58.96 607.191 56.5067 609.165 53.36C611.191 50.16 612.205 46.4 612.205 42.08C612.205 37.8133 611.191 34.08 609.165 30.88ZM571.485 48.8H585.885C588.231 48.8 590.071 48.2133 591.405 47.04C592.738 45.8133 593.405 44.16 593.405 42.08C593.405 39.9467 592.738 38.2933 591.405 37.12C590.071 35.9467 588.231 35.36 585.885 35.36H571.485V48.8ZM573.485 37.36V46.8H585.885C587.891 46.8 589.203 46.3054 590.067 45.5528C590.916 44.7637 591.405 43.6812 591.405 42.08C591.405 40.3951 590.899 39.3389 590.083 38.6214C589.219 37.8608 587.904 37.36 585.885 37.36H573.485Z" fill="white"/>
</svg>
