<svg width="1184" height="76" viewBox="0 0 1184 76" fill="none" xmlns="http://www.w3.org/2000/svg">
<path fill-rule="evenodd" clip-rule="evenodd" d="M0 63.36V1.36H20.48V34.6314L46.108 1.36H132.067V19.92H109.827V63.36H89.1869V19.92H66.9469V2.92748L47.1604 27.5375L68.7712 63.36H45.3017L34.0618 43.8293L18.3591 63.36H0ZM34.199 42.0628L45.88 62.36H67L45.9431 27.4556L66.12 2.36H46.6L19.48 37.5684V2.36H1V62.36H17.88L34.199 42.0628ZM90.1869 18.92V62.36H108.827V18.92H131.067V2.36H67.9469V18.92H90.1869ZM149.816 60.7014L149.813 60.6997C144.274 58.0125 139.916 54.2411 136.77 49.3836L136.766 49.3769C133.664 44.5027 132.129 38.8178 132.129 32.36C132.129 25.9022 133.664 20.2173 136.766 15.3431L136.77 15.3363C139.916 10.4789 144.274 6.70746 149.813 4.02029L149.816 4.01861C155.415 1.32902 161.888 0 169.209 0C176.529 0 182.976 1.32846 188.523 4.01889C194.115 6.7053 198.476 10.4775 201.571 15.3399C204.727 20.2141 206.289 25.9003 206.289 32.36C206.289 38.8197 204.727 44.5059 201.571 49.3801C198.476 54.2421 194.116 58.0141 188.524 60.7004C182.977 63.3913 176.53 64.72 169.209 64.72C161.888 64.72 155.415 63.391 149.816 60.7014ZM188.089 59.8C193.529 57.1867 197.743 53.5333 200.729 48.84C203.769 44.1467 205.289 38.6533 205.289 32.36C205.289 26.0667 203.769 20.5733 200.729 15.88C197.743 11.1867 193.529 7.53333 188.089 4.92C182.703 2.30667 176.409 1 169.209 1C162.009 1 155.689 2.30667 150.249 4.92C144.863 7.53333 140.649 11.1867 137.609 15.88C134.623 20.5733 133.129 26.0667 133.129 32.36C133.129 38.6533 134.623 44.1467 137.609 48.84C140.649 53.5333 144.863 57.1867 150.249 59.8C155.689 62.4133 162.009 63.72 169.209 63.72C176.409 63.72 182.703 62.4133 188.089 59.8ZM183.565 25.0555L183.559 25.0464C182.287 22.991 180.448 21.4113 178 20.3123L177.988 20.3072L177.977 20.3018C175.582 19.1543 172.671 18.56 169.209 18.56C165.749 18.56 162.807 19.154 160.354 20.3052L160.346 20.3091C157.952 21.4063 156.135 22.9856 154.86 25.0464L154.854 25.0556C153.585 27.0559 152.929 29.4761 152.929 32.36C152.929 35.2414 153.584 37.6918 154.857 39.7498C156.132 41.7573 157.95 43.3405 160.35 44.4928C162.805 45.5925 165.749 46.16 169.209 46.16C172.674 46.16 175.59 45.5912 177.988 44.4929C180.446 43.3385 182.289 41.7537 183.562 39.7489C184.835 37.6911 185.489 35.241 185.489 32.36C185.489 29.4761 184.833 27.0559 183.565 25.0555ZM184.409 40.28C183.023 42.4667 181.023 44.1733 178.409 45.4C175.849 46.5733 172.783 47.16 169.209 47.16C165.636 47.16 162.543 46.5733 159.929 45.4C157.369 44.1733 155.396 42.4667 154.009 40.28C152.623 38.04 151.929 35.4 151.929 32.36C151.929 29.32 152.623 26.7067 154.009 24.52C155.396 22.28 157.369 20.5733 159.929 19.4C162.543 18.1733 165.636 17.56 169.209 17.56C172.783 17.56 175.849 18.1733 178.409 19.4C181.023 20.5733 183.023 22.28 184.409 24.52C185.796 26.7067 186.489 29.32 186.489 32.36C186.489 35.4 185.796 38.04 184.409 40.28ZM242.428 63.36L250.529 49.1389L223.06 1.36H245.849L261.89 29.516L277.805 1.36H318.95L344.42 34.198V1.36H364.74V34.2791L390.209 1.36H412.405L391.183 27.4092L412.871 63.36H389.399L378.065 43.5112L361.895 63.36H347.264L331.138 43.5321L319.759 63.36H296.289L317.997 27.3757L298.808 3.78232L264.809 63.36H242.428ZM278.388 2.36L261.894 31.5422L245.268 2.36H224.788L251.681 49.1366L244.148 62.36H264.228L298.468 2.36H278.388ZM319.217 27.2902L298.06 62.36H319.18L330.995 41.7717L347.74 62.36H361.42L378.211 41.7493L389.98 62.36H411.1L389.963 27.3232L410.3 2.36H390.7L363.74 37.2058V2.36H345.42V37.1189L318.46 2.36H298.94L319.217 27.2902ZM469.556 24.8V39.92H436.504L435.441 46.48H472.356V63.36H413.316L417.945 32.36L413.316 1.36H471.956V18.24H435.441L436.504 24.8H469.556ZM435.653 25.8H468.556V38.92H435.653L434.266 47.48H471.356V62.36H414.476L418.956 32.36L414.476 2.36H470.956V17.24H434.266L435.653 25.8ZM552.31 30.12C551.966 30.3238 551.606 30.5179 551.231 30.7022C551.707 30.8228 552.17 30.9543 552.62 31.0968C553.352 31.3288 554.049 31.5899 554.71 31.88C557.75 33.16 560.017 34.9467 561.51 37.24C563.003 39.5333 563.75 42.2267 563.75 45.32C563.75 48.5733 563.003 51.5067 561.51 54.12C560.07 56.68 557.857 58.7067 554.87 60.2C551.883 61.64 548.177 62.36 543.75 62.36H498.07L502.63 31.56L498.07 2.36H542.07C547.617 2.36 551.937 3.66666 555.03 6.28C558.177 8.84 559.75 12.4133 559.75 17C559.75 19.56 559.163 21.9867 557.99 24.28C556.895 26.5215 555.062 28.4318 552.49 30.011C552.43 30.0475 552.37 30.0838 552.31 30.12ZM553.717 30.4112C554.194 30.5815 554.657 30.7649 555.105 30.9613C558.288 32.3026 560.726 34.2035 562.348 36.6943C563.96 39.1705 564.75 42.0589 564.75 45.32C564.75 48.7305 563.966 51.8352 562.382 54.6103C560.831 57.3674 558.457 59.5244 555.317 61.0944L555.311 61.0976L555.304 61.1008C552.145 62.6242 548.279 63.36 543.75 63.36H496.911L501.618 31.564L496.902 1.36H542.07C547.762 1.36 552.339 2.7004 555.669 5.51058C559.076 8.28638 560.75 12.1604 560.75 17C560.75 19.7167 560.126 22.2969 558.884 24.7282C557.796 26.9517 556.056 28.841 553.717 30.4112ZM517.609 49.72H538.23C540.31 49.72 541.937 49.2133 543.11 48.2C544.283 47.1333 544.87 45.6667 544.87 43.8C544.87 42.04 544.257 40.6 543.03 39.48C541.803 38.3067 540.017 37.72 537.67 37.72H519.447L517.609 49.72ZM520.305 38.72L518.774 48.72H538.23C540.146 48.72 541.51 48.2561 542.447 47.4514C543.368 46.6087 543.87 45.4338 543.87 43.8C543.87 42.3021 543.361 41.1367 542.356 40.2185L542.347 40.2107L542.339 40.2026C541.36 39.266 539.859 38.72 537.67 38.72H520.305ZM535.03 25.4C536.683 25.4 538.07 24.8933 539.19 23.88C540.31 22.8667 540.87 21.5333 540.87 19.88C540.87 18.4933 540.363 17.3467 539.35 16.44C538.39 15.48 537.003 15 535.19 15H517.692L519.386 25.4H535.03ZM520.237 24.4H535.03C536.461 24.4 537.601 23.9691 538.519 23.1385C539.408 22.3339 539.87 21.2807 539.87 19.88C539.87 18.7714 539.48 17.898 538.683 17.1852L538.663 17.1667L538.643 17.1471C537.927 16.4309 536.83 16 535.19 16H518.868L520.237 24.4ZM570.312 1.36H590.953V22.56H617.032V1.36H637.672V63.36H617.032V41.04H590.953V63.36H570.312V1.36ZM589.953 40.04H618.032V62.36H636.672V2.36H618.032V23.56H589.953V2.36H571.312V62.36H589.953V40.04ZM700.494 24.8V39.92H667.442L666.378 46.48H703.294V63.36H644.253L648.883 32.36L644.253 1.36H702.894V18.24H666.378L667.442 24.8H700.494ZM666.591 25.8H699.494V38.92H666.591L665.203 47.48H702.294V62.36H645.414L649.894 32.36L645.414 2.36H701.894V17.24H665.203L666.591 25.8ZM706.634 75.36V44.88H714.981C716.576 42.6517 717.813 39.7241 718.66 36.0551L718.663 36.0433C719.651 31.9851 720.154 26.9765 720.154 21C720.154 18.1984 720.049 15.2614 719.837 12.1888C719.625 9.11579 719.307 5.88096 718.882 2.48403L718.742 1.36H781.114V44.88H791.434V75.36H771.914V63.36H726.154V75.36H706.634ZM725.154 62.36H772.914V74.36H790.434V45.88H780.114V2.36H719.874C719.916 2.69487 719.957 3.0282 719.997 3.36C720.363 6.41014 720.642 9.33014 720.834 12.12C721.048 15.2133 721.154 18.1733 721.154 21C721.154 27.0267 720.648 32.12 719.634 36.28C718.837 39.7354 717.69 42.6021 716.193 44.88C715.965 45.227 715.729 45.5603 715.485 45.88H707.634V74.36H725.154V62.36ZM761.474 46.04V18.52H738.182C738.187 18.6536 738.191 18.787 738.194 18.92C738.204 19.1212 738.214 19.3212 738.223 19.52C738.311 21.4294 738.354 23.2294 738.354 24.92C738.354 31.0533 737.794 36.1733 736.674 40.28C736.19 42.0562 735.596 43.6429 734.892 45.04C734.718 45.3849 734.538 45.7182 734.35 46.04H761.474ZM736.005 45.04H760.474V19.52H739.224C739.311 21.4258 739.354 23.2259 739.354 24.92C739.354 31.1067 738.79 36.3222 737.639 40.5431C737.191 42.1859 736.648 43.6869 736.005 45.04ZM816.671 62.36H798.031V2.36H832.351C837.578 2.36 842.058 3.24 845.791 5C849.578 6.76 852.458 9.24 854.431 12.44C856.405 15.5867 857.391 19.32 857.391 23.64C857.391 27.9067 856.405 31.64 854.431 34.84C852.458 38.04 849.578 40.52 845.791 42.28C842.058 44.04 837.578 44.92 832.351 44.92H816.671V62.36ZM831.151 30.2C833.498 30.2 835.311 29.6133 836.591 28.44C837.925 27.2667 838.591 25.6667 838.591 23.64C838.591 21.5067 837.925 19.88 836.591 18.76C835.311 17.64 833.498 17.08 831.151 17.08H816.671V30.2H831.151ZM817.671 29.2H831.151C833.337 29.2 834.877 28.6552 835.916 27.7028L835.923 27.696L835.931 27.6893C837.017 26.7336 837.591 25.4243 837.591 23.64C837.591 21.7293 837.005 20.4134 835.948 19.5257L835.94 19.5192L835.933 19.5126C834.894 18.6037 833.348 18.08 831.151 18.08H817.671V29.2ZM817.671 45.92V63.36H797.031V1.36H832.351C837.687 1.36 842.319 2.25793 846.216 4.09471C850.156 5.92684 853.193 8.52893 855.28 11.9106C857.367 15.2406 858.391 19.1641 858.391 23.64C858.391 28.0664 857.366 31.9866 855.282 35.3649C853.196 38.7487 850.158 41.3523 846.216 43.1852C846.217 43.185 846.217 43.1848 846.218 43.1845M817.671 45.92H832.351C837.687 45.92 842.319 45.022 846.216 43.1852M863.047 63.36V1.36H883.447V40.1254L908.381 1.36H934.247V63.36H913.847V23.3764L888.193 63.36H863.047ZM914.847 19.966V62.36H933.247V2.36H908.927L882.447 43.5287V2.36H864.047V62.36H887.647L914.847 19.966ZM952.538 1.36H1015.06V63.36H994.416V19.84H973.516C973.557 20.5643 973.59 21.2828 973.615 21.9954C973.776 24.9949 973.856 27.8632 973.856 30.6C973.856 38.3819 973.133 44.8041 971.658 49.8353C970.229 54.8341 967.89 58.6233 964.572 61.0833L964.569 61.0851C961.312 63.485 957.112 64.64 952.056 64.64C949.796 64.64 947.537 64.3918 945.282 63.8967L945.277 63.8956C943.069 63.3989 941.041 62.6783 939.198 61.729L938.656 61.4497V44.0216L940.017 44.5472C942.279 45.4211 944.315 45.84 946.136 45.84C947.639 45.84 948.869 45.5082 949.871 44.8893C950.871 44.2708 951.707 43.3265 952.359 41.9993C953.691 39.2851 954.416 34.6304 954.416 27.88C954.416 24.5507 954.258 20.7899 953.939 16.5957L953.938 16.5832C953.673 12.3893 953.248 7.68584 952.662 2.47154L952.538 1.36ZM970.696 49.56C972.136 44.6533 972.856 38.3333 972.856 30.6C972.856 27.88 972.776 25.0267 972.616 22.04C972.59 21.313 972.556 20.5797 972.515 19.84C972.496 19.5079 972.476 19.1746 972.454 18.84H995.416V62.36H1014.06V2.36H953.656C953.694 2.69542 953.731 3.02875 953.767 3.36C954.297 8.19039 954.687 12.5771 954.936 16.52C955.256 20.7333 955.416 24.52 955.416 27.88C955.416 34.6533 954.696 39.5067 953.256 42.44C951.816 45.3733 949.443 46.84 946.136 46.84C944.446 46.84 942.62 46.5076 940.656 45.8428C940.327 45.7312 939.993 45.6103 939.656 45.48V60.84C941.416 61.7467 943.363 62.44 945.496 62.92C947.683 63.4 949.87 63.64 952.056 63.64C956.963 63.64 960.936 62.52 963.976 60.28C967.07 57.9867 969.31 54.4133 970.696 49.56ZM1066.44 36.68H1083.44L1074.95 16.4417L1066.44 36.68ZM1074.95 19.0248L1067.95 35.68H1081.93L1074.95 19.0248ZM1060.18 51.56L1055.64 62.36H1035.8L1062.6 2.36H1087.24L1114.12 62.36H1094.2L1089.67 51.56H1060.18ZM1060.85 52.56L1056.3 63.36H1034.26L1061.95 1.36H1087.89L1115.66 63.36H1093.53L1089.01 52.56H1060.85ZM1137.84 28.28H1153.04C1155.39 28.28 1157.2 27.7467 1158.48 26.68C1159.82 25.6133 1160.48 24.0667 1160.48 22.04C1160.48 20.0133 1159.82 18.4667 1158.48 17.4C1157.2 16.3333 1155.39 15.8 1153.04 15.8H1137.84V28.28ZM1138.84 16.8V27.28H1153.04C1155.25 27.28 1156.8 26.7778 1157.84 25.9118L1157.85 25.9054L1157.86 25.8991C1158.91 25.0585 1159.48 23.8262 1159.48 22.04C1159.48 20.2538 1158.91 19.0214 1157.86 18.1809L1157.85 18.1746L1157.84 18.1682C1156.8 17.3022 1155.25 16.8 1153.04 16.8H1138.84ZM1137.84 41.56V62.36H1119.2V2.36H1155.84C1160.48 2.36 1164.56 3.18666 1168.08 4.84C1171.6 6.49333 1174.35 8.78667 1176.32 11.72C1178.3 14.6533 1179.28 18.0933 1179.28 22.04C1179.28 25.88 1178.3 29.2933 1176.32 32.28C1174.35 35.2133 1171.6 37.5067 1168.08 39.16C1167.47 39.4388 1166.84 39.6932 1166.19 39.9234C1165.86 40.0401 1165.53 40.1506 1165.19 40.2548L1181.44 62.36H1160.08L1145.27 41.56H1137.84ZM1138.84 42.56V63.36H1118.2V1.36H1155.84C1160.6 1.36 1164.83 2.20815 1168.51 3.93487C1172.18 5.6572 1175.07 8.06361 1177.15 11.1618C1179.25 14.279 1180.28 17.9185 1180.28 22.04C1180.28 26.0611 1179.25 29.669 1177.16 32.8313L1177.15 32.8382C1175.07 35.9364 1172.18 38.3428 1168.51 40.0651L1168.5 40.0704C1167.95 40.3204 1167.38 40.5514 1166.81 40.7634L1183.42 63.36H1159.57L1144.75 42.56H1138.84Z" fill="#343434" fill-opacity="0.9"/>
</svg>
