<svg width="339" height="62" viewBox="0 0 339 62" fill="none" xmlns="http://www.w3.org/2000/svg">
<path fill-rule="evenodd" clip-rule="evenodd" d="M0 0H20.64V21.2H46.72V0H67.36V62H46.72V39.68H20.64V62H0V0ZM19.64 38.68H47.72V61H66.36V1H47.72V22.2H19.64V1H1V61H19.64V38.68ZM102.143 35.32H119.139L110.657 15.0818L102.143 35.32ZM110.655 17.6648L103.649 34.32H117.635L110.655 17.6648ZM95.8842 50.2L91.3413 61H71.5013L98.3013 1H122.941L149.821 61H129.901L125.375 50.2H95.8842ZM96.5485 51.2L92.0055 62H69.9594L97.6527 0H123.589L151.365 62H129.236L124.71 51.2H96.5485ZM235.226 44.52V1H253.866V61H154.906V1H173.546V44.52H195.066V1H213.706V44.52H235.226ZM214.706 43.52H234.226V0H254.866V62H153.906V0H174.546V43.52H194.066V0H214.706V43.52ZM289.565 35.32H306.56L298.078 15.0818L289.565 35.32ZM298.077 17.6648L291.071 34.32H305.057L298.077 17.6648ZM283.306 50.2L278.763 61H258.923L285.723 1H310.363L337.243 61H317.323L312.797 50.2H283.306ZM283.97 51.2L279.427 62H257.381L285.075 0H311.011L338.787 62H316.658L312.132 51.2H283.97Z" fill="white"/>
</svg>
