<svg width="970" height="66" viewBox="0 0 970 66" fill="none" xmlns="http://www.w3.org/2000/svg">
<path fill-rule="evenodd" clip-rule="evenodd" d="M775.801 36.7761L775.69 37.6948C775.015 43.3049 773.043 48.2608 769.767 52.5428C766.549 56.8215 762.265 60.1321 756.94 62.481C751.66 64.8344 745.618 66 738.831 66C731.487 66 725.022 64.64 719.457 61.8924C713.898 59.1479 709.555 55.2989 706.452 50.3455C703.342 45.3819 701.801 39.5899 701.801 33C701.801 26.4101 703.342 20.6181 706.452 15.6545C709.555 10.7011 713.898 6.85213 719.457 4.10757C725.022 1.36005 731.487 0 738.831 0C745.618 0 751.661 1.16569 756.941 3.51917C762.265 5.8679 766.548 9.17823 769.767 13.4566C773.045 17.6865 775.016 22.6438 775.69 28.3061L775.8 29.2239H754.964L754.816 28.5889C754.296 26.3578 753.341 24.4888 751.961 22.9596L751.952 22.9489L751.943 22.938C750.616 21.3602 748.872 20.1508 746.684 19.3194L746.676 19.3163L746.669 19.3132C744.484 18.4312 741.878 17.9776 738.831 17.9776C735.417 17.9776 732.532 18.5895 730.147 19.779C727.767 20.9662 725.941 22.6863 724.652 24.9503L724.648 24.9574C723.363 27.1618 722.702 29.8315 722.702 33C722.702 36.1685 723.363 38.8382 724.648 41.0426C725.937 43.2539 727.765 44.9797 730.154 46.2243C732.537 47.4116 735.42 48.0224 738.831 48.0224C741.885 48.0224 744.5 47.6217 746.693 46.8417C748.876 46.0104 750.618 44.8019 751.943 43.2262L751.947 43.2203L751.952 43.2146C753.336 41.6301 754.294 39.704 754.815 37.4151L754.961 36.7761H775.801ZM746.977 47.6119C744.673 48.4328 741.958 48.8433 738.831 48.8433C735.32 48.8433 732.302 48.2139 729.779 46.9552C727.255 45.6418 725.308 43.8085 723.936 41.4552C722.565 39.102 721.879 36.2836 721.879 33C721.879 29.7164 722.565 26.898 723.936 24.5448C725.308 22.1368 727.255 20.3035 729.779 19.0448C732.302 17.7861 735.32 17.1567 738.831 17.1567C741.958 17.1567 744.673 17.6219 746.977 18.5522C749.281 19.4279 751.147 20.7139 752.573 22.4104C754.054 24.0522 755.069 26.0497 755.618 28.403H774.873C774.84 28.1276 774.805 27.854 774.765 27.5821C774.02 22.3975 772.136 17.8552 769.113 13.9552C765.986 9.79602 761.817 6.56716 756.605 4.26866C751.448 1.97015 745.524 0.820895 738.831 0.820895C731.589 0.820895 725.253 2.16169 719.822 4.84328C714.391 7.52487 710.167 11.2736 707.15 16.0896C704.132 20.9055 702.624 26.5423 702.624 33C702.624 39.4577 704.132 45.0945 707.15 49.9104C710.167 54.7264 714.391 58.4751 719.822 61.1567C725.253 63.8383 731.589 65.1791 738.831 65.1791C745.524 65.1791 751.448 64.0299 756.605 61.7313C761.817 59.4328 765.986 56.204 769.113 52.0448C772.135 48.0948 774.019 43.5525 774.764 38.4179C774.804 38.1459 774.84 37.8723 774.873 37.597H755.618C755.069 40.005 754.054 42.0572 752.573 43.7537C751.147 45.4502 749.281 46.7363 746.977 47.6119Z" fill="white"/>
<path fill-rule="evenodd" clip-rule="evenodd" d="M451.801 64V3H471.791V20.2701H486.408C491.708 20.2701 496.281 21.1555 500.098 22.9601C503.909 24.761 506.849 27.3139 508.886 30.6241C510.976 33.9344 512.009 37.781 512.009 42.1351C512.009 46.5402 510.977 50.414 508.885 53.7261C506.847 56.9845 503.907 59.51 500.098 61.3101C496.281 63.1146 491.708 64 486.408 64H451.801ZM508.216 53.3052C510.218 50.1364 511.218 46.413 511.218 42.1351C511.218 37.91 510.218 34.213 508.216 31.0442C506.267 27.8753 503.449 25.4195 499.762 23.6766C496.074 21.9338 491.623 21.0623 486.408 21.0623H471.001V3.79221H452.591V63.2078H486.408C491.623 63.2078 496.074 62.3364 499.762 60.5935C503.449 58.8507 506.267 56.4212 508.216 53.3052ZM471.001 48.7896H485.223C487.541 48.7896 489.358 48.2087 490.675 47.0467C491.992 45.832 492.65 44.1948 492.65 42.1351C492.65 40.0225 491.992 38.3853 490.675 37.2234C489.358 36.0615 487.541 35.4805 485.223 35.4805H471.001V48.7896ZM471.791 36.2727V47.9974H485.223C487.407 47.9974 489.016 47.4525 490.147 46.4576C491.272 45.4163 491.86 44.0056 491.86 42.1351C491.86 40.2001 491.265 38.7994 490.153 37.8181C489.022 36.8197 487.412 36.2727 485.223 36.2727H471.791Z" fill="white"/>
<path fill-rule="evenodd" clip-rule="evenodd" d="M67.04 2V64H46.4V20.48H20.64V64H0V2H67.04ZM19.64 19.48H47.4V63H66.04V3H1V63H19.64V19.48ZM95.1088 63H76.4688V3H110.789C116.015 3 120.495 3.88 124.229 5.64C128.015 7.4 130.895 9.88 132.869 13.08C134.842 16.2267 135.829 19.96 135.829 24.28C135.829 28.5467 134.842 32.28 132.869 35.48C130.895 38.68 128.015 41.16 124.229 42.92C120.495 44.68 116.015 45.56 110.789 45.56H95.1088V63ZM109.589 30.84C111.935 30.84 113.749 30.2533 115.029 29.08C116.362 27.9067 117.029 26.3067 117.029 24.28C117.029 22.1467 116.362 20.52 115.029 19.4C113.749 18.28 111.935 17.72 109.589 17.72H95.1088V30.84H109.589ZM96.1088 29.84H109.589C111.774 29.84 113.314 29.2952 114.353 28.3428L114.361 28.336L114.368 28.3293C115.454 27.3736 116.029 26.0643 116.029 24.28C116.029 22.3693 115.442 21.0534 114.386 20.1657L114.378 20.1592L114.37 20.1526C113.332 19.2437 111.785 18.72 109.589 18.72H96.1088V29.84ZM96.1088 46.56V64H75.4688V2H110.789C116.124 2 120.757 2.89793 124.654 4.73471C128.595 6.56712 131.631 9.16973 133.718 12.5521C135.805 15.8818 136.829 19.8048 136.829 24.28C136.829 28.7064 135.803 32.6266 133.72 36.0049C131.633 39.3887 128.596 41.9923 124.654 43.8252C120.757 45.6621 116.124 46.56 110.789 46.56H96.1088ZM141.484 64V2H161.884V40.7654L186.819 2H212.684V64H192.284V24.0164L166.631 64H141.484ZM193.284 20.606V63H211.684V3H187.364L160.884 44.1686V3H142.484V63H166.084L193.284 20.606ZM313.174 2V64H293.414V24.2899L277.084 64H257.185L240.774 24.3586V64H221.094V2H251.495L267.156 41.7562L282.691 2H313.174ZM267.16 44.4942L250.814 3H222.094V63H239.774V19.3288L257.854 63H276.414L294.414 19.2288V63H312.174V3H283.374L267.16 44.4942ZM375.884 25.44V40.56H342.832L341.769 47.12H378.684V64H319.644L324.273 33L319.644 2H378.284V18.88H341.769L342.832 25.44H375.884ZM341.981 26.44H374.884V39.56H341.981L340.594 48.12H377.684V63H320.804L325.284 33L320.804 3H377.284V17.88H340.594L341.981 26.44ZM405.343 63H386.703V3H421.023C426.25 3 430.73 3.88 434.463 5.64C438.25 7.4 441.13 9.88 443.103 13.08C445.076 16.2267 446.063 19.96 446.063 24.28C446.063 28.5467 445.076 32.28 443.103 35.48C441.13 38.68 438.25 41.16 434.463 42.92C430.73 44.68 426.25 45.56 421.023 45.56H405.343V63ZM419.823 30.84C422.17 30.84 423.983 30.2533 425.263 29.08C426.596 27.9067 427.263 26.3067 427.263 24.28C427.263 22.1467 426.596 20.52 425.263 19.4C423.983 18.28 422.17 17.72 419.823 17.72H405.343V30.84H419.823ZM406.343 29.84H419.823C422.009 29.84 423.548 29.2952 424.587 28.3428L424.595 28.336L424.602 28.3293C425.688 27.3736 426.263 26.0643 426.263 24.28C426.263 22.3693 425.677 21.0534 424.62 20.1657L424.612 20.1592L424.605 20.1526C423.566 19.2437 422.02 18.72 419.823 18.72H406.343V29.84ZM406.343 46.56V64H385.703V2H421.023C426.357 2 430.989 2.89759 434.886 4.73366C438.827 6.56585 441.864 9.16829 443.951 12.5506C446.039 15.8806 447.063 19.8041 447.063 24.28C447.063 28.7064 446.038 32.6266 443.954 36.0049C441.867 39.3893 438.829 41.9933 434.886 43.8263C430.989 45.6624 426.357 46.56 421.023 46.56H406.343ZM534.766 2H555.406V23.2H581.486V2H602.126V64H581.486V41.68H555.406V64H534.766V2ZM554.406 40.68H582.486V63H601.126V3H582.486V24.2H554.406V3H535.766V63H554.406V40.68ZM636.909 37.32H653.904L645.422 17.0817L636.909 37.32ZM645.421 19.6649L638.415 36.32H652.401L645.421 19.6649ZM630.65 52.2L626.107 63H606.267L633.067 3H657.707L684.587 63H664.667L660.141 52.2H630.65ZM631.314 53.2L626.771 64H604.725L632.418 2H658.355L686.131 64H664.002L659.475 53.2H631.314ZM834.634 25.44V40.56H801.582L800.519 47.12H837.434V64H778.394L783.023 33L778.394 2H837.034V18.88H800.519L801.582 25.44H834.634ZM800.731 26.44H833.634V39.56H800.731L799.344 48.12H836.434V63H779.554L784.034 33L779.554 3H836.034V17.88H799.344L800.731 26.44ZM865.023 25.4H883.613C888.84 25.4 893.106 26.2 896.413 27.8C899.773 29.3467 902.226 31.5333 903.773 34.36C905.373 37.1333 906.173 40.44 906.173 44.28C906.173 48.0667 905.293 51.3733 903.533 54.2C901.773 56.9733 899.213 59.1333 895.853 60.68C892.493 62.2267 888.413 63 883.613 63H843.773L848.333 32.04L843.773 3H901.693V16.84H863.666L865.023 25.4ZM864.837 17.84H902.693V2H842.604L847.322 32.0449L842.615 64H883.613C888.516 64 892.747 63.2106 896.271 61.5884C899.784 59.9716 902.502 57.6917 904.378 54.7358L904.382 54.7286C906.254 51.7224 907.173 48.2272 907.173 44.28C907.173 40.3044 906.345 36.8219 904.646 33.8712C902.982 30.8361 900.358 28.517 896.841 26.8961C893.355 25.2112 888.927 24.4 883.613 24.4H865.877L864.837 17.84ZM865.064 37.8L863.227 49.72H881.053C883.133 49.72 884.76 49.2133 885.933 48.2C887.106 47.1333 887.693 45.64 887.693 43.72C887.693 41.8533 887.08 40.4133 885.853 39.4C884.68 38.3333 883.08 37.8 881.053 37.8H865.064ZM865.922 38.8L864.393 48.72H881.053C882.969 48.72 884.333 48.2561 885.27 47.4514C886.185 46.614 886.693 45.4167 886.693 43.72C886.693 42.0941 886.172 40.9605 885.216 40.171L885.198 40.1559L885.18 40.1399C884.238 39.2832 882.903 38.8 881.053 38.8H865.922ZM967.056 25.44V40.56H934.004L932.941 47.12H969.856V64H910.816L915.445 33L910.816 2H969.456V18.88H932.941L934.004 25.44H967.056ZM933.153 26.44H966.056V39.56H933.153L931.766 48.12H968.856V63H911.976L916.456 33L911.976 3H968.456V17.88H931.766L933.153 26.44Z" fill="white"/>
</svg>
