<svg width="320" height="67" viewBox="0 0 320 67" fill="none" xmlns="http://www.w3.org/2000/svg">
<path fill-rule="evenodd" clip-rule="evenodd" d="M19.3757 65.36L28.0455 50.1412L0 1.36H25.0992L40.5556 28.4898L55.8899 1.36H80.5809L44.0582 65.36H19.3757ZM40.5625 32.5422L23.9368 3.36H3.45683L30.3498 50.1366L22.8168 63.36H42.8968L77.1368 3.36H57.0568L40.5625 32.5422ZM97.1999 1.36H119.84V22.56H143.92V1.36H166.56V65.36H143.92V43.04H119.84V65.36H97.1999V1.36ZM117.84 41.04H145.92V63.36H164.56V3.36H145.92V24.56H117.84V3.36H99.1999V63.36H117.84V41.04ZM200.343 37.68H217.339L208.857 17.4418L200.343 37.68ZM208.853 22.6079L203.354 35.68H214.332L208.853 22.6079ZM194.084 52.56L189.541 63.36H169.701L196.501 3.36H221.141L248.021 63.36H228.101L223.575 52.56H194.084ZM195.413 54.56L190.87 65.36H166.617L195.204 1.36H222.437L251.109 65.36H226.771L222.245 54.56H195.413ZM319.529 35.84L319.26 38.0783C318.58 43.7434 316.588 48.7754 313.27 53.1264C310.006 57.4749 305.672 60.8238 300.326 63.1878C295.014 65.5605 288.969 66.72 282.234 66.72C274.946 66.72 268.472 65.3664 262.867 62.5925C257.277 59.8257 252.881 55.9282 249.738 50.9C246.58 45.8469 245.034 39.9755 245.034 33.36C245.034 26.7445 246.58 20.8731 249.738 15.82C252.881 10.7918 257.277 6.89428 262.867 4.12754C268.472 1.35357 274.946 0 282.234 0C288.969 0 295.014 1.15945 300.326 3.53212C305.67 5.89507 310.002 9.24207 313.265 13.5878C316.591 17.8928 318.581 22.9298 319.26 28.644L319.526 30.88H296.966L296.606 29.333C296.142 27.3373 295.301 25.7036 294.108 24.3779L294.084 24.352L294.062 24.3252C292.918 22.9613 291.4 21.8946 289.442 21.149L289.423 21.1416L289.404 21.1339C287.455 20.3451 285.081 19.92 282.234 19.92C279.057 19.92 276.445 20.4908 274.329 21.5489C272.224 22.6013 270.627 24.112 269.493 26.108L269.488 26.1167L269.483 26.1252C268.361 28.0559 267.754 30.4403 267.754 33.36C267.754 36.2797 268.361 38.6641 269.483 40.5948C270.616 42.5421 272.218 44.0664 274.344 45.1788C276.457 46.2319 279.065 46.8 282.234 46.8C285.096 46.8 287.492 46.4238 289.462 45.7235C291.41 44.9782 292.922 43.9141 294.062 42.5548L294.074 42.5405L294.086 42.5264C295.289 41.146 296.137 39.4534 296.604 37.3968L296.958 35.84H319.529ZM290.154 47.6C287.914 48.4 285.274 48.8 282.234 48.8C278.821 48.8 275.888 48.1867 273.434 46.96C270.981 45.68 269.088 43.8933 267.754 41.6C266.421 39.3067 265.754 36.56 265.754 33.36C265.754 30.16 266.421 27.4133 267.754 25.12C269.088 22.7733 270.981 20.9867 273.434 19.76C275.888 18.5333 278.821 17.92 282.234 17.92C285.274 17.92 287.914 18.3733 290.154 19.28C292.394 20.1333 294.208 21.3867 295.594 23.04C297.034 24.64 298.021 26.5867 298.554 28.88H317.274C317.194 28.2024 317.094 27.5357 316.975 26.88C316.145 22.3235 314.379 18.2968 311.674 14.8C308.634 10.7467 304.581 7.6 299.514 5.36C294.501 3.12 288.741 2 282.234 2C275.194 2 269.034 3.30667 263.754 5.92C258.474 8.53333 254.368 12.1867 251.434 16.88C248.501 21.5733 247.034 27.0667 247.034 33.36C247.034 39.6533 248.501 45.1467 251.434 49.84C254.368 54.5333 258.474 58.1867 263.754 60.8C269.034 63.4133 275.194 64.72 282.234 64.72C288.741 64.72 294.501 63.6 299.514 61.36C304.581 59.12 308.634 55.9733 311.674 51.92C314.375 48.3812 316.141 44.3545 316.971 39.84C317.092 39.1836 317.193 38.517 317.274 37.84H298.554C298.021 40.1867 297.034 42.1867 295.594 43.84C294.208 45.4933 292.394 46.7467 290.154 47.6Z" fill="white"/>
</svg>
