<svg width="69" height="80" viewBox="0 0 69 80" fill="none" xmlns="http://www.w3.org/2000/svg">
<path d="M23.1406 33.5337H33.1502V23.9631H23.1406V33.5337Z" fill="white" fill-opacity="0.75"/>
<path d="M32.8042 1.28465L29.4821 4.76601L11.1184 23.5563C10.902 23.779 10.7227 24.2164 10.7227 24.5287V48.892C10.7227 49.2058 10.9035 49.28 11.1246 49.0605L20.7648 39.4651C20.9858 39.2456 21.1652 38.8097 21.1652 38.499V24.5287C21.1652 24.2164 21.3414 23.7759 21.5563 23.5517L32.8088 11.7148C33.0237 11.4891 33.1999 11.0485 33.1999 10.7378V1.52581V1.45007C33.1999 1.25683 33.1304 1.15635 33.0253 1.15944C32.9619 1.16253 32.8861 1.20272 32.8042 1.28465Z" fill="white" fill-opacity="0.75"/>
<path d="M47.9048 49.0602L57.5404 39.4649C57.763 39.2453 57.9423 38.8094 57.9423 38.4987V9.81153V1.52245V1.4637C57.9423 1.15143 57.763 1.07568 57.5419 1.29675L51.8159 7.03047L47.9048 10.9076C47.6838 11.1271 47.5029 11.5615 47.5029 11.8722L47.506 15.2407C47.506 15.553 47.5044 15.8081 47.5013 15.8081C47.5013 15.8081 47.4998 16.0647 47.5013 16.3754L47.5075 23.3953C47.5075 23.7076 47.254 23.9626 46.9402 23.9626H46.1147C45.8024 23.9626 45.5489 23.7076 45.5489 23.3953V11.8722C45.5489 11.5615 45.3665 11.1271 45.1454 10.906L41.6857 7.47259L35.5176 1.29675C35.2965 1.07568 35.1172 1.15143 35.1172 1.4637V9.81153L35.1187 9.80999V13.8077V14.3735C35.1187 14.3735 35.1172 14.6285 35.1172 14.9393V32.4975C35.1172 32.8082 35.1187 33.0649 35.1187 33.0649V33.6322V38.4987C35.1187 38.8094 35.2996 39.2453 35.5207 39.4649L45.1454 49.0556C45.3665 49.2766 45.5489 49.2009 45.5489 48.8902V34.1315C45.5489 33.8193 45.8024 33.5642 46.1147 33.5642H46.9325C47.2463 33.5642 47.4998 33.8193 47.4998 34.1315V36.3298C47.4998 36.6421 47.5013 36.8971 47.5013 36.8971C47.5013 36.8971 47.5029 37.1522 47.5029 37.4645V48.8933C47.5029 49.2055 47.6838 49.2813 47.9048 49.0602Z" fill="white" fill-opacity="0.75"/>
<path d="M1.16016 56.2773H67.4975V55.6559H1.16016V56.2773Z" fill="white" fill-opacity="0.75"/>
<path d="M3.86344 71.6135L1.1875 78.0815H3.35639L3.75987 77.0056L6.47137 77.0087L6.85784 78.0815H9.29262L6.61668 71.6135H3.86344ZM4.2932 75.5896L5.14035 73.3279L5.95658 75.5896H4.2932Z" fill="white" fill-opacity="0.75"/>
<path d="M10.0977 71.6135V78.0815H14.7245V76.5078H12.3021V71.6135H10.0977Z" fill="white" fill-opacity="0.75"/>
<path d="M22.4103 78.0825V71.6145H20.2044V74.0106H17.8701V71.6145H15.6641V78.0825H17.8701V75.5859H20.2044V78.0825H22.4103Z" fill="white" fill-opacity="0.75"/>
<path d="M23.0664 78.082H25.2337L25.6388 77.0061L28.3503 77.0076L28.7367 78.082H31.17L28.4956 71.614H25.7423L23.0664 78.082ZM27.0193 73.3269L27.8355 75.5901H26.1721L27.0193 73.3269Z" fill="white" fill-opacity="0.75"/>
<path d="M37.4501 74.2946C37.6866 74.0673 37.8087 73.735 37.8133 73.2975C37.8319 72.1814 37.0651 71.6202 35.5084 71.614H31.8555V78.082H35.8006C36.3633 78.082 36.7745 78.0434 37.0389 77.9645C37.1764 77.9182 37.2939 77.8656 37.3929 77.8069C37.4872 77.745 37.5737 77.6693 37.6541 77.5796C37.9092 77.323 38.039 76.935 38.0452 76.4156C38.0344 75.8683 37.8814 75.4648 37.5861 75.2082C37.2862 74.964 36.9384 74.8326 36.5457 74.8156V74.7939C36.909 74.695 37.2104 74.528 37.4501 74.2946ZM34.0615 72.8121H34.7602C34.9488 72.8121 35.1065 72.8229 35.2317 72.8476C35.3476 72.8816 35.4389 72.9311 35.5084 72.9914C35.629 73.112 35.6862 73.2898 35.6816 73.5247C35.6816 73.7396 35.6151 73.9097 35.4821 74.0349C35.3461 74.1678 35.108 74.2343 34.7679 74.2343H34.0615V72.8121ZM35.6383 76.7402C35.4682 76.8716 35.176 76.9365 34.7633 76.9365H34.0615V75.3798H34.7633C35.176 75.3798 35.4682 75.4386 35.6383 75.5576C35.8021 75.689 35.8825 75.89 35.8825 76.1574C35.8825 76.4202 35.8021 76.615 35.6383 76.7402Z" fill="white" fill-opacity="0.75"/>
<path d="M42.6195 78.0825V73.1882H44.3432V71.6145H38.6914V73.1882H40.4151V78.0825H42.6195Z" fill="white" fill-opacity="0.75"/>
<path d="M51.222 77.1337C51.6719 76.6158 51.8991 75.8552 51.9069 74.852C51.9115 73.861 51.6487 73.051 51.12 72.4234C50.5774 71.7849 49.6699 71.4587 48.3961 71.4479C47.7329 71.4479 47.212 71.5097 46.8348 71.6365C46.4514 71.7617 46.1391 71.938 45.898 72.1621C45.2379 72.6954 44.9009 73.5921 44.887 74.852C44.8777 75.8367 45.1451 76.6452 45.6893 77.2775C46.2303 77.9159 47.1316 78.2406 48.3915 78.2529H48.3977C49.7349 78.2344 50.6763 77.8618 51.222 77.1337ZM47.5026 76.3113C47.263 76.0006 47.1409 75.5136 47.1362 74.852C47.1409 74.1888 47.263 73.6987 47.5026 73.3849C47.7299 73.0726 48.0282 72.9165 48.3961 72.9165C49.2062 72.9119 49.6267 73.5565 49.6576 74.852C49.6267 76.1521 49.2062 76.7952 48.3961 76.7843C48.0282 76.7843 47.7299 76.6266 47.5026 76.3113Z" fill="white" fill-opacity="0.75"/>
<path d="M59.1908 77.1337C59.6406 76.6158 59.8679 75.8552 59.8756 74.852C59.8802 73.861 59.6174 73.051 59.0887 72.4234C58.5461 71.7849 57.6387 71.4587 56.3633 71.4479C55.7017 71.4479 55.1823 71.5097 54.8035 71.6365C54.4201 71.7617 54.1079 71.938 53.8667 72.1621C53.2066 72.6954 52.8696 73.5921 52.8557 74.852C52.8464 75.8367 53.1139 76.6452 53.658 77.2775C54.1991 77.9159 55.1003 78.2406 56.3602 78.2529H56.3664C57.7036 78.2344 58.6451 77.8618 59.1908 77.1337ZM55.4714 76.3113C55.2317 76.0006 55.1096 75.5136 55.105 74.852C55.1096 74.1888 55.2317 73.6987 55.4714 73.3849C55.6986 73.0726 55.997 72.9165 56.3633 72.9165C57.1749 72.9119 57.5954 73.5565 57.6263 74.852C57.5954 76.1521 57.1749 76.7952 56.3633 76.7843C55.997 76.7843 55.6986 76.6266 55.4714 76.3113Z" fill="white" fill-opacity="0.75"/>
<path d="M61.1289 71.6139V78.0835H63.3334V75.7337H64.0228C64.4047 75.7276 64.6551 75.7786 64.7741 75.8868C64.8947 76.0012 64.9705 76.2516 65.006 76.6396L65.1962 78.0835H67.4748L67.1919 75.9146C67.144 75.5869 67.028 75.355 66.8441 75.219C66.6586 75.0876 66.436 75.0211 66.1762 75.0211V74.9299C66.5086 74.8603 66.7791 74.6918 66.9878 74.4275C67.195 74.1647 67.3017 73.8215 67.3063 73.3994C67.3017 72.693 67.0914 72.2153 66.6771 71.9633C66.2613 71.7252 65.6831 71.6077 64.9426 71.6139H61.1289ZM64.8916 74.3131C64.7262 74.4321 64.5098 74.4893 64.2408 74.4831H63.3334V72.9171H64.2037C64.8205 72.9048 65.1343 73.1645 65.1451 73.6947C65.1405 73.9915 65.0555 74.1987 64.8916 74.3131Z" fill="white" fill-opacity="0.75"/>
<path d="M3.38405 67.7907L1.17188 67.7938V69.3613H3.98849C4.54502 69.3613 5.07989 69.2593 5.4339 69.0243C5.78637 68.7878 5.9626 68.4585 6.00279 68.0334V62.6954H3.81072L3.81381 67.4212C3.81381 67.6639 3.62521 67.7907 3.38405 67.7907Z" fill="white" fill-opacity="0.75"/>
<path d="M65.2734 66.8262H67.4841V60.3241H65.2734V66.8262Z" fill="white" fill-opacity="0.75"/>
<path d="M10.0319 67.7912H6.96484V69.3618H10.44C11.635 69.385 12.2456 68.9939 12.2456 68.1823V66.8266H54.3975H62.4114C63.8723 66.8266 64.3345 66.3705 64.3345 65.4322V60.323H62.127V64.752C62.127 64.8942 62.0605 65.1276 61.9585 65.2126H58.9192V63.8105C58.9192 62.9974 58.3225 62.5924 57.126 62.5862H53.6524V64.1661H56.7194C56.9374 64.1661 57.1152 64.3438 57.1152 64.5634V64.5912V65.1524V65.2126H45.2334V62.6944H43.029V65.2126H30.4361V62.6959H28.2209V65.2126H12.2456C12.2456 64.9545 12.2487 62.7701 12.2456 62.6959H8.79054C8.2433 62.665 7.80426 62.8181 7.4719 63.1149C7.13798 63.4271 6.96948 64.1413 6.96484 64.888C6.96948 65.5883 7.13335 66.0861 7.45798 66.3798C7.77644 66.6781 8.18455 66.8235 8.68233 66.8266H10.4292V67.4295C10.4292 67.649 10.2514 67.7912 10.0319 67.7912ZM10.0211 65.5976C9.66397 65.6022 9.40736 65.545 9.25277 65.426C9.109 65.3069 9.03789 65.106 9.03789 64.8231C9.03789 64.5788 9.09354 64.3918 9.20484 64.2619C9.32542 64.1429 9.53257 64.0841 9.82166 64.0841H10.4354V65.5976H10.0211Z" fill="white" fill-opacity="0.75"/>
<path d="M28.938 60.3355H26.7305V61.9741H28.938V60.3355Z" fill="white" fill-opacity="0.75"/>
<path d="M45.231 67.5606H43.0234V69.1992H45.231V67.5606Z" fill="white" fill-opacity="0.75"/>
<path d="M31.8677 60.335H29.6602V61.9736H31.8677V60.335Z" fill="white" fill-opacity="0.75"/>
</svg>
