<svg width="52" height="52" viewBox="0 0 52 52" fill="none" xmlns="http://www.w3.org/2000/svg">
<path d="M25.596 15.2058C22.6007 15.2058 20.1637 17.6428 20.1637 20.6381C20.1637 23.6335 22.6007 26.0703 25.596 26.0703C28.5913 26.0703 31.0281 23.6335 31.0281 20.6381C31.0281 17.6428 28.5915 15.2058 25.596 15.2058Z" fill="#F1592A"/>
<path d="M25.596 10.5359C20.0255 10.5359 15.4937 15.0678 15.4937 20.6382C15.4937 26.2085 20.0255 30.7404 25.596 30.7404C31.1663 30.7404 35.6982 26.2085 35.6982 20.6382C35.6983 15.0678 31.1665 10.5359 25.596 10.5359ZM25.596 28.4972C21.2625 28.4972 17.737 24.9717 17.737 20.6384C17.737 16.3049 21.2625 12.7794 25.596 12.7794C29.9293 12.7794 33.4548 16.3049 33.4548 20.6384C33.455 24.9715 29.9293 28.4972 25.596 28.4972Z" fill="#F1592A"/>
<path d="M20.4907 39.636C20.187 39.6828 19.6635 39.8519 19.2653 39.9806C18.4142 40.2557 17.4495 40.5673 16.4439 40.5673C15.6845 40.5673 14.9935 40.3903 14.39 40.041C12.6948 39.0602 12.2888 37.1483 11.9922 35.7523C11.9113 35.3717 11.7956 34.8267 11.6893 34.5446C11.4071 34.4383 10.8622 34.3226 10.4816 34.2417C9.70577 34.077 8.77082 33.8775 7.92464 33.4426L0.355427 41.0118C0.0581352 41.3093 -0.0640731 41.7393 0.032573 42.1487C0.129044 42.558 0.430713 42.888 0.829729 43.0209L6.2666 44.8334L8.32751 50.5373C8.46845 50.9275 8.79936 51.2189 9.2045 51.3092C9.29222 51.3288 9.38064 51.3383 9.46853 51.3383C9.78683 51.3383 10.0966 51.2129 10.3266 50.983L21.0792 40.2304C20.8729 40.0049 20.6494 39.7691 20.4907 39.636Z" fill="#F1592A"/>
<path d="M34.748 38.1407C35.0563 38.1407 35.3399 38.0835 35.5866 37.9406C36.9973 37.1244 36.6158 33.9475 37.7605 32.8028C38.9053 31.6579 42.0822 32.0394 42.8985 30.6287C43.703 29.2382 41.7928 26.6811 42.2172 25.0928C42.6274 23.5576 45.5725 22.3025 45.5725 20.6381C45.5725 18.9738 42.6274 17.7184 42.2172 16.1835C41.7926 14.5951 43.703 12.0382 42.8985 10.6477C42.0824 9.23704 38.9053 9.61855 37.7606 8.47368C36.6158 7.3288 36.9973 4.15191 35.5868 3.33585C35.3399 3.19298 35.0565 3.13573 34.7481 3.13573C33.4966 3.13573 31.8367 4.07925 30.5659 4.07925C30.3858 4.07925 30.2131 4.06017 30.0508 4.01692C28.5157 3.6067 27.2605 0.661621 25.5962 0.661621C23.9318 0.661621 22.6765 3.6067 21.1415 4.01692C20.9792 4.06034 20.8068 4.07925 20.6264 4.07925C19.3557 4.07925 17.6957 3.13555 16.4442 3.13555C16.1359 3.13555 15.8522 3.19298 15.6056 3.33567C14.1949 4.15174 14.5764 7.3288 13.4317 8.4735C12.287 9.6182 9.10995 9.23687 8.29371 10.6473C7.4892 12.038 9.39936 14.5949 8.97496 16.1833C8.56474 17.7183 5.61966 18.9736 5.61966 20.638C5.61966 22.3025 8.56474 23.5576 8.97496 25.0926C9.39954 26.681 7.4892 29.2379 8.29371 30.6286C9.10978 32.0392 12.2868 31.6577 13.4315 32.8024C14.5764 33.9473 14.1949 37.1242 15.6054 37.9404C15.8522 38.0833 16.1357 38.1405 16.444 38.1405C17.6955 38.1405 19.3555 37.1968 20.6262 37.1968C20.8064 37.1968 20.979 37.2159 21.1413 37.2592C22.6765 37.6696 23.9317 40.6145 25.596 40.6145C27.2603 40.6145 28.5157 37.6694 30.0508 37.2592C30.2131 37.2157 30.3856 37.1967 30.5659 37.1968C31.8365 37.197 33.4965 38.1407 34.748 38.1407ZM25.596 33.1671C18.6874 33.1671 13.067 27.5466 13.067 20.6383C13.067 13.7297 18.6875 8.10933 25.596 8.10933C32.5044 8.10933 38.1248 13.7299 38.1248 20.6383C38.125 27.5466 32.5044 33.1671 25.596 33.1671Z" fill="#F1592A"/>
<path d="M51.6448 41.012L43.7744 33.1416C42.8111 33.7933 41.6454 34.0431 40.7101 34.2418C40.3295 34.3227 39.7844 34.4384 39.5024 34.5447C39.3961 34.827 39.2804 35.3718 39.1995 35.7524C38.9031 37.1484 38.497 39.0603 36.8017 40.0411C36.1982 40.3902 35.5071 40.5674 34.7478 40.5674C33.7423 40.5674 32.7774 40.2558 31.9263 39.9807C31.5287 39.8522 31.0057 39.6832 30.7009 39.6363C30.6435 39.6845 30.5773 39.7465 30.5067 39.8161L41.6736 50.983C41.9036 51.213 42.2134 51.3382 42.5317 51.3382C42.6196 51.3382 42.708 51.3288 42.7957 51.3091C43.2008 51.219 43.5317 50.9276 43.6727 50.5372L45.7336 44.8333L51.1705 43.0209C51.5695 42.888 51.8711 42.5579 51.9676 42.1486C52.0641 41.7394 51.9419 41.3094 51.6448 41.012Z" fill="#F1592A"/>
</svg>
