<svg width="52" height="52" viewBox="0 0 52 52" fill="none" xmlns="http://www.w3.org/2000/svg">
<path d="M19.5146 22.9589C23.1023 18.3841 28.6749 15.4439 34.948 15.4439C35.882 15.4439 36.8055 15.5076 37.7183 15.635V11.4529C34.8843 14.0003 27.5391 15.8154 18.9096 15.8154C10.3331 15.8154 3.0092 14.0216 0.143311 11.4847V16.8662C1.57626 22.736 19.3129 22.9695 19.5146 22.9589Z" fill="#F1592A"/>
<path d="M0.132685 21.0696L0.12207 26.536C0.812007 29.5717 7.2125 32.0343 15.5024 32.5756C15.8208 29.9963 16.6487 27.5656 17.88 25.4003C9.73873 25.2623 2.8712 23.5109 0.132685 21.0696Z" fill="#F1592A"/>
<path d="M0.122065 30.7817L0.11145 35.9828C0.143293 35.951 0.175137 35.9191 0.20698 35.8979C0.408654 39.252 7.57338 42.0012 16.7761 42.3939C15.8526 40.1224 15.3537 37.6493 15.3537 35.0487V35.0381C8.327 34.6029 2.56338 32.9683 0.122065 30.7817Z" fill="#F1592A"/>
<path d="M17.9967 44.8672C9.69626 44.7292 2.72259 42.8929 0.111444 40.3879L0.10083 45.2918C0.10083 48.9856 8.51806 51.9789 18.9096 51.9789C20.8945 51.9789 22.8051 51.8727 24.5989 51.6711C21.8816 49.9728 19.6101 47.6376 17.9967 44.8672Z" fill="#F1592A"/>
<path d="M18.9096 13.3529C29.3091 13.3529 37.7395 10.3638 37.7395 6.67646C37.7395 2.98915 29.3091 0 18.9096 0C8.51005 0 0.0795898 2.98915 0.0795898 6.67646C0.0795898 10.3638 8.51005 13.3529 18.9096 13.3529Z" fill="#F1592A"/>
<path d="M34.9479 18.0657C25.5754 18.0657 17.9755 25.6656 17.9755 35.0381C17.9755 44.4106 25.5754 51.9999 34.9479 51.9999C44.3204 51.9999 51.9203 44.4 51.9203 35.0275C51.9203 25.655 44.3204 18.0657 34.9479 18.0657ZM36.4976 44.0922V45.1643C36.4976 46.024 35.8077 46.714 34.9479 46.714C34.0881 46.714 33.3982 46.024 33.3982 45.1643V44.0922C32.496 43.8162 31.6574 43.3174 30.9993 42.6168C30.4156 41.9906 30.4474 41.014 31.063 40.4302C31.6893 39.8464 32.634 39.9101 33.2496 40.4939C33.9289 41.1414 35.0541 41.2157 35.1071 41.2157C36.3066 41.1308 37.2618 40.1224 37.2618 38.9018C37.2618 37.628 36.2216 36.5772 34.9479 36.5772C31.9653 36.5772 29.5346 34.1465 29.5346 31.1639C29.5346 28.7119 31.1692 26.6421 33.3982 25.9734V24.9014C33.3982 24.0416 34.0881 23.3517 34.9479 23.3517C35.8077 23.3517 36.4976 24.0416 36.4976 24.9014V25.9734C37.3998 26.2494 38.2384 26.7483 38.8965 27.4488C39.4803 28.0751 39.4484 29.0516 38.8328 29.6354C38.2065 30.2192 37.1769 30.2404 36.6462 29.5717C36.0836 28.8605 34.8418 28.8499 34.7887 28.8499C33.5893 28.9348 32.634 29.9432 32.634 31.1639C32.634 32.4376 33.6742 33.4884 34.9479 33.4884C37.9306 33.4884 40.3613 35.9191 40.3613 38.9018C40.3613 41.3537 38.7266 43.4235 36.4976 44.0922Z" fill="#F1592A"/>
</svg>
