<svg width="52" height="48" viewBox="0 0 52 48" fill="none" xmlns="http://www.w3.org/2000/svg">
<path d="M38.1823 37.0073C35.6906 37.0072 33.6633 34.9801 33.6633 32.4884V24.9836C33.6633 22.4919 35.6906 20.4648 38.1823 20.4648H49.9572C50.0286 20.4648 50.0994 20.4669 50.17 20.4701V12.9942C50.17 11.0698 48.61 9.50977 46.6856 9.50977H3.4845C1.56001 9.50965 0 11.0697 0 12.994V44.4778C0 46.4022 1.56001 47.9623 3.4845 47.9623H46.6856C48.61 47.9623 50.17 46.4023 50.17 44.4778V37.0019C50.0994 37.0052 50.0286 37.0073 49.9572 37.0073H38.1823Z" fill="#F1592A"/>
<path d="M49.9572 22.9407H38.1823C37.0541 22.9407 36.1395 23.8553 36.1395 24.9834V32.4882C36.1395 33.6163 37.0541 34.531 38.1823 34.531H49.9572C51.0854 34.531 52 33.6165 52 32.4882V24.9834C52 23.8552 51.0854 22.9407 49.9572 22.9407ZM42.2397 31.6841C40.6113 31.6841 39.2913 30.3641 39.2913 28.7357C39.2913 27.1073 40.6113 25.7873 42.2397 25.7873C43.8681 25.7873 45.1882 27.1073 45.1882 28.7357C45.1882 30.3641 43.8681 31.6841 42.2397 31.6841Z" fill="#F1592A"/>
<path d="M40.6184 3.12696C39.8389 0.767447 37.2941 -0.513356 34.9347 0.266194L17.2329 6.11441H41.6054L40.6184 3.12696Z" fill="#F1592A"/>
</svg>
