<svg width="50" height="50" viewBox="0 0 50 50" fill="none" xmlns="http://www.w3.org/2000/svg">
<path d="M49.5318 20.1014C47.6542 10.2724 39.7281 2.34622 29.8991 0.46868C12.3163 -2.88982 -2.88982 12.3163 0.46868 29.8991C2.34632 39.728 10.2725 47.6542 20.1014 49.5318C37.6841 52.8903 52.8903 37.6841 49.5318 20.1014ZM36.5847 36.5847C35.9743 37.195 35.1748 37.5002 34.3752 37.5002C33.5756 37.5002 32.7761 37.195 32.1658 36.5847L22.7908 27.2097C22.2048 26.6238 21.8752 25.8303 21.8752 25.0002V12.5002C21.8752 10.7729 23.2744 9.37522 25.0002 9.37522C26.726 9.37522 28.1252 10.773 28.1252 12.5002V23.7063L36.5847 32.1658C37.8054 33.3865 37.8054 35.364 36.5847 36.5847Z" fill="#F1592A"/>
</svg>
