<svg width="15" height="20" viewBox="0 0 15 20" fill="none" xmlns="http://www.w3.org/2000/svg">
<path d="M7.44743 10.8128C9.30608 10.8128 10.8128 9.30609 10.8128 7.44743C10.8128 5.58877 9.30608 4.08203 7.44743 4.08203C5.58877 4.08203 4.08203 5.58877 4.08203 7.44743C4.08203 9.30609 5.58877 10.8128 7.44743 10.8128Z" fill="#F1592A"/>
<path d="M7.4476 20C7.4476 20 14.8951 11.5607 14.8951 7.4476C14.8951 3.33442 11.5608 0 7.4476 0C3.33442 0 0 3.33442 0 7.44756C0 11.5607 7.4476 20 7.4476 20ZM7.4476 2.30521C10.2872 2.30521 12.5896 4.60718 12.5896 7.44722C12.5896 10.2873 10.2872 12.5892 7.4476 12.5892C4.60794 12.5892 2.30563 10.2872 2.30563 7.44722C2.30563 4.60722 4.60794 2.30521 7.4476 2.30521Z" fill="#F1592A"/>
</svg>
