<svg width="20" height="20" viewBox="0 0 20 20" fill="none" xmlns="http://www.w3.org/2000/svg">
<path d="M19.7857 15.1679C19.0412 13.7604 16.4558 12.2344 16.342 12.1676C16.0098 11.9785 15.6631 11.8784 15.3387 11.8784C14.8563 11.8784 14.4614 12.0994 14.2223 12.5013C13.8441 12.9536 13.3751 13.4824 13.2612 13.5643C12.3803 14.162 11.6907 14.0941 10.9276 13.3311L6.66898 9.07207C5.91076 8.31384 5.84105 7.61569 6.43465 6.73956C6.5177 6.62499 7.04642 6.1556 7.49876 5.77705C7.78722 5.60538 7.98521 5.35029 8.07197 5.03736C8.18728 4.62099 8.10237 4.1312 7.83023 3.65402C7.76608 3.54428 6.23926 0.958536 4.83256 0.214404C4.57006 0.0753653 4.27418 0.00195312 3.97757 0.00195312C3.4889 0.00195312 3.02914 0.192528 2.68359 0.537714L1.74258 1.47835C0.254311 2.96625 -0.284416 4.65287 0.140485 6.49115C0.494939 8.02316 1.5279 9.65343 3.21119 11.3363L8.66334 16.7885C10.7938 18.9189 12.8249 19.9994 14.7002 19.9994C14.7002 19.9994 14.7002 19.9994 14.7006 19.9994C16.0798 19.9994 17.3657 19.4132 18.5213 18.2575L19.462 17.3168C20.0337 16.7455 20.1635 15.8816 19.7857 15.1679Z" fill="#F1592A"/>
</svg>
