<svg width="80" height="80" viewBox="0 0 80 80" fill="none" xmlns="http://www.w3.org/2000/svg">
<path fill-rule="evenodd" clip-rule="evenodd" d="M40 9.99992C23.4315 9.99992 10 23.4314 10 39.9999C10 56.5685 23.4315 69.9999 40 69.9999C56.5686 69.9999 70 56.5685 70 39.9999C70 23.4314 56.5686 9.99992 40 9.99992ZM3.33337 39.9999C3.33337 19.7495 19.7496 3.33325 40 3.33325C60.2505 3.33325 76.6667 19.7495 76.6667 39.9999C76.6667 60.2504 60.2505 76.6666 40 76.6666C19.7496 76.6666 3.33337 60.2504 3.33337 39.9999Z" fill="#F1592A"/>
<path fill-rule="evenodd" clip-rule="evenodd" d="M31.7605 23.7277C32.8443 23.1476 34.1595 23.2112 35.1823 23.8931L55.1823 37.2264C56.1097 37.8446 56.6667 38.8854 56.6667 39.9999C56.6667 41.1144 56.1097 42.1552 55.1823 42.7734L35.1823 56.1068C34.1595 56.7887 32.8443 56.8522 31.7605 56.2722C30.6766 55.6921 30 54.5626 30 53.3333V26.6666C30 25.4373 30.6766 24.3077 31.7605 23.7277ZM36.6667 32.895V47.1049L47.3241 39.9999L36.6667 32.895Z" fill="#F1592A"/>
</svg>
