<svg width="251" height="30" viewBox="0 0 251 30" fill="none" xmlns="http://www.w3.org/2000/svg">
<path d="M15 0L20.5546 7.35479L29.2658 10.3647L23.9875 17.9202L23.8168 27.1353L15 24.45L6.18322 27.1353L6.01252 17.9202L0.734152 10.3647L9.44543 7.35479L15 0Z" fill="#d8d8d8"/>
<path d="M70 0L75.5546 7.35479L84.2658 10.3647L78.9875 17.9202L78.8168 27.1353L70 24.45L61.1832 27.1353L61.0125 17.9202L55.7342 10.3647L64.4454 7.35479L70 0Z" fill="#d8d8d8"/>
<path d="M125.5 0L131.24 7.35479L140.241 10.3647L134.787 17.9202L134.611 27.1353L125.5 24.45L116.389 27.1353L116.213 17.9202L110.759 10.3647L119.76 7.35479L125.5 0Z" fill="#d8d8d8"/>
<path d="M181 0L186.555 7.35479L195.266 10.3647L189.987 17.9202L189.817 27.1353L181 24.45L172.183 27.1353L172.013 17.9202L166.734 10.3647L175.445 7.35479L181 0Z" fill="#d8d8d8"/>
<path d="M236 0L241.555 7.35479L250.266 10.3647L244.987 17.9202L244.817 27.1353L236 24.45L227.183 27.1353L227.013 17.9202L221.734 10.3647L230.445 7.35479L236 0Z" fill="#d8d8d8"/>
</svg>
