<svg width="20" height="20" viewBox="0 0 20 20" fill="none" xmlns="http://www.w3.org/2000/svg">
<path d="M19.8129 8.04046C19.0618 4.10886 15.8914 0.93839 11.9598 0.187374C4.92668 -1.15602 -1.15578 4.92644 0.187618 11.9595C0.938673 15.8911 4.10914 19.0616 8.0407 19.8126C15.0738 21.156 21.1563 15.0735 19.8129 8.04046ZM14.634 14.6338C14.3899 14.8779 14.0701 15 13.7502 15C13.4304 15 13.1106 14.8779 12.8664 14.6338L9.11645 10.8838C8.88207 10.6494 8.75024 10.332 8.75024 9.99999V4.99999C8.75024 4.30905 9.30992 3.74999 10.0002 3.74999C10.6905 3.74999 11.2502 4.30909 11.2502 4.99999V9.48241L14.634 12.8662C15.1223 13.3545 15.1223 14.1455 14.634 14.6338Z" fill="#F1592A"/>
</svg>
