<svg width="20" height="12" viewBox="0 0 20 12" fill="none" xmlns="http://www.w3.org/2000/svg">
<path d="M17.802 8.2982C17.802 8.2982 19.419 9.8952 19.819 10.6342C19.8268 10.6449 19.8329 10.6567 19.837 10.6692C20 10.9422 20.04 11.1562 19.96 11.3142C19.825 11.5752 19.368 11.7062 19.213 11.7172H16.355C16.156 11.7172 15.742 11.6652 15.238 11.3172C14.853 11.0482 14.47 10.6052 14.099 10.1722C13.545 9.5292 13.066 8.9712 12.581 8.9712C12.5197 8.97107 12.4589 8.98121 12.401 9.0012C12.034 9.1172 11.568 9.6402 11.568 11.0332C11.568 11.4692 11.224 11.7172 10.983 11.7172H9.674C9.228 11.7172 6.906 11.5612 4.847 9.3902C2.324 6.7322 0.0579985 1.4002 0.0359985 1.3532C-0.105002 1.0082 0.190998 0.820203 0.510998 0.820203H3.397C3.784 0.820203 3.91 1.0542 3.998 1.2642C4.1 1.5052 4.478 2.4692 5.098 3.5522C6.102 5.3142 6.719 6.0312 7.212 6.0312C7.30462 6.03148 7.39568 6.00733 7.476 5.9612C8.12 5.6072 8 3.3072 7.97 2.8332C7.97 2.7412 7.969 1.8062 7.639 1.3542C7.403 1.0302 7.001 0.904203 6.758 0.858203C6.823 0.764203 6.961 0.620203 7.138 0.535203C7.579 0.315203 8.376 0.283203 9.167 0.283203H9.606C10.464 0.295203 10.686 0.350203 10.998 0.429203C11.626 0.579203 11.638 0.986203 11.583 2.3722C11.567 2.7682 11.55 3.2142 11.55 3.7392C11.55 3.8512 11.545 3.9762 11.545 4.1032C11.526 4.8142 11.501 5.6152 12.003 5.9442C12.0681 5.98476 12.1433 6.00624 12.22 6.0062C12.394 6.0062 12.915 6.0062 14.328 3.5812C14.948 2.5102 15.428 1.2472 15.461 1.1522C15.489 1.0992 15.573 0.950203 15.675 0.890203C15.7476 0.851598 15.8288 0.832314 15.911 0.834203H19.306C19.676 0.834203 19.927 0.890203 19.976 1.0302C20.058 1.2572 19.96 1.9502 18.41 4.0462C18.149 4.3952 17.92 4.6972 17.719 4.9612C16.314 6.8052 16.314 6.8982 17.802 8.2982Z" fill="#F1592A"/>
</svg>
