<svg width="48" height="48" fill="none" xmlns="http://www.w3.org/2000/svg"><path d="M24 0C10.745 0 0 10.745 0 24c.015 13.249 10.751 23.985 24 24 13.255 0 24-10.745 24-24S37.255 0 24 0zm0 46.452C11.6 46.452 1.548 36.4 1.548 24 1.563 11.606 11.606 1.563 24 1.548 36.4 1.548 46.452 11.6 46.452 24 46.452 36.4 36.4 46.452 24 46.452z" fill="url(#paint0_linear)"/><path d="M38.71 23.226H24.774V9.29a.774.774 0 00-1.548 0v13.936H9.29a.774.774 0 000 1.548h13.936V38.71a.774.774 0 001.548 0V24.774H38.71a.774.774 0 000-1.548z" fill="url(#paint1_linear)"/><defs><linearGradient id="paint0_linear" x1="24" y1="0" x2="24" y2="48" gradientUnits="userSpaceOnUse"><stop offset=".094" stop-color="#5800AD"/><stop offset="1" stop-color="#E6048B"/></linearGradient><linearGradient id="paint1_linear" x1="24" y1="8.516" x2="24" y2="39.484" gradientUnits="userSpaceOnUse"><stop offset=".094" stop-color="#5800AD"/><stop offset="1" stop-color="#E6048B"/></linearGradient></defs></svg>