<svg width="32" height="32" viewBox="0 0 32 32" fill="none" xmlns="http://www.w3.org/2000/svg">
<path d="M21.3329 10.6667C21.3329 7.72116 18.9451 5.33334 15.9996 5.33334C13.0541 5.33334 10.6663 7.72116 10.6663 10.6667M27.1711 15.6348L25.9267 23.1014C25.7156 24.3681 25.6099 25.0013 25.2939 25.4766C25.0153 25.8955 24.6243 26.2272 24.1653 26.4331C23.6445 26.6667 23.0028 26.6667 21.7187 26.6667H10.2809C8.99677 26.6667 8.35499 26.6667 7.83425 26.4331C7.37522 26.2272 6.98381 25.8955 6.70523 25.4766C6.38919 25.0013 6.28329 24.3681 6.07218 23.1014L4.82774 15.6348C4.54286 13.9255 4.40022 13.0708 4.64761 12.4048C4.8647 11.8203 5.28039 11.3304 5.82123 11.0202C6.43755 10.6667 7.30324 10.6667 9.03607 10.6667H22.9628C24.6956 10.6667 25.5624 10.6667 26.1787 11.0202C26.7196 11.3304 27.1343 11.8203 27.3514 12.4048C27.5988 13.0708 27.456 13.9255 27.1711 15.6348Z" stroke="#303030" stroke-linecap="round" stroke-linejoin="round"/>
</svg>
