<svg width="16" height="20" viewBox="0 0 16 20" fill="none" xmlns="http://www.w3.org/2000/svg">
<path fill-rule="evenodd" clip-rule="evenodd" d="M8.00004 1.5C6.27436 1.5 4.62042 2.17803 3.40185 3.38321C2.18346 4.58821 1.5 6.22138 1.5 7.9231C1.5 10.2038 2.49936 12.318 3.76299 14.0749C5.02409 15.8283 6.51905 17.1846 7.43995 17.9386C7.73149 18.1773 7.78334 18.2094 7.86435 18.2322C7.93194 18.2512 8.06791 18.2512 8.13549 18.2322C8.21662 18.2094 8.26895 18.1771 8.56019 17.9386C9.48109 17.1846 10.976 15.8283 12.2371 14.0749C13.5006 12.318 14.5 10.2038 14.5 7.92306C14.5 6.22135 13.8165 4.58822 12.5982 3.38322C11.3796 2.17804 9.72572 1.5 8.00004 1.5ZM2.69866 2.67221C4.1056 1.28073 6.01269 0.5 8.00004 0.5C9.9874 0.5 11.8944 1.28075 13.3013 2.67222C14.7085 4.06389 15.5 5.95255 15.5 7.92306C15.5 10.4942 14.3771 12.812 13.0489 14.6588C11.7181 16.5091 10.1515 17.9281 9.19372 18.7123C9.18043 18.7232 9.16724 18.734 9.15411 18.7448C8.9216 18.9357 8.71017 19.1093 8.4065 19.1948C8.16169 19.2637 7.83816 19.2637 7.59335 19.1948C7.29002 19.1094 7.07885 18.936 6.84701 18.7456C6.83356 18.7346 6.82004 18.7235 6.80643 18.7123C5.84861 17.9281 4.28198 16.5091 2.95116 14.6588C1.62288 12.812 0.5 10.4942 0.5 7.9231C0.5 5.95258 1.29153 4.06387 2.69866 2.67221ZM8 5.5C7.17157 5.5 6.5 6.17157 6.5 7C6.5 7.82843 7.17157 8.5 8 8.5C8.82843 8.5 9.5 7.82843 9.5 7C9.5 6.17157 8.82843 5.5 8 5.5ZM5.5 7C5.5 5.61929 6.61929 4.5 8 4.5C9.38071 4.5 10.5 5.61929 10.5 7C10.5 8.38071 9.38071 9.5 8 9.5C6.61929 9.5 5.5 8.38071 5.5 7Z" fill="#303030"/>
</svg>
