<svg width="92" height="92" viewBox="0 0 92 92" fill="none" xmlns="http://www.w3.org/2000/svg">
<g clip-path="url(#clip0_232_6090)">
<path d="M89.8695 23.9319C88.8173 19.9793 86.5104 16.6337 82.5578 15.5815C75.3945 13.6659 45.9994 13.4905 45.9994 13.4905C45.9994 13.4905 16.6043 13.6659 9.44104 15.5815C5.48841 16.6337 3.19508 19.9793 2.12936 23.9319C0.213754 31.0952 0.132812 45.8669 0.132812 45.8669C0.132812 45.8669 0.213754 60.6387 2.12936 67.8019C3.18159 71.7546 5.48841 75.1001 9.44104 76.1524C16.6043 78.068 45.9994 78.2433 45.9994 78.2433C45.9994 78.2433 75.3945 78.068 82.5578 76.1524C86.5104 75.1001 88.8173 71.7546 89.8695 67.8019C91.7851 60.6387 91.866 45.8669 91.866 45.8669C91.866 45.8669 91.7851 31.0952 89.8695 23.9319Z" fill="#FF0000"/>
<path d="M60.839 45.8659L36.5566 32.3757V59.3561" fill="white"/>
</g>
<defs>
<clipPath id="clip0_232_6090">
<rect width="91.7332" height="91.7332" fill="white" transform="translate(0.132812 -0.00012207)"/>
</clipPath>
</defs>
</svg>
