<svg width="89" height="16" viewBox="0 0 89 16" fill="none" xmlns="http://www.w3.org/2000/svg">
<g clip-path="url(#clip0_771_7865)">
<g opacity="0.5">
<path d="M8.06169 0.332764L10.513 5.43535L16.1234 6.18993L12.0281 10.0981L13.0441 15.667L8.06169 12.9798L3.07929 15.667L4.09534 10.0981L0 6.18993L5.61035 5.43535L8.06169 0.332764Z" fill="#D7BC89"/>
<path d="M26.1847 0.332764L28.6361 5.43535L34.2464 6.18993L30.1511 10.0981L31.1671 15.667L26.1847 12.9798L21.2023 15.667L22.2183 10.0981L18.123 6.18993L23.7334 5.43535L26.1847 0.332764Z" fill="#D7BC89"/>
<path d="M44.3078 0.332764L46.7591 5.43535L52.3694 6.18993L48.2741 10.0981L49.2902 15.667L44.3078 12.9798L39.3254 15.667L40.3414 10.0981L36.2461 6.18993L41.8564 5.43535L44.3078 0.332764Z" fill="#D7BC89"/>
<path d="M62.4328 0.332764L64.8838 5.43535L70.4946 6.18993L66.3991 10.0981L67.415 15.667L62.4328 12.9798L57.4504 15.667L58.4664 10.0981L54.3711 6.18993L59.9814 5.43535L62.4328 0.332764Z" fill="#D7BC89"/>
<path d="M80.556 0.332764L83.007 5.43535L88.6179 6.18993L84.5224 10.0981L85.5383 15.667L80.556 12.9798L75.5737 15.667L76.5896 10.0981L72.4941 6.18993L78.105 5.43535L80.556 0.332764Z" fill="#D7BC89"/>
</g>
<path d="M8.06169 0.332764L10.513 5.43535L16.1234 6.18993L12.0281 10.0981L13.0441 15.667L8.06169 12.9798L3.07929 15.667L4.09534 10.0981L0 6.18993L5.61035 5.43535L8.06169 0.332764Z" fill="#D7BC89"/>
<path d="M26.1847 0.332764L28.6361 5.43535L34.2464 6.18993L30.1511 10.0981L31.1671 15.667L26.1847 12.9798L21.2023 15.667L22.2183 10.0981L18.123 6.18993L23.7334 5.43535L26.1847 0.332764Z" fill="#D7BC89"/>
<path d="M44.3078 0.332764L46.7591 5.43535L52.3694 6.18993L48.2741 10.0981L49.2902 15.667L44.3078 12.9798L39.3254 15.667L40.3414 10.0981L36.2461 6.18993L41.8564 5.43535L44.3078 0.332764Z" fill="#D7BC89"/>
<path d="M62.4328 0.332764L64.8838 5.43535L70.4946 6.18993L66.3991 10.0981L67.415 15.667L62.4328 12.9798L57.4504 15.667L58.4664 10.0981L54.3711 6.18993L59.9814 5.43535L62.4328 0.332764Z" fill="#D7BC89"/>
<path d="M80.556 0.332764L83.007 5.43535L88.6179 6.18993L84.5224 10.0981L85.5383 15.667L80.556 12.9798L75.5737 15.667L76.5896 10.0981L72.4941 6.18993L78.105 5.43535L80.556 0.332764Z" fill="#D7BC89"/>
</g>
<defs>
<clipPath id="clip0_771_7865">
<rect width="88.6173" height="15.3342" fill="white" transform="translate(0 0.332764)"/>
</clipPath>
</defs>
</svg>
