<svg width="14" height="8" viewBox="0 0 14 8" fill="none" xmlns="http://www.w3.org/2000/svg">
<path d="M13.6402 1.87369C14.0645 1.52013 14.1218 0.889561 13.7682 0.465284C13.4147 0.0410075 12.7841 -0.0163164 12.3598 0.337247L13.6402 1.87369ZM1.64018 0.337247C1.21591 -0.0163164 0.585342 0.0410075 0.231779 0.465284C-0.121785 0.889561 -0.0644617 1.52013 0.359816 1.87369L1.64018 0.337247ZM7 6.10547L6.35982 6.87369L7 7.40718L7.64018 6.87369L7 6.10547ZM12.3598 0.337247L6.35982 5.33725L7.64018 6.87369L13.6402 1.87369L12.3598 0.337247ZM7.64018 5.33725L1.64018 0.337247L0.359816 1.87369L6.35982 6.87369L7.64018 5.33725Z" fill="#458BF4"/>
</svg>
