<svg width="34" height="34" viewBox="0 0 34 34" fill="none" xmlns="http://www.w3.org/2000/svg">
<path d="M29.7507 19.834V21.2507C29.7507 23.9565 28.2348 26.3082 25.9965 27.4982L26.9173 31.1673H24.084L23.3757 28.334H10.6257L9.91732 31.1673H7.08398L8.00482 27.4982C6.87033 26.8963 5.92134 25.9967 5.25987 24.8959C4.59841 23.7951 4.2495 22.5349 4.25065 21.2507V19.834H2.83398V17.0007H28.334V7.08398C28.334 6.70826 28.1847 6.34793 27.9191 6.08225C27.6534 5.81657 27.293 5.66732 26.9173 5.66732C26.209 5.66732 25.6707 6.14898 25.5007 6.78648C26.3932 7.55148 26.9173 8.68482 26.9173 9.91732H18.4173C18.4173 8.79015 18.8651 7.70914 19.6621 6.91211C20.4591 6.11508 21.5401 5.66732 22.6673 5.66732H22.9082C23.489 4.02398 25.0615 2.83398 26.9173 2.83398C28.0445 2.83398 29.1255 3.28175 29.9225 4.07878C30.7196 4.87581 31.1673 5.95681 31.1673 7.08398V19.834H29.7507ZM26.9173 19.834H7.08398V21.2507C7.08398 22.3778 7.53175 23.4588 8.32878 24.2559C9.12581 25.0529 10.2068 25.5007 11.334 25.5007H22.6673C23.7945 25.5007 24.8755 25.0529 25.6725 24.2559C26.4696 23.4588 26.9173 22.3778 26.9173 21.2507V19.834Z" fill="#AAE250"/>
</svg>
