<svg width="49" height="49" viewBox="0 0 49 49" fill="none" xmlns="http://www.w3.org/2000/svg">
<path d="M42.75 30.3322V8.37494C42.75 6.22116 40.9975 4.46869 38.8438 4.46869H37.2812V2.90619C37.2812 1.61377 36.2299 0.562439 34.9375 0.562439C33.6451 0.562439 32.5938 1.61377 32.5938 2.90619V4.46869H28.6875V2.90619C28.6875 1.61377 27.6362 0.562439 26.3438 0.562439C25.0513 0.562439 24 1.61377 24 2.90619V4.46869H19.3125V2.90619C19.3125 1.61377 18.2612 0.562439 16.9688 0.562439C15.6763 0.562439 14.625 1.61377 14.625 2.90619V4.46869H10.7188V2.90619C10.7188 1.61377 9.66742 0.562439 8.375 0.562439C7.08258 0.562439 6.03125 1.61377 6.03125 2.90619V4.46869H4.46875C2.31497 4.46869 0.5625 6.22116 0.5625 8.37494V39.6249C0.5625 41.7787 2.31497 43.5312 4.46875 43.5312H30.7371C32.3611 46.3287 35.3825 48.2187 38.8438 48.2187C44.0134 48.2187 48.2188 44.0134 48.2188 38.8437C48.2188 35.0691 45.9722 31.8171 42.75 30.3322ZM34.1562 2.90619C34.1562 2.47513 34.5064 2.12494 34.9375 2.12494C35.3686 2.12494 35.7188 2.47513 35.7188 2.90619V7.59369C35.7188 8.02475 35.3686 8.37494 34.9375 8.37494C34.5064 8.37494 34.1562 8.02475 34.1562 7.59369V2.90619ZM25.5625 2.90619C25.5625 2.47513 25.9127 2.12494 26.3438 2.12494C26.7748 2.12494 27.125 2.47513 27.125 2.90619V7.59369C27.125 8.02475 26.7748 8.37494 26.3438 8.37494C25.9127 8.37494 25.5625 8.02475 25.5625 7.59369V2.90619ZM16.1875 2.90619C16.1875 2.47513 16.5377 2.12494 16.9688 2.12494C17.3998 2.12494 17.75 2.47513 17.75 2.90619V7.59369C17.75 8.02475 17.3998 8.37494 16.9688 8.37494C16.5377 8.37494 16.1875 8.02475 16.1875 7.59369V2.90619ZM7.59375 2.90619C7.59375 2.47513 7.94394 2.12494 8.375 2.12494C8.80606 2.12494 9.15625 2.47513 9.15625 2.90619V7.59369C9.15625 8.02475 8.80606 8.37494 8.375 8.37494C7.94394 8.37494 7.59375 8.02475 7.59375 7.59369V2.90619ZM4.46875 6.03119H6.03125V7.59369C6.03125 8.88611 7.08258 9.93744 8.375 9.93744C9.66742 9.93744 10.7188 8.88611 10.7188 7.59369V6.03119H14.625V7.59369C14.625 8.88611 15.6763 9.93744 16.9688 9.93744C18.2612 9.93744 19.3125 8.88611 19.3125 7.59369V6.03119H24V7.59369C24 8.88611 25.0513 9.93744 26.3438 9.93744C27.6362 9.93744 28.6875 8.88611 28.6875 7.59369V6.03119H32.5938V7.59369C32.5938 8.88611 33.6451 9.93744 34.9375 9.93744C36.2299 9.93744 37.2812 8.88611 37.2812 7.59369V6.03119H38.8438C40.1362 6.03119 41.1875 7.08252 41.1875 8.37494V12.2812H2.125V8.37494C2.125 7.08252 3.17633 6.03119 4.46875 6.03119ZM4.46875 41.9687C3.17633 41.9687 2.125 40.9174 2.125 39.6249V13.8437H41.1875V29.7772C40.4369 29.5829 39.6543 29.4687 38.8438 29.4687C38.3103 29.4687 37.7906 29.5238 37.2812 29.6098V25.5624C37.2812 25.1306 36.9318 24.7812 36.5 24.7812H31.8125C31.3807 24.7812 31.0312 25.1306 31.0312 25.5624V30.2499C31.0312 30.6818 31.3807 31.0312 31.8125 31.0312H33.6725C31.142 32.7117 29.4688 35.5846 29.4688 38.8437C29.4688 39.9407 29.6679 40.9895 30.0156 41.9687H4.46875ZM35.7188 29.4687H32.5938V26.3437H35.7188V29.4687ZM38.8438 46.6562C34.5362 46.6562 31.0312 43.1512 31.0312 38.8437C31.0312 34.5361 34.5362 31.0312 38.8438 31.0312C43.1513 31.0312 46.6562 34.5361 46.6562 38.8437C46.6562 43.1512 43.1513 46.6562 38.8438 46.6562Z" fill="#AAE250"/>
<path d="M39.625 37.4979V32.5937H38.0625V37.4979C37.5974 37.7686 37.2812 38.2668 37.2812 38.8437C37.2812 38.9228 37.2932 38.9987 37.3045 39.0746L34.4492 41.3583L35.4258 42.579L38.2786 40.2968C38.4543 40.3652 38.6439 40.4062 38.8438 40.4062C39.7067 40.4062 40.4062 39.7066 40.4062 38.8437C40.4062 38.2668 40.0901 37.7686 39.625 37.4979Z" fill="#AAE250"/>
<path d="M10.7188 16.1874H6.03125C5.59943 16.1874 5.25 16.5369 5.25 16.9687V21.6562C5.25 22.088 5.59943 22.4374 6.03125 22.4374H10.7188C11.1506 22.4374 11.5 22.088 11.5 21.6562V16.9687C11.5 16.5369 11.1506 16.1874 10.7188 16.1874ZM9.9375 20.8749H6.8125V17.7499H9.9375V20.8749Z" fill="#AAE250"/>
<path d="M19.3125 16.1874H14.625C14.1932 16.1874 13.8438 16.5369 13.8438 16.9687V21.6562C13.8438 22.088 14.1932 22.4374 14.625 22.4374H19.3125C19.7443 22.4374 20.0938 22.088 20.0938 21.6562V16.9687C20.0938 16.5369 19.7443 16.1874 19.3125 16.1874ZM18.5312 20.8749H15.4062V17.7499H18.5312V20.8749Z" fill="#AAE250"/>
<path d="M27.9062 16.1874H23.2188C22.7869 16.1874 22.4375 16.5369 22.4375 16.9687V21.6562C22.4375 22.088 22.7869 22.4374 23.2188 22.4374H27.9062C28.3381 22.4374 28.6875 22.088 28.6875 21.6562V16.9687C28.6875 16.5369 28.3381 16.1874 27.9062 16.1874ZM27.125 20.8749H24V17.7499H27.125V20.8749Z" fill="#AAE250"/>
<path d="M31.8125 22.4374H36.5C36.9318 22.4374 37.2812 22.088 37.2812 21.6562V16.9687C37.2812 16.5369 36.9318 16.1874 36.5 16.1874H31.8125C31.3807 16.1874 31.0312 16.5369 31.0312 16.9687V21.6562C31.0312 22.088 31.3807 22.4374 31.8125 22.4374ZM32.5938 17.7499H35.7188V20.8749H32.5938V17.7499Z" fill="#AAE250"/>
<path d="M10.7188 24.7812H6.03125C5.59943 24.7812 5.25 25.1306 5.25 25.5624V30.2499C5.25 30.6818 5.59943 31.0312 6.03125 31.0312H10.7188C11.1506 31.0312 11.5 30.6818 11.5 30.2499V25.5624C11.5 25.1306 11.1506 24.7812 10.7188 24.7812ZM9.9375 29.4687H6.8125V26.3437H9.9375V29.4687Z" fill="#AAE250"/>
<path d="M19.3125 24.7812H14.625C14.1932 24.7812 13.8438 25.1306 13.8438 25.5624V30.2499C13.8438 30.6818 14.1932 31.0312 14.625 31.0312H19.3125C19.7443 31.0312 20.0938 30.6818 20.0938 30.2499V25.5624C20.0938 25.1306 19.7443 24.7812 19.3125 24.7812ZM18.5312 29.4687H15.4062V26.3437H18.5312V29.4687Z" fill="#AAE250"/>
<path d="M27.9062 24.7812H23.2188C22.7869 24.7812 22.4375 25.1306 22.4375 25.5624V30.2499C22.4375 30.6818 22.7869 31.0312 23.2188 31.0312H27.9062C28.3381 31.0312 28.6875 30.6818 28.6875 30.2499V25.5624C28.6875 25.1306 28.3381 24.7812 27.9062 24.7812ZM27.125 29.4687H24V26.3437H27.125V29.4687Z" fill="#AAE250"/>
<path d="M10.7188 33.3749H6.03125C5.59943 33.3749 5.25 33.7244 5.25 34.1562V38.8437C5.25 39.2755 5.59943 39.6249 6.03125 39.6249H10.7188C11.1506 39.6249 11.5 39.2755 11.5 38.8437V34.1562C11.5 33.7244 11.1506 33.3749 10.7188 33.3749ZM9.9375 38.0624H6.8125V34.9374H9.9375V38.0624Z" fill="#AAE250"/>
<path d="M19.3125 33.3749H14.625C14.1932 33.3749 13.8438 33.7244 13.8438 34.1562V38.8437C13.8438 39.2755 14.1932 39.6249 14.625 39.6249H19.3125C19.7443 39.6249 20.0938 39.2755 20.0938 38.8437V34.1562C20.0938 33.7244 19.7443 33.3749 19.3125 33.3749ZM18.5312 38.0624H15.4062V34.9374H18.5312V38.0624Z" fill="#AAE250"/>
<path d="M27.9062 33.3749H23.2188C22.7869 33.3749 22.4375 33.7244 22.4375 34.1562V38.8437C22.4375 39.2755 22.7869 39.6249 23.2188 39.6249H27.9062C28.3381 39.6249 28.6875 39.2755 28.6875 38.8437V34.1562C28.6875 33.7244 28.3381 33.3749 27.9062 33.3749ZM27.125 38.0624H24V34.9374H27.125V38.0624Z" fill="#AAE250"/>
</svg>
