<svg width="16" height="20" viewBox="0 0 16 20" fill="none" xmlns="http://www.w3.org/2000/svg">
<path d="M1.73514 17.3922C3.94295 19.6 7.53826 19.6 9.74373 17.3922L15.8609 11.2797C15.9008 11.2398 15.9219 11.1859 15.9219 11.1297C15.9219 11.0734 15.9008 11.0195 15.8609 10.9797L14.9961 10.1148C14.9565 10.0755 14.903 10.0534 14.8472 10.0534C14.7915 10.0534 14.7379 10.0755 14.6984 10.1148L8.58123 16.2273C7.82185 16.9867 6.8117 17.4039 5.73826 17.4039C4.66482 17.4039 3.65467 16.9867 2.89763 16.2273C2.13826 15.468 1.72107 14.4578 1.72107 13.3867C1.72107 12.3133 2.13826 11.3055 2.89764 10.5461L9.13201 4.31405L10.1422 3.30389C11.0867 2.35936 12.6219 2.35936 13.5664 3.30389C14.0234 3.76093 14.2742 4.36796 14.2742 5.01483C14.2742 5.66171 14.0234 6.26874 13.5664 6.72577L7.38123 12.9086C7.2242 13.0633 7.01795 13.15 6.79764 13.15L6.79529 13.15C6.57498 13.15 6.37107 13.0633 6.21639 12.9086C6.05935 12.7515 5.97498 12.5453 5.97498 12.325C5.97498 12.107 6.0617 11.9008 6.21639 11.7461L11.2719 6.6953C11.3117 6.65546 11.3328 6.60155 11.3328 6.5453C11.3328 6.48905 11.3117 6.43514 11.2719 6.3953L10.407 5.53046C10.3675 5.4911 10.314 5.469 10.2582 5.469C10.2024 5.469 10.1489 5.4911 10.1094 5.53046L5.05623 10.5836C4.58982 11.05 4.33435 11.6687 4.33435 12.3273C4.33435 12.9859 4.59217 13.607 5.05623 14.0711C6.01951 15.0344 7.58514 15.032 8.54842 14.0711L9.14842 13.4687L14.7312 7.88827C15.1101 7.51158 15.4105 7.06341 15.6149 6.56976C15.8193 6.0761 15.9236 5.54678 15.9219 5.01249C15.9219 3.92733 15.4976 2.9078 14.7312 2.14139C13.9367 1.34921 12.8961 0.953113 11.8554 0.953113C10.8148 0.953113 9.7742 1.34921 8.98201 2.14139L1.73514 9.38358C0.66873 10.4523 0.0781042 11.875 0.078104 13.3867C0.0757602 14.9008 0.666385 16.3234 1.73514 17.3922Z" fill="#595959"/>
</svg>
