<svg width="21" height="25" viewBox="0 0 21 25" fill="none" xmlns="http://www.w3.org/2000/svg">
<path d="M10.5 1.29199C8.17936 1.29199 5.95376 2.21386 4.31282 3.85481C2.67187 5.49575 1.75 7.72135 1.75 10.042C1.75 12.1114 2.19042 13.4662 3.39063 14.9639L10.5 23.167L17.6094 14.9639C18.8096 13.4662 19.25 12.1114 19.25 10.042C19.25 7.72135 18.3281 5.49575 16.6872 3.85481C15.0462 2.21386 12.8206 1.29199 10.5 1.29199V1.29199Z" stroke="#F28057" stroke-width="2" stroke-linecap="round" stroke-linejoin="round"/>
<path d="M10.5013 11.5007C11.3067 11.5007 11.9596 10.8477 11.9596 10.0423C11.9596 9.2369 11.3067 8.58398 10.5013 8.58398C9.69589 8.58398 9.04297 9.2369 9.04297 10.0423C9.04297 10.8477 9.69589 11.5007 10.5013 11.5007Z" fill="#F28057" stroke="#F28057" stroke-width="2" stroke-linecap="round" stroke-linejoin="round"/>
</svg>
