<svg width="21" height="15" viewBox="0 0 21 15" fill="none" xmlns="http://www.w3.org/2000/svg">
<path d="M19.486 0.046875H1.514C1.34455 0.0470736 1.18209 0.114495 1.06229 0.234342C0.942492 0.354188 0.875135 0.51667 0.875003 0.686125V1.97213C0.875003 2.03138 0.939253 2.09938 0.991753 2.12688L10.4383 7.52262C10.4625 7.53645 10.4899 7.54361 10.5178 7.54338C10.5462 7.54345 10.5742 7.53585 10.5988 7.52138L19.7598 2.13213C19.8113 2.10338 19.9478 2.02738 19.999 1.99238C20.061 1.95013 20.125 1.91188 20.125 1.83613V0.685875C20.1248 0.516463 20.0574 0.354046 19.9376 0.234253C19.8178 0.114461 19.6554 0.0470735 19.486 0.046875ZM20.0453 3.91113C20.0207 3.8971 19.9928 3.88981 19.9645 3.88998C19.9362 3.89016 19.9084 3.8978 19.884 3.91213L14.6998 6.96238C14.6791 6.97441 14.6614 6.99095 14.648 7.01075C14.6346 7.03056 14.6259 7.05312 14.6224 7.07678C14.6189 7.10043 14.6208 7.12457 14.6279 7.14739C14.635 7.17022 14.6472 7.19114 14.6635 7.20862L19.8485 12.7979C19.8634 12.814 19.8814 12.8269 19.9015 12.8357C19.9216 12.8444 19.9433 12.8489 19.9653 12.8489C20.0076 12.8488 20.0482 12.832 20.0781 12.802C20.1081 12.7721 20.1249 12.7315 20.125 12.6891V4.04988C20.1251 4.02177 20.1178 3.99414 20.1038 3.96977C20.0898 3.94541 20.0696 3.92518 20.0453 3.91113ZM13.2058 7.98663C13.1811 7.95982 13.1481 7.94227 13.1121 7.9369C13.0761 7.93154 13.0394 7.93867 13.008 7.95713L10.93 9.17988C10.8083 9.25022 10.6703 9.28769 10.5297 9.28862C10.3891 9.28954 10.2507 9.25387 10.128 9.18513L8.29925 8.14038C8.26973 8.12356 8.23562 8.11658 8.20186 8.12045C8.16811 8.12431 8.13646 8.13882 8.1115 8.16187L1.167 14.6034C1.1488 14.6204 1.13482 14.6414 1.12618 14.6648C1.11755 14.6882 1.11449 14.7133 1.11726 14.738C1.12003 14.7628 1.12854 14.7866 1.14213 14.8075C1.15571 14.8284 1.17399 14.8458 1.1955 14.8584C1.3035 14.9219 1.40775 14.9521 1.51375 14.9521H19.302C19.3331 14.9522 19.3636 14.9431 19.3896 14.926C19.4156 14.9089 19.436 14.8845 19.4483 14.8559C19.4607 14.8274 19.4646 14.7959 19.4593 14.7653C19.4541 14.7347 19.44 14.7063 19.4188 14.6836L13.2058 7.98663ZM6.5835 7.39988C6.6019 7.38287 6.61603 7.36178 6.62477 7.3383C6.63351 7.31483 6.6366 7.28962 6.63381 7.26473C6.63101 7.23984 6.62239 7.21595 6.60866 7.195C6.59493 7.17405 6.57646 7.15662 6.55475 7.14412L1.11325 4.03613C1.08897 4.02234 1.06149 4.01517 1.03356 4.01533C1.00564 4.0155 0.978246 4.02299 0.954126 4.03706C0.930005 4.05113 0.910002 4.07129 0.896117 4.09552C0.882231 4.11975 0.874951 4.1472 0.875003 4.17513V12.3301C0.874826 12.3613 0.883787 12.3918 0.900776 12.4179C0.917764 12.444 0.942035 12.4645 0.970584 12.477C0.999133 12.4894 1.03071 12.4933 1.0614 12.4879C1.09209 12.4826 1.12055 12.4684 1.14325 12.4471L6.5835 7.39988Z" fill="#F28057"/>
</svg>
