<svg width="50" height="50" viewBox="0 0 50 50" fill="none" xmlns="http://www.w3.org/2000/svg">
<g clip-path="url(#clip0_2_260)">
<path d="M30.8791 11.4863H30.9375C30.9376 11.4863 30.8921 11.372 30.8791 11.4863Z" fill="#AAE250"/>
<path d="M16.7715 11.4863H16.8299C16.8169 11.372 16.7715 11.4863 16.7715 11.4863Z" fill="#AAE250"/>
<path d="M44.97 15.0826C44.6422 14.5593 44.1302 14.1949 43.5285 14.0566L40.3589 13.3283L41.8223 12.9186C43.0349 12.5793 43.7655 11.2842 43.4256 10.0693C43.0861 8.85672 41.7912 8.12634 40.5761 8.46609L33.7523 10.376C33.5747 10.0527 33.3221 9.77605 33.0178 9.57019C34.4026 6.99295 36.3978 2.61941 36.3978 0.737868C36.3978 0.278981 35.964 -0.0760969 35.5139 0.0146258C32.8058 0.561696 30.2809 0.814138 27.798 0.787087C25.2459 0.759059 22.0696 0.442067 20.0739 0.016286C19.4569 -0.115355 18.9618 0.575075 19.2872 1.11746C19.7735 1.928 20.0715 2.78504 20.2352 3.64881C17.7304 3.72556 15.1329 3.42205 13.1669 2.43894C12.6373 2.1741 12.0122 2.63748 12.1091 3.22019C12.7274 6.92986 13.9749 9.10486 15.2256 10.7481H15.1978C13.9231 10.7481 12.886 11.7852 12.886 13.0599C12.886 14.2323 13.7635 15.2029 14.8959 15.3514C14.0704 16.7341 12.8915 18.0459 11.6528 19.4224C9.01873 22.3498 6.03309 25.6677 5.02859 31.0251C4.54793 33.5885 4.56395 35.987 5.07635 38.1542C5.55467 40.1774 6.4657 42.0088 7.78397 43.5972C9.53387 45.7058 11.9381 47.3419 14.9297 48.4602C17.6245 49.4676 20.7107 50 23.8549 50C26.999 50 30.0853 49.4676 32.7801 48.4602C35.7717 47.3419 38.1759 45.7057 39.9258 43.5972C41.244 42.0088 42.1551 40.1775 42.6334 38.1542C43.1457 35.987 43.1618 33.5884 42.6811 31.0251C41.6766 25.6678 38.6911 22.3499 36.057 19.4225C35.1628 18.4287 34.312 17.4811 33.5987 16.5194L42.4931 18.563C43.4354 18.7795 44.4395 18.3673 44.96 17.553C45.4364 16.8075 45.4392 15.8314 44.97 15.0826ZM27.7818 2.26258C30.0536 2.28738 32.3528 2.08875 34.7814 1.65593C34.3361 3.47654 32.9061 6.71463 31.5498 9.18132C30.6098 9.25212 29.8253 9.88709 29.5345 10.748H27.486C27.4397 10.6483 27.3885 10.539 27.3313 10.4177C26.6979 9.07117 25.3798 6.26941 25.3798 3.88582C25.3798 3.42761 24.9471 3.07234 24.4972 3.16238C23.6387 3.33416 22.694 3.47312 21.7111 3.56023C21.6081 2.94461 21.4482 2.328 21.2158 1.72156C23.1982 2.0284 25.6954 2.23963 27.7818 2.26258ZM32.5611 11.4857V14.6338C32.5611 15.0948 32.186 15.47 31.7249 15.47C31.2637 15.47 30.8887 15.0949 30.8887 14.6338V11.4857C30.8887 11.0246 31.2637 10.6495 31.7249 10.6495C32.186 10.6495 32.5611 11.0247 32.5611 11.4857ZM13.829 4.3072C15.6735 4.93679 17.9426 5.21599 20.393 5.12986L21.8554 5.03748C22.5451 4.9742 23.2449 4.88308 23.9499 4.76384C24.18 7.04646 25.2227 9.39197 25.8563 10.748H20.9435H19.3914H17.1086C17.0921 10.7221 17.0743 10.6968 17.0543 10.6725C15.8202 9.18787 14.5679 7.47058 13.829 4.3072ZM34.96 20.4094C37.4644 23.1924 40.3026 26.3467 41.2309 31.2968C42.0851 35.8526 41.2639 39.6739 38.7902 42.6545C35.74 46.3298 30.1567 48.5241 23.855 48.5241C17.5532 48.5241 11.9698 46.3299 8.91961 42.6546C6.44588 39.674 5.62479 35.8527 6.47889 31.2969C7.40711 26.3467 10.2455 23.1923 12.7498 20.4094C14.2471 18.7452 15.6618 17.1712 16.5684 15.3717H18.3704C18.778 15.3717 19.1082 15.0413 19.1082 14.6339C19.1082 14.2263 18.7779 13.8961 18.3704 13.8961H15.1977C14.7366 13.8961 14.3615 13.521 14.3615 13.0598C14.3615 12.5987 14.7366 12.2236 15.1977 12.2236H29.413V13.896H21.8872C21.4796 13.896 21.1494 14.2263 21.1494 14.6338C21.1494 15.0412 21.4797 15.3716 21.8872 15.3716H29.5344C29.843 16.2854 30.708 16.9456 31.7248 16.9456C31.8423 16.9456 31.9575 16.9366 32.0704 16.9197C32.8938 18.1108 33.8975 19.2287 34.96 20.4094ZM34.0368 11.8287L40.9738 9.88718C41.4131 9.76404 41.8818 10.0287 42.0045 10.4671C42.1273 10.9064 41.8632 11.375 41.4246 11.4976L37.4601 12.6072C37.4278 12.6163 37.3969 12.628 37.367 12.641L34.0368 11.8759V11.8287ZM43.8258 16.4969C43.7224 16.9463 43.2736 17.228 42.8235 17.1246L33.9904 15.0951C34.0207 14.946 34.0367 14.7917 34.0367 14.6337V13.3897L43.1979 15.4946C43.642 15.5967 43.9278 16.0524 43.8258 16.4969Z" fill="#AAE250"/>
<path d="M28.5766 30.3239C29.6343 30.3239 30.4949 29.4633 30.4949 28.4055V27.225C30.4949 24.4645 28.4359 22.176 25.7729 21.8149V20.5355C25.7729 19.4778 24.9123 18.6171 23.8545 18.6171C22.7968 18.6171 21.9361 19.4777 21.9361 20.5355V21.9125C19.2021 22.5224 17.2141 24.953 17.2141 27.8153C17.2141 31.1513 19.9281 33.8654 23.2642 33.8654H24.4446C25.665 33.8654 26.6581 34.8582 26.6581 36.0788C26.6581 37.2994 25.6651 38.2923 24.4446 38.2923H22.6738C21.7787 38.2923 21.0506 37.5641 21.0506 36.6691C21.0506 35.6114 20.19 34.7507 19.1322 34.7507C18.0745 34.7507 17.2139 35.6113 17.2139 36.6691C17.2139 39.4296 19.2729 41.7181 21.9359 42.0792V43.3586C21.9359 44.4163 22.7965 45.277 23.8543 45.277C24.912 45.277 25.7727 44.4164 25.7727 43.3586V41.9816C28.5067 41.3717 30.4947 38.9411 30.4947 36.0788C30.4947 32.7428 27.7807 30.0287 24.4446 30.0287H23.2642C22.0438 30.0287 21.0507 29.0359 21.0507 27.8153C21.0507 26.5947 22.0437 25.6018 23.2642 25.6018H25.035C25.9301 25.6018 26.6582 26.33 26.6582 27.225V28.4055C26.6582 29.4632 27.5188 30.3239 28.5766 30.3239ZM25.0351 24.1262H23.2643C21.2301 24.1262 19.5752 25.7811 19.5752 27.8153C19.5752 29.8495 21.2301 31.5043 23.2643 31.5043H24.4447C26.9672 31.5043 29.0192 33.5565 29.0192 36.0788C29.0192 38.4127 27.2713 40.3667 24.9536 40.6243C24.58 40.6658 24.2973 40.9816 24.2973 41.3576V43.3586C24.2973 43.6027 24.0986 43.8013 23.8546 43.8013C23.6105 43.8013 23.4119 43.6027 23.4119 43.3586V41.3911C23.4119 40.9836 23.0816 40.6534 22.6741 40.6534C20.4771 40.6534 18.6899 38.8661 18.6899 36.6692C18.6899 36.4251 18.8886 36.2265 19.1326 36.2265C19.3767 36.2265 19.5753 36.4251 19.5753 36.6692C19.5753 38.3779 20.9654 39.768 22.6741 39.768H24.4449C26.4791 39.768 28.134 38.1131 28.134 36.0789C28.134 34.0448 26.4791 32.3899 24.4449 32.3899H23.2645C20.742 32.3899 18.6899 30.3377 18.6899 27.8154C18.6899 25.4815 20.4379 23.5275 22.7556 23.27C23.1292 23.2285 23.4119 22.9126 23.4119 22.5367V20.5356C23.4119 20.2915 23.6105 20.0929 23.8546 20.0929C24.0986 20.0929 24.2973 20.2915 24.2973 20.5356V22.5031C24.2973 22.9106 24.6275 23.2409 25.0351 23.2409C27.232 23.2409 29.0192 25.0282 29.0192 27.225V28.4055C29.0192 28.6495 28.8206 28.8482 28.5766 28.8482C28.3325 28.8482 28.1339 28.6495 28.1339 28.4055V27.225C28.1339 25.5163 26.7438 24.1262 25.0351 24.1262Z" fill="#AAE250"/>
</g>
<defs>
<clipPath id="clip0_2_260">
<rect width="50" height="50" fill="white"/>
</clipPath>
</defs>
</svg>
