<svg width="34" height="34" viewBox="0 0 34 34" fill="none" xmlns="http://www.w3.org/2000/svg">
<path d="M8.50065 24.084H10.6257V21.959H23.3757V24.084H25.5007V18.2048C25.5007 17.4965 25.3056 16.8647 24.9156 16.3093C24.5265 15.7549 24.0132 15.3479 23.3757 15.0882V12.7507C23.3757 11.9715 23.0985 11.3042 22.5441 10.7489C21.9887 10.1945 21.3215 9.91732 20.5423 9.91732H13.459C12.6798 9.91732 12.013 10.1945 11.4587 10.7489C10.9033 11.3042 10.6257 11.9715 10.6257 12.7507V15.0882C9.98815 15.3479 9.47437 15.7549 9.08432 16.3093C8.69521 16.8647 8.50065 17.4965 8.50065 18.2048V24.084ZM12.7507 14.8757V12.0423H21.2507V14.8757H12.7507ZM10.6257 19.834V18.2048C10.6257 17.8743 10.7437 17.5909 10.9798 17.3548C11.2159 17.1187 11.4993 17.0007 11.8298 17.0007H22.1715C22.502 17.0007 22.7854 17.1187 23.0215 17.3548C23.2576 17.5909 23.3757 17.8743 23.3757 18.2048V19.834H10.6257ZM5.66732 31.1673C4.88815 31.1673 4.22137 30.8901 3.66698 30.3357C3.11165 29.7804 2.83398 29.1132 2.83398 28.334V5.66732C2.83398 4.88815 3.11165 4.2209 3.66698 3.66557C4.22137 3.11118 4.88815 2.83398 5.66732 2.83398H28.334C29.1132 2.83398 29.7804 3.11118 30.3357 3.66557C30.8901 4.2209 31.1673 4.88815 31.1673 5.66732V28.334C31.1673 29.1132 30.8901 29.7804 30.3357 30.3357C29.7804 30.8901 29.1132 31.1673 28.334 31.1673H5.66732ZM5.66732 28.334H28.334V5.66732H5.66732V28.334ZM5.66732 28.334V5.66732V28.334Z" fill="#AAE250"/>
</svg>
