<svg width="34" height="34" viewBox="0 0 34 34" fill="none" xmlns="http://www.w3.org/2000/svg">
<path d="M4.25 7.08333V26.9167C4.25 28.4792 5.52075 29.75 7.08333 29.75H26.9167C28.4792 29.75 29.75 28.4792 29.75 26.9167V7.08333C29.75 5.52075 28.4792 4.25 26.9167 4.25H7.08333C5.52075 4.25 4.25 5.52075 4.25 7.08333ZM26.9195 26.9167H7.08333V7.08333H26.9167L26.9195 26.9167Z" fill="#AAE250"/>
<path d="M21.2493 15.9993C21.2493 16.5516 21.6971 16.9993 22.2493 16.9993H23.0827C23.635 16.9993 24.0827 16.5516 24.0827 15.9993V10.916C24.0827 10.3637 23.635 9.91602 23.0827 9.91602H17.9994C17.4471 9.91602 16.9993 10.3637 16.9993 10.916V11.7493C16.9993 12.3016 17.4471 12.7493 17.9993 12.7493H20.2493C20.8016 12.7493 21.2493 13.1971 21.2493 13.7493V15.9993ZM16.9993 22.2493C16.9993 21.6971 16.5516 21.2493 15.9993 21.2493H13.7493C13.1971 21.2493 12.7493 20.8016 12.7493 20.2493V17.9993C12.7493 17.4471 12.3016 16.9993 11.7493 16.9993H10.916C10.3637 16.9993 9.91602 17.4471 9.91602 17.9993V23.0827C9.91602 23.635 10.3637 24.0827 10.916 24.0827H15.9993C16.5516 24.0827 16.9993 23.635 16.9993 23.0827V22.2493Z" fill="#AAE250"/>
</svg>
