<svg width="20" height="20" viewBox="0 0 20 20" fill="none" xmlns="http://www.w3.org/2000/svg">
<path d="M19.7219 16.6309L16.9021 19.4281C16.4859 19.855 15.9342 19.9996 15.3969 20.0002C13.0207 19.9291 10.7747 18.7618 8.93052 17.5633C5.90349 15.3612 3.12605 12.6306 1.38289 9.33078C0.71432 7.94706 -0.0701468 6.18154 0.00480323 4.63706C0.0114866 4.05606 0.168053 3.48584 0.577237 3.11134L3.397 0.292992C3.98254 -0.205058 4.54879 -0.0328582 4.92349 0.547275L7.192 4.84898C7.43077 5.35859 7.2938 5.90463 6.93757 6.26878L5.8987 7.30711C5.83457 7.39496 5.79374 7.49496 5.7927 7.60379C6.19107 9.14583 7.39792 10.5671 8.46405 11.5452C9.53017 12.5234 10.6761 13.8485 12.1637 14.1622C12.3475 14.2135 12.5728 14.2315 12.7043 14.1093L13.9128 12.8802C14.3294 12.5645 14.9309 12.4101 15.3757 12.6683H15.3969L19.4887 15.084C20.0894 15.4606 20.152 16.1882 19.7219 16.6309Z" fill="#F28057"/>
</svg>
