<svg width="59" height="35" viewBox="0 0 59 35" fill="none" xmlns="http://www.w3.org/2000/svg">
<path d="M20.8864 25.5073C20.8864 22.2776 19.4227 19.8417 17.481 19.8417C15.5393 19.8417 14.076 22.2776 14.076 25.5073C14.076 28.737 15.5398 31.1724 17.481 31.1724C17.7094 31.1724 17.9285 31.0816 18.0901 30.9201C18.2516 30.7586 18.3423 30.5395 18.3423 30.3111C18.3423 30.0826 18.2516 29.8635 18.0901 29.702C17.9285 29.5405 17.7094 29.4497 17.481 29.4497C16.7949 29.4497 15.7987 27.9141 15.7987 25.5073C15.7987 23.1005 16.7949 21.5644 17.481 21.5644C18.1671 21.5644 19.1638 23.1 19.1638 25.5073C19.1638 25.7357 19.2545 25.9548 19.4161 26.1164C19.5776 26.2779 19.7967 26.3686 20.0251 26.3686C20.2536 26.3686 20.4726 26.2779 20.6342 26.1164C20.7957 25.9548 20.8864 25.7357 20.8864 25.5073Z" fill="#AAE250"/>
<path d="M8.2863 30.439C8.36875 30.3615 8.4351 30.2684 8.48159 30.1652C8.52807 30.062 8.55378 29.9507 8.55723 29.8375C8.56068 29.7244 8.54181 29.6117 8.5017 29.5058C8.46159 29.4 8.40103 29.3031 8.32346 29.2206C8.2459 29.1382 8.15286 29.0718 8.04965 29.0253C7.94645 28.9788 7.8351 28.9531 7.72196 28.9497C7.60882 28.9462 7.4961 28.9651 7.39026 29.0052C7.28441 29.0453 7.1875 29.1059 7.10505 29.1835C6.96492 29.3377 6.77137 29.4329 6.56365 29.4497C5.87754 29.4497 4.88086 27.9141 4.88086 25.5073C4.88086 23.1005 5.87754 21.5644 6.56365 21.5644C6.79209 21.5644 7.01117 21.4736 7.1727 21.3121C7.33423 21.1506 7.42498 20.9315 7.42498 20.7031C7.42498 20.4746 7.33423 20.2555 7.1727 20.094C7.01117 19.9325 6.79209 19.8417 6.56365 19.8417C4.62246 19.8417 3.1582 22.2776 3.1582 25.5073C3.1582 28.737 4.62246 31.1724 6.56365 31.1724C7.21096 31.1592 7.82815 30.8965 8.2863 30.439Z" fill="#AAE250"/>
<path d="M8.8279 27.8752C8.87762 27.8839 8.92802 27.8884 8.97851 27.8885C9.1808 27.8882 9.37653 27.8167 9.53141 27.6866C9.68629 27.5565 9.79042 27.376 9.82556 27.1768C9.92196 26.6257 9.96988 26.0672 9.96879 25.5078C9.96879 25.2793 9.87804 25.0602 9.71651 24.8987C9.55498 24.7372 9.3359 24.6464 9.10746 24.6464C8.87902 24.6464 8.65994 24.7372 8.49841 24.8987C8.33688 25.0602 8.24613 25.2793 8.24613 25.5078C8.24698 25.9667 8.20795 26.4248 8.12949 26.877C8.10979 26.9884 8.11224 27.1026 8.13668 27.2131C8.16112 27.3235 8.20708 27.4281 8.27194 27.5208C8.33679 27.6135 8.41927 27.6925 8.51466 27.7533C8.61006 27.8141 8.7165 27.8555 8.8279 27.8752Z" fill="#AAE250"/>
<path d="M14.537 8.63181C14.3086 8.63181 14.0895 8.72256 13.9279 8.88409C13.7664 9.04562 13.6757 9.2647 13.6757 9.49314C13.6757 11.7498 12.6962 13.1905 12.0219 13.1905C11.3476 13.1905 10.3682 11.7498 10.3682 9.49314C10.3682 7.23646 11.3476 5.79681 12.0219 5.79681C12.2504 5.79681 12.4694 5.70607 12.631 5.54454C12.7925 5.38301 12.8832 5.16392 12.8832 4.93549C12.8832 4.70705 12.7925 4.48796 12.631 4.32643C12.4694 4.1649 12.2504 4.07416 12.0219 4.07416C10.0975 4.07416 8.64551 6.40368 8.64551 9.49314C8.64551 12.5826 10.0975 14.9131 12.0219 14.9131C13.9464 14.9131 15.3983 12.5831 15.3983 9.49314C15.3982 9.26474 15.3074 9.04574 15.1459 8.88424C14.9844 8.72273 14.7654 8.63195 14.537 8.63181Z" fill="#AAE250"/>
<path d="M58.7564 25.5326C58.7564 25.5237 58.7564 25.5153 58.7564 25.507C58.7564 20.5492 55.9878 16.654 52.45 16.6392H50.7495C52.3018 15.0377 53.297 12.4601 53.297 9.49414C53.297 4.53683 50.5285 0.641658 46.9906 0.626892H12.0227C8.53751 0.626892 5.70202 4.60475 5.70202 9.49414C5.70202 12.4271 6.72626 15.0239 8.29486 16.6392H6.56384C3.07866 16.6392 0.243164 20.6171 0.243164 25.507C0.243164 30.3969 3.07816 34.3742 6.56384 34.3742H17.482H52.4539C55.9755 34.3609 58.7352 30.4933 58.7539 25.5611C58.7539 25.5547 58.7539 25.5488 58.7539 25.5424L58.7564 25.5326ZM50.057 4.20756H30.5289C30.3005 4.20756 30.0814 4.2983 29.9199 4.45983C29.7584 4.62136 29.6676 4.84045 29.6676 5.06889C29.6676 5.29732 29.7584 5.51641 29.9199 5.67794C30.0814 5.83947 30.3005 5.93021 30.5289 5.93021H50.9547C51.3714 7.07196 51.5813 8.27877 51.5749 9.49414C51.5805 10.6386 51.3964 11.776 51.03 12.8602H24.3239C24.0955 12.8602 23.8764 12.951 23.7149 13.1125C23.5533 13.274 23.4626 13.4931 23.4626 13.7215C23.4626 13.95 23.5533 14.1691 23.7149 14.3306C23.8764 14.4921 24.0955 14.5829 24.3239 14.5829H50.1968C49.3689 15.8478 48.2364 16.6338 46.9877 16.6392H15.7505C17.3073 14.9051 18.213 12.6838 18.3124 10.3555H35.7506C35.979 10.3555 36.1981 10.2647 36.3596 10.1032C36.5211 9.94166 36.6119 9.72258 36.6119 9.49414C36.6119 9.26571 36.5211 9.04662 36.3596 8.88509C36.1981 8.72356 35.979 8.63282 35.7506 8.63282H18.3124C18.2133 6.30506 17.3086 4.08403 15.753 2.34955H46.9897C48.1684 2.35496 49.2429 3.06174 50.057 4.20756ZM13.7542 18.3619C13.0132 19.1445 12.4258 20.0595 12.0227 21.0591C11.6199 20.0593 11.0325 19.1443 10.2912 18.3619H13.7542ZM7.42467 9.49414C7.42467 5.62161 9.53025 2.34955 12.0227 2.34955C14.5151 2.34955 16.6207 5.62161 16.6207 9.49414C16.6207 13.3667 14.5151 16.6392 12.0227 16.6392C9.53025 16.6392 7.42467 13.3662 7.42467 9.49414ZM1.96533 25.507C1.96533 21.6339 4.07091 18.3619 6.56334 18.3619C9.05578 18.3619 11.1614 21.6339 11.1614 25.507C11.1614 29.38 9.05578 32.6516 6.56384 32.6516C4.07189 32.6516 1.96533 29.3795 1.96533 25.507ZM12.0227 29.9529C12.4258 30.9525 13.0132 31.8674 13.7542 32.6501H10.2912C11.0325 31.8677 11.6199 30.9527 12.0227 29.9529ZM12.884 25.5055C12.884 21.6325 14.9901 18.3604 17.482 18.3604C19.974 18.3604 22.0805 21.6325 22.0805 25.5055C22.0805 29.3785 19.9745 32.6501 17.482 32.6501C14.9896 32.6501 12.884 29.3795 12.884 25.507V25.5055ZM52.4505 32.6516H21.2104C22.76 30.9262 23.6644 28.7175 23.7697 26.4008H29.7306C29.959 26.4008 30.1781 26.31 30.3397 26.1485C30.5012 25.987 30.5919 25.7679 30.5919 25.5395C30.5919 25.311 30.5012 25.0919 30.3397 24.9304C30.1781 24.7689 29.959 24.6781 29.7306 24.6781H23.7751C23.7148 23.7421 23.5423 22.8167 23.2613 21.9219H42.7066C42.9351 21.9219 43.1542 21.8311 43.3157 21.6696C43.4772 21.5081 43.568 21.289 43.568 21.0606C43.568 20.8321 43.4772 20.613 43.3157 20.4515C43.1542 20.29 42.9351 20.1992 42.7066 20.1992H22.5343C22.1809 19.5276 21.7352 18.9087 21.2104 18.3604H52.4475C54.7967 18.3698 56.736 21.1359 57.0008 24.6776H36.9013C36.6729 24.6776 36.4538 24.7684 36.2922 24.9299C36.1307 25.0914 36.04 25.3105 36.04 25.539C36.04 25.7674 36.1307 25.9865 36.2922 26.148C36.4538 26.3095 36.6729 26.4003 36.9013 26.4003H56.9939C56.7089 29.9111 54.781 32.6417 52.4505 32.6516Z" fill="#AAE250"/>
<path d="M46.7363 21.9238H49.1973C49.4257 21.9238 49.6448 21.833 49.8063 21.6715C49.9678 21.51 50.0586 21.2909 50.0586 21.0624C50.0586 20.834 49.9678 20.6149 49.8063 20.4534C49.6448 20.2919 49.4257 20.2011 49.1973 20.2011H46.7363C46.5079 20.2011 46.2888 20.2919 46.1273 20.4534C45.9657 20.6149 45.875 20.834 45.875 21.0624C45.875 21.2909 45.9657 21.51 46.1273 21.6715C46.2888 21.833 46.5079 21.9238 46.7363 21.9238Z" fill="#AAE250"/>
<path d="M38.5069 28.7792H27.7998C27.5714 28.7792 27.3523 28.87 27.1908 29.0315C27.0292 29.193 26.9385 29.4121 26.9385 29.6406C26.9385 29.869 27.0292 30.0881 27.1908 30.2496C27.3523 30.4111 27.5714 30.5019 27.7998 30.5019H38.5069C38.7353 30.5019 38.9544 30.4111 39.1159 30.2496C39.2774 30.0881 39.3682 29.869 39.3682 29.6406C39.3682 29.4121 39.2774 29.193 39.1159 29.0315C38.9544 28.87 38.7353 28.7792 38.5069 28.7792Z" fill="#AAE250"/>
<path d="M52.0808 28.7792H45.5264C45.2979 28.7792 45.0788 28.87 44.9173 29.0315C44.7558 29.193 44.665 29.4121 44.665 29.6406C44.665 29.869 44.7558 30.0881 44.9173 30.2496C45.0788 30.4111 45.2979 30.5019 45.5264 30.5019H52.0808C52.3093 30.5019 52.5284 30.4111 52.6899 30.2496C52.8514 30.0881 52.9422 29.869 52.9422 29.6406C52.9422 29.4121 52.8514 29.193 52.6899 29.0315C52.5284 28.87 52.3093 28.7792 52.0808 28.7792Z" fill="#AAE250"/>
<path d="M22.0244 5.92963H24.9229C25.1513 5.92963 25.3704 5.83888 25.532 5.67735C25.6935 5.51582 25.7842 5.29674 25.7842 5.0683C25.7842 4.83986 25.6935 4.62078 25.532 4.45925C25.3704 4.29772 25.1513 4.20697 24.9229 4.20697H22.0244C21.796 4.20697 21.5769 4.29772 21.4154 4.45925C21.2538 4.62078 21.1631 4.83986 21.1631 5.0683C21.1631 5.29674 21.2538 5.51582 21.4154 5.67735C21.5769 5.83888 21.796 5.92963 22.0244 5.92963Z" fill="#AAE250"/>
<path d="M40.5479 10.3554H43.9065C44.135 10.3554 44.3541 10.2647 44.5156 10.1031C44.6771 9.9416 44.7679 9.72252 44.7679 9.49408C44.7679 9.26564 44.6771 9.04656 44.5156 8.88503C44.3541 8.7235 44.135 8.63275 43.9065 8.63275H40.5479C40.3194 8.63275 40.1003 8.7235 39.9388 8.88503C39.7773 9.04656 39.6865 9.26564 39.6865 9.49408C39.6865 9.72252 39.7773 9.9416 39.9388 10.1031C40.1003 10.2647 40.3194 10.3554 40.5479 10.3554Z" fill="#AAE250"/>
</svg>
