<svg width="15" height="15" viewBox="0 0 15 15" fill="none" xmlns="http://www.w3.org/2000/svg">
<path d="M12.4039 7.5L6.96112 14.4542C6.87703 14.5608 6.95291 14.7187 7.09032 14.7187L8.67557 14.7187C8.77606 14.7187 8.87244 14.6716 8.93397 14.5937L14.1696 7.904C14.2603 7.78847 14.3096 7.64585 14.3096 7.49898C14.3096 7.35211 14.2603 7.20948 14.1696 7.09395L8.93397 0.406348C8.87245 0.326368 8.77606 0.28125 8.67557 0.28125L7.09032 0.28125C6.95291 0.28125 6.87704 0.439162 6.96112 0.545801L12.4039 7.5ZM6.16951 7.5L0.726741 14.4542C0.642658 14.5608 0.718537 14.7187 0.85594 14.7187L2.44119 14.7187C2.54168 14.7187 2.63807 14.6716 2.69959 14.5937L7.93524 7.904C8.02591 7.78847 8.0752 7.64584 8.0752 7.49898C8.0752 7.35211 8.02591 7.20948 7.93524 7.09395L2.69959 0.406347C2.63807 0.326367 2.54168 0.28125 2.44119 0.28125L0.855941 0.28125C0.718539 0.28125 0.642659 0.439161 0.726742 0.545801L6.16951 7.5Z" fill="white"/>
</svg>
