<svg width="60" height="60" viewBox="0 0 60 60" fill="none" xmlns="http://www.w3.org/2000/svg">
<path d="M56.0573 8.39725C55.9496 7.62366 55.393 6.98732 54.6405 6.77817L30.5255 0.0717647C30.1817 -0.0239216 29.8186 -0.0239216 29.4745 0.0717647L5.3595 6.77817C4.60709 6.98732 4.05048 7.6234 3.94277 8.39725C3.8029 9.40301 0.612053 33.1667 8.79637 44.9884C16.971 56.7959 29.0304 59.8218 29.5396 59.945C29.691 59.9816 29.8453 59.9996 30 59.9996C30.1548 59.9996 30.309 59.9813 30.4604 59.945C30.97 59.8218 43.0293 56.7959 51.2037 44.9884C59.388 33.1669 56.1971 9.40327 56.0573 8.39725ZM45.5511 22.2707L29.1022 38.7196C28.7195 39.1024 28.2175 39.294 27.7158 39.294C27.2141 39.294 26.7122 39.1026 26.3294 38.7196L16.1592 28.5494C15.7914 28.1818 15.5849 27.683 15.5849 27.163C15.5849 26.643 15.7917 26.1442 16.1592 25.7766L18.1786 23.7573C18.9443 22.9918 20.1859 22.9915 20.9514 23.7573L27.7158 30.5217L40.759 17.4783C41.1266 17.1105 41.6254 16.9039 42.1454 16.9039C42.6654 16.9039 43.1642 17.1105 43.5318 17.4783L45.5511 19.4976C46.3169 20.2634 46.3169 21.505 45.5511 22.2707Z" fill="#FFBE52"/>
</svg>
