<svg width="59" height="65" viewBox="0 0 59 65" fill="none" xmlns="http://www.w3.org/2000/svg">
<path d="M55.9403 13.5059H50.7739C51.9588 12.638 52.873 11.4309 53.3835 10.0186C54.1292 7.95673 53.9341 5.68142 52.8489 3.77621C51.5219 1.44683 49.0303 0 46.3458 0C44.2259 0 42.2689 0.863665 40.8351 2.43168L34.4633 9.40062C33.4951 8.29294 32.076 7.58892 30.4926 7.58892H28.507C26.9236 7.58892 25.5045 8.29294 24.5362 9.40095L18.1645 2.43201C16.7307 0.863665 14.774 0 12.6541 0C9.96959 0 7.47764 1.44683 6.15103 3.77621C5.0655 5.68175 4.87068 7.95706 5.61641 10.019C6.12692 11.4313 7.04108 12.638 8.22565 13.5059H3.05962C1.70988 13.5059 0.616211 14.5999 0.616211 15.9493V29.2092C0.616211 30.5036 1.62355 31.5601 2.89673 31.6445V62.5566C2.89673 63.906 3.9904 65 5.34014 65H21.7925H37.2075H53.6598C55.0095 65 56.1032 63.906 56.1032 62.5566V31.6445C57.3764 31.5604 58.3837 30.5039 58.3837 29.2092V15.9493C58.3837 14.5999 57.29 13.5059 55.9403 13.5059ZM34.764 18.4165V60.1132H24.2359V18.4165H25.6719H33.328H34.764ZM10.212 8.35712C9.95005 7.63225 10.0155 6.86436 10.397 6.19487C10.8639 5.37583 11.7077 4.88683 12.6541 4.88683C13.3852 4.88683 14.0612 5.1859 14.558 5.72932L21.6683 13.5059H21.3429L11.737 9.90104C11.0157 9.62998 10.4739 9.08168 10.212 8.35712ZM48.7879 8.3568C48.5257 9.08168 47.9839 9.62998 47.2623 9.90071L37.6571 13.5059H37.3316L44.4416 5.72932C44.9381 5.1859 45.6148 4.88683 46.3458 4.88683C47.2922 4.88683 48.136 5.37583 48.6029 6.19519C48.9837 6.86436 49.0499 7.63224 48.7879 8.3568Z" fill="#D2DBF5"/>
</svg>
