<svg width="31" height="37" viewBox="0 0 31 37" fill="none" xmlns="http://www.w3.org/2000/svg">
<path d="M8.50353 25.9812C7.98262 25.6799 7.3363 25.4164 6.65215 25.1377C6.23384 24.9673 5.80213 24.7909 5.3723 24.5953L0.702507 33.092C0.370767 33.6959 0.654149 34.0911 1.33241 33.9704L3.47268 33.5891C4.15095 33.4684 4.91503 33.8932 5.17034 34.5331L5.95535 36.5C6.21066 37.1399 6.69124 37.1696 7.02298 36.5658L11.593 28.2502C11.0471 27.8843 10.5446 27.4885 10.08 27.1221C9.52042 26.6806 8.99199 26.2639 8.50353 25.9812Z" fill="#EB6161"/>
<path d="M30.2975 33.092L25.6276 24.5952C25.1977 24.7909 24.766 24.9673 24.3477 25.1377C23.6636 25.4164 23.0174 25.6799 22.4963 25.9812C22.0078 26.2639 21.4792 26.6807 20.9197 27.122C20.4552 27.4883 19.9528 27.884 19.4068 28.25L23.977 36.5657C24.3088 37.1695 24.7893 37.1399 25.0447 36.4999L25.8297 34.533C26.085 33.8931 26.849 33.4683 27.5273 33.589L29.6676 33.9702C30.3458 34.091 30.6292 33.6959 30.2975 33.092Z" fill="#EB6161"/>
<path d="M9.44463 24.3546C11.355 25.4599 13.134 27.7286 15.4999 27.7286C17.8658 27.7286 19.6448 25.46 21.5553 24.3546C23.5263 23.2141 26.368 22.7689 27.5084 20.7979C28.6137 18.8874 27.6104 16.2299 27.6104 13.864C27.6104 11.4981 28.6137 8.84084 27.5084 6.93033C26.3679 4.95943 23.5263 4.51419 21.5551 3.37377C19.6448 2.26856 17.8658 0 15.4999 0C13.134 0 11.355 2.26856 9.44463 3.37402C7.47361 4.51419 4.6319 4.95956 3.49161 6.93045C2.38614 8.84096 3.38963 11.4983 3.38963 13.8642C3.38963 16.2301 2.38614 18.8875 3.49148 20.798C4.6319 22.7689 7.47349 23.2143 9.44463 24.3546ZM15.4999 3.8888C21.0004 3.8888 25.4755 8.36378 25.4755 13.8642C25.4755 19.3647 21.0004 23.8398 15.4999 23.8398C9.9995 23.8398 5.52452 19.3647 5.52452 13.8642C5.52452 8.36378 9.9995 3.8888 15.4999 3.8888Z" fill="#EB6161"/>
<path d="M15.4999 21.9606C19.9644 21.9606 23.5963 18.3287 23.5963 13.8642C23.5963 9.40007 19.9644 5.76797 15.4999 5.76797C11.0355 5.76797 7.40369 9.40007 7.40369 13.8642C7.40369 18.3287 11.0355 21.9606 15.4999 21.9606Z" fill="#EB6161"/>
</svg>
