<svg width="23" height="15" viewBox="0 0 23 15" fill="none" xmlns="http://www.w3.org/2000/svg">
<path fill-rule="evenodd" clip-rule="evenodd" d="M5.81174 3.60229C4.97886 5.58353 3.66728 8.70476 2.89705 10.5383L1.49664 13.872L0.748348 13.8859L0 13.8999V14.4499V15H4.10714H8.21429V14.4486V13.8971H7.40049H6.58669L7.40489 11.7289C7.85487 10.5365 8.22907 9.55513 8.23633 9.54822C8.24364 9.54135 8.99528 10.7538 9.90664 12.2426C10.8179 13.7314 11.5823 14.9386 11.6052 14.9253C11.628 14.9119 12.3576 13.6917 13.2265 12.2137C14.597 9.88219 14.8124 9.54185 14.8531 9.64377C15.0634 10.1704 16.4286 13.8173 16.4286 13.8522C16.4286 13.8769 16.0709 13.8971 15.6336 13.8971H14.8387V14.4486V15H18.9194H23V14.4486V13.8971H22.2928H21.5857L18.7495 6.99152C16.4593 1.41541 15.894 0.0832181 15.8132 0.0719386C15.7301 0.0603582 15.3687 0.697277 13.6795 3.83179C12.561 5.90743 11.6306 7.62172 11.612 7.64137C11.5818 7.6732 10.7802 6.24892 8.12785 1.4506L7.32603 0L5.81174 3.60229Z" fill="#FF0000"/>
</svg>
