<svg width="16" height="16" viewBox="0 0 16 16" fill="none" xmlns="http://www.w3.org/2000/svg">
<path d="M7.5 1C5.01214 1 3 3.0345 3 5.55C3 8.9625 7.5 14 7.5 14C7.5 14 12 8.9625 12 5.55C12 3.0345 9.98786 1 7.5 1ZM7.5 7.175C7.07376 7.175 6.66498 7.0038 6.36358 6.69905C6.06218 6.3943 5.89286 5.98098 5.89286 5.55C5.89286 5.11902 6.06218 4.7057 6.36358 4.40095C6.66498 4.0962 7.07376 3.925 7.5 3.925C7.92624 3.925 8.33502 4.0962 8.63642 4.40095C8.93782 4.7057 9.10714 5.11902 9.10714 5.55C9.10714 5.98098 8.93782 6.3943 8.63642 6.69905C8.33502 7.0038 7.92624 7.175 7.5 7.175Z" fill="#4F6ECB"/>
</svg>
