<svg width="48" height="54" viewBox="0 0 48 54" fill="none" xmlns="http://www.w3.org/2000/svg">
<path d="M8.9375 1.52348L44.5625 22.125C45.4193 22.6182 46.131 23.3286 46.6258 24.1844C47.1207 25.0403 47.3813 26.0114 47.3813 27C47.3813 27.9887 47.1207 28.9598 46.6258 29.8157C46.131 30.6715 45.4193 31.3818 44.5625 31.875L8.9375 52.4766C8.08504 52.9771 7.11533 53.243 6.12683 53.2475C5.13833 53.252 4.16625 52.9948 3.30931 52.502C2.45236 52.0093 1.74107 51.2985 1.24766 50.442C0.754253 49.5854 0.496304 48.6135 0.5 47.625V6.37504C0.496304 5.38654 0.754253 4.41466 1.24766 3.5581C1.74107 2.70153 2.45236 1.9908 3.30931 1.49805C4.16625 1.00531 5.13833 0.748112 6.12683 0.752575C7.11533 0.757042 8.08504 1.02301 8.9375 1.52348Z" fill="white"/>
</svg>
