<svg width="95" height="25" viewBox="0 0 95 25" fill="none" xmlns="http://www.w3.org/2000/svg">
<rect x="0.5" y="0.5" width="94" height="24" rx="9.5" stroke="url(#paint0_linear_102_222)"/>
<path d="M12.19 18V8.06H19.862V18H18.602V9.18H13.45V18H12.19ZM22.2388 18V8.06H26.3828C26.8215 8.06 27.2228 8.15333 27.5868 8.34C27.9508 8.51733 28.2682 8.76 28.5388 9.068C28.8095 9.36667 29.0195 9.70733 29.1688 10.09C29.3182 10.4633 29.3928 10.846 29.3928 11.238C29.3928 11.7793 29.2715 12.2973 29.0288 12.792C28.7862 13.2773 28.4455 13.674 28.0068 13.982C27.5682 14.2807 27.0548 14.43 26.4668 14.43H23.4988V18H22.2388ZM23.4988 13.31H26.3968C26.7422 13.31 27.0408 13.2167 27.2928 13.03C27.5542 12.8433 27.7548 12.5913 27.8948 12.274C28.0442 11.9567 28.1188 11.6113 28.1188 11.238C28.1188 10.846 28.0348 10.496 27.8668 10.188C27.6988 9.87067 27.4795 9.62333 27.2088 9.446C26.9382 9.26867 26.6395 9.18 26.3128 9.18H23.4988V13.31ZM37.7095 16.88V18H30.9615V8.06H37.5835V9.18H32.2215V12.4H36.8835V13.45H32.2215V16.88H37.7095ZM48.034 18V10.412L44.758 16.25H43.988L40.698 10.412V18H39.438V8.06H40.768L44.366 14.514L47.978 8.06H49.294V18H48.034ZM51.7444 18V8.06H53.0044V16.25L58.7584 8.06H59.9344V18H58.6744V9.964L52.9904 18H51.7444ZM63.4435 18.042V16.978H64.0735C64.3068 16.978 64.4795 16.922 64.5915 16.81C64.7128 16.6887 64.8388 16.5113 64.9695 16.278L65.3335 15.494L61.1895 8.06H62.5755L65.9075 14.206L68.7075 8.06H70.0375L65.9355 16.88C65.7301 17.3 65.5108 17.5987 65.2775 17.776C65.0535 17.9533 64.7408 18.042 64.3395 18.042H63.4435ZM79.6844 18V10.412L76.4084 16.25H75.6384L72.3484 10.412V18H71.0884V8.06H72.4184L76.0164 14.514L79.6284 8.06H80.9444V18H79.6844Z" fill="url(#paint1_linear_102_222)"/>
<defs>
<linearGradient id="paint0_linear_102_222" x1="94" y1="1.49999" x2="1.84557e-06" y2="23.5" gradientUnits="userSpaceOnUse">
<stop stop-color="#FFC12F"/>
<stop offset="0.494792" stop-color="#FFC12F" stop-opacity="0.13"/>
<stop offset="1" stop-color="#EBA500"/>
</linearGradient>
<linearGradient id="paint1_linear_102_222" x1="91" y1="0.999992" x2="4.5" y2="22" gradientUnits="userSpaceOnUse">
<stop stop-color="#FFC12F"/>
<stop offset="0.494792" stop-color="#FFC12F" stop-opacity="0.33"/>
<stop offset="1" stop-color="#FFC12F" stop-opacity="0.96"/>
</linearGradient>
</defs>
</svg>
