<svg width="95" height="25" viewBox="0 0 95 25" fill="none" xmlns="http://www.w3.org/2000/svg">
<rect x="0.5" y="0.5" width="94" height="24" rx="9.5" stroke="url(#paint0_linear_102_220)"/>
<path d="M10.546 12.96C10.546 12.3533 10.6487 11.7607 10.854 11.182C11.0687 10.594 11.3767 10.062 11.778 9.586C12.1887 9.10067 12.688 8.718 13.276 8.438C13.864 8.14867 14.5313 8.004 15.278 8.004C16.1647 8.004 16.9253 8.20933 17.56 8.62C18.1947 9.02133 18.666 9.53933 18.974 10.174L17.98 10.818C17.784 10.398 17.532 10.0667 17.224 9.824C16.9253 9.572 16.5987 9.39467 16.244 9.292C15.8987 9.18933 15.558 9.138 15.222 9.138C14.6713 9.138 14.1813 9.25 13.752 9.474C13.332 9.698 12.9773 9.99667 12.688 10.37C12.3987 10.7433 12.1793 11.1633 12.03 11.63C11.89 12.0873 11.82 12.5493 11.82 13.016C11.82 13.5293 11.904 14.024 12.072 14.5C12.2493 14.976 12.492 15.396 12.8 15.76C13.108 16.124 13.472 16.4133 13.892 16.628C14.312 16.8427 14.7693 16.95 15.264 16.95C15.6093 16.95 15.964 16.8893 16.328 16.768C16.692 16.6467 17.0327 16.46 17.35 16.208C17.6673 15.9467 17.9193 15.6107 18.106 15.2L19.156 15.774C18.9507 16.2687 18.6333 16.6887 18.204 17.034C17.7747 17.3793 17.294 17.6407 16.762 17.818C16.2393 17.9953 15.7213 18.084 15.208 18.084C14.5267 18.084 13.9013 17.9393 13.332 17.65C12.7627 17.3513 12.268 16.9593 11.848 16.474C11.4373 15.9793 11.1153 15.4287 10.882 14.822C10.658 14.206 10.546 13.5853 10.546 12.96ZM27.901 9.18H24.471V18H23.211V9.18H19.781V8.06H27.901V9.18ZM31.4269 8.06H32.4909L36.5509 18H35.2069L34.0309 15.088H29.8589L28.6969 18H27.3529L31.4269 8.06ZM33.7509 14.108L31.9589 9.516L30.1109 14.108H33.7509ZM45.8715 8.06V18H44.6115V13.478H39.1375V18H37.8775V8.06H39.1375V12.358H44.6115V8.06H45.8715ZM47.5545 19.904V16.88H48.0025C48.2638 16.88 48.4925 16.7773 48.6885 16.572C48.8845 16.3573 49.0525 16.0213 49.1925 15.564C49.3325 15.0973 49.4445 14.4767 49.5285 13.702C49.6125 12.9273 49.6731 11.9707 49.7105 10.832L49.7805 8.06H55.9405V16.88H57.1725V19.904H56.0525V18H48.6745V19.904H47.5545ZM49.6825 16.88H54.6805V9.18H50.9425L50.9005 10.986C50.8725 12.162 50.8118 13.1467 50.7185 13.94C50.6251 14.7333 50.4945 15.368 50.3265 15.844C50.1585 16.32 49.9438 16.6653 49.6825 16.88ZM61.8742 8.06H62.9382L66.9982 18H65.6542L64.4782 15.088H60.3062L59.1442 18H57.8002L61.8742 8.06ZM64.1982 14.108L62.4062 9.516L60.5582 14.108H64.1982ZM68.3248 18V8.06H72.4688C72.9074 8.06 73.3088 8.15333 73.6728 8.34C74.0368 8.51733 74.3541 8.76 74.6248 9.068C74.8954 9.36667 75.1054 9.70733 75.2548 10.09C75.4041 10.4633 75.4788 10.846 75.4788 11.238C75.4788 11.7793 75.3574 12.2973 75.1148 12.792C74.8721 13.2773 74.5314 13.674 74.0928 13.982C73.6541 14.2807 73.1408 14.43 72.5528 14.43H69.5848V18H68.3248ZM69.5848 13.31H72.4828C72.8281 13.31 73.1268 13.2167 73.3788 13.03C73.6401 12.8433 73.8408 12.5913 73.9808 12.274C74.1301 11.9567 74.2048 11.6113 74.2048 11.238C74.2048 10.846 74.1208 10.496 73.9528 10.188C73.7848 9.87067 73.5654 9.62333 73.2948 9.446C73.0241 9.26867 72.7254 9.18 72.3988 9.18H69.5848V13.31ZM84.2154 9.18H80.7854V18H79.5254V9.18H76.0954V8.06H84.2154V9.18Z" fill="url(#paint1_linear_102_220)"/>
<defs>
<linearGradient id="paint0_linear_102_220" x1="92.5" y1="1.5" x2="-6" y2="23.5" gradientUnits="userSpaceOnUse">
<stop stop-color="#D89C66"/>
<stop offset="0.416667" stop-color="#D89C66" stop-opacity="0.1"/>
<stop offset="1" stop-color="#B06E33"/>
</linearGradient>
<linearGradient id="paint1_linear_102_220" x1="85" y1="5.00001" x2="10" y2="19" gradientUnits="userSpaceOnUse">
<stop stop-color="#D89C66"/>
<stop offset="0.526042" stop-color="#D89C66" stop-opacity="0.34"/>
<stop offset="1" stop-color="#D89C66"/>
</linearGradient>
</defs>
</svg>
