<svg width="25" height="21" viewBox="0 0 25 21" fill="none" xmlns="http://www.w3.org/2000/svg">
<path d="M22.8686 0.185394C22.8686 0.185394 25.1813 -0.723605 24.9886 1.48397C24.9244 2.39298 24.3462 5.57448 23.8965 9.01571L22.3547 19.2095C22.3547 19.2095 22.2263 20.7029 21.0699 20.9626C19.9135 21.2223 18.1791 20.0536 17.8578 19.7939C17.6008 19.5991 13.0398 16.6773 11.4337 15.2489C10.984 14.8593 10.4701 14.0801 11.4979 13.1711L18.2433 6.6783C19.0142 5.89914 19.7851 4.08114 16.573 6.28872L7.57923 12.457C7.57923 12.457 6.55137 13.1062 4.62417 12.5219L0.448465 11.2233C0.448465 11.2233 -1.09333 10.2494 1.54057 9.27539C7.96471 6.22374 15.8664 3.10716 22.8686 0.185394Z" fill="#FFBE52"/>
</svg>
