<svg width="20" height="20" viewBox="0 0 20 20" fill="none" xmlns="http://www.w3.org/2000/svg">
<circle cx="10" cy="10" r="10" fill="#EB6161"/>
<path d="M13.4456 7.22317C13.6184 7.07845 13.8483 6.99844 14.0869 7.00002C14.3255 7.00161 14.5541 7.08467 14.7244 7.23169C14.8947 7.3787 14.9934 7.57816 14.9997 7.78798C15.006 7.9978 14.9194 8.20157 14.7582 8.3563L9.86357 13.7413C9.7794 13.8211 9.67782 13.8851 9.5649 13.9295C9.45198 13.9739 9.33003 13.9978 9.20636 13.9999C9.08268 14.0019 8.95981 13.9819 8.8451 13.9412C8.73038 13.9005 8.62618 13.8399 8.53872 13.7629L5.29283 10.9074C5.20243 10.8333 5.12993 10.744 5.07965 10.6447C5.02936 10.5454 5.00232 10.4382 5.00014 10.3296C4.99796 10.2209 5.02069 10.1129 5.06696 10.0122C5.11323 9.91138 5.18211 9.81984 5.26947 9.74298C5.35684 9.66612 5.4609 9.60553 5.57547 9.56483C5.69003 9.52412 5.81273 9.50413 5.93627 9.50604C6.0598 9.50796 6.18163 9.53175 6.29449 9.57599C6.40734 9.62022 6.50892 9.684 6.59315 9.76352L9.16189 12.0222L13.4223 7.24692C13.4299 7.23861 13.4381 7.23068 13.4468 7.22317H13.4456Z" fill="white"/>
</svg>
