<svg width="29" height="16" viewBox="0 0 29 16" fill="none" xmlns="http://www.w3.org/2000/svg">
<path d="M25.8131 11.2157C25.8131 11.2157 28.1577 13.4504 28.7377 14.4845C28.749 14.4994 28.7578 14.516 28.7638 14.5335C29.0002 14.9155 29.0582 15.215 28.9422 15.4361C28.7464 15.8013 28.0838 15.9846 27.859 16H23.7149C23.4264 16 22.8261 15.9272 22.0953 15.4403C21.537 15.0638 20.9817 14.4439 20.4437 13.838C19.6404 12.9383 18.9459 12.1574 18.2426 12.1574C18.1538 12.1572 18.0656 12.1714 17.9816 12.1994C17.4494 12.3617 16.7737 13.0936 16.7737 15.0429C16.7737 15.653 16.2749 16 15.9255 16H14.0274C13.3807 16 10.0138 15.7817 7.02829 12.7437C3.36993 9.02431 0.0842307 1.56306 0.0523306 1.49729C-0.15212 1.01452 0.277081 0.751443 0.741081 0.751443H4.92579C5.48694 0.751443 5.66964 1.07889 5.79724 1.37275C5.94514 1.70999 6.49324 3.05895 7.39224 4.57443C8.84804 7.04006 9.74269 8.04338 10.4575 8.04338C10.5918 8.04376 10.7239 8.00997 10.8403 7.94543C11.7741 7.45006 11.6001 4.23159 11.5566 3.56831C11.5566 3.43957 11.5552 2.13119 11.0767 1.49869C10.7345 1.0453 10.1516 0.868987 9.79924 0.804618C9.89349 0.67308 10.0936 0.471576 10.3502 0.352632C10.9897 0.0447785 12.1453 0 13.2923 0H13.9288C15.1729 0.016792 15.4948 0.0937553 15.9472 0.204303C16.8578 0.414203 16.8752 0.983733 16.7955 2.92321C16.7723 3.47735 16.7476 4.10145 16.7476 4.8361C16.7476 4.99283 16.7404 5.16774 16.7404 5.34546C16.7128 6.34039 16.6766 7.46126 17.4045 7.92164C17.4989 7.97839 17.6079 8.00845 17.7191 8.0084C17.9714 8.0084 18.7269 8.0084 20.7758 4.61501C21.6748 3.11632 22.3708 1.34896 22.4186 1.21602C22.4592 1.14186 22.581 0.933356 22.7289 0.849396C22.8341 0.795375 22.952 0.76839 23.0711 0.771034H27.9939C28.5304 0.771034 28.8943 0.849397 28.9654 1.0453C29.0843 1.36295 28.9422 2.33269 26.6947 5.2657C26.3162 5.75407 25.9842 6.17667 25.6927 6.54609C23.6555 9.12646 23.6555 9.2566 25.8131 11.2157Z" fill="#FFBE52"/>
</svg>
